<?xml version="1.0" encoding="utf-8"?>
<!-- Generator: Adobe Illustrator 17.0.0, SVG Export Plug-In . SVG Version: 6.00 Build 0)  -->
<!DOCTYPE svg PUBLIC "-//W3C//DTD SVG 1.1//EN" "http://www.w3.org/Graphics/SVG/1.1/DTD/svg11.dtd">
<svg version="1.1" id="Layer_1" xmlns="http://www.w3.org/2000/svg" xmlns:xlink="http://www.w3.org/1999/xlink" x="0px" y="0px"
	 width="720px" height="92px" viewBox="0 0 720 92" style="enable-background:new 0 0 720 92;" xml:space="preserve">
<style type="text/css">
	.st0{fill:none;}
	.st1{fill:#CF5665;}
	.st2{fill:#C85260;}
	.st3{fill:#CF5463;}
	.st4{fill:#F76E7F;}
	.st5{fill:#C4505E;}
	.st6{fill:#F6DDE0;}
	.st7{fill:#FFFFFF;}
</style>
<g id="_x31_-1-small.svg">
	<polygon class="st0" points="0,0 0,92 1,92 1,0.2 674,0.2 720,0.2 720,0.2 720,0 	"/>
	<polygon class="st1" points="85.3,77.2 109.9,91.5 120.8,70.2 151.4,92 600.7,92 674,0.2 1,0.2 1,92 85.3,92 	"/>
	<polygon class="st2" points="109.9,91.5 110.8,92 133.9,92 133.9,91.1 135.4,92 151.4,92 120.8,70.2 	"/>
	<polygon class="st3" points="133.9,91.1 133.9,92 135.4,92 	"/>
	<polygon class="st4" points="109.9,91.5 85.3,77.2 85.3,92 109.6,92 	"/>
	<polygon class="st4" points="110.8,92 109.9,91.5 109.6,92 	"/>
	<rect x="720" y="0.2" class="st5" width="0" height="91.9"/>
	<polygon class="st5" points="720,92 720,0.2 674,0.2 600.7,92 	"/>
	<path class="st6" d="M304,61.3v-9.4c0-5.2,2.9-8.7,6.3-11.7c3.5-3.2,5.3-5.3,5.3-8.7v-5.7c0-3.2-1.1-4.6-3.1-4.6c-2,0-3,1.4-3,4.6
		v4.8h-5.6v-5c0-6.1,3.1-9.7,8.6-9.7c5.5,0,8.8,3.6,8.8,9.7v6.2c0,5.2-3,8.7-6.5,11.7c-3.5,3.2-5.3,5.3-5.3,8.7V56h12.1v5.4H304z
		 M335.2,61.9c-5.7,0-9.2-3.6-9.2-9.7V25.5c0-6.1,3.6-9.7,9.2-9.7c5.7,0,9.2,3.6,9.2,9.7v26.6C344.4,58.3,340.9,61.9,335.2,61.9z
		 M338.8,25.8c0-3.2-1.4-4.6-3.6-4.6c-2.1,0-3.6,1.4-3.6,4.6v26.1c0,3.2,1.4,4.6,3.6,4.6c2.1,0,3.6-1.4,3.6-4.6V25.8z M350.1,69.5
		v-3.1c2.1-0.3,3.1-1.8,3.1-4.1v-0.9h-3.6v-7.1h6.6v8C356.2,66.9,353.1,69.2,350.1,69.5z M370.2,61.9c-5.7,0-9.2-3.6-9.2-9.7V25.5
		c0-6.1,3.6-9.7,9.2-9.7c5.7,0,9.2,3.6,9.2,9.7v26.6C379.5,58.3,375.9,61.9,370.2,61.9z M373.8,25.8c0-3.2-1.4-4.6-3.6-4.6
		c-2.1,0-3.6,1.4-3.6,4.6v26.1c0,3.2,1.4,4.6,3.6,4.6c2.1,0,3.6-1.4,3.6-4.6V25.8z M393.9,61.9c-5.7,0-9.2-3.6-9.2-9.7V25.5
		c0-6.1,3.6-9.7,9.2-9.7c5.7,0,9.2,3.6,9.2,9.7v26.6C403.1,58.3,399.6,61.9,393.9,61.9z M397.5,25.8c0-3.2-1.4-4.6-3.6-4.6
		c-2.1,0-3.6,1.4-3.6,4.6v26.1c0,3.2,1.4,4.6,3.6,4.6c2.1,0,3.6-1.4,3.6-4.6V25.8z M417.6,61.9c-5.7,0-9.2-3.6-9.2-9.7V25.5
		c0-6.1,3.6-9.7,9.2-9.7c5.7,0,9.2,3.6,9.2,9.7v26.6C426.8,58.3,423.2,61.9,417.6,61.9z M421.1,25.8c0-3.2-1.4-4.6-3.6-4.6
		c-2.1,0-3.6,1.4-3.6,4.6v26.1c0,3.2,1.4,4.6,3.6,4.6c2.1,0,3.6-1.4,3.6-4.6V25.8z"/>
	<path class="st7" d="M257.3,43.6c1.4,1.2,2.7,2.3,3.8,3.4c-0.6,0.7-1,1.2-1.4,1.6c-1.2-1.3-2.4-2.5-3.6-3.6L257.3,43.6z
		 M256.6,60.7c0.8-2.7,1.5-5.9,2.2-9.7c0.7,0.3,1.3,0.6,1.9,0.8c-0.7,3-1.4,6.2-2.1,9.5L256.6,60.7L256.6,60.7z M258.1,37
		c1.1,0.9,2.2,1.9,3.3,3c-0.5,0.5-0.9,1.1-1.3,1.5c-1-1.2-2.1-2.2-3.2-3.2L258.1,37z M261.9,43.9h17.4v1.7h-5.2c0,0.9,0,1.7,0,2.6
		h4.5v10.1c0,2-0.9,3-2.6,3c-0.8,0-1.6,0-2.5-0.1c-0.1-0.6-0.2-1.3-0.3-2c1,0.1,1.8,0.2,2.5,0.2c0.9,0,1.4-0.5,1.4-1.5v-1.8
		c-0.3,0.3-0.7,0.7-1.2,1.2c-0.8-1.2-1.7-2.2-2.4-3.2c-0.6,1.9-1.6,3.5-2.9,4.8c-0.3-0.5-0.7-0.9-1.2-1.4c1.9-1.7,2.9-4.3,3.2-7.6
		h-3.8c0,0.7-0.1,1.3-0.2,1.9c0.9,0.9,1.7,1.8,2.6,2.7c-0.1,0.1-0.6,0.6-1.3,1.3c-0.6-0.7-1.2-1.5-1.8-2.1c-0.6,1.8-1.5,3.4-2.8,4.7
		c-0.3-0.3-0.6-0.7-0.9-1.1v4.1h-1.7V48.2h4.4c0-0.9,0-1.7,0-2.6h-5.1V43.9z M261.9,39.4h4.5v-2.8h1.8v2.8h4.9v-2.8h1.8v2.8h4.5v1.7
		h-4.5v2.2h-1.8v-2.2h-4.9v2.2h-1.8v-2.2h-4.5V39.4z M264.2,56.8c1.6-1.6,2.5-3.9,2.7-6.8h-2.7V56.8z M268.6,45.6c0,0.7,0,1.6,0,2.6
		h3.8c0-0.8,0-1.7,0-2.6H268.6L268.6,45.6z M276.9,49.9H274c0,0.8-0.1,1.6-0.3,2.3c1.3,1.4,2.3,2.6,3.1,3.6V49.9z M296,37.6
		l-4.8,10.8h3.8v2.4h-4.4V54h4.4v2.4h-4.4v4.8h-2.3v-4.8h-4.6V54h4.6v-3.3h-4.6v-2.4h3.9l-4.8-10.8h2.6c2.2,5.3,3.6,8.7,4.1,10.2h0
		c0.2-0.6,0.6-1.8,1.3-3.6l2.7-6.6H296z"/>
</g>
<g>
</g>
<g>
</g>
<g>
</g>
<g>
</g>
<g>
</g>
<g>
</g>
<g>
</g>
<g>
</g>
<g>
</g>
<g>
</g>
<g>
</g>
<g>
</g>
<g>
</g>
<g>
</g>
<g>
</g>
</svg>
