<?xml version="1.0" encoding="utf-8"?>
<!-- Generator: Adobe Illustrator 17.0.0, SVG Export Plug-In . SVG Version: 6.00 Build 0)  -->
<!DOCTYPE svg PUBLIC "-//W3C//DTD SVG 1.1//EN" "http://www.w3.org/Graphics/SVG/1.1/DTD/svg11.dtd">
<svg version="1.1" id="Layer_1" xmlns="http://www.w3.org/2000/svg" xmlns:xlink="http://www.w3.org/1999/xlink" x="0px" y="0px"
	 width="581px" height="964px" viewBox="0 0 581 964" style="enable-background:new 0 0 581 964;" xml:space="preserve">
<style type="text/css">
	.st0{fill:#333333;}
	.st1{fill:#DF9431;}
	.st2{fill-rule:evenodd;clip-rule:evenodd;fill:#DF9431;}
	.st3{fill:#FFFFFF;}
	.st4{fill:#999999;}
	.st5{fill:none;}
</style>
<g id="_x31_-1-detail.svg">
	<path class="st0" d="M162.5,767.6h-12.2v7.9h10.6l0.1,2.3h-10.7v10.9H148v-23.4h14.6V767.6z M179.6,780.1c-0.1,5.9-2.5,8.8-7.3,8.9
		c-4.7-0.3-7.1-3.2-7.3-8.6c0.1-6,2.7-9.1,7.5-9.3C177,771.4,179.3,774.4,179.6,780.1L179.6,780.1z M177.1,780.2
		c-0.2-4.4-1.8-6.7-4.7-7c-3.3,0.1-5,2.5-5.1,7.1c0.1,4.4,1.8,6.6,5.1,6.8C175.4,787,177,784.7,177.1,780.2L177.1,780.2z
		 M195.3,771.6h-2.8c-2.1,3.6-3.2,5.5-3.4,5.9c-0.2,0.5-0.4,0.9-0.6,1.2c-0.1-0.3-0.3-0.7-0.6-1.2l-3.5-5.9h-2.7l5.6,8.4l-6.3,8.6
		h2.8l4-5.9c0.1-0.1,0.2-0.3,0.4-0.7c0.1-0.2,0.1-0.4,0.2-0.5c0.1,0.2,0.2,0.5,0.5,0.9c0.1,0.1,0.1,0.2,0.1,0.2l3.8,5.9h2.8
		l-5.9-8.4L195.3,771.6z M220.4,765.2v13.6c0.1,5.5-1.9,8.2-6.3,8.1c-4,0.2-6-2.5-5.9-8.1v-13.6h-2.5V779
		c-0.1,6.8,2.7,10.2,8.4,10.1c5.8,0.1,8.7-3.3,8.6-10.1v-13.7H220.4z M243.3,771.1c3.5-0.1,5.2,2,5.2,6.3v11.1h-2.3V778
		c0.1-3.3-1-4.9-3.2-4.8c-2.4,0.2-3.8,1.9-4,4.9v10.4h-2.3V778c0.1-3.3-1-4.9-3.1-4.8c-2.4,0.2-3.8,1.8-4.1,4.7v10.7h-2.3v-17h2.3
		v2.6c1.1-2,2.6-3,4.3-3c2.7,0,4.3,1.2,4.9,3.6C239.8,772.3,241.3,771.1,243.3,771.1L243.3,771.1z M254.5,788.6h-2.4v-23.3h2.4v8.9
		c1.1-1.9,2.7-2.9,4.5-2.9c4.2,0.2,6.5,3.3,6.7,9.1c-0.1,5.5-2.1,8.4-6,8.6c-2.7,0.1-4.4-0.9-5.2-2.8V788.6z M258.6,773.3
		c-2.5,0.2-3.9,2-4.1,5.2v2.7c0.1,3.9,1.5,5.9,4.4,6c2.9-0.1,4.5-2.3,4.5-6.8C263.4,775.7,261.7,773.4,258.6,773.3L258.6,773.3z
		 M274.4,773.7c0.6,0,1.3,0.2,1.9,0.7l1-2.3c-0.9-0.6-1.7-0.9-2.6-0.8c-1.7,0.1-2.9,1.2-3.7,3.4H271v-3h-2.3v17.1h2.3v-9.3
		c0-1.9,0.3-3.2,1-4.1C272.7,774.2,273.6,773.7,274.4,773.7L274.4,773.7z M285.8,787c2.4,0,4-1.2,4.6-3.8l2.4,0.7
		c-0.9,3.4-3.2,5.1-6.9,5c-4.8-0.2-7.3-3.1-7.4-8.7c0.2-5.9,2.7-8.9,7.3-9.1c4.6,0.2,7,3.2,7.1,9.1c0,0.3,0,0.5,0,0.6h-12
		C281,784.8,282.7,786.8,285.8,787L285.8,787z M285.8,773.4c-2.9,0.3-4.5,2.1-4.7,5.4h9.4C290.2,775.4,288.7,773.6,285.8,773.4
		L285.8,773.4z M296,788.6h2.3v-23.3H296V788.6z M302.2,788.6h2.3v-23.3h-2.3V788.6z M315.1,773.3c-2.7-0.2-4.3,1-4.6,3.5l-2.3-0.7
		c0.8-3.5,3.1-5.2,7-5c4.2-0.1,6.3,2.1,6.1,6.6v6.9c-0.1,1.9,0.2,3.2,0.9,4h-2.3c-0.5-0.6-0.8-1.4-0.8-2.3c-1.3,1.9-3.3,2.8-6.1,2.8
		c-3.3-0.2-5.1-1.6-5.3-4.5c0.1-3.3,2-5.1,5.7-5.5c3-0.3,4.9-0.7,5.5-1.3C319.2,774.7,317.9,773.2,315.1,773.3L315.1,773.3z
		 M313.7,786.9c3.2-0.2,5-1.9,5.3-4.9v-2.2c-0.3,0.6-1.8,1.1-4.6,1.3c-2.9,0.4-4.3,1.5-4.2,3.3C310.2,786.1,311.4,786.9,313.7,786.9
		L313.7,786.9z M330.8,773.3c1.9,0,3.1,1,3.6,3l2.4-0.7c-0.6-3-2.7-4.5-6-4.6c-3.5,0.2-5.4,1.8-5.7,4.8c-0.1,2.9,1.9,4.6,6,5.2
		c2.7,0.5,4.1,1.6,4,3.2c-0.1,1.9-1.4,2.9-4,2.9c-2.4,0.1-3.8-1.2-4.4-3.9l-2.3,0.7c0.9,3.4,3.1,5.1,6.7,5c4.2-0.1,6.3-1.7,6.4-4.9
		c0.1-2.7-1.8-4.5-5.7-5.2c-2.9-0.5-4.4-1.6-4.3-3C327.6,774.3,328.7,773.4,330.8,773.3L330.8,773.3z M348,781.9
		c-4,0.5-6.4,0.8-7.3,1.1l-0.8-2.3c0.6-0.3,1.1-0.8,1.5-1.5c0.8-1.2,1.7-2.7,2.7-4.5c-1.6,0.1-2.9,0.2-3.9,0.4l-0.6-2.2
		c0.4-0.5,0.8-1,1.1-1.5c1.4-2.7,2.7-5.5,3.9-8.3l2.4,0.8c-0.3,0.5-0.7,1.3-1.2,2.3c-1.4,2.9-2.6,5-3.3,6.4c0.4-0.1,0.9-0.1,1.6-0.1
		c0.6-0.1,1.1-0.1,1.5-0.1c0.2-0.4,0.5-0.9,0.9-1.5c0.4-0.7,0.6-1.2,0.8-1.5l2,1.2c-1.2,2.1-3.1,5.4-5.9,9.8l5-0.8
		c0,0.3,0,0.7-0.1,1.2C348.1,781.1,348,781.6,348,781.9L348,781.9z M348.4,787.6c-2.2,0.3-5,0.8-8.4,1.5l-0.4-2.5
		c2.8-0.5,5.8-0.9,8.9-1.4C348.4,785.7,348.4,786.5,348.4,787.6L348.4,787.6z M355.8,791v-7.5h-4.1v1.5h-2.4v-17.5h6.5V763h2.4v4.6
		h6.4V785h-2.3v-1.5h-4.1v7.5H355.8z M351.7,769.9v4.5h4.1v-4.5H351.7z M351.7,776.6v4.5h4.1v-4.5H351.7z M362.3,769.9h-4.1v4.5h4.1
		V769.9z M358.2,776.6v4.5h4.1v-4.5H358.2z M367.4,774.6v-2.8h11.4V763h2.9v8.8h11.4v2.8h-11.4v12h9.7v2.5h-22.3v-2.5h9.7v-12H367.4
		z M406.6,790.4v-17.6h-7.8v17.8h-2.5v-20.3h10.2v-3.5H395v-2.5h25.8v2.5h-11.6v3.5h10.2v16.5c0.1,2.3-1,3.6-3.5,3.6
		c-0.9,0-2,0-3.6,0l-0.5-2.6c0.6,0.1,1.7,0.1,3.2,0.1c1.3,0.1,1.9-0.4,1.8-1.5v-13.7h-7.8v17.6H406.6z M404,786.3
		c-1.4-1.3-2.9-2.5-4.5-3.5l1.4-1.9c1.7,1.1,3.2,2.2,4.6,3.3L404,786.3z M404.2,779.9c-1.4-1.2-2.9-2.3-4.4-3.3l1.4-1.9
		c0.7,0.5,1.7,1.2,3,2.1c0.6,0.5,1.1,0.8,1.5,1.1L404.2,779.9z M414.4,786.1c-0.7-0.6-2-1.6-3.9-2.8c-0.3-0.2-0.5-0.4-0.6-0.5
		l1.3-1.9c0.3,0.2,0.7,0.5,1.3,0.8c1.5,0.9,2.6,1.7,3.3,2.2L414.4,786.1z M414.7,779.9c-1.5-1.2-3.1-2.2-4.7-3.2l1.3-1.9
		c1.7,0.9,3.3,2,4.9,3L414.7,779.9z M448.5,772.5c-0.6,0.8-1.1,1.6-1.5,2.6c-5.1-2.5-8.9-5.5-11.3-9.1c-2.9,3.6-6.8,6.8-11.9,9.5
		l-1.5-2.5c5.7-2.7,9.9-6.1,12.4-10.2l3,0.4c-0.2,0.2-0.4,0.5-0.6,0.9C439.8,767.7,443.6,770.6,448.5,772.5L448.5,772.5z
		 M423.1,784.9v-2.7h11v-11.6h2.7v11.6h11.1v2.7h-11.1v6.1h-2.7v-6.1H423.1z M429.9,780.5c-0.5-0.8-1.6-2.1-3.2-4.1
		c-0.2-0.2-0.4-0.4-0.4-0.5l1.8-1.6c1.3,1.4,2.6,2.9,3.9,4.3L429.9,780.5z M444.9,776c-1.8,2-3.2,3.4-4.3,4.5l-1.8-2
		c0.7-0.6,2.1-2,4.1-4.2L444.9,776L444.9,776z"/>
	<path class="st0" d="M208.9,385.4c-0.2,4.1-2.6,6.2-7.2,6.3h-8.9v-23.4h8.4c4.3,0.2,6.6,2.2,6.9,5.9c-0.2,2.9-1.7,4.6-4.3,5.2v0.1
		C207,379.9,208.7,381.9,208.9,385.4L208.9,385.4z M205.5,374.2c-0.1-2.3-1.8-3.6-4.9-3.6H195v7.9h5.6
		C203.6,378.3,205.2,376.9,205.5,374.2L205.5,374.2z M206.5,385c-0.2-2.7-2-4.1-5.5-4.2H195v8.8h6.4
		C204.8,389.6,206.5,388.1,206.5,385L206.5,385z M219.1,390c2.4,0,4-1.2,4.6-3.8l2.4,0.7c-0.9,3.4-3.2,5.1-6.9,5
		c-4.8-0.2-7.3-3.1-7.4-8.7c0.2-5.9,2.7-8.9,7.3-9.1c4.6,0.2,7,3.2,7.1,9.1c0,0.3,0,0.5,0,0.6h-12C214.4,387.8,216,389.8,219.1,390
		L219.1,390z M219.1,376.5c-2.9,0.3-4.5,2.1-4.7,5.4h9.4C223.6,378.4,222,376.6,219.1,376.5L219.1,376.5z M235.9,376.3
		c-2.7-0.2-4.3,1-4.6,3.5l-2.3-0.7c0.8-3.5,3.1-5.2,7-5c4.2-0.1,6.3,2.1,6.1,6.6v6.9c-0.1,1.9,0.2,3.2,0.9,4h-2.3
		c-0.5-0.6-0.8-1.4-0.8-2.3c-1.3,1.9-3.3,2.8-6.1,2.8c-3.3-0.2-5.1-1.6-5.3-4.5c0.1-3.3,2-5.1,5.7-5.5c3-0.3,4.9-0.7,5.5-1.3
		C240,377.7,238.7,376.2,235.9,376.3L235.9,376.3z M234.5,389.9c3.2-0.2,5-1.9,5.3-4.9v-2.2c-0.3,0.6-1.8,1.1-4.6,1.3
		c-2.9,0.4-4.3,1.5-4.2,3.3C231,389.1,232.2,389.9,234.5,389.9L234.5,389.9z M250.7,390.3c0.4,0,0.8,0,1.2-0.1l0.4,1.3
		c-0.7,0.3-1.5,0.5-2.4,0.5c-2.2,0.1-3.3-1.2-3.2-3.8v-11.5h-2.2v-2.1h2.2V370l2.3-1.3v5.9h2.9v2.1h-2.9v11.5
		C248.9,389.7,249.4,390.4,250.7,390.3L250.7,390.3z M259.9,376.3c1.9,0,3.1,1,3.6,3l2.4-0.7c-0.6-3-2.7-4.5-6-4.6
		c-3.5,0.2-5.4,1.8-5.7,4.8c-0.1,2.9,1.9,4.6,6,5.2c2.7,0.5,4.1,1.6,4,3.2c-0.1,1.9-1.4,2.9-4,2.9c-2.4,0.1-3.8-1.2-4.4-3.9
		l-2.3,0.7c0.9,3.4,3.1,5.1,6.7,5c4.2-0.1,6.3-1.7,6.4-4.9c0.1-2.7-1.8-4.5-5.7-5.2c-2.9-0.5-4.4-1.6-4.3-3
		C256.7,377.3,257.8,376.4,259.9,376.3L259.9,376.3z M268.9,370.5v-2.2h7.3V366h2.5v2.2h6.5V366h2.4v2.2h7.1v2.2h-7.1v1.6h-2.4v-1.6
		h-6.5v1.6h-2.5v-1.6H268.9z M268.9,393.1v-2.3h2.9v-7.1h20.2v7.1h2.8v2.3H268.9z M271.1,382v-8.3h2.3v8.3H271.1z M274.3,385.8v4.9
		h3.6v-4.9H274.3z M276.7,382.2v-9.3h2.4v9.3H276.7z M284.7,377.3c-0.7,1.6-1.7,3.3-2.8,4.9c-0.6-0.5-1.2-1-1.9-1.5
		c1.8-2.4,3.1-5,3.8-7.9l2.5,0.4c-0.2,0.7-0.4,1.3-0.6,1.9h8.6v2.2H284.7L284.7,377.3z M280.1,385.8v4.9h3.6v-4.9H280.1z
		 M290.1,382.9c-0.2-0.2-0.5-0.4-0.9-0.7c-1.5-1.2-2.8-2.2-3.8-2.9l1.4-1.5c0.9,0.5,2,1.4,3.6,2.6c0.5,0.3,0.9,0.6,1.2,0.8
		L290.1,382.9z M289.5,385.8h-3.7v4.9h3.7V385.8z M297.2,370.2v-2.7h24.4v2.7h-6.1v7h6.7v2.7h-6.7v9.3c0.1,2.7-1.2,4.1-3.9,4.2
		c-1.4,0-3,0-4.7,0c-0.1-0.9-0.3-1.9-0.5-2.8c1.4,0,2.7,0,4.1,0c1.7,0.2,2.5-0.6,2.4-2.3V380h-0.5c-3.7,5.5-8.4,9.6-14.2,12.4
		c-0.1-0.2-0.4-0.5-0.8-1.2c-0.4-0.5-0.6-0.9-0.8-1.1c5.3-2.7,9.6-6.1,12.7-10.2h-10.5v-2.7l1.7-5.5l2.7,0.1l-1.5,5.4h11.1v-7H297.2
		z M325.2,371.4v-2.3h10.9c-0.1-0.2-0.3-0.6-0.5-1.2c-0.3-0.7-0.5-1.2-0.6-1.5l2.7-0.6c0.1,0.2,0.2,0.6,0.4,1.1
		c0.4,0.9,0.6,1.6,0.9,2.1l-0.4,0.1h10.2v2.3h-6.5l2.2,0.8c-0.6,0.9-1.3,1.9-2,2.9h7.4v2.2h-25.8v-2.2h7.4c-0.6-1-1.3-2-1.9-2.9
		l2.2-0.8H325.2z M327.1,394V380h19.6v13.9h-2.5v-1.5h-14.7v1.6H327.1z M329.6,382.2v3.2h14.7v-3.2H329.6z M329.6,387.4v3.2h14.7
		v-3.2H329.6z M332,371.4c0.9,1.2,1.6,2.3,2.3,3.4l-0.8,0.4h5.9c0.9-1.3,1.6-2.6,2.3-3.8H332L332,371.4z M356.3,370.6
		c-0.8,1.4-1.8,2.7-3.1,4c-0.5-0.6-1.1-1.2-1.7-1.8c2.2-2,3.7-4.3,4.7-6.9l2.5,0.4c-0.3,0.8-0.6,1.5-1.1,2.2h7.2v2.1H356.3
		L356.3,370.6z M352.1,380v-2.2h3.9V374h2.4v3.8h3.2v2.2h-3.2v3.2l0.9-0.9c0.4,0.3,1,0.8,1.6,1.5c0.7,0.6,1.3,1.1,1.6,1.5l-1.6,1.9
		c-0.6-0.7-1.4-1.6-2.5-2.8v9.7H356v-10.3c-0.9,2.4-2.1,4.7-3.7,6.9c0-0.1,0-0.2-0.1-0.4c-0.3-1.2-0.5-2.1-0.8-2.7
		c1.8-2.1,3.2-4.6,4.2-7.6H352.1z M360.2,374.7c-0.1-0.1-0.1-0.2-0.2-0.2c-0.8-1.1-1.5-1.9-2-2.5l1.5-1.4c0.9,0.9,1.7,1.8,2.5,2.7
		L360.2,374.7z M363.3,394v-18.9H376V394h-2.4v-1.6h-8.1v1.6H363.3z M366.5,373.2c-0.3,0.5-0.5,0.8-0.6,1.1
		c-0.2-0.2-0.5-0.4-0.9-0.8c-0.4-0.3-0.8-0.5-1-0.7c1.8-2.1,3.1-4.4,3.8-6.8l2.5,0.4c-0.3,0.8-0.6,1.5-1,2.2h8v2.1h-9.1
		C368,371.1,367.4,372,366.5,373.2L366.5,373.2z M365.6,377.4v3h8.1v-3H365.6z M365.6,382.4v2.9h8.1v-2.9H365.6z M365.6,387.5v2.9
		h8.1v-2.9H365.6z M371.9,374.7c-0.3-0.3-0.7-0.8-1.2-1.4c-0.5-0.5-0.9-1-1.2-1.3l1.5-1.4c0.3,0.3,0.7,0.7,1.3,1.3
		c0.5,0.5,0.9,1,1.2,1.3L371.9,374.7z"/>
	<path class="st1" d="M99.6,68.5h28v-4h-26.3v-5.1h26.3v-4h-27.5v-5.1H114V35.2h5.6v15.1h13.6V76h-5.6v-2.4h-28V68.5z M104.7,36.9
		l7.4,8.4l-4.1,3.9c-2.4-3.2-4.7-6.1-6.9-8.6L104.7,36.9z M121.5,45.5c2.8-3,5.3-5.8,7.4-8.6l4.2,3.9l-7.8,8.5L121.5,45.5
		L121.5,45.5z M140.7,75.4V37.7h29.8v37.7h-5.8v-2.9h-18.2v2.9H140.7z M164.7,43.5h-18.2v8.6h18.2V43.5z M146.5,66.7h18.2v-8.9
		h-18.2V66.7z M178.4,46.6c1.9,1.5,3.9,3.3,6,5.2l-3.4,4.4c-2-2.1-3.8-4-5.7-5.7L178.4,46.6z M184.5,38.8h6.2v-3.4h4.9v3.4h6v-3.4
		h4.9v3.4h6.2v4.3h-6.2v2.6h-4.9v-2.6h-6v2.6h-4.9v-2.6h-6.2v-1.5l-2.9,3.5c-1.6-1.8-3.5-3.6-5.5-5.5l3.1-3.8
		c1.6,1.3,3.4,2.8,5.3,4.6V38.8z M176.1,74c1.3-4.8,2.6-10.1,3.7-15.8c2,0.9,3.7,1.5,4.9,1.9l-3.6,15.5
		C179.4,75.1,177.8,74.5,176.1,74L176.1,74z M184.5,46.1h28.1v4.3h-7.8v3.4h6.7v16.3c0,1.6-0.3,2.8-1,3.6c-0.7,0.8-1.5,1.3-2.6,1.5
		c-1.1,0.1-3.3,0.2-6.7,0.3c-0.3-1.4-0.6-2.7-1-4l-3.9-2.6c1.2-1.3,2.1-2.8,2.8-4.6l-1.9,1.8c-0.4-0.6-0.8-1.2-1.3-1.8
		c-0.8,2.3-1.9,4.6-3.4,7c-0.3-0.4-1-1-2-1.8v6.1h-4.7V53.8h7v-3.4h-8.2V46.1z M190.2,66.5c1.5-2.5,2.3-5.4,2.5-8.8h-2.5V66.5z
		 M199.4,63.1c0.5-1.7,0.9-3.5,1-5.5H197c0,1.1-0.1,2-0.2,2.6L199.4,63.1z M197,53.8h3.5v-3.4H197V53.8z M206.7,66.7l-1.5,1.5
		c-0.6-0.9-1.2-1.7-1.9-2.6c-0.7,2-1.7,3.9-3,5.7c1.7,0.1,3,0.1,4.2,0.1c1.4,0,2.2-0.8,2.2-2.3V66.7z M207,57.6h-2.2
		c0,1.2-0.1,2.4-0.3,3.5l2.5,2.8V57.6z M244.7,38.4l-7.6,15.5h5.4v4.7h-6.6v3.5h6.6v4.7h-6.6v6.5h-6v-6.5H223v-4.7h6.9v-3.5H223
		v-4.7h5.5l-7.4-15.5h6.4c2.9,7.2,4.7,11.9,5.5,14.2h0.1c0.1-0.3,0.2-0.7,0.4-1.2c0.2-0.8,1.1-3.1,2.7-7l2.4-5.9H244.7z M253.5,74.3
		v-7.1c0-3.9,2.4-6.5,5.3-8.8c2.9-2.4,4.4-4,4.4-6.5v-4.2c0-2.4-0.9-3.5-2.6-3.5c-1.7,0-2.5,1.1-2.5,3.5v3.6h-4.7v-3.8
		c0-4.6,2.6-7.3,7.2-7.3c4.6,0,7.3,2.7,7.3,7.3v4.7c0,3.9-2.5,6.5-5.4,8.8c-2.9,2.4-4.4,4-4.4,6.5v2.8h10.1v4H253.5z M280.3,74.7
		c-4.7,0-7.7-2.7-7.7-7.3v-20c0-4.6,3-7.3,7.7-7.3c4.7,0,7.7,2.7,7.7,7.3v20C288,72.1,285,74.7,280.3,74.7z M283.3,47.7
		c0-2.4-1.2-3.5-3-3.5c-1.8,0-3,1.1-3,3.5v19.6c0,2.4,1.2,3.5,3,3.5c1.8,0,3-1.1,3-3.5V47.7z M293.5,80.4v-2.3
		c1.8-0.3,2.6-1.3,2.6-3.1v-0.7h-3V69h5.5v6C298.6,78.5,296.1,80.2,293.5,80.4z M310.8,74.7c-4.7,0-7.7-2.7-7.7-7.3v-20
		c0-4.6,3-7.3,7.7-7.3c4.7,0,7.7,2.7,7.7,7.3v20C318.5,72.1,315.5,74.7,310.8,74.7z M313.7,47.7c0-2.4-1.2-3.5-3-3.5
		c-1.8,0-3,1.1-3,3.5v19.6c0,2.4,1.2,3.5,3,3.5c1.8,0,3-1.1,3-3.5V47.7z M331.4,74.7c-4.7,0-7.7-2.7-7.7-7.3v-20
		c0-4.6,3-7.3,7.7-7.3c4.7,0,7.7,2.7,7.7,7.3v20C339.1,72.1,336.1,74.7,331.4,74.7z M334.3,47.7c0-2.4-1.2-3.5-3-3.5
		c-1.8,0-3,1.1-3,3.5v19.6c0,2.4,1.2,3.5,3,3.5c1.8,0,3-1.1,3-3.5V47.7z M351.9,74.7c-4.7,0-7.7-2.7-7.7-7.3v-20
		c0-4.6,3-7.3,7.7-7.3c4.7,0,7.7,2.7,7.7,7.3v20C359.6,72.1,356.7,74.7,351.9,74.7z M354.9,47.7c0-2.4-1.2-3.5-3-3.5
		c-1.8,0-3,1.1-3,3.5v19.6c0,2.4,1.2,3.5,3,3.5c1.8,0,3-1.1,3-3.5V47.7z M395.7,62.6c2.3,1,4.1,1.6,5.3,2.1
		c-0.5,2.6-0.9,4.7-1.4,6.4c-0.4,1.6-1.2,2.7-2.2,3.4c-1,0.6-2.3,0.9-3.8,0.9h-3.7c-4,0-6-2.1-6-6.2V55.5h-5.4
		c-0.4,9.8-4.1,16.6-11.1,20.4c-1-1.2-2.3-2.8-4-4.8c6.2-3.1,9.4-8.3,9.7-15.6h-9.2v-5.7h36.7v5.7h-11.2V67c0,2,0.8,3,2.3,3h1.2
		c0.8,0,1.3-0.3,1.6-1C394.9,68.2,395.3,66.1,395.7,62.6z M367,37.8h30.5v5.6H367V37.8z M416.8,59c2,3.6,3.9,7.2,5.7,10.9l-4.4,2.6
		l-1.4-3c-5.2,2.1-9,3.7-11.2,4.9l-2.4-4.1c0.8-1,1.2-2.4,1.2-4.2V36.9h16.6V59H416.8L416.8,59z M416,42h-6.9v3.7h6.9V42z M416,53.9
		v-3.7h-6.9v3.7H416z M412.7,61l3.4-2.1h-6.9v8.4l5.5-2.1L412.7,61z M422.8,37.9h14.9v25.6c0,1.9-0.3,3.3-1,4.3
		c-0.7,1-1.6,1.5-2.9,1.6c-1.2,0.1-3,0.1-5.3,0.1c-0.2-2.2-0.5-4-0.8-5.5c1.4,0.2,2.6,0.2,3.6,0.2c0.9,0,1.4-0.6,1.4-1.8V43.2h-5.1
		v32.4h-4.9V37.9z M440.7,58.3c3.3-2.9,6.4-6.8,9.2-11.6l3.9,3.7c-1.3,2.1-2.6,4.2-4,6v19.6H445V62.1c-0.9,0.9-1.8,1.8-2.7,2.6
		C441.9,63,441.4,60.9,440.7,58.3L440.7,58.3z M441.1,44.7c3.2-2.8,5.9-6,8-9.4l4.1,3.6c-2.8,4.3-6.2,8.4-10.3,12.1
		C442.5,49.4,441.9,47.3,441.1,44.7L441.1,44.7z M477.5,59h-4.1v2.3h4.9v4.2h-4.9v4c0,1.9-0.4,3.3-1.2,4.3c-0.8,1-2.1,1.5-3.8,1.7
		c-1.7,0.1-3.6,0.2-5.7,0.1c-0.3-1.7-0.7-3.5-1.2-5.2c1.8,0.1,3.4,0.2,4.8,0.2c1.4,0,2.1-0.8,2.1-2.5v-2.5h-8.9c1,1.2,2,2.5,3.1,3.9
		l-4.2,3.1c-1.3-2.1-2.6-4-3.8-5.5l2.1-1.4h-4.8v-4.2h16.5V59H453v-4.2h24.5V59z M454.4,36.8H476v15.9h-21.6V36.8z M471.1,40.9
		h-11.8V43h11.8V40.9z M471.1,48.7v-2.1h-11.8v2.1H471.1z"/>
	<circle class="st2" cx="289" cy="464" r="49"/>
	<path class="st3" d="M251.9,464.5c0.6-12.9,6.6-19.6,17.9-20.3c10.9,0.8,16.8,7.4,17.6,20.1c-0.3,13-6.3,19.7-17.9,20.1
		C258.2,483.7,252.4,477.1,251.9,464.5L251.9,464.5z M258,464.5c0.3,9.1,4.1,14,11.4,14.6c7.7-0.4,11.7-5.2,11.9-14.6
		c-0.6-9-4.4-13.9-11.6-14.6C262.3,450.5,258.4,455.3,258,464.5L258,464.5z M326.8,483.8h-7.9l-12.1-16.5h-7.2v16.5h-5.9v-39h16.7
		c8,0.3,12.2,3.9,12.6,11.1c0,6.4-3.2,10.1-9.5,11.1L326.8,483.8z M299.5,450.6v10.9h9.8c5.2,0,7.7-1.9,7.6-5.8
		c-0.1-3.2-2.6-4.9-7.6-5.1H299.5z"/>
	<g>
		<path class="st4" d="M42.7,836.6c0-0.4,0.1-0.8,0.4-1.1c0.3-0.3,0.6-0.4,1-0.4s0.7,0.1,1,0.4c0.3,0.3,0.4,0.6,0.4,1.1
			c0,0.4-0.1,0.8-0.4,1.1c-0.3,0.3-0.6,0.4-1,0.4c-0.4,0-0.7-0.1-1-0.4C42.8,837.3,42.7,837,42.7,836.6z"/>
		<path class="st4" d="M65.7,844.5H55.5v-2l4.9-5.3c1.3-1.5,2.2-2.6,2.7-3.5c0.5-0.8,0.7-1.7,0.7-2.6c0-1-0.3-1.8-0.8-2.4
			c-0.5-0.6-1.3-0.8-2.3-0.8c-1.5,0-2.9,0.7-4.3,2.1v-2.3c1.3-1.1,2.8-1.7,4.6-1.7c1.5,0,2.7,0.4,3.6,1.3c0.9,0.9,1.3,2.1,1.3,3.6
			c0,1.1-0.3,2.2-0.8,3.3c-0.6,1.1-1.6,2.5-3.2,4.1l-3.8,4v0h7.7V844.5z"/>
		<path class="st4" d="M68.9,835.8c0-3.2,0.5-5.6,1.5-7.3c1-1.6,2.4-2.5,4.2-2.5c3.5,0,5.3,3.1,5.3,9.3c0,3.1-0.5,5.4-1.5,7
			c-1,1.6-2.4,2.4-4.2,2.4c-1.7,0-3-0.8-3.9-2.3C69.3,841,68.9,838.7,68.9,835.8z M71,835.7c0,4.8,1.1,7.2,3.4,7.2
			c2.2,0,3.3-2.4,3.3-7.3c0-5.1-1.1-7.6-3.3-7.6C72.2,828,71,830.5,71,835.7z"/>
		<path class="st4" d="M93,844.5h-9.6v-2h3.7v-13.8l-3.8,1.2v-2.1l5.9-1.9v16.6H93V844.5z"/>
		<path class="st4" d="M96.8,841.7c1.1,0.8,2.3,1.2,3.5,1.2c1.2,0,2.1-0.3,2.8-1c0.7-0.7,1.1-1.6,1.1-2.8c0-1.2-0.4-2.1-1.1-2.7
			c-0.7-0.6-1.8-1-3.1-1c-0.7,0-1.5,0.1-2.6,0.2v-9.2h8.2v2h-6.3v5.1c0.6,0,1.1-0.1,1.4-0.1c1.8,0,3.1,0.5,4.1,1.5
			c1,1,1.5,2.3,1.5,4c0,1.8-0.5,3.2-1.6,4.3c-1.1,1.1-2.5,1.6-4.4,1.6c-1.6,0-2.7-0.2-3.5-0.8V841.7z"/>
		<path class="st4" d="M108.8,839.7h3.5V833h7.6v-4.2h-6.3c-1,1.9-2.1,3.6-3.3,5.2c-0.4-0.4-0.8-0.9-1.3-1.3c2-2.5,3.6-5.3,4.6-8.4
			l1.8,0.5c-0.3,0.8-0.6,1.5-0.9,2.2h14.8v1.7h-7.6v4.2h7.2v1.6h-7.2v5.1h8.5v1.7h-8.5v6.3h-1.7v-6.3h-11.1V839.7z M114,839.7h5.9
			v-5.1H114V839.7z"/>
		<path class="st4" d="M143.2,839.8H141v4.7h-2v-4.7h-7.8v-1.5l7.4-12h2.4V838h2.1V839.8z M139,838v-7.6c0-0.5,0-1.2,0-1.9h0
			c-0.1,0.3-0.3,0.8-0.6,1.4l-5,8.1H139z"/>
		<path class="st4" d="M150,839.7c-0.3,3-1.4,5.7-3.2,8.2c-0.5-0.5-1-1-1.5-1.4c1.4-1.6,2.3-3.6,2.8-5.9c0.3-1.7,0.5-4,0.5-6.9v-8.1
			H163v18.3c0,2.3-1,3.5-3,3.5c-0.8,0-1.9,0-3.3,0c-0.1-0.6-0.2-1.2-0.3-2c1.3,0.1,2.4,0.1,3.1,0.1c1.2,0,1.7-0.6,1.7-1.9v-3.9H150z
			 M150.2,838h11v-4.5h-10.9C150.4,835,150.3,836.5,150.2,838z M150.4,827.3v4.5h10.9v-4.5H150.4z"/>
		<path class="st4" d="M178.4,844.5h-10.2v-2l4.9-5.3c1.3-1.5,2.2-2.6,2.7-3.5c0.5-0.8,0.7-1.7,0.7-2.6c0-1-0.3-1.8-0.8-2.4
			c-0.5-0.6-1.3-0.8-2.3-0.8c-1.5,0-2.9,0.7-4.3,2.1v-2.3c1.3-1.1,2.8-1.7,4.6-1.7c1.5,0,2.7,0.4,3.6,1.3c0.9,0.9,1.3,2.1,1.3,3.6
			c0,1.1-0.3,2.2-0.8,3.3c-0.6,1.1-1.6,2.5-3.2,4.1l-3.8,4v0h7.7V844.5z"/>
		<path class="st4" d="M184,826.1h15.4v21.3h-1.8v-1.7h-11.7v1.7H184V826.1z M185.8,827.9v7h11.7v-7H185.8z M185.8,836.6v7.4h11.7
			v-7.4H185.8z"/>
		<path class="st4" d="M203.8,844.5h9.7v-4h-8.3v-1.7h8.3v-3.2h1.8v3.2h8.1v1.7h-8.1v4h9.6v1.7h-21.1V844.5z M218,829
			c2.2,2,4.2,4,6,6l-1.4,1.4c-0.5-0.5-1-1.1-1.5-1.7c-5,0.1-9.5,0.4-13.3,0.7c-0.4,0-1,0.2-1.7,0.4l-0.9-2c0.8-0.3,1.5-0.7,2-1.1
			c1.5-1.3,2.9-3,4.5-5h-7.4v-1.7h20.1v1.7H214c-1.7,2-3.5,4-5.4,5.9c3.4-0.2,7-0.3,11-0.4c-0.9-0.9-1.8-1.9-2.8-2.9L218,829z"/>
		<path class="st4" d="M237.5,844.5H228v-2h3.7v-13.8l-3.8,1.2v-2.1l5.9-1.9v16.6h3.7V844.5z"/>
		<path class="st4" d="M241.4,842c0.9,0.6,1.9,0.9,3,0.9c1.5,0,2.7-0.6,3.5-1.9c0.8-1.3,1.2-3.1,1.2-5.5c0,0,0,0,0,0
			c-0.7,1.5-2,2.3-3.7,2.3c-1.4,0-2.6-0.5-3.5-1.6c-0.9-1-1.4-2.4-1.4-4.1c0-1.8,0.5-3.2,1.5-4.4c1-1.1,2.3-1.7,3.9-1.7
			c1.7,0,3,0.7,3.9,2.1c0.9,1.4,1.4,3.5,1.4,6.2c0,3.4-0.6,5.9-1.8,7.7c-1.2,1.8-2.9,2.7-5,2.7c-1.2,0-2.2-0.2-3-0.6V842z
			 M242.6,831.9c0,1.2,0.3,2.2,0.9,2.9c0.6,0.7,1.4,1.1,2.4,1.1c0.9,0,1.6-0.3,2.2-1c0.6-0.7,0.9-1.4,0.9-2.4c0-1.3-0.3-2.4-0.9-3.2
			c-0.6-0.9-1.4-1.3-2.3-1.3c-0.9,0-1.6,0.4-2.2,1.1C242.9,829.8,242.6,830.7,242.6,831.9z"/>
		<path class="st4" d="M256.3,826.1h15.4v21.3h-1.8v-1.7h-11.7v1.7h-1.8V826.1z M258.1,827.9v7h11.7v-7H258.1z M258.1,836.6v7.4
			h11.7v-7.4H258.1z"/>
		<path class="st4" d="M287.7,841.6l-1.8,6.2h-1.5l1.3-6.2H287.7z"/>
		<path class="st4" d="M299,827.4h6.3c0.4-0.9,0.7-1.9,0.9-2.9l1.8,0.5c-0.3,0.8-0.5,1.6-0.8,2.4h12.5v1.7h-13.2
			c-0.9,2.1-1.9,4.1-3,5.9v12.4H302v-9.9c-0.8,1.1-1.6,2.1-2.5,3c-0.3-0.5-0.6-1.1-1-1.7c2.6-3,4.7-6.2,6.2-9.7H299V827.4z
			 M304.4,844.1h6.7v-7h-5.6v-1.7h5.6v-4.7h1.8v4.7h5.7v1.7h-5.7v7h6.9v1.6h-15.4V844.1z"/>
		<path class="st4" d="M321.5,843.9h20.8v2h-20.8V843.9z M322.8,826.9h18.1v2h-18.1V826.9z M323.8,835h16.1v2h-16.1V835z"/>
		<path class="st4" d="M343.8,844.8h9.8v-3.1h-8.5v-1.6h8.5V837h-6v0.8h-1.7v-12H363v12h-1.7V837h-6v3.1h8.5v1.6h-8.5v3.1h9.9v1.7
			h-21.4V844.8z M347.6,830.6h6v-3.2h-6V830.6z M347.6,835.4h6v-3.2h-6V835.4z M361.4,827.4h-6v3.2h6V827.4z M355.3,835.4h6v-3.2h-6
			V835.4z"/>
		<path class="st4" d="M383.8,840.2V839H378v4.1c0,1.4,0.6,2,1.7,2h3.9c1.2,0,2-0.6,2.2-1.7c0.2-0.9,0.3-2.1,0.4-3.6
			c0.6,0.3,1.2,0.5,1.8,0.7c-0.2,1.6-0.4,2.8-0.6,3.7c-0.4,1.8-1.6,2.6-3.5,2.6h-4.7c-1.9,0-2.8-1.1-2.8-3.3V839h-7.4v-7.8h1.6v6.1
			h5.8v-7.8h-9.1v-1.7h9.1v-3.1h1.7v3.1h9.1v1.7H378v7.8h5.8v-6.1h1.6v9H383.8z"/>
		<path class="st4" d="M389,845.8c5.6-3.3,8.8-7.8,9.5-13.6h-9.1v-1.8h9.2c0-1.6,0.1-3.5,0.1-5.7h1.9c0,2,0,3.9-0.1,5.7h9.6v1.8
			h-9.5c1.5,6.3,4.8,10.7,9.8,13.1c-0.7,0.7-1.2,1.4-1.6,1.9c-4.6-2.8-7.7-7-9.2-12.5c-1.2,5.4-4.3,9.7-9.4,12.9
			C390,847.2,389.6,846.6,389,845.8z M397.3,842.7l1.4-1.2c1,1.2,2,2.4,3,3.6l-1.5,1.3C399.3,845.3,398.3,844,397.3,842.7z"/>
		<path class="st4" d="M414.5,835.8h6.9v-5h-9.7V829h9.7v-4.5h1.8v4.5h9.9v1.8h-9.9v5h7.1v11.7h-1.7v-1.7h-12.3v1.7h-1.7V835.8z
			 M428.5,837.6h-12.3v6.6h12.3V837.6z"/>
		<path class="st4" d="M434.3,844.8h9.8v-3.1h-8.5v-1.6h8.5V837h-6v0.8h-1.7v-12h17.1v12h-1.7V837h-6v3.1h8.5v1.6h-8.5v3.1h9.9v1.7
			h-21.4V844.8z M438.1,830.6h6v-3.2h-6V830.6z M438.1,835.4h6v-3.2h-6V835.4z M451.9,827.4h-6v3.2h6V827.4z M445.9,835.4h6v-3.2h-6
			V835.4z"/>
		<path class="st4" d="M456.9,843.3c1.9-0.7,4.1-1.6,6.7-2.8v-7.4h-6.2v-1.7h6.2v-6.6h1.7v22.5h-1.7v-4.9c-1.4,0.6-3.4,1.5-6,2.7
			L456.9,843.3z M469.6,824.8h1.7v7.9c2-1.1,3.8-2.3,5.5-3.6l1.1,1.7c-1.6,1.1-3.7,2.4-6.6,3.9v8.6c0,1.1,0.5,1.6,1.6,1.6h1.5
			c1,0,1.6-0.5,1.7-1.6c0.1-1,0.2-2.3,0.3-3.8c0.6,0.3,1.2,0.5,1.8,0.8c-0.1,1.5-0.3,2.8-0.5,3.8c-0.3,1.8-1.3,2.7-3,2.7h-2.3
			c-2,0-3-1.1-3-3.2V824.8z"/>
		<path class="st4" d="M481.3,826.2h18.5v1.8h-16.7v16.4h17.1v1.8h-18.9V826.2z M484.8,830.6l1.2-1.2c1.8,1.6,3.7,3.4,5.6,5.3
			c1.5-1.8,2.9-3.7,4.3-5.8l1.6,1.1c-1.5,2.1-3,4.1-4.6,5.9c1.8,1.8,3.6,3.7,5.6,5.7l-1.5,1.6c-1.7-2-3.5-3.9-5.4-5.9
			c-2.1,2.3-4.2,4.3-6.3,6c-0.3-0.5-0.8-1-1.4-1.5c2.3-1.7,4.4-3.6,6.4-5.8C488.6,834.3,486.7,832.5,484.8,830.6z"/>
		<path class="st4" d="M503.1,844.7h17.1v-4h-15.8V839h15.8v-4h-16.5v-1.7h8.3v-8.7h1.8v8.7h8.1v14.4h-1.8v-1.4h-17.1V844.7z
			 M504.4,827l1.2-1.2c1.6,1.6,3,3.2,4.3,4.9l-1.4,1.3C507.3,830.4,505.9,828.7,504.4,827z M521.6,827.1c-1.5,1.9-3.1,3.6-4.6,5.1
			l-1.3-1.3c1.5-1.4,2.9-3.1,4.4-5.1L521.6,827.1z"/>
		<path class="st4" d="M527.9,826.1h15.4v21.3h-1.8v-1.7h-11.7v1.7h-1.8V826.1z M529.7,827.9v7h11.7v-7H529.7z M529.7,836.6v7.4
			h11.7v-7.4H529.7z"/>
		<path class="st4" d="M62.1,872.4l1,1.5c-2.1,1.1-4.2,2.1-6.2,3c-0.2-0.5-0.5-1-0.8-1.6C58.3,874.3,60.3,873.4,62.1,872.4z
			 M71.3,867c2,1.8,3.6,3.3,4.8,4.6l-1.2,1.3c-0.6-0.6-1.1-1.3-1.7-1.9c-1.8,0.1-3.5,0.2-5.3,0.2v3.1c0,1.9-0.9,2.9-2.7,2.9
			c-0.9,0-1.9,0-3.1,0c-0.1-0.6-0.2-1.3-0.3-1.9c1.1,0.1,2.1,0.2,3,0.2c1,0,1.4-0.6,1.4-1.7v-2.4c-1.9,0.1-3.9,0.2-5.8,0.3
			c-0.6,0-1.2,0.1-1.8,0.2l-0.6-1.8c0.9-0.1,1.9-0.4,3-0.8c1.5-0.6,3.1-1.3,4.8-2.2c-1.8,0.1-3.4,0.1-4.8,0.2
			c-0.7,0-1.2,0.1-1.6,0.1l-0.6-1.5c0.7-0.2,1.4-0.4,2.2-0.8c1-0.5,1.9-1,2.9-1.5h-4v0.7h-1.6v-8.9h17.1v8.9h-1.6v-0.7h-7.2
			c-1.6,0.9-3.2,1.7-4.7,2.4c1.9-0.1,4.1-0.1,6.6-0.2c1-0.5,2-1.1,3.1-1.6l1.1,1.3c-3.4,1.8-7,3.4-10.6,4.8c3.6-0.2,6.9-0.4,9.9-0.6
			c-0.5-0.5-1.1-1-1.6-1.5L71.3,867z M59.8,858.8h6.1v-2.1h-6.1V858.8z M59.8,862.2h6.1v-2.1h-6.1V862.2z M73.5,856.7h-6.1v2.1h6.1
			V856.7z M67.4,862.2h6.1v-2.1h-6.1V862.2z M70.9,872.5c2.1,0.8,4.2,1.6,6.2,2.6l-0.7,1.6c-1.9-1-4-1.8-6.2-2.6L70.9,872.5z"/>
		<path class="st4" d="M87.5,871.1c0,0.8,0.1,1.5,0.2,2c-2.3,1.6-4.2,2.9-5.7,4.1l-1-1.6c0.5-0.5,0.8-1.2,0.8-2.1v-9.3h-3.1v-1.7
			h4.8v11.4C84.6,873.1,86,872.2,87.5,871.1z M80.8,854.9c1.6,1.8,2.7,3,3.4,3.9l-1.5,1.4c-0.9-1.3-2-2.6-3.2-4L80.8,854.9z
			 M85.5,862.7h6.3v-8.1h1.9v8.1h6.3v1.7h-6.3v13.2h-1.9v-13.2h-6.3V862.7z"/>
		<path class="st4" d="M103.1,855.9h11.3v7h-1.6V862h-8.2v3.6c0,5-0.8,8.8-2.5,11.5c-0.3-0.5-0.7-1.1-1-1.5c1.3-2.3,2-5.6,2-9.9
			V855.9z M112.9,857.5h-8.2v3h8.2V857.5z M110.8,877.6h-1.5v-11h-2.1v8.4h-1.5v-9.9h3.6v-2.3h1.5v2.3h3.8v7.6
			c0,1.4-0.5,2.1-1.6,2.1c-0.3,0-0.8,0-1.6,0c-0.1-0.5-0.2-1.1-0.3-1.6c0.5,0,0.9,0.1,1.3,0.1c0.5,0,0.8-0.3,0.8-0.9v-5.8h-2.3
			V877.6z M119.9,854.9h1.6v19.5c0,1.9-0.8,2.9-2.5,2.9c-0.8,0-1.7,0-2.9,0c-0.1-0.7-0.2-1.4-0.3-1.9c1.2,0.2,2.1,0.2,2.7,0.2
			c0.9,0,1.4-0.6,1.4-1.7V854.9z M117.9,871.6h-1.5v-14.4h1.5V871.6z"/>
		<path class="st4" d="M124.2,863.6h8.6v-9h1.8v3.5h9.1v1.7h-9.1v3.7H145v1.8h-20.8V863.6z M132.7,866.2h1.8v2.7l0.9-1.2
			c3.4,1.7,6.2,3.2,8.3,4.5l-1.1,1.7c-2-1.3-4.7-2.9-8.1-4.7v8.5h-1.8V866.2z"/>
		<path class="st4" d="M147.5,860.9c1.1,0.8,2.3,1.9,3.8,3.2c-0.5,0.7-0.9,1.2-1.2,1.5c-1.6-1.6-2.8-2.7-3.6-3.4L147.5,860.9z
			 M149,867.7c0.6,0.2,1.2,0.5,1.8,0.7c-0.7,3.1-1.4,6.1-2,9l-1.9-0.6C147.7,874.1,148.4,871,149,867.7z M148.3,854.9
			c1.1,0.9,2.3,2.1,3.7,3.4c-0.5,0.5-0.9,1-1.3,1.5c-1.6-1.6-2.7-2.8-3.5-3.6L148.3,854.9z M152.8,856.2l1.2-1.1
			c0.7,0.7,1.8,1.9,3.3,3.8l-1.5,1.2C154.5,858.3,153.4,857,152.8,856.2z M154.8,877.5h-1.7v-16.4h5.9v-6.6h1.8v6.6h5.8v13.5
			c0,1.8-0.8,2.7-2.4,2.7c-0.9,0-2.2,0-3.7-0.1c-0.1-0.6-0.2-1.2-0.3-1.9c1.4,0.1,2.6,0.1,3.4,0.1c0.9,0,1.4-0.4,1.4-1.3v-2.2h-10.1
			V877.5z M164.9,862.9h-10.1v2.9h10.1V862.9z M154.8,870.4h10.1v-2.9h-10.1V870.4z M162.5,859.1c1.1-1.2,2.1-2.5,3.1-4l1.6,1.3
			c-0.9,1.2-2,2.5-3.4,3.9L162.5,859.1z"/>
		<path class="st4" d="M170.6,856.7h6.2c0-0.7,0-1.4,0-2h1.6c0,0.6,0,1.3,0,2h3.8v-2h1.6v2h5.2v5.3h-1.6v-0.6h-3.6v2.1h6.2
			c0,1.1-0.1,2.1-0.2,2.9c-0.2,1.1-0.8,1.6-1.9,1.6c-0.2,0-0.4,0-0.6,0v5.7h-1.6V869h-10.8v5.1H173V869c-0.9,0.4-1.9,0.8-3,1.2
			c-0.2-0.5-0.5-1-0.9-1.6c3.3-0.8,5.4-2,6.5-3.7h-4.7l0.7-4.8h5.1c0-0.6,0.1-1.3,0.1-2h-6.2V856.7z M179.2,870.3h1.5
			c0,1-0.1,1.9-0.3,2.6c3.3,1,6.3,2.1,8.9,3.1l-0.8,1.7c-2.9-1.2-5.8-2.3-8.7-3.3c-0.9,1.6-3.8,2.7-8.8,3.3
			c-0.3-0.8-0.5-1.3-0.7-1.7c3.3-0.3,5.8-0.9,7.5-1.8C178.8,873.8,179.2,872.5,179.2,870.3z M172.6,863.5h3.6
			c0.2-0.5,0.3-1.2,0.4-2.1h-3.7L172.6,863.5z M185.1,866.4c0.8,0.1,1.5,0.1,2,0.1c0.6,0,0.9-0.2,1-0.7c0.1-0.3,0.1-0.7,0.1-1h-4.6
			v2.3h-1.6v-2.3h-4.6c-0.4,1-1.1,1.8-2,2.6h10C185.4,867.2,185.3,866.9,185.1,866.4z M177.8,863.5h4.2v-2.1h-3.9
			C178.1,862.3,178,863,177.8,863.5z M178.2,860.1h3.8v-2h-3.8C178.3,858.8,178.3,859.5,178.2,860.1z M187.3,858h-3.6v2h3.6V858z"/>
		<path class="st4" d="M192.6,861.1c1.3,1.1,2.5,2.1,3.5,3.1c-0.5,0.6-0.9,1.1-1.3,1.5c-1.1-1.2-2.3-2.3-3.4-3.3L192.6,861.1z
			 M194.1,867.9c0.6,0.3,1.2,0.6,1.7,0.8c-0.6,2.8-1.3,5.7-1.9,8.8l-1.9-0.6C192.8,874.4,193.4,871.4,194.1,867.9z M193.4,854.9
			c1,0.8,2,1.8,3.1,2.8c-0.4,0.5-0.9,1-1.2,1.4c-0.9-1.1-1.9-2.1-2.9-3L193.4,854.9z M196.9,861.3H213v1.6h-4.8c0,0.8,0,1.6,0,2.4
			h4.1v9.3c0,1.8-0.8,2.7-2.4,2.7c-0.7,0-1.5,0-2.4-0.1c-0.1-0.6-0.2-1.2-0.3-1.8c0.9,0.1,1.7,0.2,2.3,0.2c0.8,0,1.3-0.5,1.3-1.4
			v-1.6c-0.3,0.3-0.6,0.6-1.1,1.1c-0.8-1.1-1.5-2.1-2.3-3c-0.6,1.8-1.5,3.2-2.7,4.4c-0.3-0.4-0.7-0.9-1.1-1.3c1.7-1.6,2.7-4,2.9-7.1
			h-3.5c0,0.6-0.1,1.2-0.2,1.8c0.8,0.8,1.6,1.6,2.4,2.5c-0.1,0.1-0.5,0.5-1.2,1.2c-0.5-0.7-1.1-1.3-1.6-2c-0.5,1.7-1.4,3.1-2.6,4.3
			c-0.2-0.3-0.5-0.7-0.8-1v3.8h-1.6v-12.3h4.1c0-0.8,0-1.6,0-2.4h-4.7V861.3z M196.9,857.2h4.1v-2.6h1.6v2.6h4.6v-2.6h1.6v2.6h4.2
			v1.6h-4.2v2h-1.6v-2h-4.6v2H201v-2h-4.1V857.2z M199.1,873.2c1.5-1.5,2.3-3.6,2.5-6.3h-2.5V873.2z M203.1,865.3h3.6
			c0-0.7,0-1.5,0-2.4h-3.6C203.1,863.6,203.1,864.4,203.1,865.3z M210.8,866.9h-2.6c0,0.7-0.1,1.4-0.3,2.1c1.2,1.3,2.1,2.4,2.9,3.3
			V866.9z"/>
		<path class="st4" d="M217,865.2l0.8-1.3c0.8,0.5,1.7,0.9,2.4,1.3c0.7-0.8,1.4-1.7,1.9-2.7h-4.2c-0.8,1.4-1.6,2.6-2.4,3.6
			c-0.3-0.4-0.7-0.8-1-1.1c1.4-1.6,2.5-3.5,3.4-5.7l1.4,0.5c-0.2,0.5-0.4,0.9-0.6,1.3h5.2v1.3c-0.6,1.3-1.3,2.5-2.2,3.5
			c1.3,0.7,2.4,1.3,3.5,1.9l-0.9,1.5c-1.2-0.8-2.5-1.5-3.8-2.3c-1.1,1-2.3,1.8-3.8,2.5h6.9v7.5h-1.4v-1h-4.4v1.2h-1.4v-7.5
			c-0.4,0.2-0.9,0.4-1.3,0.5c-0.2-0.4-0.4-0.9-0.7-1.4c1.9-0.6,3.4-1.5,4.8-2.6C218.3,865.9,217.7,865.6,217,865.2z M214.9,857.3
			h4.4c-0.3-0.7-0.6-1.4-1-2.2l1.4-0.7c0.5,1.1,1,2,1.3,2.8h3.8v3.3h-1.5v-1.9h-7v1.9h-1.5V857.3z M222.1,871h-4.4v3.6h4.4V871z
			 M229.5,863.6h1.6c0,4-0.1,6.7-0.5,8.3c2.1,1.6,3.9,3,5.4,4.4l-1.1,1.5c-1.4-1.4-3-2.8-4.9-4.3c-0.9,1.8-2.6,3.3-5,4.5
			c-0.3-0.5-0.6-1-1-1.5c2.6-1.3,4.3-2.8,4.9-4.6C229.4,870.6,229.6,867.8,229.5,863.6z M225.6,860.5h3.1l0.5-3h-4.1V856h10.3v1.6
			H231l-0.6,3h4.5v11.8h-1.5v-10.2h-6.2v10.2h-1.5V860.5z"/>
		<path class="st4" d="M244.2,868.3c1.8,2.3,3.2,4.3,4.4,6l-1.4,1.1c-0.5-0.8-1.1-1.6-1.7-2.5c-2.1,1.1-3.9,2-5.4,2.8
			c-0.5,0.3-0.9,0.6-1.3,1l-1.2-1.5c0.4-0.5,0.7-1.1,0.7-1.8v-17.3h8.7v12.1h-1.6v-0.6h-5.4v6.2c1.4-0.6,2.9-1.4,4.6-2.2
			c-0.5-0.8-1.1-1.6-1.7-2.4L244.2,868.3z M245.5,857.8h-5.4v3.3h5.4V857.8z M245.5,866v-3.3h-5.4v3.3H245.5z M249.5,856.4h7.6v14.2
			c0,2-0.9,3-2.7,3c-0.6,0-1.5,0-2.5,0c-0.1-0.7-0.2-1.4-0.3-2c1.1,0.1,1.9,0.2,2.4,0.2c0.9,0,1.4-0.5,1.4-1.6v-11.9h-4.3v19.6h-1.6
			V856.4z"/>
		<path class="st4" d="M259.7,856.5H281v1.8h-3.6v15.9c0,2.1-0.9,3.2-2.8,3.2c-1.4,0-2.7,0-3.9,0c-0.1-0.7-0.2-1.4-0.3-2.1
			c1.6,0.1,2.9,0.2,3.7,0.2c1.1,0,1.6-0.6,1.6-1.9v-15.2h-15.9V856.5z M262.1,861.7h9.5v9.3h-7.8v1.7h-1.7V861.7z M269.9,863.4h-6.1
			v5.9h6.1V863.4z"/>
		<path class="st4" d="M282.2,867c0.9-0.3,1.8-0.6,2.7-0.9v-5.4h-2.5V859h2.5v-4.4h1.6v4.4h2.4v1.6h-2.4v4.8
			c0.7-0.3,1.5-0.6,2.2-0.9c0,0.8,0,1.4,0,1.9c-0.1,0-0.9,0.4-2.3,0.9v7.5c0,1.6-0.7,2.4-2,2.5c-0.6,0-1.3,0-2.1,0
			c-0.1-0.7-0.2-1.3-0.3-1.9c0.8,0.1,1.5,0.1,2,0.1c0.5,0,0.8-0.3,0.8-1V868c-0.7,0.3-1.5,0.6-2.5,1L282.2,867z M288.3,868.9h1.9
			v-6.3c-0.4-0.3-0.8-0.7-1.3-1c1.9-2.1,3.4-4.5,4.5-7.1l1.7,0.3c-0.3,0.8-0.7,1.5-1.1,2.2h6.5v1.6c-0.5,0.7-1.4,1.8-2.5,3.3h3.9
			v7.1h1.7v1.6H297c1.1,2.7,3.3,4.4,6.6,5.2c-0.5,0.7-1,1.3-1.3,1.9c-3-1.1-5.1-3-6.3-5.8c-0.8,2.4-3.2,4.4-7.2,6
			c-0.3-0.6-0.7-1.1-1.2-1.7c4.1-1.3,6.5-3.2,7.1-5.5h-6.4V868.9z M298.7,858.6h-5.5c-0.7,1.1-1.5,2.2-2.3,3.2h5.3
			C297.2,860.5,298,859.4,298.7,858.6z M291.7,868.9h3.4c0.1-0.8,0.2-2.6,0.2-5.5h-3.5V868.9z M300.4,863.4h-3.6c0,2,0,3.8-0.1,5.5
			h3.8V863.4z"/>
		<path class="st4" d="M310.9,855l-0.3,0.6c1.3,1.7,2.6,3.4,3.9,5.3l-1.3,1.3c-1.1-1.8-2.2-3.5-3.3-5c-1.1,2.6-2.5,5.1-4.1,7.6
			c-0.3-0.5-0.6-1.1-1.1-1.6c1.7-2.3,3.2-5.1,4.5-8.2H310.9z M306.4,871.2l1.3-1c0.7,0.9,1.3,1.7,1.9,2.6c0.7-1.5,1.5-3.2,2.3-5.2
			h-6.3v-1.6h8.1v1.6c-1.1,2.7-2.1,4.9-3,6.6c0.6,0.8,1.1,1.5,1.6,2.3l-1.5,1.1C309.4,875.2,307.9,873.1,306.4,871.2z M308.6,861.3
			l1.3-0.7c0.6,1.1,1.3,2.3,1.8,3.5l-1.5,0.8C309.9,864,309.3,862.8,308.6,861.3z M319.3,863.2h1.6v3.5c0,1.7-0.2,3.2-0.5,4.5
			c2.1,1.7,4.1,3.4,6,5.1l-1.3,1.5c-1.6-1.7-3.4-3.4-5.3-5c-0.1,0.1-0.1,0.3-0.2,0.4c-1,1.7-2.7,3.2-5.2,4.6
			c-0.5-0.7-0.9-1.2-1.2-1.5c2.4-1.1,4-2.4,4.9-3.9c0.8-1.3,1.3-3.2,1.3-5.7V863.2z M314.9,860.6h3.8l0.5-3.2h-5.4v-1.6h12.4v1.6
			H321l-0.6,3.2h4.9v11.2h-1.6v-9.6h-7.2v9.7h-1.6V860.6z"/>
		<path class="st4" d="M337.1,868.1c0,1,0.1,1.8,0.2,2.2c-3.5,2.4-5.6,3.8-6.4,4.5c-0.5,0.4-0.9,0.8-1.4,1.2l-1.2-1.9
			c0.7-0.7,1-1.4,1-2.4v-16.3h1.8v16.8C332.6,871.2,334.6,869.8,337.1,868.1z M343.8,855.1h1.8v4.2c0,4.3-0.5,7.8-1.5,10.3
			c1.8,2,3.5,4,5,5.9l-1.5,1.5c-1.5-2-2.9-3.9-4.4-5.7c-1.7,2.7-4.2,4.9-7.5,6.4c-0.3-0.5-0.7-1-1.2-1.6c3.6-1.8,6.1-3.9,7.3-6.3
			c1.3-2.3,2-5.9,2-10.6V855.1z M336.2,854.6c1,1.7,2,3.6,3.2,6l-1.7,1c-1.1-2.4-2.1-4.4-3.1-6.1L336.2,854.6z"/>
		<path class="st4" d="M350.4,874.3h8.5V855h2v7.1h8.9v1.9h-8.9v10.4h10.6v1.9h-21V874.3z"/>
		<path class="st4" d="M373.5,860.9v-1.7h8.6v1.7c-0.8,1.6-1.8,3.2-3,4.7v12h-1.7v-10.1c-1.2,1.4-2.6,2.7-4.1,3.9
			c-0.2-1-0.4-1.6-0.6-2c3.2-2.6,5.7-5.4,7.5-8.6H373.5z M376.5,855.5l1.3-1c0.8,1,1.5,2.1,2.3,3.1l-1.4,1.1
			C377.9,857.6,377.2,856.5,376.5,855.5z M379.6,866.8l1-1.2c1.3,0.9,2.5,2,3.8,3l-1.1,1.4C382,868.9,380.8,867.8,379.6,866.8z
			 M385.3,854.9h1.7v18.7c0,1,0.5,1.5,1.5,1.5h1.8c1,0,1.6-0.5,1.8-1.6c0.1-1.1,0.2-2.6,0.3-4.4c0.6,0.3,1.2,0.5,1.8,0.7
			c-0.2,2.2-0.3,3.8-0.5,4.7c-0.3,1.6-1.3,2.4-3.2,2.4h-2.3c-1.9,0-2.9-1-2.9-3.1V854.9z"/>
		<path class="st4" d="M396.6,866.8h8.2v10.8h-1.6V876h-4.9v1.6h-1.6V866.8z M403.1,868.4h-4.9v6h4.9V868.4z M398.7,855.6h14.9v9.3
			h-1.7v-0.8h-11.4v0.8h-1.7V855.6z M411.8,857.2h-11.4v5.2h11.4V857.2z M407.5,866.8h8.2v10.8h-1.6V876h-5v1.6h-1.6V866.8z
			 M414.1,868.4h-5v6.1h5V868.4z"/>
		<path class="st4" d="M430.4,878.6c-2.6-3-3.8-6.7-3.8-11.1c0-4.4,1.3-8.1,3.8-11.2h1.9c-2.6,3.2-3.8,6.9-3.8,11.2
			c0,4.2,1.3,7.9,3.8,11.1H430.4z"/>
		<path class="st4" d="M441,872.9h20.7v2H441V872.9z M442.6,857.6h17.6v2h-17.6V857.6z"/>
		<path class="st4" d="M472.3,875.2l4.5,0l7.9-0.2c-0.2,0.5-0.4,1.1-0.6,1.9l-7.5,0.1l-4.5-0.1c-2.6-0.1-4.4-1-5.4-2.8
			c-0.6,0.6-1.5,1.6-2.6,3.1l-0.9-1.9c1.3-1.3,2.2-2.3,2.8-2.9v-7.9h-2.6v-1.7h4.2v10C468.5,874.4,470.1,875.2,472.3,875.2z
			 M465.9,855c0.7,1,1.7,2.4,3,4.4l-1.5,1.2c-1.2-2-2.1-3.5-2.9-4.6L465.9,855z M469,864.2h7.1v-3.9h-3.6c-0.4,1.2-0.9,2.2-1.3,3.2
			c-0.4-0.3-0.9-0.5-1.5-0.8c1.1-2.1,2-4.5,2.5-7.1l1.7,0.4c-0.3,1-0.5,1.9-0.8,2.8h3.1v-4.1h1.7v4.1h5.6v1.6h-5.6v3.9h6.7v1.6h-5.1
			v5c0,0.8,0.3,1.2,0.9,1.2h1c0.7,0,1-0.4,1.1-1.1c0.1-0.6,0.2-1.5,0.2-2.8c0.4,0.2,1,0.4,1.6,0.7c-0.1,1.1-0.2,2-0.4,2.7
			c-0.2,1.4-1,2.1-2.5,2.1H480c-1.5,0-2.2-0.9-2.2-2.6v-5.2h-2.9c0,0.7,0,1.3-0.1,1.9c-0.1,2.9-1.6,5.1-4.5,6.5
			c-0.3-0.5-0.6-1-1.1-1.6c2.5-1.1,3.8-2.8,3.9-4.9c0-0.5,0.1-1.1,0.1-1.9H469V864.2z"/>
		<path class="st4" d="M486,864.4h21.4v2.1H486V864.4z"/>
		<path class="st4" d="M517.6,878.6h-1.9c2.6-3.2,3.8-6.9,3.8-11.2c0-4.2-1.3-7.9-3.8-11.1h1.8c2.6,3,3.8,6.7,3.8,11.1
			C521.4,871.8,520.2,875.6,517.6,878.6z"/>
		<path class="st4" d="M42.7,896.6c0-0.4,0.1-0.8,0.4-1.1c0.3-0.3,0.6-0.4,1-0.4s0.7,0.1,1,0.4c0.3,0.3,0.4,0.6,0.4,1.1
			c0,0.4-0.1,0.8-0.4,1.1c-0.3,0.3-0.6,0.4-1,0.4c-0.4,0-0.7-0.1-1-0.4C42.8,897.3,42.7,897,42.7,896.6z"/>
		<path class="st4" d="M54.7,897c0.9-0.3,1.8-0.6,2.7-0.9v-5.4h-2.5V889h2.5v-4.4H59v4.4h2.4v1.6H59v4.8c0.7-0.3,1.5-0.6,2.2-0.9
			c0,0.8,0,1.4,0,1.9c-0.1,0-0.9,0.4-2.3,0.9v7.5c0,1.6-0.7,2.4-2,2.5c-0.6,0-1.3,0-2.1,0c-0.1-0.7-0.2-1.3-0.3-1.9
			c0.8,0.1,1.5,0.1,2,0.1c0.5,0,0.8-0.3,0.8-1V898c-0.7,0.3-1.5,0.6-2.5,1L54.7,897z M60.8,898.9h1.9v-6.3c-0.4-0.3-0.8-0.7-1.3-1
			c1.9-2.1,3.4-4.5,4.5-7.1l1.7,0.3c-0.3,0.8-0.7,1.5-1.1,2.2h6.5v1.6c-0.5,0.7-1.4,1.8-2.5,3.3h3.9v7.1h1.7v1.6h-6.7
			c1.1,2.7,3.3,4.4,6.6,5.2c-0.5,0.7-1,1.3-1.3,1.9c-3-1.1-5.1-3-6.3-5.8c-0.8,2.4-3.2,4.4-7.2,6c-0.3-0.6-0.7-1.1-1.2-1.7
			c4.1-1.3,6.5-3.2,7.1-5.5h-6.4V898.9z M71.1,888.6h-5.5c-0.7,1.1-1.5,2.2-2.3,3.2h5.3C69.7,890.5,70.5,889.4,71.1,888.6z
			 M64.2,898.9h3.4c0.1-0.8,0.2-2.6,0.2-5.5h-3.5V898.9z M72.9,893.4h-3.6c0,2,0,3.8-0.1,5.5h3.8V893.4z"/>
		<path class="st4" d="M78.1,890.9v-1.7h8.6v1.7c-0.8,1.6-1.8,3.2-3,4.7v12H82v-10.1c-1.2,1.4-2.6,2.7-4.1,3.9c-0.2-1-0.4-1.6-0.6-2
			c3.2-2.6,5.7-5.4,7.5-8.6H78.1z M81,885.5l1.3-1c0.8,1,1.5,2.1,2.3,3.1l-1.4,1.1C82.5,887.6,81.8,886.5,81,885.5z M84.1,896.8
			l1-1.2c1.3,0.9,2.5,2,3.8,3l-1.1,1.4C86.6,898.9,85.4,897.8,84.1,896.8z M89.9,884.9h1.7v18.7c0,1,0.5,1.5,1.5,1.5H95
			c1,0,1.6-0.5,1.8-1.6c0.1-1.1,0.2-2.6,0.3-4.4c0.6,0.3,1.2,0.5,1.8,0.7c-0.2,2.2-0.3,3.8-0.5,4.7c-0.3,1.6-1.3,2.4-3.2,2.4h-2.3
			c-1.9,0-2.9-1-2.9-3.1V884.9z"/>
		<path class="st4" d="M107,902c0,0.5,0.1,1.2,0.2,2c-2,1.4-3.4,2.5-4.3,3.2l-1-1.6c0.5-0.4,0.7-1.1,0.7-2v-9.3H100v-1.7h4.3V904
			C105.1,903.4,106,902.7,107,902z M102,885c1.3,1.4,2.4,2.7,3.4,3.9l-1.5,1.4c-1-1.5-2.1-2.8-3.1-4L102,885z M106,899.4h6.7v-3.5
			h-5.5v-1.7h5.5v-3.5h-6.1V889h7.8c1.2-1.7,2.2-3.2,2.8-4.5l1.7,1.1c-0.7,0.9-1.5,2-2.6,3.4h4.6v1.7h-6.4v3.5h5.8v1.7h-5.8v3.5h6.9
			v1.7h-6.9v6.5h-1.8v-6.5H106V899.4z M108.3,885.6l1.3-1.1c0.9,1.1,1.8,2.2,2.5,3.2l-1.5,1.1C109.8,887.7,109.1,886.6,108.3,885.6z
			"/>
		<path class="st4" d="M123.4,890l1.4,0.2c-0.2,1.9-0.4,3.9-0.8,6c-0.3-0.1-0.8-0.2-1.4-0.3C122.9,894.4,123.2,892.4,123.4,890z
			 M125.5,884.7h1.5v4.8l0.8-0.6c0.7,0.9,1.4,1.8,2,2.6l-1.2,1c-0.4-0.7-1-1.5-1.6-2.4v17.6h-1.5V884.7z M128.9,892.7h6.6v-1.6h-5.4
			v-1.5h5.4V888h-6v-1.5h6v-2.1h1.6v2.1h6.5v1.5h-6.5v1.6h5.9v1.5h-5.9v1.6h6.9v1.5h-15.2V892.7z M132,907.5h-1.6v-11.9h12.1v9
			c0,1.7-0.7,2.6-2.2,2.6c-0.9,0-2.2,0-3.7,0c-0.1-0.5-0.2-1.1-0.3-1.8c1.4,0.1,2.5,0.1,3.3,0.1c0.8,0,1.2-0.4,1.2-1.1v-1.3H132
			V907.5z M140.8,897.1H132v1.6h8.8V897.1z M132,901.8h8.8v-1.6H132V901.8z"/>
		<path class="st4" d="M152,901.7c0,0.8,0.1,1.5,0.2,2c-1.6,1.1-2.9,2.1-3.9,3l-1-1.5c0.5-0.5,0.7-1.2,0.7-2v-8.9h-2.6v-1.7h4.3
			v10.9C150.4,902.9,151.2,902.3,152,901.7z M147.8,885.2c1.2,1.3,2.2,2.4,3.1,3.5l-1.5,1.4c-1-1.4-2-2.6-2.9-3.7L147.8,885.2z
			 M150.9,892.7h7v-1.6h-5.5v-1.5h5.5V888h-6.3v-1.5h6.3v-2.1h1.7v2.1h6.6v1.5h-6.6v1.6h6v1.5h-6v1.6h7v1.5h-15.7V892.7z
			 M154.5,907.5h-1.7v-11.9h12v9.1c0,1.7-0.8,2.5-2.4,2.6c-0.8,0-1.9,0-3.3,0c-0.1-0.5-0.2-1.1-0.3-1.8c1.2,0.1,2.3,0.1,3.1,0.1
			c0.8,0,1.2-0.4,1.2-1.2v-1.2h-8.6V907.5z M163.2,897.1h-8.6v1.6h8.6V897.1z M154.5,901.8h8.6v-1.6h-8.6V901.8z"/>
		<path class="st4" d="M168,904.5h9.7v-4h-8.3v-1.7h8.3v-3.2h1.8v3.2h8.1v1.7h-8.1v4h9.6v1.7H168V904.5z M182.3,889c2.2,2,4.2,4,6,6
			l-1.4,1.4c-0.5-0.5-1-1.1-1.5-1.7c-5,0.1-9.5,0.4-13.3,0.7c-0.4,0-1,0.2-1.7,0.4l-0.9-2c0.8-0.3,1.5-0.7,2-1.1
			c1.5-1.3,2.9-3,4.5-5h-7.4v-1.7h20.1v1.7h-10.4c-1.7,2-3.5,4-5.4,5.9c3.4-0.2,7-0.3,11-0.4c-0.9-0.9-1.8-1.9-2.8-2.9L182.3,889z"
			/>
		<path class="st4" d="M190.8,903.9h20.8v2h-20.8V903.9z M192.2,886.9h18.1v2h-18.1V886.9z M193.1,895h16.1v2h-16.1V895z"/>
		<path class="st4" d="M213.2,904.8h9.8v-3.1h-8.5v-1.6h8.5V897h-6v0.8h-1.7v-12h17.1v12h-1.7V897h-6v3.1h8.5v1.6h-8.5v3.1h9.9v1.7
			h-21.4V904.8z M217,890.6h6v-3.2h-6V890.6z M217,895.4h6v-3.2h-6V895.4z M230.7,887.4h-6v3.2h6V887.4z M224.7,895.4h6v-3.2h-6
			V895.4z"/>
		<path class="st4" d="M253.2,900.2V899h-5.8v4.1c0,1.4,0.6,2,1.7,2h3.9c1.2,0,2-0.6,2.2-1.7c0.2-0.9,0.3-2.1,0.4-3.6
			c0.6,0.3,1.2,0.5,1.8,0.7c-0.2,1.6-0.4,2.8-0.6,3.7c-0.4,1.8-1.6,2.6-3.5,2.6h-4.7c-1.9,0-2.8-1.1-2.8-3.3V899h-7.4v-7.8h1.6v6.1
			h5.8v-7.8h-9.1v-1.7h9.1v-3.1h1.7v3.1h9.1v1.7h-9.1v7.8h5.8v-6.1h1.6v9H253.2z"/>
		<path class="st4" d="M258.4,905.8c5.6-3.3,8.8-7.8,9.5-13.6h-9.1v-1.8h9.2c0-1.6,0.1-3.5,0.1-5.7h1.9c0,2,0,3.9-0.1,5.7h9.6v1.8
			H270c1.5,6.3,4.8,10.7,9.8,13.1c-0.7,0.7-1.2,1.4-1.6,1.9c-4.6-2.8-7.7-7-9.2-12.5c-1.2,5.4-4.3,9.7-9.4,12.9
			C259.4,907.2,259,906.6,258.4,905.8z M266.6,902.7l1.4-1.2c1,1.2,2,2.4,3,3.6l-1.5,1.3C268.6,905.3,267.7,904,266.6,902.7z"/>
		<path class="st4" d="M283.9,895.8h6.9v-5H281V889h9.7v-4.5h1.8v4.5h9.9v1.8h-9.9v5h7.1v11.7h-1.7v-1.7h-12.3v1.7h-1.7V895.8z
			 M297.9,897.6h-12.3v6.6h12.3V897.6z"/>
		<path class="st4" d="M303.7,904.8h9.8v-3.1H305v-1.6h8.5V897h-6v0.8h-1.7v-12h17.1v12h-1.7V897h-6v3.1h8.5v1.6h-8.5v3.1h9.9v1.7
			h-21.4V904.8z M307.5,890.6h6v-3.2h-6V890.6z M307.5,895.4h6v-3.2h-6V895.4z M321.3,887.4h-6v3.2h6V887.4z M315.2,895.4h6v-3.2h-6
			V895.4z"/>
		<path class="st4" d="M326.2,903.3c1.9-0.7,4.1-1.6,6.7-2.8v-7.4h-6.2v-1.7h6.2v-6.6h1.7v22.5h-1.7v-4.9c-1.4,0.6-3.4,1.5-6,2.7
			L326.2,903.3z M338.9,884.8h1.7v7.9c2-1.1,3.8-2.3,5.5-3.6l1.1,1.7c-1.6,1.1-3.7,2.4-6.6,3.9v8.6c0,1.1,0.5,1.6,1.6,1.6h1.5
			c1,0,1.6-0.5,1.7-1.6c0.1-1,0.2-2.3,0.3-3.8c0.6,0.3,1.2,0.5,1.8,0.8c-0.1,1.5-0.3,2.8-0.5,3.8c-0.3,1.8-1.3,2.7-3,2.7h-2.3
			c-2,0-3-1.1-3-3.2V884.8z"/>
		<path class="st4" d="M350.7,886.2h18.5v1.8h-16.7v16.4h17.1v1.8h-18.9V886.2z M354.2,890.6l1.2-1.2c1.8,1.6,3.7,3.4,5.6,5.3
			c1.5-1.8,2.9-3.7,4.3-5.8l1.6,1.1c-1.5,2.1-3,4.1-4.6,5.9c1.8,1.8,3.6,3.7,5.6,5.7l-1.5,1.6c-1.7-2-3.5-3.9-5.4-5.9
			c-2.1,2.3-4.2,4.3-6.3,6c-0.3-0.5-0.8-1-1.4-1.5c2.3-1.7,4.4-3.6,6.4-5.8C357.9,894.3,356.1,892.5,354.2,890.6z"/>
		<path class="st4" d="M375.8,890.3c0.5,0.5,1,0.9,1.4,1.3c-1.3,2-2.6,4.2-4,6.6l-1.5-1.2C373.1,895,374.4,892.8,375.8,890.3z
			 M373.7,884.7c1.2,1.1,2.3,2.2,3.4,3.3c-0.5,0.5-0.9,1-1.3,1.4c-1-1.2-2.1-2.3-3.2-3.4L373.7,884.7z M374.7,898.6h15.2v9.1h-1.7
			v-1.3h-11.9v1.3h-1.7V898.6z M383.8,889.1c0.5,0,1,0,1.5,0c0,0.2,0,0.5-0.1,0.9c1.4,3.4,4,5.5,7.9,6.4c-0.4,0.6-0.7,1.2-1,1.8
			c-3.7-1.2-6.1-3.3-7.4-6.1c-1.2,2.9-3.7,5-7.6,6.1c-0.2-0.5-0.6-1.1-1-1.7C380.7,895.4,383.3,893,383.8,889.1z M388.2,900.3h-11.9
			v4.6h11.9V900.3z M377.4,891.1c1.6-1.8,2.8-4,3.4-6.5h1.7c-0.2,0.9-0.5,1.7-0.8,2.5h10.1v1.6c-0.6,1-1.2,2.1-1.8,3.3
			c-0.6-0.3-1.1-0.5-1.7-0.6c0.6-0.9,1.1-1.8,1.5-2.7h-8.8c-0.6,1.3-1.3,2.5-2.2,3.6C378.5,891.9,378,891.5,377.4,891.1z"/>
		<path class="st4" d="M400.9,902.1c0,0.8,0.1,1.5,0.2,2c-1.8,1.3-3.2,2.3-4,3.1l-1-1.6c0.5-0.5,0.7-1.1,0.7-2v-9.3h-2.5v-1.7h4.2
			V904C399.2,903.4,400,902.7,400.9,902.1z M396.4,885c1.6,1.8,2.7,3,3.4,3.9l-1.5,1.3c-0.9-1.3-2-2.6-3.2-4L396.4,885z
			 M399.4,892.2c1.8-2.2,3.3-4.9,4.5-7.8l1.6,0.7c-0.4,0.8-0.8,1.6-1.2,2.4h10.5c-0.2,7.1-0.3,12.3-0.4,15.5
			c-0.1,2.8-1.2,4.2-3.4,4.2c-1.3,0-2.5,0-3.5-0.1c-0.1-0.6-0.2-1.3-0.4-2.1c1.3,0.2,2.4,0.3,3.5,0.3c1.3,0,2-0.9,2.1-2.7
			c0.1-3.5,0.3-8,0.4-13.5h-9.7c-0.9,1.5-1.7,2.9-2.7,4.1C400.4,893,400,892.6,399.4,892.2z M402.1,891.9h7.9v10.7h-6.3v1.4h-1.6
			V891.9z M408.4,893.5h-4.8v2.9h4.8V893.5z M408.4,901v-3h-4.8v3H408.4z"/>
		<path class="st4" d="M432.1,887.6c2.3,2.3,4.4,4.6,6.4,7l-1.5,1.4c-0.6-0.7-1.2-1.5-1.7-2.2c-6.5,0.3-11.4,0.6-14.8,0.8
			c-0.8,0.1-1.6,0.2-2.3,0.4l-0.7-2c0.7-0.3,1.3-0.6,1.8-1.1c2.5-2.2,4.7-4.7,6.7-7.6l1.6,1.1c-2.2,2.8-4.4,5.2-6.7,7.3
			c4.4-0.1,8.7-0.3,13-0.5c-1-1.2-2-2.3-3-3.4L432.1,887.6z M435.2,896.9v10.6h-1.8V906h-11.9v1.5h-1.8v-10.6H435.2z M433.5,898.7
			h-11.9v5.7h11.9V898.7z"/>
		<path class="st4" d="M445.5,901.8l1,1.3c-1.9,1.5-3.9,2.8-6,4c-0.3-0.5-0.6-1-1.1-1.5C441.6,904.5,443.6,903.2,445.5,901.8z
			 M454.4,896.3c2,1.6,3.7,3.1,5.3,4.6l-1.3,1.3c-0.5-0.5-0.9-1-1.4-1.5c-1.9,0.1-3.8,0.2-5.7,0.3v3.5c0,1.9-0.9,2.9-2.8,2.9
			c-0.8,0-1.8,0-2.7,0c-0.1-0.6-0.2-1.2-0.3-1.9c1,0.1,1.9,0.2,2.7,0.2c1,0,1.5-0.5,1.5-1.5v-3c-1.5,0.1-2.9,0.2-4.2,0.3
			c-0.8,0.1-1.7,0.2-2.5,0.3l-0.6-1.9c1-0.2,2-0.6,2.9-1.1c1.4-0.7,2.7-1.5,3.9-2.2c-1.2,0.1-2.3,0.2-3.3,0.3
			c-0.7,0.1-1.3,0.2-1.8,0.3l-0.5-1.6c0.6-0.2,1.2-0.6,1.8-1c0.9-0.7,1.9-1.4,2.9-2.3h-6.3v2.7h-1.7v-4.3h9.1v-2.2h-8.4v-1.6h8.4
			v-2.3h1.8v2.3h8.5v1.6h-8.5v2.2h9.1v4.3h-1.7v-2.7h-8.2c-1.5,1.3-2.9,2.4-4.2,3.3c1.7-0.1,3.4-0.1,5-0.2c1-0.7,1.9-1.3,2.8-2
			l1.3,1.1c-3.2,2.1-6.3,4-9.2,5.5c3-0.1,6.2-0.3,9.5-0.5c-0.7-0.7-1.4-1.3-2.2-2L454.4,896.3z M454.2,902c2.5,1.2,4.7,2.4,6.7,3.5
			c-0.4,0.6-0.8,1.1-1,1.6c-1.9-1.3-4.1-2.5-6.6-3.8L454.2,902z"/>
		<path class="st4" d="M462.1,902.1c0.6-0.1,1.3-0.2,1.9-0.3v-14.5h-1.6v-1.6H473v0.8h9.4v1.5c-0.8,5.8-2.1,10-3.7,12.7
			c1.4,2.1,3,3.7,4.9,4.9c-0.4,0.5-0.8,1-1.3,1.7c-1.5-1.2-3.1-2.9-4.5-5.1c-1.5,2.1-3.2,3.9-5.2,5.4c-0.4-0.6-0.8-1.1-1.1-1.5v1.5
			h-1.6v-5.1c-2.6,0.4-5.1,0.9-7.5,1.3L462.1,902.1z M465.6,890.9h4.2v-3.6h-4.2V890.9z M465.6,896h4.2v-3.6h-4.2V896z M469.8,900.9
			v-3.4h-4.2v4.1C467,901.4,468.4,901.2,469.8,900.9z M472.8,888.1v-0.8h-1.3v13.3c0.8-0.1,1.6-0.3,2.5-0.4c0,0.6-0.1,1.2-0.1,1.6
			c-0.8,0.1-1.6,0.3-2.4,0.4v3.8c2-1.3,3.8-3,5.3-5.3c-1.7-2.9-2.7-7.1-3.2-12.6H472.8z M480.8,888.1h-5.6c0.3,4.6,1.2,8.2,2.6,11
			C479,896.9,480,893.2,480.8,888.1z"/>
		<path class="st4" d="M484.7,897.2c1-0.3,2.1-0.6,3.2-1V891H485v-1.6h2.9v-4.6h1.7v4.6h2.7v1.6h-2.7v4.6c0.8-0.2,1.6-0.5,2.4-0.8
			c0,0.8,0,1.4,0,1.9c-0.7,0.2-1.5,0.5-2.4,0.8v7.1c0,1.7-0.6,2.6-1.9,2.6c-0.7,0-1.4,0-2.3,0c-0.1-0.7-0.2-1.3-0.3-2
			c0.9,0.1,1.5,0.1,2,0.1c0.6,0,0.9-0.4,0.9-1.1v-6.2c-0.9,0.3-1.9,0.7-3,1.1L484.7,897.2z M493.5,886.4c3.7,0,7.6-0.3,11.5-1
			l0.6,1.8c-4.3,0.5-7.8,0.8-10.4,0.8v5.5h11v1.7h-3.9v12.3h-1.7v-12.3h-5.3c0,5.6-1,9.8-3,12.4c-0.4-0.5-0.8-1-1.4-1.5
			c1.8-2.3,2.7-5.9,2.7-10.9V886.4z"/>
		<path class="st4" d="M507.4,906c3.7-0.9,6.2-2,7.6-3.2c1.6-1.4,2.4-3.6,2.4-6.5v-2.6h1.7v2.7c0,1.6-0.2,3-0.6,4.2
			c3.6,1.7,6.9,3.5,9.9,5.3l-1.1,1.8c-2.8-1.8-5.9-3.7-9.4-5.5c-0.5,1-1.2,1.8-2,2.4c-1.7,1.4-4.1,2.5-7.4,3.3
			C508.2,907.4,507.9,906.7,507.4,906z M510.2,890.6h6.1c0.2-0.8,0.4-1.9,0.6-3.1h-9.2v-1.7h20.7v1.7h-9.5c-0.3,1.2-0.6,2.3-0.9,3.1
			h8.1v11.2h-1.7v-9.4H512v9.5h-1.7V890.6z"/>
		<path class="st4" d="M42.7,926.6c0-0.4,0.1-0.8,0.4-1.1c0.3-0.3,0.6-0.4,1-0.4s0.7,0.1,1,0.4c0.3,0.3,0.4,0.6,0.4,1.1
			c0,0.4-0.1,0.8-0.4,1.1c-0.3,0.3-0.6,0.4-1,0.4c-0.4,0-0.7-0.1-1-0.4C42.8,927.3,42.7,927,42.7,926.6z"/>
		<path class="st4" d="M55.5,920.9v-1.7h8.6v1.7c-0.8,1.6-1.8,3.2-3,4.7v12h-1.7v-10.1c-1.2,1.4-2.6,2.7-4.1,3.9
			c-0.2-1-0.4-1.6-0.6-2c3.2-2.6,5.7-5.4,7.5-8.6H55.5z M58.4,915.5l1.3-1c0.8,1,1.5,2.1,2.3,3.1l-1.4,1.1
			C59.9,917.6,59.1,916.5,58.4,915.5z M61.5,926.8l1-1.2c1.3,0.9,2.5,2,3.8,3l-1.1,1.4C63.9,928.9,62.7,927.8,61.5,926.8z
			 M67.3,914.9H69v18.7c0,1,0.5,1.5,1.5,1.5h1.8c1,0,1.6-0.5,1.8-1.6c0.1-1.1,0.2-2.6,0.3-4.4c0.6,0.3,1.2,0.5,1.8,0.7
			c-0.2,2.2-0.3,3.8-0.5,4.7c-0.3,1.6-1.3,2.4-3.2,2.4h-2.3c-1.9,0-2.9-1-2.9-3.1V914.9z"/>
		<path class="st4" d="M78.5,926.8h8.2v10.8h-1.6V936h-4.9v1.6h-1.6V926.8z M85.1,928.4h-4.9v6h4.9V928.4z M80.6,915.6h14.9v9.3
			h-1.7v-0.8H82.3v0.8h-1.7V915.6z M93.8,917.2H82.3v5.2h11.4V917.2z M89.4,926.8h8.2v10.8H96V936h-5v1.6h-1.6V926.8z M96,928.4h-5
			v6.1h5V928.4z"/>
		<path class="st4" d="M100,929.3c1.4-2.3,2.5-5.1,3.3-8.3h-3v-1.6h3.2v-4.6h1.6v4.6h2.5v1.6H105v3.7l0.9-0.8c0.9,1,1.9,2,2.8,3.1
			l-1.2,1.2c-1.1-1.4-1.9-2.3-2.4-2.9v12.5h-1.6v-12.9c-0.8,2.5-1.7,4.7-2.7,6.4C100.5,930.7,100.3,930,100,929.3z M107.1,930h6.3
			v-3.8h-4.7v-1.6h4.7v-3.7h-5.2v-1.6h6.7c1.2-1.9,2.1-3.4,2.7-4.6l1.6,1.1c-0.7,1.1-1.6,2.3-2.5,3.5h3.9v1.6h-5.5v3.7h4.9v1.6h-4.9
			v3.8h6.2v1.6h-6.2v6.1h-1.7v-6.1h-6.3V930z M109.4,915.6l1.3-1c1.1,1.4,1.9,2.5,2.4,3.2l-1.5,1.1
			C110.8,917.5,110.1,916.4,109.4,915.6z"/>
		<path class="st4" d="M122.6,919h12c-0.1-1.4-0.1-3-0.1-4.6h1.8c0,1.5,0,3.1,0.1,4.6h7.4v1.8h-7.3c0.3,7.9,1.5,12.7,3.6,14.3
			c0.8,0.7,1.3,0.5,1.6-0.6c0.2-0.8,0.4-2,0.6-3.6c0.7,0.3,1.3,0.5,1.7,0.6c-0.3,1.8-0.6,3.3-0.9,4.4c-0.3,1.1-1,1.6-2,1.6
			c-1,0-2-0.5-3-1.6c-2.1-2.4-3.2-7.4-3.5-15.2h-12.1V919z M122.7,933.9c1.6-0.2,3.3-0.4,5-0.7v-6.6h-4.2v-1.8h10.1v1.8h-4.2v6.3
			c1.7-0.3,3.4-0.5,5.2-0.8c0,0.6,0,1.2,0,1.9c-4.3,0.7-8.1,1.3-11.5,1.9L122.7,933.9z M138,915.8l1-1.2c1,0.8,2.1,1.7,3.1,2.8
			l-1.2,1.4C140,917.8,139,916.8,138,915.8z"/>
		<path class="st4" d="M154.9,928.1c0,1,0.1,1.8,0.2,2.2c-3.5,2.4-5.6,3.8-6.4,4.5c-0.5,0.4-0.9,0.8-1.4,1.2l-1.2-1.9
			c0.7-0.7,1-1.4,1-2.4v-16.3h1.8v16.8C150.3,931.2,152.4,929.8,154.9,928.1z M161.5,915.1h1.8v4.2c0,4.3-0.5,7.8-1.5,10.3
			c1.8,2,3.5,4,5,5.9l-1.5,1.5c-1.5-2-2.9-3.9-4.4-5.7c-1.7,2.7-4.2,4.9-7.5,6.4c-0.3-0.5-0.7-1-1.2-1.6c3.6-1.8,6.1-3.9,7.3-6.3
			c1.3-2.3,2-5.9,2-10.6V915.1z M154,914.6c1,1.7,2,3.6,3.2,6l-1.7,1c-1.1-2.4-2.1-4.4-3.1-6.1L154,914.6z"/>
		<path class="st4" d="M167.9,936c5.3-1.1,8.7-2.8,10.2-5.1h-9.9v-1.7H179c0.5-1.6,0.7-4.5,0.7-8.5h1.8c0,4-0.2,6.9-0.6,8.5h8.2v1.7
			h-8.8c-0.1,0.2-0.3,0.5-0.4,0.8c3.1,1.4,6.1,2.9,9,4.4l-0.9,1.8c-3.1-1.7-6.1-3.3-9.1-4.8c-2,2.1-5.2,3.7-9.8,4.8
			C168.6,937.2,168.3,936.5,167.9,936z M168.7,917.9h9.9c-0.4-0.7-0.8-1.5-1.4-2.5l1.6-1c0.5,0.7,1,1.6,1.7,2.7l-1.2,0.7h9.2v4.2
			h-1.7v-2.5h-16.3v2.5h-1.7V917.9z M171.3,924.3c1.7,0.8,3.2,1.7,4.7,2.6l-0.9,1.6c-1.4-1-3-1.8-4.5-2.7L171.3,924.3z M173.3,920.7
			c1.7,0.9,3.2,1.8,4.5,2.6l-1,1.6c-1.3-0.9-2.8-1.9-4.4-2.9L173.3,920.7z"/>
		<path class="st4" d="M190.5,928.6c1.3-0.5,2.7-1,4.1-1.5v-5.5h-2c-0.3,1.5-0.6,2.8-1,4.1c-0.5-0.4-0.9-0.7-1.4-1
			c0.8-2.1,1.3-4.7,1.5-7.7l1.6,0.3c-0.1,1-0.2,1.9-0.4,2.8h1.7v-5.3h1.6v5.3h2.1v1.6h-2.1v4.9c0.7-0.3,1.4-0.6,2.2-0.9
			c0.1,0.7,0.2,1.3,0.2,1.8c-0.7,0.3-1.5,0.6-2.4,1v9.3h-1.6V929c-1.1,0.5-2.4,1-3.8,1.6L190.5,928.6z M197.5,923.8
			c1.4-2.4,2.7-5.5,3.9-9.3l1.6,0.5c-0.4,1.2-0.8,2.4-1.2,3.5h9.4c-0.3,6.3-0.5,11.1-0.7,14.5c-0.2,2.6-1.3,3.9-3.5,3.9
			c-0.8,0-1.8,0-2.8-0.1c-0.1-0.6-0.2-1.2-0.3-2c1.2,0.2,2.2,0.2,3,0.2c1.2,0,1.8-0.7,1.9-2.2c0.3-3.3,0.5-7.5,0.7-12.7h-1.6
			c-0.4,4-1,7.1-1.8,9.4c-1.1,3-3.1,5.5-5.9,7.6c-0.3-0.5-0.7-1-1.1-1.4c2.7-2.1,4.5-4.4,5.6-7.1c0.8-2.2,1.4-5,1.6-8.5h-1.9
			c-0.4,3-1,5.4-1.7,7.2c-0.9,2-2.2,3.9-3.9,5.5c-0.4-0.5-0.7-1-1.1-1.4c1.6-1.5,2.9-3.2,3.6-4.9c0.8-1.7,1.3-3.9,1.5-6.4h-1.6
			c-0.7,1.8-1.5,3.3-2.2,4.5C198.5,924.4,198.1,924.1,197.5,923.8z"/>
		<path class="st4" d="M214,920.7h8.1c0.2-1.9,0.3-4,0.3-6.2h1.9c0,2.3-0.1,4.4-0.3,6.2h9.2c-0.1,4.8-0.2,8.8-0.4,12
			c-0.1,2.9-1.6,4.4-4.3,4.4c-1.1,0-2.5,0-4-0.1c-0.1-0.6-0.2-1.3-0.3-2.2c1.4,0.2,2.7,0.3,4,0.3c1.7,0,2.6-0.9,2.7-2.8
			c0.2-3.1,0.3-6.3,0.4-9.8h-7.5c-1.1,6.9-4,12-8.9,15.4c-0.4-0.5-0.8-1.1-1.3-1.7c4.5-2.9,7.2-7.4,8.3-13.6H214V920.7z M215.6,916
			l1.2-1.2c1.2,1.1,2.3,2.3,3.4,3.5l-1.3,1.3C217.8,918.4,216.7,917.2,215.6,916z M224.3,926.7l1.2-1.1c1.4,1.4,2.6,2.8,3.8,4.1
			l-1.3,1.3C226.8,929.6,225.6,928.2,224.3,926.7z"/>
		<path class="st4" d="M237.3,915.8c1.2,1.5,2.4,3.1,3.6,4.8c-0.1,0.1-0.6,0.5-1.5,1.4c-1.1-1.6-2.2-3.3-3.5-5L237.3,915.8z
			 M239.2,925.4c0.6,0.3,1.1,0.6,1.6,0.8c-1,3.2-2,6.5-3,9.7L236,935C237.1,932.2,238.2,929,239.2,925.4z M240.3,924.1
			c2.1-2.8,3.7-6,5-9.6l1.6,0.6c-0.5,1.2-1,2.3-1.5,3.4h11.3v1.6h-5.2v3.5h4.7v1.6h-4.7v3.5h4.7v1.6h-4.7v3.8h5.5v1.6H245v1.9h-1.7
			v-14.9c-0.6,1-1.2,1.9-1.8,2.8C241.2,925.1,240.8,924.6,240.3,924.1z M245,923.7h4.9v-3.5H245V923.7z M245,928.8h4.9v-3.5H245
			V928.8z M245,934.2h4.9v-3.8H245V934.2z M249,915.3l1.4-1c0.6,0.8,1.2,1.7,1.9,2.8l-1.5,1.1C250.1,917.1,249.5,916.2,249,915.3z"
			/>
		<path class="st4" d="M270.3,931.6l-1.8,6.2h-1.5l1.3-6.2H270.3z"/>
		<path class="st4" d="M281.2,928.1h3.3c0.3-0.6,0.6-1.2,0.9-1.8l1.6,0.5c-0.2,0.4-0.5,0.9-0.7,1.3h5.3v1.5c-0.5,1.5-1.4,2.9-2.5,4
			c0.8,0.4,1.6,0.8,2.4,1.2l-0.9,1.6c-0.9-0.5-1.8-1.1-2.8-1.6c-1.6,1.3-3.7,2.3-6.1,3c-0.2-0.5-0.5-1-0.7-1.6
			c2.1-0.5,3.9-1.3,5.3-2.2c-1.2-0.7-2.5-1.4-3.9-2.1c0.5-0.7,0.9-1.5,1.3-2.2h-2.5V928.1z M281.5,920.1h5v-5.2h1.6v5.2h4.1v1.5H288
			v1.4l0.6-0.8c1.3,1.1,2.5,2,3.4,2.8l-1,1.3c-0.8-0.8-1.8-1.7-3-2.7v2.7h-1.6V923c-1.3,1.5-2.8,2.8-4.6,3.9
			c-0.3-0.5-0.6-0.9-0.9-1.4c1.8-1.1,3.5-2.4,5-3.9h-4.4V920.1z M282,916.4l1.2-0.9c0.6,0.9,1.3,1.8,2,2.8l-1.3,1
			C283.3,918.3,282.7,917.4,282,916.4z M284.5,931.4c1,0.5,2.1,1,3.1,1.6c1-0.9,1.8-2,2.3-3.3h-4.5
			C285.1,930.3,284.8,930.8,284.5,931.4z M291.2,915.4l1.3,1c-0.8,1.1-1.6,2.2-2.4,3.1c-0.3-0.3-0.7-0.6-1.2-1
			C289.7,917.6,290.5,916.5,291.2,915.4z M295.1,914.6l1.7,0.3c-0.3,1.5-0.7,2.9-1.1,4.2h6.6v1.6H301c-0.4,4.6-1.3,8.2-2.8,10.9
			c1.2,1.7,2.6,3.1,4.4,4.2c-0.5,0.7-0.8,1.3-1.2,1.9c-1.8-1.2-3.2-2.7-4.4-4.4c-1.3,1.8-2.9,3.3-4.7,4.6c-0.3-0.5-0.7-0.9-1.2-1.5
			c2-1.4,3.6-3.1,4.9-4.9c-1.2-2.2-1.9-4.7-2.3-7.6c-0.3,0.6-0.6,1.1-0.9,1.6c-0.3-0.5-0.6-1-1.1-1.5
			C293.4,921.5,294.5,918.4,295.1,914.6z M299.3,920.7h-4c-0.1,0.2-0.2,0.4-0.2,0.6c0.3,3.3,1,6.1,2.2,8.5
			C298.3,927.5,299,924.5,299.3,920.7z"/>
		<path class="st4" d="M303.7,935.5h9.9v-1.3H305V933h8.6v-1.3h-5.1v0.6H307v-7.2h14.8v7.2h-1.5v-0.6h-5.2v1.3h8.7v1.2h-8.7v1.3h9.9
			v1.3h-21.3V935.5z M303.9,922.7h21v1.3h-21V922.7z M307.2,915.5h14.4v6.7h-1.5v-0.6h-11.5v0.6h-1.5V915.5z M308.5,927.8h5.1v-1.5
			h-5.1V927.8z M308.5,930.4h5.1v-1.5h-5.1V930.4z M320.2,916.7h-11.5v1.2h11.5V916.7z M308.7,920.3h11.5v-1.3h-11.5V920.3z
			 M320.3,926.3h-5.2v1.5h5.2V926.3z M315.1,930.4h5.2v-1.5h-5.2V930.4z"/>
		<path class="st4" d="M332.4,937.6h-1.7v-12.1c-1,1.3-2.2,2.6-3.4,3.8c-0.3-0.5-0.6-1.1-1-1.7c2.8-2.5,4.9-5.3,6.5-8.4h-5.9v-1.7
			h6.7c0.4-1,0.8-2,1.1-3l1.8,0.4c-0.3,0.9-0.6,1.7-0.9,2.6h12.2v1.7h-13c-0.4,0.9-0.9,1.8-1.5,2.7H345v12.5c0,1.9-0.9,2.9-2.6,2.9
			c-0.8,0-1.9,0-3.5,0c-0.1-0.5-0.2-1.2-0.3-1.9c1.3,0.1,2.4,0.2,3.2,0.2c1,0,1.5-0.5,1.5-1.6v-1.7h-10.9V937.6z M343.2,923.5h-10.9
			v2.8h10.9V923.5z M332.4,930.7h10.9v-2.8h-10.9V930.7z"/>
		<path class="st4" d="M356.4,928.5c0.4,3-0.3,4.7-2,5c-0.6,0.1-1.4,0.2-2.2,0c-0.1-0.6-0.3-1.3-0.5-2c0.8,0.2,1.4,0.3,2,0.2
			c1-0.2,1.3-1.3,1-3.4c-0.2-1.2-0.9-2.7-2-4.2c0.5-1.7,1.2-4,2-6.8h-3.2v20.5H350v-22.1h6.5v1.6c-0.7,2.2-1.4,4.4-2,6.5
			C355.6,925.6,356.3,927.1,356.4,928.5z M357.8,915.8H368v11.7h-1.6v-0.6h-3.6c0.4,1.4,1.1,2.7,1.8,3.8c1.3-0.9,2.7-2,4.1-3.3
			l1.1,1.5c-1.6,1.2-3,2.2-4.2,3.1c1.3,1.4,2.8,2.5,4.7,3.3c-0.5,0.6-1,1.1-1.4,1.7c-4-2.3-6.6-5.6-7.7-10.1h-1.9v8
			c1-0.5,2.2-1.2,3.8-2.1c0,0.7,0.1,1.3,0.1,1.9c-1.3,0.7-2.5,1.4-3.7,2.2c-0.3,0.2-0.7,0.5-1.2,1l-1.2-1.8c0.4-0.4,0.6-0.9,0.6-1.5
			V915.8z M366.5,917.4h-7v3.1h7V917.4z M366.5,925.3v-3.2h-7v3.2H366.5z"/>
		<path class="st4" d="M383.4,931.6l-1.8,6.2h-1.5l1.3-6.2H383.4z"/>
		<path class="st4" d="M403.2,935.5c3.2,0.1,7.3,0,12.4-0.1c-0.2,0.6-0.5,1.2-0.7,1.8c-5.1,0-9.1,0-11.9,0c-2.6-0.1-4.4-1-5.5-2.7
			c-0.4,0.4-1.3,1.4-2.5,3l-0.9-2c0.9-0.9,1.8-1.7,2.7-2.6v-8.2h-2.5V923h4.1v10.3C399.5,934.6,401.1,935.4,403.2,935.5z
			 M396.4,914.9c1.1,1.4,2.2,2.9,3.3,4.6l-1.6,1.1c-0.9-1.6-2-3.1-3.1-4.6L396.4,914.9z M400.1,924.9h6.4c0-0.3,0-1.6,0-3.9h-5.7
			v-1.6h7.4c1.4-1.9,2.4-3.5,3-4.8l1.7,1.1c-0.6,0.8-1.5,2-2.8,3.7h4.5v1.6h-6.4c0,2,0,3.3,0,3.9h7v1.6h-7.1c0,0.4-0.1,0.8-0.2,1.2
			c2.3,1.6,4.5,3.3,6.6,5l-1.1,1.6c-2.2-1.9-4.2-3.5-6-4.9c-1,2.2-2.9,3.9-5.8,5.2c-0.4-0.5-0.8-1-1.2-1.5c3.7-1.6,5.7-3.8,6-6.6
			h-6.3V924.9z M402.4,915.7l1.3-1.1c0.7,0.9,1.6,1.9,2.5,3.2l-1.5,1.1C403.9,917.6,403.1,916.5,402.4,915.7z"/>
		<path class="st4" d="M417.4,927.2h20.3v1.7h-7v5c0,1,0.5,1.5,1.4,1.5h2.3c1,0,1.5-0.4,1.6-1.1c0.1-0.7,0.2-1.7,0.2-3.1
			c0.5,0.2,1.1,0.5,1.9,0.7c-0.1,1.3-0.2,2.3-0.4,3.1c-0.2,1.3-1.1,2-2.6,2h-3.5c-1.8,0-2.7-1-2.7-3v-5.2h-3.9
			c0,4.4-2.4,7.3-7.1,8.8c-0.3-0.5-0.6-1.1-1.1-1.7c4.3-1.1,6.4-3.5,6.5-7.1h-6V927.2z M417.6,917.5h9.2c-0.3-0.6-0.6-1.4-1.1-2.2
			l1.7-0.8c0.6,1.2,1,2.2,1.4,3.1h8.6v4.3h-1.8v-2.6h-16.3v2.6h-1.8V917.5z M420.1,922.3h15.2v1.6h-15.2V922.3z"/>
		<path class="st4" d="M446.7,928.3c1.8,2.3,3.2,4.3,4.4,6l-1.4,1.1c-0.5-0.8-1.1-1.6-1.7-2.5c-2.1,1.1-3.9,2-5.4,2.8
			c-0.5,0.3-0.9,0.6-1.3,1l-1.2-1.5c0.4-0.5,0.7-1.1,0.7-1.8v-17.3h8.7v12.1h-1.6v-0.6h-5.4v6.2c1.4-0.6,2.9-1.4,4.6-2.2
			c-0.5-0.8-1.1-1.6-1.7-2.4L446.7,928.3z M447.9,917.8h-5.4v3.3h5.4V917.8z M447.9,926v-3.3h-5.4v3.3H447.9z M452,916.4h7.6v14.2
			c0,2-0.9,3-2.7,3c-0.6,0-1.5,0-2.5,0c-0.1-0.7-0.2-1.4-0.3-2c1.1,0.1,1.9,0.2,2.4,0.2c0.9,0,1.4-0.5,1.4-1.6v-11.9h-4.3v19.6H452
			V916.4z"/>
		<path class="st4" d="M462.3,933.9h3.8v-14.9h1.8v14.9h5.3v-19.3h1.9v6.9h7.2v1.9h-7.2v10.5h8.4v1.9h-21.1V933.9z"/>
	</g>
	<rect x="0" y="0" class="st5" width="581" height="964"/>
</g>
<g>
</g>
<g>
</g>
<g>
</g>
<g>
</g>
<g>
</g>
<g>
</g>
<g>
</g>
<g>
</g>
<g>
</g>
<g>
</g>
<g>
</g>
<g>
</g>
<g>
</g>
<g>
</g>
<g>
</g>
</svg>
