<?xml version="1.0" encoding="utf-8"?>
<!-- Generator: Adobe Illustrator 17.0.0, SVG Export Plug-In . SVG Version: 6.00 Build 0)  -->
<!DOCTYPE svg PUBLIC "-//W3C//DTD SVG 1.1//EN" "http://www.w3.org/Graphics/SVG/1.1/DTD/svg11.dtd">
<svg version="1.1" id="Layer_1" xmlns="http://www.w3.org/2000/svg" xmlns:xlink="http://www.w3.org/1999/xlink" x="0px" y="0px"
	 width="719px" height="281px" viewBox="0 0 719 281" style="enable-background:new 0 0 719 281;" xml:space="preserve">
<style type="text/css">
	.st0{fill:none;}
	.st1{fill-rule:evenodd;clip-rule:evenodd;fill:#F76E7F;}
	.st2{fill:#CF5665;}
	.st3{fill:#F6DDE0;}
	.st4{fill:#FFFFFF;}
	.st5{fill:#CF5463;}
	.st6{fill:#F76E7F;}
</style>
<g id="_x31_-1.svg">
	<rect x="0" y="0" class="st0" width="719" height="281"/>
	<ellipse class="st1" cx="480.8" cy="160.5" rx="27.5" ry="27.5"/>
	<path class="st2" d="M462.6,160.8c0-8.1,4.8-14.1,10.8-14.1c6.1,0,10.8,6,10.8,14.1c0,8-4.7,13.9-10.8,13.9
		C467.4,174.7,462.6,168.8,462.6,160.8z M480.6,160.8c0-6.5-3.3-10.2-7.2-10.2c-3.8,0-7.1,3.7-7.1,10.2c0,6.4,3.3,10,7.1,10
		C477.3,170.8,480.6,167.3,480.6,160.8z M488,147.4h3.5v4.5c1.8-3.8,5-5.1,7.5-4.8v4.3c-4-0.4-7.3,1.8-7.3,7.2v15.4H488V147.4z"/>
	<path class="st0" d="M303,61.2v-9.4c0-5.2,2.9-8.7,6.3-11.7c3.5-3.2,5.3-5.3,5.3-8.7v-5.7c0-3.2-1.1-4.6-3.1-4.6c-2,0-3,1.4-3,4.6
		v4.8h-5.6v-5c0-6.1,3.1-9.7,8.6-9.7s8.8,3.6,8.8,9.7v6.2c0,5.2-3,8.7-6.5,11.7c-3.5,3.2-5.3,5.3-5.3,8.7v3.8h12.1v5.4H303z
		 M334.2,61.7c-5.7,0-9.2-3.6-9.2-9.7V25.4c0-6.1,3.6-9.7,9.2-9.7c5.7,0,9.2,3.6,9.2,9.7V52C343.4,58.1,339.9,61.7,334.2,61.7z
		 M337.8,25.7c0-3.2-1.4-4.6-3.6-4.6c-2.1,0-3.6,1.4-3.6,4.6v26.1c0,3.2,1.4,4.6,3.6,4.6c2.1,0,3.6-1.4,3.6-4.6V25.7z M349.1,69.3
		v-3.1c2.1-0.3,3.1-1.8,3.1-4.1v-0.9h-3.6v-7.1h6.6v8C355.2,66.8,352.1,69,349.1,69.3z M369.2,61.7c-5.7,0-9.2-3.6-9.2-9.7V25.4
		c0-6.1,3.6-9.7,9.2-9.7s9.2,3.6,9.2,9.7V52C378.5,58.1,374.9,61.7,369.2,61.7z M372.8,25.7c0-3.2-1.4-4.6-3.6-4.6
		c-2.1,0-3.6,1.4-3.6,4.6v26.1c0,3.2,1.4,4.6,3.6,4.6c2.1,0,3.6-1.4,3.6-4.6V25.7z M392.9,61.7c-5.7,0-9.2-3.6-9.2-9.7V25.4
		c0-6.1,3.6-9.7,9.2-9.7c5.7,0,9.2,3.6,9.2,9.7V52C402.1,58.1,398.6,61.7,392.9,61.7z M396.5,25.7c0-3.2-1.4-4.6-3.6-4.6
		c-2.1,0-3.6,1.4-3.6,4.6v26.1c0,3.2,1.4,4.6,3.6,4.6c2.1,0,3.6-1.4,3.6-4.6V25.7z M416.6,61.7c-5.7,0-9.2-3.6-9.2-9.7V25.4
		c0-6.1,3.6-9.7,9.2-9.7c5.7,0,9.2,3.6,9.2,9.7V52C425.8,58.1,422.2,61.7,416.6,61.7z M420.1,25.7c0-3.2-1.4-4.6-3.6-4.6
		c-2.1,0-3.6,1.4-3.6,4.6v26.1c0,3.2,1.4,4.6,3.6,4.6c2.1,0,3.6-1.4,3.6-4.6V25.7z"/>
	<path class="st3" d="M303,61.2v-9.4c0-5.2,2.9-8.7,6.3-11.7c3.5-3.2,5.3-5.3,5.3-8.7v-5.7c0-3.2-1.1-4.6-3.1-4.6c-2,0-3,1.4-3,4.6
		v4.8h-5.6v-5c0-6.1,3.1-9.7,8.6-9.7s8.8,3.6,8.8,9.7v6.2c0,5.2-3,8.7-6.5,11.7c-3.5,3.2-5.3,5.3-5.3,8.7v3.8h12.1v5.4H303z
		 M334.2,61.7c-5.7,0-9.2-3.6-9.2-9.7V25.4c0-6.1,3.6-9.7,9.2-9.7c5.7,0,9.2,3.6,9.2,9.7V52C343.4,58.1,339.9,61.7,334.2,61.7z
		 M337.8,25.7c0-3.2-1.4-4.6-3.6-4.6c-2.1,0-3.6,1.4-3.6,4.6v26.1c0,3.2,1.4,4.6,3.6,4.6c2.1,0,3.6-1.4,3.6-4.6V25.7z M349.1,69.3
		v-3.1c2.1-0.3,3.1-1.8,3.1-4.1v-0.9h-3.6v-7.1h6.6v8C355.2,66.8,352.1,69,349.1,69.3z M369.2,61.7c-5.7,0-9.2-3.6-9.2-9.7V25.4
		c0-6.1,3.6-9.7,9.2-9.7s9.2,3.6,9.2,9.7V52C378.5,58.1,374.9,61.7,369.2,61.7z M372.8,25.7c0-3.2-1.4-4.6-3.6-4.6
		c-2.1,0-3.6,1.4-3.6,4.6v26.1c0,3.2,1.4,4.6,3.6,4.6c2.1,0,3.6-1.4,3.6-4.6V25.7z M392.9,61.7c-5.7,0-9.2-3.6-9.2-9.7V25.4
		c0-6.1,3.6-9.7,9.2-9.7c5.7,0,9.2,3.6,9.2,9.7V52C402.1,58.1,398.6,61.7,392.9,61.7z M396.5,25.7c0-3.2-1.4-4.6-3.6-4.6
		c-2.1,0-3.6,1.4-3.6,4.6v26.1c0,3.2,1.4,4.6,3.6,4.6c2.1,0,3.6-1.4,3.6-4.6V25.7z M416.6,61.7c-5.7,0-9.2-3.6-9.2-9.7V25.4
		c0-6.1,3.6-9.7,9.2-9.7c5.7,0,9.2,3.6,9.2,9.7V52C425.8,58.1,422.2,61.7,416.6,61.7z M420.1,25.7c0-3.2-1.4-4.6-3.6-4.6
		c-2.1,0-3.6,1.4-3.6,4.6v26.1c0,3.2,1.4,4.6,3.6,4.6c2.1,0,3.6-1.4,3.6-4.6V25.7z"/>
	<path class="st4" d="M256.3,43.5c1.4,1.2,2.7,2.3,3.8,3.4c-0.6,0.7-1,1.2-1.4,1.6c-1.2-1.3-2.4-2.5-3.6-3.6L256.3,43.5z
		 M255.6,60.5c0.8-2.7,1.5-5.9,2.2-9.7c0.7,0.3,1.3,0.6,1.9,0.8c-0.7,3-1.4,6.2-2.1,9.5L255.6,60.5L255.6,60.5z M257.1,36.8
		c1.1,0.9,2.2,1.9,3.3,3c-0.5,0.5-0.9,1.1-1.3,1.5c-1-1.2-2.1-2.2-3.2-3.2L257.1,36.8z M260.9,43.7h17.4v1.7h-5.2c0,0.9,0,1.7,0,2.6
		h4.5v10.1c0,2-0.9,3-2.6,3c-0.8,0-1.6,0-2.5-0.1c-0.1-0.6-0.2-1.3-0.3-2c1,0.1,1.8,0.2,2.5,0.2c0.9,0,1.4-0.5,1.4-1.5V56
		c-0.3,0.3-0.7,0.7-1.2,1.2c-0.8-1.2-1.7-2.2-2.4-3.2c-0.6,1.9-1.6,3.5-2.9,4.8c-0.3-0.5-0.7-0.9-1.2-1.4c1.9-1.7,2.9-4.3,3.2-7.6
		h-3.8c0,0.7-0.1,1.3-0.2,1.9c0.9,0.9,1.7,1.8,2.6,2.7c-0.1,0.1-0.6,0.6-1.3,1.3c-0.6-0.7-1.2-1.5-1.8-2.1c-0.6,1.8-1.5,3.4-2.8,4.7
		c-0.3-0.3-0.6-0.7-0.9-1.1v4.1h-1.7V48h4.4c0-0.9,0-1.7,0-2.6h-5.1V43.7z M260.9,39.2h4.5v-2.8h1.8v2.8h4.9v-2.8h1.8v2.8h4.5V41
		h-4.5v2.2h-1.8V41h-4.9v2.2h-1.8V41h-4.5V39.2z M263.2,56.6c1.6-1.6,2.5-3.9,2.7-6.8h-2.7V56.6z M267.6,45.5c0,0.7,0,1.6,0,2.6h3.8
		c0-0.8,0-1.7,0-2.6H267.6L267.6,45.5z M275.9,49.7H273c0,0.8-0.1,1.6-0.3,2.3c1.3,1.4,2.3,2.6,3.1,3.6V49.7z M295,37.4l-4.8,10.8
		h3.8v2.4h-4.4v3.3h4.4v2.4h-4.4V61h-2.3v-4.8h-4.6v-2.4h4.6v-3.3h-4.6v-2.4h3.9l-4.8-10.8h2.6c2.2,5.3,3.6,8.7,4.1,10.2h0
		c0.2-0.6,0.6-1.8,1.3-3.6l2.7-6.6H295z"/>
	<polygon class="st5" points="282.1,176.3 132.5,260.9 132.9,91 	"/>
	<polygon class="st6" points="254.6,175.9 83.9,274 84.3,77 	"/>
	<path class="st4" d="M105.2,203.2h-1.5v-9.5c-1.3,1.4-2.6,2.4-3.9,2.9l-0.9-1.3c3.2-1.4,5.4-4.2,6.7-8.3h-6.1v-1.5h7.9
		c-0.4,2.4-1.2,4.5-2.3,6.1V203.2z M99,172.3c1.6-1,3-2.8,4.2-5.3l1.2,0.7c-0.7,2-2.2,3.8-4.4,5.6c-0.1-0.1-0.3-0.2-0.5-0.5
		C99.3,172.5,99.1,172.4,99,172.3L99,172.3z M104.6,184.9c-0.8-1.3-1.8-2.4-3-3.2l1-1c1.4,1,2.5,2.1,3.1,3.2L104.6,184.9
		L104.6,184.9z M102.7,165.8v-8.2h5.3v-6.9h1.5v2.6h8.8v1.4h-8.8v3h6.7v8.2H102.7z M104.2,164.5h10.6V159h-10.6V164.5z M106.9,167.6
		c1,1.4,1.9,2.9,2.5,4.7l-1.4,0.4c-0.4-1.5-1.2-3.1-2.5-4.8C106,167.8,106.4,167.7,106.9,167.6L106.9,167.6z M108.4,196.3
		c-0.7-1.3-1.6-2.4-2.8-3.3l1-1c1.2,1,2.2,2.2,3,3.4L108.4,196.3L108.4,196.3z M111.5,167.5c1.3,1.3,2.3,2.9,3,4.8l-1.3,0.5
		c-0.7-1.8-1.7-3.3-3-4.7L111.5,167.5L111.5,167.5z M111.7,200.6v-19.1h1.5v19.4c0,0.5,0.3,0.8,0.8,0.8h3.9c0.8,0,1.3-1,1.4-2.9
		l1.3,0.9c-0.3,1.6-0.6,2.5-1,2.9c-0.4,0.4-0.9,0.6-1.6,0.6h-4.6c-0.6,0-1-0.2-1.3-0.5C111.8,202.2,111.7,201.5,111.7,200.6z
		 M119,172.9c-1-2-2.3-3.7-3.9-5.1l1.1-0.7c1.7,1.6,3.1,3.3,4.1,5.1L119,172.9L119,172.9z M122.5,162v-1.5h9.4v-4.4h-8.1v-1.5h8.1
		v-4h1.5v4h8v1.5h-8v4.4h9.5v1.5h-9.5v8.1h6v-7.1h1.5v10.4h-1.5v-1.8h-13.3v1.8h-1.5v-10.4h1.5v7.1h5.8V162H122.5z M131.2,192.3
		v11.2h-1.5v-1.8h-4.9v1.8h-1.5v-11.2H131.2z M129.8,193.8h-4.9v6.4h4.9V193.8z M125.8,189.9v-8.1h13.5v8.1H125.8z M127.2,188.4
		h10.6v-5.2h-10.6V188.4z M140.3,201.6h-5v1.8h-1.5v-11.1h8v11.1h-1.5V201.6z M135.3,200.1h5v-6.4h-5V200.1z M156.5,160.1h-1.5v-4.7
		H155c-1.2,2-2.9,3.7-5.2,5.3v0h12.7v8.3H149v-7.6c-1.8,1.1-2.7,1.7-3,1.8l-1-1.1c3.8-2,6.6-4.2,8.3-6.6h-7.4v-1.5h9.1v-3.1h1.5v3.1
		h9.2v1.5h-7.1c2.8,2.8,5.7,4.9,8.6,6.3l-1.2,1.2c-3.5-2-6.6-4.5-9.3-7.5h-0.2V160.1z M154,197.6v1.7l-4.6,2.6l-0.9-1.3
		c0.4-0.3,0.6-0.8,0.6-1.3v-9.4h-3.6v-1.5h5.1v11.1L154,197.6z M166,172.1h-20.4v-1.5H166V172.1z M150.4,186
		c-0.6-1.2-1.5-2.4-2.9-3.6l1-0.9c1.3,0.9,2.3,2.1,3.1,3.6L150.4,186L150.4,186z M161,164.1v-1.9h-10.6v1.9H161z M161,167.5v-2
		h-10.6v2H161z M153.7,185.3h6.4c1.3-1.2,2.2-2.8,2.9-4.8l1.4,0.8c-0.6,1.5-1.4,2.9-2.4,4h3.5v1.5h-5.1v3.5h4.3v1.5h-4.3v3.9h5.7
		v1.5h-5.7v6.3h-1.5v-6.3h-5.7v-1.5h5.7v-3.9h-4.3v-1.5h4.3v-3.5h-5.2V185.3z M155.7,180.4c1.5,0.9,2.5,2.1,3.1,3.7l-1.2,0.8
		c-0.6-1.5-1.6-2.7-3.1-3.6L155.7,180.4L155.7,180.4z M171.2,186.1c0,1.6-0.6,3.5-1.7,5.7l-1.4-0.7c1.2-2,1.8-3.8,1.9-5.4
		L171.2,186.1L171.2,186.1z M174.9,173.4h-1.5v-10.1c-1.4,1.2-2.6,2.1-3.8,2.8l-1.1-1.2c0.1-0.1,0.3-0.2,0.7-0.4
		c2.3-1.4,4.2-3,5.6-5h-5.4v-1.4h6.3c0.2-0.3,0.5-0.9,0.8-1.7h-5.1v-1.4h5.6c0.1-0.4,0.3-0.9,0.3-1.4l-6.4,0.3l-0.7-1.5
		c6.2,0,11.5-0.5,15.8-1.5l0.6,1.2c-3,0.7-5.6,1.2-7.8,1.3c0,0.4-0.1,0.9-0.3,1.5h7.6v1.4h-8c-0.4,0.9-0.6,1.5-0.8,1.7h11.2v1.4
		h-11.8c-0.2,0.3-0.6,0.8-1.2,1.5h10.1v12.3h-1.5V172h-9.2V173.4z M173.1,186.4l0.9-0.5c0.9,1.5,1.5,2.3,1.5,2.5h5.9v-1.7H177v-1.5
		h4.4v-1.5H176v-1.5h5.4v-1.8h1.5v1.8h5.6v1.5h-5.6v1.5h4.4v1.5h-4.4c0,0.3,0,0.9,0,1.7h6.8v1.5h-14l-1,0.4c-0.2-0.9-0.7-1.9-1.4-3
		h-0.1v16.1h-1.5V181h1.5V186.4z M174.9,162.5v1.6h9.2v-1.6H174.9z M184.1,165.5h-9.2v1.8h9.2V165.5z M174.9,168.7v1.9h9.2v-1.9
		H174.9z M187.5,191.5v9.9c-0.1,0.3-0.2,0.6-0.4,0.9c-0.2,0.3-0.5,0.5-0.7,0.6c-0.3,0.1-0.7,0.2-1.3,0.2l-1.7,0l-0.5-1.5
		c0.3,0,0.6,0,1,0c1,0,1.5-0.1,1.7-0.2c0.2-0.1,0.3-0.3,0.4-0.6c0.1-0.3,0.1-0.8,0.1-1.5h-7.6v4.1H177v-12H187.5z M186,194.5v-1.6
		h-7.6v1.6H186z M186,197.9V196h-7.6v1.9H186z"/>
</g>
<g>
</g>
<g>
</g>
<g>
</g>
<g>
</g>
<g>
</g>
<g>
</g>
<g>
</g>
<g>
</g>
<g>
</g>
<g>
</g>
<g>
</g>
<g>
</g>
<g>
</g>
<g>
</g>
<g>
</g>
</svg>
