<?xml version="1.0" encoding="utf-8"?>
<!-- Generator: Adobe Illustrator 17.0.0, SVG Export Plug-In . SVG Version: 6.00 Build 0)  -->
<!DOCTYPE svg PUBLIC "-//W3C//DTD SVG 1.1//EN" "http://www.w3.org/Graphics/SVG/1.1/DTD/svg11.dtd">
<svg version="1.1" id="Layer_1" xmlns="http://www.w3.org/2000/svg" xmlns:xlink="http://www.w3.org/1999/xlink" x="0px" y="0px"
	 width="719px" height="102.4px" viewBox="0 0 719 102.4" style="enable-background:new 0 0 719 102.4;" xml:space="preserve">
<style type="text/css">
	.st0{fill:#E66C57;}
	.st1{fill:#ED7F6C;}
	.st2{fill:#F5C4BC;}
	.st3{fill:#FFFFFF;}
	.st4{fill:#F8D3CD;}
</style>
<g id="_x31_-2-small.svg">
	<rect x="0" y="0" class="st0" width="719" height="102.4"/>
	<polygon class="st1" points="667.6,102.4 496.7,102.4 396.4,0 719,0 719,28.8 	"/>
	<path class="st2" d="M256.3,49.8c1.4,1.2,2.7,2.3,3.8,3.4c-0.6,0.7-1,1.2-1.4,1.6c-1.2-1.3-2.4-2.5-3.6-3.6L256.3,49.8z
		 M255.6,66.9c0.8-2.7,1.5-5.9,2.2-9.7c0.7,0.3,1.3,0.6,1.9,0.8c-0.7,3-1.4,6.2-2.1,9.5L255.6,66.9L255.6,66.9z M257.1,43.2
		c1.1,0.9,2.2,1.9,3.3,3c-0.5,0.5-0.9,1.1-1.3,1.5c-1-1.2-2.1-2.2-3.2-3.2L257.1,43.2z M260.9,50.1h17.4v1.7h-5.2c0,0.9,0,1.7,0,2.6
		h4.5v10.1c0,2-0.9,3-2.6,3c-0.8,0-1.6,0-2.5-0.1c-0.1-0.6-0.2-1.3-0.3-2c1,0.1,1.8,0.2,2.5,0.2c0.9,0,1.4-0.5,1.4-1.5v-1.8
		c-0.3,0.3-0.7,0.7-1.2,1.2c-0.8-1.2-1.7-2.2-2.4-3.2c-0.6,1.9-1.6,3.5-2.9,4.8c-0.3-0.5-0.7-0.9-1.2-1.4c1.9-1.7,2.9-4.3,3.2-7.6
		h-3.8c0,0.7-0.1,1.3-0.2,1.9c0.9,0.9,1.7,1.8,2.6,2.7c-0.1,0.1-0.6,0.6-1.3,1.3c-0.6-0.7-1.2-1.5-1.8-2.1c-0.6,1.8-1.5,3.4-2.8,4.7
		c-0.3-0.3-0.6-0.7-0.9-1.1v4.1h-1.7V54.4h4.4c0-0.9,0-1.7,0-2.6h-5.1V50.1z M260.9,45.6h4.5v-2.8h1.8v2.8h4.9v-2.8h1.8v2.8h4.5v1.7
		h-4.5v2.2h-1.8v-2.2h-4.9v2.2h-1.8v-2.2h-4.5V45.6z M263.2,62.9c1.6-1.6,2.5-3.9,2.7-6.8h-2.7V62.9z M267.6,51.8c0,0.7,0,1.6,0,2.6
		h3.8c0-0.8,0-1.7,0-2.6H267.6L267.6,51.8z M275.9,56.1H273c0,0.8-0.1,1.6-0.3,2.3c1.3,1.4,2.3,2.6,3.1,3.6V56.1z M295,43.8
		l-4.8,10.8h3.8v2.4h-4.4v3.3h4.4v2.4h-4.4v4.8h-2.3v-4.8h-4.6v-2.4h4.6v-3.3h-4.6v-2.4h3.9l-4.8-10.8h2.6c2.2,5.3,3.6,8.7,4.1,10.2
		h0c0.2-0.6,0.6-1.8,1.3-3.6l2.7-6.6H295z"/>
	<path class="st3" d="M256.3,49.8c1.4,1.2,2.7,2.3,3.8,3.4c-0.6,0.7-1,1.2-1.4,1.6c-1.2-1.3-2.4-2.5-3.6-3.6L256.3,49.8z
		 M255.6,66.9c0.8-2.7,1.5-5.9,2.2-9.7c0.7,0.3,1.3,0.6,1.9,0.8c-0.7,3-1.4,6.2-2.1,9.5L255.6,66.9L255.6,66.9z M257.1,43.2
		c1.1,0.9,2.2,1.9,3.3,3c-0.5,0.5-0.9,1.1-1.3,1.5c-1-1.2-2.1-2.2-3.2-3.2L257.1,43.2z M260.9,50.1h17.4v1.7h-5.2c0,0.9,0,1.7,0,2.6
		h4.5v10.1c0,2-0.9,3-2.6,3c-0.8,0-1.6,0-2.5-0.1c-0.1-0.6-0.2-1.3-0.3-2c1,0.1,1.8,0.2,2.5,0.2c0.9,0,1.4-0.5,1.4-1.5v-1.8
		c-0.3,0.3-0.7,0.7-1.2,1.2c-0.8-1.2-1.7-2.2-2.4-3.2c-0.6,1.9-1.6,3.5-2.9,4.8c-0.3-0.5-0.7-0.9-1.2-1.4c1.9-1.7,2.9-4.3,3.2-7.6
		h-3.8c0,0.7-0.1,1.3-0.2,1.9c0.9,0.9,1.7,1.8,2.6,2.7c-0.1,0.1-0.6,0.6-1.3,1.3c-0.6-0.7-1.2-1.5-1.8-2.1c-0.6,1.8-1.5,3.4-2.8,4.7
		c-0.3-0.3-0.6-0.7-0.9-1.1v4.1h-1.7V54.4h4.4c0-0.9,0-1.7,0-2.6h-5.1V50.1z M260.9,45.6h4.5v-2.8h1.8v2.8h4.9v-2.8h1.8v2.8h4.5v1.7
		h-4.5v2.2h-1.8v-2.2h-4.9v2.2h-1.8v-2.2h-4.5V45.6z M263.2,62.9c1.6-1.6,2.5-3.9,2.7-6.8h-2.7V62.9z M267.6,51.8c0,0.7,0,1.6,0,2.6
		h3.8c0-0.8,0-1.7,0-2.6H267.6L267.6,51.8z M275.9,56.1H273c0,0.8-0.1,1.6-0.3,2.3c1.3,1.4,2.3,2.6,3.1,3.6V56.1z M295,43.8
		l-4.8,10.8h3.8v2.4h-4.4v3.3h4.4v2.4h-4.4v4.8h-2.3v-4.8h-4.6v-2.4h4.6v-3.3h-4.6v-2.4h3.9l-4.8-10.8h2.6c2.2,5.3,3.6,8.7,4.1,10.2
		h0c0.2-0.6,0.6-1.8,1.3-3.6l2.7-6.6H295z"/>
	<path class="st4" d="M310,68.5V33h-4.9v-4.5c2.9-0.2,5.5-1.5,5.9-5h4.8v45H310z M330.6,69.1c-5.7,0-9.2-3.6-9.2-9.7V32.7
		c0-6.1,3.6-9.7,9.2-9.7c5.7,0,9.2,3.6,9.2,9.7v26.6C339.8,65.5,336.3,69.1,330.6,69.1z M334.2,33c0-3.2-1.4-4.6-3.6-4.6
		c-2.1,0-3.6,1.4-3.6,4.6v26.1c0,3.2,1.4,4.6,3.6,4.6c2.1,0,3.6-1.4,3.6-4.6V33z M345.4,76.6v-3.1c2.1-0.3,3.1-1.8,3.1-4.1v-0.9H345
		v-7.1h6.6v8C351.6,74.1,348.5,76.4,345.4,76.6z M365.6,69.1c-5.7,0-9.2-3.6-9.2-9.7V32.7c0-6.1,3.6-9.7,9.2-9.7
		c5.7,0,9.2,3.6,9.2,9.7v26.6C374.8,65.5,371.3,69.1,365.6,69.1z M369.2,33c0-3.2-1.4-4.6-3.6-4.6c-2.1,0-3.6,1.4-3.6,4.6v26.1
		c0,3.2,1.4,4.6,3.6,4.6c2.1,0,3.6-1.4,3.6-4.6V33z M389.3,69.1c-5.7,0-9.2-3.6-9.2-9.7V32.7c0-6.1,3.6-9.7,9.2-9.7s9.2,3.6,9.2,9.7
		v26.6C398.5,65.5,395,69.1,389.3,69.1z M392.8,33c0-3.2-1.4-4.6-3.6-4.6c-2.1,0-3.6,1.4-3.6,4.6v26.1c0,3.2,1.4,4.6,3.6,4.6
		c2.1,0,3.6-1.4,3.6-4.6V33z M413,69.1c-5.7,0-9.2-3.6-9.2-9.7V32.7c0-6.1,3.6-9.7,9.2-9.7s9.2,3.6,9.2,9.7v26.6
		C422.2,65.5,418.6,69.1,413,69.1z M416.5,33c0-3.2-1.4-4.6-3.6-4.6c-2.1,0-3.6,1.4-3.6,4.6v26.1c0,3.2,1.4,4.6,3.6,4.6
		c2.1,0,3.6-1.4,3.6-4.6V33z"/>
</g>
<g>
</g>
<g>
</g>
<g>
</g>
<g>
</g>
<g>
</g>
<g>
</g>
<g>
</g>
<g>
</g>
<g>
</g>
<g>
</g>
<g>
</g>
<g>
</g>
<g>
</g>
<g>
</g>
<g>
</g>
</svg>
