<?xml version="1.0" encoding="utf-8"?>
<!-- Generator: Adobe Illustrator 17.0.0, SVG Export Plug-In . SVG Version: 6.00 Build 0)  -->
<!DOCTYPE svg PUBLIC "-//W3C//DTD SVG 1.1//EN" "http://www.w3.org/Graphics/SVG/1.1/DTD/svg11.dtd">
<svg version="1.1" id="Layer_1" xmlns="http://www.w3.org/2000/svg" xmlns:xlink="http://www.w3.org/1999/xlink" x="0px" y="0px"
	 width="581px" height="964px" viewBox="0 0 581 964" style="enable-background:new 0 0 581 964;" xml:space="preserve">
<style type="text/css">
	.st0{fill-rule:evenodd;clip-rule:evenodd;fill:#DF9431;}
	.st1{fill:#FFFFFF;}
	.st2{fill:#DB8937;}
	.st3{fill:#333333;}
	.st4{fill:#999999;}
	.st5{fill:none;}
</style>
<g id="_x31_-2-detail.svg">
	<circle class="st0" cx="289" cy="487" r="49"/>
	<path class="st1" d="M251.9,487.5c0.6-12.9,6.6-19.6,17.9-20.3c10.9,0.8,16.8,7.4,17.6,20.1c-0.3,13-6.3,19.7-17.9,20.1
		C258.2,506.7,252.4,500.1,251.9,487.5L251.9,487.5z M258,487.5c0.3,9.1,4.1,14,11.4,14.6c7.7-0.4,11.7-5.3,11.9-14.6
		c-0.6-9-4.4-13.9-11.6-14.6C262.3,473.5,258.4,478.3,258,487.5L258,487.5z M326.8,506.8h-7.9l-12.1-16.5h-7.2v16.5h-5.9v-39h16.7
		c8,0.3,12.2,3.9,12.6,11.1c0,6.4-3.2,10.1-9.5,11.1L326.8,506.8z M299.5,473.6v10.9h9.8c5.2,0,7.7-1.9,7.6-5.8
		c-0.1-3.2-2.6-4.9-7.6-5.1H299.5z"/>
	<path class="st2" d="M99.6,69.5h28v-4h-26.3v-5.1h26.3v-4h-27.5v-5.1h13.9V36.2h5.6v15.1h13.6V77h-5.6v-2.4h-28V69.5z M104.7,37.9
		l7.4,8.4l-4.1,3.9c-2.4-3.2-4.7-6.1-6.9-8.6L104.7,37.9z M121.5,46.5c2.8-3,5.3-5.8,7.4-8.6l4.2,3.9l-7.8,8.5L121.5,46.5
		L121.5,46.5z M140.7,76.4V38.7h29.8v37.7h-5.8v-2.9h-18.2v2.9H140.7z M164.7,44.5h-18.2v8.6h18.2V44.5z M146.5,67.7h18.2v-8.9
		h-18.2V67.7z M178.4,47.6c1.9,1.5,3.9,3.3,6,5.2l-3.4,4.4c-2-2.1-3.8-4-5.7-5.7L178.4,47.6z M184.5,39.8h6.2v-3.4h4.9v3.4h6v-3.4
		h4.9v3.4h6.2v4.3h-6.2v2.6h-4.9v-2.6h-6v2.6h-4.9v-2.6h-6.2v-1.5l-2.9,3.5c-1.6-1.8-3.5-3.6-5.5-5.5l3.1-3.8
		c1.6,1.3,3.4,2.8,5.3,4.6V39.8z M176.1,75c1.3-4.8,2.6-10.1,3.7-15.8c2,0.9,3.7,1.5,4.9,1.9l-3.6,15.5
		C179.4,76.1,177.8,75.5,176.1,75L176.1,75z M184.5,47.1h28.1v4.3h-7.8v3.4h6.7v16.3c0,1.6-0.3,2.8-1,3.6c-0.7,0.8-1.5,1.3-2.6,1.5
		c-1.1,0.1-3.3,0.2-6.7,0.3c-0.3-1.4-0.6-2.7-1-4l-3.9-2.6c1.2-1.3,2.1-2.8,2.8-4.6l-1.9,1.8c-0.4-0.6-0.8-1.2-1.3-1.8
		c-0.8,2.3-1.9,4.6-3.4,7c-0.3-0.4-1-1-2-1.8v6.1h-4.7V54.8h7v-3.4h-8.2V47.1z M190.2,67.5c1.5-2.5,2.3-5.4,2.5-8.8h-2.5V67.5z
		 M199.4,64.1c0.5-1.7,0.9-3.5,1-5.5H197c0,1.1-0.1,2-0.2,2.6L199.4,64.1z M197,54.8h3.5v-3.4H197V54.8z M206.7,67.7l-1.5,1.5
		c-0.6-0.9-1.2-1.7-1.9-2.6c-0.7,2-1.7,3.9-3,5.7c1.7,0.1,3,0.1,4.2,0.1c1.4,0,2.2-0.8,2.2-2.3V67.7z M207,58.6h-2.2
		c0,1.2-0.1,2.4-0.3,3.5l2.5,2.8V58.6z M244.7,39.4l-7.6,15.5h5.4v4.7h-6.6v3.5h6.6v4.7h-6.6v6.5h-6v-6.5H223v-4.7h6.9v-3.5H223
		v-4.7h5.5l-7.4-15.5h6.4c2.9,7.2,4.7,11.9,5.5,14.2h0.1c0.1-0.3,0.2-0.7,0.4-1.2c0.2-0.8,1.1-3.1,2.7-7l2.4-5.9H244.7z M256.3,75.3
		V48.7h-4.1v-3.4c2.4-0.2,4.6-1.1,4.9-3.8h4v33.7H256.3z M274,75.7c-4.7,0-7.7-2.7-7.7-7.3v-20c0-4.6,3-7.3,7.7-7.3
		c4.7,0,7.7,2.7,7.7,7.3v20C281.7,73.1,278.8,75.7,274,75.7z M277,48.7c0-2.4-1.2-3.5-3-3.5c-1.8,0-3,1.1-3,3.5v19.6
		c0,2.4,1.2,3.5,3,3.5c1.8,0,3-1.1,3-3.5V48.7z M287.2,81.4v-2.3c1.8-0.3,2.6-1.3,2.6-3.1v-0.7h-3V70h5.5v6
		C292.4,79.5,289.8,81.2,287.2,81.4z M304.5,75.7c-4.7,0-7.7-2.7-7.7-7.3v-20c0-4.6,3-7.3,7.7-7.3c4.7,0,7.7,2.7,7.7,7.3v20
		C312.2,73.1,309.2,75.7,304.5,75.7z M307.5,48.7c0-2.4-1.2-3.5-3-3.5s-3,1.1-3,3.5v19.6c0,2.4,1.2,3.5,3,3.5s3-1.1,3-3.5V48.7z
		 M325.1,75.7c-4.7,0-7.7-2.7-7.7-7.3v-20c0-4.6,3-7.3,7.7-7.3c4.7,0,7.7,2.7,7.7,7.3v20C332.8,73.1,329.8,75.7,325.1,75.7z
		 M328,48.7c0-2.4-1.2-3.5-3-3.5c-1.8,0-3,1.1-3,3.5v19.6c0,2.4,1.2,3.5,3,3.5c1.8,0,3-1.1,3-3.5V48.7z M345.6,75.7
		c-4.7,0-7.7-2.7-7.7-7.3v-20c0-4.6,3-7.3,7.7-7.3c4.7,0,7.7,2.7,7.7,7.3v20C353.3,73.1,350.4,75.7,345.6,75.7z M348.6,48.7
		c0-2.4-1.2-3.5-3-3.5c-1.8,0-3,1.1-3,3.5v19.6c0,2.4,1.2,3.5,3,3.5c1.8,0,3-1.1,3-3.5V48.7z M389.4,63.6c2.3,1,4.1,1.6,5.3,2.1
		c-0.5,2.6-0.9,4.7-1.4,6.4c-0.4,1.6-1.2,2.7-2.2,3.4s-2.3,0.9-3.8,0.9h-3.7c-4,0-6-2.1-6-6.2V56.5h-5.4
		c-0.4,9.8-4.1,16.6-11.1,20.4c-1-1.2-2.3-2.8-4-4.8c6.2-3.1,9.4-8.3,9.7-15.6h-9.2v-5.7h36.7v5.7h-11.2V68c0,2,0.8,3,2.3,3h1.2
		c0.8,0,1.3-0.3,1.6-1C388.6,69.2,389,67.1,389.4,63.6z M360.7,38.8h30.5v5.6h-30.5V38.8z M410.5,60c2,3.6,3.9,7.2,5.7,10.9
		l-4.4,2.6l-1.4-3c-5.2,2.1-9,3.7-11.2,4.9l-2.4-4.1c0.8-1,1.2-2.4,1.2-4.2V37.9h16.6V60H410.5L410.5,60z M409.7,43h-6.9v3.7h6.9V43
		z M409.7,54.9v-3.7h-6.9v3.7H409.7z M406.4,62l3.4-2.1h-6.9v8.4l5.5-2.1L406.4,62z M416.5,38.9h14.9v25.6c0,1.9-0.3,3.3-1,4.3
		c-0.7,1-1.6,1.5-2.9,1.6c-1.2,0.1-3,0.1-5.3,0.1c-0.2-2.2-0.5-4-0.8-5.5c1.4,0.2,2.6,0.2,3.6,0.2c0.9,0,1.4-0.6,1.4-1.8V44.2h-5.1
		v32.4h-4.9V38.9z M434.4,59.3c3.3-2.9,6.4-6.8,9.2-11.6l3.9,3.7c-1.3,2.1-2.6,4.2-4,6v19.6h-4.9V63.1c-0.9,0.9-1.8,1.8-2.7,2.6
		C435.6,64,435.1,61.9,434.4,59.3L434.4,59.3z M434.8,45.7c3.2-2.8,5.9-6,8-9.4l4.1,3.6c-2.8,4.3-6.2,8.4-10.3,12.1
		C436.3,50.4,435.6,48.3,434.8,45.7L434.8,45.7z M471.2,60h-4.1v2.3h4.9v4.2h-4.9v4c0,1.9-0.4,3.3-1.2,4.3c-0.8,1-2.1,1.5-3.8,1.7
		c-1.7,0.1-3.6,0.2-5.7,0.1c-0.3-1.7-0.7-3.5-1.2-5.2c1.8,0.1,3.4,0.2,4.8,0.2c1.4,0,2.1-0.8,2.1-2.5v-2.5h-8.9c1,1.2,2,2.5,3.1,3.9
		l-4.2,3.1c-1.3-2.1-2.6-4-3.8-5.5l2.1-1.4h-4.8v-4.2h16.5V60h-15.3v-4.2h24.5V60z M448.1,37.8h21.6v15.9h-21.6V37.8z M464.8,41.9
		H453V44h11.8V41.9z M464.8,49.7v-2.1H453v2.1H464.8z"/>
	<path class="st3" d="M206.4,770.2c-0.1,4.6-2.6,7-7.4,7h-6.7v9.5h-2.4v-23.4h9.3C203.5,763.5,205.9,765.8,206.4,770.2L206.4,770.2z
		 M203.8,770.1c-0.1-2.9-1.9-4.4-5.3-4.5h-6.3v9.3h6.3C201.9,774.8,203.7,773.2,203.8,770.1L203.8,770.1z M216.1,771.3
		c-2.7-0.2-4.3,1-4.6,3.5l-2.3-0.7c0.8-3.5,3.1-5.2,7-5c4.2-0.1,6.3,2.1,6.1,6.6v6.9c-0.1,1.9,0.2,3.2,0.9,4h-2.3
		c-0.5-0.6-0.8-1.4-0.8-2.3c-1.3,1.9-3.3,2.8-6.1,2.8c-3.3-0.2-5.1-1.6-5.3-4.5c0.1-3.3,2-5.1,5.7-5.5c3-0.3,4.9-0.7,5.5-1.3
		C220.2,772.7,218.9,771.2,216.1,771.3L216.1,771.3z M214.7,784.9c3.2-0.2,5-1.9,5.3-4.9v-2.2c-0.3,0.6-1.8,1.1-4.6,1.3
		c-2.9,0.4-4.3,1.5-4.2,3.3C211.2,784.1,212.4,784.9,214.7,784.9L214.7,784.9z M236.8,769.6h2.3v17h-2.3v-2.3
		c-1.2,1.8-2.9,2.7-5.2,2.8c-3.7,0.1-5.5-2-5.4-6.3v-11.1h2.3v10.9c0.1,3,1.3,4.6,3.7,4.7c2.8-0.3,4.3-1.9,4.6-4.8V769.6z
		 M242.9,786.6h2.3v-23.3h-2.3V786.6z M264.8,765.1c2.9,0,4.7,1.6,5.5,4.9l2.6-0.8c-0.9-4.3-3.6-6.4-8.3-6.4
		c-4.7,0.2-7.3,2.3-7.5,6.3c-0.3,3.3,2.3,5.5,7.8,6.7c4.4,0.9,6.4,2.5,6,4.7c-0.1,2.9-2,4.4-5.5,4.5c-4,0.2-6.2-1.8-6.7-5.9
		l-2.5,0.9c0.9,4.8,4,7.2,9.3,7c5-0.2,7.6-2.4,8-6.4c0.3-3.7-2.5-6.1-8.4-7.3c-3.7-0.9-5.6-2.3-5.5-4.2
		C259.7,766.5,261.4,765.2,264.8,765.1L264.8,765.1z M292.9,769.1c3.5-0.1,5.2,2,5.2,6.3v11.1h-2.3V776c0.1-3.3-1-4.9-3.2-4.8
		c-2.4,0.2-3.8,1.9-4,4.9v10.4h-2.3V776c0.1-3.3-1-4.9-3.1-4.8c-2.4,0.2-3.8,1.8-4.1,4.7v10.7h-2.3v-17h2.3v2.6c1.1-2,2.6-3,4.3-3
		c2.7,0,4.3,1.2,4.9,3.6C289.4,770.3,291,769.1,292.9,769.1L292.9,769.1z M301.9,766.4h2.3v-3.2h-2.3V766.4z M301.9,786.7h2.3v-17.1
		h-2.3V786.7z M312.5,785.3c0.4,0,0.8,0,1.2-0.1l0.4,1.3c-0.7,0.3-1.5,0.5-2.4,0.5c-2.2,0.1-3.3-1.2-3.2-3.8v-11.5h-2.2v-2.1h2.2
		V765l2.3-1.3v5.9h2.9v2.1h-2.9v11.5C310.8,784.7,311.3,785.4,312.5,785.3L312.5,785.3z M323.8,769.1c3.7-0.1,5.5,2.1,5.4,6.6v10.9
		h-2.4V776c0-3.2-1.2-4.8-3.6-4.8c-2.8,0.4-4.3,2-4.5,4.9v10.5h-2.4v-23.4h2.4v8.9C319.9,770.2,321.6,769.2,323.8,769.1L323.8,769.1
		z M340.2,781.4c-0.8-1-1.7-2-2.8-3V789h-2.3v-11.8c-0.2,0.2-0.5,0.5-0.9,0.9c-0.2,0.3-0.9,1-1.9,2.1c-0.1-0.2-0.1-0.5-0.2-0.9
		c-0.2-0.9-0.4-1.5-0.4-1.9c2.4-2.3,4.4-5.2,5.9-8.4h-5.4v-2.3h7.9v2.3c-0.9,1.9-1.8,3.5-2.7,4.9v1.8l0.5,0.6c0.9-1.2,1.5-2.3,2-3.2
		l1.6,0.9c-0.3,0.4-0.7,0.9-1.2,1.6c-0.5,0.8-0.9,1.4-1.2,1.8l2.4,2.2L340.2,781.4z M336.5,766.3c-0.5-1.4-1.3-2.9-2.3-4.3l2.2-1.1
		c0.2,0.3,0.5,0.8,0.9,1.5c0.7,1.3,1.2,2.1,1.5,2.6L336.5,766.3z M341.9,788.8v-22.4h6.1V761h2.4v5.4h6.1v22.4h-2.4v-1.6h-10v1.6
		H341.9z M344.1,768.9v6.7h3.9v-6.7H344.1z M344.1,777.9v7h3.9v-7H344.1z M354.2,768.9h-3.8v6.7h3.8V768.9z M350.4,777.9v7h3.8v-7
		H350.4z M359.6,769.2v-2.5h3.8v-5.6h2.6v5.6h3.3v2.5h-3.3v5.4c0.1,0,0.3,0,0.5-0.1c0.7-0.2,1.7-0.4,2.9-0.7c0,0.9,0,1.8,0.1,2.7
		c-0.1,0-0.4,0-0.6,0.1c-0.6,0.2-1.6,0.4-2.9,0.7v8c0.1,2.3-1,3.4-3.1,3.4c-0.6,0.1-1.5,0.1-2.6,0.1c0-0.1,0-0.2-0.1-0.4
		c-0.1-1-0.2-1.8-0.4-2.3c0.6,0,1.3,0,2.2,0c1.1,0.1,1.6-0.4,1.5-1.4V778c-0.4,0.1-1,0.2-1.8,0.5c-0.9,0.2-1.5,0.4-1.9,0.6l-0.3-2.9
		l4.1-0.9v-6H359.6z M370.8,788.5v-24.8h13.2v24.8h-2.6v-2.8h-8.1v2.8H370.8z M373.2,766.2v16.8h8.1v-16.8H373.2z"/>
	<path class="st3" d="M223.1,428.7h-2.6l-8.6-23.4h2.6l6.7,18.9c0.2,0.7,0.4,1.6,0.6,2.7h0.1c0.1-0.4,0.3-1.2,0.5-2.3
		c0.1-0.2,0.1-0.3,0.1-0.4l6.6-18.9h2.7L223.1,428.7z M240.4,427c-3.1-0.2-4.7-2.3-4.9-6.1h12c0-0.1,0-0.3,0-0.6
		c-0.1-5.9-2.5-9-7.1-9.1c-4.7,0.2-7.1,3.3-7.3,9.1c0.1,5.5,2.6,8.4,7.4,8.7c3.7,0.1,6-1.6,6.9-5l-2.4-0.7
		C244.4,425.8,242.8,427,240.4,427L240.4,427z M240.4,413.4c2.9,0.2,4.5,2,4.6,5.4h-9.4C235.9,415.5,237.4,413.8,240.4,413.4
		L240.4,413.4z M256.3,413.7c-0.9,0-1.7,0.5-2.5,1.6c-0.6,0.9-1,2.2-1,4.1v9.3h-2.3v-17.1h2.3v3h0.1c0.7-2.2,1.9-3.3,3.7-3.4
		c0.9-0.1,1.7,0.2,2.6,0.8l-1,2.3C257.6,413.9,257,413.7,256.3,413.7L256.3,413.7z M266.6,413.3c-2.1,0.1-3.2,0.9-3.4,2.6
		c-0.1,1.5,1.4,2.5,4.3,3c3.9,0.7,5.8,2.4,5.7,5.2c-0.1,3.2-2.2,4.8-6.4,4.9c-3.6,0.1-5.8-1.6-6.7-5l2.3-0.7c0.6,2.7,2,3.9,4.4,3.9
		c2.6-0.1,3.9-1.1,4-2.9c0.1-1.6-1.3-2.6-4-3.2c-4.2-0.5-6.2-2.3-6-5.2c0.3-3,2.2-4.6,5.7-4.8c3.4,0.1,5.4,1.6,6,4.6l-2.4,0.7
		C269.7,414.3,268.5,413.3,266.6,413.3L266.6,413.3z M283.2,413.3c2.8-0.2,4.1,1.3,3.9,4.5c-0.6,0.5-2.5,1-5.5,1.3
		c-3.7,0.4-5.6,2.2-5.7,5.5c0.2,2.8,2,4.3,5.3,4.5c2.8,0,4.9-0.9,6.1-2.8c0,0.9,0.2,1.7,0.8,2.3h2.3c-0.6-0.8-0.9-2.1-0.9-4v-6.9
		c0.1-4.5-1.9-6.6-6.1-6.6c-3.9-0.2-6.2,1.5-7,5l2.3,0.7C278.9,414.3,280.5,413.2,283.2,413.3L283.2,413.3z M281.8,426.9
		c-2.3,0-3.5-0.9-3.6-2.6c-0.1-1.8,1.3-2.9,4.2-3.3c2.8-0.2,4.3-0.7,4.6-1.3v2.2C286.8,425,285,426.7,281.8,426.9L281.8,426.9z
		 M299.8,413.3c-3.1,0-4.6,2.3-4.6,6.9c0,4.5,1.5,6.8,4.6,6.8c2.5,0,3.9-1.5,4.1-4.5l2.4,0.6c-0.6,4.1-2.8,6-6.6,5.9
		c-4.6-0.2-6.9-3.1-7-8.8c0.1-5.8,2.4-8.8,6.9-9c3.5,0.1,5.6,1.8,6.5,5l-2.3,0.8C303.1,414.7,301.8,413.5,299.8,413.3L299.8,413.3z
		 M315.2,427c-3.1-0.2-4.7-2.3-4.9-6.1h12c0-0.1,0-0.3,0-0.6c-0.1-5.9-2.5-9-7.1-9.1c-4.7,0.2-7.1,3.3-7.3,9.1
		c0.1,5.5,2.6,8.4,7.4,8.7c3.7,0.1,6-1.6,6.9-5l-2.4-0.7C319.2,425.8,317.6,427,315.2,427L315.2,427z M315.2,413.4
		c2.9,0.2,4.5,2,4.6,5.4h-9.4C310.7,415.5,312.3,413.8,315.2,413.4L315.2,413.4z M330.6,430.9v-1.2h13.3v1.2h2.4v-13h-17.8
		c3.1-1.2,5.6-2.9,7.7-5v4.1h2.4v-4.1c2.2,2.4,5.7,4.4,10.7,6c0.3-0.7,0.6-1.5,1.1-2.3c-4.5-1.1-7.9-2.7-10.1-4.7h9.5v-2.1h-11.1v-3
		c4.2-0.2,7.3-0.3,9.1-0.5l-0.3-2.1c-8.3,0.5-15,0.7-20.3,0.7c0.1,0.5,0.3,1.3,0.3,2.1c2.2,0,3.8,0,5.1,0c1.4,0,2.6,0,3.8-0.1v2.9
		H325v2.1h9.5c-2.6,2.2-6,3.9-10.2,5c0.5,0.8,0.9,1.6,1.1,2.3c0.4-0.2,1.1-0.5,1.9-0.8c0.4-0.2,0.8-0.3,1-0.4v12.9H330.6z
		 M343.9,420v2.9h-13.3V420H343.9z M343.9,424.8v2.8h-13.3v-2.8H343.9z M361.5,412.3v-2.6h-8.9v2.7h6.4c-1.1,5-3.5,9.5-7.2,13.5
		c0.3,0.4,0.6,1,1.1,1.8c0.2,0.2,0.4,0.4,0.4,0.6C357.6,423.6,360.4,418.3,361.5,412.3L361.5,412.3z M377.1,426.9
		c0.4-0.8,0.8-1.3,1-1.6c-3.5-2.7-6.2-5.8-8.2-9.4c1.9-1.7,4.1-3.8,6.6-6.2l-1.9-2c-2,2.1-4,4.1-5.9,5.9c-0.9-1.7-1.7-3.6-2.4-5.7
		v-4.7h-2.6v22.6c0.1,1.5-0.6,2.2-2.2,2.1c-1.4,0-2.5,0-3.2-0.1c0.1,0.3,0.1,0.7,0.2,1.3c0.1,0.6,0.3,1.1,0.3,1.5c1.4,0,2.6,0,3.7,0
		c2.7-0.1,3.9-1.5,3.8-4.2v-13c2,5.6,5.5,10.4,10.3,14.4C376.7,427.7,376.9,427.4,377.1,426.9L377.1,426.9z"/>
	<g>
		<path class="st4" d="M42.7,837.6c0-0.4,0.1-0.8,0.4-1.1c0.3-0.3,0.6-0.4,1-0.4c0.4,0,0.7,0.1,1,0.4c0.3,0.3,0.4,0.6,0.4,1.1
			c0,0.4-0.1,0.8-0.4,1.1c-0.3,0.3-0.6,0.4-1,0.4c-0.4,0-0.7-0.1-1-0.4C42.8,838.3,42.7,838,42.7,837.6z"/>
		<path class="st4" d="M65.7,845.5H55.5v-2l4.9-5.3c1.3-1.5,2.2-2.6,2.7-3.5c0.5-0.8,0.7-1.7,0.7-2.6c0-1-0.3-1.8-0.8-2.4
			c-0.5-0.6-1.3-0.8-2.3-0.8c-1.5,0-2.9,0.7-4.3,2.1v-2.3c1.3-1.1,2.8-1.7,4.6-1.7c1.5,0,2.7,0.4,3.6,1.3c0.9,0.9,1.3,2.1,1.3,3.6
			c0,1.1-0.3,2.2-0.8,3.3c-0.6,1.1-1.6,2.5-3.2,4.1l-3.8,4v0h7.7V845.5z"/>
		<path class="st4" d="M68.9,836.8c0-3.2,0.5-5.6,1.5-7.3c1-1.6,2.4-2.5,4.2-2.5c3.5,0,5.3,3.1,5.3,9.3c0,3.1-0.5,5.4-1.5,7
			c-1,1.6-2.4,2.4-4.2,2.4c-1.7,0-3-0.8-3.9-2.3C69.3,842,68.9,839.7,68.9,836.8z M71,836.7c0,4.8,1.1,7.2,3.4,7.2
			c2.2,0,3.3-2.4,3.3-7.3c0-5.1-1.1-7.6-3.3-7.6C72.2,829,71,831.5,71,836.7z"/>
		<path class="st4" d="M93,845.5h-9.6v-2h3.7v-13.8l-3.8,1.2v-2.1l5.9-1.9v16.6H93V845.5z"/>
		<path class="st4" d="M96.8,842.7c1.1,0.8,2.3,1.2,3.5,1.2c1.2,0,2.1-0.3,2.8-1c0.7-0.7,1.1-1.6,1.1-2.8c0-1.2-0.4-2.1-1.1-2.7
			c-0.7-0.6-1.8-1-3.1-1c-0.7,0-1.5,0.1-2.6,0.2v-9.2h8.2v2h-6.3v5.1c0.6,0,1.1-0.1,1.4-0.1c1.8,0,3.1,0.5,4.1,1.5
			c1,1,1.5,2.3,1.5,4c0,1.8-0.5,3.2-1.6,4.3c-1.1,1.1-2.5,1.6-4.4,1.6c-1.6,0-2.7-0.2-3.5-0.8V842.7z"/>
		<path class="st4" d="M108.8,840.7h3.5V834h7.6v-4.2h-6.3c-1,1.9-2.1,3.6-3.3,5.2c-0.4-0.4-0.8-0.9-1.3-1.3c2-2.5,3.6-5.3,4.6-8.4
			l1.8,0.5c-0.3,0.8-0.6,1.5-0.9,2.2h14.8v1.7h-7.6v4.2h7.2v1.6h-7.2v5.1h8.5v1.7h-8.5v6.3h-1.7v-6.3h-11.1V840.7z M114,840.7h5.9
			v-5.1H114V840.7z"/>
		<path class="st4" d="M143.2,840.8H141v4.7h-2v-4.7h-7.8v-1.5l7.4-12h2.4V839h2.1V840.8z M139,839v-7.6c0-0.5,0-1.2,0-1.9h0
			c-0.1,0.3-0.3,0.8-0.6,1.4l-5,8.1H139z"/>
		<path class="st4" d="M150,840.7c-0.3,3-1.4,5.7-3.2,8.2c-0.5-0.5-1-1-1.5-1.4c1.4-1.6,2.3-3.6,2.8-5.9c0.3-1.7,0.5-4,0.5-6.9v-8.1
			H163v18.3c0,2.3-1,3.5-3,3.5c-0.8,0-1.9,0-3.3,0c-0.1-0.6-0.2-1.2-0.3-2c1.3,0.1,2.4,0.1,3.1,0.1c1.2,0,1.7-0.6,1.7-1.9v-3.9H150z
			 M150.2,839h11v-4.5h-10.9C150.4,836,150.3,837.5,150.2,839z M150.4,828.3v4.5h10.9v-4.5H150.4z"/>
		<path class="st4" d="M178.4,845.5h-10.2v-2l4.9-5.3c1.3-1.5,2.2-2.6,2.7-3.5c0.5-0.8,0.7-1.7,0.7-2.6c0-1-0.3-1.8-0.8-2.4
			c-0.5-0.6-1.3-0.8-2.3-0.8c-1.5,0-2.9,0.7-4.3,2.1v-2.3c1.3-1.1,2.8-1.7,4.6-1.7c1.5,0,2.7,0.4,3.6,1.3c0.9,0.9,1.3,2.1,1.3,3.6
			c0,1.1-0.3,2.2-0.8,3.3c-0.6,1.1-1.6,2.5-3.2,4.1l-3.8,4v0h7.7V845.5z"/>
		<path class="st4" d="M184,827.1h15.4v21.3h-1.8v-1.7h-11.7v1.7H184V827.1z M185.8,828.9v7h11.7v-7H185.8z M185.8,837.6v7.4h11.7
			v-7.4H185.8z"/>
		<path class="st4" d="M203.8,845.5h9.7v-4h-8.3v-1.7h8.3v-3.2h1.8v3.2h8.1v1.7h-8.1v4h9.6v1.7h-21.1V845.5z M218,830
			c2.2,2,4.2,4,6,6l-1.4,1.4c-0.5-0.5-1-1.1-1.5-1.7c-5,0.1-9.5,0.4-13.3,0.7c-0.4,0-1,0.2-1.7,0.4l-0.9-2c0.8-0.3,1.5-0.7,2-1.1
			c1.5-1.3,2.9-3,4.5-5h-7.4v-1.7h20.1v1.7H214c-1.7,2-3.5,4-5.4,5.9c3.4-0.2,7-0.3,11-0.4c-0.9-0.9-1.8-1.9-2.8-2.9L218,830z"/>
		<path class="st4" d="M237.5,845.5h-9.6v-2h3.7v-13.8l-3.8,1.2v-2.1l5.9-1.9v16.6h3.7V845.5z"/>
		<path class="st4" d="M241.4,843c0.9,0.6,1.9,0.9,3,0.9c1.5,0,2.7-0.6,3.5-1.9c0.8-1.3,1.2-3.1,1.2-5.5c0,0,0,0,0,0
			c-0.7,1.5-2,2.3-3.7,2.3c-1.4,0-2.6-0.5-3.5-1.6c-0.9-1-1.4-2.4-1.4-4.1c0-1.8,0.5-3.2,1.5-4.4c1-1.1,2.3-1.7,3.9-1.7
			c1.7,0,3,0.7,3.9,2.1c0.9,1.4,1.4,3.5,1.4,6.2c0,3.4-0.6,5.9-1.8,7.7c-1.2,1.8-2.9,2.7-5,2.7c-1.2,0-2.2-0.2-3-0.6V843z
			 M242.6,832.9c0,1.2,0.3,2.2,0.9,2.9s1.4,1.1,2.4,1.1c0.9,0,1.6-0.3,2.2-1c0.6-0.7,0.9-1.4,0.9-2.4c0-1.3-0.3-2.4-0.9-3.2
			c-0.6-0.9-1.4-1.3-2.3-1.3c-0.9,0-1.6,0.4-2.2,1.1C242.9,830.8,242.6,831.7,242.6,832.9z"/>
		<path class="st4" d="M256.3,827.1h15.4v21.3h-1.8v-1.7h-11.7v1.7h-1.8V827.1z M258.1,828.9v7h11.7v-7H258.1z M258.1,837.6v7.4
			h11.7v-7.4H258.1z"/>
		<path class="st4" d="M287.7,842.6l-1.8,6.2h-1.5l1.3-6.2H287.7z"/>
		<path class="st4" d="M299,828.4h6.3c0.4-0.9,0.7-1.9,0.9-2.9l1.8,0.5c-0.3,0.8-0.5,1.6-0.8,2.4h12.5v1.7h-13.2
			c-0.9,2.1-1.9,4.1-3,5.9v12.4h-1.7v-9.9c-0.8,1.1-1.6,2.1-2.5,3c-0.3-0.5-0.6-1.1-1-1.7c2.6-3,4.7-6.2,6.2-9.7H299V828.4z
			 M304.4,845.1h6.7v-7h-5.6v-1.7h5.6v-4.7h1.8v4.7h5.7v1.7h-5.7v7h6.9v1.6h-15.4V845.1z"/>
		<path class="st4" d="M321.5,844.9h20.8v2h-20.8V844.9z M322.8,827.9h18.1v2h-18.1V827.9z M323.8,836h16.1v2h-16.1V836z"/>
		<path class="st4" d="M343.8,845.8h9.8v-3.1h-8.5v-1.6h8.5V838h-6v0.8h-1.7v-12H363v12h-1.7V838h-6v3.1h8.5v1.6h-8.5v3.1h9.9v1.7
			h-21.4V845.8z M347.6,831.6h6v-3.2h-6V831.6z M347.6,836.4h6v-3.2h-6V836.4z M361.4,828.4h-6v3.2h6V828.4z M355.3,836.4h6v-3.2h-6
			V836.4z"/>
		<path class="st4" d="M383.8,841.2V840H378v4.1c0,1.4,0.6,2,1.7,2h3.9c1.2,0,2-0.6,2.2-1.7c0.2-0.9,0.3-2.1,0.4-3.6
			c0.6,0.3,1.2,0.5,1.8,0.7c-0.2,1.6-0.4,2.8-0.6,3.7c-0.4,1.8-1.6,2.6-3.5,2.6h-4.7c-1.9,0-2.8-1.1-2.8-3.3V840h-7.4v-7.8h1.6v6.1
			h5.8v-7.8h-9.1v-1.7h9.1v-3.1h1.7v3.1h9.1v1.7H378v7.8h5.8v-6.1h1.6v9H383.8z"/>
		<path class="st4" d="M389,846.8c5.6-3.3,8.8-7.8,9.5-13.6h-9.1v-1.8h9.2c0.1-1.6,0.1-3.5,0.1-5.7h1.9c0,2,0,3.9-0.1,5.7h9.6v1.8
			h-9.5c1.5,6.3,4.8,10.7,9.8,13.1c-0.7,0.7-1.2,1.4-1.6,1.9c-4.6-2.8-7.7-7-9.2-12.5c-1.2,5.4-4.3,9.7-9.4,12.9
			C390,848.2,389.6,847.6,389,846.8z M397.3,843.7l1.4-1.2c1,1.2,2,2.4,3,3.6l-1.5,1.3C399.3,846.3,398.3,845,397.3,843.7z"/>
		<path class="st4" d="M414.5,836.8h6.9v-5h-9.7V830h9.7v-4.5h1.8v4.5h9.9v1.8h-9.9v5h7.1v11.7h-1.7v-1.7h-12.3v1.7h-1.7V836.8z
			 M428.5,838.6h-12.3v6.6h12.3V838.6z"/>
		<path class="st4" d="M434.3,845.8h9.8v-3.1h-8.5v-1.6h8.5V838h-6v0.8h-1.7v-12h17.1v12h-1.7V838h-6v3.1h8.5v1.6h-8.5v3.1h9.9v1.7
			h-21.4V845.8z M438.1,831.6h6v-3.2h-6V831.6z M438.1,836.4h6v-3.2h-6V836.4z M451.9,828.4h-6v3.2h6V828.4z M445.9,836.4h6v-3.2h-6
			V836.4z"/>
		<path class="st4" d="M456.9,844.3c1.9-0.7,4.1-1.6,6.7-2.8v-7.4h-6.2v-1.7h6.2v-6.6h1.7v22.5h-1.7v-4.9c-1.4,0.6-3.4,1.5-6,2.7
			L456.9,844.3z M469.6,825.8h1.7v7.9c2-1.1,3.8-2.3,5.5-3.6l1.1,1.7c-1.6,1.1-3.7,2.4-6.6,3.9v8.6c0,1.1,0.5,1.6,1.6,1.6h1.5
			c1,0,1.6-0.5,1.7-1.6c0.1-1,0.2-2.3,0.3-3.8c0.6,0.3,1.2,0.5,1.8,0.8c-0.1,1.5-0.3,2.8-0.5,3.8c-0.3,1.8-1.3,2.7-3,2.7h-2.3
			c-2,0-3-1.1-3-3.2V825.8z"/>
		<path class="st4" d="M481.3,827.2h18.5v1.8h-16.7v16.4h17.1v1.8h-18.9V827.2z M484.8,831.6l1.2-1.2c1.8,1.6,3.7,3.4,5.6,5.3
			c1.5-1.8,2.9-3.7,4.3-5.8l1.6,1.1c-1.5,2.1-3,4.1-4.6,5.9c1.8,1.8,3.6,3.7,5.6,5.7l-1.5,1.6c-1.7-2-3.5-3.9-5.4-5.9
			c-2.1,2.3-4.2,4.3-6.3,6c-0.3-0.5-0.8-1-1.4-1.5c2.3-1.7,4.4-3.6,6.4-5.8C488.6,835.3,486.7,833.5,484.8,831.6z"/>
		<path class="st4" d="M503,845.7h17.1v-4h-15.8V840h15.8v-4h-16.5v-1.7h8.3v-8.7h1.8v8.7h8.1v14.4h-1.8v-1.4H503V845.7z M504.4,828
			l1.2-1.2c1.6,1.6,3,3.2,4.3,4.9l-1.4,1.3C507.3,831.4,505.9,829.7,504.4,828z M521.6,828.1c-1.5,1.9-3.1,3.6-4.6,5.1l-1.3-1.3
			c1.5-1.4,2.9-3.1,4.4-5.1L521.6,828.1z"/>
		<path class="st4" d="M527.9,827.1h15.4v21.3h-1.8v-1.7h-11.7v1.7h-1.8V827.1z M529.7,828.9v7h11.7v-7H529.7z M529.7,837.6v7.4
			h11.7v-7.4H529.7z"/>
		<path class="st4" d="M62.1,873.4l1,1.5c-2.1,1.1-4.2,2.1-6.2,3c-0.2-0.5-0.5-1-0.8-1.6C58.3,875.3,60.3,874.4,62.1,873.4z
			 M71.3,868c2,1.8,3.6,3.3,4.8,4.6l-1.2,1.3c-0.6-0.6-1.1-1.3-1.7-1.9c-1.8,0.1-3.5,0.2-5.3,0.2v3.1c0,1.9-0.9,2.9-2.7,2.9
			c-0.9,0-1.9,0-3.1,0c-0.1-0.6-0.2-1.3-0.3-1.9c1.1,0.1,2.1,0.2,3,0.2c1,0,1.4-0.6,1.4-1.7v-2.4c-1.9,0.1-3.9,0.2-5.8,0.3
			c-0.6,0-1.2,0.1-1.8,0.2l-0.6-1.8c0.9-0.1,1.9-0.4,3-0.8c1.5-0.6,3.1-1.3,4.8-2.2c-1.8,0.1-3.4,0.1-4.8,0.2
			c-0.7,0-1.2,0.1-1.6,0.1l-0.6-1.5c0.7-0.2,1.4-0.4,2.2-0.8c1-0.5,1.9-1,2.9-1.5h-4v0.7h-1.6v-8.9h17.1v8.9h-1.6v-0.7h-7.2
			c-1.6,0.9-3.2,1.7-4.7,2.4c1.9-0.1,4.1-0.1,6.6-0.2c1-0.5,2-1.1,3.1-1.6l1.1,1.3c-3.4,1.8-7,3.4-10.6,4.8c3.6-0.2,6.9-0.4,9.9-0.6
			c-0.5-0.5-1.1-1-1.6-1.5L71.3,868z M59.8,859.8h6.1v-2.1h-6.1V859.8z M59.8,863.2h6.1v-2.1h-6.1V863.2z M73.5,857.7h-6.1v2.1h6.1
			V857.7z M67.4,863.2h6.1v-2.1h-6.1V863.2z M70.9,873.5c2.1,0.8,4.2,1.6,6.2,2.6l-0.7,1.6c-1.9-1-4-1.8-6.2-2.6L70.9,873.5z"/>
		<path class="st4" d="M87.5,872.1c0,0.8,0.1,1.5,0.2,2c-2.3,1.6-4.2,2.9-5.7,4.1l-1-1.6c0.5-0.5,0.8-1.2,0.8-2.1v-9.3h-3.1v-1.7
			h4.8v11.4C84.6,874.1,86,873.2,87.5,872.1z M80.8,855.9c1.6,1.8,2.7,3,3.4,3.9l-1.5,1.4c-0.9-1.3-2-2.6-3.2-4L80.8,855.9z
			 M85.5,863.7h6.3v-8.1h1.9v8.1h6.3v1.7h-6.3v13.2h-1.9v-13.2h-6.3V863.7z"/>
		<path class="st4" d="M103.1,856.9h11.3v7h-1.6V863h-8.2v3.6c0,5-0.8,8.8-2.5,11.5c-0.3-0.5-0.7-1.1-1-1.5c1.3-2.3,2-5.6,2-9.9
			V856.9z M112.9,858.5h-8.2v3h8.2V858.5z M110.8,878.6h-1.5v-11h-2.1v8.4h-1.5v-9.9h3.6v-2.3h1.5v2.3h3.8v7.6
			c0,1.4-0.5,2.1-1.6,2.1c-0.3,0-0.8,0-1.6,0c-0.1-0.5-0.2-1.1-0.3-1.6c0.5,0,0.9,0.1,1.3,0.1c0.5,0,0.8-0.3,0.8-0.9v-5.8h-2.3
			V878.6z M119.9,855.9h1.6v19.5c0,1.9-0.8,2.9-2.5,2.9c-0.8,0-1.7,0-2.9,0c-0.1-0.7-0.2-1.4-0.3-1.9c1.2,0.2,2.1,0.2,2.7,0.2
			c0.9,0,1.4-0.6,1.4-1.7V855.9z M117.9,872.6h-1.5v-14.4h1.5V872.6z"/>
		<path class="st4" d="M124.2,864.6h8.6v-9h1.8v3.5h9.1v1.7h-9.1v3.7H145v1.8h-20.8V864.6z M132.7,867.2h1.8v2.7l0.9-1.2
			c3.4,1.7,6.2,3.2,8.3,4.5l-1.1,1.7c-2-1.3-4.7-2.9-8.1-4.7v8.5h-1.8V867.2z"/>
		<path class="st4" d="M147.5,861.9c1.1,0.8,2.3,1.9,3.8,3.2c-0.5,0.7-0.9,1.2-1.2,1.5c-1.6-1.6-2.8-2.7-3.6-3.4L147.5,861.9z
			 M149,868.7c0.6,0.2,1.2,0.5,1.8,0.7c-0.7,3.1-1.4,6.1-2,9l-1.9-0.6C147.7,875.1,148.4,872,149,868.7z M148.3,855.9
			c1.1,0.9,2.3,2.1,3.7,3.4c-0.5,0.5-0.9,1-1.3,1.5c-1.6-1.6-2.7-2.8-3.5-3.6L148.3,855.9z M152.8,857.2l1.2-1.1
			c0.7,0.7,1.8,1.9,3.3,3.8l-1.5,1.2C154.5,859.3,153.4,858,152.8,857.2z M154.8,878.5h-1.7v-16.4h5.9v-6.6h1.8v6.6h5.8v13.5
			c0,1.8-0.8,2.7-2.4,2.7c-0.9,0-2.2,0-3.7-0.1c-0.1-0.6-0.2-1.2-0.3-1.9c1.4,0.1,2.6,0.1,3.4,0.1c0.9,0,1.4-0.4,1.4-1.3v-2.2h-10.1
			V878.5z M164.9,863.9h-10.1v2.9h10.1V863.9z M154.8,871.4h10.1v-2.9h-10.1V871.4z M162.5,860.1c1.1-1.2,2.1-2.5,3.1-4l1.6,1.3
			c-0.9,1.2-2,2.5-3.4,3.9L162.5,860.1z"/>
		<path class="st4" d="M170.6,857.7h6.2c0-0.7,0-1.4,0-2h1.6c0,0.6,0,1.3,0,2h3.8v-2h1.6v2h5.2v5.3h-1.6v-0.6h-3.6v2.1h6.2
			c0,1.1-0.1,2.1-0.2,2.9c-0.2,1.1-0.8,1.6-1.9,1.6c-0.2,0-0.4,0-0.6,0v5.7h-1.6V870h-10.8v5.1H173V870c-0.9,0.4-1.9,0.8-3,1.2
			c-0.2-0.5-0.5-1-0.9-1.6c3.3-0.8,5.4-2,6.5-3.7h-4.7l0.7-4.8h5.1c0-0.6,0.1-1.3,0.1-2h-6.2V857.7z M179.2,871.3h1.5
			c0,1-0.1,1.9-0.3,2.6c3.3,1,6.3,2.1,8.9,3.1l-0.8,1.7c-2.9-1.2-5.8-2.3-8.7-3.3c-0.9,1.6-3.8,2.7-8.8,3.3
			c-0.3-0.8-0.5-1.3-0.7-1.7c3.3-0.3,5.8-0.9,7.5-1.8C178.8,874.8,179.2,873.5,179.2,871.3z M172.6,864.5h3.6
			c0.2-0.5,0.3-1.2,0.4-2.1h-3.7L172.6,864.5z M185.1,867.4c0.8,0.1,1.5,0.1,2,0.1c0.6,0,0.9-0.2,1-0.7c0.1-0.3,0.1-0.7,0.1-1h-4.6
			v2.3h-1.6v-2.3h-4.6c-0.4,1-1.1,1.8-2,2.6h10C185.4,868.2,185.3,867.9,185.1,867.4z M177.8,864.5h4.2v-2.1h-3.9
			C178.1,863.3,178,864,177.8,864.5z M178.2,861.1h3.8v-2h-3.8C178.3,859.8,178.3,860.5,178.2,861.1z M187.3,859h-3.6v2h3.6V859z"/>
		<path class="st4" d="M192.6,862.1c1.3,1.1,2.5,2.1,3.5,3.1c-0.5,0.6-0.9,1.1-1.3,1.5c-1.1-1.2-2.3-2.3-3.4-3.3L192.6,862.1z
			 M194.1,868.9c0.6,0.3,1.2,0.6,1.7,0.8c-0.6,2.8-1.3,5.7-1.9,8.8l-1.9-0.6C192.8,875.4,193.4,872.4,194.1,868.9z M193.4,855.9
			c1,0.8,2,1.8,3.1,2.8c-0.4,0.5-0.9,1-1.2,1.4c-0.9-1.1-1.9-2.1-2.9-3L193.4,855.9z M196.9,862.3H213v1.6h-4.8c0,0.8,0,1.6,0,2.4
			h4.1v9.3c0,1.8-0.8,2.7-2.4,2.7c-0.7,0-1.5,0-2.4-0.1c-0.1-0.6-0.2-1.2-0.3-1.8c0.9,0.1,1.7,0.2,2.3,0.2c0.8,0,1.3-0.5,1.3-1.4
			v-1.6c-0.3,0.3-0.6,0.6-1.1,1.1c-0.8-1.1-1.5-2.1-2.3-3c-0.6,1.8-1.5,3.2-2.7,4.4c-0.3-0.4-0.7-0.9-1.1-1.3c1.7-1.6,2.7-4,2.9-7.1
			h-3.5c0,0.6-0.1,1.2-0.2,1.8c0.8,0.8,1.6,1.6,2.4,2.5c-0.1,0.1-0.5,0.5-1.2,1.2c-0.5-0.7-1.1-1.3-1.6-2c-0.5,1.7-1.4,3.1-2.6,4.3
			c-0.2-0.3-0.5-0.7-0.8-1v3.8h-1.6v-12.3h4.1c0-0.8,0-1.6,0-2.4h-4.7V862.3z M196.9,858.2h4.1v-2.6h1.6v2.6h4.6v-2.6h1.6v2.6h4.2
			v1.6h-4.2v2h-1.6v-2h-4.6v2H201v-2h-4.1V858.2z M199.1,874.2c1.5-1.5,2.3-3.6,2.5-6.3h-2.5V874.2z M203.1,866.3h3.6
			c0-0.7,0-1.5,0-2.4h-3.6C203.1,864.6,203.1,865.4,203.1,866.3z M210.8,867.9h-2.6c0,0.7-0.1,1.4-0.3,2.1c1.2,1.3,2.1,2.4,2.9,3.3
			V867.9z"/>
		<path class="st4" d="M217,866.2l0.8-1.3c0.8,0.5,1.7,0.9,2.4,1.3c0.7-0.8,1.4-1.7,1.9-2.7h-4.2c-0.8,1.4-1.6,2.6-2.4,3.6
			c-0.3-0.4-0.7-0.8-1-1.1c1.4-1.6,2.5-3.5,3.4-5.7l1.4,0.5c-0.2,0.5-0.4,0.9-0.6,1.3h5.2v1.3c-0.6,1.3-1.3,2.5-2.2,3.5
			c1.3,0.7,2.4,1.3,3.5,1.9l-0.9,1.5c-1.2-0.8-2.5-1.5-3.8-2.3c-1.1,1-2.3,1.8-3.8,2.5h6.9v7.5h-1.4v-1h-4.4v1.2h-1.4v-7.5
			c-0.4,0.2-0.9,0.4-1.3,0.5c-0.2-0.4-0.4-0.9-0.7-1.4c1.9-0.6,3.4-1.5,4.8-2.6C218.3,866.9,217.7,866.6,217,866.2z M214.9,858.3
			h4.4c-0.3-0.7-0.6-1.4-1-2.2l1.4-0.7c0.5,1.1,1,2,1.3,2.8h3.8v3.3h-1.5v-1.9h-7v1.9h-1.5V858.3z M222.1,872h-4.4v3.6h4.4V872z
			 M229.5,864.6h1.6c0,4-0.1,6.7-0.5,8.3c2.1,1.6,3.9,3,5.4,4.4l-1.1,1.5c-1.4-1.4-3-2.8-4.9-4.3c-0.9,1.8-2.6,3.3-5,4.5
			c-0.3-0.5-0.6-1-1-1.5c2.6-1.3,4.3-2.8,4.9-4.6C229.4,871.6,229.6,868.8,229.5,864.6z M225.6,861.5h3.1l0.5-3h-4.1V857h10.3v1.6
			h-4.6l-0.6,3h4.5v11.8h-1.5v-10.2h-6.2v10.2h-1.5V861.5z"/>
		<path class="st4" d="M244.2,869.3c1.8,2.3,3.2,4.3,4.4,6l-1.4,1.1c-0.5-0.8-1.1-1.6-1.7-2.5c-2.1,1.1-3.9,2-5.4,2.8
			c-0.5,0.3-0.9,0.6-1.3,1l-1.2-1.5c0.4-0.5,0.7-1.1,0.7-1.8v-17.3h8.7v12.1h-1.6v-0.6h-5.4v6.2c1.4-0.6,2.9-1.4,4.6-2.2
			c-0.5-0.8-1.1-1.6-1.7-2.4L244.2,869.3z M245.5,858.8h-5.4v3.3h5.4V858.8z M245.5,867v-3.3h-5.4v3.3H245.5z M249.5,857.4h7.6v14.2
			c0,2-0.9,3-2.7,3c-0.6,0-1.5,0-2.5,0c-0.1-0.7-0.2-1.4-0.3-2c1.1,0.1,1.9,0.2,2.4,0.2c1,0,1.4-0.5,1.4-1.6v-11.9h-4.3v19.6h-1.6
			V857.4z"/>
		<path class="st4" d="M259.7,857.5H281v1.8h-3.6v15.9c0,2.1-0.9,3.2-2.8,3.2c-1.4,0-2.7,0-3.9,0c-0.1-0.7-0.2-1.4-0.3-2.1
			c1.6,0.1,2.9,0.2,3.7,0.2c1.1,0,1.6-0.6,1.6-1.9v-15.2h-15.9V857.5z M262.1,862.7h9.5v9.3h-7.8v1.7h-1.7V862.7z M269.9,864.4h-6.1
			v5.9h6.1V864.4z"/>
		<path class="st4" d="M282.2,868c0.9-0.3,1.8-0.6,2.7-0.9v-5.4h-2.5V860h2.5v-4.4h1.6v4.4h2.4v1.6h-2.4v4.8
			c0.7-0.3,1.5-0.6,2.2-0.9c0,0.8,0,1.4,0,1.9c-0.1,0-0.9,0.4-2.3,0.9v7.5c0,1.6-0.7,2.4-2,2.5c-0.6,0-1.3,0-2.1,0
			c-0.1-0.7-0.2-1.3-0.3-1.9c0.8,0.1,1.5,0.1,2,0.1c0.5,0,0.8-0.3,0.8-1V869c-0.7,0.3-1.5,0.6-2.5,1L282.2,868z M288.3,869.9h1.9
			v-6.3c-0.4-0.3-0.8-0.7-1.2-1c1.9-2.1,3.4-4.5,4.5-7.1l1.7,0.3c-0.3,0.8-0.7,1.5-1.1,2.2h6.5v1.6c-0.5,0.7-1.4,1.8-2.5,3.3h3.9
			v7.1h1.7v1.6H297c1.1,2.7,3.3,4.4,6.6,5.2c-0.5,0.7-1,1.3-1.3,1.9c-3-1.1-5.1-3-6.3-5.8c-0.8,2.4-3.2,4.4-7.2,6
			c-0.3-0.6-0.7-1.1-1.2-1.7c4.1-1.3,6.5-3.2,7.1-5.5h-6.4V869.9z M298.7,859.6h-5.5c-0.7,1.1-1.5,2.2-2.3,3.2h5.3
			C297.2,861.5,298,860.4,298.7,859.6z M291.7,869.9h3.4c0.1-0.8,0.2-2.6,0.2-5.5h-3.5V869.9z M300.4,864.4h-3.6c0,2,0,3.8-0.1,5.5
			h3.8V864.4z"/>
		<path class="st4" d="M310.9,856l-0.3,0.6c1.3,1.7,2.6,3.4,3.9,5.3l-1.3,1.3c-1.1-1.8-2.2-3.5-3.3-5c-1.1,2.6-2.5,5.1-4.1,7.6
			c-0.3-0.5-0.6-1.1-1.1-1.6c1.7-2.3,3.2-5.1,4.5-8.2H310.9z M306.4,872.2l1.3-1c0.7,0.9,1.3,1.7,1.9,2.6c0.7-1.5,1.5-3.2,2.3-5.2
			h-6.3v-1.6h8.1v1.6c-1.1,2.7-2.1,4.9-3,6.6c0.6,0.8,1.1,1.5,1.6,2.3l-1.5,1.1C309.4,876.2,307.9,874.1,306.4,872.2z M308.6,862.3
			l1.3-0.7c0.6,1.1,1.3,2.3,1.8,3.5l-1.5,0.8C309.9,865,309.3,863.8,308.6,862.3z M319.3,864.2h1.6v3.5c0,1.7-0.2,3.2-0.5,4.5
			c2.1,1.7,4.1,3.4,6,5.1l-1.3,1.5c-1.6-1.7-3.4-3.4-5.3-5c-0.1,0.1-0.1,0.3-0.2,0.4c-1,1.7-2.7,3.2-5.2,4.6
			c-0.5-0.7-0.9-1.2-1.2-1.5c2.4-1.1,4-2.4,4.9-3.9c0.8-1.3,1.3-3.2,1.3-5.7V864.2z M314.9,861.6h3.8l0.5-3.2h-5.4v-1.6h12.4v1.6
			H321l-0.6,3.2h4.9v11.2h-1.6v-9.6h-7.2v9.7h-1.6V861.6z"/>
		<path class="st4" d="M337.1,869.1c0,1,0.1,1.8,0.2,2.2c-3.5,2.4-5.6,3.8-6.4,4.5c-0.5,0.4-0.9,0.8-1.4,1.2l-1.2-1.9
			c0.7-0.7,1-1.4,1-2.4v-16.3h1.8v16.8C332.6,872.2,334.6,870.8,337.1,869.1z M343.8,856.1h1.8v4.2c0,4.3-0.5,7.8-1.5,10.3
			c1.8,2,3.5,4,5,5.9l-1.5,1.5c-1.5-2-2.9-3.9-4.4-5.7c-1.7,2.7-4.2,4.9-7.5,6.4c-0.3-0.5-0.7-1-1.2-1.6c3.6-1.8,6.1-3.9,7.3-6.3
			c1.3-2.3,2-5.9,2-10.6V856.1z M336.2,855.6c1,1.7,2,3.6,3.2,6l-1.7,1c-1.1-2.4-2.1-4.4-3.1-6.1L336.2,855.6z"/>
		<path class="st4" d="M350.4,875.3h8.5V856h2v7.1h8.9v1.9h-8.9v10.4h10.6v1.9h-21V875.3z"/>
		<path class="st4" d="M373.5,861.9v-1.7h8.6v1.7c-0.8,1.6-1.8,3.2-3,4.7v12h-1.7v-10.1c-1.2,1.4-2.6,2.7-4.1,3.9
			c-0.2-1-0.4-1.6-0.6-2c3.2-2.6,5.7-5.4,7.5-8.6H373.5z M376.5,856.5l1.3-1c0.8,1,1.5,2.1,2.3,3.1l-1.4,1.1
			C377.9,858.6,377.2,857.5,376.5,856.5z M379.6,867.8l1-1.2c1.3,0.9,2.5,2,3.8,3l-1.1,1.4C382,869.9,380.8,868.8,379.6,867.8z
			 M385.3,855.9h1.7v18.7c0,1,0.5,1.5,1.5,1.5h1.8c1,0,1.6-0.5,1.8-1.6c0.1-1.1,0.2-2.6,0.3-4.4c0.6,0.3,1.2,0.5,1.8,0.7
			c-0.2,2.2-0.3,3.8-0.5,4.7c-0.3,1.6-1.3,2.4-3.2,2.4h-2.3c-1.9,0-2.9-1-2.9-3.1V855.9z"/>
		<path class="st4" d="M396.6,867.8h8.2v10.8h-1.6V877h-4.9v1.6h-1.6V867.8z M403.1,869.4h-4.9v6h4.9V869.4z M398.7,856.6h14.9v9.3
			h-1.7v-0.8h-11.4v0.8h-1.7V856.6z M411.8,858.2h-11.4v5.2h11.4V858.2z M407.5,867.8h8.2v10.8h-1.6V877h-5v1.6h-1.6V867.8z
			 M414.1,869.4h-5v6.1h5V869.4z"/>
		<path class="st4" d="M430.4,879.6c-2.6-3-3.8-6.7-3.8-11.1c0-4.4,1.3-8.1,3.8-11.2h1.9c-2.6,3.2-3.8,6.9-3.8,11.2
			c0,4.2,1.3,7.9,3.8,11.1H430.4z"/>
		<path class="st4" d="M441,873.9h20.7v2H441V873.9z M442.6,858.6h17.6v2h-17.6V858.6z"/>
		<path class="st4" d="M472.3,876.2l4.5,0l7.9-0.2c-0.2,0.5-0.4,1.1-0.6,1.9l-7.5,0.1l-4.5-0.1c-2.6-0.1-4.4-1-5.4-2.8
			c-0.6,0.6-1.5,1.6-2.6,3.1l-0.9-1.9c1.3-1.3,2.2-2.3,2.8-2.9v-7.9h-2.6v-1.7h4.2v10C468.5,875.4,470.1,876.2,472.3,876.2z
			 M465.9,856c0.7,1,1.7,2.4,3,4.4l-1.5,1.2c-1.2-2-2.1-3.5-2.9-4.6L465.9,856z M469,865.2h7.1v-3.9h-3.6c-0.4,1.2-0.9,2.2-1.3,3.2
			c-0.4-0.3-0.9-0.5-1.5-0.8c1.1-2.1,2-4.5,2.5-7.1l1.7,0.4c-0.3,1-0.5,1.9-0.8,2.8h3.1v-4.1h1.7v4.1h5.6v1.6h-5.6v3.9h6.7v1.6h-5.1
			v5c0,0.8,0.3,1.2,0.9,1.2h1c0.7,0,1-0.4,1.1-1.1c0.1-0.6,0.2-1.5,0.2-2.8c0.4,0.2,1,0.4,1.6,0.7c-0.1,1.1-0.2,2-0.4,2.7
			c-0.2,1.4-1,2.1-2.5,2.1H480c-1.5,0-2.2-0.9-2.2-2.6v-5.2h-2.9c0,0.7,0,1.3-0.1,1.9c-0.1,2.9-1.6,5.1-4.5,6.5
			c-0.3-0.5-0.6-1-1.1-1.6c2.5-1.1,3.8-2.8,3.9-4.9c0-0.5,0.1-1.1,0.1-1.9H469V865.2z"/>
		<path class="st4" d="M486,865.4h21.4v2.1H486V865.4z"/>
		<path class="st4" d="M517.6,879.6h-1.9c2.6-3.2,3.8-6.9,3.8-11.2c0-4.2-1.3-7.9-3.8-11.1h1.8c2.5,3,3.8,6.7,3.8,11.1
			C521.4,872.8,520.1,876.6,517.6,879.6z"/>
		<path class="st4" d="M42.7,897.6c0-0.4,0.1-0.8,0.4-1.1c0.3-0.3,0.6-0.4,1-0.4c0.4,0,0.7,0.1,1,0.4c0.3,0.3,0.4,0.6,0.4,1.1
			c0,0.4-0.1,0.8-0.4,1.1c-0.3,0.3-0.6,0.4-1,0.4c-0.4,0-0.7-0.1-1-0.4C42.8,898.3,42.7,898,42.7,897.6z"/>
		<path class="st4" d="M54.7,898c0.9-0.3,1.8-0.6,2.7-0.9v-5.4h-2.5V890h2.5v-4.4H59v4.4h2.4v1.6H59v4.8c0.7-0.3,1.5-0.6,2.2-0.9
			c0,0.8,0,1.4,0,1.9c-0.1,0-0.9,0.4-2.3,0.9v7.5c0,1.6-0.7,2.4-2,2.5c-0.6,0-1.3,0-2.1,0c-0.1-0.7-0.2-1.3-0.3-1.9
			c0.8,0.1,1.5,0.1,2,0.1c0.5,0,0.8-0.3,0.8-1V899c-0.7,0.3-1.5,0.6-2.5,1L54.7,898z M60.8,899.9h1.9v-6.3c-0.4-0.3-0.8-0.7-1.3-1
			c1.9-2.1,3.4-4.5,4.5-7.1l1.7,0.3c-0.3,0.8-0.7,1.5-1.1,2.2h6.5v1.6c-0.5,0.7-1.4,1.8-2.5,3.3h3.9v7.1h1.7v1.6h-6.7
			c1.1,2.7,3.3,4.4,6.6,5.2c-0.5,0.7-1,1.3-1.3,1.9c-3-1.1-5.1-3-6.3-5.8c-0.8,2.4-3.2,4.4-7.2,6c-0.3-0.6-0.7-1.1-1.2-1.7
			c4.1-1.3,6.5-3.2,7.1-5.5h-6.4V899.9z M71.1,889.6h-5.5c-0.7,1.1-1.5,2.2-2.3,3.2h5.3C69.7,891.5,70.5,890.4,71.1,889.6z
			 M64.2,899.9h3.4c0.1-0.8,0.2-2.6,0.2-5.5h-3.5V899.9z M72.9,894.4h-3.6c0,2,0,3.8-0.1,5.5h3.8V894.4z"/>
		<path class="st4" d="M78.1,891.9v-1.7h8.6v1.7c-0.8,1.6-1.8,3.2-3,4.7v12H82v-10.1c-1.2,1.4-2.6,2.7-4.1,3.9c-0.2-1-0.4-1.6-0.6-2
			c3.2-2.6,5.7-5.4,7.5-8.6H78.1z M81,886.5l1.3-1c0.8,1,1.5,2.1,2.3,3.1l-1.4,1.1C82.5,888.6,81.8,887.5,81,886.5z M84.1,897.8
			l1-1.2c1.2,0.9,2.5,2,3.8,3l-1.1,1.4C86.6,899.9,85.4,898.8,84.1,897.8z M89.9,885.9h1.7v18.7c0,1,0.5,1.5,1.5,1.5H95
			c1,0,1.6-0.5,1.8-1.6c0.1-1.1,0.2-2.6,0.3-4.4c0.6,0.3,1.2,0.5,1.8,0.7c-0.2,2.2-0.3,3.8-0.5,4.7c-0.3,1.6-1.3,2.4-3.2,2.4h-2.3
			c-1.9,0-2.9-1-2.9-3.1V885.9z"/>
		<path class="st4" d="M107,903c0,0.5,0.1,1.2,0.2,2c-2,1.4-3.4,2.5-4.3,3.2l-1-1.6c0.5-0.4,0.7-1.1,0.7-2v-9.3H100v-1.7h4.3V905
			C105.1,904.4,106,903.7,107,903z M102,886c1.3,1.4,2.4,2.7,3.4,3.9l-1.5,1.4c-1-1.5-2.1-2.8-3.1-4L102,886z M106,900.4h6.7v-3.5
			h-5.5v-1.7h5.5v-3.5h-6.1V890h7.8c1.2-1.7,2.2-3.2,2.8-4.5l1.7,1.1c-0.7,0.9-1.5,2-2.6,3.4h4.6v1.7h-6.4v3.5h5.8v1.7h-5.8v3.5h6.9
			v1.7h-6.9v6.5h-1.8v-6.5H106V900.4z M108.2,886.6l1.3-1.1c0.9,1.1,1.8,2.2,2.5,3.2l-1.5,1.1C109.8,888.7,109.1,887.6,108.2,886.6z
			"/>
		<path class="st4" d="M123.4,891l1.4,0.2c-0.2,1.9-0.4,3.9-0.8,6c-0.3-0.1-0.8-0.2-1.4-0.3C122.9,895.4,123.2,893.4,123.4,891z
			 M125.5,885.7h1.5v4.8l0.8-0.6c0.7,0.9,1.4,1.8,2,2.6l-1.2,1c-0.4-0.7-1-1.5-1.6-2.4v17.6h-1.5V885.7z M128.9,893.7h6.6v-1.6h-5.4
			v-1.5h5.4V889h-6v-1.5h6v-2.1h1.6v2.1h6.5v1.5h-6.5v1.6h5.9v1.5h-5.9v1.6h6.9v1.5h-15.2V893.7z M132,908.5h-1.6v-11.9h12.1v9
			c0,1.7-0.7,2.6-2.2,2.6c-0.9,0-2.2,0-3.7,0c-0.1-0.5-0.2-1.1-0.3-1.8c1.4,0.1,2.5,0.1,3.3,0.1c0.8,0,1.2-0.4,1.2-1.1v-1.3H132
			V908.5z M140.8,898.1H132v1.6h8.8V898.1z M132,902.8h8.8v-1.6H132V902.8z"/>
		<path class="st4" d="M152,902.7c0,0.8,0.1,1.5,0.2,2c-1.6,1.1-2.9,2.1-3.9,3l-1-1.5c0.5-0.5,0.7-1.2,0.7-2v-8.9h-2.6v-1.7h4.3
			v10.9C150.4,903.9,151.2,903.3,152,902.7z M147.8,886.2c1.2,1.3,2.2,2.4,3.1,3.5l-1.5,1.4c-1-1.4-2-2.6-2.9-3.7L147.8,886.2z
			 M150.9,893.7h7v-1.6h-5.5v-1.5h5.5V889h-6.3v-1.5h6.3v-2.1h1.7v2.1h6.6v1.5h-6.6v1.6h6v1.5h-6v1.6h7v1.5h-15.7V893.7z
			 M154.5,908.5h-1.7v-11.9h12v9.1c0,1.7-0.8,2.5-2.4,2.6c-0.8,0-1.9,0-3.3,0c-0.1-0.5-0.2-1.1-0.3-1.8c1.2,0.1,2.3,0.1,3.1,0.1
			c0.8,0,1.2-0.4,1.2-1.2v-1.2h-8.6V908.5z M163.2,898.1h-8.6v1.6h8.6V898.1z M154.5,902.8h8.6v-1.6h-8.6V902.8z"/>
		<path class="st4" d="M168,905.5h9.7v-4h-8.3v-1.7h8.3v-3.2h1.8v3.2h8.1v1.7h-8.1v4h9.6v1.7H168V905.5z M182.2,890c2.2,2,4.2,4,6,6
			l-1.4,1.4c-0.5-0.5-1-1.1-1.5-1.7c-5,0.1-9.5,0.4-13.3,0.7c-0.4,0-1,0.2-1.7,0.4l-0.9-2c0.8-0.3,1.5-0.7,2-1.1
			c1.5-1.3,2.9-3,4.5-5h-7.4v-1.7h20.1v1.7h-10.4c-1.7,2-3.5,4-5.4,5.9c3.4-0.2,7-0.3,11-0.4c-0.9-0.9-1.8-1.9-2.8-2.9L182.2,890z"
			/>
		<path class="st4" d="M190.8,904.9h20.8v2h-20.8V904.9z M192.2,887.9h18.1v2h-18.1V887.9z M193.1,896h16.1v2h-16.1V896z"/>
		<path class="st4" d="M213.2,905.8h9.8v-3.1h-8.5v-1.6h8.5V898h-6v0.8h-1.7v-12h17.1v12h-1.7V898h-6v3.1h8.5v1.6h-8.5v3.1h9.9v1.7
			h-21.4V905.8z M217,891.6h6v-3.2h-6V891.6z M217,896.4h6v-3.2h-6V896.4z M230.7,888.4h-6v3.2h6V888.4z M224.7,896.4h6v-3.2h-6
			V896.4z"/>
		<path class="st4" d="M253.2,901.2V900h-5.8v4.1c0,1.4,0.6,2,1.7,2h3.9c1.2,0,2-0.6,2.2-1.7c0.2-0.9,0.3-2.1,0.4-3.6
			c0.6,0.3,1.2,0.5,1.8,0.7c-0.2,1.6-0.4,2.8-0.6,3.7c-0.4,1.8-1.6,2.6-3.5,2.6h-4.7c-1.9,0-2.8-1.1-2.8-3.3V900h-7.4v-7.8h1.6v6.1
			h5.8v-7.8h-9.1v-1.7h9.1v-3.1h1.7v3.1h9.1v1.7h-9.1v7.8h5.8v-6.1h1.6v9H253.2z"/>
		<path class="st4" d="M258.3,906.8c5.6-3.3,8.8-7.8,9.5-13.6h-9.1v-1.8h9.2c0-1.6,0.1-3.5,0.1-5.7h1.9c0,2,0,3.9-0.1,5.7h9.6v1.8
			H270c1.5,6.3,4.8,10.7,9.8,13.1c-0.7,0.7-1.2,1.4-1.6,1.9c-4.6-2.8-7.7-7-9.2-12.5c-1.2,5.4-4.3,9.7-9.4,12.9
			C259.4,908.2,259,907.6,258.3,906.8z M266.6,903.7l1.4-1.2c1,1.2,2,2.4,3,3.6l-1.5,1.3C268.6,906.3,267.7,905,266.6,903.7z"/>
		<path class="st4" d="M283.9,896.8h6.9v-5H281V890h9.7v-4.5h1.8v4.5h9.9v1.8h-9.9v5h7.1v11.7h-1.7v-1.7h-12.3v1.7h-1.7V896.8z
			 M297.9,898.6h-12.3v6.6h12.3V898.6z"/>
		<path class="st4" d="M303.7,905.8h9.8v-3.1H305v-1.6h8.5V898h-6v0.8h-1.7v-12h17.1v12h-1.7V898h-6v3.1h8.5v1.6h-8.5v3.1h9.9v1.7
			h-21.4V905.8z M307.5,891.6h6v-3.2h-6V891.6z M307.5,896.4h6v-3.2h-6V896.4z M321.3,888.4h-6v3.2h6V888.4z M315.2,896.4h6v-3.2h-6
			V896.4z"/>
		<path class="st4" d="M326.2,904.3c1.9-0.7,4.1-1.6,6.7-2.8v-7.4h-6.2v-1.7h6.2v-6.6h1.7v22.5h-1.7v-4.9c-1.4,0.6-3.4,1.5-6,2.7
			L326.2,904.3z M338.9,885.8h1.7v7.9c2-1.1,3.8-2.3,5.5-3.6l1.1,1.7c-1.6,1.1-3.7,2.4-6.6,3.9v8.6c0,1.1,0.5,1.6,1.6,1.6h1.5
			c1,0,1.6-0.5,1.7-1.6c0.1-1,0.2-2.3,0.3-3.8c0.6,0.3,1.2,0.5,1.8,0.8c-0.1,1.5-0.3,2.8-0.5,3.8c-0.3,1.8-1.3,2.7-3,2.7h-2.3
			c-2,0-3-1.1-3-3.2V885.8z"/>
		<path class="st4" d="M350.7,887.2h18.5v1.8h-16.7v16.4h17.1v1.8h-18.9V887.2z M354.2,891.6l1.2-1.2c1.8,1.6,3.7,3.4,5.6,5.3
			c1.5-1.8,2.9-3.7,4.3-5.8l1.6,1.1c-1.5,2.1-3,4.1-4.6,5.9c1.8,1.8,3.6,3.7,5.6,5.7l-1.5,1.6c-1.7-2-3.5-3.9-5.4-5.9
			c-2.1,2.3-4.2,4.3-6.3,6c-0.3-0.5-0.8-1-1.4-1.5c2.3-1.7,4.4-3.6,6.4-5.8C357.9,895.3,356.1,893.5,354.2,891.6z"/>
		<path class="st4" d="M375.8,891.3c0.5,0.5,1,0.9,1.4,1.3c-1.3,2-2.6,4.2-4,6.6l-1.5-1.2C373.1,896,374.4,893.8,375.8,891.3z
			 M373.7,885.7c1.2,1.1,2.3,2.2,3.4,3.3c-0.5,0.5-0.9,1-1.3,1.4c-1-1.2-2.1-2.3-3.2-3.4L373.7,885.7z M374.7,899.6h15.2v9.1h-1.7
			v-1.3h-11.9v1.3h-1.7V899.6z M383.8,890.1c0.5,0,1,0,1.5,0c0,0.2,0,0.5-0.1,0.9c1.4,3.4,4,5.5,7.9,6.4c-0.4,0.6-0.7,1.2-1,1.8
			c-3.7-1.2-6.1-3.3-7.4-6.1c-1.2,2.9-3.7,5-7.6,6.1c-0.2-0.5-0.6-1.1-1-1.7C380.7,896.4,383.3,894,383.8,890.1z M388.2,901.3h-11.9
			v4.6h11.9V901.3z M377.4,892.1c1.6-1.8,2.8-4,3.4-6.5h1.7c-0.2,0.9-0.5,1.7-0.8,2.5h10.1v1.6c-0.6,1-1.2,2.1-1.8,3.3
			c-0.6-0.3-1.1-0.5-1.7-0.6c0.6-0.9,1.1-1.8,1.5-2.7h-8.8c-0.6,1.3-1.3,2.5-2.2,3.6C378.5,892.9,378,892.5,377.4,892.1z"/>
		<path class="st4" d="M400.9,903.1c0,0.8,0.1,1.5,0.2,2c-1.8,1.3-3.2,2.3-4,3.1l-1-1.6c0.5-0.5,0.7-1.1,0.7-2v-9.3h-2.5v-1.7h4.2
			V905C399.2,904.4,400,903.7,400.9,903.1z M396.4,886c1.6,1.8,2.7,3,3.4,3.9l-1.5,1.3c-0.9-1.3-2-2.6-3.2-4L396.4,886z
			 M399.4,893.2c1.8-2.2,3.3-4.9,4.5-7.8l1.6,0.7c-0.4,0.8-0.8,1.6-1.2,2.4h10.5c-0.2,7.1-0.3,12.3-0.4,15.5
			c-0.1,2.8-1.2,4.2-3.4,4.2c-1.3,0-2.5,0-3.5-0.1c-0.1-0.6-0.2-1.3-0.4-2.1c1.3,0.2,2.4,0.3,3.5,0.3c1.3,0,2-0.9,2.1-2.7
			c0.1-3.5,0.3-8,0.4-13.5h-9.7c-0.9,1.5-1.7,2.9-2.7,4.1C400.4,894,400,893.6,399.4,893.2z M402.1,892.9h7.9v10.7h-6.3v1.4h-1.6
			V892.9z M408.4,894.5h-4.8v2.9h4.8V894.5z M408.4,902v-3h-4.8v3H408.4z"/>
		<path class="st4" d="M432.1,888.6c2.3,2.3,4.4,4.6,6.4,7l-1.5,1.4c-0.6-0.7-1.2-1.5-1.7-2.2c-6.5,0.3-11.4,0.6-14.8,0.8
			c-0.8,0.1-1.6,0.2-2.3,0.4l-0.7-2c0.7-0.3,1.3-0.6,1.8-1.1c2.5-2.2,4.7-4.7,6.7-7.6l1.6,1.1c-2.2,2.8-4.4,5.2-6.7,7.3
			c4.4-0.1,8.7-0.3,13-0.5c-1-1.2-2-2.3-3-3.4L432.1,888.6z M435.2,897.9v10.6h-1.8V907h-11.9v1.5h-1.8v-10.6H435.2z M433.5,899.7
			h-11.9v5.7h11.9V899.7z"/>
		<path class="st4" d="M445.5,902.8l1,1.3c-1.9,1.5-3.9,2.8-6,4c-0.3-0.5-0.6-1-1.1-1.5C441.6,905.5,443.6,904.2,445.5,902.8z
			 M454.4,897.3c2,1.6,3.7,3.1,5.3,4.6l-1.3,1.3c-0.5-0.5-0.9-1-1.4-1.5c-1.9,0.1-3.8,0.2-5.7,0.3v3.5c0,1.9-0.9,2.9-2.8,2.9
			c-0.8,0-1.8,0-2.7,0c-0.1-0.6-0.2-1.2-0.3-1.9c1,0.1,1.9,0.2,2.7,0.2c1,0,1.5-0.5,1.5-1.5v-3c-1.5,0.1-2.9,0.2-4.2,0.3
			c-0.8,0.1-1.7,0.2-2.5,0.3l-0.6-1.9c1-0.2,2-0.6,2.9-1.1c1.4-0.7,2.7-1.5,3.9-2.2c-1.2,0.1-2.3,0.2-3.3,0.3
			c-0.7,0.1-1.3,0.2-1.8,0.3l-0.5-1.6c0.6-0.2,1.2-0.6,1.8-1c0.9-0.7,1.9-1.4,2.9-2.3h-6.3v2.7h-1.7v-4.3h9.1v-2.2h-8.4v-1.6h8.4
			v-2.3h1.8v2.3h8.5v1.6h-8.5v2.2h9.1v4.3h-1.7v-2.7h-8.2c-1.5,1.3-2.9,2.4-4.2,3.3c1.7-0.1,3.4-0.1,5-0.2c1-0.7,1.9-1.3,2.8-2
			l1.3,1.1c-3.2,2.1-6.3,4-9.2,5.5c3-0.1,6.2-0.3,9.5-0.5c-0.7-0.7-1.4-1.3-2.2-2L454.4,897.3z M454.2,903c2.5,1.2,4.7,2.4,6.7,3.5
			c-0.4,0.6-0.8,1.1-1,1.6c-1.9-1.3-4.1-2.5-6.6-3.8L454.2,903z"/>
		<path class="st4" d="M462.1,903.1c0.6-0.1,1.3-0.2,1.9-0.3v-14.5h-1.6v-1.6h10.6v0.8h9.4v1.5c-0.8,5.8-2.1,10-3.7,12.7
			c1.4,2.1,3,3.7,4.9,4.9c-0.4,0.5-0.8,1-1.3,1.7c-1.5-1.2-3.1-2.9-4.5-5.1c-1.5,2.1-3.2,3.9-5.2,5.4c-0.4-0.6-0.8-1.1-1.1-1.5v1.5
			h-1.6v-5.1c-2.6,0.4-5.1,0.9-7.5,1.3L462.1,903.1z M465.6,891.9h4.2v-3.6h-4.2V891.9z M465.6,897h4.2v-3.6h-4.2V897z M469.8,901.9
			v-3.4h-4.2v4.1C467,902.4,468.4,902.2,469.8,901.9z M472.8,889.1v-0.8h-1.3v13.3c0.8-0.1,1.6-0.3,2.5-0.4c0,0.6-0.1,1.2-0.1,1.6
			c-0.8,0.1-1.6,0.3-2.4,0.4v3.8c2-1.3,3.8-3,5.3-5.3c-1.7-2.9-2.7-7.1-3.2-12.6H472.8z M480.8,889.1h-5.6c0.3,4.6,1.2,8.2,2.6,11
			C479,897.9,480,894.2,480.8,889.1z"/>
		<path class="st4" d="M484.6,898.2c1-0.3,2.1-0.6,3.2-1V892H485v-1.6h2.9v-4.6h1.7v4.6h2.7v1.6h-2.7v4.6c0.8-0.2,1.6-0.5,2.4-0.8
			c0,0.8,0,1.4,0,1.9c-0.7,0.2-1.5,0.5-2.4,0.8v7.1c0,1.7-0.6,2.6-1.9,2.6c-0.7,0-1.4,0-2.3,0c-0.1-0.7-0.2-1.3-0.3-2
			c0.9,0.1,1.5,0.1,2,0.1c0.6,0,0.9-0.4,0.9-1.1v-6.2c-0.9,0.3-1.9,0.7-3,1.1L484.6,898.2z M493.5,887.4c3.7,0,7.6-0.3,11.5-1
			l0.6,1.8c-4.3,0.5-7.8,0.8-10.4,0.8v5.5h11v1.7h-3.9v12.3h-1.7v-12.3h-5.3c0,5.6-1,9.8-3,12.4c-0.4-0.5-0.8-1-1.4-1.5
			c1.8-2.3,2.7-5.9,2.7-10.9V887.4z"/>
		<path class="st4" d="M507.4,907c3.7-0.9,6.2-2,7.6-3.2c1.6-1.4,2.4-3.6,2.4-6.5v-2.6h1.7v2.7c0,1.6-0.2,3-0.6,4.2
			c3.6,1.7,6.9,3.5,9.9,5.3l-1.1,1.8c-2.8-1.8-5.9-3.7-9.4-5.5c-0.5,1-1.2,1.8-2,2.4c-1.7,1.4-4.1,2.5-7.4,3.3
			C508.2,908.4,507.9,907.7,507.4,907z M510.2,891.6h6.1c0.2-0.8,0.4-1.9,0.6-3.1h-9.2v-1.7h20.7v1.7h-9.5c-0.3,1.2-0.6,2.3-0.9,3.1
			h8.1v11.2h-1.7v-9.4H512v9.5h-1.7V891.6z"/>
		<path class="st4" d="M42.7,927.6c0-0.4,0.1-0.8,0.4-1.1c0.3-0.3,0.6-0.4,1-0.4c0.4,0,0.7,0.1,1,0.4c0.3,0.3,0.4,0.6,0.4,1.1
			c0,0.4-0.1,0.8-0.4,1.1c-0.3,0.3-0.6,0.4-1,0.4c-0.4,0-0.7-0.1-1-0.4C42.8,928.3,42.7,928,42.7,927.6z"/>
		<path class="st4" d="M55.5,921.9v-1.7h8.6v1.7c-0.8,1.6-1.8,3.2-3,4.7v12h-1.7v-10.1c-1.2,1.4-2.6,2.7-4.1,3.9
			c-0.2-1-0.4-1.6-0.6-2c3.2-2.6,5.7-5.4,7.5-8.6H55.5z M58.4,916.5l1.3-1c0.8,1,1.5,2.1,2.3,3.1l-1.4,1.1
			C59.9,918.6,59.1,917.5,58.4,916.5z M61.5,927.8l1-1.2c1.3,0.9,2.5,2,3.8,3l-1.1,1.4C63.9,929.9,62.7,928.8,61.5,927.8z
			 M67.3,915.9H69v18.7c0,1,0.5,1.5,1.5,1.5h1.8c1,0,1.6-0.5,1.8-1.6c0.1-1.1,0.2-2.6,0.3-4.4c0.6,0.3,1.2,0.5,1.8,0.7
			c-0.2,2.2-0.3,3.8-0.5,4.7c-0.3,1.6-1.3,2.4-3.2,2.4h-2.3c-1.9,0-2.9-1-2.9-3.1V915.9z"/>
		<path class="st4" d="M78.5,927.8h8.2v10.8h-1.6V937h-4.9v1.6h-1.6V927.8z M85.1,929.4h-4.9v6h4.9V929.4z M80.6,916.6h14.9v9.3
			h-1.7v-0.8H82.3v0.8h-1.7V916.6z M93.8,918.2H82.3v5.2h11.4V918.2z M89.4,927.8h8.2v10.8H96V937h-5v1.6h-1.6V927.8z M96,929.4h-5
			v6.1h5V929.4z"/>
		<path class="st4" d="M100,930.3c1.4-2.3,2.5-5.1,3.3-8.3h-3v-1.6h3.2v-4.6h1.6v4.6h2.5v1.6H105v3.7l0.9-0.8c0.9,1,1.9,2,2.8,3.1
			l-1.2,1.2c-1.1-1.4-1.9-2.3-2.4-2.9v12.5h-1.6v-12.9c-0.8,2.5-1.7,4.7-2.7,6.4C100.5,931.7,100.3,931,100,930.3z M107.1,931h6.3
			v-3.8h-4.7v-1.6h4.7v-3.7h-5.2v-1.6h6.7c1.2-1.9,2.1-3.4,2.7-4.6l1.6,1.1c-0.7,1.1-1.6,2.3-2.5,3.5h3.9v1.6h-5.5v3.7h4.9v1.6h-4.9
			v3.8h6.2v1.6h-6.2v6.1h-1.7v-6.1h-6.3V931z M109.4,916.6l1.3-1c1.1,1.4,1.9,2.5,2.4,3.2l-1.5,1.1
			C110.8,918.5,110.1,917.4,109.4,916.6z"/>
		<path class="st4" d="M122.6,920h12c-0.1-1.4-0.1-3-0.1-4.6h1.8c0,1.5,0,3.1,0.1,4.6h7.4v1.8h-7.3c0.3,7.9,1.5,12.7,3.6,14.3
			c0.8,0.7,1.3,0.5,1.6-0.6c0.2-0.8,0.4-2,0.6-3.6c0.7,0.3,1.3,0.5,1.7,0.6c-0.3,1.8-0.6,3.3-0.9,4.4c-0.3,1.1-1,1.6-2,1.6
			c-1,0-2-0.5-3-1.6c-2.1-2.4-3.2-7.4-3.5-15.2h-12.1V920z M122.7,934.9c1.6-0.2,3.3-0.4,5-0.7v-6.6h-4.2v-1.8h10.1v1.8h-4.2v6.3
			c1.7-0.3,3.4-0.5,5.2-0.8c0,0.6,0,1.2,0,1.9c-4.3,0.7-8.1,1.3-11.5,1.9L122.7,934.9z M138,916.8l1-1.2c1,0.8,2.1,1.7,3.1,2.8
			l-1.2,1.4C140,918.8,139,917.8,138,916.8z"/>
		<path class="st4" d="M154.8,929.1c0,1,0.1,1.8,0.2,2.2c-3.5,2.4-5.6,3.8-6.4,4.5c-0.5,0.4-0.9,0.8-1.4,1.2l-1.2-1.9
			c0.7-0.7,1-1.4,1-2.4v-16.3h1.8v16.8C150.3,932.2,152.4,930.8,154.8,929.1z M161.5,916.1h1.8v4.2c0,4.3-0.5,7.8-1.5,10.3
			c1.8,2,3.5,4,5,5.9l-1.5,1.5c-1.5-2-2.9-3.9-4.4-5.7c-1.7,2.7-4.2,4.9-7.5,6.4c-0.3-0.5-0.7-1-1.2-1.6c3.6-1.8,6.1-3.9,7.3-6.3
			c1.3-2.3,2-5.9,2-10.6V916.1z M154,915.6c1,1.7,2,3.6,3.2,6l-1.7,1c-1.1-2.4-2.1-4.4-3.1-6.1L154,915.6z"/>
		<path class="st4" d="M167.9,937c5.3-1.1,8.7-2.8,10.2-5.1h-9.9v-1.7H179c0.5-1.6,0.7-4.5,0.7-8.5h1.8c0,4-0.2,6.9-0.6,8.5h8.2v1.7
			h-8.8c-0.1,0.2-0.3,0.5-0.4,0.8c3.1,1.4,6.1,2.9,9,4.4l-0.9,1.8c-3.1-1.7-6.1-3.3-9.1-4.8c-2,2.1-5.2,3.7-9.8,4.8
			C168.6,938.2,168.3,937.5,167.9,937z M168.7,918.9h9.9c-0.4-0.7-0.8-1.5-1.4-2.5l1.6-1c0.5,0.7,1,1.6,1.7,2.7l-1.2,0.7h9.2v4.2
			h-1.7v-2.5h-16.3v2.5h-1.7V918.9z M171.3,925.3c1.7,0.8,3.2,1.7,4.7,2.6l-0.9,1.6c-1.4-1-3-1.8-4.5-2.7L171.3,925.3z M173.3,921.7
			c1.7,0.9,3.2,1.8,4.5,2.6l-1,1.6c-1.3-0.9-2.8-1.9-4.4-2.9L173.3,921.7z"/>
		<path class="st4" d="M190.5,929.6c1.3-0.5,2.7-1,4.1-1.5v-5.5h-2c-0.3,1.5-0.6,2.8-1,4.1c-0.5-0.4-0.9-0.7-1.4-1
			c0.8-2.1,1.3-4.7,1.5-7.7l1.6,0.3c-0.1,1-0.2,1.9-0.4,2.8h1.7v-5.3h1.6v5.3h2.1v1.6h-2.1v4.9c0.7-0.3,1.4-0.6,2.2-0.9
			c0.1,0.7,0.2,1.3,0.2,1.8c-0.7,0.3-1.5,0.6-2.4,1v9.3h-1.6V930c-1.1,0.5-2.4,1-3.8,1.6L190.5,929.6z M197.5,924.8
			c1.4-2.4,2.7-5.5,3.9-9.3l1.6,0.5c-0.4,1.2-0.8,2.4-1.2,3.5h9.4c-0.3,6.3-0.5,11.1-0.7,14.5c-0.2,2.6-1.3,3.9-3.5,3.9
			c-0.8,0-1.8,0-2.8-0.1c-0.1-0.6-0.2-1.2-0.3-2c1.2,0.2,2.2,0.2,3,0.2c1.2,0,1.8-0.7,1.9-2.2c0.3-3.3,0.5-7.5,0.7-12.7h-1.6
			c-0.4,4-1,7.1-1.8,9.4c-1.1,3-3.1,5.5-5.9,7.6c-0.3-0.5-0.7-1-1.1-1.4c2.7-2.1,4.5-4.4,5.6-7.1c0.8-2.2,1.4-5,1.6-8.5h-1.9
			c-0.4,3-1,5.4-1.7,7.2c-0.9,2-2.2,3.9-3.9,5.5c-0.4-0.5-0.7-1-1.1-1.4c1.6-1.5,2.9-3.2,3.6-4.9c0.8-1.7,1.3-3.9,1.5-6.4h-1.6
			c-0.7,1.8-1.5,3.3-2.2,4.5C198.5,925.4,198.1,925.1,197.5,924.8z"/>
		<path class="st4" d="M214,921.7h8.1c0.2-1.9,0.3-4,0.3-6.2h1.9c0,2.3-0.1,4.4-0.3,6.2h9.2c-0.1,4.8-0.2,8.8-0.4,12
			c-0.1,2.9-1.6,4.4-4.3,4.4c-1.1,0-2.5,0-4-0.1c-0.1-0.6-0.2-1.3-0.3-2.2c1.4,0.2,2.7,0.3,4,0.3c1.7,0,2.6-0.9,2.7-2.8
			c0.2-3.1,0.3-6.3,0.4-9.8h-7.5c-1.1,6.9-4,12-8.9,15.4c-0.4-0.5-0.8-1.1-1.3-1.7c4.5-2.9,7.2-7.4,8.3-13.6H214V921.7z M215.6,917
			l1.2-1.2c1.2,1.1,2.3,2.3,3.4,3.5l-1.3,1.3C217.8,919.4,216.7,918.2,215.6,917z M224.3,927.7l1.2-1.1c1.4,1.4,2.6,2.8,3.8,4.1
			l-1.3,1.3C226.8,930.6,225.6,929.2,224.3,927.7z"/>
		<path class="st4" d="M237.3,916.8c1.2,1.5,2.4,3.1,3.6,4.8c-0.1,0.1-0.6,0.5-1.5,1.4c-1.1-1.6-2.2-3.3-3.5-5L237.3,916.8z
			 M239.2,926.4c0.6,0.3,1.1,0.6,1.6,0.8c-1,3.2-2,6.5-3,9.7L236,936C237.1,933.2,238.2,930,239.2,926.4z M240.3,925.1
			c2.1-2.8,3.7-6,5-9.6l1.6,0.6c-0.5,1.2-1,2.3-1.5,3.4h11.3v1.6h-5.2v3.5h4.7v1.6h-4.7v3.5h4.7v1.6h-4.7v3.8h5.5v1.6H245v1.9h-1.7
			v-14.9c-0.6,1-1.2,1.9-1.8,2.8C241.2,926.1,240.8,925.6,240.3,925.1z M245,924.7h4.9v-3.5H245V924.7z M245,929.8h4.9v-3.5H245
			V929.8z M245,935.2h4.9v-3.8H245V935.2z M249,916.3l1.4-1c0.6,0.8,1.2,1.7,1.9,2.8l-1.5,1.1C250.1,918.1,249.5,917.2,249,916.3z"
			/>
		<path class="st4" d="M270.3,932.6l-1.8,6.2h-1.5l1.3-6.2H270.3z"/>
		<path class="st4" d="M281.2,929.1h3.3c0.3-0.6,0.6-1.2,0.9-1.8l1.6,0.5c-0.2,0.4-0.5,0.9-0.7,1.3h5.3v1.5c-0.5,1.5-1.4,2.9-2.5,4
			c0.8,0.4,1.6,0.8,2.4,1.2l-0.9,1.6c-0.9-0.5-1.8-1.1-2.8-1.6c-1.6,1.3-3.7,2.3-6.1,3c-0.2-0.5-0.5-1-0.7-1.6
			c2.1-0.5,3.9-1.3,5.3-2.2c-1.2-0.7-2.5-1.4-3.9-2.1c0.5-0.7,0.9-1.5,1.3-2.2h-2.5V929.1z M281.5,921.1h5v-5.2h1.6v5.2h4.1v1.5H288
			v1.4l0.6-0.8c1.3,1.1,2.5,2,3.4,2.8l-1,1.3c-0.8-0.8-1.8-1.7-3-2.7v2.7h-1.6V924c-1.3,1.5-2.8,2.8-4.6,3.9
			c-0.3-0.5-0.6-0.9-0.9-1.4c1.8-1.1,3.5-2.4,5-3.9h-4.4V921.1z M282,917.4l1.2-0.9c0.6,0.9,1.3,1.8,2,2.8l-1.3,1
			C283.3,919.3,282.6,918.4,282,917.4z M284.5,932.4c1,0.5,2.1,1,3.1,1.6c1-0.9,1.8-2,2.3-3.3h-4.5
			C285.1,931.3,284.8,931.8,284.5,932.4z M291.2,916.4l1.3,1c-0.8,1.1-1.6,2.2-2.4,3.1c-0.3-0.3-0.7-0.6-1.2-1
			C289.7,918.6,290.5,917.5,291.2,916.4z M295.1,915.6l1.7,0.3c-0.3,1.5-0.7,2.9-1.1,4.2h6.6v1.6H301c-0.4,4.6-1.3,8.2-2.8,10.9
			c1.2,1.7,2.6,3.1,4.4,4.2c-0.5,0.7-0.8,1.3-1.2,1.9c-1.8-1.2-3.2-2.7-4.4-4.4c-1.3,1.8-2.9,3.3-4.7,4.6c-0.3-0.5-0.7-0.9-1.2-1.5
			c2-1.4,3.6-3.1,4.9-4.9c-1.2-2.2-1.9-4.7-2.3-7.6c-0.3,0.6-0.6,1.1-0.9,1.6c-0.3-0.5-0.6-1-1.1-1.5
			C293.4,922.5,294.5,919.4,295.1,915.6z M299.3,921.7h-4c-0.1,0.2-0.2,0.4-0.2,0.6c0.3,3.3,1,6.1,2.2,8.5
			C298.3,928.5,299,925.5,299.3,921.7z"/>
		<path class="st4" d="M303.7,936.5h9.9v-1.3H305V934h8.6v-1.3h-5.1v0.6H307v-7.2h14.8v7.2h-1.5v-0.6h-5.2v1.3h8.7v1.2h-8.7v1.3h9.9
			v1.3h-21.3V936.5z M303.9,923.7h21v1.3h-21V923.7z M307.2,916.5h14.4v6.7h-1.5v-0.6h-11.5v0.6h-1.5V916.5z M308.5,928.8h5.1v-1.5
			h-5.1V928.8z M308.5,931.4h5.1v-1.5h-5.1V931.4z M320.2,917.7h-11.5v1.2h11.5V917.7z M308.7,921.3h11.5v-1.3h-11.5V921.3z
			 M320.3,927.3h-5.2v1.5h5.2V927.3z M315.1,931.4h5.2v-1.5h-5.2V931.4z"/>
		<path class="st4" d="M332.4,938.6h-1.7v-12.1c-1,1.3-2.2,2.6-3.4,3.8c-0.3-0.5-0.6-1.1-1-1.7c2.8-2.5,4.9-5.3,6.5-8.4h-5.9v-1.7
			h6.7c0.4-1,0.8-2,1.1-3l1.8,0.4c-0.3,0.9-0.6,1.7-0.9,2.6h12.2v1.7h-13c-0.4,0.9-0.9,1.8-1.5,2.7H345v12.5c0,1.9-0.9,2.9-2.6,2.9
			c-0.8,0-1.9,0-3.5,0c-0.1-0.5-0.2-1.2-0.3-1.9c1.3,0.1,2.4,0.2,3.2,0.2c1,0,1.5-0.5,1.5-1.6v-1.7h-10.9V938.6z M343.2,924.5h-10.9
			v2.8h10.9V924.5z M332.4,931.7h10.9v-2.8h-10.9V931.7z"/>
		<path class="st4" d="M356.4,929.5c0.4,3-0.3,4.7-2,5c-0.6,0.1-1.4,0.2-2.2,0c-0.1-0.6-0.3-1.3-0.5-2c0.8,0.2,1.4,0.3,2,0.2
			c1-0.2,1.3-1.3,1-3.4c-0.2-1.2-0.9-2.7-2-4.2c0.5-1.7,1.2-4,2-6.8h-3.2v20.5H350v-22.1h6.5v1.6c-0.7,2.2-1.4,4.4-2,6.5
			C355.6,926.6,356.3,928.1,356.4,929.5z M357.8,916.8H368v11.7h-1.6v-0.6h-3.6c0.4,1.4,1.1,2.7,1.8,3.8c1.3-0.9,2.7-2,4.1-3.3
			l1.1,1.5c-1.6,1.2-3,2.2-4.2,3.1c1.3,1.4,2.8,2.5,4.7,3.3c-0.5,0.6-1,1.1-1.4,1.7c-4-2.3-6.6-5.6-7.7-10.1h-1.9v8
			c1-0.5,2.2-1.2,3.8-2.1c0,0.7,0.1,1.3,0.1,1.9c-1.3,0.7-2.5,1.4-3.7,2.2c-0.3,0.2-0.7,0.5-1.2,1l-1.2-1.8c0.4-0.4,0.6-0.9,0.6-1.5
			V916.8z M366.5,918.4h-7v3.1h7V918.4z M366.5,926.3v-3.2h-7v3.2H366.5z"/>
		<path class="st4" d="M383.4,932.6l-1.8,6.2h-1.5l1.3-6.2H383.4z"/>
		<path class="st4" d="M403.2,936.5c3.2,0.1,7.3,0,12.4-0.1c-0.2,0.6-0.5,1.2-0.7,1.8c-5.1,0-9.1,0-11.9,0c-2.6-0.1-4.4-1-5.5-2.7
			c-0.4,0.4-1.3,1.4-2.5,3l-0.9-2c0.9-0.9,1.8-1.7,2.7-2.6v-8.2h-2.5V924h4.1v10.3C399.5,935.6,401.1,936.4,403.2,936.5z
			 M396.4,915.9c1.1,1.4,2.2,2.9,3.3,4.6l-1.6,1.1c-0.9-1.6-2-3.1-3.1-4.6L396.4,915.9z M400.1,925.9h6.4c0-0.3,0-1.6,0-3.9h-5.7
			v-1.6h7.4c1.4-1.9,2.4-3.5,3-4.8l1.7,1.1c-0.6,0.8-1.5,2-2.8,3.7h4.5v1.6h-6.4c0,2,0,3.3,0,3.9h7v1.6h-7.1c0,0.4-0.1,0.8-0.2,1.2
			c2.3,1.6,4.5,3.3,6.6,5l-1.1,1.6c-2.2-1.9-4.2-3.5-6-4.9c-1,2.2-2.9,3.9-5.8,5.2c-0.4-0.5-0.8-1-1.2-1.5c3.7-1.6,5.7-3.8,6-6.6
			h-6.3V925.9z M402.4,916.7l1.3-1.1c0.7,0.9,1.6,1.9,2.5,3.2l-1.5,1.1C403.9,918.6,403.1,917.5,402.4,916.7z"/>
		<path class="st4" d="M417.4,928.2h20.3v1.7h-7v5c0,1,0.5,1.5,1.4,1.5h2.3c1,0,1.5-0.4,1.6-1.1c0.1-0.7,0.2-1.7,0.2-3.1
			c0.5,0.2,1.1,0.5,1.9,0.7c-0.1,1.3-0.2,2.3-0.4,3.1c-0.2,1.3-1.1,2-2.6,2h-3.5c-1.8,0-2.7-1-2.7-3v-5.2h-3.9
			c0,4.4-2.4,7.3-7.1,8.8c-0.3-0.5-0.6-1.1-1.1-1.7c4.3-1.1,6.4-3.5,6.5-7.1h-6V928.2z M417.6,918.5h9.2c-0.3-0.6-0.6-1.4-1.1-2.2
			l1.7-0.8c0.6,1.2,1,2.2,1.4,3.1h8.6v4.3h-1.8v-2.6h-16.3v2.6h-1.8V918.5z M420.1,923.3h15.2v1.6h-15.2V923.3z"/>
		<path class="st4" d="M446.7,929.3c1.8,2.3,3.2,4.3,4.4,6l-1.4,1.1c-0.5-0.8-1.1-1.6-1.7-2.5c-2.1,1.1-3.9,2-5.4,2.8
			c-0.5,0.3-0.9,0.6-1.3,1l-1.2-1.5c0.4-0.5,0.7-1.1,0.7-1.8v-17.3h8.7v12.1h-1.6v-0.6h-5.4v6.2c1.4-0.6,2.9-1.4,4.6-2.2
			c-0.5-0.8-1.1-1.6-1.7-2.4L446.7,929.3z M447.9,918.8h-5.4v3.3h5.4V918.8z M447.9,927v-3.3h-5.4v3.3H447.9z M452,917.4h7.6v14.2
			c0,2-0.9,3-2.7,3c-0.6,0-1.5,0-2.5,0c-0.1-0.7-0.2-1.4-0.3-2c1.1,0.1,1.9,0.2,2.4,0.2c0.9,0,1.4-0.5,1.4-1.6v-11.9h-4.3v19.6H452
			V917.4z"/>
		<path class="st4" d="M462.3,934.9h3.8v-14.9h1.8v14.9h5.3v-19.3h1.9v6.9h7.2v1.9h-7.2v10.5h8.4v1.9h-21.1V934.9z"/>
	</g>
	<rect x="0" y="0" class="st5" width="581" height="964"/>
</g>
<g>
</g>
<g>
</g>
<g>
</g>
<g>
</g>
<g>
</g>
<g>
</g>
<g>
</g>
<g>
</g>
<g>
</g>
<g>
</g>
<g>
</g>
<g>
</g>
<g>
</g>
<g>
</g>
<g>
</g>
</svg>
