<?xml version="1.0" encoding="utf-8"?>
<!-- Generator: Adobe Illustrator 17.0.0, SVG Export Plug-In . SVG Version: 6.00 Build 0)  -->
<!DOCTYPE svg PUBLIC "-//W3C//DTD SVG 1.1//EN" "http://www.w3.org/Graphics/SVG/1.1/DTD/svg11.dtd">
<svg version="1.1" id="Layer_1" xmlns="http://www.w3.org/2000/svg" xmlns:xlink="http://www.w3.org/1999/xlink" x="0px" y="0px"
	 width="720px" height="281.2px" viewBox="0 0 720 281.2" style="enable-background:new 0 0 720 281.2;" xml:space="preserve">
<style type="text/css">
	.st0{fill-rule:evenodd;clip-rule:evenodd;fill:#FF836D;}
	.st1{fill:#DB6450;}
	.st2{fill:none;}
	.st3{fill:#F8D3CD;}
	.st4{fill:#FFFFFF;}
	.st5{fill:#F1725D;}
	.st6{fill:#FF836D;}
</style>
<g id="_x31_-2.svg">
	<circle class="st0" cx="455.5" cy="187.5" r="27.5"/>
	<path class="st1" d="M437.3,186.7c0-8.8,4.8-15.3,10.9-15.3c6.2,0,10.9,6.5,10.9,15.3c0,8.6-4.7,15-10.9,15
		C442.1,201.8,437.3,195.4,437.3,186.7z M455.3,186.7c0-7.1-3.3-11.1-7.2-11.1c-3.8,0-7.1,4-7.1,11.1c0,7,3.3,10.8,7.1,10.8
		C451.9,197.5,455.3,193.7,455.3,186.7z M462.7,172.2h3.5v4.9c1.8-4.1,5-5.6,7.5-5.2v4.7c-4-0.4-7.3,2-7.3,7.8v16.7h-3.6V172.2z"/>
	<path class="st2" d="M256.6,49.5c1.4,1.2,2.7,2.3,3.8,3.4c-0.6,0.7-1,1.2-1.4,1.6c-1.2-1.3-2.4-2.5-3.6-3.6L256.6,49.5z M256,66.5
		c0.8-2.7,1.5-5.9,2.2-9.7c0.7,0.3,1.3,0.6,1.9,0.8c-0.7,3-1.4,6.2-2.1,9.5L256,66.5L256,66.5z M257.4,42.8c1.1,0.9,2.2,1.9,3.3,3
		c-0.5,0.5-0.9,1.1-1.3,1.5c-1-1.2-2.1-2.2-3.2-3.2L257.4,42.8z M261.2,49.7h17.4v1.7h-5.2c0,0.9,0,1.7,0,2.6h4.5v10.1
		c0,2-0.9,3-2.6,3c-0.8,0-1.6,0-2.5-0.1c-0.1-0.6-0.2-1.3-0.4-2c1,0.1,1.8,0.2,2.5,0.2c0.9,0,1.4-0.5,1.4-1.5V62
		c-0.3,0.3-0.7,0.7-1.2,1.2c-0.8-1.2-1.7-2.2-2.4-3.2c-0.6,1.9-1.6,3.5-2.9,4.8c-0.3-0.5-0.7-0.9-1.2-1.4c1.9-1.7,2.9-4.3,3.2-7.6
		h-3.8c0,0.7-0.1,1.3-0.2,1.9c0.9,0.9,1.7,1.8,2.6,2.7c-0.1,0.1-0.6,0.6-1.3,1.3c-0.6-0.7-1.2-1.5-1.8-2.1c-0.6,1.8-1.5,3.4-2.8,4.7
		c-0.3-0.3-0.6-0.7-0.9-1.1v4.1h-1.7V54h4.4c0-0.9,0-1.7,0-2.6h-5.1V49.7z M261.3,45.2h4.5v-2.8h1.8v2.8h5v-2.8h1.8v2.8h4.5V47h-4.5
		v2.2h-1.8V47h-5v2.2h-1.8V47h-4.5V45.2z M263.6,62.6c1.6-1.6,2.5-3.9,2.7-6.8h-2.7V62.6z M268,51.4c0,0.7,0,1.6,0,2.6h3.9
		c0-0.8,0-1.7,0-2.6H268L268,51.4z M276.3,55.7h-2.8c0,0.8-0.1,1.6-0.3,2.3c1.3,1.4,2.3,2.6,3.1,3.6V55.7z M295.4,43.4l-4.8,10.8
		h3.8v2.4H290v3.3h4.4v2.4H290V67h-2.3v-4.8h-4.6v-2.4h4.6v-3.3h-4.6v-2.4h3.9l-4.8-10.8h2.6c2.2,5.3,3.6,8.7,4.1,10.2h0
		c0.2-0.6,0.6-1.8,1.3-3.6l2.7-6.6H295.4z"/>
	<path class="st3" d="M310.5,68.2V29.7h-4.9v-4.9c2.9-0.2,5.5-1.6,5.9-5.5h4.8v48.8H310.5z M331.1,68.8c-5.7,0-9.2-3.9-9.2-10.6
		V29.3c0-6.7,3.6-10.6,9.2-10.6c5.7,0,9.2,3.9,9.2,10.6v28.9C340.3,64.9,336.7,68.8,331.1,68.8z M334.6,29.6c0-3.4-1.5-5-3.6-5
		s-3.6,1.6-3.6,5v28.3c0,3.4,1.4,5,3.6,5s3.6-1.6,3.6-5V29.6z M345.9,77v-3.4c2.1-0.4,3.1-1.9,3.1-4.5v-1h-3.6v-7.7h6.6v8.7
		C352.1,74.2,349,76.7,345.9,77z M366.1,68.8c-5.7,0-9.2-3.9-9.2-10.6V29.3c0-6.7,3.6-10.6,9.2-10.6c5.7,0,9.2,3.9,9.2,10.6v28.9
		C375.4,64.9,371.8,68.8,366.1,68.8z M369.7,29.6c0-3.4-1.5-5-3.6-5c-2.1,0-3.6,1.6-3.6,5v28.3c0,3.4,1.5,5,3.6,5
		c2.1,0,3.6-1.6,3.6-5V29.6z M389.8,68.8c-5.7,0-9.2-3.9-9.2-10.6V29.3c0-6.7,3.6-10.6,9.2-10.6c5.7,0,9.2,3.9,9.2,10.6v28.9
		C399.1,64.9,395.5,68.8,389.8,68.8z M393.4,29.6c0-3.4-1.5-5-3.6-5c-2.1,0-3.6,1.6-3.6,5v28.3c0,3.4,1.5,5,3.6,5
		c2.1,0,3.6-1.6,3.6-5V29.6z M413.5,68.8c-5.7,0-9.2-3.9-9.2-10.6V29.3c0-6.7,3.6-10.6,9.2-10.6c5.7,0,9.2,3.9,9.2,10.6v28.9
		C422.8,64.9,419.2,68.8,413.5,68.8z M417.1,29.6c0-3.4-1.5-5-3.6-5c-2.1,0-3.6,1.6-3.6,5v28.3c0,3.4,1.5,5,3.6,5
		c2.1,0,3.6-1.6,3.6-5V29.6z"/>
	<path class="st4" d="M256.6,49.5c1.4,1.2,2.7,2.3,3.8,3.4c-0.6,0.7-1,1.2-1.4,1.6c-1.2-1.3-2.4-2.5-3.6-3.6L256.6,49.5z M256,66.5
		c0.8-2.7,1.5-5.9,2.2-9.7c0.7,0.3,1.3,0.6,1.9,0.8c-0.7,3-1.4,6.2-2.1,9.5L256,66.5L256,66.5z M257.4,42.8c1.1,0.9,2.2,1.9,3.3,3
		c-0.5,0.5-0.9,1.1-1.3,1.5c-1-1.2-2.1-2.2-3.2-3.2L257.4,42.8z M261.2,49.7h17.4v1.7h-5.2c0,0.9,0,1.7,0,2.6h4.5v10.1
		c0,2-0.9,3-2.6,3c-0.8,0-1.6,0-2.5-0.1c-0.1-0.6-0.2-1.3-0.4-2c1,0.1,1.8,0.2,2.5,0.2c0.9,0,1.4-0.5,1.4-1.5V62
		c-0.3,0.3-0.7,0.7-1.2,1.2c-0.8-1.2-1.7-2.2-2.4-3.2c-0.6,1.9-1.6,3.5-2.9,4.8c-0.3-0.5-0.7-0.9-1.2-1.4c1.9-1.7,2.9-4.3,3.2-7.6
		h-3.8c0,0.7-0.1,1.3-0.2,1.9c0.9,0.9,1.7,1.8,2.6,2.7c-0.1,0.1-0.6,0.6-1.3,1.3c-0.6-0.7-1.2-1.5-1.8-2.1c-0.6,1.8-1.5,3.4-2.8,4.7
		c-0.3-0.3-0.6-0.7-0.9-1.1v4.1h-1.7V54h4.4c0-0.9,0-1.7,0-2.6h-5.1V49.7z M261.3,45.2h4.5v-2.8h1.8v2.8h5v-2.8h1.8v2.8h4.5V47h-4.5
		v2.2h-1.8V47h-5v2.2h-1.8V47h-4.5V45.2z M263.6,62.6c1.6-1.6,2.5-3.9,2.7-6.8h-2.7V62.6z M268,51.4c0,0.7,0,1.6,0,2.6h3.9
		c0-0.8,0-1.7,0-2.6H268L268,51.4z M276.3,55.7h-2.8c0,0.8-0.1,1.6-0.3,2.3c1.3,1.4,2.3,2.6,3.1,3.6V55.7z M295.4,43.4l-4.8,10.8
		h3.8v2.4H290v3.3h4.4v2.4H290V67h-2.3v-4.8h-4.6v-2.4h4.6v-3.3h-4.6v-2.4h3.9l-4.8-10.8h2.6c2.2,5.3,3.6,8.7,4.1,10.2h0
		c0.2-0.6,0.6-1.8,1.3-3.6l2.7-6.6H295.4z"/>
	<g>
		<polygon class="st2" points="720,0 0,0 0,281.2 74,281.2 74.4,90 102.4,106.2 102.4,89 278,189.4 115.9,281.2 720,281.2 		"/>
		<polygon class="st2" points="84.2,281.2 102,281.2 102,270.9 		"/>
		<polygon class="st5" points="102.4,89 102.4,106.2 245,188.9 102,270.9 102,281.2 115.9,281.2 278,189.4 		"/>
		<polygon class="st6" points="102.4,106.2 74.4,90 74,281.2 84.2,281.2 102,270.9 245,188.9 		"/>
	</g>
	<path class="st4" d="M95.4,216.2h-1.5v-9.5c-1.3,1.4-2.6,2.4-3.9,2.9l-0.9-1.3c3.2-1.4,5.4-4.2,6.7-8.3h-6.1v-1.5h7.9
		c-0.4,2.4-1.2,4.5-2.3,6.1V216.2z M89.1,185.3c1.6-1,3-2.8,4.2-5.3l1.2,0.7c-0.7,2-2.2,3.8-4.4,5.6c-0.1-0.1-0.3-0.2-0.5-0.5
		C89.4,185.5,89.3,185.4,89.1,185.3L89.1,185.3z M94.8,198c-0.8-1.3-1.8-2.4-3-3.2l1-1c1.4,1,2.5,2.1,3.1,3.2L94.8,198L94.8,198z
		 M92.9,178.8v-8.2h5.3v-6.9h1.5v2.6h8.8v1.4h-8.8v3h6.8v8.2H92.9z M94.4,177.5h10.6V172H94.4V177.5z M97.1,180.6
		c1,1.4,1.9,2.9,2.5,4.7l-1.4,0.4c-0.4-1.5-1.2-3.1-2.5-4.8C96.1,180.8,96.6,180.7,97.1,180.6L97.1,180.6z M98.5,209.4
		c-0.7-1.3-1.6-2.4-2.8-3.3l1-1c1.2,1,2.2,2.2,3,3.4L98.5,209.4L98.5,209.4z M101.7,180.5c1.3,1.3,2.3,2.9,3,4.8l-1.3,0.5
		c-0.8-1.8-1.7-3.3-3-4.7L101.7,180.5L101.7,180.5z M101.8,213.6v-19.2h1.5v19.4c0,0.5,0.3,0.8,0.8,0.8h3.9c0.8,0,1.3-1,1.4-2.9
		l1.3,0.9c-0.3,1.6-0.6,2.5-1,2.9c-0.4,0.4-0.9,0.6-1.6,0.6h-4.6c-0.6,0-1-0.2-1.3-0.5C102,215.2,101.8,214.5,101.8,213.6z
		 M109.2,185.9c-1-2-2.3-3.7-3.9-5.1l1.1-0.7c1.7,1.6,3.1,3.3,4.1,5.1L109.2,185.9L109.2,185.9z M112.7,175v-1.5h9.5v-4.4H114v-1.5
		h8.1v-4h1.5v4h8v1.5h-8v4.4h9.5v1.5h-9.5v8.1h6v-7.1h1.5v10.4h-1.5v-1.8h-13.3v1.8h-1.5v-10.4h1.5v7.1h5.8V175H112.7z M121.4,205.3
		v11.2H120v-1.8h-4.9v1.8h-1.5v-11.2H121.4z M120,206.8h-4.9v6.4h4.9V206.8z M116,202.9v-8.1h13.5v8.1H116z M117.4,201.5H128v-5.2
		h-10.6V201.5z M130.5,214.6h-5v1.8H124v-11.1h8v11.1h-1.5V214.6z M125.5,213.1h5v-6.4h-5V213.1z M146.8,173.1h-1.5v-4.7h-0.1
		c-1.2,2-3,3.7-5.2,5.3v0h12.7v8.3h-13.5v-7.6c-1.8,1.1-2.7,1.7-3,1.8l-1-1.1c3.9-2,6.6-4.2,8.3-6.6h-7.4v-1.5h9.2v-3.1h1.5v3.1h9.2
		v1.5h-7.1c2.8,2.8,5.7,4.9,8.6,6.3l-1.2,1.2c-3.5-2-6.6-4.5-9.3-7.5h-0.2V173.1z M144.3,210.7v1.7l-4.6,2.6l-0.9-1.3
		c0.4-0.3,0.6-0.8,0.6-1.3v-9.4h-3.6v-1.5h5.1v11.1L144.3,210.7z M156.3,185.1h-20.5v-1.5h20.5V185.1z M140.6,199
		c-0.6-1.2-1.5-2.4-2.9-3.6l1-0.9c1.3,0.9,2.3,2.1,3.1,3.6L140.6,199L140.6,199z M151.2,177.1v-1.9h-10.6v1.9H151.2z M151.2,180.5
		v-2h-10.6v2H151.2z M143.9,198.3h6.4c1.3-1.2,2.2-2.8,2.9-4.8l1.4,0.8c-0.6,1.5-1.4,2.9-2.4,4h3.5v1.5h-5.1v3.5h4.3v1.5h-4.3v3.9
		h5.7v1.5h-5.7v6.3h-1.5v-6.3h-5.7v-1.5h5.7v-3.9h-4.3v-1.5h4.3v-3.5h-5.2V198.3z M145.9,193.4c1.5,0.9,2.5,2.1,3.1,3.7l-1.2,0.8
		c-0.6-1.5-1.6-2.7-3.1-3.6L145.9,193.4L145.9,193.4z M161.4,199.1c0,1.6-0.6,3.5-1.8,5.7l-1.4-0.7c1.2-2,1.8-3.8,1.9-5.4
		L161.4,199.1L161.4,199.1z M165.2,186.5h-1.5v-10.1c-1.4,1.2-2.7,2.1-3.8,2.8l-1.1-1.2c0.1-0.1,0.3-0.2,0.7-0.4
		c2.3-1.4,4.2-3,5.6-5h-5.4v-1.4h6.3c0.2-0.3,0.5-0.9,0.8-1.7h-5.1v-1.4h5.6c0.1-0.4,0.3-0.9,0.3-1.4l-6.4,0.3l-0.7-1.5
		c6.2,0,11.5-0.5,15.8-1.5l0.6,1.2c-3,0.7-5.6,1.2-7.8,1.3c0,0.4-0.1,0.9-0.3,1.5h7.6v1.4h-8c-0.4,0.9-0.6,1.5-0.8,1.7h11.2v1.4H167
		c-0.2,0.3-0.6,0.8-1.2,1.5h10.1v12.3h-1.5V185h-9.2V186.5z M163.4,199.4l0.9-0.5c1,1.5,1.5,2.3,1.5,2.5h5.9v-1.7h-4.4v-1.5h4.4
		v-1.5h-5.4v-1.5h5.4v-1.8h1.5v1.8h5.6v1.5h-5.6v1.5h4.4v1.5h-4.4c0,0.3,0,0.9,0,1.7h6.8v1.5h-14.1l-1,0.4c-0.2-0.9-0.7-1.9-1.4-3
		h-0.1v16.1h-1.5v-22.4h1.5V199.4z M165.2,175.6v1.6h9.2v-1.6H165.2z M174.4,178.5h-9.2v1.8h9.2V178.5z M165.2,181.7v1.9h9.2v-1.9
		H165.2z M177.8,204.5v9.9c-0.1,0.3-0.2,0.6-0.4,0.9c-0.2,0.3-0.5,0.5-0.7,0.6c-0.3,0.1-0.7,0.2-1.3,0.2l-1.7,0l-0.5-1.5
		c0.3,0,0.6,0,1,0c1,0,1.5-0.1,1.7-0.2c0.2-0.1,0.3-0.3,0.4-0.6c0.1-0.3,0.1-0.8,0.1-1.5h-7.6v4.1h-1.5v-12H177.8z M176.3,207.6V206
		h-7.6v1.6H176.3z M176.3,210.9V209h-7.6v1.9H176.3z"/>
</g>
<g>
</g>
<g>
</g>
<g>
</g>
<g>
</g>
<g>
</g>
<g>
</g>
<g>
</g>
<g>
</g>
<g>
</g>
<g>
</g>
<g>
</g>
<g>
</g>
<g>
</g>
<g>
</g>
<g>
</g>
</svg>
