<?xml version="1.0" encoding="utf-8"?>
<!-- Generator: Adobe Illustrator 17.0.0, SVG Export Plug-In . SVG Version: 6.00 Build 0)  -->
<!DOCTYPE svg PUBLIC "-//W3C//DTD SVG 1.1//EN" "http://www.w3.org/Graphics/SVG/1.1/DTD/svg11.dtd">
<svg version="1.1" id="Layer_1" xmlns="http://www.w3.org/2000/svg" xmlns:xlink="http://www.w3.org/1999/xlink" x="0px" y="0px"
	 width="581px" height="964px" viewBox="0 0 581 964" style="enable-background:new 0 0 581 964;" xml:space="preserve">
<style type="text/css">
	.st0{fill-rule:evenodd;clip-rule:evenodd;fill:none;}
	.st1{fill:#333333;}
	.st2{fill-rule:evenodd;clip-rule:evenodd;fill:#DF9431;}
	.st3{fill:#FFFFFF;}
	.st4{fill:#DB8937;}
	.st5{fill:#999999;}
</style>
<g id="_x31_-3-detail.svg">
	<rect x="0" y="0" class="st0" width="581" height="964"/>
	<path class="st1" d="M142.2,785.7v-23.4h2.5v21.3h11.1v2.1H142.2z M177.1,785.7l-8.9-23.4h-2.6l-8.7,23.4h2.6l2.6-7.1h9.8l2.7,7.1
		H177.1z M166.4,766.4c0.1-0.4,0.3-0.9,0.5-1.6c0.2,0.7,0.4,1.3,0.4,1.6l3.6,10h-8.1L166.4,766.4z M193.7,785.7l-11.2-18.8
		c-0.4-0.6-0.7-1.4-1-2.3h-0.1c0.2,0.9,0.3,2.2,0.3,3.9v17.2h-2.4v-23.4h2.8l11.1,18.9c0.4,0.8,0.7,1.4,0.9,1.9h0.1
		c-0.1-1.2-0.2-2.4-0.2-3.6v-17.1h2.4v23.4H193.7z M210.4,785.7h-2.6l-8.6-23.4h2.6l6.7,18.9c0.2,0.7,0.4,1.6,0.6,2.7h0.1
		c0.1-0.4,0.3-1.2,0.5-2.3c0.1-0.2,0.1-0.3,0.1-0.4l6.6-18.9h2.7L210.4,785.7z M221.9,762.3h2.4v23.4h-2.4V762.3z M243.6,785.7
		l-11.2-18.8c-0.4-0.6-0.7-1.4-1-2.3h-0.1c0.2,0.9,0.3,2.2,0.3,3.9v17.2h-2.4v-23.4h2.8l11.1,18.9c0.4,0.8,0.7,1.4,0.9,1.9h0.1
		c-0.1-1.2-0.2-2.4-0.2-3.6v-17.1h2.4v23.4H243.6z M261.7,772.5v12.2c-2.4-0.4-4.3-2.1-5.9-5.3c0.4-1.3,0.6-2.8,0.9-4.5l-2.5-0.4
		c-0.4,5-2,8.8-4.9,11.4c0.6,0.7,1.2,1.4,1.7,2.1c1.7-1.7,2.9-3.6,3.8-5.6c1.8,3,4.5,4.5,8.2,4.7c1.9,0.1,5.8,0.1,11.6,0.1
		c0.4-1.2,0.6-2,0.8-2.6c-0.9,0-2.2,0-4,0c-3.4,0-5.9,0-7.2,0v-5.3h9.1v-2.5h-9.1v-4.5h10.3V770h-24.3v2.5H261.7z M274.3,768.6v-5.4
		h-10c-0.2-1.2-0.5-2.3-0.8-3.4l-2.9,0.4c0.1,0.3,0.2,0.8,0.4,1.5c0.1,0.7,0.3,1.2,0.3,1.5h-10.8v5.3h2.5v-2.8h18.8v2.9H274.3z
		 M284.2,772.6v3.3h-5.6V786h2.3v-8h3.3v10h2.3v-10h3.6v4.5c0,0.9-0.4,1.3-1.1,1.3c-0.2,0-0.6,0-1.1-0.1c-0.3,0-0.5,0-0.6,0
		c0,0.2,0,0.4,0.1,0.6c0.2,0.6,0.4,1.1,0.4,1.5c0.8,0,1.5,0,2.2-0.1c1.6-0.1,2.3-1,2.3-2.8v-7h-5.7v-3.3h6.6v-2.3h-6.6v-3.6h5.5
		v-2.2h-5.5v-4.2h-2.3v4.2h-3c0.1-0.2,0.1-0.5,0.2-0.9c0.2-0.8,0.4-1.4,0.4-1.9l-2.2-0.4c-0.5,2.5-1.3,4.9-2.5,7.3l2,0.9
		c0.4-0.9,0.8-1.9,1.2-2.8h3.8v3.6H277v2.3H284.2z M296.6,780.7v-17.6h-2.2v17.6H296.6z M298.7,787.6c2.2,0,3.2-1.3,3.1-3.9v-23.6
		h-2.3v23.1c0.1,1.3-0.5,1.8-1.7,1.8c-1.4,0-2.4,0-3.2-0.1c0.1,0.3,0.1,0.7,0.2,1.3c0.1,0.6,0.3,1.1,0.3,1.4
		C296.3,787.6,297.5,787.6,298.7,787.6L298.7,787.6z M316.5,782.5c-1.2-1.9-2.3-3.8-3.3-5.6c1.2-2.9,2.2-7,2.8-12.2v-2.6h-11v2.6
		h8.5c-0.4,4.1-1.1,7.2-1.9,9.5c-1.4-2.2-2.7-4.5-4.1-6.8c-0.1-0.2-0.3-0.4-0.3-0.5l-2,1.5c1.9,2.9,3.6,5.8,5.2,8.7
		c-1.3,2.7-3.2,5.4-5.8,7.9c0.1,0.2,0.4,0.5,0.8,0.9c0.5,0.6,0.8,1.1,1,1.3c2.4-2.5,4.3-5,5.6-7.5l2.6,4.5L316.5,782.5z
		 M330.8,785.1c-2.7-1.6-4.9-3.4-6.4-5.5c2.3-3.3,3.9-8.2,4.9-14.9v-2.6h-12.5v2.6h9.9c-0.8,5.6-2,9.8-3.8,12.5
		c-1.7-2.8-2.8-7-3.4-12.4l-2.4,0.5c0.6,6,2.1,10.8,4.3,14.3c-2,2.4-4.5,4.5-7.5,6.1c0.1,0.1,0.1,0.2,0.2,0.2c0.8,1,1.3,1.8,1.5,2.2
		c3.3-2.3,5.7-4.4,7.3-6.3c1.2,1.8,3.3,3.7,6.1,5.7C329.5,786.9,330.1,786,330.8,785.1L330.8,785.1z M358,785
		c0.1-0.1,0.1-0.2,0.2-0.2c-7.1-3.2-11-10-11.8-20.3l0.1-4.1h-2.8c0,2.9-0.1,5.2-0.2,7c-0.6,7.9-4.3,13.8-11.2,17.8
		c0.1,0.3,0.5,0.8,1,1.5c0.4,0.5,0.6,0.8,0.8,1.1c6.5-4,10.2-9.5,11.2-16.4c1,7.1,4.7,12.5,11,16.1C356.5,787,357.1,786.2,358,785
		L358,785z M370.3,764.8v23h2.8v-15.6c3.5,2.3,6.7,4.5,9.5,6.6l1.7-2.6c-3.1-2.1-6.3-4.2-9.6-6.2l-1.6,2.2v-7.4h12.6V762H360v2.8
		H370.3z M394.2,766.5h5.6v7.9h-12.4v2.7h12.4v10.9h2.7V777h11v-2.7h-11v-7.9h8.9v-2.7h-16c0.4-1.1,0.9-2.3,1.3-3.5l-2.8-0.4
		c-1,3.8-2.8,7.2-5.3,10.3c0.8,0.5,1.5,1.1,2.2,1.8C392.1,770.3,393.2,768.5,394.2,766.5L394.2,766.5z M440.4,775.4
		c0.3-0.8,0.5-1.3,0.6-1.6c-5-1.2-8.8-3.3-11.5-6.3l0.5-0.8l-2.7-0.4c-2.4,3.2-6.5,5.8-12.4,7.9c0.4,1.1,0.8,2,1.1,2.6
		c5.3-2.2,9.3-4.7,12.1-7.6c2.6,3.2,6.5,5.6,11.9,7.3C440.1,776.2,440.2,775.8,440.4,775.4L440.4,775.4z M423.8,781.4l-1.7-1.8
		c-2.3,2-4.6,3.7-7,5c0.6,0.6,1.1,1.3,1.5,2C419.4,785,421.8,783.2,423.8,781.4L423.8,781.4z M434.5,767.8v-2.5h6.3V763h-6.3V760
		H432v2.9h-8V760h-2.6v2.9h-6.1v2.3h6.1v2.5h2.6v-2.5h8v2.5H434.5z M427,778.3v5.3c0.1,1.2-0.5,1.7-1.7,1.6c-1.3,0-2.3,0-2.9-0.1
		c0.2,0.9,0.4,1.6,0.4,2.3c0,0.1,0,0.2,0,0.2c1.3,0,2.5,0,3.6,0c2.2-0.1,3.2-1.3,3.1-3.5v-5.9h8.1v-2.2h-8.1v-3.9H427v3.9h-8.4v2.2
		H427z M440.7,784.5c-2.4-1.6-4.9-3.2-7.4-4.7l-1.4,1.9c2.3,1.3,4.7,2.9,7.3,4.8L440.7,784.5z"/>
	<g>
		<circle class="st2" cx="290.5" cy="493" r="49"/>
		<path class="st3" d="M253.4,493.5c0.6-12.9,6.6-19.6,17.9-20.2c10.9,0.8,16.8,7.4,17.6,20.1c-0.3,13-6.3,19.7-17.9,20.1
			C259.7,512.7,253.9,506.1,253.4,493.5L253.4,493.5z M259.5,493.5c0.3,9.1,4.1,14,11.4,14.6c7.7-0.4,11.7-5.2,11.9-14.6
			c-0.6-9-4.4-13.9-11.6-14.6C263.8,479.5,259.9,484.3,259.5,493.5L259.5,493.5z M328.3,512.8h-7.9l-12.1-16.5H301v16.5h-5.9v-39
			h16.7c8,0.3,12.2,3.9,12.6,11.1c0,6.4-3.2,10.1-9.5,11.1L328.3,512.8z M301,479.6v10.9h9.8c5.2,0,7.7-1.9,7.6-5.8
			c-0.1-3.2-2.6-4.9-7.6-5.1H301z"/>
	</g>
	<path class="st4" d="M110.8,67.5h28v-4h-26.3v-5.1h26.3v-4h-27.5v-5.1h13.9V34.2h5.6v15.1h13.6V75h-5.6v-2.4h-28V67.5z M115.9,35.9
		l7.4,8.4l-4.1,3.9c-2.4-3.2-4.7-6.1-6.9-8.6L115.9,35.9z M132.7,44.5c2.8-3,5.3-5.8,7.4-8.6l4.2,3.9l-7.8,8.5L132.7,44.5
		L132.7,44.5z M151.9,74.4V36.7h29.8v37.7h-5.8v-2.9h-18.2v2.9H151.9z M175.9,42.5h-18.2v8.6h18.2V42.5z M157.8,65.7h18.2v-8.9
		h-18.2V65.7z M189.7,45.6c1.9,1.5,3.9,3.3,6,5.2l-3.4,4.4c-2-2.1-3.8-4-5.7-5.7L189.7,45.6z M195.8,37.8h6.2v-3.4h4.9v3.4h6v-3.4
		h4.9v3.4h6.2v4.3h-6.2v2.6h-4.9v-2.6h-6v2.6H202v-2.6h-6.2v-1.5l-2.9,3.5c-1.6-1.8-3.5-3.6-5.5-5.5l3.1-3.8
		c1.6,1.3,3.4,2.8,5.3,4.6V37.8z M187.4,73c1.3-4.8,2.6-10.1,3.7-15.8c2,0.9,3.7,1.5,4.9,1.9l-3.6,15.5
		C190.7,74.1,189,73.5,187.4,73L187.4,73z M195.8,45.1h28.1v4.3h-7.8v3.4h6.7v16.3c0,1.6-0.3,2.8-1,3.6c-0.7,0.8-1.5,1.3-2.6,1.5
		c-1.1,0.1-3.3,0.2-6.7,0.3c-0.3-1.4-0.6-2.7-1-4l-3.9-2.6c1.2-1.3,2.1-2.8,2.8-4.6l-1.9,1.8c-0.4-0.6-0.8-1.2-1.3-1.8
		c-0.8,2.3-1.9,4.6-3.4,7c-0.3-0.4-1-1-2-1.8v6.1H197V52.8h7v-3.4h-8.2V45.1z M201.5,65.5c1.5-2.5,2.3-5.4,2.5-8.8h-2.5V65.5z
		 M210.7,62.1c0.5-1.7,0.9-3.5,1-5.5h-3.4c0,1.1-0.1,2-0.2,2.6L210.7,62.1z M208.3,52.8h3.5v-3.4h-3.5V52.8z M218,65.7l-1.5,1.5
		c-0.6-0.9-1.2-1.7-1.9-2.6c-0.7,2-1.7,3.9-3,5.7c1.7,0.1,3,0.1,4.2,0.1c1.4,0,2.2-0.8,2.2-2.3V65.7z M218.2,56.6H216
		c0,1.2-0.1,2.4-0.3,3.5l2.5,2.8V56.6z M256,37.4l-7.6,15.5h5.4v4.7h-6.6v3.5h6.6v4.7h-6.6v6.5h-6v-6.5h-6.9v-4.7h6.9v-3.5h-6.9
		v-4.7h5.5l-7.4-15.5h6.4c2.9,7.2,4.7,11.9,5.5,14.2h0.1c0.1-0.3,0.2-0.7,0.4-1.2c0.2-0.8,1.1-3.1,2.7-7l2.4-5.9H256z M272.4,73.7
		c-4.7,0-7.5-2.7-7.5-7.3v-3.8h4.7v3.6c0,2.4,1.1,3.5,2.9,3.5c1.8,0,3-1.1,3-3.5v-8.6c0-2-0.9-3.1-2.6-3.1c-1.6,0-2.8,1.1-2.8,3.1
		v0.2h-4.7l0.8-18.3h13.5v4.1h-9l-0.5,8.9c1-1.1,2.6-1.9,4.3-1.9c4.4,0,5.9,3.2,5.9,6.8v8.9C280.1,71.1,277.1,73.7,272.4,73.7z
		 M285.3,79.4v-2.3c1.8-0.3,2.6-1.3,2.6-3.1v-0.7h-3V68h5.5v6C290.5,77.5,287.9,79.2,285.3,79.4z M302.6,73.7
		c-4.7,0-7.7-2.7-7.7-7.3v-20c0-4.6,3-7.3,7.7-7.3c4.7,0,7.7,2.7,7.7,7.3v20C310.3,71.1,307.3,73.7,302.6,73.7z M305.6,46.7
		c0-2.4-1.2-3.5-3-3.5c-1.8,0-3,1.1-3,3.5v19.6c0,2.4,1.2,3.5,3,3.5c1.8,0,3-1.1,3-3.5V46.7z M323.2,73.7c-4.7,0-7.7-2.7-7.7-7.3
		v-20c0-4.6,3-7.3,7.7-7.3c4.7,0,7.7,2.7,7.7,7.3v20C330.9,71.1,327.9,73.7,323.2,73.7z M326.1,46.7c0-2.4-1.2-3.5-3-3.5
		c-1.8,0-3,1.1-3,3.5v19.6c0,2.4,1.2,3.5,3,3.5c1.8,0,3-1.1,3-3.5V46.7z M343.7,73.7c-4.7,0-7.7-2.7-7.7-7.3v-20
		c0-4.6,3-7.3,7.7-7.3c4.7,0,7.7,2.7,7.7,7.3v20C351.4,71.1,348.5,73.7,343.7,73.7z M346.7,46.7c0-2.4-1.2-3.5-3-3.5
		c-1.8,0-3,1.1-3,3.5v19.6c0,2.4,1.2,3.5,3,3.5c1.8,0,3-1.1,3-3.5V46.7z M387.5,61.6c2.3,1,4.1,1.6,5.3,2.1
		c-0.5,2.6-0.9,4.7-1.4,6.4c-0.4,1.6-1.2,2.7-2.2,3.4c-1,0.6-2.3,0.9-3.8,0.9h-3.7c-4,0-6-2.1-6-6.2V54.5h-5.4
		c-0.4,9.8-4.1,16.6-11.1,20.4c-1-1.2-2.3-2.8-4-4.8c6.2-3.1,9.4-8.3,9.7-15.6h-9.2v-5.7h36.7v5.7h-11.2V66c0,2,0.8,3,2.3,3h1.2
		c0.8,0,1.3-0.3,1.6-1C386.7,67.2,387.1,65.1,387.5,61.6z M358.8,36.8h30.5v5.6h-30.5V36.8z M408.6,58c2,3.6,3.9,7.2,5.7,10.9
		l-4.4,2.6l-1.4-3c-5.2,2.1-9,3.7-11.2,4.9l-2.4-4.1c0.8-1,1.2-2.4,1.2-4.2V35.9h16.6V58H408.6L408.6,58z M407.9,41H401v3.7h6.9V41z
		 M407.9,52.9v-3.7H401v3.7H407.9z M404.5,60l3.4-2.1H401v8.4l5.5-2.1L404.5,60z M414.7,36.9h14.9v25.6c0,1.9-0.3,3.3-1,4.3
		c-0.7,1-1.6,1.5-2.9,1.6c-1.2,0.1-3,0.1-5.3,0.1c-0.2-2.2-0.5-4-0.8-5.5c1.4,0.2,2.6,0.2,3.6,0.2c0.9,0,1.4-0.6,1.4-1.8V42.2h-5.1
		v32.4h-4.9V36.9z M432.5,57.3c3.3-2.9,6.4-6.8,9.2-11.6l3.9,3.7c-1.3,2.1-2.6,4.2-4,6v19.6h-4.9V61.1c-0.9,0.9-1.8,1.8-2.7,2.6
		C433.7,62,433.2,59.9,432.5,57.3L432.5,57.3z M432.9,43.7c3.2-2.8,5.9-6,8-9.4l4.1,3.6c-2.8,4.3-6.2,8.4-10.3,12.1
		C434.4,48.4,433.7,46.3,432.9,43.7L432.9,43.7z M469.3,58h-4.1v2.3h4.9v4.2h-4.9v4c0,1.9-0.4,3.3-1.2,4.3s-2.1,1.5-3.8,1.7
		c-1.7,0.1-3.6,0.2-5.7,0.1c-0.3-1.7-0.7-3.5-1.2-5.2c1.8,0.1,3.4,0.2,4.8,0.2c1.4,0,2.1-0.8,2.1-2.5v-2.5h-8.9c1,1.2,2,2.5,3.1,3.9
		l-4.2,3.1c-1.3-2.1-2.6-4-3.8-5.5l2.1-1.4h-4.8v-4.2h16.5V58h-15.3v-4.2h24.5V58z M446.2,35.8h21.6v15.9h-21.6V35.8z M462.9,39.9
		h-11.8V42h11.8V39.9z M462.9,47.7v-2.1h-11.8v2.1H462.9z"/>
	<g>
		<path class="st5" d="M44.2,835.6c0-0.4,0.1-0.8,0.4-1.1c0.3-0.3,0.6-0.4,1-0.4c0.4,0,0.7,0.1,1,0.4c0.3,0.3,0.4,0.6,0.4,1.1
			c0,0.4-0.1,0.8-0.4,1.1c-0.3,0.3-0.6,0.4-1,0.4c-0.4,0-0.7-0.1-1-0.4C44.3,836.3,44.2,836,44.2,835.6z"/>
		<path class="st5" d="M67.2,843.5H57v-2l4.9-5.3c1.3-1.5,2.2-2.6,2.7-3.5c0.5-0.8,0.7-1.7,0.7-2.6c0-1-0.3-1.8-0.8-2.4
			c-0.5-0.6-1.3-0.8-2.3-0.8c-1.5,0-2.9,0.7-4.3,2.1v-2.3c1.3-1.1,2.8-1.7,4.6-1.7c1.5,0,2.7,0.4,3.6,1.3c0.9,0.9,1.3,2.1,1.3,3.6
			c0,1.1-0.3,2.2-0.8,3.3c-0.6,1.1-1.6,2.5-3.2,4.1l-3.8,4v0h7.7V843.5z"/>
		<path class="st5" d="M70.4,834.8c0-3.2,0.5-5.6,1.5-7.3c1-1.6,2.4-2.5,4.2-2.5c3.5,0,5.3,3.1,5.3,9.3c0,3.1-0.5,5.4-1.5,7
			s-2.4,2.4-4.2,2.4c-1.7,0-3-0.8-3.9-2.3C70.8,840,70.4,837.7,70.4,834.8z M72.5,834.7c0,4.8,1.1,7.2,3.4,7.2
			c2.2,0,3.3-2.4,3.3-7.3c0-5.1-1.1-7.6-3.3-7.6C73.7,827,72.5,829.5,72.5,834.7z"/>
		<path class="st5" d="M94.5,843.5h-9.6v-2h3.7v-13.8l-3.8,1.2v-2.1l5.9-1.9v16.6h3.7V843.5z"/>
		<path class="st5" d="M98.3,840.7c1.1,0.8,2.3,1.2,3.5,1.2c1.1,0,2.1-0.3,2.8-1c0.7-0.7,1.1-1.6,1.1-2.8c0-1.2-0.4-2.1-1.1-2.7
			c-0.7-0.6-1.8-1-3.1-1c-0.7,0-1.5,0.1-2.6,0.2v-9.2h8.2v2h-6.3v5.1c0.6,0,1.1-0.1,1.4-0.1c1.8,0,3.1,0.5,4.1,1.5
			c1,1,1.5,2.3,1.5,4c0,1.8-0.5,3.2-1.6,4.3c-1.1,1.1-2.5,1.6-4.4,1.6c-1.6,0-2.7-0.2-3.5-0.8V840.7z"/>
		<path class="st5" d="M110.3,838.7h3.5V832h7.6v-4.2h-6.3c-1,1.9-2.1,3.6-3.3,5.2c-0.4-0.4-0.8-0.9-1.3-1.3c2-2.5,3.6-5.3,4.6-8.4
			l1.8,0.5c-0.3,0.8-0.6,1.5-0.9,2.2h14.8v1.7h-7.6v4.2h7.2v1.6h-7.2v5.1h8.5v1.7h-8.5v6.3h-1.7v-6.3h-11.1V838.7z M115.5,838.7h5.9
			v-5.1h-5.9V838.7z"/>
		<path class="st5" d="M144.7,838.8h-2.1v4.7h-2v-4.7h-7.8v-1.5l7.4-12h2.4V837h2.1V838.8z M140.5,837v-7.6c0-0.5,0-1.2,0-1.9h0
			c-0.1,0.3-0.3,0.8-0.6,1.4l-5,8.1H140.5z"/>
		<path class="st5" d="M151.5,838.7c-0.3,3-1.4,5.7-3.2,8.2c-0.5-0.5-1-1-1.5-1.4c1.4-1.6,2.3-3.6,2.8-5.9c0.3-1.7,0.5-4,0.5-6.9
			v-8.1h14.4v18.3c0,2.3-1,3.5-3,3.5c-0.8,0-1.9,0-3.3,0c-0.1-0.6-0.2-1.2-0.3-2c1.3,0.1,2.4,0.1,3.1,0.1c1.2,0,1.7-0.6,1.7-1.9
			v-3.9H151.5z M151.7,837h11v-4.5h-10.9C151.9,834,151.8,835.5,151.7,837z M151.9,826.3v4.5h10.9v-4.5H151.9z"/>
		<path class="st5" d="M179.9,843.5h-10.2v-2l4.9-5.3c1.3-1.5,2.2-2.6,2.7-3.5c0.5-0.8,0.7-1.7,0.7-2.6c0-1-0.3-1.8-0.8-2.4
			c-0.5-0.6-1.3-0.8-2.3-0.8c-1.5,0-2.9,0.7-4.3,2.1v-2.3c1.3-1.1,2.8-1.7,4.6-1.7c1.5,0,2.7,0.4,3.6,1.3c0.9,0.9,1.3,2.1,1.3,3.6
			c0,1.1-0.3,2.2-0.8,3.3c-0.6,1.1-1.6,2.5-3.2,4.1l-3.8,4v0h7.7V843.5z"/>
		<path class="st5" d="M185.5,825.1h15.4v21.3h-1.8v-1.7h-11.7v1.7h-1.8V825.1z M187.3,826.9v7h11.7v-7H187.3z M187.3,835.6v7.4
			h11.7v-7.4H187.3z"/>
		<path class="st5" d="M205.3,843.5h9.7v-4h-8.3v-1.7h8.3v-3.2h1.8v3.2h8.1v1.7h-8.1v4h9.6v1.7h-21.1V843.5z M219.5,828
			c2.2,2,4.2,4,6,6l-1.4,1.4c-0.5-0.5-1-1.1-1.5-1.7c-5,0.1-9.5,0.4-13.3,0.7c-0.4,0-1,0.2-1.7,0.4l-0.9-2c0.8-0.3,1.5-0.7,2-1.1
			c1.5-1.3,2.9-3,4.5-5h-7.4v-1.7h20.1v1.7h-10.4c-1.7,2-3.5,4-5.4,5.9c3.4-0.2,7-0.3,11-0.4c-0.9-0.9-1.8-1.9-2.8-2.9L219.5,828z"
			/>
		<path class="st5" d="M239,843.5h-9.6v-2h3.7v-13.8l-3.8,1.2v-2.1l5.9-1.9v16.6h3.7V843.5z"/>
		<path class="st5" d="M242.9,841c0.9,0.6,1.9,0.9,3,0.9c1.5,0,2.7-0.6,3.5-1.9c0.8-1.3,1.2-3.1,1.2-5.5c0,0,0,0,0,0
			c-0.7,1.5-2,2.3-3.7,2.3c-1.4,0-2.6-0.5-3.5-1.6c-0.9-1-1.4-2.4-1.4-4.1c0-1.8,0.5-3.2,1.5-4.4c1-1.1,2.3-1.7,3.9-1.7
			c1.7,0,3,0.7,3.9,2.1c0.9,1.4,1.4,3.5,1.4,6.2c0,3.4-0.6,5.9-1.8,7.7c-1.2,1.8-2.9,2.7-5,2.7c-1.2,0-2.2-0.2-3-0.6V841z
			 M244.1,830.9c0,1.2,0.3,2.2,0.9,2.9s1.4,1.1,2.4,1.1c0.9,0,1.6-0.3,2.2-1c0.6-0.7,0.9-1.4,0.9-2.4c0-1.3-0.3-2.4-0.9-3.2
			c-0.6-0.9-1.4-1.3-2.3-1.3c-0.9,0-1.6,0.4-2.2,1.1C244.4,828.8,244.1,829.7,244.1,830.9z"/>
		<path class="st5" d="M257.8,825.1h15.4v21.3h-1.8v-1.7h-11.7v1.7h-1.8V825.1z M259.6,826.9v7h11.7v-7H259.6z M259.6,835.6v7.4
			h11.7v-7.4H259.6z"/>
		<path class="st5" d="M289.2,840.6l-1.8,6.2h-1.5l1.3-6.2H289.2z"/>
		<path class="st5" d="M300.5,826.4h6.3c0.4-0.9,0.7-1.9,0.9-2.9l1.8,0.5c-0.3,0.8-0.5,1.6-0.8,2.4h12.5v1.7h-13.2
			c-0.9,2.1-1.9,4.1-3,5.9v12.4h-1.7v-9.9c-0.8,1.1-1.6,2.1-2.5,3c-0.3-0.5-0.6-1.1-1-1.7c2.6-3,4.7-6.2,6.2-9.7h-5.6V826.4z
			 M305.9,843.1h6.7v-7H307v-1.7h5.6v-4.7h1.8v4.7h5.7v1.7h-5.7v7h6.9v1.6h-15.4V843.1z"/>
		<path class="st5" d="M323,842.9h20.8v2H323V842.9z M324.3,825.9h18.1v2h-18.1V825.9z M325.3,834h16.1v2h-16.1V834z"/>
		<path class="st5" d="M345.3,843.8h9.8v-3.1h-8.5v-1.6h8.5V836h-6v0.8h-1.7v-12h17.1v12h-1.7V836h-6v3.1h8.5v1.6h-8.5v3.1h9.9v1.7
			h-21.4V843.8z M349.1,829.6h6v-3.2h-6V829.6z M349.1,834.4h6v-3.2h-6V834.4z M362.9,826.4h-6v3.2h6V826.4z M356.8,834.4h6v-3.2h-6
			V834.4z"/>
		<path class="st5" d="M385.3,839.2V838h-5.8v4.1c0,1.4,0.6,2,1.7,2h3.9c1.2,0,2-0.6,2.2-1.7c0.2-0.9,0.3-2.1,0.4-3.6
			c0.6,0.3,1.2,0.5,1.8,0.7c-0.2,1.6-0.4,2.8-0.6,3.7c-0.4,1.8-1.6,2.6-3.5,2.6h-4.7c-1.9,0-2.8-1.1-2.8-3.3V838h-7.4v-7.8h1.6v6.1
			h5.8v-7.8h-9.1v-1.7h9.1v-3.1h1.7v3.1h9.1v1.7h-9.1v7.8h5.8v-6.1h1.6v9H385.3z"/>
		<path class="st5" d="M390.5,844.8c5.6-3.3,8.8-7.8,9.5-13.6h-9.1v-1.8h9.2c0-1.6,0.1-3.5,0.1-5.7h1.9c0,2,0,3.9-0.1,5.7h9.6v1.8
			h-9.5c1.5,6.3,4.8,10.7,9.8,13.1c-0.7,0.7-1.2,1.4-1.6,1.9c-4.6-2.8-7.7-7-9.2-12.5c-1.2,5.4-4.3,9.7-9.4,12.9
			C391.5,846.2,391.1,845.6,390.5,844.8z M398.8,841.7l1.4-1.2c1,1.2,2,2.4,3,3.6l-1.5,1.3C400.8,844.3,399.8,843,398.8,841.7z"/>
		<path class="st5" d="M416,834.8h6.9v-5h-9.7V828h9.7v-4.5h1.8v4.5h9.9v1.8h-9.9v5h7.1v11.7H430v-1.7h-12.3v1.7H416V834.8z
			 M430,836.6h-12.3v6.6H430V836.6z"/>
		<path class="st5" d="M435.8,843.8h9.8v-3.1h-8.5v-1.6h8.5V836h-6v0.8h-1.7v-12h17.1v12h-1.7V836h-6v3.1h8.5v1.6h-8.5v3.1h9.9v1.7
			h-21.4V843.8z M439.6,829.6h6v-3.2h-6V829.6z M439.6,834.4h6v-3.2h-6V834.4z M453.4,826.4h-6v3.2h6V826.4z M447.4,834.4h6v-3.2h-6
			V834.4z"/>
		<path class="st5" d="M458.4,842.3c1.9-0.7,4.1-1.6,6.7-2.8v-7.4h-6.2v-1.7h6.2v-6.6h1.7v22.5H465v-4.9c-1.4,0.6-3.4,1.5-6,2.7
			L458.4,842.3z M471.1,823.8h1.7v7.9c2-1.1,3.8-2.3,5.5-3.6l1.1,1.7c-1.6,1.1-3.7,2.4-6.6,3.9v8.6c0,1.1,0.5,1.6,1.6,1.6h1.5
			c1,0,1.6-0.5,1.7-1.6c0.1-1,0.2-2.3,0.3-3.8c0.6,0.3,1.2,0.5,1.8,0.8c-0.1,1.5-0.3,2.8-0.5,3.8c-0.3,1.8-1.3,2.7-3,2.7H474
			c-2,0-3-1.1-3-3.2V823.8z"/>
		<path class="st5" d="M482.8,825.2h18.5v1.8h-16.7v16.4h17.1v1.8h-18.9V825.2z M486.3,829.6l1.2-1.2c1.8,1.6,3.7,3.4,5.6,5.3
			c1.5-1.8,2.9-3.7,4.3-5.8l1.6,1.1c-1.5,2.1-3,4.1-4.6,5.9c1.8,1.8,3.6,3.7,5.6,5.7l-1.5,1.6c-1.7-2-3.5-3.9-5.4-5.9
			c-2.1,2.3-4.2,4.3-6.3,6c-0.3-0.5-0.8-1-1.4-1.5c2.3-1.7,4.4-3.6,6.4-5.8C490.1,833.3,488.2,831.5,486.3,829.6z"/>
		<path class="st5" d="M504.6,843.7h17.1v-4h-15.8V838h15.8v-4h-16.5v-1.7h8.3v-8.7h1.8v8.7h8.1v14.4h-1.8v-1.4h-17.1V843.7z
			 M505.9,826l1.2-1.2c1.6,1.6,3,3.2,4.3,4.9l-1.4,1.3C508.8,829.4,507.4,827.7,505.9,826z M523.1,826.1c-1.5,1.9-3.1,3.6-4.6,5.1
			l-1.3-1.3c1.5-1.4,2.9-3.1,4.4-5.1L523.1,826.1z"/>
		<path class="st5" d="M529.4,825.1h15.4v21.3h-1.8v-1.7h-11.7v1.7h-1.8V825.1z M531.2,826.9v7h11.7v-7H531.2z M531.2,835.6v7.4
			h11.7v-7.4H531.2z"/>
		<path class="st5" d="M63.6,871.4l1,1.5c-2.1,1.1-4.2,2.1-6.2,3c-0.2-0.5-0.5-1-0.8-1.6C59.8,873.3,61.8,872.4,63.6,871.4z
			 M72.8,866c2,1.8,3.6,3.3,4.8,4.6l-1.2,1.3c-0.6-0.6-1.1-1.3-1.7-1.9c-1.8,0.1-3.5,0.2-5.3,0.2v3.1c0,1.9-0.9,2.9-2.7,2.9
			c-0.9,0-1.9,0-3.1,0c-0.1-0.6-0.2-1.3-0.3-1.9c1.1,0.1,2.1,0.2,3,0.2c1,0,1.4-0.6,1.4-1.7v-2.4c-1.9,0.1-3.9,0.2-5.8,0.3
			c-0.6,0-1.2,0.1-1.8,0.2l-0.6-1.8c0.9-0.1,1.9-0.4,3-0.8c1.5-0.6,3.1-1.3,4.8-2.2c-1.8,0.1-3.4,0.1-4.8,0.2
			c-0.7,0-1.2,0.1-1.6,0.1l-0.6-1.5c0.7-0.2,1.4-0.4,2.2-0.8c1-0.5,1.9-1,2.9-1.5h-4v0.7h-1.6v-8.9h17.1v8.9H75v-0.7h-7.2
			c-1.6,0.9-3.2,1.7-4.7,2.4c1.9-0.1,4.1-0.1,6.6-0.2c1-0.5,2-1.1,3.1-1.6l1.1,1.3c-3.4,1.8-7,3.4-10.6,4.8c3.6-0.2,6.9-0.4,9.9-0.6
			c-0.5-0.5-1.1-1-1.6-1.5L72.8,866z M61.3,857.8h6.1v-2.1h-6.1V857.8z M61.3,861.2h6.1v-2.1h-6.1V861.2z M75,855.7h-6.1v2.1H75
			V855.7z M68.9,861.2H75v-2.1h-6.1V861.2z M72.4,871.5c2.1,0.8,4.2,1.6,6.2,2.6l-0.7,1.6c-1.9-1-4-1.8-6.2-2.6L72.4,871.5z"/>
		<path class="st5" d="M89,870.1c0,0.8,0.1,1.5,0.2,2c-2.3,1.6-4.2,2.9-5.7,4.1l-1-1.6c0.5-0.5,0.8-1.2,0.8-2.1v-9.3h-3.1v-1.7h4.8
			v11.4C86.1,872.1,87.5,871.2,89,870.1z M82.3,853.9c1.6,1.8,2.7,3,3.4,3.9l-1.5,1.4c-0.9-1.3-2-2.6-3.2-4L82.3,853.9z M87,861.7
			h6.3v-8.1h1.9v8.1h6.3v1.7h-6.3v13.2h-1.9v-13.2H87V861.7z"/>
		<path class="st5" d="M104.6,854.9h11.3v7h-1.6V861h-8.2v3.6c0,5-0.8,8.8-2.5,11.5c-0.3-0.5-0.7-1.1-1-1.5c1.3-2.3,2-5.6,2-9.9
			V854.9z M114.4,856.5h-8.2v3h8.2V856.5z M112.3,876.6h-1.5v-11h-2.1v8.4h-1.5v-9.9h3.6v-2.3h1.5v2.3h3.8v7.6
			c0,1.4-0.5,2.1-1.6,2.1c-0.3,0-0.8,0-1.6,0c-0.1-0.5-0.2-1.1-0.3-1.6c0.5,0,0.9,0.1,1.3,0.1c0.5,0,0.8-0.3,0.8-0.9v-5.8h-2.3
			V876.6z M121.4,853.9h1.6v19.5c0,1.9-0.8,2.9-2.5,2.9c-0.8,0-1.7,0-2.9,0c-0.1-0.7-0.2-1.4-0.3-1.9c1.2,0.2,2.1,0.2,2.7,0.2
			c0.9,0,1.4-0.6,1.4-1.7V853.9z M119.4,870.6h-1.5v-14.4h1.5V870.6z"/>
		<path class="st5" d="M125.7,862.6h8.6v-9h1.8v3.5h9.1v1.7h-9.1v3.7h10.4v1.8h-20.8V862.6z M134.2,865.2h1.8v2.7l0.9-1.2
			c3.4,1.7,6.2,3.2,8.3,4.5l-1.1,1.7c-2-1.3-4.7-2.9-8.1-4.7v8.5h-1.8V865.2z"/>
		<path class="st5" d="M149,859.9c1.1,0.8,2.3,1.9,3.8,3.2c-0.5,0.7-0.9,1.2-1.3,1.5c-1.6-1.6-2.8-2.7-3.6-3.4L149,859.9z
			 M150.5,866.7c0.6,0.2,1.2,0.5,1.8,0.7c-0.7,3.1-1.4,6.1-2,9l-1.9-0.6C149.2,873.1,149.9,870,150.5,866.7z M149.8,853.9
			c1.1,0.9,2.3,2.1,3.7,3.4c-0.5,0.5-0.9,1-1.3,1.5c-1.6-1.6-2.7-2.8-3.5-3.6L149.8,853.9z M154.3,855.2l1.3-1.1
			c0.7,0.7,1.8,1.9,3.3,3.8l-1.5,1.2C156,857.3,154.9,856,154.3,855.2z M156.3,876.5h-1.7v-16.4h5.9v-6.6h1.8v6.6h5.8v13.5
			c0,1.8-0.8,2.7-2.4,2.7c-0.9,0-2.2,0-3.7-0.1c-0.1-0.6-0.2-1.2-0.3-1.9c1.4,0.1,2.6,0.1,3.4,0.1c0.9,0,1.4-0.4,1.4-1.3v-2.2h-10.1
			V876.5z M166.4,861.9h-10.1v2.9h10.1V861.9z M156.3,869.4h10.1v-2.9h-10.1V869.4z M164,858.1c1.1-1.2,2.1-2.5,3.1-4l1.6,1.3
			c-0.9,1.2-2,2.5-3.4,3.9L164,858.1z"/>
		<path class="st5" d="M172.1,855.7h6.2c0-0.7,0-1.4,0-2h1.6c0,0.6,0,1.3,0,2h3.8v-2h1.6v2h5.2v5.3h-1.6v-0.6h-3.6v2.1h6.2
			c0,1.1-0.1,2.1-0.2,2.9c-0.2,1.1-0.8,1.6-1.9,1.6c-0.2,0-0.4,0-0.6,0v5.7h-1.6V868h-10.8v5.1h-1.6V868c-0.9,0.4-1.9,0.8-3,1.2
			c-0.2-0.5-0.5-1-0.9-1.6c3.3-0.8,5.4-2,6.5-3.7h-4.7l0.7-4.8h5.1c0-0.6,0.1-1.3,0.1-2h-6.2V855.7z M180.7,869.3h1.5
			c0,1-0.1,1.9-0.3,2.6c3.3,1,6.3,2.1,8.9,3.1l-0.8,1.7c-2.9-1.2-5.8-2.3-8.7-3.3c-0.9,1.6-3.8,2.7-8.8,3.3
			c-0.3-0.8-0.5-1.3-0.7-1.7c3.3-0.3,5.8-0.9,7.5-1.8C180.3,872.8,180.7,871.5,180.7,869.3z M174.1,862.5h3.6
			c0.2-0.5,0.3-1.2,0.4-2.1h-3.7L174.1,862.5z M186.6,865.4c0.8,0.1,1.5,0.1,2,0.1c0.6,0,0.9-0.2,1-0.7c0.1-0.3,0.1-0.7,0.1-1h-4.6
			v2.3h-1.6v-2.3h-4.6c-0.4,1-1.1,1.8-2,2.6h10C186.9,866.2,186.8,865.9,186.6,865.4z M179.3,862.5h4.2v-2.1h-3.9
			C179.6,861.3,179.5,862,179.3,862.5z M179.7,859.1h3.8v-2h-3.8C179.8,857.8,179.8,858.5,179.7,859.1z M188.8,857h-3.6v2h3.6V857z"
			/>
		<path class="st5" d="M194.1,860.1c1.3,1.1,2.5,2.1,3.5,3.1c-0.5,0.6-0.9,1.1-1.3,1.5c-1.1-1.2-2.3-2.3-3.4-3.3L194.1,860.1z
			 M195.6,866.9c0.6,0.3,1.2,0.6,1.7,0.8c-0.6,2.8-1.3,5.7-1.9,8.8l-1.9-0.6C194.3,873.4,194.9,870.4,195.6,866.9z M194.9,853.9
			c1,0.8,2,1.8,3.1,2.8c-0.4,0.5-0.9,1-1.2,1.4c-0.9-1.1-1.9-2.1-2.9-3L194.9,853.9z M198.4,860.3h16.1v1.6h-4.8c0,0.8,0,1.6,0,2.4
			h4.1v9.3c0,1.8-0.8,2.7-2.4,2.7c-0.7,0-1.5,0-2.4-0.1c-0.1-0.6-0.2-1.2-0.3-1.8c0.9,0.1,1.7,0.2,2.3,0.2c0.8,0,1.3-0.5,1.3-1.4
			v-1.6c-0.3,0.3-0.6,0.6-1.1,1.1c-0.8-1.1-1.5-2.1-2.3-3c-0.6,1.8-1.5,3.2-2.7,4.4c-0.3-0.4-0.7-0.9-1.1-1.3c1.7-1.6,2.7-4,2.9-7.1
			h-3.5c0,0.6-0.1,1.2-0.2,1.8c0.8,0.8,1.6,1.6,2.4,2.5c-0.1,0.1-0.5,0.5-1.2,1.2c-0.5-0.7-1.1-1.3-1.6-2c-0.5,1.7-1.4,3.1-2.6,4.3
			c-0.2-0.3-0.5-0.7-0.8-1v3.8H199v-12.3h4.1c0-0.8,0-1.6,0-2.4h-4.7V860.3z M198.4,856.2h4.1v-2.6h1.6v2.6h4.6v-2.6h1.6v2.6h4.2
			v1.6h-4.2v2h-1.6v-2h-4.6v2h-1.6v-2h-4.1V856.2z M200.6,872.2c1.5-1.5,2.3-3.6,2.5-6.3h-2.5V872.2z M204.6,864.3h3.6
			c0-0.7,0-1.5,0-2.4h-3.6C204.6,862.6,204.6,863.4,204.6,864.3z M212.3,865.9h-2.6c0,0.7-0.1,1.4-0.3,2.1c1.2,1.3,2.1,2.4,2.9,3.3
			V865.9z"/>
		<path class="st5" d="M218.5,864.2l0.8-1.3c0.8,0.5,1.7,0.9,2.4,1.3c0.7-0.8,1.4-1.7,1.9-2.7h-4.2c-0.8,1.4-1.6,2.6-2.4,3.6
			c-0.3-0.4-0.7-0.8-1-1.1c1.4-1.6,2.5-3.5,3.4-5.7l1.4,0.5c-0.2,0.5-0.4,0.9-0.6,1.3h5.2v1.3c-0.6,1.3-1.3,2.5-2.2,3.5
			c1.3,0.7,2.4,1.3,3.5,1.9l-0.9,1.5c-1.2-0.8-2.5-1.5-3.8-2.3c-1.1,1-2.3,1.8-3.8,2.5h6.9v7.5h-1.4v-1h-4.4v1.2h-1.4v-7.5
			c-0.4,0.2-0.9,0.4-1.3,0.5c-0.2-0.4-0.4-0.9-0.7-1.4c1.9-0.6,3.4-1.5,4.8-2.6C219.8,864.9,219.2,864.6,218.5,864.2z M216.4,856.3
			h4.4c-0.3-0.7-0.6-1.4-1-2.2l1.4-0.7c0.5,1.1,1,2,1.3,2.8h3.8v3.3h-1.5v-1.9h-7v1.9h-1.5V856.3z M223.6,870h-4.4v3.6h4.4V870z
			 M231,862.6h1.6c0,4-0.1,6.7-0.5,8.3c2.1,1.6,3.9,3,5.4,4.4l-1.1,1.5c-1.4-1.4-3-2.8-4.9-4.3c-0.9,1.8-2.6,3.3-5,4.5
			c-0.3-0.5-0.6-1-1-1.5c2.6-1.3,4.3-2.8,4.9-4.6C230.9,869.6,231.1,866.8,231,862.6z M227.1,859.5h3.1l0.5-3h-4.1V855H237v1.6h-4.6
			l-0.6,3h4.5v11.8h-1.5v-10.2h-6.2v10.2h-1.5V859.5z"/>
		<path class="st5" d="M245.7,867.3c1.8,2.3,3.2,4.3,4.4,6l-1.4,1.1c-0.5-0.8-1.1-1.6-1.7-2.5c-2.1,1.1-3.9,2-5.4,2.8
			c-0.5,0.3-0.9,0.6-1.3,1l-1.2-1.5c0.4-0.5,0.7-1.1,0.7-1.8v-17.3h8.7v12.1H247v-0.6h-5.4v6.2c1.4-0.6,2.9-1.4,4.6-2.2
			c-0.5-0.8-1.1-1.6-1.7-2.4L245.7,867.3z M247,856.8h-5.4v3.3h5.4V856.8z M247,865v-3.3h-5.4v3.3H247z M251,855.4h7.6v14.2
			c0,2-0.9,3-2.7,3c-0.6,0-1.5,0-2.5,0c-0.1-0.7-0.2-1.4-0.3-2c1.1,0.1,1.9,0.2,2.4,0.2c0.9,0,1.4-0.5,1.4-1.6v-11.9h-4.3v19.6H251
			V855.4z"/>
		<path class="st5" d="M261.2,855.5h21.3v1.8h-3.6v15.9c0,2.1-0.9,3.2-2.8,3.2c-1.4,0-2.7,0-3.9,0c-0.1-0.7-0.2-1.4-0.3-2.1
			c1.6,0.1,2.9,0.2,3.7,0.2c1.1,0,1.6-0.6,1.6-1.9v-15.2h-15.9V855.5z M263.6,860.7h9.5v9.3h-7.8v1.7h-1.7V860.7z M271.4,862.4h-6.1
			v5.9h6.1V862.4z"/>
		<path class="st5" d="M283.7,866c0.9-0.3,1.8-0.6,2.7-0.9v-5.4h-2.5V858h2.5v-4.4h1.6v4.4h2.4v1.6h-2.4v4.8
			c0.7-0.3,1.5-0.6,2.2-0.9c0,0.8,0,1.4,0,1.9c-0.1,0-0.9,0.4-2.3,0.9v7.5c0,1.6-0.7,2.4-2,2.5c-0.6,0-1.3,0-2.1,0
			c-0.1-0.7-0.2-1.3-0.3-1.9c0.8,0.1,1.5,0.1,2,0.1c0.5,0,0.8-0.3,0.8-1V867c-0.7,0.3-1.5,0.6-2.5,1L283.7,866z M289.8,867.9h1.9
			v-6.3c-0.4-0.3-0.8-0.7-1.3-1c1.9-2.1,3.4-4.5,4.5-7.1l1.7,0.3c-0.3,0.8-0.7,1.5-1.1,2.2h6.5v1.6c-0.5,0.7-1.4,1.8-2.5,3.3h3.9
			v7.1h1.7v1.6h-6.7c1.1,2.7,3.3,4.4,6.6,5.2c-0.5,0.7-1,1.3-1.3,1.9c-3-1.1-5.1-3-6.3-5.8c-0.8,2.4-3.2,4.4-7.2,6
			c-0.3-0.6-0.7-1.1-1.2-1.7c4.1-1.3,6.5-3.2,7.1-5.5h-6.4V867.9z M300.2,857.6h-5.5c-0.7,1.1-1.5,2.2-2.3,3.2h5.3
			C298.7,859.5,299.5,858.4,300.2,857.6z M293.2,867.9h3.4c0.1-0.8,0.2-2.6,0.2-5.5h-3.5V867.9z M301.9,862.4h-3.6
			c0,2,0,3.8-0.1,5.5h3.8V862.4z"/>
		<path class="st5" d="M312.4,854l-0.3,0.6c1.3,1.7,2.6,3.4,3.9,5.3l-1.3,1.3c-1.1-1.8-2.2-3.5-3.3-5c-1.1,2.6-2.5,5.1-4.1,7.6
			c-0.3-0.5-0.6-1.1-1.1-1.6c1.7-2.3,3.2-5.1,4.5-8.2H312.4z M307.9,870.2l1.3-1c0.7,0.9,1.3,1.7,1.9,2.6c0.7-1.5,1.5-3.2,2.3-5.2
			h-6.3v-1.6h8.1v1.6c-1.1,2.7-2.1,4.9-3,6.6c0.6,0.8,1.1,1.5,1.6,2.3l-1.5,1.1C310.9,874.2,309.4,872.1,307.9,870.2z M310.1,860.3
			l1.3-0.7c0.6,1.1,1.3,2.3,1.8,3.5l-1.5,0.8C311.4,863,310.8,861.8,310.1,860.3z M320.8,862.2h1.6v3.5c0,1.7-0.2,3.2-0.5,4.5
			c2.1,1.7,4.1,3.4,6,5.1l-1.3,1.5c-1.6-1.7-3.4-3.4-5.3-5c-0.1,0.1-0.1,0.3-0.2,0.4c-1,1.7-2.7,3.2-5.2,4.6
			c-0.5-0.7-0.9-1.2-1.2-1.5c2.4-1.1,4-2.4,4.9-3.9c0.8-1.3,1.3-3.2,1.3-5.7V862.2z M316.4,859.6h3.8l0.5-3.2h-5.4v-1.6h12.4v1.6
			h-5.3l-0.6,3.2h4.9v11.2h-1.6v-9.6H318v9.7h-1.6V859.6z"/>
		<path class="st5" d="M338.6,867.1c0,1,0.1,1.8,0.2,2.2c-3.5,2.4-5.6,3.8-6.4,4.5c-0.5,0.4-0.9,0.8-1.4,1.2l-1.2-1.9
			c0.7-0.7,1-1.4,1-2.4v-16.3h1.8v16.8C334.1,870.2,336.1,868.8,338.6,867.1z M345.3,854.1h1.8v4.2c0,4.3-0.5,7.8-1.5,10.3
			c1.8,2,3.5,4,5,5.9l-1.5,1.5c-1.5-2-2.9-3.9-4.4-5.7c-1.7,2.7-4.2,4.9-7.5,6.4c-0.3-0.5-0.7-1-1.2-1.6c3.6-1.8,6.1-3.9,7.3-6.3
			c1.3-2.3,2-5.9,2-10.6V854.1z M337.7,853.6c1,1.7,2,3.6,3.2,6l-1.7,1c-1.1-2.4-2.1-4.4-3.1-6.1L337.7,853.6z"/>
		<path class="st5" d="M351.9,873.3h8.5V854h2v7.1h8.9v1.9h-8.9v10.4h10.6v1.9h-21V873.3z"/>
		<path class="st5" d="M375,859.9v-1.7h8.6v1.7c-0.8,1.6-1.8,3.2-3,4.7v12H379v-10.1c-1.2,1.4-2.6,2.7-4.1,3.9c-0.2-1-0.4-1.6-0.6-2
			c3.2-2.6,5.7-5.4,7.5-8.6H375z M378,854.5l1.3-1c0.8,1,1.5,2.1,2.3,3.1l-1.4,1.1C379.4,856.6,378.7,855.5,378,854.5z M381.1,865.8
			l1-1.2c1.3,0.9,2.5,2,3.8,3l-1.1,1.4C383.5,867.9,382.3,866.8,381.1,865.8z M386.8,853.9h1.7v18.7c0,1,0.5,1.5,1.5,1.5h1.8
			c1,0,1.6-0.5,1.8-1.6c0.1-1.1,0.2-2.6,0.3-4.4c0.6,0.3,1.2,0.5,1.8,0.7c-0.2,2.2-0.3,3.8-0.5,4.7c-0.3,1.6-1.3,2.4-3.2,2.4h-2.3
			c-1.9,0-2.9-1-2.9-3.1V853.9z"/>
		<path class="st5" d="M398.1,865.8h8.2v10.8h-1.6V875h-4.9v1.6h-1.6V865.8z M404.6,867.4h-4.9v6h4.9V867.4z M400.2,854.6h14.9v9.3
			h-1.7v-0.8h-11.4v0.8h-1.7V854.6z M413.3,856.2h-11.4v5.2h11.4V856.2z M409,865.8h8.2v10.8h-1.6V875h-5v1.6H409V865.8z
			 M415.6,867.4h-5v6.1h5V867.4z"/>
		<path class="st5" d="M431.9,877.6c-2.6-3-3.8-6.7-3.8-11.1c0-4.4,1.3-8.1,3.8-11.2h1.9c-2.6,3.2-3.8,6.9-3.8,11.2
			c0,4.2,1.3,7.9,3.8,11.1H431.9z"/>
		<path class="st5" d="M442.5,871.9h20.7v2h-20.7V871.9z M444.1,856.6h17.6v2h-17.6V856.6z"/>
		<path class="st5" d="M473.8,874.2l4.5,0l7.9-0.2c-0.2,0.5-0.4,1.1-0.6,1.9l-7.5,0.1l-4.5-0.1c-2.6-0.1-4.4-1-5.4-2.8
			c-0.6,0.6-1.5,1.6-2.6,3.1l-0.9-1.9c1.3-1.3,2.2-2.3,2.8-2.9v-7.9h-2.6v-1.7h4.2v10C470,873.4,471.6,874.2,473.8,874.2z
			 M467.4,854c0.7,1,1.7,2.4,3,4.4l-1.5,1.2c-1.2-2-2.1-3.5-2.9-4.6L467.4,854z M470.5,863.2h7.1v-3.9H474c-0.4,1.2-0.9,2.2-1.3,3.2
			c-0.4-0.3-0.9-0.5-1.5-0.8c1.1-2.1,2-4.5,2.5-7.1l1.7,0.4c-0.3,1-0.5,1.9-0.8,2.8h3.1v-4.1h1.7v4.1h5.6v1.6h-5.6v3.9h6.7v1.6h-5.1
			v5c0,0.8,0.3,1.2,0.9,1.2h1c0.7,0,1-0.4,1.1-1.1c0.1-0.6,0.2-1.5,0.2-2.8c0.4,0.2,1,0.4,1.6,0.7c-0.1,1.1-0.2,2-0.4,2.7
			c-0.2,1.4-1,2.1-2.5,2.1h-1.6c-1.5,0-2.2-0.9-2.2-2.6v-5.2h-2.9c0,0.7,0,1.3-0.1,1.9c-0.1,2.9-1.6,5.1-4.5,6.5
			c-0.3-0.5-0.6-1-1.1-1.6c2.5-1.1,3.8-2.8,3.9-4.9c0-0.5,0.1-1.1,0.1-1.9h-4.2V863.2z"/>
		<path class="st5" d="M487.5,863.4h21.4v2.1h-21.4V863.4z"/>
		<path class="st5" d="M519.1,877.6h-1.9c2.6-3.2,3.8-6.9,3.8-11.2c0-4.2-1.3-7.9-3.8-11.1h1.8c2.6,3,3.8,6.7,3.8,11.1
			C522.9,870.8,521.7,874.6,519.1,877.6z"/>
		<path class="st5" d="M44.2,895.6c0-0.4,0.1-0.8,0.4-1.1c0.3-0.3,0.6-0.4,1-0.4c0.4,0,0.7,0.1,1,0.4c0.3,0.3,0.4,0.6,0.4,1.1
			c0,0.4-0.1,0.8-0.4,1.1c-0.3,0.3-0.6,0.4-1,0.4c-0.4,0-0.7-0.1-1-0.4C44.3,896.3,44.2,896,44.2,895.6z"/>
		<path class="st5" d="M56.2,896c0.9-0.3,1.8-0.6,2.7-0.9v-5.4h-2.5V888h2.5v-4.4h1.6v4.4H63v1.6h-2.4v4.8c0.7-0.3,1.5-0.6,2.2-0.9
			c0,0.8,0,1.4,0,1.9c-0.1,0-0.9,0.4-2.3,0.9v7.5c0,1.6-0.7,2.4-2,2.5c-0.6,0-1.3,0-2.1,0c-0.1-0.7-0.2-1.3-0.3-1.9
			c0.8,0.1,1.5,0.1,2,0.1c0.5,0,0.8-0.3,0.8-1V897c-0.7,0.3-1.5,0.6-2.5,1L56.2,896z M62.3,897.9h1.9v-6.3c-0.4-0.3-0.8-0.7-1.3-1
			c1.9-2.1,3.4-4.5,4.5-7.1l1.7,0.3c-0.3,0.8-0.7,1.5-1.1,2.2h6.5v1.6c-0.5,0.7-1.4,1.8-2.5,3.3h3.9v7.1h1.7v1.6H71
			c1.1,2.7,3.3,4.4,6.6,5.2c-0.5,0.7-1,1.3-1.3,1.9c-3-1.1-5.1-3-6.3-5.8c-0.8,2.4-3.2,4.4-7.2,6c-0.3-0.6-0.7-1.1-1.2-1.7
			c4.1-1.3,6.5-3.2,7.1-5.5h-6.4V897.9z M72.6,887.6h-5.5c-0.7,1.1-1.5,2.2-2.3,3.2h5.3C71.2,889.5,72,888.4,72.6,887.6z
			 M65.7,897.9h3.4c0.1-0.8,0.2-2.6,0.2-5.5h-3.5V897.9z M74.4,892.4h-3.6c0,2,0,3.8-0.1,5.5h3.8V892.4z"/>
		<path class="st5" d="M79.6,889.9v-1.7h8.6v1.7c-0.8,1.6-1.8,3.2-3,4.7v12h-1.7v-10.1c-1.2,1.4-2.6,2.7-4.1,3.9
			c-0.2-1-0.4-1.6-0.6-2c3.2-2.6,5.7-5.4,7.5-8.6H79.6z M82.5,884.5l1.3-1c0.8,1,1.5,2.1,2.3,3.1l-1.4,1.1
			C84,886.6,83.3,885.5,82.5,884.5z M85.6,895.8l1-1.2c1.3,0.9,2.5,2,3.8,3l-1.1,1.4C88.1,897.9,86.9,896.8,85.6,895.8z M91.4,883.9
			h1.7v18.7c0,1,0.5,1.5,1.5,1.5h1.8c1,0,1.6-0.5,1.8-1.6c0.1-1.1,0.2-2.6,0.3-4.4c0.6,0.3,1.2,0.5,1.8,0.7
			c-0.2,2.2-0.3,3.8-0.5,4.7c-0.3,1.6-1.3,2.4-3.2,2.4h-2.3c-1.9,0-2.9-1-2.9-3.1V883.9z"/>
		<path class="st5" d="M108.5,901c0,0.5,0.1,1.2,0.2,2c-2,1.4-3.4,2.5-4.3,3.2l-1-1.6c0.5-0.4,0.7-1.1,0.7-2v-9.3h-2.6v-1.7h4.3V903
			C106.6,902.4,107.5,901.7,108.5,901z M103.5,884c1.3,1.4,2.4,2.7,3.4,3.9l-1.5,1.4c-1-1.5-2.1-2.8-3.1-4L103.5,884z M107.5,898.4
			h6.7v-3.5h-5.5v-1.7h5.5v-3.5H108V888h7.8c1.2-1.7,2.2-3.2,2.8-4.5l1.7,1.1c-0.7,0.9-1.5,2-2.6,3.4h4.6v1.7h-6.4v3.5h5.8v1.7h-5.8
			v3.5h6.9v1.7h-6.9v6.5h-1.8v-6.5h-6.7V898.4z M109.8,884.6l1.3-1.1c0.9,1.1,1.8,2.2,2.5,3.2l-1.5,1.1
			C111.3,886.7,110.6,885.6,109.8,884.6z"/>
		<path class="st5" d="M124.9,889l1.4,0.2c-0.2,1.9-0.4,3.9-0.8,6c-0.3-0.1-0.8-0.2-1.4-0.3C124.4,893.4,124.7,891.4,124.9,889z
			 M127,883.7h1.5v4.8l0.8-0.6c0.7,0.9,1.4,1.8,2,2.6l-1.2,1c-0.4-0.7-1-1.5-1.6-2.4v17.6H127V883.7z M130.4,891.7h6.6v-1.6h-5.4
			v-1.5h5.4V887h-6v-1.5h6v-2.1h1.6v2.1h6.5v1.5h-6.5v1.6h5.9v1.5h-5.9v1.6h6.9v1.5h-15.2V891.7z M133.5,906.5h-1.6v-11.9h12.1v9
			c0,1.7-0.7,2.6-2.2,2.6c-0.9,0-2.2,0-3.7,0c-0.1-0.5-0.2-1.1-0.3-1.8c1.4,0.1,2.5,0.1,3.3,0.1c0.8,0,1.2-0.4,1.2-1.1v-1.3h-8.8
			V906.5z M142.3,896.1h-8.8v1.6h8.8V896.1z M133.5,900.8h8.8v-1.6h-8.8V900.8z"/>
		<path class="st5" d="M153.5,900.7c0,0.8,0.1,1.5,0.2,2c-1.6,1.1-2.9,2.1-3.9,3l-1-1.5c0.5-0.5,0.7-1.2,0.7-2v-8.9h-2.6v-1.7h4.3
			v10.9C151.9,901.9,152.7,901.3,153.5,900.7z M149.3,884.2c1.2,1.3,2.2,2.4,3.1,3.5l-1.5,1.4c-1-1.4-2-2.6-2.9-3.7L149.3,884.2z
			 M152.4,891.7h7v-1.6h-5.5v-1.5h5.5V887h-6.3v-1.5h6.3v-2.1h1.7v2.1h6.6v1.5h-6.6v1.6h6v1.5h-6v1.6h7v1.5h-15.7V891.7z M156,906.5
			h-1.7v-11.9h12v9.1c0,1.7-0.8,2.5-2.4,2.6c-0.8,0-1.9,0-3.3,0c-0.1-0.5-0.2-1.1-0.3-1.8c1.3,0.1,2.3,0.1,3.1,0.1
			c0.8,0,1.2-0.4,1.2-1.2v-1.2H156V906.5z M164.7,896.1H156v1.6h8.6V896.1z M156,900.8h8.6v-1.6H156V900.8z"/>
		<path class="st5" d="M169.5,903.5h9.7v-4h-8.3v-1.7h8.3v-3.2h1.8v3.2h8.1v1.7H181v4h9.6v1.7h-21.1V903.5z M183.7,888
			c2.2,2,4.2,4,6,6l-1.4,1.4c-0.5-0.5-1-1.1-1.5-1.7c-5,0.1-9.5,0.4-13.3,0.7c-0.4,0-1,0.2-1.7,0.4l-0.9-2c0.8-0.3,1.5-0.7,2-1.1
			c1.5-1.3,2.9-3,4.5-5H170v-1.7h20.1v1.7h-10.4c-1.7,2-3.5,4-5.4,5.9c3.4-0.2,7-0.3,11-0.4c-0.9-0.9-1.8-1.9-2.8-2.9L183.7,888z"/>
		<path class="st5" d="M192.3,902.9h20.8v2h-20.8V902.9z M193.7,885.9h18.1v2h-18.1V885.9z M194.6,894h16.1v2h-16.1V894z"/>
		<path class="st5" d="M214.7,903.8h9.8v-3.1H216v-1.6h8.5V896h-6v0.8h-1.7v-12h17.1v12h-1.7V896h-6v3.1h8.5v1.6h-8.5v3.1h9.9v1.7
			h-21.4V903.8z M218.5,889.6h6v-3.2h-6V889.6z M218.5,894.4h6v-3.2h-6V894.4z M232.2,886.4h-6v3.2h6V886.4z M226.2,894.4h6v-3.2h-6
			V894.4z"/>
		<path class="st5" d="M254.7,899.2V898h-5.8v4.1c0,1.4,0.6,2,1.7,2h3.9c1.2,0,2-0.6,2.2-1.7c0.2-0.9,0.3-2.1,0.4-3.6
			c0.6,0.3,1.2,0.5,1.8,0.7c-0.2,1.6-0.4,2.8-0.6,3.7c-0.4,1.8-1.6,2.6-3.5,2.6H250c-1.9,0-2.8-1.1-2.8-3.3V898h-7.4v-7.8h1.6v6.1
			h5.8v-7.8h-9.1v-1.7h9.1v-3.1h1.7v3.1h9.1v1.7h-9.1v7.8h5.8v-6.1h1.6v9H254.7z"/>
		<path class="st5" d="M259.9,904.8c5.6-3.3,8.8-7.8,9.5-13.6h-9.1v-1.8h9.2c0-1.6,0.1-3.5,0.1-5.7h1.9c0,2,0,3.9-0.1,5.7h9.6v1.8
			h-9.5c1.5,6.3,4.8,10.7,9.8,13.1c-0.7,0.7-1.2,1.4-1.6,1.9c-4.6-2.8-7.7-7-9.2-12.5c-1.2,5.4-4.3,9.7-9.4,12.9
			C260.9,906.2,260.5,905.6,259.9,904.8z M268.1,901.7l1.4-1.2c1,1.2,2,2.4,3,3.6l-1.5,1.3C270.1,904.3,269.2,903,268.1,901.7z"/>
		<path class="st5" d="M285.4,894.8h6.9v-5h-9.7V888h9.7v-4.5h1.8v4.5h9.9v1.8H294v5h7.1v11.7h-1.7v-1.7h-12.3v1.7h-1.7V894.8z
			 M299.4,896.6h-12.3v6.6h12.3V896.6z"/>
		<path class="st5" d="M305.2,903.8h9.8v-3.1h-8.5v-1.6h8.5V896h-6v0.8h-1.7v-12h17.1v12h-1.7V896h-6v3.1h8.5v1.6h-8.5v3.1h9.9v1.7
			h-21.4V903.8z M309,889.6h6v-3.2h-6V889.6z M309,894.4h6v-3.2h-6V894.4z M322.8,886.4h-6v3.2h6V886.4z M316.7,894.4h6v-3.2h-6
			V894.4z"/>
		<path class="st5" d="M327.7,902.3c1.9-0.7,4.1-1.6,6.7-2.8v-7.4h-6.2v-1.7h6.2v-6.6h1.7v22.5h-1.7v-4.9c-1.4,0.6-3.4,1.5-6,2.7
			L327.7,902.3z M340.4,883.8h1.7v7.9c2-1.1,3.8-2.3,5.5-3.6l1.1,1.7c-1.6,1.1-3.7,2.4-6.6,3.9v8.6c0,1.1,0.5,1.6,1.6,1.6h1.5
			c1,0,1.6-0.5,1.7-1.6c0.1-1,0.2-2.3,0.3-3.8c0.6,0.3,1.2,0.5,1.8,0.8c-0.1,1.5-0.3,2.8-0.5,3.8c-0.3,1.8-1.3,2.7-3,2.7h-2.3
			c-2,0-3-1.1-3-3.2V883.8z"/>
		<path class="st5" d="M352.2,885.2h18.5v1.8H354v16.4h17.1v1.8h-18.9V885.2z M355.7,889.6l1.2-1.2c1.8,1.6,3.7,3.4,5.6,5.3
			c1.5-1.8,2.9-3.7,4.3-5.8l1.6,1.1c-1.5,2.1-3,4.1-4.6,5.9c1.8,1.8,3.6,3.7,5.6,5.7l-1.5,1.6c-1.7-2-3.5-3.9-5.4-5.9
			c-2.1,2.3-4.2,4.3-6.3,6c-0.3-0.5-0.8-1-1.4-1.5c2.3-1.7,4.4-3.6,6.4-5.8C359.4,893.3,357.6,891.5,355.7,889.6z"/>
		<path class="st5" d="M377.3,889.3c0.5,0.5,1,0.9,1.4,1.3c-1.3,2-2.6,4.2-4,6.6l-1.5-1.2C374.6,894,375.9,891.8,377.3,889.3z
			 M375.2,883.7c1.2,1.1,2.3,2.2,3.4,3.3c-0.5,0.5-0.9,1-1.3,1.4c-1-1.2-2.1-2.3-3.2-3.4L375.2,883.7z M376.2,897.6h15.2v9.1h-1.7
			v-1.3h-11.9v1.3h-1.7V897.6z M385.3,888.1c0.5,0,1,0,1.5,0c0,0.2-0.1,0.5-0.1,0.9c1.4,3.4,4,5.5,7.9,6.4c-0.4,0.6-0.7,1.2-1,1.8
			c-3.7-1.2-6.1-3.3-7.4-6.1c-1.2,2.9-3.7,5-7.6,6.1c-0.2-0.5-0.6-1.1-1-1.7C382.2,894.4,384.8,892,385.3,888.1z M389.7,899.3h-11.9
			v4.6h11.9V899.3z M378.9,890.1c1.6-1.8,2.8-4,3.4-6.5h1.7c-0.2,0.9-0.5,1.7-0.8,2.5h10.1v1.6c-0.6,1-1.2,2.1-1.8,3.3
			c-0.6-0.3-1.1-0.5-1.7-0.6c0.6-0.9,1.1-1.8,1.5-2.7h-8.8c-0.6,1.3-1.3,2.5-2.2,3.6C380,890.9,379.5,890.5,378.9,890.1z"/>
		<path class="st5" d="M402.4,901.1c0,0.8,0.1,1.5,0.2,2c-1.8,1.3-3.2,2.3-4,3.1l-1-1.6c0.5-0.5,0.7-1.1,0.7-2v-9.3h-2.5v-1.7h4.2
			V903C400.7,902.4,401.5,901.7,402.4,901.1z M397.9,884c1.6,1.8,2.7,3,3.4,3.9l-1.5,1.3c-0.9-1.3-2-2.6-3.2-4L397.9,884z
			 M400.9,891.2c1.8-2.2,3.3-4.9,4.5-7.8l1.6,0.7c-0.4,0.8-0.8,1.6-1.2,2.4h10.5c-0.2,7.1-0.3,12.3-0.4,15.5
			c-0.1,2.8-1.2,4.2-3.4,4.2c-1.3,0-2.5,0-3.5-0.1c-0.1-0.6-0.2-1.3-0.4-2.1c1.3,0.2,2.4,0.3,3.5,0.3c1.3,0,2-0.9,2.1-2.7
			c0.1-3.5,0.3-8,0.4-13.5h-9.7c-0.9,1.5-1.7,2.9-2.7,4.1C401.9,892,401.5,891.6,400.9,891.2z M403.6,890.9h7.9v10.7h-6.3v1.4h-1.6
			V890.9z M409.9,892.5h-4.8v2.9h4.8V892.5z M409.9,900v-3h-4.8v3H409.9z"/>
		<path class="st5" d="M433.6,886.6c2.3,2.3,4.4,4.6,6.4,7l-1.5,1.4c-0.6-0.7-1.2-1.5-1.7-2.2c-6.5,0.3-11.4,0.6-14.8,0.8
			c-0.8,0.1-1.6,0.2-2.3,0.4l-0.7-2c0.7-0.3,1.3-0.6,1.8-1.1c2.5-2.2,4.7-4.7,6.7-7.6l1.6,1.1c-2.2,2.8-4.4,5.2-6.7,7.3
			c4.4-0.1,8.7-0.3,13-0.5c-1-1.2-2-2.3-3-3.4L433.6,886.6z M436.7,895.9v10.6H435V905h-11.9v1.5h-1.8v-10.6H436.7z M435,897.7
			h-11.9v5.7H435V897.7z"/>
		<path class="st5" d="M447,900.8l1,1.3c-1.9,1.5-3.9,2.8-6,4c-0.3-0.5-0.6-1-1.1-1.5C443.1,903.5,445.1,902.2,447,900.8z
			 M455.9,895.3c2,1.6,3.7,3.1,5.3,4.6l-1.3,1.3c-0.5-0.5-0.9-1-1.4-1.5c-1.9,0.1-3.8,0.2-5.7,0.3v3.5c0,1.9-0.9,2.9-2.8,2.9
			c-0.8,0-1.8,0-2.7,0c-0.1-0.6-0.2-1.2-0.3-1.9c1,0.1,1.9,0.2,2.7,0.2c1,0,1.5-0.5,1.5-1.5v-3c-1.5,0.1-2.9,0.2-4.2,0.3
			c-0.8,0.1-1.7,0.2-2.5,0.3l-0.6-1.9c1-0.2,2-0.6,2.9-1.1c1.4-0.7,2.7-1.5,3.9-2.2c-1.2,0.1-2.3,0.2-3.3,0.3
			c-0.7,0.1-1.3,0.2-1.8,0.3l-0.5-1.6c0.6-0.2,1.2-0.6,1.8-1c0.9-0.7,1.9-1.4,2.9-2.3h-6.3v2.7h-1.7v-4.3h9.1v-2.2h-8.4v-1.6h8.4
			v-2.3h1.8v2.3h8.5v1.6h-8.5v2.2h9.1v4.3h-1.7v-2.7h-8.2c-1.5,1.3-2.9,2.4-4.2,3.3c1.7-0.1,3.4-0.1,5-0.2c1-0.7,1.9-1.3,2.8-2
			l1.3,1.1c-3.2,2.1-6.3,4-9.2,5.5c3-0.1,6.2-0.3,9.5-0.5c-0.7-0.7-1.4-1.3-2.2-2L455.9,895.3z M455.7,901c2.5,1.2,4.7,2.4,6.7,3.5
			c-0.4,0.6-0.8,1.1-1,1.6c-1.9-1.3-4.1-2.5-6.6-3.8L455.7,901z"/>
		<path class="st5" d="M463.6,901.1c0.6-0.1,1.3-0.2,1.9-0.3v-14.5h-1.6v-1.6h10.6v0.8h9.4v1.5c-0.8,5.8-2.1,10-3.7,12.7
			c1.4,2.1,3,3.7,4.9,4.9c-0.4,0.5-0.8,1-1.3,1.7c-1.5-1.2-3.1-2.9-4.5-5.1c-1.5,2.1-3.2,3.9-5.2,5.4c-0.4-0.6-0.8-1.1-1.1-1.5v1.5
			h-1.6v-5.1c-2.6,0.4-5.1,0.9-7.5,1.3L463.6,901.1z M467.1,889.9h4.2v-3.6h-4.2V889.9z M467.1,895h4.2v-3.6h-4.2V895z M471.3,899.9
			v-3.4h-4.2v4.1C468.5,900.4,469.9,900.2,471.3,899.9z M474.3,887.1v-0.8h-1.3v13.3c0.8-0.1,1.6-0.3,2.5-0.4c0,0.6-0.1,1.2-0.1,1.6
			c-0.8,0.1-1.6,0.3-2.4,0.4v3.8c2-1.3,3.8-3,5.3-5.3c-1.7-2.9-2.7-7.1-3.2-12.6H474.3z M482.3,887.1h-5.6c0.3,4.6,1.2,8.2,2.6,11
			C480.5,895.9,481.5,892.2,482.3,887.1z"/>
		<path class="st5" d="M486.2,896.2c1-0.3,2.1-0.6,3.2-1V890h-2.9v-1.6h2.9v-4.6h1.7v4.6h2.7v1.6h-2.7v4.6c0.8-0.2,1.6-0.5,2.4-0.8
			c0,0.8,0,1.4,0,1.9c-0.7,0.2-1.5,0.5-2.4,0.8v7.1c0,1.7-0.6,2.6-1.9,2.6c-0.7,0-1.4,0-2.3,0c-0.1-0.7-0.2-1.3-0.3-2
			c0.9,0.1,1.5,0.1,2,0.1c0.6,0,0.9-0.4,0.9-1.1v-6.2c-0.9,0.3-1.9,0.7-3,1.1L486.2,896.2z M495,885.4c3.7,0,7.6-0.3,11.5-1l0.6,1.8
			c-4.3,0.5-7.8,0.8-10.4,0.8v5.5h11v1.7h-3.9v12.3H502v-12.3h-5.3c0,5.6-1,9.8-3,12.4c-0.4-0.5-0.8-1-1.4-1.5
			c1.8-2.3,2.7-5.9,2.7-10.9V885.4z"/>
		<path class="st5" d="M508.9,905c3.7-0.9,6.2-2,7.6-3.2c1.6-1.4,2.4-3.6,2.4-6.5v-2.6h1.7v2.7c0,1.6-0.2,3-0.6,4.2
			c3.6,1.7,6.9,3.5,9.9,5.3l-1.1,1.8c-2.8-1.8-5.9-3.7-9.4-5.5c-0.5,1-1.2,1.8-2,2.4c-1.7,1.4-4.1,2.5-7.4,3.3
			C509.7,906.4,509.4,905.7,508.9,905z M511.7,889.6h6.1c0.2-0.8,0.4-1.9,0.6-3.1h-9.2v-1.7h20.7v1.7h-9.5c-0.3,1.2-0.6,2.3-0.9,3.1
			h8.1v11.2h-1.7v-9.4h-12.5v9.5h-1.7V889.6z"/>
		<path class="st5" d="M44.2,925.6c0-0.4,0.1-0.8,0.4-1.1c0.3-0.3,0.6-0.4,1-0.4c0.4,0,0.7,0.1,1,0.4c0.3,0.3,0.4,0.6,0.4,1.1
			c0,0.4-0.1,0.8-0.4,1.1c-0.3,0.3-0.6,0.4-1,0.4c-0.4,0-0.7-0.1-1-0.4C44.3,926.3,44.2,926,44.2,925.6z"/>
		<path class="st5" d="M57,919.9v-1.7h8.6v1.7c-0.8,1.6-1.8,3.2-3,4.7v12h-1.7v-10.1c-1.2,1.4-2.6,2.7-4.1,3.9c-0.2-1-0.4-1.6-0.6-2
			c3.2-2.6,5.7-5.4,7.5-8.6H57z M59.9,914.5l1.3-1c0.8,1,1.5,2.1,2.3,3.1l-1.4,1.1C61.4,916.6,60.6,915.5,59.9,914.5z M63,925.8
			l1-1.2c1.3,0.9,2.5,2,3.8,3l-1.1,1.4C65.4,927.9,64.2,926.8,63,925.8z M68.8,913.9h1.7v18.7c0,1,0.5,1.5,1.5,1.5h1.8
			c1,0,1.6-0.5,1.8-1.6c0.1-1.1,0.2-2.6,0.3-4.4c0.6,0.3,1.2,0.5,1.8,0.7c-0.2,2.2-0.3,3.8-0.5,4.7c-0.3,1.6-1.3,2.4-3.2,2.4h-2.3
			c-1.9,0-2.9-1-2.9-3.1V913.9z"/>
		<path class="st5" d="M80,925.8h8.2v10.8h-1.6V935h-4.9v1.6H80V925.8z M86.6,927.4h-4.9v6h4.9V927.4z M82.1,914.6H97v9.3h-1.7v-0.8
			H83.8v0.8h-1.7V914.6z M95.3,916.2H83.8v5.2h11.4V916.2z M90.9,925.8h8.2v10.8h-1.6V935h-5v1.6h-1.6V925.8z M97.5,927.4h-5v6.1h5
			V927.4z"/>
		<path class="st5" d="M101.5,928.3c1.4-2.3,2.5-5.1,3.3-8.3h-3v-1.6h3.2v-4.6h1.6v4.6h2.5v1.6h-2.5v3.7l0.9-0.8
			c0.9,1,1.9,2,2.8,3.1l-1.2,1.2c-1.1-1.4-1.9-2.3-2.4-2.9v12.5h-1.6v-12.9c-0.8,2.5-1.7,4.7-2.7,6.4
			C102,929.7,101.8,929,101.5,928.3z M108.6,929h6.3v-3.8h-4.7v-1.6h4.7v-3.7h-5.2v-1.6h6.7c1.2-1.9,2.1-3.4,2.7-4.6l1.6,1.1
			c-0.7,1.1-1.6,2.3-2.5,3.5h3.9v1.6h-5.5v3.7h4.9v1.6h-4.9v3.8h6.2v1.6h-6.2v6.1h-1.7v-6.1h-6.3V929z M110.9,914.6l1.3-1
			c1.1,1.4,1.9,2.5,2.4,3.2l-1.5,1.1C112.3,916.5,111.6,915.4,110.9,914.6z"/>
		<path class="st5" d="M124.1,918h12c-0.1-1.4-0.1-3-0.1-4.6h1.8c0,1.5,0,3.1,0.1,4.6h7.4v1.8h-7.3c0.3,7.9,1.5,12.7,3.6,14.3
			c0.8,0.7,1.3,0.5,1.6-0.6c0.2-0.8,0.4-2,0.6-3.6c0.7,0.3,1.3,0.5,1.7,0.6c-0.3,1.8-0.6,3.3-0.9,4.4c-0.3,1.1-1,1.6-2,1.6
			c-1,0-2-0.5-3-1.6c-2.1-2.4-3.2-7.4-3.5-15.2h-12.1V918z M124.2,932.9c1.6-0.2,3.3-0.4,5-0.7v-6.6H125v-1.8h10.1v1.8H131v6.3
			c1.7-0.3,3.4-0.5,5.2-0.8c0,0.6,0,1.2,0,1.9c-4.3,0.7-8.1,1.3-11.4,1.9L124.2,932.9z M139.5,914.8l1-1.2c1,0.8,2.1,1.7,3.1,2.8
			l-1.2,1.4C141.5,916.8,140.5,915.8,139.5,914.8z"/>
		<path class="st5" d="M156.4,927.1c0,1,0.1,1.8,0.2,2.2c-3.5,2.4-5.6,3.8-6.4,4.5c-0.5,0.4-0.9,0.8-1.4,1.2l-1.2-1.9
			c0.7-0.7,1-1.4,1-2.4v-16.3h1.8v16.8C151.8,930.2,153.9,928.8,156.4,927.1z M163,914.1h1.8v4.2c0,4.3-0.5,7.8-1.5,10.3
			c1.8,2,3.5,4,5,5.9l-1.5,1.5c-1.5-2-2.9-3.9-4.4-5.7c-1.7,2.7-4.2,4.9-7.5,6.4c-0.3-0.5-0.7-1-1.2-1.6c3.6-1.8,6.1-3.9,7.3-6.3
			c1.3-2.3,2-5.9,2-10.6V914.1z M155.5,913.6c1,1.7,2,3.6,3.2,6l-1.7,1c-1.1-2.4-2.1-4.4-3.1-6.1L155.5,913.6z"/>
		<path class="st5" d="M169.4,935c5.3-1.1,8.7-2.8,10.2-5.1h-9.9v-1.7h10.7c0.5-1.6,0.7-4.5,0.7-8.5h1.8c0,4-0.2,6.9-0.6,8.5h8.2
			v1.7h-8.8c-0.1,0.2-0.3,0.5-0.4,0.8c3.1,1.4,6.1,2.9,9,4.4l-0.9,1.8c-3.1-1.7-6.1-3.3-9.1-4.8c-2,2.1-5.2,3.7-9.8,4.8
			C170.1,936.2,169.8,935.5,169.4,935z M170.2,916.9h9.9c-0.4-0.7-0.8-1.5-1.4-2.5l1.6-1c0.5,0.7,1,1.6,1.7,2.7l-1.2,0.7h9.2v4.2
			h-1.7v-2.5h-16.3v2.5h-1.7V916.9z M172.8,923.3c1.7,0.8,3.2,1.7,4.7,2.6l-0.9,1.6c-1.4-1-3-1.8-4.5-2.7L172.8,923.3z M174.8,919.7
			c1.7,0.9,3.2,1.8,4.5,2.6l-1,1.6c-1.3-0.9-2.8-1.9-4.4-2.9L174.8,919.7z"/>
		<path class="st5" d="M192,927.6c1.3-0.5,2.7-1,4.1-1.5v-5.5h-2c-0.3,1.5-0.6,2.8-1,4.1c-0.5-0.4-0.9-0.7-1.4-1
			c0.8-2.1,1.3-4.7,1.5-7.7l1.6,0.3c-0.1,1-0.2,1.9-0.4,2.8h1.7v-5.3h1.6v5.3h2.1v1.6h-2.1v4.9c0.7-0.3,1.4-0.6,2.2-0.9
			c0.1,0.7,0.2,1.3,0.2,1.8c-0.7,0.3-1.5,0.6-2.4,1v9.3h-1.6V928c-1.1,0.5-2.4,1-3.8,1.6L192,927.6z M199,922.8
			c1.4-2.4,2.7-5.5,3.9-9.3l1.6,0.5c-0.4,1.2-0.8,2.4-1.2,3.5h9.4c-0.3,6.3-0.5,11.1-0.7,14.5c-0.2,2.6-1.3,3.9-3.4,3.9
			c-0.8,0-1.8,0-2.8-0.1c-0.1-0.6-0.2-1.2-0.3-2c1.3,0.2,2.2,0.2,3,0.2c1.2,0,1.8-0.7,1.9-2.2c0.3-3.3,0.5-7.5,0.7-12.7h-1.6
			c-0.4,4-1,7.1-1.8,9.4c-1.1,3-3.1,5.5-5.9,7.6c-0.3-0.5-0.7-1-1.1-1.4c2.7-2.1,4.5-4.4,5.6-7.1c0.8-2.2,1.4-5,1.6-8.5h-1.9
			c-0.4,3-1,5.4-1.7,7.2c-0.9,2-2.2,3.9-3.9,5.5c-0.4-0.5-0.7-1-1.1-1.4c1.6-1.5,2.9-3.2,3.6-4.9c0.8-1.7,1.3-3.9,1.5-6.4h-1.6
			c-0.7,1.8-1.5,3.3-2.2,4.5C200,923.4,199.6,923.1,199,922.8z"/>
		<path class="st5" d="M215.5,919.7h8.1c0.2-1.9,0.3-4,0.3-6.2h1.9c0,2.3-0.1,4.4-0.3,6.2h9.2c-0.1,4.8-0.2,8.8-0.4,12
			c-0.1,2.9-1.6,4.4-4.3,4.4c-1.1,0-2.5,0-4-0.1c-0.1-0.6-0.2-1.3-0.3-2.2c1.4,0.2,2.7,0.3,4,0.3c1.7,0,2.6-0.9,2.7-2.8
			c0.2-3.1,0.3-6.3,0.4-9.8h-7.5c-1.1,6.9-4,12-8.9,15.4c-0.4-0.5-0.8-1.1-1.3-1.7c4.5-2.9,7.2-7.4,8.3-13.6h-7.8V919.7z M217.1,915
			l1.2-1.2c1.2,1.1,2.3,2.3,3.5,3.5l-1.3,1.3C219.3,917.4,218.2,916.2,217.1,915z M225.8,925.7l1.2-1.1c1.4,1.4,2.6,2.8,3.8,4.1
			l-1.3,1.3C228.3,928.6,227.1,927.2,225.8,925.7z"/>
		<path class="st5" d="M238.8,914.8c1.2,1.5,2.4,3.1,3.6,4.8c-0.1,0.1-0.6,0.5-1.5,1.4c-1.1-1.6-2.2-3.3-3.5-5L238.8,914.8z
			 M240.7,924.4c0.6,0.3,1.1,0.6,1.6,0.8c-1,3.2-2,6.5-3,9.7l-1.8-0.9C238.6,931.2,239.7,928,240.7,924.4z M241.8,923.1
			c2.1-2.8,3.7-6,5-9.6l1.6,0.6c-0.5,1.2-1,2.3-1.5,3.4h11.3v1.6h-5.2v3.5h4.7v1.6h-4.7v3.5h4.7v1.6h-4.7v3.8h5.5v1.6h-12.1v1.9
			h-1.7v-14.9c-0.6,1-1.2,1.9-1.8,2.8C242.7,924.1,242.3,923.6,241.8,923.1z M246.5,922.7h4.9v-3.5h-4.9V922.7z M246.5,927.8h4.9
			v-3.5h-4.9V927.8z M246.5,933.2h4.9v-3.8h-4.9V933.2z M250.5,914.3l1.4-1c0.6,0.8,1.2,1.7,1.9,2.8l-1.5,1.1
			C251.6,916.1,251,915.2,250.5,914.3z"/>
		<path class="st5" d="M271.8,930.6l-1.8,6.2h-1.5l1.3-6.2H271.8z"/>
		<path class="st5" d="M282.7,927.1h3.3c0.3-0.6,0.6-1.2,0.9-1.8l1.6,0.5c-0.2,0.4-0.5,0.9-0.7,1.3h5.3v1.5c-0.5,1.5-1.4,2.9-2.5,4
			c0.8,0.4,1.6,0.8,2.4,1.2l-0.9,1.6c-0.9-0.5-1.8-1.1-2.8-1.6c-1.6,1.3-3.7,2.3-6.1,3c-0.2-0.5-0.5-1-0.7-1.6
			c2.1-0.5,3.9-1.3,5.3-2.2c-1.2-0.7-2.5-1.4-3.9-2.1c0.5-0.7,0.9-1.5,1.3-2.2h-2.5V927.1z M283,919.1h5v-5.2h1.6v5.2h4.1v1.5h-4.1
			v1.4l0.6-0.8c1.3,1.1,2.5,2,3.4,2.8l-1,1.3c-0.8-0.8-1.8-1.7-3-2.7v2.7h-1.6V922c-1.3,1.5-2.8,2.8-4.6,3.9
			c-0.3-0.5-0.6-0.9-0.9-1.4c1.8-1.1,3.5-2.4,5-3.9H283V919.1z M283.5,915.4l1.2-0.9c0.6,0.9,1.3,1.8,2,2.8l-1.3,1
			C284.8,917.3,284.2,916.4,283.5,915.4z M286,930.4c1,0.5,2.1,1,3.1,1.6c1-0.9,1.8-2,2.3-3.3h-4.5
			C286.6,929.3,286.3,929.8,286,930.4z M292.7,914.4l1.3,1c-0.8,1.1-1.6,2.2-2.4,3.1c-0.3-0.3-0.7-0.6-1.2-1
			C291.2,916.6,292,915.5,292.7,914.4z M296.6,913.6l1.7,0.3c-0.3,1.5-0.7,2.9-1.1,4.2h6.6v1.6h-1.4c-0.4,4.6-1.3,8.2-2.8,10.9
			c1.2,1.7,2.6,3.1,4.4,4.2c-0.5,0.7-0.8,1.3-1.2,1.9c-1.8-1.2-3.2-2.7-4.4-4.4c-1.3,1.8-2.9,3.3-4.7,4.6c-0.3-0.5-0.7-0.9-1.2-1.5
			c2-1.4,3.6-3.1,4.9-4.9c-1.2-2.2-1.9-4.7-2.3-7.6c-0.3,0.6-0.6,1.1-0.9,1.6c-0.3-0.5-0.6-1-1.1-1.5
			C294.9,920.5,296,917.4,296.6,913.6z M300.8,919.7h-4c-0.1,0.2-0.2,0.4-0.2,0.6c0.3,3.3,1,6.1,2.2,8.5
			C299.8,926.5,300.5,923.5,300.8,919.7z"/>
		<path class="st5" d="M305.2,934.5h9.9v-1.3h-8.6V932h8.6v-1.3H310v0.6h-1.5v-7.2h14.8v7.2h-1.5v-0.6h-5.2v1.3h8.7v1.2h-8.7v1.3
			h9.9v1.3h-21.3V934.5z M305.4,921.7h21v1.3h-21V921.7z M308.7,914.5h14.4v6.7h-1.5v-0.6h-11.5v0.6h-1.5V914.5z M310,926.8h5.1
			v-1.5H310V926.8z M310,929.4h5.1v-1.5H310V929.4z M321.7,915.7h-11.5v1.2h11.5V915.7z M310.2,919.3h11.5v-1.3h-11.5V919.3z
			 M321.8,925.3h-5.2v1.5h5.2V925.3z M316.6,929.4h5.2v-1.5h-5.2V929.4z"/>
		<path class="st5" d="M333.9,936.6h-1.7v-12.1c-1,1.3-2.2,2.6-3.5,3.8c-0.3-0.5-0.6-1.1-1-1.7c2.8-2.5,4.9-5.3,6.5-8.4h-5.9v-1.7
			h6.7c0.4-1,0.8-2,1.1-3l1.8,0.4c-0.3,0.9-0.6,1.7-0.9,2.6h12.2v1.7h-13c-0.4,0.9-0.9,1.8-1.5,2.7h11.8v12.5c0,1.9-0.9,2.9-2.6,2.9
			c-0.8,0-1.9,0-3.5,0c-0.1-0.5-0.2-1.2-0.3-1.9c1.3,0.1,2.4,0.2,3.2,0.2c1,0,1.5-0.5,1.5-1.6v-1.7h-10.9V936.6z M344.7,922.5h-10.9
			v2.8h10.9V922.5z M333.9,929.7h10.9v-2.8h-10.9V929.7z"/>
		<path class="st5" d="M357.9,927.5c0.4,3-0.3,4.7-2,5c-0.6,0.1-1.4,0.2-2.2,0c-0.1-0.6-0.3-1.3-0.5-2c0.8,0.2,1.4,0.3,2,0.2
			c1-0.2,1.3-1.3,1-3.4c-0.2-1.2-0.9-2.7-2-4.2c0.5-1.7,1.2-4,2-6.8h-3.2v20.5h-1.6v-22.1h6.5v1.6c-0.7,2.2-1.4,4.4-2,6.5
			C357.1,924.6,357.8,926.1,357.9,927.5z M359.3,914.8h10.2v11.7H368v-0.6h-3.6c0.4,1.4,1.1,2.7,1.8,3.8c1.3-0.9,2.7-2,4.1-3.3
			l1.1,1.5c-1.6,1.2-3,2.2-4.2,3.1c1.3,1.4,2.8,2.5,4.7,3.3c-0.5,0.6-1,1.1-1.4,1.7c-4-2.3-6.6-5.6-7.7-10.1h-1.9v8
			c1-0.5,2.2-1.2,3.8-2.1c0,0.7,0.1,1.3,0.1,1.9c-1.3,0.7-2.5,1.4-3.7,2.2c-0.3,0.2-0.7,0.5-1.2,1l-1.2-1.8c0.4-0.4,0.6-0.9,0.6-1.5
			V914.8z M368,916.4h-7v3.1h7V916.4z M368,924.3v-3.2h-7v3.2H368z"/>
		<path class="st5" d="M384.9,930.6l-1.8,6.2h-1.5l1.3-6.2H384.9z"/>
		<path class="st5" d="M404.7,934.5c3.2,0.1,7.3,0,12.4-0.1c-0.2,0.6-0.5,1.2-0.7,1.8c-5.1,0-9.1,0-11.9,0c-2.6-0.1-4.4-1-5.5-2.7
			c-0.4,0.4-1.3,1.4-2.5,3l-0.9-2c0.9-0.9,1.8-1.7,2.7-2.6v-8.2h-2.5V922h4.1v10.3C401,933.6,402.6,934.4,404.7,934.5z M397.9,913.9
			c1.1,1.4,2.2,2.9,3.3,4.6l-1.6,1.1c-0.9-1.6-2-3.1-3.1-4.6L397.9,913.9z M401.6,923.9h6.4c0-0.3,0-1.6,0-3.9h-5.7v-1.6h7.4
			c1.4-1.9,2.4-3.5,3-4.8l1.7,1.1c-0.6,0.8-1.5,2-2.8,3.7h4.5v1.6h-6.4c0,2,0,3.3,0,3.9h7v1.6h-7.1c0,0.4-0.1,0.8-0.2,1.2
			c2.3,1.6,4.5,3.3,6.6,5l-1.1,1.6c-2.2-1.9-4.2-3.5-6-4.9c-1,2.2-2.9,3.9-5.8,5.2c-0.4-0.5-0.8-1-1.2-1.5c3.7-1.6,5.7-3.8,6-6.6
			h-6.3V923.9z M403.9,914.7l1.3-1.1c0.7,0.9,1.6,1.9,2.5,3.2l-1.5,1.1C405.4,916.6,404.6,915.5,403.9,914.7z"/>
		<path class="st5" d="M418.9,926.2h20.3v1.7h-7v5c0,1,0.5,1.5,1.4,1.5h2.3c1,0,1.5-0.4,1.6-1.1c0.1-0.7,0.2-1.7,0.2-3.1
			c0.5,0.2,1.1,0.5,1.9,0.7c-0.1,1.3-0.2,2.3-0.4,3.1c-0.2,1.3-1.1,2-2.6,2h-3.5c-1.8,0-2.7-1-2.7-3v-5.2h-3.9
			c0,4.4-2.4,7.3-7.1,8.8c-0.3-0.5-0.6-1.1-1.1-1.7c4.3-1.1,6.4-3.5,6.5-7.1h-6V926.2z M419.1,916.5h9.2c-0.3-0.6-0.6-1.4-1.1-2.2
			l1.7-0.8c0.6,1.2,1,2.2,1.4,3.1h8.6v4.3h-1.8v-2.6h-16.3v2.6h-1.8V916.5z M421.6,921.3h15.2v1.6h-15.2V921.3z"/>
		<path class="st5" d="M448.2,927.3c1.8,2.3,3.2,4.3,4.4,6l-1.4,1.1c-0.5-0.8-1.1-1.6-1.7-2.5c-2.1,1.1-3.9,2-5.4,2.8
			c-0.5,0.3-0.9,0.6-1.3,1l-1.2-1.5c0.4-0.5,0.7-1.1,0.7-1.8v-17.3h8.7v12.1h-1.6v-0.6H444v6.2c1.4-0.6,2.9-1.4,4.6-2.2
			c-0.5-0.8-1.1-1.6-1.7-2.4L448.2,927.3z M449.4,916.8H444v3.3h5.4V916.8z M449.4,925v-3.3H444v3.3H449.4z M453.5,915.4h7.6v14.2
			c0,2-0.9,3-2.7,3c-0.6,0-1.5,0-2.5,0c-0.1-0.7-0.2-1.4-0.3-2c1.1,0.1,1.9,0.2,2.4,0.2c0.9,0,1.4-0.5,1.4-1.6v-11.9h-4.3v19.6h-1.6
			V915.4z"/>
		<path class="st5" d="M463.8,932.9h3.8v-14.9h1.8v14.9h5.3v-19.3h1.9v6.9h7.2v1.9h-7.2v10.5h8.4v1.9h-21.1V932.9z"/>
	</g>
	<g>
		<path class="st1" d="M172,425.6l2.8,0.7c-1.4,5.1-4.5,7.7-9.4,7.7c-6.2-0.4-9.5-4.3-9.8-11.6c0.3-8,3.6-12.1,10-12.5
			c4.1,0.2,7,2.4,8.7,6.8l-2.7,0.7c-1.3-3.4-3.4-5.1-6.3-5.2c-4.4,0.5-6.8,3.8-7.2,10c0.3,6,2.7,9.3,7.1,9.7
			C168.9,431.8,171.1,429.7,172,425.6z"/>
		<path class="st1" d="M178,410.2h2.3v23.3H178V410.2z"/>
		<path class="st1" d="M184.3,410.2h2.3v3.2h-2.3V410.2z M184.3,416.6h2.3v17.1h-2.3V416.6z"/>
		<path class="st1" d="M196.8,418.3c-3.1,0-4.6,2.3-4.6,6.9c0,4.5,1.5,6.8,4.6,6.8c2.5,0,3.9-1.5,4.1-4.5l2.4,0.6
			c-0.6,4.1-2.8,6-6.6,5.9c-4.6-0.2-6.9-3.1-7-8.8c0.1-5.8,2.4-8.8,6.9-9c3.5,0.1,5.6,1.8,6.5,5l-2.3,0.8
			C200.2,419.7,198.8,418.5,196.8,418.3z"/>
		<path class="st1" d="M218.5,422.7v10.9h-2.4V423c0-3.2-1.2-4.8-3.6-4.8c-2.8,0.4-4.3,2-4.5,4.9v10.5h-2.4v-23.4h2.4v8.9
			c1.2-2,2.9-3,5.1-3C216.8,416,218.6,418.2,218.5,422.7z"/>
		<path class="st1" d="M233.3,428.3l2.4,0.7c-0.9,3.4-3.2,5.1-6.9,5c-4.8-0.2-7.3-3.1-7.4-8.7c0.2-5.9,2.7-8.9,7.3-9.1
			c4.6,0.2,7,3.2,7.1,9.1c0,0.3,0,0.5,0,0.6h-12c0.1,3.8,1.8,5.9,4.9,6.1C231.2,432,232.7,430.8,233.3,428.3z M223.9,423.8h9.5
			c-0.1-3.4-1.7-5.2-4.6-5.4C225.7,418.8,224.1,420.6,223.9,423.8z M226.3,414.5l3.6-4.2h1.8l-2.5,4.2H226.3z"/>
		<path class="st1" d="M252.1,410.2h2.3v3.2h-2.3V410.2z M252.1,416.6h2.3v17.1h-2.3V416.6z"/>
		<path class="st1" d="M267.7,424.2h-6.7v9.5h-2.4v-23.4h9.3c4.4,0.2,6.8,2.5,7.2,6.9C275.1,421.8,272.6,424.1,267.7,424.2z
			 M267.3,412.6h-6.3v9.3h6.3c3.5-0.1,5.2-1.7,5.3-4.8C272.4,414.2,270.7,412.7,267.3,412.6z"/>
		<path class="st1" d="M291.1,422.7v10.9h-2.4V423c0-3.2-1.2-4.8-3.6-4.8c-2.8,0.4-4.3,2-4.5,4.9v10.5h-2.4v-23.4h2.4v8.9
			c1.2-2,2.9-3,5.1-3C289.4,416,291.2,418.2,291.1,422.7z"/>
		<path class="st1" d="M301.3,434c-4.7-0.3-7.1-3.2-7.3-8.6c0.1-6,2.7-9.1,7.5-9.3c4.5,0.2,6.9,3.2,7.1,8.9
			C308.5,431,306.1,434,301.3,434z M301.4,418.2c-3.3,0.1-5,2.5-5.1,7.1c0.1,4.4,1.8,6.6,5.1,6.8c3.1-0.2,4.7-2.5,4.7-6.9
			C305.9,420.9,304.3,418.5,301.4,418.2z"/>
		<path class="st1" d="M324.6,422.7v10.9h-2.3V423c-0.1-3.1-1.3-4.7-3.7-4.8c-2.8,0.4-4.3,2-4.6,4.9v10.4l-2.3,0.1v-17.1h2.3v2.6
			c1.2-2,2.9-3,5.2-3C322.8,416.1,324.6,418.3,324.6,422.7z"/>
		<path class="st1" d="M339.8,428.3l2.4,0.7c-0.9,3.4-3.2,5.1-6.9,5c-4.8-0.2-7.3-3.1-7.4-8.7c0.2-5.9,2.7-8.9,7.3-9.1
			c4.6,0.2,7,3.2,7.1,9.1c0,0.3,0,0.5,0,0.6h-12c0.1,3.8,1.8,5.9,4.9,6.1C337.6,432,339.1,430.8,339.8,428.3z M330.4,423.8h9.4
			c-0.1-3.4-1.7-5.2-4.6-5.4C332.2,418.8,330.6,420.6,330.4,423.8z"/>
		<path class="st1" d="M346.2,412.7c-0.1-1-0.2-1.9-0.4-2.7c7.8-0.1,15-0.4,21.8-0.8l0.4,2.6c-0.9,0-2.2,0.1-4.1,0.2
			c-2.3,0.1-4,0.2-5.2,0.2v4.9h9.3v2.5h-9.3v4.9h11.5v2.6h-11.5v4.5c0.1,2.7-1.2,4-3.8,4c-1.6,0-3.1,0-4.5,0
			c-0.1-0.4-0.2-0.9-0.3-1.6c-0.1-0.5-0.1-0.9-0.2-1.2c0.8,0.1,2.1,0.1,3.9,0.1c1.7,0.1,2.4-0.6,2.4-2.1v-3.6h-11.9v-2.6h11.9v-4.9
			h-9.9v-2.5h9.9v-4.8C352.7,412.4,349.4,412.6,346.2,412.7z"/>
		<path class="st1" d="M372.2,416v-2.5h3.3V408h2.4v5.5h3.3v2.5h-3.3v4l0.8-0.8c0.4,0.4,1,1,1.8,1.9c0.8,0.9,1.3,1.4,1.6,1.8
			l-1.5,1.9c-0.9-1.1-1.8-2.1-2.7-3v14.3h-2.4v-14.4c-0.8,3-1.9,5.4-3.2,7.4c-0.2-1.2-0.5-2.3-0.8-3.4c1.7-2.3,3-5.5,4-9.5H372.2z
			 M381.3,436c-0.1-0.2-0.4-0.4-0.8-0.7c-0.6-0.6-1-1.1-1.4-1.3c1.8-2,2.9-3.8,3.5-5.6c0.5-1.7,0.8-4.6,0.8-8.7v-10.1h9.8v21.8
			c-0.1,0.8,0.2,1.2,0.9,1.2h0.4c0.7,0,1.1-0.5,1.2-1.4c0.1-1.3,0.3-3,0.3-5c0.6,0.2,1.3,0.4,1.9,0.6c-0.1,2.6-0.2,4.4-0.4,5.4
			c-0.2,1.9-1.2,2.8-2.8,2.8h-1.3c-1.8,0-2.7-1-2.7-3v-19.7h-5v7.6c0,4.4-0.3,7.6-0.9,9.7C384.2,431.7,383.1,433.8,381.3,436z"/>
		<path class="st1" d="M401,436.1c-0.1-0.2-0.3-0.4-0.5-0.8c-0.4-0.8-0.6-1.3-0.9-1.5c4.8-1,7-3.3,6.5-6.8v-2h11.5v6.2
			c-0.1,1.3,0.5,1.8,1.7,1.8h1.3c1.1,0.1,1.8-0.4,1.9-1.4c0.3-1.2,0.5-2.3,0.5-3.5c0.7,0.3,1.5,0.6,2.3,0.9
			c-0.1,1.5-0.3,2.7-0.5,3.6c-0.4,1.9-1.6,2.8-3.8,2.7h-2.8c-2.2,0-3.2-1.1-3.2-3.4v-4.7h-6.5v0.7C408.9,432,406.4,434.7,401,436.1z
			 M399.9,412.9v-2.3h11.2v-2.7h2.6v2.7h11.2v2.3h-11.2v2.6h9.2v2.2h-21v-2.2h9.3v-2.6H399.9z M400.2,425.7v-5.5h24.5v5.4h-2.5v-3.2
			h-19.6v3.3H400.2z"/>
	</g>
</g>
<g>
</g>
<g>
</g>
<g>
</g>
<g>
</g>
<g>
</g>
<g>
</g>
<g>
</g>
<g>
</g>
<g>
</g>
<g>
</g>
<g>
</g>
<g>
</g>
<g>
</g>
<g>
</g>
<g>
</g>
</svg>
