<?xml version="1.0" encoding="utf-8"?>
<!-- Generator: Adobe Illustrator 17.0.0, SVG Export Plug-In . SVG Version: 6.00 Build 0)  -->
<!DOCTYPE svg PUBLIC "-//W3C//DTD SVG 1.1//EN" "http://www.w3.org/Graphics/SVG/1.1/DTD/svg11.dtd">
<svg version="1.1" id="Layer_1" xmlns="http://www.w3.org/2000/svg" xmlns:xlink="http://www.w3.org/1999/xlink" x="0px" y="0px"
	 width="719px" height="85.9px" viewBox="0 0 719 85.9" style="enable-background:new 0 0 719 85.9;" xml:space="preserve">
<style type="text/css">
	.st0{fill:#F5B76A;}
	.st1{fill:#FBAC4A;}
	.st2{fill:#FDF1E1;}
	.st3{fill:#FFFFFF;}
</style>
<g id="_x31_-3-small.svg">
	<polygon class="st0" points="496.8,85.9 547.9,0 93.7,0 222.8,85.9 	"/>
	<polygon class="st1" points="93.7,0 0,0 0,85.9 222.8,85.9 	"/>
	<polygon class="st1" points="709.3,85.9 719,83.2 719,0 547.9,0 496.8,85.9 	"/>
	<path class="st2" d="M323.3,66.6c-5.7,0-9-3.6-9-9.7v-5h5.6v4.8c0,3.2,1.3,4.6,3.4,4.6c2.1,0,3.6-1.4,3.6-4.6V45.2
		c0-2.7-1.1-4.1-3.2-4.1c-1.9,0-3.4,1.5-3.4,4.1v0.3h-5.7l1-24.3h16.1v5.4H321l-0.7,11.9c1.2-1.5,3.1-2.5,5.1-2.5c5.3,0,7,4.2,7,9.1
		v11.9C332.5,63,329,66.6,323.3,66.6z M337.9,74.2v-3.1c2.1-0.3,3.1-1.8,3.1-4.1v-0.9h-3.6V59h6.6v8C344,71.7,340.9,73.9,337.9,74.2
		z M358.1,66.6c-5.7,0-9.2-3.6-9.2-9.7V30.3c0-6.1,3.6-9.7,9.2-9.7c5.7,0,9.2,3.6,9.2,9.7v26.6C367.3,63,363.7,66.6,358.1,66.6z
		 M361.6,30.6c0-3.2-1.4-4.6-3.6-4.6c-2.1,0-3.6,1.4-3.6,4.6v26.1c0,3.2,1.4,4.6,3.6,4.6c2.1,0,3.6-1.4,3.6-4.6V30.6z M381.7,66.6
		c-5.7,0-9.2-3.6-9.2-9.7V30.3c0-6.1,3.6-9.7,9.2-9.7c5.7,0,9.2,3.6,9.2,9.7v26.6C390.9,63,387.4,66.6,381.7,66.6z M385.3,30.6
		c0-3.2-1.4-4.6-3.6-4.6c-2.1,0-3.6,1.4-3.6,4.6v26.1c0,3.2,1.4,4.6,3.6,4.6c2.1,0,3.6-1.4,3.6-4.6V30.6z M405.4,66.6
		c-5.7,0-9.2-3.6-9.2-9.7V30.3c0-6.1,3.6-9.7,9.2-9.7c5.7,0,9.2,3.6,9.2,9.7v26.6C414.6,63,411.1,66.6,405.4,66.6z M408.9,30.6
		c0-3.2-1.4-4.6-3.6-4.6c-2.1,0-3.6,1.4-3.6,4.6v26.1c0,3.2,1.4,4.6,3.6,4.6c2.1,0,3.6-1.4,3.6-4.6V30.6z"/>
	<path class="st3" d="M256.3,48.4c1.4,1.2,2.7,2.3,3.8,3.4c-0.6,0.7-1,1.2-1.4,1.6c-1.2-1.3-2.4-2.5-3.6-3.6L256.3,48.4z
		 M255.6,65.4c0.8-2.7,1.5-5.9,2.2-9.7c0.7,0.3,1.3,0.6,1.9,0.8c-0.7,3-1.4,6.2-2.1,9.5L255.6,65.4L255.6,65.4z M257.1,41.7
		c1.1,0.9,2.2,1.9,3.3,3c-0.5,0.5-0.9,1.1-1.3,1.5c-1-1.2-2.1-2.2-3.2-3.2L257.1,41.7z M260.9,48.6h17.4v1.7h-5.2c0,0.9,0,1.7,0,2.6
		h4.5V63c0,2-0.9,3-2.6,3c-0.8,0-1.6,0-2.5-0.1c-0.1-0.6-0.2-1.3-0.3-2c1,0.1,1.8,0.2,2.5,0.2c0.9,0,1.4-0.5,1.4-1.5v-1.8
		c-0.3,0.3-0.7,0.7-1.2,1.2c-0.8-1.2-1.7-2.2-2.4-3.2c-0.6,1.9-1.6,3.5-2.9,4.8c-0.3-0.5-0.7-0.9-1.2-1.4c1.9-1.7,2.9-4.3,3.2-7.6
		h-3.8c0,0.7-0.1,1.3-0.2,1.9c0.9,0.9,1.7,1.8,2.6,2.7c-0.1,0.1-0.6,0.6-1.3,1.3c-0.6-0.7-1.2-1.5-1.8-2.1c-0.6,1.8-1.5,3.4-2.8,4.7
		c-0.3-0.3-0.6-0.7-0.9-1.1v4.1h-1.7V52.9h4.4c0-0.9,0-1.7,0-2.6h-5.1V48.6z M260.9,44.1h4.5v-2.8h1.8v2.8h4.9v-2.8h1.8v2.8h4.5v1.7
		h-4.5V48h-1.8v-2.2h-4.9v2.2h-1.8v-2.2h-4.5V44.1z M263.2,61.5c1.6-1.6,2.5-3.9,2.7-6.8h-2.7V61.5z M267.6,50.4c0,0.7,0,1.6,0,2.6
		h3.8c0-0.8,0-1.7,0-2.6H267.6L267.6,50.4z M275.9,54.7h-2.8c0,0.8-0.1,1.6-0.3,2.3c1.3,1.4,2.3,2.6,3.1,3.6V54.7z M295,42.3
		l-4.8,10.8h3.8v2.4h-4.4v3.3h4.4v2.4h-4.4v4.8h-2.3v-4.8h-4.6v-2.4h4.6v-3.3h-4.6v-2.4h3.9l-4.8-10.8h2.6c2.2,5.3,3.6,8.7,4.1,10.2
		h0c0.2-0.6,0.6-1.8,1.3-3.6l2.7-6.6H295z"/>
</g>
<g>
</g>
<g>
</g>
<g>
</g>
<g>
</g>
<g>
</g>
<g>
</g>
<g>
</g>
<g>
</g>
<g>
</g>
<g>
</g>
<g>
</g>
<g>
</g>
<g>
</g>
<g>
</g>
<g>
</g>
</svg>
