<?xml version="1.0" encoding="utf-8"?>
<!-- Generator: Adobe Illustrator 17.0.0, SVG Export Plug-In . SVG Version: 6.00 Build 0)  -->
<!DOCTYPE svg PUBLIC "-//W3C//DTD SVG 1.1//EN" "http://www.w3.org/Graphics/SVG/1.1/DTD/svg11.dtd">
<svg version="1.1" id="Layer_1" xmlns="http://www.w3.org/2000/svg" xmlns:xlink="http://www.w3.org/1999/xlink" x="0px" y="0px"
	 width="720px" height="281.2px" viewBox="0 0 720 281.2" style="enable-background:new 0 0 720 281.2;" xml:space="preserve">
<style type="text/css">
	.st0{fill:#FDF1E1;}
	.st1{fill:none;}
	.st2{fill:#F8BE77;}
	.st3{fill:#FFA431;}
	.st4{fill:#FFFFFF;}
	.st5{fill-rule:evenodd;clip-rule:evenodd;fill:#FFA431;}
	.st6{fill:#FEC885;}
</style>
<g id="_x31_-3.svg">
	<path class="st0" d="M323.8,79.4c-5.7,0-9-3.9-9-10.6v-5.5h5.6v5.2c0,3.4,1.3,5,3.4,5c2.1,0,3.6-1.6,3.6-5V56.2
		c0-2.9-1.1-4.5-3.2-4.5c-1.9,0-3.4,1.6-3.4,4.5v0.3h-5.7l1-26.4h16.2V36h-10.8l-0.7,12.9c1.2-1.6,3.1-2.7,5.1-2.7
		c5.3,0,7.1,4.6,7.1,9.9v12.9C333,75.5,329.4,79.4,323.8,79.4z M338.3,87.7v-3.4c2.1-0.4,3.1-1.9,3.1-4.5v-1h-3.6v-7.7h6.6v8.7
		C344.5,84.9,341.4,87.4,338.3,87.7z M358.6,79.4c-5.7,0-9.2-3.9-9.2-10.6V40c0-6.7,3.6-10.6,9.2-10.6c5.7,0,9.2,3.9,9.2,10.6v28.9
		C367.8,75.5,364.2,79.4,358.6,79.4z M362.1,40.3c0-3.4-1.5-5-3.6-5c-2.1,0-3.6,1.6-3.6,5v28.3c0,3.4,1.5,5,3.6,5
		c2.1,0,3.6-1.6,3.6-5V40.3z M382.3,79.4c-5.7,0-9.2-3.9-9.2-10.6V40c0-6.7,3.6-10.6,9.2-10.6c5.7,0,9.2,3.9,9.2,10.6v28.9
		C391.5,75.5,387.9,79.4,382.3,79.4z M385.8,40.3c0-3.4-1.5-5-3.6-5s-3.6,1.6-3.6,5v28.3c0,3.4,1.5,5,3.6,5s3.6-1.6,3.6-5V40.3z
		 M406,79.4c-5.7,0-9.2-3.9-9.2-10.6V40c0-6.7,3.6-10.6,9.2-10.6c5.7,0,9.2,3.9,9.2,10.6v28.9C415.2,75.5,411.6,79.4,406,79.4z
		 M409.5,40.3c0-3.4-1.5-5-3.6-5c-2.1,0-3.6,1.6-3.6,5v28.3c0,3.4,1.5,5,3.6,5c2.1,0,3.6-1.6,3.6-5V40.3z"/>
	<path class="st0" d="M256.6,61.1c1.4,1.2,2.7,2.3,3.8,3.4c-0.6,0.7-1,1.2-1.4,1.6c-1.2-1.3-2.4-2.5-3.6-3.6L256.6,61.1z M256,78.2
		c0.8-2.7,1.5-5.9,2.2-9.7c0.7,0.3,1.3,0.6,1.9,0.8c-0.7,3-1.4,6.2-2.1,9.5L256,78.2L256,78.2z M257.4,54.5c1.1,0.9,2.2,1.9,3.3,3
		c-0.5,0.5-0.9,1.1-1.3,1.5c-1-1.2-2.1-2.2-3.2-3.2L257.4,54.5z M261.2,61.4h17.4v1.7h-5.2c0,0.9,0,1.7,0,2.6h4.5v10.1
		c0,2-0.9,3-2.6,3c-0.8,0-1.6,0-2.5-0.1c-0.1-0.6-0.2-1.3-0.4-2c1,0.1,1.8,0.2,2.5,0.2c0.9,0,1.4-0.5,1.4-1.5v-1.8
		c-0.3,0.3-0.7,0.7-1.2,1.2c-0.8-1.2-1.7-2.2-2.4-3.2c-0.6,1.9-1.6,3.5-2.9,4.8c-0.3-0.5-0.7-0.9-1.2-1.4c1.9-1.7,2.9-4.3,3.2-7.6
		h-3.8c0,0.7-0.1,1.3-0.2,1.9c0.9,0.9,1.7,1.8,2.6,2.7c-0.1,0.1-0.6,0.6-1.3,1.3c-0.6-0.7-1.2-1.5-1.8-2.1c-0.6,1.8-1.5,3.4-2.8,4.7
		c-0.3-0.3-0.6-0.7-0.9-1.1V79h-1.7V65.7h4.4c0-0.9,0-1.7,0-2.6h-5.1V61.4z M261.3,56.9h4.5v-2.8h1.8v2.8h5V54h1.8v2.8h4.5v1.7h-4.5
		v2.2h-1.8v-2.2h-5v2.2h-1.8v-2.2h-4.5V56.9z M263.6,74.2c1.6-1.6,2.5-3.9,2.7-6.8h-2.7V74.2z M268,63.1c0,0.7,0,1.6,0,2.6h3.9
		c0-0.8,0-1.7,0-2.6H268L268,63.1z M276.3,67.4h-2.8c0,0.8-0.1,1.6-0.3,2.3c1.3,1.4,2.3,2.6,3.1,3.6V67.4z M295.4,55.1l-4.8,10.8
		h3.8v2.4H290v3.3h4.4v2.4H290v4.8h-2.3v-4.8H283v-2.4h4.6v-3.3H283v-2.4h3.9l-4.8-10.8h2.6c2.2,5.3,3.6,8.7,4.1,10.2h0
		c0.2-0.6,0.6-1.8,1.3-3.6l2.7-6.6H295.4z"/>
	<g>
		<polygon class="st1" points="720,0 0,0 0,281.2 71,281.2 71.4,108.7 84.4,116.1 84.4,90.7 255,189.5 234,201.6 247,209 
			119.6,281.2 720,281.2 		"/>
		<polygon class="st2" points="84.4,116.1 71.4,108.7 71,281.2 84,281.2 		"/>
		<polygon class="st2" points="234,201.6 95.3,281.2 119.6,281.2 247,209 		"/>
		<polygon class="st3" points="84.4,90.7 84.4,116.1 84,281.2 95.3,281.2 234,201.6 255,189.5 		"/>
	</g>
	<path class="st4" d="M105.4,216.9h-1.5v-9.5c-1.3,1.4-2.6,2.4-3.9,2.9l-0.9-1.3c3.2-1.4,5.4-4.2,6.7-8.3h-6.1v-1.5h7.9
		c-0.4,2.4-1.2,4.5-2.3,6.1V216.9z M99.1,185.9c1.6-1,3-2.8,4.2-5.3l1.2,0.7c-0.7,2-2.2,3.8-4.4,5.6c-0.1-0.1-0.3-0.2-0.5-0.5
		C99.4,186.2,99.3,186,99.1,185.9L99.1,185.9z M104.8,198.6c-0.8-1.3-1.8-2.4-3-3.2l1-1c1.4,1,2.5,2.1,3.1,3.2L104.8,198.6
		L104.8,198.6z M102.9,179.5v-8.2h5.3v-6.9h1.5v2.6h8.8v1.4h-8.8v3h6.8v8.2H102.9z M104.4,178.1h10.6v-5.4h-10.6V178.1z M107,181.2
		c1,1.4,1.9,2.9,2.5,4.7l-1.4,0.4c-0.4-1.5-1.2-3.1-2.5-4.8C106.1,181.4,106.6,181.3,107,181.2L107,181.2z M108.5,210
		c-0.7-1.3-1.6-2.4-2.8-3.3l1-1c1.2,1,2.2,2.2,3,3.4L108.5,210L108.5,210z M111.7,181.1c1.3,1.3,2.3,2.9,3,4.8l-1.3,0.5
		c-0.8-1.8-1.7-3.3-3-4.7L111.7,181.1L111.7,181.1z M111.8,214.2v-19.2h1.5v19.4c0,0.5,0.3,0.8,0.8,0.8h3.9c0.8,0,1.3-1,1.5-2.9
		l1.3,0.9c-0.3,1.6-0.6,2.5-1,2.9c-0.4,0.4-0.9,0.6-1.6,0.6h-4.6c-0.6,0-1-0.2-1.3-0.5C112,215.8,111.8,215.2,111.8,214.2z
		 M119.2,186.5c-1-2-2.3-3.7-3.9-5.1l1.1-0.7c1.7,1.6,3.1,3.3,4.1,5.1L119.2,186.5L119.2,186.5z M122.6,175.6v-1.5h9.5v-4.4H124
		v-1.5h8.1v-4h1.5v4h8v1.5h-8v4.4h9.5v1.5h-9.5v8.1h6v-7.1h1.5v10.4h-1.5v-1.8h-13.3v1.8h-1.5v-10.4h1.5v7.1h5.8v-8.1H122.6z
		 M131.4,206v11.2h-1.5v-1.8H125v1.8h-1.5V206H131.4z M129.9,207.4H125v6.4h4.9V207.4z M126,203.6v-8.1h13.5v8.1H126z M127.4,202.1
		H138V197h-10.6V202.1z M140.5,215.2h-5v1.8H134v-11.1h8V217h-1.5V215.2z M135.5,213.8h5v-6.4h-5V213.8z M156.8,173.7h-1.5V169h-0.1
		c-1.2,2-3,3.7-5.2,5.3v0h12.7v8.3h-13.5V175c-1.8,1.1-2.7,1.7-3,1.8l-1-1.1c3.9-2,6.6-4.2,8.3-6.6h-7.4v-1.5h9.2v-3.1h1.5v3.1h9.2
		v1.5h-7.1c2.8,2.8,5.7,4.9,8.6,6.3l-1.2,1.2c-3.5-2-6.6-4.5-9.3-7.5h-0.2V173.7z M154.3,211.3v1.7l-4.6,2.6l-0.9-1.3
		c0.4-0.3,0.6-0.8,0.6-1.3v-9.4h-3.6V202h5.1v11.1L154.3,211.3z M166.2,185.7h-20.5v-1.5h20.5V185.7z M150.6,199.7
		c-0.6-1.2-1.5-2.4-2.9-3.6l1-0.9c1.3,0.9,2.3,2.1,3.1,3.6L150.6,199.7L150.6,199.7z M161.2,177.7v-1.9h-10.6v1.9H161.2z
		 M161.2,181.1v-2h-10.6v2H161.2z M153.9,198.9h6.4c1.3-1.2,2.2-2.8,2.9-4.8l1.4,0.8c-0.6,1.5-1.4,2.9-2.4,4h3.5v1.5h-5.1v3.5h4.3
		v1.5h-4.3v3.9h5.7v1.5h-5.7v6.3h-1.5v-6.3h-5.7v-1.5h5.7v-3.9h-4.3v-1.5h4.3v-3.5h-5.2V198.9z M155.9,194.1
		c1.5,0.9,2.5,2.1,3.1,3.7l-1.2,0.8c-0.6-1.5-1.6-2.7-3.1-3.6L155.9,194.1L155.9,194.1z M171.4,199.7c0,1.6-0.6,3.5-1.8,5.7
		l-1.4-0.7c1.2-2,1.8-3.8,1.9-5.4L171.4,199.7L171.4,199.7z M175.2,187.1h-1.5V177c-1.4,1.2-2.7,2.1-3.9,2.8l-1.1-1.2
		c0.1-0.1,0.3-0.2,0.7-0.4c2.3-1.4,4.2-3,5.6-5h-5.4v-1.4h6.3c0.2-0.3,0.5-0.9,0.8-1.7h-5.1v-1.4h5.6c0.1-0.4,0.3-0.9,0.3-1.4
		l-6.4,0.3l-0.7-1.5c6.2,0,11.5-0.5,15.8-1.5l0.7,1.2c-3,0.7-5.6,1.2-7.8,1.3c0,0.4-0.1,0.9-0.3,1.5h7.6v1.4h-8
		c-0.4,0.9-0.6,1.5-0.8,1.7h11.2v1.4H177c-0.2,0.3-0.6,0.8-1.2,1.5h10.1V187h-1.5v-1.3h-9.2V187.1z M173.4,200.1l0.9-0.5
		c1,1.5,1.5,2.3,1.5,2.5h5.9v-1.7h-4.4V199h4.4v-1.5h-5.4V196h5.4v-1.8h1.5v1.8h5.6v1.5h-5.6v1.5h4.4v1.5h-4.4c0,0.3,0,0.9,0,1.7
		h6.8v1.5h-14.1l-1,0.4c-0.2-0.9-0.7-1.9-1.4-3h-0.1v16.1h-1.5v-22.4h1.5V200.1z M175.2,176.2v1.6h9.2v-1.6H175.2z M184.4,179.1
		h-9.2v1.8h9.2V179.1z M175.2,182.3v1.9h9.2v-1.9H175.2z M187.8,205.1v9.9c-0.1,0.3-0.2,0.6-0.4,0.9c-0.2,0.3-0.5,0.5-0.7,0.6
		c-0.3,0.1-0.7,0.2-1.3,0.2l-1.7,0l-0.5-1.5c0.3,0,0.6,0,1,0c1,0,1.5-0.1,1.7-0.2c0.2-0.1,0.3-0.3,0.4-0.6c0.1-0.3,0.1-0.8,0.1-1.5
		h-7.6v4.1h-1.5v-12H187.8z M186.3,208.2v-1.6h-7.6v1.6H186.3z M186.3,211.6v-1.9h-7.6v1.9H186.3z"/>
	<circle class="st5" cx="465.2" cy="199.2" r="27.5"/>
	<path class="st6" d="M446.9,198.4c0-8.8,4.8-15.3,10.9-15.3c6.2,0,10.9,6.5,10.9,15.3c0,8.6-4.7,15-10.9,15
		C451.7,213.4,446.9,207,446.9,198.4z M464.9,198.4c0-7.1-3.3-11.1-7.2-11.1c-3.8,0-7.1,4-7.1,11.1c0,7,3.3,10.8,7.1,10.8
		C461.6,209.2,464.9,205.3,464.9,198.4z M472.4,183.8h3.5v4.9c1.8-4.1,5-5.6,7.5-5.2v4.7c-4-0.4-7.3,2-7.3,7.8v16.7h-3.6V183.8z"/>
</g>
<g>
</g>
<g>
</g>
<g>
</g>
<g>
</g>
<g>
</g>
<g>
</g>
<g>
</g>
<g>
</g>
<g>
</g>
<g>
</g>
<g>
</g>
<g>
</g>
<g>
</g>
<g>
</g>
<g>
</g>
</svg>
