<?xml version="1.0" encoding="utf-8"?>
<!-- Generator: Adobe Illustrator 17.0.0, SVG Export Plug-In . SVG Version: 6.00 Build 0)  -->
<!DOCTYPE svg PUBLIC "-//W3C//DTD SVG 1.1//EN" "http://www.w3.org/Graphics/SVG/1.1/DTD/svg11.dtd">
<svg version="1.1" id="Layer_1" xmlns="http://www.w3.org/2000/svg" xmlns:xlink="http://www.w3.org/1999/xlink" x="0px" y="0px"
	 width="581px" height="964px" viewBox="0 0 581 964" style="enable-background:new 0 0 581 964;" xml:space="preserve">
<style type="text/css">
	.st0{fill:none;}
	.st1{fill:#333333;}
	.st2{fill:#343434;}
	.st3{fill:#999999;}
	.st4{fill:#DB8937;}
	.st5{fill-rule:evenodd;clip-rule:evenodd;fill:#DF9431;}
	.st6{fill:#FFFFFF;}
</style>
<g id="_x32_-1-detail.svg">
	<rect x="0" y="0" class="st0" width="581" height="964"/>
	<path class="st1" d="M151.7,362.7l-2.7-7.1h-9.8l-2.6,7.1H134l8.7-23.4h2.6l8.9,23.4H151.7z M140,353.3h8.1l-3.6-10
		c-0.1-0.4-0.2-0.9-0.4-1.6c-0.2,0.7-0.4,1.3-0.5,1.6L140,353.3z M180.4,356.4c-0.2,4.1-2.6,6.2-7.2,6.3h-8.9v-23.4h8.4
		c4.3,0.2,6.6,2.2,6.9,5.9c-0.2,2.9-1.7,4.6-4.3,5.2v0.1C178.4,350.9,180.1,352.9,180.4,356.4L180.4,356.4z M176.9,345.2
		c-0.1-2.3-1.8-3.6-4.9-3.6h-5.6v7.9h5.6C175,349.3,176.6,347.9,176.9,345.2L176.9,345.2z M177.9,356c-0.2-2.7-2-4.1-5.5-4.2h-5.9
		v8.8h6.4C176.2,360.6,177.9,359.1,177.9,356L177.9,356z M199.7,362.7l-2.7-7.1h-9.8l-2.6,7.1H182l8.7-23.4h2.6l8.9,23.4H199.7z
		 M188,353.3h8.1l-3.6-10c-0.1-0.4-0.2-0.9-0.4-1.6c-0.2,0.7-0.4,1.3-0.5,1.6L188,353.3z M220.1,339.2v2.2h-7.3v21.2h-2.5v-21.2H203
		v-2.2H220.1z M237.6,339.2h2.4v23.4h-2.4v-10.9h-12.1v10.9H223v-23.4h2.5v10.2h12.1V339.2z M245.1,362.7h2.4v-23.4h-2.4V362.7z
		 M269.5,362.7v-23.4h-2.4v17.1c0,1.3,0.1,2.5,0.2,3.6h-0.1c-0.1-0.5-0.4-1.1-0.9-1.9l-11.1-18.9h-2.8v23.4h2.4v-17.2
		c0-1.6-0.1-2.9-0.3-3.9h0.1c0.3,0.9,0.6,1.7,1,2.3l11.2,18.8H269.5z M284.2,350.6h9.3v8.6c-1.8,2.6-4.9,3.9-9.3,3.9
		c-6.8-0.4-10.3-4.3-10.7-11.7c0.3-8,3.7-12.1,10.2-12.4c4.8,0.1,8,2.4,9.6,6.9l-2.7,0.7c-1.2-3.4-3.5-5.2-7-5.3
		c-4.6,0.5-7.1,3.8-7.5,10c0.4,6,3,9.3,8,9.7c3.2,0,5.6-0.9,7-2.8v-5.3h-6.9V350.6z M320.5,362.7l-2.7-7.1H308l-2.6,7.1h-2.6
		l8.7-23.4h2.6l8.9,23.4H320.5z M308.9,353.3h8.1l-3.6-10c-0.1-0.4-0.2-0.9-0.4-1.6c-0.2,0.7-0.4,1.3-0.5,1.6L308.9,353.3z
		 M342,346.2c-0.1,4.6-2.6,7-7.4,7h-6.7v9.5h-2.4v-23.4h9.3C339.1,339.5,341.5,341.8,342,346.2L342,346.2z M339.4,346
		c-0.1-2.9-1.9-4.4-5.3-4.5h-6.3v9.3h6.3C337.5,350.8,339.3,349.2,339.4,346L339.4,346z M348,360.6h13.7v2.1h-16.2v-23.4H361v2.2
		h-13v8h12.3v2.3H348V360.6z M364.5,346.9v-2.8h11c0.1-2.8,0.2-5.1,0.2-6.9h2.7c0,3,0,5.4-0.1,6.9h11.1v2.8h-10.9
		c1.2,7.1,5,12.2,11.4,15.1c-0.6,1-1.2,1.9-1.7,2.6c-6.3-3.5-10-8.5-11.2-14.9c-1.2,6.1-4.9,11.2-11.2,15.2
		c-0.6-0.8-1.2-1.6-1.8-2.5c6.4-3.7,10.1-8.9,11.2-15.6H364.5z M377.1,363.9c-0.3-0.4-0.8-1.1-1.6-2c-1.2-1.4-2-2.4-2.5-3l1.9-1.6
		c0.2,0.3,0.6,0.9,1.3,1.6c1.4,1.6,2.3,2.7,2.9,3.3L377.1,363.9z M392.6,364.9v-26.5h8.6v2.5l-2.3,7.7c1.7,2,2.4,4.3,2.4,6.9
		c0.1,3-1.1,4.7-3.4,4.9c-0.4,0.1-1.1,0.1-1.9,0.1c-0.1-0.8-0.3-1.7-0.6-2.8c0.8,0.1,1.4,0.1,1.9,0.1c1.1,0,1.7-0.9,1.7-2.6
		c0.1-2-0.8-4.2-2.5-6.4l2.3-8.1H395v24.1H392.6z M403,364.9v-26.3h13.5v26.3h-2.6v-2h-8.4v2H403z M405.4,341.2v8.3h8.4v-8.3H405.4z
		 M405.4,352v8.6h8.4V352H405.4z M420.3,347.8c-0.1-0.2-0.3-0.6-0.5-1.1c-0.4-0.6-0.6-1.1-0.8-1.3c1.4-2.3,2.4-5.2,3.2-8.4l2.4,0.5
		c-0.4,1.2-0.8,2.3-1.2,3.5h4v2.2h-4.9c-0.4,1.1-0.9,2.2-1.5,3.3h5.8v2.1h-2.4v3.8h2.9v2.3h-2.9v5.6c0.9-0.8,1.7-1.6,2.5-2.6
		c0.1,0.3,0.1,0.8,0.2,1.5c0.1,0.5,0.2,0.9,0.2,1.2c-0.2,0.2-0.5,0.4-1,0.8c-1.1,0.8-1.9,1.4-2.5,2c-0.1,0.1-0.2,0.3-0.4,0.6
		c-0.3,0.3-0.5,0.5-0.6,0.7l-1.4-2c0.5-0.6,0.8-1.4,0.8-2.5v-5.4h-3v-2.3h3v-3.8h-1.5v-1.5L420.3,347.8z M439.9,364.3
		c-1.9,0-2.9-0.9-2.9-2.7v-3.5h-2.5c0,3.4-2.3,5.8-6.8,7c-0.1-0.2-0.3-0.6-0.5-1.1c-0.3-0.5-0.5-0.8-0.6-1.1c4-0.9,5.9-2.6,5.7-4.9
		h-3.3v-9.5h14.1v9.5h-3.8v3.2c-0.1,0.7,0.4,1.1,1.3,1.1h1.1c0.9,0,1.3-0.4,1.4-1.1c0.1-0.6,0.3-1.4,0.3-2.2
		c0.6,0.2,1.3,0.4,1.8,0.6c-0.1,0.9-0.2,1.7-0.3,2.3c-0.3,1.6-1.3,2.3-3,2.3H439.9z M428.7,341.5v-2h6.3c0-0.1,0-0.2-0.1-0.5
		c-0.1-0.5-0.4-1.1-0.6-1.8l2.6-0.4c0.1,0.5,0.4,1.2,0.6,2.1c0.1,0.2,0.1,0.4,0.1,0.5h6.4v2h-4.1l1.8,0.5c-0.1,0.3-0.4,0.7-0.8,1.3
		c-0.3,0.6-0.5,1.1-0.8,1.4h4.7v2h-17.1v-2h4.5c-0.1-0.2-0.2-0.4-0.4-0.8c-0.2-0.4-0.6-1-1.1-1.8l1.9-0.6H428.7z M431.1,350.5v2h9.8
		v-2H431.1z M431.1,354.2v1.9h9.8v-1.9H431.1z M437.6,344.6c0.4-0.6,0.9-1.5,1.4-2.6c0.1-0.2,0.3-0.4,0.3-0.6H433c0.6,1,1.2,2,1.7,3
		l-0.1,0.1H437.6z"/>
	<path class="st2" d="M146.2,774.9c3.5-0.2,5.7-2.3,6.7-6.3l2.8,0.7c-1.4,5.1-4.5,7.7-9.4,7.7c-6.2-0.4-9.5-4.3-9.8-11.6
		c0.3-8,3.6-12.1,10-12.5c4.1,0.2,7,2.4,8.7,6.8l-2.7,0.7c-1.3-3.4-3.4-5.1-6.3-5.2c-4.4,0.5-6.8,3.8-7.2,10
		C139.4,771.2,141.8,774.5,146.2,774.9L146.2,774.9z M164.5,761.7c0.6,0,1.3,0.2,1.9,0.7l1-2.3c-0.9-0.6-1.7-0.9-2.6-0.8
		c-1.7,0.1-2.9,1.2-3.7,3.4h-0.1v-3h-2.3v17.1h2.3v-9.3c0-1.9,0.3-3.2,1-4.1C162.8,762.2,163.7,761.7,164.5,761.7L164.5,761.7z
		 M175.9,761.3c-2.7-0.2-4.3,1-4.6,3.5l-2.3-0.7c0.8-3.5,3.1-5.2,7-5c4.2-0.1,6.3,2.1,6.1,6.6v6.9c-0.1,1.9,0.2,3.2,0.9,4h-2.3
		c-0.5-0.6-0.8-1.4-0.8-2.3c-1.3,1.9-3.3,2.8-6.1,2.8c-3.3-0.2-5.1-1.6-5.3-4.5c0.1-3.3,2-5.1,5.7-5.5c3-0.3,4.9-0.7,5.5-1.3
		C180,762.7,178.7,761.2,175.9,761.3L175.9,761.3z M174.5,774.9c3.2-0.2,5-1.9,5.3-4.9v-2.2c-0.3,0.6-1.8,1.1-4.6,1.3
		c-2.9,0.4-4.3,1.5-4.2,3.3C171,774.1,172.2,774.9,174.5,774.9L174.5,774.9z M191.6,761.3c1.9,0,3.1,1,3.6,3l2.4-0.7
		c-0.6-3-2.7-4.5-6-4.6c-3.5,0.2-5.4,1.8-5.7,4.8c-0.1,2.9,1.9,4.6,6,5.2c2.7,0.5,4.1,1.6,4,3.2c-0.1,1.9-1.4,2.9-4,2.9
		c-2.4,0.1-3.8-1.2-4.4-3.9l-2.3,0.7c0.9,3.4,3.1,5.1,6.7,5c4.2-0.1,6.3-1.7,6.4-4.9c0.1-2.7-1.8-4.5-5.7-5.2
		c-2.9-0.5-4.4-1.6-4.3-3C188.4,762.3,189.5,761.4,191.6,761.3L191.6,761.3z M209.1,759.1c3.7-0.1,5.5,2.1,5.4,6.6v10.9h-2.4V766
		c0-3.2-1.2-4.8-3.6-4.8c-2.8,0.4-4.3,2-4.5,4.9v10.5h-2.4v-23.4h2.4v8.9C205.2,760.2,206.9,759.2,209.1,759.1L209.1,759.1z
		 M242.4,770.4c-0.2,4.1-2.6,6.2-7.2,6.3h-8.9v-23.4h8.4c4.3,0.2,6.6,2.2,6.9,5.9c-0.2,2.9-1.7,4.6-4.3,5.2v0.1
		C240.4,764.9,242.2,766.9,242.4,770.4L242.4,770.4z M238.9,759.2c-0.1-2.3-1.8-3.6-4.9-3.6h-5.6v7.9h5.6
		C237,763.3,238.6,761.9,238.9,759.2L238.9,759.2z M239.9,770c-0.2-2.7-2-4.1-5.5-4.2h-5.9v8.8h6.4
		C238.2,774.6,239.9,773.1,239.9,770L239.9,770z M252.5,761.3c-2.7-0.2-4.3,1-4.6,3.5l-2.3-0.7c0.8-3.5,3.1-5.2,7-5
		c4.2-0.1,6.3,2.1,6.1,6.6v6.9c-0.1,1.9,0.2,3.2,0.9,4h-2.3c-0.5-0.6-0.8-1.4-0.8-2.3c-1.3,1.9-3.3,2.8-6.1,2.8
		c-3.3-0.2-5.1-1.6-5.3-4.5c0.1-3.3,2-5.1,5.7-5.5c3-0.3,4.9-0.7,5.5-1.3C256.6,762.7,255.3,761.2,252.5,761.3L252.5,761.3z
		 M251.1,774.9c3.2-0.2,5-1.9,5.3-4.9v-2.2c-0.3,0.6-1.8,1.1-4.6,1.3c-2.9,0.4-4.3,1.5-4.2,3.3C247.6,774.1,248.8,774.9,251.1,774.9
		L251.1,774.9z M275.7,759.6v14.9c0.3,5.6-2.2,8.3-7.4,8.1c-2.6,0-4.5-0.8-5.8-2.5l1-1.3c1.4,1.1,3,1.7,4.7,1.8
		c3.5,0.1,5.2-1.7,5.2-5.4v-1.8c-0.7,1.9-2.5,2.8-5.3,2.7c-4-0.2-6.1-3-6.3-8.2c0.2-5.5,2.5-8.4,6.8-8.7c2.1,0.1,3.7,1,4.7,2.8v-2.5
		H275.7z M268.7,774.3c3-0.1,4.6-2,4.6-5.6v-2.6c-0.1-3-1.6-4.6-4.3-4.9c-3.2,0.2-4.8,2.4-5,6.7C264.2,772,265.7,774.1,268.7,774.3
		L268.7,774.3z M292.5,759.6v14.9c0.3,5.6-2.2,8.3-7.4,8.1c-2.6,0-4.5-0.8-5.8-2.5l1-1.3c1.4,1.1,3,1.7,4.7,1.8
		c3.5,0.1,5.2-1.7,5.2-5.4v-1.8c-0.7,1.9-2.5,2.8-5.3,2.7c-4-0.2-6.1-3-6.3-8.2c0.2-5.5,2.5-8.4,6.8-8.7c2.1,0.1,3.7,1,4.7,2.8v-2.5
		H292.5z M285.5,774.3c3-0.1,4.6-2,4.6-5.6v-2.6c-0.1-3-1.6-4.6-4.3-4.9c-3.2,0.2-4.8,2.4-5,6.7C281,772,282.5,774.1,285.5,774.3
		L285.5,774.3z M303,761.3c-2.7-0.2-4.3,1-4.6,3.5l-2.3-0.7c0.8-3.5,3.1-5.2,7-5c4.2-0.1,6.3,2.1,6.1,6.6v6.9
		c-0.1,1.9,0.2,3.2,0.9,4h-2.3c-0.5-0.6-0.8-1.4-0.8-2.3c-1.3,1.9-3.3,2.8-6.1,2.8c-3.3-0.2-5.1-1.6-5.3-4.5c0.1-3.3,2-5.1,5.7-5.5
		c3-0.3,4.9-0.7,5.5-1.3C307.1,762.7,305.8,761.2,303,761.3L303,761.3z M301.6,774.9c3.2-0.2,5-1.9,5.3-4.9v-2.2
		c-0.3,0.6-1.8,1.1-4.6,1.3c-2.9,0.4-4.3,1.5-4.2,3.3C298.1,774.1,299.3,774.9,301.6,774.9L301.6,774.9z M326.1,759.6v14.9
		c0.3,5.6-2.2,8.3-7.4,8.1c-2.6,0-4.5-0.8-5.8-2.5l1-1.3c1.4,1.1,3,1.7,4.7,1.8c3.5,0.1,5.2-1.7,5.2-5.4v-1.8
		c-0.7,1.9-2.5,2.8-5.3,2.7c-4-0.2-6.1-3-6.3-8.2c0.2-5.5,2.5-8.4,6.8-8.7c2.1,0.1,3.7,1,4.7,2.8v-2.5H326.1z M319.1,774.3
		c3-0.1,4.6-2,4.6-5.6v-2.6c-0.1-3-1.6-4.6-4.3-4.9c-3.2,0.2-4.8,2.4-5,6.7C314.6,772,316.2,774.1,319.1,774.3L319.1,774.3z
		 M336.6,775.1c2.4,0,4-1.2,4.6-3.8l2.4,0.7c-0.9,3.4-3.2,5.1-6.9,5c-4.8-0.2-7.3-3.1-7.4-8.7c0.2-5.9,2.7-8.9,7.3-9.1
		c4.6,0.2,7,3.2,7.1,9.1c0,0.3,0,0.5,0,0.6h-12C331.9,772.8,333.5,774.8,336.6,775.1L336.6,775.1z M336.6,761.5
		c-2.9,0.3-4.5,2.1-4.7,5.4h9.4C341.1,763.4,339.5,761.6,336.6,761.5L336.6,761.5z M346.1,757.8v-2.5h4.6c-0.4-1.3-0.8-2.6-1.2-3.9
		l2.5-0.6c0.2,0.9,0.6,2.3,1.3,4.5h3v2.5h-5.8l-0.1,4h5.2c0,4.2-0.1,8.4-0.3,12.7c0,2.5-1,3.8-3.1,3.8c-0.9,0-1.7,0-2.4,0l-0.5-2.5
		c0.6,0,1.4,0,2.2,0c1.2,0.1,1.8-0.5,1.7-1.9c0.1-4.1,0.2-7.3,0.2-9.6h-3c0,6.6-1,11.5-3,14.6l-1.8-1.8c1.8-2.5,2.7-7.1,2.7-13.7
		l0.1-5.6H346.1z M360.5,756.3c-0.9,1.7-2,3.4-3.3,5c-0.8-0.9-1.4-1.4-1.7-1.8c2.2-2.6,3.7-5.5,4.7-8.7l2.5,0.2
		c-0.1,0.4-0.4,1-0.6,1.8c-0.2,0.5-0.4,0.9-0.4,1.2h9.7v2.2H360.5L360.5,756.3z M370.9,776.9c-0.4,0.5-0.8,0.8-1,1.1
		c-4-3.4-6.3-8.6-6.9-15.5c-0.9,0.1-1.7,0.2-2.6,0.4v12.3c1.5-0.8,2.9-1.4,4.2-1.9c0,0.2,0,0.6,0,1.2c0.1,0.5,0.1,0.9,0.1,1.2
		c-1.5,0.5-3,1.2-4.5,2.1c-0.1,0.1-0.3,0.2-0.5,0.2c-0.6,0.3-0.9,0.5-1.1,0.7l-1.4-2.1c0.6-0.5,0.9-1.3,0.9-2.2v-13.7
		c3.9-0.3,7.8-0.9,11.6-1.9l0.9,2.5c-1.7,0.4-3.5,0.7-5.4,0.9c0.2,1.9,0.5,3.5,0.9,4.9c1.4-0.8,2.8-1.6,4.2-2.6l1.2,2.1
		c-1.5,0.9-3.1,1.8-4.6,2.7c0.9,2.6,2.6,4.7,5.1,6.4C371.7,776,371.4,776.4,370.9,776.9L370.9,776.9z M377.2,767.4
		c-1,1.2-2,2.3-3.1,3.3c-0.3-0.9-0.6-1.9-1-2.8c2.7-2.4,5.1-5.5,7.2-9.1l2,1.5c-0.9,1.5-1.8,2.9-2.7,4.1V779h-2.5V767.4L377.2,767.4
		z M382.3,752.6c-2.6,3.5-5.1,6.3-7.5,8.3c-0.5-1.2-0.9-2-1.2-2.6c2.7-2.3,4.9-4.7,6.6-7.3L382.3,752.6L382.3,752.6z M383.2,764.4
		v-2.7h16.2v2.7h-4.6v9.8c0.1,2.8-1.2,4.2-3.9,4.2c-1.2,0.1-2.6,0.1-4.2,0.1c-0.2-0.9-0.4-1.9-0.5-2.8c0.4,0,0.9,0,1.6,0
		c0.9,0.1,1.7,0.1,2.2,0.1c1.6,0.1,2.3-0.6,2.3-2.1v-9.4H383.2z M384.6,755.6v-2.7H398v2.7H384.6z M405.6,755.6
		c-0.8,1.4-1.8,2.7-3.1,4c-0.5-0.6-1.1-1.2-1.7-1.8c2.2-2,3.7-4.3,4.7-6.9l2.5,0.4c-0.3,0.8-0.6,1.5-1.1,2.2h7.2v2.1H405.6
		L405.6,755.6z M401.4,765v-2.2h3.9V759h2.4v3.8h3.2v2.2h-3.2v3.2l0.9-0.9c0.4,0.3,1,0.8,1.6,1.5c0.7,0.6,1.3,1.1,1.6,1.5l-1.6,1.9
		c-0.6-0.7-1.4-1.6-2.5-2.8v9.7h-2.4v-10.3c-0.9,2.4-2.1,4.7-3.7,6.9c0-0.1,0-0.2-0.1-0.4c-0.3-1.2-0.5-2.1-0.8-2.7
		c1.8-2.1,3.2-4.6,4.2-7.6H401.4z M409.5,759.7c-0.1-0.1-0.1-0.2-0.2-0.2c-0.8-1.1-1.5-1.9-2-2.5l1.5-1.4c0.9,0.9,1.7,1.8,2.5,2.7
		L409.5,759.7z M412.6,779v-18.9h12.7V779h-2.4v-1.6h-8.1v1.6H412.6z M415.8,758.2c-0.3,0.5-0.5,0.8-0.6,1.1
		c-0.2-0.2-0.5-0.4-0.9-0.8c-0.4-0.3-0.8-0.5-1-0.7c1.8-2.1,3.1-4.4,3.8-6.8l2.5,0.4c-0.3,0.8-0.6,1.5-1,2.2h8v2.1h-9.1
		C417.3,756.1,416.7,757,415.8,758.2L415.8,758.2z M414.9,762.4v3h8.1v-3H414.9z M414.9,767.4v2.9h8.1v-2.9H414.9z M414.9,772.5v2.9
		h8.1v-2.9H414.9z M421.2,759.7c-0.3-0.3-0.7-0.8-1.2-1.4c-0.5-0.5-0.9-1-1.2-1.3l1.5-1.4c0.3,0.3,0.7,0.7,1.3,1.3
		c0.5,0.5,0.9,1,1.2,1.3L421.2,759.7z"/>
	<path class="st3" d="M47.3,832.7c0-0.4,0.1-0.8,0.4-1.1c0.3-0.3,0.6-0.4,1-0.4c0.4,0,0.7,0.1,1,0.4c0.3,0.3,0.4,0.6,0.4,1.1
		c0,0.4-0.1,0.8-0.4,1.1c-0.3,0.3-0.6,0.4-1,0.4c-0.4,0-0.7-0.1-1-0.4C47.4,833.5,47.3,833.1,47.3,832.7z M47.3,892.7
		c0-0.4,0.1-0.8,0.4-1.1c0.3-0.3,0.6-0.4,1-0.4c0.4,0,0.7,0.1,1,0.4c0.3,0.3,0.4,0.6,0.4,1.1c0,0.4-0.1,0.8-0.4,1.1
		c-0.3,0.3-0.6,0.4-1,0.4c-0.4,0-0.7-0.1-1-0.4C47.4,893.5,47.3,893.1,47.3,892.7z M47.3,922.7c0-0.4,0.1-0.8,0.4-1.1
		c0.3-0.3,0.6-0.4,1-0.4c0.4,0,0.7,0.1,1,0.4c0.3,0.3,0.4,0.6,0.4,1.1c0,0.4-0.1,0.8-0.4,1.1c-0.3,0.3-0.6,0.4-1,0.4
		c-0.4,0-0.7-0.1-1-0.4C47.4,923.5,47.3,923.1,47.3,922.7z M59.3,893.1c0.9-0.3,1.8-0.6,2.7-0.9v-5.4h-2.5v-1.6H62v-4.4h1.6v4.4H66
		v1.6h-2.4v4.8c0.7-0.3,1.5-0.6,2.2-0.9c0,0.8,0,1.4,0,1.9c-0.1,0-0.9,0.4-2.3,0.9v7.5c0,1.6-0.7,2.4-2,2.5c-0.6,0-1.3,0-2.1,0
		c-0.1-0.7-0.2-1.3-0.3-1.9c0.8,0.1,1.5,0.1,2,0.1c0.5,0,0.8-0.3,0.8-1v-6.6c-0.7,0.3-1.5,0.6-2.5,1L59.3,893.1z M60.1,917.1v-1.7
		h8.6v1.7c-0.8,1.6-1.8,3.2-3,4.7v12H64v-10.1c-1.2,1.4-2.6,2.7-4.1,3.9c-0.2-1-0.4-1.6-0.6-2c3.2-2.6,5.7-5.4,7.5-8.6H60.1z
		 M70.3,840.6H60.1v-2l4.9-5.3c1.3-1.5,2.2-2.6,2.7-3.5c0.5-0.8,0.7-1.7,0.7-2.6c0-1-0.3-1.8-0.8-2.4c-0.5-0.6-1.3-0.8-2.3-0.8
		c-1.5,0-2.9,0.7-4.3,2.1v-2.3c1.3-1.1,2.8-1.7,4.6-1.7c1.5,0,2.7,0.4,3.6,1.3c0.9,0.9,1.3,2.1,1.3,3.6c0,1.1-0.3,2.2-0.8,3.3
		c-0.6,1.1-1.6,2.5-3.2,4.1l-3.8,4v0h7.7V840.6z M60.7,871.4c2.1-0.9,4.1-1.9,6-2.9l1,1.5c-2.1,1.1-4.2,2.1-6.2,3
		C61.3,872.5,61,871.9,60.7,871.4L60.7,871.4z M75.9,863.2c2,1.8,3.6,3.3,4.8,4.6l-1.2,1.3c-0.6-0.6-1.1-1.3-1.7-1.9
		c-1.8,0.1-3.5,0.2-5.3,0.2v3.1c0,1.9-0.9,2.9-2.7,2.9c-0.9,0-1.9,0-3.1,0c-0.1-0.6-0.2-1.3-0.3-1.9c1.1,0.1,2.1,0.2,3,0.2
		c1,0,1.4-0.6,1.4-1.7v-2.4c-1.9,0.1-3.9,0.2-5.8,0.3c-0.6,0-1.2,0.1-1.8,0.2l-0.6-1.8c0.9-0.1,1.9-0.4,3-0.8
		c1.5-0.6,3.1-1.3,4.8-2.2c-1.8,0.1-3.4,0.1-4.8,0.2c-0.7,0-1.2,0.1-1.6,0.1l-0.6-1.5c0.7-0.2,1.4-0.4,2.2-0.8c1-0.5,1.9-1,2.9-1.5
		h-4v0.7h-1.6v-8.9h17.1v8.9h-1.6v-0.7H71c-1.6,0.9-3.2,1.7-4.7,2.4c1.9-0.1,4.1-0.1,6.6-0.2c1-0.5,2-1.1,3.1-1.6l1.1,1.3
		c-3.4,1.8-7,3.4-10.6,4.8c3.6-0.2,6.9-0.4,9.9-0.6c-0.5-0.5-1.1-1-1.6-1.5L75.9,863.2z M65.2,914.8c-0.7-1.1-1.5-2.2-2.2-3.2l1.3-1
		c0.8,1,1.5,2.1,2.3,3.1L65.2,914.8L65.2,914.8z M64.3,855h6.1v-2.1h-6.1V855z M64.3,858.4h6.1v-2.1h-6.1V858.4z M65.4,895h1.9v-6.3
		c-0.4-0.3-0.8-0.7-1.3-1c1.9-2.1,3.4-4.5,4.5-7.1l1.7,0.3c-0.3,0.8-0.7,1.5-1.1,2.2h6.5v1.6c-0.5,0.7-1.4,1.8-2.5,3.3H79v7.1h1.7
		v1.6H74c1.1,2.7,3.3,4.4,6.6,5.2c-0.5,0.7-1,1.3-1.3,1.9c-3-1.1-5.1-3-6.3-5.8c-0.8,2.4-3.2,4.4-7.2,6c-0.3-0.6-0.7-1.1-1.2-1.7
		c4.1-1.3,6.5-3.2,7.1-5.5h-6.4V895z M69.7,926.2c-1.2-1.2-2.4-2.2-3.6-3.2l1-1.2c1.3,0.9,2.5,2,3.8,3L69.7,926.2L69.7,926.2z
		 M73.3,887.9c1-1.3,1.8-2.4,2.4-3.2h-5.5c-0.7,1.1-1.5,2.2-2.3,3.2H73.3L73.3,887.9z M68.8,895h3.4c0.1-0.8,0.2-2.6,0.2-5.5h-3.5
		V895z M71.8,911h1.7v18.7c0,1,0.5,1.5,1.5,1.5h1.8c1,0,1.6-0.5,1.8-1.6c0.1-1.1,0.2-2.6,0.3-4.4c0.6,0.3,1.2,0.5,1.8,0.7
		c-0.2,2.2-0.3,3.8-0.5,4.7c-0.3,1.6-1.3,2.4-3.2,2.4h-2.3c-1.9,0-2.9-1-2.9-3.1V911z M78.1,852.8H72v2.1h6.1V852.8z M72,858.4h6.1
		v-2.1H72V858.4z M73.4,831.9c0-3.2,0.5-5.6,1.5-7.3c1-1.6,2.4-2.5,4.2-2.5c3.5,0,5.3,3.1,5.3,9.3c0,3.1-0.5,5.4-1.5,7
		c-1,1.6-2.4,2.4-4.2,2.4c-1.7,0-3-0.8-3.9-2.3C73.9,837.1,73.4,834.8,73.4,831.9z M77.5,889.5h-3.6c0,2,0,3.8-0.1,5.5h3.8V889.5z
		 M75.5,868.6c2.1,0.8,4.2,1.6,6.2,2.6l-0.7,1.6c-1.9-1-4-1.8-6.2-2.6L75.5,868.6z M79,824.1c-2.3,0-3.4,2.6-3.4,7.7
		c0,4.8,1.1,7.2,3.4,7.2c2.2,0,3.3-2.4,3.3-7.3C82.3,826.6,81.2,824.1,79,824.1L79,824.1z M82.7,887.1v-1.7h8.6v1.7
		c-0.8,1.6-1.8,3.2-3,4.7v12h-1.7v-10.1c-1.2,1.4-2.6,2.7-4.1,3.9c-0.2-1-0.4-1.6-0.6-2c3.2-2.6,5.7-5.4,7.5-8.6H82.7z M83.1,922.9
		h8.2v10.8h-1.6v-1.6h-4.9v1.6h-1.6V922.9z M83.9,869.4c-0.2-0.7-0.5-1.4-0.8-2c1.3-2.2,2.5-4.8,3.3-7.9h-3.2v-1.6h3.5v-3.7
		c-0.9,0.1-1.9,0.2-3,0.2c-0.1-0.6-0.2-1.1-0.3-1.7c2.9-0.2,5.5-0.4,7.7-0.8l0.4,1.8c-0.9,0.1-1.9,0.2-3.1,0.3v3.9h3.2v1.6h-3.2v3.3
		l0.9-0.9c0.9,0.9,1.8,2,2.8,3.2l-1.2,1.2c-0.8-1-1.6-2-2.4-3v10.5h-1.6v-10.4C85.9,865.7,85,867.7,83.9,869.4L83.9,869.4z
		 M89.7,924.5h-4.9v6h4.9V924.5z M85.2,911.7h14.9v9.3h-1.7v-0.8H86.9v0.8h-1.7V911.7z M87.8,884.8c-0.7-1.1-1.5-2.2-2.2-3.2l1.3-1
		c0.8,1,1.5,2.1,2.3,3.1L87.8,884.8L87.8,884.8z M98.4,913.3H86.9v5.2h11.4V913.3z M97.6,840.6H88v-2h3.7v-13.8l-3.8,1.2V824
		l5.9-1.9v16.6h3.7V840.6z M92.4,896.2c-1.2-1.2-2.4-2.2-3.6-3.2l1-1.2c1.3,0.9,2.5,2,3.8,3L92.4,896.2L92.4,896.2z M90.3,872.2
		c1.8-1.9,3.3-3.9,4.5-5.8l1.4,1.1c-1.6,2.2-3.2,4.2-4.7,6C91.2,873.1,90.8,872.6,90.3,872.2L90.3,872.2z M92.5,852.7h10.9v12.2
		h-1.6v-1.1h-7.6v1.1h-1.6V852.7z M94,922.9h8.2v10.8h-1.6v-1.6h-5v1.6H94V922.9z M101.8,854.3h-7.6v7.9h7.6V854.3z M94.5,881h1.7
		v18.7c0,1,0.5,1.5,1.5,1.5h1.8c1,0,1.6-0.5,1.8-1.6c0.1-1.1,0.2-2.6,0.3-4.4c0.6,0.3,1.2,0.5,1.8,0.7c-0.2,2.2-0.3,3.8-0.5,4.7
		c-0.3,1.6-1.3,2.4-3.2,2.4h-2.3c-1.9,0-2.9-1-2.9-3.1V881z M100.6,924.5h-5v6.1h5V924.5z M103.2,873.3c-1.3-2-2.6-3.9-3.9-5.7
		l1.3-1c1.3,1.6,2.7,3.5,4.1,5.5L103.2,873.3L103.2,873.3z M101.4,837.8c1.1,0.8,2.3,1.2,3.5,1.2c1.1,0,2.1-0.3,2.8-1
		c0.7-0.7,1.1-1.6,1.1-2.8c0-1.2-0.4-2.1-1.1-2.7c-0.7-0.6-1.8-1-3.1-1c-0.7,0-1.5,0.1-2.6,0.2v-9.2h8.2v2h-6.3v5.1
		c0.6,0,1.1-0.1,1.4-0.1c1.8,0,3.1,0.5,4.1,1.5c1,1,1.5,2.3,1.5,4c0,1.8-0.5,3.2-1.6,4.3c-1.1,1.1-2.5,1.6-4.4,1.6
		c-1.6,0-2.7-0.2-3.5-0.8V837.8z M105.3,927.5c-0.2-0.7-0.5-1.4-0.8-2c1.4-2.3,2.5-5.1,3.3-8.3h-3v-1.6h3.2v-4.6h1.6v4.6h2.5v1.6
		h-2.5v3.7l0.9-0.8c0.9,1,1.9,2,2.8,3.1l-1.2,1.2c-1.1-1.4-1.9-2.3-2.4-2.9v12.5H108V921C107.2,923.6,106.3,925.7,105.3,927.5
		L105.3,927.5z M108.8,900.1c0.8-0.6,1.8-1.3,2.8-2c0,0.5,0.1,1.2,0.2,2c-2,1.4-3.4,2.5-4.3,3.2l-1-1.6c0.5-0.4,0.7-1.1,0.7-2v-9.3
		h-2.6v-1.7h4.3V900.1L108.8,900.1z M106.6,881.1c1.3,1.4,2.4,2.7,3.4,3.9l-1.5,1.4c-1-1.5-2.1-2.8-3.1-4L106.6,881.1z M107.7,852
		H119v7h-1.6v-0.8h-8.2v3.6c0,5-0.8,8.8-2.5,11.5c-0.3-0.5-0.7-1.1-1-1.5c1.3-2.3,2-5.6,2-9.9V852z M117.5,853.6h-8.2v3h8.2V853.6z
		 M115.4,873.7h-1.5v-11h-2.1v8.4h-1.5v-9.9h3.6v-2.3h1.5v2.3h3.8v7.6c0,1.4-0.5,2.1-1.6,2.1c-0.3,0-0.8,0-1.6,0
		c-0.1-0.5-0.2-1.1-0.3-1.6c0.5,0,0.9,0.1,1.3,0.1c0.5,0,0.8-0.3,0.8-0.9v-5.8h-2.3V873.7z M110.6,895.5h6.7V892h-5.5v-1.7h5.5v-3.5
		h-6.1v-1.7h7.8c1.2-1.7,2.2-3.2,2.8-4.5l1.7,1.1c-0.7,0.9-1.5,2-2.6,3.4h4.6v1.7H119v3.5h5.8v1.7H119v3.5h6.9v1.7H119v6.5h-1.8
		v-6.5h-6.7V895.5z M111.6,926.1h6.3v-3.8h-4.7v-1.6h4.7V917h-5.2v-1.6h6.7c1.2-1.9,2.1-3.4,2.7-4.6l1.6,1.1
		c-0.7,1.1-1.6,2.3-2.5,3.5h3.9v1.6h-5.5v3.7h4.9v1.6h-4.9v3.8h6.2v1.6h-6.2v6.1H118v-6.1h-6.3V926.1z M115.2,885
		c-0.7-1.1-1.5-2.2-2.3-3.3l1.3-1.1c0.9,1.1,1.8,2.2,2.5,3.2L115.2,885L115.2,885z M113.4,835.8h3.5v-6.7h7.6V825h-6.3
		c-1,1.9-2.1,3.6-3.3,5.2c-0.4-0.4-0.8-0.9-1.3-1.3c2-2.5,3.6-5.3,4.6-8.4l1.8,0.5c-0.3,0.8-0.6,1.5-0.9,2.2h14.8v1.7h-7.6v4.2h7.2
		v1.6h-7.2v5.1h8.5v1.7h-8.5v6.3h-1.7v-6.3h-11.1V835.8z M116.2,915c-0.8-1.3-1.6-2.4-2.2-3.3l1.3-1c1.1,1.4,1.9,2.5,2.4,3.2
		L116.2,915L116.2,915z M118.5,835.8h5.9v-5.1h-5.9V835.8z M124.4,851h1.6v19.5c0,1.9-0.8,2.9-2.5,2.9c-0.8,0-1.7,0-2.9,0
		c-0.1-0.7-0.2-1.4-0.3-1.9c1.2,0.2,2.1,0.2,2.7,0.2c0.9,0,1.4-0.6,1.4-1.7V851z M122.5,867.7H121v-14.4h1.5V867.7z M127.2,892
		c0.3-1.5,0.6-3.5,0.8-5.9l1.4,0.2c-0.2,1.9-0.4,3.9-0.8,6C128.2,892.2,127.8,892.1,127.2,892L127.2,892z M127.2,915.2h12
		c-0.1-1.4-0.1-3-0.1-4.6h1.8c0,1.5,0,3.1,0.1,4.6h7.4v1.8H141c0.3,7.9,1.5,12.7,3.6,14.3c0.8,0.7,1.3,0.5,1.6-0.6
		c0.2-0.8,0.4-2,0.6-3.6c0.7,0.3,1.3,0.5,1.7,0.6c-0.3,1.8-0.6,3.3-0.9,4.4c-0.3,1.1-1,1.6-2,1.6c-1,0-2-0.5-3-1.6
		c-2.1-2.4-3.2-7.4-3.5-15.2h-12.1V915.2z M127.3,930c1.6-0.2,3.3-0.4,5-0.7v-6.6h-4.2V921h10.1v1.8H134v6.3
		c1.7-0.3,3.4-0.5,5.2-0.8c0,0.6,0,1.2,0,1.9c-4.3,0.7-8.1,1.3-11.5,1.9L127.3,930z M128.7,859.7h8.6v-9h1.8v3.5h9.1v1.7h-9.1v3.7
		h10.4v1.8h-20.8V859.7z M130.1,880.8h1.5v4.8l0.8-0.6c0.7,0.9,1.4,1.8,2,2.6l-1.2,1c-0.4-0.7-1-1.5-1.6-2.4v17.6h-1.5V880.8z
		 M133.5,888.8h6.6v-1.6h-5.4v-1.5h5.4v-1.6h-6v-1.5h6v-2.1h1.6v2.1h6.5v1.5h-6.5v1.6h5.9v1.5h-5.9v1.6h6.9v1.5h-15.2V888.8z
		 M136.5,903.6h-1.6v-11.9H147v9c0,1.7-0.7,2.6-2.2,2.6c-0.9,0-2.2,0-3.7,0c-0.1-0.5-0.2-1.1-0.3-1.8c1.4,0.1,2.5,0.1,3.3,0.1
		c0.8,0,1.2-0.4,1.2-1.1v-1.3h-8.8V903.6z M147.8,835.9h-2.1v4.7h-2v-4.7h-7.8v-1.5l7.4-12h2.4v11.6h2.1V835.9z M145.4,893.2h-8.8
		v1.6h8.8V893.2z M136.5,897.9h8.8v-1.6h-8.8V897.9z M137.3,862.3h1.8v2.7l0.9-1.2c3.4,1.7,6.2,3.2,8.3,4.5l-1.1,1.7
		c-2-1.3-4.7-2.9-8.1-4.7v8.5h-1.8V862.3z M143.6,834.1v-7.6c0-0.5,0-1.2,0-1.9h0c-0.1,0.3-0.3,0.8-0.6,1.4l-5,8.1H143.6z
		 M145.5,914.9c-0.9-1-1.9-2-3-3l1-1.2c1,0.8,2.1,1.7,3.1,2.8L145.5,914.9L145.5,914.9z M154.6,835.8c-0.3,3-1.4,5.7-3.2,8.2
		c-0.5-0.5-1-1-1.5-1.4c1.4-1.6,2.3-3.6,2.8-5.9c0.3-1.7,0.5-4,0.5-6.9v-8.1h14.4V840c0,2.3-1,3.5-3,3.5c-0.8,0-1.9,0-3.3,0
		c-0.1-0.6-0.2-1.2-0.3-2c1.3,0.1,2.4,0.1,3.1,0.1c1.2,0,1.7-0.6,1.7-1.9v-3.9H154.6z M154.2,899.7c0.8-0.6,1.6-1.2,2.4-1.9
		c0,0.8,0.1,1.5,0.2,2c-1.6,1.1-2.9,2.1-3.9,3l-1-1.5c0.5-0.5,0.7-1.2,0.7-2v-8.9h-2.6v-1.7h4.3V899.7L154.2,899.7z M153.3,928.3
		c1.6-1,3.6-2.4,6.1-4.1c0,1,0.1,1.8,0.2,2.2c-3.5,2.4-5.6,3.8-6.4,4.5c-0.5,0.4-0.9,0.8-1.4,1.2l-1.2-1.9c0.7-0.7,1-1.4,1-2.4
		v-16.3h1.8V928.3L153.3,928.3z M152.1,857c1.1,0.8,2.3,1.9,3.8,3.2c-0.5,0.7-0.9,1.2-1.3,1.5c-1.6-1.6-2.8-2.7-3.6-3.4L152.1,857z
		 M152.3,881.4c1.2,1.3,2.2,2.4,3.1,3.5l-1.5,1.4c-1-1.4-2-2.6-2.9-3.7L152.3,881.4z M151.5,873c0.8-2.8,1.5-5.8,2.1-9.1
		c0.6,0.2,1.2,0.5,1.8,0.7c-0.7,3.1-1.4,6.1-2,9L151.5,873L151.5,873z M152.9,851c1.1,0.9,2.3,2.1,3.7,3.4c-0.5,0.5-0.9,1-1.3,1.5
		c-1.6-1.6-2.7-2.8-3.5-3.6L152.9,851z M155,829.6c0,1.6-0.1,3.1-0.2,4.5h11v-4.5H155L155,829.6z M155,823.4v4.5h10.9v-4.5H155z
		 M155.5,888.8h7v-1.6H157v-1.5h5.5v-1.6h-6.3v-1.5h6.3v-2.1h1.7v2.1h6.6v1.5h-6.6v1.6h6v1.5h-6v1.6h7v1.5h-15.7V888.8z
		 M166.1,911.2h1.8v4.2c0,4.3-0.5,7.8-1.5,10.3c1.8,2,3.5,4,5,5.9l-1.5,1.5c-1.5-2-2.9-3.9-4.4-5.7c-1.7,2.7-4.2,4.9-7.5,6.4
		c-0.3-0.5-0.7-1-1.2-1.6c3.6-1.8,6.1-3.9,7.3-6.3c1.3-2.3,2-5.9,2-10.6V911.2z M158.5,910.7c1,1.7,2,3.6,3.2,6l-1.7,1
		c-1.1-2.4-2.1-4.4-3.1-6.1L158.5,910.7z M160.5,856.3c-1.4-1.9-2.4-3.2-3.1-4l1.3-1.1c0.7,0.7,1.8,1.9,3.3,3.8L160.5,856.3
		L160.5,856.3z M159.1,903.6h-1.7v-11.9h12v9.1c0,1.7-0.8,2.5-2.4,2.6c-0.8,0-1.9,0-3.3,0c-0.1-0.5-0.2-1.1-0.3-1.8
		c1.3,0.1,2.3,0.1,3.1,0.1c0.8,0,1.2-0.4,1.2-1.2v-1.2h-8.6V903.6z M159.4,873.6h-1.7v-16.4h5.9v-6.6h1.8v6.6h5.8v13.5
		c0,1.8-0.8,2.7-2.4,2.7c-0.9,0-2.2,0-3.7-0.1c-0.1-0.6-0.2-1.2-0.3-1.9c1.4,0.1,2.6,0.1,3.4,0.1c0.9,0,1.4-0.4,1.4-1.3v-2.2h-10.1
		V873.6z M167.7,893.2h-8.6v1.6h8.6V893.2z M159.1,897.9h8.6v-1.6h-8.6V897.9z M169.4,859h-10.1v2.9h10.1V859z M159.4,866.5h10.1
		v-2.9h-10.1V866.5z M167.1,855.3c1.1-1.2,2.1-2.5,3.1-4l1.6,1.3c-0.9,1.2-2,2.5-3.4,3.9L167.1,855.3z M173.6,934
		c-0.3-0.7-0.7-1.3-1-1.9c5.3-1.1,8.7-2.8,10.2-5.1h-9.9v-1.7h10.7c0.5-1.6,0.7-4.5,0.7-8.5h1.8c0,4-0.2,6.9-0.6,8.5h8.2v1.7h-8.8
		c-0.1,0.2-0.3,0.5-0.4,0.8c3.1,1.4,6.1,2.9,9,4.4l-0.9,1.8c-3.1-1.7-6.1-3.3-9.1-4.8C181.4,931.2,178.2,932.8,173.6,934L173.6,934z
		 M172.6,900.6h9.7v-4H174v-1.7h8.3v-3.2h1.8v3.2h8.1v1.7h-8.1v4h9.6v1.7h-21.1V900.6z M183,840.6h-10.2v-2l4.9-5.3
		c1.3-1.5,2.2-2.6,2.7-3.5c0.5-0.8,0.7-1.7,0.7-2.6c0-1-0.3-1.8-0.8-2.4c-0.5-0.6-1.3-0.8-2.3-0.8c-1.5,0-2.9,0.7-4.3,2.1v-2.3
		c1.3-1.1,2.8-1.7,4.6-1.7c1.5,0,2.7,0.4,3.6,1.3c0.9,0.9,1.3,2.1,1.3,3.6c0,1.1-0.3,2.2-0.8,3.3c-0.6,1.1-1.6,2.5-3.2,4.1l-3.8,4v0
		h7.7V840.6z M186.8,885.1c2.2,2,4.2,4,6,6l-1.4,1.4c-0.5-0.5-1-1.1-1.5-1.7c-5,0.1-9.5,0.4-13.3,0.7c-0.4,0-1,0.2-1.7,0.4l-0.9-2
		c0.8-0.3,1.5-0.7,2-1.1c1.5-1.3,2.9-3,4.5-5h-7.4V882h20.1v1.7h-10.4c-1.7,2-3.5,4-5.4,5.9c3.4-0.2,7-0.3,11-0.4
		c-0.9-0.9-1.8-1.9-2.8-2.9L186.8,885.1z M173.3,914h9.9c-0.4-0.7-0.8-1.5-1.4-2.5l1.6-1c0.5,0.7,1,1.6,1.7,2.7l-1.2,0.7h9.2v4.2
		h-1.7v-2.5H175v2.5h-1.7V914z M175.2,852.8h6.2c0-0.7,0-1.4,0-2h1.6c0,0.6,0,1.3,0,2h3.8v-2h1.6v2h5.2v5.3h-1.6v-0.6h-3.6v2.1h6.2
		c0,1.1-0.1,2.1-0.2,2.9c-0.2,1.1-0.8,1.6-1.9,1.6c-0.2,0-0.4,0-0.6,0v5.7H190v-4.8h-10.8v5.1h-1.6v-5.1c-0.9,0.4-1.9,0.8-3,1.2
		c-0.2-0.5-0.5-1-0.9-1.6c3.3-0.8,5.4-2,6.5-3.7h-4.7l0.7-4.8h5.1c0-0.6,0.1-1.3,0.1-2h-6.2V852.8z M182.4,870.4
		c1-0.5,1.4-1.8,1.4-4h1.5c0,1-0.1,1.9-0.3,2.6c3.3,1,6.3,2.1,8.9,3.1l-0.8,1.7c-2.9-1.2-5.8-2.3-8.7-3.3c-0.9,1.6-3.8,2.7-8.8,3.3
		c-0.3-0.8-0.5-1.3-0.7-1.7C178.2,871.9,180.7,871.3,182.4,870.4L182.4,870.4z M175.9,920.4c1.7,0.8,3.2,1.7,4.7,2.6l-0.9,1.6
		c-1.4-1-3-1.8-4.5-2.7L175.9,920.4z M177.9,916.8c1.7,0.9,3.2,1.8,4.6,2.6l-1,1.6c-1.3-0.9-2.8-1.9-4.4-2.9L177.9,916.8z
		 M177.2,859.7h3.6c0.2-0.5,0.3-1.2,0.4-2.1h-3.7L177.2,859.7z M190,863.6c-0.1-0.3-0.2-0.7-0.3-1.1c0.8,0.1,1.5,0.1,2,0.1
		c0.6,0,0.9-0.2,1-0.7c0.1-0.3,0.1-0.7,0.1-1h-4.6v2.3h-1.6V861H182c-0.4,1-1.1,1.8-2,2.6H190L190,863.6z M182.7,857.6
		c-0.1,0.8-0.2,1.5-0.3,2.1h4.2v-2.1H182.7L182.7,857.6z M182.9,854.2c0,0.7,0,1.4-0.1,2h3.8v-2H182.9L182.9,854.2z M191.8,854.2
		h-3.6v2h3.6V854.2z M188.6,822.2H204v21.3h-1.8v-1.7h-11.7v1.7h-1.8V822.2z M190.4,824v7h11.7v-7H190.4z M190.4,832.7v7.4h11.7
		v-7.4H190.4z M195.1,924.7c1.3-0.5,2.7-1,4.1-1.5v-5.5h-2c-0.3,1.5-0.6,2.8-1,4.1c-0.5-0.4-0.9-0.7-1.4-1c0.8-2.1,1.3-4.7,1.5-7.7
		l1.6,0.3c-0.1,1-0.2,1.9-0.4,2.8h1.7v-5.3h1.6v5.3h2.1v1.6h-2.1v4.9c0.7-0.3,1.4-0.6,2.2-0.9c0.1,0.7,0.2,1.3,0.2,1.8
		c-0.7,0.3-1.5,0.6-2.4,1v9.3h-1.6v-8.7c-1.2,0.5-2.4,1-3.8,1.6L195.1,924.7z M195.4,900h20.8v2h-20.8V900z M197.2,857.2
		c1.3,1.1,2.5,2.1,3.5,3.1c-0.5,0.6-0.9,1.1-1.3,1.5c-1.1-1.2-2.3-2.3-3.4-3.3L197.2,857.2z M196.6,873c0.7-2.5,1.4-5.5,2.1-9
		c0.6,0.3,1.2,0.6,1.7,0.8c-0.6,2.8-1.3,5.7-1.9,8.8L196.6,873L196.6,873z M196.7,883h18.1v2h-18.1V883z M198,851.1
		c1,0.8,2,1.8,3.1,2.8c-0.4,0.5-0.9,1-1.2,1.4c-0.9-1.1-1.9-2.1-2.9-3L198,851.1z M197.7,891.1h16.1v2h-16.1V891.1z M201.5,857.4
		h16.1v1.6h-4.8c0,0.8,0,1.6,0,2.4h4.1v9.3c0,1.8-0.8,2.7-2.4,2.7c-0.7,0-1.5,0-2.4-0.1c-0.1-0.6-0.2-1.2-0.3-1.8
		c0.9,0.1,1.7,0.2,2.3,0.2c0.8,0,1.3-0.5,1.3-1.4v-1.6c-0.3,0.3-0.6,0.6-1.1,1.1c-0.8-1.1-1.5-2.1-2.3-3c-0.6,1.8-1.5,3.2-2.7,4.4
		c-0.3-0.4-0.7-0.9-1.1-1.3c1.7-1.6,2.7-4,2.9-7.1h-3.5c0,0.6-0.1,1.2-0.2,1.8c0.8,0.8,1.6,1.6,2.4,2.5c-0.1,0.1-0.5,0.5-1.2,1.2
		c-0.5-0.7-1.1-1.3-1.6-2c-0.5,1.7-1.4,3.1-2.6,4.3c-0.2-0.3-0.5-0.7-0.8-1v3.8h-1.6v-12.3h4.1c0-0.8,0-1.6,0-2.4h-4.7V857.4z
		 M201.5,853.3h4.1v-2.6h1.6v2.6h4.6v-2.6h1.6v2.6h4.2v1.6h-4.2v2h-1.6v-2h-4.6v2h-1.6v-2h-4.1V853.3z M203.5,920.8
		c-0.4-0.3-0.8-0.6-1.4-0.9c1.4-2.4,2.7-5.5,3.9-9.3l1.6,0.5c-0.4,1.2-0.8,2.4-1.2,3.5h9.4c-0.3,6.3-0.5,11.1-0.7,14.5
		c-0.2,2.6-1.3,3.9-3.5,3.9c-0.8,0-1.8,0-2.8-0.1c-0.1-0.6-0.2-1.2-0.3-2c1.3,0.2,2.2,0.2,3,0.2c1.2,0,1.8-0.7,1.9-2.2
		c0.3-3.3,0.5-7.5,0.7-12.7h-1.6c-0.4,4-1,7.1-1.8,9.4c-1.1,3-3.1,5.5-5.9,7.6c-0.3-0.5-0.7-1-1.1-1.4c2.7-2.1,4.6-4.4,5.6-7.1
		c0.8-2.2,1.4-5,1.6-8.5h-1.9c-0.4,3-1,5.4-1.7,7.2c-0.9,2-2.2,3.9-3.9,5.5c-0.4-0.5-0.7-1-1.1-1.4c1.6-1.5,2.9-3.2,3.6-4.9
		c0.8-1.7,1.3-3.9,1.5-6.4h-1.6C205,918,204.2,919.5,203.5,920.8L203.5,920.8z M203.7,869.3c1.5-1.5,2.3-3.6,2.5-6.3h-2.5V869.3z
		 M207.7,859c0,0.7,0,1.5,0,2.4h3.6c0-0.7,0-1.5,0-2.4H207.7L207.7,859z M208.3,840.6h9.7v-4h-8.3v-1.7h8.3v-3.2h1.8v3.2h8.1v1.7
		h-8.1v4h9.6v1.7h-21.1V840.6z M222.6,825.1c2.2,2,4.2,4,6,6l-1.4,1.4c-0.5-0.5-1-1.1-1.5-1.7c-5,0.1-9.5,0.4-13.3,0.7
		c-0.4,0-1,0.2-1.7,0.4l-0.9-2c0.8-0.3,1.5-0.7,2-1.1c1.5-1.3,2.9-3,4.5-5h-7.4V822H229v1.7h-10.4c-1.7,2-3.5,4-5.4,5.9
		c3.4-0.2,7-0.3,11-0.4c-0.9-0.9-1.8-1.9-2.8-2.9L222.6,825.1z M215.4,863h-2.6c0,0.7-0.1,1.4-0.3,2.1c1.2,1.3,2.1,2.4,2.9,3.3V863z
		 M217.8,900.9h9.8v-3.1h-8.5v-1.6h8.5v-3.1h-6v0.8h-1.7v-12H237v12h-1.7v-0.8h-6v3.1h8.5v1.6h-8.5v3.1h9.9v1.7h-21.4V900.9z
		 M218.6,916.8h8.1c0.2-1.9,0.3-4,0.3-6.2h1.9c0,2.3-0.1,4.4-0.3,6.2h9.2c-0.1,4.8-0.2,8.8-0.4,12c-0.1,2.9-1.6,4.4-4.3,4.4
		c-1.1,0-2.5,0-4-0.1c-0.1-0.6-0.2-1.3-0.3-2.2c1.4,0.2,2.7,0.3,4,0.3c1.7,0,2.6-0.9,2.7-2.8c0.2-3.1,0.3-6.3,0.4-9.8h-7.5
		c-1.1,6.9-4,12-8.9,15.4c-0.4-0.5-0.8-1.1-1.3-1.7c4.5-2.9,7.2-7.4,8.3-13.6h-7.8V916.8z M223.6,862.4c-0.7-0.4-1.3-0.7-2-1.1
		l0.8-1.3c0.8,0.5,1.7,0.9,2.4,1.3c0.7-0.8,1.4-1.7,1.9-2.7h-4.2c-0.8,1.4-1.6,2.6-2.4,3.6c-0.3-0.4-0.7-0.8-1-1.1
		c1.4-1.6,2.5-3.5,3.4-5.7l1.4,0.5c-0.2,0.5-0.4,0.9-0.6,1.3h5.2v1.3c-0.6,1.3-1.3,2.5-2.2,3.5c1.3,0.7,2.4,1.3,3.5,1.9l-0.9,1.5
		c-1.2-0.8-2.5-1.5-3.8-2.3c-1.1,1-2.3,1.8-3.8,2.5h6.9v7.5h-1.4v-1h-4.4v1.2h-1.4v-7.5c-0.4,0.2-0.9,0.4-1.3,0.5
		c-0.2-0.4-0.4-0.9-0.7-1.4C220.7,864.3,222.3,863.5,223.6,862.4L223.6,862.4z M219.5,853.4h4.4c-0.3-0.7-0.6-1.4-1-2.2l1.4-0.7
		c0.5,1.1,1,2,1.3,2.8h3.8v3.3H228v-1.9h-7v1.9h-1.5V853.4z M223.5,915.8c-1.1-1.3-2.2-2.5-3.3-3.6l1.2-1.2c1.2,1.1,2.3,2.3,3.5,3.5
		L223.5,915.8L223.5,915.8z M221.6,886.7h6v-3.2h-6V886.7z M221.6,891.5h6v-3.2h-6V891.5z M226.7,867.1h-4.4v3.6h4.4V867.1z
		 M233.4,867.9c0.5-1.2,0.7-4,0.6-8.2h1.6c0,4-0.1,6.7-0.5,8.3c2.1,1.6,3.9,3,5.4,4.4l-1.1,1.5c-1.4-1.4-3-2.8-4.9-4.3
		c-0.9,1.8-2.6,3.3-5,4.5c-0.3-0.5-0.6-1-1-1.5C231.2,871.3,232.8,869.7,233.4,867.9L233.4,867.9z M232.5,927.1
		c-1.1-1.4-2.3-2.8-3.6-4.3l1.2-1.1c1.4,1.4,2.6,2.8,3.8,4.1L232.5,927.1L232.5,927.1z M235.3,883.6h-6v3.2h6V883.6z M229.3,891.5h6
		v-3.2h-6V891.5z M230.2,856.6h3.1l0.5-3h-4.1v-1.6h10.3v1.6h-4.6l-0.6,3h4.5v11.8h-1.5v-10.2h-6.2v10.2h-1.5V856.6z M232.4,837.8
		c1.1,0.8,2.3,1.2,3.5,1.2c1.1,0,2.1-0.3,2.8-1c0.7-0.7,1.1-1.6,1.1-2.8c0-1.2-0.4-2.1-1.1-2.7c-0.7-0.6-1.8-1-3.1-1
		c-0.7,0-1.5,0.1-2.6,0.2v-9.2h8.2v2h-6.3v5.1c0.6,0,1.1-0.1,1.4-0.1c1.8,0,3.1,0.5,4.1,1.5c1,1,1.5,2.3,1.5,4
		c0,1.8-0.5,3.2-1.6,4.3c-1.1,1.1-2.5,1.6-4.4,1.6c-1.6,0-2.7-0.2-3.5-0.8V837.8z M241.9,911.9c1.2,1.5,2.4,3.1,3.6,4.8
		c-0.1,0.1-0.6,0.5-1.5,1.4c-1.1-1.6-2.2-3.3-3.5-5L241.9,911.9z M240.6,931.2c1.1-2.9,2.2-6.1,3.1-9.6c0.6,0.3,1.1,0.6,1.6,0.8
		c-1,3.2-2,6.5-3,9.7L240.6,931.2L240.6,931.2z M257.8,896.3v-1.2h-5.8v4.1c0,1.4,0.6,2,1.7,2h3.9c1.2,0,2-0.6,2.2-1.7
		c0.2-0.9,0.3-2.1,0.4-3.6c0.6,0.3,1.2,0.5,1.8,0.7c-0.2,1.6-0.4,2.8-0.6,3.7c-0.4,1.8-1.6,2.6-3.5,2.6h-4.7c-1.9,0-2.8-1.1-2.8-3.3
		v-4.6h-7.4v-7.8h1.6v6.1h5.8v-7.8h-9.1v-1.7h9.1v-3.1h1.7v3.1h9.1v1.7h-9.1v7.8h5.8v-6.1h1.6v9H257.8z M248.8,864.4
		c1.8,2.3,3.2,4.3,4.4,6l-1.4,1.1c-0.5-0.8-1.1-1.6-1.7-2.5c-2.1,1.1-3.9,2-5.4,2.8c-0.5,0.3-0.9,0.6-1.3,1l-1.2-1.5
		c0.4-0.5,0.7-1.1,0.7-1.8v-17.3h8.7v12.1h-1.6v-0.6h-5.4v6.2c1.4-0.6,2.9-1.4,4.6-2.2c-0.5-0.8-1.1-1.6-1.7-2.4L248.8,864.4z
		 M250.1,853.9h-5.4v3.3h5.4V853.9z M250.1,862.1v-3.3h-5.4v3.3H250.1z M249.5,835.8c-0.3,3-1.4,5.7-3.2,8.2c-0.5-0.5-1-1-1.5-1.4
		c1.4-1.6,2.3-3.6,2.8-5.9c0.3-1.7,0.5-4,0.5-6.9v-8.1h14.4V840c0,2.3-1,3.5-3,3.5c-0.8,0-1.9,0-3.3,0c-0.1-0.6-0.2-1.2-0.3-2
		c1.3,0.1,2.4,0.1,3.1,0.1c1.2,0,1.7-0.6,1.7-1.9v-3.9H249.5z M246.1,921.7c-0.3-0.5-0.7-1-1.2-1.4c2.1-2.8,3.7-6,5-9.6l1.6,0.6
		c-0.5,1.2-1,2.3-1.5,3.4h11.3v1.6h-5.2v3.5h4.7v1.6h-4.7v3.5h4.7v1.6h-4.7v3.8h5.5v1.6h-12.1v1.9h-1.7v-14.9
		C247.3,919.9,246.7,920.8,246.1,921.7L246.1,921.7z M249.6,919.8h4.9v-3.5h-4.9V919.8z M249.6,924.9h4.9v-3.5h-4.9V924.9z
		 M249.6,930.3h4.9v-3.8h-4.9V930.3z M249.9,829.6c0,1.6-0.1,3.1-0.2,4.5h11v-4.5H249.9L249.9,829.6z M249.9,823.4v4.5h10.9v-4.5
		H249.9z M255.4,914.4c-0.7-1.1-1.3-2.1-1.8-2.9l1.4-1c0.6,0.8,1.2,1.7,1.9,2.8L255.4,914.4L255.4,914.4z M254.1,852.5h7.6v14.2
		c0,2-0.9,3-2.7,3c-0.6,0-1.5,0-2.5,0c-0.1-0.7-0.2-1.4-0.3-2c1.1,0.1,1.9,0.2,2.4,0.2c0.9,0,1.4-0.5,1.4-1.6v-11.9h-4.3v19.6h-1.6
		V852.5z M264.3,903.7c-0.3-0.4-0.7-1-1.3-1.8c5.6-3.3,8.8-7.8,9.5-13.6h-9.1v-1.8h9.2c0.1-1.6,0.1-3.5,0.1-5.7h1.9
		c0,2,0,3.9-0.1,5.7h9.6v1.8h-9.5c1.5,6.3,4.8,10.7,9.8,13.1c-0.7,0.7-1.2,1.4-1.6,1.9c-4.6-2.8-7.7-7-9.2-12.5
		C272.5,896.1,269.4,900.4,264.3,903.7L264.3,903.7z M264.3,852.6h21.3v1.8H282v15.9c0,2.1-0.9,3.2-2.8,3.2c-1.4,0-2.7,0-3.9,0
		c-0.1-0.7-0.2-1.4-0.3-2.1c1.6,0.1,2.9,0.2,3.7,0.2c1.1,0,1.6-0.6,1.6-1.9v-15.2h-15.9V852.6z M266.7,857.8h9.5v9.3h-7.8v1.7h-1.7
		V857.8z M268.2,837.6c1.1,1,2.4,1.4,3.9,1.4c1.2,0,2.1-0.3,2.7-0.9c0.7-0.6,1-1.4,1-2.5c0-2.3-1.5-3.4-4.5-3.4h-1.4v-1.9h1.3
		c2.7,0,4-1.1,4-3.2c0-2-1-3-3.1-3c-1.2,0-2.3,0.4-3.3,1.3v-2.2c1.1-0.7,2.4-1,3.8-1c1.4,0,2.6,0.4,3.4,1.2c0.9,0.8,1.3,1.9,1.3,3.1
		c0,2.4-1.1,3.9-3.3,4.6v0c1.2,0.1,2.2,0.6,2.9,1.4c0.7,0.8,1.1,1.8,1.1,2.9c0,1.6-0.5,2.9-1.6,3.9c-1.1,1-2.5,1.5-4.3,1.5
		c-1.6,0-2.9-0.3-3.8-1V837.6z M274.5,859.5h-6.1v5.9h6.1V859.5z M274.1,902.6c-0.9-1.2-1.9-2.5-2.9-3.8l1.4-1.2c1,1.2,2,2.4,3,3.6
		L274.1,902.6L274.1,902.6z M274.9,927.7L273,934h-1.5l1.3-6.2H274.9z M291.8,840.6h-9.6v-2h3.7v-13.8l-3.8,1.2V824l5.9-1.9v16.6
		h3.7V840.6z M285.8,924.3h3.3c0.3-0.6,0.6-1.2,0.9-1.8l1.6,0.5c-0.2,0.4-0.5,0.9-0.7,1.3h5.3v1.5c-0.5,1.5-1.4,2.9-2.5,4
		c0.8,0.4,1.6,0.8,2.4,1.2l-0.9,1.6c-0.9-0.5-1.8-1.1-2.8-1.6c-1.6,1.3-3.7,2.3-6.1,3c-0.2-0.5-0.5-1-0.7-1.6
		c2.1-0.5,3.9-1.3,5.3-2.2c-1.2-0.7-2.5-1.4-3.9-2.1c0.5-0.7,0.9-1.5,1.3-2.2h-2.5V924.3z M286.1,916.2h5V911h1.6v5.2h4.1v1.5h-4.1
		v1.4l0.6-0.8c1.3,1.1,2.5,2,3.4,2.8l-1,1.3c-0.8-0.8-1.8-1.7-3-2.7v2.7H291v-3.3c-1.3,1.5-2.8,2.8-4.6,3.9
		c-0.3-0.5-0.6-0.9-0.9-1.4c1.8-1.1,3.5-2.4,5-3.9h-4.4V916.2z M288.5,892h6.9v-5h-9.7v-1.8h9.7v-4.5h1.8v4.5h9.9v1.8h-9.9v5h7.1
		v11.7h-1.7V902h-12.3v1.7h-1.7V892z M288.5,915.5c-0.6-1-1.3-2-1.9-2.9l1.2-0.9c0.6,0.9,1.3,1.8,2,2.8L288.5,915.5L288.5,915.5z
		 M286.8,863.1c0.9-0.3,1.8-0.6,2.7-0.9v-5.4H287v-1.6h2.5v-4.4h1.6v4.4h2.4v1.6h-2.4v4.8c0.7-0.3,1.5-0.6,2.2-0.9
		c0,0.8,0,1.4,0,1.9c-0.1,0-0.9,0.4-2.3,0.9v7.5c0,1.6-0.7,2.4-2,2.5c-0.6,0-1.3,0-2.1,0c-0.1-0.7-0.2-1.3-0.3-1.9
		c0.8,0.1,1.5,0.1,2,0.1c0.5,0,0.8-0.3,0.8-1v-6.6c-0.7,0.3-1.5,0.6-2.5,1L286.8,863.1z M290,925.8c-0.3,0.6-0.7,1.1-1,1.7
		c1,0.5,2.1,1,3.1,1.6c1-0.9,1.8-2,2.3-3.3H290L290,925.8z M302.5,893.7h-12.3v6.6h12.3V893.7z M292.9,865h1.9v-6.3
		c-0.4-0.3-0.8-0.7-1.3-1c1.9-2.1,3.4-4.5,4.5-7.1l1.7,0.3c-0.3,0.8-0.7,1.5-1.1,2.2h6.5v1.6c-0.5,0.7-1.4,1.8-2.5,3.3h3.9v7.1h1.7
		v1.6h-6.7c1.1,2.7,3.3,4.4,6.6,5.2c-0.5,0.7-1,1.3-1.3,1.9c-3-1.1-5.1-3-6.3-5.8c-0.8,2.4-3.2,4.4-7.2,6c-0.3-0.6-0.7-1.1-1.2-1.7
		c4.1-1.3,6.5-3.2,7.1-5.5h-6.4V865z M293.6,914.6c0.7-1,1.5-2,2.2-3.1l1.3,1c-0.8,1.1-1.6,2.2-2.4,3.1
		C294.4,915.3,294,915,293.6,914.6L293.6,914.6z M300.8,857.9c1-1.3,1.8-2.4,2.4-3.2h-5.5c-0.7,1.1-1.5,2.2-2.3,3.2H300.8
		L300.8,857.9z M296.4,920.3c1.7-2.6,2.8-5.8,3.3-9.5l1.7,0.3c-0.3,1.5-0.7,2.9-1.1,4.2h6.6v1.6h-1.4c-0.4,4.6-1.3,8.2-2.8,10.9
		c1.2,1.7,2.6,3.1,4.4,4.2c-0.5,0.7-0.8,1.3-1.2,1.9c-1.8-1.2-3.2-2.7-4.4-4.4c-1.3,1.8-2.9,3.3-4.7,4.6c-0.3-0.5-0.7-0.9-1.2-1.5
		c2-1.4,3.6-3.1,4.9-4.9c-1.2-2.2-1.9-4.7-2.3-7.6c-0.3,0.6-0.6,1.1-0.9,1.6C297.2,921.3,296.8,920.8,296.4,920.3L296.4,920.3z
		 M296.3,865h3.4c0.1-0.8,0.2-2.6,0.2-5.5h-3.5V865z M297,822.2h15.4v21.3h-1.8v-1.7h-11.7v1.7H297V822.2z M298.8,824v7h11.7v-7
		H298.8z M298.8,832.7v7.4h11.7v-7.4H298.8z M301.8,926c1.1-2.3,1.9-5.3,2.1-9.1h-4c-0.1,0.2-0.2,0.4-0.2,0.6
		C299.9,920.8,300.6,923.6,301.8,926L301.8,926z M305,859.5h-3.6c0,2,0,3.8-0.1,5.5h3.8V859.5z M308.3,900.9h9.8v-3.1h-8.5v-1.6h8.5
		v-3.1h-6v0.8h-1.7v-12h17.1v12h-1.7v-0.8h-6v3.1h8.5v1.6h-8.5v3.1h9.9v1.7h-21.4V900.9z M308.3,931.7h9.9v-1.3h-8.6v-1.2h8.6v-1.3
		h-5.1v0.6h-1.5v-7.2h14.8v7.2h-1.5v-0.6h-5.2v1.3h8.7v1.2h-8.7v1.3h9.9v1.3h-21.3V931.7z M308.5,918.8h21v1.3h-21V918.8z
		 M315.5,851.2l-0.3,0.6c1.3,1.7,2.6,3.4,3.9,5.3l-1.3,1.3c-1.1-1.8-2.2-3.5-3.3-5c-1.1,2.6-2.5,5.1-4.1,7.6
		c-0.3-0.5-0.6-1.1-1.1-1.6c1.7-2.3,3.2-5.1,4.5-8.3H315.5z M315.4,873.6c-1.4-2.3-2.9-4.4-4.4-6.3l1.3-1c0.7,0.9,1.3,1.7,1.9,2.6
		c0.7-1.5,1.5-3.2,2.3-5.2h-6.3V862h8.1v1.6c-1.1,2.7-2.1,4.9-3,6.6c0.6,0.8,1.1,1.5,1.6,2.3L315.4,873.6L315.4,873.6z M311.8,911.6
		h14.4v6.7h-1.5v-0.6h-11.5v0.6h-1.5V911.6z M312.1,886.7h6v-3.2h-6V886.7z M312.1,891.5h6v-3.2h-6V891.5z M313.1,923.9h5.1v-1.5
		h-5.1V923.9z M313.1,926.6h5.1V925h-5.1V926.6z M314.9,861.1c-0.4-1-0.9-2.2-1.7-3.6l1.3-0.7c0.6,1.1,1.3,2.3,1.8,3.5L314.9,861.1
		L314.9,861.1z M324.8,912.8h-11.5v1.2h11.5V912.8z M313.3,916.5h11.5v-1.3h-11.5V916.5z M323.9,859.3h1.6v3.5
		c0,1.7-0.2,3.2-0.5,4.5c2.1,1.7,4.1,3.4,6,5.1l-1.3,1.5c-1.6-1.7-3.4-3.4-5.3-5c-0.1,0.1-0.1,0.3-0.2,0.4c-1,1.7-2.7,3.2-5.2,4.6
		c-0.5-0.7-0.9-1.2-1.2-1.5c2.4-1.1,4-2.4,4.9-3.9c0.8-1.3,1.3-3.2,1.3-5.7V859.3z M319.5,856.7h3.8l0.5-3.2h-5.4v-1.6h12.4v1.6
		h-5.3l-0.6,3.2h4.9v11.2h-1.6v-9.6h-7.2v9.7h-1.6V856.7z M324.9,922.4h-5.2v1.5h5.2V922.4z M319.7,926.6h5.2V925h-5.2V926.6z
		 M325.9,883.6h-6v3.2h6V883.6z M319.8,891.5h6v-3.2h-6V891.5z M328.5,837.7l-1.8,6.2h-1.5l1.3-6.2H328.5z M337,933.7h-1.7v-12.1
		c-1,1.3-2.2,2.6-3.5,3.8c-0.3-0.5-0.6-1.1-1-1.7c2.8-2.5,4.9-5.3,6.5-8.4h-5.9v-1.7h6.7c0.4-1,0.8-2,1.1-3l1.8,0.4
		c-0.3,0.9-0.6,1.7-0.9,2.6h12.2v1.7h-13c-0.4,0.9-0.9,1.8-1.5,2.7h11.8v12.5c0,1.9-0.9,2.9-2.6,2.9c-0.8,0-1.9,0-3.5,0
		c-0.1-0.5-0.2-1.2-0.3-1.9c1.3,0.1,2.4,0.2,3.2,0.2c1,0,1.5-0.5,1.5-1.6v-1.7H337V933.7z M330.8,899.5c1.9-0.7,4.1-1.6,6.7-2.8
		v-7.4h-6.2v-1.7h6.2V881h1.7v22.5h-1.7v-4.9c-1.4,0.6-3.4,1.5-6,2.7L330.8,899.5z M335.6,868.3c1.6-1,3.6-2.4,6.1-4.1
		c0,1,0.1,1.8,0.2,2.2c-3.5,2.4-5.6,3.8-6.4,4.5c-0.5,0.4-0.9,0.8-1.4,1.2l-1.2-1.9c0.7-0.7,1-1.4,1-2.4v-16.3h1.8V868.3
		L335.6,868.3z M347.8,919.6H337v2.8h10.9V919.6z M337,926.8h10.9V924H337V926.8z M348.4,851.2h1.8v4.2c0,4.3-0.5,7.8-1.5,10.3
		c1.8,2,3.5,4,5,5.9l-1.5,1.5c-1.5-2-2.9-3.9-4.4-5.7c-1.7,2.7-4.2,4.9-7.5,6.4c-0.3-0.5-0.7-1-1.2-1.6c3.6-1.8,6.1-3.9,7.3-6.3
		c1.3-2.3,2-5.9,2-10.6V851.2z M339.8,823.5h6.3c0.4-0.9,0.7-1.9,0.9-2.9l1.8,0.5c-0.3,0.8-0.5,1.6-0.8,2.4h12.5v1.7h-13.2
		c-0.9,2.1-1.9,4.1-3,5.9v12.4h-1.7v-9.9c-0.8,1.1-1.6,2.1-2.5,3c-0.3-0.5-0.6-1.1-1-1.7c2.6-3,4.7-6.2,6.2-9.7h-5.6V823.5z
		 M340.8,850.7c1,1.7,2,3.6,3.2,6l-1.7,1c-1.1-2.4-2.1-4.4-3.1-6.1L340.8,850.7z M343.5,881h1.7v7.9c2-1.1,3.8-2.3,5.5-3.6l1.1,1.7
		c-1.6,1.1-3.7,2.4-6.6,3.9v8.6c0,1.1,0.5,1.6,1.6,1.6h1.5c1,0,1.6-0.5,1.7-1.6c0.1-1,0.2-2.3,0.3-3.8c0.6,0.3,1.2,0.5,1.8,0.8
		c-0.1,1.5-0.3,2.8-0.5,3.8c-0.3,1.8-1.3,2.7-3,2.7h-2.3c-2,0-3-1.1-3-3.2V881z M345.1,840.2h6.8v-7h-5.6v-1.7h5.6v-4.7h1.8v4.7h5.7
		v1.7h-5.7v7h6.9v1.6h-15.4V840.2z M359.1,920c1.2,1.7,1.8,3.2,2,4.6c0.4,3-0.3,4.7-2,5c-0.6,0.1-1.4,0.2-2.2,0
		c-0.1-0.6-0.3-1.3-0.5-2c0.8,0.2,1.4,0.3,2,0.2c1-0.2,1.3-1.3,1-3.4c-0.2-1.2-0.9-2.7-2-4.2c0.5-1.7,1.2-4,2-6.8h-3.2V934h-1.6
		v-22.1h6.5v1.6C360.4,915.7,359.7,917.9,359.1,920L359.1,920z M355,870.5h8.5v-19.4h2v7.1h8.9v1.9h-8.9v10.4H376v1.9h-21V870.5z
		 M355.3,882.4h18.5v1.8h-16.7v16.4h17.1v1.8h-18.9V882.4z M364.3,892.3c-1.8-1.9-3.7-3.7-5.6-5.5l1.2-1.2c1.8,1.6,3.7,3.4,5.6,5.3
		c1.5-1.8,2.9-3.7,4.3-5.8l1.6,1.1c-1.5,2.1-3,4.1-4.6,5.9c1.8,1.8,3.6,3.7,5.6,5.7l-1.5,1.6c-1.7-2-3.5-3.9-5.4-5.9
		c-2.1,2.3-4.2,4.3-6.3,6c-0.3-0.5-0.8-1-1.4-1.5C360.2,896.4,362.3,894.5,364.3,892.3L364.3,892.3z M362.4,911.9h10.2v11.7h-1.6
		V923h-3.6c0.4,1.4,1.1,2.7,1.8,3.8c1.3-0.9,2.7-2,4.1-3.3l1.1,1.5c-1.6,1.2-3,2.2-4.2,3.1c1.3,1.4,2.8,2.5,4.7,3.3
		c-0.5,0.6-1,1.1-1.4,1.7c-4-2.3-6.6-5.6-7.7-10.1H364v8c1-0.5,2.2-1.2,3.8-2.1c0,0.7,0,1.3,0.1,1.9c-1.3,0.7-2.5,1.4-3.7,2.2
		c-0.3,0.2-0.7,0.5-1.2,1l-1.2-1.8c0.4-0.4,0.6-0.9,0.6-1.5V911.9z M362.2,840H383v2h-20.8V840z M363.5,823h18.1v2h-18.1V823z
		 M371.1,913.5h-7v3.1h7V913.5z M371.1,921.4v-3.2h-7v3.2H371.1z M364.5,831.1h16.1v2h-16.1V831.1z M376.3,893.1
		c1.4-1.9,2.7-4.1,4.1-6.6c0.5,0.5,1,0.9,1.4,1.3c-1.3,2-2.6,4.2-4,6.6L376.3,893.1L376.3,893.1z M378.3,880.8
		c1.2,1.1,2.3,2.2,3.4,3.3c-0.5,0.5-0.9,1-1.3,1.4c-1-1.2-2.1-2.3-3.2-3.4L378.3,880.8z M378.2,857.1v-1.7h8.6v1.7
		c-0.8,1.6-1.8,3.2-3,4.7v12h-1.7v-10.1c-1.2,1.4-2.6,2.7-4.1,3.9c-0.2-1-0.4-1.6-0.6-2c3.2-2.6,5.7-5.4,7.5-8.6H378.2z
		 M379.3,894.7h15.2v9.1h-1.7v-1.3H381v1.3h-1.7V894.7z M380.7,892.6c4.7-1,7.3-3.5,7.7-7.4c0.5,0,1,0,1.5,0c0,0.2-0.1,0.5-0.1,0.9
		c1.4,3.4,4,5.5,7.9,6.4c-0.4,0.6-0.7,1.2-1,1.8c-3.7-1.2-6.1-3.3-7.4-6.1c-1.2,2.9-3.7,5-7.6,6.1
		C381.4,893.9,381.1,893.3,380.7,892.6L380.7,892.6z M392.8,896.4H381v4.6h11.9V896.4z M383.3,854.8c-0.7-1.1-1.5-2.2-2.2-3.2l1.3-1
		c0.8,1,1.5,2.1,2.3,3.1L383.3,854.8L383.3,854.8z M383.5,888.4c-0.4-0.4-0.9-0.8-1.5-1.2c1.6-1.8,2.8-4,3.4-6.5h1.7
		c-0.2,0.9-0.5,1.7-0.8,2.5h10.1v1.6c-0.6,1-1.2,2.1-1.8,3.3c-0.6-0.3-1.1-0.5-1.7-0.6c0.6-0.9,1.1-1.8,1.5-2.7h-8.8
		C385.1,886.1,384.3,887.3,383.5,888.4L383.5,888.4z M387.8,866.2c-1.2-1.2-2.4-2.2-3.6-3.2l1-1.2c1.2,0.9,2.5,2,3.8,3L387.8,866.2
		L387.8,866.2z M384.5,840.9h9.8v-3.1h-8.5v-1.6h8.5v-3.1h-6v0.8h-1.7v-12h17.1v12h-1.7v-0.8h-6v3.1h8.5v1.6h-8.5v3.1h9.9v1.7h-21.4
		V840.9z M388,927.7l-1.8,6.2h-1.5l1.3-6.2H388z M388.3,826.7h6v-3.2h-6V826.7z M388.3,831.5h6v-3.2h-6V831.5z M390,851h1.7v18.7
		c0,1,0.5,1.5,1.5,1.5h1.8c1,0,1.6-0.5,1.8-1.6c0.1-1.1,0.2-2.6,0.3-4.4c0.6,0.3,1.2,0.5,1.8,0.7c-0.2,2.2-0.3,3.8-0.5,4.7
		c-0.3,1.6-1.3,2.4-3.2,2.4h-2.3c-1.9,0-2.9-1-2.9-3.1V851z M402.1,823.5h-6v3.2h6V823.5z M396.1,831.5h6v-3.2h-6V831.5z
		 M403.1,929.4c1,1.4,2.6,2.1,4.7,2.2c3.2,0.1,7.3,0,12.4-0.1c-0.2,0.6-0.5,1.2-0.7,1.8c-5.1,0-9.1,0-11.9,0c-2.6-0.1-4.4-1-5.5-2.7
		c-0.4,0.4-1.3,1.4-2.5,3l-0.9-2c0.9-0.9,1.8-1.7,2.7-2.6v-8.2H399v-1.7h4.1V929.4L403.1,929.4z M403,900.1c0.8-0.6,1.6-1.2,2.5-1.9
		c0,0.8,0.1,1.5,0.2,2c-1.8,1.3-3.2,2.3-4,3.1l-1-1.6c0.5-0.5,0.7-1.1,0.7-2v-9.3h-2.5v-1.7h4.2V900.1L403,900.1z M401,911
		c1.1,1.4,2.2,2.9,3.3,4.6l-1.6,1.1c-0.9-1.6-2-3.1-3.1-4.6L401,911z M401,881.1c1.6,1.8,2.7,3,3.4,3.9l-1.5,1.3
		c-0.9-1.3-2-2.6-3.2-4L401,881.1z M401.2,862.9h8.2v10.8h-1.6v-1.6h-4.9v1.6h-1.6V862.9z M407.8,864.5h-4.9v6h4.9V864.5z
		 M403.3,851.7h14.9v9.3h-1.7v-0.8H405v0.8h-1.7V851.7z M405.4,889.4c-0.3-0.3-0.8-0.7-1.4-1.1c1.8-2.2,3.3-4.9,4.5-7.8l1.6,0.7
		c-0.4,0.8-0.8,1.6-1.2,2.4h10.5c-0.2,7.1-0.3,12.3-0.4,15.5c-0.1,2.8-1.2,4.2-3.4,4.2c-1.3,0-2.5,0-3.5-0.1
		c-0.1-0.6-0.2-1.3-0.4-2.1c1.3,0.2,2.4,0.3,3.5,0.3c1.3,0,2-0.9,2.1-2.7c0.1-3.5,0.3-8,0.4-13.5H408
		C407.2,886.8,406.3,888.2,405.4,889.4L405.4,889.4z M404.7,921h6.4c0-0.3,0-1.6,0-3.9h-5.7v-1.6h7.4c1.4-1.9,2.4-3.5,3-4.8l1.7,1.1
		c-0.6,0.8-1.5,2-2.8,3.7h4.5v1.6h-6.4c0,2,0,3.3,0,3.9h7v1.6h-7.1c0,0.4-0.1,0.8-0.2,1.2c2.3,1.6,4.5,3.3,6.6,5l-1.1,1.6
		c-2.2-1.9-4.2-3.5-6-4.9c-1,2.2-2.9,3.9-5.8,5.2c-0.4-0.5-0.8-1-1.2-1.5c3.7-1.6,5.7-3.8,6-6.6h-6.3V921z M416.4,853.3H405v5.3
		h11.4V853.3z M406.7,888.1h7.9v10.7h-6.3v1.4h-1.6V888.1z M409.4,915.1c-0.9-1.3-1.6-2.4-2.3-3.3l1.3-1.1c0.7,0.9,1.6,1.9,2.5,3.2
		L409.4,915.1L409.4,915.1z M424.5,836.3v-1.2h-5.8v4.1c0,1.4,0.6,2,1.7,2h3.9c1.2,0,2-0.6,2.2-1.7c0.2-0.9,0.3-2.1,0.4-3.6
		c0.6,0.3,1.2,0.5,1.8,0.7c-0.2,1.6-0.4,2.8-0.6,3.7c-0.4,1.8-1.6,2.6-3.5,2.6h-4.7c-1.9,0-2.8-1.1-2.8-3.3v-4.6h-7.4v-7.8h1.6v6.1
		h5.8v-7.8H408v-1.7h9.1v-3.1h1.7v3.1h9.1v1.7h-9.1v7.8h5.8v-6.1h1.6v9H424.5z M413,889.6h-4.8v2.9h4.8V889.6z M413,897.1v-3h-4.8v3
		H413z M412.1,862.9h8.2v10.8h-1.6v-1.6h-5v1.6h-1.6V862.9z M418.7,864.5h-5v6.1h5V864.5z M422.1,923.3h20.3v1.7h-7v5
		c0,1,0.5,1.5,1.4,1.5h2.3c1,0,1.5-0.4,1.6-1.1c0.1-0.7,0.2-1.7,0.2-3.1c0.5,0.2,1.1,0.5,1.9,0.7c-0.1,1.3-0.2,2.3-0.4,3.1
		c-0.2,1.3-1.1,2-2.6,2h-3.5c-1.8,0-2.7-1-2.7-3v-5.2h-3.9c0,4.4-2.4,7.3-7.1,8.8c-0.3-0.5-0.6-1.1-1.1-1.7c4.3-1.1,6.4-3.5,6.5-7.1
		h-6V923.3z M436.7,883.7c2.3,2.3,4.4,4.6,6.4,7l-1.5,1.4c-0.6-0.7-1.2-1.5-1.7-2.2c-6.5,0.3-11.4,0.6-14.8,0.8
		c-0.8,0.1-1.6,0.2-2.3,0.4l-0.7-2c0.7-0.3,1.3-0.6,1.8-1.1c2.5-2.2,4.7-4.7,6.8-7.6l1.6,1.1c-2.2,2.8-4.4,5.2-6.8,7.3
		c4.4-0.1,8.7-0.3,13-0.5c-1-1.2-2-2.3-3-3.4L436.7,883.7z M422.2,913.6h9.2c-0.3-0.6-0.6-1.4-1.1-2.2l1.7-0.8
		c0.6,1.2,1,2.2,1.4,3.1h8.6v4.3h-1.8v-2.6H424v2.6h-1.8V913.6z M439.8,893v10.6h-1.8v-1.5h-11.9v1.5h-1.8V893H439.8z M424.7,918.4
		h15.2v1.6h-15.2V918.4z M438.1,894.8h-11.9v5.7h11.9V894.8z M431.1,843.7c-0.3-0.4-0.7-1-1.3-1.8c5.6-3.3,8.8-7.8,9.5-13.6h-9.1
		v-1.8h9.2c0-1.6,0.1-3.5,0.1-5.7h1.9c0,2,0,3.9-0.1,5.7h9.6v1.8h-9.5c1.5,6.3,4.8,10.7,9.8,13.1c-0.7,0.7-1.2,1.4-1.6,1.9
		c-4.6-2.8-7.7-7-9.2-12.5C439.3,836.1,436.1,840.4,431.1,843.7L431.1,843.7z M435,874.8c-2.6-3-3.8-6.7-3.8-11.1
		c0-4.4,1.3-8.1,3.8-11.2h1.9c-2.6,3.2-3.8,6.9-3.8,11.2c0,4.2,1.3,7.9,3.8,11.1H435z M440.9,842.6c-0.9-1.2-1.9-2.5-2.9-3.8
		l1.4-1.2c1,1.2,2,2.4,3,3.6L440.9,842.6L440.9,842.6z M444,901.7c2.2-1,4.2-2.3,6-3.8l1,1.3c-1.9,1.5-3.9,2.8-6,4
		C444.8,902.7,444.5,902.2,444,901.7L444,901.7z M459,892.4c2,1.6,3.7,3.1,5.3,4.6l-1.3,1.3c-0.5-0.5-0.9-1-1.4-1.5
		c-1.9,0.1-3.8,0.2-5.7,0.3v3.5c0,1.9-0.9,2.9-2.8,2.9c-0.8,0-1.8,0-2.7,0c-0.1-0.6-0.2-1.2-0.3-1.9c1,0.1,1.9,0.2,2.7,0.2
		c1,0,1.5-0.5,1.5-1.5v-3c-1.5,0.1-2.9,0.2-4.2,0.3c-0.8,0.1-1.7,0.2-2.5,0.3l-0.6-1.9c1-0.2,2-0.6,2.9-1.1c1.4-0.7,2.7-1.5,3.9-2.2
		c-1.2,0.1-2.3,0.2-3.3,0.3c-0.7,0.1-1.3,0.2-1.8,0.3l-0.5-1.6c0.6-0.2,1.2-0.6,1.8-1c0.9-0.7,1.9-1.4,2.9-2.3h-6.3v2.7h-1.7v-4.3
		h9.1v-2.2h-8.4v-1.6h8.4v-2.3h1.8v2.3h8.5v1.6h-8.5v2.2h9.1v4.3H463v-2.7h-8.2c-1.5,1.3-2.9,2.4-4.2,3.3c1.7-0.1,3.4-0.1,5-0.2
		c1-0.7,1.9-1.3,2.8-2l1.3,1.1c-3.2,2.1-6.3,4-9.2,5.5c3-0.1,6.2-0.3,9.5-0.5c-0.7-0.7-1.4-1.3-2.2-2L459,892.4z M451.3,924.4
		c1.8,2.3,3.2,4.3,4.4,6l-1.4,1.1c-0.5-0.8-1.1-1.6-1.7-2.5c-2.1,1.1-3.9,2-5.4,2.8c-0.5,0.3-0.9,0.6-1.3,1l-1.2-1.5
		c0.4-0.5,0.7-1.1,0.7-1.8v-17.3h8.7v12.1h-1.6v-0.6h-5.4v6.2c1.4-0.6,2.9-1.4,4.6-2.2c-0.5-0.8-1.1-1.6-1.7-2.4L451.3,924.4z
		 M445.6,869h20.7v2h-20.7V869z M452.6,913.9h-5.4v3.3h5.4V913.9z M452.6,922.1v-3.3h-5.4v3.3H452.6z M447.2,853.7h17.6v2h-17.6
		V853.7z M455.3,832h6.9v-5h-9.7v-1.8h9.7v-4.5h1.8v4.5h9.9v1.8h-9.9v5h7.1v11.7h-1.7v-1.7H457v1.7h-1.7V832z M456.6,912.5h7.6v14.2
		c0,2-0.9,3-2.7,3c-0.6,0-1.5,0-2.5,0c-0.1-0.7-0.2-1.4-0.3-2c1.1,0.1,1.9,0.2,2.4,0.2c0.9,0,1.4-0.5,1.4-1.6v-11.9h-4.3v19.6h-1.6
		V912.5z M469.3,833.7H457v6.6h12.3V833.7z M458.8,898.1c2.5,1.2,4.7,2.4,6.7,3.5c-0.4,0.6-0.8,1.1-1,1.6c-1.9-1.3-4.1-2.5-6.6-3.8
		L458.8,898.1z M466.7,898.2c0.6-0.1,1.3-0.2,1.9-0.3v-14.5H467v-1.6h10.6v0.8h9.4v1.5c-0.8,5.8-2.1,10-3.7,12.7
		c1.4,2.1,3,3.7,4.9,4.9c-0.4,0.5-0.8,1-1.3,1.7c-1.5-1.2-3.1-2.9-4.6-5.1c-1.5,2.1-3.2,3.9-5.2,5.4c-0.4-0.6-0.8-1.1-1.1-1.5v1.5
		h-1.6v-5.1c-2.6,0.4-5.1,0.9-7.5,1.3L466.7,898.2z M466.9,930h3.8v-14.9h1.8V930h5.3v-19.3h1.9v6.9h7.2v1.9h-7.2V930h8.4v1.9h-21.1
		V930z M472.3,869c0.9,1.5,2.4,2.3,4.6,2.4l4.5,0l7.9-0.2c-0.2,0.5-0.4,1.1-0.6,1.9l-7.5,0.1l-4.5-0.1c-2.6-0.1-4.4-1-5.4-2.8
		c-0.6,0.6-1.5,1.6-2.6,3.1l-0.9-1.9c1.3-1.3,2.2-2.3,2.8-2.9v-7.9h-2.6V859h4.2V869L472.3,869z M470.6,851.1c0.7,1,1.7,2.4,3,4.4
		l-1.5,1.2c-1.2-2-2.1-3.5-2.9-4.6L470.6,851.1z M470.2,887h4.2v-3.6h-4.2V887z M470.2,892.1h4.2v-3.6h-4.2V892.1z M470.2,897.7
		c1.3-0.2,2.7-0.4,4.2-0.7v-3.4h-4.2V897.7L470.2,897.7z M473.7,860.3h7.1v-3.9h-3.6c-0.4,1.2-0.9,2.3-1.3,3.2
		c-0.4-0.3-0.9-0.5-1.5-0.8c1.1-2.1,2-4.5,2.5-7.1l1.7,0.4c-0.3,1-0.5,1.9-0.8,2.8h3.1v-4.1h1.7v4.1h5.6v1.6h-5.6v3.9h6.7v1.6h-5.1
		v5c0,0.8,0.3,1.2,0.9,1.2h1c0.7,0,1-0.4,1.1-1.1c0.1-0.6,0.2-1.5,0.2-2.8c0.4,0.2,1,0.4,1.6,0.7c-0.1,1.1-0.2,2-0.4,2.7
		c-0.2,1.4-1,2.1-2.5,2.1h-1.6c-1.5,0-2.2-0.9-2.2-2.6v-5.2h-2.9c0,0.7,0,1.3-0.1,1.9c-0.1,2.9-1.6,5.1-4.5,6.5
		c-0.3-0.5-0.6-1-1.1-1.6c2.5-1.1,3.8-2.8,3.9-4.9c0-0.5,0.1-1.1,0.1-1.9h-4.2V860.3z M475.1,840.9h9.8v-3.1h-8.5v-1.6h8.5v-3.1h-6
		v0.8h-1.7v-12h17.1v12h-1.7v-0.8h-6v3.1h8.5v1.6h-8.5v3.1h9.9v1.7h-21.4V840.9z M477.4,884.2v-0.8h-1.3v13.3
		c0.8-0.1,1.6-0.3,2.5-0.4c0,0.6-0.1,1.2-0.1,1.6c-0.8,0.1-1.6,0.3-2.4,0.4v3.8c2-1.3,3.8-3,5.3-5.3c-1.7-2.9-2.7-7.1-3.2-12.6
		H477.4z M478.9,826.7h6v-3.2h-6V826.7z M478.9,831.5h6v-3.2h-6V831.5z M482.4,895.3c1.3-2.3,2.2-6,3-11h-5.6
		C480.1,888.8,481,892.5,482.4,895.3L482.4,895.3z M492.6,823.5h-6v3.2h6V823.5z M486.6,831.5h6v-3.2h-6V831.5z M489.3,893.3
		c1-0.3,2.1-0.6,3.2-1v-5.2h-2.9v-1.6h2.9v-4.6h1.7v4.6h2.7v1.6h-2.7v4.6c0.8-0.2,1.6-0.5,2.4-0.8c0,0.8,0,1.4,0,1.9
		c-0.7,0.2-1.5,0.5-2.4,0.8v7.1c0,1.7-0.6,2.6-1.9,2.6c-0.7,0-1.4,0-2.3,0c-0.1-0.7-0.2-1.3-0.3-2c0.9,0.1,1.5,0.1,2,0.1
		c0.6,0,0.9-0.4,0.9-1.1v-6.2c-0.9,0.3-1.9,0.7-3,1.1L489.3,893.3z M490.6,860.5H512v2.1h-21.4V860.5z M498.1,882.6
		c3.7,0,7.6-0.3,11.5-1l0.6,1.8c-4.3,0.5-7.8,0.8-10.4,0.8v5.5h11v1.7h-3.9v12.3h-1.7v-12.3h-5.3c0,5.6-1,9.8-3,12.4
		c-0.4-0.5-0.8-1-1.4-1.5c1.8-2.3,2.7-5.9,2.7-10.9V882.6z M497.6,839.5c1.9-0.7,4.1-1.6,6.7-2.8v-7.4h-6.2v-1.7h6.2V821h1.7v22.5
		h-1.7v-4.9c-1.4,0.6-3.4,1.5-6,2.7L497.6,839.5z M510.3,820.9h1.7v7.9c2-1.1,3.8-2.3,5.5-3.6l1.1,1.7c-1.6,1.1-3.7,2.4-6.6,3.9v8.6
		c0,1.1,0.5,1.6,1.6,1.6h1.5c1,0,1.6-0.5,1.7-1.6c0.1-1,0.2-2.3,0.3-3.8c0.6,0.3,1.2,0.5,1.8,0.8c-0.1,1.5-0.3,2.8-0.5,3.8
		c-0.3,1.8-1.3,2.7-3,2.7h-2.3c-2,0-3-1.1-3-3.2V820.9z M513.1,904c-0.3-0.5-0.6-1.1-1.1-1.9c3.7-0.9,6.2-2,7.6-3.2
		c1.6-1.4,2.4-3.6,2.4-6.5v-2.6h1.7v2.7c0,1.6-0.2,3-0.6,4.2c3.6,1.7,6.9,3.5,9.9,5.3l-1.1,1.8c-2.8-1.8-5.9-3.7-9.4-5.5
		c-0.5,1-1.2,1.8-2,2.4C518.8,902.1,516.4,903.2,513.1,904L513.1,904z M514.8,886.7h6.1c0.2-0.8,0.4-1.9,0.6-3.1h-9.2v-1.7h20.7v1.7
		h-9.5c-0.3,1.2-0.6,2.3-0.9,3.1h8.1v11.2H529v-9.4h-12.5v9.5h-1.7V886.7z M526,863.5c0,4.4-1.3,8.1-3.8,11.2h-1.9
		c2.6-3.2,3.8-6.9,3.8-11.2c0-4.2-1.3-7.9-3.8-11.1h1.8C524.8,855.5,526,859.2,526,863.5L526,863.5z M522.1,822.4h18.5v1.8h-16.7
		v16.4H541v1.8h-18.9V822.4z M531.1,832.3c-1.8-1.9-3.7-3.7-5.6-5.5l1.2-1.2c1.8,1.6,3.7,3.4,5.6,5.3c1.5-1.8,2.9-3.7,4.3-5.8
		l1.6,1.1c-1.5,2.1-3,4.1-4.6,5.9c1.8,1.8,3.6,3.7,5.6,5.7l-1.5,1.6c-1.7-2-3.5-3.9-5.4-5.9c-2.1,2.3-4.2,4.3-6.3,6
		c-0.3-0.5-0.8-1-1.4-1.5C527,836.4,529.1,834.5,531.1,832.3L531.1,832.3z"/>
	<path class="st4" d="M98.6,70c4.3-1.7,7.6-3.3,9.9-5l2.7,3.4c-3.2,2.3-6.7,4.3-10.4,5.9C100.2,73,99.5,71.6,98.6,70L98.6,70z
		 M125.1,55.6c3.4,2.3,6.5,4.6,9.3,6.9l-2.8,3.2c-0.8-0.7-1.6-1.4-2.4-2.1l-8.7,0.3v6.4c0,1.3-0.3,2.3-1,3.1
		c-0.6,0.7-1.5,1.1-2.7,1.3c-1.1,0.1-3.3,0.2-6.6,0.2c-0.2-1.4-0.5-3-1-5c1.4,0.2,2.6,0.2,3.6,0.2c0.9,0,1.5-0.1,1.9-0.4
		c0.4-0.3,0.5-0.7,0.5-1.3v-4.1c-4.5,0.3-8.8,0.6-12.8,1l-1.5-4.3c4.3-1.3,8.1-2.6,11.5-3.9c-2.9,0.2-5.6,0.4-8,0.6l-1.2-3.7
		c2.3-0.8,4.3-1.8,6.1-2.7h-7.7V35.8h31.2v15.3H126l3,2.7c-6,2.8-12.3,5.2-18.8,7.2l14.9-0.8l-2.4-1.9L125.1,55.6z M107,41.8h7.8
		v-2.3H107V41.8z M107,47.4h7.8v-2.3H107V47.4z M120.4,53.5c1.6-0.8,3.1-1.6,4.4-2.4h-8l-5.3,2.7L120.4,53.5L120.4,53.5z
		 M127.7,39.5h-7.8v2.3h7.8V39.5z M127.7,47.4v-2.3h-7.8v2.3H127.7z M124.6,65c3.9,1.5,7.8,3,11.5,4.7l-2.2,4.5
		c-4.3-2.2-8.1-4-11.3-5.3L124.6,65z M138.9,68.5c-0.4-1.8-1-4-1.7-6.6c2.3-3,4.1-6.5,5.4-10.4h-5.1v-5.3h5.2v-4.6
		c-1.3,0.2-2.8,0.3-4.3,0.5c-0.3-1.9-0.5-3.5-0.9-4.9c4.3-0.4,8.7-1,13.4-1.7l1.1,4.8c-1.3,0.2-2.8,0.5-4.5,0.7v5.2h4.6v5.3h-4.6V56
		l1.4-1.6c1.4,1.3,2.9,2.9,4.6,4.8l-3,3.2c-1.1-1.4-2.1-2.6-3-3.7v16h-4.9V61.3C141.5,64,140.3,66.4,138.9,68.5L138.9,68.5z
		 M153.9,75c-1.3-1.1-2.7-2.2-4.3-3.4c2.6-2.8,5.1-6.5,7.4-11.3l4.6,2.6C159,67.6,156.4,71.7,153.9,75L153.9,75z M153.6,58.8v-22
		h19.2v22H153.6z M167.6,42h-8.9v11.6h8.9V42z M168,60.3c2.4,3.6,4.8,7.5,7,11.5l-4.6,3.1c-2.4-4.8-4.6-8.8-6.6-12.1L168,60.3z
		 M178.9,45.6c1.9,1.5,3.9,3.3,6,5.2l-3.4,4.4c-2-2.1-3.8-4-5.7-5.7L178.9,45.6z M185,37.8h6.2v-3.4h4.9v3.4h6v-3.4h4.9v3.4h6.2v4.3
		H207v2.6h-4.9v-2.6h-6v2.6h-4.9v-2.6H185v-1.5L182,44c-1.6-1.8-3.5-3.6-5.5-5.5l3.1-3.8c1.6,1.3,3.4,2.8,5.3,4.6V37.8z M176.6,73
		c1.3-4.8,2.6-10.1,3.7-15.8c2,0.9,3.7,1.5,4.9,1.9l-3.6,15.5C179.9,74.1,178.3,73.5,176.6,73L176.6,73z M185,45.1h28.1v4.3h-7.8
		v3.4h6.7v16.3c0,1.6-0.3,2.8-1,3.6c-0.7,0.8-1.5,1.3-2.6,1.5c-1.1,0.1-3.3,0.2-6.7,0.3c-0.3-1.4-0.6-2.7-1-4l-3.9-2.6
		c1.2-1.3,2.1-2.8,2.8-4.6l-1.9,1.8c-0.4-0.6-0.8-1.2-1.3-1.8c-0.8,2.3-1.9,4.6-3.4,7c-0.3-0.4-1-1-2-1.8v6.1h-4.7V52.8h7v-3.4H185
		V45.1z M190.7,65.5c1.5-2.5,2.3-5.4,2.5-8.8h-2.5V65.5z M199.9,62.1c0.5-1.7,0.9-3.5,1-5.5h-3.4c0,1.1-0.1,2-0.2,2.6L199.9,62.1z
		 M197.5,52.8h3.5v-3.4h-3.5V52.8z M207.2,65.7l-1.5,1.5c-0.6-0.9-1.2-1.7-1.9-2.6c-0.7,2-1.7,3.9-3,5.7c1.7,0.1,3,0.1,4.2,0.1
		c1.4,0,2.2-0.8,2.2-2.3V65.7z M207.5,56.6h-2.2c0,1.2-0.1,2.4-0.3,3.5l2.5,2.8V56.6z M245.2,37.4l-7.6,15.5h5.4v4.7h-6.6v3.5h6.6
		v4.7h-6.6v6.5h-6v-6.5h-6.9v-4.7h6.9v-3.5h-6.9v-4.7h5.5l-7.4-15.5h6.4c2.9,7.2,4.7,11.9,5.5,14.2h0.1c0.1-0.3,0.2-0.7,0.4-1.2
		c0.2-0.8,1.1-3.1,2.7-7l2.4-5.9H245.2z M261.6,73.7c-4.7,0-7.5-2.7-7.5-7.3v-3.8h4.7v3.6c0,2.4,1.1,3.5,2.9,3.5c1.8,0,3-1.1,3-3.5
		v-8.6c0-2-0.9-3.1-2.6-3.1c-1.6,0-2.8,1.1-2.8,3.1v0.2h-4.7l0.8-18.3h13.5v4.1h-9l-0.5,8.9c1-1.1,2.6-1.9,4.3-1.9
		c4.4,0,5.9,3.2,5.9,6.8v8.9C269.3,71.1,266.4,73.7,261.6,73.7z M281.9,73.7c-4.7,0-7.7-2.7-7.7-7.3v-20c0-4.6,3-7.3,7.7-7.3
		s7.7,2.7,7.7,7.3v20C289.6,71.1,286.7,73.7,281.9,73.7z M284.9,46.7c0-2.4-1.2-3.5-3-3.5c-1.8,0-3,1.1-3,3.5v19.6
		c0,2.4,1.2,3.5,3,3.5c1.8,0,3-1.1,3-3.5V46.7z M295.2,79.4v-2.3c1.8-0.3,2.6-1.3,2.6-3.1v-0.7h-3V68h5.5v6
		C300.3,77.5,297.7,79.2,295.2,79.4z M312.4,73.7c-4.7,0-7.7-2.7-7.7-7.3v-20c0-4.6,3-7.3,7.7-7.3c4.7,0,7.7,2.7,7.7,7.3v20
		C320.1,71.1,317.1,73.7,312.4,73.7z M315.4,46.7c0-2.4-1.2-3.5-3-3.5c-1.8,0-3,1.1-3,3.5v19.6c0,2.4,1.2,3.5,3,3.5
		c1.8,0,3-1.1,3-3.5V46.7z M333,73.7c-4.7,0-7.7-2.7-7.7-7.3v-20c0-4.6,3-7.3,7.7-7.3c4.7,0,7.7,2.7,7.7,7.3v20
		C340.7,71.1,337.7,73.7,333,73.7z M335.9,46.7c0-2.4-1.2-3.5-3-3.5c-1.8,0-3,1.1-3,3.5v19.6c0,2.4,1.2,3.5,3,3.5c1.8,0,3-1.1,3-3.5
		V46.7z M353.6,73.7c-4.7,0-7.7-2.7-7.7-7.3v-20c0-4.6,3-7.3,7.7-7.3c4.7,0,7.7,2.7,7.7,7.3v20C361.2,71.1,358.3,73.7,353.6,73.7z
		 M356.5,46.7c0-2.4-1.2-3.5-3-3.5c-1.8,0-3,1.1-3,3.5v19.6c0,2.4,1.2,3.5,3,3.5c1.8,0,3-1.1,3-3.5V46.7z M397.3,61.6
		c2.3,1,4.1,1.6,5.3,2.1c-0.5,2.6-0.9,4.7-1.4,6.4c-0.4,1.6-1.2,2.7-2.2,3.4c-1,0.6-2.3,0.9-3.8,0.9h-3.7c-4,0-6-2.1-6-6.2V54.5
		h-5.4c-0.4,9.8-4.1,16.6-11.1,20.4c-1-1.2-2.3-2.8-4-4.8c6.2-3.1,9.4-8.3,9.7-15.6h-9.2v-5.7h36.7v5.7H391V66c0,2,0.8,3,2.3,3h1.2
		c0.8,0,1.3-0.3,1.6-1C396.5,67.2,396.9,65.1,397.3,61.6z M368.6,36.8h30.5v5.6h-30.5V36.8z M418.4,58c2,3.6,3.9,7.2,5.7,10.9
		l-4.4,2.6l-1.4-3c-5.2,2.1-9,3.7-11.2,4.9l-2.4-4.1c0.8-1,1.2-2.4,1.2-4.2V35.9h16.6V58H418.4L418.4,58z M417.7,41h-6.9v3.7h6.9V41
		z M417.7,52.9v-3.7h-6.9v3.7H417.7z M414.3,60l3.4-2.1h-6.9v8.4l5.5-2.1L414.3,60z M424.5,36.9h14.9v25.6c0,1.9-0.3,3.3-1,4.3
		c-0.7,1-1.6,1.5-2.9,1.6c-1.2,0.1-3,0.1-5.3,0.1c-0.2-2.2-0.5-4-0.8-5.5c1.4,0.2,2.6,0.2,3.6,0.2c0.9,0,1.4-0.6,1.4-1.8V42.2h-5.1
		v32.4h-4.9V36.9z M442.3,57.3c3.3-2.9,6.4-6.8,9.2-11.6l3.9,3.7c-1.3,2.1-2.6,4.2-4,6v19.6h-4.9V61.1c-0.9,0.9-1.8,1.8-2.7,2.6
		C443.5,62,443,59.9,442.3,57.3L442.3,57.3z M442.7,43.7c3.2-2.8,5.9-6,8-9.4l4.1,3.6c-2.8,4.3-6.2,8.4-10.3,12.1
		C444.2,48.4,443.5,46.3,442.7,43.7L442.7,43.7z M479.1,58H475v2.3h4.9v4.2H475v4c0,1.9-0.4,3.3-1.2,4.3c-0.8,1-2.1,1.5-3.8,1.7
		c-1.7,0.1-3.6,0.2-5.7,0.1c-0.3-1.7-0.7-3.5-1.2-5.2c1.8,0.1,3.4,0.2,4.8,0.2c1.4,0,2.1-0.8,2.1-2.5v-2.5h-8.9c1,1.2,2,2.5,3.1,3.9
		l-4.2,3.1c-1.3-2.1-2.6-4-3.8-5.5l2.1-1.4h-4.8v-4.2H470V58h-15.3v-4.2h24.5V58z M456,35.8h21.6v15.9H456V35.8z M472.7,39.9h-11.8
		V42h11.8V39.9z M472.7,47.7v-2.1h-11.8v2.1H472.7z"/>
	<g>
		<circle class="st5" cx="290.5" cy="440" r="49"/>
		<path class="st6" d="M253.4,440.5c0.6-12.9,6.6-19.6,17.9-20.3c10.9,0.8,16.8,7.4,17.6,20.1c-0.3,13-6.3,19.7-17.9,20.1
			C259.7,459.7,253.9,453.1,253.4,440.5L253.4,440.5z M259.5,440.5c0.3,9.1,4.1,14,11.4,14.6c7.7-0.4,11.7-5.2,11.9-14.6
			c-0.6-9-4.4-13.9-11.6-14.6C263.8,426.5,259.9,431.3,259.5,440.5L259.5,440.5z M328.3,459.8h-7.9l-12.1-16.5H301v16.5h-5.9v-39
			h16.7c8,0.3,12.2,3.9,12.6,11.1c0,6.4-3.2,10.1-9.5,11.1L328.3,459.8z M301,426.6v10.9h9.8c5.2,0,7.7-1.9,7.6-5.8
			c-0.1-3.2-2.6-4.9-7.6-5.1H301z"/>
	</g>
</g>
<g>
</g>
<g>
</g>
<g>
</g>
<g>
</g>
<g>
</g>
<g>
</g>
<g>
</g>
<g>
</g>
<g>
</g>
<g>
</g>
<g>
</g>
<g>
</g>
<g>
</g>
<g>
</g>
<g>
</g>
</svg>
