<?xml version="1.0" encoding="utf-8"?>
<!-- Generator: Adobe Illustrator 17.0.0, SVG Export Plug-In . SVG Version: 6.00 Build 0)  -->
<!DOCTYPE svg PUBLIC "-//W3C//DTD SVG 1.1//EN" "http://www.w3.org/Graphics/SVG/1.1/DTD/svg11.dtd">
<svg version="1.1" id="Layer_1" xmlns="http://www.w3.org/2000/svg" xmlns:xlink="http://www.w3.org/1999/xlink" x="0px" y="0px"
	 width="720px" height="185px" viewBox="0 0 720 185" style="enable-background:new 0 0 720 185;" xml:space="preserve">
<style type="text/css">
	.st0{fill:none;}
	.st1{fill:#E3A8B0;}
	.st2{fill:#FAE2DD;}
	.st3{fill:#3E0C0F;}
</style>
<g id="_x32_-1.svg">
	<rect x="0" y="0" class="st0" width="720" height="185"/>
	<path class="st1" d="M74.6,68.8c2.3-1,4.5-2,6.5-3.1l1.1,1.6c-2.3,1.2-4.5,2.3-6.7,3.2C75.2,70,74.9,69.4,74.6,68.8L74.6,68.8z
		 M91,59.9c2.2,1.9,3.9,3.6,5.2,5l-1.3,1.4c-0.6-0.7-1.2-1.4-1.9-2c-1.9,0.1-3.8,0.2-5.8,0.3v3.4c0,2.1-1,3.1-2.9,3.1
		c-1,0-2.1,0-3.3,0c-0.1-0.7-0.2-1.4-0.3-2.1c1.2,0.1,2.3,0.2,3.2,0.2c1,0,1.6-0.6,1.6-1.9v-2.6c-2.1,0.1-4.2,0.2-6.3,0.3
		c-0.7,0-1.3,0.1-2,0.2l-0.6-1.9c1-0.1,2-0.4,3.2-0.9c1.6-0.7,3.3-1.5,5.2-2.4c-1.9,0.1-3.7,0.2-5.2,0.3c-0.7,0.1-1.3,0.1-1.7,0.2
		l-0.6-1.7c0.8-0.2,1.6-0.4,2.4-0.8c1-0.5,2.1-1.1,3.1-1.7h-4.4v0.7h-1.8v-9.6h18.5v9.6h-1.8v-0.7h-7.8c-1.7,0.9-3.4,1.8-5.1,2.6
		c2-0.1,4.4-0.1,7.1-0.3c1.1-0.5,2.2-1.1,3.3-1.8l1.2,1.4c-3.7,1.9-7.5,3.7-11.4,5.2c3.9-0.2,7.5-0.4,10.7-0.6
		c-0.6-0.6-1.1-1.1-1.7-1.6L91,59.9z M78.5,51h6.6v-2.3h-6.6V51z M78.5,54.7h6.6v-2.3h-6.6V54.7z M93.4,48.7h-6.6V51h6.6V48.7z
		 M86.8,54.7h6.6v-2.3h-6.6V54.7z M90.5,65.8c2.3,0.8,4.5,1.8,6.7,2.8l-0.7,1.7c-2.1-1-4.3-2-6.8-2.9L90.5,65.8z M101.4,66.7
		c-0.2-0.7-0.5-1.5-0.8-2.2c1.4-2.4,2.7-5.2,3.6-8.5h-3.5v-1.8h3.7v-4c-1,0.1-2.1,0.2-3.3,0.3c-0.1-0.6-0.2-1.2-0.4-1.9
		c3.2-0.2,5.9-0.5,8.3-0.8l0.4,1.9c-0.9,0.1-2.1,0.2-3.4,0.4v4.2h3.5V56h-3.5v3.6l0.9-0.9c1,1,2,2.2,3,3.5l-1.3,1.3
		c-0.8-1.1-1.7-2.2-2.6-3.3v11.3h-1.7V60.2C103.6,62.7,102.6,64.9,101.4,66.7L101.4,66.7z M108.4,69.7c1.9-2.1,3.5-4.2,4.9-6.3
		l1.5,1.2c-1.8,2.4-3.5,4.6-5.1,6.5C109.3,70.6,108.9,70.2,108.4,69.7L108.4,69.7z M110.8,48.6h11.8v13.2h-1.8v-1.2h-8.3v1.2h-1.8
		V48.6z M120.9,50.3h-8.3v8.6h8.3V50.3z M122.4,70.8c-1.4-2.2-2.8-4.3-4.3-6.2l1.4-1.1c1.4,1.8,2.9,3.8,4.5,6L122.4,70.8L122.4,70.8
		z M127.9,53.5c1.4,1.2,2.7,2.3,3.8,3.4c-0.6,0.7-1,1.2-1.4,1.6c-1.2-1.3-2.4-2.5-3.6-3.6L127.9,53.5z M127.3,70.5
		c0.8-2.7,1.5-5.9,2.2-9.7c0.7,0.3,1.3,0.6,1.9,0.8c-0.7,3-1.4,6.2-2.1,9.5L127.3,70.5L127.3,70.5z M128.8,46.8
		c1.1,0.9,2.2,1.9,3.3,3c-0.5,0.5-0.9,1.1-1.3,1.5c-1-1.2-2.1-2.2-3.2-3.2L128.8,46.8z M132.6,53.7H150v1.7h-5.2c0,0.9,0,1.7,0,2.6
		h4.5v10.1c0,2-0.9,3-2.6,3c-0.8,0-1.6,0-2.5-0.1c-0.1-0.6-0.2-1.3-0.4-2c1,0.1,1.8,0.2,2.5,0.2c0.9,0,1.4-0.5,1.4-1.5V66
		c-0.3,0.3-0.7,0.7-1.2,1.2c-0.8-1.2-1.7-2.2-2.4-3.2c-0.6,1.9-1.6,3.5-2.9,4.8c-0.3-0.5-0.7-0.9-1.2-1.4c1.9-1.7,2.9-4.3,3.2-7.6
		h-3.8c0,0.7-0.1,1.3-0.2,1.9c0.9,0.9,1.7,1.8,2.6,2.7c-0.1,0.1-0.6,0.6-1.3,1.3c-0.6-0.7-1.2-1.5-1.8-2.1c-0.6,1.8-1.5,3.4-2.8,4.7
		c-0.3-0.3-0.6-0.7-0.9-1.1v4.1h-1.7V58h4.4c0-0.9,0-1.7,0-2.6h-5.1V53.7z M132.6,49.2h4.5v-2.8h1.8v2.8h5v-2.8h1.8v2.8h4.5v1.7
		h-4.5v2.2h-1.8v-2.2h-5v2.2H137v-2.2h-4.5V49.2z M134.9,66.6c1.6-1.6,2.5-3.9,2.7-6.8h-2.7V66.6z M139.3,55.4c0,0.7,0,1.6,0,2.6
		h3.9c0-0.8,0-1.7,0-2.6H139.3L139.3,55.4z M147.6,59.7h-2.8c0,0.8-0.1,1.6-0.3,2.3c1.3,1.4,2.3,2.6,3.1,3.6V59.7z M169.2,47.4
		l-4.8,10.8h3.8v2.4h-4.4v3.3h4.4v2.4h-4.4V71h-2.3v-4.8h-4.6v-2.4h4.6v-3.3h-4.6v-2.4h3.9l-4.8-10.8h2.6c2.2,5.3,3.6,8.7,4.1,10.2
		h0c0.2-0.6,0.6-1.8,1.3-3.6l2.7-6.6H169.2z"/>
	<path class="st2" d="M187.1,72.7c-5.7,0-9-3.6-9-9.7v-5h5.6v4.8c0,3.2,1.3,4.6,3.4,4.6c2.1,0,3.6-1.4,3.6-4.6V51.2
		c0-2.7-1.1-4.1-3.2-4.1c-1.9,0-3.4,1.5-3.4,4.1v0.3h-5.7l1-24.3h16.1v5.4h-10.8l-0.7,11.9c1.2-1.5,3.1-2.5,5.1-2.5
		c5.3,0,7.1,4.2,7.1,9.1V63C196.4,69.1,192.8,72.7,187.1,72.7z M210.5,72.7c-5.7,0-9.2-3.6-9.2-9.7V36.3c0-6.1,3.6-9.7,9.2-9.7
		c5.7,0,9.2,3.6,9.2,9.7V63C219.8,69.1,216.2,72.7,210.5,72.7z M214.1,36.6c0-3.2-1.5-4.6-3.6-4.6c-2.1,0-3.6,1.4-3.6,4.6v26.1
		c0,3.2,1.5,4.6,3.6,4.6c2.1,0,3.6-1.4,3.6-4.6V36.6z M225.4,80.3v-3.1c2.1-0.3,3.1-1.8,3.1-4.1v-0.9H225V65h6.6v8
		C231.5,77.7,228.4,80,225.4,80.3z M245.6,72.7c-5.7,0-9.2-3.6-9.2-9.7V36.3c0-6.1,3.6-9.7,9.2-9.7c5.7,0,9.2,3.6,9.2,9.7V63
		C254.9,69.1,251.3,72.7,245.6,72.7z M249.2,36.6c0-3.2-1.5-4.6-3.6-4.6c-2.1,0-3.6,1.4-3.6,4.6v26.1c0,3.2,1.5,4.6,3.6,4.6
		c2.1,0,3.6-1.4,3.6-4.6V36.6z M269.3,72.7c-5.7,0-9.2-3.6-9.2-9.7V36.3c0-6.1,3.6-9.7,9.2-9.7c5.7,0,9.2,3.6,9.2,9.7V63
		C278.6,69.1,275,72.7,269.3,72.7z M272.9,36.6c0-3.2-1.5-4.6-3.6-4.6c-2.1,0-3.6,1.4-3.6,4.6v26.1c0,3.2,1.5,4.6,3.6,4.6
		c2.1,0,3.6-1.4,3.6-4.6V36.6z M293,72.7c-5.7,0-9.2-3.6-9.2-9.7V36.3c0-6.1,3.6-9.7,9.2-9.7c5.7,0,9.2,3.6,9.2,9.7V63
		C302.3,69.1,298.7,72.7,293,72.7z M296.6,36.6c0-3.2-1.5-4.6-3.6-4.6c-2.1,0-3.6,1.4-3.6,4.6v26.1c0,3.2,1.4,4.6,3.6,4.6
		c2.1,0,3.6-1.4,3.6-4.6V36.6z"/>
	<path class="st3" d="M74.3,111.4c-0.2-0.7-0.5-1.3-0.8-2c2-2,3.8-4.8,5.7-8.3l1.6,0.9c-0.7,1.3-1.4,2.5-2.1,3.6v13.8H77v-11.2
		C76.1,109.3,75.2,110.4,74.3,111.4L74.3,111.4z M74.6,103.3c-0.3-0.6-0.6-1.2-1-1.8c2.2-1.9,4-4.3,5.6-7.1l1.7,1
		C78.9,98.5,76.8,101.1,74.6,103.3L74.6,103.3z M73.6,151.6c3-0.4,6.9-1.1,11.6-2c0,0.7,0,1.4,0.1,1.9c-3.5,0.6-7.2,1.3-11.2,2.1
		L73.6,151.6z M84.6,155.5c-0.4-0.4-0.8-0.9-1.4-1.5c1.9-1.4,3.7-3.1,5.1-5c-1-3-1.6-7.1-1.8-12.2H74v-1.9h12.5
		c-0.1-1.4-0.1-2.9-0.2-4.4h1.9c0,1.5,0,3,0.1,4.4h8.3v1.9h-8.2c0.1,4.2,0.5,7.7,1.3,10.3c1.5-2.3,2.7-4.9,3.6-7.7l1.8,0.8
		c-1.3,3.4-2.8,6.5-4.6,9.1c0.7,1.6,1.5,2.8,2.5,3.5c0.9,0.7,1.5,0.4,1.7-0.8c0.2-1.3,0.4-2.6,0.5-3.9c0.6,0.3,1.2,0.5,1.8,0.7
		c-0.3,1.9-0.6,3.4-0.8,4.4c-0.3,1.3-1,2-2.1,2c-0.9,0-1.8-0.4-2.6-1.1c-0.9-0.8-1.6-1.8-2.3-3.1C87.8,152.7,86.2,154.2,84.6,155.5
		L84.6,155.5z M75.6,139.3H84v8.9h-1.7V147h-5v1.8h-1.7V139.3z M82.4,141h-5v4.2h5V141z M80.4,110.6h11.2v-2.1H81.4v-1.7h14.9v1.7
		h-2.8v2.1h3.4v1.7h-3.4v3.7c0,2-0.9,3-2.8,3c-0.8,0-2,0-3.5,0c-0.1-0.6-0.2-1.2-0.3-2.1c1,0.1,2.2,0.2,3.4,0.2c1,0,1.4-0.5,1.4-1.6
		v-3.2H80.4V110.6z M85.1,116.6c-0.7-1-1.6-2.1-2.4-3.2l1.3-1.1c0.9,1,1.8,2.1,2.5,3.1L85.1,116.6L85.1,116.6z M82.7,95.5h11.9v10.1
		h-1.7v-0.9h-8.6v0.9h-1.7V95.5z M92.9,97.1h-8.6v2.2h8.6V97.1z M84.4,103.2h8.6v-2.3h-8.6V103.2z M93.7,134.6
		c-1.2-1-2.4-1.9-3.7-2.9l1-1.3c1.3,0.8,2.5,1.7,3.8,2.7L93.7,134.6L93.7,134.6z M113.7,153h-2.6l-1.8-5.4h-7.5L100,153h-2.6
		l6.9-19.7h2.5L113.7,153z M111.9,115.2c-1.3,0.8-3,1.1-5,1.1c-2.6,0-4.7-0.9-6.2-2.7c-1.5-1.8-2.3-4.2-2.3-7.1
		c0-3.2,0.9-5.7,2.6-7.6c1.7-1.9,4-2.9,6.6-2.9c1.7,0,3.2,0.3,4.3,0.8v2.7c-1.3-0.8-2.7-1.2-4.3-1.2c-2,0-3.7,0.7-4.9,2.2
		c-1.3,1.5-1.9,3.4-1.9,5.9c0,2.4,0.6,4.2,1.8,5.6c1.2,1.4,2.7,2.1,4.6,2.1c1.8,0,3.3-0.4,4.7-1.3V115.2z M108.5,145.4l-2.7-8.2
		c-0.1-0.3-0.2-0.7-0.3-1.4h-0.1c-0.1,0.6-0.2,1-0.3,1.4l-2.7,8.2H108.5z M122.1,104.4c-0.4-0.3-0.9-0.4-1.6-0.4
		c-0.9,0-1.6,0.5-2.2,1.4c-0.6,0.9-0.9,2.1-0.9,3.6v7.1h-2.3v-14h2.3v2.9h0c0.7-2.1,1.8-3.1,3.4-3.1c0.5,0,0.9,0.1,1.2,0.2V104.4z
		 M124.6,102.9c1.3-0.9,2.8-1.3,4.5-1.3c3.1,0,4.7,1.8,4.7,5.3v9h-2.3v-2.2h-0.1c-0.9,1.7-2.2,2.5-4,2.5c-1.3,0-2.2-0.4-3-1.1
		c-0.7-0.7-1.1-1.7-1.1-3c0-2.6,1.4-4.2,4.3-4.6l3.8-0.6c0-2.3-0.9-3.4-2.6-3.4c-1.5,0-3,0.6-4.2,1.7V102.9z M123.4,153v-19.7h5.3
		c1.6,0,2.9,0.4,3.8,1.2c0.9,0.8,1.4,1.9,1.4,3.3c0,1.1-0.3,2-0.8,2.9c-0.6,0.8-1.3,1.4-2.3,1.8v0.1c1.2,0.2,2.2,0.7,2.9,1.5
		c0.7,0.9,1.1,1.9,1.1,3.3c0,1.7-0.6,3.1-1.7,4.1c-1.1,1-2.5,1.6-4.3,1.6H123.4z M128.4,109.4c-1.1,0.2-1.8,0.4-2.2,0.9
		c-0.4,0.4-0.6,1-0.6,1.8c0,0.7,0.2,1.2,0.7,1.6c0.4,0.4,1,0.6,1.7,0.6c1,0,1.8-0.4,2.5-1.1c0.6-0.8,1-1.7,1-2.9v-1.3L128.4,109.4z
		 M125.7,135.6v6.2h2.1c1.1,0,2-0.3,2.7-0.9c0.6-0.6,1-1.4,1-2.5c0-1.9-1.1-2.8-3.4-2.8H125.7z M125.7,143.9v6.9h2.8
		c1.2,0,2.2-0.3,2.8-0.9c0.7-0.6,1-1.5,1-2.6c0-2.3-1.4-3.4-4.2-3.4H125.7z M152.6,153H150l-1.8-5.4h-7.5l-1.7,5.4h-2.6l6.9-19.7
		h2.5L152.6,153z M136.8,113c1.2,0.9,2.4,1.4,3.7,1.4c1.8,0,2.7-0.6,2.7-1.9c0-0.5-0.2-1-0.6-1.3c-0.4-0.4-1.2-0.8-2.4-1.2
		c-1.4-0.6-2.4-1.2-2.8-1.9c-0.4-0.6-0.6-1.4-0.6-2.2c0-1.2,0.5-2.2,1.5-3c1-0.7,2.2-1.1,3.6-1.1c1.1,0,2.1,0.2,3.1,0.6v2.4
		c-1-0.7-2.1-1-3.3-1c-0.7,0-1.3,0.2-1.8,0.5c-0.5,0.3-0.7,0.8-0.7,1.4c0,0.6,0.2,1,0.5,1.3c0.3,0.3,1.1,0.7,2.2,1.2
		c1.4,0.6,2.4,1.2,2.9,1.8c0.5,0.6,0.8,1.4,0.8,2.3c0,1.3-0.5,2.3-1.5,3c-1,0.7-2.2,1.1-3.8,1.1c-1.3,0-2.5-0.3-3.5-0.8V113z
		 M147.5,145.4l-2.7-8.2c-0.1-0.3-0.2-0.7-0.3-1.4h-0.1c-0.1,0.6-0.2,1-0.3,1.4l-2.7,8.2H147.5z M159.5,116h-2.3v-8.1
		c0-2.8-1-4.2-2.9-4.2c-1,0-1.8,0.4-2.5,1.2s-1,1.9-1,3.1v8h-2.3V95.2h2.3v9.1h0c1-1.8,2.4-2.6,4.2-2.6c2.9,0,4.4,1.9,4.4,5.7V116z
		 M166.2,135.6h-5.2V153h-2.3v-17.4h-5.2v-2.3h12.8V135.6z M182.8,153h-2.3v-8.9h-9.2v8.9h-2.3v-19.7h2.3v8.5h9.2v-8.5h2.3V153z
		 M170.7,116V96.3h5.3c1.6,0,2.9,0.4,3.8,1.2c0.9,0.8,1.4,1.9,1.4,3.3c0,1.1-0.3,2-0.8,2.9c-0.6,0.8-1.3,1.4-2.3,1.8v0.1
		c1.2,0.2,2.2,0.7,2.9,1.5c0.7,0.9,1.1,1.9,1.1,3.3c0,1.7-0.6,3.1-1.7,4.1c-1.1,1-2.5,1.6-4.3,1.6H170.7z M173,98.5v6.2h2.1
		c1.1,0,2-0.3,2.7-0.9c0.6-0.6,1-1.4,1-2.5c0-1.9-1.1-2.8-3.4-2.8H173z M173,106.9v6.9h2.8c1.2,0,2.2-0.3,2.8-0.9
		c0.7-0.6,1-1.5,1-2.6c0-2.3-1.4-3.4-4.2-3.4H173z M185.7,102.9c1.3-0.9,2.8-1.3,4.5-1.3c3.1,0,4.7,1.8,4.7,5.3v9h-2.3v-2.2h-0.1
		c-0.9,1.7-2.2,2.5-4,2.5c-1.3,0-2.2-0.4-3-1.1c-0.7-0.7-1.1-1.7-1.1-3c0-2.6,1.4-4.2,4.3-4.6l3.8-0.6c0-2.3-0.9-3.4-2.6-3.4
		c-1.5,0-3,0.6-4.2,1.7V102.9z M191.5,135.5h-1.7v15.4h1.7v2.1h-5.8v-2.1h1.7v-15.4h-1.7v-2.1h5.8V135.5z M189.6,109.4
		c-1.1,0.2-1.8,0.4-2.2,0.9c-0.4,0.4-0.6,1-0.6,1.8c0,0.7,0.2,1.2,0.7,1.6c0.4,0.4,1,0.6,1.7,0.6c1,0,1.8-0.4,2.5-1.1
		c0.6-0.8,1-1.7,1-2.9v-1.3L189.6,109.4z M209.2,153h-2.8l-9.1-15.3c-0.3-0.4-0.5-0.9-0.6-1.3h-0.1c0.1,0.4,0.1,1.4,0.1,2.8V153
		h-2.3v-19.7h2.9l8.9,15c0.4,0.7,0.7,1.2,0.7,1.4h0c-0.1-0.6-0.1-1.5-0.1-2.9v-13.5h2.3V153z M209.8,114.8c0,5.2-2.3,7.8-7,7.8
		c-1.6,0-3-0.3-4.2-1v-2.4c1.4,0.9,2.8,1.3,4.1,1.3c3.1,0,4.7-1.8,4.7-5.4v-1.5h0c-1,1.8-2.4,2.7-4.4,2.7c-1.6,0-2.9-0.6-3.9-1.9
		c-1-1.3-1.5-2.9-1.5-5c0-2.4,0.5-4.3,1.6-5.7c1.1-1.4,2.5-2.1,4.3-2.1c1.7,0,3,0.7,3.8,2.2h0V102h2.3V114.8z M207.6,107.6
		c0-1.1-0.3-2-1-2.8c-0.7-0.8-1.5-1.2-2.5-1.2c-1.2,0-2.2,0.5-2.9,1.5c-0.7,1-1,2.4-1,4.1c0,1.5,0.3,2.7,1,3.6
		c0.7,0.9,1.6,1.4,2.7,1.4c1.1,0,2-0.4,2.7-1.3c0.7-0.9,1.1-2,1.1-3.4V107.6z M227.6,151.6c-1.8,1.1-3.8,1.7-6.1,1.7
		c-2.6,0-4.7-0.9-6.3-2.7c-1.6-1.8-2.4-4.2-2.4-7.2c0-3,0.9-5.5,2.7-7.5c1.8-2,4-2.9,6.8-2.9c2,0,3.6,0.3,5,1v2.7
		c-1.4-1-3.2-1.5-5.2-1.5c-2,0-3.6,0.7-4.9,2.2c-1.3,1.5-1.9,3.4-1.9,5.8c0,2.5,0.6,4.4,1.8,5.8c1.2,1.4,2.8,2.1,4.8,2.1
		c1.4,0,2.5-0.3,3.5-0.9v-5.3h-3.9v-2.2h6.3V151.6z M225.2,114.8c0,5.2-2.3,7.8-7,7.8c-1.6,0-3-0.3-4.2-1v-2.4
		c1.4,0.9,2.8,1.3,4.1,1.3c3.1,0,4.7-1.8,4.7-5.4v-1.5h0c-1,1.8-2.4,2.7-4.4,2.7c-1.6,0-2.9-0.6-3.9-1.9c-1-1.3-1.5-2.9-1.5-5
		c0-2.4,0.5-4.3,1.6-5.7c1.1-1.4,2.5-2.1,4.3-2.1c1.7,0,3,0.7,3.8,2.2h0V102h2.3V114.8z M222.9,107.6c0-1.1-0.3-2-1-2.8
		c-0.7-0.8-1.5-1.2-2.5-1.2c-1.2,0-2.2,0.5-2.9,1.5c-0.7,1-1,2.4-1,4.1c0,1.5,0.3,2.7,1,3.6c0.7,0.9,1.6,1.4,2.7,1.4
		c1.1,0,2-0.4,2.7-1.3c0.7-0.9,1.1-2,1.1-3.4V107.6z M229.5,102.9c1.3-0.9,2.8-1.3,4.4-1.3c3.1,0,4.7,1.8,4.7,5.3v9h-2.3v-2.2h-0.1
		c-0.9,1.7-2.2,2.5-4,2.5c-1.3,0-2.3-0.4-3-1.1c-0.7-0.7-1.1-1.7-1.1-3c0-2.6,1.4-4.2,4.3-4.6l3.8-0.6c0-2.3-0.9-3.4-2.6-3.4
		c-1.5,0-3,0.6-4.2,1.7V102.9z M233.4,109.4c-1.1,0.2-1.8,0.4-2.2,0.9c-0.4,0.4-0.6,1-0.6,1.8c0,0.7,0.2,1.2,0.7,1.6
		c0.4,0.4,1,0.6,1.7,0.6c1,0,1.8-0.4,2.5-1.1c0.6-0.8,1-1.7,1-2.9v-1.3L233.4,109.4z M253,153h-2.6l-1.8-5.4H241l-1.7,5.4h-2.6
		l6.9-19.7h2.5L253,153z M253.7,114.8c0,5.2-2.3,7.8-7,7.8c-1.6,0-3-0.3-4.2-1v-2.4c1.4,0.9,2.8,1.3,4.1,1.3c3.1,0,4.7-1.8,4.7-5.4
		v-1.5h0c-1,1.8-2.4,2.7-4.4,2.7c-1.6,0-2.9-0.6-3.9-1.9c-1-1.3-1.5-2.9-1.5-5c0-2.4,0.5-4.3,1.6-5.7c1.1-1.4,2.5-2.1,4.3-2.1
		c1.7,0,3,0.7,3.8,2.2h0V102h2.3V114.8z M247.8,145.4l-2.7-8.2c-0.1-0.3-0.2-0.7-0.3-1.4h-0.1c-0.1,0.6-0.2,1-0.3,1.4l-2.7,8.2
		H247.8z M251.4,107.6c0-1.1-0.3-2-1-2.8c-0.7-0.8-1.5-1.2-2.5-1.2c-1.2,0-2.2,0.5-2.9,1.5c-0.7,1-1,2.4-1,4.1c0,1.5,0.3,2.7,1,3.6
		c0.7,0.9,1.6,1.4,2.7,1.4c1.1,0,2-0.4,2.7-1.3c0.7-0.9,1.1-2,1.1-3.4V107.6z M257.9,145.6v7.4h-2.3v-19.7h5.1c2,0,3.5,0.5,4.5,1.5
		c1.1,1,1.6,2.5,1.6,4.4c0,1.9-0.6,3.5-1.9,4.7c-1.3,1.2-2.8,1.8-4.7,1.7H257.9z M268.3,109.6h-9c0,1.5,0.4,2.7,1.1,3.5
		c0.7,0.8,1.7,1.2,3,1.2c1.4,0,2.8-0.5,4-1.5v2.2c-1.1,0.9-2.6,1.3-4.5,1.3c-1.9,0-3.3-0.6-4.4-1.9c-1-1.3-1.6-3.1-1.6-5.4
		c0-2.1,0.6-3.9,1.7-5.3s2.6-2.1,4.3-2.1c1.7,0,3,0.6,4,1.8c0.9,1.2,1.4,2.8,1.4,5V109.6z M257.9,135.6v7.8h2.2c1.4,0,2.5-0.3,3.2-1
		c0.7-0.7,1.1-1.7,1.1-3c0-2.5-1.4-3.8-4.1-3.8H257.9z M266,107.6c0-1.3-0.3-2.3-0.8-2.9c-0.5-0.7-1.3-1-2.3-1
		c-0.9,0-1.7,0.4-2.4,1.1c-0.7,0.7-1.1,1.7-1.3,2.9H266z M270,98.3h4.5c-0.5-1-1-2.1-1.6-3.2l1.4-0.9c0.8,1.3,1.4,2.3,1.8,3.2
		l-1.5,0.9h4.8v1.8H274c0,1.3,0,2.5-0.1,3.7h4.5c-0.1,4.5-0.3,8.3-0.4,11.4c-0.1,2.3-1.1,3.5-3,3.5c-0.4,0-1.1,0-2.1-0.1
		c-0.1-0.7-0.2-1.4-0.4-2c0.9,0.1,1.6,0.2,2.3,0.2c0.9,0,1.4-0.6,1.5-1.9c0.1-2.2,0.3-5.3,0.3-9.2h-2.8c-0.1,6.4-1.1,11-3.2,13.8
		c-0.3-0.6-0.7-1.1-1.1-1.7c1.2-2.1,1.9-4.1,2.1-6.2c0.3-2,0.5-5.7,0.5-11.3H270V98.3z M280,153h-9.7v-19.7h9.3v2.3h-7v6.3h6.5v2.2
		h-6.5v6.6h7.4V153z M279.8,103.6c-0.4-0.4-0.9-0.7-1.5-1.1c1.7-2.4,3-5.2,4.1-8.2l1.8,0.7c-0.3,0.8-0.6,1.5-0.9,2.3h9.1v1.8h-9.9
		C281.6,100.6,280.7,102.1,279.8,103.6L279.8,103.6z M287.4,108.9c1.5-0.9,2.8-1.8,4.1-2.8l1.1,1.6c-1.3,0.8-2.8,1.7-4.5,2.7
		c1.2,2.7,2.9,4.7,5.1,6c-0.5,0.6-0.9,1.3-1.3,1.9c-4-2.8-6.3-7.5-7-14.2c-0.8,0.1-1.5,0.2-2.3,0.3V116c1.1-0.4,2.5-1.1,4.2-1.9
		c0,0.7,0,1.4,0.1,1.9c-1.6,0.7-3.1,1.4-4.4,2c-0.5,0.3-0.9,0.6-1.2,0.9l-1.1-1.6c0.5-0.4,0.8-1.2,0.8-2.1v-12.4
		c2.9-0.2,6.3-0.8,10.2-1.8l0.9,1.9c-1.8,0.4-3.6,0.7-5.4,1C286.5,105.8,286.9,107.5,287.4,108.9L287.4,108.9z M282.8,155.3
		c-0.3-0.4-0.8-1.1-1.4-1.9c6.1-3.6,9.5-8.5,10.3-14.8h-9.8v-2h10c0.1-1.7,0.1-3.7,0.1-6.2h2c0,2.2,0,4.2-0.1,6.2h10.3v2h-10.2
		c1.6,6.9,5.2,11.6,10.7,14.1c-0.7,0.8-1.3,1.5-1.7,2c-5-3.1-8.3-7.6-9.9-13.5C291.7,147.1,288.3,151.8,282.8,155.3L282.8,155.3z
		 M293.4,154.2c-1-1.3-2-2.7-3.1-4.1l1.5-1.3c1.1,1.3,2.2,2.6,3.3,3.9L293.4,154.2L293.4,154.2z M294.4,111.6
		c-0.2-0.7-0.5-1.4-0.8-2.1c2.4-2.1,4.6-5.2,6.6-9.1l1.6,1.1c-0.8,1.5-1.7,2.9-2.5,4.2v13.4h-1.9v-10.8
		C296.4,109.6,295.4,110.7,294.4,111.6L294.4,111.6z M294.6,103.5c-0.3-0.6-0.6-1.3-0.9-2c2.5-2.1,4.5-4.5,6-7.3l1.7,1.1
		C299.6,98.4,297.3,101.1,294.6,103.5L294.6,103.5z M302,103.9h14.8v1.9h-4.5v9.9c0,2.1-1,3.1-2.9,3.1c-1.3,0-2.6,0-4,0
		c-0.1-0.7-0.2-1.4-0.4-2.3c1.2,0.1,2.4,0.2,3.7,0.2c1.1,0,1.6-0.6,1.6-1.7v-9.2H302V103.9z M303.4,96.2h12.1v1.9h-12.1V96.2z
		 M311.6,140.5c1.2,1.8,2,3.5,2.1,5c0.4,3.2-0.3,5-2.2,5.5c-0.8,0.1-1.6,0.1-2.5,0c-0.1-0.7-0.3-1.4-0.5-2.1
		c0.9,0.2,1.6,0.3,2.3,0.2c1.1-0.2,1.4-1.4,1.1-3.6c-0.2-1.4-0.9-2.9-2.1-4.6c0.7-2.3,1.4-4.7,2.1-7.4h-3.6v22h-1.8v-23.8h7.2v1.8
		C313.1,135.5,312.4,137.8,311.6,140.5L311.6,140.5z M315.2,155.3v-23.4h12.1v23.3h-1.8v-1.7h-8.4v1.7H315.2z M325.5,133.8h-8.4v7.9
		h8.4V133.8z M317.1,151.7h8.4v-8.2h-8.4V151.7z M325.1,101.9c-0.7-0.9-1.3-1.8-2-2.6l1-0.8h-2.4c-0.9,1.4-2,2.6-3.2,3.7
		c-0.3-0.4-0.7-0.9-1.2-1.4c1.9-1.7,3.5-3.9,4.6-6.4h2c-0.4,0.9-0.8,1.7-1.3,2.5h6.8v1.6h-5.1c0.5,0.6,1.2,1.4,2,2.3L325.1,101.9z
		 M318.2,116.1c-0.2-0.6-0.5-1.3-0.8-2.1c1.9-2.6,3.2-5.1,3.9-7.6H318v-1.7h3.6v-3.5h1.6v3.5h3.1v1.7h-3.1v2.9l0.8-0.9
		c1.1,1,2.1,2,2.9,2.9l-1.2,1.3c-0.8-0.9-1.6-1.9-2.5-2.8v9.5h-1.6v-9.9C320.8,112,319.6,114.1,318.2,116.1L318.2,116.1z
		 M327.7,102.5h11.4v16.8h-1.7v-1.5h-8v1.5h-1.7V102.5z M335.5,102.2c-0.7-0.9-1.4-1.8-2.1-2.7l1.1-1h-2.3c-0.7,1.3-1.4,2.4-2.1,3.3
		c-0.4-0.4-0.9-0.8-1.4-1.2c1.3-1.5,2.5-3.6,3.5-6.2h2c-0.4,0.9-0.7,1.8-1.1,2.5h7.4v1.6h-5.7c0.8,0.9,1.5,1.7,2.1,2.5L335.5,102.2z
		 M329.4,144h2.9v-3.5h-1.4V139c-0.2,0.3-0.4,0.7-0.5,1c-0.4-0.6-0.8-1.2-1.2-1.7c1.3-2.3,2.3-4.9,2.9-7.8l1.7,0.4
		c-0.3,1.1-0.6,2.2-0.9,3.2h4v1.7h-4.6c-0.4,1-0.8,2-1.3,3h5.2v1.7H334v3.5h2.9v1.7H334v5.8c1-0.7,1.9-1.5,2.8-2.2
		c0.1,0.6,0.2,1.2,0.4,2c-1.1,0.8-2.2,1.6-3.1,2.4c-0.3,0.2-0.7,0.6-1.2,1.1l-1.2-1.6c0.5-0.5,0.8-1.1,0.8-1.9v-5.6h-2.9V144z
		 M337.4,104.2h-8v2.9h8V104.2z M329.4,111.6h8v-2.9h-8V111.6z M329.4,116.2h8v-3h-8V116.2z M337.9,140.8h12.4v8.5h-1.6v-0.5h-2v3.3
		c0,0.8,0.3,1.1,1,1.1h1.8c0.6,0,0.9-0.3,1-0.9c0.1-0.6,0.2-1.5,0.3-2.9c0.5,0.2,1,0.5,1.6,0.7c-0.1,1.3-0.3,2.3-0.4,2.9
		c-0.2,1.3-0.9,1.9-2.2,1.9H347c-1.3,0-2-0.9-2-2.6v-3.5h-2.1c-0.2,3.4-2.2,5.7-6.1,6.7c-0.4-0.8-0.7-1.4-0.9-1.7
		c3.3-0.7,5-2.3,5.3-4.9h-1.7v0.6h-1.6V140.8z M336.7,137.6h4.1c-0.3-0.6-0.7-1.3-1.2-2.1l1.4-0.9c0.4,0.6,0.9,1.4,1.6,2.4l-0.9,0.6
		h4c0.5-0.9,1-1.9,1.4-2.9l1.6,0.9c-0.4,0.7-0.8,1.4-1.2,2.1h4.4v1.5h-15.2V137.6z M337.6,133h6.2c-0.3-0.6-0.7-1.2-1.2-1.9l1.4-0.9
		c0.6,0.9,1.2,1.7,1.6,2.4l-0.8,0.5h6.1v1.5h-13.3V133z M348.7,142.3h-9.1v1.8h9.1V142.3z M339.5,147.4h9.1v-1.8h-9.1V147.4z"/>
</g>
<g>
</g>
<g>
</g>
<g>
</g>
<g>
</g>
<g>
</g>
<g>
</g>
<g>
</g>
<g>
</g>
<g>
</g>
<g>
</g>
<g>
</g>
<g>
</g>
<g>
</g>
<g>
</g>
<g>
</g>
</svg>
