<?xml version="1.0" encoding="utf-8"?>
<!-- Generator: Adobe Illustrator 17.0.0, SVG Export Plug-In . SVG Version: 6.00 Build 0)  -->
<!DOCTYPE svg PUBLIC "-//W3C//DTD SVG 1.1//EN" "http://www.w3.org/Graphics/SVG/1.1/DTD/svg11.dtd">
<svg version="1.1" id="Layer_1" xmlns="http://www.w3.org/2000/svg" xmlns:xlink="http://www.w3.org/1999/xlink" x="0px" y="0px"
	 width="581px" height="964px" viewBox="0 0 581 964" style="enable-background:new 0 0 581 964;" xml:space="preserve">
<style type="text/css">
	.st0{fill:#343434;}
	.st1{fill:#DB8937;}
	.st2{fill:#E0DAD8;}
	.st3{fill-rule:evenodd;clip-rule:evenodd;fill:#DF9431;}
	.st4{fill:#FFFFFF;}
	.st5{fill:none;}
	.st6{fill:#999999;}
</style>
<g id="_x32_-2-detail.svg">
	<path class="st0" d="M193.1,417.8v-2.5h3v-5.2h2.3v5.2h2.8v2.5h-2.8v5.9l3-0.8c0,1,0,1.9,0,2.7l-3,0.8v8.1c0.1,2.2-0.8,3.3-2.7,3.3
		c-0.6,0.1-1.3,0.1-2.2,0.1c-0.1-0.9-0.2-1.8-0.4-2.7c0.1,0,0.3,0,0.5,0c0.4,0.1,0.8,0.1,1.2,0c1,0.1,1.4-0.4,1.4-1.3V427
		c-0.4,0.2-0.9,0.3-1.7,0.5c-0.6,0.2-1.1,0.4-1.5,0.5l-0.2-2.9c0.1,0,0.3,0,0.5-0.1c0.7-0.2,1.7-0.4,2.8-0.7v-6.4H193.1z M206,421.2
		c-2.4,0.1-3.6-1.1-3.5-3.6V410h2.3v4.1c4.3-0.7,8.2-1.6,11.8-2.8l0.8,2.3c-3.3,0.9-7.5,1.8-12.7,2.7v0.4c-0.1,1.6,0.6,2.4,2.2,2.2
		h6c1.4,0.1,2.2-0.5,2.4-1.8c0.1-0.4,0.3-1.1,0.4-2.1c0-0.1,0-0.2,0-0.2c0.3,0.1,0.8,0.2,1.5,0.5c0.4,0.1,0.6,0.2,0.7,0.2
		c-0.1,0.3-0.1,0.7-0.2,1.2c-0.1,0.9-0.2,1.5-0.3,2c-0.4,1.7-1.7,2.5-3.8,2.5H206z M202.8,438v-14.4h13.8V438h-2.3v-1.6h-9.2v1.6
		H202.8z M205.1,425.8v3.2h9.2v-3.2H205.1z M205.1,431.1v3.2h9.2v-3.2H205.1z M220.6,422.4V420h23.7v2.5h-10.1v4.5h8.9v2.5h-8.9v5.3
		c1.3,0,3.7,0,7.1,0c1.8,0,3.1,0,3.9,0c-0.1,0.5-0.4,1.4-0.7,2.6c-5.7,0-9.5,0-11.4-0.1c-3.6-0.2-6.3-1.7-8-4.7
		c-0.8,2-2.1,3.9-3.7,5.6c-0.5-0.7-1.1-1.4-1.7-2.1c2.7-2.6,4.3-6.4,4.7-11.4l2.4,0.4c-0.2,1.6-0.5,3.1-0.8,4.5
		c1.5,3.1,3.5,4.9,5.8,5.3v-12.2H220.6z M241.7,418.6v-2.9h-18.4v2.8h-2.4v-5.3h10.5c-0.1-0.3-0.2-0.8-0.3-1.5
		c-0.2-0.7-0.4-1.2-0.4-1.5l2.8-0.4c0.3,1.1,0.5,2.2,0.7,3.4h9.8v5.4H241.7z M272.3,418.5c-0.3,0.7-0.6,1.4-0.9,2.2
		c-4.6-1.3-7.9-3.3-9.9-5.9h-4.1c-1.3,1.3-3,2.6-4.9,3.8h5v-2.1h2.3v2.1h4.5v1.9h-4.5v2.3h2.2c1.7-1.1,3.4-2.3,5.1-3.5l1.5,1.6
		c-0.4,0.3-1.1,0.8-1.9,1.4c-0.4,0.2-0.6,0.4-0.7,0.5h5.6v2.1h-8.8c-0.4,0.2-1.1,0.6-2,1.1c-0.8,0.5-1.5,0.8-2,1.1h9.8v11H266v-1.3
		h-12.2v1.3h-2.3v-8c-0.4,0.2-0.9,0.4-1.6,0.6c-1.1,0.5-1.9,0.8-2.4,0.9c-0.1-0.3-0.2-0.8-0.5-1.5c-0.1-0.4-0.2-0.7-0.3-0.9
		c4.7-1.2,8.6-2.7,11.7-4.2h-10.8v-2.1h9.8v-2.3h-5.3v-1.6c-0.2,0.2-0.6,0.4-1.1,0.6c-0.6,0.3-1.8,0.9-3.4,1.6
		c-0.1-0.2-0.2-0.6-0.5-1.1c-0.2-0.5-0.4-0.8-0.5-1.1c3.3-1.2,5.8-2.6,7.6-4.1h-6.8v-2.2h8.8c0.7-0.9,1.3-1.8,1.8-2.7l2.4,0.4
		c-0.4,0.9-0.9,1.6-1.4,2.3h12.3v2.2h-7.3C266.1,416.5,268.8,417.8,272.3,418.5L272.3,418.5z M254.4,428.9c-0.2,0.2-0.4,0.2-0.6,0.2
		v2H266v-2.2H254.4z M253.8,432.9v2H266v-2H253.8z M277,438v-15.8c-0.8,1.4-1.7,2.9-2.6,4.3c-0.1-0.5-0.2-1.1-0.4-1.9
		c-0.1-0.6-0.2-1.1-0.3-1.5c2.3-3.4,4.2-7.7,5.7-13l2.5,0.6c-0.1,0.2-0.1,0.4-0.2,0.7c-0.9,2.7-1.7,4.8-2.3,6.1V438H277z
		 M284.8,430.5c-0.4,0.3-1.3,0.9-2.6,1.8c-0.1-0.3-0.4-0.8-0.8-1.4c-0.2-0.3-0.4-0.5-0.4-0.7c3.6-2,6.5-4.6,8.8-7.7l2.5,0.5
		c-0.2,0.3-0.5,0.7-0.8,1.2c-0.2,0.2-0.4,0.4-0.4,0.6h7.6v2.3c-3.2,5.7-8.9,9.5-17.2,11.2c-0.5-1.1-0.9-1.9-1.2-2.3
		c4.4-0.9,7.4-1.9,9.1-2.9c-1.1-1.2-2.3-2.3-3.4-3.3C285.7,429.9,285.3,430.1,284.8,430.5L284.8,430.5z M284.5,417.6
		c-0.8,0.7-1.5,1.2-2,1.5c-0.5-0.5-1-1.1-1.6-1.8c3.2-2.1,5.6-4.6,7.4-7.4l2.5,0.6c-0.1,0.2-0.4,0.5-0.7,0.9
		c-0.3,0.5-0.5,0.8-0.7,1.1h8.6v2.3c-3.1,4.8-8.3,8.2-15.7,10.3c-0.1-0.1-0.1-0.2-0.2-0.4c-0.4-0.9-0.7-1.5-0.9-1.9
		c3.4-0.9,5.9-1.9,7.5-2.8c-1.1-1.1-2.3-2.1-3.5-3.2C285,417.2,284.8,417.4,284.5,417.6L284.5,417.6z M290.6,419
		c1.8-1.2,3.3-2.6,4.6-4.2h-7.8c-0.1,0.1-0.2,0.2-0.5,0.5c-0.3,0.3-0.5,0.5-0.6,0.7l0.4-0.4C287.8,416.5,289.1,417.6,290.6,419
		L290.6,419z M290.2,432.4c2.2-1.3,4.1-3.2,5.7-5.6H289c-0.5,0.5-1,1.1-1.6,1.5c1.3,1.2,2.6,2.3,3.7,3.3L290.2,432.4L290.2,432.4z
		 M301.9,437.9v-13h10v13h-2.3v-1.8h-5.4v1.8H301.9z M304.2,427.3v6.8h5.4v-6.8H304.2z M304.4,421.7v-10.4h18.1v10.4H304.4z
		 M307,413.8v5.5H320v-5.5H307z M315,437.9v-13h10v13h-2.2v-1.8h-5.5v1.8H315z M317.3,427.3v6.8h5.5v-6.8H317.3z M331.2,427.4
		c-0.1,4.1-0.6,7.7-1.7,10.5l-2-1.4c0.6-1.6,1-3.2,1.2-4.8c0.2-1.5,0.3-3.8,0.3-7v-13.5h2.2v8.3h2.6v-9h2v9h1.5v2.2h-6.1v3.3v0.1
		h4.9v12.5h-2v-10.3H331.2L331.2,427.4z M338.4,426.3v-13.6h4.4c0.2-0.9,0.4-1.9,0.5-2.8l2.4,0.2c-0.2,0.8-0.4,1.6-0.6,2.6h6.9v13.6
		h-7.3c-0.8,1.5-2.2,2.9-4.1,4.2h4.9v-3h2.3v3h5.5v2.3h-5.5v5h-2.3v-5h-8.3v-2.3h2.6c-0.4-0.5-0.7-0.9-1.2-1.3
		c1.7-0.9,2.9-1.9,3.7-2.9H338.4z M340.5,414.8v3.6h3.7v-3.6H340.5z M340.5,424.1h3.1c0.4-1,0.6-2.2,0.6-3.6h-3.7V424.1z
		 M346.2,420.5c0,1.4-0.2,2.6-0.5,3.6h4.2v-3.6H346.2L346.2,420.5z M349.9,414.8h-3.7v3.6h3.7V414.8z M366.4,414.4
		c-3.4,0.1-6.6,0.2-9.7,0.4c-0.1-1-0.2-1.9-0.4-2.7c7.6-0.1,14.7-0.4,21.3-0.8l0.4,2.6c-0.8,0-2.2,0.1-4,0.2
		c-2.3,0.1-3.9,0.2-5.1,0.2v4.9h9.1v2.5H369v4.9h11.3v2.6H369v4.5c0.1,2.7-1.2,4-3.7,4c-1.5,0-3,0-4.4,0c-0.1-0.4-0.2-0.9-0.3-1.6
		c-0.1-0.5-0.1-0.9-0.2-1.2c0.8,0.1,2,0.1,3.8,0.1c1.6,0.1,2.4-0.6,2.3-2.1v-3.6h-11.6v-2.6h11.6v-4.9h-9.7v-2.5h9.7V414.4
		L366.4,414.4z M381.9,426.9v-2.2h11.8l-1.8-3l2.1-1.1c0.1,0.3,0.4,0.7,0.8,1.3c0.6,0.9,0.9,1.6,1.2,2l-1.5,0.8h12.6v2.2h-11.5
		c0.8,1.6,1.7,2.9,2.7,3.9c2.1-1.1,3.9-2.1,5.4-3l1.3,2.1c-0.8,0.4-1.8,0.9-3.2,1.6c-0.7,0.4-1.2,0.7-1.6,0.8c1.8,1.2,4.1,2,6.8,2.3
		c-0.1,0.2-0.4,0.7-0.6,1.3c-0.3,0.5-0.5,1-0.7,1.3c-5.9-1.6-9.8-4.6-11.8-9.3c-0.9,1-2,2-3.3,2.9v4c0.4-0.1,0.8-0.2,1.4-0.4
		c1.8-0.5,3.3-1,4.4-1.3c-0.1,0.9-0.1,1.7-0.1,2.3c-0.2,0.1-0.6,0.2-1.1,0.4c-2,0.5-3.4,1-4.3,1.3c-0.8,0.3-1.5,0.6-2.1,0.8
		l-1.2-1.9c0.5-0.5,0.7-1.1,0.7-1.8v-2c-1.6,1-3.5,1.9-5.6,2.7c-0.1-0.2-0.2-0.6-0.5-1.2c-0.2-0.5-0.4-0.9-0.5-1.2
		c4.2-1.5,7.6-3.4,10.2-5.9H381.9z M383.7,419.5c-0.4,0.3-0.7,0.5-0.9,0.7c-0.1-0.4-0.4-1.1-0.7-2.2c-0.1-0.2-0.2-0.4-0.2-0.5
		c3-1.9,5.4-4.3,7.4-7.4l2.1,1.2c-0.9,1.3-1.9,2.6-2.8,3.8v8.1h-2.3v-5.7C385.7,418,384.9,418.7,383.7,419.5L383.7,419.5z M390,418
		l-0.2-2.2l5.5-0.5c-0.2-0.7-0.5-1.9-0.8-3.5c-0.1-0.6-0.2-1.1-0.3-1.4l2.4-0.2c0.3,1.7,0.7,3.4,1.2,4.9l9-0.8l0.2,2.2l-8.2,0.7
		c0.6,0.9,1.2,1.8,1.9,2.6c0.9,0.9,1.8,1.3,2.6,1.3c0.7,0.1,1.2-0.4,1.5-1.4c0.2-0.6,0.4-1.3,0.5-2c0.6,0.3,1.3,0.6,2,0.8
		c-0.1,0.9-0.4,1.8-0.7,2.7c-0.4,1.6-1.5,2.3-3.2,2.3c-1.6,0-3.2-0.7-4.6-2.2c-1-1-1.8-2.3-2.5-3.9L390,418z M402.3,414.4
		c-0.4-0.3-1.3-1.1-2.8-2.2c-0.2-0.2-0.4-0.4-0.5-0.5l1.5-1.5c0.6,0.5,1.5,1.1,2.5,1.9c0.4,0.3,0.7,0.5,0.9,0.7L402.3,414.4z"/>
	<path class="st1" d="M98.6,70c4.3-1.7,7.6-3.3,9.9-5l2.7,3.4c-3.2,2.3-6.7,4.3-10.4,5.9C100.2,73,99.5,71.6,98.6,70L98.6,70z
		 M125.1,55.6c3.4,2.3,6.5,4.6,9.3,6.9l-2.8,3.2c-0.8-0.7-1.6-1.4-2.4-2.1l-8.7,0.3v6.4c0,1.3-0.3,2.3-1,3.1
		c-0.6,0.7-1.5,1.1-2.7,1.3c-1.1,0.1-3.3,0.2-6.6,0.2c-0.2-1.4-0.5-3-1-5c1.4,0.2,2.6,0.2,3.6,0.2c0.9,0,1.5-0.1,1.9-0.4
		c0.4-0.3,0.5-0.7,0.5-1.3v-4.1c-4.5,0.3-8.8,0.6-12.8,1l-1.5-4.3c4.3-1.3,8.1-2.6,11.5-3.9c-2.9,0.2-5.6,0.4-8,0.6l-1.2-3.7
		c2.3-0.8,4.3-1.8,6.1-2.7h-7.7V35.8h31.2v15.3H126l3,2.7c-6,2.8-12.3,5.2-18.8,7.2l14.9-0.8l-2.4-1.9L125.1,55.6z M107,41.8h7.8
		v-2.3H107V41.8z M107,47.4h7.8v-2.3H107V47.4z M120.4,53.5c1.6-0.8,3.1-1.6,4.4-2.4h-8l-5.3,2.7L120.4,53.5L120.4,53.5z
		 M127.7,39.5h-7.8v2.3h7.8V39.5z M127.7,47.4v-2.3h-7.8v2.3H127.7z M124.6,65c4,1.5,7.8,3,11.5,4.7l-2.2,4.5
		c-4.3-2.2-8.1-4-11.3-5.3L124.6,65z M138.9,68.5c-0.4-1.8-1-4-1.7-6.6c2.3-3,4.1-6.5,5.4-10.4h-5.1v-5.3h5.2v-4.6
		c-1.3,0.2-2.8,0.3-4.3,0.5c-0.3-1.9-0.5-3.5-0.9-4.9c4.3-0.4,8.7-1,13.4-1.7l1.1,4.8c-1.3,0.2-2.8,0.5-4.5,0.7v5.2h4.6v5.3h-4.6V56
		l1.4-1.6c1.4,1.3,2.9,2.9,4.6,4.8l-3,3.2c-1.1-1.4-2.1-2.6-3-3.7v16h-4.9V61.3C141.5,64,140.3,66.4,138.9,68.5L138.9,68.5z
		 M153.9,75c-1.3-1.1-2.7-2.2-4.3-3.4c2.6-2.8,5.1-6.5,7.4-11.3l4.6,2.6C159,67.6,156.4,71.7,153.9,75L153.9,75z M153.6,58.8v-22
		h19.2v22H153.6z M167.6,42h-8.9v11.6h8.9V42z M168,60.3c2.4,3.6,4.8,7.5,7,11.5l-4.6,3.1c-2.4-4.8-4.6-8.8-6.6-12.1L168,60.3z
		 M178.9,45.6c1.9,1.5,3.9,3.3,6,5.2l-3.4,4.4c-2-2.1-3.8-4-5.7-5.7L178.9,45.6z M185,37.8h6.2v-3.4h4.9v3.4h6v-3.4h4.9v3.4h6.2v4.3
		H207v2.6h-4.9v-2.6h-6v2.6h-4.9v-2.6H185v-1.5L182,44c-1.6-1.8-3.5-3.6-5.5-5.5l3.1-3.8c1.6,1.3,3.4,2.8,5.3,4.6V37.8z M176.6,73
		c1.3-4.8,2.6-10.1,3.7-15.8c2,0.9,3.7,1.5,4.9,1.9l-3.6,15.5C179.9,74.1,178.3,73.5,176.6,73L176.6,73z M185,45.1h28.1v4.3h-7.8
		v3.4h6.7v16.3c0,1.6-0.3,2.8-1,3.6c-0.7,0.8-1.5,1.3-2.6,1.5c-1.1,0.1-3.3,0.2-6.7,0.3c-0.3-1.4-0.6-2.7-1-4l-3.9-2.6
		c1.2-1.3,2.1-2.8,2.8-4.6l-1.9,1.8c-0.4-0.6-0.8-1.2-1.3-1.8c-0.8,2.3-1.9,4.6-3.4,7c-0.3-0.4-1-1-2-1.8v6.1h-4.7V52.8h7v-3.4H185
		V45.1z M190.7,65.5c1.5-2.5,2.3-5.4,2.5-8.8h-2.5V65.5z M199.9,62.1c0.5-1.7,0.9-3.5,1-5.5h-3.4c0,1.1-0.1,2-0.2,2.6L199.9,62.1z
		 M197.5,52.8h3.5v-3.4h-3.5V52.8z M207.2,65.7l-1.5,1.5c-0.6-0.9-1.2-1.7-1.9-2.6c-0.7,2-1.7,3.9-3,5.7c1.7,0.1,3,0.1,4.2,0.1
		c1.4,0,2.2-0.8,2.2-2.3V65.7z M207.5,56.6h-2.2c0,1.2-0.1,2.4-0.3,3.5l2.5,2.8V56.6z M245.2,37.4l-7.6,15.5h5.4v4.7h-6.6v3.5h6.6
		v4.7h-6.6v6.5h-6v-6.5h-6.9v-4.7h6.9v-3.5h-6.9v-4.7h5.5l-7.4-15.5h6.4c2.9,7.2,4.7,11.9,5.5,14.2h0.1c0.1-0.3,0.2-0.7,0.4-1.2
		c0.2-0.8,1.1-3.1,2.7-7l2.4-5.9H245.2z M256.9,73.3V46.7h-4.1v-3.4c2.4-0.2,4.6-1.1,4.9-3.8h4v33.7H256.9z M274.5,73.7
		c-4.7,0-7.7-2.7-7.7-7.3v-20c0-4.6,3-7.3,7.7-7.3c4.7,0,7.7,2.7,7.7,7.3v20C282.2,71.1,279.3,73.7,274.5,73.7z M277.5,46.7
		c0-2.4-1.2-3.5-3-3.5c-1.8,0-3,1.1-3,3.5v19.6c0,2.4,1.2,3.5,3,3.5c1.8,0,3-1.1,3-3.5V46.7z M295.1,73.7c-4.7,0-7.7-2.7-7.7-7.3
		v-20c0-4.6,3-7.3,7.7-7.3s7.7,2.7,7.7,7.3v20C302.8,71.1,299.8,73.7,295.1,73.7z M298.1,46.7c0-2.4-1.2-3.5-3-3.5s-3,1.1-3,3.5
		v19.6c0,2.4,1.2,3.5,3,3.5s3-1.1,3-3.5V46.7z M308.3,79.4v-2.3c1.8-0.3,2.6-1.3,2.6-3.1v-0.7h-3V68h5.5v6
		C313.4,77.5,310.9,79.2,308.3,79.4z M325.6,73.7c-4.7,0-7.7-2.7-7.7-7.3v-20c0-4.6,3-7.3,7.7-7.3c4.7,0,7.7,2.7,7.7,7.3v20
		C333.3,71.1,330.3,73.7,325.6,73.7z M328.5,46.7c0-2.4-1.2-3.5-3-3.5c-1.8,0-3,1.1-3,3.5v19.6c0,2.4,1.2,3.5,3,3.5
		c1.8,0,3-1.1,3-3.5V46.7z M346.1,73.7c-4.7,0-7.7-2.7-7.7-7.3v-20c0-4.6,3-7.3,7.7-7.3c4.7,0,7.7,2.7,7.7,7.3v20
		C353.8,71.1,350.9,73.7,346.1,73.7z M349.1,46.7c0-2.4-1.2-3.5-3-3.5c-1.8,0-3,1.1-3,3.5v19.6c0,2.4,1.2,3.5,3,3.5
		c1.8,0,3-1.1,3-3.5V46.7z M366.7,73.7c-4.7,0-7.7-2.7-7.7-7.3v-20c0-4.6,3-7.3,7.7-7.3c4.7,0,7.7,2.7,7.7,7.3v20
		C374.4,71.1,371.5,73.7,366.7,73.7z M369.7,46.7c0-2.4-1.2-3.5-3-3.5c-1.8,0-3,1.1-3,3.5v19.6c0,2.4,1.2,3.5,3,3.5
		c1.8,0,3-1.1,3-3.5V46.7z M410.5,61.6c2.3,1,4.1,1.6,5.3,2.1c-0.5,2.6-0.9,4.7-1.4,6.4c-0.4,1.6-1.2,2.7-2.2,3.4
		c-1,0.6-2.3,0.9-3.8,0.9h-3.7c-4,0-6-2.1-6-6.2V54.5h-5.4c-0.4,9.8-4.1,16.6-11.1,20.4c-1-1.2-2.3-2.8-4-4.8
		c6.2-3.1,9.4-8.3,9.7-15.6h-9.2v-5.7h36.7v5.7h-11.2V66c0,2,0.8,3,2.3,3h1.2c0.8,0,1.3-0.3,1.6-1C409.7,67.2,410.1,65.1,410.5,61.6
		z M381.8,36.8h30.5v5.6h-30.5V36.8z M431.6,58c2,3.6,3.9,7.2,5.7,10.9l-4.4,2.6l-1.4-3c-5.2,2.1-9,3.7-11.2,4.9l-2.4-4.1
		c0.8-1,1.2-2.4,1.2-4.2V35.9h16.6V58H431.6L431.6,58z M430.8,41H424v3.7h6.9V41z M430.8,52.9v-3.7H424v3.7H430.8z M427.5,60
		l3.4-2.1H424v8.4l5.5-2.1L427.5,60z M437.6,36.9h14.9v25.6c0,1.9-0.3,3.3-1,4.3c-0.7,1-1.6,1.5-2.9,1.6c-1.2,0.1-3,0.1-5.3,0.1
		c-0.2-2.2-0.5-4-0.8-5.5c1.4,0.2,2.6,0.2,3.6,0.2c0.9,0,1.4-0.6,1.4-1.8V42.2h-5.1v32.4h-4.9V36.9z M455.5,57.3
		c3.3-2.9,6.4-6.8,9.2-11.6l3.9,3.7c-1.3,2.1-2.6,4.2-4,6v19.6h-4.9V61.1c-0.9,0.9-1.8,1.8-2.7,2.6C456.7,62,456.2,59.9,455.5,57.3
		L455.5,57.3z M455.9,43.7c3.2-2.8,5.9-6,8-9.4l4.1,3.6c-2.8,4.3-6.2,8.4-10.3,12.1C457.3,48.4,456.7,46.3,455.9,43.7L455.9,43.7z
		 M492.3,58h-4.1v2.3h4.9v4.2h-4.9v4c0,1.9-0.4,3.3-1.2,4.3c-0.8,1-2.1,1.5-3.8,1.7c-1.7,0.1-3.6,0.2-5.7,0.1
		c-0.3-1.7-0.7-3.5-1.2-5.2c1.8,0.1,3.4,0.2,4.8,0.2c1.4,0,2.1-0.8,2.1-2.5v-2.5h-8.9c1,1.2,2,2.5,3.1,3.9l-4.2,3.1
		c-1.3-2.1-2.6-4-3.8-5.5l2.1-1.4h-4.8v-4.2h16.5V58h-15.3v-4.2h24.5V58z M469.2,35.8h21.6v15.9h-21.6V35.8z M485.9,39.9h-11.8V42
		h11.8V39.9z M485.9,47.7v-2.1h-11.8v2.1H485.9z"/>
	<path class="st2" d="M87.9,783.9V771c-0.2,0.1-0.5,0.2-0.9,0.4c-0.8,0.3-1.5,0.6-1.9,0.8c-0.2-0.8-0.6-1.6-1.1-2.3
		c4.1-1.2,7.5-2.9,10-5h-9.3v-2.1h10.9v-2.9c-1.1,0.1-2.4,0.1-3.7,0.1c-1.2,0-2.8,0-5,0c-0.1-0.9-0.2-1.6-0.3-2.1
		c5.1,0,11.7-0.2,19.8-0.7l0.3,2.1c-1.8,0.2-4.7,0.3-8.9,0.5v3h10.9v2.1h-9.3c2.2,2,5.5,3.6,9.9,4.7c-0.4,0.9-0.8,1.6-1.1,2.3
		c-4.9-1.6-8.3-3.6-10.4-6v4.1h-2.3v-4.1c-2,2.1-4.5,3.8-7.5,5h17.4v13h-2.3v-1.2h-13v1.2H87.9z M90.2,773v2.9h13V773H90.2z
		 M90.2,777.8v2.8h13v-2.8H90.2z M114.5,770c-0.4-0.4-0.8-1-1.5-1.9c-0.9-1.1-1.6-2-2.1-2.6l1.9-1.4c1.3,1.3,2.5,2.8,3.8,4.3
		L114.5,770z M115.2,777.2c-0.6,3-1,5.3-1.3,6.7l-2.5-0.8c0.8-3.2,1.6-6.8,2.3-10.8c0.4,0.2,0.9,0.4,1.6,0.6
		c0.4,0.1,0.6,0.2,0.7,0.2C115.9,773.9,115.6,775.3,115.2,777.2L115.2,777.2z M115.2,762.3c-1.1-1.6-2.3-3-3.5-4.5l2-1.4
		c0.3,0.3,0.7,0.8,1.2,1.4c1.1,1.2,1.9,2.2,2.4,2.9L115.2,762.3z M118.2,761.4v-2.2h3.4V756h2.2v3.2h5.1V756h2.3v3.2h4v2.2h-4v3.5h5
		v2.2h-5.4c1.4,2.4,3.3,4.3,5.8,5.6c-0.1,0.2-0.2,0.4-0.3,0.7c-0.2,0.3-0.5,0.9-0.8,1.6c-1.7-1.2-3.1-2.4-4.1-3.6v6.2h-9.2v1.5
		c-0.1,1.2,0.5,1.8,1.7,1.8h6.8c1.2,0,1.9-0.5,2.2-1.4c0.2-0.6,0.4-1.6,0.4-2.8c0.2,0.1,0.5,0.2,0.8,0.4c0.6,0.2,1,0.3,1.3,0.4
		c-0.1,1.2-0.4,2.2-0.6,3.2c-0.4,1.8-1.6,2.7-3.7,2.6h-8c-2,0-3.1-1.1-3.1-3.3v-6.6c-0.8,0.9-1.8,1.6-2.7,2.3
		c-0.3-0.8-0.6-1.6-1.1-2.3c2.5-1.6,4.5-3.7,5.9-6.2h-5v-2.2h4.5v-3.5H118.2z M122.1,772.5v3.2h7v-3.2H122.1z M124.4,767.1
		c-0.6,1.2-1.3,2.3-2.1,3.3h8.1c-0.7-1-1.4-2.1-2-3.3H124.4z M123.8,761.4v3.5h5.1v-3.5H123.8z M139.9,769.5c0.1-0.1,0,0-0.3,0.4
		c-0.1-0.2-0.7-0.9-1.6-1.9c1.8-1.6,3.3-3.1,4.5-4.7l1.7,1.5C143.3,765.9,141.9,767.5,139.9,769.5L139.9,769.5z M138.5,776.1v-2.3
		h10.9l0.2-1.9h2.5c0,0.2,0,0.5-0.1,0.9c-0.1,0.4-0.1,0.7-0.2,0.9h11.4v2.3h-10.5c1.5,2.7,5.2,4.4,10.9,5c-0.4,0.9-0.8,1.7-1.2,2.6
		c-5.9-1.1-9.7-3.2-11.5-6.4c-1.3,3.2-5.2,5.5-11.8,6.8c-0.3-0.6-0.6-1.5-1.1-2.6c6.2-0.8,9.7-2.6,10.7-5.4H138.5z M152.9,770.7
		c-0.9,0-1.8,0-2.7,0c0-0.1,0-0.2,0-0.4c-0.1-0.5-0.2-1.1-0.4-2c0.2,0,0.6,0,1.2,0c0.6,0.1,0.9,0.1,1.2,0.1c1.1,0,1.5-0.5,1.5-1.6
		v-5.2H149c0,1-0.1,2-0.2,2.9c-0.1,3-1.8,5.5-4.9,7.6c-0.2-0.3-0.6-0.7-1.3-1.3c-0.2-0.2-0.4-0.4-0.5-0.5c2.8-1.8,4.3-3.9,4.3-6.2
		c0.1-0.8,0.2-1.6,0.2-2.6h-7.9v-2.5H150c-0.1-0.5-0.4-1.2-0.8-2.3c-0.1-0.2-0.1-0.4-0.2-0.5l2.6-0.5c0.3,0.5,0.7,1.6,1.2,3.2
		l-0.5,0.1h10.7v2.5h-7.1v5.7C155.9,769.5,154.9,770.6,152.9,770.7L152.9,770.7z M161.5,770c-1.5-1.8-3-3.4-4.4-4.9l1.6-1.6
		c1.6,1.6,3.2,3.2,4.6,4.8L161.5,770z M171.7,784v-10.2h6.9v-3.2h-8.8c0,5.5-1,9.9-3.1,13.4l-2-2c2-2.7,2.9-7.1,2.7-13.4v-11.5h21.1
		v8H170v3.3h8.6v-3.2h2.4v3.2h9.2v2.2H181v3.2h7.1V784h-2.3v-1.6h-11.7v1.6H171.7z M170,759.5v3.4h16.2v-3.4H170z M174.1,776.1v4.3
		h11.7v-4.3H174.1z M195.8,769.8c-0.3-0.3-0.7-0.7-1.3-1.3c-1.1-1.2-2-2.1-2.6-2.7l1.7-1.8c1.3,1.2,2.6,2.4,3.9,3.8L195.8,769.8z
		 M197.6,773.4c-0.8,3.4-1.8,6.9-2.8,10.3l-2.3-0.9c1.1-3.2,2-6.6,3-10.3L197.6,773.4L197.6,773.4z M196.7,762.3
		c-1.7-1.9-3-3.2-3.9-4.1l1.7-1.8c1.1,0.9,2.4,2.2,4,3.9L196.7,762.3z M198.5,759.6v-2.3h18.9v2.3h-6v3.6h5V784h-2.2v-1.4h-12.7v1.4
		h-2.2v-20.7h5v-3.6H198.5z M206.4,765.5c0.1,3.6-0.9,6.4-3.1,8.3c-0.7-0.8-1.2-1.3-1.6-1.6c1.8-1.4,2.7-3.6,2.5-6.7h-2.8v9.5h12.7
		v-2.5h-1.9c-2.1,0.1-3.1-1-3.1-3.2v-3.9H206.4L206.4,765.5z M201.5,777.2v3.4h12.7v-3.4H201.5z M206.4,759.6v3.6h2.7v-3.6H206.4z
		 M214.1,765.5h-3v3.4c-0.1,1.1,0.5,1.6,1.6,1.5h1.4V765.5z M223.2,777.8c-0.4,2-1.1,4.1-2.3,6.2c-0.2-0.2-0.6-0.5-1.1-0.9
		c-0.4-0.4-0.8-0.7-1.1-0.9c1.9-2.7,2.8-7.2,2.6-13.7v-9.1h10.4l-0.8-3.2l3-0.4l0.7,3.5h9.7v2.3h-20.6v7
		C223.8,772.7,223.6,775.7,223.2,777.8L223.2,777.8z M226.2,784v-12.1h5.6v-9h2.4v2.8h9.7v2.3h-9.7v3.9h8V784h-2.4v-1.9h-11.2v1.9
		H226.2z M228.6,774.3v5.7h11.2v-5.7H228.6z M255,760.1c2.8,0,4.6,1.6,5.4,4.9l2.5-0.8c-0.8-4.3-3.6-6.4-8.1-6.4
		c-4.6,0.2-7.1,2.3-7.4,6.3c-0.3,3.3,2.2,5.5,7.6,6.7c4.3,0.9,6.3,2.5,5.9,4.7c-0.1,2.9-1.9,4.4-5.4,4.5c-3.9,0.2-6-1.8-6.5-5.9
		l-2.4,0.9c0.8,4.8,3.9,7.2,9.1,7c4.9-0.2,7.5-2.4,7.8-6.4c0.3-3.7-2.5-6.1-8.2-7.3c-3.7-0.9-5.4-2.3-5.4-4.2
		C249.9,761.5,251.7,760.2,255,760.1L255,760.1z M271.2,780.3c0.4,0,0.8,0,1.2-0.1l0.4,1.3c-0.7,0.3-1.5,0.5-2.3,0.5
		c-2.2,0.1-3.2-1.2-3.2-3.8v-11.5h-2.1v-2.1h2.1V760l2.2-1.3v5.9h2.8v2.1h-2.8v11.5C269.4,779.6,270,780.3,271.2,780.3L271.2,780.3z
		 M285.1,764.6h2.2v17h-2.2v-2.3c-1.1,1.8-2.8,2.7-5.1,2.8c-3.6,0.1-5.3-2-5.3-6.3v-11.1h2.2v10.9c0.1,3,1.3,4.6,3.6,4.7
		c2.7-0.3,4.3-1.9,4.5-4.8V764.6z M303.6,781.6h-2.3v-2.5c-0.8,2-2.4,2.9-5,2.8c-3.9-0.2-5.9-3.1-6-8.6c0.2-5.9,2.4-8.9,6.5-9.1
		c1.8,0.1,3.3,1.1,4.4,2.9v-8.9h2.3V781.6z M296.9,780.2c2.8-0.1,4.3-2.1,4.3-6v-2.7c-0.2-3.2-1.5-4.9-4-5.2c-3.1,0.1-4.7,2.4-4.7,7
		C292.6,777.7,294.1,780,296.9,780.2L296.9,780.2z M307.5,761.4h2.2v-3.2h-2.2V761.4z M307.5,781.7h2.2v-17.1h-2.2V781.7z
		 M326.9,773.1c-0.1,5.9-2.5,8.8-7.2,8.9c-4.6-0.3-7-3.2-7.2-8.6c0.1-6,2.6-9.1,7.4-9.3C324.4,764.4,326.7,767.4,326.9,773.1
		L326.9,773.1z M324.5,773.2c-0.2-4.4-1.8-6.7-4.6-7c-3.2,0.1-4.9,2.5-5,7.1c0.1,4.4,1.7,6.6,5,6.8
		C322.8,780,324.4,777.7,324.5,773.2L324.5,773.2z M334.9,781.7c0.9-7.4,3.7-14.6,8.2-21.7v-1.6h-13.7v2.3h10.9
		c-4.2,6.9-6.9,13.9-7.9,21H334.9L334.9,781.7z M359.5,770.1c-0.1,7.8-2.4,11.8-6.9,12c-4.7-0.1-7.1-4.1-7.1-12
		c0.1-7.9,2.4-12,7-12.2C357.1,758,359.4,762.1,359.5,770.1L359.5,770.1z M357.1,770.1c0-6.8-1.5-10.2-4.6-10.1
		c-2.9,0.2-4.4,3.6-4.4,10.1c0,6.7,1.5,10,4.5,10C355.5,780.1,357.1,776.8,357.1,770.1L357.1,770.1z M362.2,761.2v-2.2h9.2
		c0.6-1.1,1-2.1,1.4-3.2l2.5,0.4c-0.1,0.5-0.5,1.3-0.9,2.2c-0.1,0.2-0.1,0.4-0.2,0.6h12.1v2.2h-7.6c2,2.3,4.8,3.9,8.3,4.6
		c-0.1,0.2-0.2,0.6-0.5,1.2c-0.2,0.5-0.4,1-0.5,1.3c-1.6-0.5-3.3-1.3-5.2-2.3v0.5H369v2h13.4v1.8H369v1.9h13.5v1.8H369v2h17.7v2.1
		h-7.1c0.4,0.4,1.1,0.9,1.9,1.6c1.5,1.2,2.6,2.3,3.4,3l-2,1.6l-1.5-1.6c-4.8,0-9.4,0.2-13.7,0.5c-1.1,0-2,0.1-2.6,0.2l-1-2.1
		c0.2-0.1,0.5-0.2,1-0.4c0.4-0.2,0.6-0.3,0.8-0.4c0.9-0.7,1.9-1.6,3-2.6h-7.1v-2.1h4.9v-9.1c-0.7,0.4-1.9,1-3.6,1.9
		c1.1-0.5,0.9-0.4-0.6,0.4c-0.4-0.9-0.7-1.6-1.2-2.3c3.7-1.3,6.6-3.1,8.5-5.3H362.2z M372.1,777.8c-1.3,1.2-2.5,2.2-3.8,3
		c1.2,0,3.1,0,5.6-0.1c2.5-0.1,4.4-0.1,5.6-0.1c-0.3-0.2-0.8-0.7-1.5-1.4c-0.4-0.3-0.6-0.5-0.7-0.7l0.8-0.7H372.1L372.1,777.8z
		 M372.9,761.2c-0.8,1.2-1.9,2.3-3.1,3.3h9.2c-1.1-0.9-2-2-2.8-3.3H372.9z M392.6,777.8c-0.4,2-1.1,4-2.3,6.1l-2-1.5
		c1.1-1.8,1.8-3.6,2.1-5.4c0.4-1.8,0.5-4.5,0.5-8v-10.1h9.8c-0.2-0.9-0.5-1.8-0.8-2.7l2.7-0.4l1.1,3h8.6v7.4h-19.1v2.6
		C393.2,772.9,393,775.9,392.6,777.8L392.6,777.8z M393.5,771.5v-2.2h9c-0.1-0.2-0.2-0.6-0.3-1.2c-0.1-0.5-0.2-0.8-0.3-1.1l2.6-0.4
		c0.1,0.2,0.2,0.7,0.3,1.3c0.1,0.5,0.2,1,0.3,1.3h8.6v2.2h-13.2c0,1,0,1.9-0.1,2.7h10.8c0,0.9-0.1,2.2-0.2,4.1
		c-0.1,0.5-0.1,0.8-0.1,1.1c-0.1,2.7-1.4,4-4,4c-0.4,0-1,0-1.9,0c-1,0.1-1.7,0.1-2.1,0.1c-0.2-1.2-0.4-2-0.6-2.6c0.4,0,0.9,0,1.8,0
		c0.8,0.1,1.5,0.1,2,0.1c1.6,0.1,2.5-0.6,2.5-2.1c0-0.2,0-0.5,0-1.2c0.1-0.6,0.1-1.1,0.1-1.3h-8.5c-0.4,2.8-2.2,5.4-5.6,7.7
		c-0.1-0.2-0.3-0.4-0.5-0.6c-0.6-0.7-1-1.2-1.3-1.4c2.2-1.4,3.6-2.8,4.3-4.2c0.7-1.3,1.1-3.5,1.1-6.4H393.5z M393.2,761.3v2.8H410
		v-2.8H393.2z M416.7,771.8c-0.3,0.5-0.5,0.8-0.6,1.1c-0.1-0.5-0.2-1.1-0.4-1.9c-0.1-0.6-0.2-1.1-0.3-1.4c2.5-4.1,4.5-8.6,6-13.6
		l2.5,0.7c-0.8,2.3-1.6,4.3-2.4,6.2V784h-2.4v-15.9C418.6,768.9,417.9,770.2,416.7,771.8L416.7,771.8z M431.5,761.2h8.8v2.6h-6.8
		v6.4h6.1v2.6h-6.1v7.4h7.5v2.3h-17.6v-2.3h7.6v-7.4h-6.2v-2.6h6.2v-6.4h-7v-2.6H431.5c-0.6-2-1.1-3.6-1.5-4.7l2.5-0.5
		c0.4,0.9,0.8,2.5,1.5,4.6L431.5,761.2z M445.8,773c-0.7,1.2-1.4,2.3-2.2,3.3c-0.1-0.2-0.2-0.6-0.5-1.2c-0.3-0.7-0.5-1.2-0.6-1.5
		c2.2-2.7,4.1-6.3,5.6-10.7l2.3,0.9c-0.2,0.5-0.5,1.1-0.8,2c-0.6,1.3-1,2.2-1.3,2.8V784h-2.4V773L445.8,773z M443.6,764.2v-5h11
		c-0.1-0.4-0.2-0.9-0.5-1.5c-0.2-0.7-0.4-1.2-0.5-1.5l2.8-0.4c0.4,1.3,0.8,2.5,1.1,3.4h9.6v4.2h-2.5v-1.9H446v2.7H443.6z
		 M450.7,766.6v-2.2h15.9v2.2h-7.2l-0.6,2.8h6.9V784h-2.4v-1.5h-9.5v1.5h-2.3v-14.6h4.9l0.6-2.8H450.7z M453.8,771.5v3.5h9.5v-3.5
		H453.8z M453.8,777.1v3.4h9.5v-3.4H453.8z M478.8,772.3c-0.6,2.2-1.7,4.5-3.5,6.9c-0.6-0.6-1.2-1.2-1.8-1.9
		c2.5-2.9,3.8-6.5,3.9-10.9h-4v17.2h-2.3v-19.6h6.3c0.1-0.9,0.1-2.1,0.1-3.9h-7.9v-2.5h25.2v2.5h-7.7c0,1.2,0,2.5,0,3.9h6.2v15.7
		c0.1,2.5-1,3.7-3.3,3.6c-1.2,0.1-2.4,0.1-3.7,0.1c-0.1-0.3-0.1-0.7-0.2-1.2c-0.1-0.6-0.2-1.1-0.3-1.4c0.2,0,0.6,0,1.1,0
		c0.9,0.1,1.6,0.1,2.1,0c1.4,0.1,2.1-0.4,2-1.5v-13h-4.1v0.1c-0.1,1.4-0.3,2.7-0.5,4c0.8,0.8,1.8,1.9,3.1,3.3
		c0.6,0.8,1.1,1.4,1.5,1.8l-1.6,2.1c-0.9-1.2-2.1-2.7-3.5-4.5c-0.8,2.5-2.1,4.8-3.7,6.8c-0.6-0.6-1.2-1.2-1.8-1.8
		c2.7-3.3,4.1-7.2,4.2-11.8h-4.9c-0.1,1.2-0.2,2.3-0.3,3.3c0.4,0.5,1.1,1.1,1.9,1.9c0.6,0.5,1,1,1.4,1.3l-1.5,2.1
		C480.4,774,479.6,773.1,478.8,772.3L478.8,772.3z M479.8,760.2v3.9h4.9l0.1-3.9H479.8z M497.4,781.8v-23.4h7.3v21.8h-5.2v1.6H497.4
		z M499.5,760.7v7.3h3.2v-7.3H499.5z M499.5,777.7h3.2v-7.4h-3.2V777.7z M506.6,773.8V765c-0.3-0.5-0.6-0.9-1.1-1.3
		c2.3-2.2,4-4.8,5.2-7.7l2.4,0.2c-0.1,0.5-0.4,1.1-0.8,2c-0.1,0.2-0.2,0.4-0.3,0.5h6.5v2.1l-2.4,3.8h4.5v9.3h-6.9
		c0,0.1,0,0.2-0.1,0.5c0,0.2,0,0.3-0.1,0.5h2v5.2c-0.1,0.9,0.3,1.2,1.2,1.2h1.6c0.9,0.1,1.4-0.4,1.5-1.3c0.2-0.9,0.3-1.8,0.3-2.9
		c0.8,0.4,1.4,0.7,2,0.8c-0.1,1.6-0.3,2.6-0.4,3c-0.3,1.9-1.3,2.8-3.1,2.7h-2.4c-2,0.1-2.9-0.9-2.8-2.9v-5.3
		c-0.9,3.2-3.4,6.2-7.6,8.9c-0.1-0.2-0.2-0.4-0.5-0.8c-0.5-0.6-0.8-1.1-1.1-1.4c4.1-2.3,6.6-5,7.5-8.1H506.6z M510.7,760.9
		c-0.4,0.6-1,1.5-1.9,2.7c-0.3,0.4-0.5,0.7-0.6,0.9h5.3l2.4-3.6H510.7z M512.2,771.6c0-0.2,0-0.3,0-0.4c0.3-1.2,0.4-2.7,0.4-4.5
		h-3.9v4.8H512.2L512.2,771.6z M514.4,771c0-0.2,0,0-0.1,0.5v0.1h4.3v-4.8h-3.8C514.8,767.9,514.6,769.3,514.4,771L514.4,771z"/>
	<circle class="st3" cx="290.5" cy="494" r="49"/>
	<path class="st4" d="M253.4,494.5c0.6-12.9,6.6-19.6,17.9-20.3c10.9,0.8,16.8,7.4,17.6,20.1c-0.3,13-6.3,19.7-17.9,20.1
		C259.7,513.7,253.9,507.1,253.4,494.5L253.4,494.5z M259.5,494.5c0.3,9.1,4.1,14,11.4,14.6c7.7-0.4,11.7-5.2,11.9-14.6
		c-0.6-9-4.4-13.9-11.6-14.6C263.8,480.5,259.9,485.3,259.5,494.5L259.5,494.5z M328.3,513.8h-7.9l-12.1-16.5H301v16.5h-5.9v-39
		h16.7c8,0.3,12.2,3.9,12.6,11.1c0,6.4-3.2,10.1-9.5,11.1L328.3,513.8z M301,480.6v10.9h9.8c5.2,0,7.7-1.9,7.6-5.8
		c-0.1-3.2-2.6-4.9-7.6-5.1H301z"/>
	<rect x="0" y="0" class="st5" width="581" height="964"/>
	<g>
		<path class="st6" d="M49.2,835.6c0-0.4,0.1-0.8,0.4-1.1c0.3-0.3,0.6-0.4,1-0.4c0.4,0,0.7,0.1,1,0.4c0.3,0.3,0.4,0.6,0.4,1.1
			c0,0.4-0.1,0.8-0.4,1.1c-0.3,0.3-0.6,0.4-1,0.4c-0.4,0-0.7-0.1-1-0.4C49.3,836.3,49.2,836,49.2,835.6z"/>
		<path class="st6" d="M72.2,843.5H62v-2l4.9-5.3c1.3-1.5,2.2-2.6,2.7-3.5c0.5-0.8,0.7-1.7,0.7-2.6c0-1-0.3-1.8-0.8-2.4
			c-0.5-0.6-1.3-0.8-2.3-0.8c-1.5,0-2.9,0.7-4.3,2.1v-2.3c1.3-1.1,2.8-1.7,4.6-1.7c1.5,0,2.7,0.4,3.6,1.3c0.9,0.9,1.3,2.1,1.3,3.6
			c0,1.1-0.3,2.2-0.8,3.3c-0.6,1.1-1.6,2.5-3.2,4.1l-3.8,4v0h7.7V843.5z"/>
		<path class="st6" d="M75.4,834.8c0-3.2,0.5-5.6,1.5-7.3c1-1.6,2.4-2.5,4.2-2.5c3.5,0,5.3,3.1,5.3,9.3c0,3.1-0.5,5.4-1.5,7
			c-1,1.6-2.4,2.4-4.2,2.4c-1.7,0-3-0.8-3.9-2.3C75.8,840,75.4,837.7,75.4,834.8z M77.5,834.7c0,4.8,1.1,7.2,3.4,7.2
			c2.2,0,3.3-2.4,3.3-7.3c0-5.1-1.1-7.6-3.3-7.6C78.7,827,77.5,829.5,77.5,834.7z"/>
		<path class="st6" d="M99.5,843.5h-9.6v-2h3.7v-13.8l-3.8,1.2v-2.1l5.9-1.9v16.6h3.7V843.5z"/>
		<path class="st6" d="M103.3,840.7c1.1,0.8,2.3,1.2,3.5,1.2c1.2,0,2.1-0.3,2.8-1c0.7-0.7,1.1-1.6,1.1-2.8c0-1.2-0.4-2.1-1.1-2.7
			c-0.7-0.6-1.8-1-3.1-1c-0.7,0-1.5,0.1-2.6,0.2v-9.2h8.2v2h-6.3v5.1c0.6,0,1.1-0.1,1.4-0.1c1.8,0,3.1,0.5,4.1,1.5
			c1,1,1.5,2.3,1.5,4c0,1.8-0.5,3.2-1.6,4.3c-1.1,1.1-2.5,1.6-4.4,1.6c-1.6,0-2.7-0.2-3.5-0.8V840.7z"/>
		<path class="st6" d="M115.3,838.7h3.5V832h7.6v-4.2h-6.3c-1,1.9-2.1,3.6-3.3,5.2c-0.4-0.4-0.8-0.9-1.3-1.3c2-2.5,3.6-5.3,4.6-8.4
			l1.8,0.5c-0.3,0.8-0.6,1.5-0.9,2.2h14.8v1.7h-7.6v4.2h7.2v1.6h-7.2v5.1h8.5v1.7h-8.5v6.3h-1.7v-6.3h-11.1V838.7z M120.5,838.7h5.9
			v-5.1h-5.9V838.7z"/>
		<path class="st6" d="M149.7,838.8h-2.1v4.7h-2v-4.7h-7.8v-1.5l7.4-12h2.4V837h2.1V838.8z M145.5,837v-7.6c0-0.5,0-1.2,0-1.9h0
			c-0.1,0.3-0.3,0.8-0.6,1.4l-5,8.1H145.5z"/>
		<path class="st6" d="M156.5,838.7c-0.3,3-1.4,5.7-3.2,8.2c-0.5-0.5-1-1-1.5-1.4c1.4-1.6,2.3-3.6,2.8-5.9c0.3-1.7,0.5-4,0.5-6.9
			v-8.1h14.4v18.3c0,2.3-1,3.5-3,3.5c-0.8,0-1.9,0-3.3,0c-0.1-0.6-0.2-1.2-0.3-2c1.3,0.1,2.4,0.1,3.1,0.1c1.2,0,1.7-0.6,1.7-1.9
			v-3.9H156.5z M156.7,837h11v-4.5h-10.9C156.9,834,156.8,835.5,156.7,837z M156.9,826.3v4.5h10.9v-4.5H156.9z"/>
		<path class="st6" d="M184.9,843.5h-10.2v-2l4.9-5.3c1.3-1.5,2.2-2.6,2.7-3.5c0.5-0.8,0.7-1.7,0.7-2.6c0-1-0.3-1.8-0.8-2.4
			c-0.5-0.6-1.3-0.8-2.3-0.8c-1.5,0-2.9,0.7-4.3,2.1v-2.3c1.3-1.1,2.8-1.7,4.6-1.7c1.5,0,2.7,0.4,3.6,1.3c0.9,0.9,1.3,2.1,1.3,3.6
			c0,1.1-0.3,2.2-0.8,3.3c-0.6,1.1-1.6,2.5-3.2,4.1l-3.8,4v0h7.7V843.5z"/>
		<path class="st6" d="M190.5,825.1h15.4v21.3h-1.8v-1.7h-11.7v1.7h-1.8V825.1z M192.3,826.9v7h11.7v-7H192.3z M192.3,835.6v7.4
			h11.7v-7.4H192.3z"/>
		<path class="st6" d="M210.3,843.5h9.7v-4h-8.3v-1.7h8.3v-3.2h1.8v3.2h8.1v1.7h-8.1v4h9.6v1.7h-21.1V843.5z M224.5,828
			c2.2,2,4.2,4,6,6l-1.4,1.4c-0.5-0.5-1-1.1-1.5-1.7c-5,0.1-9.5,0.4-13.3,0.7c-0.4,0-1,0.2-1.7,0.4l-0.9-2c0.8-0.3,1.5-0.7,2-1.1
			c1.5-1.3,2.9-3,4.5-5h-7.4v-1.7h20.1v1.7h-10.4c-1.7,2-3.5,4-5.4,5.9c3.4-0.2,7-0.3,11-0.4c-0.9-0.9-1.8-1.9-2.8-2.9L224.5,828z"
			/>
		<path class="st6" d="M234.3,840.7c1.1,0.8,2.3,1.2,3.5,1.2c1.2,0,2.1-0.3,2.8-1c0.7-0.7,1.1-1.6,1.1-2.8c0-1.2-0.4-2.1-1.1-2.7
			c-0.7-0.6-1.8-1-3.1-1c-0.7,0-1.5,0.1-2.6,0.2v-9.2h8.2v2h-6.3v5.1c0.6,0,1.1-0.1,1.4-0.1c1.8,0,3.1,0.5,4.1,1.5
			c1,1,1.5,2.3,1.5,4c0,1.8-0.5,3.2-1.6,4.3c-1.1,1.1-2.5,1.6-4.4,1.6c-1.6,0-2.7-0.2-3.5-0.8V840.7z"/>
		<path class="st6" d="M251.4,838.7c-0.3,3-1.4,5.7-3.2,8.2c-0.5-0.5-1-1-1.5-1.4c1.4-1.6,2.3-3.6,2.8-5.9c0.3-1.7,0.5-4,0.5-6.9
			v-8.1h14.4v18.3c0,2.3-1,3.5-3,3.5c-0.8,0-1.9,0-3.3,0c-0.1-0.6-0.2-1.2-0.3-2c1.3,0.1,2.4,0.1,3.1,0.1c1.2,0,1.7-0.6,1.7-1.9
			v-3.9H251.4z M251.6,837h11v-4.5h-10.9C251.8,834,251.7,835.5,251.6,837z M251.8,826.3v4.5h10.9v-4.5H251.8z"/>
		<path class="st6" d="M270.1,840.5c1.1,1,2.4,1.4,3.9,1.4c1.2,0,2.1-0.3,2.7-0.9c0.7-0.6,1-1.4,1-2.5c0-2.3-1.5-3.4-4.5-3.4h-1.4
			v-1.9h1.3c2.7,0,4-1.1,4-3.2c0-2-1-3-3.1-3c-1.2,0-2.3,0.4-3.3,1.3v-2.2c1.1-0.7,2.4-1,3.8-1c1.4,0,2.6,0.4,3.4,1.2
			c0.9,0.8,1.3,1.9,1.3,3.1c0,2.4-1.1,3.9-3.3,4.6v0c1.2,0.1,2.2,0.6,2.9,1.4c0.7,0.8,1.1,1.8,1.1,2.9c0,1.6-0.5,2.9-1.6,3.9
			c-1.1,1-2.5,1.5-4.3,1.5c-1.6,0-2.9-0.3-3.8-1V840.5z"/>
		<path class="st6" d="M293.7,843.5h-9.6v-2h3.7v-13.8L284,829v-2.1l5.9-1.9v16.6h3.7V843.5z"/>
		<path class="st6" d="M298.9,825.1h15.4v21.3h-1.8v-1.7h-11.7v1.7h-1.8V825.1z M300.7,826.9v7h11.7v-7H300.7z M300.7,835.6v7.4
			h11.7v-7.4H300.7z"/>
		<path class="st6" d="M330.4,840.6l-1.8,6.2H327l1.3-6.2H330.4z"/>
		<path class="st6" d="M341.7,826.4h6.3c0.4-0.9,0.7-1.9,0.9-2.9l1.8,0.5c-0.3,0.8-0.5,1.6-0.8,2.4h12.5v1.7h-13.2
			c-0.9,2.1-1.9,4.1-3,5.9v12.4h-1.7v-9.9c-0.8,1.1-1.6,2.1-2.5,3c-0.3-0.5-0.6-1.1-1-1.7c2.6-3,4.7-6.2,6.2-9.7h-5.6V826.4z
			 M347,843.1h6.7v-7h-5.6v-1.7h5.6v-4.7h1.8v4.7h5.7v1.7h-5.7v7h6.9v1.6H347V843.1z"/>
		<path class="st6" d="M364.1,842.9h20.8v2h-20.8V842.9z M365.4,825.9h18.1v2h-18.1V825.9z M366.4,834h16.1v2h-16.1V834z"/>
		<path class="st6" d="M386.4,843.8h9.8v-3.1h-8.5v-1.6h8.5V836h-6v0.8h-1.7v-12h17.1v12H404V836h-6v3.1h8.5v1.6H398v3.1h9.9v1.7
			h-21.4V843.8z M390.2,829.6h6v-3.2h-6V829.6z M390.2,834.4h6v-3.2h-6V834.4z M404,826.4h-6v3.2h6V826.4z M398,834.4h6v-3.2h-6
			V834.4z"/>
		<path class="st6" d="M426.4,839.2V838h-5.8v4.1c0,1.4,0.6,2,1.7,2h3.9c1.2,0,2-0.6,2.2-1.7c0.2-0.9,0.3-2.1,0.4-3.6
			c0.6,0.3,1.2,0.5,1.8,0.7c-0.2,1.6-0.4,2.8-0.6,3.7c-0.4,1.8-1.6,2.6-3.5,2.6h-4.7c-1.9,0-2.8-1.1-2.8-3.3V838h-7.4v-7.8h1.6v6.1
			h5.8v-7.8h-9.1v-1.7h9.1v-3.1h1.7v3.1h9.1v1.7h-9.1v7.8h5.8v-6.1h1.6v9H426.4z"/>
		<path class="st6" d="M431.6,844.8c5.6-3.3,8.8-7.8,9.5-13.6H432v-1.8h9.2c0-1.6,0.1-3.5,0.1-5.7h1.9c0,2,0,3.9-0.1,5.7h9.6v1.8
			h-9.5c1.5,6.3,4.8,10.7,9.8,13.1c-0.7,0.7-1.2,1.4-1.6,1.9c-4.6-2.8-7.7-7-9.2-12.5c-1.2,5.4-4.3,9.7-9.4,12.9
			C432.7,846.2,432.2,845.6,431.6,844.8z M439.9,841.7l1.4-1.2c1,1.2,2,2.4,3,3.6l-1.5,1.3C441.9,844.3,440.9,843,439.9,841.7z"/>
		<path class="st6" d="M457.2,834.8h6.9v-5h-9.7V828h9.7v-4.5h1.8v4.5h9.9v1.8h-9.9v5h7.1v11.7h-1.7v-1.7h-12.3v1.7h-1.7V834.8z
			 M471.2,836.6h-12.3v6.6h12.3V836.6z"/>
		<path class="st6" d="M477,843.8h9.8v-3.1h-8.5v-1.6h8.5V836h-6v0.8h-1.7v-12h17.1v12h-1.7V836h-6v3.1h8.5v1.6h-8.5v3.1h9.9v1.7
			H477V843.8z M480.8,829.6h6v-3.2h-6V829.6z M480.8,834.4h6v-3.2h-6V834.4z M494.5,826.4h-6v3.2h6V826.4z M488.5,834.4h6v-3.2h-6
			V834.4z"/>
		<path class="st6" d="M499.5,842.3c1.9-0.7,4.1-1.6,6.7-2.8v-7.4H500v-1.7h6.2v-6.6h1.7v22.5h-1.7v-4.9c-1.4,0.6-3.4,1.5-6,2.7
			L499.5,842.3z M512.2,823.8h1.7v7.9c2-1.1,3.8-2.3,5.5-3.6l1.1,1.7c-1.6,1.1-3.7,2.4-6.6,3.9v8.6c0,1.1,0.5,1.6,1.6,1.6h1.5
			c1,0,1.6-0.5,1.7-1.6c0.1-1,0.2-2.3,0.3-3.8c0.6,0.3,1.2,0.5,1.8,0.8c-0.1,1.5-0.3,2.8-0.5,3.8c-0.3,1.8-1.3,2.7-3,2.7h-2.3
			c-2,0-3-1.1-3-3.2V823.8z"/>
		<path class="st6" d="M523.9,825.2h18.5v1.8h-16.7v16.4h17.1v1.8h-18.9V825.2z M527.4,829.6l1.2-1.2c1.8,1.6,3.7,3.4,5.6,5.3
			c1.5-1.8,2.9-3.7,4.3-5.8l1.6,1.1c-1.5,2.1-3,4.1-4.6,5.9c1.8,1.8,3.6,3.7,5.6,5.7l-1.5,1.6c-1.7-2-3.5-3.9-5.4-5.9
			c-2.1,2.3-4.2,4.3-6.3,6c-0.3-0.5-0.8-1-1.4-1.5c2.3-1.7,4.4-3.6,6.4-5.8C531.2,833.3,529.3,831.5,527.4,829.6z"/>
		<path class="st6" d="M68.6,871.4l1,1.5c-2.1,1.1-4.2,2.1-6.2,3c-0.2-0.5-0.5-1-0.8-1.6C64.8,873.3,66.8,872.4,68.6,871.4z
			 M77.8,866c2,1.8,3.6,3.3,4.8,4.6l-1.2,1.3c-0.6-0.6-1.1-1.3-1.7-1.9c-1.8,0.1-3.5,0.2-5.3,0.2v3.1c0,1.9-0.9,2.9-2.7,2.9
			c-0.9,0-1.9,0-3.1,0c-0.1-0.6-0.2-1.3-0.3-1.9c1.1,0.1,2.1,0.2,3,0.2c1,0,1.4-0.6,1.4-1.7v-2.4c-1.9,0.1-3.9,0.2-5.8,0.3
			c-0.6,0-1.2,0.1-1.8,0.2l-0.6-1.8c0.9-0.1,1.9-0.4,3-0.8c1.5-0.6,3.1-1.3,4.8-2.2c-1.8,0.1-3.4,0.1-4.8,0.2
			c-0.7,0-1.2,0.1-1.6,0.1l-0.6-1.5c0.7-0.2,1.4-0.4,2.2-0.8c1-0.5,1.9-1,2.9-1.5h-4v0.7h-1.6v-8.9h17.1v8.9H80v-0.7h-7.2
			c-1.6,0.9-3.2,1.7-4.7,2.4c1.9-0.1,4.1-0.1,6.6-0.2c1-0.5,2-1.1,3.1-1.6l1.1,1.3c-3.4,1.8-7,3.4-10.6,4.8c3.6-0.2,6.9-0.4,9.9-0.6
			c-0.5-0.5-1.1-1-1.6-1.5L77.8,866z M66.3,857.8h6.1v-2.1h-6.1V857.8z M66.3,861.2h6.1v-2.1h-6.1V861.2z M80,855.7h-6.1v2.1H80
			V855.7z M73.9,861.2H80v-2.1h-6.1V861.2z M77.4,871.5c2.1,0.8,4.2,1.6,6.2,2.6l-0.7,1.6c-1.9-1-4-1.8-6.2-2.6L77.4,871.5z"/>
		<path class="st6" d="M85,870.3c1.3-2.2,2.5-4.8,3.3-7.9h-3.2v-1.6h3.4v-3.7c-0.9,0.1-1.9,0.2-3,0.2c-0.1-0.6-0.2-1.1-0.3-1.7
			c2.9-0.2,5.5-0.4,7.7-0.8l0.4,1.8c-0.9,0.1-1.9,0.2-3.1,0.3v3.9h3.2v1.6h-3.2v3.3l0.9-0.9c0.9,0.9,1.8,2,2.8,3.2l-1.2,1.2
			c-0.8-1-1.6-2-2.4-3v10.5h-1.6v-10.4c-0.8,2.3-1.7,4.3-2.8,6C85.6,871.6,85.3,871,85,870.3z M96.7,869.3l1.4,1.1
			c-1.6,2.2-3.2,4.2-4.7,6c-0.3-0.4-0.8-0.8-1.2-1.3C93.9,873.1,95.5,871.2,96.7,869.3z M94.4,855.6h10.9v12.2h-1.6v-1.1h-7.6v1.1
			h-1.6V855.6z M103.7,857.2h-7.6v7.9h7.6V857.2z M101.2,870.4l1.3-1c1.3,1.6,2.7,3.5,4.1,5.5l-1.5,1.2
			C103.9,874.1,102.6,872.2,101.2,870.4z"/>
		<path class="st6" d="M109.6,854.9h11.3v7h-1.6V861h-8.2v3.6c0,5-0.8,8.8-2.5,11.5c-0.3-0.5-0.7-1.1-1-1.5c1.3-2.3,2-5.6,2-9.9
			V854.9z M119.4,856.5h-8.2v3h8.2V856.5z M117.3,876.6h-1.5v-11h-2.1v8.4h-1.5v-9.9h3.6v-2.3h1.5v2.3h3.8v7.6
			c0,1.4-0.5,2.1-1.6,2.1c-0.3,0-0.8,0-1.6,0c-0.1-0.5-0.2-1.1-0.3-1.6c0.5,0,0.9,0.1,1.3,0.1c0.5,0,0.8-0.3,0.8-0.9v-5.8h-2.3
			V876.6z M126.4,853.9h1.6v19.5c0,1.9-0.8,2.9-2.5,2.9c-0.8,0-1.7,0-2.9,0c-0.1-0.7-0.2-1.4-0.3-1.9c1.2,0.2,2.1,0.2,2.7,0.2
			c0.9,0,1.4-0.6,1.4-1.7V853.9z M124.4,870.6h-1.5v-14.4h1.5V870.6z"/>
		<path class="st6" d="M130.7,862.6h8.6v-9h1.8v3.5h9.1v1.7h-9.1v3.7h10.4v1.8h-20.8V862.6z M139.2,865.2h1.8v2.7l0.9-1.2
			c3.4,1.7,6.2,3.2,8.3,4.5l-1.1,1.7c-2-1.3-4.7-2.9-8.1-4.7v8.5h-1.8V865.2z"/>
		<path class="st6" d="M154,859.9c1.1,0.8,2.3,1.9,3.8,3.2c-0.5,0.7-0.9,1.2-1.2,1.5c-1.6-1.6-2.8-2.7-3.6-3.4L154,859.9z
			 M155.5,866.7c0.6,0.2,1.2,0.5,1.8,0.7c-0.7,3.1-1.4,6.1-2,9l-1.9-0.6C154.2,873.1,154.9,870,155.5,866.7z M154.8,853.9
			c1.1,0.9,2.3,2.1,3.7,3.4c-0.5,0.5-0.9,1-1.3,1.5c-1.6-1.6-2.7-2.8-3.5-3.6L154.8,853.9z M159.3,855.2l1.2-1.1
			c0.7,0.7,1.8,1.9,3.3,3.8l-1.5,1.2C161,857.3,159.9,856,159.3,855.2z M161.3,876.5h-1.7v-16.4h5.9v-6.6h1.8v6.6h5.8v13.5
			c0,1.8-0.8,2.7-2.4,2.7c-0.9,0-2.2,0-3.7-0.1c-0.1-0.6-0.2-1.2-0.3-1.9c1.4,0.1,2.6,0.1,3.4,0.1c0.9,0,1.4-0.4,1.4-1.3v-2.2h-10.1
			V876.5z M171.4,861.9h-10.1v2.9h10.1V861.9z M161.3,869.4h10.1v-2.9h-10.1V869.4z M169,858.1c1.1-1.2,2.1-2.5,3.1-4l1.6,1.3
			c-0.9,1.2-2,2.5-3.4,3.9L169,858.1z"/>
		<path class="st6" d="M177.1,855.7h6.2c0-0.7,0-1.4,0-2h1.6c0,0.6,0,1.3,0,2h3.8v-2h1.6v2h5.2v5.3h-1.6v-0.6h-3.6v2.1h6.2
			c0,1.1-0.1,2.1-0.2,2.9c-0.2,1.1-0.8,1.6-1.9,1.6c-0.2,0-0.4,0-0.6,0v5.7h-1.6V868h-10.8v5.1h-1.6V868c-0.9,0.4-1.9,0.8-3,1.2
			c-0.2-0.5-0.5-1-0.9-1.6c3.3-0.8,5.4-2,6.5-3.7h-4.7l0.7-4.8h5.1c0-0.6,0.1-1.3,0.1-2h-6.2V855.7z M185.7,869.3h1.5
			c0,1-0.1,1.9-0.3,2.6c3.3,1,6.3,2.1,8.9,3.1l-0.8,1.7c-2.9-1.2-5.8-2.3-8.7-3.3c-0.9,1.6-3.8,2.7-8.8,3.3
			c-0.3-0.8-0.5-1.3-0.7-1.7c3.3-0.3,5.8-0.9,7.5-1.8C185.3,872.8,185.7,871.5,185.7,869.3z M179.1,862.5h3.6
			c0.2-0.5,0.3-1.2,0.4-2.1h-3.7L179.1,862.5z M191.6,865.4c0.8,0.1,1.5,0.1,2,0.1c0.6,0,0.9-0.2,1-0.7c0.1-0.3,0.1-0.7,0.1-1h-4.6
			v2.3h-1.6v-2.3h-4.6c-0.4,1-1.1,1.8-2,2.6h10C191.9,866.2,191.8,865.9,191.6,865.4z M184.3,862.5h4.2v-2.1h-3.9
			C184.6,861.3,184.5,862,184.3,862.5z M184.7,859.1h3.8v-2h-3.8C184.8,857.8,184.8,858.5,184.7,859.1z M193.8,857h-3.6v2h3.6V857z"
			/>
		<path class="st6" d="M199.1,860.1c1.3,1.1,2.5,2.1,3.5,3.1c-0.5,0.6-0.9,1.1-1.3,1.5c-1.1-1.2-2.3-2.3-3.4-3.3L199.1,860.1z
			 M200.6,866.9c0.6,0.3,1.2,0.6,1.7,0.8c-0.6,2.8-1.3,5.7-1.9,8.8l-1.9-0.6C199.3,873.4,199.9,870.4,200.6,866.9z M199.9,853.9
			c1,0.8,2,1.8,3.1,2.8c-0.4,0.5-0.9,1-1.2,1.4c-0.9-1.1-1.9-2.1-2.9-3L199.9,853.9z M203.4,860.3h16.1v1.6h-4.8c0,0.8,0,1.6,0,2.4
			h4.1v9.3c0,1.8-0.8,2.7-2.4,2.7c-0.7,0-1.5,0-2.4-0.1c-0.1-0.6-0.2-1.2-0.3-1.8c0.9,0.1,1.7,0.2,2.3,0.2c0.8,0,1.3-0.5,1.3-1.4
			v-1.6c-0.3,0.3-0.6,0.6-1.1,1.1c-0.8-1.1-1.5-2.1-2.3-3c-0.6,1.8-1.5,3.2-2.7,4.4c-0.3-0.4-0.7-0.9-1.1-1.3c1.7-1.6,2.7-4,2.9-7.1
			h-3.5c0,0.6-0.1,1.2-0.2,1.8c0.8,0.8,1.6,1.6,2.4,2.5c-0.1,0.1-0.5,0.5-1.2,1.2c-0.5-0.7-1.1-1.3-1.6-2c-0.5,1.7-1.4,3.1-2.6,4.3
			c-0.2-0.3-0.5-0.7-0.8-1v3.8H204v-12.3h4.1c0-0.8,0-1.6,0-2.4h-4.7V860.3z M203.4,856.2h4.1v-2.6h1.6v2.6h4.6v-2.6h1.6v2.6h4.2
			v1.6h-4.2v2h-1.6v-2h-4.6v2h-1.6v-2h-4.1V856.2z M205.6,872.2c1.5-1.5,2.3-3.6,2.5-6.3h-2.5V872.2z M209.6,864.3h3.6
			c0-0.7,0-1.5,0-2.4h-3.6C209.6,862.6,209.6,863.4,209.6,864.3z M217.3,865.9h-2.6c0,0.7-0.1,1.4-0.3,2.1c1.2,1.3,2.1,2.4,2.9,3.3
			V865.9z"/>
		<path class="st6" d="M223.5,864.2l0.8-1.3c0.8,0.5,1.7,0.9,2.4,1.3c0.7-0.8,1.4-1.7,1.9-2.7h-4.2c-0.8,1.4-1.6,2.6-2.4,3.6
			c-0.3-0.4-0.7-0.8-1-1.1c1.4-1.6,2.5-3.5,3.4-5.7l1.4,0.5c-0.2,0.5-0.4,0.9-0.6,1.3h5.2v1.3c-0.6,1.3-1.3,2.5-2.2,3.5
			c1.3,0.7,2.4,1.3,3.5,1.9l-0.9,1.5c-1.2-0.8-2.5-1.5-3.8-2.3c-1.1,1-2.3,1.8-3.8,2.5h6.9v7.5h-1.4v-1h-4.4v1.2h-1.4v-7.5
			c-0.4,0.2-0.9,0.4-1.3,0.5c-0.2-0.4-0.4-0.9-0.7-1.4c1.9-0.6,3.4-1.5,4.8-2.6C224.8,864.9,224.2,864.6,223.5,864.2z M221.4,856.3
			h4.4c-0.3-0.7-0.6-1.4-1-2.2l1.4-0.7c0.5,1.1,1,2,1.3,2.8h3.8v3.3h-1.5v-1.9h-7v1.9h-1.5V856.3z M228.6,870h-4.4v3.6h4.4V870z
			 M236,862.6h1.6c0,4-0.1,6.7-0.5,8.3c2.1,1.6,3.9,3,5.4,4.4l-1.1,1.5c-1.4-1.4-3-2.8-4.9-4.3c-0.9,1.8-2.6,3.3-5,4.5
			c-0.3-0.5-0.6-1-1-1.5c2.6-1.3,4.3-2.8,4.9-4.6C235.9,869.6,236.1,866.8,236,862.6z M232.1,859.5h3.1l0.5-3h-4.1V855H242v1.6h-4.6
			l-0.6,3h4.5v11.8h-1.5v-10.2h-6.2v10.2h-1.5V859.5z"/>
		<path class="st6" d="M250.7,867.3c1.8,2.3,3.2,4.3,4.4,6l-1.4,1.1c-0.5-0.8-1.1-1.6-1.7-2.5c-2.1,1.1-3.9,2-5.4,2.8
			c-0.5,0.3-0.9,0.6-1.3,1l-1.2-1.5c0.4-0.5,0.7-1.1,0.7-1.8v-17.3h8.7v12.1H252v-0.6h-5.4v6.2c1.4-0.6,2.9-1.4,4.6-2.2
			c-0.5-0.8-1.1-1.6-1.7-2.4L250.7,867.3z M252,856.8h-5.4v3.3h5.4V856.8z M252,865v-3.3h-5.4v3.3H252z M256,855.4h7.6v14.2
			c0,2-0.9,3-2.7,3c-0.6,0-1.5,0-2.5,0c-0.1-0.7-0.2-1.4-0.3-2c1.1,0.1,1.9,0.2,2.4,0.2c0.9,0,1.4-0.5,1.4-1.6v-11.9h-4.3v19.6H256
			V855.4z"/>
		<path class="st6" d="M266.2,855.5h21.3v1.8h-3.6v15.9c0,2.1-0.9,3.2-2.8,3.2c-1.4,0-2.7,0-3.9,0c-0.1-0.7-0.2-1.4-0.3-2.1
			c1.6,0.1,2.9,0.2,3.7,0.2c1.1,0,1.6-0.6,1.6-1.9v-15.2h-15.9V855.5z M268.6,860.7h9.5v9.3h-7.8v1.7h-1.7V860.7z M276.4,862.4h-6.1
			v5.9h6.1V862.4z"/>
		<path class="st6" d="M288.7,866c0.9-0.3,1.8-0.6,2.7-0.9v-5.4h-2.5V858h2.5v-4.4h1.6v4.4h2.4v1.6h-2.4v4.8
			c0.7-0.3,1.5-0.6,2.2-0.9c0,0.8,0,1.4,0,1.9c-0.1,0-0.9,0.4-2.3,0.9v7.5c0,1.6-0.7,2.4-2,2.5c-0.6,0-1.3,0-2.1,0
			c-0.1-0.7-0.2-1.3-0.3-1.9c0.8,0.1,1.5,0.1,2,0.1c0.5,0,0.8-0.3,0.8-1V867c-0.7,0.3-1.5,0.6-2.5,1L288.7,866z M294.8,867.9h1.9
			v-6.3c-0.4-0.3-0.8-0.7-1.3-1c1.9-2.1,3.4-4.5,4.5-7.1l1.7,0.3c-0.3,0.8-0.7,1.5-1.1,2.2h6.5v1.6c-0.5,0.7-1.4,1.8-2.5,3.3h3.9
			v7.1h1.7v1.6h-6.7c1.1,2.7,3.3,4.4,6.6,5.2c-0.5,0.7-1,1.3-1.3,1.9c-3-1.1-5.1-3-6.3-5.8c-0.8,2.4-3.2,4.4-7.2,6
			c-0.3-0.6-0.7-1.1-1.2-1.7c4.1-1.3,6.5-3.2,7.1-5.5h-6.4V867.9z M305.2,857.6h-5.5c-0.7,1.1-1.5,2.2-2.3,3.2h5.3
			C303.7,859.5,304.5,858.4,305.2,857.6z M298.2,867.9h3.4c0.1-0.8,0.2-2.6,0.2-5.5h-3.5V867.9z M306.9,862.4h-3.6
			c0,2,0,3.8-0.1,5.5h3.8V862.4z"/>
		<path class="st6" d="M317.4,854l-0.3,0.6c1.3,1.7,2.6,3.4,3.9,5.3l-1.3,1.3c-1.1-1.8-2.2-3.5-3.3-5c-1.1,2.6-2.5,5.1-4.1,7.6
			c-0.3-0.5-0.6-1.1-1.1-1.6c1.7-2.3,3.2-5.1,4.5-8.2H317.4z M312.9,870.2l1.3-1c0.7,0.9,1.3,1.7,1.9,2.6c0.7-1.5,1.5-3.2,2.3-5.2
			h-6.3v-1.6h8.1v1.6c-1.1,2.7-2.1,4.9-3,6.6c0.6,0.8,1.1,1.5,1.6,2.3l-1.5,1.1C315.9,874.2,314.4,872.1,312.9,870.2z M315.1,860.3
			l1.3-0.7c0.6,1.1,1.3,2.3,1.8,3.5l-1.5,0.8C316.4,863,315.8,861.8,315.1,860.3z M325.8,862.2h1.6v3.5c0,1.7-0.2,3.2-0.5,4.5
			c2.1,1.7,4.1,3.4,6,5.1l-1.3,1.5c-1.6-1.7-3.4-3.4-5.3-5c-0.1,0.1-0.1,0.3-0.2,0.4c-1,1.7-2.7,3.2-5.2,4.6
			c-0.5-0.7-0.9-1.2-1.2-1.5c2.4-1.1,4-2.4,4.9-3.9c0.8-1.3,1.3-3.2,1.3-5.7V862.2z M321.4,859.6h3.8l0.5-3.2h-5.4v-1.6h12.4v1.6
			h-5.3l-0.6,3.2h4.9v11.2h-1.6v-9.6H323v9.7h-1.6V859.6z"/>
		<path class="st6" d="M343.6,867.1c0,1,0.1,1.8,0.2,2.2c-3.5,2.4-5.6,3.8-6.4,4.5c-0.5,0.4-0.9,0.8-1.4,1.2l-1.2-1.9
			c0.7-0.7,1-1.4,1-2.4v-16.3h1.8v16.8C339.1,870.2,341.1,868.8,343.6,867.1z M350.3,854.1h1.8v4.2c0,4.3-0.5,7.8-1.5,10.3
			c1.8,2,3.5,4,5,5.9l-1.5,1.5c-1.5-2-2.9-3.9-4.4-5.7c-1.7,2.7-4.2,4.9-7.5,6.4c-0.3-0.5-0.7-1-1.2-1.6c3.6-1.8,6.1-3.9,7.3-6.3
			c1.3-2.3,2-5.9,2-10.6V854.1z M342.7,853.6c1,1.7,2,3.6,3.2,6l-1.7,1c-1.1-2.4-2.1-4.4-3.1-6.1L342.7,853.6z"/>
		<path class="st6" d="M356.9,873.3h8.5V854h2v7.1h8.9v1.9h-8.9v10.4h10.6v1.9h-21V873.3z"/>
		<path class="st6" d="M380,859.9v-1.7h8.6v1.7c-0.8,1.6-1.8,3.2-3,4.7v12H384v-10.1c-1.2,1.4-2.6,2.7-4.1,3.9c-0.2-1-0.4-1.6-0.6-2
			c3.2-2.6,5.7-5.4,7.5-8.6H380z M383,854.5l1.3-1c0.8,1,1.5,2.1,2.3,3.1l-1.4,1.1C384.4,856.6,383.7,855.5,383,854.5z M386.1,865.8
			l1-1.2c1.3,0.9,2.5,2,3.8,3l-1.1,1.4C388.5,867.9,387.3,866.8,386.1,865.8z M391.8,853.9h1.7v18.7c0,1,0.5,1.5,1.5,1.5h1.8
			c1,0,1.6-0.5,1.8-1.6c0.1-1.1,0.2-2.6,0.3-4.4c0.6,0.3,1.2,0.5,1.8,0.7c-0.2,2.2-0.3,3.8-0.5,4.7c-0.3,1.6-1.3,2.4-3.2,2.4h-2.3
			c-1.9,0-2.9-1-2.9-3.1V853.9z"/>
		<path class="st6" d="M403.1,865.8h8.2v10.8h-1.6V875h-4.9v1.6h-1.6V865.8z M409.6,867.4h-4.9v6h4.9V867.4z M405.2,854.6h14.9v9.3
			h-1.7v-0.8h-11.4v0.8h-1.7V854.6z M418.3,856.2h-11.4v5.2h11.4V856.2z M414,865.8h8.2v10.8h-1.6V875h-5v1.6H414V865.8z
			 M420.6,867.4h-5v6.1h5V867.4z"/>
		<path class="st6" d="M436.9,877.6c-2.6-3-3.8-6.7-3.8-11.1c0-4.4,1.3-8.1,3.8-11.2h1.9c-2.6,3.2-3.8,6.9-3.8,11.2
			c0,4.2,1.3,7.9,3.8,11.1H436.9z"/>
		<path class="st6" d="M447.5,871.9h20.7v2h-20.7V871.9z M449.1,856.6h17.6v2h-17.6V856.6z"/>
		<path class="st6" d="M478.8,874.2l4.5,0l7.9-0.2c-0.2,0.5-0.4,1.1-0.6,1.9l-7.5,0.1l-4.5-0.1c-2.6-0.1-4.4-1-5.4-2.8
			c-0.6,0.6-1.5,1.6-2.6,3.1l-0.9-1.9c1.3-1.3,2.2-2.3,2.8-2.9v-7.9h-2.6v-1.7h4.2v10C475,873.4,476.6,874.2,478.8,874.2z
			 M472.4,854c0.7,1,1.7,2.4,3,4.4l-1.5,1.2c-1.2-2-2.1-3.5-2.9-4.6L472.4,854z M475.5,863.2h7.1v-3.9H479c-0.4,1.2-0.9,2.2-1.3,3.2
			c-0.4-0.3-0.9-0.5-1.5-0.8c1.1-2.1,2-4.5,2.5-7.1l1.7,0.4c-0.3,1-0.5,1.9-0.8,2.8h3.1v-4.1h1.7v4.1h5.6v1.6h-5.6v3.9h6.7v1.6h-5.1
			v5c0,0.8,0.3,1.2,0.9,1.2h1c0.7,0,1-0.4,1.1-1.1c0.1-0.6,0.2-1.5,0.2-2.8c0.4,0.2,1,0.4,1.6,0.7c-0.1,1.1-0.2,2-0.4,2.7
			c-0.2,1.4-1,2.1-2.5,2.1h-1.6c-1.5,0-2.2-0.9-2.2-2.6v-5.2h-2.9c0,0.7,0,1.3-0.1,1.9c-0.1,2.9-1.6,5.1-4.5,6.5
			c-0.3-0.5-0.6-1-1.1-1.6c2.5-1.1,3.8-2.8,3.9-4.9c0-0.5,0.1-1.1,0.1-1.9h-4.2V863.2z"/>
		<path class="st6" d="M492.5,863.4h21.4v2.1h-21.4V863.4z"/>
		<path class="st6" d="M524.1,877.6h-1.9c2.6-3.2,3.8-6.9,3.8-11.2c0-4.2-1.3-7.9-3.8-11.1h1.8c2.6,3,3.8,6.7,3.8,11.1
			C527.9,870.8,526.7,874.6,524.1,877.6z"/>
		<path class="st6" d="M49.2,895.6c0-0.4,0.1-0.8,0.4-1.1c0.3-0.3,0.6-0.4,1-0.4c0.4,0,0.7,0.1,1,0.4c0.3,0.3,0.4,0.6,0.4,1.1
			c0,0.4-0.1,0.8-0.4,1.1c-0.3,0.3-0.6,0.4-1,0.4c-0.4,0-0.7-0.1-1-0.4C49.3,896.3,49.2,896,49.2,895.6z"/>
		<path class="st6" d="M61.2,896c0.9-0.3,1.8-0.6,2.7-0.9v-5.4h-2.5V888h2.5v-4.4h1.6v4.4H68v1.6h-2.4v4.8c0.7-0.3,1.5-0.6,2.2-0.9
			c0,0.8,0,1.4,0,1.9c-0.1,0-0.9,0.4-2.3,0.9v7.5c0,1.6-0.7,2.4-2,2.5c-0.6,0-1.3,0-2.1,0c-0.1-0.7-0.2-1.3-0.3-1.9
			c0.8,0.1,1.5,0.1,2,0.1c0.5,0,0.8-0.3,0.8-1V897c-0.7,0.3-1.5,0.6-2.5,1L61.2,896z M67.3,897.9h1.9v-6.3c-0.4-0.3-0.8-0.7-1.3-1
			c1.9-2.1,3.4-4.5,4.5-7.1l1.7,0.3c-0.3,0.8-0.7,1.5-1.1,2.2h6.5v1.6c-0.5,0.7-1.4,1.8-2.5,3.3h3.9v7.1h1.7v1.6H76
			c1.1,2.7,3.3,4.4,6.6,5.2c-0.5,0.7-1,1.3-1.3,1.9c-3-1.1-5.1-3-6.3-5.8c-0.8,2.4-3.2,4.4-7.2,6c-0.3-0.6-0.7-1.1-1.2-1.7
			c4.1-1.3,6.5-3.2,7.1-5.5h-6.4V897.9z M77.6,887.6h-5.5c-0.7,1.1-1.5,2.2-2.3,3.2h5.3C76.2,889.5,77,888.4,77.6,887.6z
			 M70.7,897.9h3.4c0.1-0.8,0.2-2.6,0.2-5.5h-3.5V897.9z M79.4,892.4h-3.6c0,2,0,3.8-0.1,5.5h3.8V892.4z"/>
		<path class="st6" d="M84.6,889.9v-1.7h8.6v1.7c-0.8,1.6-1.8,3.2-3,4.7v12h-1.7v-10.1c-1.2,1.4-2.6,2.7-4.1,3.9
			c-0.2-1-0.4-1.6-0.6-2c3.2-2.6,5.7-5.4,7.5-8.6H84.6z M87.5,884.5l1.3-1c0.8,1,1.5,2.1,2.3,3.1l-1.4,1.1
			C89,886.6,88.3,885.5,87.5,884.5z M90.6,895.8l1-1.2c1.3,0.9,2.5,2,3.8,3l-1.1,1.4C93.1,897.9,91.9,896.8,90.6,895.8z M96.4,883.9
			h1.7v18.7c0,1,0.5,1.5,1.5,1.5h1.8c1,0,1.6-0.5,1.8-1.6c0.1-1.1,0.2-2.6,0.3-4.4c0.6,0.3,1.2,0.5,1.8,0.7
			c-0.2,2.2-0.3,3.8-0.5,4.7c-0.3,1.6-1.3,2.4-3.2,2.4h-2.3c-1.9,0-2.9-1-2.9-3.1V883.9z"/>
		<path class="st6" d="M113.5,901c0,0.5,0.1,1.2,0.2,2c-2,1.4-3.4,2.5-4.3,3.2l-1-1.6c0.5-0.4,0.7-1.1,0.7-2v-9.3h-2.6v-1.7h4.3V903
			C111.6,902.4,112.5,901.7,113.5,901z M108.5,884c1.3,1.4,2.4,2.7,3.4,3.9l-1.5,1.4c-1-1.5-2.1-2.8-3.1-4L108.5,884z M112.5,898.4
			h6.7v-3.5h-5.5v-1.7h5.5v-3.5H113V888h7.8c1.2-1.7,2.2-3.2,2.8-4.5l1.7,1.1c-0.7,0.9-1.5,2-2.6,3.4h4.6v1.7h-6.4v3.5h5.8v1.7h-5.8
			v3.5h6.9v1.7h-6.9v6.5h-1.8v-6.5h-6.7V898.4z M114.7,884.6l1.3-1.1c0.9,1.1,1.8,2.2,2.5,3.2l-1.5,1.1
			C116.3,886.7,115.6,885.6,114.7,884.6z"/>
		<path class="st6" d="M129.9,889l1.4,0.2c-0.2,1.9-0.4,3.9-0.8,6c-0.3-0.1-0.8-0.2-1.4-0.3C129.4,893.4,129.7,891.4,129.9,889z
			 M132,883.7h1.5v4.8l0.8-0.6c0.7,0.9,1.4,1.8,2,2.6l-1.2,1c-0.4-0.7-1-1.5-1.6-2.4v17.6H132V883.7z M135.4,891.7h6.6v-1.6h-5.4
			v-1.5h5.4V887h-6v-1.5h6v-2.1h1.6v2.1h6.5v1.5h-6.5v1.6h5.9v1.5h-5.9v1.6h6.9v1.5h-15.2V891.7z M138.5,906.5h-1.6v-11.9h12.1v9
			c0,1.7-0.7,2.6-2.2,2.6c-0.9,0-2.2,0-3.7,0c-0.1-0.5-0.2-1.1-0.3-1.8c1.4,0.1,2.5,0.1,3.3,0.1c0.8,0,1.2-0.4,1.2-1.1v-1.3h-8.8
			V906.5z M147.3,896.1h-8.8v1.6h8.8V896.1z M138.5,900.8h8.8v-1.6h-8.8V900.8z"/>
		<path class="st6" d="M158.5,900.7c0,0.8,0.1,1.5,0.2,2c-1.6,1.1-2.9,2.1-3.9,3l-1-1.5c0.5-0.5,0.7-1.2,0.7-2v-8.9h-2.6v-1.7h4.3
			v10.9C156.9,901.9,157.7,901.3,158.5,900.7z M154.3,884.2c1.2,1.3,2.2,2.4,3.1,3.5l-1.5,1.4c-1-1.4-2-2.6-2.9-3.7L154.3,884.2z
			 M157.4,891.7h7v-1.6h-5.5v-1.5h5.5V887h-6.3v-1.5h6.3v-2.1h1.7v2.1h6.6v1.5h-6.6v1.6h6v1.5h-6v1.6h7v1.5h-15.7V891.7z M161,906.5
			h-1.7v-11.9h12v9.1c0,1.7-0.8,2.5-2.4,2.6c-0.8,0-1.9,0-3.3,0c-0.1-0.5-0.2-1.1-0.3-1.8c1.2,0.1,2.3,0.1,3.1,0.1
			c0.8,0,1.2-0.4,1.2-1.2v-1.2H161V906.5z M169.7,896.1H161v1.6h8.6V896.1z M161,900.8h8.6v-1.6H161V900.8z"/>
		<path class="st6" d="M174.5,903.5h9.7v-4h-8.3v-1.7h8.3v-3.2h1.8v3.2h8.1v1.7H186v4h9.6v1.7h-21.1V903.5z M188.7,888
			c2.2,2,4.2,4,6,6l-1.4,1.4c-0.5-0.5-1-1.1-1.5-1.7c-5,0.1-9.5,0.4-13.3,0.7c-0.4,0-1,0.2-1.7,0.4l-0.9-2c0.8-0.3,1.5-0.7,2-1.1
			c1.5-1.3,2.9-3,4.5-5H175v-1.7h20.1v1.7h-10.4c-1.7,2-3.5,4-5.4,5.9c3.4-0.2,7-0.3,11-0.4c-0.9-0.9-1.8-1.9-2.8-2.9L188.7,888z"/>
		<path class="st6" d="M197.3,902.9h20.8v2h-20.8V902.9z M198.7,885.9h18.1v2h-18.1V885.9z M199.6,894h16.1v2h-16.1V894z"/>
		<path class="st6" d="M219.7,903.8h9.8v-3.1H221v-1.6h8.5V896h-6v0.8h-1.7v-12h17.1v12h-1.7V896h-6v3.1h8.5v1.6h-8.5v3.1h9.9v1.7
			h-21.4V903.8z M223.5,889.6h6v-3.2h-6V889.6z M223.5,894.4h6v-3.2h-6V894.4z M237.2,886.4h-6v3.2h6V886.4z M231.2,894.4h6v-3.2h-6
			V894.4z"/>
		<path class="st6" d="M259.7,899.2V898h-5.8v4.1c0,1.4,0.6,2,1.7,2h3.9c1.2,0,2-0.6,2.2-1.7c0.2-0.9,0.3-2.1,0.4-3.6
			c0.6,0.3,1.2,0.5,1.8,0.7c-0.2,1.6-0.4,2.8-0.6,3.7c-0.4,1.8-1.6,2.6-3.5,2.6H255c-1.9,0-2.8-1.1-2.8-3.3V898h-7.4v-7.8h1.6v6.1
			h5.8v-7.8h-9.1v-1.7h9.1v-3.1h1.7v3.1h9.1v1.7h-9.1v7.8h5.8v-6.1h1.6v9H259.7z"/>
		<path class="st6" d="M264.9,904.8c5.6-3.3,8.8-7.8,9.5-13.6h-9.1v-1.8h9.2c0-1.6,0.1-3.5,0.1-5.7h1.9c0,2,0,3.9-0.1,5.7h9.6v1.8
			h-9.5c1.5,6.3,4.8,10.7,9.8,13.1c-0.7,0.7-1.2,1.4-1.6,1.9c-4.6-2.8-7.7-7-9.2-12.5c-1.2,5.4-4.3,9.7-9.4,12.9
			C265.9,906.2,265.5,905.6,264.9,904.8z M273.1,901.7l1.4-1.2c1,1.2,2,2.4,3,3.6l-1.5,1.3C275.1,904.3,274.2,903,273.1,901.7z"/>
		<path class="st6" d="M290.4,894.8h6.9v-5h-9.7V888h9.7v-4.5h1.8v4.5h9.9v1.8H299v5h7.1v11.7h-1.7v-1.7h-12.3v1.7h-1.7V894.8z
			 M304.4,896.6h-12.3v6.6h12.3V896.6z"/>
		<path class="st6" d="M310.2,903.8h9.8v-3.1h-8.5v-1.6h8.5V896h-6v0.8h-1.7v-12h17.1v12h-1.7V896h-6v3.1h8.5v1.6h-8.5v3.1h9.9v1.7
			h-21.4V903.8z M314,889.6h6v-3.2h-6V889.6z M314,894.4h6v-3.2h-6V894.4z M327.8,886.4h-6v3.2h6V886.4z M321.7,894.4h6v-3.2h-6
			V894.4z"/>
		<path class="st6" d="M332.7,902.3c1.9-0.7,4.1-1.6,6.7-2.8v-7.4h-6.2v-1.7h6.2v-6.6h1.7v22.5h-1.7v-4.9c-1.4,0.6-3.4,1.5-6,2.7
			L332.7,902.3z M345.4,883.8h1.7v7.9c2-1.1,3.8-2.3,5.5-3.6l1.1,1.7c-1.6,1.1-3.7,2.4-6.6,3.9v8.6c0,1.1,0.5,1.6,1.6,1.6h1.5
			c1,0,1.6-0.5,1.7-1.6c0.1-1,0.2-2.3,0.3-3.8c0.6,0.3,1.2,0.5,1.8,0.8c-0.1,1.5-0.3,2.8-0.5,3.8c-0.3,1.8-1.3,2.7-3,2.7h-2.3
			c-2,0-3-1.1-3-3.2V883.8z"/>
		<path class="st6" d="M357.2,885.2h18.5v1.8H359v16.4h17.1v1.8h-18.9V885.2z M360.7,889.6l1.2-1.2c1.8,1.6,3.7,3.4,5.6,5.3
			c1.5-1.8,2.9-3.7,4.3-5.8l1.6,1.1c-1.5,2.1-3,4.1-4.6,5.9c1.8,1.8,3.6,3.7,5.6,5.7l-1.5,1.6c-1.7-2-3.5-3.9-5.4-5.9
			c-2.1,2.3-4.2,4.3-6.3,6c-0.3-0.5-0.8-1-1.4-1.5c2.3-1.7,4.4-3.6,6.4-5.8C364.4,893.3,362.6,891.5,360.7,889.6z"/>
		<path class="st6" d="M382.3,889.3c0.5,0.5,1,0.9,1.4,1.3c-1.3,2-2.6,4.2-4,6.6l-1.5-1.2C379.6,894,380.9,891.8,382.3,889.3z
			 M380.2,883.7c1.2,1.1,2.3,2.2,3.4,3.3c-0.5,0.5-0.9,1-1.3,1.4c-1-1.2-2.1-2.3-3.2-3.4L380.2,883.7z M381.2,897.6h15.2v9.1h-1.7
			v-1.3h-11.9v1.3h-1.7V897.6z M390.3,888.1c0.5,0,1,0,1.5,0c0,0.2,0,0.5-0.1,0.9c1.4,3.4,4,5.5,7.9,6.4c-0.4,0.6-0.7,1.2-1,1.8
			c-3.7-1.2-6.1-3.3-7.4-6.1c-1.2,2.9-3.7,5-7.6,6.1c-0.2-0.5-0.6-1.1-1-1.7C387.2,894.4,389.8,892,390.3,888.1z M394.7,899.3h-11.9
			v4.6h11.9V899.3z M383.9,890.1c1.6-1.8,2.8-4,3.4-6.5h1.7c-0.2,0.9-0.5,1.7-0.8,2.5h10.1v1.6c-0.6,1-1.2,2.1-1.8,3.3
			c-0.6-0.3-1.1-0.5-1.7-0.6c0.6-0.9,1.1-1.8,1.5-2.7h-8.8c-0.6,1.3-1.3,2.5-2.2,3.6C385,890.9,384.5,890.5,383.9,890.1z"/>
		<path class="st6" d="M407.4,901.1c0,0.8,0.1,1.5,0.2,2c-1.8,1.3-3.2,2.3-4,3.1l-1-1.6c0.5-0.5,0.7-1.1,0.7-2v-9.3h-2.5v-1.7h4.2
			V903C405.7,902.4,406.5,901.7,407.4,901.1z M402.9,884c1.6,1.8,2.7,3,3.4,3.9l-1.5,1.3c-0.9-1.3-2-2.6-3.2-4L402.9,884z
			 M405.9,891.2c1.8-2.2,3.3-4.9,4.5-7.8l1.6,0.7c-0.4,0.8-0.8,1.6-1.2,2.4h10.5c-0.2,7.1-0.3,12.3-0.4,15.5
			c-0.1,2.8-1.2,4.2-3.4,4.2c-1.3,0-2.5,0-3.5-0.1c-0.1-0.6-0.2-1.3-0.4-2.1c1.3,0.2,2.4,0.3,3.5,0.3c1.3,0,2-0.9,2.1-2.7
			c0.1-3.5,0.3-8,0.4-13.5h-9.7c-0.9,1.5-1.7,2.9-2.7,4.1C406.9,892,406.5,891.6,405.9,891.2z M408.6,890.9h7.9v10.7h-6.3v1.4h-1.6
			V890.9z M414.9,892.5h-4.8v2.9h4.8V892.5z M414.9,900v-3h-4.8v3H414.9z"/>
		<path class="st6" d="M438.6,886.6c2.3,2.3,4.4,4.6,6.4,7l-1.5,1.4c-0.6-0.7-1.2-1.5-1.7-2.2c-6.5,0.3-11.4,0.6-14.8,0.8
			c-0.8,0.1-1.6,0.2-2.3,0.4l-0.7-2c0.7-0.3,1.3-0.6,1.8-1.1c2.5-2.2,4.7-4.7,6.7-7.6l1.6,1.1c-2.2,2.8-4.4,5.2-6.7,7.3
			c4.4-0.1,8.7-0.3,13-0.5c-1-1.2-2-2.3-3-3.4L438.6,886.6z M441.7,895.9v10.6H440V905h-11.9v1.5h-1.8v-10.6H441.7z M440,897.7
			h-11.9v5.7H440V897.7z"/>
		<path class="st6" d="M452,900.8l1,1.3c-1.9,1.5-3.9,2.8-6,4c-0.3-0.5-0.6-1-1.1-1.5C448.1,903.5,450.1,902.2,452,900.8z
			 M460.9,895.3c2,1.6,3.7,3.1,5.3,4.6l-1.3,1.3c-0.5-0.5-0.9-1-1.4-1.5c-1.9,0.1-3.8,0.2-5.7,0.3v3.5c0,1.9-0.9,2.9-2.8,2.9
			c-0.8,0-1.8,0-2.7,0c-0.1-0.6-0.2-1.2-0.3-1.9c1,0.1,1.9,0.2,2.7,0.2c1,0,1.5-0.5,1.5-1.5v-3c-1.5,0.1-2.9,0.2-4.2,0.3
			c-0.8,0.1-1.7,0.2-2.5,0.3l-0.6-1.9c1-0.2,2-0.6,2.9-1.1c1.4-0.7,2.7-1.5,3.9-2.2c-1.2,0.1-2.3,0.2-3.3,0.3
			c-0.7,0.1-1.3,0.2-1.8,0.3l-0.5-1.6c0.6-0.2,1.2-0.6,1.8-1c0.9-0.7,1.9-1.4,2.9-2.3h-6.3v2.7h-1.7v-4.3h9.1v-2.2h-8.4v-1.6h8.4
			v-2.3h1.8v2.3h8.5v1.6h-8.5v2.2h9.1v4.3h-1.7v-2.7h-8.2c-1.5,1.3-2.9,2.4-4.2,3.3c1.7-0.1,3.4-0.1,5-0.2c1-0.7,1.9-1.3,2.8-2
			l1.3,1.1c-3.2,2.1-6.3,4-9.2,5.5c3-0.1,6.2-0.3,9.5-0.5c-0.7-0.7-1.4-1.3-2.2-2L460.9,895.3z M460.7,901c2.5,1.2,4.7,2.4,6.7,3.5
			c-0.4,0.6-0.8,1.1-1,1.6c-1.9-1.3-4.1-2.5-6.6-3.8L460.7,901z"/>
		<path class="st6" d="M468.6,901.1c0.6-0.1,1.3-0.2,1.9-0.3v-14.5h-1.6v-1.6h10.6v0.8h9.4v1.5c-0.8,5.8-2.1,10-3.7,12.7
			c1.4,2.1,3,3.7,4.9,4.9c-0.4,0.5-0.8,1-1.3,1.7c-1.5-1.2-3.1-2.9-4.5-5.1c-1.5,2.1-3.2,3.9-5.2,5.4c-0.4-0.6-0.8-1.1-1.1-1.5v1.5
			h-1.6v-5.1c-2.6,0.4-5.1,0.9-7.5,1.3L468.6,901.1z M472.1,889.9h4.2v-3.6h-4.2V889.9z M472.1,895h4.2v-3.6h-4.2V895z M476.3,899.9
			v-3.4h-4.2v4.1C473.5,900.4,474.9,900.2,476.3,899.9z M479.3,887.1v-0.8h-1.3v13.3c0.8-0.1,1.6-0.3,2.5-0.4c0,0.6-0.1,1.2-0.1,1.6
			c-0.8,0.1-1.6,0.3-2.4,0.4v3.8c2-1.3,3.8-3,5.3-5.3c-1.7-2.9-2.7-7.1-3.2-12.6H479.3z M487.3,887.1h-5.6c0.3,4.6,1.2,8.2,2.6,11
			C485.5,895.9,486.5,892.2,487.3,887.1z"/>
		<path class="st6" d="M491.2,896.2c1-0.3,2.1-0.6,3.2-1V890h-2.9v-1.6h2.9v-4.6h1.7v4.6h2.7v1.6h-2.7v4.6c0.8-0.2,1.6-0.5,2.4-0.8
			c0,0.8,0,1.4,0,1.9c-0.7,0.2-1.5,0.5-2.4,0.8v7.1c0,1.7-0.6,2.6-1.9,2.6c-0.7,0-1.4,0-2.3,0c-0.1-0.7-0.2-1.3-0.3-2
			c0.9,0.1,1.5,0.1,2,0.1c0.6,0,0.9-0.4,0.9-1.1v-6.2c-0.9,0.3-1.9,0.7-3,1.1L491.2,896.2z M500,885.4c3.7,0,7.6-0.3,11.5-1l0.6,1.8
			c-4.3,0.5-7.8,0.8-10.4,0.8v5.5h11v1.7h-3.9v12.3H507v-12.3h-5.3c0,5.6-1,9.8-3,12.4c-0.4-0.5-0.8-1-1.4-1.5
			c1.8-2.3,2.7-5.9,2.7-10.9V885.4z"/>
		<path class="st6" d="M513.9,905c3.7-0.9,6.2-2,7.6-3.2c1.6-1.4,2.4-3.6,2.4-6.5v-2.6h1.7v2.7c0,1.6-0.2,3-0.6,4.2
			c3.6,1.7,6.9,3.5,9.9,5.3l-1.1,1.8c-2.8-1.8-5.9-3.7-9.4-5.5c-0.5,1-1.2,1.8-2,2.4c-1.7,1.4-4.1,2.5-7.4,3.3
			C514.7,906.4,514.4,905.7,513.9,905z M516.7,889.6h6.1c0.2-0.8,0.4-1.9,0.6-3.1h-9.2v-1.7h20.7v1.7h-9.5c-0.3,1.2-0.6,2.3-0.9,3.1
			h8.1v11.2h-1.7v-9.4h-12.5v9.5h-1.7V889.6z"/>
		<path class="st6" d="M49.2,925.6c0-0.4,0.1-0.8,0.4-1.1c0.3-0.3,0.6-0.4,1-0.4c0.4,0,0.7,0.1,1,0.4c0.3,0.3,0.4,0.6,0.4,1.1
			c0,0.4-0.1,0.8-0.4,1.1c-0.3,0.3-0.6,0.4-1,0.4c-0.4,0-0.7-0.1-1-0.4C49.3,926.3,49.2,926,49.2,925.6z"/>
		<path class="st6" d="M62,919.9v-1.7h8.6v1.7c-0.8,1.6-1.8,3.2-3,4.7v12h-1.7v-10.1c-1.2,1.4-2.6,2.7-4.1,3.9c-0.2-1-0.4-1.6-0.6-2
			c3.2-2.6,5.7-5.4,7.5-8.6H62z M64.9,914.5l1.3-1c0.8,1,1.5,2.1,2.3,3.1l-1.4,1.1C66.4,916.6,65.6,915.5,64.9,914.5z M68,925.8
			l1-1.2c1.3,0.9,2.5,2,3.8,3l-1.1,1.4C70.4,927.9,69.2,926.8,68,925.8z M73.8,913.9h1.7v18.7c0,1,0.5,1.5,1.5,1.5h1.8
			c1,0,1.6-0.5,1.8-1.6c0.1-1.1,0.2-2.6,0.3-4.4c0.6,0.3,1.2,0.5,1.8,0.7c-0.2,2.2-0.3,3.8-0.5,4.7c-0.3,1.6-1.3,2.4-3.2,2.4h-2.3
			c-1.9,0-2.9-1-2.9-3.1V913.9z"/>
		<path class="st6" d="M85,925.8h8.2v10.8h-1.6V935h-4.9v1.6H85V925.8z M91.6,927.4h-4.9v6h4.9V927.4z M87.1,914.6H102v9.3h-1.7
			v-0.8H88.8v0.8h-1.7V914.6z M100.3,916.2H88.8v5.2h11.4V916.2z M95.9,925.8h8.2v10.8h-1.6V935h-5v1.6h-1.6V925.8z M102.5,927.4h-5
			v6.1h5V927.4z"/>
		<path class="st6" d="M106.5,928.3c1.4-2.3,2.5-5.1,3.3-8.3h-3v-1.6h3.2v-4.6h1.6v4.6h2.5v1.6h-2.5v3.7l0.9-0.8
			c0.9,1,1.9,2,2.8,3.1l-1.2,1.2c-1.1-1.4-1.9-2.3-2.4-2.9v12.5h-1.6v-12.9c-0.8,2.5-1.7,4.7-2.7,6.4
			C107,929.7,106.8,929,106.5,928.3z M113.6,929h6.3v-3.8h-4.7v-1.6h4.7v-3.7h-5.2v-1.6h6.7c1.2-1.9,2.1-3.4,2.7-4.6l1.6,1.1
			c-0.7,1.1-1.6,2.3-2.5,3.5h3.9v1.6h-5.5v3.7h4.9v1.6h-4.9v3.8h6.2v1.6h-6.2v6.1h-1.7v-6.1h-6.3V929z M115.9,914.6l1.3-1
			c1.1,1.4,1.9,2.5,2.4,3.2l-1.5,1.1C117.3,916.5,116.6,915.4,115.9,914.6z"/>
		<path class="st6" d="M129.1,918h12c-0.1-1.4-0.1-3-0.1-4.6h1.8c0,1.5,0,3.1,0.1,4.6h7.4v1.8h-7.3c0.3,7.9,1.5,12.7,3.6,14.3
			c0.8,0.7,1.3,0.5,1.6-0.6c0.2-0.8,0.4-2,0.6-3.6c0.7,0.3,1.3,0.5,1.7,0.6c-0.3,1.8-0.6,3.3-0.9,4.4c-0.3,1.1-1,1.6-2,1.6
			c-1,0-2-0.5-3-1.6c-2.1-2.4-3.2-7.4-3.5-15.2h-12.1V918z M129.2,932.9c1.6-0.2,3.3-0.4,5-0.7v-6.6H130v-1.8h10.1v1.8H136v6.3
			c1.7-0.3,3.4-0.5,5.2-0.8c0,0.6,0,1.2,0,1.9c-4.3,0.7-8.1,1.3-11.5,1.9L129.2,932.9z M144.5,914.8l1-1.2c1,0.8,2.1,1.7,3.1,2.8
			l-1.2,1.4C146.5,916.8,145.5,915.8,144.5,914.8z"/>
		<path class="st6" d="M161.4,927.1c0,1,0.1,1.8,0.2,2.2c-3.5,2.4-5.6,3.8-6.4,4.5c-0.5,0.4-0.9,0.8-1.4,1.2l-1.2-1.9
			c0.7-0.7,1-1.4,1-2.4v-16.3h1.8v16.8C156.8,930.2,158.9,928.8,161.4,927.1z M168,914.1h1.8v4.2c0,4.3-0.5,7.8-1.5,10.3
			c1.8,2,3.5,4,5,5.9l-1.5,1.5c-1.5-2-2.9-3.9-4.4-5.7c-1.7,2.7-4.2,4.9-7.5,6.4c-0.3-0.5-0.7-1-1.2-1.6c3.6-1.8,6.1-3.9,7.3-6.3
			c1.3-2.3,2-5.9,2-10.6V914.1z M160.5,913.6c1,1.7,2,3.6,3.2,6l-1.7,1c-1.1-2.4-2.1-4.4-3.1-6.1L160.5,913.6z"/>
		<path class="st6" d="M174.4,935c5.3-1.1,8.7-2.8,10.2-5.1h-9.9v-1.7h10.7c0.5-1.6,0.7-4.5,0.7-8.5h1.8c0,4-0.2,6.9-0.6,8.5h8.2
			v1.7h-8.8c-0.1,0.2-0.3,0.5-0.4,0.8c3.1,1.4,6.1,2.9,9,4.4l-0.9,1.8c-3.1-1.7-6.1-3.3-9.1-4.8c-2,2.1-5.2,3.7-9.8,4.8
			C175.1,936.2,174.8,935.5,174.4,935z M175.2,916.9h9.9c-0.4-0.7-0.8-1.5-1.4-2.5l1.6-1c0.5,0.7,1,1.6,1.7,2.7l-1.2,0.7h9.2v4.2
			h-1.7v-2.5h-16.3v2.5h-1.7V916.9z M177.8,923.3c1.7,0.8,3.2,1.7,4.7,2.6l-0.9,1.6c-1.4-1-3-1.8-4.5-2.7L177.8,923.3z M179.8,919.7
			c1.7,0.9,3.2,1.8,4.5,2.6l-1,1.6c-1.3-0.9-2.8-1.9-4.4-2.9L179.8,919.7z"/>
		<path class="st6" d="M197,927.6c1.3-0.5,2.7-1,4.1-1.5v-5.5h-2c-0.3,1.5-0.6,2.8-1,4.1c-0.5-0.4-0.9-0.7-1.4-1
			c0.8-2.1,1.3-4.7,1.5-7.7l1.6,0.3c-0.1,1-0.2,1.9-0.4,2.8h1.7v-5.3h1.6v5.3h2.1v1.6h-2.1v4.9c0.7-0.3,1.4-0.6,2.2-0.9
			c0.1,0.7,0.2,1.3,0.2,1.8c-0.7,0.3-1.5,0.6-2.4,1v9.3h-1.6V928c-1.1,0.5-2.4,1-3.8,1.6L197,927.6z M204,922.8
			c1.4-2.4,2.7-5.5,3.9-9.3l1.6,0.5c-0.4,1.2-0.8,2.4-1.2,3.5h9.4c-0.3,6.3-0.5,11.1-0.7,14.5c-0.2,2.6-1.3,3.9-3.5,3.9
			c-0.8,0-1.8,0-2.8-0.1c-0.1-0.6-0.2-1.2-0.3-2c1.2,0.2,2.2,0.2,3,0.2c1.2,0,1.8-0.7,1.9-2.2c0.3-3.3,0.5-7.5,0.7-12.7h-1.6
			c-0.4,4-1,7.1-1.8,9.4c-1.1,3-3.1,5.5-5.9,7.6c-0.3-0.5-0.7-1-1.1-1.4c2.7-2.1,4.5-4.4,5.6-7.1c0.8-2.2,1.4-5,1.6-8.5h-1.9
			c-0.4,3-1,5.4-1.7,7.2c-0.9,2-2.2,3.9-3.9,5.5c-0.4-0.5-0.7-1-1.1-1.4c1.6-1.5,2.9-3.2,3.6-4.9c0.8-1.7,1.3-3.9,1.5-6.4h-1.6
			c-0.7,1.8-1.5,3.3-2.2,4.5C205,923.4,204.6,923.1,204,922.8z"/>
		<path class="st6" d="M220.5,919.7h8.1c0.2-1.9,0.3-4,0.3-6.2h1.9c0,2.3-0.1,4.4-0.3,6.2h9.2c-0.1,4.8-0.2,8.8-0.4,12
			c-0.1,2.9-1.6,4.4-4.3,4.4c-1.1,0-2.5,0-4-0.1c-0.1-0.6-0.2-1.3-0.3-2.2c1.4,0.2,2.7,0.3,4,0.3c1.7,0,2.6-0.9,2.7-2.8
			c0.2-3.1,0.3-6.3,0.4-9.8h-7.5c-1.1,6.9-4,12-8.9,15.4c-0.4-0.5-0.8-1.1-1.3-1.7c4.5-2.9,7.2-7.4,8.3-13.6h-7.8V919.7z M222.1,915
			l1.2-1.2c1.2,1.1,2.3,2.3,3.4,3.5l-1.3,1.3C224.3,917.4,223.2,916.2,222.1,915z M230.8,925.7l1.2-1.1c1.4,1.4,2.6,2.8,3.8,4.1
			l-1.3,1.3C233.3,928.6,232.1,927.2,230.8,925.7z"/>
		<path class="st6" d="M243.8,914.8c1.2,1.5,2.4,3.1,3.6,4.8c-0.1,0.1-0.6,0.5-1.5,1.4c-1.1-1.6-2.2-3.3-3.5-5L243.8,914.8z
			 M245.7,924.4c0.6,0.3,1.1,0.6,1.6,0.8c-1,3.2-2,6.5-3,9.7l-1.8-0.9C243.6,931.2,244.7,928,245.7,924.4z M246.8,923.1
			c2.1-2.8,3.7-6,5-9.6l1.6,0.6c-0.5,1.2-1,2.3-1.5,3.4h11.3v1.6h-5.2v3.5h4.7v1.6h-4.7v3.5h4.7v1.6h-4.7v3.8h5.5v1.6h-12.1v1.9
			h-1.7v-14.9c-0.6,1-1.2,1.9-1.8,2.8C247.7,924.1,247.3,923.6,246.8,923.1z M251.5,922.7h4.9v-3.5h-4.9V922.7z M251.5,927.8h4.9
			v-3.5h-4.9V927.8z M251.5,933.2h4.9v-3.8h-4.9V933.2z M255.5,914.3l1.4-1c0.6,0.8,1.2,1.7,1.9,2.8l-1.5,1.1
			C256.6,916.1,256,915.2,255.5,914.3z"/>
		<path class="st6" d="M276.8,930.6l-1.8,6.2h-1.5l1.3-6.2H276.8z"/>
		<path class="st6" d="M287.7,927.1h3.3c0.3-0.6,0.6-1.2,0.9-1.8l1.6,0.5c-0.2,0.4-0.5,0.9-0.7,1.3h5.3v1.5c-0.5,1.5-1.4,2.9-2.5,4
			c0.8,0.4,1.6,0.8,2.4,1.2l-0.9,1.6c-0.9-0.5-1.8-1.1-2.8-1.6c-1.6,1.3-3.7,2.3-6.1,3c-0.2-0.5-0.5-1-0.7-1.6
			c2.1-0.5,3.9-1.3,5.3-2.2c-1.2-0.7-2.5-1.4-3.9-2.1c0.5-0.7,0.9-1.5,1.3-2.2h-2.5V927.1z M288,919.1h5v-5.2h1.6v5.2h4.1v1.5h-4.1
			v1.4l0.6-0.8c1.3,1.1,2.5,2,3.4,2.8l-1,1.3c-0.8-0.8-1.8-1.7-3-2.7v2.7h-1.6V922c-1.3,1.5-2.8,2.8-4.6,3.9
			c-0.3-0.5-0.6-0.9-0.9-1.4c1.8-1.1,3.5-2.4,5-3.9H288V919.1z M288.5,915.4l1.2-0.9c0.6,0.9,1.3,1.8,2,2.8l-1.3,1
			C289.8,917.3,289.2,916.4,288.5,915.4z M291,930.4c1,0.5,2.1,1,3.1,1.6c1-0.9,1.8-2,2.3-3.3h-4.5
			C291.6,929.3,291.3,929.8,291,930.4z M297.7,914.4l1.3,1c-0.8,1.1-1.6,2.2-2.4,3.1c-0.3-0.3-0.7-0.6-1.2-1
			C296.2,916.6,297,915.5,297.7,914.4z M301.6,913.6l1.7,0.3c-0.3,1.5-0.7,2.9-1.1,4.2h6.6v1.6h-1.4c-0.4,4.6-1.3,8.2-2.8,10.9
			c1.2,1.7,2.6,3.1,4.4,4.2c-0.5,0.7-0.8,1.3-1.2,1.9c-1.8-1.2-3.2-2.7-4.4-4.4c-1.3,1.8-2.9,3.3-4.7,4.6c-0.3-0.5-0.7-0.9-1.2-1.5
			c2-1.4,3.6-3.1,4.9-4.9c-1.2-2.2-1.9-4.7-2.3-7.6c-0.3,0.6-0.6,1.1-0.9,1.6c-0.3-0.5-0.6-1-1.1-1.5
			C299.9,920.5,301,917.4,301.6,913.6z M305.8,919.7h-4c-0.1,0.2-0.2,0.4-0.2,0.6c0.3,3.3,1,6.1,2.2,8.5
			C304.8,926.5,305.5,923.5,305.8,919.7z"/>
		<path class="st6" d="M310.2,934.5h9.9v-1.3h-8.6V932h8.6v-1.3H315v0.6h-1.5v-7.2h14.8v7.2h-1.5v-0.6h-5.2v1.3h8.7v1.2h-8.7v1.3
			h9.9v1.3h-21.3V934.5z M310.4,921.7h21v1.3h-21V921.7z M313.7,914.5h14.4v6.7h-1.5v-0.6h-11.5v0.6h-1.5V914.5z M315,926.8h5.1
			v-1.5H315V926.8z M315,929.4h5.1v-1.5H315V929.4z M326.7,915.7h-11.5v1.2h11.5V915.7z M315.2,919.3h11.5v-1.3h-11.5V919.3z
			 M326.8,925.3h-5.2v1.5h5.2V925.3z M321.6,929.4h5.2v-1.5h-5.2V929.4z"/>
		<path class="st6" d="M338.9,936.6h-1.7v-12.1c-1,1.3-2.2,2.6-3.4,3.8c-0.3-0.5-0.6-1.1-1-1.7c2.8-2.5,4.9-5.3,6.5-8.4h-5.9v-1.7
			h6.7c0.4-1,0.8-2,1.1-3l1.8,0.4c-0.3,0.9-0.6,1.7-0.9,2.6h12.2v1.7h-13c-0.4,0.9-0.9,1.8-1.5,2.7h11.8v12.5c0,1.9-0.9,2.9-2.6,2.9
			c-0.8,0-1.9,0-3.5,0c-0.1-0.5-0.2-1.2-0.3-1.9c1.3,0.1,2.4,0.2,3.2,0.2c1,0,1.5-0.5,1.5-1.6v-1.7h-10.9V936.6z M349.7,922.5h-10.9
			v2.8h10.9V922.5z M338.9,929.7h10.9v-2.8h-10.9V929.7z"/>
		<path class="st6" d="M362.9,927.5c0.4,3-0.3,4.7-2,5c-0.6,0.1-1.4,0.2-2.2,0c-0.1-0.6-0.3-1.3-0.5-2c0.8,0.2,1.4,0.3,2,0.2
			c1-0.2,1.3-1.3,1-3.4c-0.2-1.2-0.9-2.7-2-4.2c0.5-1.7,1.2-4,2-6.8h-3.2v20.5h-1.6v-22.1h6.5v1.6c-0.7,2.2-1.4,4.4-2,6.5
			C362.1,924.6,362.8,926.1,362.9,927.5z M364.3,914.8h10.2v11.7H373v-0.6h-3.6c0.4,1.4,1.1,2.7,1.8,3.8c1.3-0.9,2.7-2,4.1-3.3
			l1.1,1.5c-1.6,1.2-3,2.2-4.2,3.1c1.3,1.4,2.8,2.5,4.7,3.3c-0.5,0.6-1,1.1-1.4,1.7c-4-2.3-6.6-5.6-7.7-10.1h-1.9v8
			c1-0.5,2.2-1.2,3.8-2.1c0,0.7,0.1,1.3,0.1,1.9c-1.3,0.7-2.5,1.4-3.7,2.2c-0.3,0.2-0.7,0.5-1.2,1l-1.2-1.8c0.4-0.4,0.6-0.9,0.6-1.5
			V914.8z M373,916.4h-7v3.1h7V916.4z M373,924.3v-3.2h-7v3.2H373z"/>
		<path class="st6" d="M389.9,930.6l-1.8,6.2h-1.5l1.3-6.2H389.9z"/>
		<path class="st6" d="M409.7,934.5c3.2,0.1,7.3,0,12.4-0.1c-0.2,0.6-0.5,1.2-0.7,1.8c-5.1,0-9.1,0-11.9,0c-2.6-0.1-4.4-1-5.5-2.7
			c-0.4,0.4-1.3,1.4-2.5,3l-0.9-2c0.9-0.9,1.8-1.7,2.7-2.6v-8.2h-2.5V922h4.1v10.3C406,933.6,407.6,934.4,409.7,934.5z M402.9,913.9
			c1.1,1.4,2.2,2.9,3.3,4.6l-1.6,1.1c-0.9-1.6-2-3.1-3.1-4.6L402.9,913.9z M406.6,923.9h6.4c0-0.3,0-1.6,0-3.9h-5.7v-1.6h7.4
			c1.4-1.9,2.4-3.5,3-4.8l1.7,1.1c-0.6,0.8-1.5,2-2.8,3.7h4.5v1.6h-6.4c0,2,0,3.3,0,3.9h7v1.6h-7.1c0,0.4-0.1,0.8-0.2,1.2
			c2.3,1.6,4.5,3.3,6.6,5l-1.1,1.6c-2.2-1.9-4.2-3.5-6-4.9c-1,2.2-2.9,3.9-5.8,5.2c-0.4-0.5-0.8-1-1.2-1.5c3.7-1.6,5.7-3.8,6-6.6
			h-6.3V923.9z M408.9,914.7l1.3-1.1c0.7,0.9,1.6,1.9,2.5,3.2l-1.5,1.1C410.4,916.6,409.6,915.5,408.9,914.7z"/>
		<path class="st6" d="M423.9,926.2h20.3v1.7h-7v5c0,1,0.5,1.5,1.4,1.5h2.3c1,0,1.5-0.4,1.6-1.1c0.1-0.7,0.2-1.7,0.2-3.1
			c0.5,0.2,1.1,0.5,1.9,0.7c-0.1,1.3-0.2,2.3-0.4,3.1c-0.2,1.3-1.1,2-2.6,2h-3.5c-1.8,0-2.7-1-2.7-3v-5.2h-3.9
			c0,4.4-2.4,7.3-7.1,8.8c-0.3-0.5-0.6-1.1-1.1-1.7c4.3-1.1,6.4-3.5,6.5-7.1h-6V926.2z M424.1,916.5h9.2c-0.3-0.6-0.6-1.4-1.1-2.2
			l1.7-0.8c0.6,1.2,1,2.2,1.4,3.1h8.6v4.3h-1.8v-2.6h-16.3v2.6h-1.8V916.5z M426.6,921.3h15.2v1.6h-15.2V921.3z"/>
		<path class="st6" d="M453.2,927.3c1.8,2.3,3.2,4.3,4.4,6l-1.4,1.1c-0.5-0.8-1.1-1.6-1.7-2.5c-2.1,1.1-3.9,2-5.4,2.8
			c-0.5,0.3-0.9,0.6-1.3,1l-1.2-1.5c0.4-0.5,0.7-1.1,0.7-1.8v-17.3h8.7v12.1h-1.6v-0.6H449v6.2c1.4-0.6,2.9-1.4,4.6-2.2
			c-0.5-0.8-1.1-1.6-1.7-2.4L453.2,927.3z M454.4,916.8H449v3.3h5.4V916.8z M454.4,925v-3.3H449v3.3H454.4z M458.5,915.4h7.6v14.2
			c0,2-0.9,3-2.7,3c-0.6,0-1.5,0-2.5,0c-0.1-0.7-0.2-1.4-0.3-2c1.1,0.1,1.9,0.2,2.4,0.2c0.9,0,1.4-0.5,1.4-1.6v-11.9h-4.3v19.6h-1.6
			V915.4z"/>
		<path class="st6" d="M468.8,932.9h3.8v-14.9h1.8v14.9h5.3v-19.3h1.9v6.9h7.2v1.9h-7.2v10.5h8.4v1.9h-21.1V932.9z"/>
	</g>
</g>
<g>
</g>
<g>
</g>
<g>
</g>
<g>
</g>
<g>
</g>
<g>
</g>
<g>
</g>
<g>
</g>
<g>
</g>
<g>
</g>
<g>
</g>
<g>
</g>
<g>
</g>
<g>
</g>
<g>
</g>
</svg>
