<?xml version="1.0" encoding="utf-8"?>
<!-- Generator: Adobe Illustrator 17.0.0, SVG Export Plug-In . SVG Version: 6.00 Build 0)  -->
<!DOCTYPE svg PUBLIC "-//W3C//DTD SVG 1.1//EN" "http://www.w3.org/Graphics/SVG/1.1/DTD/svg11.dtd">
<svg version="1.1" id="Layer_1" xmlns="http://www.w3.org/2000/svg" xmlns:xlink="http://www.w3.org/1999/xlink" x="0px" y="0px"
	 width="720px" height="185px" viewBox="0 0 720 185" style="enable-background:new 0 0 720 185;" xml:space="preserve">
<style type="text/css">
	.st0{fill:none;}
	.st1{fill:#FFFFFF;}
	.st2{fill:#E3A8B0;}
	.st3{fill:#3E0C0F;}
</style>
<g id="_x32_-2.svg">
	<rect x="0" y="0" class="st0" width="720" height="185"/>
	<g>
		<path class="st1" d="M505.8,73.4V37.9h-4.9v-4.5c2.9-0.2,5.5-1.5,5.9-5h4.8v45H505.8z M526.4,73.9c-5.7,0-9.2-3.6-9.2-9.7V37.6
			c0-6.1,3.6-9.7,9.2-9.7c5.7,0,9.2,3.6,9.2,9.7v26.6C535.7,70.4,532.1,73.9,526.4,73.9z M530,37.9c0-3.2-1.5-4.6-3.6-4.6
			c-2.1,0-3.6,1.4-3.6,4.6v26.1c0,3.2,1.5,4.6,3.6,4.6c2.1,0,3.6-1.4,3.6-4.6V37.9z M550.1,73.9c-5.7,0-9.2-3.6-9.2-9.7V37.6
			c0-6.1,3.6-9.7,9.2-9.7c5.7,0,9.2,3.6,9.2,9.7v26.6C559.4,70.4,555.8,73.9,550.1,73.9z M553.7,37.9c0-3.2-1.5-4.6-3.6-4.6
			c-2.1,0-3.6,1.4-3.6,4.6v26.1c0,3.2,1.5,4.6,3.6,4.6c2.1,0,3.6-1.4,3.6-4.6V37.9z M565,81.5v-3.1c2.1-0.3,3.1-1.8,3.1-4.1v-0.9
			h-3.6v-7.1h6.6v8C571.1,79,568,81.3,565,81.5z M585.2,73.9c-5.7,0-9.2-3.6-9.2-9.7V37.6c0-6.1,3.6-9.7,9.2-9.7
			c5.7,0,9.2,3.6,9.2,9.7v26.6C594.4,70.4,590.9,73.9,585.2,73.9z M588.8,37.9c0-3.2-1.5-4.6-3.6-4.6c-2.1,0-3.6,1.4-3.6,4.6v26.1
			c0,3.2,1.5,4.6,3.6,4.6c2.1,0,3.6-1.4,3.6-4.6V37.9z M608.9,73.9c-5.7,0-9.2-3.6-9.2-9.7V37.6c0-6.1,3.6-9.7,9.2-9.7
			c5.7,0,9.2,3.6,9.2,9.7v26.6C618.1,70.4,614.6,73.9,608.9,73.9z M612.5,37.9c0-3.2-1.5-4.6-3.6-4.6c-2.1,0-3.6,1.4-3.6,4.6v26.1
			c0,3.2,1.5,4.6,3.6,4.6c2.1,0,3.6-1.4,3.6-4.6V37.9z M632.6,73.9c-5.7,0-9.2-3.6-9.2-9.7V37.6c0-6.1,3.6-9.7,9.2-9.7
			c5.7,0,9.2,3.6,9.2,9.7v26.6C641.8,70.4,638.3,73.9,632.6,73.9z M636.2,37.9c0-3.2-1.5-4.6-3.6-4.6c-2.1,0-3.6,1.4-3.6,4.6v26.1
			c0,3.2,1.5,4.6,3.6,4.6c2.1,0,3.6-1.4,3.6-4.6V37.9z"/>
		<path class="st2" d="M395.6,71c2.3-1,4.5-2,6.5-3.1l1.1,1.6c-2.3,1.2-4.5,2.3-6.7,3.2C396.2,72.2,395.9,71.6,395.6,71L395.6,71z
			 M412,62.1c2.2,1.9,3.9,3.6,5.2,5l-1.3,1.4c-0.6-0.7-1.2-1.4-1.9-2c-1.9,0.1-3.8,0.2-5.8,0.3v3.4c0,2.1-1,3.1-2.9,3.1
			c-1,0-2.1,0-3.3,0c-0.1-0.7-0.2-1.4-0.3-2.1c1.2,0.1,2.3,0.2,3.2,0.2c1,0,1.6-0.6,1.6-1.9v-2.6c-2.1,0.1-4.2,0.2-6.3,0.3
			c-0.7,0-1.3,0.1-2,0.2l-0.6-1.9c1-0.1,2-0.4,3.2-0.9c1.6-0.7,3.3-1.5,5.2-2.4c-1.9,0.1-3.7,0.2-5.2,0.3c-0.7,0.1-1.3,0.1-1.7,0.2
			l-0.6-1.7c0.8-0.2,1.6-0.4,2.4-0.8c1-0.5,2.1-1.1,3.1-1.7h-4.4v0.7h-1.8v-9.6h18.5v9.6h-1.8v-0.7h-7.8c-1.7,0.9-3.4,1.8-5.1,2.6
			c2-0.1,4.4-0.1,7.1-0.3c1.1-0.6,2.2-1.1,3.3-1.8l1.2,1.4c-3.7,1.9-7.5,3.7-11.4,5.2c3.9-0.2,7.5-0.4,10.7-0.6
			c-0.6-0.6-1.1-1.1-1.7-1.6L412,62.1z M399.5,53.3h6.6V51h-6.6V53.3z M399.5,56.9h6.6v-2.3h-6.6V56.9z M414.4,51h-6.6v2.3h6.6V51z
			 M407.8,56.9h6.6v-2.3h-6.6V56.9z M411.6,68c2.3,0.8,4.5,1.8,6.7,2.8l-0.7,1.7c-2.1-1-4.3-2-6.8-2.9L411.6,68z M422.5,68.9
			c-0.2-0.7-0.5-1.5-0.8-2.2c1.4-2.4,2.7-5.2,3.6-8.5h-3.5v-1.8h3.7v-4c-1,0.1-2.1,0.2-3.3,0.3c-0.1-0.6-0.2-1.2-0.4-1.9
			c3.2-0.2,5.9-0.5,8.3-0.8l0.4,1.9c-0.9,0.1-2.1,0.2-3.4,0.4v4.2h3.5v1.8h-3.5v3.6l0.9-0.9c0.9,1,2,2.2,3,3.5l-1.3,1.3
			c-0.8-1.1-1.7-2.2-2.6-3.3v11.3h-1.7V62.4C424.6,64.9,423.6,67.1,422.5,68.9L422.5,68.9z M429.4,71.9c1.9-2.1,3.5-4.2,4.9-6.3
			l1.5,1.2c-1.8,2.4-3.5,4.6-5.1,6.5C430.3,72.9,429.9,72.4,429.4,71.9L429.4,71.9z M431.8,50.8h11.8V64h-1.8v-1.2h-8.3V64h-1.8
			V50.8z M441.9,52.5h-8.3v8.6h8.3V52.5z M443.4,73.1c-1.4-2.2-2.8-4.3-4.3-6.2l1.4-1.1c1.4,1.8,2.9,3.8,4.5,6L443.4,73.1
			L443.4,73.1z M449,55.7c1.4,1.2,2.7,2.3,3.8,3.4c-0.6,0.7-1,1.2-1.4,1.6c-1.2-1.3-2.4-2.5-3.6-3.6L449,55.7z M448.3,72.8
			c0.8-2.7,1.5-5.9,2.2-9.7c0.7,0.3,1.3,0.6,1.9,0.8c-0.7,3-1.4,6.2-2.1,9.5L448.3,72.8L448.3,72.8z M449.8,49
			c1.1,0.9,2.2,1.9,3.3,3c-0.5,0.5-0.9,1.1-1.3,1.5c-1-1.2-2.1-2.2-3.2-3.2L449.8,49z M453.6,55.9H471v1.7h-5.2c0,0.9,0,1.7,0,2.6
			h4.5v10.1c0,2-0.9,3-2.6,3c-0.8,0-1.6,0-2.5-0.1c-0.1-0.6-0.2-1.3-0.4-2c1,0.1,1.8,0.2,2.5,0.2c0.9,0,1.4-0.5,1.4-1.5v-1.8
			c-0.3,0.3-0.7,0.7-1.2,1.2c-0.8-1.2-1.7-2.2-2.4-3.2c-0.6,1.9-1.6,3.5-2.9,4.8c-0.3-0.5-0.7-0.9-1.2-1.4c1.9-1.7,2.9-4.3,3.2-7.6
			h-3.8c0,0.7-0.1,1.3-0.2,1.9c0.9,0.9,1.7,1.8,2.6,2.7c-0.1,0.1-0.6,0.6-1.3,1.3c-0.6-0.7-1.2-1.5-1.8-2.1
			c-0.6,1.8-1.5,3.4-2.8,4.7c-0.3-0.3-0.6-0.7-0.9-1.1v4.1h-1.7V60.2h4.4c0-0.9,0-1.7,0-2.6h-5.1V55.9z M453.6,51.4h4.5v-2.8h1.8
			v2.8h5v-2.8h1.8v2.8h4.5v1.7h-4.5v2.2h-1.8v-2.2h-5v2.2h-1.8v-2.2h-4.5V51.4z M455.9,68.8c1.6-1.6,2.5-3.9,2.7-6.8h-2.7V68.8z
			 M460.3,57.7c0,0.7,0,1.6,0,2.6h3.9c0-0.8,0-1.7,0-2.6H460.3L460.3,57.7z M468.6,62h-2.8c0,0.8-0.1,1.6-0.3,2.3
			c1.3,1.4,2.3,2.6,3.1,3.6V62z M490.2,49.6l-4.8,10.8h3.8v2.4h-4.4v3.3h4.4v2.4h-4.4v4.8h-2.3v-4.8h-4.6v-2.4h4.6v-3.3h-4.6v-2.4
			h3.9l-4.8-10.8h2.6c2.2,5.3,3.6,8.7,4.1,10.2h0c0.2-0.6,0.6-1.8,1.3-3.6l2.7-6.6H490.2z"/>
		<path class="st3" d="M232.3,150.8c3-0.4,6.9-1.1,11.6-2c0,0.7,0,1.4,0.1,1.9c-3.5,0.6-7.2,1.3-11.2,2.1L232.3,150.8z M243.3,154.7
			c-0.4-0.4-0.8-0.9-1.4-1.5c1.9-1.4,3.7-3.1,5.1-5c-1-3-1.6-7.1-1.8-12.2h-12.6v-1.9h12.5c-0.1-1.4-0.1-2.9-0.2-4.4h1.9
			c0,1.5,0,3,0.1,4.4h8.3v1.9H247c0.1,4.2,0.5,7.7,1.3,10.3c1.5-2.3,2.7-4.9,3.6-7.7l1.8,0.8c-1.3,3.4-2.8,6.5-4.6,9.1
			c0.7,1.6,1.5,2.8,2.5,3.5c0.9,0.7,1.5,0.4,1.7-0.8c0.2-1.3,0.4-2.6,0.5-3.9c0.6,0.3,1.2,0.6,1.8,0.7c-0.3,1.9-0.6,3.4-0.8,4.4
			c-0.3,1.3-1,2-2.1,2c-0.9,0-1.8-0.4-2.6-1.1c-0.9-0.8-1.6-1.8-2.3-3.1C246.5,151.9,244.9,153.4,243.3,154.7L243.3,154.7z
			 M234.3,138.5h8.4v8.9H241v-1.2h-5v1.8h-1.7V138.5z M241,140.3h-5v4.2h5V140.3z M252.4,133.8c-1.2-1-2.4-1.9-3.7-2.9l1-1.3
			c1.3,0.8,2.5,1.7,3.8,2.7L252.4,133.8L252.4,133.8z M257,135.6h10v-2.8c-2.7,0.1-5.2,0.2-7.5,0.2c-0.1-0.6-0.2-1.2-0.3-1.8
			c4.9,0,10.6-0.3,17.1-0.8l0.3,1.8c-2.8,0.2-5.4,0.4-7.9,0.5v2.9h10.1v1.7h-8.7c2.5,2,5.6,3.6,9.3,4.6c-0.4,0.7-0.8,1.3-1.1,1.8
			c-4-1.5-7.2-3.5-9.7-6v4.3h-1.7v-4.3c-2.2,2.4-5.4,4.4-9.7,6.2c-0.2-0.4-0.6-1-1.1-1.7c3.8-1.2,6.8-2.8,9.2-5H257V135.6z
			 M260.1,142.7h15.4v11.7h-1.7v-1h-12v1h-1.7V142.7z M273.8,144.3h-12v2.9h12V144.3z M261.8,151.8h12v-2.9h-12V151.8z M281.1,136.3
			c1.5,1.2,2.9,2.3,4.2,3.6l-1.4,1.6c-1.8-1.7-3.1-2.9-3.9-3.6L281.1,136.3z M285.5,137.6h4.4v-3.3h-3.2v-1.7h3.2v-3h1.7v3h4.7v-3
			h1.7v3h3.7v1.7H298v3.3h4.6v1.7h-4.6c1.3,2.2,3.1,4,5.2,5.5c-0.5,0.6-0.9,1.1-1.2,1.7c-1.4-1.1-2.6-2.3-3.6-3.6v6.4h-1.7v-0.7
			h-6.7v1.7c0,1.1,0.5,1.7,1.5,1.7h6.3c1,0,1.6-0.5,1.9-1.5c0.2-0.7,0.3-1.5,0.4-2.7c0.5,0.2,1.1,0.5,1.7,0.8
			c-0.2,1-0.4,1.8-0.5,2.5c-0.5,1.8-1.5,2.6-3.3,2.6h-6.9c-1.9,0-2.9-1-2.9-3.1v-6.4c-0.8,0.9-1.7,1.8-2.7,2.6
			c-0.3-0.5-0.7-1.1-1.2-1.7c-0.7,3.3-1.3,6.4-1.9,9.3l-2.1-0.7c0.7-2.7,1.5-6.2,2.2-10.5c0.7,0.3,1.3,0.6,1.9,0.8
			c-0.1,0.3-0.1,0.6-0.2,0.9c2.2-1.5,3.9-3.4,5.1-5.8h-4.2V137.6z M282.2,130.2c1.2,1,2.6,2.3,4,3.7l-1.4,1.5
			c-1.7-1.8-3-3.1-3.8-3.8L282.2,130.2z M291.5,139.3c-0.5,1.1-1,2.1-1.7,3.1h8.2c-0.7-1-1.3-2-1.9-3.1H291.5L291.5,139.3z
			 M296.8,144h-6.7v3h6.7V144z M291.6,137.6h4.7v-3.3h-4.7V137.6z M317.3,147.2c2.1,3.1,5.4,4.8,10,5.1c-0.5,0.7-0.9,1.4-1.3,2.1
			c-4.9-0.9-8.3-3.1-10.3-6.7c-1.7,3.6-5.2,5.9-10.5,7c-0.3-0.6-0.7-1.3-1.1-1.9c5.1-0.8,8.3-2.6,9.8-5.6h-9.3v-1.8h10
			c0.2-0.5,0.3-1.1,0.4-1.7h1.9c-0.1,0.6-0.3,1.2-0.4,1.7h10.4v1.8H317.3L317.3,147.2z M304.4,140.4c1.6-1.5,3.1-3,4.4-4.5l1.5,1.2
			c-1.4,1.7-3,3.2-4.5,4.8C305.3,141.2,304.8,140.8,304.4,140.4L304.4,140.4z M304.7,132.7h10.7c-0.4-0.7-0.8-1.5-1.3-2.4l1.7-0.9
			c0.6,1,1.1,2,1.6,2.8l-0.8,0.5h10.2v1.8h-6.6v5.9c0,1.8-0.9,2.7-2.6,2.7c-0.9,0-1.7,0-2.4-0.1c-0.1-0.7-0.2-1.4-0.4-2
			c0.9,0.1,1.7,0.2,2.4,0.2c0.8,0,1.1-0.4,1.1-1.2v-5.6h-4.5c0,2.4-0.4,4.3-1,5.5c-0.7,1.5-2.2,2.8-4.4,4.2
			c-0.4-0.6-0.8-1.1-1.2-1.7c2-1.1,3.4-2.2,4-3.5c0.5-0.9,0.8-2.4,0.8-4.6h-7.4V132.7z M325.3,141.6c-1.5-1.7-2.9-3.2-4.2-4.5
			l1.3-1.2c1.5,1.4,3,2.8,4.3,4.2L325.3,141.6L325.3,141.6z M342,138.1v2.5h8.7v1.8H342v2.9h6.4v9.3h-1.8v-1.3h-10.9v1.3h-1.8v-9.3
			h6.3v-2.9h-7.9c0,5.1-1,9.2-3,12.1c-0.4-0.5-0.8-1.1-1.4-1.7c1.7-2.7,2.6-6.3,2.6-10.8v-11.2h18.4v8.1h-1.8v-1.3h-14.8v3h7.9v-2.5
			H342z M347.1,132.5h-14.8v3.3h14.8V132.5z M346.6,147.1h-10.9v4.5h10.9V147.1z M353,136.6c1.6,1.3,2.9,2.4,4,3.4l-1.4,1.7
			c-1.3-1.3-2.6-2.5-3.9-3.6L353,136.6z M352.6,153.3c1.1-3,2-6.1,2.8-9.3c0.6,0.4,1.2,0.7,1.9,1c-1,3.4-1.8,6.5-2.6,9.3
			L352.6,153.3L352.6,153.3z M354.1,130.1c1.2,1,2.6,2.2,4,3.6l-1.4,1.6c-1.4-1.5-2.7-2.7-3.9-3.8L354.1,130.1z M358.8,136h4.5v-3.4
			h-5v-1.8h16.7v1.8h-5.6v3.4h4.6v18.7h-1.7v-1.4h-11.7v1.4h-1.7V136z M370.2,144.2c-1.7,0-2.6-1-2.6-2.9v-3.6h-2.7v0.5
			c0,3.1-1.1,5.6-3.4,7.3c-0.3-0.4-0.6-0.8-1.1-1.3v2.3h11.7v-2.3H370.2L370.2,144.2z M360.4,144c1.9-1.4,2.8-3.3,2.8-5.9v-0.4h-2.8
			V144z M360.4,151.5h11.7v-3.2h-11.7V151.5z M364.9,136h2.7v-3.4h-2.7V136z M369.3,141.1c0,0.9,0.4,1.3,1.3,1.3c0.4,0,0.9,0,1.6,0
			v-4.7h-2.9V141.1L369.3,141.1z M387.8,132.5c-0.4-0.8-0.8-1.5-1.2-2.3l1.7-0.9c0.6,1,1.2,2.1,1.8,3.2h9v1.9h-19v8.5
			c-0.2,5.3-1.2,9.3-3.2,11.9c-0.4-0.5-0.8-1.1-1.3-1.7c1.7-2.4,2.5-6,2.5-10.6v-9.9H387.8L387.8,132.5z M387.7,135.1h1.9v3.2h8.8
			v1.8h-8.8v3.6h6.9v10.9h-1.9v-1.7H384v1.7h-1.9v-10.9h5.5V135.1z M394.6,145.5H384v5.6h10.6V145.5z M400.8,147.5
			c0.6,0.5,1.3,1,2.2,1.3c0.9,0.3,1.8,0.5,2.6,0.5c2.5,0,3.8-1,3.8-2.9c0-0.5-0.1-1-0.4-1.5c-0.3-0.4-0.6-0.8-1.1-1.2
			c-0.5-0.3-1.4-0.9-2.7-1.6c-1.8-1-3-1.9-3.6-2.7c-0.6-0.8-0.9-1.8-0.9-2.9c0-1.6,0.6-2.9,1.8-3.9c1.2-1,2.7-1.4,4.6-1.4
			c1.8,0,3.1,0.2,4,0.7v2.8c-1.1-0.8-2.5-1.2-4.1-1.2c-1.1,0-2,0.3-2.7,0.8c-0.7,0.5-1,1.2-1,2.1c0,0.8,0.2,1.4,0.7,1.9
			c0.5,0.5,1.5,1.2,3.1,2c1.8,0.9,3,1.8,3.7,2.8c0.7,0.9,1.1,2,1.1,3.1c0,1.7-0.6,3.1-1.7,4c-1.2,0.9-2.8,1.4-4.8,1.4
			c-0.7,0-1.6-0.1-2.5-0.3c-1-0.2-1.6-0.5-2.1-0.8V147.5z M421.4,151.1c-0.5,0.3-1.2,0.4-2,0.4c-2.3,0-3.5-1.4-3.5-4.2v-8.1h-2.2
			v-2.1h2.2v-3.4l2.3-0.8v4.2h3.2v2.1h-3.2v7.7c0,0.9,0.1,1.6,0.4,2c0.3,0.4,0.8,0.6,1.4,0.6c0.5,0,1-0.2,1.3-0.5V151.1z
			 M434.8,151.2h-2.3V149h0c-0.9,1.7-2.2,2.5-4,2.5c-3.1,0-4.6-2-4.6-6v-8.4h2.3v8c0,2.9,1,4.3,3,4.3c1,0,1.8-0.4,2.4-1.2
			c0.6-0.8,0.9-1.8,0.9-3v-8.1h2.3V151.2z M431.1,110.6c-0.2-0.7-0.5-1.3-0.8-2c2-2,3.8-4.8,5.7-8.3l1.6,0.9
			c-0.7,1.3-1.4,2.5-2.1,3.6v13.8h-1.8v-11.2C432.8,108.6,432,109.6,431.1,110.6L431.1,110.6z M431.3,102.5c-0.3-0.6-0.6-1.2-1-1.8
			c2.2-1.9,4-4.3,5.6-7.1l1.7,1C435.7,97.7,433.6,100.3,431.3,102.5L431.3,102.5z M437.2,109.8h11.2v-2.1h-10.2v-1.7H453v1.7h-2.8
			v2.1h3.4v1.7h-3.4v3.7c0,2-0.9,3-2.8,3c-0.8,0-2,0-3.5,0c-0.1-0.6-0.2-1.2-0.4-2.1c1,0.1,2.2,0.2,3.4,0.2c1,0,1.4-0.5,1.4-1.6
			v-3.2h-11.2V109.8z M450,151.2h-2.3v-2.3h0c-0.9,1.8-2.4,2.7-4.4,2.7c-1.6,0-2.9-0.6-3.9-1.9c-1-1.3-1.4-3-1.4-5.1
			c0-2.3,0.5-4.2,1.6-5.6c1.1-1.4,2.5-2.1,4.3-2.1c1.8,0,3,0.7,3.8,2.2h0v-8.6h2.3V151.2z M441.8,115.9c-0.7-1-1.6-2.1-2.4-3.2
			l1.3-1.1c0.9,1,1.8,2.1,2.5,3.1L441.8,115.9L441.8,115.9z M439.4,94.8h11.9v10.1h-1.7V104h-8.6v0.9h-1.7V94.8z M447.8,142.9
			c0-1.1-0.3-2.1-1-2.8c-0.7-0.8-1.5-1.1-2.5-1.1c-1.2,0-2.2,0.5-2.9,1.5c-0.7,1-1.1,2.3-1.1,4c0,1.6,0.3,2.8,1,3.7
			c0.7,0.9,1.6,1.4,2.7,1.4c1.1,0,2-0.4,2.7-1.3c0.7-0.9,1.1-2,1.1-3.3V142.9z M449.7,96.4h-8.6v2.2h8.6V96.4z M441.1,102.4h8.6
			v-2.3h-8.6V102.4z M453.9,132.2c0-0.4,0.1-0.8,0.4-1.1c0.3-0.3,0.6-0.5,1-0.5c0.4,0,0.8,0.1,1,0.4c0.3,0.3,0.4,0.7,0.4,1.1
			c0,0.4-0.1,0.8-0.4,1.1c-0.3,0.3-0.6,0.4-1,0.4c-0.4,0-0.8-0.1-1-0.4C454,133,453.9,132.7,453.9,132.2z M454.1,151.2v-14h2.3v14
			H454.1z M454.2,107.2c1.2-0.3,2.3-0.6,3.3-0.9v-5.9h-3.1v-1.8h3.1v-4.9h1.8v4.9h3v1.8h-3v5.4c0.8-0.2,1.6-0.5,2.4-0.7
			c0,0.8,0.1,1.4,0.2,2c-0.9,0.3-1.7,0.5-2.6,0.8v7.6c0,1.9-0.8,2.8-2.3,2.8c-0.6,0-1.3,0-2.3-0.1c-0.1-0.7-0.2-1.3-0.3-2
			c0.9,0.1,1.5,0.2,2.1,0.2c0.7,0,1.1-0.4,1.1-1.3v-6.8c-1.1,0.3-2.1,0.7-3.1,1L454.2,107.2z M459.6,144.3c0-2.3,0.6-4.1,1.8-5.5
			c1.2-1.3,2.8-2,4.8-2c1.9,0,3.5,0.6,4.6,1.9c1.1,1.3,1.7,3.1,1.7,5.4c0,2.2-0.6,4-1.8,5.4c-1.2,1.4-2.8,2-4.7,2
			c-1.9,0-3.5-0.7-4.6-2C460.2,148.2,459.6,146.5,459.6,144.3z M462,144.3c0,1.6,0.4,2.9,1.1,3.8c0.8,0.9,1.8,1.4,3,1.4
			c1.3,0,2.3-0.5,3-1.4c0.7-0.9,1-2.2,1-3.9c0-1.7-0.3-3-1-3.9c-0.7-0.9-1.7-1.4-3-1.4c-1.3,0-2.3,0.5-3,1.4
			C462.3,141.3,462,142.6,462,144.3z M463.2,93.6h1.8v3.9c3.7-0.8,7.4-1.7,11.1-2.9l0.6,1.8c-3,1-6.9,2-11.7,2.9v0.8
			c0,1.2,0.6,1.8,1.7,1.8h6.4c1.1,0,1.8-0.5,2-1.6c0.1-0.6,0.3-1.5,0.4-2.6c0.6,0.3,1.1,0.5,1.8,0.7c-0.2,1.1-0.3,2-0.5,2.7
			c-0.4,1.7-1.5,2.6-3.4,2.6h-7.3c-2,0-3-1.1-3-3.4V93.6z M463.4,105.8h12.3v12.7H474V117h-8.8v1.5h-1.8V105.8z M474,107.5h-8.8v3.1
			h8.8V107.5z M465.2,115.3h8.8v-3h-8.8V115.3z M486.5,132.4l-7.1,18.8h-2.4l6.7-17.5h-9v-2.2h11.8V132.4z M479.3,118.8
			c-0.4-0.7-0.8-1.3-1.2-2c2.6-2.4,4.1-6,4.5-10.7l2,0.3c-0.2,1.6-0.5,3-0.9,4.4c1.2,2.8,3.1,4.4,5.6,4.8v-11.2h-10.7v-1.9h22.2v1.9
			h-9.6v4.1h8.1v1.9h-8.1v5.3c3.1,0.1,6.5,0.1,10.1-0.1c-0.3,0.7-0.5,1.4-0.7,2.1c-3.8,0.1-7.1,0-10-0.1c-3.5,0-6.1-1.5-7.7-4.6
			C482.1,115.3,480.9,117.2,479.3,118.8L479.3,118.8z M479.5,96.7h10c-0.5-0.7-0.9-1.4-1.5-2.1l1.8-1c0.6,0.8,1.3,1.6,2,2.6
			l-1.1,0.6h9.5v4.8h-1.8v-2.9h-17v2.9h-1.8V96.7z M488.7,141.8c0-3.5,0.5-6.1,1.6-7.9c1.1-1.8,2.6-2.7,4.6-2.7
			c3.8,0,5.7,3.4,5.7,10.1c0,3.3-0.5,5.9-1.6,7.6c-1.1,1.8-2.6,2.6-4.5,2.6c-1.8,0-3.3-0.8-4.3-2.5
			C489.3,147.4,488.7,145,488.7,141.8z M494.8,133.3c-2.5,0-3.7,2.8-3.7,8.4c0,5.2,1.2,7.8,3.7,7.8c2.4,0,3.6-2.7,3.6-8
			C498.3,136,497.2,133.3,494.8,133.3L494.8,133.3z M518.5,148.8c1.7,1.7,3.2,3.2,4.4,4.6l-1.5,1.3c-0.5-0.6-1-1.2-1.4-1.8
			c-4.4,0.2-8.6,0.4-12.5,0.6c-0.4,0-1.1,0.1-2.1,0.2l-0.6-1.9c0.7-0.2,1.3-0.5,1.8-1c0.7-0.6,1.5-1.3,2.4-2.2h-6.4V147h4.6v-8.7
			c-1.3,0.8-2.7,1.6-4.2,2.3c-0.3-0.5-0.7-1.1-1.1-1.8c3.5-1.3,6.1-2.9,7.8-4.8h-6.7v-1.7h8c0.6-0.9,1.1-1.9,1.4-3l1.9,0.5
			c-0.3,0.9-0.7,1.7-1.2,2.5h11.5v1.7h-6.6c2,2.2,4.5,3.5,7.6,4c-0.5,0.8-0.9,1.4-1.2,2.1c-2-0.7-3.7-1.5-5.1-2.6v1.1h-10.4v1.7H521
			v1.6h-12.1v1.7h12.3v1.6h-12.3v1.7h16v1.7h-13.4c-1.2,1.1-2.4,2.2-3.5,3.1c4.1-0.1,7.6-0.2,10.7-0.4c-0.5-0.5-0.9-1-1.4-1.5
			L518.5,148.8z M502.9,112.6c-0.2-0.5-0.5-1.1-0.9-1.7c4.2-1.2,7.9-2.6,11.2-4.2h-10.2V105h9.2v-2.1H507v-1.3
			c-1.2,0.7-2.5,1.4-4,2.1c-0.3-0.5-0.6-1.1-1.1-1.7c3-1.1,5.4-2.4,7.2-4h-6.3v-1.7h8c0.7-0.8,1.3-1.7,1.7-2.7l1.7,0.6
			c-0.4,0.7-0.8,1.4-1.3,2.1h11.5v1.7h-7c2,1.8,4.7,3,7.8,3.7c-0.4,0.6-0.7,1.2-1.1,1.9c-3.9-1.3-6.8-3.1-8.8-5.5h-3.8
			c-1.2,1.2-2.6,2.4-4.3,3.4h4.8v-2h1.8v2h4.2v1.6h-4.2v2.1h2.2c1.6-0.9,3.1-2,4.4-3.1l1.2,1.3c-0.8,0.6-1.7,1.2-2.6,1.8h5.3v1.7h-8
			c-1.2,0.7-2.4,1.3-3.7,1.9h8.8v10.1h-1.7v-1.1h-11.1v1.1H507v-7.5C505.7,111.6,504.3,112.1,502.9,112.6L502.9,112.6z M519.8,110.1
			h-10.6c-0.2,0.1-0.4,0.2-0.5,0.2v1.9h11.1V110.1z M508.7,115.9h11.1v-2.1h-11.1V115.9z M511.9,134.1c-0.8,1.1-1.8,2-2.9,2.9h9.4
			c-1-0.8-1.8-1.8-2.6-2.9H511.9L511.9,134.1z M528.5,132.3h9c-0.4-0.6-0.7-1.2-1.1-1.8l1.6-1c0.6,0.9,1.2,1.8,1.7,2.8h7.8v6.9h-1.8
			v-0.8h-15.3v4c0,5.3-1.1,9.4-3.3,12.2c-0.4-0.5-0.8-1.1-1.3-1.7c1.8-2.3,2.7-5.9,2.7-10.7V132.3z M526.7,107.5
			c-0.2-0.7-0.5-1.5-0.8-2.2c2.4-3.4,4.3-7.3,5.6-11.7l1.9,0.6c-0.7,2-1.4,3.9-2.2,5.6v18.7h-1.8v-15.2
			C528.6,104.9,527.7,106.3,526.7,107.5L526.7,107.5z M531.1,141.2h8c-0.3-0.5-0.7-1.1-1.1-1.7l1.6-0.9c0.6,0.9,1.1,1.8,1.6,2.6h7.7
			v1.7h-11.9c0,0.9-0.1,1.8-0.2,2.5h9.7c-0.1,1.8-0.2,3.5-0.4,5.1c-0.2,2.3-1.4,3.5-3.5,3.5c-1.2,0-2.4,0-3.7-0.1
			c-0.1-0.7-0.2-1.4-0.4-2.2c1.5,0.2,2.8,0.3,3.8,0.3c1.2,0,1.8-0.6,1.9-1.8c0.1-0.9,0.2-1.9,0.2-3.1h-8c-0.5,3.1-2.2,5.7-5.3,7.6
			c-0.3-0.5-0.7-1-1.2-1.7c2-1.4,3.3-2.8,4-4.3c0.6-1.3,1-3.2,1.1-5.8h-4.2V141.2z M545.7,134h-15.3v2.7h15.3V134z M534,113.7
			c-0.4-0.6-0.8-1.1-1.3-1.6c3.3-2.1,5.9-4.6,7.6-7.4c-2,1.1-4.3,2.1-6.9,3c-0.2-0.6-0.5-1.2-0.9-1.8c2.9-0.9,5.5-2,7.5-3.2
			c-0.8-0.8-1.7-1.6-2.7-2.5l1.2-1.2c1.2,0.9,2.2,1.8,3.2,2.7c1.8-1.3,3.2-2.6,4.2-4.1h-7.6c-1.2,1.6-2.7,3.1-4.4,4.6
			c-0.4-0.6-0.9-1-1.3-1.5c2.8-2.2,4.8-4.6,6.2-7.2l1.8,0.7c-0.3,0.5-0.6,1.1-1,1.6h8.4v1.8c-1.4,2.6-3.9,5-7.5,7l1.7,0.6
			c-0.3,0.5-0.6,0.9-1,1.3h7.6v1.8c-2.4,5.1-7.5,8.5-15.2,10.3c-0.2-0.6-0.5-1.2-0.9-1.7c3.1-0.7,5.7-1.6,7.9-2.8
			c-0.6-0.6-1.5-1.5-2.6-2.7l1.3-1.2c1.1,1,2.1,1.9,3,2.8c1.9-1.4,3.4-3,4.5-4.8h-7C538,110.5,536.1,112.2,534,113.7L534,113.7z
			 M550.6,144.4c-0.2-0.7-0.5-1.5-0.8-2.2c2.5-3.7,4.4-7.9,5.7-12.6l1.9,0.6c-0.6,2-1.3,3.8-2,5.5v18.9h-1.8v-14.9
			C552.6,141.4,551.7,143,550.6,144.4L550.6,144.4z M551.2,106.8h8.9v11.7h-1.8v-1.7h-5.3v1.7h-1.8V106.8z M558.3,108.6h-5.3v6.5
			h5.3V108.6z M553.5,94.7h16.1v10.1h-1.9V104h-12.4v0.8h-1.9V94.7z M567.7,96.5h-12.4v5.7h12.4V96.5z M556.8,151.7h7.2v-7.7h-5.8
			v-1.9h5.8v-6.1h-6.5v-1.9h14.8v1.9h-6.4v6.1h5.8v1.9h-5.8v7.7h7.1v1.9h-16.2V151.7z M565,134c-0.7-1.3-1.4-2.4-2.1-3.4l1.5-1
			c0.9,1.1,1.6,2.2,2.3,3.3L565,134L565,134z M563,106.8h8.9v11.7h-1.8v-1.7h-5.4v1.7H563V106.8z M570.1,108.6h-5.4v6.6h5.4V108.6z
			 M581.4,118.3h-1.7v-9.5h-2.5c0,4.4-0.6,7.7-1.8,9.9c-0.4-0.5-0.9-0.9-1.4-1.5c1-1.9,1.5-4.8,1.5-8.6V94.6h1.7v7.5h2.4v-8.2h1.7
			v8.2h1.7v1.6h-5.8v3.6h4.2V118.3z M575.1,147.4c-0.4-0.6-0.8-1.2-1.1-1.7c2.3-3.1,4.1-6.6,5.4-10.2l1.8,0.6
			c-0.6,1.6-1.3,3.2-2.1,4.7v13.7h-1.8v-10.5C576.6,145.2,575.8,146.4,575.1,147.4L575.1,147.4z M575.1,132.8h10.2
			c-0.4-0.8-0.9-1.6-1.4-2.3l1.7-1c0.5,0.8,1.1,1.6,1.6,2.5l-1.4,0.9h10v3.8H594v-2h-17.1v2.4h-1.8V132.8z M582.2,141.5h4.8l0.5-2.6
			h-6.1V137h14.2v1.8h-6.2l-0.6,2.6h5.7v13.1h-1.8v-1.2H584v1.2h-1.8V141.5z M582.1,112.1h2.8c-0.3-0.4-0.7-0.9-1-1.3
			c1.7-0.9,2.8-2,3.5-3.1h-3.7V96.4h4c0.3-0.8,0.6-1.8,0.9-2.8l1.8,0.6c-0.3,0.8-0.7,1.5-1,2.2h6v12.2h-1.6v-0.9h-4.4
			c-0.7,1.5-2,3-4.1,4.4h4.7v-3.2h1.7v3.2h5.3v1.8h-5.3v4.6h-1.7v-4.6h-8V112.1z M592.8,143.2H584v3.3h8.8V143.2z M584,151.6h8.8
			v-3.4H584V151.6z M585.4,101.2h3.4V98h-3.4V101.2z M588.3,106c0.2-0.8,0.4-1.9,0.5-3.2h-3.3v3.2H588.3L588.3,106z M590.4,102.8
			c0,1.3-0.2,2.3-0.4,3.2h3.9v-3.2H590.4L590.4,102.8z M593.9,98h-3.5v3.1h3.5V98z M597.9,108.3h10.5v-4.5h-8.9v-2h8.9v-4.6
			c-3,0.1-5.9,0.2-9,0.3c-0.1-0.7-0.2-1.4-0.3-2.1c8-0.1,14.4-0.4,19.4-0.9l0.3,2.1c-2.7,0.2-5.5,0.4-8.4,0.5v4.7h8.5v2h-8.5v4.5
			h10.5v2h-10.5v4.7c0,2.1-1,3.1-2.9,3.1c-1,0-2.3,0-4.1,0c-0.1-0.8-0.2-1.5-0.4-2.3c1.7,0.1,3.1,0.2,3.9,0.2c1,0,1.4-0.6,1.4-1.7
			v-4h-10.5V108.3z M598,130.9h22.7v1.9h-7.1c0,1.2,0,2.4,0,3.4h5.8v15c0,1.9-0.9,2.9-2.7,2.9c-0.8,0-2,0-3.6-0.1
			c-0.1-0.6-0.2-1.3-0.3-2c1.5,0.1,2.6,0.2,3.4,0.2c1,0,1.5-0.5,1.5-1.5V138h-4.1c-0.1,1.7-0.2,3.2-0.5,4.5c1.7,1.7,3.1,3.3,4.3,4.8
			l-1.2,1.4c-1.2-1.6-2.4-3-3.6-4.3c-0.8,2.3-2,4.4-3.7,6.2c-0.3-0.4-0.8-0.9-1.4-1.4c2.9-2.9,4.4-6.7,4.4-11.2h-4.9
			c-0.1,1.8-0.2,3-0.3,3.8c1.3,1.1,2.3,2.1,3.2,2.9l-1,1.7c-0.8-0.9-1.7-1.9-2.6-2.8c-0.7,2.3-1.9,4.4-3.5,6.2
			c-0.4-0.5-0.8-0.9-1.4-1.4c2.6-2.6,3.9-6.1,4-10.4h-4.1v16.2h-1.8v-18.1h5.9c0-1.1,0-2.2,0-3.4H598V130.9z M607,132.8
			c0,1.2,0,2.4,0,3.4h4.9c0-1.1,0-2.2,0-3.4H607L607,132.8z M629.8,116c1.9-0.6,3.7-1.2,5.4-1.8c0,0.7,0,1.4,0,2
			c-2.1,0.7-3.7,1.2-5,1.7c-0.6,0.2-1.2,0.5-1.7,0.8l-1-1.5c0.4-0.4,0.6-1,0.6-1.8v-2c-1.6,1-3.4,2-5.4,2.8c-0.3-0.6-0.6-1.2-1-1.7
			c3.9-1.5,7.2-3.4,9.7-5.8h-9.4v-1.7h11.3c-0.5-1-1.1-2-1.7-3l1.4-1c0.7,1.1,1.3,2.1,1.9,3.1l-1.3,0.8h11.2v1.7h-10.6
			c0.6,1.4,1.5,2.5,2.5,3.5c1.3-0.6,3-1.6,5.1-2.9l1,1.9c-2,0.9-3.5,1.6-4.7,2.1c1.8,1.3,4.1,2.1,6.8,2.5c-0.5,0.7-0.9,1.3-1.3,1.9
			c-5.1-1.1-8.7-3.8-10.9-8.2c-0.9,0.9-1.9,1.8-3,2.6V116L629.8,116z M621.8,100.6c2.6-1.8,4.9-4.1,6.9-7.1l1.4,1.2
			c-0.9,1.2-1.8,2.4-2.7,3.4v7.5h-1.7v-5.8c-1.1,1-2.1,1.9-3.3,2.7C622.2,101.7,622,101.1,621.8,100.6L621.8,100.6z M622.9,132.1
			h6.2v18.6h-4.5v1.7h-1.7V132.1z M627.4,133.8h-2.8v6.7h2.8V133.8z M627.4,148.9v-6.8h-2.8v6.8H627.4z M628.7,98.6l5.4-0.4
			c-0.4-1.2-0.7-2.6-0.9-4.1l1.7-0.3c0.2,1.6,0.5,3,0.9,4.3l8.6-0.7l0.2,1.8l-8,0.6c0.9,1.7,2.1,3,3.6,3.7c0.6,0.3,1.1,0.5,1.5,0.5
			c0.5,0,0.8-0.3,1-1c0.2-0.8,0.3-1.7,0.4-2.5c0.6,0.3,1.2,0.5,1.7,0.7c-0.2,1.1-0.4,2.1-0.6,3c-0.4,1.2-1.1,1.7-2.1,1.7
			c-1.1,0-2.1-0.3-3.1-0.8c-1.8-1-3.3-2.7-4.3-5.1l-5.8,0.4L628.7,98.6z M630.7,138c-0.3-0.3-0.7-0.6-1.1-1c2-2.2,3.6-4.6,4.8-7.4
			l1.8,0.4c-0.4,0.8-0.8,1.6-1.2,2.4h6.7v1.7l-2.2,3.2h4v8.8h-1.7v-0.9h-4.6c-0.6,4-3,7.2-7.3,9.7c-0.4-0.5-0.8-1.1-1.2-1.6
			c3.9-2.1,6.1-4.8,6.7-8h-3.1v0.9h-1.7V138L630.7,138z M639.5,134.1h-5.5c-0.7,1.2-1.4,2.2-2.2,3.2h5.6L639.5,134.1z M632.4,143.5
			h3.4c0.2-1.3,0.3-2.8,0.3-4.5h-3.7V143.5z M641.8,139h-4.1c0,1.7-0.1,3.2-0.3,4.5h4.3V139z M640.5,97.3c-1.2-1-2.2-1.8-3-2.4
			l1-1.3c1.4,1,2.4,1.8,3,2.4L640.5,97.3L640.5,97.3z M637.6,146.1h1.7v4.9c0,0.8,0.4,1.2,1.1,1.2h1.4c0.8,0,1.2-0.4,1.4-1.2
			c0.1-0.8,0.2-1.7,0.3-2.9c0.5,0.3,1.1,0.5,1.7,0.7c-0.1,1.1-0.3,2.1-0.4,2.9c-0.3,1.5-1.1,2.3-2.5,2.3h-2.3
			c-1.5,0-2.3-0.9-2.3-2.7V146.1z"/>
	</g>
</g>
<g>
</g>
<g>
</g>
<g>
</g>
<g>
</g>
<g>
</g>
<g>
</g>
<g>
</g>
<g>
</g>
<g>
</g>
<g>
</g>
<g>
</g>
<g>
</g>
<g>
</g>
<g>
</g>
<g>
</g>
</svg>
