<?xml version="1.0" encoding="utf-8"?>
<!-- Generator: Adobe Illustrator 17.0.0, SVG Export Plug-In . SVG Version: 6.00 Build 0)  -->
<!DOCTYPE svg PUBLIC "-//W3C//DTD SVG 1.1//EN" "http://www.w3.org/Graphics/SVG/1.1/DTD/svg11.dtd">
<svg version="1.1" id="Layer_1" xmlns="http://www.w3.org/2000/svg" xmlns:xlink="http://www.w3.org/1999/xlink" x="0px" y="0px"
	 width="720px" height="90px" viewBox="0 0 720 90" style="enable-background:new 0 0 720 90;" xml:space="preserve">
<style type="text/css">
	.st0{fill:none;}
	.st1{fill:#FFFFFF;}
	.st2{opacity:0.5;fill:#FFFFFF;}
</style>
<g id="arrow.svg">
	<path class="st0" d="M361.8,39.8v-9.4l17.4,13.5v9.4L361.8,39.8z M345.4,53.3v-9.4l17.4-13.5v9.4L345.4,53.3z"/>
	<polygon class="st1" points="360,30.3 360,30.3 360,30.3 360,30.3 360,30.3 342.6,43.8 342.6,53.3 360,39.8 377.4,53.3 377.4,43.8 
			"/>
	<polygon class="st2" points="360,46.5 360,46.5 360,46.5 360,46.5 360,46.5 342.6,60 342.6,69.5 360,56 377.4,69.5 377.4,60 	"/>
	<rect class="st0" width="720" height="90"/>
</g>
<g>
</g>
<g>
</g>
<g>
</g>
<g>
</g>
<g>
</g>
<g>
</g>
<g>
</g>
<g>
</g>
<g>
</g>
<g>
</g>
<g>
</g>
<g>
</g>
<g>
</g>
<g>
</g>
<g>
</g>
</svg>
