<?xml version="1.0" encoding="utf-8"?>
<!-- Generator: Adobe Illustrator 17.0.0, SVG Export Plug-In . SVG Version: 6.00 Build 0)  -->
<!DOCTYPE svg PUBLIC "-//W3C//DTD SVG 1.1//EN" "http://www.w3.org/Graphics/SVG/1.1/DTD/svg11.dtd">
<svg version="1.1" id="Layer_1" xmlns="http://www.w3.org/2000/svg" xmlns:xlink="http://www.w3.org/1999/xlink" x="0px" y="0px"
	 width="720px" height="57.4px" viewBox="0 0 720 57.4" style="enable-background:new 0 0 720 57.4;" xml:space="preserve">
<style type="text/css">
	.st0{fill:none;}
</style>
<g id="back.svg">
	<path d="M602.7,32.9v2.4l-6.9-8.1v-2l6.9-8.1v2.4l-6,6.7L602.7,32.9z M611.4,34.8c1.1,1.8,2.9,2.7,5.4,2.7c1.9,0.1,6.2,0.1,13,0.1
		c0.1-0.2,0.2-0.5,0.3-1c0.1-0.4,0.2-0.7,0.3-1c-2.9,0.1-7.3,0.1-13.2,0.1c-2.4,0-4-0.9-4.9-2.6V22.9h-4.5v1.9h2.6v8.3
		c-0.8,0.9-1.7,1.9-2.8,3l0.9,2C609.6,36.7,610.5,35.6,611.4,34.8L611.4,34.8z M613.7,19c-0.3-0.5-0.8-1.3-1.5-2.3
		c-0.6-0.9-1.1-1.7-1.5-2.2l-1.6,1c0.9,1.4,1.9,3,2.9,4.7L613.7,19z M624,30.5c1.2,1,2.6,2.3,4.3,4l1.3-1.6
		c-1.5-1.3-2.9-2.5-4.3-3.8c1.4-1.6,2.5-3.6,3.5-6.1v-2h-11v-3.5c3.7-0.1,7.6-0.4,11.9-0.9l-0.5-1.8c-3.8,0.5-8.2,0.9-13.2,1v6
		c0.1,4.5-0.8,8-2.7,10.5c0.7,0.5,1.2,1,1.4,1.4c2.1-3.1,3.1-6.7,3.1-10.9h9.2c-0.7,2-1.7,3.7-3,5.1c-0.5-0.4-1.2-1-2.1-1.8
		c-0.9-0.7-1.6-1.3-2.1-1.7l-1.2,1.3c0.6,0.5,1.5,1.2,2.6,2.2c0.7,0.6,1.2,1.1,1.5,1.3c-1.6,1.4-3.6,2.7-6.2,3.8
		c0.1,0.1,0.3,0.4,0.5,0.7c0.3,0.4,0.5,0.7,0.7,1C620.2,33.4,622.4,32,624,30.5L624,30.5z M634.7,38.2v-1.6h16.4v1.6h1.9V15.5h-20.2
		v22.8H634.7z M651.2,17.3V35h-16.4V17.3H651.2z M647.7,30.7v-9.4h-9.5v9.4H647.7z M645.9,23v6h-6.1v-6H645.9z M660.2,38.2v-1.9
		h13.4v1.9h2v-23h-17.2v23H660.2z M673.5,17.2v4.6h-13.4v-4.6H673.5z M673.5,23.6v4.6h-13.4v-4.6H673.5z M673.5,29.9v4.8h-13.4v-4.8
		H673.5z M696.7,21.4v2.7h-17v1.7h10.4v3.8c-3.2,1.6-6.8,3.1-10.6,4.6l0.7,1.9c0.6-0.3,1.5-0.7,2.9-1.2c3.4-1.6,5.7-2.6,6.9-3.2v2.7
		c0.1,1.2-0.5,1.8-1.7,1.7c-1.1,0-1.8,0-2.3-0.1c0.1,0.5,0.2,1.2,0.4,2c0.3,0,0.8,0,1.4-0.1c0.6,0,1.1,0,1.3,0c2,0,2.9-1.1,2.8-3.1
		v-5.1c1.6,3,4.6,5.3,9.2,6.9c0.1-0.3,0.4-0.9,0.8-1.6c0.1-0.1,0.2-0.1,0.2-0.2c-3.1-0.9-5.2-2-6.5-3.2c0.4-0.3,1.1-0.7,2-1.3
		c1.4-0.9,2.3-1.5,2.8-1.9l-1.3-1.5c-1.4,1.2-3,2.3-4.8,3.6c-0.8-1-1.6-2.3-2.3-4v-0.5H702v-1.7h-3.5v-8.7H682v1.7h14.7v2.6h-14.2
		v1.6H696.7z M686.7,29.6c-1.2-0.9-2.6-1.9-4.2-2.9l-1.1,1.4c1.2,0.7,2.6,1.8,4.1,3L686.7,29.6z"/>
	<rect y="0" class="st0" width="720" height="57.4"/>
</g>
<g>
</g>
<g>
</g>
<g>
</g>
<g>
</g>
<g>
</g>
<g>
</g>
<g>
</g>
<g>
</g>
<g>
</g>
<g>
</g>
<g>
</g>
<g>
</g>
<g>
</g>
<g>
</g>
<g>
</g>
</svg>
