<?xml version="1.0" encoding="utf-8"?>
<!-- Generator: Adobe Illustrator 17.0.0, SVG Export Plug-In . SVG Version: 6.00 Build 0)  -->
<!DOCTYPE svg PUBLIC "-//W3C//DTD SVG 1.1//EN" "http://www.w3.org/Graphics/SVG/1.1/DTD/svg11.dtd">
<svg version="1.1" id="Layer_1" xmlns="http://www.w3.org/2000/svg" xmlns:xlink="http://www.w3.org/1999/xlink" x="0px" y="0px"
	 width="640px" height="227.2px" viewBox="0 0 640 227.2" style="enable-background:new 0 0 640 227.2;" xml:space="preserve">
<style type="text/css">
	.st0{fill:#F2F2F2;}
</style>
<polygon id="bg-bottom.svg" class="st0" points="633.9,12 606.6,0 579.3,12 552,0 524.7,12 497.4,0 470.1,12 442.9,0 415.6,12 
	388.3,0 361,12 333.7,0 306.4,12 279.1,0 251.8,12 224.5,0 197.2,12 169.9,0 142.6,12 115.3,0 88,12 60.7,0 33.4,12 6.1,0 0,2.7 
	0,227.2 640,227.2 640,9.3 "/>
<g>
</g>
<g>
</g>
<g>
</g>
<g>
</g>
<g>
</g>
<g>
</g>
<g>
</g>
<g>
</g>
<g>
</g>
<g>
</g>
<g>
</g>
<g>
</g>
<g>
</g>
<g>
</g>
<g>
</g>
</svg>
