<?xml version="1.0" encoding="utf-8"?>
<!-- Generator: Adobe Illustrator 17.0.0, SVG Export Plug-In . SVG Version: 6.00 Build 0)  -->
<!DOCTYPE svg PUBLIC "-//W3C//DTD SVG 1.1//EN" "http://www.w3.org/Graphics/SVG/1.1/DTD/svg11.dtd">
<svg version="1.1" id="Layer_1" xmlns="http://www.w3.org/2000/svg" xmlns:xlink="http://www.w3.org/1999/xlink" x="0px" y="0px"
	 width="640px" height="227.2px" viewBox="0 0 640 227.2" style="enable-background:new 0 0 640 227.2;" xml:space="preserve">
<style type="text/css">
	.st0{fill:#F2F2F2;}
</style>
<polygon id="bg-top.svg" class="st0" points="6.1,215.2 33.4,227.2 60.7,215.2 88,227.2 115.3,215.2 142.6,227.2 169.9,215.2 
	197.1,227.2 224.4,215.2 251.7,227.2 279,215.2 306.3,227.2 333.6,215.2 360.9,227.2 388.2,215.2 415.5,227.2 442.8,215.2 
	470.1,227.2 497.4,215.2 524.7,227.2 552,215.2 579.3,227.2 606.6,215.2 633.9,227.2 640,224.5 640,0 0,0 0,217.9 "/>
<g>
</g>
<g>
</g>
<g>
</g>
<g>
</g>
<g>
</g>
<g>
</g>
<g>
</g>
<g>
</g>
<g>
</g>
<g>
</g>
<g>
</g>
<g>
</g>
<g>
</g>
<g>
</g>
<g>
</g>
</svg>
