<?xml version="1.0" encoding="utf-8"?>
<!-- Generator: Adobe Illustrator 17.0.0, SVG Export Plug-In . SVG Version: 6.00 Build 0)  -->
<!DOCTYPE svg PUBLIC "-//W3C//DTD SVG 1.1//EN" "http://www.w3.org/Graphics/SVG/1.1/DTD/svg11.dtd">
<svg version="1.1" id="Layer_1" xmlns="http://www.w3.org/2000/svg" xmlns:xlink="http://www.w3.org/1999/xlink" x="0px" y="0px"
	 width="720px" height="723.2px" viewBox="0 0 720 723.2" style="enable-background:new 0 0 720 723.2;" xml:space="preserve">
<style type="text/css">
	.st0{fill:none;}
	.st1{fill:#DF9431;}
	.st2{fill:#010101;}
	.st3{fill:#FFEAAB;}
	.st4{fill:#FFFFFF;}
	.st5{fill:#DF9431;stroke:#FFFFFF;stroke-width:2;stroke-miterlimit:10;}
</style>
<g id="brand-4.svg">
	<path class="st0" d="M280.8,714.3h5.3v-13.8c0-3.3,0.6-6.6,0.6-6.6L280.8,714.3z"/>
	<path class="st0" d="M307.1,276.3c1.7,0,2.7-1.2,2.7-3.7v-13.3c0-2.5-1.1-3.7-2.7-3.7c-1.7,0-2.7,1.2-2.7,3.7v13.3
		C304.4,275.1,305.4,276.3,307.1,276.3z"/>
	<path class="st0" d="M401,458.3v-13.8c0-3.3,0.6-6.6,0.6-6.6l-5.9,20.4H401z"/>
	<path class="st0" d="M281.5,209.6c0-3.3,0.6-6.6,0.6-6.6l-5.9,20.4h5.3V209.6z"/>
	<path class="st0" d="M441.2,451.3c-1.7,0-2.7,1.2-2.7,3.7v6.5c0,2.5,1,3.7,2.7,3.7c1.7,0,2.7-1.2,2.7-3.7V455
		C443.9,452.5,442.8,451.3,441.2,451.3z"/>
	<path class="st0" d="M438.7,3.7v3h9.5v4.3h-13.9V3.5c0-0.9,0.1-1.7,0.3-2.5h-5.3v10.1h-4.5V1h-16.1v3.4h-2.6v6.7h-4.4V4.4h-9.6V1
		H370c3.2,2.8,5.2,7,5.2,11.6c0,8.6-6.9,15.5-15.5,15.5c-8.6,0-15.5-6.9-15.5-15.5c0-4.6,2-8.7,5.2-11.6h-28l13.8,15.5L208,159.8
		L82.9,16.5L96.5,1H0v720h286.1v-2.6h-9.6v-3.7l8.4-25.5h5.7v25.2h2.6v4.1h-2.6v2.6h6.5v-1.6h5.2v1.6h7.1v-24.2h-3.9v-3.6
		c2.3-0.2,4.3-1.2,4.6-4h3.8V721h7c0.4-10.7,3.1-21.2,7.6-27.5h-10.2v-4.3h14.2v4.2c-4.3,6.4-6.9,16.4-7.1,27.6h23.1
		c2.8-3,6.8-4.9,11.3-4.9c4.5,0,8.5,1.9,11.3,4.9h22.7l199.2-228L720,636.2V1H439.3C438.9,1.8,438.7,2.7,438.7,3.7z M332.6,259v21.1
		h-4.4v-20.8c0-2.5-0.9-3.7-2.5-3.7c-1.5,0-2.5,1.2-2.5,3.7v20.8h-4.4v-28.3h4.2v1.8c0.5-1.3,2.2-2.2,3.7-2.2
		C330.9,251.3,332.6,254,332.6,259z M314,222.7h4.4v3.8c0,2.5,1,3.7,2.6,3.7s2.7-1.2,2.7-3.7v-5.3c0-2.3-0.9-3.7-2.7-3.7h-2.5v-4
		h2.4c1.9,0,2.7-1.4,2.7-3.7v-4.2c0-2.5-1-3.7-2.6-3.7s-2.6,1.2-2.6,3.7v3.8H314v-4c0-4.9,2.6-7.8,7-7.8s7.1,2.9,7.1,7.8v3.8
		c0,2.8-1.1,5.2-2.9,6c1.9,0.8,3,3.2,3,5.9v5.5c0,4.9-2.7,7.8-7.2,7.8s-7-2.9-7-7.8V222.7z M300.8,202.2c2.3-0.2,4.3-1.2,4.6-4h3.8
		v35.9h-4.5v-28.3h-3.9V202.2z M300,259c0-4.9,2.7-7.7,7.1-7.7c4.4,0,7.1,2.8,7.1,7.7v13.8c0,4.9-2.7,7.7-7.1,7.7
		c-4.4,0-7.1-2.8-7.1-7.7V259z M292.4,228.4h5.2v5.7h-5.2V228.4z M290.9,249l-4.7,31.1h-4.4l-4.7-31.1H277c0,0,0.3,4.2,0.3,7.7v23.4
		h-4.2v-35.9h6.8l3.5,22.6c0.4,2.6,0.6,7,0.6,7h0.1c0,0,0.2-4.3,0.6-7l3.5-22.6h6.8v35.9h-4.2v-23.4c0-3.4,0.3-7.7,0.3-7.7H290.9z
		 M271.8,223.7l8.4-25.5h5.7v25.2h2.6v4.1h-2.6v6.7h-4.4v-6.7h-9.6V223.7z M181,651.6L27.9,476.4L181,301.2l155.5,175.2L181,651.6z
		 M342.5,280.1h-5.2v-5.7h5.2V280.1z M359.7,490.1c-8.6,0-15.5-6.9-15.5-15.5c0-8.6,6.9-15.5,15.5-15.5c8.6,0,15.5,6.9,15.5,15.5
		C375.2,483.1,368.2,490.1,359.7,490.1z M359.7,256.1c-8.6,0-15.5-6.9-15.5-15.5c0-8.6,6.9-15.5,15.5-15.5c8.6,0,15.5,6.9,15.5,15.5
		C375.2,249.1,368.2,256.1,359.7,256.1z M432.1,25.7h4.2v1.8c0.5-1.3,2.2-2.2,3.7-2.2c4.2,0,5.9,2.8,5.9,7.7v21.1h-4.4V33.2
		c0-2.5-0.9-3.7-2.5-3.7c-1.5,0-2.5,1.2-2.5,3.7v20.8h-4.4V25.7z M420.2,50.3c1.5,0,2.5-1.2,2.5-3.7V25.7h4.4v28.4h-4.2v-1.8
		c-0.5,1.3-2.2,2.2-3.7,2.2c-4.2,0-5.9-2.8-5.9-7.7V25.7h4.4v20.8C417.7,49,418.6,50.3,420.2,50.3z M412.7,5.4h5.2v5.7h-5.2V5.4z
		 M394.4,42.7h4.4v3.8c0,2.5,1.3,3.7,2.8,3.7c2.1,0,3.1-1.4,3.1-4.1c0-2.3-0.4-3.7-2.1-5.6l-5-5.8c-2.4-2.7-3-5-3-8.5
		c0-4.8,2.2-8.4,7.2-8.4c4.5,0,7.1,2.8,7.1,7.7v4.1h-4.4v-3.8c0-2.5-1.1-3.7-2.7-3.7c-1.9,0-2.8,1.7-2.8,4.1c0,2.3,0.4,3.7,2.1,5.6
		l5,5.8c2.4,2.7,3,5,3,8.5c0,4.8-2.5,8.4-7.5,8.4c-4.3,0-7.2-2.7-7.2-7.7V42.7z M406.2,480.5h-4.9v31.5h-4.4v-31.5H392v-4.3h14.2
		V480.5z M408,462.4h-2.6v6.7H401v-6.7h-9.6v-3.7l8.4-25.5h5.7v25.2h2.6V462.4z M423.2,512.1h-4.4v-20.8c0-2.5-0.9-3.7-2.5-3.7
		c-1.5,0-2.5,1.2-2.5,3.7v20.8h-4.4V474h4.4v11.5c0.5-1.3,2.1-2.2,3.6-2.2c4.2,0,5.9,2.8,5.9,7.7V512.1z M411.9,469.1v-5.7h5.2v5.7
		H411.9z M420.3,440.8v-3.6c2.3-0.2,4.3-1.2,4.6-4h3.8v35.9h-4.5v-28.3H420.3z M441.7,512.1h-4.2v-1.8c-0.5,1.3-2.2,2.2-3.7,2.2
		c-4.2,0-5.9-2.8-5.9-7.7v-21.1h4.4v20.8c0,2.5,0.9,3.7,2.5,3.7c1.5,0,2.5-1.2,2.5-3.7v-20.8h4.4V512.1z M441.2,469.5
		c-4.4,0-7.1-2.9-7.1-7.8v-21.2c0-4.9,2.6-7.8,7.1-7.8c4.4,0,7,2.9,7,7.8v4h-4.4v-3.8c0-2.5-1-3.7-2.6-3.7c-1.7,0-2.6,1.2-2.6,3.7
		v8.5c0.5-1.3,2.2-2.2,3.7-2.2c4.2,0,6.1,2.8,6.1,7.8v6.9C448.3,466.6,445.6,469.5,441.2,469.5z M457,488.4
		c-3.3-0.6-5.8,1.2-5.8,5.4v18.3h-4.4v-28.3h4.3v3.6c0.9-2.6,3.4-3.9,5.9-3.8V488.4z M465.3,512.1h-5.2v-5.7h5.2V512.1z M694.3,233
		L538.8,408.2L385.7,233L538.8,57.7L694.3,233z M450.7,48.4h5.2v5.7h-5.2V48.4z"/>
	<rect x="245.6" y="32" class="st1" width="2.9" height="3.9"/>
	<rect x="131" y="32.8" class="st1" width="7.8" height="3.1"/>
	<rect x="237.6" y="21.9" class="st1" width="8.8" height="2.9"/>
	<rect x="235.4" y="32" class="st1" width="2.9" height="3.9"/>
	<rect x="193.3" y="28.9" class="st1" width="10.4" height="0.8"/>
	<path class="st1" d="M208,159.8L335.2,16.5L321.4,1H96.5L82.9,16.5L208,159.8z M142.5,28.1h-7.1v2h6.2v9.8h-2.8v-1.4H131v1.4h-2.8
		v-9.8h4.4v-6.5h2.9v1.8h7.1V28.1z M275.8,21h8.1c-0.3-0.7-0.5-1.4-0.8-2.1l3.3-0.8c0.3,0.9,0.7,1.9,1,2.9h8.2v2.9h-8.5v2.6h7.5v7.9
		c0,0.6-0.1,1.2-0.3,1.7c-0.2,0.5-0.5,0.8-0.8,1.1c-0.4,0.3-0.8,0.5-1.3,0.5c-0.5,0.1-1.6,0.1-3.4,0.1c-0.2-1-0.5-1.9-0.8-2.9
		c0.8,0.1,1.5,0.1,2.4,0.1c1,0,1.5-0.5,1.5-1.5v-4.3h-4.6v10.9h-3V29.3H280v8.5h-2.8V26.5h7v-2.6h-8.4V21z M253.8,35.8h7.7V18.4h3.4
		v6.1h7.7v3.2h-7.7v8.1h9.1V39h-20.1V35.8z M251.4,39.7h-2.9v-1h-2.9v1h-2.9V29.3h8.7V39.7z M234.5,19.1h15v8.5h-15V19.1z
		 M232.5,29.3h8.7v10.4h-2.9v-1h-2.9v1h-2.9V29.3z M221.5,20.1c3.2-0.3,5.7-0.9,7.7-1.6l1.2,2.9c-1.9,0.5-3.9,0.9-6.2,1.1v2.9h6.2
		v2.9h-1.6v11.5h-2.7V28.3h-1.8v1.3c0,4.7-1,8.2-2.9,10.7c-0.9-0.9-1.8-1.6-2.6-2.2c0.8-0.7,1.4-1.7,1.9-2.8l-2.1,1.3
		c-0.5-1.2-1-2.3-1.6-3.3l2-1.1c0.5,0.7,1.1,1.7,1.7,3c0.6-1.4,0.9-3.2,0.9-5.2V20.1z M213.3,36.9c0.5,0,0.8-0.3,0.8-1v-4.1h-3.9
		v-2.5h3.9v-1.4h-4.2v-2.5h2.2c-0.3-0.6-0.6-1.2-0.9-1.7l2.3-1c0.6,1,1,1.9,1.4,2.7h0.9c0.7-1.2,1.2-2.1,1.4-2.7h-7v-2.5h3.7
		c-0.2-0.5-0.4-1-0.5-1.5l2.9-0.6c0.2,0.6,0.4,1.2,0.6,2h3.5v2.5h-2.9c0.4,0.2,1.1,0.5,2.2,1c-0.2,0.4-0.6,0.9-1.1,1.7h2.1v2.5h-4
		v1.4h3.7v2.5h-3.7v5.3c0,0.7-0.1,1.2-0.4,1.6s-0.7,0.7-1.1,0.8c-0.5,0.1-1.4,0.2-2.7,0.2c-0.1-0.9-0.2-1.7-0.4-2.5l-0.4,1
		c-0.5-0.4-1.3-0.7-2.2-1.1c0.7-1.4,1.3-3,1.8-4.9l2.3,0.8c-0.4,1.3-0.8,2.6-1.3,3.9C212.7,36.9,213,36.9,213.3,36.9z M190.7,31.5
		v-9.3h4.9c0.1-0.4,0.2-0.7,0.3-1h-7.4V19h19.6v2.1h-8.9l-0.4,1h7.7v9.3h-10.7c-0.3,0.3-0.5,0.7-0.8,1h11.4v2
		c-1.1,0.9-2.3,1.6-3.8,2.3c1.7,0.3,3.7,0.4,5.8,0.3c-0.4,1-0.8,1.9-1.1,2.7c-3.2-0.3-5.9-0.9-8.3-1.7c-2.6,0.8-5.7,1.5-9.2,2
		c-0.3-0.9-0.7-1.7-1.1-2.6c2.5-0.1,4.8-0.4,6.8-0.8c-1.1-0.6-2.1-1.3-2.9-2c-0.9,0.8-1.9,1.5-2.9,2.1c-0.5-0.6-1-1.3-1.6-2
		c1.9-1.1,3.4-2.2,4.5-3.4H190.7z M166.3,28.7v-2.2h6.2c0.2-0.4,0.4-0.7,0.6-1.1h-5.3v-2.2h6.1c0.1-0.4,0.2-0.7,0.3-1.1h-7.2v-2.2
		h7.6c0.1-0.5,0.1-1,0.2-1.5h2.8c-0.1,0.5-0.1,1-0.2,1.5h8.3V22h-8.7l-0.2,1.1h8.2v2.2h-8.9c-0.2,0.4-0.3,0.8-0.5,1.1h11v2.2h-5.1
		c1.4,1.4,3.2,2.5,5.3,3.1c-0.7,1.3-1.2,2.1-1.4,2.7c-0.8-0.3-1.6-0.7-2.4-1.2v6.9h-2.7v-0.9h-7.8v0.9h-2.7v-7
		c-0.6,0.5-1.3,0.9-2,1.4c-0.7-1.1-1.3-1.9-1.7-2.5c1.9-0.9,3.5-2,4.8-3.4H166.3z M145.6,21.7h7.7c0-1.3,0.1-2.4,0.1-3.6h2.7
		c0,1.3,0,2.5,0,3.6h7.6v14.5c0,1.1-0.2,2-0.7,2.5c-0.5,0.6-1.2,0.9-2.1,1c-0.9,0.1-2.2,0.1-3.8,0.1c-0.2-0.8-0.4-1.8-0.6-2.9
		c0.9,0.1,1.8,0.1,2.7,0.1c0.5,0,0.8,0,1-0.1c0.2-0.1,0.4-0.2,0.5-0.4c0.1-0.2,0.2-0.5,0.2-0.9v-11H156c-0.1,1.2-0.2,2.2-0.4,3.1
		c1.4,1.1,3.1,2.5,5.1,4.2l-2.1,2.2c-0.9-1-2.2-2.3-4-4c-0.9,1.6-2.2,3-4,4.3c-0.7-0.9-1.4-1.7-2.1-2.3c3-1.9,4.5-4.4,4.7-7.5h-4.8
		V40h-2.8V21.7z M124.1,20.6h8.1c-0.2-0.5-0.4-1.1-0.6-1.6l3.4-0.8c0.3,0.8,0.6,1.6,0.9,2.4h7v2.7h-16v5c0,5.6-0.7,9.5-2.1,11.9
		c-0.7-0.8-1.6-1.5-2.4-2.1c1.2-2.2,1.8-5.6,1.7-10.2V20.6z"/>
	<rect x="172.5" y="35.7" class="st1" width="7.8" height="1.4"/>
	<path class="st1" d="M178.7,28.7h-4.4c-0.3,0.5-0.7,1-1.1,1.4h6.5C179.3,29.6,179,29.2,178.7,28.7z"/>
	<rect x="193.3" y="26.5" class="st1" width="10.4" height="0.8"/>
	<rect x="193.3" y="24.1" class="st1" width="10.4" height="0.8"/>
	<path class="st1" d="M202.2,34.5h-6.5c0.9,0.6,1.9,1,3.1,1.4C200,35.5,201.1,35.1,202.2,34.5z"/>
	<rect x="172.5" y="32.3" class="st1" width="7.8" height="1.4"/>
	<rect x="645.6" y="226" class="st1" width="11.8" height="1"/>
	<rect x="645.6" y="223.4" class="st1" width="11.8" height="1"/>
	<path class="st1" d="M654.9,232.4h-1.8v1.6h3.3C655.9,233.5,655.4,233,654.9,232.4z"/>
	<rect x="499.1" y="264.2" class="st1" width="2.2" height="1.5"/>
	<path class="st1" d="M431.9,235.2c0.8,0,1.4-0.3,1.9-0.9c0.5-0.6,0.8-1.3,0.8-2.2v-1l-2.5,0.3c-1.4,0.2-2.1,0.9-2.1,2
		c0,0.5,0.2,0.9,0.5,1.3C430.8,235,431.3,235.2,431.9,235.2z"/>
	<path class="st1" d="M420.9,224.5c0-2.1-1.1-3.1-3.4-3.1h-1.7v6.3h1.7C419.7,227.7,420.9,226.6,420.9,224.5z"/>
	<path class="st1" d="M547,266.1v2.6h9.8v-1.4h-1.4c-1.8,0-2.7-1-2.7-3.1v-3.1h-1.5c-0.1,2.7-0.8,5.1-2.2,7
		C548.2,267.3,547.5,266.6,547,266.1z"/>
	<path class="st1" d="M649.9,232.4h-1.8c-0.5,0.6-1,1.1-1.6,1.6h3.3V232.4z"/>
	<rect x="571.2" y="268.8" class="st1" width="9" height="3.5"/>
	<rect x="547" y="271.4" class="st1" width="9.8" height="1.8"/>
	<rect x="499.1" y="268.1" class="st1" width="2.2" height="1.5"/>
	<rect x="551.2" y="256" class="st1" width="1.4" height="2.4"/>
	<path class="st1" d="M538.8,408.2L694.3,233L538.8,57.7L385.7,233L538.8,408.2z M480.3,278.1h-3.2c-2.9-3.4-4.3-7.5-4.3-12.1
		c0-4.7,1.5-8.7,4.4-12h3.2c-2.8,3.6-4.2,7.6-4.2,12C476.1,270.4,477.5,274.5,480.3,278.1z M481.9,236.6c-1.3,1-3,1.5-5.3,1.5
		c-2.1,0-3.8-0.4-5.2-1.1v-4.2c1.5,1.3,3.2,2,5.1,2c1.1,0,1.9-0.2,2.4-0.6c0.5-0.4,0.8-0.9,0.8-1.5c0-0.5-0.2-1-0.6-1.5
		c-0.4-0.5-1.6-1.1-3.4-1.9c-2.9-1.3-4.3-3.2-4.3-5.7c0-1.8,0.7-3.2,2-4.3c1.3-1,3-1.5,5.2-1.5c1.8,0,3.3,0.2,4.5,0.7v3.9
		c-1.2-0.9-2.7-1.3-4.3-1.3c-1,0-1.7,0.2-2.3,0.6c-0.6,0.4-0.9,0.9-0.9,1.5c0,0.5,0.2,1,0.6,1.4s1.4,1,2.9,1.7
		c1.8,0.8,3.1,1.7,3.8,2.7c0.7,0.9,1,2,1,3.3C483.7,234.2,483.1,235.6,481.9,236.6z M495.8,273.4c-2.3,0.4-4.7,1-7.1,1.6l-0.5-3.5
		c0.9-0.2,1.8-0.3,2.6-0.5v-5.9h-2V262h2v-5.1h-2v-3.2h7.2v3.2h-2.1v5.1h1.9v3.2h-1.9v5.3c0.8-0.2,1.5-0.3,2.1-0.4
		C495.8,271,495.8,272.1,495.8,273.4z M503.9,274.2c0,1.7-0.8,2.6-2.4,2.7c-0.4,0-0.9,0-1.6-0.1c-0.1-0.9-0.2-1.9-0.4-2.8
		c0.1,0,0.5,0,1.2,0.1c0.4,0,0.6-0.3,0.6-0.8V272h-2.2v5h-2.6v-15.1h7.3V274.2z M510.7,273.6c0,2.1-0.8,3.2-2.5,3.3
		c-1.4,0-2.3,0-2.7,0c-0.2-1.3-0.3-2.3-0.5-3.1c0.7,0.1,1.4,0.1,2.1,0.1c0.6,0,0.9-0.5,0.9-1.6v-10.3h2.7V273.6z M504.8,272.1V263
		h2.2v9.1H504.8z M510.2,261.6c-1-0.6-2-1.3-3-2.2v1.3h-7.7v-0.9c-0.8,0.7-1.7,1.3-2.7,2c-0.3-0.4-0.8-1.4-1.7-2.8
		c3.2-1.8,5.6-4,7-6.6h3.7l-0.5,0.7c2,2.7,4.3,4.7,6.7,5.9C511.4,259.8,510.7,260.7,510.2,261.6z M510.4,237.8v-14h3.8v14H510.4z
		 M540.6,276.8c-1.2-0.4-2.3-0.7-3.3-1c0.9-2.6,1.7-5.9,2.6-9.7c1.3,0.5,2.4,0.9,3.2,1.1C542.3,270.9,541.5,274.1,540.6,276.8z
		 M537,261.3l2-2.5c1.8,1.4,3.2,2.6,4.2,3.6l-2.2,2.6C539.5,263.7,538.2,262.4,537,261.3z M560.5,256h-5.2v2.4h4.5v18.8h-3v-1.3H547
		v1.3h-3v-18.8h4.5V256h-5v-0.3l-2.1,2.4c-1.3-1.3-2.5-2.4-3.6-3.3l2-2.3c1.6,1.2,2.8,2.2,3.7,3v-2.3h17V256z M544.3,228.2v-3.3
		h17.4v3.3c-2.8,1.2-5.8,2.7-8.9,4.5c-3.1,1.7-4.7,2.9-4.7,3.5c0,0.5,0.4,0.8,1.2,0.8h8.2c1.2,0,2.1-0.1,2.6-0.4
		c0.5-0.3,0.9-0.8,1.2-1.6c0.3-0.7,0.5-2.1,0.6-4.2l3.6,1.4c-0.2,1.7-0.5,3.2-0.9,4.4c-0.4,1.3-1.2,2.2-2.3,2.9
		c-1.1,0.5-2.5,0.7-4.2,0.7h-8c-2.2,0-3.8-0.3-4.7-0.9c-0.9-0.6-1.4-1.6-1.4-3.1c0-1.2,1.1-2.6,3.4-4.1c2.3-1.5,4.8-2.8,7.7-4.1
		H544.3z M584.4,263.4h-8.1v2.3h7.1v11.2h-3.2v-1.6h-9v1.6H568v-11.2h5v-7.5h3.3v2.1h8.1V263.4z M584.9,257.9h-18.3v5.7
		c0,6.4-0.8,10.9-2.5,13.7c-0.9-0.9-1.8-1.7-2.8-2.5c1.4-2.6,2-6.5,2-11.6v-8.4h9.3c-0.2-0.6-0.5-1.2-0.7-1.8l3.9-1
		c0.3,0.9,0.7,1.8,1,2.8h8V257.9z M596.1,278.1h-3.2c2.8-3.6,4.2-7.6,4.2-12c0-4.4-1.4-8.4-4.2-12.1h3.2c2.9,3.4,4.3,7.5,4.3,12.1
		C600.4,270.8,599,274.8,596.1,278.1z M640.3,217.6h6v-1.2h3.2v1.2h4v-1.2h3.2v1.2h6.1v2.4h-6.1v0.9h-3.2V220h-4v0.9h-3.2V220h-6
		V217.6z M640.3,232.4V230h6.5c0.3-0.3,0.5-0.7,0.8-1h-5.2v-7.5h18.2v7.5h-9.7c-0.2,0.4-0.5,0.7-0.7,1h12.5v2.4H658
		c1.8,1.4,3.6,2.2,5.3,2.5c-0.4,0.8-0.9,1.7-1.3,2.8c-0.9-0.4-1.7-0.8-2.5-1.4v1.4c0,0.7-0.2,1.2-0.5,1.6c-0.4,0.4-0.9,0.6-1.7,0.6
		c-0.8,0-1.6,0-2.7,0c-0.2-1.3-0.3-2.1-0.4-2.6c0.7,0.1,1.2,0.2,1.5,0.2c0.6,0,0.8-0.2,0.9-0.6v-0.6h-3.4v4.9h-3.2v-4.9h-3.4v3.6h-3
		v-3.5c-0.7,0.5-1.4,0.9-2.2,1.2c-0.5-1.2-1-2.1-1.4-2.6c1.7-0.7,3.1-1.5,4.4-2.5H640.3z M615.4,227.1h5.5v-6.2h-4.2v-3.3h21.3v3.3
		h-3.8v6.2h4.8v3.3h-4.8v10.4h-3.5v-10.4h-6.4c-0.2,3.1-0.7,5.4-1.6,6.9c-0.9,1.5-2.3,2.9-4.2,4c-0.9-0.8-1.9-1.7-3-2.6
		c1.5-0.8,2.7-1.8,3.7-3c1-1.2,1.5-2.9,1.7-5.3h-5.4V227.1z M613.4,226.4v2.5h-4.2v1.9h4.9v2.5h-1.8l1.1,1.6l-3.5,1.7
		c1.3,0.6,2.8,0.9,4.5,1.1c-0.2,0.2-0.8,1.3-2,3.2c-3.2-0.9-5.7-2.4-7.6-4.6c0,1-0.1,2,0,3c-3.1,0.8-5.2,1.5-6.2,1.9l-1.1-2.7
		c0.4-0.4,0.5-1.3,0.5-2.8v-2.6h-1.9c-0.3,3.1-1.1,5.9-2.3,8.1c-0.8-1.2-1.6-2.3-2.4-3.2c1.1-2.5,1.7-6.8,1.7-12.9v-8.1H613v7.3
		h-3.9v1.9H613.4z M595.6,158h4.4v11.5c0.5-1.3,2.1-2.2,3.6-2.2c4.2,0,5.9,2.8,5.9,7.7v21.1H605v-20.8c0-2.5-0.9-3.7-2.5-3.7
		c-1.5,0-2.5,1.2-2.5,3.7v20.8h-4.4V158z M583.3,167.7h2.1V161h4.4v6.7h3.6v4.5h-3.6V188c0,2.6,0.9,3.9,3.6,3.6v4.4
		c-5.7,0.5-8-2.7-8-7.5v-16.4h-2.1V167.7z M576.7,158h4.4v5.6h-4.4V158z M576.7,167.7h4.4v28.3h-4.4V167.7z M576.6,216.2h3.5v5.7h5
		c-1.3-1.4-2.5-2.6-3.6-3.6l2-2.2c1.3,1,2.6,2.2,4,3.5l-2.1,2.3h4v3.4h-8.5c2.3,4.2,5.5,7.5,9.3,9.7c-1,1-1.9,2.1-2.7,3.2
		c-3-2.3-5.5-5.3-7.4-8.8v11.6h-3.5v-11.9c-1.9,3.5-4.4,6.6-7.7,9.2c-0.8-1.1-1.7-2.1-2.5-3.1c3.7-2.5,6.7-5.9,9-10h-8.1v-3.4h9.2
		V216.2z M550.2,167.7h4.2v1.8c0.5-1.3,2.2-2.2,3.7-2.2c2.5,0,3.8,0.9,4.6,2.7c0.8-1.7,2.4-2.7,4.6-2.7c4.2,0,5.7,2.8,5.7,7.7v21.1
		h-4.4v-20.8c0-2.5-0.8-3.7-2.4-3.7c-1.5,0-2.4,1.2-2.4,3.7v20.8h-4.4v-20.8c0-2.5-0.8-3.7-2.4-3.7c-1.5,0-2.4,1.2-2.4,3.7v20.8
		h-4.4V167.7z M547.9,216.2h3.5v2.7h5v-2.7h3.5v2.7h5.7v3.2h-5.7v1.9h-3.5v-1.9h-5v1.9h-3.5v-1.9h-5.7v-3.2h5.7V216.2z M532.5,184.7
		h4.4v3.8c0,2.5,1.3,3.7,2.8,3.7c2.1,0,3.1-1.4,3.1-4.1c0-2.3-0.4-3.7-2.1-5.6l-5-5.8c-2.4-2.7-3-5-3-8.5c0-4.8,2.2-8.4,7.2-8.4
		c4.5,0,7.1,2.8,7.1,7.7v4.1h-4.4v-3.8c0-2.5-1.1-3.7-2.7-3.7c-1.9,0-2.8,1.7-2.8,4.1c0,2.3,0.4,3.7,2.1,5.6l5,5.8
		c2.4,2.7,3,5,3,8.5c0,4.8-2.5,8.4-7.5,8.4c-4.3,0-7.2-2.7-7.2-7.7V184.7z M527.7,217h3.8v8.8h0c1-1.6,2.4-2.4,4.1-2.4
		c3,0,4.5,1.9,4.5,5.8v8.6h-3.8v-8c0-2.2-0.7-3.2-2.2-3.2c-0.7,0-1.3,0.3-1.8,0.9c-0.5,0.6-0.7,1.4-0.7,2.3v8h-3.8V217z
		 M536.4,258.7c-0.6,1.1-1.1,2.3-1.7,3.4c-1.5-0.6-2.9-1.3-4.2-2.1v1.2h-4.4v1.6h9.5v3h-9.5v1.8h7.1v9.6h-3.1v-1.2h-11.2v1.2h-3.1
		v-9.6h7.1v-1.8h-9.4v-3h9.4v-1.6h-4.4v-1.3c-1.3,0.8-2.7,1.6-4.1,2.3c-0.5-1-1.1-2.1-1.8-3.2c4.2-1.7,7.6-3.9,10.4-6.9h4.4
		l-0.7,0.7C529.1,255.3,532.4,257.2,536.4,258.7z M517,158h4.4v38.1H517V158z M516.4,223.7h2.2v-3.1l3.8-1.2v4.2h3v3.1h-3v5.9
		c0,1.5,0.6,2.2,1.7,2.2c0.4,0,0.9-0.1,1.3-0.4v3.1c-0.6,0.3-1.5,0.5-2.6,0.5c-2.8,0-4.2-1.6-4.2-4.7v-6.6h-2.2V223.7z M514.5,219.2
		c0,0.6-0.2,1.1-0.6,1.5c-0.4,0.4-1,0.6-1.6,0.6c-0.6,0-1.2-0.2-1.6-0.6c-0.4-0.4-0.6-0.9-0.6-1.5c0-0.6,0.2-1.1,0.6-1.5
		c0.4-0.4,1-0.6,1.6-0.6c0.7,0,1.2,0.2,1.6,0.6C514.3,218.1,514.5,218.6,514.5,219.2z M499.4,167.7h4.4v20.8c0,2.5,0.9,3.7,2.5,3.7
		c1.5,0,2.5-1.2,2.5-3.7v-20.8h4.4v28.3H509v-1.8c-0.5,1.3-2.2,2.2-3.7,2.2c-4.2,0-5.9-2.8-5.9-7.7V167.7z M498.4,226
		c1-1.8,2.5-2.7,4.4-2.7c2.9,0,4.3,1.9,4.3,5.7v8.7h-3.8v-8c0-2.1-0.7-3.2-2.2-3.2c-0.7,0-1.3,0.3-1.7,1c-0.5,0.7-0.7,1.4-0.7,2.4
		v7.9h-3.8v-8.1c0-2.1-0.7-3.1-2.2-3.1c-0.7,0-1.3,0.3-1.7,0.9c-0.4,0.6-0.6,1.4-0.6,2.5v7.8h-3.8v-14h3.8v2.2h0
		c0.5-0.8,1.1-1.4,1.8-1.9c0.8-0.4,1.6-0.7,2.4-0.7C496.4,223.4,497.7,224.3,498.4,226z M489.4,171.5c-1.7,0-2.4,1.3-2.4,3.8v1.7
		h-4.4v-1.7c0-4.9,2.5-8,6.9-8c5.5,0,6.5,4,6.5,9.1v9.6c0,6.3,0.1,8.1,0.5,10.1h-4.3c-0.2-0.7-0.3-1.5-0.3-2.2
		c-0.9,1.7-2.6,2.6-4.6,2.6c-2.7,0-5.4-2.2-5.4-7c0-4.6,1.8-6.9,5.5-8.9c2.9-1.6,4.3-2.6,4.3-5.7C491.6,173,491.1,171.5,489.4,171.5
		z M466.1,160.2h7.1c5.1,0,7.2,3.1,7.2,7.8v6.3c0,4.7-2.1,7.8-7.2,7.8h-2.6v14h-4.4V160.2z M457.2,217h3.8v20.8h-3.8V217z
		 M441.3,223.7h3.8v8.1c0,2.1,0.8,3.1,2.3,3.1c0.8,0,1.4-0.3,1.8-0.9c0.5-0.6,0.7-1.4,0.7-2.3v-8h3.8v14H450v-2.1h-0.1
		c-1,1.7-2.3,2.5-4,2.5c-3.1,0-4.6-2-4.6-5.9V223.7z M431,229.2l3.6-0.5c0-1.6-0.8-2.4-2.4-2.4c-1.6,0-3.1,0.5-4.4,1.5v-3.2
		c0.6-0.4,1.4-0.6,2.4-0.9c1-0.2,1.8-0.3,2.6-0.3c3.7,0,5.5,2,5.5,5.9v8.5h-3.7v-2h0c-0.9,1.6-2.2,2.4-3.9,2.4c-1.2,0-2.2-0.4-3-1.1
		c-0.8-0.8-1.1-1.8-1.1-3.1C426.4,231.2,427.9,229.6,431,229.2z M418.1,218.1c4.6,0,6.9,2.1,6.9,6.2c0,2-0.7,3.6-2.1,4.8
		c-1.4,1.2-3.1,1.8-5.2,1.7h-2v6.9h-3.9v-19.7H418.1z"/>
	<path class="st1" d="M556.2,264.6h0.5v-3.5h-1.5v2.5C555.3,264.2,555.6,264.6,556.2,264.6z"/>
	<path class="st1" d="M486.3,188.9c0,2.5,1,3.4,2.4,3.4c1.7,0,2.8-1.4,2.8-4.3v-6.2c-0.5,0.7-1.1,1.2-2.2,1.9
		C487.3,185.1,486.3,186.3,486.3,188.9z"/>
	<rect x="602.5" y="228.9" class="st1" width="3.7" height="1.9"/>
	<path class="st1" d="M501.4,258h4.4c-0.7-0.8-1.5-1.7-2.1-2.7C503,256.2,502.3,257.1,501.4,258z"/>
	<path class="st1" d="M607.2,235.2l3-1.9h-4.9C605.9,234,606.5,234.6,607.2,235.2z"/>
	<rect x="518.8" y="270.7" class="st1" width="11.2" height="2.5"/>
	<path class="st1" d="M520.8,258.3h7.1c-1.3-0.9-2.4-1.9-3.5-3C523.3,256.3,522.1,257.3,520.8,258.3z"/>
	<rect x="596.1" y="220" class="st1" width="13.7" height="2"/>
	<rect x="602.5" y="224.5" class="st1" width="3.7" height="1.9"/>
	<path class="st1" d="M600.9,233.3v4.1c1-0.3,2.2-0.7,3.6-1.1c-0.8-0.9-1.5-1.9-2-3H600.9z"/>
	<path class="st1" d="M547,261.1v4.5c0.9-1.4,1.4-2.9,1.5-4.5H547z"/>
	<rect x="624.3" y="220.9" class="st1" width="6.3" height="6.2"/>
	<path class="st1" d="M475.9,174v-5.8c0-2.3-0.9-3.7-2.7-3.7h-2.6v13.2h2.6C475,177.7,475.9,176.3,475.9,174z"/>
	<polygon class="st1" points="596.1,226.4 599.4,226.4 599.4,224.5 596.1,224.5 	"/>
	<path class="st1" d="M596,230.8h3.4v-1.9h-3.3C596,229.6,596,230.2,596,230.8z"/>
	<path class="st1" d="M171.1,432.3c1.7,0,2.7-1.2,2.7-3.7v-13.3c0-2.5-1.1-3.7-2.7-3.7s-2.7,1.2-2.7,3.7v13.3
		C168.4,431.1,169.5,432.3,171.1,432.3z"/>
	<path class="st1" d="M232,432.3c1.7,0,2.7-1.2,2.7-3.7v-13.3c0-2.5-1.1-3.7-2.7-3.7s-2.7,1.2-2.7,3.7v13.3
		C229.3,431.1,230.4,432.3,232,432.3z"/>
	<rect x="251.7" y="467.4" class="st1" width="2" height="3.2"/>
	<path class="st1" d="M255.7,509.2h3v-4.9h-3V509.2z M257.2,504.9l1.4,0.5c-0.4,1-0.9,2.1-1.4,3.2c-0.5-0.3-0.9-0.5-1.3-0.7
		C256.4,506.9,256.9,505.8,257.2,504.9z"/>
	<path class="st1" d="M288.5,468h-9.3c1.3,1.1,2.8,2,4.5,2.7C285.5,470,287.1,469.1,288.5,468z"/>
	<path class="st1" d="M253.8,473.6h-2c0,1.2,0,2.3,0,3.2h2.1V473.6z"/>
	<rect x="251.7" y="519.1" class="st1" width="6" height="1.5"/>
	<path class="st1" d="M261.1,477.5l2.6-1.2c0.5,1.4,1.1,2.7,1.8,3.7c0.7-1.2,1.3-2.5,1.7-3.9h-6.4v8.4c1-0.6,1.9-1.2,2.7-2
		C262.6,481.1,261.8,479.4,261.1,477.5z"/>
	<path class="st1" d="M250.6,509.2h3v-4.9h-3V509.2z M252,504.9c0.3,0.6,0.7,1.6,1.4,3.1c-0.4,0.2-0.9,0.4-1.4,0.6
		c-0.3-1-0.8-2-1.3-3.1L252,504.9z"/>
	<path class="st1" d="M146.8,505.8c-0.1,0.3-0.3,0.6-0.5,0.9l-4.1,6.8h4.9V507c0-0.5,0-1.2,0-1.9H147
		C146.9,505.3,146.9,505.5,146.8,505.8z"/>
	<path class="st1" d="M182.4,503.9c-1.9,0-2.8,2.4-2.8,7.2c0,4.5,0.9,6.8,2.7,6.8c1.8,0,2.7-2.3,2.7-7
		C185,506.2,184.1,503.9,182.4,503.9z"/>
	<path class="st1" d="M27.9,476.4L181,651.6l155.5-175.2L181,301.2L27.9,476.4z M164,407.7h4.2v1.9c0.5-1.4,2.3-2.3,3.9-2.3
		c4.2,0,6.1,2.8,6.1,7.7v13.8c0,5-2,7.7-6.1,7.7c-1.5,0-3.3-0.9-3.7-2.2v12.2H164V407.7z M176.5,463.9v20.8h-3.8v-20.8H176.5z
		 M145.3,415c0-4.9,2.6-7.7,7.1-7.7s7.1,2.8,7.1,7.7v8.2h-9.8v5.3c0,2.5,1.1,3.7,2.7,3.7s2.7-1.2,2.7-3.7v-1.6h4.4v1.9
		c0,4.9-2.6,7.7-7.1,7.7c-4.4,0-7.1-2.8-7.1-7.7V415z M126.7,400.2h6.9c5.1,0,7.2,3.1,7.2,7.8v4.8c0,2.5-1.2,4.3-2.8,5.2
		c1.9,0.8,2.8,3,2.8,5.7v8.3c0,1.4,0.2,3,0.6,4.1h-4.5c-0.4-1-0.5-1.8-0.5-3.6V424c0-2.3-0.9-3.7-2.7-3.7h-2.5v15.8h-4.4V400.2z
		 M93,465.3h9.2c-0.2-0.7-0.5-1.3-0.7-1.8l4.1-0.6c0.2,0.7,0.4,1.4,0.7,2.3h8.9v6.4h-3.3v-3.5H96.2v3.5H93V465.3z M75.4,485.2
		c-0.3,0.9-0.9,1.6-1.7,2c-0.8,0.4-2.3,0.5-4.4,0.4c-0.1-0.8-0.2-1.9-0.5-3.3c1.1,0.2,1.9,0.2,2.3,0.2c0.4,0,0.8-0.1,1-0.3
		c0.3-0.2,0.4-0.5,0.5-0.9c0.1-0.4,0.1-1.1,0.1-2.2c0-1,0-2-0.1-2.9c-0.9,1.3-2,2.5-3.3,3.7c-0.3-0.6-0.8-1.6-1.5-3
		c1.6-1.3,3-2.9,4.2-4.7c-0.1-0.7-0.3-1.4-0.5-2c-0.6,0.5-1.2,1.1-1.9,1.6c-0.7-1.2-1.3-2.1-1.8-2.8c0.8-0.6,1.6-1.3,2.5-2.1
		c-0.6-1.3-1.3-2.5-2.2-3.5l2.2-1.9c0.9,0.9,1.7,1.9,2.3,3.1c0.8-0.8,1.6-1.7,2.3-2.7l2.3,2.2c-1,1.2-2,2.4-3.1,3.6
		c1.1,2.9,1.6,6.2,1.6,10.1C75.9,482.4,75.7,484.2,75.4,485.2z M91.3,516.4H89v4.3h-3.5v-4.3h-8.1v-2.6l7.8-12.8H89v12.4h2.2V516.4z
		 M89,488.1c-0.2-0.8-0.5-1.6-0.7-2.3l-11.8,1.4l-0.4-3.3l5.9-0.5v-4.7h-2.3v0.8h-3v-12H82v-4.4h3.2v4.4h5.2v11.2h-5.2v4.4l2.2-0.2
		c-0.3-0.8-0.5-1.6-0.8-2.3l2.7-0.8c0.9,2.2,1.7,4.7,2.5,7.5L89,488.1z M96.8,520.4c-0.4,0.4-1,0.6-1.7,0.6c-0.6,0-1.1-0.2-1.6-0.6
		c-0.4-0.4-0.7-0.9-0.7-1.6c0-0.6,0.2-1.2,0.7-1.6c0.5-0.4,1-0.6,1.6-0.6c0.6,0,1.2,0.2,1.6,0.6c0.4,0.4,0.7,0.9,0.7,1.5
		C97.5,519.5,97.3,520,96.8,520.4z M112.1,520.7h-11.5v-3.3h3.8v-12.6l-4,1v-3.4l7.8-1.8v16.7h3.8V520.7z M108.2,478.4l-1,0.5
		c0.4,1.3,0.6,2.6,0.6,3.9c0,1.1-0.1,2-0.3,2.7c-0.2,0.7-0.6,1.2-1,1.7c-0.5,0.4-1,0.7-1.6,0.8c-0.6,0.1-2.1,0.2-4.5,0.2
		c-0.2-1.2-0.5-2.2-0.8-3.1c-1.6,0.9-3.5,1.7-5.4,2.4c-0.5-1-1.2-2-1.9-3c4.7-1.2,8.5-3,11.4-5.5c-0.1-0.3-0.3-0.7-0.4-1
		c-2.6,1.9-5.6,3.4-8.9,4.4l-1.6-2.6c3.8-0.8,6.9-2.1,9.3-3.7c-0.2-0.3-0.4-0.5-0.6-0.8c-2.1,1.1-4.5,1.9-7.1,2.6
		c-0.5-0.9-1-1.8-1.6-2.6c3.2-0.6,6-1.5,8.2-2.7h-3.9v-2.8H111v2.8h-5.2c-0.5,0.4-1,0.7-1.5,1.1c0.7,0.9,1.3,1.7,1.8,2.6
		c2.7-1.3,4.9-2.6,6.6-3.7l1.9,2.8l-3.8,1.9c1.1,2.9,2.8,5.1,5.2,6.6c-1,1-1.9,1.9-2.7,2.8C111.2,484.9,109.5,482.2,108.2,478.4z
		 M125.6,519.1c-1.2,1.3-2.7,1.9-4.5,1.9c-2.1,0-3.7-0.8-4.9-2.4c-1.1-1.6-1.7-3.8-1.7-6.7c0-3.3,0.7-6,2.2-8.1s3.5-3.1,6.1-3.1
		c1.4,0,2.5,0.2,3.3,0.5v3.5c-0.9-0.6-2-0.9-3.1-0.9c-1.4,0-2.6,0.6-3.4,1.8c-0.9,1.2-1.3,2.7-1.3,4.6h0.1c0.9-1.4,2.2-2.2,3.9-2.2
		c1.5,0,2.8,0.6,3.7,1.7c0.9,1.1,1.4,2.6,1.4,4.4C127.4,516.2,126.8,517.8,125.6,519.1z M128.9,484.7h-10.8V465h3.9v16.2h6.9V484.7z
		 M136,465h4.6l6.6,19.7h-4.3l-1.4-4.5h-6.7l-1.4,4.5h-4.3L136,465z M136.9,514.6h-7v-2.9h7V514.6z M152.8,516.4h-2.2v4.3H147v-4.3
		h-8.1v-2.6l7.8-12.8h3.8v12.4h2.2V516.4z M149.9,480.3v-6.6h-2.2v-3.1h2.2v-3.1l3.8-1.2v4.3h3v3.1h-3v5.9c0,1.5,0.6,2.2,1.7,2.2
		c0.4,0,0.9-0.1,1.3-0.4v3.1c-0.6,0.3-1.5,0.5-2.6,0.5C151.3,485,149.9,483.5,149.9,480.3z M158.3,520.4c-0.4,0.4-1,0.6-1.7,0.6
		c-0.6,0-1.1-0.2-1.6-0.6c-0.4-0.4-0.7-0.9-0.7-1.6c0-0.6,0.2-1.2,0.7-1.6c0.5-0.4,1-0.6,1.6-0.6c0.6,0,1.2,0.2,1.6,0.6
		c0.4,0.4,0.7,0.9,0.7,1.5C159,519.5,158.8,520,158.3,520.4z M158,477.9c0-2.2,0.6-4.1,1.9-5.5c1.2-1.4,2.8-2.1,4.7-2.1
		c1.9,0,3.3,0.6,4.4,1.8c1.1,1.2,1.6,2.9,1.6,5v1.7h-8.7c0.1,2.2,1.4,3.3,3.7,3.3c1.5,0,2.7-0.4,3.8-1.1v3c-1.2,0.7-2.8,1.1-4.7,1.1
		c-2.1,0-3.7-0.6-4.9-1.9C158.6,481.9,158,480.1,158,477.9z M171.6,519.5c-1.3,1-3,1.6-5.1,1.6c-1.9,0-3.4-0.3-4.6-1v-3.6
		c1.2,1,2.7,1.5,4.3,1.5c1,0,1.9-0.2,2.5-0.7c0.6-0.5,0.9-1.2,0.9-2.1c0-0.9-0.4-1.6-1.1-2.1c-0.7-0.5-1.7-0.7-3.1-0.7h-1.6V509h1.5
		c2.5,0,3.7-0.9,3.7-2.7c0-1.7-0.9-2.5-2.8-2.5c-1.2,0-2.4,0.4-3.6,1.3v-3.4c1.3-0.7,2.8-1.1,4.5-1.1c1.7,0,3.2,0.4,4.3,1.3
		c1.1,0.9,1.6,2,1.6,3.6c0,2.6-1.2,4.2-3.7,4.8v0.1c1.3,0.2,2.3,0.7,3.1,1.5c0.8,0.9,1.2,1.9,1.2,3.1
		C173.5,517,172.8,518.4,171.6,519.5z M187.2,518.4c-1.2,1.8-2.8,2.7-5,2.7c-4.3,0-6.5-3.3-6.5-9.8c0-3.4,0.6-6,1.8-7.8
		c1.2-1.8,2.9-2.7,5.1-2.7c4.2,0,6.4,3.3,6.4,10C188.9,514,188.3,516.6,187.2,518.4z M179.7,484.7v-14h3.8v14H179.7z M193.6,523.7
		l-1.8-2.6c0.4-0.5,0.6-1.2,0.6-2.1v-8.1H190v-3.3h5.6v10c0.7-0.5,1.9-1.4,3.4-2.5c0.1,1.3,0.2,2.6,0.4,3.9
		C196.5,521,194.6,522.6,193.6,523.7z M191.3,500.7l2.8-1.7c1,1.4,2,3,3.1,4.9l-3,2C193.1,503.7,192.1,502,191.3,500.7z
		 M236.6,520.1c0,1.3-0.3,2.2-0.8,2.9c-0.5,0.6-1.3,1-2.3,1c-1,0-2.2,0.1-3.5,0.1c-0.1-1-0.3-2.2-0.6-3.6c1.3,0.1,2.2,0.1,2.9,0.1
		c0.8,0,1.2-0.5,1.2-1.6v-19.9h3V520.1z M229.3,518.1v-17h2.9v17H229.3z M246.2,523.3c-0.9-1.5-1.8-3-2.8-4.6
		c-0.7,2.1-1.9,4-3.5,5.6c-0.3-0.7-0.9-1.7-1.7-3c2.8-2.4,4.2-5.1,4.2-8.3v-8.7h1.9v8.7c0,0.9-0.1,1.8-0.2,2.7l4.5,5.4L246.2,523.3z
		 M241.5,503.1v13h-2.3v-15.8h8.3V516h-2.3v-12.9H241.5z M260.5,524.2h-2.8v-1h-6v1h-2.8v-11.4h11.6V524.2z M273,516.4
		c-1-1-1.9-1.8-2.6-2.5v10.2h-3.2v-9.2c-1.1,1.3-2.4,2.5-3.8,3.8c-0.4-1.6-0.7-3-1.1-4.2c3.2-2.8,5.4-5.4,6.8-7.7h-5.8v-3.4h4.7
		c-0.6-1-1.2-2-1.8-2.9l2.8-1.5c0.5,0.7,1.2,1.8,2.2,3.2l-2.1,1.2h4v3.1c-0.7,1.4-1.6,2.9-2.6,4.4v1.4l1-1.3
		c1.1,0.8,2.3,1.7,3.7,2.8L273,516.4z M285.1,521.3c-0.4,1.5-1.7,2.3-3.7,2.3h-2.5c-2.2,0-3.3-1.2-3.3-3.5v-20.6h3.3v19.7
		c0,0.9,0.4,1.3,1.2,1.3h0.6c0.8,0,1.3-0.4,1.5-1.1c0.3-1.6,0.5-3.2,0.6-4.8c0.9,0.5,2,0.9,3.3,1.4
		C285.9,518.1,285.5,519.9,285.1,521.3z M276.7,469.7c-0.9,0.8-1.9,1.6-3,2.2c-0.5-0.8-1.2-1.6-1.9-2.6c3.1-1.9,5.4-4,6.9-6.3h3.6
		c-0.5,0.7-0.9,1.5-1.5,2.2h12.4v2.7c-1.5,1.5-3.4,2.9-5.5,4.1c2.3,0.5,4.8,0.8,7.5,0.9c-0.5,1.3-0.9,2.4-1.3,3.4
		c-4.1-0.4-7.6-1.2-10.5-2.3c-3.1,1.2-6.6,2-10.6,2.7c-0.3-0.9-0.8-2-1.3-3.2c3-0.3,5.6-0.8,8.1-1.4
		C278.5,471.3,277.5,470.5,276.7,469.7z M278.8,480.8h-6.4v-3.1h7.4c0.2-0.7,0.3-1.5,0.4-2.4h3.4c-0.1,0.8-0.2,1.6-0.3,2.4h10.1
		l-0.4,5.8c-0.1,1-0.3,1.8-0.8,2.4c-0.5,0.6-1.1,1.1-1.9,1.4c-0.8,0.3-2.3,0.5-4.6,0.5c-0.8,0-1.6,0-2.5-0.1c-0.1-1-0.4-2.1-0.8-3.4
		c1.8,0.2,3.3,0.2,4.6,0.2c0.7,0,1.2-0.1,1.6-0.3c0.4-0.2,0.6-0.5,0.7-0.9c0.1-0.4,0.2-1.2,0.2-2.4h-7c-1.2,3.6-4.1,6-8.8,7.4
		c-0.6-0.9-1.4-1.9-2.2-2.9C275.2,484.3,277.6,482.8,278.8,480.8z M257.9,464.1h12.3c0,2.6-0.1,4.3-0.2,5.1
		c-0.2,0.8-0.4,1.4-0.8,1.9c-0.4,0.5-0.9,0.7-1.5,0.9c-0.6,0.1-2.2,0.2-4.8,0.1c-0.1-1-0.3-2-0.6-3.1c1.4,0.1,2.4,0.2,3,0.2
		c0.5,0,0.8-0.1,1.1-0.3c0.3-0.2,0.4-0.8,0.4-1.7h-5.9v6.1h9.6v2.9c-0.6,2.4-1.5,4.6-2.7,6.4c1,0.8,2.1,1.5,3.3,2
		c-0.6,1-1.3,2.1-2,3.4c-1.2-0.8-2.4-1.7-3.4-2.7c-1,1.1-2.1,2.1-3.4,2.9c-0.4-0.9-0.9-1.8-1.4-2.7v2.5h-3V464.1z M259.8,499.9
		l-1.2,1.9h2.6v10h-13v-10h2.5l-1.1-1.8l2.6-1l1.4,2.7h2.1l1.2-2.8L259.8,499.9z M248.6,480.8c0.2-1.7,0.3-4.4,0.3-8.1v-8.7h7.7
		v20.5c0,0.9-0.2,1.7-0.7,2.3c-0.5,0.6-1.8,0.9-3.9,0.9c-0.2-1.2-0.5-2.4-0.8-3.5c0.5,0.1,1,0.1,1.5,0.1c0.8,0,1.1-0.5,1.1-1.5v-3.1
		h-2.2c-0.1,3.7-0.8,6.5-2,8.3c-0.7-1.1-1.4-2-2.2-2.9C248,484,248.4,482.5,248.6,480.8z M242.8,483v-19.9h3v21
		c0,1.3-0.3,2.2-0.8,2.9s-1.3,1-2.3,1c-1,0-2.2,0.1-3.5,0.1c-0.1-1-0.3-2.2-0.6-3.6c1.3,0.1,2.2,0.1,2.9,0.1
		C242.4,484.5,242.8,484,242.8,483z M241.4,482h-2.9v-17h2.9V482z M224.9,415c0-4.9,2.7-7.7,7.1-7.7s7.1,2.8,7.1,7.7v13.8
		c0,4.9-2.7,7.7-7.1,7.7s-7.1-2.8-7.1-7.7V415z M223.4,471.7h5.8v-2.3h-2.6c-0.2,0.7-0.4,1.4-0.6,2.1c-0.7-0.3-1.5-0.7-2.5-1
		c0.7-2,1.2-4.2,1.6-6.5l2.6,0.6l-0.4,2.1h1.9v-3.5h3.1v3.5h4.8v2.9h-4.8v2.3h5.5v2.9h-5.5v2h4.9v6.9c0,0.9-0.2,1.7-0.6,2.2
		s-1,0.8-1.8,0.9c-0.8,0-1.4,0-1.8,0c-0.2-0.9-0.4-2-0.7-3.2c0.4,0.1,0.8,0.1,1.2,0.1c0.5,0,0.7-0.3,0.7-0.8v-3.1h-2v8.7h-3.1v-8.7
		h-2v7h-2.9v-9.9h4.9v-2h-5.8V471.7z M227.9,502.6v2.9h-4.8v2.3h5.5v2.9h-5.5v2h4.9v6.9c0,0.9-0.2,1.7-0.6,2.2
		c-0.4,0.5-1,0.8-1.8,0.9c-0.8,0-1.4,0-1.8,0c-0.2-0.9-0.4-2-0.7-3.2c0.4,0.1,0.8,0.1,1.2,0.1c0.5,0,0.7-0.3,0.7-0.8v-3.1h-2v8.7
		H220v-8.7h-2v7h-2.9v-9.9h4.9v-2h-5.8v-2.9h5.8v-2.3h-2.6c-0.2,0.7-0.4,1.4-0.6,2.1c-0.7-0.3-1.5-0.7-2.5-1c0.7-2,1.2-4.2,1.6-6.5
		l2.6,0.6l-0.4,2.1h1.9v-3.5h3.1v3.5H227.9z M222.8,468h-4.3v15.4c0,1-0.2,1.9-0.5,2.5c-0.3,0.6-0.8,1.1-1.4,1.3
		c-0.6,0.3-2.8,0.4-6.6,0.4c-0.2-1.4-0.5-2.7-0.9-3.9c1.2,0.1,2.3,0.1,3.3,0.1c0.7,0,1.2,0,1.5-0.1s0.6-0.3,0.8-0.6
		c0.2-0.3,0.3-0.7,0.3-1.2V468h-7.9v-3.5h15.7V468z M211.8,407.7h2.1V401h4.4v6.7h3.6v4.5h-3.6V428c0,2.6,0.9,3.9,3.6,3.6v4.4
		c-5.7,0.5-8-2.7-8-7.5v-16.4h-2.1V407.7z M199.7,407.7h2.1V401h4.4v6.7h3.6v4.5h-3.6V428c0,2.6,0.9,3.9,3.6,3.6v4.4
		c-5.7,0.5-8-2.7-8-7.5v-16.4h-2.1V407.7z M206.4,467.9l-3,2c-1.1-2.2-2-3.9-2.8-5.2l2.8-1.7C204.3,464.4,205.3,466.1,206.4,467.9z
		 M199.2,471.6h5.6v10c0.7-0.5,1.9-1.4,3.4-2.5c0.1,1.3,0.2,2.6,0.4,3.9c-2.9,2-4.8,3.6-5.8,4.7l-1.8-2.6c0.4-0.5,0.6-1.2,0.6-2.1
		v-8.1h-2.4V471.6z M197.8,500.5h15.7v3.5h-4.3v15.4c0,1-0.2,1.9-0.5,2.5c-0.3,0.6-0.8,1.1-1.4,1.3c-0.6,0.3-2.8,0.4-6.6,0.4
		c-0.2-1.4-0.5-2.7-0.9-3.9c1.2,0.1,2.3,0.1,3.3,0.1c0.7,0,1.2,0,1.5-0.1s0.6-0.3,0.8-0.6c0.2-0.3,0.3-0.7,0.3-1.2V504h-7.9V500.5z
		 M197.5,484.7h-3.7v-2h0c-0.9,1.6-2.2,2.4-3.9,2.4c-1.2,0-2.2-0.4-3-1.1c-0.8-0.8-1.1-1.8-1.1-3.1c0-2.7,1.5-4.3,4.5-4.7l3.6-0.5
		c0-1.6-0.8-2.4-2.4-2.4c-1.6,0-3.1,0.5-4.4,1.5v-3.2c0.6-0.4,1.4-0.6,2.4-0.9c1-0.2,1.8-0.3,2.6-0.3c3.7,0,5.5,2,5.5,5.9V484.7z
		 M182.5,415c0-4.9,2.6-7.7,7.1-7.7s7.1,2.8,7.1,7.7v8.2h-9.8v5.3c0,2.5,1.1,3.7,2.7,3.7c1.7,0,2.7-1.2,2.7-3.7v-1.6h4.4v1.9
		c0,4.9-2.6,7.7-7.1,7.7c-4.4,0-7.1-2.8-7.1-7.7V415z M183.2,464.6c0.4,0.4,0.6,0.9,0.6,1.5c0,0.6-0.2,1.1-0.6,1.5
		c-0.4,0.4-1,0.6-1.6,0.6c-0.6,0-1.2-0.2-1.6-0.6c-0.4-0.4-0.6-0.9-0.6-1.5c0-0.6,0.2-1.1,0.6-1.5s1-0.6,1.6-0.6
		C182.3,464,182.8,464.2,183.2,464.6z"/>
	<path class="st1" d="M192.2,415.3c0-2.5-1-3.7-2.7-3.7s-2.7,1.2-2.7,3.7v4.2h5.4V415.3z"/>
	<path class="st1" d="M121.1,511.2c-0.8,0-1.4,0.3-1.9,0.9s-0.7,1.3-0.7,2.2c0,1,0.2,1.9,0.7,2.6c0.5,0.7,1.1,1.1,1.9,1.1
		c0.8,0,1.4-0.3,1.9-1s0.7-1.5,0.7-2.4C123.6,512.3,122.8,511.2,121.1,511.2z"/>
	<path class="st1" d="M155.1,415.3c0-2.5-1-3.7-2.7-3.7s-2.7,1.2-2.7,3.7v4.2h5.4V415.3z"/>
	<path class="st1" d="M138.5,470.1c-0.1-0.4-0.2-1-0.3-1.7h-0.1c0,0.6-0.2,1.1-0.3,1.7l-2.1,6.9h4.9L138.5,470.1z"/>
	<path class="st1" d="M189.3,480.3c0,0.5,0.2,0.9,0.5,1.3c0.3,0.3,0.8,0.5,1.4,0.5c0.8,0,1.4-0.3,1.9-0.9s0.8-1.3,0.8-2.2v-1
		l-2.5,0.3C190,478.5,189.3,479.2,189.3,480.3z"/>
	<path class="st1" d="M164.5,473.1c-0.7,0-1.2,0.3-1.8,0.9c-0.5,0.6-0.8,1.3-1,2.3h5.1C166.9,474.2,166.1,473.1,164.5,473.1z"/>
	<rect x="251.7" y="515.3" class="st1" width="6" height="1.5"/>
	<path class="st1" d="M85.2,505.8c-0.1,0.3-0.3,0.6-0.5,0.9l-4.1,6.8h4.9V507c0-0.5,0-1.2,0-1.9h-0.1
		C85.4,505.3,85.3,505.5,85.2,505.8z"/>
	<path class="st1" d="M136.4,412.6v-4.4c0-2.3-0.9-3.7-2.7-3.7h-2.5v11.8h2.5C135.5,416.3,136.4,414.9,136.4,412.6z"/>
	<rect x="85.2" y="470.8" class="st1" width="2.2" height="4.7"/>
	<rect x="79.7" y="470.8" class="st1" width="2.3" height="4.7"/>
	<path class="st1" d="M99.9,484.7c1,0.1,1.8,0.2,2.4,0.2c1.4,0,2.2-0.8,2.2-2.3c0-0.3,0-0.6-0.1-1
		C103.1,482.8,101.6,483.8,99.9,484.7z"/>
	<rect x="648.5" y="688.2" class="st1" width="4.7" height="1.1"/>
	<path class="st1" d="M497,716.3h-1.7v4.7h4.7c0.2-0.4,0.3-1,0.3-1.6C500.3,717.3,499.2,716.3,497,716.3z"/>
	<path class="st1" d="M495.3,722.6h1.6c1.6,0,2.6-0.6,3-1.6h-4.7V722.6z"/>
	<rect x="641.1" y="680.2" class="st1" width="11.9" height="0.9"/>
	<path class="st1" d="M601.1,715.1v5.9h0.4c0.5-2,1.1-3.9,1.5-5.9H601.1z"/>
	<rect x="641.1" y="677.8" class="st1" width="11.9" height="0.9"/>
	<path class="st1" d="M393.7,721h74.4l-2.5-8h4.1l2.2,8h4.1l2.2-8h3.9l-2.5,8h4.4v-4.7h-1.5V713h6.8v3.3h-1.5v4.7h3.8v-8h6.1
		c4.4,0,6.6,2.1,6.6,6.2c0,0.6-0.1,1.2-0.2,1.7h3.6v-2.4h10.7v2.4h3.1v-4.9h-16.2v-3.4h22.3v3.4h-2.6v4.9h6v-4.1h16.9v4.1h3.6v-1.7
		h2.5c-0.3-0.7-0.7-1.4-1-2l2.5-1.1c0.6,1.1,1.1,2.2,1.5,3.1h1c0.8-1.4,1.3-2.5,1.6-3.1h-7.6v-2.8h4.1c-0.2-0.6-0.4-1.2-0.6-1.7
		l3.1-0.6c0.2,0.7,0.4,1.4,0.7,2.3h3.8v2.8h-3.1c0.4,0.2,1.2,0.6,2.4,1.2c-0.3,0.4-0.6,1.1-1.2,2h2.3v1.7h0.7v-7.9
		c3.5-0.4,6.3-1,8.5-1.9l1.3,3.3c-2.1,0.6-4.3,1-6.8,1.3v3.4h6.8v1.7h3.6v-8.9h16.4v8.9h4.4v-8.9h7.7v2.4c-0.5,2-1.1,4.1-1.8,6.4
		h2.6v-8.8h12v8.8h2.9v-8.2h9v8.2h1.6l1.1-0.8c0.2,0.2,0.4,0.5,0.6,0.8h4.2v-2.2h-6.8v-3.4h6.8v-4.3h3.3v4.3h1.9v3.4h-1.9v2.2h5
		v-2.2h-2.5v-3.2h2.5v-4.3h3.1v4.3h2.3v3.2h-2.3v2.2h3.3v-8c4.3-0.1,8.4-0.5,12.4-1.4l1,3.4c-2.4,0.4-5.8,0.8-10.3,1.2v4h10.5v0.9
		h3.8v-2.2h-3.1v-3.3h3.1v-4.2h3.2v4.2h2.3v3.3h-2.3v2.2h3.4v-8.1h11.7v8.1H720v-84.8L592.9,493L393.7,721z M577,612.2h5l6.8,27h0.1
		c0,0-0.5-4.4-0.5-7.7v-19.3h4.1v35.9h-5l-6.8-27h-0.1c0,0,0.6,4.2,0.6,7.7v19.3H577V612.2z M578.9,675c0.3,0.9,0.6,1.9,1,2.9h8.2v5
		h-3.1V681h-14.5v1.9h-3.1v-5h8.8l-0.7-2L578.9,675z M561.5,612.2h11.1v4.3H566v10.8h5.8v4.4H566v12.1h6.6v4.2h-11.1V612.2z
		 M542.9,612.2h4.4v15.2h0.1c0,0,0.5-2.9,1.4-5.1l4.2-10.1h4.5l-5.7,13.4l6,22.5h-4.5l-4.4-18.1l-1.7,4.1v14h-4.4V612.2z M525,675.5
		c1.9,1,3.9,2.3,5.9,3.6l-1.8,2.8c-2.1-1.5-4-2.8-5.7-3.9L525,675.5z M522.8,680.6c2,1.2,4,2.6,6,4.1l-1.9,2.9
		c-2.1-1.6-4.1-3-5.8-4.2L522.8,680.6z M471.5,700H468v-1.6h-12v1.6h-3.5v-21.7h5.8c0.4-1.5,0.6-2.6,0.8-3.3l3.9,0.6
		c-0.3,0.8-0.6,1.8-1,2.8h9.6V700z M495.6,697c-0.3,0.9-0.8,1.5-1.6,1.9s-1.9,0.7-3.2,0.7h-10.1c-3,0-4.5-1.6-4.5-4.7v-9.7
		c-0.3,0.2-0.6,0.5-0.9,0.7c-0.5-1.1-1-2.1-1.6-3.2c2.9-2.2,5.2-4.7,6.8-7.7l3.5,0.3c-0.3,0.6-0.6,1.1-0.9,1.7h8.3v2.8l-2,2.4h4.7
		v9.4h-14.8v2.2c0,1.6,0.7,2.4,2.2,2.4h9.2c0.6,0,1.1-0.1,1.5-0.3c0.4-0.2,0.6-0.5,0.7-1c0.1-0.4,0.3-1.5,0.5-3.2
		c1.3,0.6,2.3,1,2.9,1.2C496.1,694.8,495.8,696.1,495.6,697z M518.5,697.9c-0.4,1.2-1.6,1.9-3.6,1.9h-1c-1.9,0-2.9-1-2.9-3v-2.8
		h-3.5c-0.1,2.8-1.5,4.9-4.2,6.4c-0.9-1-1.7-1.9-2.5-2.7c2.3-1.1,3.5-2.6,3.6-4.6v-1.9h9.6v4.4c0,0.7,0.3,1,0.8,1h0.4
		c0.7,0,1.1-1.1,1.1-3.4c1.1,0.5,2,0.9,2.8,1.1C519.1,695.8,518.9,697,518.5,697.9z M514.8,683.7l0.1,2.3l-5.7,0.4
		c0,0.8,0.4,1.3,1.1,1.3h3.3c1.2,0,1.9-0.9,2.1-2.7c0.9,0.5,1.8,0.9,2.8,1.2c-0.6,2.7-1.9,4-3.9,4h-5.5c-1.9,0-2.8-1-2.8-3.1v-0.5
		l-3.5,0.2l-0.2-2.4l3.6-0.2v-1.2h3v1.1L514.8,683.7z M518.6,685c-1-0.3-1.9-0.6-2.8-0.8l0.4-1.7h-14v5.4c0,5.2-0.9,9.4-2.8,12.5
		c-0.8-1.1-1.6-2.1-2.5-3c1.4-2.4,2.1-5.6,2.2-9.7v-7.7h7.3v-4.7h3.1v1.1h8.6v2.4h-8.6v1.2h9.9L518.6,685z M522.4,700.4
		c-0.7-1.2-1.5-2.3-2.1-3.3c6.1-1.6,9.6-3.6,10.4-6.1h-10.4v-3.3h11.2c0.3-4.1,0.4-8.2,0.5-12.4h3.4c-0.1,6.2-0.3,10.3-0.4,12.4h7.5
		v3.3h-8.2c-0.1,0.4-0.2,0.8-0.4,1.2c2.7,1.4,5.5,3,8.5,4.8l-2.1,3.2c-2.6-1.9-5.3-3.6-8.2-5.2C530,697.3,526.8,699.1,522.4,700.4z
		 M550.5,715.8h-22v-2.7h9.3c-0.2-0.5-0.4-1.1-0.6-1.7l3.7-0.6c0.3,0.8,0.5,1.6,0.8,2.3h8.9V715.8z M547.6,696
		c-0.1-1.4-0.3-2.7-0.6-3.9c0.3,0.1,0.5,0.1,0.8,0.1c0.9,0,1.3-0.4,1.3-1.2c0-1.7-0.7-3.4-2-5.1c0.6-2.2,1.2-4.5,1.7-6.7h-1.9v21.1
		h-2.8v-24.1h7.7v2.4c-0.5,2.1-1.2,4.4-1.9,6.9c1.5,1.8,2.2,4,2.2,6.5C552,694.7,550.5,696,547.6,696z M564.2,699.9
		c-2.3-1.2-4-2.6-5.2-4.4c0,1.2-0.1,2.1-0.1,2.8c-3,0.8-5,1.4-6,1.9l-1.3-2.7c0.5-0.6,0.8-1.5,0.8-2.7v-18.7h12v13.1h-0.6l1.9,2.7
		l-3.5,2.3c0.9,0.8,2.1,1.5,3.6,2.1C565.3,697.4,564.7,698.6,564.2,699.9z M588,699.6c-5.4,0-9.3-0.1-11.8-0.3
		c-2.5-0.2-4.2-1.3-5.2-3.4c-0.8,1.7-1.7,3.2-2.8,4.4c-0.7-1.1-1.3-2.1-1.9-2.9c1.9-2.1,3.1-5.2,3.6-9.2l3.1,0.4
		c-0.2,1.3-0.4,2.5-0.7,3.7c0.8,2.2,2.1,3.5,4.1,3.8v-9.1h-9.4v-3.1h21.5v3.1h-8.8v2.7h7.6v3.1h-7.6v3.4c2.5,0.1,5.6,0,9.4-0.1
		C588.6,697.6,588.2,698.7,588,699.6z M597.3,697.1c0,0.8-0.1,1.4-0.4,1.9c-0.3,0.5-0.7,0.8-1.2,0.9c-0.5,0.1-1.7,0.2-3.5,0.2
		c-0.1-0.5-0.2-1-0.3-1.5l-2.5-1c0.5-1.5,1-3.3,1.5-5.4l2.6,0.8c-0.3,1.4-0.7,2.7-1,3.9c1,0.1,1.5,0,1.7-0.2
		c0.2-0.2,0.3-0.4,0.3-0.7v-4.1h-4.8v-2.7h11.9v2.7h-4.1V697.1z M590.2,687.9v-2.7h10.1v2.7H590.2z M597.4,693.7l2-1.6
		c0.8,1,1.5,1.9,2.1,2.8l-2.1,1.8C598.8,695.7,598.1,694.7,597.4,693.7z M682.8,683.2v-3c0.4-1.4,0.8-2.8,1.1-4.4l3.1,0.4
		c-0.2,1-0.5,2.4-0.9,3.9h3.3c0.3-1.4,0.7-3.1,1-5l3.3,0.3l-1,4.7h6.4c-0.9-0.9-1.7-1.9-2.6-2.8l2-2.1c1.4,1.2,2.6,2.3,3.6,3.3
		l-1.4,1.6h3.9v3.1h-12.6c-0.2,0.7-0.5,1.5-0.8,2.3h11.1v2.8c-1.2,2.3-2.7,4.2-4.6,5.9c1.7,0.9,4.1,1.5,7,2
		c-0.7,1.2-1.3,2.5-1.9,3.7c-3.1-0.8-5.7-1.9-7.9-3.5c-2.2,1.5-4.9,2.7-7.9,3.7c-0.5-1.1-1.1-2.2-1.7-3.3c2.5-0.8,4.8-1.7,6.9-2.8
		c-1.1-1.2-2.1-2.5-3-4c-1.8,3.1-3.8,5.8-6.1,8c-0.3-1.6-0.7-3-1-4.2c3-3.1,5.2-6.7,6.6-10.8H682.8z M659.1,678.4h5.8
		c-0.5-0.7-1.1-1.5-1.7-2.3l3-1c0.9,1,1.6,1.9,2.2,2.7l-1.7,0.7h5c0.8-1.1,1.6-2.3,2.4-3.4l3.1,1l-1.9,2.4h6v3h-10.2l-0.4,1.9h8.5
		v16.8H676v-1.5h-11.3v1.5h-3.3v-16.8h6c0.1-0.6,0.2-1.3,0.3-1.9h-8.6V678.4z M638,676H656v6.9H638V676z M635.8,683.7h22.4v1.9
		h-22.4V683.7z M635.7,697.5h9.7v-1h-8.3v-1.8h8.3v-0.9h-7.5v-7.4H656v7.4h-7.6v0.9h8.5v1.8h-8.5v1h9.8v1.9h-22.6V697.5z M635.1,692
		l-3.5,2.3c0.9,0.8,2.1,1.5,3.6,2.1c-0.6,1-1.1,2.2-1.6,3.5c-2.3-1.2-4-2.6-5.2-4.4c0,1.2-0.1,2.1-0.1,2.8c-3,0.8-5,1.4-6,1.9
		l-1.3-2.7c0.5-0.6,0.8-1.5,0.8-2.7v-18.7h12v13.1h-0.6L635.1,692z M614.1,619.5c0-4.9,2.8-7.7,7.2-7.7c4.4,0,7.2,2.8,7.2,7.7v21.4
		c0,4.9-2.8,7.7-7.2,7.7c-4.4,0-7.2-2.8-7.2-7.7V619.5z M613.4,676.2h7.7v2.4c-0.5,2.1-1.2,4.4-1.9,6.9c1.5,1.8,2.2,4,2.2,6.5
		c0,2.7-1.5,4-4.4,4c-0.1-1.4-0.3-2.7-0.6-3.9c0.3,0.1,0.5,0.1,0.8,0.1c0.9,0,1.3-0.4,1.3-1.2c0-1.7-0.7-3.4-2-5.1
		c0.6-2.2,1.2-4.5,1.7-6.7h-1.9v21.1h-2.8V676.2z M610.4,700.2c-2.2-1.9-3.7-4.3-4.6-7.4c-0.7,2.7-2.2,5.2-4.6,7.6
		c-0.7-1-1.3-2-2-2.9c1.9-1.7,3.3-3.6,4-5.6c0.7-2,1.1-4.7,1.1-7.9h2.8c0,1.1,0,2.1-0.1,3c0.6,4.7,2.3,7.9,5.1,9.8
		C611.7,697.6,611.1,698.7,610.4,700.2z M611.7,681.5l-1,4.9l-2.7-0.6l0.8-4.1h-4.4c-0.5,1.7-1,3.2-1.5,4.4c-1-0.6-1.8-1-2.6-1.4
		c1.1-2.7,2-5.9,2.7-9.7l2.8,0.6c-0.2,1-0.4,2-0.7,3h6.4V681.5z M596.3,644l9-27.5h-8.6v-4.3H610v4.3l-9.1,27.4h9.6v4.2h-14.1V644z
		 M594,675h3v1.8h4.3v2.7H597v1.6h3.4v2.7H590v-2.7h4v-1.6h-4.4v-2.7h4.4V675z"/>
	<rect x="648.5" y="690.9" class="st1" width="4.7" height="1.1"/>
	<rect x="624.8" y="684.2" class="st1" width="6.1" height="2.1"/>
	<path class="st1" d="M624.8,689.3v6.6c1.1-0.3,2.1-0.6,3.2-0.9c-1-1.5-1.7-3.4-2.2-5.7H624.8z"/>
	<path class="st1" d="M621.3,644.2c1.7,0,2.8-1.2,2.8-3.7v-20.8c0-2.5-1.1-3.7-2.8-3.7c-1.7,0-2.8,1.2-2.8,3.7v20.8
		C618.6,643.1,619.7,644.2,621.3,644.2z"/>
	<path class="st1" d="M629.9,692.1c1.1-0.9,2.1-1.8,3.1-2.8h-4.3C629,690.4,629.5,691.3,629.9,692.1z"/>
	<rect x="624.8" y="679.3" class="st1" width="6.1" height="2.1"/>
	<rect x="640.8" y="690.9" class="st1" width="4.6" height="1.1"/>
	<rect x="640.8" y="688.2" class="st1" width="4.6" height="1.1"/>
	<rect x="624.7" y="721" class="st1" width="3" height="0.2"/>
	<path class="st1" d="M694.7,692.5c1.6-1.3,2.8-2.6,3.7-4h-6.9C692.3,690,693.4,691.3,694.7,692.5z"/>
	<rect x="624.7" y="716.2" class="st1" width="3" height="4.8"/>
	<rect x="479.4" y="685.2" class="st1" width="4.2" height="3.7"/>
	<rect x="555.4" y="679.3" class="st1" width="6.1" height="2.1"/>
	<path class="st1" d="M555.4,689.3v6.6c1.1-0.3,2.1-0.6,3.2-0.9c-1-1.5-1.7-3.4-2.2-5.7H555.4z"/>
	<rect x="580.9" y="715.3" class="st1" width="9.7" height="3.3"/>
	<rect x="664.6" y="694.4" class="st1" width="11.3" height="1.4"/>
	<path class="st1" d="M559.3,689.3c0.3,1,0.8,2,1.2,2.8c1.1-0.9,2.1-1.8,3.1-2.8H559.3z"/>
	<rect x="555.4" y="684.2" class="st1" width="6.1" height="2.1"/>
	<rect x="486.8" y="685.2" class="st1" width="4.2" height="3.7"/>
	<rect x="533.9" y="719.4" class="st1" width="10.8" height="1.4"/>
	<path class="st1" d="M487.6,679.9h-6.3c-0.6,0.8-1.3,1.6-2,2.4h6.4L487.6,679.9z"/>
	<rect x="679.9" y="716.3" class="st1" width="5.3" height="4.7"/>
	<rect x="456" y="682" class="st1" width="12" height="4.7"/>
	<rect x="664.6" y="686.2" class="st1" width="11.3" height="1.4"/>
	<rect x="609.7" y="715.2" class="st1" width="6.1" height="2.1"/>
	<rect x="456" y="690.1" class="st1" width="12" height="4.7"/>
	<rect x="664.6" y="690.3" class="st1" width="11.3" height="1.4"/>
	<rect x="609.7" y="720.1" class="st1" width="6.1" height="0.9"/>
	<rect x="609.7" y="721" class="st1" width="6.1" height="1.2"/>
	<path class="st2" d="M284.2,26.5h-7v11.3h2.8v-8.5h4.1v10.9h3V29.3h4.6v4.3c0,1-0.5,1.5-1.5,1.5c-0.8,0-1.6,0-2.4-0.1
		c0.3,0.9,0.5,1.9,0.8,2.9c1.8,0,2.9-0.1,3.4-0.1c0.5-0.1,0.9-0.3,1.3-0.5c0.4-0.3,0.7-0.7,0.8-1.1c0.2-0.5,0.3-1,0.3-1.7v-7.9h-7.5
		v-2.6h8.5V21h-8.2c-0.3-1-0.6-2-1-2.9l-3.3,0.8c0.2,0.6,0.5,1.3,0.8,2.1h-8.1v2.9h8.4V26.5z"/>
	<path class="st2" d="M242.7,39.7h2.9v-1h2.9v1h2.9V29.3h-8.7V39.7z M245.6,32h2.9V36h-2.9V32z"/>
	<path class="st2" d="M124.8,40.2c1.4-2.4,2.1-6.3,2.1-11.9v-5h16v-2.7h-7c-0.3-0.8-0.6-1.6-0.9-2.4l-3.4,0.8c0.2,0.5,0.4,1,0.6,1.6
		h-8.1v7.3c0,4.5-0.5,7.9-1.7,10.2C123.2,38.7,124,39.5,124.8,40.2z"/>
	<path class="st2" d="M189.6,37c1-0.6,2-1.4,2.9-2.1c0.8,0.7,1.8,1.4,2.9,2c-2.1,0.4-4.3,0.7-6.8,0.8c0.4,0.8,0.7,1.7,1.1,2.6
		c3.5-0.5,6.6-1.1,9.2-2c2.4,0.8,5.1,1.4,8.3,1.7c0.3-0.8,0.6-1.7,1.1-2.7c-2.1,0-4-0.1-5.8-0.3c1.4-0.7,2.7-1.5,3.8-2.3v-2h-11.4
		c0.3-0.3,0.6-0.6,0.8-1h10.7v-9.3h-7.7l0.4-1h8.9V19h-19.6v2.1h7.4c-0.1,0.3-0.2,0.7-0.3,1h-4.9v9.3h1.9c-1.1,1.2-2.6,2.3-4.5,3.4
		C188.6,35.6,189.1,36.3,189.6,37z M202.2,34.5c-1,0.5-2.2,1-3.4,1.4c-1.1-0.4-2.1-0.9-3.1-1.4H202.2z M193.3,24.1h10.4v0.8h-10.4
		V24.1z M193.3,26.5h10.4v0.8h-10.4V26.5z M193.3,28.9h10.4v0.8h-10.4V28.9z"/>
	<path class="st2" d="M148.4,24.6h4.8c-0.2,3.1-1.7,5.6-4.7,7.5c0.7,0.7,1.4,1.4,2.1,2.3c1.8-1.2,3.1-2.7,4-4.3c1.7,1.6,3.1,2.9,4,4
		l2.1-2.2c-2-1.7-3.7-3.1-5.1-4.2c0.2-0.9,0.3-1.9,0.4-3.1h4.9v11c0,0.4-0.1,0.7-0.2,0.9c-0.1,0.2-0.3,0.4-0.5,0.4
		c-0.2,0.1-0.5,0.1-1,0.1c-0.9,0-1.8,0-2.7-0.1c0.3,1.1,0.5,2.1,0.6,2.9c1.6,0,2.9,0,3.8-0.1c0.9-0.1,1.6-0.4,2.1-1
		c0.5-0.6,0.7-1.4,0.7-2.5V21.7H156c0-1.1,0-2.3,0-3.6h-2.7c0,1.1,0,2.3-0.1,3.6h-7.7V40h2.8V24.6z"/>
	<polygon class="st2" points="273.9,35.8 264.8,35.8 264.8,27.7 272.5,27.7 272.5,24.6 264.8,24.6 264.8,18.4 261.5,18.4 
		261.5,35.8 253.8,35.8 253.8,39 273.9,39 	"/>
	<path class="st2" d="M135.4,23.6h-2.9v6.5h-4.4v9.8h2.8v-1.4h7.8v1.4h2.8v-9.8h-6.2v-2h7.1v-2.7h-7.1V23.6z M138.8,32.8v3.1H131
		v-3.1H138.8z"/>
	<path class="st2" d="M249.5,19.1h-15v8.5h15V19.1z M246.4,24.8h-8.8v-2.9h8.8V24.8z"/>
	<path class="st2" d="M211.3,32.2c-0.5,1.9-1.1,3.5-1.8,4.9c0.9,0.4,1.7,0.8,2.2,1.1l0.4-1c0.2,0.8,0.4,1.6,0.4,2.5
		c1.3,0,2.2-0.1,2.7-0.2c0.5-0.1,0.9-0.4,1.1-0.8s0.4-0.9,0.4-1.6v-5.3h3.7v-2.5h-3.7v-1.4h4v-2.5h-2.1c0.5-0.8,0.8-1.3,1.1-1.7
		c-1.1-0.5-1.8-0.9-2.2-1h2.9v-2.5h-3.5c-0.2-0.8-0.4-1.4-0.6-2l-2.9,0.6c0.2,0.4,0.4,0.9,0.5,1.5h-3.7v2.5h7
		c-0.3,0.6-0.7,1.5-1.4,2.7h-0.9c-0.4-0.8-0.8-1.7-1.4-2.7l-2.3,1c0.3,0.5,0.6,1.1,0.9,1.7h-2.2v2.5h4.2v1.4h-3.9v2.5h3.9v4.1
		c0,0.7-0.3,1-0.8,1c-0.3,0-0.7,0-1,0c0.5-1.2,1-2.5,1.3-3.9L211.3,32.2z"/>
	<path class="st2" d="M218.9,32.2l-2,1.1c0.6,1,1.1,2.1,1.6,3.3l2.1-1.3c-0.4,1.1-1.1,2-1.9,2.8c0.8,0.6,1.7,1.3,2.6,2.2
		c1.9-2.5,2.9-6,2.9-10.7v-1.3h1.8v11.5h2.7V28.3h1.6v-2.9h-6.2v-2.9c2.2-0.2,4.3-0.6,6.2-1.1l-1.2-2.9c-2,0.7-4.6,1.3-7.7,1.6v10
		c0,2.1-0.3,3.8-0.9,5.2C220,33.9,219.4,32.9,218.9,32.2z"/>
	<path class="st2" d="M167.8,34.6c0.7-0.4,1.4-0.9,2-1.4v7h2.7v-0.9h7.8v0.9h2.7v-6.9c0.7,0.5,1.5,0.9,2.4,1.2
		c0.2-0.5,0.7-1.4,1.4-2.7c-2.1-0.6-3.9-1.6-5.3-3.1h5.1v-2.2h-11c0.2-0.4,0.4-0.7,0.5-1.1h8.9v-2.2h-8.2l0.2-1.1h8.7v-2.2h-8.3
		c0.1-0.5,0.2-1,0.2-1.5h-2.8c-0.1,0.5-0.1,1-0.2,1.5h-7.6V22h7.2c-0.1,0.4-0.2,0.8-0.3,1.1h-6.1v2.2h5.3c-0.2,0.4-0.4,0.8-0.6,1.1
		h-6.2v2.2h4.5c-1.3,1.4-2.9,2.5-4.8,3.4C166.5,32.7,167.1,33.5,167.8,34.6z M174.3,28.7h4.4c0.3,0.5,0.6,1,1,1.4h-6.5
		C173.6,29.6,174,29.2,174.3,28.7z M172.5,32.3h7.8v1.4h-7.8V32.3z M172.5,35.7h7.8v1.4h-7.8V35.7z"/>
	<path class="st2" d="M235.4,38.7h2.9v1h2.9V29.3h-8.7v10.4h2.9V38.7z M235.4,32h2.9V36h-2.9V32z"/>
	<path class="st3" d="M505.3,196.5c1.5,0,3.3-0.9,3.7-2.2v1.8h4.2v-28.3h-4.4v20.8c0,2.5-1,3.7-2.5,3.7c-1.6,0-2.5-1.2-2.5-3.7
		v-20.8h-4.4v21.1C499.4,193.8,501.1,196.5,505.3,196.5z"/>
	<path class="st3" d="M470.6,182.1h2.6c5.1,0,7.2-3.1,7.2-7.8V168c0-4.7-2.1-7.8-7.2-7.8h-7.1v35.9h4.4V182.1z M470.6,164.5h2.6
		c1.9,0,2.7,1.4,2.7,3.7v5.8c0,2.3-0.9,3.7-2.7,3.7h-2.6V164.5z"/>
	<path class="st3" d="M487.3,180.6c-3.8,2-5.5,4.3-5.5,8.9c0,4.8,2.7,7,5.4,7c2,0,3.7-1,4.6-2.6c0.1,0.7,0.2,1.5,0.3,2.2h4.3
		c-0.4-2-0.5-3.8-0.5-10.1v-9.6c0-5.1-1-9.1-6.5-9.1c-4.4,0-6.9,3.1-6.9,8v1.7h4.4v-1.7c0-2.5,0.8-3.8,2.4-3.8
		c1.7,0,2.2,1.5,2.2,3.4C491.6,178,490.3,179,487.3,180.6z M491.6,181.8v6.2c0,2.9-1.2,4.3-2.8,4.3c-1.4,0-2.4-0.9-2.4-3.4
		c0-2.6,1-3.9,3-5.2C490.5,183,491.1,182.5,491.6,181.8z"/>
	<rect x="576.7" y="167.7" class="st3" width="4.4" height="28.3"/>
	<path class="st3" d="M585.4,188.6c0,4.8,2.3,8,8,7.5v-4.4c-2.7,0.2-3.6-1-3.6-3.6v-15.9h3.6v-4.5h-3.6V161h-4.4v6.7h-2.1v4.5h2.1
		V188.6z"/>
	<rect x="576.7" y="158" class="st3" width="4.4" height="5.6"/>
	<path class="st3" d="M600,175.3c0-2.5,1-3.7,2.5-3.7c1.6,0,2.5,1.2,2.5,3.7v20.8h4.4V175c0-5-1.7-7.7-5.9-7.7
		c-1.4,0-3.1,0.9-3.6,2.2V158h-4.4v38.1h4.4V175.3z"/>
	<path class="st3" d="M554.6,175.3c0-2.5,0.9-3.7,2.4-3.7c1.6,0,2.4,1.2,2.4,3.7v20.8h4.4v-20.8c0-2.5,0.9-3.7,2.4-3.7
		c1.6,0,2.4,1.2,2.4,3.7v20.8h4.4V175c0-5-1.5-7.7-5.7-7.7c-2.2,0-3.8,1-4.6,2.7c-0.8-1.8-2.2-2.7-4.6-2.7c-1.5,0-3.2,0.9-3.7,2.2
		v-1.8h-4.2v28.3h4.4V175.3z"/>
	<path class="st3" d="M539.8,196.5c5,0,7.5-3.6,7.5-8.4c0-3.5-0.7-5.8-3-8.5l-5-5.8c-1.7-1.9-2.1-3.4-2.1-5.6c0-2.5,0.9-4.1,2.8-4.1
		c1.7,0,2.7,1.2,2.7,3.7v3.8h4.4v-4.1c0-4.9-2.6-7.7-7.1-7.7c-5,0-7.2,3.6-7.2,8.4c0,3.5,0.7,5.8,3,8.5l5,5.8
		c1.7,1.9,2.1,3.4,2.1,5.6c0,2.7-1,4.1-3.1,4.1c-1.5,0-2.8-1.2-2.8-3.7v-3.8h-4.4v4.1C532.5,193.8,535.4,196.5,539.8,196.5z"/>
	<rect x="517" y="158" class="st3" width="4.4" height="38.1"/>
	<path class="st2" d="M493.8,265.2h1.9V262h-1.9v-5.1h2.1v-3.2h-7.2v3.2h2v5.1h-2v3.2h2v5.9c-0.8,0.2-1.7,0.3-2.6,0.5l0.5,3.5
		c2.4-0.6,4.8-1.1,7.1-1.6c0-1.3,0.1-2.5,0.1-3.3c-0.7,0.1-1.4,0.3-2.1,0.4V265.2z"/>
	<path class="st2" d="M567.3,225.3h8.1c-2.3,4.2-5.3,7.5-9,10c0.8,0.9,1.7,2,2.5,3.1c3.3-2.6,5.8-5.7,7.7-9.2v11.9h3.5v-11.6
		c1.9,3.5,4.4,6.4,7.4,8.8c0.9-1.1,1.8-2.2,2.7-3.2c-3.9-2.3-7-5.5-9.3-9.7h8.5v-3.4h-4l2.1-2.3c-1.3-1.3-2.7-2.4-4-3.5l-2,2.2
		c1.1,1,2.3,2.3,3.6,3.6h-5v-5.7h-3.5v5.7h-9.2V225.3z"/>
	<path class="st2" d="M522.9,252.1c-2.7,2.9-6.2,5.2-10.4,6.9c0.8,1.2,1.4,2.2,1.8,3.2c1.4-0.7,2.8-1.5,4.1-2.3v1.3h4.4v1.6h-9.4v3
		h9.4v1.8h-7.1v9.6h3.1v-1.2h11.2v1.2h3.1v-9.6h-7.1v-1.8h9.5v-3h-9.5v-1.6h4.4V260c1.3,0.8,2.7,1.5,4.2,2.1
		c0.6-1.1,1.1-2.2,1.7-3.4c-4-1.5-7.3-3.4-9.9-5.9l0.7-0.7H522.9z M530.1,270.7v2.5h-11.2v-2.5H530.1z M527.9,258.3h-7.1
		c1.3-0.9,2.5-2,3.6-3C525.5,256.3,526.7,257.4,527.9,258.3z"/>
	<polygon class="st2" points="542.2,222.1 547.9,222.1 547.9,224 551.4,224 551.4,222.1 556.4,222.1 556.4,224 559.9,224 
		559.9,222.1 565.6,222.1 565.6,218.9 559.9,218.9 559.9,216.2 556.4,216.2 556.4,218.9 551.4,218.9 551.4,216.2 547.9,216.2 
		547.9,218.9 542.2,218.9 	"/>
	<path class="st2" d="M531.6,229.8c0-1,0.2-1.7,0.7-2.3c0.5-0.6,1.1-0.9,1.8-0.9c1.5,0,2.2,1.1,2.2,3.2v8h3.8v-8.6
		c0-3.8-1.5-5.8-4.5-5.8c-1.7,0-3.1,0.8-4.1,2.4h0V217h-3.8v20.8h3.8V229.8z"/>
	<path class="st2" d="M613,224.5v-7.3h-20.2v8.1c0,6.2-0.6,10.5-1.7,12.9c0.8,0.9,1.6,2,2.4,3.2c1.2-2.3,2-5,2.3-8.1h1.9v2.6
		c0,1.5-0.1,2.4-0.5,2.8l1.1,2.7c1.1-0.5,3.2-1.1,6.2-1.9c0-1.1,0-2.1,0-3c1.9,2.1,4.4,3.6,7.6,4.6c1.2-1.9,1.9-3,2-3.2
		c-1.7-0.2-3.1-0.5-4.5-1.1l3.5-1.7l-1.1-1.6h1.8v-2.5h-4.9v-1.9h4.2v-2.5h-4.2v-1.9H613z M599.4,230.8H596c0-0.6,0.1-1.2,0.1-1.9
		h3.3V230.8z M599.4,226.4h-3.3l0-1.9h3.3V226.4z M600.9,237.4v-4.1h1.6c0.6,1.1,1.2,2.1,2,3C603.1,236.8,601.9,237.1,600.9,237.4z
		 M602.5,230.8v-1.9h3.7v1.9H602.5z M602.5,226.4v-1.9h3.7v1.9H602.5z M610.2,233.3l-3,1.9c-0.7-0.5-1.3-1.2-1.9-1.9H610.2z
		 M596.1,222v-2h13.7v2H596.1z"/>
	<polygon class="st2" points="646.3,221 649.5,221 649.5,220 653.5,220 653.5,221 656.7,221 656.7,220 662.8,220 662.8,217.6 
		656.7,217.6 656.7,216.4 653.5,216.4 653.5,217.6 649.5,217.6 649.5,216.4 646.3,216.4 646.3,217.6 640.3,217.6 640.3,220 
		646.3,220 	"/>
	<path class="st2" d="M641.4,237.6c0.7-0.4,1.5-0.8,2.2-1.2v3.5h3v-3.6h3.4v4.9h3.2v-4.9h3.4v0.6c0,0.4-0.3,0.6-0.9,0.6
		c-0.3,0-0.8-0.1-1.5-0.2c0.1,0.5,0.2,1.4,0.4,2.6c1,0,1.9,0,2.7,0c0.8,0,1.3-0.2,1.7-0.6c0.4-0.4,0.5-0.9,0.5-1.6v-1.4
		c0.8,0.5,1.7,1,2.5,1.4c0.5-1.1,0.9-2,1.3-2.8c-1.7-0.3-3.5-1.2-5.3-2.5h4.6V230h-12.5c0.2-0.3,0.5-0.7,0.7-1h9.7v-7.5h-18.2v7.5
		h5.2c-0.2,0.4-0.5,0.7-0.8,1h-6.5v2.4h4c-1.3,1-2.7,1.8-4.4,2.5C640.4,235.5,640.9,236.4,641.4,237.6z M653.1,232.4h1.8
		c0.5,0.6,1,1.1,1.5,1.6h-3.3V232.4z M645.6,223.4h11.8v1h-11.8V223.4z M645.6,227v-1h11.8v1H645.6z M648.1,232.4h1.8v1.6h-3.3
		C647.1,233.5,647.6,233,648.1,232.4z"/>
	<path class="st2" d="M592.9,254.1c2.8,3.7,4.2,7.7,4.2,12.1c0,4.4-1.4,8.4-4.2,12h3.2c2.9-3.3,4.4-7.3,4.4-12
		c0-4.6-1.4-8.7-4.3-12.1H592.9z"/>
	<path class="st2" d="M619.1,235.7c-1,1.2-2.2,2.2-3.7,3c1.1,0.9,2.1,1.8,3,2.6c1.9-1.1,3.3-2.4,4.2-4c0.9-1.5,1.5-3.9,1.6-6.9h6.4
		v10.4h3.5v-10.4h4.8v-3.3h-4.8v-6.2h3.8v-3.3h-21.3v3.3h4.2v6.2h-5.5v3.3h5.4C620.6,232.8,620,234.6,619.1,235.7z M624.3,220.9h6.3
		v6.2h-6.3V220.9z"/>
	<path class="st2" d="M430.6,238.1c1.7,0,3-0.8,3.9-2.4h0v2h3.7v-8.5c0-3.9-1.8-5.9-5.5-5.9c-0.7,0-1.6,0.1-2.6,0.3
		c-1,0.2-1.8,0.5-2.4,0.9v3.2c1.4-1,2.9-1.5,4.4-1.5c1.6,0,2.4,0.8,2.4,2.4l-3.6,0.5c-3,0.4-4.5,2-4.5,4.7c0,1.3,0.4,2.3,1.1,3.1
		C428.3,237.7,429.3,238.1,430.6,238.1z M432.1,231.4l2.5-0.3v1c0,0.9-0.3,1.6-0.8,2.2c-0.5,0.6-1.2,0.9-1.9,0.9
		c-0.6,0-1-0.2-1.4-0.5c-0.3-0.3-0.5-0.7-0.5-1.3C430,232.3,430.7,231.6,432.1,231.4z"/>
	<path class="st2" d="M518.5,233.4c0,3.1,1.4,4.7,4.2,4.7c1.2,0,2.1-0.2,2.6-0.5v-3.1c-0.5,0.3-0.9,0.4-1.3,0.4
		c-1.1,0-1.7-0.7-1.7-2.2v-5.9h3v-3.1h-3v-4.2l-3.8,1.2v3.1h-2.2v3.1h2.2V233.4z"/>
	<path class="st2" d="M445.9,238.1c1.7,0,3.1-0.8,4-2.5h0.1v2.1h3.8v-14H450v8c0,1-0.2,1.8-0.7,2.3c-0.5,0.6-1.1,0.9-1.8,0.9
		c-1.5,0-2.3-1-2.3-3.1v-8.1h-3.8v8.5C441.3,236.1,442.8,238.1,445.9,238.1z"/>
	<path class="st2" d="M415.7,237.8v-6.9h2c2.1,0.1,3.8-0.5,5.2-1.7c1.4-1.2,2.1-2.8,2.1-4.8c0-4.1-2.3-6.2-6.9-6.2h-6.3v19.7H415.7z
		 M415.7,221.4h1.7c2.3,0,3.4,1,3.4,3.1c0,2.1-1.2,3.2-3.5,3.2h-1.7V221.4z"/>
	<path class="st2" d="M510.7,217.7c-0.4,0.4-0.6,0.9-0.6,1.5c0,0.6,0.2,1.1,0.6,1.5c0.4,0.4,1,0.6,1.6,0.6c0.7,0,1.2-0.2,1.6-0.6
		c0.4-0.4,0.6-0.9,0.6-1.5c0-0.6-0.2-1.1-0.6-1.5c-0.4-0.4-1-0.6-1.6-0.6C511.6,217.1,511.1,217.3,510.7,217.7z"/>
	<rect x="457.2" y="217" class="st2" width="3.8" height="20.8"/>
	<path class="st2" d="M492.2,224.1c-0.8,0.4-1.4,1.1-1.8,1.9h0v-2.2h-3.8v14h3.8v-7.8c0-1,0.2-1.8,0.6-2.5c0.4-0.6,1-0.9,1.7-0.9
		c1.5,0,2.2,1,2.2,3.1v8.1h3.8v-7.9c0-0.9,0.2-1.7,0.7-2.4c0.5-0.7,1-1,1.7-1c1.5,0,2.2,1.1,2.2,3.2v8h3.8v-8.7
		c0-3.8-1.4-5.7-4.3-5.7c-1.9,0-3.4,0.9-4.4,2.7c-0.7-1.8-1.9-2.7-3.8-2.7C493.7,223.4,492.9,223.6,492.2,224.1z"/>
	<path class="st2" d="M537.3,275.7c1,0.3,2.1,0.6,3.3,1c0.8-2.7,1.7-5.9,2.5-9.6c-0.8-0.2-1.9-0.6-3.2-1.1
		C539.1,269.9,538.2,273.1,537.3,275.7z"/>
	<path class="st2" d="M508,272.3c0,1-0.3,1.6-0.9,1.6c-0.7,0-1.3,0-2.1-0.1c0.2,0.8,0.3,1.8,0.5,3.1c0.3,0,1.2,0,2.7,0
		c1.7,0,2.5-1.1,2.5-3.3v-11.5H508V272.3z"/>
	<path class="st2" d="M575.8,252l-3.9,1c0.2,0.6,0.5,1.2,0.7,1.8h-9.3v8.4c0,5.2-0.6,9.1-2,11.6c1,0.8,1.9,1.6,2.8,2.5
		c1.6-2.7,2.5-7.3,2.5-13.7v-5.7h18.3v-3.1h-8C576.5,253.8,576.1,252.9,575.8,252z"/>
	<rect x="510.4" y="223.7" class="st2" width="3.8" height="14"/>
	<path class="st2" d="M505.3,252.9l0.5-0.7h-3.7c-1.4,2.6-3.7,4.8-7,6.6c0.8,1.5,1.4,2.4,1.7,2.8c1-0.6,1.9-1.3,2.7-2v0.9h7.7v-1.3
		c0.9,0.9,1.9,1.6,3,2.2c0.6-0.9,1.2-1.8,1.8-2.7C509.6,257.6,507.4,255.6,505.3,252.9z M501.4,258c0.9-0.9,1.6-1.8,2.2-2.7
		c0.7,1,1.4,1.9,2.1,2.7H501.4z"/>
	<path class="st2" d="M478.9,226.3c-1.6-0.7-2.5-1.3-2.9-1.7s-0.6-0.9-0.6-1.4c0-0.6,0.3-1.1,0.9-1.5c0.6-0.4,1.4-0.6,2.3-0.6
		c1.7,0,3.1,0.4,4.3,1.3v-3.9c-1.2-0.5-2.7-0.7-4.5-0.7c-2.2,0-3.9,0.5-5.2,1.5c-1.3,1-2,2.4-2,4.3c0,2.5,1.4,4.4,4.3,5.7
		c1.8,0.8,3,1.5,3.4,1.9c0.4,0.5,0.6,1,0.6,1.5c0,0.6-0.3,1.1-0.8,1.5c-0.5,0.4-1.3,0.6-2.4,0.6c-1.9,0-3.6-0.7-5.1-2v4.2
		c1.3,0.7,3.1,1.1,5.2,1.1c2.3,0,4.1-0.5,5.3-1.5c1.3-1,1.9-2.4,1.9-4.3c0-1.3-0.3-2.4-1-3.3C482,228.1,480.8,227.2,478.9,226.3z"/>
	<rect x="504.8" y="263" class="st2" width="2.2" height="9.1"/>
	<path class="st2" d="M543.5,255.5c-0.9-0.8-2.2-1.8-3.7-3l-2,2.3c1.1,1,2.3,2.1,3.6,3.3l2.1-2.4v0.3h5v2.4H544v18.8h3v-1.3h9.8v1.3
		h3v-18.8h-4.5V256h5.2v-2.8h-17V255.5z M547,261.1h1.5c-0.1,1.6-0.5,3.1-1.5,4.5V261.1z M556.8,273.1H547v-1.8h9.8V273.1z
		 M555.3,261.1h1.5v3.5h-0.5c-0.6,0-0.9-0.3-0.9-1V261.1z M551.2,256h1.4v2.4h-1.4V256z M551.1,261.1h1.5v3.1c0,2.1,0.9,3.1,2.7,3.1
		h1.4v1.4H547v-2.6c0.5,0.5,1.2,1.1,2,2C550.3,266.2,551,263.8,551.1,261.1z"/>
	<path class="st2" d="M496.6,277h2.6v-5h2.2v1.3c0,0.5-0.2,0.8-0.6,0.8c-0.7-0.1-1.2-0.1-1.2-0.1c0.2,0.9,0.3,1.8,0.4,2.8
		c0.7,0,1.3,0.1,1.6,0.1c1.6-0.1,2.4-0.9,2.4-2.7v-12.3h-7.3V277z M499.1,264.2h2.2v1.5h-2.2V264.2z M499.1,268.1h2.2v1.5h-2.2
		V268.1z"/>
	<path class="st2" d="M576.3,258.3H573v7.5h-5v11.2h3.2v-1.6h9v1.6h3.2v-11.2h-7.1v-2.3h8.1v-3h-8.1V258.3z M580.2,268.8v3.5h-9
		v-3.5H580.2z"/>
	<path class="st2" d="M544,236.3c0,1.5,0.5,2.6,1.4,3.1c0.9,0.6,2.5,0.9,4.7,0.9h8c1.7,0,3.1-0.2,4.2-0.7c1.1-0.7,1.9-1.7,2.3-2.9
		c0.4-1.3,0.7-2.7,0.9-4.4l-3.6-1.4c-0.1,2-0.3,3.4-0.6,4.2c-0.3,0.7-0.7,1.3-1.2,1.6c-0.5,0.3-1.4,0.4-2.6,0.4h-8.2
		c-0.8,0-1.2-0.3-1.2-0.8c0-0.6,1.6-1.8,4.7-3.5c3.1-1.7,6.1-3.2,8.9-4.5v-3.3h-17.4v3.3h10.9c-2.9,1.2-5.5,2.6-7.7,4.1
		C545.2,233.7,544,235.1,544,236.3z"/>
	<path class="st2" d="M543.1,262.4c-1-0.9-2.4-2.1-4.2-3.6l-2,2.5c1.2,1.1,2.5,2.3,3.9,3.7L543.1,262.4z"/>
	<path class="st2" d="M477.2,254.1c-2.9,3.3-4.4,7.3-4.4,12c0,4.6,1.4,8.6,4.3,12.1h3.2c-2.8-3.7-4.2-7.7-4.2-12.1
		c0-4.4,1.4-8.4,4.2-12H477.2z"/>
	<path class="st2" d="M540.8,710.9l-3.7,0.6c0.2,0.6,0.4,1.1,0.6,1.7h-9.3v2.7h22v-2.7h-8.9C541.3,712.4,541,711.7,540.8,710.9z"/>
	<path class="st2" d="M540.3,700.2l2.1-3.2c-3-1.9-5.8-3.5-8.5-4.8c0.2-0.4,0.3-0.8,0.4-1.2h8.2v-3.3H535c0.1-2.1,0.3-6.2,0.4-12.4
		H532c0,4.2-0.2,8.3-0.5,12.4h-11.2v3.3h10.4c-0.9,2.5-4.3,4.5-10.4,6.1c0.7,1,1.4,2.1,2.1,3.3c4.4-1.3,7.7-3.1,9.8-5.4
		C535,696.6,537.8,698.4,540.3,700.2z"/>
	<path class="st2" d="M506.3,682.9v1.2l-3.6,0.2l0.2,2.4l3.5-0.2v0.5c0,2.1,0.9,3.1,2.8,3.1h5.5c2,0,3.4-1.3,3.9-4
		c-1-0.3-2-0.7-2.8-1.2c-0.2,1.8-0.9,2.7-2.1,2.7h-3.3c-0.8,0-1.1-0.4-1.1-1.3l5.7-0.4l-0.1-2.3l-5.6,0.3v-1.1H506.3z"/>
	<path class="st2" d="M528.9,684.6c-2.1-1.5-4.1-2.8-6-4.1l-1.7,2.8c1.7,1.1,3.6,2.5,5.8,4.2L528.9,684.6z"/>
	<path class="st2" d="M462.9,675.6L459,675c-0.1,0.7-0.4,1.9-0.8,3.3h-5.8V700h3.5v-1.6h12v1.6h3.5v-21.6h-9.6
		C462.3,677.4,462.6,676.4,462.9,675.6z M468,694.8h-12v-4.7h12V694.8z M468,682v4.7h-12V682H468z"/>
	<path class="st2" d="M493,695.1c-0.1,0.4-0.4,0.7-0.7,1c-0.4,0.2-0.9,0.3-1.5,0.3h-9.2c-1.5,0-2.2-0.8-2.2-2.4v-2.2h14.8v-9.4h-4.7
		l2-2.4V677h-8.3c0.3-0.6,0.6-1.1,0.9-1.7l-3.5-0.3c-1.6,2.9-3.8,5.5-6.8,7.7c0.6,1.1,1.1,2.2,1.6,3.2c0.3-0.2,0.6-0.5,0.9-0.7v9.7
		c0,3.1,1.5,4.7,4.5,4.7h10.1c1.4,0,2.4-0.2,3.2-0.7s1.3-1.1,1.6-1.9c0.3-0.9,0.5-2.2,0.9-3.9c-0.6-0.2-1.5-0.6-2.9-1.2
		C493.3,693.6,493.2,694.7,493,695.1z M483.6,688.8h-4.2v-3.7h4.2V688.8z M491,685.2v3.7h-4.2v-3.7H491z M481.2,679.9h6.3l-1.9,2.4
		h-6.4C480,681.5,480.6,680.7,481.2,679.9z"/>
	<path class="st2" d="M515.4,696.6h-0.4c-0.5,0-0.8-0.3-0.8-1v-4.4h-9.6v1.9c-0.1,1.9-1.3,3.5-3.6,4.6c0.8,0.8,1.6,1.7,2.5,2.7
		c2.7-1.5,4.1-3.7,4.2-6.4h3.5v2.8c0,2,1,3,2.9,3h1c1.9,0,3.1-0.6,3.6-1.9c0.3-0.9,0.6-2.1,0.8-3.7c-0.8-0.2-1.7-0.6-2.8-1.1
		C516.4,695.4,516.1,696.6,515.4,696.6z"/>
	<path class="st2" d="M601.4,689.2h-11.9v2.7h4.8v4.1c0,0.3-0.1,0.6-0.3,0.7c-0.2,0.2-0.7,0.3-1.7,0.2c0.3-1.2,0.7-2.5,1-3.9
		l-2.6-0.8c-0.4,2.1-0.9,3.9-1.5,5.4l2.5,1c0.1,0.4,0.2,0.9,0.3,1.5c1.8,0,3-0.1,3.5-0.2c0.5-0.1,0.9-0.5,1.2-0.9
		c0.3-0.5,0.4-1.1,0.4-1.9v-5.2h4.1V689.2z"/>
	<rect x="590.2" y="685.2" class="st2" width="10.1" height="2.7"/>
	<path class="st2" d="M601.4,694.8c-0.6-0.9-1.3-1.8-2.1-2.8l-2,1.6c0.8,1,1.4,2,2,2.9L601.4,694.8z"/>
	<path class="st2" d="M682.9,698.3c2.3-2.2,4.3-4.8,6.1-8c0.9,1.5,1.9,2.8,3,4c-2,1-4.3,2-6.9,2.8c0.6,1.1,1.2,2.2,1.7,3.3
		c3.1-1,5.7-2.3,7.9-3.7c2.2,1.5,4.8,2.7,7.9,3.5c0.6-1.3,1.3-2.5,1.9-3.7c-2.9-0.5-5.2-1.2-7-2c1.9-1.7,3.4-3.7,4.6-5.9v-2.8h-11.1
		c0.3-0.8,0.6-1.6,0.8-2.3h12.6v-3.1h-3.9l1.4-1.6c-1-1-2.2-2.1-3.6-3.3l-2,2.1c0.9,0.9,1.8,1.9,2.6,2.8h-6.4l1-4.7l-3.3-0.3
		c-0.3,1.9-0.7,3.6-1,5h-3.3c0.4-1.6,0.7-2.9,0.9-3.9l-3.1-0.4c-0.3,1.5-0.7,3-1.1,4.4v3h5.7c-1.5,4.1-3.7,7.7-6.6,10.8
		C682.2,695.3,682.5,696.7,682.9,698.3z M698.4,688.5c-0.9,1.4-2.1,2.7-3.7,4c-1.3-1.1-2.4-2.5-3.2-4H698.4z"/>
	<path class="st2" d="M531,679.2c-2.1-1.4-4-2.6-5.9-3.6l-1.6,2.6c1.7,1.1,3.6,2.4,5.7,3.9L531,679.2z"/>
	<path class="st2" d="M565.8,692l-1.9-2.7h0.6v-13.1h-12v18.7c0,1.2-0.3,2.1-0.8,2.7l1.3,2.7c0.9-0.5,2.9-1.1,6-1.9
		c0-0.7,0-1.6,0.1-2.8c1.2,1.8,2.9,3.2,5.2,4.4c0.5-1.3,1.1-2.5,1.6-3.5c-1.5-0.5-2.7-1.2-3.6-2.1L565.8,692z M555.4,679.3h6.1v2.1
		h-6.1V679.3z M555.4,695.9v-6.6h1.1c0.5,2.2,1.2,4.1,2.2,5.7C557.5,695.3,556.5,695.6,555.4,695.9z M555.4,686.3v-2.1h6.1v2.1
		H555.4z M559.3,689.3h4.3c-0.9,1-2,1.9-3.1,2.8C560.1,691.3,559.7,690.4,559.3,689.3z"/>
	<path class="st2" d="M549.8,685.5c0.7-2.5,1.4-4.8,1.9-6.9v-2.4h-7.7v24.1h2.8v-21.1h1.9c-0.5,2.2-1.1,4.5-1.7,6.7
		c1.4,1.7,2,3.4,2,5.1c0,0.8-0.4,1.2-1.3,1.2c-0.2,0-0.5,0-0.8-0.1c0.3,1.2,0.5,2.5,0.6,3.9c3,0,4.4-1.3,4.4-4
		C552,689.4,551.3,687.3,549.8,685.5z"/>
	<path class="st2" d="M579.6,696.2v-3.4h7.6v-3.1h-7.6v-2.7h8.8v-3.1h-21.5v3.1h9.4v9.1c-2-0.3-3.3-1.6-4.1-3.8
		c0.3-1.1,0.5-2.4,0.7-3.7l-3.1-0.4c-0.5,4-1.7,7-3.6,9.2c0.6,0.8,1.2,1.8,1.9,2.9c1.1-1.2,2.1-2.6,2.8-4.4c1,2.1,2.7,3.3,5.2,3.4
		c2.5,0.2,6.4,0.3,11.8,0.3c0.2-0.9,0.6-2,1-3.4C585.2,696.3,582.1,696.3,579.6,696.2z"/>
	<path class="st2" d="M567.3,677.9v5h3.1V681h14.5v1.9h3.1v-5h-8.2c-0.3-1.1-0.7-2-1-2.9l-3.5,0.9l0.7,2H567.3z"/>
	<path class="st2" d="M667.4,683.3h-6v16.8h3.3v-1.5H676v1.5h3.3v-16.8h-8.5l0.4-1.9h10.2v-3h-6l1.9-2.4l-3.1-1
		c-0.8,1.2-1.6,2.3-2.4,3.4h-5l1.7-0.7c-0.6-0.8-1.4-1.7-2.2-2.7l-3,1c0.6,0.8,1.2,1.6,1.7,2.3h-5.8v3h8.6
		C667.6,682.1,667.5,682.7,667.4,683.3z M676,695.8h-11.3v-1.4H676V695.8z M676,691.7h-11.3v-1.4H676V691.7z M676,686.2v1.4h-11.3
		v-1.4H676z"/>
	<rect x="635.8" y="683.7" class="st2" width="22.4" height="1.9"/>
	<rect x="577.5" y="721" class="st2" width="16.4" height="0.8"/>
	<path class="st2" d="M601.1,715.1h1.9c-0.4,2-0.9,4-1.5,5.9h2.7c0.7-2.3,1.3-4.5,1.8-6.4v-2.4h-7.7v8.9h2.8V715.1z"/>
	<path class="st2" d="M495.3,716.3h1.7c2.2,0,3.3,1,3.3,3.1c0,0.6-0.1,1.1-0.3,1.6h4c0.1-0.5,0.2-1.1,0.2-1.7c0-4.1-2.2-6.2-6.6-6.2
		h-6.1v8h3.8V716.3z"/>
	<rect x="530.9" y="721" class="st2" width="16.9" height="2.2"/>
	<path class="st2" d="M658.3,697.5h-9.8v-1h8.5v-1.8h-8.5v-0.9h7.6v-7.4h-18.1v7.4h7.5v0.9h-8.3v1.8h8.3v1h-9.7v1.9h22.6V697.5z
		 M648.5,688.2h4.7v1.1h-4.7V688.2z M648.5,690.9h4.7v1.1h-4.7V690.9z M645.5,692.1h-4.6v-1.1h4.6V692.1z M645.5,689.4h-4.6v-1.1
		h4.6V689.4z"/>
	<path class="st2" d="M607.1,687c0.1-0.9,0.1-1.9,0.1-3h-2.8c0,3.2-0.4,5.8-1.1,7.9c-0.7,2-2.1,3.9-4,5.6c0.7,0.9,1.3,1.9,2,2.9
		c2.4-2.4,3.9-4.9,4.6-7.6c0.9,3.1,2.4,5.5,4.6,7.4c0.7-1.5,1.3-2.6,1.7-3.4C609.3,694.9,607.6,691.7,607.1,687z"/>
	<polygon class="st2" points="589.5,679.6 594,679.6 594,681.2 590,681.2 590,683.9 600.4,683.9 600.4,681.2 597,681.2 597,679.6 
		601.3,679.6 601.3,676.8 597,676.8 597,675 594,675 594,676.8 589.5,676.8 	"/>
	<path class="st2" d="M605.9,675.6l-2.8-0.6c-0.7,3.8-1.6,7-2.7,9.7c0.7,0.4,1.6,0.8,2.6,1.4c0.5-1.2,1-2.7,1.5-4.4h4.4l-0.8,4.1
		l2.7,0.6l1-4.9v-2.9h-6.4C605.5,677.7,605.7,676.7,605.9,675.6z"/>
	<path class="st2" d="M656,676H638v6.9H656V676z M652.9,681.1h-11.9v-0.9h11.9V681.1z M652.9,678.7h-11.9v-0.9h11.9V678.7z"/>
	<path class="st2" d="M609.7,720.1h6.1v0.9h2.9v-8.8h-12v8.8h2.9V720.1z M609.7,715.2h6.1v2.1h-6.1V715.2z"/>
	<path class="st2" d="M616.2,679.1h1.9c-0.5,2.2-1.1,4.5-1.7,6.7c1.4,1.7,2,3.4,2,5.1c0,0.8-0.4,1.2-1.3,1.2c-0.2,0-0.5,0-0.8-0.1
		c0.3,1.2,0.5,2.5,0.6,3.9c3,0,4.4-1.3,4.4-4c0-2.5-0.7-4.7-2.2-6.5c0.7-2.5,1.4-4.8,1.9-6.9v-2.4h-7.7v24.1h2.8V679.1z"/>
	<path class="st2" d="M633.8,676.2h-12v18.7c0,1.2-0.3,2.1-0.8,2.7l1.3,2.7c0.9-0.5,2.9-1.1,6-1.9c0-0.7,0-1.6,0.1-2.8
		c1.2,1.8,2.9,3.2,5.2,4.4c0.5-1.3,1.1-2.5,1.6-3.5c-1.5-0.5-2.7-1.2-3.6-2.1l3.5-2.3l-1.9-2.7h0.6V676.2z M624.8,679.3h6.1v2.1
		h-6.1V679.3z M624.8,695.9v-6.6h1.1c0.5,2.2,1.2,4.1,2.2,5.7C626.9,695.3,625.8,695.6,624.8,695.9z M624.8,686.3v-2.1h6.1v2.1
		H624.8z M629.9,692.1c-0.5-0.8-0.9-1.8-1.2-2.8h4.3C632,690.3,631,691.2,629.9,692.1z"/>
	<polygon class="st2" points="624.7,716.2 627.6,716.2 627.6,721 630.7,721 630.7,712.8 621.7,712.8 621.7,721 624.7,721 	"/>
	<path class="st2" d="M509.5,678.7h8.6v-2.4h-8.6v-1.1h-3.1v4.7h-7.3v7.7c0,4.1-0.8,7.3-2.2,9.7c0.8,0.9,1.7,2,2.5,3
		c1.8-3.1,2.8-7.2,2.8-12.5v-5.4h14l-0.4,1.7c0.9,0.2,1.8,0.4,2.8,0.8l0.8-5.1h-9.9V678.7z"/>
	<polygon class="st2" points="469.7,713 465.6,713 468.1,721 471.8,721 	"/>
	<polygon class="st2" points="482,713 478.1,713 475.9,721 479.6,721 	"/>
	<rect x="507.6" y="718.6" class="st2" width="10.7" height="2.4"/>
	<polygon class="st2" points="487.7,716.3 489.2,716.3 489.2,713 482.5,713 482.5,716.3 484,716.3 484,721 487.7,721 	"/>
	<polygon class="st2" points="641.3,718.8 643.2,718.8 643.2,715.5 641.3,715.5 641.3,711.2 638.1,711.2 638.1,715.5 631.3,715.5 
		631.3,718.8 638.1,718.8 638.1,721 641.3,721 	"/>
	<polygon class="st2" points="673.3,718.8 675.6,718.8 675.6,715.6 673.3,715.6 673.3,711.3 670.1,711.3 670.1,715.6 667.1,715.6 
		667.1,718.8 670.1,718.8 670.1,721 673.3,721 	"/>
	<polygon class="st2" points="649.4,718.8 651.7,718.8 651.7,715.6 649.4,715.6 649.4,711.3 646.3,711.3 646.3,715.6 643.8,715.6 
		643.8,718.8 646.3,718.8 646.3,721 649.4,721 	"/>
	<path class="st2" d="M666.4,720.1h-10.5v-4c4.5-0.4,7.9-0.8,10.3-1.2l-1-3.4c-4,0.8-8.1,1.3-12.4,1.4v8h13.6V720.1z"/>
	<polygon class="st2" points="679.9,716.3 685.2,716.3 685.2,721 688.4,721 688.4,712.9 676.7,712.9 676.7,721 679.9,721 	"/>
	<path class="st2" d="M547.8,716.9h-16.9v4.1h16.9V716.9z M533.9,720.7v-1.4h10.8v1.4H533.9z"/>
	<path class="st2" d="M633.3,720.2l-1.1,0.8h1.6C633.7,720.7,633.5,720.5,633.3,720.2z"/>
	<path class="st2" d="M563.4,719.3h-2.3c0.5-0.9,0.9-1.5,1.2-2c-1.2-0.6-2-1-2.4-1.2h3.1v-2.8h-3.8c-0.2-0.9-0.5-1.6-0.7-2.3
		l-3.1,0.6c0.2,0.5,0.4,1.1,0.6,1.7h-4.1v2.8h7.6c-0.3,0.7-0.8,1.7-1.6,3.1h-1c-0.4-0.9-0.9-2-1.5-3.1l-2.5,1.1c0.3,0.6,0.7,1.3,1,2
		h-2.5v1.7h12V719.3z"/>
	<path class="st2" d="M573.9,719.3h-6.8v-3.4c2.4-0.3,4.7-0.7,6.8-1.3l-1.3-3.3c-2.2,0.8-5,1.5-8.5,1.9v7.9h9.8V719.3z"/>
	<path class="st2" d="M593.9,712.1h-16.4v8.9h16.4V712.1z M580.9,718.6v-3.3h9.7v3.3H580.9z"/>
	<polygon class="st2" points="524.9,716.1 527.5,716.1 527.5,712.7 505.2,712.7 505.2,716.1 521.4,716.1 521.4,721 524.9,721 	"/>
	<polygon class="st3" points="572.6,643.8 566,643.8 566,631.8 571.8,631.8 571.8,627.4 566,627.4 566,616.5 572.6,616.5 
		572.6,612.2 561.5,612.2 561.5,648.1 572.6,648.1 	"/>
	<polygon class="st3" points="610.4,643.8 600.9,643.8 610,616.5 610,612.2 596.8,612.2 596.8,616.5 605.4,616.5 596.3,644 
		596.3,648.1 610.4,648.1 	"/>
	<path class="st3" d="M621.3,648.5c4.4,0,7.2-2.8,7.2-7.7v-21.4c0-4.9-2.8-7.7-7.2-7.7c-4.4,0-7.2,2.8-7.2,7.7v21.4
		C614.1,645.7,616.9,648.5,621.3,648.5z M618.6,619.7c0-2.5,1.1-3.7,2.8-3.7c1.7,0,2.8,1.2,2.8,3.7v20.8c0,2.5-1.1,3.7-2.8,3.7
		c-1.7,0-2.8-1.2-2.8-3.7V619.7z"/>
	<path class="st3" d="M581.1,628.8c0-3.5-0.6-7.7-0.6-7.7h0.1l6.8,27h5v-35.9h-4.1v19.3c0,3.3,0.5,7.7,0.5,7.7h-0.1l-6.8-27h-5v35.9
		h4.1V628.8z"/>
	<path class="st3" d="M547.4,634.1l1.7-4.1l4.4,18.1h4.5l-6-22.5l5.7-13.4h-4.5l-4.2,10.1c-0.9,2.3-1.4,5.1-1.4,5.1h-0.1v-15.2h-4.4
		v35.9h4.4V634.1z"/>
	<path class="st2" d="M86.6,480.6c0.3,0.7,0.5,1.5,0.8,2.3l-2.2,0.2v-4.4h5.2v-11.2h-5.2v-4.4H82v4.4h-5.2v12h3v-0.8H82v4.7
		l-5.9,0.5l0.4,3.3l11.8-1.4c0.2,0.7,0.5,1.5,0.7,2.3l2.8-0.9c-0.8-2.8-1.7-5.3-2.5-7.5L86.6,480.6z M85.2,470.8h2.2v4.7h-2.2V470.8
		z M82,475.5h-2.3v-4.7H82V475.5z"/>
	<path class="st2" d="M110.7,477.2l3.8-1.9l-1.9-2.8c-1.7,1.1-4,2.4-6.6,3.7c-0.5-0.9-1.1-1.8-1.8-2.6c0.5-0.3,1-0.7,1.5-1.1h5.2
		v-2.8H97.1v2.8h3.9c-2.2,1.2-5,2.1-8.2,2.7c0.5,0.8,1.1,1.7,1.6,2.6c2.6-0.7,5-1.6,7.1-2.6c0.2,0.3,0.4,0.5,0.6,0.8
		c-2.5,1.6-5.6,2.8-9.3,3.7l1.6,2.6c3.3-1,6.3-2.4,8.9-4.4c0.2,0.3,0.3,0.7,0.4,1c-2.9,2.4-6.8,4.3-11.4,5.5c0.7,1,1.3,2,1.9,3
		c2-0.7,3.8-1.5,5.4-2.4c0.3,0.9,0.5,2,0.8,3.1c2.4,0,3.9-0.1,4.5-0.2c0.6-0.1,1.2-0.4,1.6-0.8c0.5-0.4,0.8-1,1-1.7
		c0.2-0.7,0.3-1.6,0.3-2.7c0-1.3-0.2-2.6-0.6-3.9l1-0.5c1.4,3.8,3,6.5,5.1,8.2c0.8-0.9,1.7-1.8,2.7-2.8
		C113.5,482.3,111.8,480.1,110.7,477.2z M102.3,484.9c-0.6,0-1.4-0.1-2.4-0.2c1.7-0.9,3.2-2,4.5-3.1c0.1,0.4,0.1,0.7,0.1,1
		C104.5,484.1,103.7,484.9,102.3,484.9z"/>
	<path class="st2" d="M251.6,479.9h2.2v3.1c0,1-0.4,1.5-1.1,1.5c-0.4,0-0.9,0-1.5-0.1c0.3,1.1,0.6,2.2,0.8,3.5
		c2.1,0,3.4-0.3,3.9-0.9c0.5-0.6,0.7-1.3,0.7-2.3v-20.5h-7.7v8.7c0,3.7-0.1,6.4-0.3,8.1c-0.2,1.7-0.6,3.2-1.2,4.5
		c0.8,0.8,1.5,1.8,2.2,2.9C250.8,486.4,251.5,483.6,251.6,479.9z M251.7,467.4h2v3.2h-2V467.4z M251.7,473.6h2v3.2h-2.1
		C251.7,475.9,251.7,474.8,251.7,473.6z"/>
	<polygon class="st2" points="108.3,500.7 100.5,502.5 100.5,505.8 104.5,504.9 104.5,517.4 100.6,517.4 100.6,520.7 112.1,520.7 
		112.1,517.4 108.3,517.4 	"/>
	<path class="st2" d="M239.2,488c1.3,0,2.5,0,3.5-0.1c1,0,1.8-0.4,2.3-1s0.8-1.6,0.8-2.9v-21h-3V483c0,1-0.4,1.6-1.2,1.6
		c-0.7,0-1.7,0-2.9-0.1C238.9,485.8,239.1,487,239.2,488z"/>
	<path class="st2" d="M95.2,516.7c-0.6,0-1.2,0.2-1.6,0.6c-0.5,0.4-0.7,0.9-0.7,1.6c0,0.6,0.2,1.1,0.7,1.6c0.4,0.4,1,0.6,1.6,0.6
		c0.7,0,1.2-0.2,1.7-0.6c0.4-0.4,0.7-0.9,0.7-1.6c0-0.6-0.2-1.1-0.7-1.5C96.4,516.9,95.8,516.7,95.2,516.7z"/>
	<rect x="238.5" y="465.1" class="st2" width="2.9" height="17"/>
	<path class="st2" d="M89,501.1h-3.8l-7.8,12.8v2.6h8.1v4.3H89v-4.3h2.2v-2.9H89V501.1z M85.5,507v6.4h-4.9l4.1-6.8
		c0.2-0.3,0.3-0.6,0.5-0.9c0.1-0.3,0.2-0.5,0.2-0.6h0.1C85.5,505.8,85.5,506.5,85.5,507z"/>
	<path class="st2" d="M207.1,468h7.9v13.9c0,0.5-0.1,0.9-0.3,1.2c-0.2,0.3-0.4,0.5-0.8,0.6s-0.8,0.1-1.5,0.1c-1,0-2.1,0-3.3-0.1
		c0.4,1.2,0.7,2.5,0.9,3.9c3.8,0,6-0.2,6.6-0.4c0.6-0.3,1.1-0.7,1.4-1.3c0.3-0.6,0.5-1.5,0.5-2.5V468h4.3v-3.5h-15.7V468z"/>
	<path class="st2" d="M200.5,464.7c0.8,1.3,1.7,3,2.8,5.2l3-2c-1.1-1.9-2.1-3.5-3.1-4.9L200.5,464.7z"/>
	<path class="st2" d="M205.7,517.9c0,0.5-0.1,0.9-0.3,1.2c-0.2,0.3-0.4,0.5-0.8,0.6s-0.8,0.1-1.5,0.1c-1,0-2.1,0-3.3-0.1
		c0.4,1.2,0.7,2.5,0.9,3.9c3.8,0,6-0.2,6.6-0.4c0.6-0.3,1.1-0.7,1.4-1.3c0.3-0.6,0.5-1.5,0.5-2.5V504h4.3v-3.5h-15.7v3.5h7.9V517.9z
		"/>
	<path class="st2" d="M201.7,483c0,0.9-0.2,1.6-0.6,2.1l1.8,2.6c1-1.1,2.9-2.7,5.8-4.7c-0.2-1.3-0.3-2.6-0.4-3.9
		c-1.5,1.2-2.7,2-3.4,2.5v-10h-5.6v3.3h2.4V483z"/>
	<path class="st2" d="M179.4,466.1c0,0.6,0.2,1.1,0.6,1.5c0.4,0.4,1,0.6,1.6,0.6c0.7,0,1.2-0.2,1.6-0.6c0.4-0.4,0.6-0.9,0.6-1.5
		c0-0.6-0.2-1.1-0.6-1.5c-0.4-0.4-1-0.6-1.6-0.6c-0.7,0-1.2,0.2-1.6,0.6S179.4,465.5,179.4,466.1z"/>
	<path class="st2" d="M191.9,470.3c-0.7,0-1.6,0.1-2.6,0.3c-1,0.2-1.8,0.5-2.4,0.9v3.2c1.4-1,2.9-1.5,4.4-1.5c1.6,0,2.4,0.8,2.4,2.4
		l-3.6,0.5c-3,0.4-4.5,2-4.5,4.7c0,1.3,0.4,2.3,1.1,3.1c0.8,0.8,1.7,1.1,3,1.1c1.7,0,3-0.8,3.9-2.4h0v2h3.7v-8.5
		C197.5,472.3,195.6,470.3,191.9,470.3z M193.8,479c0,0.9-0.3,1.6-0.8,2.2s-1.2,0.9-1.9,0.9c-0.6,0-1-0.2-1.4-0.5
		c-0.3-0.3-0.5-0.7-0.5-1.3c0-1.1,0.7-1.8,2.1-2l2.5-0.3V479z"/>
	<rect x="172.7" y="463.9" class="st2" width="3.8" height="20.8"/>
	<path class="st2" d="M122.3,508.1c-1.7,0-3,0.7-3.9,2.2h-0.1c0-1.9,0.4-3.4,1.3-4.6c0.9-1.2,2-1.8,3.4-1.8c1.1,0,2.1,0.3,3.1,0.9
		v-3.5c-0.8-0.4-1.9-0.5-3.3-0.5c-2.6,0-4.6,1-6.1,3.1s-2.2,4.8-2.2,8.1c0,2.8,0.6,5,1.7,6.7c1.1,1.6,2.7,2.4,4.9,2.4
		c1.8,0,3.4-0.6,4.5-1.9c1.2-1.3,1.8-2.9,1.8-4.9c0-1.8-0.5-3.3-1.4-4.4C125.1,508.7,123.9,508.1,122.3,508.1z M122.9,516.9
		c-0.5,0.7-1.1,1-1.9,1c-0.8,0-1.4-0.4-1.9-1.1c-0.5-0.7-0.7-1.6-0.7-2.6c0-0.9,0.2-1.6,0.7-2.2s1.1-0.9,1.9-0.9
		c1.7,0,2.6,1.1,2.6,3.3C123.6,515.5,123.4,516.3,122.9,516.9z"/>
	<path class="st2" d="M77.4,466l-2.3-2.2c-0.8,1-1.5,1.9-2.3,2.7c-0.7-1.1-1.4-2.1-2.3-3.1l-2.2,1.9c0.8,1.1,1.6,2.2,2.2,3.5
		c-0.8,0.8-1.6,1.4-2.5,2.1c0.5,0.7,1.1,1.6,1.8,2.8c0.7-0.5,1.3-1.1,1.9-1.6c0.2,0.7,0.4,1.3,0.5,2c-1.2,1.8-2.6,3.4-4.2,4.7
		c0.7,1.4,1.2,2.4,1.5,3c1.3-1.1,2.4-2.4,3.3-3.7c0.1,0.9,0.1,1.9,0.1,2.9c0,1.1,0,1.9-0.1,2.2c-0.1,0.4-0.2,0.7-0.5,0.9
		c-0.3,0.2-0.6,0.3-1,0.3c-0.5,0-1.3-0.1-2.3-0.2c0.3,1.5,0.4,2.6,0.5,3.3c2.2,0.1,3.6-0.1,4.4-0.4c0.8-0.4,1.4-1,1.7-2
		c0.3-0.9,0.5-2.8,0.5-5.5c0-3.9-0.5-7.2-1.6-10.1C75.4,468.4,76.4,467.2,77.4,466z"/>
	<path class="st2" d="M220,499.1v3.5h-1.9l0.4-2.1l-2.6-0.6c-0.4,2.3-1,4.5-1.6,6.5c1,0.4,1.8,0.7,2.5,1c0.2-0.6,0.4-1.3,0.6-2.1
		h2.6v2.3h-5.8v2.9h5.8v2h-4.9v9.9h2.9v-7h2v8.7h3.1v-8.7h2v3.1c0,0.6-0.2,0.8-0.7,0.8c-0.4,0-0.8,0-1.2-0.1
		c0.3,1.2,0.5,2.3,0.7,3.2c0.4,0,1,0,1.8,0c0.8,0,1.4-0.3,1.8-0.9c0.4-0.5,0.6-1.3,0.6-2.2v-6.9h-4.9v-2h5.5v-2.9h-5.5v-2.3h4.8
		v-2.9h-4.8v-3.5H220z"/>
	<path class="st2" d="M96.2,468.2h15.6v3.5h3.3v-6.4h-8.9c-0.2-0.9-0.5-1.6-0.7-2.3l-4.1,0.6c0.2,0.5,0.5,1,0.7,1.8H93v6.4h3.3
		V468.2z"/>
	<path class="st2" d="M229.2,476.6h-4.9v9.9h2.9v-7h2v8.7h3.1v-8.7h2v3.1c0,0.6-0.2,0.8-0.7,0.8c-0.4,0-0.8,0-1.2-0.1
		c0.3,1.2,0.5,2.3,0.7,3.2c0.4,0,1,0,1.8,0c0.8,0,1.4-0.3,1.8-0.9s0.6-1.3,0.6-2.2v-6.9h-4.9v-2h5.5v-2.9h-5.5v-2.3h4.8v-2.9h-4.8
		v-3.5h-3.1v3.5h-1.9l0.4-2.1l-2.6-0.6c-0.4,2.3-1,4.5-1.6,6.5c1,0.4,1.8,0.7,2.5,1c0.2-0.6,0.4-1.3,0.6-2.1h2.6v2.3h-5.8v2.9h5.8
		V476.6z"/>
	<path class="st2" d="M169.4,484v-3c-1.1,0.8-2.4,1.1-3.8,1.1c-2.3,0-3.6-1.1-3.7-3.3h8.7v-1.7c0-2.1-0.5-3.8-1.6-5
		c-1.1-1.2-2.5-1.8-4.4-1.8c-1.9,0-3.4,0.7-4.7,2.1c-1.2,1.4-1.9,3.2-1.9,5.5c0,2.2,0.6,4,1.7,5.3c1.2,1.3,2.8,1.9,4.9,1.9
		C166.6,485,168.2,484.7,169.4,484z M162.8,474c0.5-0.6,1.1-0.9,1.8-0.9c1.6,0,2.4,1,2.4,3.1h-5.1
		C161.9,475.3,162.2,474.6,162.8,474z"/>
	<path class="st2" d="M253.4,508c-0.7-1.5-1.1-2.6-1.4-3.1l-1.3,0.6c0.5,1.1,1,2.2,1.3,3.1C252.5,508.4,253,508.2,253.4,508z"/>
	<path class="st2" d="M282.6,480.8h7c-0.1,1.2-0.1,2-0.2,2.4c-0.1,0.4-0.3,0.7-0.7,0.9c-0.4,0.2-0.9,0.3-1.6,0.3
		c-1.3,0-2.8-0.1-4.6-0.2c0.4,1.3,0.6,2.4,0.8,3.4c0.9,0,1.7,0.1,2.5,0.1c2.3,0,3.8-0.2,4.6-0.5c0.8-0.3,1.4-0.8,1.9-1.4
		c0.5-0.6,0.7-1.4,0.8-2.4l0.4-5.8h-10.1c0.1-0.8,0.2-1.6,0.3-2.4h-3.4c-0.1,0.8-0.2,1.6-0.4,2.4h-7.4v3.1h6.4
		c-1.2,2-3.6,3.5-7.3,4.5c0.9,1,1.6,2,2.2,2.9C278.4,486.8,281.4,484.4,282.6,480.8z"/>
	<path class="st2" d="M282.2,519.4c-0.2,0.7-0.7,1.1-1.5,1.1h-0.6c-0.8,0-1.2-0.4-1.2-1.3v-19.7h-3.3V520c0,2.4,1.1,3.5,3.3,3.5h2.5
		c2.1,0,3.3-0.8,3.7-2.3c0.4-1.4,0.8-3.2,1.1-5.3c-1.3-0.5-2.4-0.9-3.3-1.4C282.7,516.2,282.5,517.8,282.2,519.4z"/>
	<path class="st2" d="M272.9,476.6c4-0.6,7.5-1.5,10.6-2.7c2.9,1.2,6.4,1.9,10.5,2.3c0.4-1,0.8-2.1,1.3-3.4
		c-2.7-0.1-5.2-0.4-7.5-0.9c2.1-1.2,4-2.5,5.5-4.1v-2.7h-12.4c0.5-0.7,1-1.4,1.5-2.2h-3.6c-1.5,2.3-3.8,4.4-6.9,6.3
		c0.7,0.9,1.4,1.8,1.9,2.6c1-0.7,2-1.4,3-2.2c0.9,0.9,1.8,1.7,3,2.4c-2.4,0.6-5.1,1.1-8.1,1.4C272.1,474.7,272.5,475.7,272.9,476.6z
		 M279.2,468h9.3c-1.4,1-3,1.9-4.8,2.7C282,470,280.5,469.1,279.2,468z"/>
	<path class="st2" d="M182.5,500.7c-2.2,0-3.9,0.9-5.1,2.7c-1.2,1.8-1.8,4.4-1.8,7.8c0,6.6,2.2,9.8,6.5,9.8c2.2,0,3.8-0.9,5-2.7
		c1.2-1.8,1.7-4.3,1.7-7.6C188.9,504.1,186.8,500.7,182.5,500.7z M182.3,517.9c-1.8,0-2.7-2.3-2.7-6.8c0-4.8,0.9-7.2,2.8-7.2
		c1.7,0,2.6,2.3,2.6,7C185,515.6,184.1,517.9,182.3,517.9z"/>
	<path class="st2" d="M260.9,485.5c0.5,0.9,1,1.8,1.4,2.7c1.3-0.8,2.4-1.8,3.4-2.9c1,1,2.1,2,3.4,2.7c0.7-1.3,1.4-2.4,2-3.4
		c-1.3-0.5-2.4-1.2-3.3-2c1.2-1.9,2.1-4,2.7-6.4v-2.9h-9.6v-6.1h5.9c0,0.9-0.1,1.5-0.4,1.7c-0.3,0.2-0.6,0.3-1.1,0.3
		c-0.7,0-1.7-0.1-3-0.2c0.3,1.1,0.5,2.1,0.6,3.1c2.6,0,4.2,0,4.8-0.1c0.6-0.1,1-0.4,1.5-0.9c0.4-0.5,0.7-1.1,0.8-1.9
		c0.2-0.8,0.2-2.5,0.2-5.1h-12.3V488h3V485.5z M260.9,476.1h6.4c-0.4,1.5-1,2.8-1.7,3.9c-0.8-1.1-1.4-2.3-1.8-3.7l-2.6,1.2
		c0.7,1.9,1.5,3.6,2.5,5c-0.8,0.8-1.7,1.4-2.7,2V476.1z"/>
	<rect x="179.7" y="470.7" class="st2" width="3.8" height="14"/>
	<path class="st2" d="M195.6,517.6v-10H190v3.3h2.4v8.1c0,0.9-0.2,1.6-0.6,2.1l1.8,2.6c1-1.1,2.9-2.7,5.8-4.7
		c-0.2-1.3-0.3-2.6-0.4-3.9C197.5,516.2,196.4,517.1,195.6,517.6z"/>
	<path class="st2" d="M233.6,519c0,1-0.4,1.6-1.2,1.6c-0.7,0-1.7,0-2.9-0.1c0.3,1.4,0.5,2.6,0.6,3.6c1.3,0,2.5,0,3.5-0.1
		c1,0,1.8-0.4,2.3-1c0.5-0.6,0.8-1.6,0.8-2.9v-21h-3V519z"/>
	<path class="st2" d="M244.3,513v-8.7h-1.9v8.7c0,3.2-1.4,5.9-4.2,8.3c0.8,1.3,1.4,2.3,1.7,3c1.6-1.6,2.8-3.5,3.5-5.6
		c1,1.6,1.9,3.1,2.8,4.6l2.4-2.2l-4.5-5.4C244.2,514.8,244.3,513.9,244.3,513z"/>
	<rect x="229.3" y="501.1" class="st2" width="2.9" height="17"/>
	<path class="st2" d="M248.9,524.2h2.8v-1h6v1h2.8v-11.4h-11.6V524.2z M251.7,515.3h6v1.5h-6V515.3z M251.7,519.1h6v1.5h-6V519.1z"
		/>
	<path class="st2" d="M194.1,499l-2.8,1.7c0.8,1.3,1.7,3,2.8,5.2l3-2C196.1,502.1,195.1,500.4,194.1,499z"/>
	<path class="st2" d="M270.4,512.3v-1.4c1.1-1.5,1.9-2.9,2.6-4.4v-3.1h-4l2.1-1.2c-0.9-1.4-1.6-2.5-2.2-3.2l-2.8,1.5
		c0.6,0.9,1.2,1.9,1.8,2.9h-4.7v3.4h5.8c-1.3,2.3-3.6,4.9-6.8,7.7c0.3,1.2,0.7,2.6,1.1,4.2c1.4-1.3,2.7-2.6,3.8-3.8v9.2h3.2v-10.2
		c0.7,0.7,1.6,1.5,2.6,2.5l2-2.5c-1.3-1.1-2.6-2-3.7-2.8L270.4,512.3z"/>
	<polygon class="st2" points="247.4,516 247.4,500.3 239.2,500.3 239.2,516.1 241.5,516.1 241.5,503.1 245.2,503.1 245.2,516 	"/>
	<path class="st2" d="M253.6,501.8l-1.4-2.7l-2.6,1l1.1,1.8h-2.5v10h13v-10h-2.6l1.2-1.9L257,499l-1.2,2.8H253.6z M253.6,509.2h-3
		v-4.9h3V509.2z M258.7,504.3v4.9h-3v-4.9H258.7z"/>
	<path class="st2" d="M156.7,481.5c-0.5,0.3-0.9,0.4-1.3,0.4c-1.1,0-1.7-0.7-1.7-2.2v-5.9h3v-3.1h-3v-4.3l-3.8,1.2v3.1h-2.2v3.1h2.2
		v6.6c0,3.1,1.4,4.7,4.2,4.7c1.2,0,2.1-0.2,2.6-0.5V481.5z"/>
	<rect x="129.9" y="511.7" class="st2" width="7" height="2.9"/>
	<path class="st2" d="M134.8,480.2h6.7l1.4,4.5h4.3l-6.6-19.7H136l-6.8,19.7h4.3L134.8,480.2z M137.8,470.1c0.2-0.5,0.3-1.1,0.3-1.7
		h0.1c0.1,0.7,0.2,1.3,0.3,1.7l2.1,6.8h-4.9L137.8,470.1z"/>
	<path class="st2" d="M150.5,501.1h-3.8l-7.8,12.8v2.6h8.1v4.3h3.5v-4.3h2.2v-2.9h-2.2V501.1z M147,507v6.4h-4.9l4.1-6.8
		c0.2-0.3,0.3-0.6,0.5-0.9c0.1-0.3,0.2-0.5,0.2-0.6h0.1C147,505.8,147,506.5,147,507z"/>
	<path class="st2" d="M169.2,510.5L169.2,510.5c2.4-0.7,3.7-2.3,3.7-4.9c0-1.5-0.5-2.7-1.6-3.6c-1.1-0.9-2.5-1.3-4.3-1.3
		c-1.7,0-3.2,0.4-4.5,1.1v3.4c1.2-0.9,2.4-1.3,3.6-1.3c1.9,0,2.8,0.8,2.8,2.5c0,1.8-1.2,2.7-3.7,2.7h-1.5v3.2h1.6
		c1.3,0,2.3,0.2,3.1,0.7c0.7,0.5,1.1,1.2,1.1,2.1c0,0.9-0.3,1.6-0.9,2.1c-0.6,0.5-1.4,0.7-2.5,0.7c-1.6,0-3.1-0.5-4.3-1.5v3.6
		c1.2,0.7,2.7,1,4.6,1c2.1,0,3.8-0.5,5.1-1.6c1.3-1,1.9-2.5,1.9-4.4c0-1.2-0.4-2.3-1.2-3.1C171.5,511.1,170.5,510.6,169.2,510.5z"/>
	<path class="st2" d="M156.7,516.7c-0.6,0-1.2,0.2-1.6,0.6c-0.5,0.4-0.7,0.9-0.7,1.6c0,0.6,0.2,1.1,0.7,1.6c0.4,0.4,1,0.6,1.6,0.6
		c0.7,0,1.2-0.2,1.7-0.6c0.4-0.4,0.7-0.9,0.7-1.6c0-0.6-0.2-1.1-0.7-1.5C157.9,516.9,157.4,516.7,156.7,516.7z"/>
	<path class="st2" d="M258.6,505.4l-1.4-0.5c-0.3,0.9-0.8,2-1.3,3.1c0.4,0.2,0.8,0.4,1.3,0.7C257.7,507.5,258.2,506.4,258.6,505.4z"
		/>
	<polygon class="st2" points="122,465 118.1,465 118.1,484.7 128.9,484.7 128.9,481.3 122,481.3 	"/>
	<path class="st3" d="M213.9,428.6c0,4.8,2.3,8,8,7.5v-4.4c-2.7,0.2-3.6-1-3.6-3.6v-15.9h3.6v-4.5h-3.6V401h-4.4v6.7h-2.1v4.5h2.1
		V428.6z"/>
	<path class="st3" d="M189.6,436.5c4.4,0,7.1-2.8,7.1-7.7v-1.9h-4.4v1.6c0,2.5-1,3.7-2.7,3.7c-1.7,0-2.7-1.2-2.7-3.7v-5.3h9.8V415
		c0-4.9-2.7-7.7-7.1-7.7s-7.1,2.8-7.1,7.7v13.8C182.5,433.7,185.2,436.5,189.6,436.5z M186.9,415.3c0-2.5,1-3.7,2.7-3.7
		s2.7,1.2,2.7,3.7v4.2h-5.4V415.3z"/>
	<path class="st3" d="M168.4,434.3c0.5,1.3,2.2,2.2,3.7,2.2c4.2,0,6.1-2.8,6.1-7.7V415c0-5-2-7.7-6.1-7.7c-1.6,0-3.4,0.9-3.9,2.3
		v-1.9H164v38.8h4.4V434.3z M168.4,415.3c0-2.5,1.1-3.7,2.7-3.7s2.7,1.2,2.7,3.7v13.3c0,2.5-1.1,3.7-2.7,3.7s-2.7-1.2-2.7-3.7V415.3
		z"/>
	<path class="st3" d="M152.4,436.5c4.4,0,7.1-2.8,7.1-7.7v-1.9h-4.4v1.6c0,2.5-1,3.7-2.7,3.7s-2.7-1.2-2.7-3.7v-5.3h9.8V415
		c0-4.9-2.7-7.7-7.1-7.7s-7.1,2.8-7.1,7.7v13.8C145.3,433.7,148,436.5,152.4,436.5z M149.7,415.3c0-2.5,1-3.7,2.7-3.7
		s2.7,1.2,2.7,3.7v4.2h-5.4V415.3z"/>
	<path class="st3" d="M201.8,428.6c0,4.8,2.3,8,8,7.5v-4.4c-2.7,0.2-3.6-1-3.6-3.6v-15.9h3.6v-4.5h-3.6V401h-4.4v6.7h-2.1v4.5h2.1
		V428.6z"/>
	<path class="st3" d="M131.1,420.3h2.5c1.9,0,2.7,1.4,2.7,3.7v8.5c0,1.8,0.1,2.5,0.5,3.6h4.5c-0.4-1.1-0.6-2.6-0.6-4.1v-8.3
		c0-2.8-0.9-4.9-2.8-5.7c1.6-0.9,2.8-2.7,2.8-5.2V408c0-4.7-2.1-7.8-7.2-7.8h-6.9v35.9h4.4V420.3z M131.1,404.5h2.5
		c1.9,0,2.7,1.4,2.7,3.7v4.4c0,2.3-0.9,3.7-2.7,3.7h-2.5V404.5z"/>
	<path class="st3" d="M232,436.5c4.4,0,7.1-2.8,7.1-7.7V415c0-4.9-2.7-7.7-7.1-7.7s-7.1,2.8-7.1,7.7v13.8
		C224.9,433.7,227.6,436.5,232,436.5z M229.3,415.3c0-2.5,1.1-3.7,2.7-3.7s2.7,1.2,2.7,3.7v13.3c0,2.5-1.1,3.7-2.7,3.7
		s-2.7-1.2-2.7-3.7V415.3z"/>
	<path class="st4" d="M417.7,25.7h-4.4v21.1c0,5,1.7,7.7,5.9,7.7c1.5,0,3.3-0.9,3.7-2.2v1.8h4.2V25.7h-4.4v20.8c0,2.5-1,3.7-2.5,3.7
		c-1.6,0-2.5-1.2-2.5-3.7V25.7z"/>
	<path class="st4" d="M436.5,33.2c0-2.5,1-3.7,2.5-3.7c1.6,0,2.5,1.2,2.5,3.7v20.8h4.4V33c0-5-1.7-7.7-5.9-7.7
		c-1.5,0-3.3,0.9-3.7,2.2v-1.8h-4.2v28.4h4.4V33.2z"/>
	<rect x="450.7" y="48.4" class="st4" width="5.2" height="5.7"/>
	<path class="st4" d="M401.6,54.5c5,0,7.5-3.6,7.5-8.4c0-3.5-0.7-5.8-3-8.5l-5-5.8c-1.7-1.9-2.1-3.4-2.1-5.6c0-2.5,0.9-4.1,2.8-4.1
		c1.7,0,2.7,1.2,2.7,3.7v3.8h4.4v-4.1c0-4.9-2.6-7.7-7.1-7.7c-5,0-7.2,3.6-7.2,8.4c0,3.5,0.7,5.8,3,8.5l5,5.8
		c1.7,1.9,2.1,3.4,2.1,5.6c0,2.7-1,4.1-3.1,4.1c-1.5,0-2.8-1.2-2.8-3.7v-3.8h-4.4v4.1C394.4,51.8,397.3,54.5,401.6,54.5z"/>
	<rect x="337.4" y="274.4" class="st4" width="5.2" height="5.7"/>
	<path class="st4" d="M290.7,280.1h4.2v-35.9h-6.8l-3.5,22.6c-0.4,2.6-0.6,7-0.6,7H284c0,0-0.2-4.3-0.6-7l-3.5-22.6h-6.8v35.9h4.2
		v-23.4c0-3.5-0.3-7.7-0.3-7.7h0.1l4.7,31.1h4.4l4.7-31.1h0.1c0,0-0.3,4.3-0.3,7.7V280.1z"/>
	<path class="st4" d="M307.1,280.5c4.4,0,7.1-2.8,7.1-7.7V259c0-4.9-2.7-7.7-7.1-7.7c-4.4,0-7.1,2.8-7.1,7.7v13.8
		C300,277.7,302.7,280.5,307.1,280.5z M304.4,259.3c0-2.5,1.1-3.7,2.7-3.7c1.7,0,2.7,1.2,2.7,3.7v13.3c0,2.5-1.1,3.7-2.7,3.7
		c-1.7,0-2.7-1.2-2.7-3.7V259.3z"/>
	<path class="st4" d="M323,253.5v-1.8h-4.2v28.3h4.4v-20.8c0-2.5,1-3.7,2.5-3.7c1.6,0,2.5,1.2,2.5,3.7v20.8h4.4V259
		c0-5-1.7-7.7-5.9-7.7C325.2,251.3,323.5,252.2,323,253.5z"/>
	<path class="st4" d="M437.4,504.5c0,2.5-1,3.7-2.5,3.7c-1.6,0-2.5-1.2-2.5-3.7v-20.8h-4.4v21.1c0,5,1.7,7.7,5.9,7.7
		c1.5,0,3.3-0.9,3.7-2.2v1.8h4.2v-28.4h-4.4V504.5z"/>
	<rect x="460.1" y="506.4" class="st4" width="5.2" height="5.7"/>
	<path class="st4" d="M417.3,483.3c-1.4,0-3.1,0.9-3.6,2.2V474h-4.4v38.1h4.4v-20.8c0-2.5,1-3.7,2.5-3.7c1.6,0,2.5,1.2,2.5,3.7v20.8
		h4.4V491C423.2,486,421.5,483.3,417.3,483.3z"/>
	<path class="st4" d="M451,487.3v-3.6h-4.3v28.3h4.4v-18.3c0-4.2,2.5-5.9,5.8-5.4v-4.9C454.4,483.4,452,484.7,451,487.3z"/>
	<polygon class="st4" points="392,480.5 396.9,480.5 396.9,512.1 401.3,512.1 401.3,480.5 406.2,480.5 406.2,476.2 392,476.2 	"/>
	<rect x="424.9" y="1" class="st4" width="4.5" height="10.1"/>
	<path class="st4" d="M434.3,11.1h13.9V6.8h-9.5v-3c0-1,0.2-1.9,0.6-2.7h-4.7c-0.2,0.8-0.3,1.6-0.3,2.5V11.1z"/>
	<polygon class="st4" points="401.7,4.4 401.7,11.1 406.1,11.1 406.1,4.4 408.8,4.4 408.8,1 392.1,1 392.1,4.4 	"/>
	<rect x="412.7" y="5.4" class="st4" width="5.2" height="5.7"/>
	<path class="st4" d="M281.5,234.1h4.4v-6.7h2.6v-4.1h-2.6v-25.2h-5.7l-8.4,25.5v3.7h9.6V234.1z M276.1,223.3l5.9-20.4
		c0,0-0.6,3.3-0.6,6.6v13.8H276.1z"/>
	<rect x="292.4" y="228.4" class="st4" width="5.2" height="5.7"/>
	<path class="st4" d="M321,234.5c4.4,0,7.2-2.9,7.2-7.8v-5.5c0-2.8-1.2-5.1-3-5.9c1.9-0.8,2.9-3.2,2.9-6v-3.8c0-4.9-2.6-7.8-7.1-7.8
		s-7,2.9-7,7.8v4h4.4v-3.8c0-2.5,1-3.7,2.6-3.7s2.6,1.2,2.6,3.7v4.2c0,2.3-0.9,3.7-2.7,3.7h-2.4v4h2.5c1.9,0,2.7,1.4,2.7,3.7v5.3
		c0,2.5-1.1,3.7-2.7,3.7s-2.6-1.2-2.6-3.7v-3.8H314v4C314,231.6,316.6,234.5,321,234.5z"/>
	<path class="st4" d="M304.6,234.1h4.5v-35.9h-3.8c-0.3,2.8-2.3,3.9-4.6,4v3.6h3.9V234.1z"/>
	<path class="st4" d="M332.3,693.4v-4.2h-14.2v4.3h10.2c-4.5,6.3-7.2,16.7-7.6,27.5h4.5C325.5,709.8,328,699.8,332.3,693.4z"/>
	<rect x="297" y="719.4" class="st4" width="5.2" height="1.6"/>
	<path class="st4" d="M313.8,689.2H310c-0.3,2.8-2.3,3.9-4.6,4v3.6h3.9V721h4.5V689.2z"/>
	<path class="st4" d="M290.5,718.4h2.6v-4.1h-2.6v-25.2h-5.7l-8.4,25.5v3.7h9.6v2.6h4.4V718.4z M286.1,714.3h-5.3l5.9-20.4
		c0,0-0.6,3.3-0.6,6.6V714.3z"/>
	<rect x="411.9" y="463.4" class="st4" width="5.2" height="5.7"/>
	<path class="st4" d="M405.4,433.2h-5.7l-8.4,25.5v3.7h9.6v6.7h4.4v-6.7h2.6v-4.1h-2.6V433.2z M401,444.6v13.8h-5.3l5.9-20.4
		C401.6,438,401,441.3,401,444.6z"/>
	<path class="st4" d="M448.3,454.8c0-5-2-7.8-6.1-7.8c-1.5,0-3.2,0.9-3.7,2.2v-8.5c0-2.5,1-3.7,2.6-3.7c1.7,0,2.6,1.2,2.6,3.7v3.8
		h4.4v-4c0-4.9-2.6-7.8-7-7.8c-4.4,0-7.1,2.9-7.1,7.8v21.2c0,4.9,2.7,7.8,7.1,7.8c4.4,0,7.1-2.9,7.1-7.8V454.8z M443.9,461.5
		c0,2.5-1,3.7-2.7,3.7c-1.7,0-2.7-1.2-2.7-3.7V455c0-2.5,1-3.7,2.7-3.7c1.7,0,2.7,1.2,2.7,3.7V461.5z"/>
	<path class="st4" d="M428.6,469.1v-35.9h-3.8c-0.3,2.8-2.3,3.9-4.6,4v3.6h3.9v28.3H428.6z"/>
	<path class="st5" d="M344.2,12.6c0,8.6,6.9,15.5,15.5,15.5c8.6,0,15.5-6.9,15.5-15.5c0-4.6-2-8.7-5.2-11.6h-20.6
		C346.2,3.8,344.2,8,344.2,12.6z"/>
	<path class="st5" d="M359.7,225.1c-8.6,0-15.5,6.9-15.5,15.5c0,8.6,6.9,15.5,15.5,15.5c8.6,0,15.5-6.9,15.5-15.5
		C375.2,232,368.2,225.1,359.7,225.1z"/>
	<path class="st5" d="M359.7,716.1c-4.5,0-8.5,1.9-11.3,4.9H371C368.2,718,364.2,716.1,359.7,716.1z"/>
	<path class="st5" d="M359.7,459.1c-8.6,0-15.5,6.9-15.5,15.5c0,8.6,6.9,15.5,15.5,15.5c8.6,0,15.5-6.9,15.5-15.5
		C375.2,466,368.2,459.1,359.7,459.1z"/>
</g>
<g>
</g>
<g>
</g>
<g>
</g>
<g>
</g>
<g>
</g>
<g>
</g>
<g>
</g>
<g>
</g>
<g>
</g>
<g>
</g>
<g>
</g>
<g>
</g>
<g>
</g>
<g>
</g>
<g>
</g>
</svg>
