<?xml version="1.0" encoding="utf-8"?>
<!-- Generator: Adobe Illustrator 17.0.0, SVG Export Plug-In . SVG Version: 6.00 Build 0)  -->
<!DOCTYPE svg PUBLIC "-//W3C//DTD SVG 1.1//EN" "http://www.w3.org/Graphics/SVG/1.1/DTD/svg11.dtd">
<svg version="1.1" id="Layer_1" xmlns="http://www.w3.org/2000/svg" xmlns:xlink="http://www.w3.org/1999/xlink" x="0px" y="0px"
	 width="720px" height="720px" viewBox="0 0 720 720" style="enable-background:new 0 0 720 720;" xml:space="preserve">
<style type="text/css">
	.st0{fill:#FFD65A;}
	.st1{fill:none;}
	.st2{fill:#DF9431;}
	.st3{fill:#010101;}
	.st4{fill:#FFEAAB;}
	.st5{fill:#FFFFFF;}
	.st6{fill:#DF9431;stroke:#FFFFFF;stroke-width:2;stroke-miterlimit:10;}
</style>
<g id="brand-1.svg">
	<g id="brands.svg_1_">
		<g>
			<path class="st0" d="M493,79.9h16.1c3.2,0,5.6,0.1,7.1,0.4c1.6,0.3,3,0.8,4.2,1.7c1.2,0.9,2.3,2,3.1,3.4c0.8,1.4,1.2,3,1.2,4.8
				c0,1.9-0.5,3.7-1.5,5.3s-2.4,2.8-4.1,3.6c2.5,0.7,4.4,2,5.7,3.7c1.3,1.7,2,3.8,2,6.2c0,1.9-0.4,3.7-1.3,5.4
				c-0.9,1.8-2,3.2-3.5,4.2c-1.5,1-3.3,1.7-5.5,1.9c-1.4,0.1-4.6,0.2-9.8,0.3H493V79.9z M501.2,86.7v9.4h5.3c3.2,0,5.1,0,5.9-0.1
				c1.4-0.2,2.5-0.7,3.3-1.5c0.8-0.8,1.2-1.9,1.2-3.2c0-1.3-0.3-2.3-1-3.1c-0.7-0.8-1.7-1.3-3.1-1.4c-0.8-0.1-3.1-0.1-7-0.1H501.2z
				 M501.2,102.9v10.9h7.5c2.9,0,4.8-0.1,5.6-0.2c1.2-0.2,2.2-0.8,3-1.6c0.8-0.9,1.1-2,1.1-3.5c0-1.2-0.3-2.3-0.9-3.1
				c-0.6-0.9-1.4-1.5-2.5-1.9s-3.5-0.6-7.2-0.6H501.2z"/>
			<path class="st0" d="M539.7,120.7h-7.7V91.1h7.2v4.2c1.2-2,2.3-3.3,3.3-3.9c1-0.6,2.1-0.9,3.3-0.9c1.8,0,3.5,0.5,5.1,1.5
				l-2.4,6.8c-1.3-0.9-2.5-1.3-3.6-1.3c-1.1,0-2,0.3-2.8,0.9c-0.8,0.6-1.3,1.7-1.8,3.3c-0.4,1.6-0.6,4.9-0.6,9.9V120.7z"/>
			<path class="st0" d="M558.6,100.1l-7-1.3c0.8-2.9,2.1-5,4.1-6.3s4.8-2.1,8.6-2.1c3.5,0,6,0.4,7.7,1.2c1.7,0.8,2.9,1.9,3.6,3.1
				s1,3.6,1,7l-0.1,9.1c0,2.6,0.1,4.5,0.4,5.7c0.2,1.2,0.7,2.6,1.4,4h-7.7c-0.2-0.5-0.5-1.3-0.7-2.3c-0.1-0.5-0.2-0.8-0.3-0.9
				c-1.3,1.3-2.7,2.3-4.2,2.9c-1.5,0.6-3.1,1-4.8,1c-3,0-5.4-0.8-7.1-2.5s-2.6-3.7-2.6-6.3c0-1.7,0.4-3.2,1.2-4.5
				c0.8-1.3,1.9-2.3,3.3-3c1.4-0.7,3.5-1.3,6.2-1.8c3.6-0.7,6.1-1.3,7.5-1.9v-0.8c0-1.5-0.4-2.6-1.1-3.2c-0.7-0.6-2.1-1-4.2-1
				c-1.4,0-2.5,0.3-3.2,0.8C559.7,97.8,559.1,98.8,558.6,100.1z M569,106.5c-1,0.3-2.6,0.7-4.7,1.2c-2.1,0.5-3.6,0.9-4.2,1.4
				c-1,0.7-1.5,1.6-1.5,2.8c0,1.1,0.4,2,1.2,2.8c0.8,0.8,1.8,1.2,3.1,1.2c1.4,0,2.7-0.5,4-1.4c0.9-0.7,1.6-1.6,1.8-2.6
				c0.2-0.7,0.3-1.9,0.3-3.8V106.5z"/>
			<path class="st0" d="M609.4,120.7h-7.7v-15.1c0-3.2-0.2-5.3-0.5-6.2c-0.3-0.9-0.9-1.7-1.6-2.2c-0.7-0.5-1.6-0.8-2.7-0.8
				c-1.3,0-2.5,0.4-3.6,1.1c-1.1,0.7-1.8,1.7-2.2,3c-0.4,1.2-0.6,3.5-0.6,6.8v13.4h-7.7V91.1h7.2v4.3c2.6-3.3,5.8-5,9.6-5
				c1.7,0,3.3,0.3,4.7,0.9s2.5,1.4,3.2,2.4c0.7,1,1.2,2.1,1.5,3.3s0.4,3,0.4,5.3V120.7z"/>
			<path class="st0" d="M642.6,120.7h-7.2v-4.3c-1.2,1.7-2.6,2.9-4.2,3.8c-1.6,0.8-3.3,1.2-4.9,1.2c-3.4,0-6.2-1.4-8.6-4.1
				c-2.4-2.7-3.6-6.6-3.6-11.5c0-5,1.2-8.8,3.5-11.4c2.3-2.6,5.3-3.9,8.8-3.9c3.3,0,6.1,1.4,8.5,4.1V79.9h7.7V120.7z M622,105.2
				c0,3.2,0.4,5.4,1.3,6.8c1.2,2,3,3.1,5.2,3.1c1.8,0,3.3-0.8,4.5-2.3c1.2-1.5,1.9-3.8,1.9-6.9c0-3.4-0.6-5.8-1.8-7.3
				s-2.8-2.2-4.7-2.2c-1.8,0-3.4,0.7-4.6,2.2C622.6,100.1,622,102.3,622,105.2z"/>
			<path class="st0" d="M646.5,111.8l4.9-0.8c0.3,2,1,3.5,2.3,4.6c1.3,1.1,3,1.6,5.3,1.6c2.3,0,4-0.5,5.1-1.4s1.7-2,1.7-3.3
				c0-1.1-0.5-2-1.5-2.7c-0.7-0.4-2.4-1-5.1-1.7c-3.6-0.9-6.2-1.7-7.6-2.4c-1.4-0.7-2.5-1.6-3.2-2.8c-0.7-1.2-1.1-2.5-1.1-4
				c0-1.3,0.3-2.5,0.9-3.7c0.6-1.1,1.4-2.1,2.4-2.8c0.8-0.6,1.8-1.1,3.2-1.5s2.8-0.6,4.3-0.6c2.3,0,4.3,0.3,6,1
				c1.7,0.7,3,1.6,3.8,2.7c0.8,1.1,1.4,2.7,1.7,4.6l-4.8,0.7c-0.2-1.5-0.9-2.7-1.9-3.6c-1.1-0.9-2.5-1.3-4.5-1.3
				c-2.3,0-3.9,0.4-4.9,1.1s-1.5,1.7-1.5,2.7c0,0.6,0.2,1.2,0.6,1.8c0.4,0.5,1,1,1.9,1.3c0.5,0.2,2,0.6,4.4,1.3
				c3.5,0.9,6,1.7,7.3,2.3s2.5,1.5,3.3,2.6c0.8,1.2,1.2,2.6,1.2,4.3c0,1.7-0.5,3.2-1.4,4.7c-1,1.5-2.4,2.6-4.2,3.4
				c-1.8,0.8-3.9,1.2-6.2,1.2c-3.8,0-6.7-0.8-8.7-2.4C648.4,117.3,647.1,115,646.5,111.8z"/>
		</g>
		<g>
			<path class="st0" d="M524.2,184.4v-21h17.6v21h-4.1v-2.8h-9.5v2.8H524.2z M528.3,167.1v11h9.5v-11H528.3z M528.7,158.2v-16.9
				h31.9v16.9H528.7z M533.2,145.3v8.9h23v-8.9H533.2z M547.3,184.4v-21h17.6v21H561v-2.8h-9.6v2.8H547.3z M551.3,167.1v11h9.6v-11
				H551.3z"/>
			<path class="st0" d="M571.7,184.4l-3.5-2.3c1.1-2.7,1.8-5.2,2-7.8c0.4-2.4,0.6-6.2,0.6-11.4v-21.8h3.9v13.5h4.6V140h3.5v14.6h2.6
				v3.6h-10.8v5.3v0.2h8.5V184h-3.5v-16.7h-5C574.5,174,573.5,179.7,571.7,184.4z M587.3,165.6v-22h7.8c0.4-1.5,0.7-3,0.9-4.5
				l4.3,0.4c-0.4,1.3-0.7,2.7-1.1,4.2h12.1v22h-12.8c-1.5,2.4-3.9,4.7-7.2,6.8h8.5v-4.9h4.1v4.9h9.6v3.8h-9.6v8.1h-4.1v-8.1H585
				v-3.8h4.6c-0.6-0.8-1.3-1.5-2-2.1c3-1.5,5.1-3.1,6.5-4.7H587.3z M591,147v5.9h6.5V147H591z M591,162h5.4c0.6-1.6,1-3.6,1.1-5.9
				H591V162z M600.1,162h7.4v-5.9H601C601,158.4,600.7,160.4,600.1,162z M607.5,147H601v5.9h6.5V147z"/>
			<path class="st0" d="M620.4,184.2v-42.1H654v42.1h-4.5V181H625v3.2H620.4z M625,146.3v13.1h24.5v-13.1H625z M625,163.5V177h24.5
				v-13.5H625z"/>
			<path class="st0" d="M665.1,174.1h-3.3c-0.1-11.1-0.5-22.2-1.1-33.2h5.6c-0.1,2.5-0.2,6.3-0.4,11.2
				C665.6,161.8,665.3,169.1,665.1,174.1z M665.8,178.1v5.3h-4.6v-5.3H665.8z"/>
		</g>
	</g>
	<path class="st1" d="M425.5,648c-1.7,0-2.8,1.2-2.8,3.7v20.8c0,2.5,1.1,3.7,2.8,3.7s2.8-1.2,2.8-3.7v-20.8
		C428.3,649.2,427.1,648,425.5,648z"/>
	<path class="st1" d="M445.9,669.3v-13.8c0-3.3,0.6-6.6,0.6-6.6l-5.9,20.4H445.9z"/>
	<path class="st1" d="M426.3,232.2c1.7,0,2.8-1.2,2.8-3.7v-20.8c0-2.5-1.1-3.7-2.8-3.7s-2.8,1.2-2.8,3.7v20.8
		C423.5,231,424.6,232.2,426.3,232.2z"/>
	<path class="st1" d="M398.1,211.6c0-3.3,0.6-6.6,0.6-6.6l-5.9,20.4h5.3V211.6z"/>
	<path class="st1" d="M397.3,669.3v-13.8c0-3.3,0.6-6.6,0.6-6.6l-5.9,20.4H397.3z"/>
	<path class="st1" d="M417.4,710.7c-2.1,1.3-3,2.5-3,5.2c0,2.5,1,3.4,2.4,3.4c1.7,0,2.8-1.4,2.8-4.3v-6.2
		C419.1,709.5,418.5,710,417.4,710.7z"/>
	<path class="st1" d="M336.2,689.6l-27,30.4h84c-0.6-1.1-0.9-2.5-0.9-4.2v-4.1h4.4v3.8c0,2.5,1.3,3.7,2.8,3.7c2.1,0,3.1-1.4,3.1-4.1
		c0-2.3-0.4-3.7-2.1-5.6l-5-5.8c-2.4-2.7-3-5-3-8.5c0-4.8,2.2-8.4,7.2-8.4c4.5,0,7.1,2.8,7.1,7.7v4.1h-4.4v-3.8
		c0-2.5-1.1-3.7-2.7-3.7c-1.9,0-2.8,1.7-2.8,4.1c0,2.3,0.4,3.7,2.1,5.6l5,5.8c2.4,2.7,3,5,3,8.5c0,1.9-0.4,3.6-1.1,4.9h4.6
		c-0.4-1-0.6-2.1-0.6-3.5c0-4.6,1.8-6.9,5.5-8.9c2.9-1.6,4.3-2.6,4.3-5.7c0-1.9-0.5-3.4-2.2-3.4c-1.7,0-2.4,1.3-2.4,3.8v1.7h-4.4
		v-1.7c0-4.9,2.5-8,6.9-8c5.5,0,6.5,4,6.5,9.1v9.6c0,3.5,0,5.5,0.1,7.1h6.3c-0.6-1.2-0.9-2.7-0.9-4.4v-16.4h-2.1v-4.5h2.1V688h4.4
		v6.7h3.6v4.5h-3.6V715c0,2.6,0.9,3.9,3.6,3.6v1.3h3.4v-2.6h5.2v2.6h114.1l9.3-10.7L579,720h141V0H0v593.5l124.4-142.4L336.2,689.6z
		 M404.4,673.4h-2.6v6.7h-4.4v-6.7h-9.6v-3.7l8.4-25.5h5.7v25.2h2.6V673.4z M413.4,680.1h-5.2v-5.7h5.2V680.1z M432.7,672.8
		c0,4.9-2.8,7.8-7.2,7.8s-7.2-2.9-7.2-7.8v-21.2c0-4.9,2.8-7.8,7.2-7.8s7.2,2.9,7.2,7.8V672.8z M453,673.4h-2.6v6.7h-4.4v-6.7h-9.6
		v-3.7l8.4-25.5h5.7v25.2h2.6V673.4z M458.1,278.4h5.2v5.7h-5.2V278.4z M455,255.5v4.9c-3.3-0.6-5.8,1.2-5.8,5.4v18.3h-4.4v-28.3
		h4.3v3.6C450,256.7,452.4,255.4,455,255.5z M437.9,207.5c0-4.9,2.4-7.8,6.8-7.8c4.3,0,6.9,2.9,6.9,7.8v5c0,4.2-2.4,6.9-5.1,9.4
		c-2.7,2.5-4.1,4.2-4.1,6.9v3h9.5v4.3H438v-7.5c0-4.2,2.3-6.9,5-9.4c2.7-2.5,4.2-4.2,4.2-6.9v-4.5c0-2.5-0.9-3.7-2.4-3.7
		c-1.6,0-2.4,1.2-2.4,3.7v3.8h-4.4V207.5z M435.4,276.5v-20.8h4.4v28.3h-4.2v-1.8c-0.5,1.3-2.2,2.2-3.7,2.2c-4.2,0-5.9-2.8-5.9-7.7
		v-21.1h4.4v20.8c0,2.5,0.9,3.7,2.5,3.7C434.4,280.3,435.4,279.1,435.4,276.5z M419.1,207.5c0-4.9,2.8-7.8,7.2-7.8s7.2,2.9,7.2,7.8
		v21.2c0,4.9-2.8,7.8-7.2,7.8s-7.2-2.9-7.2-7.8V207.5z M409,230.4h5.2v5.7H409V230.4z M407.4,246h4.4v11.5c0.5-1.3,2.1-2.2,3.6-2.2
		c4.2,0,5.9,2.8,5.9,7.7v21.1h-4.4v-20.8c0-2.5-0.9-3.7-2.5-3.7c-1.5,0-2.5,1.2-2.5,3.7v20.8h-4.4V246z M388.5,225.7l8.4-25.5h5.7
		v25.2h2.6v4.1h-2.6v6.7h-4.4v-6.7h-9.6V225.7z M390,252.5v-4.3h14.2v4.3h-4.9v31.5h-4.4v-31.5H390z M537.5,299.9l154.9,174.5
		L537.5,648.9L385.1,474.4L537.5,299.9z M359.7,230.1c8.6,0,15.5,6.9,15.5,15.5c0,8.6-6.9,15.5-15.5,15.5c-8.6,0-15.5-6.9-15.5-15.5
		C344.2,237,351.1,230.1,359.7,230.1z M359.7,458.1c8.6,0,15.5,6.9,15.5,15.5c0,8.6-6.9,15.5-15.5,15.5c-8.6,0-15.5-6.9-15.5-15.5
		C344.2,465,351.1,458.1,359.7,458.1z M359.7,674.1c8.6,0,15.5,6.9,15.5,15.5c0,8.6-6.9,15.5-15.5,15.5c-8.6,0-15.5-6.9-15.5-15.5
		C344.2,681,351.1,674.1,359.7,674.1z M278.9,455.4h-2.6v6.7h-4.4v-6.7h-9.6v-3.7l8.4-25.5h5.7v25.2h2.6V455.4z M297.6,476.5H291
		v11.6h5.8v4.4H291v15.6h-4.4v-35.9h11.1V476.5z M282.8,462.1v-5.7h5.2v5.7H282.8z M292.8,454.8v-21.2c0-4.9,2.8-7.8,7.2-7.8
		s7.2,2.9,7.2,7.8v21.2c0,4.9-2.8,7.8-7.2,7.8S292.8,459.7,292.8,454.8z M311.3,484.4c-3.3-0.6-5.8,1.2-5.8,5.4v18.3h-4.4v-28.3h4.3
		v3.6c0.9-2.6,3.4-3.9,5.9-3.8V484.4z M311.6,454.8v-4h4.4v3.8c0,2.5,1,3.7,2.6,3.7c1.7,0,2.7-1.2,2.7-3.7v-5.3
		c0-2.3-0.9-3.7-2.7-3.7h-2.5v-4h2.4c1.9,0,2.7-1.4,2.7-3.7v-4.2c0-2.5-1-3.7-2.6-3.7c-1.7,0-2.6,1.2-2.6,3.7v3.8h-4.4v-4
		c0-4.9,2.6-7.8,7-7.8c4.4,0,7.1,2.9,7.1,7.8v3.8c0,2.8-1.1,5.2-2.9,6c1.9,0.8,3,3.2,3,5.9v5.5c0,4.9-2.7,7.8-7.2,7.8
		C314.2,462.5,311.6,459.7,311.6,454.8z M318.9,508.1h-4.4v-28.3h4.4V508.1z M318.9,475.5h-4.4V470h4.4V475.5z M329,508.1h-5.2v-5.7
		h5.2V508.1z M179.7,71.2l154.9,174.5L179.7,420.2L27.3,245.7L179.7,71.2z"/>
	<path class="st1" d="M300,430c-1.7,0-2.8,1.2-2.8,3.7v20.8c0,2.5,1.1,3.7,2.8,3.7s2.8-1.2,2.8-3.7v-20.8
		C302.8,431.2,301.7,430,300,430z"/>
	<path class="st1" d="M271.8,451.3v-13.8c0-3.3,0.6-6.6,0.6-6.6l-5.9,20.4H271.8z"/>
	<rect x="475" y="507.9" class="st2" width="2.3" height="4.7"/>
	<path class="st2" d="M452.7,476.1h-5c-0.4,0.6-0.8,1.1-1.3,1.6h7.4C453.5,477.2,453.1,476.6,452.7,476.1z"/>
	<rect x="445.7" y="484.2" class="st2" width="8.9" height="1.6"/>
	<rect x="480.4" y="507.9" class="st2" width="2.2" height="4.7"/>
	<rect x="469.5" y="476.3" class="st2" width="11.9" height="0.9"/>
	<rect x="469.5" y="470.9" class="st2" width="11.9" height="0.9"/>
	<rect x="469.5" y="473.6" class="st2" width="11.9" height="0.9"/>
	<path class="st2" d="M692.5,474.4L537.5,299.9L385.1,474.4l152.5,174.5L692.5,474.4z M562,524.4h-23.6v-1.9h10.2v-1h-8.7v-1.8h8.7
		v-0.9h-7.9v-7.4h18.9v7.4h-7.9v0.9h8.8v1.8h-8.8v1H562V524.4z M561.9,508.7v1.9h-23.4v-1.9H561.9z M540.7,507.9V501h18.9v6.9H540.7
		z M586.9,521.4h-10.1v3.8h-3.3v-3.8h-10.1v-3.1h10.1v-1.8h-8.2v-12.6h4.4c-0.5-0.8-1.1-1.6-1.7-2.4l2.9-1.4l2.5,3.1l-1.5,0.7h4.8
		c1-1.3,1.8-2.6,2.6-3.9l3.6,1.4c-0.6,0.6-1.3,1.5-2.1,2.5h4.5v12.6h-8.2v1.8h10.1V521.4z M599.3,524.7H596v-1.2h-3.3v1.2h-3.3
		v-11.9h9.9V524.7z M591.6,510.8v-9.7h17.1v9.7H591.6z M611,524.7h-3.3v-1.2h-3.4v1.2H601v-11.9h9.9V524.7z M613.8,467.3h9.3
		c-0.3-0.9-0.6-1.6-0.9-2.4l3.8-0.9c0.4,1.1,0.8,2.2,1.1,3.3h9.4v3.3h-9.7v2.9h8.5v9c0,0.7-0.1,1.4-0.3,1.9c-0.2,0.5-0.5,1-1,1.3
		c-0.4,0.3-0.9,0.5-1.5,0.6c-0.6,0.1-1.9,0.1-3.9,0.2c-0.3-1.1-0.5-2.2-0.9-3.3c0.9,0.1,1.8,0.1,2.7,0.1c1.1,0,1.7-0.6,1.7-1.7v-4.9
		h-5.3v12.5h-3.4v-12.5h-4.7v9.8h-3.2v-13h8v-2.9h-9.6V467.3z M597.5,464.3h3.9v7h8.8v3.6h-8.8v9.3h10.4v3.6h-23.1v-3.6h8.8V464.3z
		 M581.9,405.7h4.4v20.8c0,2.5,0.9,3.7,2.5,3.7c1.5,0,2.5-1.2,2.5-3.7v-20.8h4.4V434h-4.2v-1.8c-0.5,1.3-2.2,2.2-3.7,2.2
		c-4.2,0-5.9-2.8-5.9-7.7V405.7z M572.6,395.9h4.4v5.6h-4.4V395.9z M572.6,405.7h4.4V434h-4.4V405.7z M570.9,465.3
		c-0.3,1-0.6,2-0.9,2.9h3.7v-4.1h3.5v4.1h8v3.2h-8v4h9.4v3.2h-6.6v5.2c0,1,0.3,1.5,1,1.5h1c0.5,0,0.8-0.2,1.1-0.6
		c0.3-0.4,0.5-1.7,0.8-3.9c1.1,0.5,2.1,0.9,3.1,1.3c-0.5,2.9-1,4.7-1.6,5.4s-1.3,1.1-2.3,1.1h-2.7c-2.6,0-3.9-1.3-3.9-3.9v-6h-3.2
		c0,5-2.5,8.6-7.4,10.7c-0.8-1.1-1.7-2.1-2.5-3c4.2-1.7,6.3-4.2,6.4-7.7h-6.2v-3.2h10.1v-4h-5c-0.6,1.2-1.2,2.3-1.9,3.4
		c-1.2-0.9-2.1-1.6-2.7-1.9c1.7-2.8,2.9-5.6,3.6-8.3L570.9,465.3z M545.3,398.2h6.8l3.5,22.6c0.4,2.6,0.6,7,0.6,7h0.1
		c0,0,0.2-4.3,0.6-7l3.5-22.6h6.8V434h-4.2v-23.4c0-3.4,0.3-7.7,0.3-7.7h-0.1l-4.7,31.1H554l-4.7-31.1h-0.1c0,0,0.3,4.2,0.3,7.7V434
		h-4.2V398.2z M538.6,471.8v-3.3h2.6v-4.3h3.1v4.3h2.2v3.3h-2.2v4.1c0.7-0.2,1.3-0.3,2.1-0.5c-0.4-0.5-0.9-1.2-1.5-1.9
		c3-2.5,5.4-5.6,7.3-9.2h3.4c-0.1,0.3-0.2,0.5-0.4,0.8c2.1,3.2,4.4,5.6,7,7.4c-0.6,1-1.1,2.1-1.6,3.2c-0.4-0.3-0.8-0.6-1.2-0.9
		c0,1.7-0.1,2.9-0.1,3.4c-0.1,3.2-1.4,4.8-3.8,4.8c-1.3,0-2.4,0-3.2,0c-0.1-0.7-0.3-1.7-0.6-3.1c1.4,0.1,2.4,0.2,3,0.2
		c1,0,1.5-0.6,1.6-1.9c0-0.7,0.1-1.4,0.1-2.1h-5.6v8.1c0,1,0.6,1.6,1.7,1.6h4.3c1.2,0,1.8-0.5,2-1.5c0.2-1.3,0.3-2.3,0.4-3
		c1.1,0.4,2.1,0.7,3.1,1c-0.1,1-0.3,2.1-0.6,3.3c-0.4,2.2-1.9,3.3-4.4,3.3h-6c-2.4,0-3.5-1.2-3.5-3.6v-9.9c-0.3,0.2-0.5,0.4-0.7,0.6
		c-0.1-0.1-0.2-0.3-0.3-0.4c-0.1,1.4-0.1,2.4-0.1,3.2c-0.6,0.2-1.3,0.3-2.1,0.6v6.7c0,1.8-0.7,2.8-2.1,3.1c-0.9,0.1-1.9,0.2-2.9,0.2
		c-0.2-0.8-0.4-2-0.8-3.5c0.8,0.1,1.4,0.1,1.9,0.1c0.5,0,0.8-0.4,0.8-1.2v-4.5c-0.8,0.2-1.7,0.5-2.6,0.8l-0.3-3.6
		c0.8-0.2,1.8-0.4,3-0.6v-4.8H538.6z M529.3,487.5v1.2h-3.3v-11.9h9.9v11.9h-3.3v-1.2H529.3z M533.8,474.8h-17.1v-9.7h17.1V474.8z
		 M516.4,405.7h4.4v20.8c0,2.5,0.9,3.7,2.5,3.7c1.5,0,2.5-1.2,2.5-3.7v-20.8h4.4V434H526v-1.8c-0.5,1.3-2.2,2.2-3.7,2.2
		c-4.2,0-5.9-2.8-5.9-7.7V405.7z M514.4,476.8h9.9v11.9H521v-1.2h-3.3v1.2h-3.3V476.8z M507.1,395.9h4.4v5.6h-4.4V395.9z
		 M507.1,405.7h4.4V434h-4.4V405.7z M501.8,466.2c3.6-0.4,6.6-1,8.8-1.9l1.4,3.3c-2.1,0.6-4.5,1-7.1,1.3v3.4h7.1v3.3h-1.8v13.2H507
		v-13.2h-2.1v1.4c0,5.4-1.1,9.4-3.3,12.3c-1.1-1-2.1-1.8-3-2.5c0.9-0.9,1.6-1.9,2.1-3.2l-2.4,1.5c-0.6-1.3-1.2-2.6-1.8-3.8l2.3-1.2
		c0.6,0.8,1.2,2,2,3.5c0.7-1.6,1-3.6,1-6V466.2z M492.3,505.2v3.5h-3.3v-6.4h9.2c-0.2-0.7-0.5-1.3-0.7-1.8l4.1-0.6
		c0.2,0.7,0.4,1.4,0.7,2.3h8.9v6.4H508v-3.5H492.3z M479.8,398.2h6.8l3.5,22.6c0.4,2.6,0.6,7,0.6,7h0.1c0,0,0.2-4.3,0.6-7l3.5-22.6
		h6.8V434h-4.2v-23.4c0-3.4,0.3-7.7,0.3-7.7h-0.1l-4.7,31.1h-4.4l-4.7-31.1h-0.1c0,0,0.3,4.2,0.3,7.7V434h-4.2V398.2z M466.4,479.4
		v-10.7h5.6c0.1-0.4,0.3-0.8,0.4-1.2h-8.5V465h22.4v2.5h-10.2l-0.5,1.2h8.8v10.7h-12.3c-0.3,0.4-0.6,0.8-0.9,1.1h13v2.3
		c-1.2,1-2.7,1.9-4.3,2.7c2,0.3,4.2,0.4,6.6,0.4c-0.5,1.1-0.9,2.2-1.2,3.1c-3.6-0.4-6.8-1-9.5-1.9c-3,1-6.5,1.7-10.5,2.2
		c-0.4-1-0.8-2-1.2-2.9c2.9-0.2,5.5-0.5,7.8-0.9c-1.3-0.7-2.4-1.4-3.3-2.3c-1,0.9-2.2,1.7-3.4,2.5c-0.5-0.7-1.1-1.5-1.8-2.3
		c2.2-1.2,3.9-2.5,5.2-3.9H466.4z M460.4,482.7c-1-0.4-1.9-0.9-2.7-1.4v8h-3.1v-1h-8.9v1.1h-3.1v-8c-0.7,0.5-1.5,1.1-2.3,1.5
		c-0.8-1.2-1.4-2.2-2-2.9c2.2-1,4-2.3,5.5-3.9h-5.2v-2.6h7.1c0.2-0.4,0.5-0.8,0.7-1.3h-6v-2.5h7c0.1-0.4,0.3-0.9,0.4-1.3h-8.2v-2.6
		h8.7c0.1-0.6,0.2-1.2,0.2-1.8h3.2c-0.1,0.6-0.2,1.2-0.3,1.8h9.5v2.6h-9.9l-0.3,1.3h9.4v2.5h-10.2c-0.2,0.4-0.4,0.9-0.6,1.3h12.5
		v2.6H456c1.6,1.7,3.6,2.8,6,3.5C461.2,481,460.7,482,460.4,482.7z M470.7,522.2c-0.3,0.9-0.9,1.6-1.7,2s-2.3,0.5-4.4,0.4
		c-0.1-0.8-0.2-1.9-0.5-3.3c1.1,0.2,1.9,0.2,2.3,0.2c0.4,0,0.8-0.1,1-0.3c0.3-0.2,0.4-0.5,0.5-0.9c0.1-0.4,0.1-1.1,0.1-2.2
		c0-1,0-2-0.1-2.9c-0.9,1.3-2,2.5-3.3,3.7c-0.3-0.6-0.8-1.6-1.5-3c1.6-1.3,3-2.9,4.2-4.7c-0.1-0.7-0.3-1.4-0.5-2
		c-0.6,0.5-1.2,1.1-1.9,1.6c-0.7-1.2-1.3-2.1-1.8-2.8c0.8-0.6,1.6-1.3,2.5-2.1c-0.6-1.3-1.3-2.5-2.2-3.5l2.2-1.9
		c0.9,0.9,1.7,1.9,2.3,3.1c0.8-0.8,1.6-1.7,2.3-2.7l2.3,2.2c-1,1.2-2,2.4-3.1,3.6c1.1,2.9,1.6,6.2,1.6,10.1
		C471.1,519.4,471,521.3,470.7,522.2z M484.3,525.2c-0.2-0.8-0.5-1.6-0.7-2.3l-11.8,1.4l-0.4-3.3l5.9-0.5v-4.7H475v0.8h-3v-12h5.2
		v-4.4h3.2v4.4h5.2v11.2h-5.2v4.4l2.2-0.2c-0.3-0.8-0.5-1.6-0.8-2.3l2.7-0.8c0.9,2.2,1.7,4.7,2.5,7.5L484.3,525.2z M492.4,485.5
		c0.6,0,0.9-0.4,0.9-1.1v-4.7h-4.5v-2.8h4.5v-1.6h-4.9v-2.8h2.6c-0.3-0.7-0.7-1.4-1-2l2.6-1.1c0.6,1.1,1.2,2.2,1.6,3.1h1
		c0.8-1.4,1.3-2.5,1.6-3.1h-8v-2.8h4.2c-0.2-0.6-0.4-1.2-0.6-1.7l3.3-0.6c0.2,0.7,0.5,1.4,0.7,2.3h4v2.8h-3.3
		c0.4,0.2,1.3,0.6,2.5,1.2c-0.3,0.4-0.7,1.1-1.2,2h2.5v2.8h-4.6v1.6h4.2v2.8h-4.2v6.1c0,0.8-0.2,1.4-0.5,1.9
		c-0.3,0.5-0.8,0.7-1.3,0.9c-0.6,0.1-1.6,0.2-3.1,0.2c-0.1-1-0.2-2-0.5-2.9l-0.5,1.1c-0.6-0.4-1.5-0.8-2.5-1.3
		c0.8-1.6,1.5-3.5,2.1-5.6l2.7,0.9c-0.4,1.5-0.9,3-1.5,4.4C491.6,485.5,492,485.5,492.4,485.5z M509.4,523.6c-2-1.7-3.7-4.4-5.1-8.2
		l-1,0.5c0.4,1.3,0.6,2.6,0.6,3.9c0,1.1-0.1,2-0.3,2.7c-0.2,0.7-0.6,1.2-1,1.7c-0.5,0.4-1,0.7-1.6,0.8c-0.6,0.1-2.1,0.2-4.5,0.2
		c-0.2-1.2-0.5-2.2-0.8-3.1c-1.6,0.9-3.5,1.7-5.4,2.4c-0.5-1-1.2-2-1.9-3c4.7-1.2,8.5-3,11.4-5.5c-0.1-0.3-0.3-0.7-0.4-1
		c-2.6,1.9-5.6,3.4-8.9,4.4l-1.6-2.6c3.8-0.8,6.9-2.1,9.3-3.7c-0.2-0.3-0.4-0.5-0.6-0.8c-2.1,1.1-4.5,1.9-7.1,2.6
		c-0.5-0.9-1-1.8-1.6-2.6c3.2-0.6,6-1.5,8.2-2.7h-3.9v-2.8h13.8v2.8h-5.2c-0.5,0.4-1,0.7-1.5,1.1c0.7,0.9,1.3,1.7,1.8,2.6
		c2.7-1.3,4.9-2.6,6.6-3.7l1.9,2.8l-3.8,1.9c1.1,2.9,2.8,5.1,5.2,6.6C511,521.9,510.2,522.8,509.4,523.6z M517.9,521
		c-0.1-1.4-0.3-2.7-0.6-3.9c0.3,0.1,0.6,0.1,0.8,0.1c0.9,0,1.4-0.4,1.4-1.2c0-1.7-0.7-3.4-2.1-5.1c0.7-2.2,1.3-4.5,1.8-6.7h-2v21.1
		h-3v-24.1h8v2.4c-0.6,2.1-1.2,4.4-2,6.9c1.6,1.8,2.3,4,2.3,6.5C522.6,519.7,521,521,517.9,521z M535.3,524.9
		c-2.4-1.1-4.2-2.6-5.4-4.4c0,1.2-0.1,2.1-0.1,2.8c-3.2,0.8-5.3,1.4-6.2,1.9l-1.3-2.7c0.5-0.6,0.8-1.5,0.8-2.7v-18.7h12.5v13.1h-0.6
		l2,2.7l-3.7,2.3c0.9,0.8,2.2,1.5,3.8,2.1C536.4,522.4,535.8,523.6,535.3,524.9z"/>
	<rect x="526.1" y="509.2" class="st2" width="6.4" height="2.1"/>
	<path class="st2" d="M530.2,514.3c0.4,1,0.8,2,1.3,2.8c1.2-0.9,2.2-1.8,3.2-2.8H530.2z"/>
	<path class="st2" d="M496,521.8c1,0.1,1.8,0.2,2.4,0.2c1.4,0,2.2-0.8,2.2-2.3c0-0.3,0-0.6-0.1-1C499.2,519.8,497.7,520.9,496,521.8
		z"/>
	<path class="st2" d="M479.6,482.8h-7.4c1.1,0.6,2.2,1.2,3.5,1.6C477.1,483.9,478.4,483.4,479.6,482.8z"/>
	<rect x="526.1" y="504.3" class="st2" width="6.4" height="2.1"/>
	<path class="st2" d="M526.1,514.3v6.6c1.1-0.3,2.2-0.6,3.4-0.9c-1-1.5-1.8-3.4-2.3-5.7H526.1z"/>
	<rect x="445.7" y="480.2" class="st2" width="8.9" height="1.6"/>
	<rect x="543.9" y="505.2" class="st2" width="12.4" height="0.9"/>
	<rect x="543.9" y="502.8" class="st2" width="12.4" height="0.9"/>
	<rect x="576.8" y="506.8" class="st2" width="5.1" height="2.1"/>
	<rect x="576.8" y="511.5" class="st2" width="5.1" height="2.1"/>
	<rect x="543.7" y="515.9" class="st2" width="4.8" height="1.1"/>
	<rect x="551.7" y="513.2" class="st2" width="4.9" height="1.1"/>
	<rect x="551.7" y="515.9" class="st2" width="4.9" height="1.1"/>
	<rect x="568.4" y="511.5" class="st2" width="5.1" height="2.1"/>
	<rect x="543.7" y="513.2" class="st2" width="4.8" height="1.1"/>
	<rect x="517.7" y="479.9" class="st2" width="3.3" height="4.5"/>
	<rect x="604.3" y="515.9" class="st2" width="3.4" height="4.5"/>
	<rect x="529.3" y="479.9" class="st2" width="3.4" height="4.5"/>
	<rect x="568.4" y="506.8" class="st2" width="5.1" height="2.1"/>
	<rect x="520.1" y="468.3" class="st2" width="10.1" height="3.3"/>
	<path class="st2" d="M553.5,468c-1.2,1.8-2.5,3.5-3.9,5.1h8.1C556,471.6,554.7,469.9,553.5,468z"/>
	<rect x="592.7" y="515.9" class="st2" width="3.3" height="4.5"/>
	<rect x="595.1" y="504.3" class="st2" width="10.1" height="3.3"/>
	<rect x="72.1" y="239.2" class="st2" width="3.1" height="5"/>
	<path class="st2" d="M104,250.5c-0.6,0.6-1.4,1.3-2.2,1.9v2.6c0.9-0.2,2.4-0.5,4.5-1.1C105.5,252.8,104.7,251.7,104,250.5z"/>
	<rect x="127.9" y="250.3" class="st2" width="4.1" height="2.1"/>
	<path class="st2" d="M117.8,275.3h-1.7v6.3h1.7c2.3,0,3.5-1.1,3.5-3.2C121.3,276.4,120.1,275.3,117.8,275.3z"/>
	<rect x="72.1" y="247.5" class="st2" width="3.1" height="5"/>
	<rect x="136.4" y="288.2" class="st2" width="5" height="1.5"/>
	<path class="st2" d="M151.2,179.2c-0.3-2.6-0.6-7-0.6-7h-0.1c0,0-0.3,4.5-0.6,7l-1.2,10.8h3.8L151.2,179.2z"/>
	<path class="st2" d="M334.7,245.7L179.7,71.2L27.3,245.7l152.5,174.5L334.7,245.7z M198,295.1c-0.2-0.8-0.5-1.6-0.7-2.3l-11.8,1.4
		l-0.4-3.3l5.9-0.5v-4.7h-2.3v0.8h-3v-12h5.2v-4.4h3.2v4.4h5.2v11.2h-5.2v4.4l2.2-0.2c-0.3-0.8-0.5-1.6-0.8-2.3l2.7-0.8
		c0.9,2.2,1.7,4.7,2.5,7.5L198,295.1z M191.1,237.6v2.9l-1,4.9l-2.8-0.6l0.9-4.1h-4.5c-0.5,1.7-1,3.2-1.5,4.4c-1-0.6-1.9-1-2.7-1.4
		c1.2-2.7,2.1-5.9,2.8-9.7l2.9,0.6c-0.2,1-0.5,2-0.7,3H191.1z M182.3,250.8c0.8-2,1.2-4.7,1.2-7.9h2.9c0,1.1-0.1,2.1-0.1,3
		c0.6,4.7,2.4,7.9,5.3,9.8c-0.5,0.8-1.1,1.9-1.8,3.4c-2.3-1.9-3.9-4.3-4.8-7.4c-0.7,2.7-2.3,5.2-4.8,7.6c-0.7-1-1.4-2-2.1-2.9
		C180.1,254.7,181.5,252.8,182.3,250.8z M223.1,293.6c-2-1.7-3.7-4.4-5.1-8.2l-1,0.5c0.4,1.3,0.6,2.6,0.6,3.9c0,1.1-0.1,2-0.3,2.7
		c-0.2,0.7-0.6,1.2-1,1.7c-0.5,0.4-1,0.7-1.6,0.8c-0.6,0.1-2.1,0.2-4.5,0.2c-0.2-1.2-0.5-2.2-0.8-3.1c-1.6,0.9-3.5,1.7-5.4,2.4
		c-0.5-1-1.2-2-1.9-3c4.7-1.2,8.5-3,11.4-5.5c-0.1-0.3-0.3-0.7-0.4-1c-2.6,1.9-5.6,3.4-8.9,4.4l-1.6-2.6c3.8-0.8,6.9-2.1,9.3-3.7
		c-0.2-0.3-0.4-0.5-0.6-0.8c-2.1,1.1-4.5,1.9-7.1,2.6c-0.5-0.9-1-1.8-1.6-2.6c3.2-0.6,6-1.5,8.2-2.7H207v-2.8h13.8v2.8h-5.2
		c-0.5,0.4-1,0.7-1.5,1.1c0.7,0.9,1.3,1.7,1.8,2.6c2.7-1.3,4.9-2.6,6.6-3.7l1.9,2.8l-3.8,1.9c1.1,2.9,2.8,5.1,5.2,6.6
		C224.8,291.8,223.9,292.7,223.1,293.6z M211.4,270.5l4.1-0.6c0.2,0.7,0.4,1.4,0.7,2.3h8.9v6.4h-3.3v-3.5h-15.6v3.5h-3.3v-6.4h9.2
		C211.8,271.6,211.6,271,211.4,270.5z M248.7,290.6c-0.6-0.7-1.2-1.5-1.8-2.3v2.6h-4v4.3h-3.1v-4.3H236v-2.7c-0.6,1-1.3,1.9-2,2.8
		c-0.5-0.8-1-1.8-1.7-2.9v7h-2.9v-11.2c-0.5,1-1,1.9-1.6,2.7c-0.2-1.5-0.4-3.1-0.8-4.8c1.3-2.5,2.5-6.4,3.9-11.7l3.1,0.8
		c-0.5,2.2-1.1,4.2-1.7,6.1v10.3c2.5-2.8,4.4-6.1,5.7-9.9h-4.3v-3.2h6.2v-4.1h3.1v4.1h6.9v3.2h-5.1c1.2,3.6,3.2,6.8,6.1,9.5
		C250.1,288.1,249.4,289.3,248.7,290.6z M252,286.8c1.7-0.2,3.6-0.4,5.5-0.7c0,1.1,0,2.1,0,3c-1.8,0.2-3.5,0.5-5.2,0.8L252,286.8z
		 M260.9,290.9c-0.1,2-0.8,3.2-2.2,3.6c-0.7,0.1-2.2,0.2-4.5,0.2c-0.1-1.2-0.3-2.4-0.5-3.4c1,0.1,2,0.2,3.2,0.2
		c0.8,0,1.2-0.4,1.3-1.2c0.1-1.1,0.2-3,0.3-5.5h-6l0.8-9.4h2.8l-0.6,6.3h1.7l0.5-7.1h-5.2v-3h8.3l-0.8,10.1h1.4
		C261.2,286.5,261,289.6,260.9,290.9z M275.4,294.3h-13.9v-3h8.1c0.9-3.1,1.6-6,2.1-8.9l3,0.8c-0.6,2.6-1.4,5.3-2.2,8.1h3V294.3z
		 M266.4,289.7l-2.6,1c-0.5-1.9-1.2-4.2-2.1-6.8l2.4-1C264.9,285,265.7,287.3,266.4,289.7z M266,282.5l2.5-0.6
		c0.6,2.3,1,4.6,1.5,6.8l-2.6,0.7C267,287.2,266.6,284.9,266,282.5z M273.9,234.1h3.2v6.8c1.6-1.8,2.9-4.1,4.1-6.8h3.3
		c-0.3,0.7-0.5,1.3-0.8,1.9h7.3v2.9h-5.3c1.2,1.2,2.3,2.3,3.3,3.4l-2.6,2c-1-1.4-2.1-2.8-3.3-4.2l1.5-1.2h-2.3
		c-1,1.8-2.1,3.3-3.3,4.6c-0.7-1-1.3-1.7-2-2.3v2.6h-3.2V234.1z M273.5,247.7v6.2h-3.2v-9.3H288v8.7h-3.2v-5.6H273.5z M269.2,234.8
		h2.8v8.9h-2.8V234.8z M275.5,253.9c1.3-0.8,2-2.5,2.4-5.2h3.4c-0.2,0.9-0.4,1.6-0.6,2.4h1.3v2.7c0,1,0.5,1.5,1.5,1.5h2.7
		c0.6,0,1-0.1,1.3-0.3c0.3-0.2,0.5-0.4,0.6-0.7s0.2-1.5,0.5-3.4c0.8,0.4,1.8,0.8,3,1.3c-0.3,2.3-0.6,3.8-0.8,4.4
		c-0.2,0.6-0.6,1.1-1.2,1.4c-0.6,0.3-1.3,0.5-2.2,0.5h-4.9c-2.4,0-3.6-1.2-3.6-3.5c-1.7,2.3-4.8,3.7-9.4,4.1
		c-0.7-1.4-1.2-2.5-1.6-3.2C271.9,255.5,274.4,254.9,275.5,253.9z M270.3,270.3l-0.5,0.9c1.9,2.9,3.9,5,6.3,6.4
		c-0.6,0.9-1.1,2-1.6,3.1c-0.5-0.4-1.1-0.8-1.5-1.2v1.4h-9.1v-1.4c-0.6,0.5-1.1,1.1-1.7,1.6c-0.5-1-1-2.1-1.5-3.2
		c2.6-2,4.6-4.6,6.2-7.7H270.3z M264.3,259.4c-1.4-1.5-3-2.9-4.9-4.4c-1,1.5-2.9,3-5.5,4.5c-0.7-1.1-1.3-2.1-2-3
		c2.8-1.3,4.6-2.8,5.3-4.3c0.6-1.3,0.9-3.4,0.9-6.3v-0.7h3v0.7c0,2.6-0.2,4.7-0.6,6.3c2.2,1.6,4.1,3.2,6,4.8L264.3,259.4z
		 M253.2,235.3H266v3.1h-5.1l-0.5,2.2h5.1v12.2h-3.1v-9h-5.8v9h-3.1v-12.2h3.7l0.4-2.2h-4.6V235.3z M242.7,243.6h3.3
		c-1-0.8-2-1.5-2.9-2.1l1.7-2.3c0.8,0.7,1.7,1.5,2.5,2.2l2-3h-6.2v-3h9.4v3.2l-3.2,4.9h3.5l-0.8,8.4h-2.1l0.5-5.3h-1.6v9.2
		c0,1.9-0.9,3-2.6,3.1c-0.6,0.1-1.4,0.1-2.6,0.1c-0.2-1-0.4-2.1-0.6-3.3c0.5,0,1,0.1,1.5,0.1c0.9,0,1.3-0.5,1.3-1.5v-7.7h-3V243.6z
		 M238.9,257.6c-2-1.7-3.7-4.4-5.1-8.2l-1,0.5c0.4,1.3,0.6,2.6,0.6,3.9c0,1.1-0.1,2-0.3,2.7c-0.2,0.7-0.6,1.2-1,1.7
		c-0.5,0.4-1,0.7-1.6,0.8c-0.6,0.1-2.1,0.2-4.5,0.2c-0.2-1.2-0.5-2.2-0.8-3.1c-1.6,0.9-3.5,1.7-5.4,2.4c-0.5-1-1.2-2-1.9-3
		c4.7-1.2,8.5-3,11.4-5.5c-0.1-0.3-0.3-0.7-0.4-1c-2.6,1.9-5.6,3.4-8.9,4.4l-1.6-2.6c3.8-0.8,6.9-2.1,9.3-3.7
		c-0.2-0.3-0.4-0.5-0.6-0.8c-2.1,1.1-4.5,1.9-7.1,2.6c-0.5-0.9-1-1.8-1.6-2.6c3.2-0.6,6-1.5,8.2-2.7h-3.9v-2.8h13.8v2.8h-5.2
		c-0.5,0.4-1,0.7-1.5,1.1c0.7,0.9,1.3,1.7,1.8,2.6c2.7-1.3,4.9-2.6,6.6-3.7l1.9,2.8l-3.8,1.9c1.1,2.9,2.8,5.1,5.2,6.6
		C240.5,255.8,239.7,256.7,238.9,257.6z M231.9,236.3h8.9v6.4h-3.3v-3.5h-15.6v3.5h-3.3v-6.4h9.2c-0.2-0.7-0.5-1.3-0.7-1.8l4.1-0.6
		C231.4,234.7,231.6,235.4,231.9,236.3z M211.7,167.2h5l6.8,27h0.1c0,0-0.5-4.4-0.5-7.7v-19.3h4.1v35.9h-5l-6.8-27h-0.1
		c0,0,0.6,4.2,0.6,7.7v19.3h-4.1V167.2z M206.7,234.2h3.2v4.4h5.2v11.2h-5.2v4.4l2.2-0.2c-0.3-0.8-0.5-1.6-0.8-2.3l2.7-0.8
		c0.9,2.2,1.7,4.7,2.5,7.5l-2.8,0.9c-0.2-0.8-0.5-1.6-0.7-2.3l-11.8,1.4l-0.4-3.3l5.9-0.5v-4.7h-2.3v0.8h-3v-12h5.2V234.2z
		 M201.3,167.2h4.4v35.9h-4.4V167.2z M202.1,237c-1,1.2-2,2.4-3.1,3.6c1.1,2.9,1.6,6.2,1.6,10.1c0,2.7-0.2,4.6-0.5,5.5
		s-0.9,1.6-1.7,2c-0.8,0.4-2.3,0.5-4.4,0.4c-0.1-0.8-0.2-1.9-0.5-3.3c1.1,0.2,1.9,0.2,2.3,0.2c0.4,0,0.8-0.1,1-0.3
		c0.3-0.2,0.4-0.5,0.5-0.9c0.1-0.4,0.1-1.1,0.1-2.2c0-1,0-2-0.1-2.9c-0.9,1.3-2,2.5-3.3,3.7c-0.3-0.6-0.8-1.6-1.5-3
		c1.6-1.3,3-2.9,4.2-4.7c-0.1-0.7-0.3-1.4-0.5-2c-0.6,0.5-1.2,1.1-1.9,1.6c-0.7-1.2-1.3-2.1-1.8-2.8c0.8-0.6,1.6-1.3,2.5-2.1
		c-0.6-1.3-1.3-2.5-2.2-3.5l2.2-1.9c0.9,0.9,1.7,1.9,2.3,3.1c0.8-0.8,1.6-1.7,2.3-2.7L202.1,237z M185.8,167.2l3,22.5
		c0.4,2.6,0.6,7,0.6,7h0.1c0,0,0.3-4.5,0.6-7l3-22.5h4.4l-5.5,35.9h-5.1l-5.5-35.9H185.8z M180.2,235.8v2.7h-4.5v1.6h3.5v2.7h-10.9
		v-2.7h4.2v-1.6h-4.6v-2.7h4.6V234h3.1v1.8H180.2z M179.2,244.1v2.7h-10.6v-2.7H179.2z M162.2,167.2h5l6.8,27h0.1
		c0,0-0.5-4.4-0.5-7.7v-19.3h4.1v35.9h-5l-6.8-27h-0.1c0,0,0.6,4.2,0.6,7.7v19.3h-4.1V167.2z M156.4,276v1.9h-3.3v-5h9.2l-0.7-2
		l3.6-0.9c0.3,0.9,0.7,1.9,1,2.9h8.6v5h-3.3V276H156.4z M165,247.9c-3.4-1-6.3-2.6-8.8-5v3.5h-3.1v-3.3c-1.7,1.5-3.4,2.7-5.3,3.6
		H161l-0.7,3.8h4.2c-0.1,2.4-0.2,4.1-0.3,5c-0.1,0.9-0.4,1.6-1,2.1s-1.3,0.8-2.1,0.9c-0.9,0.1-2.5,0.2-4.8,0.1
		c-0.2-1.3-0.4-2.4-0.6-3.3c1.1,0.1,2.1,0.1,3,0.1c1,0,1.6-0.1,1.9-0.4c0.3-0.3,0.4-0.9,0.4-2h-4.4l0.8-3.8h-4.4
		c-0.4,4.7-2.9,8.1-7.5,10c-0.8-1.1-1.6-2.1-2.3-3c4-1.4,6.2-3.7,6.7-7h-3.6v-1.8c-0.6,0.3-1.3,0.5-2,0.7l-1.5-3.1
		c2.5-0.6,5.1-1.6,7.7-3h-6.8v-2.5h9.5v-1.7c-2.7,0.1-5.3,0.1-8.1,0.1c-0.1-0.8-0.3-1.7-0.6-2.7c7.1,0,13.7-0.2,19.6-0.6l0.5,2.7
		c-2.8,0.2-5.6,0.3-8.4,0.4v1.8h9.6v2.5h-6.9c2.4,1.2,4.9,2.1,7.6,2.5C166,245.8,165.5,246.9,165,247.9z M147.7,167.2h5.8l5.1,35.9
		h-4.5l-1.1-9.2h-5l-1.1,9.2h-4.5L147.7,167.2z M129.9,167.2h4.4v31.7h6.6v4.2h-11.1V167.2z M119.8,246.2v-11.1h20.4v18.7
		c0,1.6-0.3,2.9-0.9,3.7s-1.5,1.3-2.6,1.3c-1.1,0-2.4,0.1-3.8,0c-0.2-1.2-0.5-2.4-0.7-3.4c0.7,0.1,1.5,0.1,2.5,0.1
		c1.1,0,1.8-0.2,2-0.6s0.3-0.9,0.3-1.3V238h-5.3v1.8h4.1v2.4h-4.1v1.7h4.7v2.5h-12.5V244h4.7v-1.7h-4.1v-2.4h4.1V238h-5.4v8.5
		c0,5.5-0.9,9.8-2.8,12.8c-0.9-0.9-1.8-1.7-2.7-2.4C119.1,254.6,119.8,251,119.8,246.2z M127.9,254.8v1.2h-3v-8.1h10.2v6.8H127.9z
		 M102.5,236.8h5.2v-2.7h3.2v2.7h5.1v2.8h-5.1v2.1h4.6v2.8h-12.3v-2.8h4.5v-2.1h-5.2V236.8z M95.5,234.7c0.7,0.7,1.8,1.7,3.1,3
		l-2.3,2.1c-1.2-1.4-2.1-2.5-2.9-3.3L95.5,234.7z M98.9,239.6v-5.5h3.1v11.2h-3.1v-2.2c-1.7,0.7-3.4,1.5-5.1,2.3l-1-3.3
		C95,241.2,97,240.4,98.9,239.6z M101.3,249.3H93v-2.8h10.2c-0.1-0.4-0.2-0.7-0.3-1l3.3-0.5l0.4,1.5h9.7v2.8h-3.2l1.6,2.7
		c-1,0.5-2.2,1-3.7,1.6c1.5,0.7,3.2,1.3,5.3,1.7c-0.9,1.3-1.7,2.4-2.2,3.3c-3.2-1.1-5.7-2.5-7.4-4.3c-0.1,1.2-0.2,2.2-0.2,2.9
		c-3.9,0.7-6.4,1.3-7.4,1.9l-1.5-2.8c0.6-0.5,0.9-1,1-1.6v-0.5c-1.3,0.8-2.8,1.5-4.5,2.3c-0.4-1.1-0.9-2.1-1.5-3.2
		C96.2,252.3,99,250.9,101.3,249.3z M78.3,257.6h-3.1v-1.8h-3.1v1.9h-3.1v-21.9h9.4V257.6z M80.6,255.2c2.3,0.1,3.5,0.1,3.7,0.1
		c1.2,0,1.7-0.6,1.7-1.9v-11.5H79v-3.4h7.1v-4.3h3.4v4.3h2v3.4h-2v12.6c0,1.4-0.3,2.5-0.9,3.2s-1.4,1.1-2.5,1.2
		c-1.1,0-2.6,0.1-4.7,0.1C81.2,257.3,80.9,256.1,80.6,255.2z M78.6,245l2.5-1.8c1.1,1.4,2.5,3.5,4.3,6.1l-2.9,2
		C81.1,248.8,79.8,246.7,78.6,245z M94.1,291.7h-4.4l-6.3-19.7h4.2l4,13.9c0.2,0.7,0.3,1.3,0.4,1.9H92c0.1-0.6,0.2-1.3,0.4-2l4-13.8
		h4.1L94.1,291.7z M108.9,275.3h-1.6v13.1h1.6v3.3h-7.1v-3.3h1.6v-13.1h-1.6v-3.3h7.1V275.3z M123.3,283.1c-1.4,1.2-3.1,1.8-5.2,1.7
		h-2v6.9h-3.9v-19.7h6.3c4.6,0,6.9,2.1,6.9,6.2C125.4,280.3,124.7,281.9,123.3,283.1z M136.4,292.6h-2.9v-6.5h10.7v5.8h-7.9V292.6z
		 M149.5,290.8c0,1.2-0.2,2.1-0.7,2.8s-1,1.1-1.8,1.2c-0.7,0.1-2.3,0.2-4.6,0.2c-0.2-1-0.4-2-0.6-3c0.9,0.1,1.9,0.1,2.9,0.1
		c1.1,0,1.6-0.5,1.6-1.6V285h-14.9v10h-3.1v-12.5h21.2V290.8z M130.6,281.4v-5.7h16.6v5.7H130.6z M150.6,274.6h-23.4V272h9.9
		c-0.2-0.6-0.4-1.1-0.6-1.5l3.8-0.6c0.3,0.8,0.5,1.5,0.8,2.2h9.5V274.6z M174.7,294.5c-5.7,0-9.8-0.1-12.3-0.3
		c-2.6-0.2-4.4-1.3-5.4-3.4c-0.8,1.7-1.8,3.2-3,4.4c-0.7-1.1-1.4-2.1-2-2.9c2-2.1,3.3-5.2,3.8-9.2l3.2,0.4c-0.2,1.3-0.5,2.5-0.8,3.7
		c0.8,2.2,2.2,3.5,4.3,3.8v-9.1h-9.9v-3.1h22.5v3.1H166v2.7h8v3.1h-8v3.4c2.6,0.1,5.9,0,9.8-0.1C175.3,292.5,175,293.7,174.7,294.5z
		 M176,256.1c0,0.8-0.1,1.4-0.4,1.9c-0.3,0.5-0.7,0.8-1.2,0.9c-0.5,0.1-1.8,0.2-3.7,0.2c-0.1-0.5-0.2-1-0.3-1.5l-2.6-1
		c0.6-1.5,1.1-3.3,1.5-5.4l2.7,0.8c-0.3,1.4-0.7,2.7-1.1,3.9c1,0.1,1.6,0,1.8-0.2s0.3-0.4,0.3-0.7v-4.1h-5v-2.7h12.4v2.7H176V256.1z
		 M178.2,251c0.8,1,1.5,1.9,2.2,2.8l-2.1,1.8c-0.6-0.9-1.3-1.9-2.1-2.9L178.2,251z M177.8,291.3c1.1,0.2,1.9,0.2,2.3,0.2
		c0.4,0,0.8-0.1,1-0.3c0.3-0.2,0.4-0.5,0.5-0.9c0.1-0.4,0.1-1.1,0.1-2.2c0-1,0-2-0.1-2.9c-0.9,1.3-2,2.5-3.3,3.7
		c-0.3-0.6-0.8-1.6-1.5-3c1.6-1.3,3-2.9,4.2-4.7c-0.1-0.7-0.3-1.4-0.5-2c-0.6,0.5-1.2,1.1-1.9,1.6c-0.7-1.2-1.3-2.1-1.8-2.8
		c0.8-0.6,1.6-1.3,2.5-2.1c-0.6-1.3-1.3-2.5-2.2-3.5l2.2-1.9c0.9,0.9,1.7,1.9,2.3,3.1c0.8-0.8,1.6-1.7,2.3-2.7l2.3,2.2
		c-1,1.2-2,2.4-3.1,3.6c1.1,2.9,1.6,6.2,1.6,10.1c0,2.7-0.2,4.6-0.5,5.5c-0.3,0.9-0.9,1.6-1.7,2c-0.8,0.4-2.3,0.5-4.4,0.4
		C178.2,293.8,178.1,292.7,177.8,291.3z"/>
	<rect x="133.8" y="277.9" class="st2" width="10.2" height="1.3"/>
	<path class="st2" d="M113,249.3h-6.4c0.6,1,1.3,1.8,2,2.5C110.3,250.9,111.8,250,113,249.3z"/>
	<path class="st2" d="M209.7,291.8c1,0.1,1.8,0.2,2.4,0.2c1.4,0,2.2-0.8,2.2-2.3c0-0.3,0-0.6-0.1-1
		C212.9,289.8,211.4,290.8,209.7,291.8z"/>
	<rect x="204.5" y="241.8" class="st2" width="2.3" height="4.7"/>
	<rect x="188.7" y="277.8" class="st2" width="2.3" height="4.7"/>
	<rect x="194.2" y="277.8" class="st2" width="2.2" height="4.7"/>
	<path class="st2" d="M239.8,287.7v-8.8c-0.8,3.2-1.9,6.2-3.5,8.8H239.8z"/>
	<path class="st2" d="M242.9,287.7h3.6c-1.4-2.4-2.6-5.2-3.6-8.7V287.7z"/>
	<rect x="209.9" y="241.8" class="st2" width="2.2" height="4.7"/>
	<path class="st2" d="M225.5,255.8c1,0.1,1.8,0.2,2.4,0.2c1.4,0,2.2-0.8,2.2-2.3c0-0.3,0-0.6-0.1-1
		C228.7,253.8,227.2,254.8,225.5,255.8z"/>
	<path class="st2" d="M268.1,274.1c-0.7,1.2-1.7,2.5-2.9,3.9h6C270,276.7,269,275.4,268.1,274.1z"/>
	<path class="st2" d="M73.3,720h3.5v0h124l0.7-0.1c0,0,0,0.1,0,0.1h107.7l27-30.4L124.4,451.1L0,593.5V720L73.3,720L73.3,720z
		 M87.8,708.9c-1.2-0.4-2.3-0.7-3.3-1c0.8-2.9,1.5-6.2,2.2-10c1.3,0.5,2.3,0.9,3.2,1.1L87.8,708.9z M88,697c-1-1-2.2-2.2-3.7-3.5
		l2.1-2.4c1.5,1.1,2.8,2.2,3.9,3.3L88,697z M88.4,690.2c-1.4-1.5-2.6-2.7-3.7-3.6l2-2.3c1.2,0.9,2.5,2,3.9,3.3L88.4,690.2z
		 M92.1,663.4v-10.7h5.6c0.1-0.4,0.3-0.8,0.4-1.2h-8.5v-2.5H112v2.5h-10.2l-0.5,1.2h8.8v10.7H97.8c-0.3,0.4-0.6,0.8-0.9,1.1h13v2.3
		c-1.2,1-2.7,1.9-4.3,2.7c2,0.3,4.2,0.4,6.6,0.4c-0.5,1.1-0.9,2.2-1.2,3.1c-3.6-0.4-6.8-1-9.5-1.9c-3,1-6.5,1.7-10.5,2.2
		c-0.4-1-0.8-2-1.2-2.9c2.9-0.2,5.5-0.5,7.8-0.9c-1.3-0.7-2.4-1.4-3.3-2.3c-1,0.9-2.2,1.7-3.4,2.5c-0.5-0.7-1.1-1.5-1.8-2.3
		c2.2-1.2,3.9-2.5,5.2-3.9H92.1z M93,684.5c1.3,1.4,2.5,2.7,3.6,4l-2.5,2c-1-1.3-2.1-2.7-3.4-4.1L93,684.5z M106.8,705.3
		c0,1-0.2,1.8-0.7,2.4c-0.5,0.6-1.1,0.9-2,1c-0.9,0.1-2.5,0.2-4.7,0.1c-0.2-1.1-0.5-2.3-0.9-3.4c1.3,0.1,2.4,0.1,3.3,0.1
		c1.1,0,1.6-0.5,1.6-1.6v-0.4h-8.6v5.2h-3.4v-17.8h6v-7h3.3v7h6V705.3z M103.8,690.8l-2.2-2c1.2-1.3,2.4-2.7,3.5-4.2l2.6,2
		C106.3,688.1,105.1,689.5,103.8,690.8z M110.5,695.6l0.9-6.1h5.5c0-0.4,0-0.9,0-1.4h-6.4v-2.3h6.4V684h3v1.7h3V684h3v1.7h5.6v6.1
		h-5.6v1.4h6.5c0,1.3-0.1,2.5-0.2,3.4c-0.1,0.9-0.3,1.6-0.7,2.1c-0.4,0.4-1,0.7-1.8,0.7v4.6h-3v-3.9h-10.6v4.4h-3v-4.3
		c-0.7,0.3-1.5,0.6-2.3,0.9c-0.4-0.8-0.9-1.7-1.5-2.7c2.9-0.8,4.8-1.7,5.9-3H110.5z M131.1,709.3c-2.9-1.2-6.2-2.4-9.7-3.6
		c-1.4,1.9-4.7,3-9.9,3.5c-0.3-0.9-0.8-1.9-1.3-3c3.4-0.2,5.9-0.6,7.4-1.3c1.5-0.7,2.3-2,2.3-4.1h3c-0.1,0.9-0.2,1.8-0.4,2.5
		c2.9,0.9,6.3,1.9,10,3.2L131.1,709.3z M138,709.1c-1.1-0.4-2.1-0.8-3.1-1c0.8-3,1.6-6.2,2.3-9.7c1.3,0.6,2.3,1,3.1,1.2L138,709.1z
		 M134.3,693.4l2-2.4c1.2,0.9,2.5,2,3.8,3.2l-2.1,2.7C136.6,695.7,135.4,694.5,134.3,693.4z M157.8,693.4h-4.9v2.1h4.2v10.1
		c0,1-0.2,1.7-0.6,2.2c-0.4,0.5-1,0.8-1.6,0.9c-0.7,0.1-2.1,0.1-4.2,0.2c-0.2-0.9-0.4-1.7-0.7-2.5l-2.5-1.6c0.7-0.8,1.3-1.7,1.8-2.8
		l-1.2,1.1c-0.3-0.4-0.5-0.7-0.8-1.1c-0.5,1.4-1.2,2.8-2.2,4.3c-0.2-0.2-0.6-0.6-1.3-1.1v3.8h-3v-13.5h4.4v-2.1h-5.2v-2.6h17.7
		V693.4z M157.9,688.9H154v1.6h-3.1v-1.6h-3.8v1.6H144v-1.6h-3.9v-1l-1.9,2.1c-1-1.1-2.2-2.2-3.5-3.4l2-2.3c1,0.8,2.1,1.7,3.4,2.9
		v-0.9h3.9v-2.1h3.1v2.1h3.8v-2.1h3.1v2.1h3.9V688.9z M150,660.8v11.9h-3.3v-1.2h-3.3v1.2H140v-11.9H150z M142.3,658.9v-9.7h17.1
		v9.7H142.3z M155,671.5v1.2h-3.3v-11.9h9.9v11.9h-3.3v-1.2H155z M163.2,684.5l3.3-0.5l0.7,2.2h3.5V685h12v3h-4.9
		c-0.1,0.8-0.2,1.5-0.3,2.2h4.5v13h-2.8v-10.1H174v10.1h-2.8v-13h3.2c0.1-0.7,0.2-1.4,0.3-2.2h-3.9v2.1h-2.5v-1.4h-6.1v1.8h-2.5
		v-4.3h4C163.6,685.7,163.4,685.1,163.2,684.5z M181.3,709.3c-1.3-1.2-2.8-2.6-4.6-4c-1,1.7-2.8,3.1-5.3,4c-0.5-0.9-1-1.6-1.5-2.3
		v1.6h-2.8v-0.8h-3.3v1H161v-8.1c-0.2,0.1-0.5,0.1-0.7,0.2c-0.3-0.9-0.6-1.8-1-2.5c1.6-0.5,3-1,4.1-1.8l-1.2-0.6l1.4-2l1.9,0.9
		c0.6-0.6,1.1-1.3,1.5-2h-3.1c-0.6,1-1.3,2-2.1,2.9c-0.5-0.4-1.3-0.9-2.2-1.4c1.7-1.8,2.9-3.7,3.5-5.7l2.5,1
		c-0.1,0.3-0.2,0.5-0.3,0.7h4.9v2.4c-0.6,1.2-1.3,2.4-2.1,3.3c1,0.6,2.1,1.2,3.2,1.8l-1.3,2.5l0,0v6.2c2.2-0.8,3.6-1.8,4.4-3
		c0.7-1.2,1.1-3.1,1.1-5.8V694h2.8v4.1c0,1.6-0.1,3-0.4,4.2c2,1.4,3.7,2.7,5.3,3.9L181.3,709.3z M192.3,708.3
		c-0.9-1.5-1.8-3-2.8-4.6c-0.7,2.1-1.9,4-3.5,5.6c-0.3-0.7-0.9-1.7-1.7-3c2.8-2.4,4.2-5.1,4.2-8.3v-8.7h1.9v8.7
		c0,0.9-0.1,1.8-0.2,2.7l4.5,5.4L192.3,708.3z M187.6,688.1v13h-2.3v-15.8h8.3V701h-2.3v-12.9H187.6z M206.6,709.2h-2.8v-1h-6v1H195
		v-11.4h11.6V709.2z M207.3,696.8h-13v-10h2.5l-1.1-1.8l2.6-1l1.4,2.7h2.1l1.2-2.8l2.8,0.9l-1.2,1.9h2.6V696.8z M220,701.4
		c-1-1-1.9-1.8-2.6-2.5v10.2h-3.2v-9.2c-1.1,1.3-2.4,2.5-3.8,3.8c-0.4-1.6-0.7-3-1.1-4.2c3.2-2.8,5.4-5.4,6.8-7.7h-5.8v-3.4h4.7
		c-0.6-1-1.2-2-1.8-2.9l2.8-1.5c0.5,0.7,1.2,1.8,2.2,3.2l-2.1,1.2h4v3.1c-0.7,1.4-1.6,2.9-2.6,4.4v1.4l1-1.3
		c1.1,0.8,2.3,1.7,3.7,2.8L220,701.4z M227.1,705.5h0.6c0.8,0,1.3-0.4,1.5-1.1c0.3-1.6,0.5-3.2,0.6-4.8c0.9,0.5,2,0.9,3.3,1.4
		c-0.3,2.2-0.7,3.9-1.1,5.3c-0.4,1.5-1.7,2.3-3.7,2.3h-2.5c-2.2,0-3.3-1.2-3.3-3.5v-20.6h3.3v19.7
		C225.9,705,226.3,705.5,227.1,705.5z M202,591.3h4.2v1.8c0.5-1.3,2.2-2.2,3.7-2.2c2.5,0,3.8,0.9,4.6,2.7c0.8-1.7,2.4-2.7,4.6-2.7
		c4.2,0,5.7,2.8,5.7,7.7v21.1h-4.4v-20.8c0-2.5-0.8-3.7-2.4-3.7c-1.5,0-2.4,1.2-2.4,3.7v20.8h-4.4v-20.8c0-2.5-0.8-3.7-2.4-3.7
		c-1.5,0-2.4,1.2-2.4,3.7v20.8H202V591.3z M203,652.1c-2.5,0.4-6.1,0.8-10.7,1.2v4h11v3.2h-3.5V673h-3.2v-12.6h-4.3v0.2
		c0,5.4-1.1,9.6-3.3,12.7c-0.7-1-1.6-2-2.5-2.9c1.7-2.2,2.6-5.7,2.6-10.5v-9.8c4.5-0.1,8.8-0.5,12.9-1.4L203,652.1z M193.9,581.6
		h4.4v5.6h-4.4V581.6z M193.9,591.3h4.4v28.3h-4.4V591.3z M180.7,583.8h4.4v31.7h6.6v4.2h-11.1V583.8z M179.8,655.9v-3.2h2.6v-4.3
		h3.2v4.3h2.4v3.2h-2.4v3.9l2.8-0.5c0,0.2-0.2,1.3-0.3,3.5l-2.5,0.5v6.5c0,1-0.2,1.7-0.6,2.3s-1,0.9-1.9,0.9
		c-0.9,0.1-1.8,0.1-2.7,0.1c-0.2-1-0.4-2.1-0.6-3.4l1.8,0.1c0.5,0,0.8-0.4,0.8-1.1v-4.7l-2.5,0.5l-0.2-3.7c0.8-0.1,1.7-0.2,2.7-0.4
		v-4.5H179.8z M175.5,651.1c1.1,0.9,1.7,2.1,1.7,3.6c0,2.1-1.2,3.7-3.5,4.8v0c1.3,0.4,2.2,1,2.9,1.9s1,1.9,1,3.1
		c0,1.8-0.6,3.2-1.8,4.1c-1.2,1-2.9,1.5-4.9,1.5c-1.8,0-3.3-0.5-4.4-1.4c-1.2-1-1.7-2.3-1.7-3.9c0-2.4,1.3-4.1,3.8-5.2v-0.1
		c-2.1-0.9-3.2-2.4-3.2-4.5c0-1.6,0.6-2.8,1.7-3.8s2.6-1.4,4.3-1.4C173,649.8,174.4,650.2,175.5,651.1z M154.3,591.3h4.2v1.9
		c0.5-1.4,2.3-2.3,3.9-2.3c4.2,0,6.1,2.8,6.1,7.7v13.8c0,5-2,7.7-6.1,7.7c-1.5,0-3.3-0.9-3.7-2.2v12.2h-4.4V591.3z M146.2,581.6h4.4
		v5.6h-4.4V581.6z M146.2,591.3h4.4v28.3h-4.4V591.3z M138.1,581.6h4.4v38.1h-4.4V581.6z M130,581.6h4.4v38.1H130V581.6z
		 M127.4,650.2c3.6-0.4,6.6-1,8.8-1.9l1.4,3.3c-2.1,0.6-4.5,1-7.1,1.3v3.4h7.1v3.3h-1.8v13.2h-3.1v-13.2h-2.1v1.4
		c0,5.4-1.1,9.4-3.3,12.3c-1.1-1-2.1-1.8-3-2.5c0.9-0.9,1.6-1.9,2.1-3.2l-2.4,1.5c-0.6-1.3-1.2-2.6-1.8-3.8l2.3-1.2
		c0.6,0.8,1.2,2,2,3.5c0.7-1.6,1-3.6,1-6V650.2z M121.9,581.6h4.4v5.6h-4.4V581.6z M121.9,591.3h4.4v28.3h-4.4V591.3z M122.2,650.4
		h4v2.8h-3.3c0.4,0.2,1.3,0.6,2.5,1.2c-0.3,0.4-0.7,1.1-1.2,2h2.5v2.8h-4.6v1.6h4.2v2.8h-4.2v6.1c0,0.8-0.2,1.4-0.5,1.9
		c-0.3,0.5-0.8,0.7-1.3,0.9c-0.6,0.1-1.6,0.2-3.1,0.2c-0.1-1-0.2-2-0.5-2.9l-0.5,1.1c-0.6-0.4-1.5-0.8-2.5-1.3
		c0.8-1.6,1.5-3.5,2.1-5.6l2.7,0.9c-0.4,1.5-0.9,3-1.5,4.4c0.4,0,0.8,0.1,1.2,0.1c0.6,0,0.9-0.4,0.9-1.1v-4.7h-4.5v-2.8h4.5v-1.6
		h-4.9v-2.8h2.6c-0.3-0.7-0.7-1.4-1-2l2.6-1.1c0.6,1.1,1.2,2.2,1.6,3.1h1c0.8-1.4,1.3-2.5,1.6-3.1h-8v-2.8h4.2
		c-0.2-0.6-0.4-1.2-0.6-1.7l3.3-0.6C121.7,648.7,122,649.5,122.2,650.4z M104.4,581.6h4.4v11.5c0.5-1.3,2.1-2.2,3.6-2.2
		c4.2,0,5.9,2.8,5.9,7.7v21.1h-4.4v-20.8c0-2.5-0.9-3.7-2.5-3.7c-1.5,0-2.5,1.2-2.5,3.7v20.8h-4.4V581.6z M87.3,583.8h7.1
		c5.1,0,7.2,3.1,7.2,7.8v6.3c0,4.7-2.1,7.8-7.2,7.8h-2.6v14h-4.4V583.8z M66,587.8c2.3-0.2,4.3-1.2,4.6-4h3.8v35.9h-4.5v-28.3H66
		V587.8z M64.2,657.5h7.1c0.2-0.4,0.5-0.8,0.7-1.3h-6v-2.5h7c0.1-0.4,0.3-0.9,0.4-1.3h-8.2v-2.6h8.7c0.1-0.6,0.2-1.2,0.2-1.8h3.2
		c-0.1,0.6-0.2,1.2-0.3,1.8h9.5v2.6h-9.9l-0.3,1.3h9.4v2.5H75.5c-0.2,0.4-0.4,0.9-0.6,1.3h12.5v2.6h-5.8c1.6,1.7,3.6,2.8,6,3.5
		c-0.8,1.4-1.3,2.5-1.6,3.1c-1-0.4-1.9-0.9-2.7-1.4v8h-3.1v-1h-8.9v1.1h-3.1v-8c-0.7,0.5-1.5,1.1-2.3,1.5c-0.8-1.2-1.4-2.2-2-2.9
		c2.2-1,4-2.3,5.5-3.9h-5.2V657.5z M41.5,608.3h4.4v3.8c0,2.5,1,3.7,2.6,3.7s2.7-1.2,2.7-3.7v-5.3c0-2.3-0.9-3.7-2.7-3.7H46v-4h2.4
		c1.9,0,2.7-1.4,2.7-3.7v-4.2c0-2.5-1-3.7-2.6-3.7s-2.6,1.2-2.6,3.7v3.8h-4.4v-4c0-4.9,2.6-7.8,7-7.8s7.1,2.9,7.1,7.8v3.8
		c0,2.8-1.1,5.2-2.9,6c1.9,0.8,3,3.2,3,5.9v5.5c0,4.9-2.7,7.8-7.2,7.8s-7-2.9-7-7.8V608.3z M57.3,695.4h-8.1v2.3h7.1v11.2h-3.2v-1.6
		h-9v1.6h-3.2v-11.2h5v-7.5h3.3v2.1h8.1V695.4z M57.8,689.9H39.5v5.7c0,6.4-0.8,10.9-2.5,13.7c-0.9-0.9-1.8-1.7-2.8-2.5
		c1.4-2.6,2-6.5,2-11.6v-8.4h9.3c-0.2-0.6-0.5-1.2-0.7-1.8l3.9-1c0.3,0.9,0.7,1.8,1,2.8h8V689.9z M58.9,614h5.2v5.7h-5.2V614z
		 M66.6,702.6c-0.8-1-1.6-1.9-2.5-2.7c3.4-2.2,5.2-5,5.4-8.6H64V709h-3.2v-20.9h8.8c0-1.4,0.1-2.8,0.1-4.1h3.1c0,1.5,0,2.9,0,4.1
		h8.7v16.6c0,1.3-0.3,2.2-0.8,2.9c-0.5,0.7-1.3,1.1-2.4,1.1c-1,0.1-2.5,0.1-4.3,0.1c-0.2-1-0.4-2.1-0.7-3.3c1.1,0.1,2.1,0.1,3.1,0.1
		c0.5,0,0.9,0,1.2-0.1c0.2-0.1,0.4-0.2,0.5-0.5c0.1-0.3,0.2-0.6,0.2-1v-12.6h-5.6c-0.1,1.4-0.2,2.5-0.4,3.5c1.6,1.3,3.6,2.9,5.8,4.8
		l-2.4,2.6c-1.1-1.2-2.6-2.7-4.5-4.5C70.1,699.6,68.6,701.2,66.6,702.6z"/>
	<path class="st2" d="M171,661.1c-1.8,0.8-2.7,1.9-2.7,3.4c0,0.8,0.3,1.4,0.8,1.9c0.6,0.5,1.2,0.7,2,0.7c0.8,0,1.5-0.2,2-0.7
		c0.5-0.5,0.8-1.1,0.8-1.9C174,663,173,661.9,171,661.1z"/>
	<rect x="44.1" y="700.8" class="st2" width="9" height="3.5"/>
	<rect x="71.4" y="664.2" class="st2" width="8.9" height="1.6"/>
	<path class="st2" d="M105.3,666.8h-7.4c1.1,0.6,2.2,1.2,3.5,1.6C102.8,668,104.1,667.4,105.3,666.8z"/>
	<path class="st2" d="M161.4,615.9c1.7,0,2.7-1.2,2.7-3.7v-13.3c0-2.5-1.1-3.7-2.7-3.7s-2.7,1.2-2.7,3.7v13.3
		C158.7,614.6,159.8,615.9,161.4,615.9z"/>
	<path class="st2" d="M97.1,597.6v-5.8c0-2.3-0.9-3.7-2.7-3.7h-2.6v13.2h2.6C96.2,601.3,97.1,599.9,97.1,597.6z"/>
	<path class="st2" d="M78.4,660.1h-5c-0.4,0.6-0.8,1.1-1.3,1.6h7.4C79.1,661.2,78.8,660.7,78.4,660.1z"/>
	<rect x="71.4" y="668.2" class="st2" width="8.9" height="1.6"/>
	<path class="st2" d="M171.2,658c1.5-0.7,2.3-1.7,2.3-2.9c0-0.7-0.2-1.3-0.6-1.7c-0.4-0.4-1-0.6-1.6-0.6c-0.6,0-1.2,0.2-1.6,0.6
		c-0.5,0.4-0.7,1-0.7,1.6C168.9,656.3,169.7,657.3,171.2,658z"/>
	<path class="st2" d="M127.1,697c1.2,0,1.9,0,2-0.1c0.1-0.1,0.2-0.2,0.3-0.5c0.1-0.2,0.1-0.5,0.1-0.9h-3.7v1.9h-3v-1.9h-4.3
		c-0.6,1-1.2,1.8-1.8,2.3h10.5L127.1,697z"/>
	<path class="st2" d="M122.9,691.8h-3.2c-0.1,0.5-0.2,1-0.3,1.4h3.4V691.8z"/>
	<path class="st2" d="M122.9,688h-3c0,0.3,0,0.8,0,1.4h3V688z"/>
	<path class="st2" d="M143.7,703.3c0.9-1.5,1.5-3.4,1.6-5.5h-1.6V703.3z"/>
	<path class="st2" d="M154.3,697.9h-1.4c0,0.7-0.1,1.5-0.2,2.2l1.6,1.7V697.9z"/>
	<rect x="125.9" y="688" class="st2" width="2.8" height="1.4"/>
	<path class="st2" d="M116.7,691.8h-2.8l-0.3,1.4h2.8C116.5,692.8,116.6,692.3,116.7,691.8z"/>
	<rect x="95.1" y="654.9" class="st2" width="11.9" height="0.9"/>
	<path class="st2" d="M201.8,694.2h3v-4.9h-3V694.2z M203.3,689.9l1.4,0.5c-0.4,1-0.9,2.1-1.4,3.2c-0.5-0.3-0.9-0.5-1.3-0.7
		C202.5,691.9,203,690.8,203.3,689.9z"/>
	<rect x="95.1" y="657.6" class="st2" width="11.9" height="0.9"/>
	<rect x="95.1" y="660.3" class="st2" width="11.9" height="0.9"/>
	<rect x="94.8" y="698.7" class="st2" width="8.6" height="1.9"/>
	<rect x="94.8" y="694" class="st2" width="8.6" height="1.9"/>
	<rect x="163.8" y="702.7" class="st2" width="3.3" height="2.2"/>
	<rect x="155" y="663.9" class="st2" width="3.4" height="4.5"/>
	<path class="st2" d="M162.8,700h6.4c-1.1-0.7-2.1-1.3-3.1-1.9C165.1,698.8,164,699.4,162.8,700z"/>
	<path class="st2" d="M196.7,694.2h3v-4.9h-3V694.2z M198.1,689.9c0.3,0.6,0.7,1.6,1.4,3.1c-0.4,0.2-0.9,0.4-1.4,0.6
		c-0.3-1-0.8-2-1.3-3.1L198.1,689.9z"/>
	<rect x="197.8" y="700.3" class="st2" width="6" height="1.5"/>
	<rect x="197.8" y="704.1" class="st2" width="6" height="1.5"/>
	<path class="st2" d="M150.2,697.9H148c0,0.7-0.1,1.2-0.1,1.6l1.6,1.8C149.9,700.2,150.1,699.1,150.2,697.9z"/>
	<rect x="148" y="693.4" class="st2" width="2.2" height="2.1"/>
	<rect x="143.3" y="663.9" class="st2" width="3.3" height="4.5"/>
	<rect x="145.8" y="652.4" class="st2" width="10.1" height="3.3"/>
	<path class="st2" d="M152.8,706.4c0.9,0,1.4-0.5,1.4-1.4v-1.5l-0.9,1c-0.4-0.5-0.8-1.1-1.2-1.6c-0.5,1.2-1.1,2.4-1.9,3.5
		C151.2,706.3,152.1,706.4,152.8,706.4z"/>
	<polygon class="st2" points="569.5,709.3 560.2,720 579,720 	"/>
	<path class="st3" d="M180.3,253.8c-0.6-0.9-1.3-1.8-2.2-2.8l-2.1,1.6c0.8,1,1.5,2,2.1,2.9L180.3,253.8z"/>
	<path class="st3" d="M260.5,278c0.6,1.1,1.1,2.1,1.5,3.2c0.6-0.5,1.2-1.1,1.7-1.6v1.4h9.1v-1.4c0.5,0.4,1,0.8,1.5,1.2
		c0.5-1.1,1.1-2.2,1.6-3.1c-2.3-1.4-4.4-3.6-6.3-6.4l0.5-0.9h-3.6C265.1,273.4,263,275.9,260.5,278z M268.1,274.1
		c0.9,1.3,2,2.6,3.1,3.9h-6C266.4,276.6,267.4,275.3,268.1,274.1z"/>
	<path class="st3" d="M277.1,241.1c0.6,0.6,1.3,1.4,2,2.3c1.2-1.2,2.2-2.8,3.3-4.6h2.3l-1.5,1.2c1.2,1.4,2.3,2.8,3.3,4.2l2.6-2
		c-1-1.1-2.1-2.2-3.3-3.4h5.3V236h-7.3c0.3-0.6,0.5-1.2,0.8-1.9h-3.3c-1.2,2.7-2.5,5-4.1,6.8v-6.8h-3.2v9.7h3.2V241.1z"/>
	<path class="st3" d="M261.1,245.9v-0.7h-3v0.7c0,2.9-0.3,4.9-0.9,6.3c-0.7,1.5-2.5,3-5.3,4.3c0.7,0.9,1.3,1.9,2,3
		c2.7-1.5,4.5-3,5.5-4.5c1.8,1.5,3.5,3,4.9,4.4l2.2-2.4c-1.8-1.6-3.8-3.2-6-4.8C260.9,250.6,261.1,248.5,261.1,245.9z"/>
	<polygon class="st3" points="257.4,240.7 253.6,240.7 253.6,252.9 256.7,252.9 256.7,243.8 262.5,243.8 262.5,252.9 265.6,252.9 
		265.6,240.7 260.5,240.7 260.9,238.5 266,238.5 266,235.3 253.2,235.3 253.2,238.5 257.7,238.5 	"/>
	<polygon class="st3" points="288,253.3 288,244.6 270.3,244.6 270.3,253.9 273.5,253.9 273.5,247.7 284.7,247.7 284.7,253.3 	"/>
	<rect x="269.2" y="234.8" class="st3" width="2.8" height="8.9"/>
	<path class="st3" d="M278.8,255.1c0,2.3,1.2,3.5,3.6,3.5h4.9c0.9,0,1.6-0.2,2.2-0.5c0.6-0.3,1-0.8,1.2-1.4c0.2-0.6,0.5-2.1,0.8-4.4
		c-1.2-0.5-2.2-0.9-3-1.3c-0.2,2-0.4,3.1-0.5,3.4s-0.3,0.6-0.6,0.7c-0.3,0.2-0.8,0.3-1.3,0.3h-2.7c-1,0-1.5-0.5-1.5-1.5v-2.7h-1.3
		c0.2-0.7,0.4-1.5,0.6-2.4h-3.4c-0.3,2.7-1.1,4.4-2.4,5.2c-1.1,0.9-3.6,1.6-7.6,2.1c0.4,0.8,0.9,1.8,1.6,3.2
		C274,258.8,277.2,257.4,278.8,255.1z"/>
	<path class="st3" d="M201.5,250.6h3v-0.8h2.3v4.7l-5.9,0.5l0.4,3.3l11.8-1.4c0.2,0.7,0.5,1.5,0.7,2.3l2.8-0.9
		c-0.8-2.8-1.7-5.3-2.5-7.5l-2.7,0.8c0.3,0.7,0.5,1.5,0.8,2.3l-2.2,0.2v-4.4h5.2v-11.2h-5.2v-4.4h-3.2v4.4h-5.2V250.6z M209.9,241.8
		h2.2v4.7h-2.2V241.8z M204.5,241.8h2.3v4.7h-2.3V241.8z"/>
	<path class="st3" d="M195.2,234.4l-2.2,1.9c0.8,1.1,1.6,2.2,2.2,3.5c-0.8,0.8-1.6,1.4-2.5,2.1c0.5,0.7,1.1,1.6,1.8,2.8
		c0.7-0.5,1.3-1.1,1.9-1.6c0.2,0.7,0.4,1.3,0.5,2c-1.2,1.8-2.6,3.4-4.2,4.7c0.7,1.4,1.2,2.4,1.5,3c1.3-1.2,2.4-2.4,3.3-3.7
		c0.1,0.9,0.1,1.9,0.1,2.9c0,1.1,0,1.9-0.1,2.2c-0.1,0.4-0.2,0.7-0.5,0.9c-0.3,0.2-0.6,0.3-1,0.3c-0.5,0-1.3-0.1-2.3-0.2
		c0.3,1.5,0.4,2.6,0.5,3.3c2.2,0.1,3.6-0.1,4.4-0.4c0.8-0.4,1.4-1,1.7-2s0.5-2.8,0.5-5.5c0-3.9-0.5-7.2-1.6-10.1
		c1.1-1.2,2.2-2.4,3.1-3.6l-2.3-2.2c-0.8,1-1.5,1.9-2.3,2.7C196.8,236.4,196.1,235.4,195.2,234.4z"/>
	<path class="st3" d="M236.3,248.2l3.8-1.9l-1.9-2.8c-1.7,1.1-4,2.4-6.6,3.7c-0.5-0.9-1.1-1.8-1.8-2.6c0.5-0.3,1-0.7,1.5-1.1h5.2
		v-2.8h-13.8v2.8h3.9c-2.2,1.2-5,2.1-8.2,2.7c0.5,0.8,1.1,1.7,1.6,2.6c2.6-0.7,5-1.6,7.1-2.6c0.2,0.3,0.4,0.5,0.6,0.8
		c-2.5,1.6-5.6,2.8-9.3,3.7l1.6,2.6c3.3-1,6.3-2.4,8.9-4.4c0.2,0.3,0.3,0.7,0.4,1c-2.9,2.4-6.8,4.3-11.4,5.5c0.7,1,1.3,2,1.9,3
		c2-0.7,3.8-1.5,5.4-2.4c0.3,0.9,0.5,2,0.8,3.1c2.4,0,3.9-0.1,4.5-0.2c0.6-0.1,1.2-0.4,1.6-0.8c0.5-0.4,0.8-1,1-1.7
		c0.2-0.7,0.3-1.6,0.3-2.7c0-1.3-0.2-2.6-0.6-3.9l1-0.5c1.4,3.8,3,6.5,5.1,8.2c0.8-0.9,1.7-1.8,2.7-2.8
		C239.1,253.3,237.4,251.1,236.3,248.2z M227.9,255.9c-0.6,0-1.4-0.1-2.4-0.2c1.7-0.9,3.2-2,4.5-3.1c0.1,0.4,0.1,0.7,0.1,1
		C230.1,255.2,229.4,255.9,227.9,255.9z"/>
	<path class="st3" d="M245.7,254.4c0,1-0.4,1.5-1.3,1.5c-0.5,0-1,0-1.5-0.1c0.2,1.2,0.5,2.2,0.6,3.3c1.2,0,2.1,0,2.6-0.1
		c1.7-0.1,2.6-1.1,2.6-3.1v-9.2h1.6l-0.5,5.3h2.1l0.8-8.4h-3.5l3.2-4.9v-3.2h-9.4v3h6.2l-2,3c-0.8-0.8-1.7-1.5-2.5-2.2l-1.7,2.3
		c0.9,0.7,1.9,1.4,2.9,2.1h-3.3v3.1h3V254.4z"/>
	<path class="st3" d="M227.8,236.3h-9.2v6.4h3.3v-3.5h15.6v3.5h3.3v-6.4h-8.9c-0.2-0.9-0.5-1.6-0.7-2.3l-4.1,0.6
		C227.3,235,227.6,235.6,227.8,236.3z"/>
	<path class="st3" d="M220.5,284.2l3.8-1.9l-1.9-2.8c-1.7,1.1-4,2.4-6.6,3.7c-0.5-0.9-1.1-1.8-1.8-2.6c0.5-0.3,1-0.7,1.5-1.1h5.2
		v-2.8H207v2.8h3.9c-2.2,1.2-5,2.1-8.2,2.7c0.5,0.8,1.1,1.7,1.6,2.6c2.6-0.7,5-1.6,7.1-2.6c0.2,0.3,0.4,0.5,0.6,0.8
		c-2.5,1.6-5.6,2.8-9.3,3.7l1.6,2.6c3.3-1,6.3-2.4,8.9-4.4c0.2,0.3,0.3,0.7,0.4,1c-2.9,2.4-6.8,4.3-11.4,5.5c0.7,1,1.3,2,1.9,3
		c2-0.7,3.8-1.5,5.4-2.4c0.3,0.9,0.5,2,0.8,3.1c2.4,0,3.9-0.1,4.5-0.2c0.6-0.1,1.2-0.4,1.6-0.8c0.5-0.4,0.8-1,1-1.7
		c0.2-0.7,0.3-1.6,0.3-2.7c0-1.3-0.2-2.6-0.6-3.9l1-0.5c1.3,3.8,3,6.5,5.1,8.2c0.8-0.9,1.7-1.8,2.7-2.8
		C223.4,289.4,221.6,287.1,220.5,284.2z M212.2,291.9c-0.6,0-1.4-0.1-2.4-0.2c1.7-0.9,3.2-2,4.5-3.1c0.1,0.4,0.1,0.7,0.1,1
		C214.3,291.2,213.6,291.9,212.2,291.9z"/>
	<path class="st3" d="M178.1,256.5c0.7,0.9,1.4,1.9,2.1,2.9c2.5-2.4,4.1-4.9,4.8-7.6c0.9,3.1,2.5,5.5,4.8,7.4
		c0.7-1.5,1.3-2.6,1.8-3.4c-2.9-1.9-4.7-5.1-5.3-9.8c0.1-0.9,0.1-1.9,0.1-3h-2.9c0,3.2-0.4,5.8-1.2,7.9
		C181.5,252.8,180.1,254.7,178.1,256.5z"/>
	<polygon class="st3" points="175.7,234 172.5,234 172.5,235.8 167.9,235.8 167.9,238.5 172.5,238.5 172.5,240.2 168.4,240.2 
		168.4,242.9 179.2,242.9 179.2,240.2 175.7,240.2 175.7,238.5 180.2,238.5 180.2,235.8 175.7,235.8 	"/>
	<path class="st3" d="M202.8,278.7h3.3v-3.5h15.6v3.5h3.3v-6.4h-8.9c-0.2-0.9-0.5-1.6-0.7-2.3l-4.1,0.6c0.2,0.5,0.5,1,0.7,1.8h-9.2
		V278.7z"/>
	<path class="st3" d="M195.6,287.6c0.3,0.7,0.5,1.5,0.8,2.3l-2.2,0.2v-4.4h5.2v-11.2h-5.2v-4.4H191v4.4h-5.2v12h3v-0.8h2.3v4.7
		l-5.9,0.5l0.4,3.3l11.8-1.4c0.2,0.7,0.5,1.5,0.7,2.3l2.8-0.9c-0.8-2.8-1.7-5.3-2.5-7.5L195.6,287.6z M194.2,277.8h2.2v4.7h-2.2
		V277.8z M191,282.5h-2.3v-4.7h2.3V282.5z"/>
	<path class="st3" d="M182.1,234c-0.7,3.8-1.7,7-2.8,9.7c0.8,0.4,1.7,0.8,2.7,1.4c0.5-1.2,1-2.7,1.5-4.4h4.5l-0.9,4.1l2.8,0.6l1-4.9
		v-2.9h-6.7c0.2-0.9,0.5-1.9,0.7-3L182.1,234z"/>
	<path class="st3" d="M270,288.7c-0.4-2.2-0.9-4.5-1.5-6.8l-2.5,0.6c0.6,2.5,1,4.8,1.3,6.9L270,288.7z"/>
	<path class="st3" d="M274.7,283.2l-3-0.8c-0.5,2.8-1.2,5.8-2.1,8.9h-8.1v3h13.9v-3h-3C273.3,288.5,274,285.8,274.7,283.2z"/>
	<path class="st3" d="M261.7,283.9c0.9,2.6,1.6,4.9,2.1,6.8l2.6-1c-0.7-2.4-1.5-4.7-2.3-6.8L261.7,283.9z"/>
	<path class="st3" d="M260.7,271.5h-8.3v3h5.2l-0.5,7.1h-1.7l0.6-6.3h-2.8l-0.8,9.4h6c-0.1,2.6-0.2,4.4-0.3,5.5
		c-0.1,0.8-0.5,1.2-1.3,1.2c-1.1,0-2.2-0.1-3.2-0.2c0.2,1,0.3,2.2,0.5,3.4c2.4,0,3.9-0.1,4.5-0.2c1.3-0.3,2.1-1.5,2.2-3.6
		c0.1-1.3,0.3-4.4,0.4-9.3h-1.4L260.7,271.5z"/>
	<path class="st3" d="M257.5,286.1c-1.9,0.3-3.8,0.5-5.5,0.7l0.4,3.2c1.7-0.3,3.4-0.6,5.2-0.8C257.5,288.2,257.5,287.2,257.5,286.1z
		"/>
	<path class="st3" d="M249.8,277.4v-3.2h-6.9v-4.1h-3.1v4.1h-6.2v3.2h4.3c-1.2,3.8-3.1,7.1-5.7,9.9v-10.3c0.6-1.9,1.2-3.9,1.7-6.1
		l-3.1-0.8c-1.3,5.3-2.6,9.2-3.9,11.7c0.3,1.7,0.6,3.3,0.8,4.8c0.5-0.8,1.1-1.7,1.6-2.7v11.2h2.9v-7c0.7,1.1,1.3,2.1,1.7,2.9
		c0.7-0.9,1.4-1.8,2-2.8v2.7h3.8v4.3h3.1v-4.3h4v-2.6c0.6,0.9,1.2,1.6,1.8,2.3c0.7-1.3,1.4-2.5,2.1-3.6c-2.9-2.8-4.9-5.9-6.1-9.5
		H249.8z M239.8,287.7h-3.5c1.6-2.6,2.8-5.6,3.5-8.8V287.7z M246.5,287.7h-3.6V279C243.9,282.4,245.1,285.3,246.5,287.7z"/>
	<polygon class="st3" points="101.8,275.3 103.4,275.3 103.4,288.5 101.8,288.5 101.8,291.7 108.9,291.7 108.9,288.5 107.3,288.5 
		107.3,275.3 108.9,275.3 108.9,272.1 101.8,272.1 	"/>
	<path class="st3" d="M144.3,286.1h-10.7v6.5h2.9v-0.8h7.9V286.1z M141.4,289.7h-5v-1.5h5V289.7z"/>
	<path class="st3" d="M98.8,254.4v0.5c0,0.6-0.4,1.1-1,1.6l1.5,2.8c1-0.6,3.5-1.2,7.4-1.9c0-0.7,0.1-1.7,0.2-2.9
		c1.8,1.8,4.2,3.2,7.4,4.3c0.5-0.9,1.3-2,2.2-3.3c-2.1-0.4-3.9-1-5.3-1.7c1.4-0.6,2.6-1.1,3.7-1.6l-1.6-2.7h3.2v-2.8h-9.7l-0.4-1.5
		l-3.3,0.5c0.1,0.3,0.2,0.7,0.3,1H93v2.8h8.3c-2.2,1.6-5.1,3-8.5,4.1c0.6,1.1,1.1,2.2,1.5,3.2C96,255.9,97.4,255.1,98.8,254.4z
		 M113,249.3c-1.1,0.7-2.6,1.6-4.4,2.5c-0.7-0.7-1.4-1.5-2-2.5H113z M101.9,252.3c0.8-0.6,1.5-1.2,2.2-1.9c0.7,1.3,1.4,2.4,2.3,3.3
		c-2.1,0.5-3.6,0.9-4.5,1.1V252.3z"/>
	<path class="st3" d="M118.5,272.1h-6.3v19.7h3.9v-6.9h2c2.1,0.1,3.8-0.5,5.2-1.7c1.4-1.2,2.1-2.8,2.1-4.8
		C125.4,274.1,123.1,272.1,118.5,272.1z M117.8,281.7h-1.7v-6.3h1.7c2.3,0,3.4,1,3.4,3.1C121.3,280.6,120.1,281.7,117.8,281.7z"/>
	<path class="st3" d="M92.4,285.9c-0.2,0.7-0.3,1.4-0.4,2h-0.1c0-0.6-0.2-1.3-0.4-1.9l-4-13.9h-4.2l6.3,19.7h4.4l6.4-19.7h-4.1
		L92.4,285.9z"/>
	<path class="st3" d="M68.9,257.7h3.1v-1.9h3.1v1.8h3.1v-21.7h-9.4V257.7z M72.1,239.2h3.1v5h-3.1V239.2z M72.1,247.5h3.1v5h-3.1
		V247.5z"/>
	<path class="st3" d="M85.4,249.4c-1.8-2.7-3.2-4.7-4.3-6.1l-2.5,1.8c1.1,1.7,2.4,3.8,3.9,6.4L85.4,249.4z"/>
	<path class="st3" d="M88.6,257.7c0.6-0.7,0.9-1.8,0.9-3.2v-12.6h2v-3.4h-2v-4.3h-3.4v4.3H79v3.4h7.1v11.5c0,1.3-0.6,1.9-1.7,1.9
		c-0.2,0-1.5,0-3.7-0.1c0.3,0.9,0.6,2.2,0.8,3.7c2.1,0,3.6,0,4.7-0.1C87.2,258.8,88,258.4,88.6,257.7z"/>
	<path class="st3" d="M182.7,294.2c0.8-0.4,1.4-1,1.7-2c0.3-0.9,0.5-2.8,0.5-5.5c0-3.9-0.5-7.2-1.6-10.1c1.1-1.2,2.2-2.4,3.1-3.6
		l-2.3-2.2c-0.8,1-1.5,1.9-2.3,2.7c-0.7-1.1-1.4-2.1-2.3-3.1l-2.2,1.9c0.8,1.1,1.6,2.2,2.2,3.5c-0.8,0.8-1.6,1.4-2.5,2.1
		c0.5,0.7,1.1,1.6,1.8,2.8c0.7-0.5,1.3-1.1,1.9-1.6c0.2,0.7,0.4,1.3,0.5,2c-1.2,1.8-2.6,3.4-4.2,4.7c0.7,1.4,1.2,2.4,1.5,3
		c1.3-1.2,2.4-2.4,3.3-3.7c0.1,0.9,0.1,1.9,0.1,2.9c0,1.1,0,1.9-0.1,2.2c-0.1,0.4-0.2,0.7-0.5,0.9c-0.3,0.2-0.6,0.3-1,0.3
		c-0.5,0-1.3-0.1-2.3-0.2c0.3,1.5,0.4,2.6,0.5,3.3C180.5,294.7,181.9,294.5,182.7,294.2z"/>
	<path class="st3" d="M166,291.2v-3.4h8v-3.1h-8v-2.7h9.2v-3.1h-22.5v3.1h9.9v9.1c-2-0.3-3.5-1.6-4.3-3.8c0.3-1.1,0.6-2.4,0.8-3.7
		l-3.2-0.4c-0.6,4-1.8,7-3.8,9.2c0.6,0.8,1.3,1.8,2,2.9c1.2-1.2,2.1-2.6,3-4.4c1,2.1,2.9,3.3,5.4,3.4c2.6,0.2,6.7,0.3,12.3,0.3
		c0.2-0.9,0.6-2,1-3.4C171.8,291.2,168.6,291.3,166,291.2z"/>
	<path class="st3" d="M180.3,248.1h-12.4v2.7h5v4.1c0,0.3-0.1,0.6-0.3,0.7s-0.8,0.3-1.8,0.2c0.4-1.2,0.7-2.5,1.1-3.9l-2.7-0.8
		c-0.5,2.1-1,3.9-1.5,5.4l2.6,1c0.1,0.4,0.2,0.9,0.3,1.5c1.9,0,3.1-0.1,3.7-0.2c0.5-0.1,1-0.5,1.2-0.9c0.3-0.5,0.4-1.1,0.4-1.9v-5.2
		h4.2V248.1z"/>
	<path class="st3" d="M128.4,295h3.1v-10h14.9v5.6c0,1.1-0.5,1.6-1.6,1.6c-1,0-2,0-2.9-0.1c0.2,0.9,0.4,1.9,0.6,3
		c2.3,0,3.8-0.1,4.6-0.2c0.7-0.1,1.3-0.5,1.8-1.2s0.7-1.6,0.7-2.8v-8.4h-21.2V295z"/>
	<rect x="168.6" y="244.1" class="st3" width="10.6" height="2.7"/>
	<path class="st3" d="M130.6,275.7v5.7h16.6v-5.7H130.6z M144,279.2h-10.2v-1.3H144V279.2z"/>
	<path class="st3" d="M140.3,269.9l-3.8,0.6c0.2,0.5,0.4,1,0.6,1.5h-9.9v2.6h23.4V272h-9.5C140.9,271.3,140.6,270.6,140.3,269.9z"/>
	<polygon class="st3" points="107.7,241.7 103.1,241.7 103.1,244.6 115.5,244.6 115.5,241.7 110.9,241.7 110.9,239.6 116,239.6 
		116,236.8 110.9,236.8 110.9,234.1 107.7,234.1 107.7,236.8 102.5,236.8 102.5,239.6 107.7,239.6 	"/>
	<path class="st3" d="M123.1,246.6V238h5.4v1.8h-4.1v2.4h4.1v1.7h-4.7v2.5h12.5V244h-4.7v-1.7h4.1v-2.4h-4.1V238h5.3v15.5
		c0,0.5-0.1,0.9-0.3,1.3s-0.8,0.6-2,0.6c-0.9,0-1.7,0-2.5-0.1c0.3,1,0.5,2.2,0.7,3.4c1.4,0,2.6,0,3.8,0c1.1,0,2-0.5,2.6-1.3
		s0.9-2.1,0.9-3.7v-18.7h-20.4v11.1c0,4.8-0.7,8.4-2.2,10.7c0.9,0.7,1.8,1.5,2.7,2.4C122.2,256.4,123.1,252.1,123.1,246.6z"/>
	<path class="st3" d="M165.8,242.1v-2.5h-9.6v-1.8c2.8-0.1,5.6-0.2,8.4-0.4l-0.5-2.7c-6,0.4-12.5,0.5-19.6,0.6
		c0.3,1,0.5,1.9,0.6,2.7c2.7,0,5.4,0,8.1-0.1v1.7h-9.5v2.5h6.8c-2.6,1.4-5.1,2.4-7.7,3l1.5,3.1c0.7-0.2,1.3-0.5,2-0.7v1.8h3.6
		c-0.4,3.3-2.7,5.6-6.7,7c0.8,0.9,1.6,1.9,2.3,3c4.6-1.9,7.1-5.3,7.5-10h4.4l-0.8,3.8h4.4c0,1.1-0.1,1.8-0.4,2
		c-0.3,0.3-0.9,0.4-1.9,0.4c-1,0-2,0-3-0.1c0.2,0.9,0.4,2,0.6,3.3c2.3,0,3.9,0,4.8-0.1c0.9-0.1,1.6-0.4,2.1-0.9s0.9-1.2,1-2.1
		c0.1-0.9,0.2-2.5,0.3-5h-4.2l0.7-3.8h-13.2c1.9-1,3.7-2.2,5.3-3.6v3.3h3.1V243c2.5,2.4,5.4,4,8.8,5c0.5-1,1-2.1,1.6-3.3
		c-2.7-0.4-5.3-1.3-7.6-2.5H165.8z"/>
	<path class="st3" d="M135.1,247.9h-10.2v8.1h3v-1.2h7.2V247.9z M132.1,252.4h-4.1v-2.1h4.1V252.4z"/>
	<path class="st3" d="M174.8,277.9v-5h-8.6c-0.4-1.1-0.7-2-1-2.9l-3.6,0.9l0.7,2h-9.2v5h3.3V276h15.1v1.9H174.8z"/>
	<path class="st3" d="M98.9,243.1v2.2h3.1v-11.2h-3.1v5.5c-1.9,0.8-3.9,1.7-6.1,2.5l1,3.3C95.5,244.6,97.2,243.8,98.9,243.1z"/>
	<path class="st3" d="M98.6,237.7c-1.3-1.4-2.3-2.4-3.1-3l-2.1,1.9c0.8,0.8,1.7,1.9,2.9,3.3L98.6,237.7z"/>
	<rect x="201.3" y="167.2" class="st4" width="4.4" height="35.9"/>
	<path class="st4" d="M166.3,183.8c0-3.5-0.6-7.7-0.6-7.7h0.1l6.8,27h5v-35.9h-4.1v19.3c0,3.3,0.5,7.7,0.5,7.7H174l-6.8-27h-5v35.9
		h4.1V183.8z"/>
	<path class="st4" d="M192,203.1l5.5-35.9h-4.4l-3,22.5c-0.4,2.5-0.6,7-0.6,7h-0.1c0,0-0.3-4.4-0.6-7l-3-22.5h-4.4l5.5,35.9H192z"/>
	<polygon class="st4" points="140.9,198.8 134.3,198.8 134.3,167.2 129.9,167.2 129.9,203.1 140.9,203.1 	"/>
	<path class="st4" d="M215.8,183.8c0-3.5-0.6-7.7-0.6-7.7h0.1l6.8,27h5v-35.9h-4.1v19.3c0,3.3,0.5,7.7,0.5,7.7h-0.1l-6.8-27h-5v35.9
		h4.1V183.8z"/>
	<path class="st4" d="M148.1,193.9h5l1.1,9.2h4.5l-5.1-35.9h-5.8l-5.2,35.9h4.5L148.1,193.9z M149.9,179.2c0.3-2.5,0.6-7,0.6-7h0.1
		c0,0,0.3,4.4,0.6,7l1.2,10.8h-3.8L149.9,179.2z"/>
	<polygon class="st3" points="588.6,487.9 611.7,487.9 611.7,484.3 601.3,484.3 601.3,475 610.1,475 610.1,471.3 601.3,471.3 
		601.3,464.3 597.5,464.3 597.5,484.3 588.6,484.3 	"/>
	<path class="st3" d="M623.4,473.5h-8v13h3.2v-9.8h4.7v12.5h3.4v-12.5h5.3v4.9c0,1.1-0.6,1.7-1.7,1.7c-0.9,0-1.8,0-2.7-0.1
		c0.3,1.1,0.6,2.2,0.9,3.3c2.1,0,3.4-0.1,3.9-0.2c0.6-0.1,1.1-0.3,1.5-0.6c0.4-0.3,0.8-0.8,1-1.3c0.2-0.5,0.3-1.2,0.3-1.9v-9h-8.5
		v-2.9h9.7v-3.3h-9.4c-0.4-1.2-0.7-2.3-1.1-3.3l-3.8,0.9c0.3,0.7,0.6,1.5,0.9,2.4h-9.3v3.3h9.6V473.5z"/>
	<path class="st3" d="M566.8,474.8c0.7-1,1.3-2.2,1.9-3.4h5v4h-10.1v3.2h6.2c-0.1,3.5-2.2,6.1-6.4,7.7c0.8,0.9,1.6,1.9,2.5,3
		c4.9-2.1,7.4-5.7,7.4-10.7h3.2v6c0,2.6,1.3,3.9,3.9,3.9h2.7c1,0,1.8-0.4,2.3-1.1s1.1-2.5,1.6-5.4c-1-0.4-2-0.8-3.1-1.3
		c-0.3,2.2-0.6,3.5-0.8,3.9c-0.2,0.4-0.6,0.6-1.1,0.6h-1c-0.7,0-1-0.5-1-1.5v-5.2h6.6v-3.2h-9.4v-4h8v-3.2h-8v-4.1h-3.5v4.1H570
		c0.3-0.9,0.6-1.9,0.9-2.9l-3.2-0.7c-0.7,2.8-1.9,5.5-3.6,8.3C564.7,473.3,565.6,473.9,566.8,474.8z"/>
	<path class="st3" d="M536,488.7v-11.9h-9.9v11.9h3.3v-1.2h3.4v1.2H536z M529.3,484.4v-4.5h3.4v4.5H529.3z"/>
	<path class="st3" d="M516.6,474.8h17.1v-9.7h-17.1V474.8z M520.1,468.3h10.1v3.3h-10.1V468.3z"/>
	<path class="st3" d="M538.2,477.2l0.3,3.6c0.9-0.3,1.8-0.5,2.6-0.8v4.5c0,0.8-0.3,1.2-0.8,1.2c-0.5,0-1.1,0-1.9-0.1
		c0.4,1.5,0.7,2.6,0.8,3.5c1,0,1.9-0.1,2.9-0.2c1.4-0.2,2.1-1.3,2.1-3.1v-6.7c0.8-0.2,1.5-0.4,2.1-0.6c0-0.7,0-1.8,0.1-3.2
		c0.1,0.2,0.2,0.3,0.3,0.4c0.2-0.2,0.5-0.4,0.7-0.6v9.9c0,2.4,1.2,3.6,3.5,3.6h6c2.5,0,4-1.1,4.4-3.3c0.2-1.2,0.4-2.3,0.6-3.3
		c-1-0.3-2-0.6-3.1-1c0,0.7-0.2,1.7-0.4,3c-0.1,1-0.8,1.5-2,1.5h-4.3c-1.1,0-1.7-0.5-1.7-1.6V476h5.6c0,0.7,0,1.4-0.1,2.1
		c-0.1,1.3-0.6,1.9-1.6,1.9c-0.6,0-1.6-0.1-3-0.2c0.3,1.4,0.5,2.4,0.6,3.1c0.9,0,2,0,3.2,0c2.4-0.1,3.7-1.7,3.8-4.8
		c0-0.6,0-1.7,0.1-3.4c0.4,0.3,0.8,0.7,1.2,0.9c0.5-1.1,1-2.1,1.6-3.2c-2.5-1.7-4.9-4.2-7-7.4c0.1-0.3,0.2-0.6,0.4-0.8h-3.4
		c-1.9,3.7-4.3,6.7-7.3,9.2c0.6,0.7,1.2,1.4,1.5,1.9c-0.7,0.2-1.4,0.4-2.1,0.5v-4.1h2.2v-3.3h-2.2v-4.3h-3.1v4.3h-2.6v3.3h2.6v4.8
		C540,476.8,539,477,538.2,477.2z M553.5,468c1.2,1.9,2.6,3.6,4.1,5.1h-8.1C551,471.6,552.3,469.8,553.5,468z"/>
	<path class="st3" d="M551.7,521.5h8.8v-1.8h-8.8v-0.9h7.9v-7.4h-18.9v7.4h7.9v0.9h-8.7v1.8h8.7v1h-10.2v1.9H562v-1.9h-10.3V521.5z
		 M551.7,513.2h4.9v1.1h-4.9V513.2z M551.7,515.9h4.9v1.1h-4.9V515.9z M548.5,517.1h-4.8v-1.1h4.8V517.1z M548.5,514.4h-4.8v-1.1
		h4.8V514.4z"/>
	<rect x="538.5" y="508.7" class="st3" width="23.4" height="1.9"/>
	<path class="st3" d="M517.7,487.5h3.3v1.2h3.3v-11.9h-9.9v11.9h3.3V487.5z M517.7,479.9h3.3v4.5h-3.3V479.9z"/>
	<path class="st3" d="M540.7,501v6.9h18.9V501H540.7z M556.3,506.1h-12.4v-0.9h12.4V506.1z M556.3,503.7h-12.4v-0.9h12.4V503.7z"/>
	<path class="st3" d="M589.4,524.7h3.3v-1.2h3.3v1.2h3.3v-11.9h-9.9V524.7z M592.7,515.9h3.3v4.5h-3.3V515.9z"/>
	<path class="st3" d="M576.8,516.5h8.2v-12.6h-4.5c0.9-1,1.6-1.9,2.1-2.5l-3.6-1.4c-0.8,1.3-1.6,2.6-2.6,3.9h-4.8l1.5-0.7l-2.5-3.1
		l-2.9,1.4c0.6,0.8,1.1,1.6,1.7,2.4h-4.4v12.6h8.2v1.8h-10.1v3.1h10.1v3.8h3.3v-3.8h10.1v-3.1h-10.1V516.5z M576.8,506.8h5.1v2.1
		h-5.1V506.8z M576.8,511.5h5.1v2.1h-5.1V511.5z M573.5,513.5h-5.1v-2.1h5.1V513.5z M573.5,508.9h-5.1v-2.1h5.1V508.9z"/>
	<path class="st3" d="M608.8,501.1h-17.1v9.7h17.1V501.1z M605.2,507.6h-10.1v-3.3h10.1V507.6z"/>
	<path class="st3" d="M601,524.7h3.3v-1.2h3.4v1.2h3.3v-11.9H601V524.7z M604.3,515.9h3.4v4.5h-3.4V515.9z"/>
	<path class="st3" d="M472.6,503l-2.3-2.2c-0.8,1-1.5,1.9-2.3,2.7c-0.7-1.1-1.4-2.1-2.3-3.1l-2.2,1.9c0.8,1.1,1.6,2.2,2.2,3.5
		c-0.8,0.8-1.6,1.4-2.5,2.1c0.5,0.7,1.1,1.6,1.8,2.8c0.7-0.5,1.3-1.1,1.9-1.6c0.2,0.7,0.4,1.3,0.5,2c-1.2,1.8-2.6,3.4-4.2,4.7
		c0.7,1.4,1.2,2.4,1.5,3c1.3-1.2,2.4-2.4,3.3-3.7c0.1,0.9,0.1,1.9,0.1,2.9c0,1.1,0,1.9-0.1,2.2c-0.1,0.4-0.2,0.7-0.5,0.9
		c-0.3,0.2-0.6,0.3-1,0.3c-0.5,0-1.3-0.1-2.3-0.2c0.3,1.5,0.4,2.6,0.5,3.3c2.2,0.1,3.6-0.1,4.4-0.4s1.4-1,1.7-2
		c0.3-0.9,0.5-2.8,0.5-5.5c0-3.9-0.5-7.2-1.6-10.1C470.6,505.4,471.7,504.2,472.6,503z"/>
	<path class="st3" d="M461.8,476.1v-2.6h-12.5c0.2-0.4,0.4-0.9,0.6-1.3H460v-2.5h-9.4l0.3-1.3h9.9v-2.6h-9.5
		c0.1-0.6,0.2-1.2,0.3-1.8h-3.2c-0.1,0.6-0.1,1.2-0.2,1.8h-8.7v2.6h8.2c-0.1,0.4-0.2,0.9-0.4,1.3h-7v2.5h6c-0.2,0.4-0.4,0.9-0.7,1.3
		h-7.1v2.6h5.2c-1.5,1.6-3.3,2.9-5.5,3.9c0.6,0.7,1.2,1.6,2,2.9c0.8-0.5,1.6-1,2.3-1.5v8h3.1v-1.1h8.9v1h3.1v-8
		c0.8,0.5,1.7,1,2.7,1.4c0.3-0.6,0.8-1.6,1.6-3.1c-2.4-0.7-4.4-1.9-6-3.5H461.8z M447.7,476.1h5c0.3,0.6,0.7,1.1,1.1,1.6h-7.4
		C446.9,477.2,447.3,476.6,447.7,476.1z M454.6,485.7h-8.9v-1.6h8.9V485.7z M454.6,481.7h-8.9v-1.6h8.9V481.7z"/>
	<path class="st3" d="M481.8,517.6c0.3,0.7,0.5,1.5,0.8,2.3l-2.2,0.2v-4.4h5.2v-11.2h-5.2v-4.4h-3.2v4.4H472v12h3v-0.8h2.3v4.7
		l-5.9,0.5l0.4,3.3l11.8-1.4c0.2,0.7,0.5,1.5,0.7,2.3l2.8-0.9c-0.8-2.8-1.7-5.3-2.5-7.5L481.8,517.6z M480.4,507.9h2.2v4.7h-2.2
		V507.9z M477.2,512.6H475v-4.7h2.3V512.6z"/>
	<path class="st3" d="M465.2,485.5c1.2-0.7,2.3-1.6,3.4-2.5c1,0.8,2.1,1.6,3.3,2.3c-2.4,0.5-5,0.8-7.8,0.9c0.4,1,0.8,1.9,1.2,2.9
		c4-0.5,7.5-1.3,10.5-2.2c2.7,0.9,5.9,1.6,9.5,1.9c0.3-0.9,0.7-2,1.2-3.1c-2.4,0-4.6-0.1-6.6-0.4c1.7-0.8,3.1-1.7,4.3-2.7v-2.3h-13
		c0.3-0.4,0.6-0.7,0.9-1.1h12.3v-10.7h-8.8l0.5-1.2h10.2V465h-22.4v2.5h8.5c-0.1,0.4-0.3,0.8-0.4,1.2h-5.6v10.7h2.1
		c-1.3,1.3-3,2.6-5.2,3.9C464.1,484.1,464.7,484.8,465.2,485.5z M479.6,482.8c-1.2,0.6-2.5,1.2-3.9,1.6c-1.3-0.4-2.5-1-3.5-1.6
		H479.6z M469.5,470.9h11.9v0.9h-11.9V470.9z M469.5,473.6h11.9v0.9h-11.9V473.6z M469.5,476.3h11.9v0.9h-11.9V476.3z"/>
	<path class="st3" d="M536.9,517l-2-2.7h0.6v-13.1H523v18.7c0,1.2-0.3,2.1-0.8,2.7l1.3,2.7c1-0.5,3.1-1.1,6.2-1.9
		c0-0.7,0-1.6,0.1-2.8c1.2,1.8,3,3.2,5.4,4.4c0.5-1.3,1.1-2.5,1.7-3.5c-1.6-0.5-2.8-1.2-3.8-2.1L536.9,517z M526.1,504.3h6.4v2.1
		h-6.4V504.3z M526.1,520.9v-6.6h1.1c0.5,2.2,1.3,4.1,2.3,5.7C528.3,520.3,527.2,520.6,526.1,520.9z M526.1,511.3v-2.1h6.4v2.1
		H526.1z M530.2,514.3h4.5c-1,1-2.1,1.9-3.2,2.8C531,516.3,530.6,515.4,530.2,514.3z"/>
	<path class="st3" d="M520.2,510.5c0.8-2.5,1.4-4.8,2-6.9v-2.4h-8v24.1h3v-21.1h2c-0.5,2.2-1.1,4.5-1.8,6.7c1.4,1.7,2.1,3.4,2.1,5.1
		c0,0.8-0.5,1.2-1.4,1.2c-0.2,0-0.5,0-0.8-0.1c0.3,1.2,0.5,2.5,0.6,3.9c3.1,0,4.6-1.3,4.6-4C522.6,514.4,521.8,512.3,520.2,510.5z"
		/>
	<path class="st3" d="M506.8,514.3l3.8-1.9l-1.9-2.8c-1.7,1.1-4,2.4-6.6,3.7c-0.5-0.9-1.1-1.8-1.8-2.6c0.5-0.3,1-0.7,1.5-1.1h5.2
		v-2.8h-13.8v2.8h3.9c-2.2,1.2-5,2.1-8.2,2.7c0.5,0.8,1.1,1.7,1.6,2.6c2.6-0.7,5-1.6,7.1-2.6c0.2,0.3,0.4,0.5,0.6,0.8
		c-2.5,1.6-5.6,2.8-9.3,3.7l1.6,2.6c3.3-1,6.3-2.4,8.9-4.4c0.2,0.3,0.3,0.7,0.4,1c-2.9,2.4-6.8,4.3-11.4,5.5c0.7,1,1.3,2,1.9,3
		c2-0.7,3.8-1.5,5.4-2.4c0.3,0.9,0.5,2,0.8,3.1c2.4,0,3.9-0.1,4.5-0.2c0.6-0.1,1.2-0.4,1.6-0.8c0.5-0.4,0.8-1,1-1.7
		c0.2-0.7,0.3-1.6,0.3-2.7c0-1.3-0.2-2.6-0.6-3.9l1-0.5c1.3,3.8,3,6.5,5.1,8.2c0.8-0.9,1.7-1.8,2.7-2.8
		C509.6,519.4,507.9,517.2,506.8,514.3z M498.4,522c-0.6,0-1.4-0.1-2.4-0.2c1.7-0.9,3.2-2,4.5-3.1c0.1,0.4,0.1,0.7,0.1,1
		C500.6,521.2,499.8,522,498.4,522z"/>
	<path class="st3" d="M490.1,480.1c-0.6,2.1-1.3,4-2.1,5.6c1.1,0.4,1.9,0.9,2.5,1.3l0.5-1.1c0.2,0.9,0.4,1.8,0.5,2.9
		c1.5,0,2.5-0.1,3.1-0.2c0.6-0.1,1-0.4,1.3-0.9c0.3-0.5,0.5-1.1,0.5-1.9v-6.1h4.2v-2.8h-4.2v-1.6h4.6v-2.8h-2.5c0.5-0.9,1-1.5,1.2-2
		c-1.3-0.6-2.1-1-2.5-1.2h3.3v-2.8h-4c-0.2-0.9-0.5-1.6-0.7-2.3l-3.3,0.6c0.2,0.5,0.4,1.1,0.6,1.7h-4.2v2.8h8
		c-0.3,0.7-0.8,1.7-1.6,3.1h-1c-0.4-0.9-1-2-1.6-3.1l-2.6,1.1c0.4,0.6,0.7,1.3,1,2h-2.6v2.8h4.9v1.6h-4.5v2.8h4.5v4.7
		c0,0.8-0.3,1.1-0.9,1.1c-0.4,0-0.8,0-1.2-0.1c0.6-1.4,1.1-2.9,1.5-4.4L490.1,480.1z"/>
	<path class="st3" d="M511.3,508.7v-6.4h-8.9c-0.2-0.9-0.5-1.6-0.7-2.3l-4.1,0.6c0.2,0.5,0.5,1,0.7,1.8h-9.2v6.4h3.3v-3.5H508v3.5
		H511.3z"/>
	<path class="st3" d="M498.8,480.1l-2.3,1.2c0.7,1.2,1.3,2.4,1.8,3.8l2.4-1.5c-0.5,1.3-1.2,2.3-2.1,3.2c0.9,0.7,1.9,1.5,3,2.5
		c2.2-2.8,3.3-6.9,3.3-12.3v-1.4h2.1v13.2h3.1v-13.2h1.8v-3.3h-7.1V469c2.6-0.3,4.9-0.7,7.1-1.3l-1.4-3.3c-2.3,0.8-5.2,1.5-8.8,1.9
		v11.4c0,2.4-0.3,4.4-1,6C500,482.1,499.4,480.9,498.8,480.1z"/>
	<rect x="507.1" y="405.7" class="st4" width="4.4" height="28.3"/>
	<path class="st4" d="M522.3,434.5c1.5,0,3.3-0.9,3.7-2.2v1.8h4.2v-28.3h-4.4v20.8c0,2.5-1,3.7-2.5,3.7c-1.6,0-2.5-1.2-2.5-3.7
		v-20.8h-4.4v21.1C516.4,431.7,518.1,434.5,522.3,434.5z"/>
	<rect x="507.1" y="395.9" class="st4" width="4.4" height="5.6"/>
	<path class="st4" d="M587.8,434.5c1.5,0,3.3-0.9,3.7-2.2v1.8h4.2v-28.3h-4.4v20.8c0,2.5-1,3.7-2.5,3.7c-1.6,0-2.5-1.2-2.5-3.7
		v-20.8h-4.4v21.1C581.9,431.7,583.6,434.5,587.8,434.5z"/>
	<path class="st4" d="M549.5,410.6c0-3.5-0.3-7.7-0.3-7.7h0.1L554,434h4.4l4.7-31.1h0.1c0,0-0.3,4.3-0.3,7.7V434h4.2v-35.9h-6.8
		l-3.5,22.6c-0.4,2.6-0.6,7-0.6,7h-0.1c0,0-0.2-4.3-0.6-7l-3.5-22.6h-6.8V434h4.2V410.6z"/>
	<path class="st4" d="M484,410.6c0-3.5-0.3-7.7-0.3-7.7h0.1l4.7,31.1h4.4l4.7-31.1h0.1c0,0-0.3,4.3-0.3,7.7V434h4.2v-35.9h-6.8
		l-3.5,22.6c-0.4,2.6-0.6,7-0.6,7h-0.1c0,0-0.2-4.3-0.6-7l-3.5-22.6h-6.8V434h4.2V410.6z"/>
	<rect x="572.6" y="405.7" class="st4" width="4.4" height="28.3"/>
	<rect x="572.6" y="395.9" class="st4" width="4.4" height="5.6"/>
	<path class="st3" d="M118.8,650.4h-4.2v2.8h8c-0.3,0.7-0.8,1.7-1.6,3.1h-1c-0.4-0.9-1-2-1.6-3.1l-2.6,1.1c0.4,0.6,0.7,1.3,1,2h-2.6
		v2.8h4.9v1.6h-4.5v2.8h4.5v4.7c0,0.8-0.3,1.1-0.9,1.1c-0.4,0-0.8,0-1.2-0.1c0.6-1.4,1.1-2.9,1.5-4.4l-2.7-0.9
		c-0.6,2.1-1.3,4-2.1,5.6c1.1,0.4,1.9,0.9,2.5,1.3l0.5-1.1c0.2,0.9,0.4,1.8,0.5,2.9c1.5,0,2.5-0.1,3.1-0.2c0.6-0.1,1-0.4,1.3-0.9
		c0.3-0.5,0.5-1.1,0.5-1.9v-6.1h4.2v-2.8h-4.2v-1.6h4.6v-2.8h-2.5c0.5-0.9,1-1.5,1.2-2c-1.3-0.6-2.1-1-2.5-1.2h3.3v-2.8h-4
		c-0.2-0.9-0.5-1.6-0.7-2.3l-3.3,0.6C118.4,649.2,118.6,649.8,118.8,650.4z"/>
	<path class="st3" d="M75.7,702.3l2.4-2.6c-2.2-1.9-4.2-3.6-5.8-4.8c0.2-1,0.3-2.1,0.4-3.5h5.6v12.6c0,0.4-0.1,0.8-0.2,1
		c-0.1,0.3-0.3,0.4-0.5,0.5c-0.2,0.1-0.6,0.1-1.2,0.1c-1,0-2,0-3.1-0.1c0.3,1.3,0.5,2.4,0.7,3.3c1.8,0,3.3,0,4.3-0.1
		c1-0.1,1.8-0.5,2.4-1.1c0.5-0.7,0.8-1.6,0.8-2.9v-16.6h-8.7c0-1.2,0-2.6,0-4.1h-3.1c0,1.3,0,2.6-0.1,4.1h-8.8V709H64v-17.6h5.5
		c-0.2,3.6-2,6.4-5.4,8.6c0.8,0.8,1.6,1.6,2.5,2.7c2-1.4,3.5-3,4.5-4.9C73.1,699.6,74.7,701.1,75.7,702.3z"/>
	<path class="st3" d="M165.3,655c0,2.1,1.1,3.6,3.2,4.5v0.1c-2.5,1.1-3.8,2.9-3.8,5.2c0,1.6,0.6,2.9,1.7,3.9c1.2,1,2.6,1.4,4.4,1.4
		c2.1,0,3.7-0.5,4.9-1.5c1.2-1,1.8-2.3,1.8-4.1c0-1.2-0.3-2.2-1-3.1s-1.7-1.5-2.9-1.9v0c2.3-1,3.5-2.6,3.5-4.8
		c0-1.5-0.6-2.7-1.7-3.6c-1.1-0.9-2.5-1.3-4.2-1.3c-1.7,0-3.1,0.5-4.3,1.4S165.3,653.4,165.3,655z M174,664.5c0,0.8-0.3,1.4-0.8,1.9
		c-0.5,0.5-1.2,0.7-2,0.7c-0.8,0-1.5-0.2-2-0.7c-0.6-0.5-0.8-1.1-0.8-1.9c0-1.5,0.9-2.7,2.7-3.4C173,661.9,174,663,174,664.5z
		 M169.6,653.4c0.5-0.4,1-0.6,1.6-0.6c0.7,0,1.2,0.2,1.6,0.6c0.4,0.4,0.6,1,0.6,1.7c0,1.3-0.8,2.3-2.3,2.9c-1.5-0.7-2.3-1.6-2.3-2.9
		C168.9,654.4,169.1,653.8,169.6,653.4z"/>
	<path class="st3" d="M124.5,664.2l-2.3,1.2c0.7,1.2,1.3,2.4,1.8,3.8l2.4-1.5c-0.5,1.3-1.2,2.3-2.1,3.2c0.9,0.7,1.9,1.5,3,2.5
		c2.2-2.8,3.3-6.9,3.3-12.3v-1.4h2.1v13.2h3.1v-13.2h1.8v-3.3h-7.1V653c2.6-0.3,4.9-0.7,7.1-1.3l-1.4-3.3c-2.3,0.8-5.2,1.5-8.8,1.9
		v11.4c0,2.4-0.3,4.4-1,6C125.7,666.1,125.1,665,124.5,664.2z"/>
	<path class="st3" d="M48.7,684l-3.9,1c0.2,0.6,0.5,1.2,0.7,1.8h-9.3v8.4c0,5.2-0.6,9.1-2,11.6c1,0.8,1.9,1.6,2.8,2.5
		c1.6-2.7,2.5-7.3,2.5-13.7v-5.7h18.3v-3.1h-8C49.4,685.8,49,684.9,48.7,684z"/>
	<path class="st3" d="M63.9,664c0.6,0.7,1.2,1.6,2,2.9c0.8-0.5,1.6-1,2.3-1.5v8h3.1v-1.1h8.9v1h3.1v-8c0.8,0.5,1.7,1,2.7,1.4
		c0.3-0.6,0.8-1.6,1.6-3.1c-2.4-0.7-4.4-1.9-6-3.5h5.8v-2.6H74.9c0.2-0.4,0.4-0.9,0.6-1.3h10.2v-2.5h-9.4l0.3-1.3h9.9v-2.6H77
		c0.1-0.6,0.2-1.2,0.3-1.8h-3.2c-0.1,0.6-0.1,1.2-0.2,1.8h-8.7v2.6h8.2c-0.1,0.4-0.2,0.9-0.4,1.3h-7v2.5h6c-0.2,0.4-0.4,0.9-0.7,1.3
		h-7.1v2.6h5.2C67.9,661.7,66.1,663,63.9,664z M73.4,660.1h5c0.3,0.6,0.7,1.1,1.1,1.6h-7.4C72.6,661.2,73,660.7,73.4,660.1z
		 M71.4,664.2h8.9v1.6h-8.9V664.2z M71.4,668.2h8.9v1.6h-8.9V668.2z"/>
	<path class="st3" d="M49.2,690.3h-3.3v7.5h-5v11.2h3.2v-1.6h9v1.6h3.2v-11.2h-7.1v-2.3h8.1v-3h-8.1V690.3z M53.1,700.8v3.5h-9v-3.5
		H53.1z"/>
	<path class="st3" d="M179.7,660.8l0.2,3.7l2.5-0.5v4.7c0,0.7-0.3,1.1-0.8,1.1l-1.8-0.1c0.3,1.3,0.5,2.4,0.6,3.4
		c0.9,0,1.8,0,2.7-0.1c0.9-0.1,1.5-0.4,1.9-0.9s0.6-1.3,0.6-2.3v-6.5l2.5-0.5c0.2-2.1,0.3-3.3,0.3-3.5l-2.8,0.5v-3.9h2.4v-3.2h-2.4
		v-4.3h-3.2v4.3h-2.6v3.2h2.6v4.5C181.4,660.5,180.5,660.7,179.7,660.8z"/>
	<path class="st3" d="M137.9,696.9l2.1-2.7c-1.3-1.2-2.6-2.3-3.8-3.2l-2,2.4C135.4,694.5,136.6,695.7,137.9,696.9z"/>
	<path class="st3" d="M101.5,688.7l2.2,2c1.3-1.3,2.5-2.7,3.8-4.2l-2.6-2C103.9,686,102.8,687.4,101.5,688.7z"/>
	<path class="st3" d="M189.1,659.9c0,4.8-0.9,8.3-2.6,10.5c1,1,1.8,1.9,2.5,2.9c2.2-3.1,3.3-7.3,3.3-12.7v-0.2h4.3V673h3.2v-12.6
		h3.5v-3.2h-11v-4c4.7-0.4,8.3-0.8,10.7-1.2l-1-3.4c-4.2,0.8-8.5,1.3-12.9,1.4V659.9z"/>
	<path class="st3" d="M109.3,698.5c0.6,1,1.1,1.9,1.5,2.7c0.8-0.3,1.6-0.6,2.3-0.9v4.3h3v-4.4h10.6v3.9h3v-4.6
		c0.8,0,1.4-0.3,1.8-0.7c0.4-0.4,0.6-1.1,0.7-2.1c0.1-0.9,0.1-2.1,0.2-3.4h-6.5v-1.4h5.6v-6.1h-5.6V684h-3v1.7h-3V684h-3v1.7h-6.4
		v2.3h6.4c0,0.6,0,1,0,1.4h-5.5l-0.9,6.1h4.7C114.1,696.8,112.2,697.8,109.3,698.5z M125.9,688h2.8v1.4h-2.8V688z M119.9,688h3v1.4
		h-3C119.9,688.8,119.9,688.3,119.9,688z M119.7,691.8h3.2v1.4h-3.4C119.6,692.8,119.7,692.3,119.7,691.8z M118.6,695.6h4.3v1.9h3
		v-1.9h3.7c0,0.4,0,0.7-0.1,0.9c-0.1,0.2-0.2,0.4-0.3,0.5c-0.1,0.1-0.8,0.1-2,0.1l0.3,0.9h-10.5
		C117.5,697.4,118.1,696.6,118.6,695.6z M113.6,693.2l0.3-1.4h2.8c-0.1,0.5-0.2,1-0.3,1.4H113.6z"/>
	<path class="st3" d="M90.9,669.6c1.2-0.7,2.3-1.6,3.4-2.5c1,0.8,2.1,1.6,3.3,2.3c-2.4,0.5-5,0.8-7.8,0.9c0.4,1,0.8,1.9,1.2,2.9
		c4-0.5,7.5-1.3,10.5-2.2c2.7,0.9,5.9,1.6,9.5,1.9c0.3-0.9,0.7-2,1.2-3.1c-2.4,0-4.6-0.1-6.6-0.4c1.7-0.8,3.1-1.7,4.3-2.7v-2.3h-13
		c0.3-0.4,0.6-0.7,0.9-1.1h12.3v-10.7h-8.8l0.5-1.2H112v-2.5H89.6v2.5h8.5c-0.1,0.4-0.2,0.8-0.4,1.2h-5.6v10.7h2.1
		c-1.3,1.3-3,2.6-5.2,3.9C89.7,668.1,90.4,668.9,90.9,669.6z M105.3,666.8c-1.2,0.6-2.5,1.2-3.9,1.6c-1.3-0.4-2.5-1-3.5-1.6H105.3z
		 M95.1,654.9h11.9v0.9H95.1V654.9z M95.1,657.6h11.9v0.9H95.1V657.6z M95.1,660.3h11.9v0.9H95.1V660.3z"/>
	<path class="st3" d="M134.8,708c1,0.3,2.1,0.6,3.1,1l2.3-9.6c-0.8-0.2-1.8-0.6-3.1-1.2C136.4,701.8,135.7,705,134.8,708z"/>
	<path class="st3" d="M123,700.8h-3c-0.1,2-0.8,3.4-2.3,4.1c-1.5,0.7-4,1.1-7.4,1.3c0.5,1.1,0.9,2.1,1.3,3c5.2-0.5,8.5-1.7,9.9-3.5
		c3.5,1.2,6.7,2.4,9.7,3.6l1.5-2.8c-3.7-1.3-7-2.3-10-3.2C122.8,702.5,122.9,701.7,123,700.8z"/>
	<path class="st3" d="M100.7,684h-3.3v7h-6v17.8h3.4v-5.2h8.6v0.4c0,1.1-0.5,1.6-1.6,1.6c-0.9,0-2,0-3.3-0.1
		c0.4,1.2,0.7,2.3,0.9,3.4c2.2,0,3.8,0,4.7-0.1c0.9-0.1,1.6-0.5,2-1c0.5-0.6,0.7-1.4,0.7-2.4v-14.4h-6V684z M103.4,700.7h-8.6v-1.9
		h8.6V700.7z M103.4,694v1.9h-8.6V694H103.4z"/>
	<path class="st3" d="M84.3,693.5c1.5,1.3,2.8,2.5,3.7,3.5l2.2-2.6c-1.1-1.1-2.4-2.2-3.9-3.3L84.3,693.5z"/>
	<path class="st3" d="M84.6,686.6c1.1,0.9,2.4,2.1,3.7,3.6l2.1-2.6c-1.4-1.3-2.7-2.3-3.9-3.3L84.6,686.6z"/>
	<path class="st3" d="M84.5,707.9c1,0.3,2.1,0.6,3.3,1l2.1-9.8c-0.9-0.2-1.9-0.6-3.2-1.1C86,701.7,85.3,705,84.5,707.9z"/>
	<path class="st3" d="M96.6,688.5c-1.1-1.3-2.3-2.7-3.6-4l-2.3,1.9c1.3,1.5,2.4,2.8,3.4,4.1L96.6,688.5z"/>
	<path class="st3" d="M204.7,690.4l-1.4-0.5c-0.3,0.9-0.8,2-1.3,3.1c0.4,0.2,0.8,0.4,1.3,0.7C203.8,692.5,204.3,691.4,204.7,690.4z"
		/>
	<path class="st3" d="M199.5,693c-0.7-1.5-1.1-2.6-1.4-3.1l-1.3,0.6c0.5,1.1,1,2.2,1.3,3.1C198.6,693.4,199.1,693.2,199.5,693z"/>
	<path class="st3" d="M195,709.2h2.8v-1h6v1h2.8v-11.4H195V709.2z M197.8,700.3h6v1.5h-6V700.3z M197.8,704.1h6v1.5h-6V704.1z"/>
	<path class="st3" d="M217.3,697.3V696c1.1-1.5,1.9-2.9,2.6-4.4v-3.1h-4l2.1-1.2c-0.9-1.4-1.6-2.5-2.2-3.2l-2.8,1.5
		c0.6,0.9,1.2,1.9,1.8,2.9h-4.7v3.4h5.8c-1.3,2.3-3.6,4.9-6.8,7.7c0.3,1.2,0.7,2.6,1.1,4.2c1.4-1.3,2.7-2.6,3.8-3.8v9.2h3.2v-10.2
		c0.7,0.7,1.6,1.5,2.6,2.5l2-2.5c-1.3-1.1-2.6-2-3.7-2.8L217.3,697.3z"/>
	<path class="st3" d="M205.9,684.9l-2.8-0.9l-1.2,2.8h-2.1l-1.4-2.7l-2.6,1l1.1,1.8h-2.5v10h13v-10h-2.6L205.9,684.9z M199.7,694.2
		h-3v-4.9h3V694.2z M204.8,689.3v4.9h-3v-4.9H204.8z"/>
	<path class="st3" d="M140.1,693.4h5.2v2.1h-4.4V709h3v-3.8c0.6,0.5,1.1,0.9,1.3,1.1c1-1.5,1.7-2.9,2.2-4.3c0.3,0.4,0.5,0.7,0.8,1.1
		l1.2-1.1c-0.4,1.1-1,2-1.8,2.8l2.5,1.6c0.2,0.8,0.5,1.6,0.7,2.5c2.1,0,3.6-0.1,4.2-0.2c0.7-0.1,1.2-0.4,1.6-0.9
		c0.4-0.5,0.6-1.3,0.6-2.2v-10.1h-4.2v-2.1h4.9v-2.6h-17.7V693.4z M143.7,703.3v-5.5h1.6C145.2,700,144.6,701.8,143.7,703.3z
		 M152.9,697.9h1.4v3.9l-1.6-1.7C152.8,699.3,152.9,698.6,152.9,697.9z M153.2,704.4l0.9-1v1.5c0,0.9-0.5,1.4-1.4,1.4
		c-0.7,0-1.6,0-2.6-0.1c0.8-1.1,1.4-2.3,1.9-3.5C152.4,703.3,152.8,703.9,153.2,704.4z M148,693.4h2.2v2.1H148V693.4z M148,697.9
		h2.2c-0.1,1.2-0.3,2.4-0.6,3.4l-1.6-1.8C147.9,699.1,148,698.6,148,697.9z"/>
	<polygon class="st3" points="193.6,701 193.6,685.3 185.3,685.3 185.3,701.1 187.6,701.1 187.6,688.1 191.3,688.1 191.3,701 	"/>
	<path class="st3" d="M222.6,684.5V705c0,2.4,1.1,3.5,3.3,3.5h2.5c2.1,0,3.3-0.8,3.7-2.3c0.4-1.4,0.8-3.2,1.1-5.3
		c-1.3-0.5-2.4-0.9-3.3-1.4c-0.1,1.6-0.4,3.2-0.6,4.8c-0.2,0.7-0.7,1.1-1.5,1.1h-0.6c-0.8,0-1.2-0.4-1.2-1.3v-19.7H222.6z"/>
	<path class="st3" d="M159.4,649.2h-17.1v9.7h17.1V649.2z M155.9,655.7h-10.1v-3.3h10.1V655.7z"/>
	<path class="st3" d="M190.4,698v-8.7h-1.9v8.7c0,3.2-1.4,5.9-4.2,8.3c0.8,1.3,1.4,2.3,1.7,3c1.6-1.6,2.8-3.5,3.5-5.6
		c1,1.6,1.9,3.1,2.8,4.6l2.4-2.2l-4.5-5.4C190.3,699.9,190.4,699,190.4,698z"/>
	<path class="st3" d="M154,684.1h-3.1v2.1h-3.8v-2.1H144v2.1h-3.9v0.9c-1.2-1.1-2.4-2.1-3.4-2.9l-2,2.3c1.3,1.2,2.4,2.3,3.5,3.4
		l1.9-2.1v1h3.9v1.6h3.1v-1.6h3.8v1.6h3.1v-1.6h3.9v-2.6H154V684.1z"/>
	<path class="st3" d="M140,672.7h3.3v-1.2h3.3v1.2h3.3v-11.9H140V672.7z M143.3,663.9h3.3v4.5h-3.3V663.9z"/>
	<path class="st3" d="M178.1,698.1V694h-2.8v3.8c0,2.7-0.4,4.7-1.1,5.8c-0.7,1.2-2.2,2.2-4.4,3v-6.2l0,0l1.3-2.5
		c-1.1-0.6-2.1-1.2-3.2-1.8c0.8-1,1.5-2.1,2.1-3.3v-2.4h-4.9c0.1-0.2,0.2-0.5,0.3-0.7l-2.5-1c-0.6,1.9-1.8,3.8-3.5,5.7
		c1,0.5,1.7,1,2.2,1.4c0.8-0.9,1.5-1.9,2.1-2.9h3.1c-0.4,0.7-0.9,1.4-1.5,2l-1.9-0.9l-1.4,2l1.2,0.6c-1.2,0.7-2.5,1.3-4.1,1.8
		c0.3,0.7,0.7,1.5,1,2.5c0.2-0.1,0.5-0.1,0.7-0.2v8.1h2.8v-1h3.3v0.8h2.8v-1.6c0.5,0.7,1,1.4,1.5,2.3c2.5-1,4.3-2.3,5.3-4
		c1.8,1.5,3.3,2.8,4.6,4l1.7-3c-1.5-1.2-3.3-2.5-5.3-3.9C178,701.1,178.1,699.7,178.1,698.1z M167.1,705h-3.3v-2.2h3.3V705z
		 M162.8,700c1.2-0.5,2.3-1.2,3.3-1.9c1,0.6,2,1.2,3.1,1.9H162.8z"/>
	<path class="st3" d="M161.7,672.7v-11.9h-9.9v11.9h3.3v-1.2h3.4v1.2H161.7z M155,668.4v-4.5h3.4v4.5H155z"/>
	<path class="st3" d="M159.8,690.5h2.5v-1.8h6.1v1.4h2.5V688h3.9c-0.1,0.8-0.2,1.5-0.3,2.2h-3.2v13h2.8v-10.1h5.2v10.1h2.8v-13h-4.5
		c0.1-0.7,0.2-1.4,0.3-2.2h4.9v-3h-12v1.2h-3.5l-0.7-2.2l-3.3,0.5c0.2,0.6,0.4,1.1,0.6,1.7h-4V690.5z"/>
	<rect x="121.9" y="581.6" class="st4" width="4.4" height="5.6"/>
	<rect x="121.9" y="591.3" class="st4" width="4.4" height="28.3"/>
	<rect x="130" y="581.6" class="st4" width="4.4" height="38.1"/>
	<path class="st4" d="M108.8,598.8c0-2.5,1-3.7,2.5-3.7c1.6,0,2.5,1.2,2.5,3.7v20.8h4.4v-21.1c0-5-1.7-7.7-5.9-7.7
		c-1.4,0-3.1,0.9-3.6,2.2v-11.5h-4.4v38.1h4.4V598.8z"/>
	<path class="st4" d="M91.7,605.7h2.6c5.1,0,7.2-3.1,7.2-7.8v-6.3c0-4.7-2.1-7.8-7.2-7.8h-7.1v35.9h4.4V605.7z M91.7,588.1h2.6
		c1.9,0,2.7,1.4,2.7,3.7v5.8c0,2.3-0.9,3.7-2.7,3.7h-2.6V588.1z"/>
	<path class="st4" d="M48.6,620.1c4.4,0,7.2-2.9,7.2-7.8v-5.5c0-2.8-1.2-5.1-3-5.9c1.9-0.8,2.9-3.2,2.9-6v-3.8
		c0-4.9-2.6-7.8-7.1-7.8s-7,2.9-7,7.8v4h4.4v-3.8c0-2.5,1-3.7,2.6-3.7s2.6,1.2,2.6,3.7v4.2c0,2.3-0.9,3.7-2.7,3.7H46v4h2.5
		c1.9,0,2.7,1.4,2.7,3.7v5.3c0,2.5-1.1,3.7-2.7,3.7s-2.6-1.2-2.6-3.7v-3.8h-4.4v4C41.5,617.2,44.1,620.1,48.6,620.1z"/>
	<rect x="146.2" y="591.3" class="st4" width="4.4" height="28.3"/>
	<path class="st4" d="M69.9,619.7h4.5v-35.9h-3.8c-0.3,2.8-2.3,3.9-4.6,4v3.6h3.9V619.7z"/>
	<rect x="138.1" y="581.6" class="st4" width="4.4" height="38.1"/>
	<rect x="193.9" y="591.3" class="st4" width="4.4" height="28.3"/>
	<rect x="193.9" y="581.6" class="st4" width="4.4" height="5.6"/>
	<path class="st4" d="M206.4,598.8c0-2.5,0.9-3.7,2.4-3.7c1.6,0,2.4,1.2,2.4,3.7v20.8h4.4v-20.8c0-2.5,0.9-3.7,2.4-3.7
		c1.6,0,2.4,1.2,2.4,3.7v20.8h4.4v-21.1c0-5-1.5-7.7-5.7-7.7c-2.2,0-3.8,1-4.6,2.7c-0.8-1.8-2.2-2.7-4.6-2.7c-1.5,0-3.2,0.9-3.7,2.2
		v-1.8H202v28.3h4.4V598.8z"/>
	<rect x="58.9" y="614" class="st4" width="5.2" height="5.7"/>
	<polygon class="st4" points="191.7,615.4 185.1,615.4 185.1,583.8 180.7,583.8 180.7,619.7 191.7,619.7 	"/>
	<rect x="146.2" y="581.6" class="st4" width="4.4" height="5.6"/>
	<path class="st4" d="M158.7,617.9c0.5,1.3,2.2,2.2,3.7,2.2c4.2,0,6.1-2.8,6.1-7.7v-13.8c0-5-2-7.7-6.1-7.7c-1.6,0-3.4,0.9-3.9,2.3
		v-1.9h-4.2v38.8h4.4V617.9z M158.7,598.8c0-2.5,1.1-3.7,2.7-3.7s2.7,1.2,2.7,3.7v13.3c0,2.5-1.1,3.7-2.7,3.7s-2.7-1.2-2.7-3.7
		V598.8z"/>
	<polygon class="st5" points="399.3,284.1 399.3,252.5 404.2,252.5 404.2,248.2 390,248.2 390,252.5 394.9,252.5 394.9,284.1 	"/>
	<rect x="458.1" y="278.4" class="st5" width="5.2" height="5.7"/>
	<path class="st5" d="M411.7,263.3c0-2.5,1-3.7,2.5-3.7c1.6,0,2.5,1.2,2.5,3.7v20.8h4.4V263c0-5-1.7-7.7-5.9-7.7
		c-1.4,0-3.1,0.9-3.6,2.2V246h-4.4v38.1h4.4V263.3z"/>
	<path class="st5" d="M444.8,255.7v28.3h4.4v-18.3c0-4.2,2.5-5.9,5.8-5.4v-4.9c-2.6-0.1-5,1.2-5.9,3.8v-3.6H444.8z"/>
	<path class="st5" d="M430.3,276.5v-20.8h-4.4v21.1c0,5,1.7,7.7,5.9,7.7c1.5,0,3.3-0.9,3.7-2.2v1.8h4.2v-28.3h-4.4v20.8
		c0,2.5-1,3.7-2.5,3.7C431.2,280.3,430.3,279.1,430.3,276.5z"/>
	<path class="st5" d="M433.9,715v-15.9h3.6v-4.5h-3.6V688h-4.4v6.7h-2.1v4.5h2.1v16.4c0,1.7,0.3,3.2,0.9,4.4h7.1v-1.3
		C434.8,718.9,433.9,717.6,433.9,715z"/>
	<path class="st5" d="M424,703.4c0-5.1-1-9.1-6.5-9.1c-4.4,0-6.9,3.1-6.9,8v1.7h4.4v-1.7c0-2.5,0.8-3.8,2.4-3.8
		c1.7,0,2.2,1.5,2.2,3.4c0,3.1-1.3,4.1-4.3,5.7c-3.8,2-5.5,4.3-5.5,8.9c0,1.4,0.2,2.5,0.6,3.5h13.7c-0.1-1.5-0.1-3.6-0.1-7.1V703.4z
		 M419.6,715c0,2.9-1.2,4.3-2.8,4.3c-1.4,0-2.4-0.9-2.4-3.4c0-2.6,1-3.9,3-5.2c1.1-0.7,1.8-1.3,2.2-1.9V715z"/>
	<path class="st5" d="M403.9,706.6l-5-5.8c-1.7-1.9-2.1-3.4-2.1-5.6c0-2.5,0.9-4.1,2.8-4.1c1.7,0,2.7,1.2,2.7,3.7v3.8h4.4v-4.1
		c0-4.9-2.6-7.7-7.1-7.7c-5,0-7.2,3.6-7.2,8.4c0,3.5,0.7,5.8,3,8.5l5,5.8c1.7,1.9,2.1,3.4,2.1,5.6c0,2.7-1,4.1-3.1,4.1
		c-1.5,0-2.8-1.2-2.8-3.7v-3.8h-4.4v4.1c0,1.7,0.3,3.1,0.9,4.2h12.7c0.7-1.4,1.1-3,1.1-4.9C407,711.6,406.3,709.3,403.9,706.6z"/>
	<rect x="440.9" y="717.4" class="st5" width="5.2" height="2.6"/>
	<polygon class="st5" points="286.6,508.1 291,508.1 291,492.5 296.9,492.5 296.9,488.1 291,488.1 291,476.5 297.6,476.5 
		297.6,472.2 286.6,472.2 	"/>
	<path class="st5" d="M305.3,483.3v-3.6h-4.3v28.3h4.4v-18.3c0-4.2,2.5-5.9,5.8-5.4v-4.9C308.7,479.4,306.3,480.7,305.3,483.3z"/>
	<rect x="314.5" y="479.7" class="st5" width="4.4" height="28.3"/>
	<rect x="323.8" y="502.4" class="st5" width="5.2" height="5.7"/>
	<rect x="314.5" y="470" class="st5" width="4.4" height="5.6"/>
	<path class="st5" d="M426.3,236.5c4.4,0,7.2-2.9,7.2-7.8v-21.2c0-4.9-2.8-7.8-7.2-7.8s-7.2,2.9-7.2,7.8v21.2
		C419.1,233.6,421.8,236.5,426.3,236.5z M423.5,207.7c0-2.5,1.1-3.7,2.8-3.7s2.8,1.2,2.8,3.7v20.8c0,2.5-1.1,3.7-2.8,3.7
		s-2.8-1.2-2.8-3.7V207.7z"/>
	<rect x="409" y="230.4" class="st5" width="5.2" height="5.7"/>
	<path class="st5" d="M442.3,207.7c0-2.5,0.8-3.7,2.4-3.7c1.5,0,2.4,1.2,2.4,3.7v4.5c0,2.7-1.4,4.4-4.2,6.9c-2.7,2.4-5,5.2-5,9.4
		v7.5h13.9v-4.3h-9.5v-3c0-2.7,1.4-4.4,4.1-6.9c2.7-2.4,5.1-5.2,5.1-9.4v-5c0-4.9-2.5-7.8-6.9-7.8c-4.3,0-6.8,2.9-6.8,7.8v4h4.4
		V207.7z"/>
	<path class="st5" d="M398.1,236h4.4v-6.7h2.6v-4.1h-2.6v-25.2h-5.7l-8.4,25.5v3.7h9.6V236z M392.8,225.3l5.9-20.4
		c0,0-0.6,3.3-0.6,6.6v13.8H392.8z"/>
	<path class="st5" d="M276.3,426.2h-5.7l-8.4,25.5v3.7h9.6v6.7h4.4v-6.7h2.6v-4.1h-2.6V426.2z M271.8,437.6v13.8h-5.3l5.9-20.4
		C272.4,431,271.8,434.3,271.8,437.6z"/>
	<rect x="282.8" y="456.4" class="st5" width="5.2" height="5.7"/>
	<path class="st5" d="M325.8,454.8v-5.5c0-2.8-1.2-5.1-3-5.9c1.9-0.8,2.9-3.2,2.9-6v-3.8c0-4.9-2.6-7.8-7.1-7.8c-4.4,0-7,2.9-7,7.8
		v4h4.4v-3.8c0-2.5,1-3.7,2.6-3.7c1.7,0,2.6,1.2,2.6,3.7v4.2c0,2.3-0.9,3.7-2.7,3.7h-2.4v4h2.5c1.9,0,2.7,1.4,2.7,3.7v5.3
		c0,2.5-1.1,3.7-2.7,3.7c-1.7,0-2.6-1.2-2.6-3.7v-3.8h-4.4v4c0,4.9,2.6,7.8,7,7.8C323.1,462.5,325.8,459.7,325.8,454.8z"/>
	<path class="st5" d="M307.3,454.8v-21.2c0-4.9-2.8-7.8-7.2-7.8s-7.2,2.9-7.2,7.8v21.2c0,4.9,2.8,7.8,7.2,7.8
		S307.3,459.7,307.3,454.8z M302.8,454.5c0,2.5-1.1,3.7-2.8,3.7s-2.8-1.2-2.8-3.7v-20.8c0-2.5,1.1-3.7,2.8-3.7s2.8,1.2,2.8,3.7
		V454.5z"/>
	<rect x="408.2" y="674.4" class="st5" width="5.2" height="5.7"/>
	<path class="st5" d="M425.5,643.7c-4.4,0-7.2,2.9-7.2,7.8v21.2c0,4.9,2.8,7.8,7.2,7.8s7.2-2.9,7.2-7.8v-21.2
		C432.7,646.6,429.9,643.7,425.5,643.7z M428.3,672.5c0,2.5-1.1,3.7-2.8,3.7s-2.8-1.2-2.8-3.7v-20.8c0-2.5,1.1-3.7,2.8-3.7
		s2.8,1.2,2.8,3.7V672.5z"/>
	<path class="st5" d="M450.3,644.2h-5.7l-8.4,25.5v3.7h9.6v6.7h4.4v-6.7h2.6v-4.1h-2.6V644.2z M445.9,655.6v13.8h-5.3l5.9-20.4
		C446.5,649,445.9,652.3,445.9,655.6z"/>
	<path class="st5" d="M401.7,644.2H396l-8.4,25.5v3.7h9.6v6.7h4.4v-6.7h2.6v-4.1h-2.6V644.2z M397.3,655.6v13.8H392l5.9-20.4
		C397.9,649,397.3,652.3,397.3,655.6z"/>
	<path class="st6" d="M359.7,261.1c8.6,0,15.5-6.9,15.5-15.5c0-8.6-6.9-15.5-15.5-15.5c-8.6,0-15.5,6.9-15.5,15.5
		C344.2,254.1,351.1,261.1,359.7,261.1z"/>
	<path class="st6" d="M359.7,489.1c8.6,0,15.5-6.9,15.5-15.5c0-8.6-6.9-15.5-15.5-15.5c-8.6,0-15.5,6.9-15.5,15.5
		C344.2,482.1,351.1,489.1,359.7,489.1z"/>
	<path class="st6" d="M359.7,705.1c8.6,0,15.5-6.9,15.5-15.5c0-8.6-6.9-15.5-15.5-15.5c-8.6,0-15.5,6.9-15.5,15.5
		C344.2,698.1,351.1,705.1,359.7,705.1z"/>
</g>
<g>
</g>
<g>
</g>
<g>
</g>
<g>
</g>
<g>
</g>
<g>
</g>
<g>
</g>
<g>
</g>
<g>
</g>
<g>
</g>
<g>
</g>
<g>
</g>
<g>
</g>
<g>
</g>
<g>
</g>
</svg>
