<?xml version="1.0" encoding="utf-8"?>
<!-- Generator: Adobe Illustrator 17.0.0, SVG Export Plug-In . SVG Version: 6.00 Build 0)  -->
<!DOCTYPE svg PUBLIC "-//W3C//DTD SVG 1.1//EN" "http://www.w3.org/Graphics/SVG/1.1/DTD/svg11.dtd">
<svg version="1.1" id="Layer_1" xmlns="http://www.w3.org/2000/svg" xmlns:xlink="http://www.w3.org/1999/xlink" x="0px" y="0px"
	 width="720px" height="722px" viewBox="0 0 720 722" style="enable-background:new 0 0 720 722;" xml:space="preserve">
<style type="text/css">
	.st0{fill:none;}
	.st1{fill:#DF9431;}
	.st2{fill:#010101;}
	.st3{fill:#FFEAAB;}
	.st4{fill:#FFFFFF;}
	.st5{fill:#DF9431;stroke:#FFFFFF;stroke-width:2;stroke-miterlimit:10;}
</style>
<g id="brand-3.svg">
	<path class="st0" d="M401.7,720.3v-13.8c0-3.3,0.6-6.6,0.6-6.6l-5.9,20.4H401.7z"/>
	<path class="st0" d="M249.4,428.6c0-3.3,0.6-6.6,0.6-6.6l-5.9,20.4h5.3V428.6z"/>
	<path class="st0" d="M241.4,486.7c-2.1,1.3-3,2.5-3,5.2c0,2.5,1,3.4,2.4,3.4c1.7,0,2.8-1.4,2.8-4.3v-6.2
		C243.2,485.5,242.5,486,241.4,486.7z"/>
	<path class="st0" d="M441.2,233.2c1.7,0,2.8-1.2,2.8-3.7v-20.8c0-2.5-1.1-3.7-2.8-3.7c-1.7,0-2.8,1.2-2.8,3.7v20.8
		C438.4,232.1,439.5,233.2,441.2,233.2z"/>
	<path class="st0" d="M400.9,212.6c0-3.3,0.6-6.6,0.6-6.6l-5.9,20.4h5.3V212.6z"/>
	<path class="st0" d="M580.6,670.8L386.7,448.8l193.9-221.9l139.4,157V1h-88l4.1,4.6L510.5,147L387,5.6l4-4.6h-16.8
		c0.7,1.7,1,3.6,1,5.6c0,8.6-6.9,15.5-15.5,15.5c-8.6,0-15.5-6.9-15.5-15.5c0-2,0.4-3.8,1-5.6h-13.8c-0.9,2.9-3.3,4.5-6.6,4.5
		c-3.3,0-5.6-1.6-6.6-4.5h-6c-1,2.9-3.4,4.5-6.7,4.5s-5.7-1.6-6.7-4.5h-5.4v4.1h-5.2V1h-6.5v4.1h-4.4V1H0v234.5L160.1,52.3
		l167,188.1l-167,188.1L0,245.3V721h96.5L208,593.3L321.4,721h28c2.7-2.4,6.3-3.9,10.3-3.9c4,0,7.6,1.5,10.3,3.9h22.1v-0.3l8.4-25.5
		h5.7v25.2h2.6v0.7h16.1v-18.2H421v-3.6c2.3-0.2,4.3-1.2,4.6-4h3.8V721h5.3c0.7-2.8,2.5-4.9,4.6-6.8c2.7-2.5,4.2-4.2,4.2-6.9v-4.5
		c0-2.5-0.9-3.7-2.4-3.7c-1.6,0-2.4,1.2-2.4,3.7v3.8h-4.4v-4c0-4.9,2.4-7.8,6.8-7.8s6.9,2.9,6.9,7.8v5c0,4.2-2.4,6.9-5.1,9.4
		c-1.7,1.6-2.9,2.8-3.5,4.2H720V513.7L580.6,670.8z M406.6,248.5H400v11.6h5.8v4.4H400v15.6h-4.4v-35.9h11.1V248.5z M427.9,280.1
		h-4.4v-28.3h4.4V280.1z M427.9,247.5h-4.4V242h4.4V247.5z M434,208.5c0-4.9,2.8-7.8,7.2-7.8c4.4,0,7.2,2.9,7.2,7.8v21.2
		c0,4.9-2.8,7.8-7.2,7.8c-4.4,0-7.2-2.9-7.2-7.8V208.5z M432.8,274.4h5.2v5.7h-5.2V274.4z M420.2,205.2c2.3-0.2,4.3-1.2,4.6-4h3.8
		v35.9H424v-28.3h-3.9V205.2z M411.8,231.4h5.2v5.7h-5.2V231.4z M410,251.7h4.3v3.6c0.9-2.6,3.4-3.9,5.9-3.8v4.9
		c-3.3-0.5-5.8,1.2-5.8,5.4v18.3H410V251.7z M391.2,226.7l8.4-25.5h5.7v25.2h2.6v4.1h-2.6v6.7h-4.4v-6.7h-9.6V226.7z M284.2,19.5
		h-4.9V51h-4.4V19.5H270v-4.3h14.2V19.5z M301.2,51h-4.4V30.2c0-2.5-0.9-3.7-2.5-3.7c-1.5,0-2.5,1.2-2.5,3.7V51h-4.4V13h4.4v11.5
		c0.5-1.3,2.1-2.2,3.6-2.2c4.2,0,5.9,2.8,5.9,7.7V51z M319.7,51h-4.2v-1.8c-0.5,1.3-2.2,2.2-3.7,2.2c-4.2,0-5.9-2.8-5.9-7.7V22.7
		h4.4v20.8c0,2.5,0.9,3.7,2.5,3.7c1.5,0,2.5-1.2,2.5-3.7V22.7h4.4V51z M324.8,51V22.7h4.3v3.6c0.9-2.6,3.4-3.9,5.9-3.8v4.9
		c-3.3-0.6-5.8,1.2-5.8,5.4V51H324.8z M280.8,421.2c2.3-0.2,4.3-1.2,4.6-4h3.8v35.9h-4.5v-28.3h-3.9V421.2z M268.7,421.2
		c2.3-0.2,4.3-1.2,4.6-4h3.8v35.9h-4.5v-28.3h-3.9V421.2z M260.3,447.4h5.2v5.7h-5.2V447.4z M223.5,499.5c-4.3,0-7.2-2.7-7.2-7.7
		v-4.1h4.4v3.8c0,2.5,1.3,3.7,2.8,3.7c2.1,0,3.1-1.4,3.1-4.1c0-2.3-0.4-3.7-2.1-5.6l-5-5.8c-2.4-2.7-3-5-3-8.5
		c0-4.8,2.2-8.4,7.2-8.4c4.5,0,7.1,2.8,7.1,7.7v4.1h-4.4v-3.8c0-2.5-1.1-3.7-2.7-3.7c-1.9,0-2.8,1.7-2.8,4.1c0,2.3,0.4,3.7,2.1,5.6
		l5,5.8c2.4,2.7,3,5,3,8.5C231,495.9,228.5,499.5,223.5,499.5z M244.3,499c-0.2-0.7-0.3-1.5-0.3-2.2c-0.9,1.7-2.6,2.6-4.6,2.6
		c-2.7,0-5.4-2.2-5.4-7c0-4.6,1.8-6.9,5.5-8.9c2.9-1.6,4.3-2.6,4.3-5.7c0-1.9-0.5-3.4-2.2-3.4c-1.7,0-2.4,1.3-2.4,3.8v1.7h-4.4v-1.7
		c0-4.9,2.5-8,6.9-8c5.5,0,6.5,4,6.5,9.1v9.6c0,6.3,0.1,8.1,0.5,10.1H244.3z M239.8,446.4v-3.7l8.4-25.5h5.7v25.2h2.6v4.1h-2.6v6.7
		h-4.4v-6.7H239.8z M261.6,475.2h-3.6V491c0,2.6,0.9,3.9,3.6,3.6v4.4c-5.7,0.5-8-2.7-8-7.5v-16.4h-2.1v-4.5h2.1V464h4.4v6.7h3.6
		V475.2z M272.8,486.1h-8.2v-4.5h8.2V486.1z M283.8,499.5c-4.3,0-7.2-2.7-7.2-7.7v-4.1h4.4v3.8c0,2.5,1.3,3.7,2.8,3.7
		c2.1,0,3.1-1.4,3.1-4.1c0-2.3-0.4-3.7-2.1-5.6l-5-5.8c-2.4-2.7-3-5-3-8.5c0-4.8,2.2-8.4,7.2-8.4c4.5,0,7.1,2.8,7.1,7.7v4.1h-4.4
		v-3.8c0-2.5-1.1-3.7-2.7-3.7c-1.9,0-2.8,1.7-2.8,4.1c0,2.3,0.4,3.7,2.1,5.6l5,5.8c2.4,2.7,3,5,3,8.5
		C291.2,495.9,288.8,499.5,283.8,499.5z M294.3,435.6h8.2v4.5h-8.2V435.6z M309.2,499H305v-1.8c-0.5,1.3-2.2,2.2-3.7,2.2
		c-4.2,0-5.9-2.8-5.9-7.7v-21.1h4.4v20.8c0,2.5,0.9,3.7,2.5,3.7c1.5,0,2.5-1.2,2.5-3.7v-20.8h4.4V499z M313.7,453.1h-4.5v-28.3h-3.9
		v-3.6c2.3-0.2,4.3-1.2,4.6-4h3.8V453.1z M328.1,499h-4.4v-20.8c0-2.5-0.9-3.7-2.5-3.7c-1.5,0-2.5,1.2-2.5,3.7V499h-4.4v-28.3h4.2
		v1.8c0.5-1.3,2.2-2.2,3.7-2.2c4.2,0,5.9,2.8,5.9,7.7V499z M332.5,453.1h-13.9v-7.5c0-4.2,2.3-6.9,5-9.4c2.7-2.5,4.2-4.2,4.2-6.9
		v-4.5c0-2.5-0.9-3.7-2.4-3.7c-1.6,0-2.4,1.2-2.4,3.7v3.8h-4.4v-4c0-4.9,2.4-7.8,6.8-7.8s6.9,2.9,6.9,7.8v5c0,4.2-2.4,6.9-5.1,9.4
		c-2.7,2.5-4.1,4.2-4.1,6.9v3h9.5V453.1z M338,499h-5.2v-5.7h5.2V499z M343.3,51h-5.2v-5.7h5.2V51z M359.7,469.1
		c-8.6,0-15.5-6.9-15.5-15.5c0-8.6,6.9-15.5,15.5-15.5c8.6,0,15.5,6.9,15.5,15.5C375.2,462.1,368.2,469.1,359.7,469.1z M359.7,257.1
		c-8.6,0-15.5-6.9-15.5-15.5c0-8.6,6.9-15.5,15.5-15.5c8.6,0,15.5,6.9,15.5,15.5C375.2,250.1,368.2,257.1,359.7,257.1z"/>
	<path class="st1" d="M467.1,28.8h-7.4c1.1,0.6,2.2,1.2,3.5,1.6C464.6,29.9,465.9,29.4,467.1,28.8z"/>
	<path class="st1" d="M387,5.6L510.5,147L636,5.6L632,1H391L387,5.6z M576.6,18.1v-2.5h9.5V14c-2.7,0.1-5.3,0.1-8.1,0.1
		c-0.1-0.8-0.3-1.7-0.6-2.7c7.1,0,13.7-0.2,19.6-0.6l0.5,2.7c-2.8,0.2-5.6,0.3-8.4,0.4v1.8h9.6v2.5h-6.9c2.4,1.2,4.9,2.1,7.6,2.5
		c-0.6,1.2-1.1,2.2-1.6,3.3c-3.4-1-6.3-2.6-8.8-5v3.5h-3.1v-3.3c-1.7,1.5-3.4,2.7-5.3,3.6H594l-0.7,3.8h4.2c-0.1,2.4-0.2,4.1-0.3,5
		c-0.1,0.9-0.4,1.6-1,2.1s-1.3,0.8-2.1,0.9c-0.9,0.1-2.5,0.2-4.8,0.1c-0.2-1.3-0.4-2.4-0.6-3.3c1.1,0.1,2.1,0.1,3,0.1
		c1,0,1.6-0.1,1.9-0.4c0.3-0.3,0.4-0.9,0.4-2h-4.4l0.8-3.8H586c-0.4,4.7-2.9,8.1-7.5,10c-0.8-1.1-1.6-2.1-2.3-3c4-1.4,6.2-3.7,6.7-7
		h-3.6v-1.8c-0.6,0.3-1.3,0.5-2,0.7l-1.5-3.1c2.5-0.6,5.1-1.6,7.7-3H576.6z M571.4,33.1c-1.4-2.5-3.1-5.1-5.1-7.9l2.6-1.9
		c1.9,2.4,3.7,4.9,5.5,7.6C573.7,31.5,572.6,32.2,571.4,33.1z M553.4,11.6h18.7v3.6h-18.7V11.6z M551.2,18.5h22.9v3.6h-9.2v8.4
		c0,1.4-0.2,2.4-0.7,3c-0.5,0.6-1,1-1.7,1.1c-0.7,0.2-2.3,0.3-5,0.3c-0.3-1.5-0.5-2.7-0.8-3.8c1.2,0.1,2.2,0.2,3,0.2
		c1.1,0,1.6-0.5,1.6-1.4v-7.8h-10.1V18.5z M555.9,23.2l3.1,1.7c-1.9,3.3-3.7,6-5.4,8.2c-0.8-0.7-1.7-1.4-2.8-2.2
		C552.7,28.5,554.4,25.9,555.9,23.2z M527.8,19.3v-8.1H548v7.3h-3.9v1.9h4.2v2.5h-4.2v1.9h4.9v2.5h-1.8l1.1,1.6l-3.5,1.7
		c1.3,0.6,2.8,0.9,4.5,1.1c-0.2,0.2-0.8,1.3-2,3.2c-3.2-0.9-5.7-2.4-7.6-4.6c0,1-0.1,2,0,3c-3.1,0.8-5.2,1.5-6.2,1.9l-1.1-2.7
		c0.4-0.4,0.5-1.3,0.5-2.8v-2.6h-1.9c-0.3,3.1-1.1,5.9-2.3,8.1c-0.8-1.2-1.6-2.3-2.4-3.2C527.2,29.7,527.8,25.4,527.8,19.3z
		 M519,31.1c0.2-0.1,0.4-0.3,0.6-0.5c0.1-0.3,0.2-0.6,0.2-1.1V10.2h3.2v20.5c0,1.3-0.2,2.3-0.7,2.9c-0.5,0.7-1.1,1.1-2,1.2
		c-0.9,0.1-2.5,0.1-4.8,0.1c-0.3-1.6-0.5-2.8-0.7-3.7c1.1,0.1,2.1,0.1,3.1,0.1C518.4,31.2,518.8,31.2,519,31.1z M514.7,13.3h3v15.5
		h-3V13.3z M501.5,14.7v-3.3H514v3.3h-5.8c-0.2,0.9-0.5,1.8-0.8,2.6h6v3.1c-1.1,6.2-4.2,11.1-9.4,15c-0.8-1.1-1.7-2.1-2.4-2.9
		c2.4-1.5,4.3-3.3,5.8-5.4c-1-1-1.9-1.9-2.7-2.7l1.7-2.1c0.8,0.7,1.6,1.4,2.5,2.2c0.6-1.2,1-2.4,1.3-3.8H506c-1,2.2-2.3,4.2-3.7,6
		c-0.5-1.2-1-2.2-1.6-3.2c2-2.7,3.4-5.6,4.3-8.7H501.5z M497.2,34.2c-1.7-1.6-3.6-3.2-5.7-4.9l2-2.2c1.8,1.3,3.7,2.9,5.9,4.7
		L497.2,34.2z M497.9,10.8l0.5,2.8c-3.2,0.3-6.5,0.6-10,0.8c-1.7,1.1-3.4,2.1-5.3,3L491,17c1.2-0.7,2.4-1.5,3.6-2.3l2.2,2.4
		c-4.4,2.6-9.2,4.9-14.2,7c3.4-0.2,6.9-0.4,10.3-0.6c-0.6-0.6-1.2-1.2-1.7-1.8l2.2-1.9c1.2,1.1,3.2,3.1,5.8,6l-2.3,2.2
		c-0.6-0.7-1.1-1.3-1.6-1.9l-5.8,0.2v6c0,0.9-0.2,1.5-0.7,2c-0.5,0.4-1.2,0.7-2.1,0.7c-1,0-2.2,0.1-3.8,0.1
		c-0.1-1.2-0.3-2.4-0.6-3.5c0.8,0.1,1.6,0.1,2.5,0.1c0.6,0,1.1-0.1,1.3-0.2s0.3-0.4,0.3-0.9v-4.1c-3.6,0.2-6.3,0.4-8.2,0.6l-0.8-3.1
		c2.7-1.1,5.6-2.5,8.7-4.2c-3.2,0.2-5.6,0.4-7.3,0.7l-0.9-3.1c1.7-0.7,3.5-1.6,5.4-2.8l-6.1,0.2c-0.1-1-0.3-2-0.5-3
		C484.5,11.8,491.6,11.5,497.9,10.8z M481.4,27.3l2.4,2.3c-1.8,1.8-3.8,3.4-5.9,4.9c-0.7-1-1.5-1.9-2.2-2.7
		C477.8,30.5,479.7,29.1,481.4,27.3z M453.9,25.4V14.7h5.6c0.1-0.4,0.3-0.8,0.4-1.2h-8.5V11h22.4v2.5h-10.2l-0.5,1.2h8.8v10.7h-12.3
		c-0.3,0.4-0.6,0.8-0.9,1.1h13v2.3c-1.2,1-2.7,1.9-4.3,2.7c2,0.3,4.2,0.4,6.6,0.4c-0.5,1.1-0.9,2.2-1.2,3.1c-3.6-0.4-6.8-1-9.5-1.9
		c-3,1-6.5,1.7-10.5,2.2c-0.4-1-0.8-2-1.2-2.9c2.9-0.2,5.5-0.5,7.8-0.9c-1.3-0.7-2.4-1.4-3.3-2.3c-1,0.9-2.2,1.7-3.4,2.5
		c-0.5-0.7-1.1-1.5-1.8-2.3c2.2-1.2,3.9-2.5,5.2-3.9H453.9z M426,19.5h7.1c0.2-0.4,0.5-0.8,0.7-1.3h-6v-2.5h7
		c0.1-0.4,0.3-0.9,0.4-1.3H427v-2.6h8.7c0.1-0.6,0.2-1.2,0.2-1.8h3.2c-0.1,0.6-0.2,1.2-0.3,1.8h9.5v2.6h-9.9l-0.3,1.3h9.4v2.5h-10.2
		c-0.2,0.4-0.4,0.9-0.6,1.3h12.5v2.6h-5.8c1.6,1.7,3.6,2.8,6,3.5c-0.8,1.4-1.3,2.5-1.6,3.1c-1-0.4-1.9-0.9-2.7-1.4v8h-3.1v-1h-8.9
		v1.1h-3.1v-8c-0.7,0.5-1.5,1.1-2.3,1.5c-0.8-1.2-1.4-2.2-2-2.9c2.2-1,4-2.3,5.5-3.9H426V19.5z"/>
	<rect x="433.2" y="30.2" class="st1" width="8.9" height="1.6"/>
	<rect x="537.4" y="18.4" class="st1" width="3.7" height="1.9"/>
	<path class="st1" d="M535.9,27.3v4.1c1-0.3,2.2-0.7,3.6-1.1c-0.8-0.9-1.5-1.9-2-3H535.9z"/>
	<rect x="457" y="22.3" class="st1" width="11.9" height="0.9"/>
	<path class="st1" d="M440.2,22.1h-5c-0.4,0.6-0.8,1.1-1.3,1.6h7.4C441,23.2,440.6,22.6,440.2,22.1z"/>
	<rect x="537.4" y="22.8" class="st1" width="3.7" height="1.9"/>
	<rect x="457" y="16.9" class="st1" width="11.9" height="0.9"/>
	<path class="st1" d="M542.2,29.2l3-1.9h-4.9C540.8,28,541.5,28.6,542.2,29.2z"/>
	<rect x="457" y="19.6" class="st1" width="11.9" height="0.9"/>
	<polygon class="st1" points="534.4,18.4 531.1,18.4 531.1,20.4 534.4,20.4 	"/>
	<path class="st1" d="M534.4,22.8H531c0,0.7,0,1.3-0.1,1.9h3.4V22.8z"/>
	<rect x="531.1" y="14" class="st1" width="13.7" height="2"/>
	<rect x="433.2" y="26.2" class="st1" width="8.9" height="1.6"/>
	<rect x="150.9" y="233.8" class="st1" width="2.2" height="4.7"/>
	<rect x="133.6" y="267.2" class="st1" width="11.9" height="0.9"/>
	<rect x="117.3" y="266.3" class="st1" width="6.1" height="2.1"/>
	<rect x="156.2" y="233.8" class="st1" width="2.1" height="4.7"/>
	<rect x="117.3" y="271.2" class="st1" width="6.1" height="2.1"/>
	<path class="st1" d="M117.3,276.3v6.6c1.1-0.3,2.1-0.6,3.2-0.9c-1-1.5-1.7-3.4-2.2-5.7H117.3z"/>
	<rect x="133.6" y="264.8" class="st1" width="11.9" height="0.9"/>
	<rect x="203.1" y="270.4" class="st1" width="5.5" height="1.4"/>
	<rect x="133.4" y="277.9" class="st1" width="4.6" height="1.1"/>
	<rect x="141" y="277.9" class="st1" width="4.7" height="1.1"/>
	<rect x="141" y="275.2" class="st1" width="4.7" height="1.1"/>
	<path class="st1" d="M121.2,276.3c0.3,1,0.8,2,1.2,2.8c1.1-0.9,2.1-1.8,3.1-2.8H121.2z"/>
	<rect x="133.4" y="275.2" class="st1" width="4.6" height="1.1"/>
	<path class="st1" d="M327.1,240.4l-167-188.1L0,235.5v9.8l160.1,183.2L327.1,240.4z M172.3,287.2c-2.2-1.9-3.7-4.3-4.6-7.4
		c-0.7,2.7-2.2,5.2-4.6,7.6c-0.7-1-1.3-2-2-2.9c1.9-1.7,3.3-3.6,4-5.6c0.7-2,1.1-4.7,1.1-7.9h2.8c0,1.1,0,2.1-0.1,3
		c0.6,4.7,2.3,7.9,5.1,9.8C173.6,284.5,173,285.7,172.3,287.2z M162.3,268.2v2.7h-10.4v-2.7h4v-1.6h-4.4v-2.7h4.4V262h3v1.8h4.3v2.7
		h-4.3v1.6H162.3z M162.2,272.1v2.7h-10.1v-2.7H162.2z M165,262l2.8,0.6c-0.2,1-0.4,2-0.7,3h6.4v2.9l-1,4.9l-2.7-0.6l0.8-4.1h-4.4
		c-0.5,1.7-1,3.2-1.5,4.4c-1-0.6-1.8-1-2.6-1.4C163.4,269.1,164.3,265.9,165,262z M195.2,287c-3.1-0.8-5.7-1.9-7.9-3.5
		c-2.2,1.5-4.9,2.7-7.9,3.7c-0.5-1.1-1.1-2.2-1.7-3.3c2.5-0.8,4.8-1.7,6.9-2.8c-1.1-1.2-2.1-2.5-3-4c-1.8,3.1-3.8,5.8-6.1,8
		c-0.3-1.6-0.7-3-1-4.2c3-3.1,5.2-6.7,6.6-10.8h-5.7v-3c0.4-1.4,0.8-2.8,1.1-4.4l3.1,0.4c-0.2,1-0.5,2.4-0.9,3.9h3.3
		c0.3-1.4,0.7-3.1,1-5l3.3,0.3l-1,4.7h6.4c-0.9-0.9-1.7-1.9-2.6-2.8l2-2.1c1.4,1.2,2.6,2.3,3.6,3.3l-1.4,1.6h3.9v3.1h-12.6
		c-0.2,0.7-0.5,1.5-0.8,2.3h11.1v2.8c-1.2,2.2-2.7,4.2-4.6,5.9c1.7,0.9,4.1,1.5,7,2C196.5,284.5,195.8,285.8,195.2,287z
		 M186.3,233.5l1.6-2.3c0.8,0.7,1.6,1.5,2.4,2.2l1.9-3h-5.9v-3h9v3.2l-3.1,4.9h3.4l-0.7,8.4h-2.1l0.5-5.3h-1.6v9.2
		c0,1.9-0.8,3-2.5,3.1c-0.5,0.1-1.4,0.1-2.5,0.1c-0.2-1-0.4-2.1-0.6-3.3c0.5,0,1,0,1.4,0c0.8,0,1.3-0.5,1.3-1.5v-7.7h-2.8v-3.1h3.1
		C188.1,234.8,187.2,234.1,186.3,233.5z M208.7,248.9l-2.1,2.4c-1.4-1.5-2.9-2.9-4.7-4.4c-1,1.5-2.7,3-5.3,4.5
		c-0.6-1.1-1.3-2.1-1.9-3c2.7-1.3,4.4-2.8,5.1-4.3c0.6-1.3,0.9-3.4,0.9-6.3v-0.7h2.9v0.7c0,2.6-0.2,4.7-0.5,6.3
		C205.1,245.8,207,247.4,208.7,248.9z M217.8,287.1h-3.3v-1h-11.1v1h-3.3v-8.3h17.7V287.1z M219.3,277.6h-16.2v0.7h-3v-7
		c-0.4,0.5-0.9,1.1-1.3,1.5c-0.4-1.4-0.8-2.7-1.3-3.8c1.8-2,3.3-4.3,4.5-6.9l3.2,0.8c-0.3,0.6-0.6,1.1-0.8,1.7h4.2
		c-0.3-0.7-0.6-1.4-0.9-2.1l3.2-0.7c0.4,0.9,0.8,1.8,1.2,2.8h6.9v2.3h-7.4v1.4h6.6v2.1h-6.6v1.4h6.6v2.1h-6.6v1.4h7.7V277.6z
		 M231,248.7c-0.2,0.6-0.6,1.1-1.1,1.4c-0.5,0.3-1.2,0.5-2.1,0.5h-4.7c-2.3,0-3.4-1.2-3.4-3.5c-1.6,2.3-4.6,3.7-9,4.1
		c-0.6-1.4-1.1-2.5-1.5-3.2c3.8-0.4,6.2-1.1,7.3-2.1c1.2-0.8,2-2.5,2.3-5.2h3.2c-0.2,0.9-0.4,1.7-0.6,2.4h1.3v2.7
		c0,1,0.5,1.5,1.4,1.5h2.6c0.5,0,1-0.1,1.3-0.3c0.3-0.2,0.5-0.4,0.6-0.7c0.1-0.3,0.2-1.5,0.5-3.4c0.7,0.4,1.7,0.8,2.9,1.3
		C231.5,246.6,231.2,248.1,231,248.7z M214.6,239.7v6.2h-3.1v-9.3h17v8.7h-3.1v-5.6H214.6z M213.1,235.7h-2.7v-8.9h2.7V235.7z
		 M221.4,170.7l2.1,15.6c0.4,2.6,0.7,7,0.7,7h0.1c0,0,0.4-4.5,0.7-7l2.1-15.6h4.6l-5.8,31.8c-0.8,4.1-2.9,7.2-6.8,7.2
		c-0.8,0-1.2-0.1-1.9-0.3v-4.5c0.5,0.2,1,0.2,1.4,0.2c2,0,2.7-1.7,3-3.5l0.5-2.5l-5.3-28.3H221.4z M215,226.1h3.1v6.8
		c1.5-1.8,2.8-4.1,3.9-6.8h3.2c-0.2,0.7-0.5,1.3-0.8,1.9h7v2.9h-5.1c1.1,1.2,2.2,2.3,3.2,3.4l-2.5,2c-1-1.4-2-2.8-3.1-4.2l1.5-1.2
		H223c-1,1.8-2,3.3-3.1,4.6c-0.7-1-1.3-1.7-1.9-2.3v2.6H215V226.1z M199.8,161h4.4v11.5c0.5-1.3,2.1-2.2,3.6-2.2
		c4.2,0,5.9,2.8,5.9,7.7v21.1h-4.4v-20.8c0-2.5-0.9-3.7-2.5-3.7c-1.5,0-2.5,1.2-2.5,3.7v20.8h-4.4V161z M195.9,227.4h12.3v3.1h-4.9
		l-0.4,2.2h4.9v12.2h-2.9v-9h-5.6v9h-2.9v-12.2h3.6l0.4-2.2h-4.4V227.4z M182.2,178.1c0-4.9,2.4-7.8,6.8-7.8c4.4,0,6.8,2.8,6.8,7.7
		v1.9h-4.4v-1.7c0-2.4-0.7-3.7-2.4-3.7c-1.7,0-2.4,1.4-2.4,3.7v13.3c0,2.4,0.7,3.7,2.4,3.7c1.7,0,2.4-1.3,2.4-3.7v-1.6h4.4v1.9
		c0,4.9-2.4,7.7-6.8,7.7c-4.3,0-6.8-2.8-6.8-7.7V178.1z M164,170.7h4.2v1.8c0.5-1.3,2.2-2.2,3.7-2.2c4.2,0,5.9,2.8,5.9,7.7v21.1
		h-4.4v-20.8c0-2.5-0.9-3.7-2.5-3.7c-1.5,0-2.5,1.2-2.5,3.7v20.8H164V170.7z M163.6,228.3h8.8c-0.2-0.7-0.4-1.3-0.7-1.8l3.9-0.6
		c0.2,0.7,0.4,1.4,0.6,2.3h8.5v6.4h-3.1v-3.5h-15v3.5h-3.1V228.3z M173.4,240.9c-2.5,1.9-5.3,3.4-8.5,4.4l-1.5-2.6
		c3.6-0.8,6.6-2.1,9-3.7c-0.2-0.3-0.4-0.5-0.6-0.8c-2,1.1-4.3,1.9-6.8,2.6c-0.5-0.9-1-1.8-1.5-2.6c3.1-0.6,5.7-1.5,7.9-2.7h-3.8
		v-2.8h13.2v2.8h-5c-0.5,0.4-1,0.7-1.5,1.1c0.7,0.9,1.2,1.7,1.7,2.6c2.5-1.3,4.7-2.6,6.3-3.7l1.8,2.8l-3.6,1.9c1,2.9,2.7,5.1,5,6.6
		c-0.9,1-1.8,1.9-2.6,2.8c-1.9-1.7-3.6-4.4-4.8-8.2l-1,0.5c0.4,1.3,0.6,2.6,0.6,3.9c0,1.1-0.1,2-0.3,2.7c-0.2,0.7-0.5,1.2-1,1.7
		c-0.5,0.4-1,0.7-1.6,0.8c-0.6,0.1-2,0.2-4.3,0.2c-0.2-1.2-0.5-2.2-0.7-3.1c-1.6,0.9-3.3,1.7-5.2,2.4c-0.5-1-1.1-2-1.8-3
		c4.5-1.2,8.1-3,10.9-5.5C173.7,241.5,173.6,241.2,173.4,240.9z M161.1,230.6v11.2h-5v4.4l2.1-0.2c-0.3-0.8-0.5-1.6-0.8-2.3l2.6-0.8
		c0.9,2.2,1.7,4.7,2.4,7.5l-2.7,0.9c-0.2-0.8-0.4-1.6-0.7-2.3l-11.3,1.4l-0.4-3.3l5.7-0.5v-4.7h-2.2v0.8h-2.8v-12h5v-4.4h3.1v4.4
		H161.1z M138.9,229.6v2.9l-1,4.9l-2.7-0.6l0.8-4.1h-4.4c-0.5,1.7-1,3.2-1.5,4.4c-1-0.6-1.8-1-2.6-1.4c1.1-2.7,2-5.9,2.7-9.7
		l2.8,0.6c-0.2,1-0.4,2-0.7,3H138.9z M130.5,242.8c0.7-2,1.1-4.7,1.1-7.9h2.8c0,1.1,0,2.1-0.1,3c0.6,4.7,2.3,7.9,5.1,9.8
		c-0.4,0.8-1,1.9-1.7,3.4c-2.2-1.9-3.7-4.3-4.6-7.4c-0.7,2.7-2.2,5.2-4.6,7.6c-0.7-1-1.3-2-2-2.9
		C128.4,246.7,129.8,244.9,130.5,242.8z M124.6,244.7l2-1.6c0.8,1,1.5,1.9,2.1,2.8l-2.1,1.8C126,246.7,125.3,245.7,124.6,244.7z
		 M148.6,263v6.9h-18.1V263H148.6z M128.4,270.7h22.4v1.9h-22.4V270.7z M145.3,178c0-4.9,2.6-7.7,7.1-7.7c4.4,0,7.1,2.8,7.1,7.7v8.2
		h-9.8v5.3c0,2.5,1.1,3.7,2.7,3.7s2.7-1.2,2.7-3.7v-1.6h4.4v1.9c0,4.9-2.6,7.7-7.1,7.7s-7.1-2.8-7.1-7.7V178z M146.5,226.8l2.2,2.2
		c-0.9,1.2-1.9,2.4-3,3.6c1,2.9,1.6,6.2,1.6,10.1c0,2.7-0.1,4.6-0.4,5.5c-0.3,0.9-0.8,1.6-1.6,2s-2.2,0.5-4.3,0.4
		c-0.1-0.8-0.2-1.9-0.5-3.3c1,0.2,1.8,0.2,2.2,0.2c0.4,0,0.7-0.1,1-0.3c0.2-0.2,0.4-0.5,0.5-0.9c0.1-0.4,0.1-1.1,0.1-2.2
		c0-1,0-2-0.1-2.9c-0.9,1.3-1.9,2.5-3.2,3.7c-0.3-0.6-0.7-1.6-1.4-3c1.5-1.3,2.9-2.9,4-4.7c-0.1-0.7-0.3-1.4-0.5-2
		c-0.6,0.5-1.2,1.1-1.8,1.6c-0.7-1.2-1.2-2.1-1.7-2.8c0.8-0.6,1.6-1.3,2.4-2.1c-0.6-1.3-1.3-2.5-2.1-3.5l2.1-1.9
		c0.9,0.9,1.6,1.9,2.2,3.1C145,228.7,145.7,227.8,146.5,226.8z M132.1,170.7l2.2,15.6c0.4,2.6,0.7,7,0.7,7h0.1c0,0,0.3-4.5,0.7-7
		l2.2-15.6h4.5l-5,28.3h-5l-4.9-28.3H132.1z M119.8,161h4.4v5.6h-4.4V161z M119.8,170.7h4.4v28.3h-4.4V170.7z M116.7,227.8h4.4V226
		h3v1.8h4.3v2.7h-4.3v1.6h3.4v2.7h-10.4v-2.7h4v-1.6h-4.4V227.8z M127.5,236.1v2.7h-10.1v-2.7H127.5z M121.3,247.7
		c0.2-0.2,0.3-0.4,0.3-0.7v-4.1h-4.8v-2.7h11.9v2.7h-4.1v5.2c0,0.8-0.1,1.4-0.4,1.9s-0.7,0.8-1.2,0.9s-1.7,0.2-3.5,0.2
		c-0.1-0.5-0.2-1-0.3-1.5l-2.5-1c0.5-1.5,1-3.3,1.5-5.4l2.6,0.8c-0.3,1.4-0.7,2.7-1,3.9C120.6,248,121.1,247.9,121.3,247.7z
		 M101,170.5c0-4.9,2.6-7.7,7.1-7.7s7,2.8,7,7.7v4.1h-4.4v-3.8c0-2.5-0.9-3.7-2.6-3.7s-2.6,1.2-2.6,3.7v20.8c0,2.5,0.9,3.6,2.6,3.6
		s2.6-1.1,2.6-3.6v-6.7H108v-4.1h7.1v18.3h-2.3l-0.7-2c-0.8,1.4-2.5,2.5-4.6,2.5c-4.2,0-6.6-2.8-6.6-7.7V170.5z M106.8,245.1
		l0.8-3.8h-4.2c-0.4,4.7-2.8,8.1-7.2,10c-0.7-1.1-1.5-2.1-2.2-3c3.8-1.4,6-3.7,6.4-7h-3.4v-1.8c-0.6,0.3-1.2,0.5-1.9,0.7l-1.5-3.1
		c2.4-0.6,4.9-1.6,7.3-3h-6.5v-2.5h9.1v-1.7c-2.5,0.1-5.1,0.1-7.7,0.1c-0.1-0.8-0.3-1.7-0.6-2.7c6.8,0,13.1-0.2,18.8-0.6l0.5,2.7
		c-2.7,0.2-5.3,0.3-8.1,0.4v1.8h9.2v2.5h-6.6c2.2,1.2,4.7,2.1,7.3,2.5c-0.5,1.1-1,2.2-1.5,3.3c-3.2-1-6-2.6-8.4-5v3.5h-3v-3.3
		c-1.6,1.5-3.3,2.7-5.1,3.6h12.6l-0.6,3.8h4.1c-0.1,2.4-0.2,4.1-0.3,5c-0.1,0.9-0.4,1.6-0.9,2.1c-0.5,0.5-1.2,0.8-2.1,0.9
		c-0.8,0.1-2.4,0.2-4.6,0.1c-0.2-1.3-0.4-2.4-0.6-3.3c1,0.1,2,0.1,2.9,0.1c0.9,0,1.5-0.1,1.8-0.4c0.3-0.3,0.4-0.9,0.4-2H106.8z
		 M109.5,283c-0.1-1.4-0.3-2.7-0.6-3.9c0.3,0.1,0.5,0.1,0.8,0.1c0.9,0,1.3-0.4,1.3-1.2c0-1.7-0.7-3.4-2-5.1c0.6-2.2,1.2-4.5,1.7-6.7
		h-1.9v21.1h-2.8v-24.1h7.7v2.4c-0.5,2.1-1.2,4.4-1.9,6.9c1.5,1.8,2.2,4,2.2,6.5C113.9,281.6,112.4,283,109.5,283z M126.1,286.9
		c-2.3-1.2-4-2.6-5.2-4.4c0,1.2-0.1,2.1-0.1,2.8c-3,0.8-5,1.4-6,1.9l-1.3-2.7c0.5-0.6,0.8-1.5,0.8-2.7v-18.7h12v13.1h-0.6l1.9,2.7
		l-3.5,2.3c0.9,0.8,2.1,1.5,3.6,2.1C127.2,284.4,126.6,285.6,126.1,286.9z M150.8,286.4h-22.6v-1.9h9.7v-1h-8.3v-1.8h8.3v-0.9h-7.5
		v-7.4h18.1v7.4H141v0.9h8.5v1.8H141v1h9.8V286.4z M159.2,284.1c0,0.8-0.1,1.4-0.4,1.9c-0.3,0.5-0.7,0.8-1.2,0.9
		c-0.5,0.1-1.7,0.2-3.5,0.2c-0.1-0.5-0.2-1-0.3-1.5l-2.5-1c0.5-1.5,1-3.3,1.5-5.4l2.6,0.8c-0.3,1.4-0.7,2.7-1,3.9
		c1,0.1,1.5,0,1.7-0.2c0.2-0.2,0.3-0.4,0.3-0.7v-4.1h-4.8v-2.7h11.9v2.7h-4.1V284.1z M161.2,279c0.8,1,1.5,1.9,2.1,2.8l-2.1,1.8
		c-0.6-0.9-1.2-1.9-2-2.9L161.2,279z"/>
	<rect x="203.1" y="273.9" class="st1" width="5.5" height="1.4"/>
	<path class="st1" d="M155,178.3c0-2.5-1-3.7-2.7-3.7s-2.7,1.2-2.7,3.7v4.2h5.4V178.3z"/>
	<rect x="203.5" y="281.5" class="st1" width="11.1" height="2"/>
	<rect x="203.1" y="266.9" class="st1" width="5.5" height="1.4"/>
	<path class="st1" d="M174.6,245.6c0-0.3,0-0.6-0.1-1c-1.3,1.1-2.7,2.2-4.3,3.1c1,0.1,1.7,0.2,2.3,0.2
		C173.9,247.9,174.6,247.2,174.6,245.6z"/>
	<path class="st1" d="M184,275.5c0.9,1.5,1.9,2.8,3.2,4c1.6-1.3,2.8-2.6,3.7-4H184z"/>
	<path class="st1" d="M386.7,448.8l193.9,221.9l139.4-157V383.9l-139.4-157L386.7,448.8z M570.7,455.3c1,0.8,2.1,1.7,3.4,2.9v-0.9
		h3.9v-2.1h3.1v2.1h3.8v-2.1h3.1v2.1h3.9v2.6H588v1.6h-3.1v-1.6h-3.8v1.6H578v-1.6h-3.9v-1l-1.9,2.1c-1-1.1-2.2-2.2-3.5-3.4
		L570.7,455.3z M591.1,466.5v10.1c0,1-0.2,1.7-0.6,2.2c-0.4,0.5-1,0.8-1.6,0.9c-0.7,0.1-2.1,0.1-4.2,0.2c-0.2-0.9-0.4-1.7-0.7-2.5
		l-2.5-1.6c0.7-0.8,1.3-1.7,1.8-2.8l-1.2,1.1c-0.3-0.4-0.5-0.7-0.8-1.1c-0.5,1.4-1.2,2.8-2.2,4.3c-0.2-0.2-0.6-0.6-1.3-1.1v3.8h-3
		v-13.5h4.4v-2.1h-5.2v-2.6h17.7v2.6h-4.9v2.1H591.1z M574.2,470.5l-2.3,9.6c-1.1-0.4-2.1-0.8-3.1-1c0.8-3,1.6-6.2,2.3-9.7
		C572.4,469.9,573.5,470.3,574.2,470.5z M546.3,397h4.4v5.6h-4.4V397z M546.3,406.7h4.4v28.3h-4.4V406.7z M544.6,459.1v-2.3h6.4
		v-1.7h3v1.7h3v-1.7h3v1.7h5.6v6.1h-5.6v1.4h6.5c0,1.3-0.1,2.5-0.2,3.4c-0.1,0.9-0.3,1.6-0.7,2.1c-0.4,0.4-1,0.7-1.8,0.7v4.6h-3
		v-3.9h-10.6v4.4h-3v-4.3c-0.7,0.3-1.5,0.6-2.3,0.9c-0.4-0.8-0.9-1.7-1.5-2.7c2.9-0.8,4.8-1.7,5.9-3h-4.7l0.9-6.1h5.5
		c0-0.4,0-0.9,0-1.4H544.6z M566.5,477.5l-1.5,2.8c-2.9-1.2-6.2-2.4-9.7-3.6c-1.4,1.9-4.7,3-9.9,3.5c-0.3-0.9-0.8-1.9-1.3-3
		c3.4-0.2,5.9-0.6,7.4-1.3c1.5-0.7,2.3-2,2.3-4.1h3c-0.1,0.9-0.2,1.8-0.4,2.5C559.5,475.2,562.8,476.3,566.5,477.5z M531.4,455h3.3
		v7h6v14.4c0,1-0.2,1.8-0.7,2.4c-0.5,0.6-1.1,0.9-2,1c-0.9,0.1-2.5,0.2-4.7,0.1c-0.2-1.1-0.5-2.3-0.9-3.4c1.3,0.1,2.4,0.1,3.3,0.1
		c1.1,0,1.6-0.5,1.6-1.6v-0.4h-8.6v5.2h-3.4V462h6V455z M538.8,492.1v9.7h-17.1v-9.7H538.8z M524.7,457.4l2.3-1.9
		c1.3,1.4,2.5,2.7,3.6,4l-2.5,2C527.1,460.3,526,458.9,524.7,457.4z M516.6,414c0-4.9,2.7-7.7,7.1-7.7c4.4,0,7.1,2.8,7.1,7.7v13.8
		c0,4.9-2.7,7.7-7.1,7.7c-4.4,0-7.1-2.8-7.1-7.7V414z M524.5,458.7l-2.1,2.6c-1.4-1.5-2.6-2.7-3.7-3.6l2-2.3
		C521.9,456.4,523.2,457.4,524.5,458.7z M506.7,462.4c-0.1,1.4-0.2,2.5-0.4,3.5c1.6,1.3,3.6,2.9,5.8,4.8l-2.4,2.6
		c-1.1-1.2-2.6-2.7-4.5-4.5c-1,1.8-2.5,3.5-4.5,4.9c-0.8-1-1.6-1.9-2.5-2.7c3.4-2.2,5.2-5,5.4-8.6H498V480h-3.2v-20.9h8.8
		c0-1.4,0.1-2.8,0.1-4.1h3.1c0,1.5,0,2.8,0,4.1h8.7v16.6c0,1.3-0.3,2.2-0.8,2.9c-0.5,0.7-1.3,1.1-2.4,1.1c-1,0.1-2.5,0.1-4.3,0.1
		c-0.2-1-0.4-2.1-0.7-3.3c1.1,0.1,2.1,0.1,3.1,0.1c0.5,0,0.9,0,1.2-0.1c0.2-0.1,0.4-0.2,0.5-0.5c0.1-0.3,0.2-0.6,0.2-1v-12.6H506.7z
		 M499.4,406.7h4.2v1.9c0.5-1.4,2.3-2.3,3.9-2.3c4.2,0,6.1,2.8,6.1,7.7v13.8c0,5-2,7.7-6.1,7.7c-1.5,0-3.3-0.9-3.7-2.2v12.2h-4.4
		V406.7z M473,406.7h4.2v1.8c0.5-1.3,2.2-2.2,3.7-2.2c2.5,0,3.8,0.9,4.6,2.7c0.8-1.7,2.4-2.7,4.6-2.7c4.2,0,5.7,2.8,5.7,7.7v21.1
		h-4.4v-20.8c0-2.5-0.8-3.7-2.4-3.7c-1.5,0-2.4,1.2-2.4,3.7v20.8h-4.4v-20.8c0-2.5-0.8-3.7-2.4-3.7c-1.5,0-2.4,1.2-2.4,3.7v20.8H473
		V406.7z M459.2,399.2h11.1v4.3h-6.6v10.8h5.8v4.4h-5.8v12.1h6.6v4.2h-11.1V399.2z M491.3,466.5h-8.1v2.3h7.1V480h-3.2v-1.6h-9v1.6
		h-3.2v-11.2h5v-7.5h3.3v2.1h8.1V466.5z M491.8,460.9h-18.3v5.7c0,6.4-0.8,10.9-2.5,13.7c-0.9-0.9-1.8-1.7-2.8-2.5
		c1.4-2.6,2-6.5,2-11.6v-8.4h9.3c-0.2-0.6-0.5-1.2-0.7-1.8l3.9-1c0.3,0.9,0.7,1.8,1,2.8h8V460.9z M501.4,512.7
		c0,0.8-0.2,1.4-0.5,1.9c-0.3,0.5-0.8,0.7-1.3,0.9c-0.6,0.1-1.6,0.2-3.1,0.2c-0.1-1-0.2-2-0.5-2.9l-0.5,1.1
		c-0.6-0.4-1.5-0.8-2.5-1.3c0.8-1.6,1.5-3.5,2.1-5.6l2.7,0.9c-0.4,1.5-0.9,3-1.5,4.4c0.4,0,0.8,0.1,1.2,0.1c0.6,0,0.9-0.4,0.9-1.1
		v-4.7h-4.5v-2.8h4.5v-1.6h-4.9v-2.8h2.6c-0.3-0.7-0.7-1.4-1-2l2.6-1.1c0.6,1.1,1.2,2.2,1.6,3.1h1c0.8-1.4,1.3-2.5,1.6-3.1h-8v-2.8
		h4.2c-0.2-0.6-0.4-1.2-0.6-1.7l3.3-0.6c0.2,0.7,0.5,1.4,0.7,2.3h4v2.8h-3.3c0.4,0.2,1.3,0.6,2.5,1.2c-0.3,0.4-0.7,1.1-1.2,2h2.5
		v2.8h-4.6v1.6h4.2v2.8h-4.2V512.7z M517,499.3v3.3h-1.8v13.2H512v-13.2h-2.1v1.4c0,5.4-1.1,9.4-3.3,12.3c-1.1-1-2.1-1.8-3-2.5
		c0.9-0.9,1.6-1.9,2.1-3.2l-2.4,1.5c-0.6-1.3-1.2-2.6-1.8-3.8l2.3-1.2c0.6,0.8,1.2,2,2,3.5c0.7-1.6,1-3.6,1-6v-11.4
		c3.6-0.4,6.6-1,8.8-1.9l1.4,3.3c-2.1,0.6-4.5,1-7.1,1.3v3.4H517z M520.4,462.2c1.5,1.1,2.8,2.2,3.9,3.3l-2.2,2.6
		c-1-1-2.2-2.2-3.7-3.5L520.4,462.2z M520.7,469c1.3,0.5,2.3,0.9,3.2,1.1l-2.1,9.8c-1.2-0.4-2.3-0.7-3.3-1
		C519.3,476.1,520,472.7,520.7,469z M529.3,515.6H526v-1.2h-3.3v1.2h-3.3v-11.9h9.9V515.6z M541,515.6h-3.3v-1.2h-3.4v1.2h-3.3
		v-11.9h9.9V515.6z M537.8,461.8l-2.2-2c1.2-1.3,2.4-2.7,3.5-4.2l2.6,2C540.3,459.1,539.1,460.5,537.8,461.8z M538.5,416.8v18.3
		h-4.4v-28.3h4.3v3.6c0.9-2.6,3.4-3.9,5.9-3.8v4.9C541,410.9,538.5,412.6,538.5,416.8z M555.5,502.9v8.1c0,1,0.6,1.6,1.7,1.6h4.3
		c1.2,0,1.8-0.5,2-1.5c0.2-1.3,0.3-2.3,0.4-3c1.1,0.4,2.1,0.7,3.1,1c-0.1,1-0.3,2.1-0.6,3.3c-0.4,2.2-1.9,3.3-4.4,3.3h-6
		c-2.4,0-3.5-1.2-3.5-3.6v-9.9c-0.3,0.2-0.5,0.4-0.7,0.6c-0.1-0.1-0.2-0.3-0.3-0.4c-0.1,1.4-0.1,2.4-0.1,3.2
		c-0.6,0.2-1.3,0.3-2.1,0.6v6.7c0,1.8-0.7,2.8-2.1,3.1c-0.9,0.1-1.9,0.2-2.9,0.2c-0.2-0.8-0.4-2-0.8-3.5c0.8,0.1,1.4,0.1,1.9,0.1
		c0.5,0,0.8-0.4,0.8-1.2V507c-0.8,0.2-1.7,0.5-2.6,0.8l-0.3-3.6c0.8-0.2,1.8-0.4,3-0.6v-4.8h-2.6v-3.3h2.6v-4.3h3.1v4.3h2.2v3.3
		h-2.2v4.1c0.7-0.2,1.3-0.3,2.1-0.5c-0.4-0.5-0.9-1.2-1.5-1.9c3-2.5,5.4-5.6,7.3-9.2h3.4c-0.1,0.3-0.2,0.5-0.4,0.8
		c2.1,3.2,4.4,5.6,7,7.4c-0.6,1-1.1,2.1-1.6,3.2c-0.4-0.3-0.8-0.6-1.2-0.9c0,1.7-0.1,2.9-0.1,3.4c-0.1,3.2-1.4,4.8-3.8,4.8
		c-1.3,0-2.4,0-3.2,0c-0.1-0.7-0.3-1.7-0.6-3.1c1.4,0.1,2.4,0.2,3,0.2c1,0,1.5-0.6,1.6-1.9c0-0.7,0.1-1.4,0.1-2.1H555.5z
		 M568.2,427.8c0,4.9-2.7,7.7-7.1,7.7c-4.4,0-7.1-2.8-7.1-7.7V414c0-4.9,2.7-7.7,7.1-7.7c4.4,0,7.1,2.8,7.1,7.7V427.8z M570.2,462
		c1.2,0.9,2.5,2,3.8,3.2l-2.1,2.7c-1.2-1.3-2.4-2.4-3.6-3.5L570.2,462z M590.5,514.4c-0.5,0.7-1.3,1.1-2.3,1.1h-2.7
		c-2.6,0-3.9-1.3-3.9-3.9v-6h-3.2c0,5-2.5,8.6-7.4,10.7c-0.8-1.1-1.7-2.1-2.5-3c4.2-1.7,6.3-4.2,6.4-7.7h-6.2v-3.2h10.1v-4h-5
		c-0.6,1.2-1.2,2.3-1.9,3.4c-1.2-0.9-2.1-1.6-2.7-1.9c1.7-2.8,2.9-5.6,3.6-8.3l3.2,0.7c-0.3,1-0.6,2-0.9,2.9h3.7v-4.1h3.5v4.1h8v3.2
		h-8v4h9.4v3.2h-6.6v5.2c0,1,0.3,1.5,1,1.5h1c0.5,0,0.8-0.2,1.1-0.6c0.3-0.4,0.5-1.7,0.8-3.9c1.1,0.5,2.1,0.9,3.1,1.3
		C591.5,511.9,591,513.7,590.5,514.4z M616.7,514.8h-23.1v-3.6h8.8v-20h3.9v7h8.8v3.6h-8.8v9.3h10.4V514.8z M615.3,480.3
		c-1.3-1.2-2.8-2.6-4.6-4c-1,1.7-2.8,3.1-5.3,4c-0.5-0.9-1-1.6-1.5-2.3v1.6h-2.8v-0.8h-3.3v1H595v-8.1c-0.2,0.1-0.5,0.1-0.7,0.2
		c-0.3-0.9-0.6-1.8-1-2.5c1.6-0.5,3-1,4.1-1.8l-1.2-0.6l1.4-2l1.9,0.9c0.6-0.6,1.1-1.3,1.5-2h-3.1c-0.6,1-1.3,2-2.1,2.9
		c-0.5-0.4-1.3-0.9-2.2-1.4c1.7-1.8,2.9-3.7,3.5-5.7l2.5,1c-0.1,0.3-0.2,0.5-0.3,0.7h4.9v2.4c-0.6,1.2-1.3,2.4-2.1,3.3
		c1,0.6,2.1,1.2,3.2,1.8l-1.3,2.5l0,0v6.2c2.2-0.8,3.6-1.8,4.4-3c0.7-1.2,1.1-3.1,1.1-5.8V465h2.8v4.1c0,1.6-0.1,3-0.4,4.2
		c2,1.4,3.7,2.7,5.3,3.9L615.3,480.3z M597.2,455.6l3.3-0.5l0.7,2.2h3.5V456h12v3h-4.9c-0.1,0.8-0.2,1.5-0.3,2.2h4.5v13h-2.8v-10.1
		H608v10.1h-2.8v-13h3.2c0.1-0.7,0.2-1.4,0.3-2.2h-3.9v2.1h-2.5v-1.4h-6.1v1.8h-2.5v-4.3h4C597.6,456.7,597.4,456.2,597.2,455.6z
		 M621.6,459.1v13h-2.3v-15.8h8.3V472h-2.3v-12.9H621.6z M622.5,469v-8.7h1.9v8.7c0,0.9-0.1,1.8-0.2,2.7l4.5,5.4l-2.4,2.2
		c-0.9-1.5-1.8-3-2.8-4.6c-0.7,2.1-1.9,4-3.5,5.6c-0.3-0.7-0.9-1.7-1.7-3C621.1,475,622.5,472.2,622.5,469z M641.6,497.5h-9.7v2.9
		h8.5v9c0,0.7-0.1,1.4-0.3,1.9c-0.2,0.5-0.5,1-1,1.3s-0.9,0.5-1.5,0.6s-1.9,0.1-3.9,0.2c-0.3-1.1-0.5-2.2-0.9-3.3
		c0.9,0.1,1.8,0.1,2.7,0.1c1.1,0,1.7-0.6,1.7-1.7v-4.9h-5.3v12.5h-3.4v-12.5h-4.7v9.8h-3.2v-13h8v-2.9h-9.6v-3.3h9.3
		c-0.3-0.9-0.6-1.6-0.9-2.4l3.8-0.9c0.4,1.1,0.8,2.2,1.1,3.3h9.4V497.5z M631.8,479.2v1H629v-11.4h11.6v11.4h-2.8v-1H631.8z
		 M668.2,397h4.4v5.6h-4.4V397z M668.2,406.7h4.4v28.3h-4.4V406.7z M666.1,477.3c-0.4,1.5-1.7,2.3-3.7,2.3h-2.5
		c-2.2,0-3.3-1.2-3.3-3.5v-20.6h3.3v19.7c0,0.9,0.4,1.3,1.2,1.3h0.6c0.8,0,1.3-0.4,1.5-1.1c0.3-1.6,0.5-3.2,0.6-4.8
		c0.9,0.5,2,0.9,3.3,1.4C666.8,474.2,666.5,475.9,666.1,477.3z M650.8,406.7h4.2v1.8c0.5-1.3,2.2-2.2,3.7-2.2c4.2,0,5.9,2.8,5.9,7.7
		v21.1h-4.4v-20.8c0-2.5-0.9-3.7-2.5-3.7c-1.5,0-2.5,1.2-2.5,3.7v20.8h-4.4V406.7z M652,458.3l-2.1,1.2h4v3.1
		c-0.7,1.4-1.6,2.9-2.6,4.4v1.4l1-1.3c1.1,0.8,2.3,1.7,3.7,2.8l-2,2.5c-1-1-1.9-1.8-2.6-2.5v10.2h-3.2v-9.2
		c-1.1,1.3-2.4,2.5-3.8,3.8c-0.4-1.6-0.7-3-1.1-4.2c3.2-2.8,5.4-5.4,6.8-7.7h-5.8v-3.4h4.7c-0.6-1-1.2-2-1.8-2.9l2.8-1.5
		C650.4,455.8,651.1,456.9,652,458.3z M640.6,410.5c-1.7,0-2.4,1.3-2.4,3.8v1.7h-4.4v-1.7c0-4.9,2.5-8,6.9-8c5.5,0,6.5,4,6.5,9.1
		v9.6c0,6.3,0.1,8.1,0.5,10.1h-4.3c-0.2-0.7-0.3-1.5-0.3-2.2c-0.9,1.7-2.6,2.6-4.6,2.6c-2.7,0-5.4-2.2-5.4-7c0-4.6,1.8-6.9,5.5-8.9
		c2.9-1.6,4.3-2.6,4.3-5.7C642.8,412,642.3,410.5,640.6,410.5z M633.8,457.8h2.1l1.2-2.8l2.8,0.9l-1.2,1.9h2.6v10h-13v-10h2.5
		l-1.1-1.8l2.6-1L633.8,457.8z M608,406.7h4.2v1.8c0.5-1.3,2.2-2.2,3.7-2.2c2.5,0,3.8,0.9,4.6,2.7c0.8-1.7,2.4-2.7,4.6-2.7
		c4.2,0,5.7,2.8,5.7,7.7v21.1h-4.4v-20.8c0-2.5-0.8-3.7-2.4-3.7c-1.5,0-2.4,1.2-2.4,3.7v20.8h-4.4v-20.8c0-2.5-0.8-3.7-2.4-3.7
		c-1.5,0-2.4,1.2-2.4,3.7v20.8H608V406.7z M595.8,406.7h4.3v3.6c0.9-2.6,3.4-3.9,5.9-3.8v4.9c-3.3-0.6-5.8,1.2-5.8,5.4v18.3h-4.4
		V406.7z M588.9,399.2l5.1,35.9h-4.5l-1.1-9.2h-5l-1.1,9.2h-4.5l5.2-35.9H588.9z"/>
	<path class="st1" d="M586.6,411.2c-0.3-2.6-0.6-7-0.6-7h-0.1c0,0-0.3,4.5-0.6,7L584,422h3.8L586.6,411.2z"/>
	<path class="st1" d="M556.9,459.1h-3c0,0.3,0,0.8,0,1.4h3V459.1z"/>
	<rect x="559.9" y="459.1" class="st1" width="2.8" height="1.4"/>
	<rect x="525.2" y="495.3" class="st1" width="10.1" height="3.3"/>
	<path class="st1" d="M561.4,468.9l-0.3-0.9c1.2,0,1.9,0,2-0.1c0.1-0.1,0.2-0.2,0.3-0.4s0.1-0.5,0.1-0.9h-3.7v1.9h-3v-1.9h-4.3
		c-0.6,1-1.2,1.8-1.8,2.3H561.4z"/>
	<path class="st1" d="M556.9,462.8h-3.2c-0.1,0.5-0.2,1-0.3,1.4h3.4V462.8z"/>
	<rect x="528.8" y="465" class="st1" width="8.6" height="1.9"/>
	<rect x="528.8" y="469.8" class="st1" width="8.6" height="1.9"/>
	<path class="st1" d="M547.6,464.3h2.8c0.1-0.4,0.2-0.9,0.3-1.4h-2.8L547.6,464.3z"/>
	<path class="st1" d="M586.7,471.1l1.6,1.7v-3.9h-1.4C586.9,469.6,586.8,470.4,586.7,471.1z"/>
	<rect x="582" y="464.4" class="st1" width="2.2" height="2.1"/>
	<path class="st1" d="M577.7,474.3c0.9-1.5,1.5-3.4,1.6-5.5h-1.6V474.3z"/>
	<path class="st1" d="M582,468.9c0,0.7-0.1,1.2-0.1,1.6l1.6,1.8c0.3-1,0.5-2.2,0.6-3.4H582z"/>
	<path class="st1" d="M586,473.8c-0.5,1.2-1.1,2.4-1.9,3.5c1,0,1.9,0.1,2.6,0.1c0.9,0,1.4-0.5,1.4-1.4v-1.5l-0.9,1
		C586.8,474.9,586.4,474.4,586,473.8z"/>
	<rect x="597.8" y="473.8" class="st1" width="3.3" height="2.2"/>
	<rect x="631.8" y="471.3" class="st1" width="6" height="1.5"/>
	<path class="st1" d="M630.7,465.3h3v-4.9h-3V465.3z M632.1,460.9c0.3,0.6,0.7,1.6,1.4,3.1c-0.4,0.2-0.9,0.4-1.4,0.6
		c-0.3-1-0.8-2-1.3-3.1L632.1,460.9z"/>
	<path class="st1" d="M523.7,431.3c1.7,0,2.7-1.2,2.7-3.7v-13.3c0-2.5-1.1-3.7-2.7-3.7c-1.7,0-2.7,1.2-2.7,3.7v13.3
		C521,430.1,522.1,431.3,523.7,431.3z"/>
	<path class="st1" d="M596.8,471h6.4c-1.1-0.7-2.1-1.3-3.1-1.9C599.1,469.8,598,470.5,596.8,471z"/>
	<path class="st1" d="M637.5,427.9c0,2.5,1,3.4,2.4,3.4c1.7,0,2.8-1.4,2.8-4.3v-6.2c-0.5,0.7-1.1,1.2-2.2,1.9
		C638.5,424.1,637.5,425.3,637.5,427.9z"/>
	<path class="st1" d="M638.8,460.3h-3v4.9h3V460.3z M637.3,464.7c-0.5-0.3-0.9-0.5-1.3-0.7c0.5-1.1,1-2.1,1.3-3.1l1.4,0.5
		C638.3,462.4,637.8,463.5,637.3,464.7z"/>
	<rect x="631.8" y="475.2" class="st1" width="6" height="1.5"/>
	<rect x="522.7" y="506.8" class="st1" width="3.3" height="4.5"/>
	<path class="st1" d="M561.1,410.5c-1.7,0-2.7,1.2-2.7,3.7v13.3c0,2.5,1.1,3.7,2.7,3.7c1.7,0,2.7-1.2,2.7-3.7v-13.3
		C563.8,411.7,562.7,410.5,561.1,410.5z"/>
	<rect x="478.1" y="471.8" class="st1" width="9" height="3.5"/>
	<path class="st1" d="M558.5,495c-1.2,1.8-2.5,3.5-3.9,5.1h8.1C561.1,498.5,559.7,496.8,558.5,495z"/>
	<rect x="534.3" y="506.8" class="st1" width="3.4" height="4.5"/>
	<path class="st1" d="M506.5,431.3c1.7,0,2.7-1.2,2.7-3.7v-13.3c0-2.5-1.1-3.7-2.7-3.7s-2.7,1.2-2.7,3.7v13.3
		C503.8,430.1,504.9,431.3,506.5,431.3z"/>
	<path class="st1" d="M151.7,688.5H149v13.2h2.6c1.9,0,2.7-1.4,2.7-3.7v-5.8C154.4,690,153.5,688.5,151.7,688.5z"/>
	<path class="st1" d="M166.5,707.7c-2.1,1.3-3,2.5-3,5.2c0,2.5,1,3.4,2.4,3.4c1.7,0,2.8-1.4,2.8-4.3v-6.2
		C168.3,706.5,167.7,707,166.5,707.7z"/>
	<path class="st1" d="M208,593.3L96.5,721h224.9L208,593.3z M158.8,698.3c0,4.7-2.1,7.8-7.2,7.8H149v14h-4.4v-35.9h7.1
		c5.1,0,7.2,3.1,7.2,7.8V698.3z M169.4,720.1c-0.2-0.7-0.3-1.5-0.3-2.2c-0.9,1.7-2.6,2.6-4.6,2.6c-2.7,0-5.4-2.2-5.4-7
		c0-4.6,1.8-6.9,5.5-8.9c2.9-1.6,4.3-2.6,4.3-5.7c0-1.9-0.5-3.4-2.2-3.4c-1.7,0-2.4,1.3-2.4,3.8v1.7h-4.4v-1.7c0-4.9,2.5-8,6.9-8
		c5.5,0,6.5,4,6.5,9.1v9.6c0,6.3,0.1,8.1,0.5,10.1H169.4z M189.2,720.1h-4.2v-1.8c-0.5,1.3-2.2,2.2-3.7,2.2c-4.2,0-5.9-2.8-5.9-7.7
		v-21.1h4.4v20.8c0,2.5,0.9,3.7,2.5,3.7c1.5,0,2.5-1.2,2.5-3.7v-20.8h4.4V720.1z M196,720.1h-4.4V682h4.4V720.1z M211.8,720.5
		c-4.3,0-7.2-2.7-7.2-7.7v-4.1h4.4v3.8c0,2.5,1.3,3.7,2.8,3.7c2.1,0,3.1-1.4,3.1-4.1c0-2.3-0.4-3.7-2.1-5.6l-5-5.8
		c-2.4-2.7-3-5-3-8.5c0-4.8,2.2-8.4,7.2-8.4c4.5,0,7.1,2.8,7.1,7.7v4.1h-4.4v-3.8c0-2.5-1.1-3.7-2.7-3.7c-1.9,0-2.8,1.7-2.8,4.1
		c0,2.3,0.4,3.7,2.1,5.6l5,5.8c2.4,2.7,3,5,3,8.5C219.3,716.9,216.8,720.5,211.8,720.5z M243.8,720.1h-4.4v-20.8
		c0-2.5-0.8-3.7-2.4-3.7c-1.5,0-2.4,1.2-2.4,3.7v20.8h-4.4v-20.8c0-2.5-0.8-3.7-2.4-3.7c-1.5,0-2.4,1.2-2.4,3.7v20.8H221v-28.3h4.2
		v1.8c0.5-1.3,2.2-2.2,3.7-2.2c2.5,0,3.8,0.9,4.6,2.7c0.8-1.7,2.4-2.7,4.6-2.7c4.2,0,5.7,2.8,5.7,7.7V720.1z M250.5,720.1h-4.4
		v-28.3h4.4V720.1z M250.5,687.5h-4.4V682h4.4V687.5z M261.6,696.2h-3.6V712c0,2.6,0.9,3.9,3.6,3.6v4.4c-5.7,0.5-8-2.7-8-7.5v-16.4
		h-2.1v-4.5h2.1V685h4.4v6.7h3.6V696.2z M271.9,720.1v-20.8c0-2.5-0.9-3.7-2.5-3.7c-1.5,0-2.5,1.2-2.5,3.7v20.8h-4.4V682h4.4v11.5
		c0.5-1.3,2.1-2.2,3.6-2.2c4.2,0,5.9,2.8,5.9,7.7v21.1H271.9z"/>
	<path class="st2" d="M568.8,479c1,0.3,2.1,0.6,3.1,1l2.3-9.6c-0.8-0.2-1.8-0.6-3.1-1.2C570.4,472.8,569.7,476.1,568.8,479z"/>
	<path class="st2" d="M588.2,511.7c-0.3,0.4-0.6,0.6-1.1,0.6h-1c-0.7,0-1-0.5-1-1.5v-5.2h6.6v-3.2h-9.4v-4h8v-3.2h-8v-4.1h-3.5v4.1
		H575c0.3-0.9,0.6-1.9,0.9-2.9l-3.2-0.7c-0.7,2.8-1.9,5.5-3.6,8.3c0.6,0.4,1.5,1,2.7,1.9c0.7-1,1.3-2.2,1.9-3.4h5v4h-10.1v3.2h6.2
		c-0.1,3.5-2.2,6.1-6.4,7.7c0.8,0.9,1.6,1.9,2.5,3c4.9-2.1,7.4-5.7,7.4-10.7h3.2v6c0,2.6,1.3,3.9,3.9,3.9h2.7c1,0,1.8-0.4,2.3-1.1
		c0.5-0.7,1.1-2.5,1.6-5.4c-1-0.4-2-0.8-3.1-1.3C588.7,510,588.4,511.3,588.2,511.7z"/>
	<path class="st2" d="M591.8,464.4v-2.6h-17.7v2.6h5.2v2.1h-4.4v13.5h3v-3.8c0.6,0.5,1.1,0.9,1.3,1.1c1-1.5,1.7-2.9,2.2-4.3
		c0.3,0.4,0.5,0.7,0.8,1.1l1.2-1.1c-0.4,1.1-1,2-1.8,2.8l2.5,1.6c0.2,0.8,0.5,1.6,0.7,2.5c2.1,0,3.6-0.1,4.2-0.2
		c0.7-0.1,1.2-0.4,1.6-0.9c0.4-0.5,0.6-1.3,0.6-2.2v-10.1h-4.2v-2.1H591.8z M577.7,474.3v-5.5h1.6
		C579.2,471,578.6,472.8,577.7,474.3z M582,464.4h2.2v2.1H582V464.4z M583.5,472.3l-1.6-1.8c0.1-0.4,0.1-0.9,0.1-1.6h2.2
		C584.1,470.1,583.9,471.3,583.5,472.3z M588.1,476c0,0.9-0.5,1.4-1.4,1.4c-0.7,0-1.6,0-2.6-0.1c0.8-1.1,1.4-2.3,1.9-3.5
		c0.4,0.5,0.8,1.1,1.2,1.6l0.9-1V476z M588.3,468.9v3.9l-1.6-1.7c0.1-0.7,0.2-1.4,0.2-2.2H588.3z"/>
	<path class="st2" d="M571.9,468l2.1-2.7c-1.3-1.2-2.6-2.3-3.8-3.2l-2,2.4C569.4,465.5,570.6,466.7,571.9,468z"/>
	<path class="st2" d="M545.4,460.5l-0.9,6.1h4.7c-1.1,1.2-3,2.2-5.9,3c0.6,1,1.1,1.9,1.5,2.7c0.8-0.3,1.6-0.6,2.3-0.9v4.3h3v-4.4
		h10.6v3.9h3v-4.6c0.8,0,1.4-0.3,1.8-0.7c0.4-0.4,0.6-1.1,0.7-2.1c0.1-0.9,0.1-2.1,0.2-3.4h-6.5v-1.4h5.6v-6.1h-5.6v-1.7h-3v1.7h-3
		v-1.7h-3v1.7h-6.4v2.3h6.4c0,0.6,0,1,0,1.4H545.4z M559.9,459.1h2.8v1.4h-2.8V459.1z M550.4,464.3h-2.8l0.3-1.4h2.8
		C550.7,463.4,550.5,463.8,550.4,464.3z M553.9,459.1h3v1.4h-3C553.9,459.9,553.9,459.4,553.9,459.1z M553.7,462.8h3.2v1.4h-3.4
		C553.6,463.8,553.7,463.3,553.7,462.8z M552.6,466.6h4.3v1.9h3v-1.9h3.7c0,0.4,0,0.7-0.1,0.9s-0.2,0.4-0.3,0.4
		c-0.1,0.1-0.8,0.1-2,0.1l0.3,0.9h-10.5C551.5,468.4,552.1,467.6,552.6,466.6z"/>
	<path class="st2" d="M559.5,506.9c-0.6,0-1.6-0.1-3-0.2c0.3,1.4,0.5,2.4,0.6,3.1c0.9,0,2,0,3.2,0c2.4-0.1,3.7-1.7,3.8-4.8
		c0-0.6,0-1.7,0.1-3.4c0.4,0.3,0.8,0.7,1.2,0.9c0.5-1.1,1-2.1,1.6-3.2c-2.5-1.7-4.9-4.2-7-7.4c0.1-0.3,0.2-0.6,0.4-0.8h-3.4
		c-1.9,3.7-4.3,6.7-7.3,9.2c0.6,0.7,1.2,1.4,1.5,1.9c-0.7,0.2-1.4,0.4-2.1,0.5v-4.1h2.2v-3.3h-2.2v-4.3h-3.1v4.3h-2.6v3.3h2.6v4.8
		c-1.2,0.3-2.1,0.5-3,0.6l0.3,3.6c0.9-0.3,1.8-0.5,2.6-0.8v4.5c0,0.8-0.3,1.2-0.8,1.2c-0.5,0-1.1,0-1.9-0.1c0.4,1.5,0.7,2.6,0.8,3.5
		c1,0,1.9-0.1,2.9-0.2c1.4-0.2,2.1-1.3,2.1-3.1v-6.7c0.8-0.2,1.5-0.4,2.1-0.6c0-0.7,0-1.8,0.1-3.2c0.1,0.2,0.2,0.3,0.3,0.4
		c0.2-0.2,0.5-0.4,0.7-0.6v9.9c0,2.4,1.2,3.6,3.5,3.6h6c2.5,0,4-1.1,4.4-3.3c0.2-1.2,0.4-2.3,0.6-3.3c-1-0.3-2-0.6-3.1-1
		c0,0.7-0.2,1.7-0.4,3c-0.1,1-0.8,1.5-2,1.5h-4.3c-1.1,0-1.7-0.5-1.7-1.6v-8.1h5.6c0,0.7,0,1.4-0.1,2.1
		C561,506.3,560.5,506.9,559.5,506.9z M554.6,500.1c1.4-1.6,2.7-3.3,3.9-5.1c1.2,1.9,2.6,3.6,4.1,5.1H554.6z"/>
	<path class="st2" d="M648.9,459.5h-4.7v3.4h5.8c-1.3,2.3-3.6,4.9-6.8,7.7c0.3,1.2,0.7,2.6,1.1,4.2c1.4-1.3,2.7-2.6,3.8-3.8v9.2h3.2
		v-10.2c0.7,0.7,1.6,1.5,2.6,2.5l2-2.5c-1.3-1.1-2.6-2-3.7-2.8l-1,1.3V467c1.1-1.5,1.9-2.9,2.6-4.4v-3.1h-4l2.1-1.2
		c-0.9-1.4-1.6-2.5-2.2-3.2l-2.8,1.5C647.7,457.5,648.3,458.5,648.9,459.5z"/>
	<path class="st2" d="M640.6,480.2v-11.4H629v11.4h2.8v-1h6v1H640.6z M631.8,471.3h6v1.5h-6V471.3z M631.8,476.7v-1.5h6v1.5H631.8z"
		/>
	<path class="st2" d="M618.3,477.3c0.8,1.3,1.4,2.3,1.7,3c1.6-1.6,2.8-3.5,3.5-5.6c1,1.6,1.9,3.1,2.8,4.6l2.4-2.2l-4.5-5.4
		c0.1-0.9,0.2-1.8,0.2-2.7v-8.7h-1.9v8.7C622.5,472.2,621.1,475,618.3,477.3z"/>
	<path class="st2" d="M631.1,490.9l-3.8,0.9c0.3,0.7,0.6,1.5,0.9,2.4h-9.3v3.3h9.6v2.9h-8v13h3.2v-9.8h4.7v12.5h3.4v-12.5h5.3v4.9
		c0,1.1-0.6,1.7-1.7,1.7c-0.9,0-1.8,0-2.7-0.1c0.3,1.1,0.6,2.2,0.9,3.3c2.1,0,3.4-0.1,3.9-0.2s1.1-0.3,1.5-0.6s0.8-0.8,1-1.3
		c0.2-0.5,0.3-1.2,0.3-1.9v-9h-8.5v-2.9h9.7v-3.3h-9.4C631.8,493.1,631.4,492,631.1,490.9z"/>
	<path class="st2" d="M663.2,475.4c-0.2,0.7-0.7,1.1-1.5,1.1h-0.6c-0.8,0-1.2-0.4-1.2-1.3v-19.7h-3.3v20.6c0,2.4,1.1,3.5,3.3,3.5
		h2.5c2.1,0,3.3-0.8,3.7-2.3c0.4-1.4,0.8-3.2,1.1-5.3c-1.3-0.5-2.4-0.9-3.3-1.4C663.7,472.2,663.5,473.8,663.2,475.4z"/>
	<path class="st2" d="M593.8,461.5h2.5v-1.8h6.1v1.4h2.5V459h3.9c-0.1,0.8-0.2,1.5-0.3,2.2h-3.2v13h2.8v-10.1h5.2v10.1h2.8v-13h-4.5
		c0.1-0.7,0.2-1.4,0.3-2.2h4.9v-3h-12v1.2h-3.5l-0.7-2.2l-3.3,0.5c0.2,0.6,0.4,1.1,0.6,1.7h-4V461.5z"/>
	<path class="st2" d="M612.1,469.1V465h-2.8v3.8c0,2.7-0.4,4.7-1.1,5.8c-0.7,1.2-2.2,2.2-4.4,3v-6.2l0,0l1.3-2.5
		c-1.1-0.6-2.1-1.2-3.2-1.8c0.8-1,1.5-2.1,2.1-3.3v-2.4h-4.9c0.1-0.2,0.2-0.5,0.3-0.7l-2.5-1c-0.6,1.9-1.8,3.8-3.5,5.7
		c1,0.5,1.7,1,2.2,1.4c0.8-0.9,1.5-1.9,2.1-2.9h3.1c-0.4,0.7-0.9,1.4-1.5,2l-1.9-0.9l-1.4,2l1.2,0.6c-1.2,0.7-2.5,1.3-4.1,1.8
		c0.3,0.7,0.7,1.5,1,2.5c0.2-0.1,0.5-0.1,0.7-0.2v8.1h2.8v-1h3.3v0.8h2.8V478c0.5,0.7,1,1.4,1.5,2.3c2.5-1,4.3-2.3,5.3-4
		c1.8,1.5,3.3,2.8,4.6,4l1.7-3c-1.5-1.2-3.3-2.5-5.3-3.9C612,472.1,612.1,470.7,612.1,469.1z M601.1,476h-3.3v-2.2h3.3V476z
		 M596.8,471c1.2-0.5,2.3-1.2,3.3-1.9c1,0.6,2,1.2,3.1,1.9H596.8z"/>
	<polygon class="st2" points="627.6,472 627.6,456.3 619.3,456.3 619.3,472.1 621.6,472.1 621.6,459.1 625.3,459.1 625.3,472 	"/>
	<polygon class="st2" points="606.3,501.9 615.1,501.9 615.1,498.3 606.3,498.3 606.3,491.3 602.5,491.3 602.5,511.2 593.6,511.2 
		593.6,514.8 616.7,514.8 616.7,511.2 606.3,511.2 	"/>
	<path class="st2" d="M553.9,471.8c-0.1,2-0.8,3.4-2.3,4.1c-1.5,0.7-4,1.1-7.4,1.3c0.5,1.1,0.9,2.1,1.3,3c5.2-0.5,8.5-1.7,9.9-3.5
		c3.5,1.2,6.7,2.4,9.7,3.6l1.5-2.8c-3.7-1.3-7-2.3-10-3.2c0.2-0.8,0.3-1.6,0.4-2.5H553.9z"/>
	<path class="st2" d="M523.9,470.1c-0.9-0.2-1.9-0.6-3.2-1.1c-0.7,3.7-1.4,7.1-2.2,10c1,0.3,2.1,0.6,3.3,1L523.9,470.1z"/>
	<path class="st2" d="M522,468.1l2.2-2.6c-1.1-1.1-2.4-2.2-3.9-3.3l-2.1,2.4C519.8,465.9,521,467,522,468.1z"/>
	<path class="st2" d="M505.6,503.8h-4.2v-1.6h4.6v-2.8h-2.5c0.5-0.9,1-1.5,1.2-2c-1.3-0.6-2.1-1-2.5-1.2h3.3v-2.8h-4
		c-0.2-0.9-0.5-1.6-0.7-2.3l-3.3,0.6c0.2,0.5,0.4,1.1,0.6,1.7h-4.2v2.8h8c-0.3,0.7-0.8,1.7-1.6,3.1h-1c-0.4-0.9-1-2-1.6-3.1
		l-2.6,1.1c0.4,0.6,0.7,1.3,1,2h-2.6v2.8h4.9v1.6h-4.5v2.8h4.5v4.7c0,0.8-0.3,1.1-0.9,1.1c-0.4,0-0.8,0-1.2-0.1
		c0.6-1.4,1.1-2.9,1.5-4.4l-2.7-0.9c-0.6,2.1-1.3,4-2.1,5.6c1.1,0.4,1.9,0.9,2.5,1.3l0.5-1.1c0.2,0.9,0.4,1.8,0.5,2.9
		c1.5,0,2.5-0.1,3.1-0.2c0.6-0.1,1-0.4,1.3-0.9c0.3-0.5,0.5-1.1,0.5-1.9v-6.1h4.2V503.8z"/>
	<path class="st2" d="M517,494.6l-1.4-3.3c-2.3,0.8-5.2,1.5-8.8,1.9v11.4c0,2.4-0.3,4.4-1,6c-0.7-1.5-1.4-2.7-2-3.5l-2.3,1.2
		c0.7,1.2,1.3,2.4,1.8,3.8l2.4-1.5c-0.5,1.3-1.2,2.3-2.1,3.2c0.9,0.7,1.9,1.5,3,2.5c2.2-2.8,3.3-6.9,3.3-12.3v-1.4h2.1v13.2h3.1
		v-13.2h1.8v-3.3h-7.1v-3.4C512.5,495.6,514.8,495.2,517,494.6z"/>
	<path class="st2" d="M519.4,515.6h3.3v-1.2h3.3v1.2h3.3v-11.9h-9.9V515.6z M522.7,506.8h3.3v4.5h-3.3V506.8z"/>
	<path class="st2" d="M535.5,459.8l2.2,2c1.3-1.3,2.5-2.7,3.8-4.2l-2.6-2C537.9,457.1,536.8,458.5,535.5,459.8z"/>
	<path class="st2" d="M531.1,515.6h3.3v-1.2h3.4v1.2h3.3v-11.9h-9.9V515.6z M534.3,506.8h3.4v4.5h-3.4V506.8z"/>
	<path class="st2" d="M482.7,455l-3.9,1c0.2,0.6,0.5,1.2,0.7,1.8h-9.3v8.4c0,5.2-0.6,9.1-2,11.6c1,0.8,1.9,1.6,2.8,2.5
		c1.6-2.7,2.5-7.3,2.5-13.7v-5.7h18.3v-3.1h-8C483.4,456.9,483.1,455.9,482.7,455z"/>
	<path class="st2" d="M518.6,457.7c1.1,0.9,2.4,2.1,3.7,3.6l2.1-2.6c-1.4-1.3-2.7-2.3-3.9-3.3L518.6,457.7z"/>
	<path class="st2" d="M530.6,459.6c-1.1-1.3-2.3-2.7-3.6-4l-2.3,1.9c1.3,1.5,2.4,2.8,3.4,4.1L530.6,459.6z"/>
	<path class="st2" d="M521.6,501.8h17.1v-9.7h-17.1V501.8z M525.2,495.3h10.1v3.3h-10.1V495.3z"/>
	<path class="st2" d="M483.2,461.3h-3.3v7.5h-5V480h3.2v-1.6h9v1.6h3.2v-11.2h-7.1v-2.3h8.1v-3h-8.1V461.3z M487.1,471.8v3.5h-9
		v-3.5H487.1z"/>
	<path class="st2" d="M525.4,479.7h3.4v-5.2h8.6v0.4c0,1.1-0.5,1.6-1.6,1.6c-0.9,0-2,0-3.3-0.1c0.4,1.2,0.7,2.3,0.9,3.4
		c2.2,0,3.8,0,4.7-0.1c0.9-0.1,1.6-0.5,2-1c0.5-0.6,0.7-1.4,0.7-2.4V462h-6v-7h-3.3v7h-6V479.7z M528.8,465h8.6v1.9h-8.6V465z
		 M528.8,469.8h8.6v1.9h-8.6V469.8z"/>
	<path class="st2" d="M512.1,476c-0.1,0.3-0.3,0.4-0.5,0.5c-0.2,0.1-0.6,0.1-1.2,0.1c-1,0-2,0-3.1-0.1c0.3,1.3,0.5,2.4,0.7,3.3
		c1.8,0,3.3,0,4.3-0.1c1-0.1,1.8-0.5,2.4-1.1c0.5-0.7,0.8-1.6,0.8-2.9v-16.6h-8.7c0-1.2,0-2.6,0-4.1h-3.1c0,1.3,0,2.6-0.1,4.1h-8.8
		V480h3.2v-17.6h5.5c-0.2,3.6-2,6.4-5.4,8.6c0.8,0.8,1.6,1.6,2.5,2.7c2-1.4,3.5-3,4.5-4.9c2,1.9,3.5,3.4,4.5,4.5l2.4-2.6
		c-2.2-1.9-4.2-3.6-5.8-4.8c0.2-1,0.3-2.1,0.4-3.5h5.6V475C512.3,475.4,512.2,475.7,512.1,476z"/>
	<path class="st2" d="M572.2,461.1l1.9-2.1v1h3.9v1.6h3.1v-1.6h3.8v1.6h3.1v-1.6h3.9v-2.6H588v-2.1h-3.1v2.1h-3.8v-2.1H578v2.1h-3.9
		v0.9c-1.2-1.1-2.4-2.1-3.4-2.9l-2,2.3C570,458.8,571.2,460,572.2,461.1z"/>
	<path class="st2" d="M630.9,457.8h-2.5v10h13v-10h-2.6l1.2-1.9l-2.8-0.9l-1.2,2.8h-2.1l-1.4-2.7l-2.6,1L630.9,457.8z M635.8,460.3
		h3v4.9h-3V460.3z M633.7,460.3v4.9h-3v-4.9H633.7z"/>
	<path class="st2" d="M633.5,464c-0.7-1.5-1.1-2.6-1.4-3.1l-1.3,0.6c0.5,1.1,1,2.2,1.3,3.1C632.6,464.4,633.1,464.2,633.5,464z"/>
	<path class="st2" d="M636,464c0.4,0.2,0.8,0.4,1.3,0.7c0.5-1.2,1-2.3,1.4-3.2l-1.4-0.5C637,461.9,636.5,462.9,636,464z"/>
	<path class="st3" d="M544.4,406.5c-2.6-0.1-5,1.2-5.9,3.8v-3.6h-4.3v28.3h4.4v-18.3c0-4.2,2.5-5.9,5.8-5.4V406.5z"/>
	<path class="st3" d="M600.2,416.8c0-4.2,2.5-5.9,5.8-5.4v-4.9c-2.6-0.1-5,1.2-5.9,3.8v-3.6h-4.3v28.3h4.4V416.8z"/>
	<polygon class="st3" points="470.3,430.8 463.7,430.8 463.7,418.8 469.5,418.8 469.5,414.4 463.7,414.4 463.7,403.5 470.3,403.5 
		470.3,399.2 459.2,399.2 459.2,435.1 470.3,435.1 	"/>
	<path class="st3" d="M582.4,435.1l1.1-9.2h5l1.1,9.2h4.5l-5.1-35.9H583l-5.2,35.9H582.4z M585.3,411.2c0.3-2.5,0.6-7,0.6-7h0.1
		c0,0,0.3,4.4,0.6,7l1.2,10.8H584L585.3,411.2z"/>
	<path class="st3" d="M477.4,414.3c0-2.5,0.9-3.7,2.4-3.7c1.6,0,2.4,1.2,2.4,3.7v20.8h4.4v-20.8c0-2.5,0.9-3.7,2.4-3.7
		c1.6,0,2.4,1.2,2.4,3.7v20.8h4.4V414c0-5-1.5-7.7-5.7-7.7c-2.2,0-3.8,1-4.6,2.7c-0.8-1.8-2.2-2.7-4.6-2.7c-1.5,0-3.2,0.9-3.7,2.2
		v-1.8H473v28.3h4.4V414.3z"/>
	<path class="st3" d="M561.1,406.3c-4.4,0-7.1,2.8-7.1,7.7v13.8c0,4.9,2.7,7.7,7.1,7.7c4.4,0,7.1-2.8,7.1-7.7V414
		C568.2,409.1,565.5,406.3,561.1,406.3z M563.8,427.5c0,2.5-1.1,3.7-2.7,3.7c-1.7,0-2.7-1.2-2.7-3.7v-13.3c0-2.5,1.1-3.7,2.7-3.7
		c1.7,0,2.7,1.2,2.7,3.7V427.5z"/>
	<rect x="546.3" y="406.7" class="st3" width="4.4" height="28.3"/>
	<path class="st3" d="M612.4,414.3c0-2.5,0.9-3.7,2.4-3.7c1.6,0,2.4,1.2,2.4,3.7v20.8h4.4v-20.8c0-2.5,0.9-3.7,2.4-3.7
		c1.6,0,2.4,1.2,2.4,3.7v20.8h4.4V414c0-5-1.5-7.7-5.7-7.7c-2.2,0-3.8,1-4.6,2.7c-0.8-1.8-2.2-2.7-4.6-2.7c-1.5,0-3.2,0.9-3.7,2.2
		v-1.8H608v28.3h4.4V414.3z"/>
	<path class="st3" d="M503.8,433.3c0.5,1.3,2.2,2.2,3.7,2.2c4.2,0,6.1-2.8,6.1-7.7V414c0-5-2-7.7-6.1-7.7c-1.6,0-3.4,0.9-3.9,2.3
		v-1.9h-4.2v38.8h4.4V433.3z M503.8,414.3c0-2.5,1.1-3.7,2.7-3.7s2.7,1.2,2.7,3.7v13.3c0,2.5-1.1,3.7-2.7,3.7s-2.7-1.2-2.7-3.7
		V414.3z"/>
	<rect x="546.3" y="397" class="st3" width="4.4" height="5.6"/>
	<path class="st3" d="M638.6,419.6c-3.8,2-5.5,4.3-5.5,8.9c0,4.8,2.7,7,5.4,7c2,0,3.7-1,4.6-2.6c0.1,0.7,0.2,1.5,0.3,2.2h4.3
		c-0.4-2-0.5-3.8-0.5-10.1v-9.6c0-5.1-1-9.1-6.5-9.1c-4.4,0-6.9,3.1-6.9,8v1.7h4.4v-1.7c0-2.5,0.8-3.8,2.4-3.8
		c1.7,0,2.2,1.5,2.2,3.4C642.8,417,641.5,418,638.6,419.6z M642.8,420.8v6.2c0,2.9-1.2,4.3-2.8,4.3c-1.4,0-2.4-0.9-2.4-3.4
		c0-2.6,1-3.9,3-5.2C641.7,422,642.3,421.5,642.8,420.8z"/>
	<path class="st3" d="M655.2,414.3c0-2.5,1-3.7,2.5-3.7c1.6,0,2.5,1.2,2.5,3.7v20.8h4.4V414c0-5-1.7-7.7-5.9-7.7
		c-1.5,0-3.3,0.9-3.7,2.2v-1.8h-4.2v28.3h4.4V414.3z"/>
	<path class="st3" d="M523.7,435.5c4.4,0,7.1-2.8,7.1-7.7V414c0-4.9-2.7-7.7-7.1-7.7c-4.4,0-7.1,2.8-7.1,7.7v13.8
		C516.6,432.7,519.3,435.5,523.7,435.5z M521,414.3c0-2.5,1.1-3.7,2.7-3.7c1.7,0,2.7,1.2,2.7,3.7v13.3c0,2.5-1.1,3.7-2.7,3.7
		c-1.7,0-2.7-1.2-2.7-3.7V414.3z"/>
	<rect x="668.2" y="406.7" class="st3" width="4.4" height="28.3"/>
	<rect x="668.2" y="397" class="st3" width="4.4" height="5.6"/>
	<path class="st3" d="M270.4,691.3c-1.4,0-3.1,0.9-3.6,2.2V682h-4.4v38.1h4.4v-20.8c0-2.5,1-3.7,2.5-3.7c1.6,0,2.5,1.2,2.5,3.7v20.8
		h4.4V699C276.3,694,274.6,691.3,270.4,691.3z"/>
	<path class="st3" d="M184.8,712.5c0,2.5-1,3.7-2.5,3.7c-1.6,0-2.5-1.2-2.5-3.7v-20.8h-4.4v21.1c0,5,1.7,7.7,5.9,7.7
		c1.5,0,3.3-0.9,3.7-2.2v1.8h4.2v-28.3h-4.4V712.5z"/>
	<path class="st3" d="M173.2,700.4c0-5.1-1-9.1-6.5-9.1c-4.4,0-6.9,3.1-6.9,8v1.7h4.4v-1.7c0-2.5,0.8-3.8,2.4-3.8
		c1.7,0,2.2,1.5,2.2,3.4c0,3.1-1.3,4.1-4.3,5.7c-3.8,2-5.5,4.3-5.5,8.9c0,4.8,2.7,7,5.4,7c2,0,3.7-1,4.6-2.6
		c0.1,0.7,0.2,1.5,0.3,2.2h4.3c-0.4-2-0.5-3.8-0.5-10.1V700.4z M168.8,712c0,2.9-1.2,4.3-2.8,4.3c-1.4,0-2.4-0.9-2.4-3.4
		c0-2.6,1-3.9,3-5.2c1.1-0.7,1.8-1.3,2.2-1.9V712z"/>
	<rect x="191.6" y="682" class="st3" width="4.4" height="38.1"/>
	<path class="st3" d="M257.9,685h-4.4v6.7h-2.1v4.5h2.1v16.4c0,4.8,2.3,8,8,7.5v-4.4c-2.7,0.2-3.6-1-3.6-3.6v-15.9h3.6v-4.5h-3.6
		V685z"/>
	<path class="st3" d="M151.7,684.2h-7.1v35.9h4.4v-14h2.6c5.1,0,7.2-3.1,7.2-7.8V692C158.8,687.3,156.8,684.2,151.7,684.2z
		 M154.4,698.1c0,2.3-0.9,3.7-2.7,3.7H149v-13.2h2.6c1.9,0,2.7,1.4,2.7,3.7V698.1z"/>
	<rect x="246.1" y="682" class="st3" width="4.4" height="5.6"/>
	<rect x="246.1" y="691.7" class="st3" width="4.4" height="28.3"/>
	<path class="st3" d="M238.1,691.3c-2.2,0-3.8,1-4.6,2.7c-0.8-1.8-2.2-2.7-4.6-2.7c-1.5,0-3.2,0.9-3.7,2.2v-1.8H221v28.3h4.4v-20.8
		c0-2.5,0.9-3.7,2.4-3.7c1.6,0,2.4,1.2,2.4,3.7v20.8h4.4v-20.8c0-2.5,0.9-3.7,2.4-3.7c1.6,0,2.4,1.2,2.4,3.7v20.8h4.4V699
		C243.8,694,242.3,691.3,238.1,691.3z"/>
	<path class="st3" d="M211.2,697.8c-1.7-1.9-2.1-3.4-2.1-5.6c0-2.5,0.9-4.1,2.8-4.1c1.7,0,2.7,1.2,2.7,3.7v3.8h4.4v-4.1
		c0-4.9-2.6-7.7-7.1-7.7c-5,0-7.2,3.6-7.2,8.4c0,3.5,0.7,5.8,3,8.5l5,5.8c1.7,1.9,2.1,3.4,2.1,5.6c0,2.7-1,4.1-3.1,4.1
		c-1.5,0-2.8-1.2-2.8-3.7v-3.8h-4.4v4.1c0,5,2.9,7.7,7.2,7.7c5,0,7.5-3.6,7.5-8.4c0-3.5-0.7-5.8-3-8.5L211.2,697.8z"/>
	<path class="st2" d="M163.3,281.8c-0.6-0.9-1.3-1.8-2.1-2.8l-2,1.6c0.8,1,1.4,2,2,2.9L163.3,281.8z"/>
	<path class="st2" d="M111.7,272.4c0.7-2.5,1.4-4.8,1.9-6.9v-2.4h-7.7v24.1h2.8v-21.1h1.9c-0.5,2.2-1.1,4.5-1.7,6.7
		c1.4,1.7,2,3.4,2,5.1c0,0.8-0.4,1.2-1.3,1.2c-0.2,0-0.5,0-0.8-0.1c0.3,1.2,0.5,2.5,0.6,3.9c3,0,4.4-1.3,4.4-4
		C113.9,276.4,113.2,274.2,111.7,272.4z"/>
	<path class="st2" d="M166.8,231.2h15v3.5h3.1v-6.4h-8.5c-0.2-0.9-0.4-1.6-0.6-2.3l-3.9,0.6c0.2,0.5,0.4,1,0.7,1.8h-8.8v6.4h3.1
		V231.2z"/>
	<path class="st2" d="M164.7,250.4c1.9-0.7,3.6-1.5,5.2-2.4c0.3,0.9,0.5,2,0.7,3.1c2.3,0,3.7-0.1,4.3-0.2c0.6-0.1,1.1-0.4,1.6-0.8
		c0.5-0.4,0.8-1,1-1.7c0.2-0.7,0.3-1.6,0.3-2.7c0-1.3-0.2-2.6-0.6-3.9l1-0.5c1.3,3.8,2.9,6.5,4.8,8.2c0.8-0.9,1.6-1.8,2.6-2.8
		c-2.3-1.5-4-3.7-5-6.6l3.6-1.9l-1.8-2.8c-1.7,1.1-3.8,2.4-6.3,3.7c-0.5-0.9-1-1.8-1.7-2.6c0.5-0.3,1-0.7,1.5-1.1h5v-2.8h-13.2v2.8
		h3.8c-2.1,1.2-4.8,2.1-7.9,2.7c0.5,0.8,1,1.7,1.5,2.6c2.5-0.7,4.7-1.6,6.8-2.6c0.2,0.3,0.4,0.5,0.6,0.8c-2.4,1.6-5.4,2.8-9,3.7
		l1.5,2.6c3.2-1,6-2.4,8.5-4.4c0.2,0.3,0.3,0.7,0.4,1c-2.8,2.4-6.5,4.3-10.9,5.5C163.6,248.3,164.2,249.4,164.7,250.4z M174.5,244.6
		c0.1,0.4,0.1,0.7,0.1,1c0,1.5-0.7,2.3-2.1,2.3c-0.6,0-1.4-0.1-2.3-0.2C171.8,246.8,173.3,245.8,174.5,244.6z"/>
	<path class="st2" d="M156.2,226.2h-3.1v4.4h-5v12h2.8v-0.8h2.2v4.7l-5.7,0.5l0.4,3.3l11.3-1.4c0.2,0.7,0.4,1.5,0.7,2.3l2.7-0.9
		c-0.8-2.8-1.6-5.3-2.4-7.5l-2.6,0.8c0.3,0.7,0.5,1.5,0.8,2.3l-2.1,0.2v-4.4h5v-11.2h-5V226.2z M153.1,238.5h-2.2v-4.7h2.2V238.5z
		 M158.2,233.8v4.7h-2.1v-4.7H158.2z"/>
	<path class="st2" d="M130.3,226c-0.7,3.8-1.6,7-2.7,9.7c0.7,0.4,1.6,0.8,2.6,1.4c0.5-1.2,1-2.7,1.5-4.4h4.4l-0.8,4.1l2.7,0.6l1-4.9
		v-2.9h-6.4c0.2-0.9,0.4-1.9,0.7-3L130.3,226z"/>
	<polygon class="st2" points="121.2,232.2 117.2,232.2 117.2,234.9 127.6,234.9 127.6,232.2 124.2,232.2 124.2,230.5 128.5,230.5 
		128.5,227.8 124.2,227.8 124.2,226 121.2,226 121.2,227.8 116.7,227.8 116.7,230.5 121.2,230.5 	"/>
	<path class="st2" d="M108.7,247.5c-0.9,0-1.9,0-2.9-0.1c0.2,0.9,0.4,2,0.6,3.3c2.2,0,3.8,0,4.6-0.1c0.8-0.1,1.5-0.4,2.1-0.9
		c0.5-0.5,0.8-1.2,0.9-2.1c0.1-0.9,0.2-2.5,0.3-5h-4.1l0.6-3.8H98.3c1.8-1,3.5-2.2,5.1-3.6v3.3h3V235c2.4,2.4,5.2,4,8.4,5
		c0.5-1,1-2.1,1.5-3.3c-2.6-0.4-5.1-1.3-7.3-2.5h6.6v-2.5h-9.2v-1.8c2.7-0.1,5.4-0.2,8.1-0.4l-0.5-2.7c-5.7,0.4-12,0.5-18.8,0.6
		c0.3,1,0.5,1.9,0.6,2.7c2.6,0,5.2,0,7.7-0.1v1.7h-9.1v2.5h6.5c-2.5,1.4-4.9,2.4-7.3,3l1.5,3.1c0.6-0.2,1.3-0.5,1.9-0.7v1.8h3.4
		c-0.4,3.3-2.5,5.6-6.4,7c0.7,0.9,1.5,1.9,2.2,3c4.4-1.9,6.8-5.3,7.2-10h4.2l-0.8,3.8h4.2c0,1.1-0.1,1.8-0.4,2
		C110.3,247.4,109.7,247.5,108.7,247.5z"/>
	<rect x="128.4" y="270.7" class="st2" width="22.4" height="1.9"/>
	<path class="st2" d="M163.3,276.1h-11.9v2.7h4.8v4.1c0,0.3-0.1,0.6-0.3,0.7c-0.2,0.2-0.7,0.3-1.7,0.2c0.3-1.2,0.7-2.5,1-3.9
		l-2.6-0.8c-0.4,2.1-0.9,3.9-1.5,5.4l2.5,1c0.1,0.4,0.2,0.9,0.3,1.5c1.8,0,3-0.1,3.5-0.2c0.5-0.1,0.9-0.5,1.2-0.9
		c0.3-0.5,0.4-1.1,0.4-1.9v-5.2h4.1V276.1z"/>
	<rect x="117.4" y="236.1" class="st2" width="10.1" height="2.7"/>
	<polygon class="st2" points="199.9,232.7 196.4,232.7 196.4,244.9 199.3,244.9 199.3,235.8 204.9,235.8 204.9,244.9 207.8,244.9 
		207.8,232.7 202.9,232.7 203.4,230.5 208.2,230.5 208.2,227.4 195.9,227.4 195.9,230.5 200.3,230.5 	"/>
	<path class="st2" d="M133.1,243.8c0.9,3.1,2.4,5.5,4.6,7.4c0.7-1.5,1.3-2.6,1.7-3.4c-2.8-1.9-4.5-5.1-5.1-9.8
		c0.1-0.9,0.1-1.9,0.1-3h-2.8c0,3.2-0.4,5.8-1.1,7.9s-2.1,3.9-4,5.6c0.7,0.9,1.3,1.9,2,2.9C130.9,249,132.4,246.4,133.1,243.8z"/>
	<path class="st2" d="M126.6,243l-2,1.6c0.8,1,1.4,2,2,2.9l2.1-1.8C128,244.9,127.3,244,126.6,243z"/>
	<path class="st2" d="M127.7,279l-1.9-2.7h0.6v-13.1h-12v18.7c0,1.2-0.3,2.1-0.8,2.7l1.3,2.7c0.9-0.5,2.9-1.1,6-1.9
		c0-0.7,0-1.6,0.1-2.8c1.2,1.8,2.9,3.2,5.2,4.4c0.5-1.3,1.1-2.5,1.6-3.5c-1.5-0.5-2.7-1.2-3.6-2.1L127.7,279z M117.3,266.3h6.1v2.1
		h-6.1V266.3z M117.3,282.9v-6.6h1.1c0.5,2.2,1.2,4.1,2.2,5.7C119.4,282.3,118.4,282.6,117.3,282.9z M117.3,273.3v-2.1h6.1v2.1
		H117.3z M121.2,276.3h4.3c-0.9,1-2,1.9-3.1,2.8C122,278.3,121.6,277.3,121.2,276.3z"/>
	<path class="st2" d="M118,243.2c-0.4,2.1-0.9,3.9-1.5,5.4l2.5,1c0.1,0.4,0.2,0.9,0.3,1.5c1.8,0,3-0.1,3.5-0.2s0.9-0.5,1.2-0.9
		s0.4-1.1,0.4-1.9v-5.2h4.1v-2.7h-11.9v2.7h4.8v4.1c0,0.3-0.1,0.6-0.3,0.7c-0.2,0.2-0.7,0.3-1.7,0.2c0.3-1.2,0.7-2.5,1-3.9
		L118,243.2z"/>
	<rect x="152.1" y="272.1" class="st2" width="10.1" height="2.7"/>
	<path class="st2" d="M166.4,268.7h4.4l-0.8,4.1l2.7,0.6l1-4.9v-2.9h-6.4c0.2-0.9,0.4-1.9,0.7-3L165,262c-0.7,3.8-1.6,7-2.7,9.7
		c0.7,0.4,1.6,0.8,2.6,1.4C165.4,271.9,165.9,270.4,166.4,268.7z"/>
	<polygon class="st2" points="163.2,266.5 163.2,263.8 158.9,263.8 158.9,262 155.9,262 155.9,263.8 151.4,263.8 151.4,266.5 
		155.9,266.5 155.9,268.2 151.9,268.2 151.9,270.9 162.3,270.9 162.3,268.2 158.9,268.2 158.9,266.5 	"/>
	<path class="st2" d="M139.9,228.3c0.8,1.1,1.5,2.2,2.1,3.5c-0.8,0.8-1.6,1.4-2.4,2.1c0.5,0.7,1.1,1.6,1.7,2.8
		c0.6-0.5,1.2-1.1,1.8-1.6c0.2,0.7,0.4,1.3,0.5,2c-1.1,1.8-2.5,3.4-4,4.7c0.7,1.4,1.2,2.4,1.4,3c1.2-1.2,2.3-2.4,3.2-3.7
		c0.1,0.9,0.1,1.9,0.1,2.9c0,1.1,0,1.9-0.1,2.2c-0.1,0.4-0.2,0.7-0.5,0.9c-0.2,0.2-0.6,0.3-1,0.3c-0.5,0-1.2-0.1-2.2-0.2
		c0.2,1.5,0.4,2.6,0.5,3.3c2.1,0.1,3.5-0.1,4.3-0.4s1.3-1,1.6-2c0.3-0.9,0.4-2.8,0.4-5.5c0-3.9-0.5-7.2-1.6-10.1
		c1.1-1.2,2.1-2.4,3-3.6l-2.2-2.2c-0.7,1-1.5,1.9-2.2,2.7c-0.6-1.1-1.4-2.1-2.2-3.1L139.9,228.3z"/>
	<path class="st2" d="M141,283.5h8.5v-1.8H141v-0.9h7.6v-7.4h-18.1v7.4h7.5v0.9h-8.3v1.8h8.3v1h-9.7v1.9h22.6v-1.9H141V283.5z
		 M141,275.2h4.7v1.1H141V275.2z M141,277.9h4.7v1.1H141V277.9z M138,279h-4.6v-1.1h4.6V279z M138,276.4h-4.6v-1.1h4.6V276.4z"/>
	<path class="st2" d="M169,274c0.1-0.9,0.1-1.9,0.1-3h-2.8c0,3.2-0.4,5.8-1.1,7.9c-0.7,2-2.1,3.9-4,5.6c0.7,0.9,1.3,1.9,2,2.9
		c2.4-2.4,3.9-4.9,4.6-7.6c0.9,3.1,2.4,5.5,4.6,7.4c0.7-1.5,1.3-2.6,1.7-3.4C171.2,281.9,169.5,278.6,169,274z"/>
	<rect x="210.4" y="226.8" class="st2" width="2.7" height="8.9"/>
	<polygon class="st2" points="228.4,245.3 228.4,236.6 211.5,236.6 211.5,245.9 214.6,245.9 214.6,239.7 225.3,239.7 225.3,245.3 	
		"/>
	<path class="st2" d="M194.7,275.4v-2.8h-11.1c0.3-0.8,0.6-1.6,0.8-2.3h12.6v-3.1h-3.9l1.4-1.6c-1-1-2.2-2.1-3.6-3.3l-2,2.1
		c0.9,0.9,1.8,1.9,2.6,2.8h-6.4l1-4.7l-3.3-0.3c-0.3,1.9-0.7,3.6-1,5h-3.3c0.4-1.6,0.7-2.9,0.9-3.9l-3.1-0.4c-0.3,1.5-0.7,3-1.1,4.4
		v3h5.7c-1.5,4.1-3.7,7.7-6.6,10.8c0.3,1.2,0.7,2.6,1,4.2c2.3-2.2,4.3-4.8,6.1-8c0.9,1.5,1.9,2.8,3,4c-2,1-4.3,2-6.9,2.8
		c0.6,1.1,1.2,2.2,1.7,3.3c3.1-1,5.7-2.3,7.9-3.7c2.2,1.5,4.8,2.7,7.9,3.5c0.6-1.3,1.3-2.5,1.9-3.7c-2.9-0.5-5.2-1.2-7-2
		C192,279.6,193.6,277.6,194.7,275.4z M187.2,279.5c-1.3-1.1-2.4-2.5-3.2-4h6.9C190,276.9,188.8,278.2,187.2,279.5z"/>
	<path class="st2" d="M228.5,246.4c-0.1,0.3-0.3,0.6-0.6,0.7c-0.3,0.2-0.7,0.3-1.3,0.3H224c-0.9,0-1.4-0.5-1.4-1.5v-2.7h-1.3
		c0.2-0.7,0.4-1.5,0.6-2.4h-3.2c-0.3,2.7-1.1,4.4-2.3,5.2c-1.1,0.9-3.5,1.6-7.3,2.1c0.4,0.8,0.9,1.8,1.5,3.2c4.4-0.4,7.4-1.8,9-4.1
		c0,2.3,1.1,3.5,3.4,3.5h4.7c0.9,0,1.6-0.2,2.1-0.5c0.5-0.3,0.9-0.8,1.1-1.4c0.2-0.6,0.5-2.1,0.8-4.4c-1.2-0.5-2.1-0.9-2.9-1.3
		C228.7,244.9,228.6,246.1,228.5,246.4z"/>
	<path class="st2" d="M218,233.1c0.6,0.6,1.2,1.4,1.9,2.3c1.1-1.2,2.1-2.8,3.1-4.6h2.2l-1.5,1.2c1.1,1.4,2.2,2.8,3.1,4.2l2.5-2
		c-1-1.1-2-2.2-3.2-3.4h5.1V228h-7c0.3-0.6,0.5-1.2,0.8-1.9H222c-1.1,2.7-2.4,5-3.9,6.8v-6.8H215v9.7h3.1V233.1z"/>
	<path class="st2" d="M211.6,273.9h6.6v-2.1h-6.6v-1.4h6.6v-2.1h-6.6v-1.4h7.4v-2.3h-6.9c-0.4-1-0.8-1.9-1.2-2.8l-3.2,0.7
		c0.3,0.7,0.6,1.4,0.9,2.1h-4.2c0.3-0.6,0.6-1.1,0.8-1.7l-3.2-0.8c-1.2,2.6-2.7,4.9-4.5,6.9c0.5,1.1,0.9,2.4,1.3,3.8
		c0.4-0.5,0.9-1,1.3-1.5v7h3v-0.7h16.2v-2.3h-7.7V273.9z M208.5,275.3h-5.5v-1.4h5.5V275.3z M208.5,271.8h-5.5v-1.4h5.5V271.8z
		 M208.5,268.3h-5.5v-1.4h5.5V268.3z"/>
	<path class="st2" d="M185.9,238.7h2.8v7.7c0,1-0.4,1.5-1.3,1.5c-0.5,0-0.9,0-1.4,0c0.2,1.1,0.4,2.2,0.6,3.3c1.2,0,2,0,2.5-0.1
		c1.7-0.1,2.5-1.1,2.5-3.1v-9.2h1.6l-0.5,5.3h2.1l0.7-8.4h-3.4l3.1-4.9v-3.2h-9v3h5.9l-1.9,3c-0.8-0.8-1.6-1.5-2.4-2.2l-1.6,2.3
		c0.9,0.7,1.8,1.4,2.8,2.1h-3.1V238.7z"/>
	<path class="st2" d="M203.6,237.1h-2.9v0.7c0,2.9-0.3,4.9-0.9,6.3c-0.7,1.5-2.4,3-5.1,4.3c0.6,0.9,1.3,1.9,1.9,3
		c2.5-1.5,4.3-3,5.3-4.5c1.8,1.5,3.3,3,4.7,4.4l2.1-2.4c-1.7-1.6-3.6-3.2-5.7-4.8c0.4-1.6,0.5-3.7,0.5-6.3V237.1z"/>
	<path class="st2" d="M200.2,287.1h3.3v-1h11.1v1h3.3v-8.3h-17.7V287.1z M203.5,281.5h11.1v2h-11.1V281.5z"/>
	<path class="st2" d="M130.5,269.9h18.1V263h-18.1V269.9z M133.6,264.8h11.9v0.9h-11.9V264.8z M133.6,267.2h11.9v0.9h-11.9V267.2z"
		/>
	<path class="st3" d="M204.2,178.3c0-2.5,1-3.7,2.5-3.7c1.6,0,2.5,1.2,2.5,3.7v20.8h4.4V178c0-5-1.7-7.7-5.9-7.7
		c-1.4,0-3.1,0.9-3.6,2.2V161h-4.4v38.1h4.4V178.3z"/>
	<path class="st3" d="M221.6,201.6c-0.4,1.9-1.1,3.5-3,3.5c-0.4,0-0.9,0-1.4-0.2v4.5c0.6,0.2,1,0.3,1.9,0.3c3.9,0,6-3,6.8-7.2
		l5.8-31.8H227l-2.1,15.6c-0.3,2.5-0.7,7-0.7,7h-0.1c0,0-0.3-4.4-0.7-7l-2.1-15.6h-4.6l5.3,28.3L221.6,201.6z"/>
	<path class="st3" d="M189,199.5c4.3,0,6.8-2.8,6.8-7.7v-1.9h-4.4v1.6c0,2.4-0.7,3.7-2.4,3.7c-1.7,0-2.4-1.3-2.4-3.7v-13.3
		c0-2.4,0.7-3.7,2.4-3.7c1.7,0,2.4,1.3,2.4,3.7v1.7h4.4V178c0-4.9-2.4-7.7-6.8-7.7c-4.4,0-6.8,2.9-6.8,7.8v13.8
		C182.2,196.7,184.6,199.5,189,199.5z"/>
	<path class="st3" d="M137.5,199.1l5-28.3h-4.5l-2.2,15.6c-0.4,2.5-0.7,7-0.7,7h-0.1c0,0-0.3-4.4-0.7-7l-2.2-15.6h-4.5l4.9,28.3
		H137.5z"/>
	<path class="st3" d="M152.4,199.5c4.4,0,7.1-2.8,7.1-7.7v-1.9h-4.4v1.6c0,2.5-1,3.7-2.7,3.7s-2.7-1.2-2.7-3.7v-5.3h9.8V178
		c0-4.9-2.7-7.7-7.1-7.7c-4.4,0-7.1,2.8-7.1,7.7v13.8C145.3,196.7,147.9,199.5,152.4,199.5z M149.7,178.3c0-2.5,1-3.7,2.7-3.7
		s2.7,1.2,2.7,3.7v4.2h-5.4V178.3z"/>
	<path class="st3" d="M168.3,178.3c0-2.5,1-3.7,2.5-3.7c1.6,0,2.5,1.2,2.5,3.7v20.8h4.4V178c0-5-1.7-7.7-5.9-7.7
		c-1.5,0-3.3,0.9-3.7,2.2v-1.8H164v28.3h4.4V178.3z"/>
	<rect x="119.8" y="170.7" class="st3" width="4.4" height="28.3"/>
	<rect x="119.8" y="161" class="st3" width="4.4" height="5.6"/>
	<path class="st3" d="M107.6,199.5c2.1,0,3.8-1,4.6-2.5l0.7,2h2.3v-18.3H108v4.1h2.6v6.7c0,2.5-1,3.6-2.6,3.6s-2.6-1.1-2.6-3.6
		v-20.8c0-2.5,1-3.7,2.6-3.7s2.6,1.2,2.6,3.7v3.8h4.4v-4.1c0-4.9-2.6-7.7-7-7.7s-7.1,2.8-7.1,7.7v21.4
		C101,196.7,103.3,199.5,107.6,199.5z"/>
	<path class="st4" d="M283.2,476.8c-1.7-1.9-2.1-3.4-2.1-5.6c0-2.5,0.9-4.1,2.8-4.1c1.7,0,2.7,1.2,2.7,3.7v3.8h4.4v-4.1
		c0-4.9-2.6-7.7-7.1-7.7c-5,0-7.2,3.6-7.2,8.4c0,3.5,0.7,5.8,3,8.5l5,5.8c1.7,1.9,2.1,3.4,2.1,5.6c0,2.7-1,4.1-3.1,4.1
		c-1.5,0-2.8-1.2-2.8-3.7v-3.8h-4.4v4.1c0,5,2.9,7.7,7.2,7.7c5,0,7.5-3.6,7.5-8.4c0-3.5-0.7-5.8-3-8.5L283.2,476.8z"/>
	<path class="st4" d="M257.9,464h-4.4v6.7h-2.1v4.5h2.1v16.4c0,4.8,2.3,8,8,7.5v-4.4c-2.7,0.2-3.6-1-3.6-3.6v-15.9h3.6v-4.5h-3.6
		V464z"/>
	<rect x="264.6" y="481.6" class="st4" width="8.2" height="4.5"/>
	<path class="st4" d="M223,476.8c-1.7-1.9-2.1-3.4-2.1-5.6c0-2.5,0.9-4.1,2.8-4.1c1.7,0,2.7,1.2,2.7,3.7v3.8h4.4v-4.1
		c0-4.9-2.6-7.7-7.1-7.7c-5,0-7.2,3.6-7.2,8.4c0,3.5,0.7,5.8,3,8.5l5,5.8c1.7,1.9,2.1,3.4,2.1,5.6c0,2.7-1,4.1-3.1,4.1
		c-1.5,0-2.8-1.2-2.8-3.7v-3.8h-4.4v4.1c0,5,2.9,7.7,7.2,7.7c5,0,7.5-3.6,7.5-8.4c0-3.5-0.7-5.8-3-8.5L223,476.8z"/>
	<rect x="332.8" y="493.4" class="st4" width="5.2" height="5.7"/>
	<path class="st4" d="M322.2,470.3c-1.5,0-3.3,0.9-3.7,2.2v-1.8h-4.2V499h4.4v-20.8c0-2.5,1-3.7,2.5-3.7c1.6,0,2.5,1.2,2.5,3.7V499
		h4.4V478C328.1,473,326.4,470.3,322.2,470.3z"/>
	<path class="st4" d="M304.8,491.5c0,2.5-1,3.7-2.5,3.7c-1.6,0-2.5-1.2-2.5-3.7v-20.8h-4.4v21.1c0,5,1.7,7.7,5.9,7.7
		c1.5,0,3.3-0.9,3.7-2.2v1.8h4.2v-28.3h-4.4V491.5z"/>
	<path class="st4" d="M248.1,479.3c0-5.1-1-9.1-6.5-9.1c-4.4,0-6.9,3.1-6.9,8v1.7h4.4v-1.7c0-2.5,0.8-3.8,2.4-3.8
		c1.7,0,2.2,1.5,2.2,3.4c0,3.1-1.3,4.1-4.3,5.7c-3.8,2-5.5,4.3-5.5,8.9c0,4.8,2.7,7,5.4,7c2,0,3.7-1,4.6-2.6
		c0.1,0.7,0.2,1.5,0.3,2.2h4.3c-0.4-2-0.5-3.8-0.5-10.1V479.3z M243.6,491c0,2.9-1.2,4.3-2.8,4.3c-1.4,0-2.4-0.9-2.4-3.4
		c0-2.6,1-3.9,3-5.2c1.1-0.7,1.8-1.3,2.2-1.9V491z"/>
	<rect x="423.5" y="242" class="st4" width="4.4" height="5.6"/>
	<rect x="423.5" y="251.7" class="st4" width="4.4" height="28.3"/>
	<polygon class="st4" points="395.6,280.1 400,280.1 400,264.5 405.9,264.5 405.9,260.1 400,260.1 400,248.5 406.6,248.5 
		406.6,244.2 395.6,244.2 	"/>
	<path class="st4" d="M414.4,261.8c0-4.2,2.5-5.9,5.8-5.4v-4.9c-2.6-0.1-5,1.2-5.9,3.8v-3.6H410v28.4h4.4V261.8z"/>
	<rect x="432.8" y="274.4" class="st4" width="5.2" height="5.7"/>
	<rect x="338.1" y="45.4" class="st4" width="5.2" height="5.7"/>
	<path class="st4" d="M329.1,32.8c0-4.2,2.5-5.9,5.8-5.4v-4.9c-2.6-0.1-5,1.2-5.9,3.8v-3.6h-4.3V51h4.4V32.8z"/>
	<path class="st4" d="M295.3,22.3c-1.4,0-3.1,0.9-3.6,2.2V13h-4.4V51h4.4V30.2c0-2.5,1-3.7,2.5-3.7c1.6,0,2.5,1.2,2.5,3.7V51h4.4V30
		C301.2,25,299.5,22.3,295.3,22.3z"/>
	<polygon class="st4" points="270,19.5 274.9,19.5 274.9,51 279.3,51 279.3,19.5 284.2,19.5 284.2,15.2 270,15.2 	"/>
	<path class="st4" d="M315.4,43.5c0,2.5-1,3.7-2.5,3.7c-1.6,0-2.5-1.2-2.5-3.7V22.7h-4.4v21.1c0,5,1.7,7.7,5.9,7.7
		c1.5,0,3.3-0.9,3.7-2.2V51h4.2V22.7h-4.4V43.5z"/>
	<path class="st4" d="M305.3,421.2v3.6h3.9v28.3h4.5v-35.9h-3.8C309.7,420,307.6,421,305.3,421.2z"/>
	<path class="st4" d="M284.7,453.1h4.5v-35.9h-3.8c-0.3,2.8-2.3,3.9-4.6,4v3.6h3.9V453.1z"/>
	<rect x="294.3" y="435.6" class="st4" width="8.2" height="4.5"/>
	<path class="st4" d="M323,445.7c0-2.7,1.4-4.4,4.1-6.9c2.7-2.4,5.1-5.2,5.1-9.4v-5c0-4.9-2.5-7.8-6.9-7.8s-6.8,2.9-6.8,7.8v4h4.4
		v-3.8c0-2.5,0.8-3.7,2.4-3.7c1.5,0,2.4,1.2,2.4,3.7v4.5c0,2.7-1.4,4.4-4.2,6.9c-2.7,2.4-5,5.2-5,9.4v7.5h13.9v-4.3H323V445.7z"/>
	<rect x="260.3" y="447.4" class="st4" width="5.2" height="5.7"/>
	<path class="st4" d="M272.6,453.1h4.5v-35.9h-3.8c-0.3,2.8-2.3,3.9-4.6,4v3.6h3.9V453.1z"/>
	<path class="st4" d="M253.8,453.1v-6.7h2.6v-4.1h-2.6v-25.2h-5.7l-8.4,25.5v3.7h9.6v6.7H253.8z M244.1,442.3L250,422
		c0,0-0.6,3.3-0.6,6.6v13.8H244.1z"/>
	<path class="st4" d="M442.9,716.8c2.7-2.4,5.1-5.2,5.1-9.4v-5c0-4.9-2.5-7.8-6.9-7.8s-6.8,2.9-6.8,7.8v4h4.4v-3.8
		c0-2.5,0.8-3.7,2.4-3.7c1.5,0,2.4,1.2,2.4,3.7v4.5c0,2.7-1.4,4.4-4.2,6.9c-2.1,1.9-3.9,4-4.6,6.8h4.7
		C440,719.6,441.2,718.4,442.9,716.8z"/>
	<path class="st4" d="M408.8,720.3h-2.6v-25.2h-5.7l-8.4,25.5v0.3h16.7V720.3z M401.7,706.6v13.8h-5.3l5.9-20.4
		C402.3,700,401.7,703.3,401.7,706.6z"/>
	<path class="st4" d="M429.4,695.2h-3.8c-0.3,2.8-2.3,3.9-4.6,4v3.6h3.9V721h4.5V695.2z"/>
	<path class="st4" d="M400.9,237.1h4.4v-6.7h2.6v-4.1h-2.6v-25.2h-5.7l-8.4,25.5v3.7h9.6V237.1z M395.5,226.3l5.9-20.4
		c0,0-0.6,3.3-0.6,6.6v13.8H395.5z"/>
	<path class="st4" d="M424,237.1h4.5v-35.9h-3.8c-0.3,2.8-2.3,3.9-4.6,4v3.6h3.9V237.1z"/>
	<path class="st4" d="M441.2,237.5c4.4,0,7.2-2.9,7.2-7.8v-21.2c0-4.9-2.8-7.8-7.2-7.8c-4.4,0-7.2,2.9-7.2,7.8v21.2
		C434,234.7,436.7,237.5,441.2,237.5z M438.4,208.7c0-2.5,1.1-3.7,2.8-3.7c1.7,0,2.8,1.2,2.8,3.7v20.8c0,2.5-1.1,3.7-2.8,3.7
		c-1.7,0-2.8-1.2-2.8-3.7V208.7z"/>
	<rect x="411.8" y="231.4" class="st4" width="5.2" height="5.7"/>
	<rect x="277.3" y="1" class="st4" width="4.4" height="4.1"/>
	<rect x="288.3" y="1" class="st4" width="5.2" height="4.1"/>
	<path class="st4" d="M324.9,1.2c-0.4,0-0.8-0.1-1.1-0.2h-5.5c0.9,2.9,3.2,4.5,6.6,4.5c3.3,0,5.7-1.6,6.6-4.5h-5.5
		C325.6,1.1,325.3,1.2,324.9,1.2z"/>
	<path class="st4" d="M305.5,1.2c-0.4,0-0.8-0.1-1.1-0.2h-5.6c1,2.9,3.4,4.5,6.7,4.5s5.7-1.6,6.7-4.5h-5.6
		C306.3,1.1,305.9,1.2,305.5,1.2z"/>
	<path class="st2" d="M577.3,24.3c0.7-0.2,1.3-0.5,2-0.7v1.8h3.6c-0.4,3.3-2.7,5.6-6.7,7c0.8,0.9,1.6,1.9,2.3,3
		c4.6-1.9,7.1-5.3,7.5-10h4.4l-0.8,3.8h4.4c0,1.1-0.1,1.8-0.4,2c-0.3,0.3-0.9,0.4-1.9,0.4c-1,0-2,0-3-0.1c0.2,0.9,0.4,2,0.6,3.3
		c2.3,0,3.9,0,4.8-0.1c0.9-0.1,1.6-0.4,2.1-0.9s0.9-1.2,1-2.1c0.1-0.9,0.2-2.5,0.3-5h-4.2l0.7-3.8h-13.2c1.9-1,3.7-2.2,5.3-3.6v3.3
		h3.1V19c2.5,2.4,5.4,4,8.8,5c0.5-1,1-2.1,1.6-3.3c-2.7-0.4-5.3-1.3-7.6-2.5h6.9v-2.5h-9.6v-1.8c2.8-0.1,5.6-0.2,8.4-0.4l-0.5-2.7
		c-6,0.4-12.5,0.6-19.6,0.6c0.3,1,0.5,1.9,0.6,2.7c2.7,0,5.4,0,8.1-0.1v1.7h-9.5v2.5h6.8c-2.6,1.4-5.1,2.4-7.7,3L577.3,24.3z"/>
	<path class="st2" d="M566.4,25.2c2,2.8,3.6,5.4,5.1,7.9c1.2-0.9,2.2-1.6,3.1-2.2c-1.8-2.6-3.7-5.2-5.5-7.6L566.4,25.2z"/>
	<rect x="553.4" y="11.6" class="st2" width="18.7" height="3.6"/>
	<path class="st2" d="M561.3,29.9c0,0.9-0.5,1.4-1.6,1.4c-0.8,0-1.8-0.1-3-0.2c0.3,1.1,0.5,2.4,0.8,3.8c2.7,0,4.4-0.1,5-0.3
		c0.7-0.2,1.2-0.6,1.7-1.1c0.5-0.6,0.7-1.6,0.7-3v-8.4h9.2v-3.6h-22.9v3.6h10.1V29.9z"/>
	<path class="st2" d="M530.8,27.3h1.9v2.6c0,1.5-0.1,2.4-0.5,2.8l1.1,2.7c1.1-0.5,3.2-1.1,6.2-1.9c0-1.1,0-2.1,0-3
		c1.9,2.1,4.4,3.6,7.6,4.6c1.2-1.9,1.9-3,2-3.2c-1.7-0.2-3.1-0.5-4.5-1.1l3.5-1.7l-1.1-1.6h1.8v-2.5h-4.9v-1.9h4.2v-2.5h-4.2v-1.9
		h3.9v-7.3h-20.2v8.1c0,6.2-0.6,10.5-1.7,12.9c0.8,0.9,1.6,2,2.4,3.2C529.7,33.2,530.5,30.5,530.8,27.3z M535.9,31.4v-4.1h1.6
		c0.6,1.1,1.2,2.1,2,3C538.1,30.7,536.9,31.1,535.9,31.4z M537.4,24.8v-1.9h3.7v1.9H537.4z M537.4,20.4v-1.9h3.7v1.9H537.4z
		 M545.2,27.3l-3,1.9c-0.7-0.5-1.3-1.2-1.9-1.9H545.2z M531.1,14h13.7v2h-13.7V14z M531.1,18.4h3.3v1.9h-3.3L531.1,18.4z M531,22.8
		h3.3v1.9h-3.4C531,24.2,531,23.5,531,22.8z"/>
	<path class="st2" d="M483.8,29.6l-2.4-2.3c-1.7,1.7-3.6,3.2-5.6,4.5c0.7,0.8,1.4,1.7,2.2,2.7C480.1,33,482,31.4,483.8,29.6z"/>
	<path class="st2" d="M515.5,34.9c2.4,0,4,0,4.8-0.1c0.9-0.1,1.5-0.5,2-1.2c0.5-0.7,0.7-1.7,0.7-2.9V10.2h-3.2v19.3
		c0,0.5-0.1,0.8-0.2,1.1c-0.1,0.3-0.3,0.5-0.6,0.5c-0.2,0.1-0.6,0.1-1.2,0.1c-0.9,0-2,0-3.1-0.1C515,32,515.2,33.3,515.5,34.9z"/>
	<path class="st2" d="M452.7,31.5c1.2-0.7,2.3-1.6,3.4-2.5c1,0.8,2.1,1.6,3.3,2.3c-2.4,0.5-5,0.8-7.8,0.9c0.4,1,0.8,1.9,1.2,2.9
		c4-0.5,7.5-1.3,10.5-2.2c2.7,0.9,5.9,1.6,9.5,1.9c0.3-0.9,0.7-2,1.2-3.1c-2.4,0-4.6-0.1-6.6-0.4c1.7-0.8,3.1-1.7,4.3-2.7v-2.3h-13
		c0.3-0.4,0.6-0.7,0.9-1.1h12.3V14.7h-8.8l0.5-1.2h10.2V11h-22.4v2.5h8.5c-0.1,0.4-0.2,0.8-0.4,1.2h-5.6v10.7h2.1
		c-1.3,1.3-3,2.6-5.2,3.9C451.6,30,452.2,30.8,452.7,31.5z M467.1,28.8c-1.2,0.6-2.5,1.2-3.9,1.6c-1.3-0.4-2.5-1-3.5-1.6H467.1z
		 M457,16.9h11.9v0.9H457V16.9z M457,19.6h11.9v0.9H457V19.6z M457,22.3h11.9v0.9H457V22.3z"/>
	<path class="st2" d="M502.3,26.6c1.4-1.8,2.7-3.8,3.7-6h4.1c-0.3,1.3-0.8,2.6-1.3,3.8c-0.9-0.8-1.7-1.5-2.5-2.2l-1.7,2.1
		c0.9,0.8,1.8,1.7,2.7,2.7c-1.5,2.1-3.4,3.9-5.8,5.4c0.8,0.8,1.6,1.8,2.4,2.9c5.2-3.8,8.3-8.8,9.4-15v-3.1h-6
		c0.3-0.8,0.6-1.7,0.8-2.6h5.8v-3.3h-12.5v3.3h3.5c-0.8,3.1-2.3,6-4.3,8.7C501.3,24.4,501.9,25.5,502.3,26.6z"/>
	<path class="st2" d="M483.4,14.6c-1.9,1.2-3.7,2.1-5.4,2.8l0.9,3.1c1.7-0.3,4.1-0.5,7.3-0.7c-3.1,1.7-6,3.1-8.7,4.2l0.8,3.1
		c1.9-0.2,4.6-0.5,8.2-0.6v4.1c0,0.4-0.1,0.7-0.3,0.9s-0.6,0.2-1.3,0.2c-0.9,0-1.7,0-2.5-0.1c0.3,1.1,0.5,2.2,0.6,3.5
		c1.6,0,2.9,0,3.8-0.1c1,0,1.7-0.3,2.1-0.7c0.5-0.4,0.7-1.1,0.7-2v-6l5.8-0.2c0.5,0.6,1.1,1.2,1.6,1.9l2.3-2.2
		c-2.7-2.8-4.6-4.8-5.8-6l-2.2,1.9c0.5,0.5,1.1,1.1,1.7,1.8c-3.5,0.3-6.9,0.5-10.3,0.6c5-2,9.7-4.3,14.2-7l-2.2-2.4
		c-1.2,0.8-2.4,1.5-3.6,2.3l-7.9,0.4c1.8-1,3.6-2,5.3-3c3.5-0.2,6.8-0.5,10-0.8l-0.5-2.8c-6.3,0.7-13.4,1-21.2,1
		c0.2,1.1,0.4,2.1,0.5,3L483.4,14.6z"/>
	<path class="st2" d="M491.5,29.3c2.1,1.7,4,3.3,5.7,4.9l2.2-2.4c-2.2-1.8-4.2-3.4-5.9-4.7L491.5,29.3z"/>
	<path class="st2" d="M425.8,26c0.6,0.7,1.2,1.6,2,2.9c0.8-0.5,1.6-1,2.3-1.5v8h3.1v-1.1h8.9v1h3.1v-8c0.8,0.5,1.7,1,2.7,1.4
		c0.3-0.6,0.8-1.6,1.6-3.1c-2.4-0.7-4.4-1.9-6-3.5h5.8v-2.6h-12.5c0.2-0.4,0.4-0.9,0.6-1.3h10.2v-2.5h-9.4l0.3-1.3h9.9v-2.6h-9.5
		c0.1-0.6,0.2-1.2,0.3-1.8h-3.2c-0.1,0.6-0.1,1.2-0.2,1.8H427v2.6h8.2c-0.1,0.4-0.2,0.9-0.4,1.3h-7v2.5h6c-0.2,0.4-0.4,0.9-0.7,1.3
		H426v2.6h5.2C429.8,23.6,427.9,24.9,425.8,26z M435.2,22.1h5c0.3,0.6,0.7,1.1,1.1,1.6h-7.4C434.4,23.2,434.8,22.6,435.2,22.1z
		 M433.2,26.2h8.9v1.6h-8.9V26.2z M433.2,30.2h8.9v1.6h-8.9V30.2z"/>
	<rect x="514.7" y="13.3" class="st2" width="3" height="15.5"/>
	<path class="st2" d="M559,24.9l-3.1-1.7c-1.5,2.7-3.2,5.3-5.1,7.7c1.1,0.8,2,1.5,2.8,2.2C555.3,31,557.1,28.2,559,24.9z"/>
	<path class="st5" d="M359.7,438.1c-8.6,0-15.5,6.9-15.5,15.5c0,8.6,6.9,15.5,15.5,15.5c8.6,0,15.5-6.9,15.5-15.5
		C375.2,445,368.2,438.1,359.7,438.1z"/>
	<path class="st5" d="M359.7,717.1c-4,0-7.6,1.5-10.3,3.9H370C367.2,718.6,363.6,717.1,359.7,717.1z"/>
	<path class="st5" d="M359.7,226.1c-8.6,0-15.5,6.9-15.5,15.5c0,8.6,6.9,15.5,15.5,15.5c8.6,0,15.5-6.9,15.5-15.5
		C375.2,233,368.2,226.1,359.7,226.1z"/>
	<path class="st5" d="M344.2,6.6c0,8.6,6.9,15.5,15.5,15.5c8.6,0,15.5-6.9,15.5-15.5c0-2-0.4-3.8-1-5.6h-28.9
		C344.6,2.7,344.2,4.6,344.2,6.6z"/>
</g>
<g>
</g>
<g>
</g>
<g>
</g>
<g>
</g>
<g>
</g>
<g>
</g>
<g>
</g>
<g>
</g>
<g>
</g>
<g>
</g>
<g>
</g>
<g>
</g>
<g>
</g>
<g>
</g>
<g>
</g>
</svg>
