<?xml version="1.0" encoding="utf-8"?>
<!-- Generator: Adobe Illustrator 17.0.0, SVG Export Plug-In . SVG Version: 6.00 Build 0)  -->
<!DOCTYPE svg PUBLIC "-//W3C//DTD SVG 1.1//EN" "http://www.w3.org/Graphics/SVG/1.1/DTD/svg11.dtd">
<svg version="1.1" id="Layer_1" xmlns="http://www.w3.org/2000/svg" xmlns:xlink="http://www.w3.org/1999/xlink" x="0px" y="0px"
	 width="720px" height="721px" viewBox="0 0 720 721" style="enable-background:new 0 0 720 721;" xml:space="preserve">
<style type="text/css">
	.st0{fill:none;}
	.st1{fill:#DF9431;}
	.st2{fill:#010101;}
	.st3{fill:#FFEAAB;}
	.st4{fill:#FFFFFF;}
	.st5{fill:#DF9431;stroke:#FFFFFF;stroke-width:2;stroke-miterlimit:10;}
</style>
<g id="brand-5.svg">
	<path class="st0" d="M320.2,568c-1.7,0-2.7,1.2-2.7,3.7v6.5c0,2.5,1,3.7,2.7,3.7s2.7-1.2,2.7-3.7v-6.5
		C322.9,569.2,321.8,568,320.2,568z"/>
	<path class="st0" d="M438.2,338c1.7,0,2.8-1.2,2.8-3.7v-4.6c0-2.5-1.2-3.7-2.8-3.7c-1.7,0-2.8,1.2-2.8,3.7v4.6
		C435.3,336.8,436.5,338,438.2,338z"/>
	<path class="st0" d="M385.6,10.3l8.1-9.3H371c2.6,2.8,4.2,6.5,4.2,10.6c0,8.6-6.9,15.5-15.5,15.5c-8.6,0-15.5-6.9-15.5-15.5
		c0-4.1,1.6-7.8,4.2-10.6h-23.1c0,1.3,0,2.7,0,4h-4.5c0-1.4,0-2.7,0-4h-7v4h-4.5V1h-7.1v4H297V1h-6.5v4h-4.4V1H0v255.7l120.7-138.2
		l210.7,237.3L120.7,593.1L0,454.9V721h486.3l-99.4-113.7L540,432l155.5,175.2L594.6,721H720V104.4L592.9,247.6L385.6,10.3z
		 M293.6,19.5H287v11.6h5.8v4.4H287v15.6h-4.4V15.2h11.1V19.5z M307.3,27.4c-3.3-0.5-5.8,1.2-5.8,5.4v18.3h-4.4V22.7h4.3v3.6
		c0.9-2.6,3.4-3.9,5.9-3.8V27.4z M314.9,51.1h-4.4V22.7h4.4V51.1z M314.9,18.5h-4.4V13h4.4V18.5z M325,51.1h-5.2v-5.7h5.2V51.1z
		 M270.4,589.7l8.4-25.5h5.7v25.2h2.6v4.1h-2.6v6.7H280v-6.7h-9.6V589.7z M280.6,646.5c-4.3,0-7.2-2.7-7.2-7.7v-4.1h4.4v3.8
		c0,2.5,1.3,3.7,2.8,3.7c2.1,0,3.1-1.4,3.1-4.1c0-2.3-0.4-3.7-2.1-5.6l-5-5.8c-2.4-2.7-3-5-3-8.5c0-4.8,2.2-8.4,7.2-8.4
		c4.5,0,7.1,2.8,7.1,7.7v4.1h-4.4v-3.8c0-2.5-1.1-3.7-2.7-3.7c-1.9,0-2.8,1.7-2.8,4.1c0,2.3,0.4,3.7,2.1,5.6l5,5.8
		c2.4,2.7,3,5,3,8.5C288.1,642.9,285.7,646.5,280.6,646.5z M290.9,594.4h5.2v5.7h-5.2V594.4z M306.1,646h-4.2v-1.8
		c-0.5,1.3-2.2,2.2-3.7,2.2c-4.2,0-5.9-2.8-5.9-7.7v-21.1h4.4v20.8c0,2.5,0.9,3.7,2.5,3.7c1.5,0,2.5-1.2,2.5-3.7v-20.8h4.4V646z
		 M307.6,600.1h-4.5v-28.3h-3.9v-3.6c2.3-0.2,4.3-1.2,4.6-4h3.8V600.1z M325,646h-4.4v-20.8c0-2.5-0.9-3.7-2.5-3.7
		c-1.5,0-2.5,1.2-2.5,3.7V646h-4.4v-28.3h4.2v1.8c0.5-1.3,2.2-2.2,3.7-2.2c4.2,0,5.9,2.8,5.9,7.7V646z M327.3,592.7
		c0,4.9-2.6,7.8-7.1,7.8s-7-2.9-7-7.8v-2.8h4.4v2.6c0,2.5,1,3.7,2.6,3.7s2.6-1.2,2.6-3.7V584c-0.5,1.3-2.2,2.2-3.7,2.2
		c-4.2,0-6.1-2.8-6.1-7.8v-6.9c0-4.9,2.7-7.8,7.1-7.8s7.1,2.9,7.1,7.8V592.7z M334.9,646h-5.2v-5.7h5.2V646z M359.7,625.1
		c-8.6,0-15.5-6.9-15.5-15.5c0-8.6,6.9-15.5,15.5-15.5c8.6,0,15.5,6.9,15.5,15.5C375.2,618.1,368.2,625.1,359.7,625.1z M359.7,371.1
		c-8.6,0-15.5-6.9-15.5-15.5c0-8.6,6.9-15.5,15.5-15.5c8.6,0,15.5,6.9,15.5,15.5C375.2,364.1,368.2,371.1,359.7,371.1z M417.2,326.2
		c2.3-0.2,4.3-1.2,4.6-4h3.8V358h-4.5v-28.3h-3.9V326.2z M408.9,352.4h5.2v5.7h-5.2V352.4z M396.5,401.5c-4.3,0-7.2-2.7-7.2-7.7
		v-4.1h4.4v3.8c0,2.5,1.3,3.7,2.8,3.7c2.1,0,3.1-1.4,3.1-4.1c0-2.3-0.4-3.7-2.1-5.6l-5-5.8c-2.4-2.7-3-5-3-8.5
		c0-4.8,2.2-8.4,7.2-8.4c4.5,0,7.1,2.8,7.1,7.7v4.1h-4.4v-3.8c0-2.5-1.1-3.7-2.7-3.7c-1.9,0-2.8,1.7-2.8,4.1c0,2.3,0.4,3.7,2.1,5.6
		l5,5.8c2.4,2.7,3,5,3,8.5C404,397.9,401.5,401.5,396.5,401.5z M405,351.4h-2.6v6.7h-4.4v-6.7h-9.6v-3.7l8.4-25.5h5.7v25.2h2.6
		V351.4z M417.2,401.1c-0.2-0.7-0.3-1.5-0.3-2.2c-0.9,1.7-2.6,2.6-4.6,2.6c-2.7,0-5.4-2.2-5.4-7c0-4.6,1.8-6.9,5.5-8.9
		c2.9-1.6,4.3-2.6,4.3-5.7c0-1.9-0.5-3.4-2.2-3.4c-1.7,0-2.4,1.3-2.4,3.8v1.7h-4.4v-1.7c0-4.9,2.5-8,6.9-8c5.5,0,6.5,4,6.5,9.1v9.6
		c0,6.3,0.1,8.1,0.5,10.1H417.2z M434.5,377.2h-3.6V393c0,2.6,0.9,3.9,3.6,3.6v4.4c-5.7,0.5-8-2.7-8-7.5v-16.4h-2.1v-4.5h2.1V366
		h4.4v6.7h3.6V377.2z M443,401.1h-5.2v-5.7h5.2V401.1z M445.7,350.7c0,5.1-2.9,7.8-7.5,7.8c-4.5,0-7.5-2.8-7.5-7.8v-5.3
		c0-2.8,1.1-5.1,3-5.9c-1.5-1-2.8-3-2.8-5.4v-4.6c0-4.9,2.8-7.8,7.3-7.8c4.4,0,7.3,2.9,7.3,7.8v4.6c0,2.4-1.2,4.4-2.8,5.4
		c1.9,0.8,3,3.2,3,5.9V350.7z"/>
	<path class="st0" d="M438.2,341.5c-1.7,0-3,1.2-3,3.7v5.3c0,2.5,1.4,3.7,3,3.7c1.7,0,3-1.2,3-3.7v-5.3
		C441.2,342.6,439.8,341.5,438.2,341.5z"/>
	<path class="st0" d="M280,575.6c0-3.3,0.6-6.6,0.6-6.6l-5.9,20.4h5.3V575.6z"/>
	<path class="st0" d="M397.9,347.3v-13.8c0-3.3,0.6-6.6,0.6-6.6l-5.9,20.4H397.9z"/>
	<path class="st0" d="M414.4,388.8c-2.1,1.3-3,2.5-3,5.2c0,2.5,1,3.4,2.4,3.4c1.7,0,2.8-1.4,2.8-4.3v-6.2
		C416.1,387.5,415.5,388,414.4,388.8z"/>
	<rect x="510.8" y="1.6" class="st1" width="4.3" height="4.8"/>
	<path class="st1" d="M610.7,5.3h-1.1v6.6c1.1-0.3,2.1-0.6,3.2-0.9C612,9.4,611.2,7.5,610.7,5.3z"/>
	<path class="st1" d="M617.9,5.3h-4.3c0.3,1,0.8,2,1.2,2.8C615.9,7.2,617,6.2,617.9,5.3z"/>
	<path class="st1" d="M473.8,8.9L473.8,8.9c0.1-0.6,0.3-1.3,0.5-2l1.6-5.9h-4.1l1.6,5.9C473.7,7.6,473.8,8.3,473.8,8.9z"/>
	<rect x="524" y="70.7" class="st1" width="2.1" height="4.7"/>
	<path class="st1" d="M635.9,37.2h2.9v-4.9h-2.9V37.2z M637.3,32.9c0.3,0.6,0.7,1.6,1.3,3.1c-0.4,0.2-0.8,0.4-1.3,0.6
		c-0.3-1-0.7-2-1.2-3.1L637.3,32.9z"/>
	<path class="st1" d="M586.8,46.3c0.9-1.5,1.4-3.4,1.5-5.5h-1.5V46.3z"/>
	<rect x="578.5" y="6.8" class="st1" width="3.2" height="4.5"/>
	<path class="st1" d="M686.1,73.9c-0.5,0.6-0.8,1.3-0.9,2.3h4.9c0-2.1-0.8-3.1-2.3-3.1C687.2,73.1,686.6,73.4,686.1,73.9z"/>
	<rect x="637" y="47.1" class="st1" width="5.7" height="1.5"/>
	<rect x="679.9" y="1" class="st1" width="5.3" height="9.1"/>
	<rect x="518.8" y="70.7" class="st1" width="2.2" height="4.7"/>
	<rect x="541.6" y="37" class="st1" width="8.3" height="1.9"/>
	<path class="st1" d="M538.1,84.7c1,0.1,1.7,0.2,2.3,0.2c1.4,0,2.1-0.8,2.1-2.3c0-0.3,0-0.6-0.1-1C541.1,82.7,539.7,83.7,538.1,84.7
		z"/>
	<path class="st1" d="M567.8,34.8h-3c-0.1,0.5-0.2,1-0.3,1.4h3.3V34.8z"/>
	<path class="st1" d="M567.8,31h-2.9c0,0.3,0,0.8,0,1.4h2.9V31z"/>
	<rect x="589.7" y="6.8" class="st1" width="3.2" height="4.5"/>
	<rect x="570.6" y="31" class="st1" width="2.7" height="1.4"/>
	<rect x="541.6" y="41.7" class="st1" width="8.3" height="1.9"/>
	<path class="st1" d="M640.9,37.2h2.9v-4.9h-2.9V37.2z M642.3,32.9l1.3,0.5c-0.4,1-0.9,2.1-1.4,3.2c-0.4-0.3-0.9-0.5-1.3-0.7
		C641.5,34.9,642,33.8,642.3,32.9z"/>
	<path class="st1" d="M662.3,80.3c0,0.5,0.2,0.9,0.5,1.3s0.8,0.5,1.3,0.5c0.8,0,1.4-0.3,1.9-0.9c0.5-0.6,0.7-1.3,0.7-2.2v-1
		l-2.4,0.3C663,78.5,662.3,79.1,662.3,80.3z"/>
	<path class="st1" d="M561.9,34.8h-2.7l-0.3,1.4h2.7C561.7,35.8,561.8,35.3,561.9,34.8z"/>
	<path class="st1" d="M571.8,40c1.1,0,1.8,0,1.9-0.1c0.1-0.1,0.2-0.2,0.3-0.5c0.1-0.2,0.1-0.5,0.1-0.9h-3.5v1.9h-2.8v-1.9h-4.1
		c-0.6,1-1.1,1.8-1.7,2.3h10.1L571.8,40z"/>
	<path class="st1" d="M688.4,15.7h-3.2v-2.3h-5.3v2.4h-3.2V1h-3.4v1.6l2.5-0.7c0,1,0,2.2,0,3.4L673.3,6v6.2c0,1-0.2,1.7-0.5,2.3
		c-0.3,0.6-0.8,1-1.4,1.2c-0.6,0.2-1.9,0.3-3.9,0.3c-0.2-1.1-0.4-2.3-0.7-3.5c0.6,0.1,1.1,0.1,1.6,0.1c1.1,0,1.7-0.4,1.7-1.2V6.9
		l-2.9,0.9l-0.4-3.5l3.3-0.9V1h-3.8v2.4H663v12.6h-3.1V3.4h-4.1v0.2c0,5.4-1,9.6-3.1,12.7c-0.7-1-1.5-2-2.4-2.9
		c1.6-2.2,2.5-5.7,2.5-10.5V1h-3.3v1.7l2.6-0.5c0,0.2-0.1,1.3-0.3,3.5l-2.3,0.5v6.5c0,1-0.2,1.7-0.6,2.3c-0.4,0.5-1,0.9-1.8,0.9
		c-0.9,0.1-1.7,0.1-2.6,0.1c-0.2-1-0.4-2.1-0.6-3.4l1.7,0.1c0.5,0,0.8-0.4,0.8-1.1V6.8l-2.4,0.5l-0.2-3.7c0.8-0.1,1.7-0.2,2.6-0.4V1
		h-5v10.4c0,1.4-0.3,2.5-0.9,3.2c-0.6,0.7-1.4,1.1-2.4,1.2c-1,0-2.5,0.1-4.5,0.1c-0.2-1.5-0.5-2.8-0.8-3.7c2.2,0.1,3.3,0.1,3.6,0.1
		c1.1,0,1.7-0.6,1.7-1.9V1h-4.2c1,1.4,2.1,3.1,3.6,5.4l-2.8,2c-1.4-2.6-2.6-4.7-3.7-6.4l1.3-1h-1.6v13.6h-3v-1.8h-3v1.9h-3V1h-2.9
		v4.3h-0.6l1.9,2.7l-3.5,2.3c0.9,0.8,2.1,1.5,3.6,2.1c-0.6,1-1.1,2.2-1.6,3.5c-2.3-1.1-4-2.6-5.2-4.4c0,1.2-0.1,2.1-0.1,2.8
		c-3,0.8-5,1.4-6,1.9l-1.3-2.7c0.5-0.6,0.8-1.5,0.8-2.7V1h-2.6c0,0.1-0.1,0.3-0.1,0.4c1.5,1.8,2.2,4,2.2,6.5c0,2.7-1.5,4-4.4,4
		c-0.1-1.4-0.3-2.7-0.6-3.9c0.3,0.1,0.5,0.1,0.8,0.1c0.9,0,1.3-0.4,1.3-1.2c0-1.7-0.7-3.4-2-5.1c0.1-0.3,0.1-0.5,0.2-0.8h-0.4v15.2
		h-2.8V1h-4.4v0.8h-16.4V1h-3.6v1.6h-1.7v13.2h-3V2.6h-2V4c0,5.4-1,9.4-3.1,12.3c-1-1-2-1.8-2.9-2.5c0.9-0.9,1.5-1.9,2-3.2l-2.3,1.5
		c-0.5-1.3-1.1-2.6-1.7-3.8l2.2-1.2c0.5,0.8,1.2,2,1.9,3.5c0.6-1.6,0.9-3.6,0.9-6V1h-0.7v1.1H559v1.6h4v2.8h-4v6.1
		c0,0.8-0.1,1.4-0.5,1.9s-0.7,0.7-1.3,0.9s-1.5,0.2-3,0.2c-0.1-1-0.2-2-0.5-2.9l-0.5,1.1c-0.6-0.4-1.4-0.8-2.4-1.3
		c0.8-1.6,1.4-3.5,2-5.6l2.6,0.9c-0.4,1.5-0.9,3-1.5,4.4c0.4,0,0.7,0.1,1.1,0.1c0.6,0,0.9-0.4,0.9-1.1V6.6h-4.3V3.8h4.3V2.1h-4.7V1
		h-3.6v2.2h-16.9V1h-6v10.7c0,1.1-0.2,1.9-0.6,2.6c-0.4,0.6-1,1-1.8,1.2c-0.8,0.2-2.7,0.3-5.8,0.3c-0.2-1.2-0.5-2.5-0.9-3.9
		c1.7,0.1,3,0.2,3.7,0.2c1.3,0,1.9-0.7,1.9-2V1h-3.1v8.5h-7.5V11h-3.2V1H504c-0.3,1.2-0.9,2.3-1.8,3.1c-1.3,1.2-3,1.8-5,1.7h-1.9
		v6.9h-3.8V1h-3.8v8.4h1.5v3.3h-6.8V9.4h1.5V1h-4.4l-3.6,11.7h-4.3L468.1,1h-74.4l-8.1,9.3l207.3,237.3L720,104.4V1h-31.6V15.7z
		 M470.7,87.9h-3.4v-4.3l-5.3,2l-0.6-3.9c2-0.6,4-1.2,5.9-1.8V73h-5.5v-3.3h5.5v-6.2h3.4V87.9z M528.3,8.6h10.4V8.3l4.6-1.4h-13.3
		V4.3h18.5v2.8l-4.3,1.5h6.6v2.7h-8.9v1.2c0,1.1-0.3,2-0.9,2.6c-0.6,0.6-1.4,0.8-2.5,0.8c-1.1,0-2.4,0-3.9,0c-0.1-0.9-0.4-2-0.7-3.2
		c1.1,0.1,2.2,0.1,3.3,0.1c0.6,0,1-0.1,1.3-0.4c0.2-0.2,0.3-0.6,0.3-1.2h-10.4V8.6z M553.1,33.9v14.4c0,1-0.2,1.8-0.6,2.4
		c-0.4,0.6-1.1,0.9-1.9,1c-0.9,0.1-2.4,0.2-4.5,0.1c-0.2-1.1-0.5-2.3-0.8-3.4c1.2,0.1,2.3,0.1,3.2,0.1c1,0,1.5-0.5,1.5-1.6v-0.4
		h-8.3v5.2h-3.2V33.9h5.8v-7h3.2v7H553.1z M534.6,68.1v3.5h-3.1v-6.4h8.8c-0.2-0.7-0.4-1.3-0.7-1.8l3.9-0.6c0.2,0.7,0.4,1.4,0.6,2.3
		h8.5v6.4h-3.1v-3.5H534.6z M533.6,34.1c1.4,1.1,2.6,2.2,3.7,3.3l-2.1,2.6c-0.9-1-2.1-2.2-3.6-3.5L533.6,34.1z M531.9,29.6l1.9-2.3
		c1.2,0.9,2.4,2,3.7,3.3l-2.1,2.6C534.2,31.8,533,30.6,531.9,29.6z M537,42.1l-2,9.8c-1.1-0.4-2.2-0.7-3.1-1c0.8-2.9,1.5-6.2,2.1-10
		C535.1,41.5,536.1,41.9,537,42.1z M537.8,29.4l2.2-1.9c1.2,1.4,2.4,2.7,3.4,4l-2.3,2C540.1,32.2,539,30.8,537.8,29.4z M509.9,31.1
		h8.5c0-1.4,0.1-2.8,0.1-4.1h3c0,1.5,0,2.9,0,4.1h8.4v16.6c0,1.3-0.3,2.2-0.8,2.9c-0.5,0.7-1.3,1.1-2.3,1.1c-1,0.1-2.4,0.1-4.1,0.1
		c-0.2-1-0.4-2.1-0.7-3.3c1,0.1,2,0.1,3,0.1c0.5,0,0.9,0,1.1-0.1c0.2-0.1,0.4-0.2,0.5-0.5c0.1-0.3,0.2-0.6,0.2-1V34.4h-5.3
		c-0.1,1.4-0.2,2.5-0.4,3.5c1.6,1.3,3.4,2.9,5.6,4.8l-2.3,2.6c-1-1.2-2.5-2.7-4.4-4.5c-1,1.8-2.4,3.5-4.4,4.9
		c-0.8-1-1.6-1.9-2.3-2.7c3.2-2.2,5-5,5.2-8.6H513V52h-3.1V31.1z M487.3,38.1v-8.4h8.9c-0.2-0.6-0.5-1.2-0.7-1.8l3.7-1
		c0.3,0.9,0.7,1.8,1,2.8h7.7v3.1h-17.5v5.7c0,6.4-0.8,10.9-2.3,13.7c-0.8-0.9-1.7-1.7-2.6-2.5C486.7,47.2,487.3,43.3,487.3,38.1z
		 M484.7,65.5h9.4c-0.3-0.8-0.6-1.5-0.8-2.1l3.9-0.5c0.2,0.7,0.5,1.5,0.8,2.6h9.1v3.1h-22.3V65.5z M478.3,84.1h0.6
		c0.4,0,0.7-0.1,1-0.4c0.3-0.2,0.4-0.6,0.6-1.1c0.1-0.5,0.3-2.1,0.4-4.7l3.2,1.1c-0.1,1.8-0.3,3.3-0.4,4.5c-0.2,1.3-0.6,2.2-1.3,2.8
		c-0.7,0.6-1.6,1-2.8,1h-2c-2.7,0-4-1.3-4-4V63.5h3.4v7.5c1.8-1.4,3.4-2.7,4.9-4.1l2.3,3c-2.3,1.8-4.7,3.6-7.3,5.4v7.5
		C476.9,83.7,477.4,84.1,478.3,84.1z M484.5,84.6c1.7-1.3,3.5-3,5.3-4.9l2.4,2.3c-1.5,1.6-3.4,3.3-5.5,5.2
		C485.9,86.2,485.1,85.3,484.5,84.6z M497.9,83.8c0,1-0.2,1.9-0.6,2.5c-0.4,0.6-1,1.1-1.7,1.3c-0.7,0.2-2.2,0.3-4.5,0.3
		c-0.2-1.3-0.4-2.5-0.8-3.7c1,0.1,2,0.2,2.9,0.2c0.8,0,1.2-0.5,1.2-1.4v-3.7H487v-9.1h17.7v9.1h-6.8V83.8z M505,87.2
		c-1.5-1.4-3.3-3-5.5-4.8l1.9-2.5c2,1.5,3.9,3,5.7,4.5L505,87.2z M507.4,38.4h-7.8v2.3h6.8v11.2h-3.1v-1.6h-8.6v1.6h-3.1V40.7h4.8
		v-7.5h3.1v2.1h7.8V38.4z M514.7,85.1c-0.3,0.9-0.8,1.6-1.6,2c-0.8,0.4-2.2,0.5-4.3,0.4c-0.1-0.8-0.2-1.9-0.5-3.3
		c1,0.2,1.8,0.2,2.2,0.2c0.4,0,0.7-0.1,1-0.3s0.4-0.5,0.5-0.9c0.1-0.4,0.1-1.1,0.1-2.2c0-1,0-2-0.1-2.9c-0.9,1.3-1.9,2.5-3.2,3.7
		c-0.3-0.6-0.7-1.6-1.4-3c1.5-1.3,2.9-2.9,4-4.7c-0.1-0.7-0.3-1.4-0.5-2c-0.6,0.5-1.2,1.1-1.8,1.6c-0.7-1.2-1.2-2.1-1.7-2.8
		c0.8-0.6,1.6-1.3,2.4-2.1c-0.6-1.3-1.3-2.5-2.1-3.5l2.1-1.9c0.9,0.9,1.6,1.9,2.2,3.1c0.8-0.8,1.5-1.7,2.2-2.7l2.2,2.2
		c-0.9,1.2-1.9,2.4-3,3.6c1,2.9,1.6,6.2,1.6,10.1C515.1,82.3,514.9,84.2,514.7,85.1z M527.7,88c-0.2-0.8-0.4-1.6-0.7-2.3l-11.3,1.4
		l-0.4-3.3l5.7-0.5v-4.7h-2.2v0.8H516v-12h5v-4.4h3.1v4.4h5v11.2h-5v4.4l2.1-0.2c-0.3-0.8-0.5-1.6-0.8-2.3l2.6-0.8
		c0.9,2.2,1.7,4.7,2.4,7.5L527.7,88z M550.9,86.5c-1.9-1.7-3.6-4.4-4.8-8.2l-1,0.5c0.4,1.3,0.6,2.6,0.6,3.9c0,1.1-0.1,2-0.3,2.7
		c-0.2,0.7-0.5,1.2-1,1.7c-0.5,0.4-1,0.7-1.6,0.8c-0.6,0.1-2,0.2-4.3,0.2c-0.2-1.2-0.5-2.2-0.7-3.1c-1.6,0.9-3.3,1.7-5.2,2.4
		c-0.5-1-1.1-2-1.8-3c4.5-1.2,8.1-3,10.9-5.5c-0.1-0.3-0.3-0.7-0.4-1c-2.5,1.9-5.3,3.4-8.5,4.4l-1.5-2.6c3.6-0.8,6.6-2.1,9-3.7
		c-0.2-0.3-0.4-0.5-0.6-0.8c-2,1.1-4.3,1.9-6.8,2.6c-0.5-0.9-1-1.8-1.5-2.6c3.1-0.6,5.7-1.5,7.9-2.7h-3.8v-2.8h13.2v2.8h-5
		c-0.5,0.4-1,0.7-1.5,1.1c0.7,0.9,1.2,1.7,1.7,2.6c2.5-1.3,4.7-2.6,6.3-3.7l1.8,2.8l-3.6,1.9c1,2.9,2.7,5.1,5,6.6
		C552.5,84.7,551.6,85.7,550.9,86.5z M550.3,33.7l-2.1-2c1.2-1.3,2.3-2.7,3.3-4.2l2.5,2C552.7,31,551.5,32.4,550.3,33.7z
		 M659.9,27.5h3.1v19.7c0,0.9,0.4,1.3,1.1,1.3h0.6c0.8,0,1.3-0.4,1.4-1.1c0.3-1.6,0.5-3.2,0.6-4.8c0.9,0.5,2,0.9,3.2,1.4
		c-0.3,2.2-0.6,3.9-1,5.3c-0.4,1.5-1.6,2.3-3.6,2.3h-2.3c-2.1,0-3.1-1.2-3.1-3.5V27.5z M633.7,29.8h2.4l-1-1.8l2.5-1l1.3,2.7h2
		l1.2-2.8l2.7,0.9l-1.2,1.9h2.5v10h-12.4V29.8z M625,28.3h7.9V44h-2.2V31.1h-3.5v13H625V28.3z M628.1,41v-8.7h1.8V41
		c0,0.9-0.1,1.8-0.2,2.7l4.3,5.4l-2.3,2.2c-0.9-1.5-1.8-3-2.7-4.6c-0.7,2.1-1.8,4-3.4,5.6c-0.3-0.7-0.9-1.7-1.6-3
		C626.7,46.9,628.1,44.1,628.1,41z M601.4,29.2h3.9c-0.2-0.5-0.3-1.1-0.5-1.7l3.2-0.5l0.6,2.2h3.4V28h11.4v3h-4.7
		c-0.1,0.8-0.2,1.5-0.3,2.2h4.3v13h-2.7V36.1h-5v10.1h-2.7v-13h3.1c0.1-0.7,0.2-1.4,0.3-2.2H612v2.1h-2.4v-1.4h-5.8v1.8h-2.4V29.2z
		 M586.5,3.7h9.5v11.9h-3.1v-1.2h-3.2v1.2h-3.1V3.7z M575.4,3.7h9.5v11.9h-3.1v-1.2h-3.2v1.2h-3.1V3.7z M577,49.5l-1.4,2.8
		c-2.8-1.2-5.9-2.4-9.3-3.6c-1.3,1.9-4.5,3-9.5,3.5c-0.3-0.9-0.7-1.9-1.2-3c3.3-0.2,5.7-0.6,7.1-1.3c1.4-0.7,2.2-2,2.2-4.1h2.9
		c-0.1,0.9-0.2,1.8-0.4,2.5C570.3,47.2,573.4,48.2,577,49.5z M555.9,38.5l0.9-6.1h5.3c0-0.4,0-0.9,0-1.4H556v-2.3h6.1V27h2.8v1.7
		h2.9V27h2.8v1.7h5.4v6.1h-5.4v1.4h6.2c0,1.3-0.1,2.5-0.2,3.4c-0.1,0.9-0.3,1.6-0.7,2.1s-0.9,0.7-1.7,0.7V47h-2.9v-3.9h-10.2v4.4
		h-2.9v-4.3c-0.7,0.3-1.4,0.6-2.2,0.9c-0.4-0.8-0.8-1.7-1.4-2.7c2.7-0.8,4.6-1.7,5.6-3H555.9z M565.2,84.6l-5.3-8.6
		c-0.1-0.2-0.3-0.6-0.5-1h-0.1v9.6h-3.8V65h3.8v9.3h0.1c0.2-0.4,0.3-0.8,0.5-1.1l5.1-8.2h4.5l-6.3,9.4l6.8,10.3H565.2z M582,84.6
		h-10.5V65h10v3.4h-6.3V73h5.8v3.4h-5.8v4.8h6.7V84.6z M581.4,52c-1-0.4-2-0.8-3-1c0.8-3,1.6-6.2,2.2-9.7c1.2,0.6,2.2,1,2.9,1.2
		L581.4,52z M577.8,36.4l1.9-2.4c1.2,0.9,2.4,2,3.6,3.2l-2.1,2.7C580.1,38.7,578.9,37.5,577.8,36.4z M600.3,84.6h-3.9L589,71.9
		c-0.4-0.7-0.7-1.2-0.8-1.6h-0.1c0.1,0.7,0.1,1.7,0.1,3.1v11.2h-3.6V65h4.1l7.2,12.4c0.5,0.8,0.8,1.3,0.9,1.6h0.1
		c-0.1-0.5-0.1-1.4-0.1-2.7V65h3.6V84.6z M600.4,36.4h-4.7v2.1h4v10.1c0,1-0.2,1.7-0.6,2.2c-0.4,0.5-0.9,0.8-1.6,0.9s-2,0.2-4.1,0.2
		c-0.2-0.9-0.4-1.7-0.6-2.5l-2.4-1.6c0.7-0.8,1.3-1.7,1.7-2.8l-1.1,1.1c-0.2-0.4-0.5-0.7-0.8-1.1c-0.5,1.4-1.2,2.8-2.1,4.3
		c-0.2-0.2-0.6-0.6-1.2-1.1V52h-2.9V38.5h4.2v-2.1h-5v-2.6h17V36.4z M600.4,31.8h-3.7v1.6h-3v-1.6h-3.6v1.6h-3v-1.6h-3.8v-1
		l-1.8,2.1c-1-1.1-2.1-2.2-3.3-3.4l1.9-2.3c1,0.8,2,1.7,3.2,2.9v-0.9h3.8v-2.1h3v2.1h3.6v-2.1h3v2.1h3.7V31.8z M616.7,67.3l-9,14h9
		v3.4h-14.1v-2.3l9.2-13.9h-8.5V65h13.4V67.3z M612.5,52.2c-0.5-0.9-0.9-1.6-1.4-2.3v1.6h-2.6v-0.8h-3.2v1h-2.6v-8.1
		c-0.2,0.1-0.5,0.1-0.7,0.2c-0.3-0.9-0.6-1.8-0.9-2.5c1.5-0.5,2.9-1,4-1.8l-1.1-0.6l1.3-2l1.8,0.9c0.6-0.6,1-1.3,1.4-2h-3
		c-0.6,1-1.3,2-2,2.9c-0.5-0.4-1.2-0.9-2.1-1.4c1.6-1.8,2.7-3.7,3.4-5.7l2.3,1c-0.1,0.3-0.2,0.5-0.3,0.7h4.7v2.4
		c-0.5,1.2-1.2,2.4-2,3.3c1,0.6,2,1.2,3,1.8l-1.2,2.5l0,0v6.2c2.1-0.8,3.5-1.8,4.2-3c0.7-1.2,1-3.1,1-5.8V37h2.7v4.1
		c0,1.6-0.1,3-0.4,4.2c1.9,1.4,3.6,2.7,5,3.9l-1.6,3c-1.2-1.2-2.7-2.6-4.4-4C616.6,49.9,614.9,51.2,612.5,52.2z M632.9,82.1
		c-1.6,1.9-3.7,2.9-6.3,2.9c-2.5,0-4.6-0.9-6.2-2.8c-1.6-1.8-2.4-4.2-2.4-7.1c0-3.1,0.8-5.6,2.4-7.5c1.6-1.9,3.7-2.9,6.4-2.9
		c2.5,0,4.6,0.9,6.1,2.8s2.3,4.3,2.3,7.2C635.3,77.7,634.5,80.2,632.9,82.1z M637,51.1v1h-2.7V40.7h11.1v11.4h-2.7v-1H637z
		 M657.3,69.4c-1.2-0.8-2.5-1.2-4.1-1.2c-1.7,0-3.1,0.6-4.1,1.8c-1,1.2-1.6,2.8-1.6,4.8c0,1.9,0.5,3.5,1.5,4.7c1,1.2,2.3,1.8,4,1.8
		c1.6,0,3-0.4,4.3-1.3v3.8c-1.3,0.7-3,1.1-5,1.1c-2.7,0-4.8-0.9-6.3-2.7c-1.6-1.8-2.3-4.1-2.3-7.1c0-3.1,0.9-5.6,2.6-7.6
		c1.7-2,4-3,6.8-3c1.7,0,3.2,0.2,4.3,0.7V69.4z M654.9,41.9v10.2h-3.1v-9.2c-1.1,1.3-2.3,2.5-3.6,3.8c-0.3-1.6-0.7-3-1-4.2
		c3.1-2.8,5.2-5.4,6.5-7.7h-5.5v-3.4h4.5c-0.6-1-1.1-2-1.7-2.9l2.6-1.5c0.5,0.7,1.2,1.8,2.1,3.2l-2,1.2h3.9v3.1
		c-0.7,1.4-1.5,2.9-2.5,4.4v1.4l0.9-1.3c1.1,0.8,2.2,1.7,3.5,2.8l-2,2.5C656.4,43.4,655.6,42.6,654.9,41.9z M670.2,84.6h-3.5v-2h0
		c-0.9,1.6-2.1,2.4-3.8,2.4c-1.2,0-2.1-0.4-2.9-1.1c-0.7-0.8-1.1-1.8-1.1-3.1c0-2.7,1.4-4.3,4.3-4.7l3.5-0.5c0-1.6-0.8-2.4-2.3-2.4
		c-1.5,0-2.9,0.5-4.3,1.5v-3.2c0.6-0.4,1.3-0.6,2.3-0.9c1-0.2,1.8-0.3,2.4-0.3c3.5,0,5.3,2,5.3,5.9V84.6z M688,64h3.3l-3.8,4.4h-2.7
		L688,64z M681.1,67c-0.5-0.2-1-0.3-1.4-0.3c-1.3,0-1.9,0.8-1.9,2.3v1.6h2.9v3.1h-2.9v11h-3.7v-11H672v-3.1h2.1v-1.8
		c0-1.6,0.5-2.9,1.4-3.8c0.9-1,2.2-1.4,3.7-1.4c0.8,0,1.4,0.1,1.9,0.3V67z M693.5,77v1.7h-8.3c0.1,2.2,1.3,3.3,3.5,3.3
		c1.4,0,2.6-0.4,3.7-1.1v3c-1.1,0.7-2.7,1.1-4.5,1.1c-2,0-3.6-0.6-4.7-1.9c-1.1-1.3-1.7-3-1.7-5.3c0-2.2,0.6-4.1,1.8-5.5
		c1.2-1.4,2.7-2.1,4.5-2.1c1.8,0,3.2,0.6,4.2,1.8C693,73.3,693.5,74.9,693.5,77z"/>
	<path class="st1" d="M597,40.8h-1.3c0,0.7-0.1,1.5-0.2,2.2l1.5,1.7V40.8z"/>
	<path class="st1" d="M604.3,43h6.1c-1-0.7-2-1.3-3-1.9C606.5,41.8,605.5,42.4,604.3,43z"/>
	<path class="st1" d="M626.7,68.3c-1.5,0-2.6,0.6-3.5,1.8s-1.3,2.8-1.3,4.7c0,1.9,0.4,3.5,1.2,4.7c0.8,1.2,2,1.8,3.4,1.8
		c1.5,0,2.6-0.6,3.4-1.7c0.8-1.2,1.2-2.7,1.2-4.7c0-2-0.4-3.7-1.2-4.9C629.3,68.9,628.2,68.3,626.7,68.3z"/>
	<rect x="494.8" y="43.8" class="st1" width="8.6" height="3.5"/>
	<rect x="605.2" y="45.7" class="st1" width="3.2" height="2.2"/>
	<rect x="637" y="43.3" class="st1" width="5.7" height="1.5"/>
	<path class="st1" d="M593,40.8H591c0,0.7,0,1.2-0.1,1.6l1.6,1.8C592.7,43.2,592.9,42.1,593,40.8z"/>
	<rect x="591" y="36.4" class="st1" width="2.1" height="2.1"/>
	<path class="st1" d="M595.5,49.3c0.9,0,1.3-0.5,1.3-1.4v-1.5l-0.9,1c-0.4-0.5-0.7-1.1-1.2-1.6c-0.4,1.2-1,2.4-1.8,3.5
		C594,49.3,594.8,49.3,595.5,49.3z"/>
	<rect x="624.7" y="4.4" class="st1" width="3" height="5"/>
	<rect x="490.3" y="73.3" class="st1" width="11.1" height="2.8"/>
	<rect x="36.1" y="428.7" class="st1" width="9" height="3.5"/>
	<path class="st1" d="M331.4,355.8L120.7,118.5L0,256.7v198.2l120.7,138.2L331.4,355.8z M132.8,397v-9.1h-9.9v-3.1h22.5v3.1h-9.2
		v2.7h8v3.1h-8v3.4c2.6,0.1,5.9,0,9.8-0.1c-0.4,1.4-0.8,2.5-1,3.4c-5.7,0-9.8-0.1-12.3-0.3c-2.6-0.2-4.4-1.3-5.4-3.4
		c-0.8,1.7-1.8,3.2-3,4.4c-0.7-1.1-1.4-2.1-2-2.9c2-2.1,3.3-5.2,3.8-9.2l3.2,0.4c-0.2,1.3-0.5,2.5-0.8,3.7
		C129.3,395.4,130.8,396.7,132.8,397z M128.1,352.8h9.9v11.9h-3.3v-1.2h-3.4v1.2h-3.3V352.8z M118.7,350.8v-9.7h17.1v9.7H118.7z
		 M132.5,378.9l-0.7-2l3.6-0.9c0.3,0.9,0.7,1.9,1,2.9h8.6v5h-3.3V382h-15.1v1.9h-3.3v-5H132.5z M129.9,437c-1.1-0.4-2.1-0.8-3.1-1
		c0.8-3,1.6-6.2,2.3-9.7c1.3,0.6,2.3,1,3.1,1.2L129.9,437z M126.2,421.4l2-2.4c1.2,0.9,2.5,2,3.8,3.2l-2.1,2.7
		C128.6,423.6,127.4,422.5,126.2,421.4z M149.8,421.3h-4.9v2.1h4.2v10.1c0,1-0.2,1.7-0.6,2.2c-0.4,0.5-1,0.8-1.6,0.9
		c-0.7,0.1-2.1,0.1-4.2,0.2c-0.2-0.9-0.4-1.7-0.7-2.5l-2.5-1.6c0.7-0.8,1.3-1.7,1.8-2.8l-1.2,1.1c-0.3-0.4-0.5-0.7-0.8-1.1
		c-0.5,1.4-1.2,2.8-2.2,4.3c-0.2-0.2-0.6-0.6-1.3-1.1v3.8h-3v-13.5h4.4v-2.1H132v-2.6h17.7V421.3z M149.8,416.8h-3.9v1.6h-3.1v-1.6
		H139v1.6h-3.1v-1.6H132v-1l-1.9,2.1c-1-1.1-2.2-2.2-3.5-3.4l2-2.3c1,0.8,2.1,1.7,3.4,2.9v-0.9h3.9v-2.1h3.1v2.1h3.8V412h3.1v2.1
		h3.9V416.8z M149.3,392.5v-12.6h4.4c-0.5-0.8-1.1-1.6-1.7-2.4l2.9-1.4l2.5,3.1l-1.5,0.7h4.8c1-1.3,1.8-2.6,2.6-3.9l3.6,1.4
		c-0.6,0.6-1.3,1.5-2.1,2.5h4.5v12.6h-8.2v1.8h10.1v3.1h-10.1v3.8h-3.3v-3.8h-10.1v-3.1h10.1v-1.8H149.3z M156.9,359.9
		c0-0.6,0.2-1.2,0.7-1.6c0.5-0.4,1-0.6,1.6-0.6c0.6,0,1.2,0.2,1.6,0.6c0.4,0.4,0.7,0.9,0.7,1.5c0,0.7-0.2,1.2-0.7,1.6
		s-1,0.6-1.7,0.6c-0.6,0-1.1-0.2-1.6-0.6C157.1,361,156.9,360.5,156.9,359.9z M168.9,352.7c-0.8,0-1.8,0.1-3,0.2v-10.8h10.1v3.4
		h-6.8v4.1c0.5-0.1,1-0.1,1.5-0.1c1.9,0,3.3,0.5,4.4,1.6s1.6,2.5,1.6,4.3c0,2-0.6,3.7-1.9,4.9c-1.3,1.2-3,1.8-5.1,1.8
		c-1.8,0-3.2-0.3-4.4-0.9v-3.6c1.3,0.8,2.6,1.3,4,1.3c1.1,0,1.9-0.3,2.6-0.8c0.6-0.6,1-1.3,1-2.3
		C172.9,353.7,171.5,352.7,168.9,352.7z M188.3,399.5v1.2H185v-11.9h9.9v11.9h-3.3v-1.2H188.3z M179.5,416v13h-2.3v-15.8h8.3V429
		h-2.3V416H179.5z M174,418.2v13h-2.8v-10.1H166v10.1h-2.8v-13h3.2c0.1-0.7,0.2-1.4,0.3-2.2h-3.9v2.1h-2.5v-1.4h-6.1v1.8h-2.5v-4.3
		h4c-0.2-0.5-0.4-1.1-0.6-1.7l3.3-0.5l0.7,2.2h3.5v-1.2h12v3h-4.9c-0.1,0.8-0.2,1.5-0.3,2.2H174z M173.4,400.7v-11.9h9.9v11.9H180
		v-1.2h-3.3v1.2H173.4z M192.8,386.8h-17.1v-9.7h17.1V386.8z M173.2,437.2c-1.3-1.2-2.8-2.6-4.6-4c-1,1.7-2.8,3.1-5.3,4
		c-0.5-0.9-1-1.6-1.5-2.3v1.6H159v-0.8h-3.3v1h-2.8v-8.1c-0.2,0.1-0.5,0.1-0.7,0.2c-0.3-0.9-0.6-1.8-1-2.5c1.6-0.5,3-1,4.1-1.8
		l-1.2-0.6l1.4-2l1.9,0.9c0.6-0.6,1.1-1.3,1.5-2h-3.1c-0.6,1-1.3,2-2.1,2.9c-0.5-0.4-1.3-0.9-2.2-1.4c1.7-1.8,2.9-3.7,3.5-5.7l2.5,1
		c-0.1,0.3-0.2,0.5-0.3,0.7h4.9v2.4c-0.6,1.2-1.3,2.4-2.1,3.3c1,0.6,2.1,1.2,3.2,1.8l-1.3,2.5l0,0v6.2c2.2-0.8,3.6-1.8,4.4-3
		c0.7-1.2,1.1-3.1,1.1-5.8v-3.8h2.8v4.1c0,1.6-0.1,3-0.4,4.2c2,1.4,3.7,2.7,5.3,3.9L173.2,437.2z M184.3,436.2
		c-0.9-1.5-1.8-3-2.8-4.6c-0.7,2.1-1.9,4-3.5,5.6c-0.3-0.7-0.9-1.7-1.7-3c2.8-2.4,4.2-5.1,4.2-8.3v-8.7h1.9v8.7
		c0,0.9-0.1,1.8-0.2,2.7l4.5,5.4L184.3,436.2z M198.5,437.2h-2.8v-1h-6v1h-2.8v-11.4h11.6V437.2z M199.2,424.7h-13v-10h2.5l-1.1-1.8
		l2.6-1l1.4,2.7h2.1l1.2-2.8l2.8,0.9l-1.2,1.9h2.6V424.7z M216.7,289c0-4.9,2.6-7.7,7.1-7.7s7.1,2.8,7.1,7.7v8.2h-9.8v5.3
		c0,2.5,1.1,3.7,2.7,3.7c1.7,0,2.7-1.2,2.7-3.7v-1.6h4.4v1.9c0,4.9-2.6,7.7-7.1,7.7c-4.4,0-7.1-2.8-7.1-7.7V289z M214.5,412.4h3.3
		v19.7c0,0.9,0.4,1.3,1.2,1.3h0.6c0.8,0,1.3-0.4,1.5-1.1c0.3-1.6,0.5-3.2,0.6-4.8c0.9,0.5,2,0.9,3.3,1.4c-0.3,2.2-0.7,3.9-1.1,5.3
		c-0.4,1.5-1.7,2.3-3.7,2.3h-2.5c-2.2,0-3.3-1.2-3.3-3.5V412.4z M211.9,429.3c-1-1-1.9-1.8-2.6-2.5v10.2h-3.2v-9.2
		c-1.1,1.3-2.4,2.5-3.8,3.8c-0.4-1.6-0.7-3-1.1-4.2c3.2-2.8,5.4-5.4,6.8-7.7h-5.8v-3.4h4.7c-0.6-1-1.2-2-1.8-2.9l2.8-1.5
		c0.5,0.7,1.2,1.8,2.2,3.2l-2.1,1.2h4v3.1c-0.7,1.4-1.6,2.9-2.6,4.4v1.4l1-1.3c1.1,0.8,2.3,1.7,3.7,2.8L211.9,429.3z M203.7,281.7
		h4.3v3.6c0.9-2.6,3.4-3.9,5.9-3.8v4.9c-3.3-0.6-5.8,1.2-5.8,5.4v18.3h-4.4V281.7z M202.7,344.1c-2.5,0.4-6.1,0.8-10.7,1.2v4h11v3.2
		h-3.5V365h-3.2v-12.6h-4.3v0.2c0,5.4-1.1,9.6-3.3,12.7c-0.7-1-1.6-2-2.5-2.9c1.7-2.2,2.6-5.7,2.6-10.5V342
		c4.5-0.1,8.8-0.5,12.9-1.4L202.7,344.1z M184.8,281.7h4.4v20.8c0,2.5,0.9,3.7,2.5,3.7c1.5,0,2.5-1.2,2.5-3.7v-20.8h4.4v28.3h-4.2
		v-1.8c-0.5,1.3-2.2,2.2-3.7,2.2c-4.2,0-5.9-2.8-5.9-7.7V281.7z M182,340.4h3.2v4.3h2.4v3.2h-2.4v3.9l2.8-0.5c0,0.2-0.2,1.3-0.3,3.5
		l-2.5,0.5v6.5c0,1-0.2,1.7-0.6,2.3c-0.4,0.5-1,0.9-1.9,0.9S181,365,180,365c-0.2-1-0.4-2.1-0.6-3.4l1.8,0.1c0.5,0,0.8-0.4,0.8-1.1
		v-4.7l-2.5,0.5l-0.2-3.7c0.8-0.1,1.7-0.2,2.7-0.4v-4.5h-2.6v-3.2h2.6V340.4z M171.4,281.7h2.1V275h4.4v6.7h3.6v4.5h-3.6V302
		c0,2.6,0.9,3.9,3.6,3.6v4.4c-5.7,0.5-8-2.7-8-7.5v-16.4h-2.1V281.7z M154,281.7h4.4v20.8c0,2.5,0.9,3.7,2.5,3.7
		c1.5,0,2.5-1.2,2.5-3.7v-20.8h4.4v28.3h-4.2v-1.8c-0.5,1.3-2.2,2.2-3.7,2.2c-4.2,0-5.9-2.8-5.9-7.7V281.7z M153.5,346.6
		c0,2.1-1.2,3.7-3.5,4.8v0.1c1.3,0.4,2.2,1,2.9,1.9c0.7,0.9,1,1.9,1,3.1c0,1.8-0.6,3.2-1.8,4.1c-1.2,1-2.9,1.5-4.9,1.5
		c-1.8,0-3.3-0.5-4.4-1.4s-1.7-2.3-1.7-3.9c0-2.4,1.3-4.1,3.8-5.2v-0.1c-2.1-0.9-3.2-2.4-3.2-4.5c0-1.6,0.6-2.8,1.7-3.8
		s2.6-1.4,4.3-1.4c1.7,0,3.1,0.4,4.2,1.3S153.5,345.1,153.5,346.6z M135.4,289c0-4.9,2.7-7.7,7.1-7.7s7.1,2.8,7.1,7.7v13.8
		c0,4.9-2.7,7.7-7.1,7.7s-7.1-2.8-7.1-7.7V289z M117.4,281.4c0-4.9,2.6-7.7,7-7.7c4.4,0,7,2.8,7,7.7v4.1H127v-3.8
		c0-2.5-0.9-3.7-2.5-3.7s-2.6,1.2-2.6,3.7v20.8c0,2.5,0.9,3.7,2.6,3.7s2.5-1.2,2.5-3.7v-3.8h4.4v4.1c0,4.9-2.5,7.7-7,7.7
		c-4.4,0-7-2.8-7-7.7V281.4z M116.4,352.8h9.9v11.9h-3.3v-1.2h-3.3v1.2h-3.3V352.8z M120.9,393l-3.7,2.3c0.9,0.8,2.2,1.5,3.8,2.1
		c-0.6,1-1.2,2.2-1.7,3.5c-2.4-1.2-4.2-2.6-5.4-4.4c0,1.2-0.1,2.1-0.1,2.8c-3.2,0.8-5.3,1.4-6.2,1.9l-1.3-2.7
		c0.5-0.6,0.8-1.5,0.8-2.7v-18.7h12.5v13.1h-0.6L120.9,393z M114,343.6c-2.1,0.6-4.5,1-7.1,1.3v3.4h7.1v3.3h-1.8v13.2h-3.1v-13.2
		H107v1.4c0,5.4-1.1,9.4-3.3,12.3c-1.1-1-2.1-1.8-3-2.5c0.9-0.9,1.6-1.9,2.1-3.2l-2.4,1.5c-0.6-1.3-1.2-2.6-1.8-3.8l2.3-1.2
		c0.6,0.8,1.2,2,2,3.5c0.7-1.6,1-3.6,1-6v-11.4c3.6-0.4,6.6-1,8.8-1.9L114,343.6z M76.4,381.2v3.5h-3.3v-6.4h9.2
		c-0.2-0.7-0.5-1.3-0.7-1.8l4.1-0.6c0.2,0.7,0.4,1.4,0.7,2.3h8.9v6.4H92v-3.5H76.4z M93.6,364.7c-0.1-1-0.2-2-0.5-2.9l-0.5,1.1
		c-0.6-0.4-1.5-0.8-2.5-1.3c0.8-1.6,1.5-3.5,2.1-5.6l2.7,0.9c-0.4,1.5-0.9,3-1.5,4.4c0.4,0,0.8,0.1,1.2,0.1c0.6,0,0.9-0.4,0.9-1.1
		v-4.7h-4.5v-2.8h4.5v-1.6h-4.9v-2.8h2.6c-0.3-0.7-0.7-1.4-1-2l2.6-1.1c0.6,1.1,1.2,2.2,1.6,3.1h1c0.8-1.4,1.3-2.5,1.6-3.1h-8v-2.8
		h4.2c-0.2-0.6-0.4-1.2-0.6-1.7l3.3-0.6c0.2,0.7,0.5,1.4,0.7,2.3h4v2.8h-3.3c0.4,0.2,1.3,0.6,2.5,1.2c-0.3,0.4-0.7,1.1-1.2,2h2.5
		v2.8h-4.6v1.6h4.2v2.8h-4.2v6.1c0,0.8-0.2,1.4-0.5,1.9c-0.3,0.5-0.8,0.7-1.3,0.9C96.1,364.6,95.1,364.7,93.6,364.7z M94.4,281.7
		l2.1,15.6c0.4,2.6,0.7,7,0.7,7h0.1c0,0,0.4-4.5,0.7-7l2.1-15.6h4.6l-5.8,31.8c-0.8,4.1-2.9,7.2-6.8,7.2c-0.8,0-1.2-0.1-1.9-0.3
		v-4.5c0.5,0.2,1,0.2,1.4,0.2c2,0,2.7-1.7,3-3.5l0.5-2.5l-5.3-28.3H94.4z M86.5,344.7v10.7H74.2c-0.3,0.4-0.6,0.8-0.9,1.1h13v2.3
		c-1.2,1-2.7,1.9-4.3,2.7c2,0.3,4.2,0.4,6.6,0.4c-0.5,1.2-0.9,2.2-1.2,3.1c-3.6-0.4-6.8-1-9.5-1.9c-3,1-6.5,1.7-10.5,2.2
		c-0.4-1-0.8-2-1.2-2.9c2.9-0.2,5.5-0.5,7.8-0.9c-1.3-0.7-2.4-1.4-3.3-2.3c-1,0.9-2.2,1.7-3.4,2.5c-0.5-0.7-1.1-1.5-1.8-2.3
		c2.2-1.2,3.9-2.5,5.2-3.9h-2.1v-10.7h5.6c0.1-0.4,0.3-0.8,0.4-1.2H66V341h22.4v2.5H78.2l-0.5,1.2H86.5z M73.8,289
		c0-4.9,2.4-7.8,6.8-7.8s6.8,2.8,6.8,7.7v1.9H83v-1.7c0-2.4-0.7-3.7-2.4-3.7s-2.4,1.4-2.4,3.7v13.3c0,2.4,0.7,3.7,2.4,3.7
		s2.4-1.3,2.4-3.7v-1.6h4.4v1.9c0,4.9-2.4,7.7-6.8,7.7s-6.8-2.8-6.8-7.7V289z M64.9,272h4.4v5.6h-4.4V272z M64.9,281.7h4.4v28.3
		h-4.4V281.7z M69.6,380.6v11.2h-5.2v4.4l2.2-0.2c-0.3-0.8-0.5-1.6-0.8-2.3l2.7-0.8c0.9,2.2,1.7,4.7,2.5,7.5l-2.8,0.9
		c-0.2-0.8-0.5-1.6-0.7-2.3l-11.8,1.4l-0.4-3.3l5.9-0.5v-4.7H59v0.8h-3v-12h5.2v-4.4h3.2v4.4H69.6z M46,281.7h4.4v20.8
		c0,2.5,0.9,3.7,2.5,3.7c1.5,0,2.5-1.2,2.5-3.7v-20.8h4.4v28.3h-4.2v-1.8c-0.5,1.3-2.2,2.2-3.7,2.2c-4.2,0-5.9-2.8-5.9-7.7V281.7z
		 M41.5,341.8h8.7c0.1-0.6,0.2-1.2,0.2-1.8h3.2c-0.1,0.6-0.2,1.2-0.3,1.8h9.5v2.6h-9.9l-0.3,1.3H62v2.5H51.9
		c-0.2,0.4-0.4,0.9-0.6,1.3h12.5v2.6H58c1.6,1.7,3.6,2.8,6,3.5c-0.8,1.4-1.3,2.5-1.6,3.1c-1-0.4-1.9-0.9-2.7-1.4v8h-3.1v-1h-8.9v1.1
		h-3.1v-8c-0.7,0.5-1.5,1.1-2.3,1.5c-0.8-1.2-1.4-2.2-2-2.9c2.2-1,4-2.3,5.5-3.9h-5.2v-2.6h7.1c0.2-0.4,0.5-0.8,0.7-1.3h-6v-2.5h7
		c0.1-0.4,0.3-0.9,0.4-1.3h-8.2V341.8z M27.1,298.7h4.4v3.8c0,2.5,0.9,3.7,2.6,3.7s2.6-1.2,2.6-3.7v-28.4h4.4v28.6
		c0,4.9-2.6,7.7-7.1,7.7c-4.4,0-7-2.8-7-7.7V298.7z M49.3,423.4h-8.1v2.3h7.1v11.2H45v-1.6h-9v1.6h-3.2v-11.2h5v-7.5h3.3v2.1h8.1
		V423.4z M49.7,417.8H31.4v5.7c0,6.4-0.8,10.9-2.5,13.7c-0.9-0.9-1.8-1.7-2.8-2.5c1.4-2.6,2-6.5,2-11.6v-8.4h9.3
		c-0.2-0.6-0.5-1.2-0.7-1.8l3.9-1c0.3,0.9,0.7,1.8,1,2.8h8V417.8z M48.6,400.6c-0.1-0.8-0.2-1.9-0.5-3.3c1.1,0.2,1.9,0.2,2.3,0.2
		c0.4,0,0.8-0.1,1-0.3c0.3-0.2,0.4-0.5,0.5-0.9c0.1-0.4,0.1-1.1,0.1-2.2c0-1,0-2-0.1-2.9c-0.9,1.3-2,2.5-3.3,3.7
		c-0.3-0.6-0.8-1.6-1.5-3c1.6-1.3,3-2.9,4.2-4.7c-0.1-0.7-0.3-1.4-0.5-2c-0.6,0.5-1.2,1.1-1.9,1.6c-0.7-1.2-1.3-2.1-1.8-2.8
		c0.8-0.6,1.6-1.3,2.5-2.1c-0.6-1.3-1.3-2.5-2.2-3.5l2.2-1.9c0.9,0.9,1.7,1.9,2.3,3.1c0.8-0.8,1.6-1.7,2.3-2.7l2.3,2.2
		c-1,1.2-2,2.4-3.1,3.6c1.1,2.9,1.6,6.2,1.6,10.1c0,2.7-0.2,4.6-0.5,5.5s-0.9,1.6-1.7,2C52.2,400.5,50.7,400.7,48.6,400.6z
		 M73.5,432.6c0,1.3-0.3,2.2-0.8,2.9c-0.5,0.7-1.3,1.1-2.4,1.1c-1,0.1-2.5,0.1-4.3,0.1c-0.2-1-0.4-2.1-0.7-3.3
		c1.1,0.1,2.1,0.1,3.1,0.1c0.5,0,0.9,0,1.2-0.1s0.4-0.2,0.5-0.5c0.1-0.3,0.2-0.6,0.2-1v-12.6h-5.6c-0.1,1.4-0.2,2.5-0.4,3.5
		c1.6,1.3,3.6,2.9,5.8,4.8l-2.4,2.6c-1.1-1.2-2.6-2.7-4.5-4.5c-1,1.8-2.5,3.5-4.5,4.9c-0.8-1-1.6-1.9-2.5-2.7c3.4-2.2,5.2-5,5.4-8.6
		H56v17.6h-3.2V416h8.8c0-1.4,0.1-2.8,0.1-4.1h3.1c0,1.5,0,2.9,0,4.1h8.7V432.6z M72.3,397.4c4.7-1.2,8.5-3,11.4-5.5
		c-0.1-0.3-0.3-0.7-0.4-1c-2.6,1.9-5.6,3.4-8.9,4.4l-1.6-2.6c3.8-0.8,6.9-2.1,9.3-3.7c-0.2-0.3-0.4-0.5-0.6-0.8
		c-2.1,1.1-4.5,1.9-7.1,2.6c-0.5-0.9-1-1.8-1.6-2.6c3.2-0.6,6-1.5,8.2-2.7h-3.9v-2.8h13.8v2.8h-5.2c-0.5,0.4-1,0.7-1.5,1.1
		c0.7,0.9,1.3,1.7,1.8,2.6c2.7-1.3,4.9-2.6,6.6-3.7l1.9,2.8l-3.8,1.9c1.1,2.9,2.8,5.1,5.2,6.6c-1,1-1.9,1.9-2.7,2.8
		c-2-1.7-3.7-4.4-5.1-8.2l-1,0.5c0.4,1.3,0.6,2.6,0.6,3.9c0,1.1-0.1,2-0.3,2.7c-0.2,0.7-0.6,1.2-1,1.7c-0.5,0.4-1,0.7-1.6,0.8
		c-0.6,0.1-2.1,0.2-4.5,0.2c-0.2-1.2-0.5-2.2-0.8-3.1c-1.6,0.9-3.5,1.7-5.4,2.4C73.6,399.4,73,398.4,72.3,397.4z M79.7,436.9
		c-1.2-0.4-2.3-0.7-3.3-1c0.8-2.9,1.5-6.2,2.2-10c1.3,0.5,2.3,0.9,3.2,1.1L79.7,436.9z M80,425c-1-1-2.2-2.2-3.7-3.5l2.1-2.4
		c1.5,1.1,2.8,2.2,3.9,3.3L80,425z M80.3,418.2c-1.4-1.5-2.6-2.7-3.7-3.6l2-2.3c1.2,0.9,2.5,2,3.9,3.3L80.3,418.2z M84.9,412.5
		c1.3,1.4,2.5,2.7,3.6,4l-2.5,2c-1-1.3-2.1-2.7-3.4-4.1L84.9,412.5z M98.7,433.3c0,1-0.2,1.8-0.7,2.4c-0.5,0.6-1.1,0.9-2,1
		c-0.9,0.1-2.5,0.2-4.7,0.1c-0.2-1.1-0.5-2.3-0.9-3.4c1.3,0.1,2.4,0.1,3.3,0.1c1.1,0,1.6-0.5,1.6-1.6v-0.4h-8.6v5.2h-3.4v-17.8h6v-7
		h3.3v7h6V433.3z M95.7,418.7l-2.2-2c1.2-1.3,2.4-2.7,3.5-4.2l2.6,2C98.3,416,97,417.4,95.7,418.7z M101.2,401.2h-3v-24.1h8v2.4
		c-0.6,2.1-1.2,4.4-2,6.9c1.6,1.8,2.3,4,2.3,6.5c0,2.7-1.5,4-4.6,4c-0.1-1.4-0.3-2.7-0.6-3.9c0.3,0.1,0.6,0.1,0.8,0.1
		c0.9,0,1.4-0.4,1.4-1.2c0-1.7-0.7-3.4-2.1-5.1c0.7-2.2,1.3-4.5,1.8-6.7h-2V401.2z M107.1,423.5h-4.7l0.9-6.1h5.5c0-0.4,0-0.9,0-1.4
		h-6.4v-2.3h6.4V412h3v1.7h3V412h3v1.7h5.6v6.1h-5.6v1.4h6.5c0,1.3-0.1,2.5-0.2,3.4c-0.1,0.9-0.3,1.6-0.7,2.1
		c-0.4,0.4-1,0.7-1.8,0.7v4.6h-3v-3.9H108v4.4h-3v-4.3c-0.7,0.3-1.5,0.6-2.3,0.9c-0.4-0.8-0.9-1.7-1.5-2.7
		C104.1,425.7,106.1,424.7,107.1,423.5z M103.4,437.2c-0.3-0.9-0.8-1.9-1.3-3c3.4-0.2,5.9-0.6,7.4-1.3c1.5-0.7,2.3-2,2.3-4.1h3
		c-0.1,0.9-0.2,1.8-0.4,2.5c2.9,0.9,6.3,1.9,10,3.2l-1.5,2.8c-2.9-1.2-6.2-2.4-9.7-3.6C111.9,435.5,108.6,436.7,103.4,437.2z"/>
	<path class="st1" d="M114.8,416h-3c0,0.3,0,0.8,0,1.4h3V416z"/>
	<path class="st1" d="M84.6,395.7c0-0.3,0-0.6-0.1-1c-1.3,1.1-2.8,2.2-4.5,3.1c1,0.1,1.8,0.2,2.4,0.2
		C83.9,397.9,84.6,397.2,84.6,395.7z"/>
	<rect x="86.7" y="426.7" class="st1" width="8.6" height="1.9"/>
	<rect x="117.8" y="416" class="st1" width="2.8" height="1.4"/>
	<path class="st1" d="M108.7,419.8h-2.8l-0.3,1.4h2.8C108.5,420.8,108.6,420.3,108.7,419.8z"/>
	<path class="st1" d="M114.8,419.8h-3.2c-0.1,0.5-0.2,1-0.3,1.4h3.4V419.8z"/>
	<path class="st1" d="M119.1,425c1.2,0,1.9,0,2-0.1c0.1-0.1,0.2-0.2,0.3-0.5c0.1-0.2,0.1-0.5,0.1-0.9h-3.7v1.9h-3v-1.9h-4.3
		c-0.6,1-1.2,1.8-1.8,2.3h10.5L119.1,425z"/>
	<rect x="86.7" y="421.9" class="st1" width="8.6" height="1.9"/>
	<rect x="189.7" y="428.2" class="st1" width="6" height="1.5"/>
	<rect x="189.7" y="432.1" class="st1" width="6" height="1.5"/>
	<path class="st1" d="M154.7,427.9h6.4c-1.1-0.7-2.1-1.3-3.1-1.9C157,426.8,155.9,427.4,154.7,427.9z"/>
	<rect x="155.7" y="430.7" class="st1" width="3.3" height="2.2"/>
	<path class="st1" d="M188.6,422.2h3v-4.9h-3V422.2z M190.1,417.8c0.3,0.6,0.7,1.6,1.4,3.1c-0.4,0.2-0.9,0.4-1.4,0.6
		c-0.3-1-0.8-2-1.3-3.1L190.1,417.8z"/>
	<path class="st1" d="M147.4,353.1c-1.8,0.8-2.7,1.9-2.7,3.4c0,0.8,0.3,1.4,0.8,1.9c0.6,0.5,1.2,0.7,2,0.7c0.8,0,1.5-0.2,2-0.7
		c0.5-0.5,0.8-1.1,0.8-1.9C150.4,354.9,149.4,353.8,147.4,353.1z"/>
	<path class="st1" d="M193.8,422.2h3v-4.9h-3V422.2z M195.3,417.9l1.4,0.5c-0.4,1-0.9,2.1-1.4,3.2c-0.5-0.3-0.9-0.5-1.3-0.7
		C194.5,419.8,194.9,418.8,195.3,417.9z"/>
	<path class="st1" d="M146,345.4c-0.5,0.4-0.7,1-0.7,1.6c0,1.3,0.8,2.3,2.3,2.9c1.5-0.7,2.3-1.7,2.3-2.9c0-0.7-0.2-1.3-0.6-1.7
		c-0.4-0.4-1-0.6-1.6-0.6C147,344.7,146.4,344.9,146,345.4z"/>
	<rect x="160.8" y="387.5" class="st1" width="5.1" height="2.1"/>
	<rect x="152.4" y="382.8" class="st1" width="5.1" height="2.1"/>
	<rect x="160.8" y="382.8" class="st1" width="5.1" height="2.1"/>
	<rect x="152.4" y="387.5" class="st1" width="5.1" height="2.1"/>
	<path class="st1" d="M55.9,353.7c-0.4-0.5-0.8-1-1.1-1.6h-5c-0.4,0.6-0.8,1.1-1.3,1.6H55.9z"/>
	<rect x="179.1" y="380.3" class="st1" width="10.1" height="3.3"/>
	<rect x="188.3" y="391.9" class="st1" width="3.4" height="4.5"/>
	<rect x="176.7" y="391.9" class="st1" width="3.3" height="4.5"/>
	<rect x="59" y="383.8" class="st1" width="2.3" height="4.7"/>
	<rect x="71.5" y="352.3" class="st1" width="11.9" height="0.9"/>
	<rect x="71.5" y="349.6" class="st1" width="11.9" height="0.9"/>
	<rect x="71.5" y="346.8" class="st1" width="11.9" height="0.9"/>
	<rect x="47.7" y="356.2" class="st1" width="8.9" height="1.6"/>
	<rect x="47.7" y="360.1" class="st1" width="8.9" height="1.6"/>
	<path class="st1" d="M142.5,306.3c1.7,0,2.7-1.2,2.7-3.7v-13.3c0-2.5-1.1-3.7-2.7-3.7s-2.7,1.2-2.7,3.7v13.3
		C139.8,305,140.9,306.3,142.5,306.3z"/>
	<rect x="64.4" y="383.8" class="st1" width="2.2" height="4.7"/>
	<path class="st1" d="M81.7,358.7h-7.4c1.1,0.6,2.2,1.2,3.5,1.6C79.2,359.9,80.5,359.4,81.7,358.7z"/>
	<rect x="119.7" y="355.9" class="st1" width="3.3" height="4.5"/>
	<path class="st1" d="M110.1,390.3v6.6c1.1-0.3,2.2-0.6,3.4-0.9c-1-1.5-1.8-3.4-2.3-5.7H110.1z"/>
	<rect x="110.1" y="380.3" class="st1" width="6.4" height="2.1"/>
	<path class="st1" d="M115.5,393.1c1.2-0.9,2.2-1.8,3.2-2.8h-4.5C114.6,391.4,115,392.3,115.5,393.1z"/>
	<rect x="110.1" y="385.2" class="st1" width="6.4" height="2.1"/>
	<path class="st1" d="M226.4,289.2c0-2.5-1-3.7-2.7-3.7s-2.7,1.2-2.7,3.7v4.2h5.4V289.2z"/>
	<path class="st1" d="M142.1,425.8h-2.2c0,0.7-0.1,1.2-0.1,1.6l1.6,1.8C141.8,428.2,142,427.1,142.1,425.8z"/>
	<path class="st1" d="M135.6,431.3c0.9-1.5,1.5-3.4,1.6-5.5h-1.6V431.3z"/>
	<path class="st1" d="M146.2,425.8h-1.4c0,0.7-0.1,1.5-0.2,2.2l1.6,1.7V425.8z"/>
	<rect x="122.2" y="344.3" class="st1" width="10.1" height="3.3"/>
	<rect x="131.4" y="355.9" class="st1" width="3.4" height="4.5"/>
	<rect x="139.9" y="421.3" class="st1" width="2.2" height="2.1"/>
	<path class="st1" d="M144.7,434.3c0.9,0,1.4-0.5,1.4-1.4v-1.5l-0.9,1c-0.4-0.5-0.8-1.1-1.2-1.6c-0.5,1.2-1.1,2.4-1.9,3.5
		C143.1,434.3,144,434.3,144.7,434.3z"/>
	<rect x="577.5" y="659.3" class="st1" width="6" height="1.5"/>
	<path class="st1" d="M576.4,653.2h3v-4.9h-3V653.2z M577.8,648.9c0.3,0.6,0.7,1.6,1.4,3.1c-0.4,0.2-0.9,0.4-1.4,0.6
		c-0.3-1-0.8-2-1.3-3.1L577.8,648.9z"/>
	<path class="st1" d="M553.5,650.8h-3.2c-0.1,0.5-0.2,1-0.3,1.4h3.4V650.8z"/>
	<path class="st1" d="M490.3,575.7c-2.1,1.3-3,2.5-3,5.2c0,2.5,1,3.4,2.4,3.4c1.7,0,2.8-1.4,2.8-4.3v-6.2
		C492,574.5,491.4,575,490.3,575.7z"/>
	<path class="st1" d="M457.8,619h-5c-0.4,0.6-0.8,1.1-1.3,1.6h7.4C458.5,620.1,458.1,619.6,457.8,619z"/>
	<path class="st1" d="M557.7,656c1.2,0,1.9,0,2-0.1c0.1-0.1,0.2-0.2,0.3-0.5c0.1-0.2,0.1-0.5,0.1-0.9h-3.7v1.9h-3v-1.9h-4.3
		c-0.6,1-1.2,1.8-1.8,2.3H558L557.7,656z"/>
	<rect x="473.6" y="613.8" class="st1" width="11.9" height="0.9"/>
	<rect x="450.7" y="623.1" class="st1" width="8.9" height="1.6"/>
	<rect x="521.1" y="622.9" class="st1" width="4.8" height="1.1"/>
	<rect x="450.7" y="627.1" class="st1" width="8.9" height="1.6"/>
	<rect x="477.3" y="659.8" class="st1" width="9" height="3.5"/>
	<rect x="526.2" y="653" class="st1" width="8.6" height="1.9"/>
	<rect x="577.5" y="663.1" class="st1" width="6" height="1.5"/>
	<rect x="529.1" y="620.2" class="st1" width="4.9" height="1.1"/>
	<path class="st1" d="M508.5,621.3c0.4,1,0.8,2,1.3,2.8c1.2-0.9,2.2-1.8,3.2-2.8H508.5z"/>
	<rect x="529.1" y="622.9" class="st1" width="4.9" height="1.1"/>
	<rect x="504.4" y="611.2" class="st1" width="6.4" height="2.1"/>
	<rect x="526.2" y="657.7" class="st1" width="8.6" height="1.9"/>
	<path class="st1" d="M504.4,621.3v6.6c1.1-0.3,2.2-0.6,3.4-0.9c-1-1.5-1.8-3.4-2.3-5.7H504.4z"/>
	<rect x="504.4" y="616.1" class="st1" width="6.4" height="2.1"/>
	<path class="st1" d="M547.3,650.8h-2.8l-0.3,1.4h2.8C547.1,651.8,547.2,651.3,547.3,650.8z"/>
	<path class="st1" d="M615,580.9c0,2.5,1,3.4,2.4,3.4c1.7,0,2.8-1.4,2.8-4.3v-6.2c-0.5,0.7-1.1,1.2-2.2,1.9
		C616,577,615,578.3,615,580.9z"/>
	<rect x="556.4" y="647" class="st1" width="2.8" height="1.4"/>
	<rect x="568.4" y="622.8" class="st1" width="3.3" height="4.5"/>
	<path class="st1" d="M695.6,607.3L540,432L386.9,607.3L486.3,721h108.3L695.6,607.3z M610.9,665.3c-0.4,1.5-1.7,2.3-3.7,2.3h-2.5
		c-2.2,0-3.3-1.2-3.3-3.5v-20.6h3.3v19.7c0,0.9,0.4,1.3,1.2,1.3h0.6c0.8,0,1.3-0.4,1.5-1.1c0.3-1.6,0.5-3.2,0.6-4.8
		c0.9,0.5,2,0.9,3.3,1.4C611.7,662.1,611.4,663.9,610.9,665.3z M619.2,618.7v13.2h-3.3v-9.4c-0.7,0.8-1.5,1.5-2.3,2.2
		c-0.3-0.9-0.8-2.1-1.3-3.5c2.4-2.2,4.6-4.8,6.4-7.6l2.8,1.9C620.8,616.6,620,617.6,619.2,618.7z M612.4,612.8
		c2.7-2.2,4.6-4.1,5.9-5.8c1,0.7,2,1.5,2.9,2.2c-1.7,2.1-3.9,4.3-6.6,6.6C613.9,614.8,613.2,613.8,612.4,612.8z M636,619.3h-3.7v8.2
		c0,1.4-0.3,2.4-0.9,3.1c-0.6,0.7-1.4,1.1-2.5,1.2s-2.7,0.1-4.8,0.2c-0.2-1.1-0.5-2.3-0.9-3.6c1.7,0.1,3,0.2,3.9,0.2
		c1.2,0,1.7-0.7,1.7-2v-7.3h-7.1V616H636V619.3z M635,612.1h-12.4v-3.3H635V612.1z M618.1,563.4c-1.7,0-2.4,1.3-2.4,3.8v1.7h-4.4
		v-1.7c0-4.9,2.5-8,6.9-8c5.5,0,6.5,4,6.5,9.1v9.6c0,6.3,0.1,8.1,0.5,10.1h-4.3c-0.2-0.7-0.3-1.5-0.3-2.2c-0.9,1.7-2.6,2.6-4.6,2.6
		c-2.7,0-5.4-2.2-5.4-7c0-4.6,1.8-6.9,5.5-8.9c2.9-1.6,4.3-2.6,4.3-5.7C620.3,565,619.8,563.4,618.1,563.4z M593.8,578.9h4.4v1.6
		c0,2.5,1.1,3.8,2.7,3.8c1.6,0,2.8-1.1,2.8-3.4c0-1.5-0.3-2.4-1.7-3.5l-4.1-3.5c-2.3-2-3.7-3.6-3.7-7.2c0-4.7,2.3-7.5,6.7-7.5
		s6.8,2.8,6.8,7.7v1.9h-4.4v-1.7c0-2.4-0.8-3.8-2.4-3.8c-1.5,0-2.3,1.3-2.3,3.4c0,1.5,0.3,2.3,1.7,3.4l4.1,3.5
		c2.3,2,3.7,3.7,3.7,7.3c0,4.7-2.8,7.5-7.1,7.5c-4.4,0-7.1-2.8-7.1-7.7V578.9z M593.5,608.1c-0.2,1-0.6,2.4-1,3.9h3.4
		c0.4-1.4,0.7-3.1,1.1-5l3.5,0.3l-1,4.7h6.7c-0.9-0.9-1.8-1.9-2.7-2.8l2.1-2.1c1.5,1.2,2.7,2.3,3.7,3.3l-1.5,1.6h4v3.1h-13.2
		c-0.2,0.7-0.5,1.5-0.8,2.3h11.6v2.8c-1.2,2.2-2.8,4.2-4.8,5.9c1.8,0.9,4.2,1.5,7.3,2c-0.7,1.2-1.4,2.5-2,3.7
		c-3.2-0.8-6-1.9-8.3-3.5c-2.3,1.5-5.1,2.7-8.3,3.7c-0.6-1.1-1.2-2.2-1.8-3.3c2.7-0.8,5-1.7,7.2-2.8c-1.2-1.1-2.2-2.5-3.1-4
		c-1.8,3.1-4,5.8-6.3,8c-0.3-1.6-0.7-3-1-4.2c3.1-3.1,5.4-6.7,6.9-10.8h-6v-3c0.4-1.4,0.8-2.8,1.2-4.4L593.5,608.1z M585.5,550h4.4
		v5.6h-4.4V550z M585.5,559.7h4.4v28.3h-4.4V559.7z M580.1,630.5v1.2h-3.3v-11.9h9.9v11.9h-3.3v-1.2H580.1z M584.5,617.8h-17.1v-9.7
		h17.1V617.8z M566.7,559.7h4.4v20.8c0,2.5,0.9,3.7,2.5,3.7c1.5,0,2.5-1.2,2.5-3.7v-20.8h4.4v28.3h-4.2v-1.8
		c-0.5,1.3-2.2,2.2-3.7,2.2c-4.2,0-5.9-2.8-5.9-7.7V559.7z M565.1,619.7h9.9v11.9h-3.3v-1.2h-3.3v1.2h-3.3V619.7z M565,644.3h8.3
		V660H571V647h-3.7v13H565V644.3z M552.3,552.2h4.4v31.7h6.6v4.2h-11.1V552.2z M539.3,615.7v1.9h-23.4v-1.9H539.3z M518.1,614.8V608
		H537v6.9H518.1z M530.8,563.4c-1.7,0-2.4,1.3-2.4,3.8v1.7H524v-1.7c0-4.9,2.5-8,6.9-8c5.5,0,6.5,4,6.5,9.1v9.6
		c0,6.3,0.1,8.1,0.5,10.1h-4.3c-0.2-0.7-0.3-1.5-0.3-2.2c-0.9,1.7-2.6,2.6-4.6,2.6c-2.7,0-5.4-2.2-5.4-7c0-4.6,1.8-6.9,5.5-8.9
		c2.9-1.6,4.3-2.6,4.3-5.7C533,565,532.5,563.4,530.8,563.4z M515.3,550h4.4v5.6h-4.4V550z M515.3,559.7h4.4v28.3h-4.4V559.7z
		 M501.8,559.7h4.3v3.6c0.9-2.6,3.4-3.9,5.9-3.8v4.9c-3.3-0.6-5.8,1.2-5.8,5.4v18.3h-4.4V559.7z M456.8,552.2h6.8l3.5,22.6
		c0.4,2.6,0.6,7,0.6,7h0.1c0,0,0.2-4.3,0.6-7l3.5-22.6h6.8v35.9h-4.2v-23.4c0-3.4,0.3-7.7,0.3-7.7h-0.1l-4.7,31.1h-4.4l-4.7-31.1
		h-0.1c0,0,0.3,4.2,0.3,7.7v23.4h-4.2V552.2z M488.6,611.6v10.7h-12.3c-0.3,0.4-0.6,0.8-0.9,1.1h13v2.3c-1.2,1-2.7,1.9-4.3,2.7
		c2,0.3,4.2,0.4,6.6,0.4c-0.5,1.1-0.9,2.2-1.2,3.1c-3.6-0.4-6.8-1-9.5-1.9c-3,1-6.5,1.7-10.5,2.2c-0.4-1-0.8-2-1.2-2.9
		c2.9-0.2,5.5-0.5,7.8-0.9c-1.3-0.7-2.4-1.4-3.3-2.3c-1,0.9-2.2,1.7-3.4,2.5c-0.5-0.7-1.1-1.5-1.8-2.3c2.2-1.2,3.9-2.5,5.2-3.9h-2.1
		v-10.7h5.6c0.1-0.4,0.3-0.8,0.4-1.2H468V608h22.4v2.5h-10.2l-0.5,1.2H488.6z M465.4,625.6c-1-0.4-1.9-0.9-2.7-1.4v8h-3.1v-1h-8.9
		v1.1h-3.1v-8c-0.7,0.5-1.5,1.1-2.3,1.5c-0.8-1.2-1.4-2.2-2-2.9c2.2-1,4-2.3,5.5-3.9h-5.2v-2.6h7.1c0.2-0.4,0.5-0.8,0.7-1.3h-6v-2.5
		h7c0.1-0.4,0.3-0.9,0.4-1.3h-8.2v-2.6h8.7c0.1-0.6,0.2-1.2,0.2-1.8h3.2c-0.1,0.6-0.2,1.2-0.3,1.8h9.5v2.6h-9.9l-0.3,1.3h9.4v2.5
		h-10.2c-0.2,0.4-0.4,0.9-0.6,1.3h12.5v2.6H461c1.6,1.7,3.6,2.8,6,3.5C466.2,624,465.7,625,465.4,625.6z M490.5,654.4h-8.1v2.3h7.1
		v11.2h-3.2v-1.6h-9v1.6H474v-11.2h5v-7.5h3.3v2.1h8.1V654.4z M490.9,648.9h-18.3v5.7c0,6.4-0.8,10.9-2.5,13.7
		c-0.9-0.9-1.8-1.7-2.8-2.5c1.4-2.6,2-6.5,2-11.6v-8.4h9.3c-0.2-0.6-0.5-1.2-0.7-1.8l3.9-1c0.3,0.9,0.7,1.8,1,2.8h8V648.9z
		 M488.2,588.5c-2.7,0-5.4-2.2-5.4-7c0-4.6,1.8-6.9,5.5-8.9c2.9-1.6,4.3-2.6,4.3-5.7c0-1.9-0.5-3.4-2.2-3.4c-1.7,0-2.4,1.3-2.4,3.8
		v1.7h-4.4v-1.7c0-4.9,2.5-8,6.9-8c5.5,0,6.5,4,6.5,9.1v9.6c0,6.3,0.1,8.1,0.5,10.1h-4.3c-0.2-0.7-0.3-1.5-0.3-2.2
		C491.9,587.5,490.2,588.5,488.2,588.5z M492.5,608.1h8v2.4c-0.6,2.1-1.2,4.4-2,6.9c1.6,1.8,2.3,4,2.3,6.5c0,2.7-1.5,4-4.6,4
		c-0.1-1.4-0.3-2.7-0.6-3.9c0.3,0.1,0.6,0.1,0.8,0.1c0.9,0,1.4-0.4,1.4-1.2c0-1.7-0.7-3.4-2.1-5.1c0.7-2.2,1.3-4.5,1.8-6.7h-2v21.1
		h-3V608.1z M513.8,663.6c0,1.3-0.3,2.2-0.8,2.9c-0.5,0.7-1.3,1.1-2.4,1.1c-1,0.1-2.5,0.1-4.3,0.1c-0.2-1-0.4-2.1-0.7-3.3
		c1.1,0.1,2.1,0.1,3.1,0.1c0.5,0,0.9,0,1.2-0.1s0.4-0.2,0.5-0.5c0.1-0.3,0.2-0.6,0.2-1v-12.6H505c-0.1,1.4-0.2,2.5-0.4,3.5
		c1.6,1.3,3.6,2.9,5.8,4.8l-2.4,2.6c-1.1-1.2-2.6-2.7-4.5-4.5c-1,1.8-2.5,3.5-4.5,4.9c-0.8-1-1.6-1.9-2.5-2.7c3.4-2.2,5.2-5,5.4-8.6
		h-5.5V668h-3.2V647h8.8c0-1.4,0.1-2.8,0.1-4.1h3.1c0,1.5,0,2.9,0,4.1h8.7V663.6z M513.6,631.9c-2.4-1.2-4.2-2.6-5.4-4.4
		c0,1.2-0.1,2.1-0.1,2.8c-3.2,0.8-5.3,1.4-6.2,1.9l-1.3-2.7c0.5-0.6,0.8-1.5,0.8-2.7v-18.7h12.5v13.1h-0.6l2,2.7l-3.7,2.3
		c0.9,0.8,2.2,1.5,3.8,2.1C514.7,629.4,514.1,630.6,513.6,631.9z M519.2,667.9c-1.2-0.4-2.3-0.7-3.3-1c0.8-2.9,1.5-6.2,2.2-10
		c1.3,0.5,2.3,0.9,3.2,1.1L519.2,667.9z M519.5,656c-1-1-2.2-2.2-3.7-3.5l2.1-2.4c1.5,1.1,2.8,2.2,3.9,3.3L519.5,656z M519.8,649.2
		c-1.4-1.5-2.6-2.7-3.7-3.6l2-2.3c1.2,0.9,2.5,2,3.9,3.3L519.8,649.2z M538.2,664.3c0,1-0.2,1.8-0.7,2.4c-0.5,0.6-1.1,0.9-2,1
		c-0.9,0.1-2.5,0.2-4.7,0.1c-0.2-1.1-0.5-2.3-0.9-3.4c1.3,0.1,2.4,0.1,3.3,0.1c1.1,0,1.6-0.5,1.6-1.6v-0.4h-8.6v5.2h-3.4v-17.8h6v-7
		h3.3v7h6V664.3z M522.2,645.4l2.3-1.9c1.3,1.4,2.5,2.7,3.6,4l-2.5,2C524.6,648.2,523.4,646.8,522.2,645.4z M535.2,649.7l-2.2-2
		c1.2-1.3,2.4-2.7,3.5-4.2l2.6,2C537.7,647,536.5,648.4,535.2,649.7z M539.4,631.3h-23.6v-1.9H526v-1h-8.7v-1.8h8.7v-0.9h-7.9v-7.4
		H537v7.4h-7.9v0.9h8.8v1.8h-8.8v1h10.3V631.3z M541.7,623.1l2.7,0.9c-0.4,1.5-0.9,3-1.5,4.4c0.4,0,0.8,0.1,1.2,0.1
		c0.6,0,0.9-0.4,0.9-1.1v-4.7h-4.5v-2.8h4.5v-1.6h-4.9v-2.8h2.6c-0.3-0.7-0.7-1.4-1-2l2.6-1.1c0.6,1.1,1.2,2.2,1.6,3.1h1
		c0.8-1.4,1.3-2.5,1.6-3.1h-8v-2.8h4.2c-0.2-0.6-0.4-1.2-0.6-1.7l3.3-0.6c0.2,0.7,0.5,1.4,0.7,2.3h4v2.8h-3.3
		c0.4,0.2,1.3,0.6,2.5,1.2c-0.3,0.4-0.7,1.1-1.2,2h2.5v2.8H548v1.6h4.2v2.8H548v6.1c0,0.8-0.2,1.4-0.5,1.9c-0.3,0.5-0.8,0.7-1.3,0.9
		s-1.6,0.2-3.1,0.2c-0.1-1-0.2-2-0.5-2.9l-0.5,1.1c-0.6-0.4-1.5-0.8-2.5-1.3C540.4,627.1,541.1,625.2,541.7,623.1z M541.1,654.5
		l0.9-6.1h5.5c0-0.4,0-0.9,0-1.4h-6.4v-2.3h6.4V643h3v1.7h3V643h3v1.7h5.6v6.1h-5.6v1.4h6.5c0,1.3-0.1,2.5-0.2,3.4
		c-0.1,0.9-0.3,1.6-0.7,2.1c-0.4,0.4-1,0.7-1.8,0.7v4.6h-3v-3.9h-10.6v4.4h-3v-4.3c-0.7,0.3-1.5,0.6-2.3,0.9
		c-0.4-0.8-0.9-1.7-1.5-2.7c2.9-0.8,4.8-1.7,5.9-3H541.1z M561.7,668.3c-2.9-1.2-6.2-2.4-9.7-3.6c-1.4,1.9-4.7,3-9.9,3.5
		c-0.3-0.9-0.8-1.9-1.3-3c3.4-0.2,5.9-0.6,7.4-1.3s2.3-2,2.3-4.1h3c-0.1,0.9-0.2,1.8-0.4,2.5c2.9,0.9,6.3,1.9,10,3.2L561.7,668.3z
		 M563.5,615.3v3.3h-1.8v13.2h-3.1v-13.2h-2.1v1.4c0,5.4-1.1,9.4-3.3,12.3c-1.1-1-2.1-1.8-3-2.5c0.9-0.9,1.6-1.9,2.1-3.2l-2.4,1.5
		c-0.6-1.3-1.2-2.6-1.8-3.8l2.3-1.2c0.6,0.8,1.2,2,2,3.5c0.7-1.6,1-3.6,1-6v-11.4c3.6-0.4,6.6-1,8.8-1.9l1.4,3.3
		c-2.1,0.6-4.5,1-7.1,1.3v3.4H563.5z M572.1,667.3c-0.9-1.5-1.8-3-2.8-4.6c-0.7,2.1-1.9,4-3.5,5.6c-0.3-0.7-0.9-1.7-1.7-3
		c2.8-2.4,4.2-5.1,4.2-8.3v-8.7h1.9v8.7c0,0.9-0.1,1.8-0.2,2.7l4.5,5.4L572.1,667.3z M586.3,668.2h-2.8v-1h-6v1h-2.8v-11.4h11.6
		V668.2z M587,655.8h-13v-10h2.5l-1.1-1.8l2.6-1l1.4,2.7h2.1l1.2-2.8l2.8,0.9l-1.2,1.9h2.6V655.8z M589.2,662.7
		c-0.4-1.6-0.7-3-1.1-4.2c3.2-2.8,5.4-5.4,6.8-7.7h-5.8v-3.4h4.7c-0.6-1-1.2-2-1.8-2.9l2.8-1.5c0.5,0.7,1.2,1.8,2.2,3.2l-2.1,1.2h4
		v3.1c-0.7,1.4-1.6,2.9-2.6,4.4v1.4l1-1.3c1.1,0.8,2.3,1.7,3.7,2.8l-2,2.5c-1-1-1.9-1.8-2.6-2.5v10.2H593v-9.2
		C591.8,660.1,590.6,661.4,589.2,662.7z"/>
	<rect x="580.1" y="622.8" class="st1" width="3.4" height="4.5"/>
	<path class="st1" d="M601.5,624.4c1.7-1.3,2.9-2.6,3.9-4h-7.2C599,622,600.2,623.3,601.5,624.4z"/>
	<rect x="570.9" y="611.3" class="st1" width="10.1" height="3.3"/>
	<path class="st1" d="M553.5,647h-3c0,0.3,0,0.8,0,1.4h3V647z"/>
	<path class="st1" d="M581.6,653.2h3v-4.9h-3V653.2z M583,648.9l1.4,0.5c-0.4,1-0.9,2.1-1.4,3.2c-0.5-0.3-0.9-0.5-1.3-0.7
		C582.2,650.9,582.7,649.8,583,648.9z"/>
	<path class="st1" d="M483.7,625.7h-7.4c1.1,0.6,2.2,1.2,3.5,1.6C481.3,626.9,482.6,626.3,483.7,625.7z"/>
	<rect x="521.1" y="620.2" class="st1" width="4.8" height="1.1"/>
	<rect x="521.4" y="612.2" class="st1" width="12.4" height="0.9"/>
	<rect x="473.6" y="619.2" class="st1" width="11.9" height="0.9"/>
	<rect x="473.6" y="616.5" class="st1" width="11.9" height="0.9"/>
	<rect x="521.4" y="609.7" class="st1" width="12.4" height="0.9"/>
	<path class="st1" d="M527.7,580.9c0,2.5,1,3.4,2.4,3.4c1.7,0,2.8-1.4,2.8-4.3v-6.2c-0.5,0.7-1.1,1.2-2.2,1.9
		C528.7,577,527.7,578.3,527.7,580.9z"/>
	<path class="st2" d="M675.5,65c-0.9,1-1.4,2.2-1.4,3.8v1.8H672v3.1h2.1v11h3.7v-11h2.9v-3.1h-2.9V69c0-1.6,0.6-2.3,1.9-2.3
		c0.4,0,0.9,0.1,1.4,0.3v-3.2c-0.5-0.2-1.1-0.3-1.9-0.3C677.7,63.5,676.5,64,675.5,65z"/>
	<path class="st2" d="M623.6,49.2c-1.5-1.2-3.1-2.5-5-3.9c0.2-1.2,0.4-2.6,0.4-4.2V37h-2.7v3.8c0,2.7-0.3,4.7-1,5.8
		c-0.7,1.2-2.1,2.2-4.2,3v-6.2l0,0l1.2-2.5c-1-0.6-2-1.2-3-1.8c0.8-1,1.5-2.1,2-3.3v-2.4h-4.7c0.1-0.2,0.2-0.5,0.3-0.7l-2.3-1
		c-0.6,1.9-1.7,3.8-3.4,5.7c0.9,0.5,1.6,1,2.1,1.4c0.7-0.9,1.4-1.9,2-2.9h3c-0.4,0.7-0.8,1.4-1.4,2l-1.8-0.9l-1.3,2l1.1,0.6
		c-1.1,0.7-2.4,1.3-4,1.8c0.3,0.7,0.6,1.5,0.9,2.5c0.2-0.1,0.5-0.1,0.7-0.2v8.1h2.6v-1h3.2v0.8h2.6v-1.6c0.5,0.7,1,1.4,1.4,2.3
		c2.4-1,4.1-2.3,5.1-4c1.7,1.5,3.2,2.8,4.4,4L623.6,49.2z M608.4,47.9h-3.2v-2.2h3.2V47.9z M604.3,43c1.2-0.5,2.2-1.2,3.1-1.9
		c1,0.6,2,1.2,3,1.9H604.3z"/>
	<path class="st2" d="M596.7,27.1h-3v2.1h-3.6v-2.1h-3v2.1h-3.8v0.9c-1.2-1.1-2.3-2.1-3.2-2.9l-1.9,2.3c1.2,1.2,2.3,2.3,3.3,3.4
		l1.8-2.1v1h3.8v1.6h3v-1.6h3.6v1.6h3v-1.6h3.7v-2.6h-3.7V27.1z"/>
	<path class="st2" d="M583.3,37.2c-1.2-1.2-2.4-2.3-3.6-3.2l-1.9,2.4c1.1,1.1,2.2,2.3,3.4,3.5L583.3,37.2z"/>
	<path class="st2" d="M626.9,64.7c-2.7,0-4.8,1-6.4,2.9c-1.6,1.9-2.4,4.4-2.4,7.5c0,2.9,0.8,5.3,2.4,7.1c1.6,1.8,3.6,2.8,6.2,2.8
		c2.6,0,4.7-1,6.3-2.9c1.6-1.9,2.4-4.4,2.4-7.5c0-2.9-0.8-5.3-2.3-7.2S629.4,64.7,626.9,64.7z M630.1,79.6c-0.8,1.2-2,1.7-3.4,1.7
		c-1.4,0-2.6-0.6-3.4-1.8c-0.8-1.2-1.2-2.8-1.2-4.7c0-1.9,0.4-3.5,1.3-4.7s2-1.8,3.5-1.8c1.5,0,2.6,0.6,3.4,1.8
		c0.8,1.2,1.2,2.8,1.2,4.9C631.3,76.9,630.9,78.4,630.1,79.6z"/>
	<path class="st2" d="M596.7,76.2c0,1.3,0,2.2,0.1,2.7h-0.1c-0.1-0.2-0.4-0.7-0.9-1.6L588.7,65h-4.1v19.7h3.6V73.5
		c0-1.4,0-2.5-0.1-3.1h0.1c0.2,0.4,0.5,0.9,0.8,1.6l7.5,12.7h3.9V65h-3.6V76.2z"/>
	<path class="st2" d="M583.4,36.4h5v2.1h-4.2V52h2.9v-3.8c0.6,0.5,1,0.9,1.2,1.1c0.9-1.5,1.6-2.9,2.1-4.3c0.3,0.4,0.5,0.7,0.8,1.1
		l1.1-1.1c-0.4,1.1-1,2-1.7,2.8l2.4,1.6c0.2,0.8,0.4,1.6,0.6,2.5c2.1,0,3.4-0.1,4.1-0.2s1.2-0.4,1.6-0.9c0.4-0.5,0.6-1.3,0.6-2.2
		V38.5h-4v-2.1h4.7v-2.6h-17V36.4z M586.8,46.3v-5.5h1.5C588.3,42.9,587.8,44.8,586.8,46.3z M595.6,40.8h1.3v3.9l-1.5-1.7
		C595.6,42.3,595.6,41.6,595.6,40.8z M595.9,47.4l0.9-1v1.5c0,0.9-0.5,1.4-1.3,1.4c-0.7,0-1.5,0-2.5-0.1c0.8-1.1,1.4-2.3,1.8-3.5
		C595.2,46.3,595.6,46.9,595.9,47.4z M591,36.4h2.1v2.1H591V36.4z M591,40.8h2.1c-0.1,1.2-0.3,2.4-0.6,3.4l-1.6-1.8
		C590.9,42.1,590.9,41.5,591,40.8z"/>
	<polygon class="st2" points="603.3,68.4 611.8,68.4 602.6,82.3 602.6,84.6 616.7,84.6 616.7,81.2 607.7,81.2 616.7,67.3 616.7,65 
		603.3,65 	"/>
	<path class="st2" d="M645.4,52.2V40.7h-11.1v11.4h2.7v-1h5.7v1H645.4z M637,43.3h5.7v1.5H637V43.3z M637,48.6v-1.5h5.7v1.5H637z"/>
	<polygon class="st2" points="691.3,64 688,64 684.8,68.4 687.5,68.4 	"/>
	<path class="st2" d="M683.4,72.4c-1.2,1.4-1.8,3.2-1.8,5.5c0,2.2,0.6,4,1.7,5.3c1.1,1.3,2.7,1.9,4.7,1.9c1.9,0,3.4-0.4,4.5-1.1v-3
		c-1.1,0.8-2.3,1.1-3.7,1.1c-2.2,0-3.4-1.1-3.5-3.3h8.3V77c0-2.1-0.5-3.8-1.5-5c-1-1.2-2.4-1.8-4.2-1.8
		C686.1,70.3,684.6,71,683.4,72.4z M690.1,76.2h-4.9c0.1-0.9,0.4-1.7,0.9-2.3c0.5-0.6,1-0.9,1.7-0.9
		C689.3,73.1,690.1,74.1,690.1,76.2z"/>
	<path class="st2" d="M646.3,67.6c-1.7,2-2.6,4.5-2.6,7.6c0,3,0.8,5.3,2.3,7.1c1.6,1.8,3.7,2.7,6.3,2.7c2.1,0,3.7-0.4,5-1.1v-3.8
		c-1.3,0.8-2.7,1.3-4.3,1.3c-1.7,0-3-0.6-4-1.8c-1-1.2-1.5-2.7-1.5-4.7c0-2,0.5-3.6,1.6-4.8c1-1.2,2.4-1.8,4.1-1.8
		c1.5,0,2.9,0.4,4.1,1.2v-4c-1.2-0.5-2.6-0.7-4.3-0.7C650.2,64.7,648,65.6,646.3,67.6z"/>
	<path class="st2" d="M664.9,70.3c-0.7,0-1.5,0.1-2.4,0.3c-1,0.2-1.7,0.5-2.3,0.9v3.2c1.3-1,2.7-1.5,4.3-1.5c1.5,0,2.3,0.8,2.3,2.4
		l-3.5,0.5c-2.9,0.4-4.3,2-4.3,4.7c0,1.3,0.4,2.3,1.1,3.1c0.7,0.8,1.7,1.1,2.9,1.1c1.7,0,2.9-0.8,3.8-2.4h0v2h3.5v-8.5
		C670.2,72.2,668.4,70.3,664.9,70.3z M666.7,78.9c0,0.9-0.2,1.6-0.7,2.2c-0.5,0.6-1.1,0.9-1.9,0.9c-0.5,0-1-0.2-1.3-0.5
		s-0.5-0.7-0.5-1.3c0-1.1,0.7-1.8,2-2l2.4-0.3V78.9z"/>
	<path class="st2" d="M655.8,39l-0.9,1.3v-1.4c1-1.5,1.9-2.9,2.5-4.4v-3.1h-3.9l2-1.2c-0.9-1.4-1.6-2.5-2.1-3.2l-2.6,1.5
		c0.6,0.9,1.1,1.9,1.7,2.9h-4.5v3.4h5.5c-1.3,2.3-3.4,4.9-6.5,7.7c0.3,1.2,0.7,2.6,1,4.2c1.3-1.3,2.6-2.6,3.6-3.8v9.2h3.1V41.9
		c0.7,0.7,1.5,1.5,2.5,2.5l2-2.5C658.1,40.7,656.9,39.8,655.8,39z"/>
	<path class="st2" d="M563.2,10.6c-0.7-1.5-1.3-2.7-1.9-3.5l-2.2,1.2c0.6,1.2,1.2,2.4,1.7,3.8L563.2,10.6c-0.5,1.3-1.2,2.4-2,3.2
		c0.9,0.7,1.8,1.5,2.9,2.5c2.1-2.8,3.1-6.9,3.1-12.3V2.6h2v13.2h3V2.6h1.7V1h-9.8v3.6C564.1,6.9,563.8,8.9,563.2,10.6z"/>
	<path class="st2" d="M578.3,51c1,0.3,2,0.6,3,1l2.2-9.6c-0.7-0.2-1.7-0.6-2.9-1.2C579.9,44.8,579.1,48,578.3,51z"/>
	<rect x="598.3" y="1" class="st2" width="2.8" height="15.2"/>
	<path class="st2" d="M601.3,1.8c1.4,1.7,2,3.4,2,5.1c0,0.8-0.4,1.2-1.3,1.2c-0.2,0-0.5,0-0.8-0.1c0.3,1.2,0.5,2.5,0.6,3.9
		c3,0,4.4-1.3,4.4-4c0-2.5-0.7-4.7-2.2-6.5c0-0.1,0.1-0.3,0.1-0.4h-2.7C601.4,1.3,601.4,1.5,601.3,1.8z"/>
	<path class="st2" d="M556,2.1v1.6h-4.3v2.8h4.3v4.7c0,0.8-0.3,1.1-0.9,1.1c-0.4,0-0.7,0-1.1-0.1c0.6-1.4,1-2.9,1.5-4.4l-2.6-0.9
		c-0.6,2.1-1.2,4-2,5.6c1,0.4,1.8,0.9,2.4,1.3l0.5-1.1c0.2,0.9,0.4,1.8,0.5,2.9c1.4,0,2.4-0.1,3-0.2s1-0.4,1.3-0.9s0.5-1.1,0.5-1.9
		V6.6h4V3.8h-4V2.1h4.4V1h-12v1.1H556z"/>
	<path class="st2" d="M510.8,11V9.5h7.5V1h-10.7v10H510.8z M510.8,1.6h4.3v4.8h-4.3V1.6z"/>
	<path class="st2" d="M606,13.5l1.3,2.7c0.9-0.5,2.9-1.1,6-1.9c0-0.7,0-1.6,0.1-2.8c1.2,1.8,2.9,3.2,5.2,4.4
		c0.5-1.3,1.1-2.5,1.6-3.5c-1.5-0.5-2.7-1.2-3.6-2.1l3.5-2.3l-1.9-2.7h0.6V1h-2.9v1.2h-6.1V1h-2.9v9.9C606.8,12.1,606.5,13,606,13.5
		z M617.9,5.3c-0.9,1-2,1.9-3.1,2.8c-0.5-0.8-0.9-1.8-1.2-2.8H617.9z M609.7,5.3h1.1c0.5,2.2,1.2,4.1,2.2,5.7
		c-1.1,0.3-2.2,0.6-3.2,0.9V5.3z"/>
	<path class="st2" d="M475.9,12.7L479.6,1h-3.6l-1.6,5.9c-0.2,0.7-0.3,1.4-0.4,2h-0.1c0-0.6-0.2-1.3-0.4-1.9L471.8,1h-3.8l3.6,11.7
		H475.9z"/>
	<path class="st2" d="M519.5,12.1c-0.7,0-2-0.1-3.7-0.2c0.3,1.4,0.6,2.7,0.9,3.9c3,0,5-0.1,5.8-0.3c0.8-0.2,1.4-0.6,1.8-1.2
		c0.4-0.6,0.6-1.5,0.6-2.6V1h-3.5v9.1C521.4,11.4,520.8,12.1,519.5,12.1z"/>
	<polygon class="st2" points="482.5,9.4 482.5,12.7 489.2,12.7 489.2,9.4 487.7,9.4 487.7,1 484,1 484,9.4 	"/>
	<path class="st2" d="M495.3,12.7V5.8h1.9c2,0.1,3.7-0.5,5-1.7c0.9-0.8,1.5-1.9,1.8-3.1h-4c-0.5,1.1-1.5,1.6-3,1.6h-1.6V1h-3.8v11.7
		H495.3z"/>
	<path class="st2" d="M666.8,4.3l0.4,3.5l2.9-0.9v4.5c-0.1,0.8-0.6,1.2-1.7,1.2c-0.4,0-1,0-1.6-0.1c0.3,1.2,0.5,2.3,0.7,3.5
		c2,0,3.3-0.1,3.9-0.3c0.6-0.2,1.1-0.6,1.4-1.2c0.3-0.6,0.5-1.4,0.5-2.3V6l2.6-0.8c0-1.2-0.1-2.3,0-3.4l-2.5,0.7V1h-3.2v2.4
		L666.8,4.3z"/>
	<path class="st2" d="M634.7,8.4l2.8-2c-1.4-2.2-2.6-4-3.6-5.4h-1.6l-1.3,1C632,3.7,633.3,5.8,634.7,8.4z"/>
	<path class="st2" d="M624.7,14.7v-1.9h3v1.8h3V1h-3v0.2h-3V1h-3v13.7H624.7z M624.7,4.4h3v5h-3V4.4z"/>
	<path class="st2" d="M636.4,12.2c-0.2,0-1.4,0-3.6-0.1c0.3,0.9,0.5,2.2,0.8,3.7c2,0,3.5,0,4.5-0.1c1,0,1.8-0.4,2.4-1.2
		c0.6-0.7,0.9-1.8,0.9-3.2V1h-3.3v9.3C638.1,11.6,637.5,12.2,636.4,12.2z"/>
	<path class="st2" d="M650.3,13.3c0.9,1,1.8,1.9,2.4,2.9c2.1-3.1,3.1-7.3,3.1-12.7V3.4h4.1v12.6h3.1V3.4h3.3V1h-13.6v1.8
		C652.7,7.6,651.9,11.1,650.3,13.3z"/>
	<path class="st2" d="M643.7,3.7l0.2,3.7l2.4-0.5v4.7c0,0.7-0.3,1.1-0.8,1.1l-1.7-0.1c0.3,1.3,0.5,2.4,0.6,3.4c0.9,0,1.7,0,2.6-0.1
		c0.9-0.1,1.5-0.4,1.8-0.9c0.4-0.6,0.6-1.3,0.6-2.3V6.1l2.3-0.5c0.2-2.1,0.3-3.3,0.3-3.5l-2.6,0.5V1h-3.1v2.3
		C645.4,3.5,644.5,3.6,643.7,3.7z"/>
	<path class="st2" d="M467.3,69.7h-5.5V73h5.5v6.9c-1.9,0.6-3.9,1.2-5.9,1.8l0.6,3.9l5.3-2v4.3h3.4V63.5h-3.4V69.7z"/>
	<path class="st2" d="M538.3,12.5c-0.2,0.2-0.6,0.4-1.3,0.4c-1,0-2.1,0-3.3-0.1c0.3,1.2,0.5,2.3,0.7,3.2c1.5,0,2.8,0,3.9,0
		c1.1,0,1.9-0.3,2.5-0.8c0.6-0.6,0.9-1.4,0.9-2.6v-1.2h8.9V8.6h-6.6l4.3-1.5V4.3h-18.5v2.6h13.3l-4.6,1.4v0.3h-10.4v2.7h10.4
		C538.7,11.9,538.5,12.3,538.3,12.5z"/>
	<path class="st2" d="M490.4,38.6v-5.7h17.5v-3.1h-7.7c-0.3-1-0.7-1.9-1-2.8l-3.7,1c0.2,0.6,0.5,1.2,0.7,1.8h-8.9v8.4
		c0,5.2-0.6,9.1-1.9,11.6c0.9,0.8,1.8,1.6,2.6,2.5C489.6,49.5,490.4,45,490.4,38.6z"/>
	<path class="st2" d="M544.2,27v7h-5.8v17.8h3.2v-5.2h8.3v0.4c0,1.1-0.5,1.6-1.5,1.6c-0.9,0-1.9,0-3.2-0.1c0.3,1.2,0.6,2.3,0.8,3.4
		c2.1,0,3.6,0,4.5-0.1c0.9-0.1,1.5-0.5,1.9-1c0.4-0.6,0.6-1.4,0.6-2.4V33.9h-5.8v-7H544.2z M549.9,43.6h-8.3v-1.9h8.3V43.6z
		 M549.9,37v1.9h-8.3V37H549.9z"/>
	<path class="st2" d="M535.5,33.2l2.1-2.6c-1.3-1.3-2.6-2.3-3.7-3.3l-1.9,2.3C533,30.6,534.2,31.8,535.5,33.2z"/>
	<path class="st2" d="M543.4,31.5c-1-1.3-2.2-2.7-3.4-4l-2.2,1.9c1.2,1.5,2.3,2.8,3.2,4.1L543.4,31.5z"/>
	<path class="st2" d="M513,34.4h5.3c-0.2,3.6-1.9,6.4-5.2,8.6c0.8,0.8,1.6,1.6,2.3,2.7c1.9-1.4,3.4-3,4.4-4.9
		c1.9,1.9,3.3,3.4,4.4,4.5l2.3-2.6c-2.1-1.9-4-3.6-5.6-4.8c0.2-1,0.3-2.1,0.4-3.5h5.3v12.6c0,0.4-0.1,0.8-0.2,1
		c-0.1,0.3-0.3,0.4-0.5,0.5c-0.2,0.1-0.6,0.1-1.1,0.1c-1,0-1.9,0-3-0.1c0.3,1.3,0.5,2.4,0.7,3.3c1.8,0,3.1,0,4.1-0.1
		c1-0.1,1.8-0.5,2.3-1.1c0.5-0.7,0.8-1.6,0.8-2.9V31.1h-8.4c0-1.2,0-2.6,0-4.1h-3c0,1.3,0,2.6-0.1,4.1h-8.5V52h3.1V34.4z"/>
	<path class="st2" d="M531.8,50.9c1,0.3,2,0.6,3.1,1l2-9.8c-0.8-0.2-1.9-0.6-3.1-1.1C533.3,44.7,532.6,48,531.8,50.9z"/>
	<path class="st2" d="M552.7,71.6v-6.4h-8.5c-0.2-0.9-0.4-1.6-0.6-2.3l-3.9,0.6c0.2,0.5,0.4,1,0.7,1.8h-8.8v6.4h3.1v-3.5h15v3.5
		H552.7z"/>
	<path class="st2" d="M535.2,40l2.1-2.6c-1.1-1.1-2.3-2.2-3.7-3.3l-2,2.4C533,37.8,534.2,39,535.2,40z"/>
	<polygon class="st2" points="679.9,15.8 679.9,13.4 685.2,13.4 685.2,15.7 688.4,15.7 688.4,1 685.2,1 685.2,10.1 679.9,10.1 
		679.9,1 676.7,1 676.7,15.8 	"/>
	<polygon class="st2" points="575.3,76.5 581.1,76.5 581.1,73 575.3,73 575.3,68.4 581.5,68.4 581.5,65 571.5,65 571.5,84.6 
		582,84.6 582,81.2 575.3,81.2 	"/>
	<path class="st2" d="M564.9,43.8c-0.1,2-0.8,3.4-2.2,4.1c-1.4,0.7-3.8,1.1-7.1,1.3c0.5,1.1,0.9,2.1,1.2,3c5-0.5,8.2-1.7,9.5-3.5
		c3.4,1.2,6.4,2.4,9.3,3.6l1.4-2.8c-3.5-1.3-6.7-2.3-9.5-3.2c0.2-0.8,0.3-1.6,0.4-2.5H564.9z"/>
	<path class="st2" d="M578.5,14.5h3.2v1.2h3.1V3.7h-9.5v11.9h3.1V14.5z M578.5,6.8h3.2v4.5h-3.2V6.8z"/>
	<path class="st2" d="M548.4,77.1l3.6-1.9l-1.8-2.8c-1.7,1.1-3.8,2.4-6.3,3.7c-0.5-0.9-1-1.8-1.7-2.6c0.5-0.3,1-0.7,1.5-1.1h5v-2.8
		h-13.2v2.8h3.8c-2.1,1.2-4.8,2.1-7.9,2.7c0.5,0.8,1,1.7,1.5,2.6c2.5-0.7,4.7-1.6,6.8-2.6c0.2,0.3,0.4,0.5,0.6,0.8
		c-2.4,1.6-5.4,2.8-9,3.7l1.5,2.6c3.2-1,6-2.4,8.5-4.4c0.2,0.3,0.3,0.7,0.4,1c-2.8,2.4-6.5,4.3-10.9,5.5c0.7,1,1.3,2,1.8,3
		c1.9-0.7,3.6-1.5,5.2-2.4c0.3,0.9,0.5,2,0.7,3.1c2.3,0,3.7-0.1,4.3-0.2c0.6-0.1,1.1-0.4,1.6-0.8c0.5-0.4,0.8-1,1-1.7
		c0.2-0.7,0.3-1.6,0.3-2.7c0-1.3-0.2-2.6-0.6-3.9l1-0.5c1.3,3.8,2.9,6.5,4.8,8.2c0.8-0.9,1.6-1.8,2.6-2.8
		C551.1,82.3,549.5,80.1,548.4,77.1z M540.4,84.9c-0.6,0-1.4-0.1-2.3-0.2c1.6-0.9,3.1-2,4.3-3.1c0.1,0.4,0.1,0.7,0.1,1
		C542.5,84.1,541.8,84.9,540.4,84.9z"/>
	<path class="st2" d="M589.7,14.5h3.2v1.2h3.1V3.7h-9.5v11.9h3.1V14.5z M589.7,6.8h3.2v4.5h-3.2V6.8z"/>
	<path class="st2" d="M569.4,65h-4.5l-5.1,8.2c-0.2,0.3-0.3,0.6-0.5,1.1h-0.1V65h-3.8v19.7h3.8V75h0.1c0.2,0.5,0.3,0.8,0.5,1
		l5.3,8.6h4.8l-6.8-10.3L569.4,65z"/>
	<path class="st2" d="M554.7,41.5c0.6,1,1,1.9,1.4,2.7c0.8-0.3,1.5-0.6,2.2-0.9v4.3h2.9v-4.4h10.2V47h2.9v-4.6
		c0.8,0,1.3-0.3,1.7-0.7s0.6-1.1,0.7-2.1c0.1-0.9,0.1-2.1,0.2-3.4h-6.2v-1.4h5.4v-6.1h-5.4V27h-2.8v1.7h-2.9V27h-2.8v1.7H556V31h6.1
		c0,0.6,0,1,0,1.4h-5.3l-0.9,6.1h4.5C559.4,39.8,557.5,40.8,554.7,41.5z M570.6,31h2.7v1.4h-2.7V31z M564.9,31h2.9v1.4h-2.9
		C564.9,31.8,564.9,31.3,564.9,31z M564.7,34.8h3v1.4h-3.3C564.6,35.8,564.7,35.3,564.7,34.8z M563.7,38.5h4.1v1.9h2.8v-1.9h3.5
		c0,0.4,0,0.7-0.1,0.9c-0.1,0.2-0.2,0.4-0.3,0.5c-0.1,0.1-0.8,0.1-1.9,0.1l0.3,0.9H562C562.5,40.4,563.1,39.6,563.7,38.5z
		 M558.9,36.2l0.3-1.4h2.7c-0.1,0.5-0.2,1-0.3,1.4H558.9z"/>
	<path class="st2" d="M525.3,80.5c0.3,0.7,0.5,1.5,0.8,2.3l-2.1,0.2v-4.4h5V67.5h-5v-4.4h-3.1v4.4h-5v12h2.8v-0.8h2.2v4.7l-5.7,0.5
		l0.4,3.3l11.3-1.4c0.2,0.7,0.4,1.5,0.7,2.3l2.7-0.9c-0.8-2.8-1.6-5.3-2.4-7.5L525.3,80.5z M524,70.7h2.1v4.7H524V70.7z M520.9,75.4
		h-2.2v-4.7h2.2V75.4z"/>
	<path class="st2" d="M516.5,65.9l-2.2-2.2c-0.7,1-1.5,1.9-2.2,2.7c-0.6-1.1-1.4-2.1-2.2-3.1l-2.1,1.9c0.8,1.1,1.5,2.2,2.1,3.5
		c-0.8,0.8-1.6,1.4-2.4,2.1c0.5,0.7,1.1,1.6,1.7,2.8c0.6-0.5,1.2-1.1,1.8-1.6c0.2,0.7,0.4,1.3,0.5,2c-1.1,1.8-2.5,3.4-4,4.7
		c0.7,1.4,1.2,2.4,1.4,3c1.2-1.1,2.3-2.4,3.2-3.7c0.1,0.9,0.1,1.9,0.1,2.9c0,1.1,0,1.9-0.1,2.2c-0.1,0.4-0.2,0.7-0.5,0.9
		s-0.6,0.3-1,0.3c-0.5,0-1.2-0.1-2.2-0.2c0.2,1.5,0.4,2.6,0.5,3.3c2.1,0.1,3.5-0.1,4.3-0.4c0.8-0.4,1.3-1,1.6-2
		c0.3-0.9,0.4-2.8,0.4-5.5c0-3.9-0.5-7.2-1.6-10.1C514.6,68.3,515.6,67.1,516.5,65.9z"/>
	<path class="st2" d="M646.1,29.8h-2.5l1.2-1.9l-2.7-0.9l-1.2,2.8h-2l-1.3-2.7l-2.5,1l1,1.8h-2.4v10h12.4V29.8z M638.8,37.2h-2.9
		v-4.9h2.9V37.2z M643.8,37.2h-2.9v-4.9h2.9V37.2z"/>
	<path class="st2" d="M663.1,51.6h2.3c2,0,3.2-0.8,3.6-2.3c0.4-1.4,0.8-3.2,1-5.3c-1.2-0.5-2.3-0.9-3.2-1.4
		c-0.1,1.6-0.3,3.2-0.6,4.8c-0.2,0.7-0.6,1.1-1.4,1.1h-0.6c-0.7,0-1.1-0.4-1.1-1.3V27.5h-3.1V48C659.9,50.4,661,51.6,663.1,51.6z"/>
	<path class="st2" d="M638.6,36c-0.6-1.5-1.1-2.6-1.3-3.1l-1.2,0.6c0.5,1.1,0.9,2.2,1.2,3.1C637.8,36.4,638.3,36.2,638.6,36z"/>
	<path class="st2" d="M548.1,31.7l2.1,2c1.2-1.3,2.4-2.7,3.6-4.2l-2.5-2C550.4,29,549.3,30.4,548.1,31.7z"/>
	<path class="st2" d="M629.1,46.7c1,1.6,1.9,3.1,2.7,4.6l2.3-2.2l-4.3-5.4c0.1-0.9,0.2-1.8,0.2-2.7v-8.7h-1.8V41
		c0,3.2-1.3,5.9-4,8.3c0.8,1.3,1.3,2.3,1.6,3C627.3,50.7,628.4,48.8,629.1,46.7z"/>
	<polygon class="st2" points="627.2,31.1 630.8,31.1 630.8,44 632.9,44 632.9,28.3 625,28.3 625,44.1 627.2,44.1 	"/>
	<path class="st2" d="M603.8,31.7h5.8v1.4h2.4V31h3.7c-0.1,0.8-0.2,1.5-0.3,2.2h-3.1v13h2.7V36.1h5v10.1h2.7v-13h-4.3
		c0.1-0.7,0.2-1.4,0.3-2.2h4.7v-3H612v1.2h-3.4l-0.6-2.2l-3.2,0.5c0.2,0.6,0.4,1.1,0.5,1.7h-3.9v4.3h2.4V31.7z"/>
	<path class="st2" d="M643.6,33.4l-1.3-0.5c-0.3,0.9-0.8,2-1.3,3.1c0.4,0.2,0.8,0.4,1.3,0.7C642.8,35.5,643.2,34.4,643.6,33.4z"/>
	<path class="st2" d="M499.5,82.4c2.1,1.8,4,3.4,5.5,4.8l2.1-2.8c-1.8-1.5-3.6-3-5.7-4.5L499.5,82.4z"/>
	<path class="st2" d="M484.2,69.8l-2.3-3c-1.5,1.4-3.1,2.7-4.9,4.1v-7.5h-3.4v19.9c0,2.7,1.3,4,4,4h2c1.2,0,2.1-0.3,2.8-1
		c0.7-0.6,1.1-1.6,1.3-2.8c0.2-1.3,0.3-2.8,0.4-4.5l-3.2-1.1c-0.1,2.7-0.3,4.2-0.4,4.7c-0.1,0.5-0.3,0.8-0.6,1.1
		c-0.3,0.2-0.6,0.4-1,0.4h-0.6c-0.9,0-1.4-0.5-1.4-1.4v-7.5C479.5,73.4,481.9,71.6,484.2,69.8z"/>
	<path class="st2" d="M507,65.5H498c-0.3-1-0.6-1.9-0.8-2.6l-3.9,0.5c0.2,0.6,0.5,1.3,0.8,2.1h-9.4v3.1H507V65.5z"/>
	<path class="st2" d="M504.7,70.2H487v9.1h7.5v3.7c0,0.9-0.4,1.4-1.2,1.4c-0.9,0-1.8-0.1-2.9-0.2c0.3,1.2,0.6,2.4,0.8,3.7
		c2.3,0,3.8-0.1,4.5-0.3c0.7-0.2,1.3-0.6,1.7-1.3c0.4-0.6,0.6-1.5,0.6-2.5v-4.5h6.8V70.2z M501.4,76.1h-11.1v-2.8h11.1V76.1z"/>
	<path class="st2" d="M499.7,33.3h-3.1v7.5h-4.8v11.2h3.1v-1.6h8.6v1.6h3.1V40.7h-6.8v-2.3h7.8v-3h-7.8V33.3z M503.4,43.8v3.5h-8.6
		v-3.5H503.4z"/>
	<path class="st2" d="M492.2,82l-2.4-2.3c-1.8,1.9-3.6,3.6-5.3,4.9c0.7,0.7,1.4,1.6,2.1,2.6C488.8,85.3,490.7,83.5,492.2,82z"/>
	<path class="st3" d="M80.6,310.5c4.3,0,6.8-2.8,6.8-7.7v-1.9H83v1.6c0,2.4-0.7,3.7-2.4,3.7s-2.4-1.3-2.4-3.7v-13.3
		c0-2.4,0.7-3.7,2.4-3.7s2.4,1.3,2.4,3.7v1.7h4.4V289c0-4.9-2.4-7.7-6.8-7.7s-6.8,2.9-6.8,7.8v13.8
		C73.8,307.7,76.2,310.5,80.6,310.5z"/>
	<path class="st3" d="M208.1,291.8c0-4.2,2.5-5.9,5.8-5.4v-4.9c-2.6-0.1-5,1.2-5.9,3.8v-3.6h-4.3v28.3h4.4V291.8z"/>
	<rect x="64.9" y="281.7" class="st3" width="4.4" height="28.3"/>
	<path class="st3" d="M34.1,310.5c4.4,0,7.1-2.8,7.1-7.7v-28.6h-4.4v28.4c0,2.5-1,3.7-2.6,3.7s-2.6-1.2-2.6-3.7v-3.8h-4.4v4.1
		C27.1,307.7,29.7,310.5,34.1,310.5z"/>
	<path class="st3" d="M51.9,310.5c1.5,0,3.3-0.9,3.7-2.2v1.8h4.2v-28.3h-4.4v20.8c0,2.5-1,3.7-2.5,3.7c-1.6,0-2.5-1.2-2.5-3.7v-20.8
		H46v21.1C46,307.7,47.7,310.5,51.9,310.5z"/>
	<rect x="64.9" y="272" class="st3" width="4.4" height="5.6"/>
	<path class="st3" d="M159.9,310.5c1.5,0,3.3-0.9,3.7-2.2v1.8h4.2v-28.3h-4.4v20.8c0,2.5-1,3.7-2.5,3.7c-1.6,0-2.5-1.2-2.5-3.7
		v-20.8H154v21.1C154,307.7,155.7,310.5,159.9,310.5z"/>
	<path class="st3" d="M173.5,302.6c0,4.8,2.3,8,8,7.5v-4.4c-2.7,0.2-3.6-1-3.6-3.6v-15.9h3.6v-4.5h-3.6V275h-4.4v6.7h-2.1v4.5h2.1
		V302.6z"/>
	<path class="st3" d="M142.5,310.5c4.4,0,7.1-2.8,7.1-7.7V289c0-4.9-2.7-7.7-7.1-7.7s-7.1,2.8-7.1,7.7v13.8
		C135.4,307.7,138.1,310.5,142.5,310.5z M139.8,289.2c0-2.5,1.1-3.7,2.7-3.7s2.7,1.2,2.7,3.7v13.3c0,2.5-1.1,3.7-2.7,3.7
		s-2.7-1.2-2.7-3.7V289.2z"/>
	<path class="st3" d="M190.7,310.5c1.5,0,3.3-0.9,3.7-2.2v1.8h4.2v-28.3h-4.4v20.8c0,2.5-1,3.7-2.5,3.7c-1.6,0-2.5-1.2-2.5-3.7
		v-20.8h-4.4v21.1C184.8,307.7,186.5,310.5,190.7,310.5z"/>
	<path class="st3" d="M223.8,310.5c4.4,0,7.1-2.8,7.1-7.7v-1.9h-4.4v1.6c0,2.5-1,3.7-2.7,3.7c-1.7,0-2.7-1.2-2.7-3.7v-5.3h9.8V289
		c0-4.9-2.7-7.7-7.1-7.7s-7.1,2.8-7.1,7.7v13.8C216.7,307.7,219.4,310.5,223.8,310.5z M221.1,289.2c0-2.5,1-3.7,2.7-3.7
		s2.7,1.2,2.7,3.7v4.2h-5.4V289.2z"/>
	<path class="st3" d="M124.4,310.5c4.4,0,7-2.8,7-7.7v-4.1H127v3.8c0,2.5-0.9,3.7-2.5,3.7s-2.6-1.2-2.6-3.7v-20.8
		c0-2.5,0.9-3.7,2.6-3.7s2.5,1.2,2.5,3.7v3.8h4.4v-4.1c0-4.9-2.5-7.7-7-7.7c-4.4,0-7,2.8-7,7.7v21.4
		C117.4,307.7,120,310.5,124.4,310.5z"/>
	<path class="st3" d="M94.5,312.5c-0.4,1.9-1.1,3.5-3,3.5c-0.4,0-0.9,0-1.4-0.2v4.5c0.6,0.2,1,0.3,1.9,0.3c3.9,0,6-3,6.8-7.2
		l5.8-31.8H100l-2.1,15.6c-0.3,2.5-0.7,7-0.7,7h-0.1c0,0-0.3-4.4-0.7-7l-2.1-15.6h-4.6l5.3,28.3L94.5,312.5z"/>
	<path class="st2" d="M88.4,343.5V341H66v2.5h8.5c-0.1,0.4-0.2,0.8-0.4,1.2h-5.6v10.7h2.1c-1.3,1.3-3,2.6-5.2,3.9
		c0.7,0.8,1.3,1.6,1.8,2.3c1.2-0.7,2.3-1.6,3.4-2.5c1,0.8,2.1,1.6,3.3,2.3c-2.4,0.5-5,0.8-7.8,0.9c0.4,1,0.8,1.9,1.2,2.9
		c4-0.5,7.5-1.3,10.5-2.2c2.7,0.9,5.9,1.6,9.5,1.9c0.3-0.9,0.7-2,1.2-3.1c-2.4,0-4.6-0.1-6.6-0.4c1.7-0.8,3.1-1.7,4.3-2.7v-2.3h-13
		c0.3-0.4,0.6-0.7,0.9-1.1h12.3v-10.7h-8.8l0.5-1.2H88.4z M81.7,358.7c-1.2,0.6-2.5,1.2-3.9,1.6c-1.3-0.4-2.5-1-3.5-1.6H81.7z
		 M83.5,353.2H71.5v-0.9h11.9V353.2z M83.5,350.4H71.5v-0.9h11.9V350.4z M83.5,346.8v0.9H71.5v-0.9H83.5z"/>
	<path class="st2" d="M217.8,436.5h2.5c2.1,0,3.3-0.8,3.7-2.3c0.4-1.4,0.8-3.2,1.1-5.3c-1.3-0.5-2.4-0.9-3.3-1.4
		c-0.1,1.6-0.4,3.2-0.6,4.8c-0.2,0.7-0.7,1.1-1.5,1.1H219c-0.8,0-1.2-0.4-1.2-1.3v-19.7h-3.3V433
		C214.5,435.3,215.6,436.5,217.8,436.5z"/>
	<path class="st2" d="M197.9,412.9L195,412l-1.2,2.8h-2.1l-1.4-2.7l-2.6,1l1.1,1.8h-2.5v10h13v-10h-2.6L197.9,412.9z M191.6,422.2
		h-3v-4.9h3V422.2z M196.8,417.3v4.9h-3v-4.9H196.8z"/>
	<path class="st2" d="M126.7,436c1,0.3,2.1,0.6,3.1,1l2.3-9.6c-0.8-0.2-1.8-0.6-3.1-1.2C128.4,429.7,127.6,433,126.7,436z"/>
	<path class="st2" d="M209.3,425.3v-1.4c1.1-1.5,1.9-2.9,2.6-4.4v-3.1h-4l2.1-1.2c-0.9-1.4-1.6-2.5-2.2-3.2l-2.8,1.5
		c0.6,0.9,1.2,1.9,1.8,2.9h-4.7v3.4h5.8c-1.3,2.3-3.6,4.9-6.8,7.7c0.3,1.2,0.7,2.6,1.1,4.2c1.4-1.3,2.7-2.6,3.8-3.8v9.2h3.2v-10.2
		c0.7,0.7,1.6,1.5,2.6,2.5l2-2.5c-1.3-1.1-2.6-2-3.7-2.8L209.3,425.3z"/>
	<path class="st2" d="M98,363.6c0.3-0.5,0.5-1.1,0.5-1.9v-6.1h4.2v-2.8h-4.2v-1.6h4.6v-2.8h-2.5c0.5-0.9,1-1.5,1.2-2
		c-1.3-0.6-2.1-1-2.5-1.2h3.3v-2.8h-4c-0.2-0.9-0.5-1.6-0.7-2.3l-3.3,0.6c0.2,0.5,0.4,1.1,0.6,1.7H91v2.8h8
		c-0.3,0.7-0.8,1.7-1.6,3.1h-1c-0.4-0.9-1-2-1.6-3.1l-2.6,1.1c0.4,0.6,0.7,1.3,1,2h-2.6v2.8h4.9v1.6h-4.5v2.8h4.5v4.7
		c0,0.8-0.3,1.1-0.9,1.1c-0.4,0-0.8,0-1.2-0.1c0.6-1.4,1.1-2.9,1.5-4.4l-2.7-0.9c-0.6,2.1-1.3,4-2.1,5.6c1.1,0.4,1.9,0.9,2.5,1.3
		l0.5-1.1c0.2,0.9,0.4,1.8,0.5,2.9c1.5,0,2.5-0.1,3.1-0.2C97.3,364.4,97.7,364.1,98,363.6z"/>
	<path class="st2" d="M126.1,389.1c-0.6,4-1.8,7-3.8,9.2c0.6,0.8,1.3,1.8,2,2.9c1.2-1.2,2.1-2.6,3-4.4c1,2.1,2.9,3.3,5.4,3.4
		c2.6,0.2,6.7,0.3,12.3,0.3c0.2-0.9,0.6-2,1-3.4c-3.9,0.1-7.2,0.1-9.8,0.1v-3.4h8v-3.1h-8v-2.7h9.2v-3.1h-22.5v3.1h9.9v9.1
		c-2-0.3-3.5-1.6-4.3-3.8c0.3-1.1,0.6-2.4,0.8-3.7L126.1,389.1z"/>
	<path class="st2" d="M188.7,351.8c0,4.8-0.9,8.3-2.6,10.5c1,1,1.8,1.9,2.5,2.9c2.2-3.1,3.3-7.3,3.3-12.7v-0.2h4.3V365h3.2v-12.6
		h3.5v-3.2h-11v-4c4.7-0.4,8.3-0.8,10.7-1.2l-1-3.4c-4.2,0.8-8.5,1.3-12.9,1.4V351.8z"/>
	<path class="st2" d="M174.7,416v-3h-12v1.2h-3.5l-0.7-2.2l-3.3,0.5c0.2,0.6,0.4,1.1,0.6,1.7h-4v4.3h2.5v-1.8h6.1v1.4h2.5V416h3.9
		c-0.1,0.8-0.2,1.5-0.3,2.2h-3.2v13h2.8v-10.1h5.2v10.1h2.8v-13h-4.5c0.1-0.7,0.2-1.4,0.3-2.2H174.7z"/>
	<path class="st2" d="M131.4,363.5h3.4v1.2h3.3v-11.9h-9.9v11.9h3.3V363.5z M131.4,355.9h3.4v4.5h-3.4V355.9z"/>
	<path class="st2" d="M195,400.7v-11.9H185v11.9h3.3v-1.2h3.4v1.2H195z M188.3,396.4v-4.5h3.4v4.5H188.3z"/>
	<path class="st2" d="M179.4,347.8h2.6v4.5c-0.9,0.2-1.8,0.3-2.7,0.4l0.2,3.7l2.5-0.5v4.7c0,0.7-0.3,1.1-0.8,1.1l-1.8-0.1
		c0.3,1.3,0.5,2.4,0.6,3.4c0.9,0,1.8,0,2.7-0.1s1.5-0.4,1.9-0.9c0.4-0.5,0.6-1.3,0.6-2.3v-6.5l2.5-0.5c0.2-2.1,0.3-3.3,0.3-3.5
		l-2.8,0.5v-3.9h2.4v-3.2h-2.4v-4.3H182v4.3h-2.6V347.8z"/>
	<path class="st2" d="M169.3,358.9c-1.4,0-2.7-0.4-4-1.3v3.6c1.2,0.6,2.6,0.9,4.4,0.9c2.1,0,3.8-0.6,5.1-1.8
		c1.3-1.2,1.9-2.8,1.9-4.9c0-1.8-0.5-3.3-1.6-4.3s-2.6-1.6-4.4-1.6c-0.6,0-1.1,0-1.5,0.1v-4.1h6.8v-3.4h-10.1v10.8
		c1.2-0.2,2.2-0.2,3-0.2c2.6,0,4,1,4,3c0,1-0.3,1.8-1,2.3C171.3,358.6,170.4,358.9,169.3,358.9z"/>
	<path class="st2" d="M119.7,363.5h3.3v1.2h3.3v-11.9h-9.9v11.9h3.3V363.5z M119.7,355.9h3.3v4.5h-3.3V355.9z"/>
	<path class="st2" d="M95.3,384.7v-6.4h-8.9c-0.2-0.9-0.5-1.6-0.7-2.3l-4.1,0.6c0.2,0.5,0.5,1,0.7,1.8h-9.2v6.4h3.3v-3.5H92v3.5
		H95.3z"/>
	<path class="st2" d="M176.7,399.5h3.3v1.2h3.3v-11.9h-9.9v11.9h3.3V399.5z M176.7,391.9h3.3v4.5h-3.3V391.9z"/>
	<path class="st2" d="M103.8,353.6c0,2.4-0.3,4.4-1,6c-0.7-1.5-1.4-2.7-2-3.5l-2.3,1.2c0.7,1.2,1.3,2.4,1.8,3.8l2.4-1.5
		c-0.5,1.3-1.2,2.3-2.1,3.2c0.9,0.7,1.9,1.5,3,2.5c2.2-2.8,3.3-6.9,3.3-12.3v-1.4h2.1v13.2h3.1v-13.2h1.8v-3.3H107v-3.4
		c2.6-0.3,4.9-0.7,7.1-1.3l-1.4-3.3c-2.3,0.8-5.2,1.5-8.8,1.9V353.6z"/>
	<path class="st2" d="M147.4,394.2v3.1h10.1v3.8h3.3v-3.8h10.1v-3.1h-10.1v-1.8h8.2v-12.6h-4.5c0.9-1,1.6-1.9,2.1-2.5l-3.6-1.4
		c-0.8,1.3-1.6,2.6-2.6,3.9h-4.8l1.5-0.7l-2.5-3.1l-2.9,1.4c0.6,0.8,1.1,1.6,1.7,2.4h-4.4v12.6h8.2v1.8H147.4z M160.8,382.8h5.1v2.1
		h-5.1V382.8z M160.8,387.5h5.1v2.1h-5.1V387.5z M152.4,382.8h5.1v2.1h-5.1V382.8z M152.4,389.5v-2.1h5.1v2.1H152.4z"/>
	<path class="st2" d="M135.8,341.1h-17.1v9.7h17.1V341.1z M132.3,347.6h-10.1v-3.3h10.1V347.6z"/>
	<path class="st2" d="M123.3,383.9h3.3V382h15.1v1.9h3.3v-5h-8.6c-0.4-1.1-0.7-2-1-2.9l-3.6,0.9l0.7,2h-9.2V383.9z"/>
	<path class="st2" d="M119.5,377.2H107v18.7c0,1.2-0.3,2.1-0.8,2.7l1.3,2.7c1-0.5,3.1-1.1,6.2-1.9c0-0.7,0-1.6,0.1-2.8
		c1.2,1.8,3,3.2,5.4,4.4c0.5-1.3,1.1-2.5,1.7-3.5c-1.6-0.5-2.8-1.2-3.8-2.1l3.7-2.3l-2-2.7h0.6V377.2z M110.1,380.3h6.4v2.1h-6.4
		V380.3z M110.1,396.9v-6.6h1.1c0.5,2.2,1.3,4.1,2.3,5.7C112.3,396.3,111.2,396.6,110.1,396.9z M110.1,387.3v-2.1h6.4v2.1H110.1z
		 M115.5,393.1c-0.5-0.8-0.9-1.8-1.3-2.8h4.5C117.7,391.3,116.6,392.2,115.5,393.1z"/>
	<path class="st2" d="M159.1,362.1c0.7,0,1.2-0.2,1.7-0.6s0.7-0.9,0.7-1.6c0-0.6-0.2-1.1-0.7-1.5c-0.4-0.4-1-0.6-1.6-0.6
		c-0.6,0-1.2,0.2-1.6,0.6c-0.5,0.4-0.7,0.9-0.7,1.6c0,0.6,0.2,1.1,0.7,1.6C158,361.9,158.5,362.1,159.1,362.1z"/>
	<path class="st2" d="M182.3,426v-8.7h-1.9v8.7c0,3.2-1.4,5.9-4.2,8.3c0.8,1.3,1.4,2.3,1.7,3c1.6-1.6,2.8-3.5,3.5-5.6
		c1,1.6,1.9,3.1,2.8,4.6l2.4-2.2l-4.5-5.4C182.3,427.8,182.3,426.9,182.3,426z"/>
	<path class="st2" d="M132,421.3h5.2v2.1h-4.4V437h3v-3.8c0.6,0.5,1.1,0.9,1.3,1.1c1-1.5,1.7-2.9,2.2-4.3c0.3,0.4,0.5,0.7,0.8,1.1
		l1.2-1.1c-0.4,1.1-1,2-1.8,2.8l2.5,1.6c0.2,0.8,0.5,1.6,0.7,2.5c2.1,0,3.6-0.1,4.2-0.2c0.7-0.1,1.2-0.4,1.6-0.9
		c0.4-0.5,0.6-1.3,0.6-2.2v-10.1h-4.2v-2.1h4.9v-2.6H132V421.3z M135.6,431.3v-5.5h1.6C137.1,427.9,136.6,429.7,135.6,431.3z
		 M144.8,425.8h1.4v3.9l-1.6-1.7C144.7,427.3,144.8,426.6,144.8,425.8z M145.1,432.4l0.9-1v1.5c0,0.9-0.5,1.4-1.4,1.4
		c-0.7,0-1.6,0-2.6-0.1c0.8-1.1,1.4-2.3,1.9-3.5C144.4,431.3,144.8,431.8,145.1,432.4z M139.9,421.3h2.2v2.1h-2.2V421.3z
		 M139.9,425.8h2.2c-0.1,1.2-0.3,2.4-0.6,3.4l-1.6-1.8C139.9,427.1,139.9,426.5,139.9,425.8z"/>
	<path class="st2" d="M92.7,411.9h-3.3v7h-6v17.8h3.4v-5.2h8.6v0.4c0,1.1-0.5,1.6-1.6,1.6c-0.9,0-2,0-3.3-0.1
		c0.4,1.2,0.7,2.3,0.9,3.4c2.2,0,3.8,0,4.7-0.1c0.9-0.1,1.6-0.5,2-1c0.5-0.6,0.7-1.4,0.7-2.4v-14.4h-6V411.9z M95.4,428.6h-8.6v-1.9
		h8.6V428.6z M95.4,421.9v1.9h-8.6v-1.9H95.4z"/>
	<path class="st2" d="M170,426v-4.1h-2.8v3.8c0,2.7-0.4,4.7-1.1,5.8c-0.7,1.2-2.2,2.2-4.4,3v-6.2l0,0l1.3-2.5
		c-1.1-0.6-2.1-1.2-3.2-1.8c0.8-1,1.5-2.1,2.1-3.3v-2.4h-4.9c0.1-0.2,0.2-0.5,0.3-0.7l-2.5-1c-0.6,1.9-1.8,3.8-3.5,5.7
		c1,0.5,1.7,1,2.2,1.4c0.8-0.9,1.5-1.9,2.1-2.9h3.1c-0.4,0.7-0.9,1.4-1.5,2l-1.9-0.9l-1.4,2l1.2,0.6c-1.2,0.7-2.5,1.3-4.1,1.8
		c0.3,0.7,0.7,1.5,1,2.5c0.2-0.1,0.5-0.1,0.7-0.2v8.1h2.8v-1h3.3v0.8h2.8v-1.6c0.5,0.7,1,1.4,1.5,2.3c2.5-1,4.3-2.3,5.3-4
		c1.8,1.5,3.3,2.8,4.6,4l1.7-3c-1.5-1.2-3.3-2.5-5.3-3.9C169.9,429.1,170,427.7,170,426z M159,432.9h-3.3v-2.2h3.3V432.9z
		 M154.7,427.9c1.2-0.5,2.3-1.2,3.3-1.9c1,0.6,2,1.2,3.1,1.9H154.7z"/>
	<path class="st2" d="M76.6,414.6c1.1,0.9,2.4,2.1,3.7,3.6l2.1-2.6c-1.4-1.3-2.7-2.3-3.9-3.3L76.6,414.6z"/>
	<path class="st2" d="M88.5,416.5c-1.1-1.3-2.3-2.7-3.6-4l-2.3,1.9c1.3,1.5,2.4,2.8,3.4,4.1L88.5,416.5z"/>
	<path class="st2" d="M76.2,421.5c1.5,1.3,2.8,2.5,3.7,3.5l2.2-2.6c-1.1-1.1-2.4-2.2-3.9-3.3L76.2,421.5z"/>
	<path class="st2" d="M145.9,412h-3.1v2.1H139v-2.1h-3.1v2.1H132v0.9c-1.2-1.1-2.4-2.1-3.4-2.9l-2,2.3c1.3,1.2,2.4,2.3,3.5,3.4
		l1.9-2.1v1h3.9v1.6h3.1v-1.6h3.8v1.6h3.1v-1.6h3.9v-2.6h-3.9V412z"/>
	<path class="st2" d="M105,428.2v4.3h3v-4.4h10.6v3.9h3v-4.6c0.8,0,1.4-0.3,1.8-0.7c0.4-0.4,0.6-1.1,0.7-2.1
		c0.1-0.9,0.1-2.1,0.2-3.4h-6.5v-1.4h5.6v-6.1h-5.6V412h-3v1.7h-3V412h-3v1.7h-6.4v2.3h6.4c0,0.6,0,1,0,1.4h-5.5l-0.9,6.1h4.7
		c-1.1,1.2-3,2.2-5.9,3c0.6,1,1.1,1.9,1.5,2.7C103.5,428.8,104.3,428.5,105,428.2z M117.8,416h2.8v1.4h-2.8V416z M111.9,416h3v1.4
		h-3C111.9,416.8,111.9,416.3,111.9,416z M111.7,419.8h3.2v1.4h-3.4C111.5,420.7,111.6,420.3,111.7,419.8z M110.6,423.5h4.3v1.9h3
		v-1.9h3.7c0,0.4,0,0.7-0.1,0.9c-0.1,0.2-0.2,0.4-0.3,0.5c-0.1,0.1-0.8,0.1-2,0.1l0.3,0.9h-10.5C109.4,425.3,110,424.6,110.6,423.5z
		 M105.6,421.2l0.3-1.4h2.8c-0.1,0.5-0.2,1-0.3,1.4H105.6z"/>
	<path class="st2" d="M143.4,343.2c-1.2,1-1.7,2.2-1.7,3.8c0,2.1,1.1,3.6,3.2,4.5v0.1c-2.5,1.1-3.8,2.9-3.8,5.2
		c0,1.6,0.6,2.9,1.7,3.9s2.6,1.4,4.4,1.4c2.1,0,3.7-0.5,4.9-1.5c1.2-1,1.8-2.3,1.8-4.1c0-1.2-0.3-2.2-1-3.1
		c-0.7-0.9-1.7-1.5-2.9-1.9v-0.1c2.3-1,3.5-2.6,3.5-4.8c0-1.5-0.6-2.7-1.7-3.6s-2.5-1.3-4.2-1.3C146,341.7,144.5,342.2,143.4,343.2z
		 M150.4,356.5c0,0.8-0.3,1.4-0.8,1.9c-0.5,0.5-1.2,0.7-2,0.7c-0.8,0-1.5-0.2-2-0.7c-0.6-0.5-0.8-1.1-0.8-1.9c0-1.5,0.9-2.7,2.7-3.4
		C149.4,353.8,150.4,354.9,150.4,356.5z M149.9,347c0,1.3-0.8,2.3-2.3,2.9c-1.5-0.7-2.3-1.6-2.3-2.9c0-0.7,0.2-1.2,0.7-1.6
		s1-0.6,1.6-0.6c0.7,0,1.2,0.2,1.6,0.6C149.7,345.7,149.9,346.3,149.9,347z"/>
	<path class="st2" d="M101.3,386.8c1.4,1.7,2.1,3.4,2.1,5.1c0,0.8-0.5,1.2-1.4,1.2c-0.2,0-0.5,0-0.8-0.1c0.3,1.2,0.5,2.5,0.6,3.9
		c3.1,0,4.6-1.3,4.6-4c0-2.5-0.8-4.7-2.3-6.5c0.8-2.5,1.4-4.8,2-6.9v-2.4h-8v24.1h3v-21.1h2C102.6,382.4,102,384.6,101.3,386.8z"/>
	<path class="st2" d="M93.5,416.7l2.2,2c1.3-1.3,2.5-2.7,3.8-4.2l-2.6-2C95.9,414,94.7,415.4,93.5,416.7z"/>
	<polygon class="st2" points="185.5,429 185.5,413.3 177.2,413.3 177.2,429.1 179.5,429.1 179.5,416 183.2,416 183.2,429 	"/>
	<path class="st2" d="M61.2,376.3v4.4H56v12h3v-0.8h2.3v4.7l-5.9,0.5l0.4,3.3l11.8-1.4c0.2,0.7,0.5,1.5,0.7,2.3l2.8-0.9
		c-0.8-2.8-1.7-5.3-2.5-7.5l-2.7,0.8c0.3,0.7,0.5,1.5,0.8,2.3l-2.2,0.2v-4.4h5.2v-11.2h-5.2v-4.4H61.2z M61.2,388.5H59v-4.7h2.3
		V388.5z M66.6,383.8v4.7h-2.2v-4.7H66.6z"/>
	<path class="st2" d="M191.4,421c-0.7-1.5-1.1-2.6-1.4-3.1l-1.3,0.6c0.5,1.1,1,2.2,1.3,3.1C190.6,421.4,191,421.1,191.4,421z"/>
	<path class="st2" d="M76.5,435.9c1,0.3,2.1,0.6,3.3,1l2.1-9.8c-0.9-0.2-1.9-0.6-3.2-1.1C78,429.7,77.3,433,76.5,435.9z"/>
	<path class="st2" d="M49.4,345.7h-7v2.5h6c-0.2,0.4-0.4,0.9-0.7,1.3h-7.1v2.6h5.2c-1.5,1.6-3.3,2.9-5.5,3.9c0.6,0.7,1.2,1.6,2,2.9
		c0.8-0.5,1.6-1,2.3-1.5v8h3.1v-1.1h8.9v1h3.1v-8c0.8,0.5,1.7,1,2.7,1.4c0.3-0.6,0.8-1.6,1.6-3.1c-2.4-0.7-4.4-1.9-6-3.5h5.8v-2.6
		H51.3c0.2-0.4,0.4-0.9,0.6-1.3H62v-2.5h-9.4l0.3-1.3h9.9v-2.6h-9.5c0.1-0.6,0.2-1.2,0.3-1.8h-3.2c-0.1,0.6-0.1,1.2-0.2,1.8h-8.7
		v2.6h8.2C49.6,344.8,49.5,345.3,49.4,345.7z M56.6,361.7h-8.9v-1.6h8.9V361.7z M56.6,357.7h-8.9v-1.6h8.9V357.7z M54.8,352
		c0.3,0.6,0.7,1.1,1.1,1.6h-7.4c0.4-0.5,0.9-1.1,1.3-1.6H54.8z"/>
	<path class="st2" d="M129.8,424.9l2.1-2.7c-1.3-1.2-2.6-2.3-3.8-3.2l-2,2.4C127.4,422.5,128.6,423.6,129.8,424.9z"/>
	<path class="st2" d="M41.2,418.2h-3.3v7.5h-5v11.2h3.2v-1.6h9v1.6h3.2v-11.2h-7.1v-2.3h8.1v-3h-8.1V418.2z M45,428.7v3.5h-9v-3.5
		H45z"/>
	<path class="st2" d="M124.5,434.5c-3.7-1.3-7-2.3-10-3.2c0.2-0.8,0.3-1.6,0.4-2.5h-3c-0.1,2-0.8,3.4-2.3,4.1
		c-1.5,0.7-4,1.1-7.4,1.3c0.5,1.1,0.9,2.1,1.3,3c5.2-0.5,8.5-1.7,9.9-3.5c3.5,1.2,6.7,2.4,9.7,3.6L124.5,434.5z"/>
	<path class="st2" d="M196.7,418.4l-1.4-0.5c-0.3,0.9-0.8,2-1.3,3.1c0.4,0.2,0.8,0.4,1.3,0.7C195.7,420.4,196.2,419.4,196.7,418.4z"
		/>
	<path class="st2" d="M186.9,437.2h2.8v-1h6v1h2.8v-11.4h-11.6V437.2z M189.7,428.2h6v1.5h-6V428.2z M189.7,432.1h6v1.5h-6V432.1z"
		/>
	<path class="st2" d="M64.8,411.9h-3.1c0,1.3,0,2.6-0.1,4.1h-8.8v20.9H56v-17.6h5.5c-0.2,3.6-2,6.4-5.4,8.6c0.8,0.8,1.6,1.6,2.5,2.7
		c2-1.4,3.5-3,4.5-4.9c2,1.9,3.5,3.4,4.5,4.5l2.4-2.6c-2.2-1.9-4.2-3.6-5.8-4.8c0.2-1,0.3-2.1,0.4-3.5h5.6v12.6c0,0.4-0.1,0.8-0.2,1
		c-0.1,0.3-0.3,0.4-0.5,0.5s-0.6,0.1-1.2,0.1c-1,0-2,0-3.1-0.1c0.3,1.3,0.5,2.4,0.7,3.3c1.8,0,3.3,0,4.3-0.1c1-0.1,1.8-0.5,2.4-1.1
		c0.5-0.7,0.8-1.6,0.8-2.9V416h-8.7C64.8,414.8,64.8,413.4,64.8,411.9z"/>
	<path class="st2" d="M54.7,398.2c0.3-0.9,0.5-2.8,0.5-5.5c0-3.9-0.5-7.2-1.6-10.1c1.1-1.2,2.2-2.4,3.1-3.6l-2.3-2.2
		c-0.8,1-1.5,1.9-2.3,2.7c-0.7-1.1-1.4-2.1-2.3-3.1l-2.2,1.9c0.8,1.1,1.6,2.2,2.2,3.5c-0.8,0.8-1.6,1.4-2.5,2.1
		c0.5,0.7,1.1,1.6,1.8,2.8c0.7-0.5,1.3-1.1,1.9-1.6c0.2,0.7,0.4,1.3,0.5,2c-1.2,1.8-2.6,3.4-4.2,4.7c0.7,1.4,1.2,2.4,1.5,3
		c1.3-1.2,2.4-2.4,3.3-3.7c0.1,0.9,0.1,1.9,0.1,2.9c0,1.1,0,1.9-0.1,2.2c-0.1,0.4-0.2,0.7-0.5,0.9c-0.3,0.2-0.6,0.3-1,0.3
		c-0.5,0-1.3-0.1-2.3-0.2c0.3,1.5,0.4,2.6,0.5,3.3c2.2,0.1,3.6-0.1,4.4-0.4C53.8,399.8,54.4,399.2,54.7,398.2z"/>
	<path class="st2" d="M80.4,401.1c2.4,0,3.9-0.1,4.5-0.2c0.6-0.1,1.2-0.4,1.6-0.8c0.5-0.4,0.8-1,1-1.7c0.2-0.7,0.3-1.6,0.3-2.7
		c0-1.3-0.2-2.6-0.6-3.9l1-0.5c1.3,3.8,3,6.5,5.1,8.2c0.8-0.9,1.7-1.8,2.7-2.8c-2.4-1.5-4.2-3.7-5.2-6.6l3.8-1.9l-1.9-2.8
		c-1.7,1.1-4,2.4-6.6,3.7c-0.5-0.9-1.1-1.8-1.8-2.6c0.5-0.3,1-0.7,1.5-1.1h5.2v-2.8H77.2v2.8h3.9c-2.2,1.2-5,2.1-8.2,2.7
		c0.5,0.8,1.1,1.7,1.6,2.6c2.6-0.7,5-1.6,7.1-2.6c0.2,0.3,0.4,0.5,0.6,0.8c-2.5,1.6-5.6,2.8-9.3,3.7l1.6,2.6c3.3-1,6.3-2.4,8.9-4.4
		c0.2,0.3,0.3,0.7,0.4,1c-2.9,2.4-6.8,4.3-11.4,5.5c0.7,1,1.3,2,1.9,3c2-0.7,3.8-1.5,5.4-2.4C79.9,398.9,80.1,400,80.4,401.1z
		 M84.5,394.7c0.1,0.4,0.1,0.7,0.1,1c0,1.5-0.7,2.3-2.2,2.3c-0.6,0-1.4-0.1-2.4-0.2C81.7,396.8,83.2,395.8,84.5,394.7z"/>
	<path class="st2" d="M40.6,412l-3.9,1c0.2,0.6,0.5,1.2,0.7,1.8h-9.3v8.4c0,5.2-0.6,9.1-2,11.6c1,0.8,1.9,1.6,2.8,2.5
		c1.6-2.7,2.5-7.3,2.5-13.7v-5.7h18.3v-3.1h-8C41.3,413.8,41,412.9,40.6,412z"/>
	<path class="st2" d="M175.6,386.8h17.1v-9.7h-17.1V386.8z M179.1,380.3h10.1v3.3h-10.1V380.3z"/>
	<path class="st2" d="M533,647.7l2.2,2c1.3-1.3,2.5-2.7,3.8-4.2l-2.6-2C535.4,645,534.2,646.4,533,647.7z"/>
	<path class="st2" d="M495.5,611.1h2c-0.5,2.2-1.1,4.5-1.8,6.7c1.4,1.7,2.1,3.4,2.1,5.1c0,0.8-0.5,1.2-1.4,1.2c-0.2,0-0.5,0-0.8-0.1
		c0.3,1.2,0.5,2.5,0.6,3.9c3.1,0,4.6-1.3,4.6-4c0-2.5-0.8-4.7-2.3-6.5c0.8-2.5,1.4-4.8,2-6.9v-2.4h-8v24.1h3V611.1z"/>
	<path class="st2" d="M528,647.5c-1.1-1.3-2.3-2.7-3.6-4l-2.3,1.9c1.3,1.5,2.4,2.8,3.4,4.1L528,647.5z"/>
	<path class="st2" d="M481.8,643l-3.9,1c0.2,0.6,0.5,1.2,0.7,1.8h-9.3v8.4c0,5.2-0.6,9.1-2,11.6c1,0.8,1.9,1.6,2.8,2.5
		c1.6-2.7,2.5-7.3,2.5-13.7v-5.7h18.3v-3.1h-8C482.5,644.8,482.2,643.9,481.8,643z"/>
	<path class="st2" d="M482.4,649.3h-3.3v7.5h-5v11.2h3.2v-1.6h9v1.6h3.2v-11.2h-7.1v-2.3h8.1v-3h-8.1V649.3z M486.2,659.8v3.5h-9
		v-3.5H486.2z"/>
	<path class="st2" d="M532.2,643h-3.3v7h-6v17.8h3.4v-5.2h8.6v0.4c0,1.1-0.5,1.6-1.6,1.6c-0.9,0-2,0-3.3-0.1
		c0.4,1.2,0.7,2.3,0.9,3.4c2.2,0,3.8,0,4.7-0.1c0.9-0.1,1.6-0.5,2-1c0.5-0.6,0.7-1.4,0.7-2.4v-14.4h-6V643z M534.8,659.6h-8.6v-1.9
		h8.6V659.6z M534.8,653v1.9h-8.6V653H534.8z"/>
	<path class="st2" d="M515.2,623.9l-2-2.7h0.6v-13.1h-12.5v18.7c0,1.2-0.3,2.1-0.8,2.7l1.3,2.7c1-0.5,3.1-1.1,6.2-1.9
		c0-0.7,0-1.6,0.1-2.8c1.2,1.8,3,3.2,5.4,4.4c0.5-1.3,1.1-2.5,1.7-3.5c-1.6-0.5-2.8-1.2-3.8-2.1L515.2,623.9z M504.4,611.2h6.4v2.1
		h-6.4V611.2z M504.4,627.8v-6.6h1.1c0.5,2.2,1.3,4.1,2.3,5.7C506.6,627.3,505.5,627.6,504.4,627.8z M504.4,618.2v-2.1h6.4v2.1
		H504.4z M508.5,621.3h4.5c-1,1-2.1,1.9-3.2,2.8C509.3,623.2,508.8,622.3,508.5,621.3z"/>
	<path class="st2" d="M516,666.9c1,0.3,2.1,0.6,3.3,1l2.1-9.8c-0.9-0.2-1.9-0.6-3.2-1.1C517.5,660.7,516.7,664,516,666.9z"/>
	<path class="st2" d="M516.1,645.6c1.1,0.9,2.4,2.1,3.7,3.6l2.1-2.6c-1.4-1.3-2.7-2.3-3.9-3.3L516.1,645.6z"/>
	<path class="st2" d="M515.7,652.5c1.5,1.3,2.8,2.5,3.7,3.5l2.2-2.6c-1.1-1.1-2.4-2.2-3.9-3.3L515.7,652.5z"/>
	<path class="st2" d="M505.1,643H502c0,1.3,0,2.6-0.1,4.1h-8.8V668h3.2v-17.6h5.5c-0.2,3.6-2,6.4-5.4,8.6c0.8,0.8,1.6,1.6,2.5,2.7
		c2-1.4,3.5-3,4.5-4.9c2,1.9,3.5,3.4,4.5,4.5l2.4-2.6c-2.2-1.9-4.2-3.6-5.8-4.8c0.2-1,0.3-2.1,0.4-3.5h5.6v12.6c0,0.4-0.1,0.8-0.2,1
		c-0.1,0.3-0.3,0.4-0.5,0.5s-0.6,0.1-1.2,0.1c-1,0-2,0-3.1-0.1c0.3,1.3,0.5,2.4,0.7,3.3c1.8,0,3.3,0,4.3-0.1c1-0.1,1.8-0.5,2.4-1.1
		c0.5-0.7,0.8-1.6,0.8-2.9V647h-8.7C505.1,645.8,505.1,644.5,505.1,643z"/>
	<path class="st2" d="M612.3,621.2c0.6,1.4,1,2.6,1.3,3.5c0.8-0.7,1.6-1.5,2.3-2.2v9.4h3.3v-13.2c0.8-1,1.6-2.1,2.3-3.2l-2.8-1.9
		C616.9,616.4,614.7,618.9,612.3,621.2z"/>
	<rect x="622.6" y="608.8" class="st2" width="12.4" height="3.3"/>
	<path class="st2" d="M518.1,608v6.9H537V608H518.1z M533.8,613h-12.4v-0.9h12.4V613z M533.8,610.6h-12.4v-0.9h12.4V610.6z"/>
	<path class="st2" d="M589.1,615.2h6c-1.5,4.1-3.8,7.7-6.9,10.8c0.4,1.2,0.7,2.6,1,4.2c2.4-2.2,4.5-4.8,6.3-8c0.9,1.5,2,2.8,3.1,4
		c-2.1,1-4.5,2-7.2,2.8c0.6,1.1,1.2,2.2,1.8,3.3c3.2-1,6-2.3,8.3-3.7c2.3,1.5,5,2.7,8.3,3.5c0.7-1.3,1.3-2.5,2-3.7
		c-3-0.5-5.5-1.2-7.3-2c2-1.7,3.5-3.7,4.8-5.9v-2.8h-11.6c0.3-0.8,0.6-1.6,0.8-2.3h13.2v-3.1h-4l1.5-1.6c-1-1-2.3-2.1-3.7-3.3
		l-2.1,2.1c0.9,0.9,1.9,1.9,2.7,2.8h-6.7l1-4.7l-3.5-0.3c-0.4,1.9-0.7,3.6-1.1,5h-3.4c0.4-1.6,0.7-2.9,1-3.9l-3.3-0.4
		c-0.3,1.5-0.7,3-1.2,4.4V615.2z M605.4,620.5c-0.9,1.4-2.2,2.7-3.9,4c-1.4-1.1-2.5-2.5-3.4-4H605.4z"/>
	<path class="st2" d="M608,663.4c-0.2,0.7-0.7,1.1-1.5,1.1h-0.6c-0.8,0-1.2-0.4-1.2-1.3v-19.7h-3.3V664c0,2.4,1.1,3.5,3.3,3.5h2.5
		c2.1,0,3.3-0.8,3.7-2.3c0.4-1.4,0.8-3.2,1.1-5.3c-1.3-0.5-2.4-0.9-3.3-1.4C608.5,660.1,608.3,661.8,608,663.4z"/>
	<path class="st2" d="M621.8,619.3h7.1v7.3c0,1.3-0.6,2-1.7,2c-1,0-2.3-0.1-3.9-0.2c0.4,1.3,0.7,2.4,0.9,3.6c2.1,0,3.7-0.1,4.8-0.2
		s1.9-0.5,2.5-1.2c0.6-0.7,0.9-1.7,0.9-3.1v-8.2h3.7V616h-14.2V619.3z"/>
	<path class="st2" d="M621.2,609.2c-0.9-0.7-1.8-1.4-2.9-2.2c-1.3,1.7-3.2,3.6-5.9,5.8c0.8,1,1.5,2,2.1,3
		C617.3,613.4,619.5,611.2,621.2,609.2z"/>
	<path class="st2" d="M490.5,610.4V608H468v2.5h8.5c-0.1,0.4-0.2,0.8-0.4,1.2h-5.6v10.7h2.1c-1.3,1.3-3,2.6-5.2,3.9
		c0.7,0.8,1.3,1.6,1.8,2.3c1.2-0.7,2.3-1.6,3.4-2.5c1,0.8,2.1,1.6,3.3,2.3c-2.4,0.5-5,0.8-7.8,0.9c0.4,1,0.8,1.9,1.2,2.9
		c4-0.5,7.5-1.3,10.5-2.2c2.7,0.9,5.9,1.6,9.5,1.9c0.3-0.9,0.7-2,1.2-3.1c-2.4,0-4.6-0.1-6.6-0.4c1.7-0.8,3.1-1.7,4.3-2.7v-2.3h-13
		c0.3-0.4,0.6-0.7,0.9-1.1h12.3v-10.7h-8.8l0.5-1.2H490.5z M483.7,625.7c-1.2,0.6-2.5,1.2-3.9,1.6c-1.3-0.4-2.5-1-3.5-1.6H483.7z
		 M485.5,620.1h-11.9v-0.9h11.9V620.1z M485.5,617.4h-11.9v-0.9h11.9V617.4z M485.5,613.8v0.9h-11.9v-0.9H485.5z"/>
	<rect x="515.9" y="615.7" class="st2" width="23.4" height="1.9"/>
	<path class="st2" d="M466.8,619v-2.6h-12.5c0.2-0.4,0.4-0.9,0.6-1.3H465v-2.5h-9.4l0.3-1.3h9.9v-2.6h-9.5c0.1-0.6,0.2-1.2,0.3-1.8
		h-3.2c-0.1,0.6-0.1,1.2-0.2,1.8h-8.7v2.6h8.2c-0.1,0.4-0.2,0.9-0.4,1.3h-7v2.5h6c-0.2,0.4-0.4,0.9-0.7,1.3h-7.1v2.6h5.2
		c-1.5,1.6-3.3,2.9-5.5,3.9c0.6,0.7,1.2,1.6,2,2.9c0.8-0.5,1.6-1,2.3-1.5v8h3.1v-1.1h8.9v1h3.1v-8c0.8,0.5,1.7,1,2.7,1.4
		c0.3-0.6,0.8-1.6,1.6-3.1c-2.4-0.7-4.4-1.9-6-3.5H466.8z M452.7,619h5c0.3,0.6,0.7,1.1,1.1,1.6h-7.4
		C451.9,620.1,452.3,619.6,452.7,619z M459.6,628.7h-8.9v-1.6h8.9V628.7z M459.6,624.7h-8.9v-1.6h8.9V624.7z"/>
	<path class="st2" d="M586.7,631.6v-11.9h-9.9v11.9h3.3v-1.2h3.4v1.2H586.7z M580.1,627.4v-4.5h3.4v4.5H580.1z"/>
	<path class="st2" d="M529.1,628.5h8.8v-1.8h-8.8v-0.9h7.9v-7.4h-18.9v7.4h7.9v0.9h-8.7v1.8h8.7v1h-10.2v1.9h23.6v-1.9h-10.3V628.5z
		 M529.1,620.2h4.9v1.1h-4.9V620.2z M529.1,622.9h4.9v1.1h-4.9V622.9z M526,624h-4.8v-1.1h4.8V624z M526,621.3h-4.8v-1.1h4.8V621.3z
		"/>
	<polygon class="st2" points="567.3,647 571,647 571,660 573.3,660 573.3,644.3 565,644.3 565,660.1 567.3,660.1 	"/>
	<path class="st2" d="M567.3,617.8h17.1v-9.7h-17.1V617.8z M570.9,611.3H581v3.3h-10.1V611.3z"/>
	<path class="st2" d="M568.4,630.5h3.3v1.2h3.3v-11.9h-9.9v11.9h3.3V630.5z M568.4,622.8h3.3v4.5h-3.3V622.8z"/>
	<path class="st2" d="M579.2,652c-0.7-1.5-1.1-2.6-1.4-3.1l-1.3,0.6c0.5,1.1,1,2.2,1.3,3.1C578.4,652.4,578.8,652.2,579.2,652z"/>
	<path class="st2" d="M584.4,649.4l-1.4-0.5c-0.3,0.9-0.8,2-1.3,3.1c0.4,0.2,0.8,0.4,1.3,0.7C583.5,651.5,584,650.4,584.4,649.4z"/>
	<path class="st2" d="M570.1,657v-8.7h-1.9v8.7c0,3.2-1.4,5.9-4.2,8.3c0.8,1.3,1.4,2.3,1.7,3c1.6-1.6,2.8-3.5,3.5-5.6
		c1,1.6,1.9,3.1,2.8,4.6l2.4-2.2l-4.5-5.4C570,658.8,570.1,657.9,570.1,657z"/>
	<path class="st2" d="M574.7,668.2h2.8v-1h6v1h2.8v-11.4h-11.6V668.2z M577.5,659.3h6v1.5h-6V659.3z M577.5,663.1h6v1.5h-6V663.1z"
		/>
	<path class="st2" d="M542.6,628.8c0.2,0.9,0.4,1.8,0.5,2.9c1.5,0,2.5-0.1,3.1-0.2s1-0.4,1.3-0.9c0.3-0.5,0.5-1.1,0.5-1.9v-6.1h4.2
		v-2.8H548v-1.6h4.6v-2.8h-2.5c0.5-0.9,1-1.5,1.2-2c-1.3-0.6-2.1-1-2.5-1.2h3.3v-2.8h-4c-0.2-0.9-0.5-1.6-0.7-2.3l-3.3,0.6
		c0.2,0.5,0.4,1.1,0.6,1.7h-4.2v2.8h8c-0.3,0.7-0.8,1.7-1.6,3.1h-1c-0.4-0.9-1-2-1.6-3.1l-2.6,1.1c0.4,0.6,0.7,1.3,1,2h-2.6v2.8h4.9
		v1.6h-4.5v2.8h4.5v4.7c0,0.8-0.3,1.1-0.9,1.1c-0.4,0-0.8,0-1.2-0.1c0.6-1.4,1.1-2.9,1.5-4.4l-2.7-0.9c-0.6,2.1-1.3,4-2.1,5.6
		c1.1,0.4,1.9,0.9,2.5,1.3L542.6,628.8z"/>
	<path class="st2" d="M585.6,643.9l-2.8-0.9l-1.2,2.8h-2.1l-1.4-2.7l-2.6,1l1.1,1.8H574v10h13v-10h-2.6L585.6,643.9z M579.4,653.2
		h-3v-4.9h3V653.2z M584.6,648.3v4.9h-3v-4.9H584.6z"/>
	<path class="st2" d="M593,668.1h3.2v-10.2c0.7,0.7,1.6,1.5,2.6,2.5l2-2.5c-1.3-1.1-2.6-2-3.7-2.8l-1,1.3v-1.4
		c1.1-1.5,1.9-2.9,2.6-4.4v-3.1h-4l2.1-1.2c-0.9-1.4-1.6-2.5-2.2-3.2l-2.8,1.5c0.6,0.9,1.2,1.9,1.8,2.9h-4.7v3.4h5.8
		c-1.3,2.3-3.6,4.9-6.8,7.7c0.3,1.2,0.7,2.6,1.1,4.2c1.4-1.3,2.7-2.6,3.8-3.8V668.1z"/>
	<path class="st2" d="M563.5,610.6l-1.4-3.3c-2.3,0.8-5.2,1.5-8.8,1.9v11.4c0,2.4-0.3,4.4-1,6c-0.7-1.5-1.4-2.7-2-3.5l-2.3,1.2
		c0.7,1.2,1.3,2.4,1.8,3.8l2.4-1.5c-0.5,1.3-1.2,2.3-2.1,3.2c0.9,0.7,1.9,1.5,3,2.5c2.2-2.8,3.3-6.9,3.3-12.3v-1.4h2.1v13.2h3.1
		v-13.2h1.8v-3.3h-7.1v-3.4C559,611.6,561.4,611.2,563.5,610.6z"/>
	<path class="st2" d="M553.6,659.8h-3c-0.1,2-0.8,3.4-2.3,4.1s-4,1.1-7.4,1.3c0.5,1.1,0.9,2.1,1.3,3c5.2-0.5,8.5-1.7,9.9-3.5
		c3.5,1.2,6.7,2.4,9.7,3.6l1.5-2.8c-3.7-1.3-7-2.3-10-3.2C553.4,661.5,553.5,660.7,553.6,659.8z"/>
	<path class="st2" d="M539.9,657.5c0.6,1,1.1,1.9,1.5,2.7c0.8-0.3,1.6-0.6,2.3-0.9v4.3h3v-4.4h10.6v3.9h3v-4.6
		c0.8,0,1.4-0.3,1.8-0.7c0.4-0.4,0.6-1.1,0.7-2.1c0.1-0.9,0.1-2.1,0.2-3.4h-6.5v-1.4h5.6v-6.1h-5.6V643h-3v1.7h-3V643h-3v1.7h-6.4
		v2.3h6.4c0,0.6,0,1,0,1.4H542l-0.9,6.1h4.7C544.7,655.8,542.8,656.8,539.9,657.5z M556.4,647h2.8v1.4h-2.8V647z M550.5,647h3v1.4
		h-3C550.5,647.8,550.5,647.3,550.5,647z M550.3,650.8h3.2v1.4H550C550.1,651.8,550.2,651.3,550.3,650.8z M549.2,654.5h4.3v1.9h3
		v-1.9h3.7c0,0.4,0,0.7-0.1,0.9c-0.1,0.2-0.2,0.4-0.3,0.5c-0.1,0.1-0.8,0.1-2,0.1l0.3,0.9h-10.5C548,656.4,548.6,655.6,549.2,654.5z
		 M544.2,652.2l0.3-1.4h2.8c-0.1,0.5-0.2,1-0.3,1.4H544.2z"/>
	<path class="st3" d="M461,564.7c0-3.5-0.3-7.7-0.3-7.7h0.1l4.7,31.1h4.4l4.7-31.1h0.1c0,0-0.3,4.3-0.3,7.7v23.4h4.2v-35.9h-6.8
		l-3.5,22.6c-0.4,2.6-0.6,7-0.6,7h-0.1c0,0-0.2-4.3-0.6-7l-3.5-22.6h-6.8v35.9h4.2V564.7z"/>
	<path class="st3" d="M493.1,588.1h4.3c-0.4-2-0.5-3.8-0.5-10.1v-9.6c0-5.1-1-9.1-6.5-9.1c-4.4,0-6.9,3.1-6.9,8v1.7h4.4v-1.7
		c0-2.5,0.8-3.8,2.4-3.8c1.7,0,2.2,1.5,2.2,3.4c0,3.1-1.3,4.1-4.3,5.7c-3.8,2-5.5,4.3-5.5,8.9c0,4.8,2.7,7,5.4,7c2,0,3.7-1,4.6-2.6
		C492.9,586.6,493,587.3,493.1,588.1z M492.5,580c0,2.9-1.2,4.3-2.8,4.3c-1.4,0-2.4-0.9-2.4-3.4c0-2.6,1-3.9,3-5.2
		c1.1-0.7,1.8-1.3,2.2-1.9V580z"/>
	<path class="st3" d="M506.2,569.8c0-4.2,2.5-5.9,5.8-5.4v-4.9c-2.6-0.1-5,1.2-5.9,3.8v-3.6h-4.3v28.3h4.4V569.8z"/>
	<rect x="585.5" y="559.7" class="st3" width="4.4" height="28.3"/>
	<path class="st3" d="M572.6,588.5c1.5,0,3.3-0.9,3.7-2.2v1.8h4.2v-28.3h-4.4v20.8c0,2.5-1,3.7-2.5,3.7c-1.6,0-2.5-1.2-2.5-3.7
		v-20.8h-4.4v21.1C566.7,585.7,568.4,588.5,572.6,588.5z"/>
	<rect x="515.3" y="559.7" class="st3" width="4.4" height="28.3"/>
	<polygon class="st3" points="563.4,583.8 556.8,583.8 556.8,552.2 552.3,552.2 552.3,588.1 563.4,588.1 	"/>
	<rect x="585.5" y="550" class="st3" width="4.4" height="5.6"/>
	<path class="st3" d="M600.9,588.5c4.3,0,7.1-2.8,7.1-7.5c0-3.5-1.3-5.3-3.7-7.3l-4.1-3.5c-1.4-1.2-1.7-1.9-1.7-3.4
		c0-2.1,0.8-3.4,2.3-3.4c1.6,0,2.4,1.4,2.4,3.8v1.7h4.4V567c0-4.9-2.4-7.7-6.8-7.7s-6.7,2.8-6.7,7.5c0,3.5,1.3,5.2,3.7,7.2l4.1,3.5
		c1.4,1.2,1.7,2,1.7,3.5c0,2.3-1.2,3.4-2.8,3.4c-1.7,0-2.7-1.3-2.7-3.8v-1.6h-4.4v1.9C593.8,585.7,596.5,588.5,600.9,588.5z"/>
	<rect x="515.3" y="550" class="st3" width="4.4" height="5.6"/>
	<path class="st3" d="M616,572.6c-3.8,2-5.5,4.3-5.5,8.9c0,4.8,2.7,7,5.4,7c2,0,3.7-1,4.6-2.6c0.1,0.7,0.2,1.5,0.3,2.2h4.3
		c-0.4-2-0.5-3.8-0.5-10.1v-9.6c0-5.1-1-9.1-6.5-9.1c-4.4,0-6.9,3.1-6.9,8v1.7h4.4v-1.7c0-2.5,0.8-3.8,2.4-3.8
		c1.7,0,2.2,1.5,2.2,3.4C620.3,570,619,571,616,572.6z M620.3,573.8v6.2c0,2.9-1.2,4.3-2.8,4.3c-1.4,0-2.4-0.9-2.4-3.4
		c0-2.6,1-3.9,3-5.2C619.2,575,619.8,574.5,620.3,573.8z"/>
	<path class="st3" d="M528.8,572.6c-3.8,2-5.5,4.3-5.5,8.9c0,4.8,2.7,7,5.4,7c2,0,3.7-1,4.6-2.6c0.1,0.7,0.2,1.5,0.3,2.2h4.3
		c-0.4-2-0.5-3.8-0.5-10.1v-9.6c0-5.1-1-9.1-6.5-9.1c-4.4,0-6.9,3.1-6.9,8v1.7h4.4v-1.7c0-2.5,0.8-3.8,2.4-3.8
		c1.7,0,2.2,1.5,2.2,3.4C533,570,531.7,571,528.8,572.6z M533,573.8v6.2c0,2.9-1.2,4.3-2.8,4.3c-1.4,0-2.4-0.9-2.4-3.4
		c0-2.6,1-3.9,3-5.2C531.9,575,532.5,574.5,533,573.8z"/>
	<rect x="310.5" y="13" class="st4" width="4.4" height="5.6"/>
	<rect x="310.5" y="22.7" class="st4" width="4.4" height="28.4"/>
	<path class="st4" d="M301.3,26.3v-3.6h-4.3v28.4h4.4V32.8c0-4.2,2.5-5.9,5.8-5.4v-4.9C304.7,22.4,302.3,23.7,301.3,26.3z"/>
	<polygon class="st4" points="282.6,51.1 287,51.1 287,35.5 292.9,35.5 292.9,31.1 287,31.1 287,19.5 293.6,19.5 293.6,15.2 
		282.6,15.2 	"/>
	<rect x="319.8" y="45.4" class="st4" width="5.2" height="5.7"/>
	<path class="st4" d="M430.9,366h-4.4v6.7h-2.1v4.5h2.1v16.4c0,4.8,2.3,8,8,7.5v-4.4c-2.7,0.2-3.6-1-3.6-3.6v-15.9h3.6v-4.5h-3.6
		V366z"/>
	<rect x="437.9" y="395.4" class="st4" width="5.2" height="5.7"/>
	<path class="st4" d="M395.9,378.8c-1.7-1.9-2.1-3.4-2.1-5.6c0-2.5,0.9-4.1,2.8-4.1c1.7,0,2.7,1.2,2.7,3.7v3.8h4.4v-4.1
		c0-4.9-2.6-7.7-7.1-7.7c-5,0-7.2,3.6-7.2,8.4c0,3.5,0.7,5.8,3,8.5l5,5.8c1.7,1.9,2.1,3.4,2.1,5.6c0,2.7-1,4.1-3.1,4.1
		c-1.5,0-2.8-1.2-2.8-3.7v-3.8h-4.4v4.1c0,5,2.9,7.7,7.2,7.7c5,0,7.5-3.6,7.5-8.4c0-3.5-0.7-5.8-3-8.5L395.9,378.8z"/>
	<path class="st4" d="M421,381.4c0-5.1-1-9.1-6.5-9.1c-4.4,0-6.9,3.1-6.9,8v1.7h4.4v-1.7c0-2.5,0.8-3.8,2.4-3.8
		c1.7,0,2.2,1.5,2.2,3.4c0,3.1-1.3,4.1-4.3,5.7c-3.8,2-5.5,4.3-5.5,8.9c0,4.8,2.7,7,5.4,7c2,0,3.7-1,4.6-2.6
		c0.1,0.7,0.2,1.5,0.3,2.2h4.3c-0.4-2-0.5-3.8-0.5-10.1V381.4z M416.6,393c0,2.9-1.2,4.3-2.8,4.3c-1.4,0-2.4-0.9-2.4-3.4
		c0-2.6,1-3.9,3-5.2c1.1-0.7,1.8-1.3,2.2-1.9V393z"/>
	<path class="st4" d="M319.1,617.3c-1.5,0-3.3,0.9-3.7,2.2v-1.8h-4.2V646h4.4v-20.8c0-2.5,1-3.7,2.5-3.7c1.6,0,2.5,1.2,2.5,3.7V646
		h4.4V625C325,620,323.3,617.3,319.1,617.3z"/>
	<rect x="329.7" y="640.4" class="st4" width="5.2" height="5.7"/>
	<path class="st4" d="M301.7,638.5c0,2.5-1,3.7-2.5,3.7c-1.6,0-2.5-1.2-2.5-3.7v-20.8h-4.4v21.1c0,5,1.7,7.7,5.9,7.7
		c1.5,0,3.3-0.9,3.7-2.2v1.8h4.2v-28.3h-4.4V638.5z"/>
	<path class="st4" d="M280.1,623.8c-1.7-1.9-2.1-3.4-2.1-5.6c0-2.5,0.9-4.1,2.8-4.1c1.7,0,2.7,1.2,2.7,3.7v3.8h4.4v-4.1
		c0-4.9-2.6-7.7-7.1-7.7c-5,0-7.2,3.6-7.2,8.4c0,3.5,0.7,5.8,3,8.5l5,5.8c1.7,1.9,2.1,3.4,2.1,5.6c0,2.7-1,4.1-3.1,4.1
		c-1.5,0-2.8-1.2-2.8-3.7v-3.8h-4.4v4.1c0,5,2.9,7.7,7.2,7.7c5,0,7.5-3.6,7.5-8.4c0-3.5-0.7-5.8-3-8.5L280.1,623.8z"/>
	<path class="st4" d="M320.7,5h4.5c0-1.4,0-2.7,0-4h-4.5C320.7,2.3,320.7,3.7,320.7,5z"/>
	<rect x="309.3" y="1" class="st4" width="4.5" height="4"/>
	<rect x="286.1" y="1" class="st4" width="4.4" height="4"/>
	<rect x="297" y="1" class="st4" width="5.2" height="4"/>
	<path class="st4" d="M402.4,322.2h-5.7l-8.4,25.5v3.7h9.6v6.7h4.4v-6.7h2.6v-4.1h-2.6V322.2z M397.9,333.6v13.8h-5.3l5.9-20.4
		C398.6,326.9,397.9,330.2,397.9,333.6z"/>
	<path class="st4" d="M421.1,358h4.5v-35.9h-3.8c-0.3,2.8-2.3,3.9-4.6,4v3.6h3.9V358z"/>
	<rect x="408.9" y="352.4" class="st4" width="5.2" height="5.7"/>
	<path class="st4" d="M442.7,339.4c1.5-1,2.8-3,2.8-5.4v-4.6c0-4.9-2.8-7.8-7.3-7.8c-4.4,0-7.3,2.9-7.3,7.8v4.6
		c0,2.4,1.2,4.4,2.8,5.4c-1.9,0.8-3,3.2-3,5.9v5.3c0,5,2.9,7.8,7.5,7.8c4.6,0,7.5-2.7,7.5-7.8v-5.3
		C445.7,342.6,444.5,340.3,442.7,339.4z M435.3,329.7c0-2.5,1.2-3.7,2.8-3.7c1.7,0,2.8,1.2,2.8,3.7v4.6c0,2.5-1.2,3.7-2.8,3.7
		c-1.7,0-2.8-1.2-2.8-3.7V329.7z M441.2,350.5c0,2.5-1.4,3.7-3,3.7c-1.7,0-3-1.2-3-3.7v-5.3c0-2.5,1.4-3.7,3-3.7c1.7,0,3,1.2,3,3.7
		V350.5z"/>
	<rect x="290.9" y="594.4" class="st4" width="5.2" height="5.7"/>
	<path class="st4" d="M280,600.1h4.4v-6.7h2.6v-4.1h-2.6v-25.2h-5.7l-8.4,25.5v3.7h9.6V600.1z M274.6,589.3l5.9-20.4
		c0,0-0.6,3.3-0.6,6.6v13.8H274.6z"/>
	<path class="st4" d="M299.3,568.2v3.6h3.9v28.3h4.5v-35.9h-3.8C303.6,567,301.5,568,299.3,568.2z"/>
	<path class="st4" d="M320.2,563.7c-4.4,0-7.1,2.9-7.1,7.8v6.9c0,5,2,7.8,6.1,7.8c1.5,0,3.2-0.9,3.7-2.2v8.5c0,2.5-1,3.7-2.6,3.7
		s-2.6-1.2-2.6-3.7v-2.6h-4.4v2.8c0,4.9,2.6,7.8,7,7.8s7.1-2.9,7.1-7.8v-21.2C327.3,566.6,324.6,563.7,320.2,563.7z M322.9,578.2
		c0,2.5-1,3.7-2.7,3.7s-2.7-1.2-2.7-3.7v-6.5c0-2.5,1-3.7,2.7-3.7s2.7,1.2,2.7,3.7V578.2z"/>
	<path class="st5" d="M359.7,27.1c8.6,0,15.5-6.9,15.5-15.5c0-4.1-1.6-7.8-4.2-10.6h-22.6c-2.6,2.8-4.2,6.5-4.2,10.6
		C344.2,20.1,351.1,27.1,359.7,27.1z"/>
	<path class="st5" d="M359.7,340.1c-8.6,0-15.5,6.9-15.5,15.5c0,8.6,6.9,15.5,15.5,15.5c8.6,0,15.5-6.9,15.5-15.5
		C375.2,347,368.2,340.1,359.7,340.1z"/>
	<path class="st5" d="M359.7,594.1c-8.6,0-15.5,6.9-15.5,15.5c0,8.6,6.9,15.5,15.5,15.5c8.6,0,15.5-6.9,15.5-15.5
		C375.2,601,368.2,594.1,359.7,594.1z"/>
</g>
<g>
</g>
<g>
</g>
<g>
</g>
<g>
</g>
<g>
</g>
<g>
</g>
<g>
</g>
<g>
</g>
<g>
</g>
<g>
</g>
<g>
</g>
<g>
</g>
<g>
</g>
<g>
</g>
<g>
</g>
</svg>
