<?xml version="1.0" encoding="utf-8"?>
<!-- Generator: Adobe Illustrator 17.0.0, SVG Export Plug-In . SVG Version: 6.00 Build 0)  -->
<!DOCTYPE svg PUBLIC "-//W3C//DTD SVG 1.1//EN" "http://www.w3.org/Graphics/SVG/1.1/DTD/svg11.dtd">
<svg version="1.1" id="Layer_1" xmlns="http://www.w3.org/2000/svg" xmlns:xlink="http://www.w3.org/1999/xlink" x="0px" y="0px"
	 width="720px" height="721.1px" viewBox="0 0 720 721.1" style="enable-background:new 0 0 720 721.1;" xml:space="preserve">
<style type="text/css">
	.st0{fill:none;}
	.st1{fill:#DF9431;}
	.st2{fill:#010101;}
	.st3{fill:#FFEAAB;}
	.st4{fill:#FFFFFF;}
	.st5{fill:#DF9431;stroke:#FFFFFF;stroke-width:2;stroke-miterlimit:10;}
</style>
<g id="brand-2.svg">
	<polygon class="st0" points="720,158.9 720,0.1 579,0.1 	"/>
	<path class="st0" d="M277.3,713.4v-13.8c0-3.3,0.6-6.6,0.6-6.6l-5.9,20.4H277.3z"/>
	<path class="st0" d="M308.3,716.6v-20.8c0-2.5-1.1-3.7-2.8-3.7s-2.8,1.2-2.8,3.7v20.8c0,1.9,0.7,3,1.7,3.5h2.2
		C307.7,719.7,308.3,718.6,308.3,716.6z"/>
	<path class="st0" d="M306.6,720.1h-2.2c0.3,0.1,0.7,0.2,1.1,0.2S306.3,720.3,306.6,720.1z"/>
	<path class="st0" d="M325.9,720.1h-2.2c0.3,0.1,0.7,0.2,1.1,0.2C325.3,720.3,325.6,720.3,325.9,720.1z"/>
	<path class="st0" d="M305.8,159.1c-1.7,0-2.8,1.2-2.8,3.7v20.8c0,2.5,1.1,3.7,2.8,3.7s2.8-1.2,2.8-3.7v-20.8
		C308.6,160.3,307.5,159.1,305.8,159.1z"/>
	<path class="st0" d="M397.3,471.7c0-3.3,0.6-6.6,0.6-6.6l-5.9,20.4h5.3V471.7z"/>
	<path class="st0" d="M277.6,166.7c0-3.3,0.6-6.6,0.6-6.6l-5.9,20.4h5.3V166.7z"/>
	<path class="st0" d="M277.3,717.5h-9.6v-3.7l8.4-25.5h5.7v25.2h2.6v4.1h-2.6v2.6h6.5v-1.6h5.2v1.6h5.4c-0.3-1-0.5-2-0.5-3.3v-21.2
		c0-4.9,2.8-7.8,7.2-7.8s7.2,2.9,7.2,7.8v21.2c0,1.2-0.2,2.3-0.5,3.3h6c-0.3-1-0.5-2-0.5-3.3V714h4.4v2.6c0,1.9,0.6,3,1.6,3.5h2.2
		c1-0.4,1.6-1.6,1.6-3.5v-8.5c-0.5,1.3-2.2,2.2-3.7,2.2c-4.2,0-6.1-2.8-6.1-7.8v-6.9c0-4.9,2.7-7.8,7.1-7.8c4.4,0,7.1,2.9,7.1,7.8
		v21.2c0,1.2-0.2,2.3-0.5,3.3h13.8c2.2-5.8,7.9-9.9,14.5-9.9c6.6,0,12.2,4.1,14.5,9.9H391l119.5-136.8L632,720.1h88V235.5L569.5,405
		L388,197.2L560.2,0.1H446v3.1h-5.2V0.1h-3.4v3.1c-3.7,0.3-5.9-0.9-7.1-3.1h-6.3c0.1,1.3,0.2,2.1,0.4,3.1h-4.3
		c-0.2-0.7-0.3-1.5-0.3-2.2c-0.9,1.7-2.6,2.6-4.6,2.6c-1.9,0-3.9-1.1-4.8-3.5h-4.6c-1.2,2.2-3.3,3.5-6.4,3.5c-2.9,0-5.1-1.2-6.3-3.5
		h-84L124.4,208.3L0,65.9v429.5l163.8-187.4l168.1,189.4L163.8,686.6L0,499.1v221h277.3V717.5z M411,539.2h-4.2v-23.4
		c0-3.4,0.3-7.7,0.3-7.7h-0.1l-4.7,31.1h-4.4l-4.7-31.1H393c0,0,0.3,4.2,0.3,7.7v23.4h-4.2v-35.9h6.8l3.5,22.6c0.4,2.6,0.6,7,0.6,7
		h0.1c0,0,0.2-4.3,0.6-7l3.5-22.6h6.8V539.2z M453.4,533.5h5.2v5.7h-5.2V533.5z M437.7,467.6c0-4.9,2.6-7.8,7.1-7.8s7,2.9,7,7.8v4
		h-4.4v-3.8c0-2.5-1-3.7-2.6-3.7s-2.6,1.2-2.6,3.7v8.5c0.5-1.3,2.2-2.2,3.7-2.2c4.2,0,6.1,2.8,6.1,7.8v6.9c0,4.9-2.7,7.8-7.1,7.8
		c-4.4,0-7.1-2.9-7.1-7.8V467.6z M434.8,510.8h4.2v1.8c0.5-1.3,2.2-2.2,3.7-2.2c4.2,0,5.9,2.8,5.9,7.7v21.1h-4.4v-20.8
		c0-2.5-0.9-3.7-2.5-3.7c-1.5,0-2.5,1.2-2.5,3.7v20.8h-4.4V510.8z M418.3,467.6c0-4.9,2.8-7.8,7.2-7.8c4.4,0,7.2,2.9,7.2,7.8v21.2
		c0,4.9-2.8,7.8-7.2,7.8c-4.4,0-7.2-2.9-7.2-7.8V467.6z M416,518.1c0-4.9,2.7-7.7,7.1-7.7c4.4,0,7.1,2.8,7.1,7.7v13.8
		c0,4.9-2.7,7.7-7.1,7.7c-4.4,0-7.1-2.8-7.1-7.7V518.1z M408.3,490.5h5.2v5.7h-5.2V490.5z M387.7,485.8l8.4-25.5h5.7v25.2h2.6v4.1
		h-2.6v6.7h-4.4v-6.7h-9.6V485.8z M359.7,180.2c8.6,0,15.5,6.9,15.5,15.5c0,8.6-6.9,15.5-15.5,15.5c-8.6,0-15.5-6.9-15.5-15.5
		C344.2,187.1,351.1,180.2,359.7,180.2z M359.7,482.2c8.6,0,15.5,6.9,15.5,15.5c0,8.6-6.9,15.5-15.5,15.5c-8.6,0-15.5-6.9-15.5-15.5
		C344.2,489.1,351.1,482.2,359.7,482.2z M332.7,231.5h5.2v5.7h-5.2V231.5z M268,180.8l8.4-25.5h5.7v25.2h2.6v4.1H282v6.7h-4.4v-6.7
		H268V180.8z M283.6,237.6c-4.3,0-7.2-2.7-7.2-7.7v-4.1h4.4v3.8c0,2.5,1.3,3.7,2.8,3.7c2.1,0,3.1-1.4,3.1-4.1c0-2.3-0.4-3.7-2.1-5.6
		l-5-5.8c-2.4-2.7-3-5-3-8.5c0-4.8,2.2-8.4,7.2-8.4c4.5,0,7.1,2.8,7.1,7.7v4.1h-4.4v-3.8c0-2.5-1.1-3.7-2.7-3.7
		c-1.9,0-2.8,1.7-2.8,4.1c0,2.3,0.4,3.7,2.1,5.6l5,5.8c2.4,2.7,3,5,3,8.5C291.1,234,288.7,237.6,283.6,237.6z M293.7,191.2h-5.2
		v-5.7h5.2V191.2z M309.1,237.2h-4.2v-1.8c-0.5,1.3-2.2,2.2-3.7,2.2c-4.2,0-5.9-2.8-5.9-7.7v-21.1h4.4v20.8c0,2.5,0.9,3.7,2.5,3.7
		c1.5,0,2.5-1.2,2.5-3.7v-20.8h4.4V237.2z M313,183.9c0,4.9-2.8,7.8-7.2,7.8s-7.2-2.9-7.2-7.8v-21.2c0-4.9,2.8-7.8,7.2-7.8
		s7.2,2.9,7.2,7.8V183.9z M328,237.2h-4.4v-20.8c0-2.5-0.9-3.7-2.5-3.7c-1.5,0-2.5,1.2-2.5,3.7v20.8h-4.4v-28.3h4.2v1.8
		c0.5-1.3,2.2-2.2,3.7-2.2c4.2,0,5.9,2.8,5.9,7.7V237.2z M324.7,191.6c-4.4,0-7.1-2.9-7.1-7.8v-4h4.4v3.8c0,2.5,1,3.7,2.7,3.7
		c1.7,0,2.8-1.2,2.8-3.7v-9.1c0-2.1-0.9-3.3-2.5-3.3c-1.5,0-2.6,1.2-2.6,3.3v0.2h-4.4l0.8-19.4h12.7v4.3h-8.5l-0.5,9.5
		c0.9-1.2,2.4-2,4-2c4.1,0,5.5,3.4,5.5,7.3v9.5C331.9,188.8,329.1,191.6,324.7,191.6z"/>
	<path class="st0" d="M423.1,535.4c1.7,0,2.7-1.2,2.7-3.7v-13.3c0-2.5-1.1-3.7-2.7-3.7c-1.7,0-2.7,1.2-2.7,3.7v13.3
		C420.4,534.2,421.4,535.4,423.1,535.4z"/>
	<path class="st0" d="M444.8,492.3c1.7,0,2.7-1.2,2.7-3.7v-6.5c0-2.5-1-3.7-2.7-3.7c-1.7,0-2.7,1.2-2.7,3.7v6.5
		C442.1,491.2,443.2,492.3,444.8,492.3z"/>
	<path class="st0" d="M425.5,492.3c1.7,0,2.8-1.2,2.8-3.7v-20.8c0-2.5-1.1-3.7-2.8-3.7c-1.7,0-2.8,1.2-2.8,3.7v20.8
		C422.8,491.2,423.9,492.3,425.5,492.3z"/>
	<path class="st0" d="M324.8,692.1c-1.7,0-2.7,1.2-2.7,3.7v6.5c0,2.5,1,3.7,2.7,3.7c1.7,0,2.7-1.2,2.7-3.7v-6.5
		C327.5,693.3,326.5,692.1,324.8,692.1z"/>
	<rect x="175.8" y="45.3" class="st1" width="4.6" height="2.4"/>
	<path class="st1" d="M44.6,42.8c-0.1,0.3-0.3,0.6-0.5,0.9L40,50.5h4.9v-6.4c0-0.6,0-1.2,0-1.9h-0.1C44.8,42.4,44.7,42.6,44.6,42.8z
		"/>
	<rect x="146.1" y="41.5" class="st1" width="3.6" height="1.7"/>
	<rect x="146.1" y="46" class="st1" width="3.6" height="1.7"/>
	<rect x="146.1" y="50.5" class="st1" width="3.6" height="1.9"/>
	<path class="st1" d="M130.1,48.2c0,4.5,0.9,6.8,2.7,6.8c1.8,0,2.7-2.3,2.7-7c0-4.7-0.9-7-2.6-7C131.1,40.9,130.1,43.3,130.1,48.2z"
		/>
	<path class="st1" d="M147.5,14.3c1.9-1.9,3.2-4.2,3.8-6.8h-1.2c-0.7,1.4-1.5,2.6-2.2,3.6c-0.6-1-1.2-1.7-1.6-2.1h-1v4.6
		c0.7-0.1,1.4-0.2,2.1-0.4C147.5,13.5,147.5,13.9,147.5,14.3z"/>
	<rect x="157.8" y="40.5" class="st1" width="3.1" height="3.5"/>
	<path class="st1" d="M155.8,20.9c1.1,0,1.7-0.6,1.9-1.7c0.2-1.1,0.3-5.1,0.4-11.7h-1c-0.1,5.3-1.4,9.7-4,13.3
		C154,20.9,154.9,20.9,155.8,20.9z"/>
	<path class="st1" d="M94.7,42.8c-0.1,0.3-0.3,0.6-0.5,0.9l-4.1,6.8H95v-6.4c0-0.6,0-1.2,0-1.9H95C94.9,42.4,94.8,42.6,94.7,42.8z"
		/>
	<path class="st1" d="M309.2,0.1H201.5c0.3,0.8,0.5,1.5,0.8,2.2h9.3V5h-23V2.3h9.7c-0.2-0.5-0.4-1.1-0.7-1.7l3.1-0.5h-124v9.3h8.6
		v15.9h-3.5v-1.5H64.2v-3.1h17.6v-2.5H65.3v-3.1h16.6v-2.5H64.5V9.4h8.8V0.1H0v65.8l124.4,142.4L309.2,0.1z M67.4,1.1l4.7,5.2
		l-2.6,2.4c-1.5-2-3-3.8-4.4-5.3L67.4,1.1z M50.6,53.5h-2.2v4.3h-3.5v-4.3h-8.1v-2.6l7.8-12.8h3.8v12.4h2.2V53.5z M57,57.5
		c-0.4,0.4-1,0.6-1.7,0.6c-0.6,0-1.1-0.2-1.6-0.6c-0.4-0.4-0.7-0.9-0.7-1.6c0-0.6,0.2-1.2,0.7-1.6c0.5-0.4,1-0.6,1.6-0.6
		c0.6,0,1.2,0.2,1.6,0.6c0.4,0.4,0.7,0.9,0.7,1.5C57.7,56.6,57.5,57.1,57,57.5z M71.1,56.3c-1.3,1.2-3,1.8-5.1,1.8
		c-1.8,0-3.2-0.3-4.4-0.8v-3.6c1.3,0.8,2.6,1.3,4,1.3c1.1,0,1.9-0.3,2.6-0.9c0.6-0.6,1-1.3,1-2.3c0-2-1.3-3-4-3
		c-0.8,0-1.8,0.1-3,0.2V38.1h10.1v3.4h-6.8v4.1c0.5-0.1,1-0.1,1.5-0.1c1.9,0,3.3,0.5,4.4,1.6c1.1,1,1.6,2.5,1.6,4.3
		C73.1,53.5,72.4,55.1,71.1,56.3z M84,51.7h-7v-2.9h7V51.7z M163.8,58.1c0,0.9-0.2,1.5-0.6,2c-0.4,0.5-0.9,0.7-1.6,0.8
		c-0.7,0.1-1.8,0.1-3.2,0.1c-0.1-0.9-0.4-2-0.7-3.4c0.9,0.1,1.6,0.1,2.1,0.1c0.7,0,1.1-0.4,1.1-1.2v-3.2h-3.2
		c-0.2,3.1-0.9,5.8-2.3,8.1c-0.7-0.5-1.4-1.1-2.3-1.7l-1.7,1.4c-1-1.4-2.1-2.7-3.1-4l2.2-1.7h-5.2l2.1,1.7c-1.2,1.6-2.4,3-3.6,4.2
		c-0.8-0.8-1.5-1.5-2.2-2.2c1.2-1.2,2.2-2.4,3.2-3.8h-3.3v-3h1.8V41.5h-1.5v-3h1.5v-2.1h2.9v2.1h3.6v-2.1h3v2.1h1.4v3h-1.4v10.8h1.4
		v3h-3.6c0.9,0.9,1.8,1.9,2.6,3c1.1-1.7,1.7-4.8,1.7-9.4V37.2h9V58.1z M170.6,61h-3.3V39.4h3.3V61z M166,20.1V7.8h11.1v10.9h-7.8
		v1.5H166z M170.1,37.2l3.1-1.2c0.7,1.3,1.5,2.6,2.3,4.1l-3.3,1.3C171.5,39.9,170.8,38.5,170.1,37.2z M175.8,57.2h-3V42.5h10.6v13.3
		h-7.6V57.2z M189,56.4c0,1.2-0.2,2.2-0.6,2.9c-0.4,0.7-1,1.2-1.8,1.5c-0.8,0.2-2.7,0.3-5.6,0.3c-0.2-1.3-0.4-2.4-0.8-3.6
		c1,0.1,2.3,0.1,3.9,0.1c1.1,0,1.6-0.5,1.6-1.5V40.4h-9.4v-3.1H189V56.4z M202.8,55.1c-1.4,2-3.3,3-5.9,3c-1.5,0-2.7-0.2-3.8-0.7V54
		c1,0.7,2.1,1,3.5,1c3,0,4.5-2.1,4.6-6.2l-0.1,0c-0.8,1.3-2.1,2-3.8,2c-1.5,0-2.8-0.6-3.8-1.7c-1-1.1-1.5-2.6-1.5-4.3
		c0-2,0.6-3.7,1.8-5c1.2-1.3,2.7-1.9,4.7-1.9c2,0,3.6,0.8,4.7,2.4c1.1,1.6,1.7,3.9,1.7,6.8C204.8,50.4,204.1,53.1,202.8,55.1z
		 M216.4,38.1c4.5-0.1,8.8-0.5,12.9-1.4l1,3.4c-2.5,0.4-6.1,0.8-10.7,1.2v4h11v3.2h-3.5V61h-3.2V48.5h-4.3v0.2
		c0,5.4-1.1,9.6-3.3,12.7c-0.7-1-1.6-2-2.5-2.9c1.7-2.2,2.6-5.7,2.6-10.5V38.1z M215.4,40.7v3.2h-2.4v3.9l2.8-0.5
		c0,0.2-0.2,1.3-0.3,3.5l-2.5,0.5v6.5c0,1-0.2,1.7-0.6,2.3c-0.4,0.5-1,0.9-1.9,0.9c-0.9,0.1-1.8,0.1-2.7,0.1c-0.2-1-0.4-2.1-0.6-3.4
		l1.8,0.1c0.5,0,0.8-0.4,0.8-1.1v-4.7l-2.5,0.5l-0.2-3.7c0.8-0.1,1.7-0.2,2.7-0.4v-4.5h-2.6v-3.2h2.6v-4.3h3.2v4.3H215.4z
		 M191.1,6.1h17.6v6.2h-17.6V6.1z M188.4,17.7h10.9v-0.3L204,16h-13.9v-2.6h19.3v2.8l-4.5,1.5h6.9v2.7h-9.3v1.2c0,1.1-0.3,2-0.9,2.6
		c-0.6,0.6-1.5,0.8-2.6,0.8c-1.1,0-2.5,0-4.1,0c-0.1-0.9-0.4-2-0.7-3.2c1.2,0.1,2.3,0.1,3.4,0.1c0.6,0,1.1-0.1,1.3-0.4
		c0.2-0.2,0.4-0.6,0.4-1.2h-10.9V17.7z M163.5,1.8h23.2v3.4h-2.7v15.7c0,1.1-0.2,1.9-0.7,2.6c-0.4,0.6-1.1,1-1.9,1.2
		c-0.8,0.2-2.8,0.3-6,0.3c-0.2-1.2-0.5-2.5-0.9-3.9c1.8,0.1,3.1,0.2,3.9,0.2c1.3,0,2-0.7,2-2V5.2h-17V1.8z M139.3,2.4l2.2,0.2
		c-0.1,1-0.1,2.1-0.2,3h1.1V0.4h3v5.3h1.7v1c1.1-2.2,2-4.4,2.6-6.5c1.1,0.2,2.2,0.4,3.2,0.7c-0.4,1.2-0.8,2.3-1.3,3.3h9.4
		c0,2.9-0.1,6.1-0.2,9.5l-0.2,6.6c0,1-0.2,1.8-0.5,2.5c-0.3,0.7-0.8,1.2-1.4,1.5c-0.6,0.3-2.3,0.4-5,0.3c-0.2-1.4-0.5-2.6-0.8-3.5
		c-1.1,1.5-2.4,2.8-4,4c-1-1.1-1.8-2-2.5-2.7c5-3.4,7.8-8.4,8.4-14.8h-1.2c-0.6,4.4-2.3,7.8-5.1,10.4c-0.5-0.5-0.9-0.9-1.3-1.3
		l-1.8,0.3v8.4h-3v-7.8c-1.3,0.3-2.5,0.5-3.7,0.8l-0.4-3.7c1.3-0.1,2.7-0.3,4.1-0.5V9h-1.5c-0.2,1.2-0.4,2.3-0.7,3.5
		c-0.7-0.5-1.4-0.9-1.9-1.1C138.8,8.7,139.2,5.7,139.3,2.4z M139.5,47.8c0,3.3-0.6,5.8-1.7,7.6c-1.2,1.8-2.8,2.7-5,2.7
		c-4.3,0-6.5-3.3-6.5-9.8c0-3.4,0.6-6,1.8-7.8c1.2-1.8,2.9-2.7,5.1-2.7C137.3,37.8,139.5,41.1,139.5,47.8z M114.1,1.3h9.4v5.5
		c1-1.9,1.8-4.2,2.4-6.7l2.9,0.5c-0.3,1-0.6,2-0.9,2.9h8.1l0,9.8l-0.1,6.7c0,1.4-0.3,2.5-0.8,3.2s-1.1,1.2-1.9,1.3
		c-0.7,0.1-2.5,0.2-5.4,0.2c-0.2-1-0.4-2.1-0.7-3.4c2.3,0.1,3.6,0.1,4.1,0.1c1.2,0,1.8-0.7,1.8-2.1V19l-1.8,0.7l-0.4-1.4
		c-3.5,0.3-5.6,0.6-6.4,0.9l-1-2.1h-2.5V4.2h-4.5v12.9h-2.5V1.3z M117.7,14.1V5.3h2.3v8.8c0,0.9-0.1,1.7-0.2,2.5
		c1.3,1.4,2.9,3.2,4.8,5.6l-2.2,2.2c-1-1.5-2.1-3.1-3.4-4.7c-0.8,2.1-2.2,3.9-4.1,5.5c-0.4-0.7-1-1.6-1.7-2.6
		C116.2,20.5,117.7,17.7,117.7,14.1z M80.5,8.8L78,6.5c1.8-1.8,3.3-3.6,4.7-5.3l2.7,2.4L80.5,8.8z M100.8,53.5h-2.2v4.3H95v-4.3
		h-8.1v-2.6l7.8-12.8h3.8v12.4h2.2V53.5z M107.2,57.5c-0.4,0.4-1,0.6-1.7,0.6c-0.6,0-1.1-0.2-1.6-0.6c-0.4-0.4-0.7-0.9-0.7-1.6
		c0-0.6,0.2-1.2,0.7-1.6c0.5-0.4,1-0.6,1.6-0.6c0.6,0,1.2,0.2,1.6,0.6c0.4,0.4,0.7,0.9,0.7,1.5C107.8,56.6,107.6,57.1,107.2,57.5z
		 M99.9,15.5c-1.4,3.9-4.4,7.1-9,9.7c-0.6-0.8-1.5-1.9-2.7-3.2c5.1-2.5,8-5.4,8.9-8.7h-8.6V9.8h9.4c0.2-1.4,0.3-2.9,0.4-4.7h-8.4
		V1.7h20.6v3.5h-8.7c-0.1,1.5-0.2,3-0.3,4.7h10.1v3.5h-9.1c1.8,4.3,4.9,7.1,9.3,8.5c-0.7,0.8-1.6,2-2.8,3.6
		C104.9,23.5,101.8,20.2,99.9,15.5z M121.2,56.5c-1.3,1-3,1.6-5.1,1.6c-1.9,0-3.4-0.3-4.6-1v-3.6c1.2,1,2.7,1.5,4.3,1.5
		c1,0,1.9-0.2,2.5-0.7c0.6-0.5,0.9-1.2,0.9-2.1c0-0.9-0.4-1.6-1.1-2.1c-0.7-0.5-1.7-0.7-3.1-0.7h-1.6v-3.2h1.5
		c2.5,0,3.7-0.9,3.7-2.7c0-1.7-0.9-2.5-2.8-2.5c-1.2,0-2.4,0.4-3.6,1.3v-3.4c1.3-0.7,2.8-1.1,4.5-1.1c1.7,0,3.2,0.4,4.3,1.3
		c1.1,0.9,1.6,2,1.6,3.6c0,2.6-1.2,4.2-3.7,4.8v0.1c1.3,0.2,2.3,0.7,3.1,1.5c0.8,0.9,1.2,1.9,1.2,3.1
		C123.2,54,122.5,55.5,121.2,56.5z"/>
	<path class="st1" d="M129.9,9c-1.1,2.8-2.1,5-2.9,6.7l3.1-0.3c-0.4-1.2-0.8-2.4-1.2-3.5l2.4-0.9c0.6,1.5,1.2,3.2,1.8,5.1
		c0-2.4,0-5.6,0-9.4h-6.3c-0.7,1.5-1.4,2.9-2.1,4.1c-0.4-0.5-0.8-0.9-1.2-1.3v6.5c1-0.9,2.2-3.5,3.6-7.9L129.9,9z"/>
	<polygon class="st1" points="160.9,47 157.8,47 157.8,50.2 160.9,50.2 	"/>
	<rect x="169.4" y="10.8" class="st1" width="4.5" height="4.8"/>
	<rect x="175.8" y="50.6" class="st1" width="4.6" height="2.4"/>
	<path class="st1" d="M198.3,40.9c-0.8,0-1.4,0.3-1.9,1c-0.5,0.7-0.7,1.5-0.7,2.4c0,1,0.2,1.9,0.7,2.4c0.5,0.6,1.1,0.9,1.9,0.9
		c0.7,0,1.3-0.3,1.8-0.8c0.5-0.6,0.7-1.3,0.7-2.1c0-1-0.2-1.9-0.7-2.6C199.7,41.3,199.1,40.9,198.3,40.9z"/>
	<rect x="194.3" y="8.5" class="st1" width="11.3" height="1.4"/>
	<path class="st1" d="M627.8,237.3h3v-4.9h-3V237.3z M629.3,233l1.4,0.5c-0.4,1-0.9,2.1-1.4,3.2c-0.5-0.3-0.9-0.5-1.3-0.7
		C628.5,235,629,233.9,629.3,233z"/>
	<rect x="650.6" y="171" class="st1" width="3.4" height="4.5"/>
	<path class="st1" d="M622.7,237.3h3v-4.9h-3V237.3z M624.1,233c0.3,0.6,0.7,1.6,1.4,3.1c-0.4,0.2-0.9,0.4-1.4,0.6
		c-0.3-1-0.8-2-1.3-3.1L624.1,233z"/>
	<rect x="641.4" y="159.4" class="st1" width="10.1" height="3.3"/>
	<rect x="623.1" y="161.9" class="st1" width="5.1" height="2.1"/>
	<rect x="623.8" y="247.2" class="st1" width="6" height="1.5"/>
	<rect x="638.9" y="171" class="st1" width="3.3" height="4.5"/>
	<path class="st1" d="M612.7,201c1.5-0.7,2.3-1.7,2.3-2.9c0-0.7-0.2-1.3-0.6-1.7c-0.4-0.4-1-0.6-1.6-0.6c-0.6,0-1.2,0.2-1.6,0.6
		c-0.5,0.4-0.7,1-0.7,1.6C610.4,199.4,611.1,200.3,612.7,201z"/>
	<path class="st1" d="M610.6,209.4c0.6,0.5,1.2,0.7,2,0.7c0.8,0,1.5-0.2,2-0.7c0.5-0.5,0.8-1.1,0.8-1.9c0-1.6-1-2.7-2.9-3.4
		c-1.8,0.8-2.7,1.9-2.7,3.4C609.8,208.3,610.1,208.9,610.6,209.4z"/>
	<path class="st1" d="M603.1,240.1c1.2,0,1.9,0,2-0.1c0.1-0.1,0.2-0.2,0.3-0.4c0.1-0.2,0.1-0.5,0.1-0.9h-3.7v1.9h-3v-1.9h-4.3
		c-0.6,1-1.2,1.8-1.8,2.3h10.5L603.1,240.1z"/>
	<path class="st1" d="M598.9,231.1h-3c0,0.3,0,0.8,0,1.4h3V231.1z"/>
	<path class="st1" d="M598.9,234.9h-3.2c-0.1,0.5-0.2,1-0.3,1.4h3.4V234.9z"/>
	<path class="st1" d="M592.7,234.9h-2.8l-0.3,1.4h2.8C592.6,235.9,592.7,235.4,592.7,234.9z"/>
	<rect x="623.1" y="166.6" class="st1" width="5.1" height="2.1"/>
	<rect x="623.8" y="243.4" class="st1" width="6" height="1.5"/>
	<path class="st1" d="M572.4,169.4v6.6c1.1-0.3,2.2-0.6,3.4-0.9c-1-1.5-1.8-3.4-2.3-5.7H572.4z"/>
	<rect x="572.4" y="159.4" class="st1" width="6.4" height="2.1"/>
	<rect x="614.7" y="166.6" class="st1" width="5.1" height="2.1"/>
	<rect x="590" y="171" class="st1" width="4.8" height="1.1"/>
	<rect x="601.9" y="231.1" class="st1" width="2.8" height="1.4"/>
	<path class="st1" d="M577.7,172.2c1.2-0.9,2.2-1.8,3.2-2.8h-4.5C576.8,170.5,577.2,171.4,577.7,172.2z"/>
	<path class="st1" d="M560.2,0.1L388,197.2L569.5,405L720,235.5v-76.6L579,0.1H560.2z M571.9,98.8l2.2,15.6c0.4,2.6,0.7,7,0.7,7h0.1
		c0,0,0.3-4.5,0.7-7l2.2-15.6h4.5l-5,28.3h-5l-4.9-28.3H571.9z M563.6,166c0.7-2.2,1.3-4.5,1.8-6.7h-2v21.1h-3v-24.1h8v2.4
		c-0.6,2.1-1.2,4.4-2,6.9c1.6,1.8,2.3,4,2.3,6.5c0,2.7-1.5,4-4.6,4c-0.1-1.4-0.3-2.7-0.6-3.9c0.3,0.1,0.6,0.1,0.8,0.1
		c0.9,0,1.4-0.4,1.4-1.2C565.7,169.4,565,167.7,563.6,166z M555.6,98.8h4.3v3.6c0.9-2.6,3.4-3.9,5.9-3.8v4.9
		c-3.3-0.6-5.8,1.2-5.8,5.4v18.3h-4.4V98.8z M544.1,102.5c-1.7,0-2.4,1.3-2.4,3.8v1.7h-4.4v-1.7c0-4.9,2.5-8,6.9-8
		c5.5,0,6.5,4,6.5,9.1v9.6c0,6.3,0.1,8.1,0.5,10.1h-4.3c-0.2-0.7-0.3-1.5-0.3-2.2c-0.9,1.7-2.6,2.6-4.6,2.6c-2.7,0-5.4-2.2-5.4-7
		c0-4.6,1.8-6.9,5.5-8.9c2.9-1.6,4.3-2.6,4.3-5.7C546.3,104.1,545.8,102.5,544.1,102.5z M535.3,157.4h9.2c-0.2-0.7-0.5-1.3-0.7-1.8
		l4.1-0.6c0.2,0.7,0.4,1.4,0.7,2.3h8.9v6.4h-3.3v-3.5h-15.6v3.5h-3.3V157.4z M545.6,170c-2.6,1.9-5.6,3.4-8.9,4.4l-1.6-2.6
		c3.8-0.8,6.9-2.1,9.3-3.7c-0.2-0.3-0.4-0.5-0.6-0.8c-2.1,1.1-4.5,1.9-7.1,2.6c-0.5-0.9-1-1.8-1.6-2.6c3.2-0.6,6-1.5,8.2-2.7h-3.9
		v-2.8h13.8v2.8h-5.2c-0.5,0.4-1,0.7-1.5,1.1c0.7,0.9,1.3,1.7,1.8,2.6c2.7-1.3,4.9-2.6,6.6-3.7l1.9,2.8l-3.8,1.9
		c1.1,2.9,2.8,5.1,5.2,6.6c-1,1-1.9,1.9-2.7,2.8c-2-1.7-3.7-4.4-5.1-8.2l-1,0.5c0.4,1.3,0.6,2.6,0.6,3.9c0,1.1-0.1,2-0.3,2.7
		c-0.2,0.7-0.6,1.2-1,1.7c-0.5,0.4-1,0.7-1.6,0.8c-0.6,0.1-2.1,0.2-4.5,0.2c-0.2-1.2-0.5-2.2-0.8-3.1c-1.6,0.9-3.5,1.7-5.4,2.4
		c-0.5-1-1.2-2-1.9-3c4.7-1.2,8.5-3,11.4-5.5C545.9,170.7,545.8,170.3,545.6,170z M553.9,231.9L553,233h5.8v2.3h-23.1V233h5.5
		c-0.3-0.5-0.6-0.9-0.8-1.2l1.9-0.7h-5.3v-2.2h8.6l-0.6-1.5l4-0.4c0.2,0.5,0.4,1.1,0.7,1.9h7.9v2.2h-5.7L553.9,231.9z M549.8,246.5
		l-2.2,2.2c-0.6-0.8-1.5-1.7-2.5-2.8l1.1-1H538v-8.5h18.3v8.5h-8.2C548.8,245.5,549.4,246,549.8,246.5z M529.6,203.5v0.2
		c0,5.4-1.1,9.6-3.3,12.7c-0.7-1-1.6-2-2.5-2.9c1.7-2.2,2.6-5.7,2.6-10.5v-9.8c4.5-0.1,8.8-0.5,12.9-1.4l1,3.4
		c-2.5,0.4-6.1,0.8-10.7,1.2v4h11v3.2h-3.5V216h-3.2v-12.6H529.6z M517.2,207.4l-0.2-3.7c0.8-0.1,1.7-0.2,2.7-0.4v-4.5h-2.6v-3.2
		h2.6v-4.3h3.2v4.3h2.4v3.2h-2.4v3.9l2.8-0.5c0,0.2-0.2,1.3-0.3,3.5l-2.5,0.5v6.5c0,1-0.2,1.7-0.6,2.3c-0.4,0.5-1,0.9-1.9,0.9
		c-0.9,0.1-1.8,0.1-2.7,0.1c-0.2-1-0.4-2.1-0.6-3.4l1.8,0.1c0.5,0,0.8-0.4,0.8-1.1v-4.7L517.2,207.4z M521.3,170.9v0.8h-3v-12h5.2
		v-4.4h3.2v4.4h5.2v11.2h-5.2v4.4l2.2-0.2c-0.3-0.8-0.5-1.6-0.8-2.3l2.7-0.8c0.9,2.2,1.7,4.7,2.5,7.5l-2.8,0.9
		c-0.2-0.8-0.5-1.6-0.7-2.3l-11.8,1.4l-0.4-3.3l5.9-0.5v-4.7H521.3z M544.4,216H541l8.9-22.9h3.5L544.4,216z M519.5,98.5
		c0-4.9,2.6-7.7,7-7.7c4.4,0,7,2.8,7,7.7v4.1h-4.4v-3.8c0-2.5-0.9-3.7-2.5-3.7s-2.6,1.2-2.6,3.7v20.8c0,2.5,0.9,3.7,2.6,3.7
		s2.5-1.2,2.5-3.7v-3.8h4.4v4.1c0,4.9-2.5,7.7-7,7.7c-4.4,0-7-2.8-7-7.7V98.5z M513.2,164.2c-0.6,0.5-1.2,1.1-1.9,1.6
		c-0.7-1.2-1.3-2.1-1.8-2.8c0.8-0.6,1.6-1.3,2.5-2.1c-0.6-1.3-1.3-2.5-2.2-3.5l2.2-1.9c0.9,0.9,1.7,1.9,2.3,3.1
		c0.8-0.8,1.6-1.7,2.3-2.7l2.3,2.2c-1,1.2-2,2.4-3.1,3.6c1.1,2.9,1.6,6.2,1.6,10.1c0,2.7-0.2,4.6-0.5,5.5c-0.3,0.9-0.9,1.6-1.7,2
		c-0.8,0.4-2.3,0.5-4.4,0.4c-0.1-0.8-0.2-1.9-0.5-3.3c1.1,0.2,1.9,0.2,2.3,0.2c0.4,0,0.8-0.1,1-0.3c0.3-0.2,0.4-0.5,0.5-0.9
		c0.1-0.4,0.1-1.1,0.1-2.2c0-1,0-2-0.1-2.9c-0.9,1.3-2,2.5-3.3,3.7c-0.3-0.6-0.8-1.6-1.5-3c1.6-1.3,3-2.9,4.2-4.7
		C513.5,165.5,513.4,164.9,513.2,164.2z M513.1,195.2c1.1,1.6,1.7,3.9,1.7,6.8c0,3.4-0.7,6.1-2.1,8.1c-1.4,2-3.3,3-5.9,3
		c-1.5,0-2.7-0.2-3.8-0.7V209c1,0.7,2.1,1,3.5,1c3,0,4.5-2.1,4.6-6.2l-0.1,0c-0.8,1.3-2.1,2-3.8,2c-1.5,0-2.8-0.6-3.8-1.7
		c-1-1.1-1.5-2.6-1.5-4.3c0-2,0.6-3.7,1.8-5c1.2-1.3,2.7-1.9,4.7-1.9C510.4,192.8,512,193.6,513.1,195.2z M505.8,228.2v9.7h-17.1
		v-9.7H505.8z M506.5,180.3c-2.3-1.9-3.9-4.3-4.8-7.4c-0.7,2.7-2.3,5.2-4.8,7.6c-0.7-1-1.4-2-2.1-2.9c2-1.7,3.4-3.6,4.2-5.6
		c0.8-2,1.2-4.7,1.2-7.9h2.9c0,1.1-0.1,2.1-0.1,3c0.6,4.7,2.4,7.9,5.3,9.8C507.9,177.6,507.3,178.8,506.5,180.3z M492.9,173.8
		l2.1-1.6c0.8,1,1.5,1.9,2.2,2.8l-2.1,1.8C494.4,175.8,493.7,174.8,492.9,173.8z M501.8,155.7c-0.2,1-0.5,2-0.7,3h6.7v2.9l-1,4.9
		l-2.8-0.6l0.9-4.1h-4.5c-0.5,1.7-1,3.2-1.5,4.4c-1-0.6-1.9-1-2.7-1.4c1.2-2.7,2.1-5.9,2.8-9.7L501.8,155.7z M484.7,156.9h4.6v-1.8
		h3.1v1.8h4.5v2.7h-4.5v1.6h3.5v2.7h-10.9v-2.7h4.2v-1.6h-4.6V156.9z M496,165.3v2.7h-10.6v-2.7H496z M489.5,176.9
		c0.2-0.2,0.3-0.4,0.3-0.7V172h-5v-2.7h12.4v2.7h-4.2v5.2c0,0.8-0.1,1.4-0.4,1.9c-0.3,0.5-0.7,0.8-1.2,0.9c-0.5,0.1-1.8,0.2-3.7,0.2
		c-0.1-0.5-0.2-1-0.3-1.5l-2.6-1c0.6-1.5,1.1-3.3,1.5-5.4l2.7,0.8c-0.3,1.4-0.7,2.7-1.1,3.9C488.7,177.1,489.3,177.1,489.5,176.9z
		 M469,169.9l7.8-12.7h3.8v12.4h2.2v2.9h-2.2v4.3h-3.5v-4.3H469V169.9z M454.3,209v-3.2h7.1v-2.6h-4.6v-2c-1,0.8-2.2,1.6-3.4,2.3
		c-0.5-0.7-1.2-1.7-2.1-3c5.1-2.9,8.5-6,10.3-9.3h4.2l-0.6,1c2,3.1,5.3,5.8,9.8,8.1c-0.8,1.1-1.6,2.1-2.1,3
		c-1.2-0.7-2.3-1.4-3.3-2.1v2.1h-4.6v2.6h7.2v3.2h-7.2v3h9v3.2h-21.6V212h9v-3H454.3z M468.4,248.8c0,0.8-0.2,1.4-0.5,1.9
		c-0.3,0.5-0.8,0.7-1.3,0.9s-1.6,0.2-3.1,0.2c-0.1-1-0.2-2-0.5-2.9l-0.5,1.1c-0.6-0.4-1.5-0.8-2.5-1.3c0.8-1.6,1.5-3.5,2.1-5.6
		l2.7,0.9c-0.4,1.5-0.9,3-1.5,4.4c0.4,0,0.8,0.1,1.2,0.1c0.6,0,0.9-0.4,0.9-1.1v-4.7h-4.5v-2.8h4.5v-1.6h-4.9v-2.8h2.6
		c-0.3-0.7-0.7-1.4-1-2l2.6-1.1c0.6,1.1,1.2,2.2,1.6,3.1h1c0.8-1.4,1.3-2.5,1.6-3.1h-8v-2.8h4.2c-0.2-0.6-0.4-1.2-0.6-1.7l3.3-0.6
		c0.2,0.7,0.5,1.4,0.7,2.3h4v2.8h-3.3c0.4,0.2,1.3,0.6,2.5,1.2c-0.3,0.4-0.7,1.1-1.2,2h2.5v2.8h-4.6v1.6h4.2v2.8h-4.2V248.8z
		 M484,235.4v3.3h-1.8v13.2H479v-13.2h-2.1v1.4c0,5.4-1.1,9.4-3.3,12.3c-1.1-1-2.1-1.8-3-2.5c0.9-0.9,1.6-1.9,2.1-3.2l-2.4,1.5
		c-0.6-1.3-1.2-2.6-1.8-3.8l2.3-1.2c0.6,0.8,1.2,2,2,3.5c0.7-1.6,1-3.6,1-6v-11.4c3.6-0.4,6.6-1,8.8-1.9l1.4,3.3
		c-2.1,0.6-4.5,1-7.1,1.3v3.4H484z M490.1,203.4c-0.9,3.4-2.4,6.1-4.5,8.2c-0.4-0.4-0.8-0.7-1.1-1c0,0.6,0,1.2,0,1.9
		c-2.8,0.6-5.4,1.2-7.7,1.8l-0.6-3.6c0.9-0.2,1.8-0.3,2.8-0.5v-9h-2.5v-3.5h2.5v-6.4h3.2v6.4h2.3v3.5h-2.3v8.3
		c0.4-0.1,0.8-0.2,1.1-0.3c1.8-1.5,3-3.4,3.8-5.8H485v-3l7.1-4.9H485v-3h12.7v2.9l-7,5h8.6c0,3.5-0.1,7.1-0.3,10.9
		c-0.1,2.8-1.3,4.3-3.6,4.5c-0.9,0.1-1.9,0.1-3,0.2c-0.1-1-0.3-2.2-0.6-3.5c-0.9,1.4-2,2.6-3.2,3.8c-0.9-0.7-1.9-1.5-2.9-2.2
		c3.5-2.8,5.6-6.3,6.4-10.5H490.1z M496.3,251.8H493v-1.2h-3.3v1.2h-3.3v-11.9h9.9V251.8z M508,251.8h-3.3v-1.2h-3.4v1.2h-3.3v-11.9
		h9.9V251.8z M516.7,252.1h-3.2v-12c-0.6,1.1-1.3,2.1-2,3.1c-0.2-1-0.6-2.6-1.1-4.6c1.9-2.8,3.6-6.5,5-11.2l3.3,1
		c-0.5,1.8-1.2,3.6-1.9,5.3V252.1z M534,241.6h-6.2v6.3h5.2v3.2h-14.6v-3.2h5.7v-6.3H518v-3.2h6.2v-5.6l-4.6,0.3
		c-0.2-1-0.4-2.1-0.7-3.4c5.3-0.3,9.8-0.6,13.5-1c0,0.3,0.3,1.4,0.7,3.4c-1.6,0.2-3.4,0.3-5.3,0.5v5.8h6.2V241.6z M537.9,251.4
		l-2.6-1.4c0.9-1.7,1.5-3.2,2-4.7l2.8,1.2C539.4,248.2,538.7,249.9,537.9,251.4z M552.3,251c-0.7,0.5-1.6,0.8-2.8,0.8h-4.9
		c-2.4,0-3.6-1-3.6-3.1v-3.3h3.1v2.4c0,0.8,0.4,1.2,1.3,1.2h3c0.9,0,1.4-0.2,1.8-0.5c0.3-0.3,0.6-1.2,0.7-2.6c0.7,0.5,1.7,0.9,3,1.5
		C553.5,249.3,552.9,250.5,552.3,251z M556.5,251.1c-0.8-1.6-1.6-3-2.5-4.2l2.6-1.5c1,1.4,1.9,2.8,2.5,4.1L556.5,251.1z
		 M553.9,193.1h4.2l4,13.9c0.2,0.7,0.3,1.3,0.4,1.9h0.1c0.1-0.6,0.2-1.3,0.4-2l4-13.8h4.1l-6.4,19.7h-4.4L553.9,193.1z M563.8,252
		c-1.2-0.4-2.3-0.7-3.3-1c0.8-2.9,1.5-6.2,2.2-10c1.3,0.5,2.3,0.9,3.2,1.1L563.8,252z M564,240.1c-1-1-2.2-2.2-3.7-3.5l2.1-2.4
		c1.5,1.1,2.8,2.2,3.9,3.3L564,240.1z M564.4,233.3c-1.4-1.5-2.6-2.7-3.7-3.6l2-2.3c1.2,0.9,2.5,2,3.9,3.3L564.4,233.3z M569,227.6
		c1.3,1.4,2.5,2.7,3.6,4l-2.5,2c-1-1.3-2.1-2.7-3.4-4.1L569,227.6z M572.3,196.4v-3.3h7.1v3.3h-1.6v13.1h1.6v3.3h-7.1v-3.3h1.6
		v-13.1H572.3z M582.8,248.4c0,1-0.2,1.8-0.7,2.4c-0.5,0.6-1.1,0.9-2,1c-0.9,0.1-2.5,0.2-4.7,0.1c-0.2-1.1-0.5-2.3-0.9-3.4
		c1.3,0.1,2.4,0.1,3.3,0.1c1.1,0,1.6-0.5,1.6-1.6v-0.4h-8.6v5.2h-3.4V234h6v-7h3.3v7h6V248.4z M579.8,233.8l-2.2-2
		c1.2-1.3,2.4-2.7,3.5-4.2l2.6,2C582.3,231.1,581.1,232.5,579.8,233.8z M582.7,212.8v-19.7h6.3c4.6,0,6.9,2.1,6.9,6.2
		c0,2-0.7,3.6-2.1,4.8c-1.4,1.2-3.1,1.8-5.2,1.7h-2v6.9H582.7z M586.5,238.6l0.9-6.1h5.5c0-0.4,0-0.9,0-1.4h-6.4v-2.3h6.4v-1.7h3
		v1.7h3v-1.7h3v1.7h5.6v6.1h-5.6v1.4h6.5c0,1.3-0.1,2.5-0.2,3.4c-0.1,0.9-0.3,1.6-0.7,2.1c-0.4,0.4-1,0.7-1.8,0.7v4.6h-3v-3.9h-10.6
		v4.4h-3v-4.3c-0.7,0.3-1.5,0.6-2.3,0.9c-0.4-0.8-0.9-1.7-1.5-2.7c2.9-0.8,4.8-1.7,5.9-3H586.5z M606.7,198c0-1.6,0.6-2.8,1.7-3.8
		c1.2-1,2.6-1.4,4.3-1.4c1.7,0,3.1,0.4,4.2,1.3c1.1,0.9,1.7,2.1,1.7,3.6c0,2.1-1.2,3.7-3.5,4.8v0.1c1.3,0.4,2.2,1,2.9,1.9
		c0.7,0.9,1,1.9,1,3.1c0,1.8-0.6,3.2-1.8,4.1c-1.2,1-2.9,1.5-4.9,1.5c-1.8,0-3.3-0.5-4.4-1.4c-1.2-1-1.7-2.3-1.7-3.9
		c0-2.4,1.3-4.1,3.8-5.2v-0.1C607.8,201.6,606.7,200.1,606.7,198z M613.6,231.1v13h-2.3v-15.8h8.3v15.7h-2.3v-12.9H613.6z
		 M607.1,252.4c-2.9-1.2-6.2-2.4-9.7-3.6c-1.4,1.9-4.7,3-9.9,3.5c-0.3-0.9-0.8-1.9-1.3-3c3.4-0.2,5.9-0.6,7.4-1.3
		c1.5-0.7,2.3-2,2.3-4.1h3c-0.1,0.9-0.2,1.8-0.4,2.5c2.9,0.9,6.3,1.9,10,3.2L607.1,252.4z M618.3,251.4c-0.9-1.5-1.8-3-2.8-4.6
		c-0.7,2.1-1.9,4-3.5,5.6c-0.3-0.7-0.9-1.7-1.7-3c2.8-2.4,4.2-5.1,4.2-8.3v-8.7h1.9v8.7c0,0.9-0.1,1.8-0.2,2.7l4.5,5.4L618.3,251.4z
		 M632.6,252.3h-2.8v-1h-6v1H621v-11.4h11.6V252.3z M633.3,239.9h-13v-10h2.5l-1.1-1.8l2.6-1l1.4,2.7h2.1l1.2-2.8l2.8,0.9l-1.2,1.9
		h2.6V239.9z M621.9,210.9c0-0.6,0.2-1.2,0.7-1.6c0.5-0.4,1-0.6,1.6-0.6c0.6,0,1.2,0.2,1.6,0.6c0.4,0.4,0.7,0.9,0.7,1.5
		c0,0.7-0.2,1.2-0.7,1.6c-0.4,0.4-1,0.6-1.7,0.6c-0.6,0-1.1-0.2-1.6-0.6C622.1,212.1,621.9,211.6,621.9,210.9z M630.4,212.3v-3.6
		c1.3,0.8,2.6,1.3,4,1.3c1.1,0,1.9-0.3,2.6-0.9c0.6-0.6,1-1.3,1-2.3c0-2-1.3-3-4-3c-0.8,0-1.8,0.1-3,0.2v-10.8H641v3.4h-6.8v4.1
		c0.5-0.1,1-0.1,1.5-0.1c1.9,0,3.3,0.5,4.4,1.6c1.1,1,1.6,2.5,1.6,4.3c0,2-0.6,3.7-1.9,4.9c-1.3,1.2-3,1.8-5.1,1.8
		C633,213.1,631.6,212.8,630.4,212.3z M646,244.5c-1-1-1.9-1.8-2.6-2.5v10.2h-3.2V243c-1.1,1.3-2.4,2.5-3.8,3.8
		c-0.4-1.6-0.7-3-1.1-4.2c3.2-2.8,5.4-5.4,6.8-7.7h-5.8v-3.4h4.7c-0.6-1-1.2-2-1.8-2.9l2.8-1.5c0.5,0.7,1.2,1.8,2.2,3.2l-2.1,1.2h4
		v3.1c-0.7,1.4-1.6,2.9-2.6,4.4v1.4l1-1.3c1.1,0.8,2.3,1.7,3.7,2.8L646,244.5z M644.5,198.9v-3.2h2.6v-4.3h3.2v4.3h2.4v3.2h-2.4v3.9
		l2.8-0.5c0,0.2-0.2,1.3-0.3,3.5l-2.5,0.5v6.5c0,1-0.2,1.7-0.6,2.3c-0.4,0.5-1,0.9-1.9,0.9c-0.9,0.1-1.8,0.1-2.7,0.1
		c-0.2-1-0.4-2.1-0.6-3.4l1.8,0.1c0.5,0,0.8-0.4,0.8-1.1v-4.7l-2.5,0.5l-0.2-3.7c0.8-0.1,1.7-0.2,2.7-0.4v-4.5H644.5z M658.1,249.4
		c-0.4,1.5-1.7,2.3-3.7,2.3h-2.5c-2.2,0-3.3-1.2-3.3-3.5v-20.6h3.3v19.7c0,0.9,0.4,1.3,1.2,1.3h0.6c0.8,0,1.3-0.4,1.5-1.1
		c0.3-1.6,0.5-3.2,0.6-4.8c0.9,0.5,2,0.9,3.3,1.4C658.9,246.2,658.5,248,658.1,249.4z M667.7,195.1c-2.5,0.4-6.1,0.8-10.7,1.2v4h11
		v3.2h-3.5V216h-3.2v-12.6H657v0.2c0,5.4-1.1,9.6-3.3,12.7c-0.7-1-1.6-2-2.5-2.9c1.7-2.2,2.6-5.7,2.6-10.5v-9.8
		c4.5-0.1,8.8-0.5,12.9-1.4L667.7,195.1z M657.3,179.8H654v-1.2h-3.4v1.2h-3.3v-11.9h9.9V179.8z M637.9,156.2H655v9.7h-17.1V156.2z
		 M635.6,167.9h9.9v11.9h-3.3v-1.2h-3.3v1.2h-3.3V167.9z M622.8,159c1-1.3,1.8-2.6,2.6-3.9l3.6,1.4c-0.6,0.6-1.3,1.5-2.1,2.5h4.5
		v12.6h-8.2v1.8h10.1v3.1h-10.1v3.8h-3.3v-3.8h-10.1v-3.1h10.1v-1.8h-8.2V159h4.4c-0.5-0.8-1.1-1.6-1.7-2.4l2.9-1.4l2.5,3.1L618,159
		H622.8z M603.8,98.8h4.2v1.8c0.5-1.3,2.2-2.2,3.7-2.2c4.2,0,5.9,2.8,5.9,7.7v21.1h-4.4v-20.8c0-2.5-0.9-3.7-2.5-3.7
		c-1.5,0-2.5,1.2-2.5,3.7v20.8h-4.4V98.8z M605.8,156.1v6.9H587v-6.9H605.8z M585.1,106.1c0-4.9,2.6-7.7,7.1-7.7
		c4.4,0,7.1,2.8,7.1,7.7v8.2h-9.8v5.3c0,2.5,1.1,3.7,2.7,3.7c1.7,0,2.7-1.2,2.7-3.7V118h4.4v1.9c0,4.9-2.6,7.7-7.1,7.7
		c-4.4,0-7.1-2.8-7.1-7.7V106.1z M584.7,163.8h23.4v1.9h-23.4V163.8z M584.6,177.6h10.2v-1h-8.7v-1.8h8.7v-0.9h-7.9v-7.4h18.9v7.4
		H598v0.9h8.8v1.8H598v1h10.3v1.9h-23.6V177.6z M583.3,176.5c-0.6,1-1.2,2.2-1.7,3.5c-2.4-1.1-4.2-2.6-5.4-4.4
		c0,1.2-0.1,2.1-0.1,2.8c-3.2,0.8-5.3,1.4-6.2,1.9l-1.3-2.7c0.5-0.6,0.8-1.5,0.8-2.7v-18.7h12.5v13.1h-0.6l2,2.7l-3.7,2.3
		C580.4,175.3,581.7,176,583.3,176.5z"/>
	<rect x="590" y="168.3" class="st1" width="4.8" height="1.1"/>
	<rect x="598" y="171" class="st1" width="4.9" height="1.1"/>
	<rect x="590.2" y="160.3" class="st1" width="12.4" height="0.9"/>
	<rect x="614.7" y="161.9" class="st1" width="5.1" height="2.1"/>
	<rect x="590.2" y="157.9" class="st1" width="12.4" height="0.9"/>
	<rect x="598" y="168.3" class="st1" width="4.9" height="1.1"/>
	<path class="st1" d="M594.8,106.3c0-2.5-1-3.7-2.7-3.7c-1.7,0-2.7,1.2-2.7,3.7v4.2h5.4V106.3z"/>
	<rect x="572.4" y="164.3" class="st1" width="6.4" height="2.1"/>
	<rect x="526.7" y="163" class="st1" width="2.2" height="4.7"/>
	<rect x="489.7" y="242.9" class="st1" width="3.3" height="4.5"/>
	<path class="st1" d="M463.1,194.9c-1.3,1.8-2.9,3.5-4.9,5.1h9.7C466.1,198.4,464.5,196.7,463.1,194.9z"/>
	<path class="st1" d="M541,120c0,2.5,1,3.4,2.4,3.4c1.7,0,2.8-1.4,2.8-4.3v-6.2c-0.5,0.7-1.1,1.2-2.2,1.9
		C542,116.1,541,117.4,541,120z"/>
	<path class="st1" d="M495.9,210.5c0.1-1.7,0.2-4.1,0.3-7.1H495c-0.6,3.4-1.7,6.3-3.2,8.8c0.7,0.1,1.4,0.1,2,0.1
		C495.2,212.3,495.9,211.7,495.9,210.5z"/>
	<path class="st1" d="M477.2,163.2c0-0.5,0-1.2,0-1.9h-0.1c-0.1,0.2-0.1,0.4-0.2,0.6c-0.1,0.3-0.3,0.6-0.5,0.9l-4.1,6.8h4.9V163.2z"
		/>
	<rect x="521.3" y="163" class="st1" width="2.3" height="4.7"/>
	<rect x="492.1" y="231.4" class="st1" width="10.1" height="3.3"/>
	<path class="st1" d="M508.4,202.7c0.7,0,1.3-0.3,1.8-0.9c0.5-0.6,0.7-1.3,0.7-2.1c0-1-0.2-1.9-0.7-2.6c-0.5-0.8-1.1-1.1-1.9-1.1
		c-0.8,0-1.4,0.3-1.9,1c-0.5,0.7-0.7,1.5-0.7,2.4c0,1,0.2,1.9,0.7,2.4C506.9,202.4,507.6,202.7,508.4,202.7z"/>
	<path class="st1" d="M544.8,233h4.6c0.5-0.8,0.9-1.4,1.2-1.9h-7.2C543.9,231.7,544.4,232.4,544.8,233z"/>
	<rect x="570.8" y="241.8" class="st1" width="8.6" height="1.9"/>
	<path class="st1" d="M546.8,174.8c0-0.3,0-0.6-0.1-1c-1.3,1.1-2.8,2.2-4.5,3.1c1,0.1,1.8,0.2,2.4,0.2
		C546.1,177.1,546.8,176.3,546.8,174.8z"/>
	<rect x="570.8" y="237.1" class="st1" width="8.6" height="1.9"/>
	<rect x="541.1" y="241.6" class="st1" width="12.2" height="1.2"/>
	<rect x="501.3" y="242.9" class="st1" width="3.4" height="4.5"/>
	<rect x="541.1" y="238.5" class="st1" width="12.2" height="1.2"/>
	<path class="st1" d="M591.8,199.5c0-2.1-1.1-3.1-3.4-3.1h-1.7v6.3h1.7C590.6,202.7,591.8,201.7,591.8,199.5z"/>
	<path class="st1" d="M234.4,526.9c0-0.8-0.3-1.5-0.8-1.9c-0.5-0.5-1.3-0.7-2.3-0.7h-2.2v5.4h2.2c0.9,0,1.7-0.2,2.2-0.7
		C234.2,528.5,234.4,527.8,234.4,526.9z"/>
	<path class="st1" d="M180.1,525.1l-2-6.8c-0.1-0.4-0.2-1-0.3-1.7h-0.1c0,0.6-0.1,1.1-0.3,1.7l-2,6.9H180.1z"/>
	<path class="st1" d="M213.6,478c0,2.5,1,3.4,2.4,3.4c1.7,0,2.8-1.4,2.8-4.3v-6.2c-0.5,0.7-1.1,1.2-2.2,1.9
		C214.6,474.2,213.6,475.4,213.6,478z"/>
	<path class="st1" d="M82.2,516.5h-0.1c0,0.6-0.1,1.1-0.3,1.7l-2,6.9h4.7l-2-6.8C82.3,517.8,82.2,517.2,82.2,516.5z"/>
	<path class="st1" d="M68.2,520.4c0.5-0.5,0.7-1.1,0.7-1.9c0-1.5-1-2.3-3-2.3h-1.6v4.9h1.8C67,521.1,67.7,520.9,68.2,520.4z"/>
	<path class="st1" d="M168.8,481.4c1.7,0,2.7-1.2,2.7-3.7v-13.3c0-2.5-1.1-3.7-2.7-3.7c-1.7,0-2.7,1.2-2.7,3.7v13.3
		C166.1,480.2,167.1,481.4,168.8,481.4z"/>
	<path class="st1" d="M66.6,524.3h-2.2v5.4h2.2c1,0,1.7-0.2,2.2-0.7c0.5-0.5,0.8-1.2,0.8-2c0-0.8-0.3-1.5-0.8-1.9
		C68.3,524.5,67.6,524.3,66.6,524.3z"/>
	<rect x="183.3" y="563" class="st1" width="3.4" height="4.5"/>
	<path class="st1" d="M331.9,497.2L163.8,307.9L0,495.3v3.8l163.8,187.4L331.9,497.2z M178.3,571.8H175v-1.2h-3.3v1.2h-3.3v-11.9
		h9.9V571.8z M170.6,557.9v-9.7h17.1v9.7H170.6z M190,571.8h-3.3v-1.2h-3.4v1.2h-3.3v-11.9h9.9V571.8z M191.2,532.8h-3.8v-19.7h6.1
		c4.4,0,6.6,2.1,6.6,6.2c0,2-0.7,3.6-2,4.8c-1.3,1.2-3,1.8-5,1.7h-1.9V532.8z M198.3,559.8v9.2c0,1.9-0.9,3-2.6,3.1
		c-0.6,0.1-1.4,0.1-2.6,0.1c-0.2-1-0.4-2.1-0.6-3.3c0.5,0,1,0.1,1.5,0.1c0.9,0,1.3-0.5,1.3-1.5v-7.7h-3v-3.1h3.3
		c-1-0.8-2-1.5-2.9-2.1l1.7-2.3c0.8,0.7,1.7,1.5,2.5,2.2l2-3h-6.2v-3h9.4v3.2l-3.2,4.9h3.5l-0.8,8.4h-2.1l0.5-5.3H198.3z
		 M211.2,521.2v3.4h-5.8v4.8h6.7v3.4h-10.5v-19.7h10v3.4h-6.3v4.6H211.2z M215.1,553.8V566h-3.1v-9h-5.8v9h-3.1v-12.2h3.7l0.4-2.2
		h-4.6v-3.1h12.9v3.1h-5.1l-0.5,2.2H215.1z M213.8,572.5c-1.4-1.5-3-2.9-4.9-4.4c-1,1.5-2.9,3-5.5,4.5c-0.7-1.1-1.3-2.1-2-3
		c2.8-1.3,4.6-2.8,5.3-4.3c0.6-1.3,0.9-3.4,0.9-6.3v-0.7h3v0.7c0,2.6-0.2,4.7-0.6,6.3c2.2,1.6,4.1,3.2,6,4.8L213.8,572.5z
		 M240.2,569.8c-0.2,0.6-0.6,1.1-1.2,1.4c-0.6,0.3-1.3,0.5-2.2,0.5h-4.9c-2.4,0-3.6-1.2-3.6-3.5c-1.7,2.3-4.8,3.7-9.4,4.1
		c-0.7-1.4-1.2-2.5-1.6-3.2c4-0.4,6.5-1.1,7.6-2.1c1.3-0.8,2-2.5,2.4-5.2h3.4c-0.2,0.9-0.4,1.6-0.6,2.4h1.3v2.7c0,1,0.5,1.5,1.5,1.5
		h2.7c0.6,0,1-0.1,1.3-0.3c0.3-0.2,0.5-0.4,0.6-0.7c0.1-0.3,0.2-1.5,0.5-3.4c0.8,0.4,1.8,0.8,3,1.3
		C240.7,567.7,240.4,569.2,240.2,569.8z M230.7,547.2h3.3c-0.3,0.7-0.5,1.3-0.8,1.9h7.3v2.9h-5.3c1.2,1.2,2.3,2.3,3.3,3.4l-2.6,2
		c-1-1.4-2.1-2.8-3.3-4.2l1.5-1.2h-2.3c-1,1.8-2.1,3.3-3.3,4.6c-0.7-1-1.4-1.7-2-2.3v2.6h-3.2v-9.7h3.2v6.8
		C228.2,552.2,229.6,549.9,230.7,547.2z M237.5,557.7v8.7h-3.2v-5.6H223v6.2h-3.2v-9.3H237.5z M221.5,556.8h-2.8v-8.9h2.8V556.8z
		 M263,532.8l-1.3-4.5h-6.4l-1.3,4.5h-3.4h-0.7h-9.7v-19.7h3.8v16.2h6.6v1.4l5.8-17.6h4.4l6.3,19.7H263z M282.7,513.1h3.8v9.3h0.1
		c0.2-0.4,0.3-0.8,0.5-1.1l5.1-8.2h4.5l-6.3,9.4l6.8,10.3h-4.8l-5.3-8.6c-0.1-0.2-0.3-0.6-0.5-1h-0.1v9.6h-3.8V513.1z M280.8,517.6
		c-1.2-0.8-2.5-1.2-4.1-1.2c-1.7,0-3.1,0.6-4.1,1.8c-1,1.2-1.6,2.8-1.6,4.8c0,1.9,0.5,3.5,1.5,4.7c1,1.2,2.3,1.8,4,1.8
		c1.6,0,3-0.4,4.3-1.3v3.8c-1.3,0.7-3,1.1-5,1.1c-2.7,0-4.8-0.9-6.3-2.7s-2.3-4.1-2.3-7.1c0-3.1,0.9-5.6,2.6-7.6c1.7-2,4-3,6.8-3
		c1.7,0,3.2,0.2,4.3,0.7V517.6z M266.7,456.8h2.1v-6.7h4.4v6.7h3.6v4.5h-3.6v15.9c0,2.6,0.9,3.9,3.6,3.6v4.4c-5.7,0.5-8-2.7-8-7.5
		v-16.4h-2.1V456.8z M252,464.1c0-4.9,2.6-7.7,7.1-7.7c4.4,0,7.1,2.8,7.1,7.7v8.2h-9.8v5.3c0,2.5,1.1,3.7,2.7,3.7s2.7-1.2,2.7-3.7
		v-1.6h4.4v1.9c0,4.9-2.6,7.7-7.1,7.7s-7.1-2.8-7.1-7.7V464.1z M236.5,447.1h4.4v20.8h0.1c0,0,0.6-1.9,1.3-3l4.7-8h4.7l-6,10.3
		l6.2,18H247l-4.5-14l-1.6,2.7v11.3h-4.4V447.1z M225.6,456.8h4.3v3.6c0.9-2.6,3.4-3.9,5.9-3.8v4.9c-3.3-0.6-5.8,1.2-5.8,5.4v18.3
		h-4.4V456.8z M225.4,513.1h6.3c1.9,0,3.4,0.4,4.4,1.2c1,0.8,1.6,1.9,1.6,3.4c0,1.1-0.3,2-1,2.8c-0.6,0.8-1.5,1.4-2.4,1.7v0.1
		c1.2,0.2,2.2,0.7,3,1.5c0.8,0.8,1.1,1.9,1.1,3.2c0,1.8-0.6,3.2-1.7,4.3c-1.1,1.1-2.7,1.6-4.7,1.6h-6.6V513.1z M216.7,460.6
		c-1.7,0-2.4,1.3-2.4,3.8v1.7h-4.4v-1.7c0-4.9,2.5-8,6.9-8c5.5,0,6.5,4,6.5,9.1v9.6c0,6.3,0.1,8.1,0.5,10.1h-4.3
		c-0.2-0.7-0.3-1.5-0.3-2.2c-0.9,1.7-2.6,2.6-4.6,2.6c-2.7,0-5.4-2.2-5.4-7c0-4.6,1.8-6.9,5.5-8.9c2.9-1.6,4.3-2.6,4.3-5.7
		C218.9,462.1,218.4,460.6,216.7,460.6z M185.8,449.3h6.8l3.5,22.6c0.4,2.6,0.6,7,0.6,7h0.1c0,0,0.2-4.3,0.6-7l3.5-22.6h6.8v35.9
		h-4.2v-23.4c0-3.4,0.3-7.7,0.3-7.7h-0.1l-4.7,31.1h-4.4l-4.7-31.1h-0.1c0,0,0.3,4.2,0.3,7.7v23.4h-4.2V449.3z M186.4,532.8h-4.1
		l-1.3-4.5h-6.4l-1.3,4.5h-4.1l6.5-19.7h4.4L186.4,532.8z M161.7,464.1c0-5,2-7.7,6.1-7.7c1.6,0,3.4,0.9,3.9,2.3v-1.9h4.2v31.4
		c0,4.9-2.6,7.7-7.1,7.7s-7.1-2.8-7.1-7.7v-0.8h4.4v0.5c0,2.5,1,3.7,2.7,3.7s2.7-1.2,2.7-3.7v-4.5c-0.5,1.3-2.2,2.2-3.7,2.2
		c-4.2,0-6.1-2.8-6.1-7.7V464.1z M152.9,527.9c1,1.2,2.3,1.7,3.9,1.7c1,0,1.8-0.2,2.4-0.5v-4h-3.6v-3.4h7.3v9.8
		c-1.7,1.1-3.8,1.7-6.4,1.7c-2.8,0-5-0.9-6.7-2.6c-1.6-1.8-2.4-4.2-2.4-7.2c0-3.1,0.9-5.6,2.7-7.6c1.8-1.9,4.1-2.9,7.1-2.9
		c1.9,0,3.5,0.3,4.9,0.9v4c-1.4-0.9-3-1.3-5-1.3c-1.7,0-3.1,0.6-4.1,1.9s-1.6,2.9-1.6,4.9C151.4,525.1,151.9,526.7,152.9,527.9z
		 M145.9,456.8h4.2v1.8c0.5-1.3,2.2-2.2,3.7-2.2c4.2,0,5.9,2.8,5.9,7.7v21.1h-4.4v-20.8c0-2.5-0.9-3.7-2.5-3.7
		c-1.5,0-2.5,1.2-2.5,3.7v20.8h-4.4V456.8z M139,447.1h4.4v5.6H139V447.1z M139,456.8h4.4v28.3H139V456.8z M132.2,447.1h4.4v5.6
		h-4.4V447.1z M132.2,487.7v-30.9h4.4V488c0,5.3-2.4,8.3-8.1,7.8v-4.6C131.3,491.4,132.2,490.3,132.2,487.7z M128.5,529.5v3.3h-6.8
		v-3.3h1.5v-13.1h-1.5v-3.3h6.8v3.3H127v13.1H128.5z M125.4,447.1h4.4v5.6h-4.4V447.1z M125.4,456.8h4.4v28.3h-4.4V456.8z
		 M109.3,464.1c0-4.9,2.6-7.7,7.1-7.7c4.4,0,7.1,2.8,7.1,7.7v8.2h-9.8v5.3c0,2.5,1.1,3.7,2.7,3.7s2.7-1.2,2.7-3.7v-1.6h4.4v1.9
		c0,4.9-2.6,7.7-7.1,7.7c-4.4,0-7.1-2.8-7.1-7.7V464.1z M93.5,449.3h6.7c5.1,0,7.2,3.1,7.2,7.8v4.1c0,2.4-1,4.2-2.5,5.2
		c1.9,0.8,3,3,3,5.7v5.2c0,4.7-2.1,7.8-7.2,7.8h-7.1V449.3z M90.2,513.1H104v3.4h-5v16.2h-3.8v-16.2h-5V513.1z M71.3,449.3h14.2v4.3
		h-4.9v31.5h-4.4v-31.5h-4.9V449.3z M65.7,479.5h5.2v5.7h-5.2V479.5z M49.7,532.8l-1.3-4.5h-6.4l-1.3,4.5h-4.1l6.5-19.7h4.4
		l6.3,19.7H49.7z M58.4,449.3h4.4v35.9h-4.4V449.3z M67.2,532.8h-6.6v-19.7h6.3c1.9,0,3.4,0.4,4.4,1.2c1,0.8,1.6,1.9,1.6,3.4
		c0,1.1-0.3,2-1,2.8c-0.6,0.8-1.5,1.4-2.4,1.7v0.1c1.2,0.2,2.2,0.7,3,1.5c0.8,0.8,1.1,1.9,1.1,3.2c0,1.8-0.6,3.2-1.7,4.3
		C70.8,532.3,69.2,532.8,67.2,532.8z M86.6,532.8l-1.3-4.5h-6.4l-1.3,4.5h-4.1l6.5-19.7h4.4l6.3,19.7H86.6z M92.3,568.8
		c2-1.2,3.9-2.7,5.6-4.5l2.4,2.3c-1.8,1.8-3.8,3.4-5.9,4.9C93.7,570.6,93,569.7,92.3,568.8z M106.2,569.4c0,0.9-0.2,1.5-0.7,2
		c-0.5,0.4-1.2,0.7-2.1,0.7c-1,0-2.2,0.1-3.8,0.1c-0.1-1.2-0.3-2.4-0.6-3.5c0.8,0.1,1.6,0.1,2.5,0.1c0.6,0,1.1-0.1,1.3-0.2
		c0.2-0.2,0.3-0.4,0.3-0.9v-4.1c-3.6,0.2-6.3,0.4-8.2,0.6l-0.8-3.1c2.7-1.1,5.6-2.5,8.7-4.2c-3.2,0.2-5.6,0.4-7.3,0.7l-0.9-3.1
		c1.7-0.7,3.5-1.6,5.4-2.8l-6.1,0.2c-0.1-1-0.3-2-0.5-3c7.8,0,14.8-0.3,21.2-1l0.5,2.8c-3.2,0.3-6.5,0.6-10,0.8
		c-1.7,1.1-3.4,2.1-5.3,3l7.9-0.4c1.2-0.7,2.4-1.5,3.6-2.3l2.2,2.4c-4.4,2.6-9.2,4.9-14.2,7c3.4-0.2,6.9-0.4,10.3-0.6
		c-0.6-0.6-1.2-1.2-1.7-1.8l2.2-1.9c1.2,1.1,3.2,3.1,5.8,6l-2.3,2.2c-0.6-0.7-1.1-1.3-1.6-1.9l-5.8,0.2V569.4z M113.7,571.3
		c-1.7-1.6-3.6-3.2-5.7-4.9l2-2.2c1.8,1.3,3.7,2.8,5.9,4.7L113.7,571.3z M109,524.7v8.1h-3.8v-19.7h3.8v7.9h7.5v-7.9h3.8v19.7h-3.8
		v-8.1H109z M130.5,551.7h-5.8c-0.2,0.9-0.5,1.8-0.8,2.6h6v3.1c-1.1,6.2-4.2,11.1-9.4,15c-0.8-1.2-1.7-2.1-2.4-2.9
		c2.4-1.5,4.3-3.3,5.8-5.4c-1-1-1.9-1.9-2.7-2.7l1.7-2.1c0.8,0.7,1.6,1.4,2.5,2.2c0.6-1.2,1-2.4,1.3-3.8h-4.1c-1,2.2-2.3,4.2-3.7,6
		c-0.5-1.1-1-2.2-1.6-3.2c2-2.7,3.4-5.6,4.3-8.7H118v-3.3h12.5V551.7z M139.5,567.7c0,1.3-0.2,2.3-0.7,2.9c-0.5,0.7-1.1,1.1-2,1.2
		c-0.9,0.1-2.5,0.1-4.8,0.1c-0.3-1.6-0.5-2.8-0.7-3.7c1.1,0.1,2.1,0.1,3.1,0.1c0.6,0,1,0,1.2-0.1c0.2-0.1,0.4-0.3,0.6-0.5
		c0.1-0.3,0.2-0.6,0.2-1.1v-19.3h3.2V567.7z M131.2,565.9v-15.5h3v15.5H131.2z M134.3,520.1c-0.4-0.7-0.7-1.2-0.8-1.6h-0.1
		c0.1,0.7,0.1,1.7,0.1,3.1v11.2h-3.6v-19.7h4.1l7.2,12.4c0.5,0.8,0.8,1.3,0.9,1.6h0.1c-0.1-0.5-0.1-1.4-0.1-2.7v-11.2h3.6v19.7h-3.9
		L134.3,520.1z M150.4,568.8c0,0.8-0.2,1.4-0.5,1.9c-0.3,0.5-0.8,0.7-1.3,0.9c-0.6,0.1-1.6,0.2-3.1,0.2c-0.1-1-0.2-2-0.5-2.9
		l-0.5,1.1c-0.6-0.4-1.5-0.8-2.5-1.3c0.8-1.6,1.5-3.5,2.1-5.6l2.7,0.9c-0.4,1.5-0.9,3-1.5,4.4c0.4,0,0.8,0.1,1.2,0.1
		c0.6,0,0.9-0.4,0.9-1.1v-4.7h-4.5v-2.8h4.5v-1.6h-4.9v-2.8h2.6c-0.3-0.7-0.7-1.4-1-2l2.6-1.1c0.6,1.1,1.2,2.2,1.6,3.1h1
		c0.8-1.4,1.3-2.5,1.6-3.1h-8v-2.8h4.2c-0.2-0.6-0.4-1.2-0.6-1.7l3.3-0.6c0.2,0.7,0.5,1.4,0.7,2.3h4v2.8h-3.3
		c0.4,0.2,1.3,0.6,2.5,1.2c-0.3,0.4-0.7,1.1-1.2,2h2.5v2.8h-4.6v1.6h4.2v2.8h-4.2V568.8z M158.9,558.7v1.4c0,5.4-1.1,9.4-3.3,12.3
		c-1.1-1-2.1-1.8-3-2.5c0.9-0.9,1.6-1.9,2.1-3.2l-2.4,1.5c-0.6-1.3-1.2-2.6-1.8-3.8l2.3-1.2c0.6,0.8,1.2,2,2,3.5c0.7-1.6,1-3.6,1-6
		v-11.4c3.6-0.4,6.6-1,8.8-1.9l1.4,3.3c-2.1,0.6-4.5,1-7.1,1.3v3.4h7.1v3.3h-1.8v13.2H161v-13.2H158.9z"/>
	<path class="st1" d="M119.1,464.4c0-2.5-1-3.7-2.7-3.7c-1.7,0-2.7,1.2-2.7,3.7v4.2h5.4V464.4z"/>
	<path class="st1" d="M102.9,461v-3.7c0-2.3-0.9-3.7-2.7-3.7h-2.3v11.1h2.3C102.1,464.7,102.9,463.3,102.9,461z"/>
	<path class="st1" d="M45.2,516.5h-0.1c0,0.6-0.1,1.1-0.3,1.7l-2,6.9h4.7l-2-6.8C45.3,517.8,45.2,517.2,45.2,516.5z"/>
	<path class="st1" d="M103.4,477.3v-4.9c0-2.3-0.9-3.7-2.7-3.7h-2.8V481h2.8C102.5,481,103.4,479.5,103.4,477.3z"/>
	<rect x="174.2" y="551.4" class="st1" width="10.1" height="3.3"/>
	<path class="st1" d="M196.2,519.5c0-2.1-1.1-3.1-3.3-3.1h-1.7v6.3h1.6C195.1,522.7,196.2,521.7,196.2,519.5z"/>
	<path class="st1" d="M233,520.4c0.5-0.5,0.7-1.1,0.7-1.9c0-1.5-1-2.3-3-2.3h-1.6v4.9h1.8C231.8,521.1,232.5,520.9,233,520.4z"/>
	<rect x="171.7" y="563" class="st1" width="3.3" height="4.5"/>
	<path class="st1" d="M261.8,464.4c0-2.5-1-3.7-2.7-3.7s-2.7,1.2-2.7,3.7v4.2h5.4V464.4z"/>
	<path class="st1" d="M258.5,516.5h-0.1c0,0.6-0.1,1.1-0.3,1.7l-2,6.9h4.7l-2-6.8C258.7,517.8,258.6,517.2,258.5,516.5z"/>
	<path class="st1" d="M499.4,694.8c-2.1,1.3-3,2.5-3,5.2c0,2.5,1,3.4,2.4,3.4c1.7,0,2.8-1.4,2.8-4.3v-6.2
		C501.2,693.6,500.6,694.1,499.4,694.8z"/>
	<path class="st1" d="M391,720.1h241L510.5,583.3L391,720.1z M487.9,707.2h-4.2v-23.4c0-3.4,0.3-7.7,0.3-7.7h-0.1l-4.7,31.1h-4.4
		l-4.7-31.1h-0.1c0,0,0.3,4.2,0.3,7.7v23.4H466v-35.9h6.8l3.5,22.6c0.4,2.6,0.6,7,0.6,7h0.1c0,0,0.2-4.4,0.6-7l3.5-22.6h6.8V707.2z
		 M502.3,707.2c-0.2-0.7-0.3-1.5-0.3-2.2c-0.9,1.7-2.6,2.6-4.6,2.6c-2.7,0-5.4-2.2-5.4-7c0-4.6,1.8-6.9,5.5-8.9
		c2.9-1.6,4.3-2.6,4.3-5.7c0-1.9-0.5-3.4-2.2-3.4c-1.7,0-2.4,1.3-2.4,3.8v1.7h-4.4v-1.7c0-4.9,2.5-8,6.9-8c5.5,0,6.5,4,6.5,9.1v9.6
		c0,6.3,0.1,8.1,0.5,10.1H502.3z M543.1,669.1h4.4v5.6h-4.4V669.1z M543.1,678.8h4.4v28.3h-4.4V678.8z M524.4,678.8h4.2v1.8
		c0.5-1.3,2.2-2.2,3.7-2.2c4.2,0,5.9,2.8,5.9,7.7v21.1h-4.4v-20.8c0-2.5-0.9-3.7-2.5-3.7c-1.5,0-2.5,1.2-2.5,3.7v20.8h-4.4V678.8z
		 M510.9,678.8h4.3v3.6c0.9-2.6,3.4-3.9,5.9-3.8v4.9c-3.3-0.6-5.8,1.2-5.8,5.4v18.3h-4.4V678.8z"/>
	<path class="st2" d="M67,45.5c-0.6,0-1.1,0-1.5,0.1v-4.1h6.8v-3.4H62.2V49c1.2-0.2,2.2-0.2,3-0.2c2.6,0,4,1,4,3c0,1-0.3,1.8-1,2.3
		c-0.6,0.6-1.5,0.9-2.6,0.9c-1.4,0-2.7-0.4-4-1.3v3.6c1.2,0.6,2.6,0.8,4.4,0.8c2.1,0,3.8-0.6,5.1-1.8c1.3-1.2,1.9-2.8,1.9-4.9
		c0-1.8-0.5-3.3-1.6-4.3C70.3,46.1,68.9,45.5,67,45.5z"/>
	<path class="st2" d="M55.4,53.8c-0.6,0-1.2,0.2-1.6,0.6c-0.5,0.4-0.7,0.9-0.7,1.6c0,0.6,0.2,1.1,0.7,1.6c0.4,0.4,1,0.6,1.6,0.6
		c0.7,0,1.2-0.2,1.7-0.6c0.4-0.4,0.7-0.9,0.7-1.6c0-0.6-0.2-1.1-0.7-1.5C56.6,54,56.1,53.8,55.4,53.8z"/>
	<path class="st2" d="M72.1,6.3l-4.7-5.2l-2.3,2.3C66.5,5,68,6.8,69.5,8.8L72.1,6.3z"/>
	<path class="st2" d="M48.4,38.1h-3.8l-7.8,12.8v2.6h8.1v4.3h3.5v-4.3h2.2v-2.9h-2.2V38.1z M44.9,44.1v6.4H40l4.1-6.8
		c0.2-0.3,0.3-0.6,0.5-0.9c0.1-0.3,0.2-0.5,0.2-0.6h0.1C44.9,42.9,44.9,43.5,44.9,44.1z"/>
	<rect x="77" y="48.8" class="st2" width="7" height="2.9"/>
	<path class="st2" d="M154.8,48.9c0,4.6-0.6,7.8-1.7,9.4c-0.9-1-1.7-2-2.6-3h3.6v-3h-1.4V41.5h1.4v-3h-1.4v-2.1h-3v2.1h-3.6v-2.1
		h-2.9v2.1h-1.5v3h1.5v10.8h-1.8v3h3.3c-0.9,1.4-2,2.7-3.2,3.8c0.7,0.6,1.4,1.3,2.2,2.2c1.2-1.3,2.4-2.7,3.6-4.2l-2.1-1.7h5.2
		l-2.2,1.7c1.1,1.3,2.1,2.6,3.1,4l1.7-1.4c0.9,0.6,1.6,1.2,2.3,1.7c1.4-2.2,2.1-4.9,2.3-8.1h3.2v3.2c0,0.8-0.4,1.2-1.1,1.2
		c-0.5,0-1.2,0-2.1-0.1c0.3,1.4,0.6,2.5,0.7,3.4c1.4,0,2.5,0,3.2-0.1c0.7-0.1,1.2-0.3,1.6-0.8c0.4-0.5,0.6-1.1,0.6-2V37.2h-9V48.9z
		 M149.8,52.4h-3.6v-1.9h3.6V52.4z M149.8,47.7h-3.6V46h3.6V47.7z M149.8,43.3h-3.6v-1.7h3.6V43.3z M157.8,40.5h3.1V44h-3.1V40.5z
		 M157.8,47h3.1v3.3h-3.1L157.8,47z"/>
	<path class="st2" d="M169.4,18.6h7.8V7.8H166v12.3h3.3V18.6z M169.4,10.8h4.5v4.8h-4.5V10.8z"/>
	<path class="st2" d="M173.2,36.1l-3.1,1.2c0.7,1.3,1.4,2.7,2.1,4.3l3.3-1.3C174.7,38.7,174,37.3,173.2,36.1z"/>
	<rect x="167.3" y="39.4" class="st2" width="3.3" height="21.6"/>
	<path class="st2" d="M176.3,40.4h9.4v15.8c0,1-0.5,1.5-1.6,1.5c-1.6,0-2.9,0-3.9-0.1c0.3,1.1,0.6,2.3,0.8,3.6
		c2.9,0,4.8-0.1,5.6-0.3c0.8-0.2,1.5-0.7,1.8-1.5c0.4-0.7,0.6-1.7,0.6-2.9V37.3h-12.7V40.4z"/>
	<path class="st2" d="M116.6,4.2h4.5v12.8h2.5l1,2.1c0.8-0.3,2.9-0.6,6.4-0.9l0.4,1.4l1.8-0.7v0.5c0,1.4-0.6,2.1-1.8,2.1
		c-0.5,0-1.9,0-4.1-0.1c0.3,1.3,0.6,2.4,0.7,3.4c2.9,0,4.7-0.1,5.4-0.2c0.7-0.1,1.4-0.6,1.9-1.3s0.8-1.8,0.8-3.2l0.1-6.7l0-9.8H128
		c0.3-0.9,0.6-1.9,0.9-2.9L126,0.2c-0.6,2.5-1.4,4.7-2.4,6.7V1.3h-9.4v15.9h2.5V4.2z M123.5,9.4c0.4,0.4,0.8,0.8,1.2,1.3
		c0.8-1.2,1.5-2.5,2.1-4.1h6.3c0,3.8,0,7,0,9.4c-0.6-1.8-1.2-3.5-1.8-5.1l-2.4,0.9c0.4,1.1,0.8,2.2,1.2,3.5l-3.1,0.3
		c0.8-1.7,1.7-3.9,2.9-6.7l-2.7-0.9c-1.4,4.4-2.6,7-3.6,7.9V9.4z"/>
	<path class="st2" d="M128,40.5c-1.2,1.8-1.8,4.4-1.8,7.8c0,6.6,2.2,9.8,6.5,9.8c2.2,0,3.8-0.9,5-2.7c1.2-1.8,1.7-4.3,1.7-7.6
		c0-6.7-2.1-10-6.4-10C130.9,37.8,129.2,38.7,128,40.5z M135.5,48c0,4.7-0.9,7-2.7,7c-1.8,0-2.7-2.3-2.7-6.8c0-4.8,0.9-7.2,2.8-7.2
		C134.7,40.9,135.5,43.3,135.5,48z"/>
	<path class="st2" d="M119,19.7c1.3,1.6,2.4,3.2,3.4,4.7l2.2-2.2c-1.9-2.3-3.5-4.2-4.8-5.6c0.1-0.8,0.2-1.6,0.2-2.5V5.3h-2.3v8.8
		c0,3.6-1.5,6.4-4.5,8.5c0.7,1,1.3,1.9,1.7,2.6C116.8,23.6,118.1,21.8,119,19.7z"/>
	<path class="st2" d="M105.6,53.8c-0.6,0-1.2,0.2-1.6,0.6c-0.5,0.4-0.7,0.9-0.7,1.6c0,0.6,0.2,1.1,0.7,1.6c0.4,0.4,1,0.6,1.6,0.6
		c0.7,0,1.2-0.2,1.7-0.6c0.4-0.4,0.7-0.9,0.7-1.6c0-0.6-0.2-1.1-0.7-1.5C106.7,54,106.2,53.8,105.6,53.8z"/>
	<path class="st2" d="M78,6.5l2.5,2.3l4.9-5.3l-2.7-2.4C81.4,2.9,79.8,4.7,78,6.5z"/>
	<path class="st2" d="M140.8,9h1.5V14c-1.5,0.2-2.9,0.4-4.1,0.5l0.4,3.7c1.2-0.3,2.4-0.5,3.7-0.8v7.8h3v-8.4l1.8-0.3
		c0.4,0.4,0.8,0.8,1.3,1.3c2.8-2.6,4.5-6.1,5.1-10.4h1.2c-0.6,6.4-3.4,11.4-8.4,14.8c0.7,0.7,1.5,1.6,2.5,2.7c1.5-1.2,2.9-2.5,4-4
		c0.3,0.9,0.6,2.1,0.8,3.5c2.7,0.1,4.4,0,5-0.3c0.6-0.3,1.1-0.8,1.4-1.5c0.3-0.7,0.5-1.5,0.5-2.5l0.2-6.6c0.1-3.4,0.2-6.6,0.2-9.5
		h-9.4c0.4-1,0.8-2.1,1.3-3.3c-1-0.2-2-0.4-3.2-0.7c-0.6,2.1-1.5,4.3-2.6,6.5v-1h-1.7V0.4h-3v5.3h-1.1c0.1-1,0.2-2,0.2-3l-2.2-0.2
		c-0.2,3.3-0.5,6.3-1.1,8.9c0.5,0.3,1.2,0.6,1.9,1.1C140.4,11.3,140.6,10.1,140.8,9z M158.1,7.5c-0.1,6.7-0.3,10.6-0.4,11.7
		c-0.2,1.1-0.8,1.7-1.9,1.7c-0.9,0-1.8,0-2.8-0.1c2.6-3.6,4-8,4-13.3H158.1z M145.4,9h1c0.4,0.5,0.9,1.2,1.6,2.1
		c0.7-1,1.5-2.2,2.2-3.6h1.2c-0.6,2.6-1.9,4.9-3.8,6.8c0-0.4,0-0.8,0.1-1.2c-0.7,0.1-1.5,0.3-2.1,0.4V9z"/>
	<path class="st2" d="M98.5,38.1h-3.8l-7.8,12.8v2.6H95v4.3h3.5v-4.3h2.2v-2.9h-2.2V38.1z M95,44.1v6.4h-4.9l4.1-6.8
		c0.2-0.3,0.3-0.6,0.5-0.9c0.1-0.3,0.2-0.5,0.2-0.6h0.1C95,42.9,95,43.5,95,44.1z"/>
	<path class="st2" d="M183.4,42.5h-10.6v14.7h3v-1.4h7.6V42.5z M180.4,53h-4.6v-2.4h4.6V53z M180.4,47.7h-4.6v-2.4h4.6V47.7z"/>
	<path class="st2" d="M216.4,61.3c2.2-3.1,3.3-7.3,3.3-12.7v-0.2h4.3V61h3.2V48.5h3.5v-3.2h-11v-4c4.7-0.4,8.3-0.8,10.7-1.2l-1-3.4
		c-4.2,0.8-8.5,1.3-12.9,1.4v9.8c0,4.8-0.9,8.3-2.6,10.5C214.8,59.3,215.7,60.3,216.4,61.3z"/>
	<path class="st2" d="M198.4,37.8c-1.9,0-3.5,0.6-4.7,1.9c-1.2,1.3-1.8,2.9-1.8,5c0,1.7,0.5,3.2,1.5,4.3c1,1.1,2.2,1.7,3.8,1.7
		c1.7,0,2.9-0.7,3.8-2l0.1,0c-0.1,4.1-1.6,6.2-4.6,6.2c-1.3,0-2.5-0.3-3.5-1v3.4c1.1,0.5,2.4,0.7,3.8,0.7c2.6,0,4.5-1,5.9-3
		c1.4-2,2.1-4.7,2.1-8.1c0-2.9-0.6-5.1-1.7-6.8C202,38.6,200.4,37.8,198.4,37.8z M200.2,46.8c-0.5,0.6-1.1,0.8-1.8,0.8
		c-0.8,0-1.5-0.3-1.9-0.9c-0.5-0.6-0.7-1.4-0.7-2.4c0-1,0.2-1.8,0.7-2.4c0.5-0.7,1.1-1,1.9-1c0.8,0,1.4,0.4,1.9,1.1
		c0.5,0.8,0.7,1.6,0.7,2.6C200.9,45.5,200.7,46.2,200.2,46.8z"/>
	<path class="st2" d="M180.4,19.3c0,1.3-0.7,2-2,2c-0.8,0-2.1-0.1-3.9-0.2c0.4,1.4,0.7,2.7,0.9,3.9c3.2,0,5.2-0.1,6-0.3
		c0.8-0.2,1.5-0.6,1.9-1.2c0.4-0.6,0.7-1.5,0.7-2.6V5.2h2.7V1.8h-23.2v3.4h17V19.3z"/>
	<path class="st2" d="M209.7,36.4v4.3h-2.6v3.2h2.6v4.5c-0.9,0.2-1.8,0.3-2.7,0.4l0.2,3.7l2.5-0.5v4.7c0,0.7-0.3,1.1-0.8,1.1
		l-1.8-0.1c0.3,1.3,0.5,2.4,0.6,3.4c0.9,0,1.8,0,2.7-0.1c0.9-0.1,1.5-0.4,1.9-0.9c0.4-0.5,0.6-1.3,0.6-2.3v-6.5l2.5-0.5
		c0.2-2.1,0.3-3.3,0.3-3.5l-2.8,0.5v-3.9h2.4v-3.2h-2.4v-4.3H209.7z"/>
	<path class="st2" d="M198.9,21.7c-0.2,0.2-0.7,0.4-1.3,0.4c-1.1,0-2.2,0-3.4-0.1c0.3,1.2,0.6,2.3,0.7,3.2c1.6,0,3,0,4.1,0
		c1.1,0,2-0.3,2.6-0.8c0.6-0.6,0.9-1.4,0.9-2.6v-1.2h9.3v-2.7h-6.9l4.5-1.5v-2.8h-19.3V16H204l-4.8,1.4v0.3h-10.9v2.7h10.9
		C199.3,21,199.2,21.4,198.9,21.7z"/>
	<path class="st2" d="M208.8,6.1h-17.6v6.2h17.6V6.1z M205.6,9.9h-11.3V8.5h11.3V9.9z"/>
	<polygon class="st2" points="73.3,9.4 64.5,9.4 64.5,12.6 81.9,12.6 81.9,15.1 65.3,15.1 65.3,18.2 81.9,18.2 81.9,20.7 64.2,20.7 
		64.2,23.9 81.9,23.9 81.9,25.3 85.4,25.3 85.4,9.4 76.8,9.4 76.8,0.1 73.3,0.1 	"/>
	<path class="st2" d="M118.9,47.6L118.9,47.6c2.4-0.7,3.7-2.3,3.7-4.9c0-1.5-0.5-2.7-1.6-3.6c-1.1-0.9-2.5-1.3-4.3-1.3
		c-1.7,0-3.2,0.4-4.5,1.1v3.4c1.2-0.9,2.4-1.3,3.6-1.3c1.9,0,2.8,0.8,2.8,2.5c0,1.8-1.2,2.7-3.7,2.7h-1.5v3.2h1.6
		c1.3,0,2.3,0.2,3.1,0.7c0.7,0.5,1.1,1.2,1.1,2.1c0,0.9-0.3,1.6-0.9,2.1c-0.6,0.5-1.4,0.7-2.5,0.7c-1.6,0-3.1-0.5-4.3-1.5v3.6
		c1.2,0.7,2.7,1,4.6,1c2.1,0,3.8-0.5,5.1-1.6c1.3-1,1.9-2.5,1.9-4.4c0-1.2-0.4-2.3-1.2-3.1C121.2,48.2,120.2,47.7,118.9,47.6z"/>
	<rect x="73.3" y="0.1" class="st2" width="3.5" height="0"/>
	<path class="st2" d="M197.6,0.6c0.2,0.6,0.5,1.1,0.7,1.7h-9.7V5h23V2.3h-9.3c-0.2-0.7-0.5-1.4-0.8-2.2h-0.7L197.6,0.6z"/>
	<path class="st2" d="M200.8,0.1h0.7c0,0,0-0.1,0-0.1L200.8,0.1z"/>
	<path class="st2" d="M102.5,13.3h9.1V9.8h-10.1c0.1-1.6,0.2-3.2,0.3-4.7h8.7V1.7H89.8v3.5h8.4c-0.1,1.7-0.2,3.3-0.4,4.7h-9.4v3.5
		h8.6c-0.8,3.4-3.8,6.3-8.9,8.7c1.2,1.3,2.1,2.4,2.7,3.2c4.6-2.6,7.6-5.9,9-9.7c1.9,4.7,5,8,9.1,9.9c1.2-1.6,2.1-2.8,2.8-3.6
		C107.4,20.4,104.3,17.6,102.5,13.3z"/>
	<path class="st2" d="M630.7,233.5l-1.4-0.5c-0.3,0.9-0.8,2-1.3,3.1c0.4,0.2,0.8,0.4,1.3,0.7C629.8,235.6,630.3,234.5,630.7,233.5z"
		/>
	<path class="st2" d="M625.5,236.1c-0.7-1.5-1.1-2.6-1.4-3.1l-1.3,0.6c0.5,1.1,1,2.2,1.3,3.1C624.6,236.5,625.1,236.3,625.5,236.1z"
		/>
	<path class="st2" d="M631.9,228l-2.8-0.9l-1.2,2.8h-2.1l-1.4-2.7l-2.6,1l1.1,1.8h-2.5v10h13v-10h-2.6L631.9,228z M625.7,237.3h-3
		v-4.9h3V237.3z M630.8,232.4v4.9h-3v-4.9H630.8z"/>
	<path class="st2" d="M625.8,212.5c0.4-0.4,0.7-0.9,0.7-1.6c0-0.6-0.2-1.1-0.7-1.5c-0.4-0.4-1-0.6-1.6-0.6c-0.6,0-1.2,0.2-1.6,0.6
		c-0.5,0.4-0.7,0.9-0.7,1.6c0,0.6,0.2,1.1,0.7,1.6c0.4,0.4,1,0.6,1.6,0.6C624.8,213.1,625.4,212.9,625.8,212.5z"/>
	<path class="st2" d="M621,252.3h2.8v-1h6v1h2.8v-11.4H621V252.3z M623.8,243.4h6v1.5h-6V243.4z M623.8,247.2h6v1.5h-6V247.2z"/>
	<path class="st2" d="M641.9,206.4c0-1.8-0.5-3.3-1.6-4.3c-1.1-1-2.6-1.6-4.4-1.6c-0.6,0-1.1,0-1.5,0.1v-4.1h6.8v-3.4h-10.1V204
		c1.2-0.2,2.2-0.2,3-0.2c2.6,0,4,1,4,3c0,1-0.3,1.8-1,2.3c-0.6,0.6-1.5,0.9-2.6,0.9c-1.4,0-2.7-0.4-4-1.3v3.6
		c1.2,0.6,2.6,0.9,4.4,0.9c2.1,0,3.8-0.6,5.1-1.8C641.2,210.1,641.9,208.5,641.9,206.4z"/>
	<path class="st2" d="M606.2,207.8c0,1.6,0.6,2.9,1.7,3.9c1.2,1,2.6,1.4,4.4,1.4c2.1,0,3.7-0.5,4.9-1.5c1.2-1,1.8-2.3,1.8-4.1
		c0-1.1-0.3-2.2-1-3.1c-0.7-0.9-1.7-1.5-2.9-1.9v-0.1c2.3-1,3.5-2.6,3.5-4.8c0-1.5-0.6-2.7-1.7-3.6c-1.1-0.9-2.5-1.3-4.2-1.3
		c-1.7,0-3.1,0.5-4.3,1.4c-1.2,1-1.7,2.2-1.7,3.8c0,2.1,1.1,3.6,3.2,4.5v0.1C607.4,203.7,606.2,205.4,606.2,207.8z M611.1,196.4
		c0.5-0.4,1-0.6,1.6-0.6c0.7,0,1.2,0.2,1.6,0.6c0.4,0.4,0.6,1,0.6,1.7c0,1.3-0.8,2.3-2.3,2.9c-1.5-0.7-2.3-1.6-2.3-2.9
		C610.4,197.4,610.6,196.9,611.1,196.4z M612.5,204.1c2,0.7,2.9,1.9,2.9,3.4c0,0.8-0.3,1.4-0.8,1.9c-0.5,0.5-1.2,0.7-2,0.7
		c-0.8,0-1.5-0.2-2-0.7c-0.6-0.5-0.8-1.1-0.8-1.9C609.8,206,610.7,204.9,612.5,204.1z"/>
	<polygon class="st2" points="619.5,244.1 619.5,228.4 611.3,228.4 611.3,244.2 613.6,244.2 613.6,231.1 617.3,231.1 617.3,244.1 	
		"/>
	<path class="st2" d="M616.4,241.1v-8.7h-1.9v8.7c0,3.2-1.4,5.9-4.2,8.3c0.8,1.3,1.4,2.3,1.7,3c1.6-1.6,2.8-3.5,3.5-5.6
		c1,1.6,1.9,3.1,2.8,4.6l2.4-2.2l-4.5-5.4C616.3,242.9,616.4,242,616.4,241.1z"/>
	<path class="st2" d="M643.3,240.4V239c1.1-1.5,1.9-2.9,2.6-4.4v-3.1h-4l2.1-1.2c-0.9-1.4-1.6-2.5-2.2-3.2l-2.8,1.5
		c0.6,0.9,1.2,1.9,1.8,2.9h-4.7v3.4h5.8c-1.3,2.3-3.6,4.9-6.8,7.7c0.3,1.2,0.7,2.6,1.1,4.2c1.4-1.3,2.7-2.6,3.8-3.8v9.2h3.2V242
		c0.7,0.7,1.6,1.5,2.6,2.5l2-2.5c-1.3-1.1-2.6-2-3.7-2.8L643.3,240.4z"/>
	<path class="st2" d="M599,243.9h-3c-0.1,2-0.8,3.4-2.3,4.1c-1.5,0.7-4,1.1-7.4,1.3c0.5,1.1,0.9,2.1,1.3,3c5.2-0.5,8.5-1.7,9.9-3.5
		c3.5,1.2,6.7,2.4,9.7,3.6l1.5-2.8c-3.7-1.3-7-2.3-10-3.2C598.8,245.6,598.9,244.8,599,243.9z"/>
	<path class="st2" d="M587,163h18.9v-6.9H587V163z M590.2,157.9h12.4v0.9h-12.4V157.9z M590.2,160.3h12.4v0.9h-12.4V160.3z"/>
	<rect x="584.7" y="163.8" class="st2" width="23.4" height="1.9"/>
	<path class="st2" d="M617.1,155.2l-2.9,1.4c0.6,0.8,1.1,1.6,1.7,2.4h-4.4v12.6h8.2v1.8h-10.1v3.1h10.1v3.8h3.3v-3.8h10.1v-3.1
		h-10.1v-1.8h8.2V159h-4.5c0.9-1,1.6-1.9,2.1-2.5l-3.6-1.4c-0.8,1.3-1.6,2.6-2.6,3.9H618l1.5-0.7L617.1,155.2z M623.1,161.9h5.1v2.1
		h-5.1V161.9z M623.1,166.6h5.1v2.1h-5.1V166.6z M619.8,168.6h-5.1v-2.1h5.1V168.6z M619.8,161.9v2.1h-5.1v-2.1H619.8z"/>
	<path class="st2" d="M608.2,177.6H598v-1h8.8v-1.8H598v-0.9h7.9v-7.4h-18.9v7.4h7.9v0.9h-8.7v1.8h8.7v1h-10.2v1.9h23.6V177.6z
		 M598,168.3h4.9v1.1H598V168.3z M598,171h4.9v1.1H598V171z M594.8,172.2H590V171h4.8V172.2z M594.8,169.5H590v-1.1h4.8V169.5z"/>
	<path class="st2" d="M581.2,169.4h0.6v-13.1h-12.5V175c0,1.2-0.3,2.1-0.8,2.7l1.3,2.7c1-0.5,3.1-1.1,6.2-1.9c0-0.7,0-1.6,0.1-2.8
		c1.2,1.8,3,3.2,5.4,4.4c0.5-1.3,1.1-2.5,1.7-3.5c-1.6-0.5-2.8-1.2-3.8-2.1l3.7-2.3L581.2,169.4z M572.4,159.4h6.4v2.1h-6.4V159.4z
		 M572.4,176v-6.6h1.1c0.5,2.2,1.3,4.1,2.3,5.7C574.6,175.4,573.5,175.7,572.4,176z M572.4,166.4v-2.1h6.4v2.1H572.4z M577.7,172.2
		c-0.5-0.8-0.9-1.8-1.3-2.8h4.5C580,170.4,578.9,171.3,577.7,172.2z"/>
	<path class="st2" d="M586.6,205.9h2c2.1,0.1,3.8-0.5,5.2-1.7c1.4-1.2,2.1-2.8,2.1-4.8c0-4.1-2.3-6.2-6.9-6.2h-6.3v19.7h3.9V205.9z
		 M586.6,196.4h1.7c2.3,0,3.4,1,3.4,3.1c0,2.1-1.2,3.2-3.5,3.2h-1.7V196.4z"/>
	<path class="st2" d="M647.3,179.8h3.3v-1.2h3.4v1.2h3.3v-11.9h-9.9V179.8z M650.6,171h3.4v4.5h-3.4V171z"/>
	<path class="st2" d="M655.2,247.5c-0.2,0.7-0.7,1.1-1.5,1.1h-0.6c-0.8,0-1.2-0.4-1.2-1.3v-19.7h-3.3v20.6c0,2.4,1.1,3.5,3.3,3.5
		h2.5c2.1,0,3.3-0.8,3.7-2.3c0.4-1.4,0.8-3.2,1.1-5.3c-1.3-0.5-2.4-0.9-3.3-1.4C655.7,244.2,655.5,245.9,655.2,247.5z"/>
	<path class="st2" d="M653.7,202.9c0,4.8-0.9,8.3-2.6,10.5c1,1,1.8,1.9,2.5,2.9c2.2-3.1,3.3-7.3,3.3-12.7v-0.2h4.3V216h3.2v-12.6
		h3.5v-3.2h-11v-4c4.7-0.4,8.3-0.8,10.7-1.2l-1-3.4c-4.2,0.8-8.5,1.3-12.9,1.4V202.9z"/>
	<path class="st2" d="M644.4,203.8l0.2,3.7l2.5-0.5v4.7c0,0.7-0.3,1.1-0.8,1.1l-1.8-0.1c0.3,1.3,0.5,2.4,0.6,3.4
		c0.9,0,1.8,0,2.7-0.1c0.9-0.1,1.5-0.4,1.9-0.9c0.4-0.5,0.6-1.3,0.6-2.3v-6.5l2.5-0.5c0.2-2.1,0.3-3.3,0.3-3.5l-2.8,0.5v-3.9h2.4
		v-3.2h-2.4v-4.3h-3.2v4.3h-2.6v3.2h2.6v4.5C646.1,203.6,645.2,203.7,644.4,203.8z"/>
	<path class="st2" d="M638.9,178.6h3.3v1.2h3.3v-11.9h-9.9v11.9h3.3V178.6z M638.9,171h3.3v4.5h-3.3V171z"/>
	<path class="st2" d="M655,156.2h-17.1v9.7H655V156.2z M651.5,162.7h-10.1v-3.3h10.1V162.7z"/>
	<rect x="485.4" y="165.3" class="st2" width="10.6" height="2.7"/>
	<path class="st2" d="M503,167.1c0.1-0.9,0.1-1.9,0.1-3h-2.9c0,3.2-0.4,5.8-1.2,7.9c-0.8,2-2.2,3.9-4.2,5.6c0.7,0.9,1.4,1.9,2.1,2.9
		c2.5-2.4,4.1-4.9,4.8-7.6c0.9,3.1,2.5,5.5,4.8,7.4c0.7-1.5,1.3-2.6,1.8-3.4C505.4,175,503.6,171.8,503,167.1z"/>
	<path class="st2" d="M488.6,237.9h17.1v-9.7h-17.1V237.9z M492.1,231.4h10.1v3.3h-10.1V231.4z"/>
	<path class="st2" d="M502,199.7c0,1.7,0.5,3.2,1.5,4.3c1,1.1,2.2,1.7,3.8,1.7c1.7,0,2.9-0.7,3.8-2l0.1,0c-0.1,4.1-1.6,6.2-4.6,6.2
		c-1.3,0-2.5-0.3-3.5-1v3.4c1.1,0.5,2.4,0.7,3.8,0.7c2.6,0,4.5-1,5.9-3c1.4-2,2.1-4.7,2.1-8.1c0-2.9-0.6-5.1-1.7-6.8
		c-1.1-1.6-2.7-2.4-4.7-2.4c-1.9,0-3.5,0.6-4.7,1.9C502.6,196,502,197.7,502,199.7z M506.4,196.9c0.5-0.7,1.1-1,1.9-1
		c0.8,0,1.4,0.4,1.9,1.1c0.5,0.8,0.7,1.6,0.7,2.6c0,0.8-0.2,1.5-0.7,2.1c-0.5,0.6-1.1,0.9-1.8,0.9c-0.8,0-1.5-0.3-1.9-0.9
		c-0.5-0.6-0.7-1.4-0.7-2.4C505.7,198.4,506,197.6,506.4,196.9z"/>
	<path class="st2" d="M509.5,170.9c0.7,1.4,1.2,2.4,1.5,3c1.3-1.1,2.4-2.4,3.3-3.7c0.1,0.9,0.1,1.9,0.1,2.9c0,1.1,0,1.9-0.1,2.2
		c-0.1,0.4-0.2,0.7-0.5,0.9c-0.3,0.2-0.6,0.3-1,0.3c-0.5,0-1.3-0.1-2.3-0.2c0.3,1.5,0.4,2.6,0.5,3.3c2.2,0.1,3.6-0.1,4.4-0.4
		c0.8-0.4,1.4-1,1.7-2c0.3-0.9,0.5-2.8,0.5-5.5c0-3.9-0.5-7.2-1.6-10.1c1.1-1.2,2.2-2.4,3.1-3.6l-2.3-2.2c-0.8,1-1.5,1.9-2.3,2.7
		c-0.7-1.1-1.4-2.1-2.3-3.1l-2.2,1.9c0.8,1.1,1.6,2.2,2.2,3.5c-0.8,0.8-1.6,1.4-2.5,2.1c0.5,0.7,1.1,1.6,1.8,2.8
		c0.7-0.5,1.3-1.1,1.9-1.6c0.2,0.7,0.4,1.3,0.5,2C512.5,168.1,511.1,169.6,509.5,170.9z"/>
	<path class="st2" d="M486,172.4c-0.5,2.1-1,3.9-1.5,5.4l2.6,1c0.1,0.4,0.2,0.9,0.3,1.5c1.9,0,3.1-0.1,3.7-0.2
		c0.5-0.1,1-0.5,1.2-0.9c0.3-0.5,0.4-1.1,0.4-1.9V172h4.2v-2.7h-12.4v2.7h5v4.1c0,0.3-0.1,0.6-0.3,0.7c-0.2,0.2-0.8,0.3-1.8,0.2
		c0.4-1.2,0.7-2.5,1.1-3.9L486,172.4z"/>
	<polygon class="st2" points="541,216 544.4,216 553.4,193.1 549.9,193.1 	"/>
	<polygon class="st2" points="489.3,161.3 485.1,161.3 485.1,164 496,164 496,161.3 492.5,161.3 492.5,159.7 497,159.7 497,156.9 
		492.5,156.9 492.5,155.1 489.3,155.1 489.3,156.9 484.7,156.9 484.7,159.7 489.3,159.7 	"/>
	<path class="st2" d="M498.7,166.2c0.5-1.2,1-2.7,1.5-4.4h4.5l-0.9,4.1l2.8,0.6l1-4.9v-2.9h-6.7c0.2-0.9,0.5-1.9,0.7-3l-2.9-0.6
		c-0.7,3.8-1.7,7-2.8,9.7C496.9,165.2,497.7,165.7,498.7,166.2z"/>
	<path class="st2" d="M494.9,172.1l-2.1,1.6c0.8,1,1.5,2,2.1,2.9l2.1-1.8C496.5,174,495.8,173.1,494.9,172.1z"/>
	<path class="st2" d="M518.9,212.7l-1.8-0.1c0.3,1.3,0.5,2.4,0.6,3.4c0.9,0,1.8,0,2.7-0.1c0.9-0.1,1.5-0.4,1.9-0.9
		c0.4-0.5,0.6-1.3,0.6-2.3v-6.5l2.5-0.5c0.2-2.1,0.3-3.3,0.3-3.5l-2.8,0.5v-3.9h2.4v-3.2h-2.4v-4.3h-3.2v4.3h-2.6v3.2h2.6v4.5
		c-0.9,0.2-1.8,0.3-2.7,0.4l0.2,3.7l2.5-0.5v4.7C519.7,212.4,519.4,212.7,518.9,212.7z"/>
	<path class="st2" d="M517.6,176l0.4,3.3l11.8-1.4c0.2,0.7,0.5,1.5,0.7,2.3l2.8-0.9c-0.8-2.8-1.7-5.3-2.5-7.5l-2.7,0.8
		c0.3,0.7,0.5,1.5,0.8,2.3l-2.2,0.2v-4.4h5.2v-11.2h-5.2v-4.4h-3.2v4.4h-5.2v12h3v-0.8h2.3v4.7L517.6,176z M526.7,163h2.2v4.7h-2.2
		V163z M521.3,167.7V163h2.3v4.7H521.3z"/>
	<path class="st2" d="M557.4,228.9h-7.9c-0.2-0.7-0.5-1.4-0.7-1.9l-4,0.4l0.6,1.5h-8.6v2.2h5.3l-1.9,0.7c0.2,0.3,0.5,0.7,0.8,1.2
		h-5.5v2.3h23.1V233H553l0.9-1.1l-2.2-0.8h5.7V228.9z M549.4,233h-4.6c-0.4-0.6-0.9-1.2-1.4-1.9h7.2
		C550.3,231.6,549.9,232.2,549.4,233z"/>
	<path class="st2" d="M538.6,160.3h15.6v3.5h3.3v-6.4h-8.9c-0.2-0.9-0.5-1.6-0.7-2.3l-4.1,0.6c0.2,0.5,0.5,1,0.7,1.8h-9.2v6.4h3.3
		V160.3z"/>
	<path class="st2" d="M564.4,172.3c-0.2,0-0.5,0-0.8-0.1c0.3,1.2,0.5,2.5,0.6,3.9c3.1,0,4.6-1.3,4.6-4c0-2.5-0.8-4.7-2.3-6.5
		c0.8-2.5,1.4-4.8,2-6.9v-2.4h-8v24.1h3v-21.1h2c-0.5,2.2-1.1,4.5-1.8,6.7c1.4,1.7,2.1,3.4,2.1,5.1
		C565.7,171.9,565.3,172.3,564.4,172.3z"/>
	<path class="st2" d="M536.5,179.5c2-0.7,3.8-1.5,5.4-2.4c0.3,0.9,0.5,2,0.8,3.1c2.4,0,3.9-0.1,4.5-0.2c0.6-0.1,1.2-0.4,1.6-0.8
		c0.5-0.4,0.8-1,1-1.7c0.2-0.7,0.3-1.6,0.3-2.7c0-1.3-0.2-2.6-0.6-3.9l1-0.5c1.3,3.8,3,6.5,5.1,8.2c0.8-0.9,1.7-1.8,2.7-2.8
		c-2.4-1.5-4.2-3.7-5.2-6.6l3.8-1.9l-1.9-2.8c-1.7,1.1-3.9,2.4-6.6,3.7c-0.5-0.9-1.1-1.8-1.8-2.6c0.5-0.3,1-0.7,1.5-1.1h5.2v-2.8
		h-13.8v2.8h3.9c-2.2,1.2-5,2.1-8.2,2.7c0.5,0.8,1.1,1.7,1.6,2.6c2.6-0.7,5-1.6,7.1-2.6c0.2,0.3,0.4,0.5,0.6,0.8
		c-2.5,1.6-5.6,2.8-9.3,3.7l1.6,2.6c3.3-1,6.3-2.4,8.9-4.4c0.2,0.3,0.3,0.7,0.4,1c-2.9,2.4-6.8,4.3-11.4,5.5
		C535.3,177.5,535.9,178.5,536.5,179.5z M546.8,173.8c0.1,0.4,0.1,0.7,0.1,1c0,1.5-0.7,2.3-2.2,2.3c-0.6,0-1.4-0.1-2.4-0.2
		C543.9,176,545.4,174.9,546.8,173.8z"/>
	<path class="st2" d="M477.2,176.9h3.5v-4.3h2.2v-2.9h-2.2v-12.4h-3.8l-7.8,12.7v2.6h8.1V176.9z M472.3,169.6l4.1-6.8
		c0.2-0.3,0.3-0.6,0.5-0.9c0.1-0.3,0.2-0.5,0.2-0.6h0.1c0,0.7,0,1.3,0,1.9v6.4H472.3z"/>
	<path class="st2" d="M537.1,216v-12.6h3.5v-3.2h-11v-4c4.7-0.4,8.3-0.8,10.7-1.2l-1-3.4c-4.2,0.8-8.5,1.3-12.9,1.4v9.8
		c0,4.8-0.9,8.3-2.6,10.5c1,1,1.8,1.9,2.5,2.9c2.2-3.1,3.3-7.3,3.3-12.7v-0.2h4.3V216H537.1z"/>
	<path class="st2" d="M556.3,236.4H538v8.5h8.2l-1.1,1c1.1,1,1.9,2,2.5,2.8l2.2-2.2c-0.4-0.4-1-1-1.8-1.6h8.2V236.4z M553.2,242.8
		h-12.2v-1.2h12.2V242.8z M553.2,239.7h-12.2v-1.2h12.2V239.7z"/>
	<path class="st2" d="M560.5,251c1,0.3,2.1,0.6,3.3,1l2.1-9.8c-0.9-0.2-1.9-0.6-3.2-1.1C562,244.8,561.3,248.1,560.5,251z"/>
	<path class="st2" d="M571,193.1h-4.1l-4,13.8c-0.2,0.7-0.3,1.4-0.4,2h-0.1c0-0.6-0.2-1.3-0.4-1.9l-4-13.9h-4.2l6.3,19.7h4.4
		L571,193.1z"/>
	<path class="st2" d="M577.5,231.8l2.2,2c1.3-1.3,2.5-2.7,3.8-4.2l-2.6-2C579.9,229.1,578.8,230.5,577.5,231.8z"/>
	<path class="st2" d="M560.3,236.6c1.5,1.3,2.8,2.5,3.7,3.5l2.2-2.6c-1.1-1.1-2.4-2.2-3.9-3.3L560.3,236.6z"/>
	<path class="st2" d="M554,246.9c0.8,1.2,1.7,2.6,2.5,4.2l2.6-1.7c-0.6-1.3-1.4-2.6-2.5-4.1L554,246.9z"/>
	<path class="st2" d="M550.3,248.5c-0.3,0.3-0.9,0.5-1.8,0.5h-3c-0.9,0-1.3-0.4-1.3-1.2v-2.4H541v3.3c0,2.1,1.2,3.1,3.6,3.1h4.9
		c1.2,0,2.1-0.3,2.8-0.8c0.7-0.5,1.2-1.7,1.7-3.7c-1.2-0.5-2.2-1-3-1.5C550.8,247.3,550.6,248.1,550.3,248.5z"/>
	<polygon class="st2" points="572.3,209.5 572.3,212.8 579.4,212.8 579.4,209.5 577.8,209.5 577.8,196.4 579.4,196.4 579.4,193.1 
		572.3,193.1 572.3,196.4 573.9,196.4 573.9,209.5 	"/>
	<path class="st2" d="M576.7,227.1h-3.3v7h-6v17.8h3.4v-5.2h8.6v0.4c0,1.1-0.5,1.6-1.6,1.6c-0.9,0-2,0-3.3-0.1
		c0.4,1.2,0.7,2.3,0.9,3.4c2.2,0,3.8,0,4.7-0.1c0.9-0.1,1.6-0.5,2-1c0.5-0.6,0.7-1.4,0.7-2.4V234h-6V227.1z M579.4,243.7h-8.6v-1.9
		h8.6V243.7z M579.4,237.1v1.9h-8.6v-1.9H579.4z"/>
	<path class="st2" d="M560.6,229.7c1.1,0.9,2.4,2.1,3.7,3.6l2.1-2.6c-1.4-1.3-2.7-2.3-3.9-3.3L560.6,229.7z"/>
	<path class="st2" d="M452.3,212v3.2h21.6V212h-9v-3h7.2v-3.2h-7.2v-2.6h4.6v-2.1c1,0.7,2.1,1.5,3.3,2.1c0.6-0.9,1.3-1.9,2.1-3
		c-4.5-2.2-7.8-4.9-9.8-8.1l0.6-1h-4.2c-1.8,3.3-5.3,6.4-10.3,9.3c1,1.3,1.7,2.3,2.1,3c1.2-0.8,2.3-1.5,3.4-2.3v2h4.6v2.6h-7.1v3.2
		h7.1v3H452.3z M458.3,199.9c1.9-1.6,3.6-3.3,4.9-5.1c1.3,1.8,3,3.5,4.9,5.1H458.3z"/>
	<path class="st2" d="M572.6,231.6c-1.1-1.3-2.3-2.7-3.6-4l-2.3,1.9c1.3,1.5,2.4,2.8,3.4,4.1L572.6,231.6z"/>
	<path class="st2" d="M484,230.7l-1.4-3.3c-2.3,0.8-5.2,1.5-8.8,1.9v11.4c0,2.4-0.3,4.4-1,6c-0.7-1.5-1.4-2.7-2-3.5l-2.3,1.2
		c0.7,1.2,1.3,2.4,1.8,3.8l2.4-1.5c-0.5,1.3-1.2,2.3-2.1,3.2c0.9,0.7,1.9,1.5,3,2.5c2.2-2.8,3.3-6.9,3.3-12.3v-1.4h2.1v13.2h3.1
		v-13.2h1.8v-3.3h-7.1V232C479.5,231.8,481.8,231.3,484,230.7z"/>
	<path class="st2" d="M485.6,213.9c1,0.7,2,1.4,2.9,2.2c1.2-1.1,2.3-2.4,3.2-3.8c0.3,1.4,0.5,2.5,0.6,3.5c1.2,0,2.2-0.1,3-0.2
		c2.3-0.2,3.5-1.7,3.6-4.5c0.2-3.7,0.3-7.3,0.3-10.9h-8.6l7-5v-2.9H485v3h7.1l-7.1,4.9v3h2.1c-0.7,2.4-2,4.3-3.8,5.8
		c-0.4,0.1-0.7,0.2-1.1,0.3v-8.3h2.3v-3.5h-2.3v-6.4H479v6.4h-2.5v3.5h2.5v9c-0.9,0.2-1.9,0.4-2.8,0.5l0.6,3.6
		c2.3-0.6,4.9-1.2,7.7-1.8c0-0.7,0-1.3,0-1.9c0.4,0.3,0.7,0.7,1.1,1c2.1-2,3.6-4.8,4.5-8.2h1.9C491.2,207.6,489.1,211.1,485.6,213.9
		z M495,203.4h1.2c-0.1,3-0.2,5.3-0.3,7.1c-0.1,1.2-0.8,1.8-2.1,1.8c-0.6,0-1.3,0-2-0.1C493.3,209.8,494.4,206.8,495,203.4z"/>
	<path class="st2" d="M486.4,251.8h3.3v-1.2h3.3v1.2h3.3v-11.9h-9.9V251.8z M489.7,242.9h3.3v4.5h-3.3V242.9z"/>
	<path class="st2" d="M472.6,239.9h-4.2v-1.6h4.6v-2.8h-2.5c0.5-0.9,1-1.5,1.2-2c-1.3-0.6-2.1-1-2.5-1.2h3.3v-2.8h-4
		c-0.2-0.9-0.5-1.6-0.7-2.3l-3.3,0.6c0.2,0.5,0.4,1.1,0.6,1.7h-4.2v2.8h8c-0.3,0.7-0.8,1.7-1.6,3.1h-1c-0.4-0.9-1-2-1.6-3.1
		l-2.6,1.1c0.4,0.6,0.7,1.3,1,2h-2.6v2.8h4.9v1.6h-4.5v2.8h4.5v4.7c0,0.8-0.3,1.1-0.9,1.1c-0.4,0-0.8,0-1.2-0.1
		c0.6-1.4,1.1-2.9,1.5-4.4l-2.7-0.9c-0.6,2.1-1.3,4-2.1,5.6c1.1,0.4,1.9,0.9,2.5,1.3l0.5-1.1c0.2,0.9,0.4,1.8,0.5,2.9
		c1.5,0,2.5-0.1,3.1-0.2s1-0.4,1.3-0.9c0.3-0.5,0.5-1.1,0.5-1.9v-6.1h4.2V239.9z"/>
	<path class="st2" d="M515.2,227.4c-1.4,4.7-3,8.4-5,11.2c0.5,2,0.9,3.5,1.1,4.6c0.7-1,1.4-2,2-3.1v12h3.2v-18.3
		c0.7-1.7,1.4-3.5,1.9-5.3L515.2,227.4z"/>
	<path class="st2" d="M498.1,251.8h3.3v-1.2h3.4v1.2h3.3v-11.9h-9.9V251.8z M501.3,242.9h3.4v4.5h-3.4V242.9z"/>
	<path class="st2" d="M527.8,232.5c1.9-0.2,3.7-0.3,5.3-0.5c-0.4-2-0.7-3.1-0.7-3.4c-3.7,0.4-8.2,0.8-13.5,1
		c0.3,1.3,0.6,2.5,0.7,3.4l4.6-0.3v5.6H518v3.2h6.2v6.3h-5.7v3.2H533v-3.2h-5.2v-6.3h6.2v-3.2h-6.2V232.5z"/>
	<path class="st2" d="M535.3,250l2.6,1.4c0.8-1.5,1.5-3.1,2.2-4.9l-2.8-1.2C536.8,246.8,536.1,248.3,535.3,250z"/>
	<path class="st2" d="M585.3,241.6c0.6,1,1.1,1.9,1.5,2.7c0.8-0.3,1.6-0.6,2.3-0.9v4.3h3v-4.4h10.6v3.9h3v-4.6
		c0.8,0,1.4-0.3,1.8-0.7c0.4-0.4,0.6-1.1,0.7-2.1c0.1-0.9,0.1-2.1,0.2-3.4h-6.5v-1.4h5.6v-6.1h-5.6v-1.7h-3v1.7h-3v-1.7h-3v1.7h-6.4
		v2.3h6.4c0,0.6,0,1,0,1.4h-5.5l-0.9,6.1h4.7C590.1,239.9,588.2,240.8,585.3,241.6z M601.9,231.1h2.8v1.4h-2.8V231.1z M595.9,231.1
		h3v1.4h-3C595.9,231.9,595.9,231.4,595.9,231.1z M595.7,234.9h3.2v1.4h-3.4C595.6,235.9,595.7,235.4,595.7,234.9z M594.7,238.6h4.3
		v1.9h3v-1.9h3.7c0,0.4,0,0.7-0.1,0.9c-0.1,0.2-0.2,0.4-0.3,0.4c-0.1,0.1-0.8,0.1-2,0.1l0.3,0.9h-10.5
		C593.5,240.5,594.1,239.7,594.7,238.6z M589.6,236.3l0.3-1.4h2.8c-0.1,0.5-0.2,1-0.3,1.4H589.6z"/>
	<path class="st3" d="M577.3,127.2l5-28.3h-4.5l-2.2,15.6c-0.4,2.5-0.7,7-0.7,7h-0.1c0,0-0.3-4.4-0.7-7l-2.2-15.6h-4.5l4.9,28.3
		H577.3z"/>
	<path class="st3" d="M560,108.9c0-4.2,2.5-5.9,5.8-5.4v-4.9c-2.6-0.1-5,1.2-5.9,3.8v-3.6h-4.3v28.3h4.4V108.9z"/>
	<path class="st3" d="M608.2,106.3c0-2.5,1-3.7,2.5-3.7c1.6,0,2.5,1.2,2.5,3.7v20.8h4.4v-21.1c0-5-1.7-7.7-5.9-7.7
		c-1.5,0-3.3,0.9-3.7,2.2v-1.8h-4.2v28.3h4.4V106.3z"/>
	<path class="st3" d="M542,111.7c-3.8,2-5.5,4.3-5.5,8.9c0,4.8,2.7,7,5.4,7c2,0,3.7-1,4.6-2.6c0.1,0.7,0.2,1.5,0.3,2.2h4.3
		c-0.4-2-0.5-3.8-0.5-10.1v-9.6c0-5.1-1-9.1-6.5-9.1c-4.4,0-6.9,3.1-6.9,8v1.7h4.4v-1.7c0-2.5,0.8-3.8,2.4-3.8
		c1.7,0,2.2,1.5,2.2,3.4C546.3,109.1,545,110.1,542,111.7z M546.3,112.9v6.2c0,2.9-1.2,4.3-2.8,4.3c-1.4,0-2.4-0.9-2.4-3.4
		c0-2.6,1-3.9,3-5.2C545.2,114.1,545.8,113.6,546.3,112.9z"/>
	<path class="st3" d="M526.5,127.6c4.4,0,7-2.8,7-7.7v-4.1h-4.4v3.8c0,2.5-0.9,3.7-2.5,3.7s-2.6-1.2-2.6-3.7V98.8
		c0-2.5,0.9-3.7,2.6-3.7s2.5,1.2,2.5,3.7v3.8h4.4v-4.1c0-4.9-2.5-7.7-7-7.7c-4.4,0-7,2.8-7,7.7v21.4
		C519.5,124.8,522.1,127.6,526.5,127.6z"/>
	<path class="st3" d="M592.2,127.6c4.4,0,7.1-2.8,7.1-7.7V118h-4.4v1.6c0,2.5-1,3.7-2.7,3.7c-1.7,0-2.7-1.2-2.7-3.7v-5.3h9.8v-8.2
		c0-4.9-2.7-7.7-7.1-7.7c-4.4,0-7.1,2.8-7.1,7.7v13.8C585.1,124.8,587.8,127.6,592.2,127.6z M589.5,106.3c0-2.5,1-3.7,2.7-3.7
		c1.7,0,2.7,1.2,2.7,3.7v4.2h-5.4V106.3z"/>
	<polygon class="st2" points="211.7,516.6 211.7,513.1 201.6,513.1 201.6,532.8 212.1,532.8 212.1,529.4 205.4,529.4 205.4,524.6 
		211.2,524.6 211.2,521.2 205.4,521.2 205.4,516.6 	"/>
	<path class="st2" d="M198.1,524.2c1.3-1.2,2-2.8,2-4.8c0-4.1-2.2-6.2-6.6-6.2h-6.1v19.7h3.8V526h1.9
		C195.2,526,196.8,525.4,198.1,524.2z M191.2,522.7v-6.3h1.7c2.2,0,3.3,1,3.3,3.1c0,2.1-1.1,3.2-3.3,3.2H191.2z"/>
	<path class="st2" d="M180.1,571.8h3.3v-1.2h3.4v1.2h3.3v-11.9h-9.9V571.8z M183.3,563h3.4v4.5h-3.4V563z"/>
	<path class="st2" d="M201.6,565.1l0.8-8.4h-3.5l3.2-4.9v-3.2h-9.4v3h6.2l-2,3c-0.8-0.8-1.7-1.5-2.5-2.2l-1.7,2.3
		c0.9,0.7,1.9,1.4,2.9,2.1h-3.3v3.1h3v7.7c0,1-0.4,1.5-1.3,1.5c-0.5,0-1,0-1.5-0.1c0.2,1.1,0.5,2.2,0.6,3.3c1.2,0,2.1,0,2.6-0.1
		c1.7-0.1,2.6-1.1,2.6-3.1v-9.2h1.6l-0.5,5.3H201.6z"/>
	<path class="st2" d="M113.6,565.1l2.3-2.2c-2.7-2.8-4.6-4.8-5.8-6l-2.2,1.9c0.5,0.5,1.1,1.1,1.7,1.8c-3.5,0.3-6.9,0.5-10.3,0.6
		c5-2,9.7-4.3,14.2-7l-2.2-2.4c-1.2,0.8-2.4,1.5-3.6,2.3l-7.9,0.4c1.8-1,3.6-2,5.3-3c3.5-0.2,6.8-0.5,10-0.8l-0.5-2.8
		c-6.3,0.7-13.4,1-21.2,1c0.2,1.1,0.4,2.1,0.5,3l6.1-0.2c-1.9,1.2-3.7,2.1-5.4,2.8l0.9,3.1c1.7-0.3,4.1-0.5,7.3-0.7
		c-3.1,1.7-6,3.1-8.7,4.2l0.8,3.1c1.9-0.2,4.6-0.5,8.2-0.6v4.1c0,0.4-0.1,0.7-0.3,0.9c-0.2,0.2-0.6,0.2-1.3,0.2
		c-0.9,0-1.7,0-2.5-0.1c0.3,1.1,0.5,2.2,0.6,3.5c1.6,0,2.9,0,3.8-0.1c1,0,1.7-0.3,2.1-0.7c0.5-0.4,0.7-1.1,0.7-2v-6l5.8-0.2
		C112.4,563.8,113,564.4,113.6,565.1z"/>
	<path class="st2" d="M97.9,564.4c-1.7,1.7-3.6,3.2-5.6,4.5c0.7,0.8,1.4,1.7,2.2,2.7c2.1-1.5,4.1-3.1,5.9-4.9L97.9,564.4z"/>
	<path class="st2" d="M223.4,547.2v9.7h3.2v-2.6c0.6,0.6,1.3,1.4,2,2.3c1.2-1.2,2.2-2.8,3.3-4.6h2.3l-1.5,1.2
		c1.2,1.4,2.3,2.8,3.3,4.2l2.6-2c-1-1.1-2.1-2.2-3.3-3.4h5.3v-2.9h-7.3c0.3-0.6,0.5-1.2,0.8-1.9h-3.3c-1.2,2.7-2.5,5-4.1,6.8v-6.8
		H223.4z"/>
	<path class="st2" d="M237.6,567.5c-0.1,0.3-0.3,0.6-0.6,0.7c-0.3,0.2-0.8,0.3-1.3,0.3h-2.7c-1,0-1.5-0.5-1.5-1.5v-2.7h-1.3
		c0.2-0.7,0.4-1.5,0.6-2.4h-3.4c-0.3,2.7-1.1,4.4-2.4,5.2c-1.1,0.9-3.6,1.6-7.6,2.1c0.4,0.8,0.9,1.8,1.6,3.2
		c4.6-0.4,7.7-1.8,9.4-4.1c0,2.3,1.2,3.5,3.6,3.5h4.9c0.9,0,1.6-0.2,2.2-0.5c0.6-0.3,1-0.8,1.2-1.4c0.2-0.6,0.5-2.1,0.8-4.4
		c-1.2-0.5-2.2-0.9-3-1.3C237.8,566,237.7,567.2,237.6,567.5z"/>
	<polygon class="st2" points="219.8,567 223,567 223,560.8 234.3,560.8 234.3,566.4 237.5,566.4 237.5,557.7 219.8,557.7 	"/>
	<path class="st2" d="M210.7,559v-0.7h-3v0.7c0,2.9-0.3,4.9-0.9,6.3c-0.7,1.5-2.5,3-5.3,4.3c0.7,0.9,1.3,1.9,2,3
		c2.7-1.5,4.5-3,5.5-4.5c1.8,1.5,3.5,3,4.9,4.4l2.2-2.4c-1.8-1.6-3.8-3.2-6-4.8C210.5,563.7,210.7,561.6,210.7,559z"/>
	<path class="st2" d="M80,513.1l-6.5,19.7h4.1l1.3-4.5h6.4l1.3,4.5h4.1l-6.3-19.7H80z M79.7,525.1l2-6.9c0.2-0.5,0.3-1.1,0.3-1.7
		h0.1c0.1,0.7,0.1,1.3,0.3,1.7l2,6.8H79.7z"/>
	<polygon class="st2" points="215.5,551.6 215.5,548.4 202.7,548.4 202.7,551.6 207.2,551.6 206.9,553.8 203.1,553.8 203.1,566 
		206.2,566 206.2,556.9 212.1,556.9 212.1,566 215.1,566 215.1,553.8 210,553.8 210.5,551.6 	"/>
	<rect x="218.7" y="547.9" class="st2" width="2.8" height="8.9"/>
	<polygon class="st2" points="249.9,532.8 250.6,532.8 250.6,530.8 	"/>
	<path class="st2" d="M118,551.7h3.5c-0.8,3.1-2.3,6-4.3,8.7c0.6,1,1.1,2.1,1.6,3.2c1.4-1.8,2.7-3.8,3.7-6h4.1
		c-0.3,1.3-0.8,2.6-1.3,3.8c-0.9-0.8-1.7-1.5-2.5-2.2l-1.7,2.1c0.9,0.8,1.8,1.7,2.7,2.7c-1.5,2.1-3.4,3.9-5.8,5.4
		c0.8,0.8,1.6,1.8,2.4,2.9c5.2-3.8,8.3-8.8,9.4-15v-3.1h-6c0.3-0.8,0.6-1.7,0.8-2.6h5.8v-3.3H118V551.7z"/>
	<polygon class="st2" points="120.3,532.8 120.3,513.1 116.6,513.1 116.6,521.1 109,521.1 109,513.1 105.3,513.1 105.3,532.8 
		109,532.8 109,524.7 116.6,524.7 116.6,532.8 	"/>
	<path class="st2" d="M168.4,571.8h3.3v-1.2h3.3v1.2h3.3v-11.9h-9.9V571.8z M171.7,563h3.3v4.5h-3.3V563z"/>
	<path class="st2" d="M157.2,516.3c2,0,3.6,0.4,5,1.3v-4c-1.4-0.6-3.1-0.9-4.9-0.9c-2.9,0-5.3,1-7.1,2.9c-1.8,1.9-2.7,4.5-2.7,7.6
		c0,3.1,0.8,5.5,2.4,7.2c1.6,1.8,3.8,2.6,6.7,2.6c2.5,0,4.6-0.6,6.4-1.7v-9.8h-7.3v3.4h3.6v4c-0.6,0.3-1.4,0.5-2.4,0.5
		c-1.6,0-3-0.6-3.9-1.7c-1-1.1-1.4-2.8-1.4-4.8c0-2,0.5-3.6,1.6-4.9S155.5,516.3,157.2,516.3z"/>
	<polygon class="st2" points="128.5,516.4 128.5,513.1 121.8,513.1 121.8,516.4 123.3,516.4 123.3,529.5 121.8,529.5 121.8,532.8 
		128.5,532.8 128.5,529.5 127,529.5 127,516.4 	"/>
	<path class="st2" d="M136.3,566.6c0,0.5-0.1,0.8-0.2,1.1c-0.1,0.3-0.3,0.5-0.6,0.5c-0.2,0.1-0.6,0.1-1.2,0.1c-0.9,0-2,0-3.1-0.1
		c0.2,0.9,0.5,2.1,0.7,3.7c2.4,0,4,0,4.8-0.1c0.9-0.1,1.5-0.5,2-1.2c0.5-0.7,0.7-1.7,0.7-2.9v-20.5h-3.2V566.6z"/>
	<path class="st2" d="M154.6,559.9h-4.2v-1.6h4.6v-2.8h-2.5c0.5-0.9,1-1.5,1.2-2c-1.3-0.6-2.1-1-2.5-1.2h3.3v-2.8h-4
		c-0.2-0.9-0.5-1.6-0.7-2.3l-3.3,0.6c0.2,0.5,0.4,1.1,0.6,1.7h-4.2v2.8h8c-0.3,0.7-0.8,1.7-1.6,3.1h-1c-0.4-0.9-1-2-1.6-3.1
		l-2.6,1.1c0.4,0.6,0.7,1.3,1,2h-2.6v2.8h4.9v1.6h-4.5v2.8h4.5v4.7c0,0.8-0.3,1.1-0.9,1.1c-0.4,0-0.8,0-1.2-0.1
		c0.6-1.4,1.1-2.9,1.5-4.4l-2.7-0.9c-0.6,2.1-1.3,4-2.1,5.6c1.1,0.4,1.9,0.9,2.5,1.3l0.5-1.1c0.2,0.9,0.4,1.8,0.5,2.9
		c1.5,0,2.5-0.1,3.1-0.2c0.6-0.1,1-0.4,1.3-0.9c0.3-0.5,0.5-1.1,0.5-1.9v-6.1h4.2V559.9z"/>
	<rect x="131.2" y="550.4" class="st2" width="3" height="15.5"/>
	<path class="st2" d="M164.2,571.9v-13.2h1.8v-3.3h-7.1V552c2.6-0.3,4.9-0.7,7.1-1.3l-1.4-3.3c-2.3,0.8-5.2,1.5-8.8,1.9v11.4
		c0,2.4-0.3,4.4-1,6c-0.7-1.5-1.4-2.7-2-3.5l-2.3,1.2c0.7,1.2,1.3,2.4,1.8,3.8l2.4-1.5c-0.5,1.3-1.2,2.3-2.1,3.2
		c0.9,0.7,1.9,1.5,3,2.5c2.2-2.8,3.3-6.9,3.3-12.3v-1.4h2.1v13.2H164.2z"/>
	<path class="st2" d="M145.6,513.1h-3.6v11.2c0,1.3,0,2.2,0.1,2.7h-0.1c-0.1-0.2-0.4-0.7-0.9-1.6l-7.2-12.4h-4.1v19.7h3.6v-11.2
		c0-1.4,0-2.5-0.1-3.1h0.1c0.2,0.4,0.5,0.9,0.8,1.6l7.5,12.7h3.9V513.1z"/>
	<path class="st2" d="M43,513.1l-6.5,19.7h4.1l1.3-4.5h6.4l1.3,4.5h4.1l-6.3-19.7H43z M42.7,525.1l2-6.9c0.2-0.5,0.3-1.1,0.3-1.7
		h0.1c0.1,0.7,0.1,1.3,0.3,1.7l2,6.8H42.7z"/>
	<path class="st2" d="M269.7,515.8c-1.7,2-2.6,4.5-2.6,7.6c0,3,0.8,5.3,2.3,7.1s3.7,2.7,6.3,2.7c2.1,0,3.7-0.4,5-1.1v-3.8
		c-1.3,0.8-2.7,1.3-4.3,1.3c-1.7,0-3-0.6-4-1.8c-1-1.2-1.5-2.7-1.5-4.7c0-2,0.5-3.6,1.6-4.8c1-1.2,2.4-1.8,4.1-1.8
		c1.5,0,2.9,0.4,4.1,1.2v-4c-1.2-0.5-2.6-0.7-4.3-0.7C273.7,512.8,271.4,513.8,269.7,515.8z"/>
	<path class="st2" d="M286.5,523.2L286.5,523.2c0.2,0.5,0.4,0.8,0.5,1l5.3,8.6h4.8l-6.8-10.3l6.3-9.4h-4.5l-5.1,8.2
		c-0.2,0.3-0.3,0.6-0.5,1.1h-0.1v-9.3h-3.8v19.7h3.8V523.2z"/>
	<path class="st2" d="M72.5,523.8c-0.8-0.8-1.8-1.4-3-1.5v-0.1c1-0.3,1.8-0.9,2.4-1.7c0.6-0.8,1-1.7,1-2.8c0-1.4-0.5-2.6-1.6-3.4
		c-1-0.8-2.5-1.2-4.4-1.2h-6.3v19.7h6.6c2,0,3.5-0.5,4.7-1.6c1.1-1.1,1.7-2.5,1.7-4.3C73.6,525.7,73.2,524.6,72.5,523.8z
		 M64.4,516.3H66c2,0,3,0.8,3,2.3c0,0.8-0.2,1.5-0.7,1.9c-0.5,0.5-1.2,0.7-2,0.7h-1.8V516.3z M68.9,528.9c-0.5,0.5-1.3,0.7-2.2,0.7
		h-2.2v-5.4h2.2c1,0,1.7,0.2,2.3,0.7c0.5,0.5,0.8,1.1,0.8,1.9C69.7,527.8,69.4,528.5,68.9,528.9z"/>
	<path class="st2" d="M169.2,532.8h4.1l1.3-4.5h6.4l1.3,4.5h4.1l-6.3-19.7h-4.4L169.2,532.8z M177.7,516.5h0.1
		c0.1,0.7,0.1,1.3,0.3,1.7l2,6.8h-4.7l2-6.9C177.5,517.7,177.6,517.1,177.7,516.5z"/>
	<polygon class="st2" points="250.6,529.4 244,529.4 244,513.1 240.2,513.1 240.2,532.8 249.9,532.8 250.6,530.8 	"/>
	<path class="st2" d="M256.4,513.1l-5.8,17.6v2h3.4l1.3-4.5h6.4l1.3,4.5h4.1l-6.3-19.7H256.4z M256.1,525.1l2-6.9
		c0.2-0.5,0.3-1.1,0.3-1.7h0.1c0.1,0.7,0.1,1.3,0.3,1.7l2,6.8H256.1z"/>
	<path class="st2" d="M236.7,531.2c1.1-1.1,1.7-2.5,1.7-4.3c0-1.3-0.4-2.3-1.1-3.2c-0.8-0.8-1.8-1.4-3-1.5v-0.1
		c1-0.3,1.8-0.9,2.4-1.7c0.6-0.8,1-1.7,1-2.8c0-1.4-0.5-2.6-1.6-3.4c-1-0.8-2.5-1.2-4.4-1.2h-6.3v19.7h6.6
		C234,532.8,235.5,532.3,236.7,531.2z M229.2,516.3h1.6c2,0,3,0.8,3,2.3c0,0.8-0.2,1.5-0.7,1.9c-0.5,0.5-1.2,0.7-2,0.7h-1.8V516.3z
		 M229.2,529.7v-5.4h2.2c1,0,1.7,0.2,2.3,0.7c0.5,0.5,0.8,1.1,0.8,1.9c0,0.9-0.3,1.6-0.8,2c-0.5,0.5-1.3,0.7-2.2,0.7H229.2z"/>
	<path class="st2" d="M108,566.4c2.1,1.7,4,3.3,5.7,4.9l2.2-2.4c-2.2-1.8-4.2-3.4-5.9-4.7L108,566.4z"/>
	<path class="st2" d="M187.8,548.2h-17.1v9.7h17.1V548.2z M184.3,554.7h-10.1v-3.3h10.1V554.7z"/>
	<polygon class="st2" points="95.2,532.8 99,532.8 99,516.6 104,516.6 104,513.1 90.2,513.1 90.2,516.6 95.2,516.6 	"/>
	<path class="st3" d="M259.1,485.6c4.4,0,7.1-2.8,7.1-7.7v-1.9h-4.4v1.6c0,2.5-1,3.7-2.7,3.7s-2.7-1.2-2.7-3.7v-5.3h9.8v-8.2
		c0-4.9-2.7-7.7-7.1-7.7c-4.4,0-7.1,2.8-7.1,7.7v13.8C252,482.8,254.7,485.6,259.1,485.6z M256.4,464.4c0-2.5,1-3.7,2.7-3.7
		s2.7,1.2,2.7,3.7v4.2h-5.4V464.4z"/>
	<rect x="58.4" y="449.3" class="st3" width="4.4" height="35.9"/>
	<rect x="139" y="456.8" class="st3" width="4.4" height="28.3"/>
	<path class="st3" d="M190,461.8c0-3.5-0.3-7.7-0.3-7.7h0.1l4.7,31.1h4.4l4.7-31.1h0.1c0,0-0.3,4.3-0.3,7.7v23.4h4.2v-35.9h-6.8
		l-3.5,22.6c-0.4,2.6-0.6,7-0.6,7h-0.1c0,0-0.2-4.3-0.6-7l-3.5-22.6h-6.8v35.9h4.2V461.8z"/>
	<path class="st3" d="M214.7,469.7c-3.8,2-5.5,4.3-5.5,8.9c0,4.8,2.7,7,5.4,7c2,0,3.7-1,4.6-2.6c0.1,0.7,0.2,1.5,0.3,2.2h4.3
		c-0.4-2-0.5-3.8-0.5-10.1v-9.6c0-5.1-1-9.1-6.5-9.1c-4.4,0-6.9,3.1-6.9,8v1.7h4.4v-1.7c0-2.5,0.8-3.8,2.4-3.8
		c1.7,0,2.2,1.5,2.2,3.4C218.9,467.1,217.6,468.1,214.7,469.7z M218.9,470.9v6.2c0,2.9-1.2,4.3-2.8,4.3c-1.4,0-2.4-0.9-2.4-3.4
		c0-2.6,1-3.9,3-5.2C217.8,472.2,218.4,471.6,218.9,470.9z"/>
	<path class="st3" d="M240.9,473.9l1.6-2.7l4.5,14h4.8l-6.2-18l6-10.3H247l-4.7,8c-0.7,1.1-1.3,3-1.3,3h-0.1v-20.8h-4.4v38.1h4.4
		V473.9z"/>
	<rect x="139" y="447.1" class="st3" width="4.4" height="5.6"/>
	<path class="st3" d="M230,466.9c0-4.2,2.5-5.9,5.8-5.4v-4.9c-2.6-0.1-5,1.2-5.9,3.8v-3.6h-4.3v28.3h4.4V466.9z"/>
	<path class="st3" d="M167.8,485.6c1.5,0,3.3-0.9,3.7-2.2v4.5c0,2.5-1,3.7-2.7,3.7s-2.7-1.2-2.7-3.7v-0.5h-4.4v0.8
		c0,4.9,2.6,7.7,7.1,7.7s7.1-2.8,7.1-7.7v-31.4h-4.2v1.9c-0.5-1.4-2.3-2.3-3.9-2.3c-4.2,0-6.1,2.8-6.1,7.7v13.8
		C161.7,482.9,163.6,485.6,167.8,485.6z M166.1,464.4c0-2.5,1.1-3.7,2.7-3.7c1.7,0,2.7,1.2,2.7,3.7v13.3c0,2.5-1.1,3.7-2.7,3.7
		c-1.7,0-2.7-1.2-2.7-3.7V464.4z"/>
	<path class="st3" d="M150.3,464.4c0-2.5,1-3.7,2.5-3.7c1.6,0,2.5,1.2,2.5,3.7v20.8h4.4v-21.1c0-5-1.7-7.7-5.9-7.7
		c-1.5,0-3.3,0.9-3.7,2.2v-1.8h-4.2v28.3h4.4V464.4z"/>
	<path class="st3" d="M107.9,477.4v-5.2c0-2.8-1.1-4.9-3-5.7c1.5-1,2.5-2.8,2.5-5.2v-4.1c0-4.7-2.1-7.8-7.2-7.8h-6.7v35.9h7.1
		C105.8,485.2,107.9,482.1,107.9,477.4z M97.9,453.7h2.3c1.9,0,2.7,1.4,2.7,3.7v3.7c0,2.3-0.9,3.7-2.7,3.7h-2.3V453.7z M97.9,468.7
		h2.8c1.9,0,2.7,1.4,2.7,3.7v4.9c0,2.3-0.9,3.7-2.7,3.7h-2.8V468.7z"/>
	<path class="st3" d="M116.4,485.6c4.4,0,7.1-2.8,7.1-7.7v-1.9h-4.4v1.6c0,2.5-1,3.7-2.7,3.7s-2.7-1.2-2.7-3.7v-5.3h9.8v-8.2
		c0-4.9-2.7-7.7-7.1-7.7c-4.4,0-7.1,2.8-7.1,7.7v13.8C109.3,482.8,112,485.6,116.4,485.6z M113.7,464.4c0-2.5,1-3.7,2.7-3.7
		c1.7,0,2.7,1.2,2.7,3.7v4.2h-5.4V464.4z"/>
	<path class="st3" d="M268.7,477.7c0,4.8,2.3,8,8,7.5v-4.4c-2.7,0.2-3.6-1-3.6-3.6v-15.9h3.6v-4.5h-3.6v-6.7h-4.4v6.7h-2.1v4.5h2.1
		V477.7z"/>
	<rect x="65.7" y="479.5" class="st3" width="5.2" height="5.7"/>
	<polygon class="st3" points="76.2,485.2 80.6,485.2 80.6,453.7 85.5,453.7 85.5,449.3 71.3,449.3 71.3,453.7 76.2,453.7 	"/>
	<rect x="125.4" y="456.8" class="st3" width="4.4" height="28.3"/>
	<rect x="132.2" y="447.1" class="st3" width="4.4" height="5.6"/>
	<rect x="125.4" y="447.1" class="st3" width="4.4" height="5.6"/>
	<path class="st3" d="M128.5,491.2v4.6c5.7,0.5,8.1-2.5,8.1-7.8v-31.2h-4.4v30.9C132.2,490.3,131.3,491.4,128.5,491.2z"/>
	<path class="st4" d="M415.3,3.6c2,0,3.7-1,4.6-2.6c0.1,0.7,0.2,1.5,0.3,2.2h4.3c-0.2-0.9-0.3-1.8-0.4-3.1h-13.7
		C411.4,2.5,413.3,3.6,415.3,3.6z"/>
	<rect x="440.9" y="0.1" class="st4" width="5.2" height="3.1"/>
	<path class="st4" d="M437.5,3.2V0.1h-7.1C431.6,2.3,433.8,3.5,437.5,3.2z"/>
	<path class="st4" d="M399.5,3.6c3.1,0,5.2-1.3,6.4-3.5h-12.7C394.4,2.4,396.6,3.6,399.5,3.6z"/>
	<path class="st4" d="M322.1,208.4c-1.5,0-3.3,0.9-3.7,2.2v-1.8h-4.2v28.3h4.4v-20.8c0-2.5,1-3.7,2.5-3.7c1.6,0,2.5,1.2,2.5,3.7
		v20.8h4.4v-21.1C328,211.1,326.3,208.4,322.1,208.4z"/>
	<path class="st4" d="M304.7,229.6c0,2.5-1,3.7-2.5,3.7c-1.6,0-2.5-1.2-2.5-3.7v-20.8h-4.4v21.1c0,5,1.7,7.7,5.9,7.7
		c1.5,0,3.3-0.9,3.7-2.2v1.8h4.2v-28.3h-4.4V229.6z"/>
	<rect x="332.7" y="231.5" class="st4" width="5.2" height="5.7"/>
	<path class="st4" d="M283.1,214.9c-1.7-1.9-2.1-3.4-2.1-5.6c0-2.5,0.9-4.1,2.8-4.1c1.7,0,2.7,1.2,2.7,3.7v3.8h4.4v-4.1
		c0-4.9-2.6-7.7-7.1-7.7c-5,0-7.2,3.6-7.2,8.4c0,3.5,0.7,5.8,3,8.5l5,5.8c1.7,1.9,2.1,3.4,2.1,5.6c0,2.7-1,4.1-3.1,4.1
		c-1.5,0-2.8-1.2-2.8-3.7v-3.8h-4.4v4.1c0,5,2.9,7.7,7.2,7.7c5,0,7.5-3.6,7.5-8.4c0-3.5-0.7-5.8-3-8.5L283.1,214.9z"/>
	<path class="st4" d="M400.6,525.9c-0.4,2.6-0.6,7-0.6,7H400c0,0-0.2-4.3-0.6-7l-3.5-22.6h-6.8v35.9h4.2v-23.4
		c0-3.5-0.3-7.7-0.3-7.7h0.1l4.7,31.1h4.4l4.7-31.1h0.1c0,0-0.3,4.3-0.3,7.7v23.4h4.2v-35.9h-6.8L400.6,525.9z"/>
	<path class="st4" d="M423.1,539.6c4.4,0,7.1-2.8,7.1-7.7v-13.8c0-4.9-2.7-7.7-7.1-7.7c-4.4,0-7.1,2.8-7.1,7.7v13.8
		C416,536.8,418.7,539.6,423.1,539.6z M420.4,518.4c0-2.5,1.1-3.7,2.7-3.7c1.7,0,2.7,1.2,2.7,3.7v13.3c0,2.5-1.1,3.7-2.7,3.7
		c-1.7,0-2.7-1.2-2.7-3.7V518.4z"/>
	<path class="st4" d="M439.2,518.4c0-2.5,1-3.7,2.5-3.7c1.6,0,2.5,1.2,2.5,3.7v20.8h4.4v-21.1c0-5-1.7-7.7-5.9-7.7
		c-1.5,0-3.3,0.9-3.7,2.2v-1.8h-4.2v28.3h4.4V518.4z"/>
	<rect x="453.4" y="533.5" class="st4" width="5.2" height="5.7"/>
	<rect x="288.6" y="185.5" class="st4" width="5.2" height="5.7"/>
	<path class="st4" d="M277.6,191.2h4.4v-6.7h2.6v-4.1H282v-25.2h-5.7l-8.4,25.5v3.7h9.6V191.2z M272.3,180.4l5.9-20.4
		c0,0-0.6,3.3-0.6,6.6v13.8H272.3z"/>
	<path class="st4" d="M305.8,154.8c-4.4,0-7.2,2.9-7.2,7.8v21.2c0,4.9,2.8,7.8,7.2,7.8s7.2-2.9,7.2-7.8v-21.2
		C313,157.7,310.2,154.8,305.8,154.8z M308.6,183.6c0,2.5-1.1,3.7-2.8,3.7s-2.8-1.2-2.8-3.7v-20.8c0-2.5,1.1-3.7,2.8-3.7
		s2.8,1.2,2.8,3.7V183.6z"/>
	<path class="st4" d="M331.9,174.4c0-3.9-1.4-7.3-5.5-7.3c-1.6,0-3.1,0.8-4,2l0.5-9.5h8.5v-4.3h-12.7l-0.8,19.4h4.4v-0.2
		c0-2.1,1.1-3.3,2.6-3.3c1.6,0,2.5,1.2,2.5,3.3v9.1c0,2.5-1.1,3.7-2.8,3.7c-1.7,0-2.7-1.2-2.7-3.7v-3.8h-4.4v4
		c0,4.9,2.6,7.8,7.1,7.8c4.4,0,7.2-2.9,7.2-7.8V174.4z"/>
	<rect x="408.3" y="490.5" class="st4" width="5.2" height="5.7"/>
	<path class="st4" d="M425.5,496.6c4.4,0,7.2-2.9,7.2-7.8v-21.2c0-4.9-2.8-7.8-7.2-7.8c-4.4,0-7.2,2.9-7.2,7.8v21.2
		C418.3,493.8,421.1,496.6,425.5,496.6z M422.8,467.8c0-2.5,1.1-3.7,2.8-3.7c1.7,0,2.8,1.2,2.8,3.7v20.8c0,2.5-1.1,3.7-2.8,3.7
		c-1.7,0-2.8-1.2-2.8-3.7V467.8z"/>
	<path class="st4" d="M444.8,496.6c4.4,0,7.1-2.9,7.1-7.8v-6.9c0-5-2-7.8-6.1-7.8c-1.5,0-3.2,0.9-3.7,2.2v-8.5c0-2.5,1-3.7,2.6-3.7
		s2.6,1.2,2.6,3.7v3.8h4.4v-4c0-4.9-2.6-7.8-7-7.8s-7.1,2.9-7.1,7.8v21.2C437.7,493.8,440.4,496.6,444.8,496.6z M442.1,482.1
		c0-2.5,1-3.7,2.7-3.7c1.7,0,2.7,1.2,2.7,3.7v6.5c0,2.5-1,3.7-2.7,3.7c-1.7,0-2.7-1.2-2.7-3.7V482.1z"/>
	<path class="st4" d="M397.3,496.2h4.4v-6.7h2.6v-4.1h-2.6v-25.2h-5.7l-8.4,25.5v3.7h9.6V496.2z M392,485.4l5.9-20.4
		c0,0-0.6,3.3-0.6,6.6v13.8H392z"/>
	<path class="st4" d="M284.4,717.5v-4.1h-2.6v-25.2h-5.7l-8.4,25.5v3.7h9.6v2.6h4.4v-2.6H284.4z M277.3,699.7v13.8H272l5.9-20.4
		C278,693.1,277.3,696.4,277.3,699.7z"/>
	<rect x="288.3" y="718.5" class="st4" width="5.2" height="1.6"/>
	<path class="st4" d="M322.2,716.6V714h-4.4v2.8c0,1.2,0.2,2.3,0.5,3.3h5.5C322.8,719.7,322.2,718.6,322.2,716.6z"/>
	<path class="st4" d="M331.9,695.6c0-4.9-2.7-7.8-7.1-7.8c-4.4,0-7.1,2.9-7.1,7.8v6.9c0,5,2,7.8,6.1,7.8c1.5,0,3.2-0.9,3.7-2.2v8.5
		c0,1.9-0.6,3-1.6,3.5h5.5c0.3-1,0.5-2,0.5-3.3V695.6z M327.5,702.3c0,2.5-1,3.7-2.7,3.7c-1.7,0-2.7-1.2-2.7-3.7v-6.5
		c0-2.5,1-3.7,2.7-3.7c1.7,0,2.7,1.2,2.7,3.7V702.3z"/>
	<path class="st4" d="M312.8,695.6c0-4.9-2.8-7.8-7.2-7.8s-7.2,2.9-7.2,7.8v21.2c0,1.2,0.2,2.3,0.5,3.3h5.6c-1-0.4-1.7-1.6-1.7-3.5
		v-20.8c0-2.5,1.1-3.7,2.8-3.7s2.8,1.2,2.8,3.7v20.8c0,1.9-0.7,3-1.7,3.5h5.6c0.3-1,0.5-2,0.5-3.3V695.6z"/>
	<rect x="543.1" y="678.8" class="st3" width="4.4" height="28.3"/>
	<path class="st3" d="M506.1,687.5c0-5.1-1-9.1-6.5-9.1c-4.4,0-6.9,3.1-6.9,8v1.7h4.4v-1.7c0-2.5,0.8-3.8,2.4-3.8
		c1.7,0,2.2,1.5,2.2,3.4c0,3.1-1.3,4.1-4.3,5.7c-3.8,2-5.5,4.3-5.5,8.9c0,4.8,2.7,7,5.4,7c2,0,3.7-1,4.6-2.6
		c0.1,0.7,0.2,1.5,0.3,2.2h4.3c-0.4-2-0.5-3.8-0.5-10.1V687.5z M501.6,699.1c0,2.9-1.2,4.3-2.8,4.3c-1.4,0-2.4-0.9-2.4-3.4
		c0-2.6,1-3.9,3-5.2c1.1-0.7,1.8-1.3,2.2-1.9V699.1z"/>
	<path class="st3" d="M477.5,693.9c-0.4,2.6-0.6,7-0.6,7h-0.1c0,0-0.2-4.4-0.6-7l-3.5-22.6H466v35.9h4.2v-23.4
		c0-3.5-0.3-7.7-0.3-7.7h0.1l4.7,31.1h4.4l4.7-31.1h0.1c0,0-0.3,4.3-0.3,7.7v23.4h4.2v-35.9H481L477.5,693.9z"/>
	<path class="st3" d="M528.8,686.4c0-2.5,1-3.7,2.5-3.7c1.6,0,2.5,1.2,2.5,3.7v20.8h4.4v-21.1c0-5-1.7-7.7-5.9-7.7
		c-1.5,0-3.3,0.9-3.7,2.2v-1.8h-4.2v28.3h4.4V686.4z"/>
	<rect x="543.1" y="669.1" class="st3" width="4.4" height="5.6"/>
	<path class="st3" d="M515.3,688.9c0-4.2,2.5-5.9,5.8-5.4v-4.9c-2.6-0.1-5,1.2-5.9,3.8v-3.6h-4.3v28.3h4.4V688.9z"/>
	<path class="st5" d="M359.7,211.2c8.6,0,15.5-6.9,15.5-15.5c0-8.6-6.9-15.5-15.5-15.5c-8.6,0-15.5,6.9-15.5,15.5
		C344.2,204.2,351.1,211.2,359.7,211.2z"/>
	<path class="st5" d="M359.7,513.2c8.6,0,15.5-6.9,15.5-15.5c0-8.6-6.9-15.5-15.5-15.5c-8.6,0-15.5,6.9-15.5,15.5
		C344.2,506.2,351.1,513.2,359.7,513.2z"/>
	<path class="st5" d="M359.7,710.2c-6.6,0-12.2,4.1-14.5,9.9h28.9C371.9,714.3,366.3,710.2,359.7,710.2z"/>
</g>
<g>
</g>
<g>
</g>
<g>
</g>
<g>
</g>
<g>
</g>
<g>
</g>
<g>
</g>
<g>
</g>
<g>
</g>
<g>
</g>
<g>
</g>
<g>
</g>
<g>
</g>
<g>
</g>
<g>
</g>
</svg>
