<?xml version="1.0" encoding="utf-8"?>
<!-- Generator: Adobe Illustrator 17.0.0, SVG Export Plug-In . SVG Version: 6.00 Build 0)  -->
<!DOCTYPE svg PUBLIC "-//W3C//DTD SVG 1.1//EN" "http://www.w3.org/Graphics/SVG/1.1/DTD/svg11.dtd">
<svg version="1.1" id="Layer_1" xmlns="http://www.w3.org/2000/svg" xmlns:xlink="http://www.w3.org/1999/xlink" x="0px" y="0px"
	 width="720px" height="719.7px" viewBox="0 0 720 719.7" style="enable-background:new 0 0 720 719.7;" xml:space="preserve">
<style type="text/css">
	.st0{fill:none;}
	.st1{fill:#DF9431;}
	.st2{fill:#010101;}
</style>
<g id="brand-6.svg">
	<polygon class="st0" points="540,61.5 486.3,0 0,0 0,127.1 720,127.1 720,0 594.6,0 	"/>
	<polygon class="st1" points="594.6,0 486.3,0 540,61.5 	"/>
	<rect x="153.4" y="223.6" class="st1" width="7.8" height="1.2"/>
	<rect x="334.3" y="187.9" class="st1" width="3.3" height="4.5"/>
	<rect x="336.8" y="176.3" class="st1" width="10.1" height="3.3"/>
	<path class="st1" d="M482.4,215.3h-2.2v2.1h1.8C482.2,216.7,482.3,216,482.4,215.3z"/>
	<rect x="293.4" y="189.5" class="st1" width="5.3" height="1.3"/>
	<rect x="548.7" y="224" class="st1" width="11.7" height="2.6"/>
	<rect x="372.6" y="176.9" class="st1" width="2.3" height="2.1"/>
	<rect x="293.4" y="192.9" class="st1" width="5.3" height="1.3"/>
	<rect x="247.7" y="215" class="st1" width="5" height="2.5"/>
	<rect x="247.7" y="209.9" class="st1" width="5" height="2.5"/>
	<rect x="323.6" y="221.1" class="st1" width="11.2" height="5.5"/>
	<rect x="356" y="209.9" class="st1" width="5" height="2.5"/>
	<rect x="502.3" y="222.8" class="st1" width="9" height="3.5"/>
	<rect x="346" y="187.9" class="st1" width="3.4" height="4.5"/>
	<rect x="172.1" y="220.9" class="st1" width="4.8" height="1.8"/>
	<path class="st1" d="M369.9,181.3h-2.2v2.1h1.8C369.7,182.8,369.8,182.1,369.9,181.3z"/>
	<rect x="172.1" y="216.3" class="st1" width="4.8" height="1.8"/>
	<rect x="256" y="215" class="st1" width="5" height="2.5"/>
	<rect x="367.7" y="176.9" class="st1" width="2.2" height="2.1"/>
	<path class="st1" d="M374.9,181.3h-2.3c0,0.7-0.1,1.4-0.3,2.1h2.6V181.3z"/>
	<rect x="256" y="209.9" class="st1" width="5" height="2.5"/>
	<rect x="287" y="182.9" class="st1" width="9.7" height="1.1"/>
	<rect x="386.1" y="186" class="st1" width="11.5" height="5.5"/>
	<rect x="485.4" y="180.4" class="st1" width="12.8" height="1.4"/>
	<rect x="485.1" y="210.8" class="st1" width="2.3" height="2.1"/>
	<rect x="458.5" y="221.9" class="st1" width="3.4" height="4.5"/>
	<rect x="485.4" y="184.1" class="st1" width="12.8" height="1.4"/>
	<rect x="386.1" y="177.2" class="st1" width="11.5" height="5.3"/>
	<rect x="424.1" y="223.6" class="st1" width="10.7" height="3.5"/>
	<rect x="347.6" y="209.9" class="st1" width="5" height="2.5"/>
	<rect x="485.4" y="176.8" class="st1" width="12.8" height="1.4"/>
	<path class="st1" d="M434.2,211.4H425c1.3,1.2,2.8,2.2,4.5,3C431.2,213.6,432.8,212.5,434.2,211.4z"/>
	<rect x="446.8" y="221.9" class="st1" width="3.3" height="4.5"/>
	<rect x="449.3" y="210.3" class="st1" width="10.1" height="3.3"/>
	<rect x="466.1" y="190.4" class="st1" width="7.8" height="2.4"/>
	<rect x="578.2" y="221.2" class="st1" width="3.8" height="1.9"/>
	<path class="st1" d="M487.4,215.3h-2.3c0,0.7-0.1,1.4-0.3,2.1h2.6V215.3z"/>
	<rect x="578.2" y="216.6" class="st1" width="3.8" height="1.9"/>
	<rect x="347.6" y="215" class="st1" width="5" height="2.5"/>
	<rect x="218.5" y="180.3" class="st1" width="4.8" height="1.6"/>
	<rect x="153.4" y="220.2" class="st1" width="7.8" height="1.2"/>
	<rect x="218.5" y="184.4" class="st1" width="4.8" height="1.6"/>
	<path class="st1" d="M239.8,188.4c0.9,0.9,1.8,1.9,2.5,2.8c2.4-1.2,4.4-2.6,6.1-4.2h-6.6C241.2,187.5,240.5,187.9,239.8,188.4z"/>
	<rect x="285" y="192.9" class="st1" width="5.2" height="1.3"/>
	<path class="st1" d="M280.5,224.9c0,1.5,0.7,2.3,2.2,2.3h2.1c1.6,0,2.5-0.6,2.6-1.7c0.2-0.8,0.3-1.8,0.4-2.8h-7.4V224.9z"/>
	<path class="st1" d="M240.7,179.9c1.9-0.8,3.8-1.9,5.8-3.3h-8.1c-0.2,0.2-0.3,0.3-0.5,0.5C238.9,178,239.9,179,240.7,179.9z"/>
	<path class="st1" d="M0,719.7h720V127.1H0V719.7z M164.4,227.5c0,1-0.2,1.9-0.7,2.4s-1.1,0.9-1.9,1c-0.8,0.1-2.4,0.1-4.9,0.1
		c-0.2-0.8-0.4-1.7-0.7-2.7c2,0.1,3.2,0.2,3.6,0.2c0.9,0,1.3-0.4,1.3-1.2v-0.3h-7.8v4.1h-3.2v-13.1h14.2V227.5z M180.2,227.3
		c0,1.1-0.2,1.9-0.7,2.5c-0.5,0.6-1.2,0.9-2,1c-0.9,0.1-1.9,0.1-3.1,0.1c-0.3-1.5-0.5-2.6-0.7-3.4c1.2,0.1,1.9,0.1,2.1,0.1
		c0.8,0,1.2-0.5,1.2-1.4v-0.8h-4.8v5.5h-3.2v-17.7h11.3V227.3z M189.8,226.9c0,1.1-0.2,2-0.7,2.7c-0.5,0.6-1.1,1-2,1.1
		c-0.8,0.1-2.4,0.2-4.5,0.2c-0.1-1-0.4-2.2-0.7-3.6c1.4,0.1,2.5,0.1,3.3,0.1c0.9,0,1.4-0.5,1.4-1.6v-12.9h3.2V226.9z M181.9,225.7
		v-12.1h3v12.1H181.9z M240.8,229.6h-23v-3.8h23V229.6z M219.3,212v-3.8h20v3.8H219.3z M238.2,216.8v3.7h-17.8v-3.7H238.2z
		 M266,230.3h-23.2v-3.1h10v-1.9h-8.8v-3h8.8v-1.8h-8.3V207h19.9v13.4H256v1.8h8.8v3H256v1.9h10V230.3z M304.4,230.3
		c-0.9-1.3-2-2.8-3.2-4.3l2.2-2c1,1.2,2.2,2.6,3.6,4L304.4,230.3z M340.8,213.6h-9.6v4.2h7.1V231h-3.4v-1.2h-11.2v1.2h-3.4v-13.2
		h7.3v-4.2h-9.6v-3.3h9.6V206h3.6v4.3h9.6V213.6z M365.9,230.3h-23.2v-3.1h10v-1.9h-8.8v-3h8.8v-1.8h-8.3V207h19.9v13.4H356v1.8h8.8
		v3H356v1.9h10V230.3z M377.2,231h-3.6v-4.3l-5.5,2l-0.6-3.9c2.1-0.6,4.2-1.2,6.2-1.8v-6.9h-5.7v-3.3h5.7v-6.2h3.6V231z M415.8,230
		h-21.9v-22.5h21.2v3.4h-17.8v15.7h18.5V230z M398.2,213.8l2.3-2.5l5.3,4.9c1.4-1.6,2.6-3.3,3.8-5.1l3,2.1c-1.3,1.9-2.7,3.7-4.2,5.4
		l5.3,5.3l-2.8,2.6c-1.6-1.8-3.3-3.5-5-5.2c-1.8,1.9-3.7,3.6-5.7,5.2c-0.4-0.5-1.2-1.4-2.4-2.7c2-1.5,3.8-3.2,5.6-5
		C401.7,217.1,400,215.4,398.2,213.8z M438,231.1h-3.2v-1.2h-10.7v1.2h-3.2v-10.3H438V231.1z M465.2,230.7h-3.3v-1.2h-3.4v1.2h-3.3
		v-11.9h9.9V230.7z M466.1,197.2h-3.3v-9.7h14.3v9.7H474v-1.3h-7.8V197.2z M477.2,183.4v2.7h-14.3v-2.7H477.2z M462.9,182.1v-2.7
		h14.3v2.7H462.9z M475.8,230.9h-2.7v-8.7h-1.7c-0.1,3.5-0.6,6.5-1.6,9c-0.8-0.7-1.6-1.5-2.5-2.1c0.9-2.3,1.4-5.7,1.4-10.2v-12h2.7
		v7.1h1.6v-7.6h2.7v7.6h1v2.8h-5.3v2.6h4.3V230.9z M491,226.4h-4v4.7h-3v-4.7h-7.8v-2.9h3.1c-0.5-0.5-0.9-0.9-1.5-1.4
		c1-0.6,1.8-1.3,2.5-2h-3v-11.9h3.2c0.2-0.7,0.4-1.5,0.5-2.3l3.5,0.5c-0.2,0.6-0.4,1.2-0.6,1.8h6.3v11.9h-6.4
		c-0.7,1.3-1.6,2.4-2.8,3.4h3v-2.7h3v2.7h4V226.4z M490.5,193.9h2.8c0.9,0,1.5-0.2,1.8-0.5s0.6-1.3,0.8-2.8c1.3,0.8,2.4,1.4,3.1,1.8
		c-0.6,2-1.2,3.2-1.9,3.7c-0.7,0.5-1.5,0.7-2.6,0.7h-5.4c-2.4,0-3.6-1.1-3.6-3.3v-4.2h3.3v3.4C489,193.5,489.5,193.9,490.5,193.9z
		 M515.5,217.4h-8.1v2.3h7.1v11.2h-3.2v-1.6h-9v1.6h-3.2v-11.2h5v-7.5h3.3v2.1h8.1V217.4z M563.7,231.1h-3.4v-1.2h-11.7v1.3h-3.4
		v-10.3h18.4V231.1z M580.4,206.5c-0.3,0.7-0.6,1.5-0.9,2.2h10.7l-0.1,9.7l-0.1,6.8c-0.1,1.8-0.4,3.1-1.1,4
		c-0.7,0.9-1.5,1.4-2.5,1.5c-1,0.1-2.7,0.1-5.3,0.1c-0.2-1.2-0.4-2.4-0.7-3.5c1.6,0.2,3,0.2,4.3,0.2c0.5,0,0.9-0.1,1.3-0.4
		s0.6-0.6,0.7-1.1c0.1-0.5,0.2-3.9,0.3-10.2l0-3.7h-9.2c-0.4,0.6-0.8,1.2-1.2,1.8h8.3v12h-6.6v1.4h-2.8v-11.9
		c-0.2,0.3-0.5,0.6-0.7,0.8c-0.8-1-1.5-1.9-2.1-2.6c2-2.2,3.6-4.7,4.5-7.6C578.1,206.1,579.2,206.3,580.4,206.5z M570.7,206.3
		c1.1,1.5,2.1,3.1,3,4.6c-0.7,0.5-1.7,1.1-2.8,1.8c-0.9-1.7-1.8-3.3-2.8-4.8L570.7,206.3z M567.5,214.5h5.1v10.6l2-1.7
		c0,1.3,0.1,2.6,0.3,3.9c-1.7,1.2-3.1,2.4-4.3,3.6l-1.7-2.5c0.5-0.6,0.8-1.3,0.8-2.1v-8.5h-2.1V214.5z M564.7,220.9
		c-3.7-1-6.3-3-7.8-5.8c-1.1,2.5-3.8,4.4-7.9,5.6c-0.4-0.9-1-1.9-1.8-3.2c2.4-0.5,4.3-1.1,5.6-2c1.3-0.9,2.1-2.3,2.5-4.3h3.2
		c-0.1,0.4-0.2,0.7-0.3,1c1,2.8,3.7,4.6,7.9,5.3C565.6,218.6,565.1,219.8,564.7,220.9z M554.9,206.2c-0.2,0.5-0.4,1-0.6,1.5h11.1
		v2.7c-0.7,1.3-1.4,2.7-2,4l-3-1c0.6-1.2,1.1-2,1.4-2.6h-9c-0.6,1.1-1.4,2.3-2.2,3.6c-0.9-0.7-1.7-1.3-2.6-1.9
		c1.6-2.1,2.8-4.2,3.6-6.4L554.9,206.2z M544.9,205.8c1.3,1.2,2.5,2.4,3.6,3.6c-0.7,0.7-1.5,1.4-2.4,2.4c-1-1.3-2.1-2.6-3.4-3.9
		L544.9,205.8z M546.7,212c0.9,0.9,1.7,1.6,2.3,2.2l-4.5,6.9l-2.4-2.1C544.1,216.1,545.6,213.8,546.7,212z M519,210.1h8.8
		c0-1.4,0.1-2.8,0.1-4.1h3.1c0,1.5,0,2.9,0,4.1h8.7v16.6c0,1.3-0.3,2.2-0.8,2.9c-0.5,0.7-1.3,1.1-2.4,1.1c-1,0.1-2.5,0.1-4.3,0.1
		c-0.2-1-0.4-2.1-0.7-3.3c1.1,0.1,2.1,0.1,3.1,0.1c0.5,0,0.9,0,1.2-0.1c0.2-0.1,0.4-0.2,0.5-0.5c0.1-0.3,0.2-0.6,0.2-1v-12.6h-5.6
		c-0.1,1.4-0.2,2.5-0.4,3.5c1.6,1.3,3.6,2.9,5.8,4.8l-2.4,2.6c-1.1-1.2-2.6-2.7-4.5-4.5c-1,1.8-2.5,3.5-4.5,4.9
		c-0.8-1-1.6-1.9-2.5-2.7c3.4-2.2,5.2-5,5.4-8.6h-5.5V231H519V210.1z M515.3,190.4h3.4l-1.9,6.9h-2.8L515.3,190.4z M507.9,208.8h8
		v3.1h-18.3v5.7c0,6.4-0.8,10.9-2.5,13.7c-0.9-0.9-1.8-1.7-2.8-2.5c1.4-2.6,2-6.5,2-11.6v-8.4h9.3c-0.2-0.6-0.5-1.2-0.7-1.8l3.9-1
		C507.2,206.9,507.6,207.8,507.9,208.8z M500.8,195.3c-0.7-1.8-1.6-3.7-2.7-5.5l2.7-1.4c1.3,2.3,2.2,4.1,2.8,5.3L500.8,195.3z
		 M482.3,174.2h7c0.2-0.7,0.4-1.4,0.5-2.1l4.1,0.5l-0.7,1.7h8.3v14h-8.2l2.1,2.7l-2.6,2c-0.6-0.9-1.4-2.2-2.5-3.7l1.5-1h-9.2V174.2z
		 M482.1,188.9l3,1.1c-1,2.8-1.8,4.7-2.3,5.9l-2.8-1.4C480.8,192.7,481.5,190.8,482.1,188.9z M470.9,172.1c0.4,0.8,0.8,1.8,1.3,3
		h6.4v2.9h-16.6v-2.9h6.4c-0.3-0.7-0.6-1.5-1-2.3L470.9,172.1z M459.1,172.2l3.1,0.9c-0.6,2-1.2,3.9-1.8,5.7v18.4h-3V186
		c-0.6,1.1-1.1,2.1-1.7,3c-0.2-1.4-0.4-2.9-0.8-4.8C456.4,181.3,457.8,177.3,459.1,172.2z M445.8,207.1h17.1v9.7h-17.1V207.1z
		 M443.5,218.8h9.9v11.9h-3.3v-1.2h-3.3v1.2h-3.3V218.8z M437.7,173.8h3.3l-2.4,6.1h-2.4L437.7,173.8z M432.5,173.8h3.3l-2.4,6.1
		h-2.4L432.5,173.8z M424.2,206l3.3,0.6c-0.3,0.6-0.7,1.2-1.1,1.8h12.3v2.9c-1.5,1.7-3.3,3.2-5.3,4.5c2.3,0.6,4.9,0.9,7.8,1
		c-0.5,1.3-1,2.5-1.3,3.6c-4-0.4-7.4-1.3-10.3-2.6c-3.1,1.3-6.6,2.3-10.7,2.9c-0.3-0.9-0.8-2-1.3-3.3c3.1-0.3,5.9-0.8,8.3-1.6
		c-1.2-0.8-2.2-1.7-3.2-2.7c-1,1-2,1.9-3.2,2.8c-0.5-0.9-1.2-1.8-2-2.8C420.5,211.2,422.7,208.8,424.2,206z M418.7,174.1l-0.4,13.7
		h-3l-0.4-13.7H418.7z M415.3,190.5c0.4-0.4,0.9-0.6,1.5-0.6c0.6,0,1.1,0.2,1.5,0.6c0.4,0.4,0.6,0.9,0.6,1.5c0,0.6-0.2,1.1-0.6,1.5
		c-0.4,0.4-0.9,0.6-1.5,0.6c-0.6,0-1.1-0.2-1.5-0.6c-0.4-0.4-0.6-0.9-0.6-1.5C414.6,191.4,414.8,190.9,415.3,190.5z M382.5,173.6
		h18.8v23.3h-3.7v-1.8h-11.5v1.8h-3.7V173.6z M380.2,206.5h3.6v7.5c1.9-1.4,3.6-2.7,5.1-4.1l2.5,3c-2.4,1.8-4.9,3.6-7.6,5.4v7.5
		c0,1,0.5,1.4,1.5,1.4h0.6c0.4,0,0.7-0.1,1-0.4c0.3-0.2,0.5-0.6,0.6-1.1c0.1-0.5,0.3-2.1,0.4-4.7l3.4,1.1c-0.1,1.8-0.3,3.3-0.5,4.5
		c-0.2,1.3-0.6,2.2-1.3,2.8c-0.7,0.6-1.7,1-2.9,1h-2.1c-2.8,0-4.2-1.3-4.2-4V206.5z M364.8,174.2h3.2c0.2-0.7,0.4-1.5,0.5-2.3
		l3.5,0.5c-0.2,0.6-0.4,1.2-0.6,1.8h6.3v11.9h-6.4c-0.7,1.3-1.6,2.4-2.8,3.4h3v-2.7h3v2.7h4v2.9h-4v4.7h-3v-4.7h-7.8v-2.9h3.1
		c-0.5-0.5-0.9-0.9-1.5-1.4c1-0.6,1.8-1.3,2.5-2h-3V174.2z M356.3,184.9v-12h2.7v7.1h1.6v-7.6h2.7v7.6h1v2.8H359v2.6h4.3V197h-2.7
		v-8.7H359c-0.1,3.5-0.6,6.5-1.6,9c-0.8-0.7-1.6-1.5-2.5-2.1C355.9,192.9,356.3,189.5,356.3,184.9z M352.7,196.7h-3.3v-1.2H346v1.2
		h-3.3v-11.9h9.9V196.7z M333.3,173.1h17.1v9.7h-17.1V173.1z M331.1,184.8h9.9v11.9h-3.3v-1.2h-3.3v1.2h-3.3V184.8z M325.2,173.8
		h2.4l-1.5,6.1h-3.3L325.2,173.8z M320,173.8h2.4l-1.4,6.1h-3.4L320,173.8z M315.8,211.9v3.5h-9.4c1.7,5.8,5,9.8,9.9,11.9
		c-0.8,1-1.8,2.3-2.8,3.7c-4.2-2.8-7.2-7-9-12.6c-1.2,4.3-4.2,8.6-9.3,12.8c-1.1-1.5-2.1-2.7-2.8-3.4c5.5-3.4,8.7-7.6,9.4-12.4h-8.9
		v-3.5h9.4c0.2-1.7,0.2-3.6,0.2-5.7h3.7c0,1.8-0.1,3.7-0.2,5.7H315.8z M299.9,180.8v5.5h-16.2v-5.5H299.9z M284.5,179.7v-2.2h14.7
		v2.2H284.5z M301.8,187.3v10h-3.2v-1H285v1h-3.2v-10H301.8z M280.8,174h9.2c-0.2-0.6-0.4-1.1-0.6-1.6l4-0.4c0.2,0.5,0.4,1.2,0.6,2
		h8.9v5.9h-3.2v-3.3H284v3.3h-3.2V174z M290.6,209.1v3.2h-10.1v7.1h4.9v-5.9h3.3v9c1,0.5,1.9,0.8,2.6,1.1c-0.3,1.6-0.6,2.9-0.9,4
		c-0.4,1.8-2.1,2.8-4.9,2.8h-3.9c-3,0-4.5-1.6-4.5-4.8v-2.9h-7.7v-8.9h3.3v5.8h4.5v-7.1h-9.2v-3.2h9.2v-2.9h3.4v2.9H290.6z
		 M255.2,188.5h9.8v-3.4h-7.3v-3.1h7.3v-3.4h-8.5v-3.2h8.5v-3.2h3.7v3.2h8.6v3.2h-8.6v3.4h7.5v3.1h-7.5v3.4h9.8v3.2h-9.8v5.5H265
		v-5.5h-9.8V188.5z M235.6,178.8c-0.9,0.6-1.9,1.2-3,1.8c-0.6-0.9-1.3-1.9-2.1-2.9c3.2-1.3,6-3.1,8.3-5.5h3.9
		c-0.4,0.6-0.9,1.1-1.4,1.7h9.7v2.6c-2.1,2.2-4.8,4.1-8.1,5.8h3.9c-0.6,0.7-1.2,1.3-1.8,1.9h7.5v2.6c-4.6,6-11.5,9.6-20.9,10.8
		c-0.4-1.2-0.9-2.3-1.5-3.3c3.3-0.3,6.3-0.9,9.1-1.9c-0.6-0.8-1.3-1.6-2.1-2.5c-1.4,0.7-2.9,1.4-4.4,2c-0.6-1.1-1.2-2.1-1.9-3.1
		c5-1.4,9-3.6,12.1-6.4c-3.2,1.7-7,3.1-11.4,4.2c-0.5-1.3-1-2.4-1.5-3.3c2.7-0.5,5.3-1.1,7.6-1.9
		C237.1,180.4,236.4,179.6,235.6,178.8z M208.6,190.1l1.8-1.3h-3v-11.2h8v-1.5h-9.8v-2.9h22.7v2.9h-9.6v1.5h8v12.6h-3.2v-1.4h-4.8
		c-0.1,1.4-0.4,2.5-0.9,3.4c2.8,0.7,6.5,1.1,11,1.2l-1.8,3.5c-5.2-0.2-9.1-0.9-11.8-2.1c-1.7,1-4.3,1.8-7.7,2.4
		c-0.5-0.9-1.3-2-2.3-3.3c2.9-0.3,5.1-0.7,6.6-1.1C210.4,191.9,209.4,191,208.6,190.1z M198.2,206l2.9,1.9c-2,2.7-4.3,5.3-6.9,7.7
		c-0.3-1-0.7-2.3-1.2-3.8C194.9,210.1,196.6,208.2,198.2,206z M198.7,212.5l2,1.4v-3.1h6.5c-0.6-1.2-1.2-2.4-1.8-3.6l3.1-1.2
		c1.1,1.8,1.8,3.2,2.3,4.1l-1.7,0.7h6.4v3.3h-5.8v4.5h5v3.3h-5v4.9h6.4v3.3h-16.4v-3.3h6.6v-4.9h-5.1v-3.3h5.1V214h-5.5l0.6,0.4
		c-0.9,1.4-1.9,2.7-2.7,3.8v12.6h-3.3v-8.6c-0.7,0.8-1.4,1.4-2,2c-0.3-1.6-0.6-3-0.9-4C194.6,218.1,196.7,215.5,198.7,212.5z
		 M167.5,208.8h5.1c-0.4-0.6-0.7-1.2-1.1-1.8l3.6-1c0.6,1,1.2,1.9,1.7,2.9h4.8c0.6-0.9,1.2-1.9,1.8-2.9l3.9,1
		c-0.5,0.6-0.9,1.2-1.4,1.8h5.3v3h-23.6V208.8z M149.2,208.1h6.3v-2h3.4v2h6.7v2.2h-6.7v1.1h6v2.2h-6v1.1h7.3v2.2h-17.7v-2.2h7v-1.1
		h-5.7v-2.2h5.7v-1.1h-6.3V208.1z M145.7,206.3c1.1,1.5,2.1,3.1,3.1,4.6l-2.8,1.8c-0.9-1.7-1.9-3.3-2.9-4.8L145.7,206.3z
		 M142.5,214.7h5v10c0.5-0.4,1.1-0.8,1.7-1.3c0.1,1.5,0.2,2.8,0.3,3.9c-1.7,1.2-3,2.4-4,3.6l-1.7-2.5c0.4-0.6,0.6-1.3,0.6-2.1V218
		h-2V214.7z"/>
	<rect x="356" y="215" class="st1" width="5" height="2.5"/>
	<rect x="285" y="189.5" class="st1" width="5.2" height="1.3"/>
	<rect x="210.5" y="184.4" class="st1" width="4.8" height="1.6"/>
	<rect x="480.2" y="210.8" class="st1" width="2.2" height="2.1"/>
	<path class="st1" d="M215.2,188.8H211c0.9,0.9,2,1.7,3.3,2.3C214.8,190.5,215,189.7,215.2,188.8z"/>
	<rect x="210.5" y="180.3" class="st1" width="4.8" height="1.6"/>
	<path class="st2" d="M350.4,173.1h-17.1v9.7h17.1V173.1z M346.9,179.6h-10.1v-3.3h10.1V179.6z"/>
	<path class="st2" d="M342.7,196.7h3.3v-1.2h3.4v1.2h3.3v-11.9h-9.9V196.7z M346,187.9h3.4v4.5H346V187.9z"/>
	<path class="st2" d="M334.3,195.5h3.3v1.2h3.3v-11.9h-9.9v11.9h3.3V195.5z M334.3,187.9h3.3v4.5h-3.3V187.9z"/>
	<polygon class="st2" points="322.4,173.8 320,173.8 317.6,179.9 321,179.9 	"/>
	<path class="st2" d="M359,188.3h1.7v8.7h2.7v-11.6H359v-2.6h5.3V180h-1v-7.6h-2.7v7.6H359v-7.1h-2.7v12c0,4.5-0.4,7.9-1.4,10.2
		c0.8,0.7,1.6,1.4,2.5,2.1C358.3,194.7,358.9,191.7,359,188.3z"/>
	<polygon class="st2" points="327.6,173.8 325.2,173.8 322.8,179.9 326.1,179.9 	"/>
	<path class="st2" d="M384.3,230.5h2.1c1.2,0,2.2-0.3,2.9-1c0.7-0.6,1.1-1.6,1.3-2.8c0.2-1.3,0.3-2.8,0.5-4.5l-3.4-1.1
		c-0.1,2.7-0.3,4.2-0.4,4.7c-0.1,0.5-0.3,0.8-0.6,1.1c-0.3,0.2-0.6,0.4-1,0.4h-0.6c-1,0-1.5-0.5-1.5-1.4v-7.5
		c2.7-1.8,5.2-3.6,7.6-5.4l-2.5-3c-1.6,1.4-3.3,2.7-5.1,4.1v-7.5h-3.6v19.9C380.2,229.1,381.5,230.5,384.3,230.5z"/>
	<path class="st2" d="M365.4,188.1c0.5,0.5,1,0.9,1.5,1.4h-3.1v2.9h7.8v4.7h3v-4.7h4v-2.9h-4v-2.7h-3v2.7h-3c1.2-1,2.1-2.1,2.8-3.4
		h6.4v-11.9h-6.3c0.2-0.6,0.4-1.2,0.6-1.8l-3.5-0.5c-0.1,0.8-0.3,1.5-0.5,2.3h-3.2v11.9h3C367.2,186.9,366.4,187.5,365.4,188.1z
		 M372.6,176.9h2.3v2.1h-2.3V176.9z M372.6,181.3h2.3v2.1h-2.6C372.4,182.8,372.5,182.1,372.6,181.3z M367.7,176.9h2.2v2.1h-2.2
		V176.9z M367.7,183.4v-2.1h2.2c0,0.7-0.2,1.4-0.4,2.1H367.7z"/>
	<path class="st2" d="M419.5,216c1.1-0.9,2.2-1.8,3.2-2.8c0.9,1,2,1.9,3.2,2.7c-2.5,0.8-5.3,1.3-8.3,1.6c0.5,1.3,1,2.4,1.3,3.3
		c4-0.6,7.6-1.6,10.7-2.9c2.9,1.3,6.4,2.1,10.3,2.6c0.4-1,0.8-2.2,1.3-3.6c-2.9-0.1-5.5-0.4-7.8-1c2.1-1.3,3.9-2.8,5.3-4.5v-2.9
		h-12.3c0.4-0.6,0.7-1.2,1.1-1.8l-3.3-0.6c-1.5,2.8-3.7,5.2-6.6,7.2C418.3,214.2,419,215.1,419.5,216z M434.2,211.4
		c-1.4,1.2-2.9,2.2-4.7,3c-1.7-0.8-3.2-1.8-4.5-3H434.2z"/>
	<path class="st2" d="M416.8,194.1c0.6,0,1.1-0.2,1.5-0.6c0.4-0.4,0.6-0.9,0.6-1.5c0-0.6-0.2-1.1-0.6-1.5c-0.4-0.4-0.9-0.6-1.5-0.6
		c-0.6,0-1.1,0.2-1.5,0.6c-0.4,0.4-0.6,0.9-0.6,1.5c0,0.6,0.2,1.1,0.6,1.5C415.7,193.9,416.2,194.1,416.8,194.1z"/>
	<polygon class="st2" points="418.3,187.8 418.7,174.1 414.9,174.1 415.3,187.8 	"/>
	<path class="st2" d="M386.1,195.1h11.5v1.8h3.7v-23.3h-18.8v23.3h3.7V195.1z M386.1,177.2h11.5v5.3h-11.5V177.2z M386.1,186h11.5
		v5.5h-11.5V186z"/>
	<path class="st2" d="M302.5,206.2c0,2.1-0.1,4-0.2,5.7h-9.4v3.5h8.9c-0.7,4.9-3.9,9-9.4,12.4c0.7,0.7,1.6,1.9,2.8,3.4
		c5-4.2,8.1-8.5,9.3-12.8c1.8,5.6,4.8,9.8,9,12.6c1-1.5,2-2.7,2.8-3.7c-5-2.2-8.3-6.1-9.9-11.9h9.4v-3.5H306c0.1-2,0.2-3.9,0.2-5.7
		H302.5z"/>
	<path class="st2" d="M207.2,197.3c3.5-0.7,6-1.5,7.7-2.4c2.7,1.1,6.6,1.8,11.8,2.1l1.8-3.5c-4.5-0.1-8.2-0.5-11-1.2
		c0.5-0.9,0.8-2.1,0.9-3.4h4.8v1.4h3.2v-12.6h-8v-1.5h9.6v-2.9h-22.7v2.9h9.8v1.5h-8v11.2h3l-1.8,1.3c0.9,1,1.9,1.9,3,2.7
		c-1.5,0.5-3.7,0.9-6.6,1.1C206,195.3,206.7,196.4,207.2,197.3z M218.5,180.3h4.8v1.6h-4.8V180.3z M218.5,184.4h4.8v1.6h-4.8V184.4z
		 M210.5,180.3h4.8v1.6h-4.8V180.3z M210.5,184.4h4.8v1.6h-4.8V184.4z M211,188.8h4.1c-0.1,0.9-0.4,1.7-0.8,2.3
		C213.1,190.5,212,189.7,211,188.8z"/>
	<path class="st2" d="M191.1,208.8h-5.3c0.5-0.6,1-1.2,1.4-1.8l-3.9-1c-0.6,1-1.1,1.9-1.8,2.9h-4.8c-0.5-0.9-1.1-1.9-1.7-2.9l-3.6,1
		c0.4,0.6,0.8,1.2,1.1,1.8h-5.1v3h23.6V208.8z"/>
	<polygon class="st2" points="155.5,211.4 149.8,211.4 149.8,213.6 155.5,213.6 155.5,214.7 148.5,214.7 148.5,216.9 166.2,216.9 
		166.2,214.7 158.9,214.7 158.9,213.6 165,213.6 165,211.4 158.9,211.4 158.9,210.3 165.6,210.3 165.6,208.1 158.9,208.1 
		158.9,206.1 155.5,206.1 155.5,208.1 149.2,208.1 149.2,210.3 155.5,210.3 	"/>
	<path class="st2" d="M195.4,222.2v8.6h3.3v-12.6c0.9-1.2,1.8-2.5,2.7-3.8l-0.6-0.4h5.5v4.5h-5.1v3.3h5.1v4.9h-6.6v3.3h16.4v-3.3
		h-6.4v-4.9h5v-3.3h-5V214h5.8v-3.3h-6.4l1.7-0.7c-0.5-0.9-1.2-2.3-2.3-4.1l-3.1,1.2c0.6,1.2,1.3,2.4,1.8,3.6h-6.5v3.1l-2-1.4
		c-1.9,3-4,5.6-6.2,7.8c0.3,1.1,0.6,2.4,0.9,4C194,223.7,194.7,223,195.4,222.2z"/>
	<polygon class="st2" points="435.9,173.8 432.5,173.8 431.1,179.9 433.5,179.9 	"/>
	<path class="st2" d="M144.5,226.3c0,0.8-0.2,1.6-0.6,2.1l1.7,2.5c1-1.2,2.3-2.4,4-3.6c-0.1-1.1-0.2-2.4-0.3-3.9
		c-0.7,0.5-1.3,1-1.7,1.3v-10h-5v3.3h2V226.3z"/>
	<path class="st2" d="M148.8,211c-1-1.6-2-3.1-3.1-4.6l-2.6,1.6c1,1.5,2,3.1,2.9,4.8L148.8,211z"/>
	<path class="st2" d="M231.6,186.4c4.4-1.1,8.2-2.5,11.4-4.2c-3.1,2.9-7.1,5-12.1,6.4c0.7,1,1.3,2,1.9,3.1c1.5-0.6,3-1.2,4.4-2
		c0.8,0.9,1.5,1.8,2.1,2.5c-2.7,0.9-5.7,1.6-9.1,1.9c0.6,1,1,2.1,1.5,3.3c9.4-1.2,16.4-4.8,20.9-10.8v-2.6h-7.5
		c0.6-0.6,1.2-1.2,1.8-1.9h-3.9c3.3-1.7,6-3.6,8.1-5.8v-2.6h-9.7c0.5-0.5,0.9-1.1,1.4-1.7h-3.9c-2.3,2.4-5.1,4.3-8.3,5.5
		c0.9,1,1.6,1.9,2.1,2.9c1-0.6,2-1.1,3-1.8c0.8,0.8,1.5,1.6,2.1,2.4c-2.4,0.8-4.9,1.5-7.6,1.9C230.7,184.1,231.2,185.2,231.6,186.4z
		 M248.4,186.9c-1.7,1.7-3.8,3.1-6.1,4.2c-0.7-0.9-1.6-1.8-2.5-2.8c0.7-0.5,1.4-0.9,2.1-1.4H248.4z M238.5,176.6h8.1
		c-2,1.4-3.9,2.5-5.8,3.3c-0.9-1-1.8-1.9-2.8-2.9C238.1,176.9,238.3,176.8,238.5,176.6z"/>
	<path class="st2" d="M284,176.5h15.8v3.3h3.2V174H294c-0.2-0.8-0.4-1.4-0.6-2l-4,0.4c0.2,0.5,0.4,1,0.6,1.6h-9.2v5.9h3.2V176.5z"/>
	<path class="st2" d="M283.7,186.2h16.2v-5.5h-16.2V186.2z M287,182.9h9.7v1.1H287V182.9z"/>
	<rect x="284.5" y="177.6" class="st2" width="14.7" height="2.2"/>
	<path class="st2" d="M281.8,197.3h3.2v-1h13.7v1h3.2v-10h-20.1V197.3z M293.4,189.5h5.3v1.3h-5.3V189.5z M293.4,192.9h5.3v1.3h-5.3
		V192.9z M285,189.5h5.2v1.3H285V189.5z M285,192.9h5.2v1.3H285V192.9z"/>
	<path class="st2" d="M277.1,206.2v2.9h-9.2v3.2h9.2v7.1h-4.5v-5.8h-3.3v8.9h7.7v2.9c0,3.2,1.5,4.8,4.5,4.8h3.9
		c2.8,0,4.5-0.9,4.9-2.8c0.3-1.1,0.6-2.5,0.9-4c-0.8-0.3-1.6-0.6-2.6-1.1v-9h-3.3v5.9h-4.9v-7.1h10.1v-3.2h-10.1v-2.9H277.1z
		 M287.9,222.7c-0.1,1.1-0.3,2-0.4,2.8c-0.2,1.1-1.1,1.7-2.6,1.7h-2.1c-1.5,0-2.2-0.8-2.2-2.3v-2.3H287.9z"/>
	<polygon class="st2" points="265,197.2 268.7,197.2 268.7,191.7 278.5,191.7 278.5,188.5 268.7,188.5 268.7,185.1 276.1,185.1 
		276.1,181.9 268.7,181.9 268.7,178.5 277.2,178.5 277.2,175.4 268.7,175.4 268.7,172.1 265,172.1 265,175.4 256.5,175.4 
		256.5,178.5 265,178.5 265,181.9 257.7,181.9 257.7,185.1 265,185.1 265,188.5 255.2,188.5 255.2,191.7 265,191.7 	"/>
	<path class="st2" d="M201.1,207.8l-2.9-1.9c-1.6,2.2-3.3,4.1-5.2,5.8c0.5,1.5,0.9,2.8,1.2,3.8C196.7,213.1,199.1,210.5,201.1,207.8
		z"/>
	<path class="st2" d="M400.2,226.5c2-1.6,3.9-3.3,5.7-5.2c1.7,1.7,3.3,3.5,5,5.2l2.8-2.6l-5.3-5.3c1.5-1.7,2.9-3.5,4.2-5.4l-3-2.1
		c-1.2,1.8-2.4,3.5-3.8,5.1l-5.3-4.9l-2.3,2.5c1.8,1.6,3.5,3.3,5.2,5c-1.7,1.8-3.6,3.5-5.6,5C399,225.1,399.8,226,400.2,226.5z"/>
	<path class="st2" d="M487.1,220.8h-3v2.7h-3c1.2-1,2.1-2.1,2.8-3.4h6.4v-11.9H484c0.2-0.6,0.4-1.2,0.6-1.8l-3.5-0.5
		c-0.1,0.8-0.3,1.5-0.5,2.3h-3.2v11.9h3c-0.7,0.8-1.5,1.4-2.5,2c0.5,0.5,1,0.9,1.5,1.4h-3.1v2.9h7.8v4.7h3v-4.7h4v-2.9h-4V220.8z
		 M485.1,210.8h2.3v2.1h-2.3V210.8z M485.1,215.3h2.3v2.1h-2.6C484.9,216.7,485,216,485.1,215.3z M480.2,210.8h2.2v2.1h-2.2V210.8z
		 M480.2,217.4v-2.1h2.2c0,0.7-0.2,1.4-0.4,2.1H480.2z"/>
	<path class="st2" d="M373.7,212.7h-5.7v3.3h5.7v6.9c-2,0.6-4.1,1.2-6.2,1.8l0.6,3.9l5.5-2v4.3h3.6v-24.5h-3.6V212.7z"/>
	<polygon class="st2" points="397.3,210.9 415.1,210.9 415.1,207.5 393.9,207.5 393.9,230 415.8,230 415.8,226.6 397.3,226.6 	"/>
	<path class="st2" d="M455.2,230.7h3.3v-1.2h3.4v1.2h3.3v-11.9h-9.9V230.7z M458.5,221.9h3.4v4.5h-3.4V221.9z"/>
	<rect x="462.9" y="179.4" class="st2" width="14.3" height="2.7"/>
	<path class="st2" d="M471.5,216.8h5.3v-2.8h-1v-7.6h-2.7v7.6h-1.6v-7.1h-2.7v12c0,4.5-0.4,7.9-1.4,10.2c0.8,0.7,1.6,1.4,2.5,2.1
		c1-2.6,1.5-5.6,1.6-9h1.7v8.7h2.7v-11.6h-4.3V216.8z"/>
	<path class="st2" d="M474,197.2h3.3v-9.7h-14.3v9.7h3.3v-1.3h7.8V197.2z M466.1,192.9v-2.4h7.8v2.4H466.1z"/>
	<polygon class="st2" points="441,173.8 437.7,173.8 436.3,179.9 438.7,179.9 	"/>
	<rect x="462.9" y="183.4" class="st2" width="14.3" height="2.7"/>
	<path class="st2" d="M420.9,231.1h3.2v-1.2h10.7v1.2h3.2v-10.3h-17.1V231.1z M424.1,223.6h10.7v3.5h-10.7V223.6z"/>
	<rect x="181.9" y="213.6" class="st2" width="3" height="12.1"/>
	<path class="st2" d="M186.6,225.8c0,1.1-0.5,1.6-1.4,1.6c-0.7,0-1.8,0-3.3-0.1c0.3,1.4,0.5,2.6,0.7,3.6c2.2,0,3.7-0.1,4.5-0.2
		c0.8-0.1,1.5-0.5,2-1.1c0.5-0.6,0.7-1.5,0.7-2.7v-14h-3.2V225.8z"/>
	<rect x="217.8" y="225.8" class="st2" width="23" height="3.8"/>
	<path class="st2" d="M168.9,230.9h3.2v-5.5h4.8v0.8c0,0.9-0.4,1.4-1.2,1.4c-0.2,0-0.9,0-2.1-0.1c0.2,0.8,0.4,1.9,0.7,3.4
		c1.2,0,2.3,0,3.1-0.1c0.9-0.1,1.5-0.4,2-1c0.5-0.6,0.7-1.4,0.7-2.5v-14.1h-11.3V230.9z M172.1,216.3h4.8v1.8h-4.8V216.3z
		 M172.1,220.9h4.8v1.8h-4.8V220.9z"/>
	<path class="st2" d="M150.2,231h3.2v-4.1h7.8v0.3c0,0.8-0.4,1.2-1.3,1.2c-0.4,0-1.6-0.1-3.6-0.2c0.3,1,0.5,1.9,0.7,2.7
		c2.5,0,4.1-0.1,4.9-0.1c0.8-0.1,1.4-0.4,1.9-1s0.7-1.4,0.7-2.4v-9.6h-14.2V231z M153.4,220.2h7.8v1.2h-7.8V220.2z M153.4,223.6h7.8
		v1.2h-7.8V223.6z"/>
	<path class="st2" d="M301.2,226c1.2,1.6,2.3,3,3.2,4.3l2.6-2.3c-1.3-1.5-2.5-2.8-3.6-4L301.2,226z"/>
	<rect x="219.3" y="208.2" class="st2" width="20" height="3.8"/>
	<path class="st2" d="M256,225.3h8.8v-3H256v-1.8h8.3V207h-19.9v13.4h8.3v1.8h-8.8v3h8.8v1.9h-10v3.1H266v-3.1h-10V225.3z
		 M256,209.9h5v2.5h-5V209.9z M256,215h5v2.5h-5V215z M252.7,217.5h-5V215h5V217.5z M252.7,212.4h-5v-2.5h5V212.4z"/>
	<path class="st2" d="M331.1,206h-3.6v4.3h-9.6v3.3h9.6v4.2h-7.3v13.2h3.4v-1.2h11.2v1.2h3.4v-13.2h-7.1v-4.2h9.6v-3.3h-9.6V206z
		 M334.8,221.1v5.5h-11.2v-5.5H334.8z"/>
	<rect x="220.4" y="216.8" class="st2" width="17.8" height="3.7"/>
	<path class="st2" d="M356,225.3h8.8v-3H356v-1.8h8.3V207h-19.9v13.4h8.3v1.8h-8.8v3h8.8v1.9h-10v3.1h23.2v-3.1h-10V225.3z
		 M356,209.9h5v2.5h-5V209.9z M356,215h5v2.5h-5V215z M352.6,217.5h-5V215h5V217.5z M352.6,212.4h-5v-2.5h5V212.4z"/>
	<path class="st2" d="M490.1,189.2c1.1,1.5,2,2.7,2.5,3.7l2.6-2l-2.1-2.7h8.2v-14h-8.3l0.7-1.7l-4.1-0.5c-0.2,0.8-0.3,1.5-0.5,2.1
		h-7v14h9.2L490.1,189.2z M485.4,176.8h12.8v1.4h-12.8V176.8z M485.4,180.4h12.8v1.4h-12.8V180.4z M485.4,185.5v-1.4h12.8v1.4H485.4
		z"/>
	<path class="st2" d="M498.2,189.7c1,1.8,1.9,3.7,2.7,5.5l2.8-1.6c-0.6-1.2-1.5-3-2.8-5.3L498.2,189.7z"/>
	<path class="st2" d="M503.7,208.8h-9.3v8.4c0,5.2-0.6,9.1-2,11.6c1,0.8,1.9,1.6,2.8,2.5c1.6-2.7,2.5-7.3,2.5-13.7v-5.7h18.3v-3.1
		h-8c-0.3-1-0.7-1.9-1-2.8l-3.9,1C503.2,207.5,503.5,208.1,503.7,208.8z"/>
	<path class="st2" d="M522.2,213.4h5.5c-0.2,3.6-2,6.4-5.4,8.6c0.8,0.8,1.6,1.6,2.5,2.7c2-1.4,3.5-3,4.5-4.9c2,1.9,3.5,3.4,4.5,4.5
		l2.4-2.6c-2.2-1.9-4.2-3.6-5.8-4.8c0.2-1,0.3-2.1,0.4-3.5h5.6v12.6c0,0.4-0.1,0.8-0.2,1c-0.1,0.3-0.3,0.4-0.5,0.5
		c-0.2,0.1-0.6,0.1-1.2,0.1c-1,0-2,0-3.1-0.1c0.3,1.3,0.5,2.4,0.7,3.3c1.8,0,3.3,0,4.3-0.1c1-0.1,1.8-0.5,2.4-1.1
		c0.5-0.7,0.8-1.6,0.8-2.9v-16.6H531c0-1.2,0-2.6,0-4.1h-3.1c0,1.3,0,2.6-0.1,4.1H519V231h3.2V213.4z"/>
	<path class="st2" d="M485.1,190l-3-1.1c-0.5,1.9-1.2,3.8-2.1,5.7l2.8,1.4C483.3,194.7,484,192.8,485.1,190z"/>
	<polygon class="st2" points="518.6,190.4 515.3,190.4 513.9,197.3 516.7,197.3 	"/>
	<path class="st2" d="M462.9,207.1h-17.1v9.7h17.1V207.1z M459.4,213.6h-10.1v-3.3h10.1V213.6z"/>
	<path class="st2" d="M461.9,175.1v2.9h16.6v-2.9h-6.4c-0.5-1.2-0.9-2.2-1.3-3l-3.5,0.7c0.4,0.8,0.7,1.6,1,2.3H461.9z"/>
	<path class="st2" d="M446.8,229.5h3.3v1.2h3.3v-11.9h-9.9v11.9h3.3V229.5z M446.8,221.9h3.3v4.5h-3.3V221.9z"/>
	<path class="st2" d="M457.4,186v11.2h3v-18.4c0.6-1.8,1.2-3.7,1.8-5.7l-3.1-0.9c-1.3,5.1-2.7,9.1-4.2,12c0.3,1.8,0.6,3.4,0.8,4.8
		C456.3,188.1,456.8,187.1,457.4,186z"/>
	<path class="st2" d="M545.3,231.1h3.4v-1.3h11.7v1.2h3.4v-10.3h-18.4V231.1z M548.7,224h11.7v2.6h-11.7V224z"/>
	<path class="st2" d="M507.4,212.3h-3.3v7.5h-5v11.2h3.2v-1.6h9v1.6h3.2v-11.2h-7.1v-2.3h8.1v-3h-8.1V212.3z M511.3,222.8v3.5h-9
		v-3.5H511.3z"/>
	<path class="st2" d="M574.7,216.1c0.2-0.3,0.5-0.5,0.7-0.8v11.9h2.8v-1.4h6.6v-12h-8.3c0.4-0.6,0.8-1.2,1.2-1.8h9.2l0,3.7
		c0,6.3-0.1,9.8-0.3,10.2c-0.1,0.5-0.4,0.8-0.7,1.1s-0.7,0.4-1.3,0.4c-1.3,0-2.7-0.1-4.3-0.2c0.3,1.1,0.5,2.3,0.7,3.5
		c2.6,0.1,4.3,0,5.3-0.1c1-0.1,1.8-0.6,2.5-1.5c0.7-0.9,1-2.2,1.1-4l0.1-6.8l0.1-9.7h-10.7c0.3-0.7,0.6-1.4,0.9-2.2
		c-1.1-0.2-2.2-0.4-3.3-0.5c-1,2.9-2.5,5.4-4.5,7.6C573.2,214.2,573.9,215.1,574.7,216.1z M578.2,216.6h3.8v1.9h-3.8V216.6z
		 M578.2,221.2h3.8v1.9h-3.8V221.2z"/>
	<path class="st2" d="M573.8,211c-0.9-1.6-2-3.1-3-4.6l-2.6,1.6c1,1.5,2,3.1,2.8,4.8C572.1,212.1,573,211.5,573.8,211z"/>
	<path class="st2" d="M549.1,214.1c-0.7-0.6-1.4-1.3-2.3-2.2c-1.1,1.8-2.7,4.2-4.6,7l2.4,2.1L549.1,214.1z"/>
	<path class="st2" d="M485.7,189.2v4.2c0,2.2,1.2,3.3,3.6,3.3h5.4c1,0,1.9-0.2,2.6-0.7c0.7-0.5,1.3-1.7,1.9-3.7
		c-0.8-0.4-1.8-1-3.1-1.8c-0.2,1.5-0.5,2.4-0.8,2.8s-0.9,0.5-1.8,0.5h-2.8c-1,0-1.5-0.4-1.5-1.3v-3.4H485.7z"/>
	<path class="st2" d="M548.6,209.4c-1.1-1.2-2.3-2.4-3.6-3.6l-2.1,2.1c1.3,1.4,2.4,2.7,3.4,3.9C547.1,210.9,547.9,210.1,548.6,209.4
		z"/>
	<path class="st2" d="M558.2,212.2c0.1-0.3,0.2-0.6,0.3-1h-3.2c-0.3,2-1.1,3.4-2.5,4.3c-1.3,0.9-3.2,1.5-5.6,2
		c0.8,1.3,1.3,2.3,1.8,3.2c4.2-1.2,6.8-3,7.9-5.6c1.5,2.9,4,4.8,7.8,5.8c0.4-1.2,0.9-2.3,1.4-3.4
		C561.9,216.8,559.2,215.1,558.2,212.2z"/>
	<path class="st2" d="M550.5,214.3c0.8-1.2,1.5-2.4,2.2-3.6h9c-0.3,0.6-0.8,1.4-1.4,2.6l3,1c0.6-1.3,1.3-2.6,2-4v-2.7h-11.1
		c0.2-0.5,0.4-1,0.6-1.5l-3.3-0.2c-0.8,2.2-2,4.3-3.6,6.4C548.8,213,549.7,213.6,550.5,214.3z"/>
	<path class="st2" d="M569.7,226.3c0,0.9-0.3,1.6-0.8,2.1l1.7,2.5c1.2-1.2,2.6-2.4,4.3-3.6c-0.2-1.3-0.3-2.6-0.3-3.9l-2,1.7v-10.6
		h-5.1v3.3h2.1V226.3z"/>
</g>
<g>
</g>
<g>
</g>
<g>
</g>
<g>
</g>
<g>
</g>
<g>
</g>
<g>
</g>
<g>
</g>
<g>
</g>
<g>
</g>
<g>
</g>
<g>
</g>
<g>
</g>
<g>
</g>
<g>
</g>
</svg>
