<?xml version="1.0" encoding="utf-8"?>
<!-- Generator: Adobe Illustrator 17.0.0, SVG Export Plug-In . SVG Version: 6.00 Build 0)  -->
<!DOCTYPE svg PUBLIC "-//W3C//DTD SVG 1.1//EN" "http://www.w3.org/Graphics/SVG/1.1/DTD/svg11.dtd">
<svg version="1.1" id="Layer_1" xmlns="http://www.w3.org/2000/svg" xmlns:xlink="http://www.w3.org/1999/xlink" x="0px" y="0px"
	 width="195px" height="188px" viewBox="0 0 195 188" style="enable-background:new 0 0 195 188;" xml:space="preserve">
<style type="text/css">
	.st0{fill:#C5B84F;}
	.st1{fill:none;}
</style>
<g id="loading.svg">
	<path class="st0" d="M97.5,177c-12.2,0-23.8-2.7-34.3-7.5c0,0-0.1,0-0.1-0.1c-28.2-13-47.9-41.6-47.9-74.7
		c0-45.4,36.9-82.2,82.3-82.2c12.2,0,23.8,2.7,34.2,7.4c0.1,0,0.2,0.1,0.3,0.1c28.2,13.1,47.8,41.6,47.8,74.7
		c0,33.7-20.4,62.8-49.5,75.4c0,0-0.1,0-0.1,0c-0.1,0-0.2,0.1-0.3,0.1C120,174.6,109,177,97.5,177 M66.9,165.4
		c9.4,4.1,19.7,6.3,30.6,6.3c9.9,0,19.3-1.9,28-5.3L89.9,92.2l-23,36.6V165.4z M93.2,86.9l37.1,77.5c15.1-7.1,27.5-19.1,35.3-33.8
		h-34.9c-1.5,0-2.6-1.2-2.6-2.6V31.5l-19.7,31.4c0,0,0,0.1-0.1,0.1L93.2,86.9z M26.9,64.2c-4.1,9.4-6.3,19.7-6.3,30.6
		c0,29.5,16.7,55.2,41.1,68.1V128v-0.1V64.2H26.9z M133.4,125.4h34.8c4.1-9.4,6.3-19.7,6.3-30.6c0-29.5-16.7-55.2-41.1-68.1V125.4z
		 M66.9,64.2v54.7l20.9-33.2c0.1-0.3,0.3-0.5,0.5-0.8l13.1-20.8H66.9z M29.4,58.9h75.3l22.2-35.3c-9-3.8-19-5.8-29.4-5.8
		C68,17.8,42.3,34.5,29.4,58.9"/>
	<rect x="0" class="st1" width="195" height="188"/>
</g>
<g>
</g>
<g>
</g>
<g>
</g>
<g>
</g>
<g>
</g>
<g>
</g>
<g>
</g>
<g>
</g>
<g>
</g>
<g>
</g>
<g>
</g>
<g>
</g>
<g>
</g>
<g>
</g>
<g>
</g>
</svg>
