<?xml version="1.0" encoding="utf-8"?>
<!-- Generator: Adobe Illustrator 17.0.0, SVG Export Plug-In . SVG Version: 6.00 Build 0)  -->
<!DOCTYPE svg PUBLIC "-//W3C//DTD SVG 1.1//EN" "http://www.w3.org/Graphics/SVG/1.1/DTD/svg11.dtd">
<svg version="1.1" id="Layer_1" xmlns="http://www.w3.org/2000/svg" xmlns:xlink="http://www.w3.org/1999/xlink" x="0px" y="0px"
	 width="640px" height="103.2px" viewBox="0 0 640 103.2" style="enable-background:new 0 0 640 103.2;" xml:space="preserve">
<style type="text/css">
	.st0{fill:none;}
	.st1{fill:#B3B3B3;}
</style>
<g id="logo.svg">
	<rect y="0" class="st0" width="640" height="103.2"/>
	<g>
		<path class="st1" d="M46.7,39.1h2.6V57h8.6v2.2H46.7V39.1z"/>
		<path class="st1" d="M76.8,48.9c0,6.9-4.2,10.6-9.3,10.6c-5.3,0-9-4.1-9-10.2c0-6.4,4-10.5,9.3-10.5C73.2,38.8,76.8,43,76.8,48.9z
			 M61.2,49.2c0,4.3,2.3,8.1,6.4,8.1c4.1,0,6.4-3.8,6.4-8.3c0-4-2.1-8.2-6.4-8.2C63.3,40.9,61.2,44.8,61.2,49.2z"/>
		<path class="st1" d="M95.4,58.3c-1.2,0.4-3.5,1.1-6.2,1.1c-3,0-5.5-0.8-7.5-2.6c-1.7-1.7-2.8-4.3-2.8-7.5c0-6,4.1-10.4,10.9-10.4
			c2.3,0,4.1,0.5,5,0.9l-0.6,2.1c-1.1-0.5-2.4-0.9-4.4-0.9c-4.9,0-8.1,3-8.1,8.1c0,5.1,3.1,8.1,7.7,8.1c1.7,0,2.9-0.2,3.5-0.5v-6
			h-4.1v-2.1h6.6V58.3z"/>
		<path class="st1" d="M116.5,48.9c0,6.9-4.2,10.6-9.3,10.6c-5.3,0-9-4.1-9-10.2c0-6.4,4-10.5,9.3-10.5
			C112.9,38.8,116.5,43,116.5,48.9z M100.9,49.2c0,4.3,2.3,8.1,6.4,8.1c4.1,0,6.4-3.8,6.4-8.3c0-4-2.1-8.2-6.4-8.2
			C103.1,40.9,100.9,44.8,100.9,49.2z"/>
	</g>
</g>
<g>
</g>
<g>
</g>
<g>
</g>
<g>
</g>
<g>
</g>
<g>
</g>
<g>
</g>
<g>
</g>
<g>
</g>
<g>
</g>
<g>
</g>
<g>
</g>
<g>
</g>
<g>
</g>
<g>
</g>
</svg>
