<?xml version="1.0" encoding="utf-8"?>
<!-- Generator: Adobe Illustrator 17.0.0, SVG Export Plug-In . SVG Version: 6.00 Build 0)  -->
<!DOCTYPE svg PUBLIC "-//W3C//DTD SVG 1.1//EN" "http://www.w3.org/Graphics/SVG/1.1/DTD/svg11.dtd">
<svg version="1.1" id="Layer_1" xmlns="http://www.w3.org/2000/svg" xmlns:xlink="http://www.w3.org/1999/xlink" x="0px" y="0px"
	 width="680px" height="110px" viewBox="0 0 680 110" style="enable-background:new 0 0 680 110;" xml:space="preserve">
<style type="text/css">
	.st0{fill:none;}
	.st1{fill:#78788B;}
	.st2{fill:#50505D;}
</style>
<g id="page-03-title.svg">
	<rect y="0" class="st0" width="680" height="110"/>
	<path class="st1" d="M39.5,75.8V35.2h31v40.6h-4v-3.2h-23v3.2H39.5z M43.4,39.2v7.5h23v-7.5H43.4z M43.4,50.3v7.4h23v-7.4H43.4z
		 M43.4,61.5v7.7h23v-7.7H43.4z M82.5,46.4V43h25v-4.3H81.7v-3.4h29.6v15.6h6v3.4H99.8v1.1c1.2,2.4,2.5,4.5,4,6.3
		c3.1-2,5.8-4.1,8.1-6.1l2.6,3.1c-0.1,0.1-0.3,0.3-0.7,0.5c-1.9,1.3-4.4,3-7.5,5c2.4,2.2,6.1,4,11.1,5.4c-0.8,1.2-1.5,2.4-2.2,3.6
		c-7.6-2.4-12.8-6.2-15.6-11.5v7.9c0.2,4-1.5,5.9-5.3,5.7c-0.9,0.1-2.5,0.2-4.8,0.2c-0.1-0.4-0.2-0.8-0.3-1.4
		c-0.2-1.1-0.4-1.9-0.5-2.5c1.1,0.2,2.5,0.2,4.1,0c2,0.1,2.9-0.8,2.8-2.7v-4.3l-17.1,7.7l-1.3-3.8c6.3-2.5,12.4-5.2,18.4-8.1v-6.1
		H77.6v-3.4h30v-4.5H82.5z M87.8,63.6c-2.2-1.8-4.6-3.6-7.3-5.4l2.2-2.9c2.9,1.7,5.4,3.4,7.5,5L87.8,63.6z"/>
	<path class="st2" d="M135.9,73c-4.7,0-7.5-2.6-7.5-7.2V45.6c0-4.6,2.7-7.2,7.5-7.2c4.7,0,7.4,2.6,7.4,7.2v3.8h-4.7v-3.6
		c0-2.4-0.9-3.5-2.7-3.5c-1.8,0-2.7,1.1-2.7,3.5v19.6c0,2.4,1,3.5,2.7,3.5c1.8,0,2.7-1.1,2.7-3.5v-3.6h4.7v3.8
		C143.3,70.3,140.6,73,135.9,73z M156.2,72.5c-0.2-0.7-0.3-1.4-0.3-2.1c-1,1.6-2.8,2.5-4.9,2.5c-2.9,0-5.8-2.1-5.8-6.6
		c0-4.3,1.9-6.5,5.9-8.4c3.1-1.5,4.6-2.4,4.6-5.4c0-1.8-0.5-3.2-2.4-3.2c-1.8,0-2.6,1.2-2.6,3.6v1.6H146V53c0-4.6,2.6-7.5,7.4-7.5
		c5.8,0,6.9,3.8,6.9,8.5v9c0,6,0.1,7.6,0.5,9.5H156.2z M155.6,59.1c-0.5,0.6-1.2,1.1-2.4,1.8c-2.2,1.2-3.2,2.4-3.2,4.9
		c0,2.3,1.1,3.2,2.6,3.2c1.8,0,3-1.3,3-4V59.1z M164.8,65.5V50.1h-2.2v-4.2h2.2v-6.3h4.7v6.3h3.8v4.2h-3.8V65c0,2.4,1,3.6,3.8,3.4
		v4.1C167.2,73,164.8,70,164.8,65.5z M185.2,72.5c-0.2-0.7-0.3-1.4-0.3-2.1c-1,1.6-2.8,2.5-4.9,2.5c-2.9,0-5.8-2.1-5.8-6.6
		c0-4.3,1.9-6.5,5.9-8.4c3.1-1.5,4.6-2.4,4.6-5.4c0-1.8-0.5-3.2-2.4-3.2c-1.8,0-2.6,1.2-2.6,3.6v1.6h-4.7V53c0-4.6,2.6-7.5,7.4-7.5
		c5.8,0,6.9,3.8,6.9,8.5v9c0,6,0.1,7.6,0.5,9.5H185.2z M184.5,59.1c-0.5,0.6-1.2,1.1-2.4,1.8c-2.2,1.2-3.2,2.4-3.2,4.9
		c0,2.3,1.1,3.2,2.6,3.2c1.8,0,3-1.3,3-4V59.1z M193.1,72.5V36.7h4.7v35.8H193.1z M208.8,73c-4.7,0-7.6-2.6-7.6-7.2v-13
		c0-4.6,2.9-7.2,7.6-7.2c4.7,0,7.6,2.6,7.6,7.2v13C216.4,70.3,213.5,73,208.8,73z M211.7,53c0-2.4-1.2-3.5-2.9-3.5s-2.9,1.1-2.9,3.5
		v12.5c0,2.4,1.2,3.5,2.9,3.5s2.9-1.1,2.9-3.5V53z M227.2,82.6c-4.7,0-7.5-2.6-7.5-7.2v-0.7h4.7v0.5c0,2.4,1.1,3.5,2.9,3.5
		s2.9-1.1,2.9-3.5v-4.2c-0.5,1.2-2.4,2.1-4,2.1c-4.4,0-6.5-2.6-6.5-7.2v-13c0-4.7,2.1-7.2,6.5-7.2c1.7,0,3.6,0.8,4.1,2.2v-1.8h4.5
		v29.5C234.7,80,231.9,82.6,227.2,82.6z M230.1,53c0-2.4-1.2-3.5-2.9-3.5c-1.8,0-2.9,1.1-2.9,3.5v12.5c0,2.4,1.2,3.5,2.9,3.5
		c1.8,0,2.9-1.1,2.9-3.5V53z M248.8,72.5v-1.7c-0.5,1.2-2.4,2.1-4,2.1c-4.4,0-6.3-2.6-6.3-7.2V45.9h4.7v19.6c0,2.4,1,3.5,2.7,3.5
		c1.6,0,2.7-1.1,2.7-3.5V45.9h4.7v26.7H248.8z M264.4,73c-4.7,0-7.6-2.6-7.6-7.2v-13c0-4.6,2.8-7.2,7.5-7.2c4.7,0,7.6,2.6,7.6,7.2
		v7.7h-10.4v5c0,2.4,1.2,3.5,2.9,3.5c1.8,0,2.9-1.1,2.9-3.5v-1.5h4.7v1.8C271.9,70.3,269.1,73,264.4,73z M267.2,53
		c0-2.4-1.1-3.5-2.9-3.5c-1.8,0-2.9,1.1-2.9,3.5v3.9h5.7V53z"/>
</g>
<g>
</g>
<g>
</g>
<g>
</g>
<g>
</g>
<g>
</g>
<g>
</g>
<g>
</g>
<g>
</g>
<g>
</g>
<g>
</g>
<g>
</g>
<g>
</g>
<g>
</g>
<g>
</g>
<g>
</g>
</svg>
