<?xml version="1.0" encoding="utf-8"?>
<!-- Generator: Adobe Illustrator 17.0.0, SVG Export Plug-In . SVG Version: 6.00 Build 0)  -->
<!DOCTYPE svg PUBLIC "-//W3C//DTD SVG 1.1//EN" "http://www.w3.org/Graphics/SVG/1.1/DTD/svg11.dtd">
<svg version="1.1" id="Layer_1" xmlns="http://www.w3.org/2000/svg" xmlns:xlink="http://www.w3.org/1999/xlink" x="0px" y="0px"
	 width="720px" height="1036.5px" viewBox="0 0 720 1036.5" style="enable-background:new 0 0 720 1036.5;" xml:space="preserve">
<style type="text/css">
	.st0{fill-rule:evenodd;clip-rule:evenodd;fill:#EFA23D;}
	.st1{fill:#FFFFFF;}
	.st2{fill:none;}
	.st3{fill-rule:evenodd;clip-rule:evenodd;fill:#FFFFFF;}
</style>
<g id="page-08.svg">
	<g>
		<rect x="86" y="173.3" class="st0" width="544" height="690"/>
		<path class="st1" d="M446,216.1c-1.7,0-3-1.3-3-3v-0.1c0-1.7,1.3-3,3-3c1.7,0,3,1.3,3,3v0.1C449,214.7,447.7,216.1,446,216.1z
			 M446,203.9c-1.7,0-3-1.3-3-3v-0.1c0-1.7,1.3-3,3-3c1.7,0,3,1.3,3,3v0.1C449,202.6,447.7,203.9,446,203.9z M446,191.8
			c-1.7,0-3-1.3-3-3v-0.1c0-1.7,1.3-3,3-3c1.7,0,3,1.3,3,3v0.1C449,190.5,447.7,191.8,446,191.8z M446,179.7c-1.7,0-3-1.3-3-3v-0.1
			c0-1.7,1.3-3,3-3c1.7,0,3,1.3,3,3v0.1C449,178.4,447.7,179.7,446,179.7z M446,167.6c-1.7,0-3-1.3-3-3v-0.1c0-1.7,1.3-3,3-3
			c1.7,0,3,1.3,3,3v0.1C449,166.3,447.7,167.6,446,167.6z M446,155.5c-1.7,0-3-1.3-3-3v-0.1c0-1.7,1.3-3,3-3c1.7,0,3,1.3,3,3v0.1
			C449,154.2,447.7,155.5,446,155.5z M445.9,143.7c-1.6,0-2.9-1.2-3-2.8l0-0.1c-0.1-1.7,1.2-3.1,2.8-3.2c0.1,0,0.1,0,0.2,0
			c1.6,0,2.9,1.2,3,2.8c0,0,0,0.1,0,0.1c0,0,0,0,0,0c0.1,1.6-1.2,3-2.8,3.1C446,143.7,445.9,143.7,445.9,143.7z M444.5,132.1
			c-1.4,0-2.7-1-2.9-2.4l0-0.1c-0.3-1.6,0.8-3.2,2.4-3.5c0.2,0,0.4-0.1,0.6-0.1c1.4,0,2.7,1,2.9,2.4c0,0,0,0,0,0.1c0,0,0,0,0,0.1
			c0.3,1.6-0.8,3.2-2.4,3.5C444.9,132.1,444.7,132.1,444.5,132.1z M441.5,120.8c-1.3,0-2.4-0.8-2.8-2l0-0.1
			c-0.5-1.6,0.3-3.3,1.9-3.8c0.3-0.1,0.6-0.2,1-0.2c1.3,0,2.4,0.8,2.8,2c0,0,0,0,0,0c0,0,0,0,0,0c0,0,0,0,0,0
			c0.5,1.6-0.3,3.3-1.9,3.8C442.2,120.7,441.9,120.8,441.5,120.8z M437.1,110c-1.1,0-2.2-0.6-2.7-1.7l0-0.1c-0.7-1.5-0.1-3.3,1.3-4
			c0.4-0.2,0.9-0.3,1.3-0.3c1.1,0,2.1,0.6,2.7,1.6c0,0,0,0.1,0,0.1c0,0,0,0,0,0c0.7,1.5,0.1,3.3-1.3,4
			C438,109.9,437.5,110,437.1,110z M431.2,99.9c-1,0-1.9-0.5-2.5-1.3l-0.1-0.1c-0.9-1.4-0.6-3.2,0.8-4.2c0.5-0.4,1.1-0.5,1.7-0.5
			c1,0,1.9,0.5,2.5,1.3c0,0,0,0.1,0.1,0.1c0.9,1.4,0.6,3.2-0.8,4.2C432.3,99.7,431.7,99.9,431.2,99.9z M423.9,90.7
			c-0.8,0-1.6-0.3-2.2-1l-0.1-0.1c-1.1-1.2-1-3.1,0.2-4.2c0.6-0.5,1.3-0.8,2-0.8c0.8,0,1.6,0.3,2.2,1c0,0,0,0,0.1,0.1l0,0
			c0,0,0,0,0,0c1.1,1.2,1,3.1-0.2,4.2C425.4,90.4,424.7,90.7,423.9,90.7z M415.5,82.5c-0.7,0-1.4-0.2-1.9-0.7l-0.1-0.1
			c-1.3-1.1-1.4-3-0.4-4.2c0.6-0.7,1.4-1.1,2.3-1.1c0.7,0,1.4,0.2,1.9,0.7c0,0,0,0,0,0c0,0,0,0,0,0c1.3,1.1,1.4,3,0.3,4.2
			C417.2,82.2,416.4,82.5,415.5,82.5z M406.1,75.6c-0.6,0-1.1-0.2-1.6-0.5l-0.1-0.1c-1.4-0.9-1.8-2.7-0.9-4.1
			c0.6-0.9,1.5-1.4,2.5-1.4c0.5,0,1.1,0.2,1.6,0.5c0,0,0,0,0.1,0c0,0,0,0,0,0c1.4,0.9,1.8,2.7,0.9,4.1
			C408.1,75.1,407.1,75.6,406.1,75.6z M395.9,70c-0.4,0-0.8-0.1-1.2-0.3l-0.1,0c-1.5-0.7-2.2-2.5-1.5-4c0.5-1.1,1.6-1.8,2.7-1.8
			c0.4,0,0.8,0.1,1.2,0.3c0,0,0.1,0,0.1,0.1c1.5,0.7,2.2,2.5,1.5,4C398.1,69.4,397,70,395.9,70z M384.9,65.9c-0.3,0-0.6,0-0.9-0.1
			l-0.1,0c-1.6-0.5-2.5-2.2-2-3.7c0.4-1.3,1.6-2.1,2.9-2.1c0.3,0,0.6,0,0.8,0.1c0,0,0,0,0,0c0,0,0,0,0.1,0c0,0,0,0,0,0
			c1.6,0.5,2.5,2.2,2,3.7C387.4,65,386.2,65.9,384.9,65.9z M373.5,63.3c-0.2,0-0.3,0-0.5,0l-0.1,0c-1.6-0.3-2.8-1.8-2.5-3.4
			c0.2-1.5,1.5-2.5,3-2.5c0.1,0,0.3,0,0.4,0c0.1,0,0.1,0,0.2,0c1.6,0.3,2.7,1.8,2.5,3.4C376.3,62.2,375,63.3,373.5,63.3z
			 M361.9,62.2C361.9,62.2,361.8,62.2,361.9,62.2l-0.2,0c-1.7,0-3-1.4-2.9-3.1c0-1.6,1.4-2.9,3-2.9c0,0,0,0,0.1,0c0,0,0.1,0,0.1,0
			c0,0,0,0,0,0c1.7,0,3,1.4,2.9,3.1C364.8,60.9,363.5,62.2,361.9,62.2z M350.1,62.8c-1.5,0-2.8-1.1-3-2.7c-0.2-1.6,1-3.1,2.6-3.3
			c0,0,0,0,0,0c0,0,0.1,0,0.1,0c0.1,0,0.2,0,0.3,0c1.5,0,2.8,1.1,3,2.7c0.2,1.6-1,3.1-2.6,3.3l-0.1,0
			C350.3,62.8,350.2,62.8,350.1,62.8z M338.6,64.9c-1.3,0-2.6-0.9-2.9-2.3c-0.4-1.6,0.6-3.2,2.2-3.6c0,0,0,0,0,0c0,0,0,0,0,0
			c0,0,0,0,0.1,0c0.2-0.1,0.5-0.1,0.7-0.1c1.3,0,2.6,0.9,2.9,2.3c0.4,1.6-0.6,3.2-2.2,3.6l-0.1,0C339.1,64.9,338.8,64.9,338.6,64.9z
			 M327.5,68.6c-1.2,0-2.3-0.7-2.8-1.9c-0.6-1.5,0.1-3.3,1.6-3.9c0,0,0,0,0,0c0,0,0,0,0.1,0c0,0,0,0,0,0c0.4-0.2,0.8-0.2,1.1-0.2
			c1.2,0,2.3,0.7,2.8,1.9c0.6,1.5-0.1,3.3-1.6,3.9l-0.1,0C328.2,68.5,327.9,68.6,327.5,68.6z M317,73.7c-1,0-2-0.5-2.6-1.5
			c-0.8-1.4-0.3-3.3,1.1-4.1c0,0,0,0,0,0c0,0,0,0,0.1,0c0,0,0,0,0,0c0.5-0.3,1-0.4,1.5-0.4c1,0,2,0.5,2.6,1.5
			c0.8,1.4,0.3,3.3-1.1,4.1l-0.1,0.1C318,73.6,317.5,73.7,317,73.7z M307.3,80.2c-0.9,0-1.8-0.4-2.4-1.2c-1-1.3-0.8-3.2,0.5-4.2
			c0,0,0.1-0.1,0.1-0.1c0.5-0.4,1.2-0.6,1.8-0.6c0.9,0,1.8,0.4,2.4,1.2c1,1.3,0.8,3.2-0.5,4.2l-0.1,0.1
			C308.6,80,307.9,80.2,307.3,80.2z M298.5,88c-0.8,0-1.5-0.3-2.1-0.9c-1.2-1.2-1.2-3.1,0-4.2c0,0,0,0,0,0c0,0,0,0,0,0c0,0,0,0,0,0
			c0.6-0.6,1.4-0.9,2.1-0.9c0.8,0,1.5,0.3,2.1,0.9c1.2,1.2,1.2,3.1,0,4.2l-0.1,0.1C300.1,87.7,299.3,88,298.5,88z M290.9,96.9
			c-0.6,0-1.3-0.2-1.8-0.6c-1.3-1-1.6-2.9-0.6-4.2c0,0,0.1-0.1,0.1-0.1c0.6-0.8,1.5-1.2,2.4-1.2c0.6,0,1.3,0.2,1.8,0.6
			c1.3,1,1.6,2.9,0.6,4.2l-0.1,0.1C292.8,96.5,291.9,96.9,290.9,96.9z M284.6,106.7c-0.5,0-1-0.1-1.4-0.4c-1.5-0.8-2-2.6-1.2-4.1
			c0,0,0,0,0,0c0,0,0,0,0-0.1c0,0,0,0,0,0c0.5-1,1.6-1.5,2.6-1.5c0.5,0,1,0.1,1.4,0.4c1.4,0.8,2,2.6,1.2,4.1l0,0.1
			C286.7,106.2,285.7,106.7,284.6,106.7z M279.7,117.3c-0.4,0-0.7-0.1-1.1-0.2c-1.5-0.6-2.3-2.3-1.7-3.9c0,0,0,0,0,0c0,0,0,0,0,0
			c0,0,0,0,0,0c0.5-1.2,1.6-1.9,2.8-1.9c0.4,0,0.7,0.1,1.1,0.2c1.5,0.6,2.3,2.3,1.7,3.9l0,0.1C282,116.6,280.9,117.3,279.7,117.3z
			 M276.2,128.5c-0.2,0-0.5,0-0.7-0.1c-1.6-0.4-2.6-2-2.2-3.6c0,0,0-0.1,0-0.1c0.3-1.4,1.6-2.3,2.9-2.3c0.2,0,0.5,0,0.7,0.1
			c1.6,0.4,2.6,2,2.2,3.6l0,0.1C278.8,127.6,277.6,128.5,276.2,128.5z M274.4,140c-0.1,0-0.2,0-0.3,0c-1.6-0.2-2.9-1.6-2.7-3.3
			c0,0,0,0,0,0c0,0,0-0.1,0-0.1c0.1-1.6,1.5-2.7,3-2.7c0.1,0,0.2,0,0.3,0c1.7,0.2,2.9,1.6,2.7,3.3l0,0.1
			C277.2,138.9,275.9,140,274.4,140z M274.1,151.7c-1.6,0-2.9-1.3-3-2.9c0,0,0,0,0,0c0,0,0-0.1,0-0.1c-0.1-1.7,1.2-3.1,2.9-3.1
			c0,0,0.1,0,0.1,0c1.6,0,2.9,1.3,3,2.9l0,0.1c0.1,1.7-1.2,3.1-2.9,3.1C274.1,151.7,274.1,151.7,274.1,151.7z M274,163.8
			c-1.7,0-3-1.3-3-3v-0.1c0-1.7,1.3-3,3-3c1.7,0,3,1.3,3,3v0.1C277,162.5,275.7,163.8,274,163.8z M274,176c-1.7,0-3-1.3-3-3v-0.1
			c0-1.7,1.3-3,3-3c1.7,0,3,1.3,3,3v0.1C277,174.6,275.7,176,274,176z M274,188.1c-1.7,0-3-1.3-3-3V185c0-1.7,1.3-3,3-3
			c1.7,0,3,1.3,3,3v0.1C277,186.7,275.7,188.1,274,188.1z M274,200.2c-1.7,0-3-1.3-3-3v-0.1c0-1.7,1.3-3,3-3c1.7,0,3,1.3,3,3v0.1
			C277,198.8,275.7,200.2,274,200.2z M274,212.3c-1.7,0-3-1.3-3-3v-0.1c0-1.7,1.3-3,3-3c1.7,0,3,1.3,3,3v0.1
			C277,210.9,275.7,212.3,274,212.3z"/>
	</g>
	<rect x="0" y="0" class="st2" width="720" height="1036.5"/>
	<g>
		<g>
			<path class="st1" d="M205.1,667.2c-1.6,4.7-3.6,10.5-5.5,15.1c4,4.9,4.9,9.1,4.9,12.8c0,3-0.7,5.6-2.1,6.7
				c-0.8,0.6-1.8,1-2.9,1.1c-1,0.2-2.5,0.2-3.6,0.1c-0.1-1.1-0.4-2.7-1-3.9c1.3,0.1,2.3,0.2,3.2,0.1c0.7-0.1,1.3-0.2,1.7-0.5
				c0.8-0.6,1.2-2.3,1.2-4c0-3.2-1-7.2-4.9-11.9c1.6-4.2,3.2-9.2,4.3-13.1h-8v47h-3.6v-50.9h13.1l0.6-0.2L205.1,667.2z M235,696.3
				c-2.8,2.5-6.4,5-9.4,7c2.7,4.2,6.2,7.4,10.6,9.3c-0.9,0.8-2.1,2.6-2.8,3.7c-8.6-4.3-13.7-13.3-16.4-24.9h-5.3v19.2l9.7-2.5
				c0,1.3,0.1,3,0.2,4c-11.3,3.3-12.9,3.9-14,4.6c-0.3-0.9-1.2-2.7-1.8-3.6c0.9-0.5,2-1.7,2-4.1v-43.2h24v25.6h-11.2
				c0.8,3.2,1.9,6.1,3.2,8.8c2.9-2,6.3-4.8,8.6-6.9L235,696.3z M211.7,669.7v7h16.1v-7H211.7z M211.7,687.6h16.1v-7.3h-16.1V687.6z"
				/>
			<path class="st1" d="M262.7,705.9h-13.2v4.6h-3.8v-42.4h17V705.9z M249.6,672.1v12.8h9.3v-12.8H249.6z M258.9,702v-13.2h-9.3V702
				H258.9z M293.6,679.2H287v31c0,3.1-0.8,4.4-2.7,5.1c-1.9,0.8-5.4,0.8-10.9,0.8c-0.2-1.2-0.8-3.2-1.5-4.3c4.2,0.1,8.3,0.1,9.5,0.1
				c1.1-0.1,1.5-0.4,1.5-1.6v-31h-17.7v-4.3h17.7v-11.3h4.1v11.3h6.6V679.2z M275.4,700c-1.8-3.6-5.4-9.8-8.3-14.3l3.3-1.9
				c2.9,4.4,6.7,10.4,8.6,13.9L275.4,700z"/>
			<path class="st1" d="M319.6,667c-1.5,3-3.4,5.8-5.5,8.6c2.6,6.1,3.1,12.5,3.1,19.1c0,8.1-0.6,15.9-3.1,19.5c-0.8,1.2-2,2-3.5,2.3
				c-2.1,0.5-4.4,0.6-7,0.5c-0.1-2.2-0.7-4.7-1.8-6.7c2.7,0.2,4.7,0.2,5.8,0.1c0.8-0.1,1.3-0.4,1.7-1.1c1.1-1.5,1.5-6.5,1.6-12.7
				c-2.2,2.8-4.5,5.4-6.7,7.3c-1-1.6-2.8-3.9-4.3-5.1c3.8-2.6,8.1-7.4,10.6-12c-0.3-2-0.6-3.9-1.2-5.7c-1.6,1.7-3.3,3.3-5,4.7
				c-1-1.4-3.1-3.5-4.5-4.6c2.4-1.8,4.7-4.1,6.8-6.6c-1.5-2.5-3.5-4.9-6.1-7.3l4.5-3.7c2.2,1.9,4,3.8,5.4,5.8
				c1.2-1.9,2.4-3.8,3.2-5.6L319.6,667z M345.6,717.2c-0.3-1.3-0.7-2.8-1.2-4.4c-9.4,1.2-19.1,2.3-26.1,3.2l-1.1-7.4
				c3.8-0.4,8.7-0.8,13.9-1.3v-10.5H320v-23.3h11.2v-10.6h6.6v10.6h11.4v23.3h-11.4v9.8l4.4-0.5c-0.8-2.3-1.6-4.4-2.4-6.5l6-1.8
				c2.3,5.4,5.1,12.6,6.3,17.1L345.6,717.2z M331.2,690.9v-11.4h-4.8v11.4H331.2z M337.8,679.4v11.4h4.6v-11.4H337.8z"/>
			<path class="st1" d="M404.1,688.2c-2.2,1.8-4.7,3.7-7.1,5.4c2.1,6.9,6.5,12.7,12.8,15.4c-1.5,1.3-3.4,4-4.3,5.7
				c-6.6-3.3-10.9-9.6-13.6-17.5c-0.5,0.4-1.2,0.8-1.7,1.1c1.5,7,0.2,13.7-2.6,16.2c-1.9,2.1-3.7,2.7-6.5,2.7
				c-1.2,0.1-2.9,0-4.4-0.1c-0.1-1.9-0.7-4.7-1.8-6.6c1.9,0.2,3.7,0.3,4.9,0.3c1.3,0,2.2-0.2,3-1.4c0.9-0.9,1.6-3.1,1.6-5.9
				c-6.3,4.6-14.9,8.9-22.2,11.2c-0.7-1.7-2.1-4.2-3.4-5.8c8.7-2,19.2-7,24.6-11.9c-0.2-0.7-0.5-1.5-0.8-2.2
				c-5.5,3.7-13.5,7.5-19.8,9.5c-0.7-1.6-2.1-3.9-3.2-5.4c6.7-1.5,15.7-5.2,20.5-8.6c-0.5-0.6-1-1.3-1.5-1.9
				c-4.8,2.7-10.1,4.7-15.3,6.1c-0.6-1.3-2.2-4.1-3.3-5.4c6.2-1.3,12.7-3.6,17.7-6.4h-9.4v-5.9H399v5.9h-12.2
				c-1,0.9-2.1,1.9-3.3,2.7c2.1,2.1,3.7,4.6,4.8,7.1c3.8-2.7,7.7-6,10.4-8.8L404.1,688.2z M366.6,680.5h-6.4v-13.2h19.9
				c-0.4-1.1-0.9-2.2-1.3-3.1l6.9-2.1c0.9,1.6,1.8,3.5,2.4,5.2h19.5v13.2h-6.7v-6.9h-34.2V680.5z"/>
			<path class="st1" d="M438.9,674.8c-1.6,4.3-3.8,8.3-6.4,12.1c2.5,2.5,6.9,7.3,8.2,8.7l-4.1,5.8c-1.2-1.8-2.9-4.4-4.8-6.8v22.6
				h-6.4v-22c-2.5,2.5-5,4.6-7.6,6.1c-0.3-1.9-1.5-5.7-2.3-7.1c5.8-3.2,11.6-9.2,15.1-15.6h-13.3v-6.3h10.1c-1.1-2.3-2.9-5-4.5-7.2
				l5.2-3c2.1,2.4,4.3,5.7,5.4,8l-3.3,2.2h4.1l1.2-0.3L438.9,674.8z M458.4,709.5c2.1,0,2.5-2.2,2.8-10.8c1.5,1.3,4.1,2.6,5.9,3
				c-0.7,10.2-2.2,14-8.1,14h-7.5c-6.2,0-8-2.4-8-10.1v-42.3h6.5v42.4c0,3.3,0.3,3.8,2.4,3.8H458.4z"/>
			<path class="st1" d="M490.7,707.9c3.5,2,8.1,2.3,13.7,2.3c5.6,0,14.6-0.5,20.2-1.3c-0.7,1.8-1.7,5.2-1.8,7.1
				c-4.1,0.3-12.8,0.6-18.6,0.6c-6.6,0-11.1-0.8-14.9-3c-2.2-1.3-4.1-3.1-5.2-3.1c-1.7,0-4.3,3.6-6.6,7.1l-4.3-6.3
				c2.3-2.4,4.7-4.4,7-5.7V689h-5.9v-6.4h12.3v22.7c0.8,0.6,1.8,1.3,3.1,2.1v-20.8h13.1v-2.4h-11v-19.9H520v19.9h-11.3v2.4h13.8v17
				c0,2.7-0.5,3.9-2.3,4.7c-1.7,0.7-4.2,0.8-7.6,0.8c-0.2-1.5-1-3.4-1.6-4.7c1.8,0.1,4,0.1,4.6,0.1c0.7-0.1,0.9-0.2,0.9-0.9v-11.5
				h-8.1v4.5l2.2-0.1c-0.3-0.9-0.6-1.8-0.9-2.6l4-0.9c1.1,2.9,2.2,6.7,2.6,9.1l-4.2,1.1c-0.1-0.5-0.2-1.2-0.3-1.9
				c-5.4,0.6-10.6,1.1-14.8,1.5l-0.5-5.4c1.8-0.1,4-0.2,6.4-0.4v-4.9h-7.1v15.8H490.7z M484.2,677.6c-1.8-2.5-6-6-9.4-8.2l4.3-4.3
				c3.4,2,7.7,5.3,9.8,7.7L484.2,677.6z M497.6,672h5.2V669h-5.2V672z M502.8,679.4v-3h-5.2v3H502.8z M513.9,669h-5.2v2.9h5.2V669z
				 M513.9,676.4h-5.2v3h5.2V676.4z"/>
		</g>
		<g>
			<path class="st1" d="M231.3,596.7c-0.3,29.2-0.4,44.7,2.6,44.7c0.6,0,0.9-4.1,1-8.7c1.1,1.8,2.7,4.2,4,5.4
				c-0.6,7.5-1.9,10.6-5.5,10.6c-8.4,0-8.7-15-8.6-45.4h-24.9v9.7c0,10.4-1.2,26.6-7.8,36.6c-1.1-1.4-4-3.9-5.4-4.7
				c5.9-9.1,6.4-22.5,6.4-31.9v-16.4H231.3z M222.7,608.4c-1.6,5.4-3.7,10.6-6.1,15.4c3.4,5,6.4,9.9,8.2,13.8l-5.9,3.6
				c-1.3-3-3.4-6.8-5.8-10.9c-3,4.8-6.4,9-10.1,12.2c-1-1.6-3.2-4.1-4.7-5.3c4-3.2,7.7-7.7,10.9-12.9c-2.9-4.4-6-8.8-8.8-12.7l5.3-3
				c2.2,2.9,4.6,6.1,7,9.4c1.8-3.7,3.2-7.5,4.4-11.4L222.7,608.4z"/>
			<path class="st1" d="M254.8,610.6c-1.1-3.2-3.8-8.2-6.5-11.9l5.8-2.6c2.7,3.5,5.5,8.1,6.8,11.4L254.8,610.6z M291.6,641.6
				c0,3.3-0.6,5.2-2.7,6.3c-2,1.1-5,1.2-9.1,1.2c-0.2-1.9-1.2-4.9-2.1-6.6c2.6,0.1,5.5,0.1,6.4,0.1c0.8,0,1.1-0.3,1.1-1.1v-23.7
				h-29.8v31.5h-6.5v-38h17.9v-16.6h6.7v16.6h18.2V641.6z M265.9,639.4v3.6H260v-21.2h20.2v17.6H265.9z M265.9,627.6v6h8.3v-6H265.9
				z M291.9,598.1c-2.5,4.6-5.4,9.4-7.8,12.5l-5.5-2.3c2.3-3.3,5.2-8.6,6.7-12.5L291.9,598.1z"/>
			<path class="st1" d="M321.3,624.7l-6.7,2.2v16.3c0,2.5-0.6,3.6-2,4.3c-1.4,0.7-3.6,0.8-7.4,0.8c-0.2-1.1-0.8-2.9-1.3-4.1
				c2.6,0.1,5,0.1,5.7,0.1c0.8,0,1.1-0.3,1.1-1.1v-15c-2.5,0.8-4.9,1.5-7,2.2l-1.3-4.3c2.3-0.6,5.2-1.4,8.2-2.3v-12.5H303V607h7.6
				v-11.7h4V607h6.1v4.2h-6.1v11.3l6.2-1.9L321.3,624.7z M338.9,596.1c-0.3,0.7-0.6,1.3-0.9,2c3.5,6.8,9.8,14,15.5,17.4
				c-1,0.8-2.3,2.4-3,3.6c-5.1-3.7-10.6-10.4-14.4-17.2c-3.8,7-8.9,13.2-14.3,17.5c-0.4-0.9-1.6-3-2.4-3.9
				c6.4-4.7,12.3-12.4,15.7-20.7L338.9,596.1z M343.8,643.3c2.7,0,3.2-1.3,3.5-8.4c0.9,0.7,2.6,1.4,3.7,1.7
				c-0.5,8.4-1.9,10.7-7,10.7h-10.9c-5.5,0-7.2-1.3-7.2-6.7v-24.9h19.8c0,0,0,1.2-0.1,1.7c-0.3,10.1-0.7,14-1.8,15.4
				c-0.8,1.1-1.8,1.4-3.3,1.6c-1.3,0.1-4,0.1-6.6-0.1c-0.1-1.1-0.5-2.7-1.1-3.7c2.6,0.3,5,0.3,5.9,0.3s1.4-0.1,1.7-0.5
				c0.7-0.8,1-3.5,1.3-10.6H330v20.9c0,2.2,0.5,2.6,3.6,2.6H343.8z"/>
			<path class="st1" d="M403.7,643.6c2,0,2.3-1.2,2.5-8.8c0.9,0.8,2.6,1.5,3.8,1.8c-0.4,8.8-1.6,11.1-6,11.1h-7.8
				c-4.8,0-6-1.5-6-6.2v-17.1h-10.4c-1.1,11.4-4.2,19.9-16.6,24.6c-0.4-1.1-1.6-2.9-2.6-3.7c11.6-3.8,14-11.3,15-20.9h-14.2v-4.2
				h21.8v-11.7h-11.3c-1.3,3.3-3,6.4-4.8,8.9c-0.9-0.7-2.5-1.6-3.6-2c3.8-4.9,6.5-12.6,7.8-18.7l4.1,0.9c-0.5,2.2-1.3,4.5-2,6.8h9.7
				v-9.1h4.1v9.1h18v4.2h-18v11.7h21.9v4.2h-15v17.1c0,1.8,0.4,2,2.5,2H403.7z"/>
			<path class="st1" d="M461.6,620.1c-2.2,7.4-5.9,13.2-10.6,17.7c4.8,3.5,10.5,5.9,17.2,7.3c-0.9,0.9-2,2.6-2.5,3.9
				c-7-1.6-13-4.4-17.8-8.4c-5,3.9-10.8,6.6-16.9,8.3c-0.4-1.1-1.4-2.8-2.1-3.7c5.7-1.4,11.1-3.9,15.8-7.4c-3.2-3.2-6-7-8.2-11.4
				c-3.8,7.2-8.9,13.2-16,17.8c-0.6-1-2-2.6-3-3.3c10-6.5,16-16,19.6-28.1h-7.6c-3.5,0-5.3,0.4-5.8,1c-0.3-0.9-0.9-3.1-1.4-4.1
				c0.8-0.2,1.4-1.1,2-2.3c0.7-1.2,2.7-5.9,3.7-10.4l4.3,0.9c-0.9,3.7-2.5,7.7-4,10.7h9.9c1-4.2,1.8-8.7,2.3-13.4l4.6,0.7
				c-0.6,4.5-1.3,8.7-2.2,12.7h23.6l-0.1,4.2h-24.7c-0.6,2.1-1.3,4.2-1.9,6.2h18.4l0.8-0.2L461.6,620.1z M438.9,623.1
				c2.1,4.6,5,8.7,8.8,12c3.5-3.3,6.4-7.3,8.4-12H438.9z M459.2,606.8c-1.5-2.2-4.6-5.9-6.9-8.6l3.1-2.1c2.4,2.6,5.5,6.2,7.1,8.3
				L459.2,606.8z"/>
			<path class="st1" d="M494.9,608.4c-1.6,3.7-3.6,7.3-5.8,10.6h12v-7.8h4.1v7.8h16.4v18.7c0,2.3-0.5,3.6-2.2,4.2
				c-1.6,0.7-4.6,0.8-9.3,0.7c-0.2-1.2-0.8-2.7-1.3-3.9c3.5,0.1,6.7,0.1,7.5,0.1c0.9-0.1,1.2-0.3,1.2-1.1v-14.6h-12.3v25.6h-4.1
				v-25.6h-11.6v20.2h-4.1v-19.2c-2.4,2.9-5,5.4-8,7.6c-0.5-1.1-1.6-2.7-2.4-3.6c6.6-4.8,11.7-12,15.4-19.7h-13.8v-4.2h15.5
				c1.2-3,2.1-6,2.9-8.9l4.2,1.1c-0.8,2.6-1.7,5.3-2.6,7.9h27.9v4.2H494.9z"/>
		</g>
		<g>
			<path class="st1" d="M186.2,330.1h31.5c6.2,0,10.9,0.3,13.9,0.8c3.1,0.5,5.8,1.6,8.2,3.3c2.4,1.7,4.4,3.9,6,6.6
				c1.6,2.8,2.4,5.9,2.4,9.3c0,3.7-1,7.1-3,10.3c-2,3.1-4.7,5.4-8.1,7c4.8,1.4,8.5,3.8,11.1,7.2c2.6,3.4,3.9,7.4,3.9,12
				c0,3.6-0.8,7.1-2.5,10.6c-1.7,3.4-3.9,6.2-6.8,8.2c-2.9,2-6.4,3.3-10.7,3.8c-2.6,0.3-9,0.5-19.2,0.5h-26.8V330.1z M202.1,343.3
				v18.4h10.4c6.2,0,10-0.1,11.5-0.3c2.7-0.3,4.9-1.3,6.4-2.8c1.6-1.6,2.3-3.6,2.3-6.2c0-2.5-0.7-4.5-2-6c-1.3-1.5-3.3-2.5-6-2.8
				c-1.6-0.2-6.1-0.3-13.6-0.3H202.1z M202.1,374.9v21.3h14.7c5.7,0,9.4-0.2,10.9-0.5c2.4-0.4,4.3-1.5,5.8-3.2
				c1.5-1.7,2.2-3.9,2.2-6.8c0-2.4-0.6-4.4-1.7-6.1c-1.1-1.7-2.8-2.9-5-3.6c-2.2-0.8-6.9-1.1-14.1-1.1H202.1z"/>
			<path class="st1" d="M277.1,409.6H262V352h14v8.2c2.4-3.9,4.6-6.4,6.5-7.7c1.9-1.2,4.1-1.8,6.5-1.8c3.4,0,6.7,1,9.9,2.9
				l-4.7,13.3c-2.5-1.7-4.9-2.5-7.1-2.5c-2.1,0-3.9,0.6-5.4,1.8c-1.5,1.2-2.6,3.3-3.5,6.4c-0.8,3.1-1.3,9.5-1.3,19.3V409.6z"/>
			<path class="st1" d="M314,369.6l-13.7-2.5c1.5-5.6,4.2-9.7,7.9-12.4c3.8-2.7,9.3-4,16.8-4c6.7,0,11.7,0.8,15,2.4
				c3.3,1.6,5.6,3.7,7,6.1c1.3,2.5,2,7,2,13.6l-0.2,17.8c0,5.1,0.2,8.8,0.7,11.2c0.5,2.4,1.4,5,2.7,7.7h-14.9
				c-0.4-1-0.9-2.5-1.4-4.5c-0.3-0.9-0.4-1.5-0.5-1.8c-2.6,2.5-5.3,4.4-8.3,5.7c-2.9,1.3-6.1,1.9-9.4,1.9c-5.9,0-10.5-1.6-13.9-4.8
				c-3.4-3.2-5.1-7.3-5.1-12.2c0-3.3,0.8-6.2,2.3-8.7c1.5-2.6,3.7-4.5,6.5-5.9c2.8-1.4,6.8-2.5,12-3.6c7.1-1.3,11.9-2.6,14.7-3.7
				v-1.5c0-2.9-0.7-5-2.1-6.3c-1.4-1.2-4.1-1.9-8.1-1.9c-2.7,0-4.8,0.5-6.3,1.6C316.2,365,314.9,366.9,314,369.6z M334.2,381.9
				c-1.9,0.7-5,1.4-9.2,2.3c-4.2,0.9-6.9,1.8-8.2,2.7c-2,1.4-3,3.2-3,5.4c0,2.1,0.8,4,2.4,5.5c1.6,1.6,3.6,2.3,6,2.3
				c2.7,0,5.3-0.9,7.8-2.7c1.8-1.4,3-3.1,3.6-5c0.4-1.3,0.6-3.8,0.6-7.4V381.9z"/>
			<path class="st1" d="M413,409.6h-15.1v-29.4c0-6.2-0.3-10.2-1-12.1c-0.6-1.8-1.7-3.2-3.1-4.3c-1.5-1-3.2-1.5-5.2-1.5
				c-2.6,0-5,0.7-7,2.2c-2.1,1.4-3.5,3.4-4.3,5.8c-0.8,2.4-1.2,6.8-1.2,13.2v26.1H361V352h14v8.5c5-6.5,11.2-9.8,18.8-9.8
				c3.3,0,6.4,0.6,9.1,1.8c2.8,1.2,4.8,2.8,6.3,4.6c1.4,1.9,2.4,4,3,6.4c0.6,2.4,0.8,5.8,0.8,10.3V409.6z"/>
			<path class="st1" d="M477.9,409.6h-14v-8.5c-2.3,3.3-5.1,5.7-8.2,7.4c-3.2,1.6-6.4,2.4-9.6,2.4c-6.6,0-12.2-2.7-16.8-8
				c-4.7-5.3-7-12.8-7-22.3c0-9.8,2.3-17.2,6.8-22.3c4.5-5.1,10.3-7.6,17.2-7.6c6.4,0,11.9,2.7,16.5,8v-28.7h15.1V409.6z
				 M437.6,379.6c0,6.2,0.8,10.6,2.5,13.4c2.4,4,5.8,6,10.2,6c3.5,0,6.4-1.5,8.9-4.5c2.4-3,3.7-7.4,3.7-13.4
				c0-6.6-1.2-11.4-3.5-14.3c-2.4-2.9-5.4-4.4-9.1-4.4c-3.6,0-6.6,1.4-9,4.3C438.8,369.5,437.6,373.8,437.6,379.6z"/>
			<path class="st1" d="M485.5,392.4l9.6-1.5c0.5,3.9,2,6.8,4.5,8.9c2.5,2.1,5.9,3.1,10.3,3.1c4.4,0,7.7-0.9,9.9-2.7
				c2.1-1.8,3.2-4,3.2-6.4c0-2.2-0.9-3.9-2.8-5.2c-1.3-0.9-4.6-2-9.9-3.3c-7.1-1.8-12-3.4-14.7-4.7c-2.7-1.3-4.8-3.1-6.2-5.5
				c-1.4-2.3-2.1-4.9-2.1-7.7c0-2.6,0.6-4.9,1.7-7.1c1.2-2.2,2.7-4,4.8-5.5c1.5-1.1,3.6-2.1,6.1-2.8c2.6-0.8,5.4-1.2,8.4-1.2
				c4.5,0,8.4,0.7,11.8,2c3.4,1.3,5.9,3.1,7.5,5.3c1.6,2.2,2.7,5.2,3.3,8.9l-9.5,1.3c-0.4-3-1.7-5.3-3.7-6.9c-2.1-1.7-5-2.5-8.7-2.5
				c-4.4,0-7.6,0.7-9.5,2.2c-1.9,1.5-2.8,3.2-2.8,5.2c0,1.3,0.4,2.4,1.2,3.4c0.8,1,2,1.9,3.7,2.6c1,0.4,3.8,1.2,8.5,2.5
				c6.8,1.8,11.6,3.4,14.3,4.5c2.7,1.2,4.8,2.9,6.4,5.1c1.5,2.2,2.3,5,2.3,8.4c0,3.3-0.9,6.3-2.8,9.2c-1.9,2.9-4.6,5.1-8.1,6.7
				c-3.5,1.6-7.6,2.4-12,2.4c-7.4,0-13.1-1.6-16.9-4.7C489.1,403.1,486.6,398.5,485.5,392.4z"/>
		</g>
		<g>
			<path class="st1" d="M185.9,567.1l4.2-0.4c0.2,1.8,0.7,3.3,1.4,4.4c0.7,1.1,1.9,2.1,3.4,2.8c1.5,0.7,3.3,1.1,5.2,1.1
				c1.7,0,3.2-0.3,4.5-0.8c1.3-0.5,2.3-1.3,2.9-2.2c0.6-0.9,1-2,1-3.1c0-1.1-0.3-2.1-0.9-2.9c-0.6-0.8-1.6-1.5-3-2.1
				c-0.9-0.4-2.9-1-6-1.7c-3.1-0.8-5.3-1.5-6.5-2.2c-1.6-0.9-2.8-2-3.6-3.3c-0.8-1.3-1.2-2.8-1.2-4.5c0-1.8,0.5-3.5,1.4-5.1
				c1-1.6,2.4-2.8,4.2-3.6c1.9-0.8,3.9-1.2,6.2-1.2c2.5,0,4.7,0.4,6.6,1.3c1.9,0.9,3.4,2.1,4.4,3.8c1,1.7,1.6,3.5,1.7,5.6l-4.3,0.3
				c-0.2-2.3-1-4-2.3-5.1c-1.3-1.2-3.3-1.7-5.9-1.7c-2.7,0-4.7,0.5-5.9,1.6c-1.2,1.1-1.8,2.3-1.8,3.8c0,1.3,0.4,2.3,1.3,3.2
				c0.9,0.8,3.1,1.7,6.7,2.6c3.6,0.9,6.1,1.6,7.4,2.3c2,1,3.4,2.2,4.3,3.7c0.9,1.5,1.4,3.2,1.4,5.1c0,1.9-0.5,3.7-1.5,5.4
				c-1,1.7-2.5,3-4.4,3.9c-1.9,0.9-4.1,1.4-6.5,1.4c-3,0-5.6-0.5-7.7-1.4s-3.7-2.4-4.8-4.3C186.6,571.7,185.9,569.5,185.9,567.1z"/>
			<path class="st1" d="M216.6,588.6v-35.9h3.8v3.4c0.9-1.3,1.9-2.3,3-3c1.1-0.7,2.5-1,4.1-1c2.1,0,3.9,0.6,5.5,1.7
				c1.6,1.1,2.8,2.7,3.6,4.8c0.8,2.1,1.2,4.3,1.2,6.8c0,2.7-0.4,5-1.3,7.2c-0.9,2.1-2.2,3.8-3.9,4.9c-1.7,1.1-3.5,1.7-5.4,1.7
				c-1.4,0-2.6-0.3-3.7-0.9s-2-1.4-2.7-2.3v12.6H216.6z M220.3,565.8c0,3.3,0.6,5.8,1.9,7.4c1.3,1.6,2.8,2.4,4.6,2.4
				c1.8,0,3.4-0.8,4.7-2.5c1.3-1.7,2-4.2,2-7.7c0-3.3-0.6-5.8-1.9-7.4c-1.3-1.6-2.8-2.5-4.6-2.5c-1.8,0-3.3,0.9-4.7,2.6
				C221,559.9,220.3,562.5,220.3,565.8z"/>
			<path class="st1" d="M241,578.6v-25.9h3.7v3.9c0.9-1.8,1.8-3.1,2.6-3.6s1.7-0.9,2.7-0.9c1.4,0,2.8,0.5,4.2,1.4l-1.4,4.1
				c-1-0.6-2-1-3-1c-0.9,0-1.7,0.3-2.4,0.9c-0.7,0.6-1.2,1.4-1.5,2.4c-0.5,1.6-0.7,3.3-0.7,5.1v13.6H241z"/>
			<path class="st1" d="M255.1,547.9v-5.1h4.1v5.1H255.1z M255.1,578.6v-25.9h4.1v25.9H255.1z"/>
			<path class="st1" d="M263.9,578.6v-25.9h3.7v3.7c1.8-2.8,4.4-4.3,7.8-4.3c1.5,0,2.8,0.3,4.1,0.8c1.2,0.6,2.2,1.3,2.8,2.2
				c0.6,0.9,1,2,1.3,3.2c0.2,0.8,0.2,2.2,0.2,4.3v15.9h-4.1v-15.8c0-1.8-0.2-3.1-0.5-4c-0.3-0.9-0.9-1.6-1.7-2.1
				c-0.8-0.5-1.8-0.8-2.9-0.8c-1.8,0-3.3,0.6-4.6,1.8c-1.3,1.2-1.9,3.4-1.9,6.8v14.2H263.9z"/>
			<path class="st1" d="M287.6,580.8l4,0.6c0.2,1.3,0.6,2.3,1.4,2.9c1,0.8,2.4,1.2,4.2,1.2c1.9,0,3.4-0.4,4.4-1.2
				c1-0.8,1.7-2,2.1-3.4c0.2-0.9,0.3-2.8,0.3-5.6c-1.8,2.3-4.1,3.4-6.7,3.4c-3.4,0-5.9-1.3-7.8-3.9c-1.8-2.6-2.8-5.7-2.8-9.3
				c0-2.5,0.4-4.8,1.3-6.8c0.8-2.1,2.1-3.7,3.7-4.8c1.6-1.1,3.5-1.7,5.6-1.7c2.9,0,5.2,1.2,7.1,3.7v-3.1h3.8v22.4
				c0,4-0.4,6.9-1.2,8.6c-0.8,1.7-2,3-3.7,4s-3.7,1.5-6.2,1.5c-2.9,0-5.3-0.7-7-2.1C288.4,585.7,287.5,583.6,287.6,580.8z
				 M291,565.2c0,3.4,0.6,5.9,1.9,7.4c1.3,1.6,2.9,2.3,4.8,2.3c1.9,0,3.5-0.8,4.8-2.3c1.3-1.6,1.9-4,1.9-7.3c0-3.2-0.7-5.6-2-7.2
				s-2.9-2.4-4.8-2.4c-1.8,0-3.4,0.8-4.7,2.4C291.7,559.7,291,562.1,291,565.2z"/>
			<path class="st1" d="M343.5,574.4c-1.4,1.6-2.8,2.8-4.5,3.6c-1.6,0.8-3.3,1.2-5.2,1.2c-3.4,0-6.2-1.2-8.2-3.7
				c-1.6-2-2.5-4.3-2.5-6.8c0-2.2,0.7-4.2,2-6c1.3-1.8,3.3-3.3,6-4.7c-1.5-1.9-2.5-3.4-3-4.5c-0.5-1.2-0.8-2.3-0.8-3.3
				c0-2.1,0.8-4,2.4-5.6c1.6-1.6,3.6-2.4,6-2.4c2.3,0,4.2,0.7,5.6,2.2c1.5,1.5,2.2,3.3,2.2,5.4c0,3.4-2.1,6.3-6.4,8.7l6,8.2
				c0.7-1.4,1.2-3.1,1.6-5l4.3,1c-0.7,3.1-1.7,5.7-3,7.7c1.5,2.2,3.3,4,5.3,5.5l-2.8,3.5C347,578.3,345.3,576.6,343.5,574.4z
				 M340.9,570.9l-7.6-10c-2.2,1.4-3.7,2.7-4.5,3.9c-0.8,1.2-1.2,2.4-1.2,3.6c0,1.4,0.5,3,1.6,4.5c1.1,1.6,2.6,2.3,4.6,2.3
				c1.2,0,2.5-0.4,3.8-1.2C339.1,573.3,340.1,572.2,340.9,570.9z M335.1,555.7c1.8-1.1,2.9-2.1,3.5-3c0.5-0.8,0.8-1.8,0.8-2.8
				c0-1.2-0.4-2.2-1.1-3c-0.7-0.8-1.6-1.2-2.7-1.2c-1.1,0-2,0.4-2.8,1.1c-0.7,0.8-1.1,1.7-1.1,2.8c0,0.6,0.1,1.1,0.4,1.7
				c0.3,0.6,0.7,1.3,1.2,1.9L335.1,555.7z"/>
			<path class="st1" d="M364.4,567.1l4.2-0.4c0.2,1.8,0.7,3.3,1.4,4.4c0.7,1.1,1.9,2.1,3.4,2.8c1.5,0.7,3.3,1.1,5.2,1.1
				c1.7,0,3.2-0.3,4.5-0.8c1.3-0.5,2.3-1.3,2.9-2.2c0.6-0.9,1-2,1-3.1c0-1.1-0.3-2.1-0.9-2.9c-0.6-0.8-1.6-1.5-3-2.1
				c-0.9-0.4-2.9-1-6-1.7c-3.1-0.8-5.3-1.5-6.5-2.2c-1.6-0.9-2.8-2-3.6-3.3c-0.8-1.3-1.2-2.8-1.2-4.5c0-1.8,0.5-3.5,1.4-5.1
				c1-1.6,2.4-2.8,4.2-3.6c1.9-0.8,3.9-1.2,6.2-1.2c2.5,0,4.7,0.4,6.6,1.3c1.9,0.9,3.4,2.1,4.4,3.8c1,1.7,1.6,3.5,1.7,5.6l-4.3,0.3
				c-0.2-2.3-1-4-2.3-5.1c-1.3-1.2-3.3-1.7-5.9-1.7c-2.7,0-4.7,0.5-5.9,1.6c-1.2,1.1-1.8,2.3-1.8,3.8c0,1.3,0.4,2.3,1.3,3.2
				c0.9,0.8,3.1,1.7,6.7,2.6c3.6,0.9,6.1,1.6,7.4,2.3c2,1,3.4,2.2,4.3,3.7c0.9,1.5,1.4,3.2,1.4,5.1c0,1.9-0.5,3.7-1.5,5.4
				c-1,1.7-2.5,3-4.4,3.9c-1.9,0.9-4.1,1.4-6.5,1.4c-3,0-5.6-0.5-7.7-1.4s-3.7-2.4-4.8-4.3C365.1,571.7,364.5,569.5,364.4,567.1z"/>
			<path class="st1" d="M411.1,578.6v-3.8c-1.9,2.9-4.5,4.4-7.7,4.4c-1.4,0-2.8-0.3-4-0.9s-2.2-1.3-2.8-2.2c-0.6-0.9-1-2-1.3-3.3
				c-0.2-0.9-0.3-2.2-0.3-4.1v-16.1h4.1v14.4c0,2.3,0.1,3.8,0.3,4.6c0.3,1.2,0.8,2.1,1.7,2.7c0.8,0.7,1.9,1,3.1,1s2.4-0.3,3.5-1
				c1.1-0.7,1.9-1.6,2.3-2.8c0.5-1.2,0.7-2.9,0.7-5.1v-13.9h4.1v25.9H411.1z"/>
			<path class="st1" d="M419.6,578.6v-25.9h3.7v3.6c0.8-1.3,1.8-2.3,3.1-3.1c1.3-0.8,2.7-1.2,4.3-1.2c1.8,0,3.3,0.4,4.4,1.2
				c1.2,0.8,2,1.9,2.4,3.3c1.9-3,4.4-4.5,7.5-4.5c2.4,0,4.3,0.7,5.6,2.1c1.3,1.4,2,3.6,2,6.6v17.8h-4.1v-16.3c0-1.8-0.1-3-0.4-3.8
				c-0.3-0.8-0.8-1.4-1.5-1.9c-0.7-0.5-1.5-0.7-2.5-0.7c-1.7,0-3.1,0.6-4.3,1.8c-1.1,1.2-1.7,3.2-1.7,5.8v15.1h-4.1v-16.8
				c0-2-0.3-3.4-1-4.4s-1.8-1.5-3.3-1.5c-1.2,0-2.2,0.3-3.2,1c-1,0.7-1.7,1.6-2.1,2.9c-0.4,1.3-0.7,3.1-0.7,5.4v13.5H419.6z"/>
			<path class="st1" d="M457.1,578.6v-25.9h3.7v3.6c0.8-1.3,1.8-2.3,3.1-3.1c1.3-0.8,2.7-1.2,4.3-1.2c1.8,0,3.3,0.4,4.4,1.2
				c1.2,0.8,2,1.9,2.4,3.3c1.9-3,4.4-4.5,7.5-4.5c2.4,0,4.3,0.7,5.6,2.1c1.3,1.4,2,3.6,2,6.6v17.8H486v-16.3c0-1.8-0.1-3-0.4-3.8
				c-0.3-0.8-0.8-1.4-1.5-1.9c-0.7-0.5-1.5-0.7-2.5-0.7c-1.7,0-3.1,0.6-4.3,1.8c-1.1,1.2-1.7,3.2-1.7,5.8v15.1h-4.1v-16.8
				c0-2-0.3-3.4-1-4.4c-0.7-1-1.8-1.5-3.3-1.5c-1.2,0-2.2,0.3-3.2,1c-1,0.7-1.7,1.6-2.1,2.9c-0.4,1.3-0.7,3.1-0.7,5.4v13.5H457.1z"
				/>
			<path class="st1" d="M511.3,570.3l4.3,0.6c-0.7,2.7-1.9,4.7-3.7,6.2c-1.8,1.5-4.1,2.2-7,2.2c-3.6,0-6.4-1.2-8.5-3.5
				c-2.1-2.3-3.1-5.6-3.1-9.8c0-4.4,1.1-7.7,3.2-10.2c2.1-2.4,4.8-3.6,8.2-3.6c3.3,0,5.9,1.2,8,3.5c2.1,2.4,3.1,5.7,3.1,10
				c0,0.3,0,0.7,0,1.2h-18.2c0.2,2.8,0.9,5,2.3,6.5s3.1,2.3,5.1,2.3c1.5,0,2.8-0.4,3.9-1.3C509.8,573.5,510.7,572.1,511.3,570.3z
				 M497.7,563.2h13.6c-0.2-2.2-0.7-3.8-1.6-4.9c-1.3-1.7-3-2.5-5.1-2.5c-1.9,0-3.5,0.7-4.8,2C498.6,559.1,497.9,560.9,497.7,563.2z
				"/>
			<path class="st1" d="M519,578.6v-25.9h3.7v3.9c0.9-1.8,1.8-3.1,2.6-3.6c0.8-0.6,1.7-0.9,2.7-0.9c1.4,0,2.8,0.5,4.2,1.4l-1.4,4.1
				c-1-0.6-2-1-3-1c-0.9,0-1.7,0.3-2.4,0.9c-0.7,0.6-1.2,1.4-1.5,2.4c-0.5,1.6-0.7,3.3-0.7,5.1v13.6H519z"/>
		</g>
		<g>
			<path class="st1" d="M183.2,314.3l13.7-13.1c1.5-1.4,2.8-2.8,3.8-4c1-1.2,1.9-2.3,2.5-3.3c0.6-1,1.1-2,1.4-3c0.3-1,0.4-2,0.4-3
				c0-1.3-0.2-2.4-0.7-3.5c-0.5-1-1.1-1.9-1.8-2.6c-0.8-0.7-1.6-1.3-2.6-1.7c-1-0.4-2.1-0.6-3.1-0.6c-2.3,0-4.3,0.6-6,1.9
				c-1.6,1.2-3.2,3-4.8,5.4l-2-1.5c0.8-1.3,1.6-2.5,2.5-3.5c0.9-1,1.8-1.9,2.8-2.6c1-0.7,2.2-1.3,3.4-1.7s2.7-0.6,4.3-0.6
				c1.6,0,3,0.3,4.3,0.8c1.3,0.5,2.5,1.3,3.4,2.3c1,1,1.7,2.1,2.3,3.4c0.6,1.3,0.8,2.7,0.8,4.2v0.1c0,1.3-0.2,2.6-0.5,3.8
				c-0.3,1.2-0.9,2.3-1.6,3.5c-0.8,1.2-1.7,2.4-2.9,3.7c-1.2,1.3-2.5,2.7-4.1,4.2l-11.2,10.8h20.7v2.8h-25V314.3z"/>
			<path class="st1" d="M229.6,317.1c-2.3,0-4.4-0.5-6.3-1.6c-1.9-1.1-3.5-2.5-4.8-4.4c-1.3-1.8-2.3-4-3-6.4c-0.7-2.4-1-5-1-7.7
				v-0.1c0-2.7,0.4-5.2,1.1-7.7c0.7-2.5,1.7-4.6,3.1-6.4c1.3-1.8,2.9-3.3,4.8-4.4c1.9-1.1,4-1.6,6.3-1.6c2.3,0,4.4,0.5,6.3,1.6
				c1.9,1.1,3.5,2.5,4.8,4.4s2.3,4,3,6.4c0.7,2.4,1,5,1,7.7v0.1c0,2.7-0.4,5.2-1.1,7.7c-0.7,2.5-1.7,4.6-3.1,6.4
				c-1.3,1.8-2.9,3.3-4.8,4.4C234.1,316.6,232,317.1,229.6,317.1z M229.7,314.5c1.9,0,3.6-0.5,5.1-1.5c1.5-1,2.8-2.3,3.9-3.9
				c1.1-1.6,1.9-3.5,2.5-5.6c0.6-2.1,0.9-4.3,0.9-6.6v-0.1c0-2.3-0.3-4.5-0.9-6.6c-0.6-2.1-1.4-4-2.5-5.6c-1.1-1.6-2.4-2.9-3.9-3.9
				c-1.5-1-3.2-1.5-5.1-1.5c-1.9,0-3.6,0.5-5.1,1.5c-1.5,1-2.8,2.3-3.9,3.9c-1.1,1.6-1.9,3.5-2.5,5.6c-0.6,2.1-0.9,4.3-0.9,6.6v0.1
				c0,2.3,0.3,4.5,0.9,6.6c0.6,2.1,1.4,4,2.5,5.6c1.1,1.6,2.4,2.9,3.9,3.9C226.2,314,227.9,314.5,229.7,314.5z"/>
			<path class="st1" d="M257.1,280.1l-7.1,2.6l-0.7-2.3l8.4-3.3h2.1v39.3h-2.7V280.1z"/>
			<path class="st1" d="M280.6,317.1c-2.5,0-4.9-0.6-7.1-1.8c-2.2-1.2-4.1-2.7-5.7-4.5l1.9-2.1c1.7,1.8,3.4,3.2,5.3,4.2
				c1.9,1,3.8,1.5,5.7,1.5c1.5,0,2.8-0.3,4-0.8c1.2-0.5,2.2-1.2,3.1-2.1c0.9-0.9,1.5-1.9,2-3.1c0.5-1.2,0.7-2.5,0.7-3.9v-0.1
				c0-1.3-0.2-2.6-0.7-3.7c-0.5-1.1-1.2-2.1-2.1-2.9c-0.9-0.8-2-1.5-3.2-1.9c-1.2-0.5-2.6-0.7-4.1-0.7c-1.7,0-3.2,0.2-4.6,0.7
				c-1.3,0.5-2.6,1.1-3.7,1.7l-2.1-1.5l1-18.9h20.6v2.8h-18.2l-0.9,14.6c1.2-0.6,2.4-1.1,3.7-1.5s2.7-0.6,4.5-0.6
				c1.8,0,3.4,0.3,4.9,0.9c1.5,0.6,2.8,1.4,4,2.4c1.1,1,2,2.3,2.7,3.7c0.6,1.5,1,3.1,1,4.8v0.1c0,1.9-0.3,3.6-1,5.1
				c-0.6,1.5-1.5,2.8-2.7,4c-1.1,1.1-2.5,2-4,2.6C284.1,316.8,282.4,317.1,280.6,317.1z"/>
			<path class="st1" d="M300.2,311.7h3.5v4.7h-3.5V311.7z"/>
			<path class="st1" d="M330.8,306.9h-19.8l-0.9-2.2l20.9-27.6h2.5v27.3h6v2.5h-6v9.5h-2.6V306.9z M330.8,304.4v-23.1l-17.5,23.1
				H330.8z"/>
			<path class="st1" d="M346,311.7h3.5v4.7H346V311.7z"/>
			<path class="st1" d="M371.8,317.1c-2.3,0-4.4-0.5-6.3-1.6c-1.9-1.1-3.5-2.5-4.8-4.4c-1.3-1.8-2.3-4-3-6.4c-0.7-2.4-1-5-1-7.7
				v-0.1c0-2.7,0.4-5.2,1.1-7.7c0.7-2.5,1.7-4.6,3.1-6.4c1.3-1.8,2.9-3.3,4.8-4.4c1.9-1.1,4-1.6,6.3-1.6c2.3,0,4.4,0.5,6.3,1.6
				c1.9,1.1,3.5,2.5,4.8,4.4c1.3,1.8,2.3,4,3,6.4c0.7,2.4,1,5,1,7.7v0.1c0,2.7-0.4,5.2-1.1,7.7s-1.7,4.6-3.1,6.4
				c-1.3,1.8-2.9,3.3-4.8,4.4S374.1,317.1,371.8,317.1z M371.9,314.5c1.9,0,3.6-0.5,5.1-1.5c1.5-1,2.8-2.3,3.9-3.9s1.9-3.5,2.5-5.6
				c0.6-2.1,0.9-4.3,0.9-6.6v-0.1c0-2.3-0.3-4.5-0.9-6.6c-0.6-2.1-1.4-4-2.5-5.6c-1.1-1.6-2.4-2.9-3.9-3.9c-1.5-1-3.2-1.5-5.1-1.5
				s-3.6,0.5-5.1,1.5c-1.5,1-2.8,2.3-3.9,3.9c-1.1,1.6-1.9,3.5-2.5,5.6c-0.6,2.1-0.9,4.3-0.9,6.6v0.1c0,2.3,0.3,4.5,0.9,6.6
				c0.6,2.1,1.4,4,2.5,5.6c1.1,1.6,2.4,2.9,3.9,3.9C368.3,314,370,314.5,371.9,314.5z"/>
			<path class="st1" d="M392.4,314.3l13.7-13.1c1.5-1.4,2.8-2.8,3.8-4c1-1.2,1.9-2.3,2.5-3.3c0.6-1,1.1-2,1.4-3c0.3-1,0.4-2,0.4-3
				c0-1.3-0.2-2.4-0.7-3.5c-0.5-1-1.1-1.9-1.8-2.6c-0.8-0.7-1.6-1.3-2.6-1.7c-1-0.4-2.1-0.6-3.1-0.6c-2.3,0-4.3,0.6-6,1.9
				c-1.6,1.2-3.2,3-4.8,5.4l-2-1.5c0.8-1.3,1.6-2.5,2.5-3.5c0.9-1,1.8-1.9,2.8-2.6c1-0.7,2.2-1.3,3.4-1.7c1.3-0.4,2.7-0.6,4.3-0.6
				c1.6,0,3,0.3,4.3,0.8c1.3,0.5,2.5,1.3,3.4,2.3c1,1,1.7,2.1,2.3,3.4c0.6,1.3,0.8,2.7,0.8,4.2v0.1c0,1.3-0.2,2.6-0.5,3.8
				c-0.3,1.2-0.9,2.3-1.6,3.5c-0.8,1.2-1.7,2.4-2.9,3.7c-1.2,1.3-2.5,2.7-4.1,4.2l-11.2,10.8h20.7v2.8h-25V314.3z"/>
			<path class="st1" d="M423.9,298.3h14v3.1h-14V298.3z"/>
			<path class="st1" d="M464.4,306.9h-19.8l-0.9-2.2l20.9-27.6h2.5v27.3h6v2.5h-6v9.5h-2.6V306.9z M464.4,304.4v-23.1l-17.5,23.1
				H464.4z"/>
			<path class="st1" d="M479.7,311.7h3.5v4.7h-3.5V311.7z"/>
			<path class="st1" d="M496.3,280.1l-7.1,2.6l-0.7-2.3l8.4-3.3h2.1v39.3h-2.7V280.1z"/>
			<path class="st1" d="M519.2,317.1c-2.3,0-4.3-0.5-6.1-1.4c-1.8-0.9-3.4-2.1-4.9-3.5l1.7-2.2c1.6,1.5,3.1,2.6,4.6,3.3
				c1.5,0.7,3.1,1.1,4.8,1.1c1.9,0,3.5-0.5,5.1-1.5c1.5-1,2.8-2.4,3.9-4.2c1.1-1.8,1.9-3.9,2.5-6.4s0.8-5.2,0.7-8.1
				c-0.5,1-1.1,2-1.9,2.9c-0.7,0.9-1.5,1.7-2.5,2.4c-0.9,0.7-2,1.2-3.2,1.6c-1.2,0.4-2.5,0.6-3.9,0.6c-1.9,0-3.6-0.3-5.1-0.9
				s-2.9-1.5-4-2.5c-1.1-1.1-2-2.3-2.6-3.8c-0.6-1.5-0.9-3-0.9-4.7v-0.1c0-1.8,0.3-3.5,0.9-5.1c0.6-1.6,1.5-3,2.6-4.2
				c1.1-1.2,2.5-2.1,4.1-2.8c1.6-0.7,3.3-1,5.2-1c2,0,3.8,0.4,5.3,1.1c1.6,0.7,2.9,1.7,4,2.9c0.7,0.7,1.3,1.6,1.9,2.5s1.1,2,1.5,3.3
				s0.7,2.6,0.9,4.2c0.2,1.6,0.3,3.3,0.3,5.2v0.1c0,3.1-0.4,5.9-1.1,8.5s-1.8,4.8-3.1,6.7c-1.3,1.9-2.9,3.3-4.7,4.4
				S521.4,317.1,519.2,317.1z M520.1,299.3c1.6,0,3-0.3,4.2-0.9c1.3-0.6,2.3-1.3,3.2-2.3c0.9-0.9,1.6-2,2-3.2
				c0.5-1.2,0.7-2.4,0.7-3.6v-0.1c0-1.4-0.3-2.7-0.8-3.9c-0.5-1.2-1.2-2.3-2.1-3.1s-2-1.6-3.3-2.1c-1.3-0.5-2.7-0.8-4.2-0.8
				c-1.5,0-2.9,0.3-4.1,0.9c-1.2,0.6-2.2,1.3-3.1,2.3c-0.8,0.9-1.5,2-1.9,3.3c-0.5,1.3-0.7,2.6-0.7,3.9v0.1c0,1.4,0.2,2.6,0.7,3.8
				c0.5,1.1,1.2,2.1,2.1,3c0.9,0.8,1.9,1.5,3.1,2C517.3,299,518.7,299.3,520.1,299.3z"/>
		</g>
		<g>
			<path class="st1" d="M193.5,527.4v-50.5h42.2v50.5h-9.8v-6.8h-22.7v6.8H193.5z M203.2,486v26.4h22.7V486H203.2z M204.1,464.6
				v-40.5h76.5v40.5H204.1z M214.8,433.7v21.4h55.1v-21.4H214.8z M248.6,527.4v-50.5h42.2v50.5h-9.3v-6.8h-23.1v6.8H248.6z
				 M258.3,486v26.4h23.1V486H258.3z"/>
			<path class="st1" d="M307.1,527.4l-8.4-5.5c2.7-6.4,4.3-12.6,4.9-18.6c0.9-5.8,1.3-14.8,1.3-27.3v-52.3h9.3V456h11.1v-35h8.4v35
				h6.2v8.6h-25.8v12.7v0.5h20.4v48.7h-8.4v-40h-12C313.9,502.5,311.5,516.1,307.1,527.4z M344.4,482.3v-52.7h18.7
				c0.9-3.6,1.6-7.3,2.2-10.9l10.2,0.9c-0.9,3-1.8,6.4-2.7,10h28.9v52.7h-30.7c-3.6,5.8-9.3,11.2-17.3,16.4h20.4v-11.8h9.8v11.8
				h23.1v9.1H384v19.6h-9.8v-19.6h-35.1v-9.1h11.1c-1.5-1.8-3.1-3.5-4.9-5c7.1-3.6,12.3-7.4,15.6-11.4H344.4z M353.3,437.8v14.1
				h15.6v-14.1H353.3z M353.3,473.7h12.9c1.5-3.9,2.4-8.6,2.7-14.1h-15.6V473.7z M375.1,473.7h17.8v-14.1h-15.6
				C377.3,465.1,376.6,469.8,375.1,473.7z M392.8,437.8h-15.6v14.1h15.6V437.8z"/>
			<path class="st1" d="M415.3,526.9V426h80.5v100.9H485v-7.7h-58.7v7.7H415.3z M426.4,436v31.4H485V436H426.4z M426.4,477.3v32.3
				H485v-32.3H426.4z"/>
			<path class="st1" d="M519.4,502.8h-8c-0.3-26.7-1.2-53.2-2.7-79.6h13.3c-0.3,6.1-0.6,15-0.9,26.8
				C520.6,473.1,520,490.7,519.4,502.8z M521.2,512.4v12.7h-11.1v-12.7H521.2z"/>
		</g>
		<g id="形状_2">
			<g>
				<rect x="188.7" y="253.6" class="st3" width="339.9" height="2.3"/>
			</g>
		</g>
		<g id="形状_2_副本">
			<g>
				<rect x="188.7" y="747.6" class="st3" width="339.9" height="2.3"/>
			</g>
		</g>
	</g>
</g>
<g>
</g>
<g>
</g>
<g>
</g>
<g>
</g>
<g>
</g>
<g>
</g>
<g>
</g>
<g>
</g>
<g>
</g>
<g>
</g>
<g>
</g>
<g>
</g>
<g>
</g>
<g>
</g>
<g>
</g>
</svg>
