<?xml version="1.0" encoding="utf-8"?>
<!-- Generator: Adobe Illustrator 17.0.0, SVG Export Plug-In . SVG Version: 6.00 Build 0)  -->
<!DOCTYPE svg PUBLIC "-//W3C//DTD SVG 1.1//EN" "http://www.w3.org/Graphics/SVG/1.1/DTD/svg11.dtd">
<svg version="1.1" id="Layer_1" xmlns="http://www.w3.org/2000/svg" xmlns:xlink="http://www.w3.org/1999/xlink" x="0px" y="0px"
	 width="720px" height="67.5px" viewBox="0 0 720 67.5" style="enable-background:new 0 0 720 67.5;" xml:space="preserve">
<style type="text/css">
	.st0{fill:none;}
</style>
<g id="page-05-info.svg">
	<rect y="0" class="st0" width="720" height="67.5"/>
	<path d="M263.9,40.1c-1.2,2.2-2.2,4-3.1,5.2l-1.6-1.2c1-1.4,2-3.1,3.1-5L263.9,40.1z M262.2,29h7.3v-7.7h1.9v2.9h10.4v1.8h-10.4v3
		h8.2v9.3h-1.9v-1h-13.6v1h-1.9V29z M277.7,30.8h-13.6v4.8h13.6V30.8z M267.8,39c0.7,1.6,1.3,3.4,1.9,5.2l-1.9,0.7
		c-0.5-1.8-1-3.5-1.6-5.2L267.8,39z M273.3,38.8c0.7,1.6,1.4,3.3,2,5.1l-1.8,0.8c-0.4-1.5-1.1-3.2-1.9-5.1L273.3,38.8z M279,38.9
		c1.2,2,2.2,3.7,3,5.3l-1.8,1c-0.8-1.7-1.7-3.5-2.8-5.4L279,38.9z M301.7,45.4v-1h-16.4V36h2v6.5h6.1v-8.6h-10.3v-1.9h10.3v-4.4
		h-8.7v-1.9h8.7v-4.4h2v4.4h8.7v1.9h-8.7v4.4h10.3v1.9h-10.3v8.6h6.2V36h2v9.4H301.7z M317.6,30.5c2.6-1.7,5.1-3.5,7.4-5.2h-17.4v-2
		h20.6v2.4c-2.8,2-5.6,4-8.5,5.9v9c0,1.6-0.3,2.7-0.9,3.3c-0.6,0.7-1.6,1-3.2,1c-0.8,0-2.1,0-3.8-0.1c-0.1-0.8-0.2-1.6-0.4-2.4
		c1.5,0.2,2.9,0.3,4,0.3c1.4,0,2.1-0.7,2.1-2.2V30.5z M331.4,29.7c-0.3-0.4-0.6-0.8-1.1-1.3c1.7-2,3.1-4.3,4.1-6.9l1.6,0.5
		c-0.3,0.7-0.6,1.3-1,2h4.4v1.5l-1.7,2.6h3v14.7c0,1.6-0.8,2.4-2.3,2.5c-0.7,0-1.4,0-2.1,0c0-0.4-0.1-1-0.3-1.6
		c0.7,0.1,1.4,0.1,2,0.1c0.7,0,1.1-0.4,1.1-1.1v-4h-2.1V43h-1.5v-4.5h-2.1c-0.1,3.1-0.8,5.4-1.9,7c-0.4-0.4-0.8-0.8-1.3-1.2
		c1.1-1.8,1.7-4.2,1.7-7.2v-8.3C331.8,29.1,331.6,29.4,331.4,29.7L331.4,29.7z M334.3,25.4c-0.5,1-1.1,1.8-1.6,2.6h3.2l1.7-2.6
		H334.3L334.3,25.4z M333.6,32.5h2v-3.1h-2V32.5z M333.6,37.1h2V34h-2V37.1z M339.2,29.4h-2.1v3.1h2.1V29.4z M337.1,37.1h2.1V34
		h-2.1V37.1z M341.6,22.7h10.4c0,1.6-0.1,3.1-0.2,4.5c-0.1,2-1.1,3-3,3c-0.6,0-1.4,0-2.4-0.1c-0.1-0.7-0.2-1.3-0.3-2
		c1.1,0.1,2,0.2,2.6,0.2c0.8,0,1.3-0.5,1.4-1.4c0.1-0.7,0.1-1.6,0.2-2.6h-4.4c-0.1,1.6-0.3,2.9-0.8,3.9c-0.5,1.1-1.6,2.2-3.1,3.2
		c-0.2-0.4-0.6-0.9-1.1-1.6c1.3-0.7,2.2-1.5,2.7-2.4c0.4-0.7,0.7-1.7,0.7-3.1h-2.6V22.7z M341.4,38.7h5.5v-3.5h-2.8
		c-0.3,0.9-0.7,1.8-1,2.6c-0.4-0.3-1-0.5-1.5-0.7c0.9-2,1.6-3.9,2.1-5.9l1.6,0.5c-0.2,0.7-0.4,1.3-0.6,1.9h2.3v-2.6h1.7v2.6h4.1v1.7
		h-4.1v3.5h4.7v1.7h-4.7v5.1h-1.7v-5.1h-5.5V38.7z M354.9,28.1v-1.8h9.2v1.8c-0.9,1.7-2,3.3-3.2,4.9v12.5h-1.8V35
		c-1.3,1.4-2.8,2.8-4.4,4.1c-0.3-1-0.5-1.7-0.6-2.1c3.5-2.7,6.2-5.6,8-8.9H354.9z M360.4,25.8c-0.8-1.2-1.6-2.3-2.4-3.3l1.4-1
		c0.8,1.1,1.6,2.1,2.4,3.2L360.4,25.8L360.4,25.8z M365.3,37.6c-1.3-1.2-2.6-2.3-3.9-3.4l1-1.3c1.3,1,2.7,2,4,3.2L365.3,37.6
		L365.3,37.6z M367.6,21.8h1.9v19.5c0,1.1,0.5,1.6,1.6,1.6h1.9c1.1,0,1.8-0.6,1.9-1.7c0.1-1.1,0.2-2.7,0.3-4.6
		c0.7,0.3,1.3,0.6,1.9,0.8c-0.2,2.3-0.4,4-0.5,4.9c-0.3,1.7-1.4,2.5-3.4,2.5h-2.5c-2.1,0-3.1-1.1-3.1-3.2V21.8z M379.1,34.2h8.8
		v11.3h-1.8v-1.6h-5.3v1.6h-1.8V34.2z M386.1,35.9h-5.3v6.3h5.3V35.9z M381.3,22.5h16v9.7h-1.9v-0.8h-12.3v0.8h-1.9V22.5z
		 M395.5,24.2h-12.3v5.5h12.3V24.2z M390.7,34.2h8.8v11.3h-1.8v-1.7h-5.3v1.7h-1.8V34.2z M397.8,35.9h-5.3v6.3h5.3V35.9z
		 M406.1,41.7c0.9-0.6,1.9-1.3,3-2.1c0,0.5,0.1,1.2,0.2,2.1c-2.2,1.4-3.7,2.6-4.6,3.4l-1.1-1.6c0.5-0.5,0.8-1.2,0.8-2.1v-9.7h-2.8
		v-1.8h4.6V41.7L406.1,41.7z M403.7,21.9c1.4,1.5,2.6,2.8,3.7,4.1l-1.6,1.4c-1.1-1.5-2.2-2.9-3.4-4.2L403.7,21.9z M408,36.9h7.2
		v-3.6h-5.9v-1.8h5.9v-3.6h-6.6V26h8.4c1.3-1.8,2.3-3.3,3-4.7l1.9,1.2c-0.7,0.9-1.7,2.1-2.8,3.5h4.9v1.8h-6.9v3.6h6.2v1.8h-6.2v3.6
		h7.5v1.8h-7.5v6.8h-1.9v-6.8H408V36.9z M412.9,25.9c-0.8-1.2-1.6-2.3-2.5-3.4l1.4-1.1c1,1.2,1.9,2.3,2.7,3.3L412.9,25.9L412.9,25.9
		z M425.2,33.3c0.3-1.6,0.6-3.6,0.9-6.1l1.5,0.2c-0.2,2-0.4,4.1-0.8,6.3C426.4,33.5,425.9,33.4,425.2,33.3L425.2,33.3z M428.3,21.6
		h1.6v5l0.9-0.7c0.8,1,1.5,1.9,2.1,2.7l-1.3,1c-0.5-0.7-1-1.6-1.7-2.5v18.3h-1.6V21.6z M432,29.9h7.1v-1.7h-5.8v-1.5h5.8v-1.6h-6.5
		v-1.5h6.5v-2.2h1.8v2.2h6.9v1.5h-6.9v1.6h6.3v1.5h-6.3v1.7h7.4v1.5H432V29.9z M435.3,45.3h-1.8V33h13v9.4c0,1.8-0.8,2.7-2.3,2.8
		c-1,0-2.3,0-3.9,0c-0.1-0.5-0.2-1.1-0.3-1.9c1.5,0.1,2.7,0.1,3.6,0.1c0.8,0,1.3-0.4,1.3-1.2v-1.3h-9.5V45.3z M444.8,34.5h-9.5v1.7
		h9.5V34.5z M435.3,39.4h9.5v-1.7h-9.5V39.4z"/>
</g>
<g>
</g>
<g>
</g>
<g>
</g>
<g>
</g>
<g>
</g>
<g>
</g>
<g>
</g>
<g>
</g>
<g>
</g>
<g>
</g>
<g>
</g>
<g>
</g>
<g>
</g>
<g>
</g>
<g>
</g>
</svg>
