<?xml version="1.0" encoding="utf-8"?>
<!-- Generator: Adobe Illustrator 17.0.0, SVG Export Plug-In . SVG Version: 6.00 Build 0)  -->
<!DOCTYPE svg PUBLIC "-//W3C//DTD SVG 1.1//EN" "http://www.w3.org/Graphics/SVG/1.1/DTD/svg11.dtd">
<svg version="1.1" id="Layer_1" xmlns="http://www.w3.org/2000/svg" xmlns:xlink="http://www.w3.org/1999/xlink" x="0px" y="0px"
	 width="720px" height="484.5px" viewBox="0 0 720 484.5" style="enable-background:new 0 0 720 484.5;" xml:space="preserve">
<style type="text/css">
	.st0{fill-rule:evenodd;clip-rule:evenodd;fill:#D769A0;}
	.st1{fill:#FFFFFF;}
	.st2{fill:none;}
</style>
<g id="page-huodong-arrow.svg">
	<polygon class="st0" points="0,20.6 0,441.9 240,231.3 	"/>
	<path class="st1" d="M37.8,177.1h12.3v-5.7h7.7v5.7h10.8v-5.7h7.7v5.7h12.3v6.7H76.3v3.9h-7.7v-3.9H57.8v3.9h-7.7v-3.9H37.8V177.1z
		 M38.4,280.3c15.1-2.4,23.2-9.7,24.3-21.9l3,0.3c-0.3,1.8-0.7,3.7-1.3,5.6c4.6,8.5,12.5,13.7,23.5,15.4c-0.6,1.1-1.1,2.1-1.5,3
		c-11.3-2.4-19-7.5-23.1-15.3c-3.2,8-11,13.2-23.5,15.8C39.3,282.1,38.8,281.1,38.4,280.3L38.4,280.3z M80,189.6v7
		c-6.1,2.6-12.6,5.7-19.4,9.3c-6.8,3.6-10.2,6.1-10.2,7.3c0,1.1,0.9,1.7,2.6,1.7H71c2.7,0,4.6-0.3,5.7-0.9c1.1-0.6,2-1.7,2.6-3.2
		c0.6-1.6,1-4.5,1.3-8.7l7.8,2.9c-0.4,3.6-1.1,6.6-2,9.3c-0.9,2.6-2.6,4.7-5,6.1c-2.3,1-5.3,1.4-9.1,1.4H54.9
		c-4.8,0-8.2-0.6-10.2-1.8c-2-1.2-3-3.4-3-6.5c0-2.6,2.5-5.4,7.4-8.5c4.9-3.1,10.5-5.9,16.8-8.5H42.2v-6.9H80z M43.6,235.1h38.6
		v21.2H43.2v-2.5h36.3V247H45.1v-2.5h34.4v-6.8H43.6V235.1z M50.4,270.8c-2-2.4-4.3-5.2-7.1-8.2l2.1-1.7c1.6,1.6,4,4.3,7.3,8
		L50.4,270.8L50.4,270.8z M73.4,269c2.6-2.5,5.1-5.2,7.4-8l2.3,1.8c-2.7,3.2-5.2,5.9-7.5,8.2L73.4,269z M128.7,171.2
		c2.9,2.2,5.8,4.6,8.7,7.2l-4.7,4.9h8.8v7.1h-18.4c5.1,8.8,11.9,15.6,20.4,20.4c-2.1,2.2-4.1,4.4-6,6.7c-6.5-4.9-11.9-11-16.1-18.4
		v24.3h-7.5v-24.9c-4,7.4-9.6,13.8-16.7,19.3c-1.8-2.3-3.6-4.5-5.4-6.5c8.1-5.3,14.6-12.3,19.7-21H93.8v-7.1h20.1v-11.8h7.5v11.8
		h10.8c-2.8-2.9-5.4-5.4-7.8-7.6L128.7,171.2z M92.8,278.8c2-3.3,3.8-6.7,5.2-10.1l2.6,1c-1.6,3.5-3.4,7-5.2,10.4L92.8,278.8
		L92.8,278.8z M129,261.3c-1.7,1.8-4,3.8-6.8,5.9c-0.4-0.6-1.1-1.3-1.9-2.1c3-2.1,5.5-4.3,7.5-6.5c-1.8-4.3-3.1-9.9-3.7-16.9h-22.9
		v5.7c0,0.5,0,1.1,0,1.9c0,7.7-1.8,13.9-5.5,18.5c-0.7-0.6-1.4-1.2-2.2-1.7c2-2.9,3.4-5.6,4-8.1c0.7-2.5,1.1-6.1,1-10.6v-8h25.3
		c-0.1-1.6-0.3-4-0.4-7.2h2.7c0.1,2.6,0.2,5,0.4,7.2h15.7v2.4h-15.5c0.6,6,1.6,10.9,3,14.7c2.2-2.8,4.3-6.4,6.3-10.9l2.5,1
		c-2.4,5.3-5,9.6-7.6,12.7c1.6,3.2,3.2,4.8,4.9,4.8c1.4,0,2.4-0.8,3-2.5c0.5-1.5,1.1-3.5,1.7-6c0.7,0.4,1.5,0.7,2.4,1
		c-0.4,1.9-0.9,3.8-1.4,5.5c-1.1,3.3-2.9,4.9-5.6,4.8C133.3,266.7,131,264.9,129,261.3L129,261.3z M103.6,245.9h17.6v2.3h-17.6
		V245.9z M105,252.7h15.2v11H105V252.7z M105.4,268.4h2.7v6.3c0,1.8,0.3,3,1,3.5c0.6,0.6,1.9,0.9,4,0.9h9c3.5,0.2,5.5-0.9,5.8-3.1
		c0.3-1.3,0.6-3,1-5.2l2.6,1.1c-0.3,2-0.6,3.6-0.9,4.7c-0.8,3.7-3.3,5.4-7.5,5.3h-10.8c-4.8,0.2-7.1-2-6.8-6.8V268.4z M107.6,255
		v6.3h9.8V255H107.6z M119.4,274.2c-1.9-2.4-3.8-4.6-5.8-6.6l2.1-1.6c2,2,4,4.1,6,6.3L119.4,274.2L119.4,274.2z M135.1,239.1
		c-1.6-1.6-3.2-3.1-5-4.5l1.8-1.8c1.3,1,3,2.5,5.1,4.5L135.1,239.1L135.1,239.1z M140.2,279.2c-1.7-2.8-3.8-5.8-6-9l2.3-1.4
		c1.8,2.5,3.9,5.5,6.2,8.9L140.2,279.2L140.2,279.2z"/>
	<rect y="0" class="st2" width="720" height="484.5"/>
</g>
<g>
</g>
<g>
</g>
<g>
</g>
<g>
</g>
<g>
</g>
<g>
</g>
<g>
</g>
<g>
</g>
<g>
</g>
<g>
</g>
<g>
</g>
<g>
</g>
<g>
</g>
<g>
</g>
<g>
</g>
</svg>
