<?xml version="1.0" encoding="utf-8"?>
<!-- Generator: Adobe Illustrator 17.0.0, SVG Export Plug-In . SVG Version: 6.00 Build 0)  -->
<!DOCTYPE svg PUBLIC "-//W3C//DTD SVG 1.1//EN" "http://www.w3.org/Graphics/SVG/1.1/DTD/svg11.dtd">
<svg version="1.1" id="Layer_1" xmlns="http://www.w3.org/2000/svg" xmlns:xlink="http://www.w3.org/1999/xlink" x="0px" y="0px"
	 width="720px" height="1036.5px" viewBox="0 0 720 1036.5" style="enable-background:new 0 0 720 1036.5;" xml:space="preserve">
<style type="text/css">
	.st0{fill:#FACCE3;}
	.st1{opacity:0.6;fill:#FFFEFE;}
	.st2{fill:none;}
</style>
<g id="page-huodong-content.svg">
	<path class="st0" d="M48.5,893.8h2.9v-3.5h-1.4v-1.5c-0.2,0.3-0.4,0.7-0.5,1c-0.4-0.6-0.8-1.2-1.2-1.7c1.4-2.3,2.3-4.9,3-7.8
		l1.7,0.4c-0.3,1.1-0.6,2.2-0.9,3.2h4.1v1.7h-4.7c-0.4,1-0.8,2-1.3,3h5.3v1.7h-2.3v3.5h3v1.7h-3v5.8c1-0.7,1.9-1.5,2.8-2.2
		c0.1,0.6,0.2,1.2,0.4,2c-1.1,0.8-2.2,1.6-3.2,2.4c-0.3,0.2-0.7,0.6-1.3,1.1l-1.2-1.6c0.5-0.5,0.8-1.1,0.8-1.9v-5.6h-2.9V893.8z
		 M63.4,850.8h-2.9l-4.1-7.4c-0.1-0.2-0.2-0.5-0.4-1h-0.1c0,0.1-0.2,0.4-0.4,1l-4.2,7.4h-2.9l6.1-9.9l-5.7-9.8h2.9l3.7,6.8
		c0.2,0.4,0.4,0.9,0.6,1.4h0c0.2-0.5,0.4-0.9,0.7-1.5l3.8-6.7h2.7l-5.8,9.8L63.4,850.8z M60.2,793.2h2v3h9.1l-0.5,5.9
		c-0.6-0.1-1.3-0.2-2-0.2l0.4-3.9h-7v5.4h7.3v1.8c-1.5,3.2-3.5,5.9-5.9,7.9c2.4,1.3,5.3,2.2,8.6,2.7c-0.5,0.8-1,1.6-1.4,2.3
		c-3.5-0.9-6.5-2.1-9-3.7c-2.6,1.6-5.4,2.9-8.7,3.9c-0.4-0.6-0.8-1.3-1.2-2c2.9-0.7,5.6-1.8,8.2-3.2c-2.4-2.1-4.3-4.7-5.5-8H53
		c-0.1,5.8-1.2,10.1-3.2,12.9c-0.5-0.6-0.9-1.2-1.4-1.8c1.8-2.4,2.7-6.3,2.7-11.7v-8.6h9.2V793.2z M61.1,731.3
		c-0.3-1.8-0.7-3.3-1-4.5c2.2,0.1,3.8,0.1,4.7,0.1c0.7,0,1.2-0.1,1.5-0.2c0.3-0.1,0.6-0.3,0.8-0.6c0.2-0.3,0.3-0.6,0.4-0.9
		c0.1-0.3,0.1-1.5,0.2-3.4c0.1-1.9,0.1-3.6,0.1-5.1h-8.6c-0.3,6.3-2.9,11.3-7.8,15.1c-1-1.3-2-2.6-3-3.9c2.1-1.4,3.6-3.1,4.7-4.9
		c1.1-1.8,1.7-3.5,1.8-5.2c0.2-1.7,0.3-4.8,0.4-9.3H49v-4h26.2v4H59.5l-0.1,4.2h12.8l-0.3,9.1l-0.1,2.6c0,2-0.3,3.6-1,4.6
		c-0.7,1.1-1.6,1.7-2.8,1.8C66.8,731.2,64.5,731.3,61.1,731.3z M48.4,938.6h10.9v-1.9h-9.1v-1.5h9.1v-2.1h-6.4v0.9h-1.7v-9.5h8.1
		v-1.8H48.6V921h10.7v-2c-2.9,0.1-5.9,0.2-9,0.2c-0.1-0.5-0.2-1.1-0.3-1.7c8.1-0.1,14.6-0.3,19.6-0.7l0.3,1.7
		c-2.8,0.1-5.8,0.3-8.9,0.4v2h10.8v1.6H61.1v1.8h8.2v9.5h-1.7v-0.9h-6.5v2.1h9.1v1.5h-9.1v1.9h10.8v1.6H48.4V938.6z M58.2,952.5h1.9
		v6.3h6.3v-6.3h1.9v6.3h3.5v1.9h-3.5v10.2h-1.9v-1.7h-6.3v1.8h-1.9v-10.3h-4.6v13.5h17.5v1.9H51.8v-15.4h-3.1v-1.9h3.1v-5.1h1.9v5.1
		h4.6V952.5z M52.4,776.8v2h-2.3V758h2.3v9.2h0c1-1.8,2.5-2.8,4.5-2.8c1.7,0,3,0.6,3.9,1.9c1,1.2,1.5,2.9,1.5,5.1
		c0,2.4-0.5,4.3-1.6,5.7c-1.1,1.4-2.6,2.1-4.4,2.1C54.7,779.1,53.4,778.3,52.4,776.8L52.4,776.8z M52.4,773c0,1.1,0.3,2.1,1,2.9
		c0.7,0.8,1.6,1.2,2.6,1.2c1.2,0,2.2-0.5,2.9-1.5c0.7-1,1-2.4,1-4.2c0-1.5-0.3-2.7-1-3.5c-0.7-0.9-1.5-1.3-2.7-1.3
		c-1.1,0-2.1,0.4-2.8,1.3c-0.7,0.9-1.1,2-1.1,3.3V773z M52.9,928.1h6.4v-2.2h-6.4V928.1z M52.9,931.6h6.4v-2.2h-6.4V931.6z
		 M53,803.4h7.2V798H53V803.4z M57.2,890.6h12.7v8.5h-1.7v-0.5h-2v3.3c0,0.8,0.3,1.1,1,1.1h1.9c0.6,0,1-0.3,1-0.9
		c0.1-0.6,0.2-1.5,0.3-2.9c0.5,0.2,1,0.5,1.7,0.7c-0.1,1.3-0.3,2.3-0.4,2.9c-0.2,1.3-0.9,1.9-2.3,1.9h-2.8c-1.4,0-2-0.9-2-2.6v-3.5
		h-2.2c-0.2,3.4-2.3,5.7-6.2,6.7c-0.4-0.8-0.7-1.4-0.9-1.7c3.3-0.7,5.2-2.3,5.4-4.9h-1.7v0.6h-1.7V890.6z M56,887.3h4.2
		c-0.3-0.6-0.7-1.3-1.3-2.1l1.4-0.9c0.4,0.6,1,1.4,1.6,2.4l-0.9,0.6h4.1c0.5-0.9,1-1.9,1.5-2.9l1.7,0.9c-0.4,0.7-0.8,1.4-1.2,2.1
		h4.5v1.5H56V887.3z M61.7,812c2.3-1.8,4.2-4.1,5.5-6.8H56.4C57.6,808.1,59.4,810.3,61.7,812L61.7,812z M56.9,882.8h6.3
		c-0.3-0.6-0.7-1.2-1.3-1.9l1.5-0.9c0.7,0.9,1.2,1.7,1.6,2.4l-0.8,0.5h6.3v1.5H56.9V882.8z M68.2,892.1h-9.3v1.8h9.3V892.1z
		 M58.9,897.1h9.3v-1.8h-9.3V897.1z M60.1,967.3h6.3v-6.6h-6.3V967.3z M67.6,925.9h-6.5v2.2h6.5V925.9z M61.1,931.6h6.5v-2.2h-6.5
		V931.6z M76.4,764.7l-6,16.2c-1.1,3-2.7,4.5-4.7,4.5c-0.6,0-1.1-0.1-1.5-0.2V783c0.5,0.2,0.9,0.3,1.3,0.3c1.1,0,1.8-0.7,2.4-2
		l1-2.6l-5.2-14h2.6l3.4,10.6l0.3,1.2h0.1c0-0.3,0.1-0.6,0.3-1.1l3.6-10.6H76.4z M72.5,851c-0.3-0.4-0.7-0.8-1.2-1.3
		c2.8-1.5,5.1-3.3,6.8-5.5h-2v0.9h-1.6v-11.4h6.7c0.2-0.6,0.4-1.1,0.6-1.7h-9.9v-1.6h22.8v1.6H83.9c-0.2,0.6-0.5,1.1-0.7,1.7h9.1
		v11.1h-1.7v-0.6H80.3c-0.4,0.6-0.9,1.1-1.3,1.7h13.2v1.5c-1.6,1.3-3.5,2.5-5.9,3.5c2.5,0.6,5.4,1.1,8.8,1.3c-0.4,0.7-0.8,1.4-1.1,2
		c-4.1-0.5-7.5-1.3-10.3-2.3c-2.9,1-6.3,1.9-10.2,2.6c-0.3-0.5-0.6-1-1-1.7c3.3-0.5,6.3-1.1,8.9-1.9c-1.8-0.9-3.3-1.8-4.4-3
		C75.5,849.1,74.1,850.1,72.5,851L72.5,851z M77.3,814.1c0.8-0.6,1.7-1.2,2.6-2c0,0.7,0.1,1.4,0.2,2.2c-1.7,1.2-3.1,2.3-4.3,3.3
		l-1.1-1.7c0.5-0.5,0.8-1.3,0.8-2.3v-9.9h-2.7V802h4.5V814.1L77.3,814.1z M94,953.3v12.1h-1.8v-0.9h-4.8c2.2,2.1,5.2,3.6,9.2,4.5
		c-0.5,0.8-0.9,1.4-1.3,2c-2-0.7-3.8-1.5-5.3-2.5v8.4h-1.9v-8.9h1.2c-1.5-1-2.9-2.2-4-3.6h-0.9c-1.3,1.2-2.7,2.4-4.3,3.5h1.4
		c0,2.6-0.4,4.4-1.2,5.7c-0.7,1.3-2.2,2.5-4.4,3.6c-0.4-0.5-0.8-1.1-1.4-1.7c2.1-1,3.4-2,4.1-3c0.6-0.8,0.9-2.2,1-4.2
		c-1.7,1.1-3.5,2-5.5,2.9c-0.3-0.5-0.7-1-1.3-1.7c3.8-1.5,6.8-3.2,9.1-5.1h-4.7v0.9h-1.8v-12.1H94z M82.1,921
		c-1.8,3.4-3.8,6.7-5.9,9.8c1.6-0.2,3.3-0.4,5.1-0.7c-0.1,0.7-0.1,1.3-0.2,1.7c-2.4,0.3-4.7,0.7-7.1,1l-0.4-1.9
		c1-0.8,2.3-2.6,3.8-5.3c-1.8,0.1-3.1,0.2-3.9,0.3l-0.5-1.7c1.2-1.6,2.6-4.3,4.1-8.2L79,917c-1.4,2.8-2.7,5.2-3.9,7.3
		c1.3,0,2.4,0,3.2-0.1c0.6-1.2,1.3-2.6,2-4.1L82.1,921L82.1,921z M73.1,936.6c2.3-0.5,5.1-1.1,8.3-1.8c-0.1,0.8-0.1,1.4-0.1,1.9
		c-3.3,0.7-5.9,1.3-7.7,1.8L73.1,936.6z M74.4,886.9H82c0.5-1.3,0.8-2.4,1.1-3.4h-10v-1.9h23v1.9H85.2c-0.4,0.9-0.8,2-1.3,3.4h10.8
		V905h-1.8v-1.4H76.3v1.4h-1.8V886.9z M75.4,793.7c1.2,1.4,2.4,2.9,3.5,4.4l-1.7,1.4c-1.1-1.7-2.2-3.2-3.2-4.5L75.4,793.7z
		 M90.6,835.1H76.2v1.6h14.4V835.1z M76.2,839.7h14.4v-1.6H76.2V839.7z M76.2,842.7h14.4v-1.6H76.2V842.7z M76.3,901.9h3.8v-13.4
		h-3.8V901.9z M76.4,720.6c2.5-2.4,4.8-5.5,6.9-9.2l3.6,1.1c-0.8,1.4-1.7,2.8-2.6,4.1v14.9h-3.7v-9.9c-0.9,1.1-1.8,2.1-2.7,3.2
		C77.5,723.4,77,722,76.4,720.6L76.4,720.6z M97.8,702.9v2.8h6v3.6h-6v2.1h-4v-2.1h-7v1.9h-4v-1.9h-6v-3.6h6v-2.7h4v2.7h7v-2.8H97.8
		z M77.1,958.1h6.6V955h-6.6V958.1z M77.1,962.9h6.6v-3.1h-6.6V962.9z M83.8,850.1c2.3-0.8,4.2-1.8,5.7-2.8H78.4
		C79.7,848.4,81.5,849.4,83.8,850.1L83.8,850.1z M78.7,802.7H85c0.6-1,1-2.1,1.5-3.3l1.7,0.6c-0.3,0.9-0.7,1.8-1.1,2.6h9.2v1.8H86
		c-0.7,1.1-1.5,2.2-2.3,3.2h10.5V818h-1.8v-1.5h-8.2v1.5h-1.8v-8.8c-0.8,0.8-1.7,1.7-2.7,2.4c-0.4-0.6-0.8-1.1-1.3-1.6
		c2.2-1.5,4-3.3,5.5-5.5h-5.2V802.7z M81.4,759.1l-0.4,6.1h-1.6l-0.4-6.1H81.4z M90.6,793.4h1.8v3.4h3.9v1.8h-3.9v3.1h-1.8v-3.1H85
		v3h-1.8v-3h-3.8v-1.8h3.8v-3.4H85v3.4h5.6V793.4z M80.1,939.9V938h2.8v-20.3h11.5V938h2.1v1.8H80.1z M81.8,891.9h5.6v-3.4h-5.6
		V891.9z M81.8,896.9h5.6v-3.4h-5.6V896.9z M81.8,901.9h5.6v-3.4h-5.6V901.9z M84.7,759.1l-0.4,6.1h-1.6l-0.4-6.1H84.7z M92.4,809.5
		h-8.2v5.2h8.2V809.5z M100.5,721.7c1.4,0.6,2.6,1.1,3.7,1.6c-0.5,4-1.3,6.2-2.1,6.9c-0.9,0.6-1.9,0.9-3,0.9h-4.5
		c-2.8,0-4.2-1.5-4.2-4.6v-2.3c-1.2,0.6-2.5,1.3-3.8,1.9c-0.6-1.2-1.3-2.4-2.1-3.7c2-0.8,4-1.7,5.9-2.8v-7.5h3.8v5.3
		c2.2-1.4,4.4-2.9,6.4-4.6l2.5,3.2c-2.7,2.2-5.7,4.2-9,6.1v3.5c0,1.2,0.6,1.8,1.9,1.8h1.4c0.7,0,1.2-0.1,1.6-0.4
		c0.4-0.2,0.6-0.6,0.8-0.9C100.1,725.7,100.3,724.2,100.5,721.7z M92.6,919.5h-7.9v5h7.9V919.5z M84.7,931.3h7.9v-5h-7.9V931.3z
		 M84.7,938h7.9v-5h-7.9V938z M92.2,955h-6.7v3.1h6.7V955z M85.6,962.9h6.7v-3.1h-6.7V962.9z M92.9,888.6h-3.8v13.4h3.8V888.6z
		 M92,771.4v7.4h-2.4v-19.7h5.2c2,0,3.5,0.5,4.6,1.5c1.1,1,1.7,2.5,1.7,4.4c0,1.9-0.6,3.5-1.9,4.7c-1.3,1.2-2.9,1.8-4.8,1.7H92z
		 M92,761.3v7.8h2.2c1.5,0,2.6-0.3,3.3-1c0.8-0.7,1.1-1.7,1.1-3c0-2.5-1.4-3.8-4.2-3.8H92z M96,843.4h11.2v-4.1h-8v-1.9h17.6v1.9
		h-7.6v4.1h10.2v1.9h-10.2v5.2c0,2.1-1,3.1-2.9,3.1c-0.7,0-1.9,0-3.8-0.1c-0.1-0.8-0.2-1.5-0.4-2.3c1.7,0.2,2.9,0.2,3.6,0.2
		c1,0.1,1.6-0.5,1.6-1.5v-4.7H96V843.4z M96.9,832.2H107c-0.4-0.8-0.8-1.5-1.2-2.3l1.8-0.9c0.6,1,1.1,2.1,1.6,3.2h9.4v4.7h-1.9v-2.8
		H98.8v2.8h-1.9V832.2z M97.7,804.8h10.4v-5.4h-5.7c-0.8,1.7-1.6,3.1-2.5,4.4c-0.6-0.5-1.1-0.9-1.6-1.2c1.8-2.5,3.2-5.4,4.2-8.8
		l1.9,0.6c-0.4,1.1-0.7,2.2-1.1,3.2h4.9v-4.3h2v4.3h8.9v1.9h-8.9v5.4h10.5v1.9h-7.7v7.2c-0.1,1.3,0.5,1.9,1.6,1.8h2.4
		c1.1,0,1.7-0.4,1.8-1.3c0.1-0.9,0.2-2.1,0.3-3.7c0.6,0.3,1.3,0.5,2,0.8c-0.1,1.3-0.2,2.5-0.4,3.9c-0.2,0.8-0.5,1.4-1,1.8
		c-0.5,0.3-1.3,0.5-2.6,0.5h-2.8c-2.2,0.1-3.3-1-3.2-3.3v-7.5h-4.7c-0.1,2.9-0.7,5.2-1.7,6.8c-1.2,2-3.3,3.6-6.4,4.8
		c-0.3-0.5-0.7-1.2-1.2-1.8c2.8-1,4.8-2.4,5.8-4c0.9-1.3,1.4-3.2,1.5-5.7h-6.7V804.8z M100.2,881.9c6.3-0.1,12.5-0.5,18.5-1.2l0.7,2
		c-5.5,0.5-11.3,0.9-17.4,1v4.3h16.3v1.9c-1.3,3.8-3.3,6.9-5.9,9.4c2.3,1.7,5.2,2.8,8.5,3.4c-0.6,0.8-1.1,1.5-1.5,2.3
		c-3.4-1-6.2-2.5-8.6-4.3c-2.4,2-5.4,3.5-8.7,4.6c-0.4-0.6-0.8-1.2-1.3-2c3.3-1,6.1-2.3,8.5-4c-2.6-2.5-4.4-5.6-5.4-9.4h-1.9v1.4
		c0,6-1.2,10.6-3.7,13.8c-0.4-0.5-0.9-1.1-1.3-1.6c2.1-2.7,3.1-6.8,3.1-12.2V881.9z M97.2,937.4c2.9-0.6,5.8-1.3,8.6-2
		c0,0.7-0.1,1.3-0.1,1.9c-2.6,0.6-5.2,1.3-8,2L97.2,937.4z M98,966.7c-0.3-0.7-0.5-1.4-0.8-2.2c2.1-3.9,3.6-8,4.4-12.3l1.8,0.4
		c-0.4,1.8-0.9,3.6-1.4,5.3v19.3h-1.9v-14.5C99.5,964,98.8,965.4,98,966.7L98,966.7z M105.8,922.5c-1.8,3.2-3.6,6.2-5.5,8.9
		c2.1-0.3,3.9-0.6,5.2-0.9c-0.1,0.7-0.2,1.3-0.2,1.9c-1.8,0.3-4.2,0.7-7.2,1.2l-0.4-1.9c1-1.1,2.2-2.9,3.6-5.4
		c-1.3,0.1-2.5,0.2-3.6,0.3l-0.5-1.7c1.5-2.1,3-5.1,4.6-9l1.8,0.8c-1.7,3.6-3.1,6.3-4.2,8.1c0.9,0,1.9-0.1,2.9-0.1
		c0.5-1,1.1-2.1,1.7-3.2L105.8,922.5L105.8,922.5z M106.9,970.1c1.7-1.2,3.6-2.5,5.9-4.1c0.1,1,0.1,1.8,0.2,2.4
		c-1.8,1.2-3.9,2.7-6.2,4.4c-0.4,0.3-0.8,0.7-1.2,1.1l-1.3-1.7c0.6-0.5,0.9-1.3,0.9-2.3v-14.9h1.9V970.1L106.9,970.1z M118,778.7
		h-2.8l-3.1-5.5c-0.6-1.1-1.2-1.8-1.7-2.2c-0.5-0.4-1.1-0.6-1.8-0.6h-1.7v8.3h-2.4v-19.7h5.6c1.8,0,3.2,0.5,4.2,1.4
		c1,0.9,1.5,2.2,1.5,3.9c0,2.7-1.4,4.5-4.1,5.3v0.1c0.5,0.2,0.9,0.6,1.3,1c0.4,0.4,0.8,1.1,1.4,2.2L118,778.7z M118.1,707.7h-3.8
		c0.3,0.7,0.7,1.5,1,2.4l-3.6,0.8c-0.3-1.1-0.7-2.1-1.1-3.2h-0.6c-1,1.2-2,2.3-3.2,3.3h23.6v16.6c0,1.3-0.3,2.4-1,3
		c-0.7,0.7-1.7,1-3.1,1l-4.2,0.1c-0.2-1.2-0.5-2.5-0.8-3.9c1.6,0.1,2.9,0.1,3.8,0.1c1.1,0,1.7-0.6,1.7-1.7v-12.2h-16.8v17.7h-3.6
		v-20.4l-0.3,0.2c-0.3-1-0.8-2.2-1.6-3.5c1.9-1.3,3.4-3,4.6-5.2h3.9c-0.4,0.7-0.8,1.5-1.2,2.1h6V707.7z M106.4,926h5.8v-4h-6.6v-1.8
		h6.6v-4.1h1.9v4.1h6.7v1.8h-6.7v4h5.8v1.8h-13.6V926z M110.9,898.1c2.4-2.2,4.1-4.9,5.2-8.1h-10.2C107,893.3,108.7,896,110.9,898.1
		L110.9,898.1z M106.9,930.8h12.6v10.3h-1.9v-1.6h-8.9v1.6h-1.9V930.8z M106.9,761.3v6.9h2.8c1.1,0,2-0.3,2.7-1c0.7-0.7,1-1.6,1-2.7
		c0-1-0.3-1.8-0.9-2.4c-0.6-0.6-1.5-0.9-2.7-0.9H106.9z M117.6,932.6h-8.9v5.2h8.9V932.6z M116,964.6c0.3-2.1,0.5-6,0.5-11.7h1.9
		c0,5.3-0.2,9.3-0.5,12c-0.2,1.7-0.6,3.2-1.2,4.7c1.7,2.1,3.1,4,4.3,5.6l-1.7,1.4c-1-1.6-2.2-3.4-3.5-5.2c-1.3,2.3-3.1,4.2-5.5,5.8
		c-0.4-0.5-0.9-1.1-1.5-1.7C112.9,973.2,115.3,969.6,116,964.6L116,964.6z M112.1,959.8c-1.1-2.5-2.1-4.7-3.1-6.6l1.6-0.9
		c1.3,2.5,2.4,4.6,3.3,6.5L112.1,959.8L112.1,959.8z M126,718h-14.8v-2.7H126V718z M124.9,727h-9.1v1.2h-3.5v-8.8h12.6V727z
		 M121.4,724.3v-2.1h-5.6v2.1H121.4z M131.8,707.7h-4.1c0.4,0.8,0.7,1.6,1,2.3l-3.6,0.8c-0.3-1.1-0.7-2.1-1.1-3.1h-1.7
		c-0.6,0.9-1.2,1.9-1.9,2.8c-1-0.5-2-1.1-3.2-1.7c1.5-1.5,2.9-3.5,3.9-6.1h3.6c-0.3,0.7-0.6,1.5-0.9,2.2h8V707.7z M119.3,769.2
		c0-3.2,0.8-5.7,2.4-7.6c1.6-1.9,3.8-2.8,6.6-2.8c2.6,0,4.6,0.9,6.2,2.8c1.6,1.8,2.4,4.2,2.4,7.2c0,3.2-0.8,5.7-2.4,7.6
		c-1.6,1.9-3.8,2.8-6.4,2.8c-2.6,0-4.7-0.9-6.3-2.8C120.1,774.5,119.3,772.1,119.3,769.2z M122.7,848.1c2,1.7,3.5,3.1,4.6,4.3
		l-1.4,1.5c-1.3-1.6-2.8-3-4.4-4.5L122.7,848.1L122.7,848.1z M122.7,904c-0.4-0.7-0.8-1.2-1.2-1.6c2.7-1.5,5-3.4,7-5.8h-6.7v-1.7
		h1.4v-11.8h2.8c0.4-1.2,0.8-2.2,1-3.1l1.9,0.5c-0.3,0.9-0.7,1.8-1.1,2.6h4.3V902c0,1.9-0.8,2.9-2.4,2.9c-0.7,0-1.5,0-2.5-0.1
		c-0.1-0.7-0.2-1.3-0.4-2c0.9,0.1,1.7,0.1,2.4,0.1c0.7,0,1.1-0.4,1.1-1.2v-5.2C128.4,899.5,125.8,902,122.7,904L122.7,904z
		 M121.8,814.7h11.1v-6.5h-8.4v-2h8.4v-5.9h-6.3c-1.1,2-2.3,3.9-3.7,5.5c-0.3-0.6-0.8-1.2-1.3-1.8c2.2-2.7,4-5.9,5.3-9.8l2,0.6
		c-0.4,1.2-0.9,2.4-1.4,3.6h5.4v-5.4h2.1v5.4h9.1v2h-9.1v5.9h8.4v2h-8.4v6.5h10.4v1.9h-23.5V814.7z M122.4,934.5
		c-0.2-0.7-0.5-1.5-0.8-2.2c1.7-2.7,2.8-5.7,3.5-9h-3.3v-1.7h3.4v-5h1.6v5h3.1v1.7h-3.1v3.4l0.7-0.7c1.1,1,2.2,2.2,3.4,3.4l-1.3,1.4
		c-1-1.2-1.9-2.2-2.8-3.1v13.6h-1.6v-13.1C124.4,930.7,123.5,932.8,122.4,934.5L122.4,934.5z M121.8,768.9c0,2.4,0.6,4.3,1.7,5.7
		c1.1,1.4,2.6,2.2,4.5,2.2c2,0,3.5-0.7,4.6-2.1c1.1-1.4,1.7-3.3,1.7-5.8c0-2.5-0.6-4.5-1.7-5.9c-1.1-1.4-2.6-2.1-4.5-2.1
		c-1.9,0-3.4,0.7-4.6,2.2C122.4,764.7,121.8,766.6,121.8,768.9z M123.1,955.3h6.5c-0.7-1-1.3-1.8-1.8-2.3l1.5-1
		c0.7,0.7,1.4,1.6,2.2,2.6l-1,0.7h5.1c0.9-1.2,1.6-2.2,2.2-3.2l1.9,1.1c-0.5,0.6-1.2,1.3-1.9,2.2h6.3v9.8h-1.8v-0.9h-17.3v0.9h-1.8
		V955.3z M124.9,962.6h7.7v-5.7h-7.7V962.6z M130.5,884.8H125v2.3h5.5V884.8z M125,891h5.5v-2.3H125V891z M125,894.9h5.5v-2.3H125
		V894.9z M125.4,966.3h16.3V977h-1.8v-1.3h-12.7v1.3h-1.8V966.3z M129,962.1c-0.7-1.1-1.6-2.3-2.5-3.5l1.3-1
		c0.7,0.8,1.7,1.9,2.7,3.3L129,962.1L129,962.1z M139.9,968h-12.7v2.3h12.7V968z M127.2,974.1h12.7v-2.3h-12.7V974.1z M131,926.4
		c-0.4-0.3-0.9-0.7-1.5-1.1c1.8-2.7,3.2-5.7,4.3-9.1l1.8,0.6c-0.5,1.2-0.9,2.3-1.3,3.3h10.3c-0.2,8.7-0.4,14-0.5,16
		c-0.1,1.8-0.5,3-1.1,3.7c-0.7,0.7-1.8,1-3.5,1c-1.3,0-2.6,0-3.9-0.1c-0.1-0.7-0.2-1.4-0.4-2.2c1.6,0.2,3,0.3,4.3,0.3
		c1.1,0,1.8-0.2,2.2-0.6c0.4-0.4,0.6-1.1,0.7-2.3c0.1-2.3,0.2-6.9,0.4-13.9h-9.2C132.6,923.7,131.7,925.2,131,926.4L131,926.4z
		 M138.3,932.8c-0.6-1.4-1.3-2.8-2.1-4.2l1.5-0.8c1.2,2.1,2.4,4.5,3.6,7l-1.7,1c-0.2-0.5-0.4-0.9-0.6-1.4c-2.1,0.1-4.1,0.3-6.1,0.5
		c-0.5,0.1-1.2,0.2-2.1,0.4l-0.8-1.8c0.5-0.4,0.9-0.8,1.3-1.4c1.3-2.2,2.6-4.9,3.9-8l1.8,0.8c-0.9,2.2-2.4,5-4.3,8.3
		C135,932.9,136.9,932.9,138.3,932.8L138.3,932.8z M133,885.8h7.7v-5.5h1.8v5.5h2.9v1.9h-2.9v13.2c0,2.5-1.1,3.8-3.4,3.8
		c-0.7,0-1.9,0-3.5-0.1c-0.1-0.6-0.2-1.3-0.4-2.2c1.6,0.2,2.8,0.2,3.6,0.2c1.3,0,1.9-0.7,1.9-2.1v-12.9H133V885.8z M136.6,896.8
		c-0.8-1.9-1.8-3.8-2.9-5.9l1.5-0.8c1.3,2.2,2.4,4.1,3.1,5.8L136.6,896.8L136.6,896.8z M142.2,956.9h-7.8v5.7h7.8V956.9z M136.2,961
		c1.1-1.3,2.1-2.5,2.9-3.5l1.4,1.1c-0.8,1-1.8,2.2-3,3.5L136.2,961z M145.5,771.6c0,2.4-0.5,4.2-1.4,5.5c-0.9,1.3-2.2,1.9-3.9,1.9
		c-0.8,0-1.4-0.1-1.9-0.4v-2.5c0.5,0.4,1.1,0.6,1.9,0.6c1.9,0,2.9-1.7,2.9-5.2v-12.5h2.4V771.6z M147.7,839.5h7.9v-2.2H145v-1.7h6.5
		v-2.4h-5.7v-1.7h5.7v-2.4h1.8v2.4h6.6v-2.4h1.8v2.4h5.7v1.7h-5.7v2.4h6.5v1.7h-10.7v2.2h7.9v10.5h-1.8v-0.8h-14v0.8h-1.8V839.5z
		 M145.2,852.7c2.9-0.7,5.5-1.7,8-2.9l1,1.6c-2.8,1.3-5.5,2.3-8.2,3.1C145.8,853.9,145.5,853.4,145.2,852.7L145.2,852.7z M147,970.2
		c-0.2-0.7-0.5-1.5-0.9-2.2c1.8-2.6,3.1-5.6,4-9h-3.7v-1.7h3.7v-5.1h1.7v5.1h3.5v1.7h-3.5v4.4l1-1c1.1,1.1,2.1,2.2,3,3.3l-1.3,1.3
		c-0.9-1.1-1.8-2.2-2.7-3.2V977h-1.7v-13.2C149.2,966.3,148.2,968.5,147,970.2L147,970.2z M149.5,843.6h6.1v-2.4h-6.1V843.6z
		 M149.5,847.6h6.1v-2.4h-6.1V847.6z M160,778.7h-9.9v-19.7h9.5v2.3h-7.1v6.3h6.6v2.2h-6.6v6.6h7.6V778.7z M153.3,835.6h6.6v-2.4
		h-6.6V835.6z M156.2,953.9h12.6v23.2h-1.8v-1.7H158v1.7h-1.8V953.9z M163.5,841.2h-6.1v2.4h6.1V841.2z M157.4,847.6h6.1v-2.4h-6.1
		V847.6z M166.9,955.6H158v4.9h8.9V955.6z M158,967h8.9v-4.9H158V967z M158,973.6h8.9v-4.9H158V973.6z M167,854.2
		c-3-1.1-5.8-2-8.4-2.9l0.7-1.5c3.4,0.9,6.2,1.8,8.5,2.7L167,854.2L167,854.2z M176.1,777.9c-1.4,0.8-3.1,1.1-5.1,1.1
		c-2.6,0-4.8-0.9-6.3-2.7c-1.6-1.8-2.4-4.2-2.4-7.1c0-3.2,0.9-5.7,2.7-7.6c1.8-1.9,4-2.9,6.8-2.9c1.8,0,3.2,0.3,4.4,0.8v2.7
		c-1.3-0.8-2.8-1.2-4.4-1.2c-2.1,0-3.7,0.7-5,2.2c-1.3,1.5-1.9,3.4-1.9,5.9c0,2.4,0.6,4.2,1.8,5.6c1.2,1.4,2.8,2.1,4.7,2.1
		c1.8,0,3.4-0.4,4.8-1.3V777.9z M169.3,832h6.5v-2.8h1.9v2.8h6.5v-2.8h1.9v2.8h6.6v1.7h-6.6v2.1h-1.9v-2.1h-6.5v2.1h-1.9v-2.1h-6.5
		V832z M170,851.6h10v-4.2h-7.8v-1.7h7.8v-3.2h-6.7v-1.7h15.3v1.7h-6.7v3.2h7.8v1.7h-7.8v4.2h10v1.7h-22V851.6z M170,836.8h21.9v4.9
		H190v-3.2h-18.1v3.2H170V836.8z M175.4,971.5c1.3-1,2.5-2,3.6-3c0.1,0.7,0.2,1.4,0.3,2.1c-1.4,1.1-2.8,2.3-4.1,3.4
		c-0.3,0.3-0.7,0.7-1,1.2l-1.4-1.6c0.5-0.5,0.8-1.3,0.8-2.2v-8.8h-3v-1.8h4.9V971.5L175.4,971.5z M174.1,952.6
		c1.6,1.7,2.8,3.1,3.7,4.2l-1.6,1.4c-1.2-1.7-2.4-3.1-3.5-4.4L174.1,952.6z M176.6,975.6c2.2-2.1,4.3-4.5,6.2-7.2l1.6,1.2
		c-1.9,2.5-4,4.9-6.3,7.3C177.7,976.5,177.2,976.1,176.6,975.6L176.6,975.6z M191,761.3h-5.3v17.4h-2.4v-17.4H178v-2.3h13V761.3z
		 M179.5,953.9h13.1v13.4h-1.8v-1.5h-9.5v1.5h-1.8V953.9z M190.8,955.7h-9.5v8.3h9.5V955.7z M186.9,851.5c-0.6-0.9-1.3-1.8-2.2-2.7
		l1.3-1c0.9,1,1.6,1.9,2.2,2.7L186.9,851.5L186.9,851.5z M192.8,976.8c-1.8-2.5-3.7-4.8-5.6-7.1l1.6-1.2c1.9,2.1,3.8,4.5,5.8,7
		L192.8,976.8L192.8,976.8z M196.4,759.1l-0.4,6.1h-1.6l-0.4-6.1H196.4z M199.6,759.1l-0.4,6.1h-1.6l-0.4-6.1H199.6z"/>
	<path class="st0" d="M57.4,1002.9c1.3,2.5,2.6,5.1,3.7,7.7l-1.7,0.9c-0.3-0.8-0.7-1.6-1-2.4c-2.3,0.2-4.7,0.5-7.3,0.8
		c-0.4,0.1-1,0.2-1.7,0.4l-0.9-1.8c0.7-0.4,1.2-0.9,1.5-1.5c1.1-1.8,2-3.8,2.9-5.9h-4.4v-1.9h5.2v-4.7h-4.6v-1.9h4.6v-4.6h1.9v4.6
		h4.5v1.9h-4.5v4.7h5.2v1.9H55c-1.3,2.6-2.4,4.9-3.5,6.8c1.8-0.2,3.9-0.4,6.1-0.6c-0.6-1.4-1.2-2.6-1.8-3.8L57.4,1002.9z
		 M58.2,952.5h1.9v6.3h6.3v-6.3h1.9v6.3h3.5v1.9h-3.5v10.2h-1.9v-1.7h-6.3v1.8h-1.9v-10.3h-4.6v13.5h17.5v1.9H51.8v-15.4h-3.1v-1.9
		h3.1v-5.1h1.9v5.1h4.6V952.5z M60.1,967.3h6.3v-6.6h-6.3V967.3z M61.9,990.2h8.8v14.9c0,2.2-0.9,3.3-2.8,3.4c-0.9,0-2,0-3.2,0
		c-0.1-0.7-0.2-1.5-0.3-2.2c1.2,0.1,2.1,0.2,2.8,0.2c1.1,0,1.6-0.6,1.6-1.9v-12.5h-5.2v21h-1.8V990.2z M81.9,999.3
		c-0.6-0.7-1.1-1.3-1.7-1.9l1.1-1c0.6,0.6,1.3,1.3,2.1,2.2l-0.8,0.7h4.2v1.5h-4.3v2.1h4v1.5h-4v2.1h4v1.5h-4v2.1h4.3v1.5h-9.7v1.4
		h-1.6v-10.4c-0.6,0.8-1.1,1.5-1.7,2.2c-0.3-0.5-0.7-1-1.1-1.4c1.8-1.9,3.2-4.1,4.3-6.6l1.5,0.7c-0.3,0.6-0.6,1.2-0.9,1.8H81.9
		L81.9,999.3z M94,953.3v12.1h-1.8v-0.9h-4.8c2.2,2.1,5.2,3.6,9.2,4.5c-0.5,0.8-0.9,1.4-1.3,2c-2-0.7-3.8-1.5-5.3-2.5v8.4h-1.9v-8.9
		h1.2c-1.5-1-2.9-2.2-4-3.6h-0.9c-1.3,1.2-2.7,2.4-4.3,3.5h1.4c0,2.6-0.4,4.4-1.2,5.7c-0.7,1.3-2.2,2.5-4.4,3.6
		c-0.4-0.5-0.8-1.1-1.4-1.7c2.1-1,3.4-2,4.1-3c0.6-0.8,0.9-2.2,1-4.2c-1.7,1.1-3.5,2-5.5,2.9c-0.3-0.5-0.7-1-1.3-1.7
		c3.8-1.5,6.8-3.2,9.1-5.1h-4.7v0.9h-1.8v-12.1H94z M87.5,1010.5c-0.3-0.5-0.7-1-1.2-1.5c1-0.8,2-1.7,2.9-2.6c-0.7-2.6-1.1-6-1.3-10
		H73.1v-1.7h6.5v-2.4h-5.1v-1.6h5.1v-2.4h1.7v2.4h4.7v1.6h-4.7v2.4h6.6c0-1.5-0.1-3.6-0.2-6.4h1.8c0,2.4,0,4.5,0.1,6.4h6.7v1.7h-6.6
		c0.1,3.2,0.5,5.9,1,8.2c1.2-1.8,2.3-3.8,3-6l1.7,0.8c-1.1,2.8-2.4,5.3-4.1,7.4c0.4,1.1,0.8,2.1,1.3,2.9c0.4,0.7,0.8,1.1,1.2,1.1
		c0.3,0,0.6-0.3,0.7-1c0.2-0.8,0.4-2,0.5-3.6c0.6,0.3,1.2,0.5,1.7,0.7c-0.2,1.7-0.5,3-0.8,4c-0.4,1.4-1.1,2.1-2.1,2.1
		c-1.1,0-2.1-0.8-3-2.4c-0.4-0.7-0.7-1.4-1-2.2C89,1009.1,88.3,1009.8,87.5,1010.5L87.5,1010.5z M77.1,1002.9h3.8v-2.1h-3.8V1002.9z
		 M77.1,1006.5h3.8v-2.1h-3.8V1006.5z M77.1,1010h3.8v-2.1h-3.8V1010z M77.1,958.1h6.6V955h-6.6V958.1z M77.1,962.9h6.6v-3.1h-6.6
		V962.9z M92.2,955h-6.7v3.1h6.7V955z M85.6,962.9h6.7v-3.1h-6.7V962.9z M94.1,993.7c-1.1-1.1-2.3-2.2-3.6-3.2l1.1-1.3
		c1.4,1,2.6,2,3.7,2.9L94.1,993.7L94.1,993.7z M98.3,999.7c-0.4-0.4-0.8-0.9-1.3-1.4c2.4-3,4.1-6.4,5.2-10.2l1.8,0.6
		c-0.2,0.7-0.5,1.3-0.7,2h5.7v1.9c-1.1,6.4-4.4,11.3-10,14.5c-0.4-0.4-0.8-0.9-1.3-1.5c2.2-1.2,4-2.7,5.3-4.3
		c-1-0.8-2.1-1.6-3.1-2.4l0.8-1.3c1.1,0.7,2.2,1.5,3.3,2.3c0.4-0.7,0.8-1.3,1.1-1.9c-1-0.8-2.1-1.5-3.2-2.2l0.8-1.4
		c1.1,0.6,2.2,1.3,3.2,2c0.5-1.3,0.9-2.6,1.1-3.9h-4.6C101.3,995,99.9,997.4,98.3,999.7L98.3,999.7z M98,966.7
		c-0.3-0.7-0.5-1.4-0.8-2.2c2.1-3.9,3.6-8,4.4-12.3l1.8,0.4c-0.4,1.8-0.9,3.6-1.4,5.3v19.3h-1.9v-14.5C99.5,964,98.8,965.4,98,966.7
		L98,966.7z M97.8,1012.3c1.2-2.1,2-3.9,2.6-5.4l1.7,0.7c-0.6,1.6-1.5,3.4-2.6,5.6C99,1012.8,98.4,1012.5,97.8,1012.3L97.8,1012.3z
		 M106.9,970.1c1.7-1.2,3.6-2.5,5.9-4.1c0.1,1,0.1,1.8,0.2,2.4c-1.8,1.2-3.9,2.7-6.2,4.4c-0.4,0.3-0.8,0.7-1.2,1.1l-1.3-1.7
		c0.6-0.5,0.9-1.3,0.9-2.3v-14.9h1.9V970.1L106.9,970.1z M106.4,1012.7c-0.6-1.5-1.3-3.1-2.1-4.8l1.6-0.8c0.7,1.5,1.5,3,2.3,4.7
		L106.4,1012.7L106.4,1012.7z M109,994.2h3.8c0-1.7,0.1-3.6,0.1-5.8h1.8c0,2.3,0,4.2-0.1,5.8h5.9v1.8h-5.7c0.9,3.9,3,6.8,6.2,8.5
		c-0.5,0.6-1,1.2-1.5,1.8c-2.8-1.8-4.7-4.5-5.7-8c-0.9,3.3-3.1,6-6.7,8.3c-0.3-0.5-0.7-1.1-1.2-1.7c3.9-2.3,6.1-5.2,6.6-8.9H109
		V994.2z M116,964.6c0.3-2.1,0.5-6,0.5-11.7h1.9c0,5.3-0.2,9.3-0.5,12c-0.2,1.7-0.6,3.2-1.2,4.7c1.7,2.1,3.1,4,4.3,5.6l-1.7,1.4
		c-1-1.6-2.2-3.4-3.5-5.2c-1.3,2.3-3.1,4.2-5.5,5.8c-0.4-0.5-0.9-1.1-1.5-1.7C112.9,973.2,115.3,969.6,116,964.6L116,964.6z
		 M112.1,959.8c-1.1-2.5-2.1-4.7-3.1-6.6l1.6-0.9c1.3,2.5,2.4,4.6,3.3,6.5L112.1,959.8L112.1,959.8z M112.5,1012.5
		c-0.7-1.7-1.4-3.3-2.2-4.7l1.6-0.7c0.8,1.5,1.6,3,2.3,4.6L112.5,1012.5L112.5,1012.5z M118.7,993c-0.8-1-1.8-2-3-3.1l1.1-1.1
		c1.1,1,2.1,2,3.1,2.9L118.7,993L118.7,993z M119,1012.5c-0.8-1.6-1.8-3.3-2.9-5.3l1.5-1c1.2,1.9,2.2,3.6,3.1,5.2L119,1012.5
		L119,1012.5z M122.2,990.4h22.7v2h-8.8c-0.8,1.4-1.8,3.1-3.1,5h1.4v15.9h-2.1v-15.1c-2.7,3.6-5.9,6.6-9.6,9.1
		c-0.4-0.6-0.8-1.2-1.3-1.8c5-3.3,9.1-7.7,12.1-13.1h-11.4V990.4z M123.1,955.3h6.5c-0.7-1-1.3-1.8-1.8-2.3l1.5-1
		c0.7,0.7,1.4,1.6,2.2,2.6l-1,0.7h5.1c0.9-1.2,1.6-2.2,2.2-3.2l1.9,1.1c-0.5,0.6-1.2,1.3-1.9,2.2h6.3v9.8h-1.8v-0.9h-17.3v0.9h-1.8
		V955.3z M124.9,962.6h7.7v-5.7h-7.7V962.6z M125.4,966.3h16.3V977h-1.8v-1.3h-12.7v1.3h-1.8V966.3z M129,962.1
		c-0.7-1.1-1.6-2.3-2.5-3.5l1.3-1c0.7,0.8,1.7,1.9,2.7,3.3L129,962.1L129,962.1z M139.9,968h-12.7v2.3h12.7V968z M127.2,974.1h12.7
		v-2.3h-12.7V974.1z M142.2,956.9h-7.8v5.7h7.8V956.9z M136.8,998.1c3,1.9,5.8,3.9,8.6,5.9l-1.4,2c-3.3-2.6-6.1-4.6-8.4-6.2
		L136.8,998.1z M136.2,961c1.1-1.3,2.1-2.5,2.9-3.5l1.4,1.1c-0.8,1-1.8,2.2-3,3.5L136.2,961z M147,970.2c-0.2-0.7-0.5-1.5-0.9-2.2
		c1.8-2.6,3.1-5.6,4-9h-3.7v-1.7h3.7v-5.1h1.7v5.1h3.5v1.7h-3.5v4.4l1-1c1.1,1.1,2.1,2.2,3,3.3l-1.3,1.3c-0.9-1.1-1.8-2.2-2.7-3.2
		V977h-1.7v-13.2C149.2,966.3,148.2,968.5,147,970.2L147,970.2z M149.6,1012.9h-1.8v-23.3h20.3v20.3c0,1.9-0.9,2.8-2.8,2.8
		c-1.2,0-2.5,0-4-0.1c-0.1-0.6-0.2-1.3-0.3-2c1.6,0.2,2.9,0.2,3.9,0.2c0.9,0,1.3-0.5,1.3-1.4v-18h-16.7V1012.9z M150.9,994.6h14v1.8
		h-14V994.6z M152.9,999.3h10v8h-8.3v1.3h-1.8V999.3z M161.2,1001.2h-6.5v4.3h6.5V1001.2z M156.2,953.9h12.6v23.2h-1.8v-1.7H158v1.7
		h-1.8V953.9z M166.9,955.6H158v4.9h8.9V955.6z M158,967h8.9v-4.9H158V967z M158,973.6h8.9v-4.9H158V973.6z M175.4,971.5
		c1.3-1,2.5-2,3.6-3c0.1,0.7,0.2,1.4,0.3,2.1c-1.4,1.1-2.8,2.3-4.1,3.4c-0.3,0.3-0.7,0.7-1,1.2l-1.4-1.6c0.5-0.5,0.8-1.3,0.8-2.2
		v-8.8h-3v-1.8h4.9V971.5L175.4,971.5z M174.1,952.6c1.6,1.7,2.8,3.1,3.7,4.2l-1.6,1.4c-1.2-1.7-2.4-3.1-3.5-4.4L174.1,952.6z
		 M176.6,975.6c2.2-2.1,4.3-4.5,6.2-7.2l1.6,1.2c-1.9,2.5-4,4.9-6.3,7.3C177.7,976.5,177.2,976.1,176.6,975.6L176.6,975.6z
		 M179.5,953.9h13.1v13.4h-1.8v-1.5h-9.5v1.5h-1.8V953.9z M190.8,955.7h-9.5v8.3h9.5V955.7z M192.8,976.8c-1.8-2.5-3.7-4.8-5.6-7.1
		l1.6-1.2c1.9,2.1,3.8,4.5,5.8,7L192.8,976.8L192.8,976.8z"/>
	<path class="st1" d="M460.8,47.5c1.6,0.6,2.9,1,4,1.3c-0.5,4.6-1.1,7.3-1.9,8.1c-0.8,0.8-2,1.3-3.6,1.3h-2.7c-3,0-4.4-1.6-4.4-4.8
		v-8.3H449c0,6.9-2.9,11.5-8.6,13.6c-1-1.4-2-2.6-3-3.5c4.9-2,7.3-5.4,7.2-10.1h-6.8v-4.1H449V29.8h4.2v11.3h11.3v4.1h-8.1v7.4
		c0,1.2,0.5,1.9,1.5,1.9h0.7c0.8,0,1.3-0.3,1.5-1C460.3,52.7,460.6,50.7,460.8,47.5z M442.2,31.4c2.2,2.4,4,4.4,5.3,6.1l-3.3,2.7
		c-1.8-2.5-3.5-4.6-5.1-6.3L442.2,31.4z M454.7,37.8c1.5-1.6,3.2-3.7,5.1-6.4l3.5,2.7c-2.4,2.9-4.2,5.1-5.6,6.4L454.7,37.8
		L454.7,37.8z M475.6,47.7h-8.1v-3.3h8.1V47.7z M499.7,47.6c1.3,0.6,2.7,1.1,4.2,1.7c-0.6,3-1.1,5-1.4,5.8c-0.3,0.9-0.9,1.5-1.7,2.1
		c-0.8,0.5-1.9,0.8-3.3,0.8h-9.7c-1.6,0-2.8-0.5-3.7-1.4c-0.9-0.9-1.4-2.4-1.4-4.4V41.4h-3.3v-7.9h10.2c-0.3-1.1-0.6-2.1-0.9-2.9
		l4.5-0.9c0.3,1.1,0.7,2.4,1.1,3.8h9.9v7.9h-3.9v-4.1h-17v2.8h3.5V45c4.7-1.2,8.9-2.6,12.8-4l2.1,3.8c-4.6,1.5-9.5,2.9-14.9,4.2v2.4
		c0,1.9,0.8,2.9,2.5,2.8h6.8c0.9,0,1.5-0.2,2-0.5c0.5-0.3,0.8-0.8,1-1.5S499.4,50,499.7,47.6z M504.9,185.5
		c-0.2-0.7-0.5-1.4-0.8-2.1c2.3-3.6,4-7.7,5.2-12.3l1.8,0.6c-0.6,2.2-1.3,4.2-2.1,6.1v18.3h-1.8v-14.4
		C506.5,183,505.7,184.3,504.9,185.5L504.9,185.5z M504.3,222.1h16.8v-1.8h2v1.8h4.9v1.8h-4.9v4.7c0,2.1-1,3.1-3,3.1
		c-1,0-2.3,0-3.9-0.1c-0.1-0.7-0.2-1.4-0.4-2.2c1.5,0.1,2.7,0.2,3.7,0.2c1,0,1.6-0.6,1.6-1.8v-4h-16.8V222.1z M506.4,217.2h17v-2.6
		h-16.1v-1.8h16.1v-2.6h-16.7v-1.8h18.6v11.3h-1.8v-0.9h-17V217.2z M510.2,34.5c0.5-1.9,0.9-3.5,1.1-4.7l4.1,0.7l-1.2,4h4.7v5.7
		c1.5-2.6,2.9-6.1,4.2-10.4l3.8,1.1c-0.4,1.3-0.8,2.6-1.3,3.8h7.1l-0.3,16.9c0,1.8-0.2,3.1-0.4,3.8c-0.2,0.7-0.6,1.3-1.1,1.8
		c-0.5,0.5-1.2,0.8-2.1,0.9c-0.9,0.2-2.9,0.2-5.9,0.2c-0.3-1.7-0.6-3.2-1-4.4c1.4,0.1,2.8,0.2,4.3,0.2c0.4,0,0.8-0.1,1.1-0.2
		c0.3-0.1,0.6-0.3,0.8-0.5c0.2-0.2,0.3-0.5,0.4-0.7c0.1-0.3,0.1-1.5,0.2-3.6l0.1-6c0-1.9,0.1-3.4,0.1-4.5h-4.8
		c-0.6,1.4-1.2,2.7-1.9,4c-0.9-0.6-2-1.2-3.2-1.8v17.4H515v-2.1h-3.9v2.3h-3.8V34.5H510.2L510.2,34.5z M512.7,229.6
		c-1.5-1.5-2.8-2.8-3.9-3.8l1.2-1.3c1.7,1.5,3.1,2.7,4.1,3.6L512.7,229.6L512.7,229.6z M521.2,178.2c1.5,5.3,3.8,9,6.9,11.3
		c-0.5,0.7-1,1.3-1.4,1.9c-3.2-2.6-5.5-7-7-13.2V189h3.5v1.8h-3.5v5.3h-1.8v-5.3h-3.5V189h3.5v-10.7h-0.1
		c-1.5,5.8-3.9,10.4-7.3,13.6c-0.4-0.5-0.8-1-1.3-1.6c3.1-3,5.4-7,6.9-12h-5.6v-1.8h7.3v-5.2h1.8v5.2h7.6v1.8H521.2L521.2,178.2z
		 M515,38.4h-3.9v5h3.9V38.4z M511.1,52.2h3.9v-5h-3.9V52.2z M523.2,42.1c1.3,1.7,2.7,3.7,4.3,6.1l-3.5,2.5c-1.4-2.4-2.7-4.5-4-6.2
		L523.2,42.1z M528.5,188.5c1.8-0.4,3.9-0.9,6.1-1.4c0,0.7,0,1.3,0,1.8c-1.8,0.4-3.7,0.9-5.8,1.5L528.5,188.5z M528.7,220.7
		c1.2-0.2,2.6-0.4,4.2-0.7V214H529v-1.8h3.8v-4.8h1.8v4.8h3.5v1.8h-3.5v5.6c1.1-0.2,2.3-0.5,3.5-0.7c0,0.7,0,1.3,0.1,1.9
		c-1.2,0.2-2.4,0.5-3.6,0.7v7.7c0,1.8-0.7,2.7-2.2,2.7c-0.8,0-1.8,0-2.8,0c-0.1-0.6-0.2-1.4-0.3-2.1c1.1,0.1,1.9,0.2,2.5,0.2
		c0.7,0,1-0.4,1-1.1v-6.9c-1.3,0.3-2.5,0.6-3.8,0.8L528.7,220.7z M528.8,145.4c2.7-2.7,4.8-6.2,6.4-10.3l2,0.6
		c-0.5,1.2-1,2.3-1.5,3.3h14.8c-0.1,7.1-0.3,12.1-0.4,15.1c-0.1,3.6-1.7,5.4-4.8,5.4c-1.3,0-3.1,0-5.3-0.1c-0.1-0.6-0.2-1.4-0.4-2.3
		c1.9,0.2,3.6,0.3,5.2,0.3c2.1,0.1,3.2-1.2,3.3-3.7c0.1-4.3,0.2-8.5,0.3-12.7h-13.7c-1.3,2.3-2.7,4.3-4.4,6.1
		C529.9,146.6,529.4,146,528.8,145.4L528.8,145.4z M532,176l-0.5,7h2.4l0.6-8.6h-5.4v-1.7h7.2l-0.7,10.3h1.5
		c-0.1,3.6-0.2,6.5-0.3,8.8c0,2.6-1.1,3.9-3.1,3.9c-0.9,0-1.9,0-3-0.1c-0.1-0.6-0.2-1.3-0.3-2c1.1,0.2,2.2,0.2,3.1,0.2
		c1.1,0,1.7-0.7,1.8-2.2c0.1-1.9,0.2-4.2,0.2-6.9h-5.7l0.8-8.7H532z M541.7,146.8c0.9,1.5,2.2,3.8,4,7.1l-2,1.1
		c-0.3-0.5-0.5-1.1-0.8-1.6c-3.9,0.3-6.8,0.6-8.9,0.8c-0.4,0.1-1.1,0.2-1.9,0.5l-1-2.2c0.8-0.6,1.5-1.3,2-2.1c2-3.1,3.4-5.9,4.4-8.3
		l2.1,0.8c-1.7,3.4-3.5,6.4-5.3,9.1c2.8-0.1,5.4-0.3,7.7-0.5c-0.7-1.4-1.4-2.6-2.1-3.8L541.7,146.8z M547.1,58.2
		c-0.3-1.8-0.7-3.3-1-4.5c2.3,0.1,3.9,0.1,4.7,0.1c0.6,0,1.1-0.1,1.4-0.2c0.3-0.1,0.6-0.3,0.8-0.5c0.2-0.2,0.4-0.5,0.4-0.8
		c0.1-0.3,0.2-1.4,0.2-3.2c0.1-1.8,0.1-3.1,0.1-3.8h-8.7c-0.6,5.6-3.1,10.1-7.8,13.5c-0.5-0.7-1.5-2-3-3.9c2-1.4,3.6-3,4.6-4.8
		c1.1-1.8,1.7-3.5,1.9-5.2c0.2-1.7,0.3-4.1,0.3-7.3H535v-3.9h11.4l-1.1-3l4.4-1.1c0.6,1.6,1.1,3,1.4,4h10.1v3.9h-15.8
		c0,1.2-0.1,2.5-0.1,3.8h12.9c-0.1,2.6-0.2,5.2-0.3,7.9c-0.1,2.7-0.3,4.4-0.4,5.1c-0.1,0.7-0.4,1.3-0.8,1.9c-0.4,0.6-0.9,1-1.4,1.2
		c-0.6,0.2-1.4,0.4-2.6,0.5C551.5,58.2,549.6,58.2,547.1,58.2z M537.5,229.6c-0.3-0.5-0.7-1-1.2-1.7c2.5-1.2,4.7-2.6,6.7-4.1
		c-0.5-1.8-0.8-4.3-1-7.4l-4.6,0.6l-0.3-1.9l4.8-0.6c-0.1-2.2-0.2-4.6-0.3-7.3h2c0,2.6,0.1,5,0.2,7.1l8.1-1l0.2,1.9l-8.2,1
		c0.2,2.6,0.4,4.7,0.8,6.3c1.9-1.7,3.5-3.5,4.8-5.5l1.6,1.2c-1.7,2.3-3.6,4.4-5.8,6.2c0.7,2,1.5,3.6,2.6,4.6
		c0.6,0.5,1.1,0.8,1.5,0.8c0.4,0,0.7-0.4,0.9-1.2c0.2-1.2,0.4-2.5,0.5-3.9c0.7,0.3,1.3,0.6,1.8,0.7c-0.3,1.9-0.6,3.4-0.9,4.4
		c-0.4,1.4-1.1,2.1-2.2,2.1c-1,0-1.9-0.4-2.7-1.1c-1.3-1.2-2.3-2.9-3.1-5.1C541.7,227.2,539.7,228.4,537.5,229.6L537.5,229.6z
		 M545.9,171.3l-0.5,0.8c1.9,3.6,4.3,6.3,7.2,7.9c-0.5,0.7-0.9,1.3-1.3,1.8c-2.8-2.2-5.1-4.8-6.8-7.9c-1.6,3.1-3.9,5.8-6.8,8.3
		c-0.3-0.4-0.7-1-1.2-1.6c3.2-2.3,5.6-5.4,7.3-9.2H545.9z M537.2,193.2h8.6c1.1-3,2.2-6.2,3.1-9.4l1.8,0.6c-0.9,3-1.9,6-3,8.8h4.2
		v1.8h-14.7V193.2z M540.3,191.5c-0.5-2.2-1.1-4.3-1.9-6.5l1.7-0.6c0.8,2.4,1.4,4.5,2,6.4L540.3,191.5L540.3,191.5z M539.7,180.6
		h9.8v1.8h-9.8V180.6z M544.2,190.6c-0.5-2.3-1-4.6-1.6-6.7l1.7-0.5c0.7,2.5,1.2,4.8,1.6,6.7L544.2,190.6L544.2,190.6z M549,212.5
		c-1.4-1.3-2.7-2.4-4-3.4l1-1.3c1.4,1,2.8,2.1,4.2,3.2L549,212.5L549,212.5z M553.8,227.4c-0.3-0.7-0.5-1.5-0.8-2.2
		c1.6-2.4,2.9-5.3,3.8-8.5h-3.5V215h3.8v-4c-1,0.1-2.1,0.2-3.3,0.3c-0.1-0.6-0.2-1.2-0.4-1.9c3.2-0.2,6.1-0.5,8.5-0.8l0.4,1.9
		c-1,0.1-2.2,0.2-3.5,0.4v4.1h3.3v1.8h-3.3v3.2l0.8-0.9c1.1,0.9,2.1,1.8,3.1,2.8l-1.3,1.5c-0.8-0.8-1.7-1.7-2.6-2.6v11.5H557V221
		C556.2,223.4,555.1,225.6,553.8,227.4L553.8,227.4z M553.9,188.1c-0.3-0.7-0.5-1.4-0.8-2c2-2.1,3.8-4.9,5.6-8.3l1.6,0.9
		c-0.7,1.3-1.4,2.6-2.2,3.7v13.6h-1.8v-11C555.6,186.2,554.7,187.2,553.9,188.1L553.9,188.1z M554.2,180c-0.3-0.6-0.6-1.2-1-1.8
		c2.2-1.9,4.1-4.3,5.6-7.1l1.7,1C558.8,174.9,556.7,177.6,554.2,180L554.2,180z M553.2,259h17.7v1.9h-17.7V259z M553.3,153.5h5.5
		v-2.3h-2.7v0.8h-1.7v-6.8h4.4V143h-1.1v0.9H556v-4.3h-2.7v-1.7h2.7v-2.6h1.7v2.6h4.1v-2.6h1.7v2.6h2.7v1.7h-2.7v4.3h-1.7V143h-1.3
		v2.1h4.4v6.8h-1.7v-0.8h-2.8v2.3h5.3v1.7h-5.3v4.9h-1.7v-4.9h-5.5V153.5z M556.1,149.5h2.7v-2.9h-2.7V149.5z M557.2,255.1v-1.9
		l1-10h2l-0.4,4h16.9v1.9h-17.1l-0.4,4.1H575c-0.2,3.6-0.4,6.9-0.6,9.9c-0.2,1.8-0.7,3-1.5,3.6c-0.7,0.6-1.9,0.9-3.6,0.9
		c-1.6,0-3.4-0.1-5.4-0.1c-0.1-0.6-0.2-1.3-0.4-2.2c2.4,0.2,4.2,0.3,5.4,0.3c2.1,0.2,3.3-0.7,3.5-2.7c0.2-2.3,0.4-4.9,0.5-7.9H557.2
		z M557.7,141.4h4.1v-1.9h-4.1V141.4z M561.5,181.9h5.3v-2.4h-6.2v-1.6h6.2v-2.4h-5.1v-1.6h5.1v-2.7h1.8v2.7h5.9v4h2.3v1.6h-2.3v5
		h-1.8v-0.9h-4.2v2.6h6.7v1.6h-6.7v2.4h7.9v1.6h-7.9v4.4h-1.8v-4.4h-7.1v-1.6h7.1v-2.4H561v-1.6h5.8v-2.6h-5.3V181.9z M563.3,146.7
		h-2.8v2.9h2.8V146.7z M562.4,227.5c-0.3-0.5-0.7-1-1.1-1.6c2.5-2,4.6-4.3,6.2-7.1c-1.5,0.8-3.1,1.5-4.9,2.1
		c-0.3-0.5-0.5-1.1-0.9-1.7c2.4-0.7,4.5-1.6,6.3-2.7c-0.7-0.7-1.6-1.5-2.7-2.5l1.1-1.3c1.2,1,2.2,1.9,3.1,2.7c1.5-1,2.9-2.4,4.2-4.3
		h-7.1c-0.9,1.4-2.2,2.8-3.7,4.2c-0.3-0.5-0.7-0.9-1.2-1.4c2.3-2,4-4.3,5.3-6.9l1.7,0.7c-0.3,0.6-0.6,1.1-0.9,1.6h8v1.8
		c-1.4,2.8-3.8,5.2-7.3,7.2l1.3,0.5c-0.3,0.4-0.5,0.9-0.8,1.3h7.6v1.9c-2.1,5.2-6.9,8.7-14.5,10.5c-0.3-0.6-0.6-1.2-0.9-1.7
		c2.5-0.6,4.9-1.5,7.2-2.7c-0.7-0.8-1.5-1.7-2.5-2.6l1.1-1.2c1,1,2,1.9,2.8,2.8c2-1.5,3.6-3.3,4.6-5.2h-6.8
		C566.2,223.9,564.5,225.8,562.4,227.5L562.4,227.5z M565.4,140.6h3c0-1.7,0.1-3.5,0.1-5.2h1.9c-0.1,1.9-0.1,3.6-0.2,5.2h5.6
		c-0.1,5.2-0.3,10-0.4,14.3c0,3-1.2,4.5-3.5,4.5c-0.8,0-1.8,0-3-0.1c-0.1-0.7-0.2-1.4-0.4-2.1c1,0.2,2.1,0.3,3.1,0.3
		c1.3,0,1.9-0.9,2-2.7c0.2-4.1,0.3-8.2,0.4-12.3h-3.8c0,1.3-0.1,2.6-0.1,3.6c-0.2,6.5-1.9,11.2-5,14.1c-0.3-0.7-0.7-1.3-1.2-1.9
		c2.7-2.5,4.1-6.6,4.3-12.3c0-1.2,0.1-2.4,0.1-3.6h-3V140.6z M564,33.8h8.2c0.4-1.4,0.7-2.8,1-4.1l4.2,0.7l-1.1,3.5h12.4v19
		c0,1.8-0.4,3.2-1.2,4.1c-0.8,0.9-2,1.4-3.6,1.5c-1.6,0.1-3.5,0.1-5.7,0.1c-0.3-1.3-0.6-2.8-1-4.3c1.4,0.1,2.6,0.1,3.6,0.1
		c1.2,0,2.1-0.1,2.5-0.2c0.5-0.1,0.8-0.4,1.1-0.9c0.3-0.4,0.4-1,0.4-1.7V37.8h-16.9v20.5H564V33.8z M572.8,175.5h-4.2v2.4h4.2V175.5
		z M568.6,181.9h4.2v-2.4h-4.2V181.9z M582.6,40.3v11.4h-8.6v1.8h-3.7V40.3H582.6z M573.9,44v3.9h4.9V44H573.9z M577.5,103.8v2h-2.3
		V85h2.3v9.2h0c1-1.8,2.5-2.8,4.5-2.8c1.7,0,3,0.6,3.9,1.9c1,1.2,1.5,2.9,1.5,5.1c0,2.4-0.5,4.3-1.6,5.7c-1.1,1.4-2.6,2.1-4.4,2.1
		C579.8,106.1,578.5,105.3,577.5,103.8L577.5,103.8z M589.8,137.5c-0.3-0.5-0.5-1-0.9-1.5l1.6-0.9c0.4,0.6,0.9,1.5,1.5,2.4h9.2v1.6
		h-19.8v8.2c0,5.2-0.8,9.5-2.5,12.7c-0.2-0.4-0.7-1-1.4-1.8c1.5-2.7,2.2-6.4,2.2-10.9v-9.9H589.8L589.8,137.5z M577.5,100
		c0,1.1,0.3,2.1,1,2.9c0.7,0.8,1.6,1.2,2.6,1.2c1.2,0,2.2-0.5,2.9-1.5c0.7-1,1-2.4,1-4.2c0-1.5-0.3-2.7-1-3.5
		c-0.7-0.9-1.5-1.3-2.7-1.3c-1.1,0-2.1,0.4-2.8,1.3c-0.7,0.9-1.1,2-1.1,3.3V100z M586.1,185.2c1,2.3,1.9,4.6,2.8,6.9
		c-0.7,0.3-1.3,0.6-1.8,0.8c-0.1-0.3-0.2-0.6-0.3-1c-3,0.3-5.8,0.6-8.3,0.9l-0.8-2.1c0.7-0.4,1.3-1.1,1.7-2.1
		c0.8-1.7,1.6-3.8,2.4-6.3h-4v-1.9h11.5v1.9h-5.5c-1.4,3.6-2.5,6.4-3.5,8.4c1.8-0.1,3.8-0.3,5.9-0.6c-0.5-1.4-1.1-2.8-1.7-4.2
		L586.1,185.2z M586.1,221.2c1,2.3,1.9,4.6,2.8,6.9c-0.7,0.3-1.3,0.6-1.8,0.8c-0.1-0.3-0.2-0.6-0.3-1c-3,0.3-5.8,0.6-8.3,0.9
		l-0.8-2.1c0.7-0.4,1.3-1.1,1.7-2.1c0.8-1.7,1.6-3.8,2.4-6.3h-4v-1.9h11.5v1.9h-5.5c-1.4,3.6-2.5,6.4-3.5,8.4
		c1.8-0.1,3.8-0.3,5.9-0.6c-0.5-1.4-1.1-2.8-1.7-4.2L586.1,221.2z M578.5,245.5h8.2v20.7h-1.9v-2.1h-4.5v2.4h-1.9V245.5z
		 M578.8,173.3h9.6v1.9h-9.6V173.3z M578.8,209.3h9.6v1.9h-9.6V209.3z M584.9,247.4h-4.5v6.4h4.5V247.4z M580.4,262.3h4.5v-6.6h-4.5
		V262.3z M581.4,155.9v-1.5h8.7v-1.6h-7.5v-1.5h7.5v-1.6c-2.2,0.1-4.6,0.1-7.3,0.2l-0.3-1.5c6.7-0.1,11.9-0.4,15.6-0.8l0.6,1.6
		c-1.8,0.2-4.1,0.3-7,0.4v1.7h7.6v1.5h-7.6v1.6h9.2v1.5h-9.2v0.6c0,2.1-0.9,3.2-2.7,3.2c-0.9,0-1.9,0-2.7-0.1
		c-0.1-0.6-0.2-1.2-0.3-2c0.9,0.2,1.8,0.2,2.6,0.2c1,0,1.5-0.6,1.5-1.8v-0.3H581.4z M582.5,147.5c-0.3-0.4-0.6-0.9-1-1.3
		c1.4-0.7,2.6-1.8,3.9-3.4H582v-1.4h3.7v-1.9h1.5v1.9h2.6v1.4h-2.6v1.2l0.6-0.7c0.8,0.6,1.6,1.1,2.2,1.7l-1,1
		c-0.7-0.6-1.4-1.1-1.9-1.5v3.1h-1.5v-3.4C584.8,145.5,583.7,146.6,582.5,147.5L582.5,147.5z M588.6,176.4h3.6c0-1.7,0-3.4,0-5.2h2
		c0,1.8,0,3.5-0.1,5.2h6.4c-0.1,6.4-0.3,11.6-0.5,15.5c-0.2,2.4-1.2,3.6-3.1,3.6c-1,0-2.1,0-3.2-0.1c-0.1-0.7-0.2-1.5-0.4-2.2
		c1.1,0.2,2.1,0.2,3,0.3c1.2,0,1.8-0.7,1.8-2.1c0.2-4.2,0.4-8.5,0.4-13H594c0,0.7,0,1.4,0,2.2c-0.1,6.7-2,11.9-5.7,15.8
		c-0.4-0.6-0.9-1.2-1.4-1.7c3.3-3.1,5.1-7.9,5.2-14.1c0-0.7,0-1.4,0-2.1h-3.5V176.4z M588.6,212.4h3.6c0-1.7,0-3.4,0-5.2h2
		c0,1.8,0,3.5-0.1,5.2h6.4c-0.1,6.4-0.3,11.6-0.5,15.5c-0.2,2.4-1.2,3.6-3.1,3.6c-1,0-2.1,0-3.2-0.1c-0.1-0.7-0.2-1.5-0.4-2.2
		c1.1,0.2,2.1,0.2,3,0.3c1.2,0,1.8-0.7,1.8-2.1c0.2-4.2,0.4-8.5,0.4-13H594c0,0.7,0,1.4,0,2.2c-0.1,6.7-2,11.9-5.7,15.8
		c-0.4-0.6-0.9-1.2-1.4-1.7c3.3-3.1,5.1-7.9,5.2-14.1c0-0.7,0-1.4,0-2.1h-3.5V212.4z M587.5,248.7h8.5v-5.6h1.9v5.6h3.4v1.9h-3.4
		v13.7c0,2.3-1,3.4-3.1,3.4c-0.9,0-2.3,0-4.1-0.1c-0.1-0.6-0.2-1.3-0.4-2.1c1.7,0.1,3,0.2,3.9,0.2c1.1,0,1.7-0.6,1.7-1.8v-13.3h-8.5
		V248.7z M590.2,253.1c1.3,2.5,2.2,4.4,2.9,5.9c-0.4,0.2-1.1,0.5-1.9,1c-0.6-1.6-1.5-3.6-2.7-6L590.2,253.1z M601.5,91.7l-6,16.2
		c-1.1,3-2.7,4.5-4.7,4.5c-0.6,0-1.1-0.1-1.5-0.2V110c0.5,0.2,0.9,0.3,1.3,0.3c1.1,0,1.8-0.7,2.4-2l1-2.6l-5.2-14h2.6l3.4,10.5
		l0.3,1.2h0.1c0-0.3,0.1-0.6,0.3-1.1l3.6-10.6H601.5z M590.3,147.7c-0.2-0.3-0.5-0.7-1-1.2c1.7-0.9,3.2-2.2,4.5-3.7h-2.9v-1.4h3.4
		v-1.9h1.5v1.9h4.2v1.4h-3.8c1.4,1.6,3.1,2.7,5,3.5c-0.5,0.5-0.8,0.9-1.1,1.4c-1.6-0.9-3-2.2-4.3-3.8v3.3h-1.5v-3.3
		C593.1,145.4,591.8,146.7,590.3,147.7L590.3,147.7z M591.6,32.9h7.7c0.4-1.1,0.8-2.2,1-3.3l4.2,0.3c-0.2,1-0.5,2-0.9,3h14.2v3.9
		h-15.7c-1.1,2.4-2.4,4.8-4,6.9v14.9h-3.7V48.2c-0.7,0.7-1.4,1.4-2.1,2.1c-0.5-1.8-1-3.3-1.5-4.5c2.8-2.7,5-5.6,6.7-8.9h-6V32.9z
		 M599.2,53.4h7.5v-6.6h-6V43h6v-5.3h3.9V43h6.1v3.9h-6.1v6.6h7.3v3.9h-18.8V53.4z M603.3,138.5v-1.7h9.5v1.8
		c-2.1,3.9-5.5,7.2-10,9.8c-0.3-0.6-0.6-1.2-1-1.8c1.7-0.9,3-1.8,4.1-2.6c-1-1.1-2-2.2-3.1-3.2l1.1-1.2c1.2,1.2,2.3,2.2,3.3,3.3
		c1.3-1.2,2.5-2.7,3.4-4.3H603.3z M602.8,191.3c-0.3-0.7-0.6-1.4-0.9-2.2c1.8-2.6,3.3-5.4,4.3-8.5h-4.2v-1.7h4.6v-4
		c-1.2,0.2-2.5,0.4-3.8,0.6c-0.1-0.6-0.3-1.1-0.5-1.8c3.3-0.4,6.5-1,9.6-1.7l0.5,1.8c-1.3,0.3-2.7,0.6-4.1,0.8v4.3h4.5v1.7h-4.5v3.3
		l0.9-0.9c1.3,1.2,2.5,2.4,3.7,3.7l-1.4,1.5c-1-1.2-2-2.4-3.2-3.6v11.8h-1.8v-12.2C605.7,186.6,604.4,189,602.8,191.3L602.8,191.3z
		 M602.2,157.6h8c-0.6-0.6-1.4-1.4-2.5-2.5l1.1-1.2c1,0.8,1.9,1.8,2.9,2.7l-1,1h5.7l-0.8-0.9c1-1,1.9-1.9,2.7-2.9l1.5,1.3
		c-0.7,0.8-1.6,1.6-2.5,2.5h8.2v1.7h-23.3V157.6z M602.7,101.3h10.2v-3.2h1.9v3.2h10.3v1.9h-10.3v5.9h-1.9v-5.9h-10.2V101.3z
		 M603,211.3h2.4c0.6-1.5,1.1-2.9,1.5-4.2l2,0.6c-0.5,1.3-1,2.5-1.5,3.6h4.8v20.2h-1.9v-2h-5.4v2.2H603V211.3z M614.7,243.2v7.4h9.3
		v14c0,2-1,3-3.1,3c-0.8,0-2,0-3.3-0.1c-0.1-0.6-0.2-1.3-0.3-2.1c1.3,0.1,2.4,0.2,3.1,0.2c1.2,0.1,1.8-0.5,1.8-1.6v-11.8h-16.7V268
		h-1.8v-17.3h9.2v-7.4H614.7z M608.5,250c-1.6-1.8-3.1-3.3-4.3-4.4l1.3-1.3c1.6,1.4,3.1,2.8,4.5,4.2L608.5,250L608.5,250z M607,95.4
		c2.6-0.8,4.8-1.4,6.6-2c0,0.8,0,1.5,0,2.1c-2.8,0.7-5.1,1.4-6.9,2c-0.5,0.2-0.9,0.4-1.2,0.7l-1-1.9c0.5-0.4,0.7-0.9,0.7-1.4V84.5
		h1.9v3.9h6.5v1.9H607V95.4L607,95.4z M610.3,213.2h-5.4v6.2h5.4V213.2z M604.9,227.7h5.4v-6.4h-5.4V227.7z M605.9,146.9h15.7v7.8
		h-1.8v-0.9h-12.1v0.9h-1.8V146.9z M619.8,148.5h-12.1v3.6h12.1V148.5z M608.6,255.5h10.5v7.3h-8.8v1.2h-1.7V255.5z M609.7,143h8.1
		v1.7h-8.1V143z M617.4,257.1h-7.1v3.9h7.1V257.1z M614.2,217.5c-0.4-0.3-1-0.6-1.6-0.9c1.5-2.5,2.8-5.7,3.8-9.4l2,0.5
		c-0.4,1.3-0.8,2.5-1.2,3.6h7.7c-0.2,8.7-0.3,14.2-0.5,16.4c-0.1,2.7-1.4,4-3.9,4c-1.4,0-2.9-0.1-4.4-0.2c-0.1-0.8-0.2-1.6-0.4-2.3
		h0.1c1.6,0.2,3,0.4,4.4,0.4c1.4,0,2.2-0.8,2.3-2.4c0.2-2.5,0.3-7.2,0.4-14h-6.4C615.6,214.8,614.9,216.2,614.2,217.5L614.2,217.5z
		 M615.7,135.4c0.4,1,0.8,2,1.2,2.9c1.8-1,3.3-2,4.6-2.9l1.2,1.6c-1.5,0.9-3.1,1.9-4.8,2.9c0.4,0.7,0.9,1.3,1.4,1.9
		c1.7-1,3.2-2,4.7-3l1.2,1.6c-1.3,0.9-2.8,1.8-4.5,2.7c1.5,1.3,3.3,2.1,5.3,2.5c-0.5,0.7-0.9,1.4-1.3,2.1
		c-5.1-1.9-8.6-5.7-10.6-11.5L615.7,135.4z M614.1,174.3h10.5v21.2h-1.9V193H616v2.5h-1.9V174.3z M618.6,224.2
		c-1.1-2-2.4-3.9-3.9-5.9l1.5-1.1c1.8,2.2,3.2,4.1,4.2,5.8L618.6,224.2L618.6,224.2z M614.9,84.5h1.9v5.5c2.5-1.1,4.8-2.4,7-3.7
		l1,1.8c-2.3,1.1-4.9,2.4-7.9,3.8V94c0,1.1,0.5,1.6,1.4,1.6h3.8c0.9,0,1.4-0.4,1.5-1.3c0.1-0.8,0.2-1.9,0.2-3.3
		c0.6,0.3,1.2,0.6,1.8,0.8c-0.1,1.5-0.3,2.7-0.4,3.5c-0.2,1.5-1.3,2.2-3.2,2.2h-4.1c-1.9,0-2.8-1-2.8-3V84.5z M622.7,176.1H616v15
		h6.7V176.1z M617.2,248.7c1.7-1.4,3.2-3,4.7-4.6l1.5,1.3c-1.6,1.7-3.3,3.2-4.9,4.6L617.2,248.7z M619.3,38h3.7v-3.3
		c-1,0.1-2,0.2-3.1,0.2c-0.1-1.3-0.3-2.5-0.5-3.6c3.1-0.2,6.3-0.6,9.4-1.2l0.8,3.5c-1,0.2-2,0.4-3.2,0.6V38h2.9v3.5h-2.9v2l0.4-0.4
		c0.9,0.8,2,1.8,3.1,3l-2.1,2.5c-0.5-0.6-0.9-1.3-1.4-1.9v12H623v-12c-0.7,2.3-1.6,4.5-2.6,6.7c-0.4-1.8-0.8-3.4-1.3-4.9
		c1.3-2.1,2.4-4.4,3.3-7h-3.1V38z M640.1,95.6l-0.5,0.5c3.1,2.7,6.7,4.5,10.7,5.4c-0.6,0.7-0.9,1.3-1.2,1.8
		c-1.1-0.3-2.1-0.7-3.1-1.1v7.1h-1.8v-1.2h-11.9v1.2h-1.8v-6.9c-1,0.5-2.1,1-3.2,1.4c-0.3-0.7-0.7-1.2-1.1-1.7
		c4.6-1.6,8.4-3.7,11.2-6.4H640.1z M627.6,246h3.6c0.3-0.9,0.6-1.9,0.9-2.9l1.8,0.6c-0.3,0.8-0.7,1.6-1,2.3h5.4v11.2h-5.2
		c-0.1,0.4-0.2,0.8-0.3,1.2h1.5v3.8c0.5-0.7,1-1.9,1.6-3.8l1.3,0.5c-0.5,1.1-1,2.2-1.5,3.2c0.7,0,1.3-0.1,2-0.1
		c-0.2-0.6-0.4-1.2-0.5-1.8l1-0.4c0.5,1.3,0.9,2.6,1.3,3.9l-1.2,0.5c-0.1-0.4-0.2-0.7-0.3-1.1c-1.3,0.1-2.5,0.2-3.5,0.4l-0.2-0.9
		v1.6c0,1.1,0.6,1.6,1.9,1.6h9.9c1.2,0,1.9-0.4,2-1.2c0.1-0.6,0.2-1.4,0.3-2.3c0.5,0.2,1.1,0.4,1.7,0.7c-0.1,0.8-0.3,1.5-0.4,2.1
		c-0.3,1.6-1.4,2.4-3.4,2.4h-10.8c-2,0-2.9-1-2.9-2.9v-6.1c-1.1,3.6-2.8,6.8-5.2,9.7c-0.3-0.4-0.7-1-1.2-1.6c2.3-2.7,4-5.8,5.1-9.5
		h-2.2v1h-1.6V246z M626.4,147.4c0.3-1.7,0.6-3.8,0.9-6.4l1.5,0.2c-0.2,2-0.5,4.2-0.9,6.5C627.6,147.7,627.1,147.5,626.4,147.4
		L626.4,147.4z M626.4,229.4c2.2-2.3,4.2-4.8,6.1-7.6l1.7,1.2c-2.3,3.3-4.4,5.8-6.3,7.7C627.5,230.4,627,229.9,626.4,229.4
		L626.4,229.4z M626.9,86.3h6.3v-2h1.8v2h6.7v-2h1.8v2h6.2V88h-6.2v1.9h-1.8V88H635v1.9h-1.8V88h-6.3V86.3z M628.7,189.3v-1.4h17.9
		v1.4c-1.6,1.4-3.6,2.6-5.9,3.6c2.6,0.7,5.5,1.2,8.9,1.4c-0.3,0.5-0.7,1.2-1,1.8c-4-0.5-7.5-1.3-10.3-2.3c-3,1.1-6.6,1.9-10.7,2.5
		c-0.2-0.5-0.5-1.1-0.8-1.7c3.4-0.4,6.5-1,9.1-1.8c-2.2-1-3.9-2.2-5.1-3.6H628.7z M627.5,90.7h10.2c-0.3-0.5-0.6-1-1-1.5l1.7-0.7
		c0.4,0.6,0.9,1.3,1.4,2.2h9.3v3.5h-1.9v-1.8h-17.8v1.9h-1.9V90.7z M627.7,96.8c2.6-1,5-2.1,7.4-3.5l1.1,1.5
		c-2.4,1.4-4.9,2.6-7.4,3.7C628.4,97.7,628,97.2,627.7,96.8L627.7,96.8z M627.8,180.8h21v6.2h-1.6v-0.6h-17.8v0.6h-1.6V180.8z
		 M628.2,36.6c2.8-2.3,4.9-4.5,6.2-6.7h3.9c-0.5,0.8-1,1.5-1.5,2.3h8.8v2.8c-2,3-4.5,5.5-7.6,7.4h2.7c-0.5,0.7-0.9,1.3-1.4,1.9h6.9
		v2.9c-3.4,6.5-8.9,10.3-16.6,11.6c-0.6-1.5-1.2-2.7-1.8-3.6c3.1-0.4,5.7-1.1,7.9-2.2c-0.7-0.7-1.5-1.3-2.3-2l2.4-2.2
		c0.8,0.7,1.8,1.5,2.9,2.4c1.5-1.1,2.6-2.4,3.6-3.9h-5.7c-2,2-4.1,3.6-6.4,4.8c-0.6-1-1.3-2-2-2.8c3.2-1.7,5.9-3.6,7.8-5.8
		c-1.7,0.8-3.6,1.5-5.5,2.1c-0.5-1-1-2.1-1.7-3.3c2.2-0.5,4.1-1.1,5.8-1.8c-0.7-0.6-1.5-1.3-2.2-1.9l2.3-2.2
		c0.9,0.7,1.9,1.6,2.9,2.5c1.5-1,2.8-2.2,3.8-3.6h-7c-1.1,1.3-2.4,2.6-3.7,3.8C629.8,38.1,629,37.3,628.2,36.6L628.2,36.6z
		 M629.7,209.2c6-0.1,11.7-0.5,17.1-1.2l0.6,2c-5.7,0.6-11,0.9-16,1l-0.9,7.3h7v-5.8h2v5.8h9.4v1.9h-9.4v8c0,1.3-0.2,2.2-0.7,2.7
		c-0.5,0.5-1.3,0.8-2.4,0.8c-0.6,0-1.6,0-3.2,0c-0.1-0.7-0.2-1.4-0.4-2.2c1.6,0.2,2.6,0.2,3.1,0.2c1,0,1.5-0.5,1.5-1.7v-7.8h-9.2
		L629.7,209.2z M629.2,250.8h3c0-0.6,0-1.3,0-2v-1.2h-3V250.8z M631.8,255.6c0.1-0.9,0.3-2,0.3-3.1h-2.9v3.1H631.8L631.8,255.6z
		 M629.3,184.9h4.9v-2.7h-4.9V184.9z M629.6,135.3h1.7v5.2l0.9-0.7c0.8,1,1.5,2,2.2,2.8l-1.3,1c-0.5-0.8-1.1-1.6-1.7-2.6v19h-1.7
		V135.3z M630,172h16.5v8h-1.6v-0.7h-13.3v0.7H630V172z M644.9,173.4h-13.3v1.6h13.3V173.4z M631.6,178h13.3v-1.6h-13.3V178z
		 M644.6,101.5c-2.5-1.2-4.6-2.6-6.3-4.3c-1.7,1.5-3.7,3-6.2,4.3H644.6L644.6,101.5z M644.3,103.1h-11.9v3.2h11.9V103.1z
		 M638.3,192.1c2.1-0.8,4-1.7,5.7-2.9H633C634.4,190.4,636.2,191.4,638.3,192.1L638.3,192.1z M633.4,144h7.3v-1.8h-6v-1.6h6v-1.7
		H634v-1.6h6.7V135h1.8v2.3h7.2v1.6h-7.2v1.7h6.5v1.6h-6.5v1.8h7.7v1.6h-16.8V144z M633.7,252.4c0,1.2-0.1,2.2-0.2,3.1h3.3v-3.1
		H633.7L633.7,252.4z M636.8,247.7h-3v1.1c0,0.7,0,1.4,0,2.1h3V247.7z M636.8,160H635v-12.9h13.4v9.8c0,1.9-0.8,2.8-2.4,2.9
		c-1,0-2.4,0-4.1,0c-0.1-0.5-0.2-1.2-0.4-2c1.5,0.1,2.7,0.2,3.7,0.2c0.9,0,1.3-0.4,1.3-1.2v-1.4h-9.8V160z M635.8,184.9h4.9v-2.7
		h-4.9V184.9z M646.6,148.7h-9.8v1.8h9.8V148.7z M636.8,153.8h9.8v-1.8h-9.8V153.8z M645.4,254.1c1,2.3,2.5,4.4,4.3,6.2
		c-0.4,0.6-0.8,1.2-1.1,1.8c-1.6-2-2.9-4.2-3.8-6.7v9.6h-1.6v-9.3c-0.9,2.3-2.1,4.4-3.6,6.2c-0.3-0.6-0.7-1.2-1-1.7
		c1.7-1.8,3-3.9,4.1-6.2h-3.6v-1.7h4.2v-3.8h-3.6v-1.7h3.6v-3.6h1.6v3.6h4.1v1.7h-4.1v3.8h4.6v1.7H645.4L645.4,254.1z M641.4,93.2
		c2.5,1,4.9,2.1,7.3,3.3l-1,1.6c-2.7-1.4-5.1-2.5-7.3-3.5L641.4,93.2z M647.2,182.2h-4.9v2.7h4.9V182.2z M643.9,221.8
		c2.3,2.5,4.4,5,6.3,7.5l-1.6,1.5c-1.8-2.6-3.9-5.2-6.2-7.8L643.9,221.8z M657.7,44.5l2.9,7.4c1.3-2.4,1.9-6.9,1.8-13.3h-2.8v-3.9
		h2.9l0-5h3.7l-0.1,5h7.2l-0.3,16.6c-0.1,2.2-0.1,3.6-0.3,4.2c-0.1,0.6-0.4,1.1-0.8,1.5c-0.4,0.4-0.9,0.7-1.5,0.9
		c-0.6,0.2-2.3,0.3-4.9,0.3c-0.3-1.5-0.6-2.9-1-4.4c1.2,0.1,2.2,0.1,3,0.1c0.5,0,0.9-0.1,1.2-0.3c0.3-0.2,0.5-0.5,0.5-1
		c0-0.4,0.1-1.9,0.2-4.5c0.1-2.6,0.1-5.8,0.1-9.5h-3.6c-0.1,4.4-0.2,7.5-0.5,9.4c-0.2,1.9-0.8,3.8-1.5,5.7c-0.8,1.9-1.8,3.6-3,5.1
		c-1-0.9-2.2-1.7-3.4-2.5c0.5-0.6,1-1.2,1.5-1.8l-7.6,0.7c-1.1,0.1-2,0.4-2.6,0.6l-1.7-3.5c1-0.8,2.1-3.9,3.5-9.2h-3.4v-3.8h12.7
		v3.8h-5.3c-0.9,2.8-1.8,5.5-2.7,8.2c1.7,0,3.2-0.1,4.5-0.2c-0.7-2-1.3-3.8-1.9-5.4L657.7,44.5z M659.1,35.7h-10.6v-3.7h10.6V35.7z
		 M664.5,95.6l-0.5,0.5c3.1,2.7,6.7,4.5,10.7,5.4c-0.6,0.7-0.9,1.3-1.2,1.8c-1.1-0.3-2.1-0.7-3.1-1.1v7.1h-1.8v-1.2h-11.9v1.2H655
		v-6.9c-1,0.5-2.1,1-3.2,1.4c-0.3-0.7-0.7-1.2-1.1-1.7c4.6-1.6,8.4-3.7,11.2-6.4H664.5z M657.5,188.7c0.9,0.8,1.8,1.6,2.7,2.4
		l-1.4,1.6c-0.7-0.8-1.5-1.5-2.2-2.3c-1.2,1.9-2.7,3.7-4.7,5.3c-0.3-0.5-0.7-1.1-1.1-1.7c1.9-1.5,3.4-3.1,4.5-5
		c-1.1-1.1-2.3-2.2-3.5-3.2c0.6-2.2,1.1-4.7,1.6-7.5H651v-1.9h2.6c0.2-1.7,0.5-3.4,0.7-5.3l1.9,0.3c-0.3,1.8-0.5,3.5-0.8,5h4.4v1.7
		C659.5,182.8,658.7,186.3,657.5,188.7L657.5,188.7z M651.7,232.2c-0.3-0.8-0.6-1.6-0.9-2.4c1.2-2.1,1.8-5.5,1.9-10.2l1.6,0.1
		c0,1.5-0.1,2.9-0.2,4.2c0.5,1,1,1.8,1.6,2.6v-8.7h-4.3v-1.6h3.6v-3.7h-3.1v-1.6h3.1v-3.7h1.6v3.7h2.7v1.6h-2.7v3.7h3.1v1.6h-2.4
		v3.6h2.2v1.6h-2.2v5c1.4,1,3,1.5,5,1.5c3.7,0.1,7.8,0,12.4-0.1c-0.3,0.7-0.5,1.4-0.7,2c-5.1,0-9.2,0-12.3-0.1
		c-3.7,0-6.3-1.7-7.9-4.8C653.3,228.7,652.6,230.6,651.7,232.2L651.7,232.2z M650.9,154c0.9-0.2,1.8-0.5,3-0.8v-9.7h-2.7v-1.8h2.7
		v-6.3h1.7v6.3h2.5v1.8h-2.5v9.2c0.9-0.3,1.9-0.5,2.9-0.8c0,0.7,0,1.4,0.1,1.9c-2.5,0.7-4.9,1.5-7.3,2.3L650.9,154z M652,248.8h7.7
		c0-1.9,0.1-3.8,0.1-5.7h2.1c0,1.8-0.1,3.7-0.1,5.7h11c-0.2,6.6-0.4,11.3-0.5,14c-0.2,2.9-1.7,4.4-4.4,4.4c-1.3,0-2.9,0-4.7-0.1
		c-0.1-0.7-0.2-1.5-0.4-2.4h0.1c2.1,0.2,3.7,0.3,4.8,0.3c1.5,0,2.4-0.9,2.6-2.7c0.2-3,0.3-6.8,0.4-11.4h-8.9c-0.1,4.4-0.8,7.7-2,10
		c-1.3,2.5-3.7,4.8-7.4,7.1c-0.4-0.6-0.9-1.3-1.4-1.9c3.5-2.1,5.7-4.1,6.8-6.2c1.1-1.9,1.8-4.9,1.9-8.9H652V248.8z M651.3,86.3h6.3
		v-2h1.8v2h6.7v-2h1.8v2h6.2V88h-6.2v1.9h-1.8V88h-6.7v1.9h-1.8V88h-6.3V86.3z M651.9,90.7h10.2c-0.3-0.5-0.6-1-1-1.5l1.7-0.7
		c0.4,0.6,0.9,1.3,1.4,2.2h9.3v3.5h-1.9v-1.8h-17.8v1.9h-1.9V90.7z M652.1,96.8c2.6-1,5-2.1,7.4-3.5l1.1,1.5
		c-2.4,1.4-4.9,2.6-7.4,3.7C652.8,97.7,652.5,97.2,652.1,96.8L652.1,96.8z M656.1,187.5c1.1-2.4,1.7-5.4,1.9-9.1h-2.9
		c-0.5,3.1-1,5.5-1.5,7C654.5,186.1,655.3,186.8,656.1,187.5L656.1,187.5z M659.4,145.7h13.1v8.7h-1.6v-0.6h-2.2v2.7
		c0,0.9,0.4,1.4,1.2,1.4h1.5c0.8,0,1.2-0.4,1.3-1.3c0.1-0.7,0.2-1.4,0.2-2.3c0.6,0.3,1.2,0.5,1.8,0.8c-0.1,1-0.2,1.8-0.4,2.4
		c-0.3,1.4-1.2,2.2-2.7,2.2h-2.2c-1.7,0-2.5-0.8-2.5-2.5v-3.3h-2.2c-0.2,1.9-0.9,3.2-2,4.1c-1,0.8-2.7,1.6-5.1,2.4
		c-0.3-0.6-0.7-1.2-1.1-1.8c2.5-0.6,4.2-1.2,5.1-2c0.8-0.6,1.2-1.5,1.4-2.7h-1.8v0.6h-1.6V145.7z M669,101.5
		c-2.5-1.2-4.6-2.6-6.3-4.3c-1.7,1.5-3.7,3-6.2,4.3H669L669,101.5z M668.7,103.1h-11.9v3.2h11.9V103.1z M659.7,196.3
		c-0.3-0.6-0.7-1.2-1.2-1.8c6-2.1,10.3-5.8,12.8-11l1.6,1.2C670.1,190.1,665.7,194,659.7,196.3L659.7,196.3z M658.6,142.4h4.3
		c-0.4-0.7-0.9-1.5-1.5-2.2l1.4-0.9c0.7,0.8,1.3,1.7,1.8,2.5l-0.9,0.6h3.6c0.6-1,1.2-2.1,1.8-3.2l1.7,1c-0.5,0.7-1.1,1.5-1.6,2.2
		h4.9v1.5h-15.6V142.4z M658.8,224.3c0.5-0.1,1.1-0.2,1.6-0.2v-14.4h-1.3v-1.6h8.7v1.6h-1.3V223c0.5-0.1,1.1-0.2,1.6-0.3
		c0,0.7,0,1.3,0.1,1.8c-0.6,0.1-1.1,0.2-1.7,0.3v4.1h-1.6V225c-2.2,0.4-4.1,0.8-5.7,1.1L658.8,224.3z M659.2,137.6h6.3
		c-0.3-0.6-0.6-1.2-1-1.9l1.7-0.7c0.5,0.9,0.9,1.8,1.2,2.6h6v1.5h-14.2V137.6z M659.7,185c1.2-3.4,2.2-6.4,2.8-9l1.7,0.5
		c-0.8,3.2-1.7,6.2-2.7,9.1C660.9,185.4,660.3,185.2,659.7,185L659.7,185z M670.8,147.2h-9.8v1.8h9.8V147.2z M661.1,152.3h9.8v-1.9
		h-9.8V152.3z M662,213.3h2.9v-3.6H662V213.3z M662,218.4h2.9v-3.6H662V218.4z M662,223.8c0.9-0.2,1.9-0.3,2.9-0.5v-3.4H662V223.8
		L662,223.8z M665.9,93.2c2.5,1,4.9,2.1,7.3,3.3l-1,1.6c-2.7-1.4-5.1-2.5-7.3-3.5L665.9,93.2z M665.9,171.2h1.8v16.2h-1.8V171.2z
		 M667.7,211.7V210h6v1.7c-0.2,3.5-0.8,6.7-1.7,9.6c0.7,2,1.4,4,2,6l-1.5,0.8c-0.5-1.5-0.9-3-1.4-4.4c-0.8,1.9-1.7,3.6-2.8,5.1
		c-0.3-0.3-0.7-0.8-1.3-1.2c1.4-1.8,2.5-3.8,3.3-6.2c-0.9-2.6-1.8-5.1-2.8-7.4l1.5-0.6c0.7,1.8,1.4,3.6,2.1,5.4
		c0.5-2.2,0.9-4.5,1-7.1H667.7z M673.1,183.8c-1.2-2.5-2.6-4.8-4.1-7.2l1.5-0.9c1.5,2.3,2.9,4.7,4.2,7L673.1,183.8L673.1,183.8z"/>
	<rect x="0" y="0" class="st2" width="720" height="1036.5"/>
</g>
<g>
</g>
<g>
</g>
<g>
</g>
<g>
</g>
<g>
</g>
<g>
</g>
<g>
</g>
<g>
</g>
<g>
</g>
<g>
</g>
<g>
</g>
<g>
</g>
<g>
</g>
<g>
</g>
<g>
</g>
</svg>
