<?xml version="1.0" encoding="utf-8"?>
<!-- Generator: Adobe Illustrator 17.0.0, SVG Export Plug-In . SVG Version: 6.00 Build 0)  -->
<!DOCTYPE svg PUBLIC "-//W3C//DTD SVG 1.1//EN" "http://www.w3.org/Graphics/SVG/1.1/DTD/svg11.dtd">
<svg version="1.1" id="Layer_1" xmlns="http://www.w3.org/2000/svg" xmlns:xlink="http://www.w3.org/1999/xlink" x="0px" y="0px"
	 width="720px" height="1036.5px" viewBox="0 0 720 1036.5" style="enable-background:new 0 0 720 1036.5;" xml:space="preserve">
<style type="text/css">
	.st0{fill:none;}
	.st1{fill-rule:evenodd;clip-rule:evenodd;fill:#1D50A2;}
	.st2{fill:#FFFFFF;}
	.st3{fill-rule:evenodd;clip-rule:evenodd;fill:#FFFFFF;}
	.st4{fill:#FFC822;}
</style>
<g id="page-uber.svg_1_">
	<rect y="0" class="st0" width="720" height="1036.5"/>
	<g>
		<rect x="88" y="162.5" class="st1" width="544" height="690"/>
		<path class="st2" d="M448,205.3c-1.7,0-3-1.3-3-3v-0.1c0-1.7,1.3-3,3-3c1.7,0,3,1.3,3,3v0.1C451,204,449.7,205.3,448,205.3z
			 M448,193.2c-1.7,0-3-1.3-3-3v-0.1c0-1.7,1.3-3,3-3c1.7,0,3,1.3,3,3v0.1C451,191.8,449.7,193.2,448,193.2z M448,181.1
			c-1.7,0-3-1.3-3-3V178c0-1.7,1.3-3,3-3c1.7,0,3,1.3,3,3v0.1C451,179.7,449.7,181.1,448,181.1z M448,169c-1.7,0-3-1.3-3-3v-0.1
			c0-1.7,1.3-3,3-3c1.7,0,3,1.3,3,3v0.1C451,167.6,449.7,169,448,169z M448,156.9c-1.7,0-3-1.3-3-3v-0.1c0-1.7,1.3-3,3-3
			c1.7,0,3,1.3,3,3v0.1C451,155.5,449.7,156.9,448,156.9z M448,144.8c-1.7,0-3-1.3-3-3v-0.1c0-1.7,1.3-3,3-3c1.7,0,3,1.3,3,3v0.1
			C451,143.4,449.7,144.8,448,144.8z M447.9,132.9c-1.6,0-2.9-1.2-3-2.8l0-0.1c-0.1-1.7,1.2-3.1,2.8-3.2c0.1,0,0.1,0,0.2,0
			c1.6,0,2.9,1.2,3,2.8c0,0,0,0.1,0,0.1c0,0,0,0,0,0c0.1,1.6-1.2,3-2.8,3.1C448,132.9,447.9,132.9,447.9,132.9z M446.5,121.3
			c-1.4,0-2.7-1-2.9-2.4l0-0.1c-0.3-1.6,0.8-3.2,2.4-3.5c0.2,0,0.4-0.1,0.6-0.1c1.4,0,2.7,1,2.9,2.4c0,0,0,0,0,0.1c0,0,0,0,0,0.1
			c0.3,1.6-0.8,3.2-2.4,3.5C446.9,121.3,446.7,121.3,446.5,121.3z M443.5,110c-1.3,0-2.4-0.8-2.8-2l0-0.1c-0.5-1.6,0.3-3.3,1.9-3.8
			c0.3-0.1,0.6-0.2,1-0.2c1.3,0,2.4,0.8,2.8,2c0,0,0,0,0,0c0,0,0,0,0,0c0,0,0,0,0,0c0.5,1.6-0.3,3.3-1.9,3.8
			C444.2,110,443.9,110,443.5,110z M439.1,99.2c-1.1,0-2.2-0.6-2.7-1.7l0-0.1c-0.7-1.5-0.1-3.3,1.3-4c0.4-0.2,0.9-0.3,1.3-0.3
			c1.1,0,2.1,0.6,2.7,1.6c0,0,0,0.1,0,0.1c0,0,0,0,0,0c0.7,1.5,0.1,3.3-1.3,4C440,99.1,439.5,99.2,439.1,99.2z M433.2,89.1
			c-1,0-1.9-0.5-2.5-1.3l-0.1-0.1c-0.9-1.4-0.6-3.2,0.8-4.2c0.5-0.4,1.1-0.5,1.7-0.5c1,0,1.9,0.5,2.5,1.3c0,0,0,0.1,0.1,0.1
			c0.9,1.4,0.6,3.2-0.8,4.2C434.3,89,433.7,89.1,433.2,89.1z M425.9,79.9c-0.8,0-1.6-0.3-2.2-1l-0.1-0.1c-1.1-1.2-1-3.1,0.2-4.2
			c0.6-0.5,1.3-0.8,2-0.8c0.8,0,1.6,0.3,2.2,1c0,0,0,0,0.1,0.1l0,0c0,0,0,0,0,0c1.1,1.2,1,3.1-0.2,4.2
			C427.4,79.7,426.7,79.9,425.9,79.9z M417.5,71.8c-0.7,0-1.4-0.2-1.9-0.7l-0.1-0.1c-1.3-1.1-1.4-3-0.4-4.2c0.6-0.7,1.4-1.1,2.3-1.1
			c0.7,0,1.4,0.2,1.9,0.7c0,0,0,0,0,0c0,0,0,0,0,0c1.3,1.1,1.4,3,0.3,4.2C419.2,71.4,418.4,71.8,417.5,71.8z M408.1,64.9
			c-0.6,0-1.1-0.2-1.6-0.5l-0.1-0.1c-1.4-0.9-1.8-2.7-0.9-4.1c0.6-0.9,1.5-1.4,2.5-1.4c0.5,0,1.1,0.2,1.6,0.5c0,0,0,0,0.1,0
			c0,0,0,0,0,0c1.4,0.9,1.8,2.7,0.9,4.1C410.1,64.4,409.1,64.9,408.1,64.9z M397.9,59.3c-0.4,0-0.8-0.1-1.2-0.3l-0.1,0
			c-1.5-0.7-2.2-2.5-1.5-4c0.5-1.1,1.6-1.8,2.7-1.8c0.4,0,0.8,0.1,1.2,0.3c0,0,0.1,0,0.1,0.1c1.5,0.7,2.2,2.5,1.5,4
			C400.1,58.6,399,59.3,397.9,59.3z M386.9,55.1c-0.3,0-0.6,0-0.9-0.1l-0.1,0c-1.6-0.5-2.5-2.2-2-3.7c0.4-1.3,1.6-2.1,2.9-2.1
			c0.3,0,0.6,0,0.8,0.1c0,0,0,0,0,0c0,0,0,0,0.1,0c0,0,0,0,0,0c1.6,0.5,2.5,2.2,2,3.7C389.4,54.3,388.2,55.1,386.9,55.1z
			 M375.5,52.5c-0.2,0-0.3,0-0.5,0l-0.1,0c-1.6-0.3-2.8-1.8-2.5-3.4c0.2-1.5,1.5-2.5,3-2.5c0.1,0,0.3,0,0.4,0c0.1,0,0.1,0,0.2,0
			c1.6,0.3,2.7,1.8,2.5,3.4C378.3,51.5,377,52.5,375.5,52.5z M363.9,51.5C363.9,51.5,363.8,51.5,363.9,51.5l-0.2,0
			c-1.7,0-3-1.4-2.9-3.1c0-1.6,1.4-2.9,3-2.9c0,0,0,0,0.1,0c0,0,0.1,0,0.1,0c0,0,0,0,0,0c1.7,0,3,1.4,2.9,3.1
			C366.8,50.2,365.5,51.5,363.9,51.5z M352.1,52c-1.5,0-2.8-1.1-3-2.7c-0.2-1.6,1-3.1,2.6-3.3c0,0,0,0,0,0c0,0,0.1,0,0.1,0
			c0.1,0,0.2,0,0.3,0c1.5,0,2.8,1.1,3,2.7c0.2,1.6-1,3.1-2.6,3.3l-0.1,0C352.3,52,352.2,52,352.1,52z M340.6,54.1
			c-1.3,0-2.6-0.9-2.9-2.3c-0.4-1.6,0.6-3.2,2.2-3.6c0,0,0,0,0,0c0,0,0,0,0,0c0,0,0,0,0.1,0c0.2-0.1,0.5-0.1,0.7-0.1
			c1.3,0,2.6,0.9,2.9,2.3c0.4,1.6-0.6,3.2-2.2,3.6l-0.1,0C341.1,54.1,340.8,54.1,340.6,54.1z M329.5,57.8c-1.2,0-2.3-0.7-2.8-1.9
			c-0.6-1.5,0.1-3.3,1.6-3.9c0,0,0,0,0,0c0,0,0,0,0.1,0c0,0,0,0,0,0c0.4-0.2,0.8-0.2,1.1-0.2c1.2,0,2.3,0.7,2.8,1.9
			c0.6,1.5-0.1,3.3-1.6,3.9l-0.1,0C330.2,57.7,329.9,57.8,329.5,57.8z M319,63c-1,0-2-0.5-2.6-1.5c-0.8-1.4-0.3-3.3,1.1-4.1
			c0,0,0,0,0,0c0,0,0,0,0.1,0c0,0,0,0,0,0c0.5-0.3,1-0.4,1.5-0.4c1,0,2,0.5,2.6,1.5c0.8,1.4,0.3,3.3-1.1,4.1l-0.1,0.1
			C320,62.8,319.5,63,319,63z M309.3,69.5c-0.9,0-1.8-0.4-2.4-1.2c-1-1.3-0.8-3.2,0.5-4.2c0,0,0.1-0.1,0.1-0.1
			c0.5-0.4,1.2-0.6,1.8-0.6c0.9,0,1.8,0.4,2.4,1.2c1,1.3,0.8,3.2-0.5,4.2l-0.1,0.1C310.6,69.3,309.9,69.5,309.3,69.5z M300.5,77.3
			c-0.8,0-1.5-0.3-2.1-0.9c-1.2-1.2-1.2-3.1,0-4.2c0,0,0,0,0,0c0,0,0,0,0,0c0,0,0,0,0,0c0.6-0.6,1.4-0.9,2.1-0.9
			c0.8,0,1.5,0.3,2.1,0.9c1.2,1.2,1.2,3.1,0,4.2l-0.1,0.1C302.1,77,301.3,77.3,300.5,77.3z M292.9,86.2c-0.6,0-1.3-0.2-1.8-0.6
			c-1.3-1-1.6-2.8-0.6-4.2c0,0,0.1-0.1,0.1-0.1c0.6-0.8,1.5-1.2,2.4-1.2c0.6,0,1.3,0.2,1.8,0.6c1.3,1,1.6,2.9,0.6,4.2l-0.1,0.1
			C294.8,85.7,293.9,86.2,292.9,86.2z M286.6,96c-0.5,0-1-0.1-1.4-0.4c-1.5-0.8-2-2.6-1.2-4.1c0,0,0,0,0,0c0,0,0,0,0-0.1
			c0,0,0,0,0,0c0.5-1,1.6-1.5,2.6-1.5c0.5,0,1,0.1,1.4,0.4c1.4,0.8,2,2.6,1.2,4.1l0,0.1C288.7,95.4,287.7,96,286.6,96z M281.7,106.6
			c-0.4,0-0.7-0.1-1.1-0.2c-1.5-0.6-2.3-2.3-1.7-3.9c0,0,0,0,0,0c0,0,0,0,0,0c0,0,0,0,0,0c0.5-1.2,1.6-1.9,2.8-1.9
			c0.4,0,0.7,0.1,1.1,0.2c1.5,0.6,2.3,2.3,1.7,3.9l0,0.1C284,105.9,282.9,106.6,281.7,106.6z M278.2,117.8c-0.2,0-0.5,0-0.7-0.1
			c-1.6-0.4-2.6-2-2.2-3.6c0,0,0-0.1,0-0.1c0.3-1.4,1.6-2.3,2.9-2.3c0.2,0,0.5,0,0.7,0.1c1.6,0.4,2.6,2,2.2,3.6l0,0.1
			C280.8,116.8,279.6,117.8,278.2,117.8z M276.4,129.3c-0.1,0-0.2,0-0.3,0c-1.6-0.2-2.9-1.6-2.7-3.3c0,0,0,0,0,0c0,0,0-0.1,0-0.1
			c0.1-1.6,1.5-2.7,3-2.7c0.1,0,0.2,0,0.3,0c1.7,0.2,2.9,1.6,2.7,3.3l0,0.1C279.2,128.1,277.9,129.3,276.4,129.3z M276.1,141
			c-1.6,0-2.9-1.3-3-2.9c0,0,0,0,0,0c0,0,0-0.1,0-0.1c-0.1-1.7,1.2-3.1,2.9-3.1c0,0,0.1,0,0.1,0c1.6,0,2.9,1.3,3,2.9l0,0.1
			c0.1,1.7-1.2,3.1-2.9,3.1C276.1,141,276.1,141,276.1,141z M276,153.1c-1.7,0-3-1.3-3-3V150c0-1.7,1.3-3,3-3c1.7,0,3,1.3,3,3v0.1
			C279,151.8,277.7,153.1,276,153.1z M276,165.2c-1.7,0-3-1.3-3-3v-0.1c0-1.7,1.3-3,3-3c1.7,0,3,1.3,3,3v0.1
			C279,163.9,277.7,165.2,276,165.2z M276,177.3c-1.7,0-3-1.3-3-3v-0.1c0-1.7,1.3-3,3-3c1.7,0,3,1.3,3,3v0.1
			C279,176,277.7,177.3,276,177.3z M276,189.4c-1.7,0-3-1.3-3-3v-0.1c0-1.7,1.3-3,3-3c1.7,0,3,1.3,3,3v0.1
			C279,188.1,277.7,189.4,276,189.4z M276,201.5c-1.7,0-3-1.3-3-3v-0.1c0-1.7,1.3-3,3-3c1.7,0,3,1.3,3,3v0.1
			C279,200.2,277.7,201.5,276,201.5z"/>
		<rect x="191" y="245.5" class="st3" width="339.9" height="2.3"/>
		<rect x="191" y="757.4" class="st3" width="339.9" height="2.3"/>
		<g>
			<path class="st2" d="M391.1,614.6v12.1c0,4.1-2.1,6.6-8.5,6.6c-6.4,0-8.5-2.4-8.5-6.6v-8.5c-0.1-2-1.8-3.6-4-3.6v2.3
				c0.8,0,1.4,0.6,1.5,1.3v9.3c0,4.8,4,8.2,11,8.2c7,0,11-3.4,11-8.2v-12.9H391.1z"/>
			<path class="st2" d="M464.1,632.9v-5.7c0-0.8,0.7-1.4,1.5-1.4h10.9v-2.4h-11c-0.5,0-1,0.1-1.5,0.3v-6.8h17.9v-2.4h-20.4v20.7
				h21.1v-2.4H464.1z"/>
			<path class="st2" d="M509.3,624.9c-0.5,0-1,0.1-1.5,0.3l0-8.4l13.8,0c2.4,0,4.3,1.8,4.3,4.1c0,2.3-1.9,4.1-4.3,4.1L509.3,624.9z
				 M528.6,633c-0.6,0.5-1.5,0.4-2-0.2l-4.8-5.8c3.6-0.1,6.5-2.9,6.5-6.3c0-3.5-3-6.3-6.7-6.3h-16.3v20.7h2.5l0-6.8
				c0-0.8,0.7-1.4,1.5-1.4l9.3,0l6,7.2c1.4,1.5,3.8,1.8,5.5,0.5L528.6,633z"/>
			<path class="st2" d="M432.6,633l-13.9,0v-5.9c0-0.8,0.7-1.5,1.5-1.5l12.4,0c2.2,0,3.9,1.6,3.9,3.7
				C436.5,631.4,434.8,633,432.6,633 M418.7,616.8l14,0c2,0,3.5,1.5,3.5,3.3c0,1.8-1.6,3.3-3.5,3.3H420c-0.5,0-0.9,0.1-1.3,0.3
				V616.8z M436.2,624.5c1.4-1,2.3-2.6,2.3-4.4c0-3.1-2.6-5.6-5.9-5.6l-16.5,0v20.7h16.4c3.5,0,6.3-2.6,6.3-5.9
				C438.9,627.4,437.8,625.6,436.2,624.5"/>
			<path class="st2" d="M432.1,649.7l2.8-2.8v12.7h-1v-10.2l-1.1,1.1L432.1,649.7z M445,659.5h-2.2c-1,0-1.8-0.8-1.8-1.8v-7.5h-1.7
				c-0.5,4.1-1.4,7.3-2.7,9.5l-0.9-0.5c1.2-2,2.1-5.1,2.6-9h-2.6v-1h2.7c0.1-0.8,0.1-1.7,0.2-2.6l1,0c0,0.9-0.1,1.7-0.2,2.5h3.9
				c0.5,0,0.8-0.4,0.8-0.8v-0.9h1v0.9c0,1-0.8,1.8-1.9,1.8h-1.3v7.5c0,0.5,0.4,0.9,0.8,0.9h2.2V659.5z"/>
			<path class="st2" d="M468.2,653.7c-2.9,3.5-6,5.5-12.7,6.1l-0.1-1c6.3-0.5,9.4-2.4,12.1-5.7L468.2,653.7z M462.4,646.4v1.4h5.1v1
				h-5.1v2.2h5.6v1h-12.4v-1h1.5v-3.7h1v3.7h3.4v-4.6H462.4z M460.1,653.5c-1,1.3-2.3,2.6-3.8,3.6l-0.6-0.8c1.3-1,2.6-2.2,3.6-3.4
				L460.1,653.5z M462.5,656.6h-1v-4.1h1V656.6z"/>
		</g>
		<g>
			<path class="st2" d="M508.7,710.5c3.1-5.4,5.9-12.4,8.5-21.1l3.9,1.5c-3.2,8.7-6.3,15.8-9.3,21.3c4.1-0.2,9.1-0.5,15-0.9
				c-1.3-3.2-2.7-6.2-4.2-9.2l3.1-1.6c2.5,4.8,5,10.2,7.6,16.2l-3.5,1.8c-0.5-1.4-1.1-2.7-1.6-4.1c-6.4,0.4-12.1,0.9-16.9,1.4
				c-1.4,0.2-2.6,0.5-3.5,0.8l-1.7-3.5C507.1,712.6,508,711.7,508.7,710.5z M500,691.8l1.7-1.6c2.1,2.2,4.1,4.4,6,6.7l-2.5,2.6
				c-2.4-3-4.1-5-5.2-6.2v25.2h-3.3v-25c-1.7,4.8-3.6,8.7-5.9,12c-0.5-1.4-1-2.8-1.6-4.2c3.3-4.9,5.9-10.7,7.6-17.3h-6.9v-3.3h6.9
				v-9.7h3.3v9.7h6.1v3.3H500V691.8z M505.4,691.4c3.9-6,6.8-12.5,8.6-19.5l3.5,1.2c-2.4,7.8-5.4,14.7-9.1,20.8
				C507.4,693,506.4,692.2,505.4,691.4z M532.1,694.8c-4.9-6.1-8.6-13.7-11.1-22.8l3.1-1.2c2.6,8.7,6.3,15.7,11.2,20.9
				C534.2,692.8,533.1,693.8,532.1,694.8z M468,700.7h-9.4v-3.4h22v3.4h-9.2V713H484v3.4h-28.8V713H468V700.7z M443.2,692.9h4.8
				v-9.2h3.2v9.2h4.6v3.2h-4.6v7c1.8-0.2,3.7-0.5,5.6-0.7c-0.2,1.3-0.3,2.4-0.3,3.4c-1.8,0.2-3.6,0.4-5.3,0.6v12.2H448v-11.7
				c-3,0.4-5.9,0.8-8.8,1.2l-0.4-3.6c2.8-0.3,5.9-0.6,9.2-1v-7.3h-8.2v-3.2c1.3-3.9,2.5-8,3.6-12.4h-4.2v-3.2h5.1
				c0.6-2.4,1.2-4.9,1.8-7.5l3.4,0.7c-0.6,2.3-1.2,4.6-1.8,6.8h8.7v3.2h-9.6C445.6,684.9,444.4,689.1,443.2,692.9z M484.7,692.3
				l-2.2,3.2c-4.2-3-8.2-5.7-11.9-8c-3.5,3-7.5,5.6-12.2,7.9c-0.7-1.2-1.5-2.3-2.3-3.3c8.5-3.7,14.9-8.7,19.3-15h-17.2v-3.4h21.3
				v3.3c-1.7,2.9-3.8,5.7-6.3,8.2C477.1,687.5,481,689.9,484.7,692.3z M413.3,689.3h11.8V684h-11.7
				C413.4,686,413.3,687.7,413.3,689.3z M412.8,697.8h12.3v-5.3h-11.9C413.2,694.4,413,696.2,412.8,697.8z M397.2,684v5.3h12.5
				c0-1.6,0.1-3.3,0.1-5.3H397.2z M397.2,697.8h12.1c0.2-1.6,0.3-3.4,0.4-5.3h-12.5V697.8z M405.1,708.4c1.6-1.5,2.9-3.9,3.6-7.3
				h-11.2C399.6,704.3,402.1,706.7,405.1,708.4z M413.4,680.7h15.2v22.9h-3.5v-2.4h-12.8c-0.8,3.9-2.1,6.8-3.8,8.9
				c6.1,2.4,14.7,3.6,25.6,3.5c-0.8,1.4-1.4,2.7-1.9,3.9c-12.1-0.4-21-1.9-26.7-4.8c-3.5,2.5-8.5,4.5-14.9,6
				c-0.6-1.1-1.3-2.3-2.1-3.5c5.6-1,10.1-2.5,13.5-4.6c-2.6-1.9-5-4.4-7.1-7.6l2.4-2h-3.6v-20.5h16.1c0-1.4,0-2.9,0-4.5h-19.7v-3.4
				h42.1v3.4h-18.8C413.4,677.8,413.4,679.3,413.4,680.7z M340.1,687.9c-0.5-1.2-1.2-2.5-1.8-3.8c4.9-4,8.8-8.7,11.7-14l3.3,2.1
				C349.7,678.1,345.3,683.3,340.1,687.9z M349.2,718.3h-3.8v-20.8c-1.8,2.2-3.7,4.3-5.7,6.1c-0.5-1.4-1-2.7-1.6-4
				c4.7-4.1,9-9.9,12.9-17.4l3.2,2.1c-1.6,2.9-3.2,5.6-5,8.1V718.3z M357.3,673.9H381v3.7h-23.8V673.9z M374.7,692.3v19.1
				c0,4-1.9,6.1-5.7,6.1c-2.6,0-5.2,0-7.8,0c-0.2-1.3-0.4-2.8-0.7-4.4c2.4,0.3,4.8,0.4,7.2,0.4c2.1,0,3.2-1.1,3.2-3.3v-17.8h-16.2
				v-3.7h29v3.7H374.7z M329.5,698.4v19.4h-3.8V716h-34.5v-17.6h3.9v13.9h13.1v-19.1h-15.8v-17.5h3.9v13.8h11.9v-18.3h4v18.3h12.1
				v-13.8h3.9V695h-3.9v-1.8h-12.1v19.1h13.4v-13.9H329.5z M248.1,708.9l2.2-2.3c1.9,1.6,3.7,3.4,5.6,5.2l-1.9,1.9h11l-1.6-1.7
				c2-1.9,3.7-3.7,5.2-5.6l2.8,2.4c-1.4,1.5-3,3.1-4.8,4.8h15.7v3.3h-44.8v-3.3h15.3C251.8,712.5,250.2,711,248.1,708.9z
				 M271.3,696.2h-23.2v6.8h23.2V696.2z M274.8,708h-3.5v-1.8h-23.2v1.8h-3.5v-15h30.2V708z M267.4,685.5v3.2h-15.5v-3.2H267.4z
				 M238.5,695.8c-0.6-1.1-1.2-2.2-1.9-3.4c3.2-1.8,5.8-3.4,7.8-5.1c-1.9-2.1-3.9-4.2-5.9-6.2l2.2-2.3c2.3,2.2,4.4,4.3,6.3,6.3
				c2.5-2.4,4.7-5.1,6.5-8.2h-13.9v-3.3h18.1v3.4C253.6,684.4,247.2,690.7,238.5,695.8z M283.1,690.5c-0.9,1.3-1.7,2.6-2.5,4
				c-9.7-3.6-16.5-11-20.4-22.2l3.2-1.4c0.7,2,1.5,3.9,2.3,5.6c3.4-2,6.3-3.8,8.8-5.7l2.2,3.1c-2.9,1.8-6,3.7-9.3,5.6
				c0.8,1.3,1.7,2.5,2.7,3.6c3.2-1.9,6.2-3.8,8.9-5.8l2.3,3.1c-2.5,1.7-5.4,3.4-8.6,5.2C275.8,688.1,279.2,689.7,283.1,690.5z
				 M229.9,694.5c-3.1-1.8-5.8-4.3-8.2-7.3v6.3h-2.9v-6.3c-2.2,2.9-4.8,5.3-7.6,7.2c-0.4-0.6-1.1-1.4-2-2.3c3.2-1.8,6.1-4.2,8.6-7.1
				h-5.5v-2.7h6.5v-3.7h2.9v3.7h8.2v2.7h-7.3c2.8,3,6,5.3,9.6,6.7C231.2,692.7,230.5,693.6,229.9,694.5z M206.5,686.2
				c1.6,1.1,3,2.1,4.3,3.2l-1.8,1.9c-1.4-1.2-2.6-2.2-3.7-3v6h-2.9v-6.5c-1.8,2.5-3.9,4.7-6.2,6.4c-0.5-0.8-1.2-1.7-2-2.5
				c2.6-1.4,5.1-3.5,7.5-6.5h-6.3v-2.7h7.1v-3.7h2.9v3.7h5.1v2.7h-5.1v2.4L206.5,686.2z M210.7,704.5h-14.4v-2.8h14.4v-3.1
				c-4.2,0.1-8.8,0.3-14,0.4l-0.5-3c12.8-0.2,22.8-0.7,30-1.5l1.1,3.1c-3.4,0.3-7.9,0.6-13.4,0.8v3.2h14.5v2.8h-14.5v3h17.6v2.9
				h-17.6v1.2c0,4.1-1.8,6.2-5.3,6.2c-1.8,0-3.6,0-5.3-0.1c-0.1-1.1-0.3-2.4-0.5-3.8c1.8,0.3,3.4,0.4,5,0.4c1.9,0,2.8-1.1,2.8-3.4
				v-0.6H194v-2.9h16.7V704.5z M194,693.9c0,10.1-1.6,18.2-4.8,24.4c-0.4-0.7-1.3-1.9-2.7-3.4c2.8-5.3,4.2-12.3,4.2-21v-18.9h19.4
				c-0.5-0.9-1.1-1.8-1.7-2.9l3.1-1.8c0.8,1.2,1.8,2.8,2.8,4.7H232v3.1H194V693.9z"/>
			<path class="st2" d="M310.6,633.4v-5.8h-11.2v5.8H310.6z M310.6,618.9h-11.2v5.8h11.2V618.9z M296,627.6h-11.2v5.8H296V627.6z
				 M296,618.9h-11.2v5.8H296V618.9z M317.8,650.6v3.1h-40.1v-3.1H296V645h-15.9v-3H296v-5.6h-11.2v1.5h-3.1v-22h32v22h-3.1v-1.5
				h-11.2v5.6h15.9v3h-15.9v5.6H317.8z M240.8,637.5v12h23v-12H240.8z M253.8,625.1v9.2H267v21.4h-3.2v-3.1h-23v3.1h-3.2v-21.4h12.8
				v-9.2h-18.1v-3.3h18.1v-8.2h3.3v8.2h18.6v3.3H253.8z M210.5,651.4l-2.9,2.5c-1.7-2.3-3.5-4.6-5.4-7l2.6-2.1
				C206.8,646.9,208.7,649.1,210.5,651.4z M226.9,651.5c-1.3,1.3-2.3,2.5-2.9,3.4c-8.7-5.2-14.4-12.9-17.1-22.9
				c-2.2,9.9-8.1,17.8-17.6,23.7c-0.5-0.7-1.4-1.8-2.5-3.2c10.5-6,16.4-14.4,17.8-25h-17v-3.4h17.3c0.1-2.9,0.1-6.3,0.1-10.4h3.5
				c0,3.7,0,7.1-0.1,10.4h17.9v3.4h-17.7C211.3,639.2,217.5,647.2,226.9,651.5z"/>
			<path class="st4" d="M347.1,637.1l10.7-18h-5l-7,12.4c-0.5,1-0.9,1.8-1.3,2.7h-0.1c-0.4-1-0.8-1.8-1.2-2.6l-6.7-12.6H331
				l10.4,18.1l-11.3,18.2h5.4l7.8-13.6c0.5-1.1,0.8-1.8,0.8-1.9h0.1c0.3,0.9,0.6,1.6,0.8,1.9l7.6,13.7h5.4L347.1,637.1z"/>
			<path class="st2" d="M528.5,517.1v-15.8c0-1.8-0.2-3.1-0.5-4c-0.3-0.9-0.9-1.6-1.7-2.1c-0.8-0.5-1.8-0.8-2.9-0.8
				c-1.8,0-3.3,0.6-4.6,1.8c-1.3,1.2-1.9,3.4-1.9,6.8v14.2h-4.1v-25.9h3.7v3.7c1.8-2.8,4.4-4.3,7.8-4.3c1.5,0,2.8,0.3,4,0.8
				c1.2,0.6,2.2,1.3,2.8,2.2c0.6,0.9,1,2,1.3,3.2c0.2,0.8,0.2,2.2,0.2,4.3v15.9H528.5z M503.5,496.7c-1.4-1.7-3.1-2.5-5.1-2.5
				c-2.1,0-3.8,0.8-5.1,2.5c-1.4,1.6-2,4.1-2,7.4c0,3.3,0.7,5.8,2,7.5c1.4,1.7,3.1,2.5,5.1,2.5c2,0,3.8-0.8,5.1-2.5
				c1.4-1.7,2-4.2,2-7.6C505.6,500.8,504.9,498.3,503.5,496.7z M508.4,511.6c-0.9,1.9-2.3,3.4-4.1,4.5c-1.8,1.1-3.8,1.6-5.9,1.6
				c-3.4,0-6.2-1.2-8.3-3.5c-2.1-2.3-3.2-5.7-3.2-10.1c0-4.8,1.3-8.4,3.8-10.7c2.1-1.9,4.6-2.9,7.7-2.9c3.4,0,6.1,1.2,8.2,3.5
				c2.1,2.3,3.2,5.6,3.2,9.7C509.8,507.1,509.4,509.7,508.4,511.6z M480,481.3h4.1v5.1H480V481.3z M480,517.1v-25.9h4.1v25.9H480z
				 M471.4,517.1v-16.4c0-2.2-0.4-3.8-1.3-4.8c-0.9-1-2.2-1.5-3.8-1.5c-1.2,0-2.4,0.3-3.5,1c-1.1,0.7-1.8,1.6-2.3,2.7
				c-0.5,1.2-0.7,2.8-0.7,4.8v14.2h-4.1v-35.8h4.1v12.8c1.9-2.4,4.4-3.6,7.3-3.6c1.8,0,3.4,0.4,4.7,1.1c1.3,0.8,2.3,1.8,2.9,3.1
				c0.6,1.3,0.9,3.3,0.9,5.8v16.4H471.4z M446.1,495.3c-0.9-0.7-2.1-1.1-3.7-1.1c-1.9,0-3.3,0.3-4.1,1c-0.8,0.7-1.2,1.4-1.2,2.3
				c0,0.6,0.2,1.1,0.5,1.5c0.3,0.5,0.9,0.9,1.6,1.2c0.4,0.2,1.6,0.5,3.6,1.1c2.9,0.8,5,1.5,6.1,2c1.2,0.5,2.1,1.3,2.7,2.3
				c0.7,1,1,2.3,1,3.8c0,1.5-0.4,2.8-1.2,4.1c-0.8,1.3-2,2.3-3.5,3c-1.5,0.7-3.2,1.1-5.1,1.1c-3.2,0-5.6-0.7-7.2-2.1
				c-1.7-1.4-2.7-3.5-3.2-6.2l4.1-0.7c0.2,1.7,0.9,3.1,1.9,4c1,0.9,2.5,1.4,4.4,1.4c1.9,0,3.3-0.4,4.2-1.2c0.9-0.8,1.4-1.8,1.4-2.9
				c0-1-0.4-1.8-1.2-2.3c-0.6-0.4-2-0.9-4.2-1.5c-3-0.8-5.1-1.5-6.3-2.1c-1.2-0.6-2.1-1.4-2.7-2.5c-0.6-1.1-0.9-2.2-0.9-3.5
				c0-1.2,0.2-2.2,0.7-3.2c0.5-1,1.2-1.8,2-2.5c0.6-0.5,1.5-0.9,2.6-1.3c1.1-0.4,2.3-0.5,3.6-0.5c1.9,0,3.6,0.3,5,0.9
				c1.4,0.6,2.5,1.4,3.2,2.4c0.7,1,1.2,2.3,1.4,4l-4,0.6C447.5,497.1,447,496,446.1,495.3z M425.4,504.1c-1.5,0.7-3.7,1.2-6.7,1.7
				c-1.7,0.3-2.9,0.6-3.6,0.9c-0.7,0.3-1.2,0.8-1.6,1.4c-0.4,0.6-0.6,1.3-0.6,2.1c0,1.2,0.4,2.1,1.3,2.9c0.8,0.8,2.1,1.2,3.7,1.2
				c1.6,0,3-0.4,4.2-1.1c1.2-0.7,2.1-1.8,2.7-3c0.4-1,0.7-2.5,0.7-4.4V504.1z M426.6,517.1c-0.4-0.9-0.7-2-0.8-3.2
				c-1.5,1.4-3,2.4-4.4,2.9c-1.4,0.6-2.9,0.9-4.6,0.9c-2.7,0-4.7-0.7-6.2-2.1c-1.4-1.4-2.2-3.2-2.2-5.3c0-1.3,0.3-2.4,0.8-3.5
				c0.5-1.1,1.3-1.9,2.1-2.5c0.9-0.6,1.9-1.1,3-1.4c0.8-0.2,2-0.4,3.7-0.7c3.3-0.4,5.8-0.9,7.4-1.5c0-0.6,0-1,0-1.1
				c0-1.8-0.4-3.1-1.2-3.8c-1.1-1-2.6-1.5-4.7-1.5c-1.9,0-3.4,0.4-4.3,1.1c-0.9,0.7-1.6,2-2.1,3.8l-4-0.6c0.4-1.8,1-3.3,1.8-4.5
				c0.8-1.1,2.1-2,3.6-2.6c1.6-0.6,3.4-0.9,5.5-0.9c2.1,0,3.8,0.3,5.1,0.8c1.3,0.5,2.3,1.2,2.9,2c0.6,0.8,1,1.8,1.3,3
				c0.1,0.7,0.2,2.1,0.2,4.1v5.9c0,4.1,0.1,6.7,0.3,7.8c0.2,1.1,0.5,2.1,1,3.1H426.6z M388.2,485.5v11.1H404v4.2h-15.8v16.3h-4.5
				v-35.8h22.7v4.2H388.2z M360.9,517.5c-1,2.8-1.8,4.8-2.3,5.9c-0.7,1.4-1.6,2.5-2.5,3.2c-1,0.7-2.1,1-3.4,1
				c-0.8,0-1.7-0.2-2.7-0.5l-0.5-4.1c0.9,0.3,1.7,0.4,2.4,0.4c0.9,0,1.7-0.2,2.2-0.5c0.6-0.3,1-0.8,1.4-1.4c0.3-0.4,0.7-1.5,1.3-3.3
				c0.1-0.2,0.2-0.6,0.4-1.1l-9.2-26h4.5l5.1,15c0.7,1.9,1.2,3.9,1.8,6c0.5-2,1-4,1.7-5.9l5.2-15.1h4.1L360.9,517.5z M341.5,504.1
				c-1.5,0.7-3.7,1.2-6.7,1.7c-1.7,0.3-2.9,0.6-3.6,0.9c-0.7,0.3-1.2,0.8-1.6,1.4c-0.4,0.6-0.6,1.3-0.6,2.1c0,1.2,0.4,2.1,1.3,2.9
				c0.8,0.8,2.1,1.2,3.7,1.2c1.6,0,3-0.4,4.2-1.1c1.2-0.7,2.1-1.8,2.7-3c0.4-1,0.7-2.5,0.7-4.4V504.1z M342.7,517.1
				c-0.4-0.9-0.7-2-0.8-3.2c-1.5,1.4-3,2.4-4.4,2.9c-1.4,0.6-2.9,0.9-4.6,0.9c-2.7,0-4.7-0.7-6.2-2.1c-1.4-1.4-2.2-3.2-2.2-5.3
				c0-1.3,0.3-2.4,0.8-3.5c0.5-1.1,1.3-1.9,2.1-2.5c0.9-0.6,1.9-1.1,3-1.4c0.8-0.2,2-0.4,3.7-0.7c3.3-0.4,5.8-0.9,7.4-1.5
				c0-0.6,0-1,0-1.1c0-1.8-0.4-3.1-1.2-3.8c-1.1-1-2.6-1.5-4.7-1.5c-1.9,0-3.4,0.4-4.3,1.1c-0.9,0.7-1.6,2-2.1,3.8l-4-0.6
				c0.4-1.8,1-3.3,1.8-4.5c0.8-1.1,2.1-2,3.6-2.6c1.6-0.6,3.4-0.9,5.5-0.9c2.1,0,3.8,0.3,5.1,0.8c1.3,0.5,2.3,1.2,2.9,2
				c0.6,0.8,1,1.8,1.3,3c0.1,0.7,0.2,2.1,0.2,4.1v5.9c0,4.1,0.1,6.7,0.3,7.8c0.2,1.1,0.5,2.1,1,3.1H342.7z M317.3,517.1v-35.8h4.1
				v35.8H317.3z M308.5,487.9c-0.7-1.1-1.7-1.8-2.8-2.1c-0.7-0.2-2.1-0.3-4.2-0.3h-8.6v12.8h8.7c2.9,0,4.9-0.6,6.1-1.7
				c1.2-1.1,1.8-2.7,1.8-4.8C309.5,490.3,309.2,489,308.5,487.9z M311.4,499.4c-1.8,2.1-5.1,3.2-9.9,3.2h-8.6v14.6h-4.5v-35.8h12.7
				c2.2,0,3.9,0.1,5.1,0.3c1.7,0.3,3,0.9,4.2,1.7c1.1,0.8,2,2,2.7,3.5c0.7,1.5,1,3.1,1,4.9C314.1,494.7,313.2,497.3,311.4,499.4z
				 M267.2,495.3c-0.9-0.7-2.1-1.1-3.7-1.1c-1.9,0-3.3,0.3-4.1,1c-0.8,0.7-1.2,1.4-1.2,2.3c0,0.6,0.2,1.1,0.5,1.5
				c0.3,0.5,0.9,0.9,1.6,1.2c0.4,0.2,1.6,0.5,3.6,1.1c2.9,0.8,5,1.5,6.1,2c1.2,0.5,2.1,1.3,2.7,2.3c0.7,1,1,2.3,1,3.8
				c0,1.5-0.4,2.8-1.2,4.1c-0.8,1.3-2,2.3-3.5,3c-1.5,0.7-3.2,1.1-5.1,1.1c-3.2,0-5.6-0.7-7.2-2.1c-1.7-1.4-2.7-3.5-3.2-6.2l4.1-0.7
				c0.2,1.7,0.9,3.1,1.9,4c1,0.9,2.5,1.4,4.4,1.4c1.9,0,3.3-0.4,4.2-1.2c0.9-0.8,1.4-1.8,1.4-2.9c0-1-0.4-1.8-1.2-2.3
				c-0.6-0.4-2-0.9-4.2-1.5c-3-0.8-5.1-1.5-6.3-2.1c-1.2-0.6-2.1-1.4-2.7-2.5c-0.6-1.1-0.9-2.2-0.9-3.5c0-1.2,0.2-2.2,0.7-3.2
				c0.5-1,1.2-1.8,2-2.5c0.6-0.5,1.5-0.9,2.6-1.3c1.1-0.4,2.3-0.5,3.6-0.5c1.9,0,3.6,0.3,5,0.9c1.4,0.6,2.5,1.4,3.2,2.4
				c0.7,1,1.2,2.3,1.4,4l-4,0.6C268.6,497.1,268,496,267.2,495.3z M250.6,494H248l-1.1-6.7v-6h4.7v6L250.6,494z M241.9,512.1
				c0.1,0.4,0.4,0.6,0.7,0.9c0.3,0.2,0.8,0.3,1.4,0.3c0.5,0,1.1-0.1,1.8-0.2l0.6,3.9c-1.2,0.3-2.2,0.4-3.1,0.4
				c-1.5,0-2.7-0.3-3.5-0.8c-0.8-0.5-1.4-1.2-1.7-2c-0.3-0.8-0.5-2.6-0.5-5.2v-14.9h-3v-3.4h3v-6.4l4.1-2.6v9.1h4.2v3.4h-4.2v15.2
				C241.7,511,241.8,511.8,241.9,512.1z M227.8,496.7c-1.3-1.7-3-2.5-5.1-2.5c-1.9,0-3.5,0.7-4.8,2c-1.3,1.4-2,3.2-2.1,5.4h13.6
				C229.1,499.4,228.6,497.8,227.8,496.7z M233.7,505.2h-18.2c0.2,2.8,0.9,5,2.3,6.5c1.4,1.5,3.1,2.3,5.1,2.3c1.5,0,2.8-0.4,3.9-1.3
				c1.1-0.8,1.9-2.2,2.5-4.1l4.3,0.6c-0.7,2.7-1.9,4.7-3.7,6.2c-1.8,1.5-4.1,2.2-7,2.2c-3.6,0-6.4-1.2-8.5-3.5
				c-2.1-2.3-3.1-5.6-3.1-9.8c0-4.4,1.1-7.7,3.2-10.2c2.1-2.4,4.8-3.6,8.2-3.6c3.3,0,5.9,1.2,8,3.5c2.1,2.4,3.1,5.7,3.1,10
				C233.7,504.3,233.7,504.7,233.7,505.2z M188.7,517.1v-35.8h4.5v31.6h16.6v4.2H188.7z"/>
			<path class="st2" d="M529.2,590.1h-9.8v-10.4h9.8V590.1z M527,576h-5.5l-2.5-27.6v-12.8h10.6v12.8L527,576z M510.4,560.8
				c-1.7-1.1-3.2-1.7-4.6-1.7c-1.4,0-2.5,0.4-3.5,1.2c-1,0.8-1.7,2.3-2.2,4.4c-0.5,2.1-0.8,6.5-0.8,13.2v12.2h-9.8v-39.4h9.1v5.6
				c1.6-2.6,3-4.4,4.2-5.2c1.2-0.8,2.7-1.3,4.2-1.3c2.2,0,4.4,0.7,6.5,2L510.4,560.8z M469.9,560.1c-1.4-1.6-3.1-2.4-5.1-2.4
				c-2.1,0-3.9,0.8-5.3,2.5c-1.4,1.7-2.1,3.9-2.1,6.8h14.6C472,564,471.3,561.7,469.9,560.1z M457.3,573.4c0.1,3.1,0.9,5.5,2.4,7.2
				c1.5,1.7,3.4,2.6,5.7,2.6c1.5,0,2.8-0.4,3.9-1.3c1-0.9,1.8-2.3,2.4-4.3l9.8,1.7c-1.3,3.8-3.2,6.7-5.9,8.7c-2.7,2-6.1,3-10.2,3
				c-6.4,0-11.2-2.2-14.3-6.7c-2.4-3.6-3.7-8.1-3.7-13.6c0-6.5,1.6-11.6,4.8-15.3c3.2-3.7,7.3-5.5,12.2-5.5c5.5,0,9.9,1.9,13,5.8
				c3.2,3.9,4.7,9.8,4.6,17.8H457.3z M429.9,560.7c-1.5-2-3.5-3-5.9-3c-2.3,0-4.3,1-5.9,2.9c-1.6,1.9-2.3,4.9-2.3,8.9
				c0,4.1,0.6,7.1,1.8,9.1c1.7,2.8,4,4.2,6.8,4.2c2.2,0,4-1,5.5-3c1.5-2,2.3-5.1,2.3-9.3C432.2,566,431.4,562.7,429.9,560.7z
				 M437.7,585.5c-3,3.6-6.7,5.5-11,5.5c-2.1,0-4.2-0.6-6.3-1.7c-2.1-1.1-3.8-2.8-5.3-5v5.8h-9.1v-54.4h9.8v19.6
				c3-3.7,6.6-5.5,10.7-5.5c4.5,0,8.2,1.7,11.2,5.2c3,3.5,4.4,8.5,4.4,15C442.2,576.7,440.7,581.9,437.7,585.5z M394.8,578.1
				c-0.6,2.7-1.6,5-3.1,6.8c-1.5,1.9-3.5,3.3-6,4.4c-2.5,1.1-5.8,1.7-9.8,1.7c-4.9,0-8.6-0.6-11.1-1.8c-2.5-1.2-4.5-2.8-6-4.7
				c-1.5-1.9-2.4-3.9-2.9-6c-0.7-3.1-1-7.7-1-13.8v-29h10.3v29.5c0,4.7,0.1,7.7,0.4,9.1c0.4,2.2,1.5,4,3.2,5.4c1.7,1.3,3.9,2,6.8,2
				c2.9,0,5.1-0.6,6.6-1.9c1.5-1.3,2.4-2.8,2.7-4.7c0.3-1.9,0.5-4.9,0.5-9.2v-30.1h10.3v28.6C395.7,570.8,395.4,575.4,394.8,578.1z
				 M315.3,590.1v-20.8c0-4.1-0.2-6.8-0.6-7.9c-0.4-1.1-1-2-2-2.7c-0.9-0.7-2.1-1-3.5-1c-1.6,0-3.1,0.4-4.4,1.3
				c-1.3,0.8-2.2,2.1-2.8,3.8c-0.6,1.7-0.9,4.2-0.9,7.5v19.7h-9.8v-54.4h9.8v20c3.2-3.9,6.9-5.9,11.3-5.9c2.3,0,4.3,0.4,6.1,1.3
				c1.8,0.9,3.2,2,4.1,3.4c0.9,1.4,1.5,2.9,1.9,4.6c0.3,1.7,0.5,4.3,0.5,7.8v23.1H315.3z M277.9,574.9c0,3.2,0.1,5.1,0.2,5.6
				c0.1,0.5,0.4,1,0.9,1.3c0.5,0.3,1,0.5,1.7,0.5c0.9,0,2.2-0.3,3.9-1l0.8,8.1c-2.3,1-4.9,1.6-7.7,1.6c-1.8,0-3.4-0.3-4.8-0.9
				c-1.4-0.6-2.5-1.4-3.1-2.4c-0.7-1-1.1-2.4-1.4-4.1c-0.2-1.2-0.3-3.7-0.3-7.3V559h-4.5v-8.3h4.5v-7.8l9.8-6.1v13.9h6.7v8.3h-6.7
				V574.9z M247.8,535.7h9.8v9.6h-9.8V535.7z M247.8,590.1v-39.4h9.8v39.4H247.8z M230.7,590.1h-9.4l-6.4-25.3l-6.3,25.3h-9.5
				l-11.7-39.4h9.5l6.9,25.8l6.4-25.8h9.5l6.2,25.8l7.1-25.8h9.7L230.7,590.1z"/>
			<path class="st2" d="M537.2,282.7c0-1.4-0.3-2.7-0.8-3.9c-0.5-1.2-1.2-2.3-2.1-3.1c-0.9-0.9-2-1.6-3.3-2.1
				c-1.3-0.5-2.7-0.8-4.2-0.8s-2.9,0.3-4.1,0.9c-1.2,0.6-2.2,1.3-3.1,2.3c-0.8,0.9-1.5,2-1.9,3.3c-0.5,1.3-0.7,2.6-0.7,3.9v0.1
				c0,1.4,0.2,2.6,0.7,3.8c0.5,1.2,1.2,2.1,2.1,3c0.9,0.8,1.9,1.5,3.1,2c1.2,0.5,2.5,0.7,4,0.7c1.6,0,3-0.3,4.2-0.9
				c1.3-0.6,2.3-1.3,3.2-2.3c0.9-0.9,1.6-2,2-3.2c0.5-1.2,0.7-2.4,0.7-3.6V282.7z M539.9,298c-0.8,2.6-1.8,4.8-3.1,6.7
				c-1.3,1.9-2.9,3.3-4.7,4.4c-1.8,1-3.8,1.6-5.9,1.6c-2.3,0-4.3-0.5-6.1-1.4c-1.8-0.9-3.4-2.1-4.9-3.5l1.7-2.2
				c1.6,1.5,3.1,2.6,4.6,3.3c1.5,0.7,3.1,1.1,4.8,1.1c1.8,0,3.5-0.5,5.1-1.5c1.5-1,2.8-2.4,3.9-4.2c1.1-1.8,1.9-3.9,2.5-6.4
				c0.6-2.5,0.8-5.2,0.7-8.1c-0.5,1-1.1,2-1.9,2.9c-0.7,0.9-1.5,1.7-2.5,2.4c-0.9,0.7-2,1.2-3.2,1.6c-1.2,0.4-2.5,0.6-3.9,0.6
				c-1.9,0-3.6-0.3-5.1-0.9c-1.6-0.6-2.9-1.5-4-2.5c-1.1-1.1-2-2.3-2.6-3.8c-0.6-1.4-0.9-3-0.9-4.7v-0.1c0-1.8,0.3-3.5,0.9-5.1
				c0.6-1.6,1.5-3,2.6-4.2c1.1-1.2,2.5-2.1,4.1-2.8c1.6-0.7,3.3-1,5.2-1c2,0,3.8,0.4,5.3,1.1c1.6,0.7,2.9,1.7,4,2.9
				c0.7,0.7,1.3,1.6,1.9,2.5c0.6,0.9,1.1,2,1.5,3.3c0.4,1.2,0.7,2.6,0.9,4.2c0.2,1.6,0.3,3.3,0.3,5.2v0.1
				C541,292.6,540.6,295.4,539.9,298z M503.1,309.9v-36.3l-7.1,2.6l-0.7-2.3l8.4-3.3h2.1v39.3H503.1z M486.5,309.9v-4.7h3.5v4.7
				H486.5z M471.2,274.8l-17.5,23.1h17.5V274.8z M473.9,300.4v9.5h-2.6v-9.5h-19.8l-0.9-2.2l20.9-27.6h2.5v27.3h6v2.5H473.9z
				 M430.8,294.9v-3.1h14v3.1H430.8z M424.3,309.9h-25v-2.2l13.7-13.1c1.5-1.4,2.8-2.8,3.8-4c1-1.2,1.9-2.3,2.5-3.3
				c0.6-1,1.1-2,1.4-3c0.3-1,0.4-2,0.4-3c0-1.3-0.2-2.4-0.7-3.5c-0.5-1-1.1-1.9-1.8-2.6c-0.8-0.7-1.6-1.3-2.6-1.7
				c-1-0.4-2.1-0.6-3.1-0.6c-2.3,0-4.3,0.6-6,1.9c-1.6,1.2-3.2,3-4.8,5.4l-2-1.5c0.8-1.3,1.6-2.5,2.5-3.5c0.9-1,1.8-1.9,2.8-2.6
				c1-0.7,2.2-1.3,3.4-1.7c1.3-0.4,2.7-0.6,4.3-0.6c1.6,0,3,0.3,4.3,0.8c1.3,0.5,2.5,1.3,3.4,2.3c1,1,1.7,2.1,2.3,3.4
				c0.6,1.3,0.8,2.7,0.8,4.2v0.1c0,1.3-0.2,2.6-0.5,3.8c-0.4,1.2-0.9,2.3-1.7,3.5c-0.8,1.2-1.7,2.4-2.9,3.7
				c-1.2,1.3-2.5,2.7-4.1,4.2l-11.2,10.8h20.7V309.9z M391,290.4c0-2.3-0.3-4.5-0.9-6.6c-0.6-2.1-1.4-4-2.5-5.6
				c-1.1-1.6-2.4-2.9-3.9-3.9c-1.5-1-3.2-1.5-5.1-1.5c-1.9,0-3.6,0.5-5.1,1.5c-1.5,1-2.8,2.3-3.9,3.9c-1.1,1.6-1.9,3.5-2.5,5.6
				c-0.6,2.1-0.9,4.3-0.9,6.6v0.1c0,2.3,0.3,4.5,0.9,6.6c0.6,2.1,1.4,4,2.5,5.6c1.1,1.6,2.4,2.9,3.9,3.9c1.5,1,3.2,1.5,5.1,1.5
				c1.9,0,3.6-0.5,5.1-1.5c1.5-1,2.8-2.3,3.9-3.9c1.1-1.6,1.9-3.5,2.5-5.6c0.6-2.1,0.9-4.3,0.9-6.6V290.4z M392.8,298.1
				c-0.7,2.5-1.7,4.6-3.1,6.4c-1.3,1.8-2.9,3.3-4.8,4.4c-1.9,1.1-4,1.6-6.3,1.6c-2.3,0-4.4-0.5-6.3-1.6c-1.9-1.1-3.5-2.5-4.8-4.4
				c-1.3-1.8-2.3-4-3-6.4c-0.7-2.4-1-5-1-7.7v-0.1c0-2.7,0.4-5.2,1.1-7.7c0.7-2.5,1.7-4.6,3.1-6.4c1.3-1.8,2.9-3.3,4.8-4.4
				c1.9-1.1,4-1.6,6.3-1.6c2.3,0,4.4,0.5,6.3,1.6c1.9,1.1,3.5,2.5,4.8,4.4c1.3,1.8,2.3,4,3,6.4c0.7,2.4,1,5,1,7.7v0.1
				C393.8,293.1,393.5,295.6,392.8,298.1z M352.8,309.9v-4.7h3.5v4.7H352.8z M337.6,274.8l-17.5,23.1h17.5V274.8z M340.2,300.4v9.5
				h-2.6v-9.5h-19.8l-0.9-2.2l20.9-27.6h2.5v27.3h6v2.5H340.2z M307.1,309.9v-4.7h3.5v4.7H307.1z M299.3,302.8
				c-0.7,1.6-1.6,3-2.8,4.2c-1.2,1.2-2.6,2-4.3,2.7c-1.7,0.6-3.5,0.9-5.6,0.9c-2.8,0-5.3-0.5-7.5-1.6c-2.2-1.1-4.2-2.5-5.9-4.3l4-5
				c1.5,1.5,3,2.6,4.5,3.4c1.6,0.8,3.2,1.3,4.9,1.3c2.2,0,4-0.6,5.3-1.8c1.3-1.2,2-2.9,2-4.9v-0.1c0-2-0.7-3.6-2.1-4.8
				c-1.4-1.2-3.2-1.7-5.5-1.7c-1.3,0-2.5,0.2-3.7,0.5c-1.1,0.3-2.1,0.7-3.1,1.2l-3.9-2.7l1-19.1h21.9v6.1h-16.4l-0.6,9.2
				c0.9-0.3,1.8-0.6,2.6-0.8c0.9-0.2,1.9-0.3,3.2-0.3c1.8,0,3.4,0.3,5,0.8c1.6,0.5,2.9,1.3,4,2.3c1.1,1,2.1,2.3,2.7,3.9
				c0.7,1.5,1,3.3,1,5.4v0.1C300.3,299.4,299.9,301.2,299.3,302.8z M259.8,309.9v-32.4l-6.6,2l-1.4-5.6l9.8-3.3h4.5v39.3H259.8z
				 M241.4,290.4c0-1.9-0.2-3.7-0.7-5.4c-0.5-1.7-1.1-3.2-1.9-4.4c-0.8-1.3-1.8-2.3-3-3c-1.2-0.7-2.5-1.1-3.8-1.1
				c-1.4,0-2.7,0.4-3.9,1.1c-1.1,0.7-2.1,1.7-2.9,3c-0.8,1.2-1.4,2.7-1.9,4.4c-0.4,1.7-0.7,3.5-0.7,5.4v0.1c0,1.9,0.2,3.7,0.7,5.4
				c0.4,1.7,1.1,3.2,1.9,4.4c0.8,1.3,1.8,2.3,3,3c1.2,0.7,2.4,1.1,3.9,1.1c1.4,0,2.7-0.4,3.8-1.1c1.1-0.7,2.1-1.7,2.9-3
				c0.8-1.2,1.4-2.7,1.9-4.4c0.4-1.7,0.7-3.5,0.7-5.4V290.4z M246.9,298.2c-0.8,2.5-1.9,4.6-3.2,6.4c-1.4,1.8-3.1,3.3-5.1,4.3
				c-2,1.1-4.2,1.6-6.6,1.6c-2.4,0-4.6-0.5-6.5-1.6c-2-1-3.6-2.5-5-4.3c-1.4-1.8-2.5-4-3.2-6.4c-0.8-2.4-1.1-5-1.1-7.8v-0.1
				c0-2.8,0.4-5.4,1.2-7.9c0.8-2.5,1.8-4.6,3.2-6.4c1.4-1.8,3.1-3.3,5.1-4.3c2-1.1,4.2-1.6,6.6-1.6c2.4,0,4.6,0.5,6.5,1.6
				c2,1,3.6,2.5,5,4.3c1.4,1.8,2.5,4,3.2,6.4c0.8,2.4,1.2,5.1,1.2,7.8v0.1C248,293.2,247.7,295.8,246.9,298.2z M210.6,309.9h-26.5
				v-5.4l12.6-11.4c1.3-1.1,2.3-2.1,3.2-3c0.9-0.9,1.6-1.8,2.1-2.6c0.5-0.8,0.9-1.6,1.2-2.4c0.2-0.8,0.4-1.6,0.4-2.5
				c0-1.9-0.6-3.4-1.7-4.5c-1.1-1.1-2.5-1.6-4.2-1.6c-1.7,0-3.2,0.5-4.4,1.5c-1.3,1-2.6,2.4-4.1,4.4l-4.6-3.8
				c0.9-1.3,1.8-2.5,2.7-3.5c0.9-1,1.9-1.9,3-2.6c1.1-0.7,2.2-1.2,3.5-1.6c1.3-0.4,2.7-0.6,4.4-0.6c1.8,0,3.4,0.3,4.9,0.8
				c1.5,0.6,2.8,1.3,3.8,2.4c1.1,1,1.9,2.2,2.5,3.7c0.6,1.4,0.9,3,0.9,4.8v0.1c0,1.5-0.2,2.9-0.6,4.2c-0.4,1.2-1,2.4-1.8,3.6
				c-0.8,1.2-1.8,2.3-3,3.5c-1.2,1.2-2.6,2.5-4.2,3.9l-7.5,6.7h17.4V309.9z"/>
			<path class="st2" d="M480.2,434c-0.2,4-0.2,7.6-0.1,10.8c-8.2,2.1-17.3,4.6-27,7.4l-2.3-11.3c3.4-0.6,6.6-1.3,9.6-2v-19.4h-7.3
				v-10h7.3v-15.9h-8.2v-10.2h27.2v10.2h-8.3v15.9h7.7v10h-7.7v16.9C474.4,435.7,477.5,434.9,480.2,434z M485.3,383.2H527v11.1
				h-41.7V383.2z M517.8,445.4c0,2.6,0.9,3.9,2.7,3.9c1,0,1.7-0.4,2.2-1.3c0.5-0.9,1-5.5,1.4-13.8c3.7,1.5,6.5,2.5,8.6,3
				c-1,11.2-2.4,17.8-4.4,19.9c-2,2.1-4.3,3.1-7.1,3.1h-4.5c-6.5,0-9.7-3.6-9.7-10.9v-31.3h-7.2c0.4,21.7-6.1,36.5-19.7,44.5
				c-2.4-3.5-4.9-6.7-7.7-9.6c11.6-6.4,17.2-18.1,16.9-34.9h-8.3v-11.1h49.9v11.1h-13.3V445.4z M378.8,429.2
				c-1.5,8.9-3.4,19.9-5.8,33c-3.5-1.2-6.9-2.2-10.1-3c2-8,4.2-19.2,6.5-33.5C372.5,426.9,375.6,428,378.8,429.2z M380.3,411.9
				l-6.8,7.9c-3.9-3.9-7.4-7.4-10.5-10.5l6.3-7.4C374,405.8,377.6,409.1,380.3,411.9z M431.8,412.5h-8.2v12.2h8.2V412.5z
				 M431.8,391.2h-8.2v12h8.2V391.2z M402.1,426.7v-5.3h-12.6v5.3H402.1z M402.1,408.3h-12.6v5.3h12.6V408.3z M433.3,461.3
				c-3.2,0.2-6.3,0.3-9.5,0.3c-0.5-3.4-1.3-6.5-2.3-9.5c2.1,0.2,4.5,0.3,7.2,0.3c2,0,3-1.1,3-3.3v-15h-8.2
				c-0.4,12.8-2.6,22.6-6.7,29.5c-2.7-2.2-5.7-4.4-9-6.6c1.5-2.3,2.7-5,3.7-8h-10.8v13H391v-13h-12.2v-9.1H391v-4.6h-9.9v-35.4h9.9
				v-4.6h-12.1V390l-6.2,6.7c-3.1-3.5-6.3-6.9-9.6-10.4l6.6-6.7c3.7,3.2,6.8,6,9.2,8.4v-1.9H391v-7.3h9.7v7.3h11v9.1h-11v4.6h9.6
				v35.4h-9.6v4.6H412v7.8c1.6-6,2.4-13.5,2.4-22.3v-43.3h26.8v70.1C441.2,458.2,438.5,461.3,433.3,461.3z M305.4,427.1h9.2v10.4
				h-9.2v10.7c2.7,0.3,8.4,0.5,17.1,0.5c8.3,0,19.4-0.2,33.2-0.5c-1.4,3.7-2.7,7.6-4,12c-22,0-37.3-0.3-46-0.8
				c-8.8-0.5-15-4-18.9-10.5c-1.2,5.1-2.7,9.5-4.6,13.3c-2-2.3-4.9-5.5-8.7-9.5c3.6-7.3,5.3-17.8,5.3-31.5h10.5
				c0,4.9-0.2,9.5-0.5,13.8c1.4,3.5,3.3,6.3,5.7,8.5v-25.7h-20.8v-10.4h16.1v-7.8h-13.3v-10.4h13.3v-10.8h11.3v10.8h12.2v10.4h-12.2
				v7.8h14.5v10.4h-10.3V427.1z M333.6,433.7h3.8c2.2,0,3.7-0.6,4.4-1.9c0.7-1.3,1.2-5.5,1.5-12.8c4.6,2,8.3,3.5,11.3,4.6
				c-0.8,6.7-1.7,11-2.6,13.1c-1.6,4.9-5.8,7.3-12.6,7.3h-9.8c-7.5,0-11.2-4-11.2-12.1v-26.2h20.9v-12.1h-22.6v-10.3h33.8v32.7
				h-20.9v13.9C329.5,432.4,330.8,433.7,333.6,433.7z M186.3,426.5v-12.5h79.6v12.5H186.3z"/>
			<path class="st2" d="M342.8,347.4c-1.2-0.8-2.3-1.2-3.3-1.2c-1,0-1.8,0.3-2.5,0.9c-0.7,0.6-1.2,1.6-1.6,3.2
				c-0.4,1.5-0.6,4.7-0.6,9.6v8.8h-7.1V340h6.6v4.1c1.1-1.9,2.1-3.2,3-3.8c0.9-0.6,1.9-0.9,3.1-0.9c1.6,0,3.2,0.5,4.7,1.4
				L342.8,347.4z M314.9,346.8c-1-1.1-2.2-1.7-3.7-1.7c-1.5,0-2.8,0.6-3.8,1.8c-1,1.2-1.5,2.8-1.5,4.9h10.6
				C316.4,349.6,315.9,348,314.9,346.8z M305.8,356.4c0,2.2,0.6,4,1.7,5.2c1.1,1.2,2.5,1.9,4.1,1.9c1.1,0,2-0.3,2.8-1
				c0.8-0.6,1.3-1.7,1.7-3.1l7.1,1.3c-0.9,2.8-2.3,4.9-4.3,6.3c-2,1.4-4.4,2.2-7.3,2.2c-4.7,0-8.1-1.6-10.3-4.9
				c-1.8-2.6-2.6-5.9-2.6-9.8c0-4.7,1.2-8.4,3.5-11.1c2.3-2.7,5.2-4,8.8-4c4,0,7.1,1.4,9.4,4.2c2.3,2.8,3.4,7.1,3.3,12.9H305.8z
				 M287.3,347.3c-1.1-1.4-2.5-2.2-4.3-2.2c-1.7,0-3.1,0.7-4.2,2.1c-1.1,1.4-1.7,3.5-1.7,6.4c0,3,0.4,5.1,1.3,6.6c1.2,2,2.9,3,4.9,3
				c1.6,0,2.9-0.7,4-2.1c1.1-1.4,1.7-3.7,1.7-6.7C288.9,351.1,288.4,348.7,287.3,347.3z M292.9,365.2c-2.2,2.6-4.8,3.9-7.9,3.9
				c-1.5,0-3-0.4-4.5-1.2c-1.5-0.8-2.8-2-3.8-3.6v4.2h-6.6v-39.4h7.1v14.2c2.2-2.7,4.8-4,7.8-4c3.3,0,6,1.3,8.1,3.8
				c2.1,2.5,3.2,6.1,3.2,10.8C296.2,358.8,295.1,362.6,292.9,365.2z M263.2,359.8c-0.4,2-1.1,3.6-2.2,4.9c-1.1,1.3-2.5,2.4-4.3,3.2
				c-1.8,0.8-4.2,1.2-7.1,1.2c-3.5,0-6.2-0.4-8-1.3c-1.8-0.9-3.3-2-4.3-3.4c-1.1-1.4-1.8-2.8-2.1-4.4c-0.5-2.3-0.7-5.6-0.7-10v-21
				h7.5v21.3c0,3.4,0.1,5.6,0.3,6.6c0.3,1.6,1.1,2.9,2.3,3.9c1.2,1,2.8,1.5,4.9,1.5c2.1,0,3.7-0.5,4.8-1.4c1.1-0.9,1.7-2.1,1.9-3.4
				c0.2-1.3,0.3-3.6,0.3-6.7v-21.8h7.5v20.7C263.8,354.6,263.6,357.9,263.2,359.8z M214.2,361.6H183v-6.3h31.2V361.6z M226.4,338.5
				h-30.2l-0.3,5.5h28.3l-0.7,19.3c-0.1,3.7-1.1,6.2-2.8,7.7c-1.7,1.5-4.1,2.2-7.1,2.2h-9.8c-0.4-2-0.9-4.3-1.6-7
				c3.2,0.2,6.2,0.2,9.2,0.2c3.2,0,4.9-1,5.1-3c0.3-2,0.4-6.4,0.6-13.2h-28.4l1.3-23.5h6.9l-0.3,5.5h29.8V338.5z"/>
		</g>
	</g>
</g>
<g>
</g>
<g>
</g>
<g>
</g>
<g>
</g>
<g>
</g>
<g>
</g>
<g>
</g>
<g>
</g>
<g>
</g>
<g>
</g>
<g>
</g>
<g>
</g>
<g>
</g>
<g>
</g>
<g>
</g>
</svg>
