<?xml version="1.0" encoding="utf-8"?>
<!-- Generator: Adobe Illustrator 17.0.0, SVG Export Plug-In . SVG Version: 6.00 Build 0)  -->
<!DOCTYPE svg PUBLIC "-//W3C//DTD SVG 1.1//EN" "http://www.w3.org/Graphics/SVG/1.1/DTD/svg11.dtd">
<svg version="1.1" id="Layer_1" xmlns="http://www.w3.org/2000/svg" xmlns:xlink="http://www.w3.org/1999/xlink" x="0px" y="0px"
	 width="679px" height="254.6px" viewBox="0 0 679 254.6" style="enable-background:new 0 0 679 254.6;" xml:space="preserve">
<style type="text/css">
	.st0{fill:none;}
	.st1{fill:#D769A1;}
	.st2{fill:#EC7AB4;}
	.st3{fill:#FFFFFF;}
	.st4{fill:#FFD1F1;}
</style>
<g id="page-03-3.svg">
	<rect x="0" y="0" class="st0" width="679" height="254.6"/>
	<rect x="38.9" y="0" class="st1" width="351.5" height="254.6"/>
	<path class="st2" d="M98.7,209.4c-19.8,0-32.3-12.6-32.3-34.2V81.4c0-21.6,12.4-34.2,32.3-34.2c19.8,0,32.3,12.6,32.3,34.2v93.7
		C130.9,196.8,118.5,209.4,98.7,209.4z M111.1,82.4c0-11.2-5.1-16.3-12.4-16.3s-12.4,5.1-12.4,16.3v91.8c0,11.2,5.1,16.3,12.4,16.3
		s12.4-5.1,12.4-16.3V82.4z M177.4,209.4c-19.8,0-31.3-12.6-31.3-34.2v-17.7h19.6v16.8c0,11.2,4.4,16.3,11.8,16.3
		s12.2-5.1,12.2-16.3v-23.3c0-10-3.9-16.3-12.2-16.3h-11.3v-17.5H177c8.3,0,12.2-6.3,12.2-16.3V82.4c0-11.2-4.4-16.3-11.7-16.3
		s-11.8,5.1-11.8,16.3v16.8h-19.6V81.4c0-21.6,11.5-34.2,31.3-34.2c19.8,0,31.6,12.6,31.6,34.2v16.8c0,12.1-4.8,22.8-13.1,26.5
		c8.3,3.6,13.6,14.1,13.6,26.2v24.3C209.5,196.8,197.2,209.4,177.4,209.4z"/>
	<path class="st3" d="M192.5,87.8c-0.4,3.1-1.5,6.3-3.1,9.5c-0.9-0.8-1.8-1.7-2.8-2.7c1.3-2.6,2.2-5.3,2.6-8.1
		c0.4-2.6,0.7-6.7,0.7-12.2V58h17c-0.1-0.4-0.3-1-0.5-1.8c-0.2-0.8-0.4-1.4-0.5-1.8l4.3-0.4c0.3,1.4,0.7,2.8,1,3.9h15.2v3.2h-33.1
		v12.6C193.3,80.1,193,84.8,192.5,87.8L192.5,87.8z M195,67.3v-2.5h6v-2.9h3.1v2.9h4.5v2.5h-4.5V70l1.3-1.4c0.3,0.2,1,0.7,2,1.4
		c0.9,0.7,1.5,1.2,1.8,1.4l-2,2c-1.1-1-2.1-1.9-3.1-2.7V75h-3.1v-5.2c-1.3,2.2-3.2,4-5.6,5.6c-0.6-1-1.2-1.8-1.8-2.5
		c3.1-1.6,5.3-3.4,6.8-5.6H195z M196,84.6V82H208v-2.7c-4,0.1-8,0.2-12.2,0.2l-0.3-2.7c8.2,0,17.3-0.3,27.3-0.9l0.3,2.9
		c-3.6,0.2-7.4,0.4-11.4,0.4V82h12.1v2.5h-12.1v2.9h14.7v3.1h-14.7v1.1c0.1,3.2-1.4,4.8-4.6,4.8c-1.1,0.1-2.9,0.2-5.5,0.2
		c-0.1-1.1-0.3-2.2-0.7-3.2c1,0.1,2.4,0.2,4.3,0.2c2,0.1,2.9-0.7,2.8-2.3v-0.7h-14.2v-3.1H208v-2.9H196z M210.5,67.3v-2.5h4.8v-2.9
		h3.1v2.9h6.6v2.5h-6.3c1.4,2,3.7,3.8,6.9,5.4c-0.7,1.1-1.2,2-1.5,2.7c-2.8-1.7-4.7-3.4-5.8-5.2v4.3h-3.1v-4.3
		c-1.3,2-3.2,3.8-5.6,5.2c-0.1-0.1-0.2-0.2-0.3-0.4c-0.7-1.1-1.2-1.7-1.5-2c3-1.4,5.3-3.3,7.1-5.7H210.5z M243.7,68.4
		c-2.3,2.9-6.2,5.9-11.6,9c-0.1-0.5-0.3-1.1-0.7-1.8c-0.3-0.8-0.6-1.4-0.8-1.8c2.5-1.2,5-2.8,7.4-4.8c-0.9-1-2.3-2.3-4.3-3.9
		c-0.3-0.4-0.6-0.6-0.8-0.7l2.3-2.3c1.5,1.1,3.4,2.6,5.5,4.5c2-2,3.6-4.2,4.8-6.5h-12.4v-3.4h16.2v3.8c-1.4,2.6-3,5-4.6,7h12.6
		c-2.4-3.2-4.4-7.3-6-12.2l3.5-0.5c0.6,1.6,1.2,3.2,2,4.8c2.4-1.6,4.8-3.2,7.1-5l2.2,2.9c-2.4,1.8-5,3.5-7.8,5
		c0.1,0.1,0.2,0.3,0.3,0.5c0.6,0.8,1.2,1.7,2,2.7c1.4-0.8,3.3-2,5.6-3.6c0.9-0.6,1.5-1.1,2-1.4l2.1,2.9c-2.6,1.8-5.1,3.4-7.3,4.7
		c2.3,2,5,3.6,8.1,4.7c-0.1,0.4-0.4,1-0.8,1.8c-0.3,1-0.6,1.6-0.8,2c-4.9-2.4-8.6-5.1-11.2-8.1v2.2h-14.6V68.4L243.7,68.4z
		 M231.5,95.7v-3.4h12.4c-1.3-1.3-2.6-2.6-4-3.9l3.5-1.6c1.4,1.4,3,3.1,4.6,4.8l-2.2,0.7h7.6c1-0.8,2.5-2.5,4.5-5
		c0.2-0.4,0.4-0.6,0.5-0.7l3.6,1.8c-0.3,0.2-0.9,0.8-1.8,1.8c-0.9,1.1-1.6,1.8-2.1,2.2h12.6v3.4H231.5z M237.3,86.3v-12h27.5v12
		H237.3z M241.1,77.6v5.4h20v-5.4H241.1z M275.9,61.4v-3.8h13.7v3.8h-5.1v10.9h4.6v3.8h-4.6v10.9c0.6-0.1,1.4-0.2,2.5-0.4
		c1.4-0.2,2.4-0.4,3-0.5c0,2,0.1,3.3,0.2,3.9c-3.3,0.6-8,1.3-14.2,2.2l-0.5-3.8c0.7-0.1,1.9-0.3,3.6-0.5c0.8-0.1,1.4-0.2,1.8-0.4
		V76.1h-4.5v-3.8h4.5V61.4H275.9z M306.5,95.9c-3.3,0-5-1.7-5-5.2v-7.2c-1.3,4.5-5.4,9.1-12.2,13.6c-0.2-0.2-0.7-0.7-1.3-1.4
		c-0.7-0.8-1.2-1.4-1.5-1.8c5.3-3.1,8.8-6.2,10.4-9.2c1.8-2.8,2.8-7.1,3-13.1c0.1-2.2,0.2-4.9,0.2-8.3h3.8c0,2.3-0.1,4.7-0.3,7.4
		c-0.2,4.3-0.6,7.3-1,9h2.6v10.2c-0.1,1.7,0.7,2.5,2.3,2.3h1.3c1.7,0.1,2.6-0.6,2.8-2.2c0.1-0.7,0.2-2,0.3-3.8
		c0,0.4,0.1-0.1,0.2-1.4c0.4,0,1.6,0.4,3.5,1.3c0,1-0.2,2.6-0.5,4.8c0.3-1.7,0.3-1.5-0.2,0.5c-0.4,3-2.3,4.4-5.6,4.3H306.5z
		 M291,82.8V56.2h21.7v26.2H309V60h-14.2v22.8H291z M320.6,69.7v-4.1h4.6V54.4h3.6v11.1h4.3v4.1h-4.3v14.2c1.3-0.6,2.6-1.1,4-1.6
		c0,1.3,0.1,2.5,0.3,3.6c2.9-2.9,4.9-6.6,6-11.3h-5v-3.9l16-10.2h-14.9v-3.6h21v4.1l-15.9,10h18.2l-0.7,17.6c0,5.1-2,7.7-6.1,7.5
		l-5,0.2c-0.1-0.5-0.3-1.4-0.5-2.7c-0.1-0.7-0.2-1.2-0.2-1.4c1,0.1,2.5,0.2,4.5,0.2c2.4,0.2,3.7-1.1,3.8-4.1
		c0.1-1.4,0.2-4.3,0.3-8.6c0.1-2.3,0.2-3.9,0.2-5h-4.3c-1.3,10.3-5.1,17.9-11.2,22.8c-0.8-1-1.7-2-2.8-3.1
		c5.7-4.3,9.3-10.9,10.6-19.7h-4.6c-1.3,7.3-4.7,13.1-10.3,17.4c-0.2-0.1-0.6-0.5-1.2-1.3c-0.7-0.7-1.2-1.3-1.5-1.6
		c1-0.7,1.9-1.6,2.8-2.5c-1.9,0.7-4.7,1.9-8.4,3.4c-1.4,0.7-2.5,1.2-3.1,1.4l-1-4.1l5.3-2V69.7H320.6z"/>
	<path class="st3" d="M195.7,200.1c-0.7,1.8-1.7,3.5-2.7,5.4l-1.8-0.8c0.1-0.1,0.2-0.4,0.4-0.7c1.1-1.9,1.9-3.4,2.3-4.5L195.7,200.1
		L195.7,200.1z M194,197.9v-8.6h7.1v-7.9h2v2.9h10.3v1.8h-10.3v3.1h8.2v8.6H194z M195.9,191.2v4.9h13.5v-4.9H195.9z M199.1,205.2
		c-0.1-0.8-0.4-2-0.9-3.5c-0.2-0.6-0.3-1.1-0.4-1.4l1.8-0.4c0.7,2.4,1.2,4,1.5,4.9L199.1,205.2z M205.1,204.9
		c-0.2-0.7-0.7-2-1.4-3.9c-0.2-0.5-0.3-0.8-0.4-1l1.8-0.4c0.7,1.9,1.4,3.5,1.9,4.8L205.1,204.9z M211.7,205.2
		c-0.4-1-1.3-2.7-2.5-5.1l1.8-0.7c0.2,0.4,0.6,1.2,1.2,2.4c0.7,1.3,1.1,2.1,1.3,2.5L211.7,205.2z M217.3,187.5v-1.8h8.7v-4.3h2v4.3
		h8.7v1.8H228v4.7h10.3v1.9H228v8.4h6.3v-6h2v9.1h-2v-1.5h-16.5v-7.6h2v6h6.3v-8.4h-10.3v-1.9H226v-4.7H217.3z M247.3,205.2
		c-0.9,0-1.5,0-2,0c-0.1-0.9-0.2-1.7-0.4-2.3c0.4,0,0.9,0,1.7,0c0.9,0.1,1.6,0.1,2.1,0.1c1.7,0.1,2.5-0.6,2.3-2.2v-9.9l7.8-5.6
		h-17.7v-2h20.4v2.4l-8.4,6.2v9.2c0.1,2.8-1.1,4.1-3.7,4.1C248.8,205.1,248.1,205.1,247.3,205.2L247.3,205.2z M269.9,203v-3.8h-2.2
		c-0.1,2.4-0.7,4.6-1.8,6.5c-0.1,0-0.1-0.1-0.2-0.2c-0.6-0.5-1-0.8-1.2-0.9c1.2-1.7,1.7-4.4,1.7-8v-7.5l-0.6,0.5
		c-0.1-0.1-0.2-0.4-0.5-0.7c-0.2-0.3-0.4-0.6-0.6-0.7c1.7-2,3.2-4.2,4.3-6.7l1.8,0.4c-0.4,0.7-0.7,1.4-1,2h4.5v1.7l-1.6,2.5h2.6
		v14.6c0.1,1.6-0.7,2.5-2.3,2.5c-0.1,0-0.4,0-0.7,0c-0.5,0.1-0.9,0.1-1.1,0.1c0-0.4-0.1-1-0.2-1.8c0.1,0,0.3,0,0.6,0
		c0.4,0.1,0.7,0.1,0.9,0.1c0.9,0.1,1.4-0.3,1.3-1.2v-3.2h-2.2v3.8H269.9z M268.8,185.5c-0.6,0.9-1.2,1.8-1.8,2.6h3.6l1.8-2.6H268.8z
		 M267.8,189.7v3.1h2.2v-3.1H267.8z M267.8,196.7v0.9h2.2v-3.1h-2.2V196.7z M273.7,189.7h-2.2v3.1h2.2V189.7z M271.4,194.4v3.1h2.2
		v-3.1H271.4z M280.7,184.6c0.1,3-1.2,5.3-3.9,6.8c-0.1-0.1-0.3-0.4-0.6-0.7c-0.3-0.3-0.5-0.6-0.7-0.7c2.4-1.1,3.6-2.9,3.5-5.4h-2.5
		V183h9.8c0,1.4-0.1,2.9-0.2,4.5c0,2-0.9,2.9-2.8,2.9c-0.7,0-1.5,0-2.3,0l-0.2-1.6c0.7,0,1.4,0,2.2,0c0.9,0,1.4-0.5,1.5-1.5
		c0.1-0.3,0.1-0.8,0.1-1.3c0.1-0.6,0.1-1,0.1-1.3H280.7L280.7,184.6z M277.4,197.6c-0.1,0.2-0.1,0.4-0.2,0.5
		c-0.4-0.3-0.8-0.6-1.4-0.7c0.9-1.6,1.5-3.4,2-5.7l1.6,0.3c-0.1,0.2-0.2,0.5-0.3,0.9c-0.1,0.5-0.2,0.8-0.3,1h2.4v-2.6h1.7v2.6h3.9
		v1.7h-3.9v3.5h4.4v1.7h-4.4v4.8h-1.7v-4.8h-5.4v-1.7h5.4v-3.5h-3C278.1,196.1,277.8,196.8,277.4,197.6L277.4,197.6z M292.7,205
		c-0.2,0.1-0.3,0.2-0.4,0.3l-1.1-1.5c0.6-0.5,0.8-1.2,0.7-1.9v-9.9h-2.6V190h4.5v12.1l2.7-2.1c0.1,0.3,0.1,0.7,0.2,1.2
		c0.1,0.3,0.2,0.6,0.2,0.8c-1.2,0.7-2.4,1.5-3.4,2.3C293.3,204.4,293.1,204.7,292.7,205L292.7,205z M293.4,187.1
		c-0.9-1.5-1.9-2.9-3-4.2l1.5-1.1c1.1,1.3,2.2,2.6,3.2,4.1L293.4,187.1z M296.4,188v-1.8h8c1.1-1.7,2.1-3.2,2.9-4.7l1.8,0.7
		c-0.5,0.7-1.4,2.1-2.6,4h4.7v1.8h-6.5v3.9h5.7v1.8h-5.7v4h7.2v1.8h-7.2v6.3h-2v-6.3h-6.9v-1.8h6.9v-4h-5.6v-1.8h5.6V188H296.4z
		 M300.8,185.8c-0.3-0.5-0.8-1.3-1.5-2.2c-0.4-0.6-0.7-1-0.9-1.3l1.5-0.9c1,1.3,1.8,2.5,2.5,3.5L300.8,185.8z M316.1,187.2
		c-0.3,2.1-0.6,4.3-0.9,6.6c-0.2-0.1-0.5-0.1-0.9-0.2c-0.2-0.1-0.3-0.1-0.5-0.1c0.4-2.4,0.7-4.6,0.9-6.6L316.1,187.2L316.1,187.2z
		 M320.5,189.8c-0.2-0.2-0.5-0.5-0.8-0.9c-0.4-0.3-0.7-0.6-0.9-0.8v17.6h-1.8v-24.2h1.8v5l0.3-0.4c0.9,0.7,1.7,1.4,2.4,2.1
		L320.5,189.8z M321.2,185v-1.5h6.3v-2h1.9v2h6.7v1.5h-6.7v1.8h6.1v1.3h-6.1v1.9h7.1v1.5h-15.8v-1.5h6.8v-1.9h-5.6v-1.3h5.6V185
		H321.2z M322.1,205.6v-12.3h12.8v9.2c0.1,1.9-0.9,2.8-2.8,2.8c-0.2,0-0.7,0-1.3,0c-0.9,0.1-1.5,0.1-1.9,0.1
		c-0.1-0.6-0.2-1.2-0.4-1.8c0.7,0.1,1.7,0.1,3,0.1c1.1,0.1,1.7-0.4,1.6-1.3v-1.1h-9.3v4.3H322.1z M323.9,194.8v1.9h9.3v-1.9H323.9z
		 M323.9,198.1v1.9h9.3v-1.9H323.9z M342.4,186.9l6,6.7l-6,6.7v2.4l7-8.1v-2l-7-8.1V186.9z"/>
	<path class="st4" d="M192.4,113.5v11.8h6.2v4.5h-6.2v15.9h-4.7V109h11.7v4.4H192.4z M210.3,145.6c-0.2-0.7-0.3-1.5-0.3-2.2
		c-1,1.7-2.8,2.7-4.9,2.7c-2.9,0-5.8-2.2-5.8-7.1c0-4.7,1.9-7,5.9-9.1c3.1-1.6,4.6-2.6,4.6-5.8c0-1.9-0.5-3.5-2.4-3.5
		c-1.8,0-2.6,1.3-2.6,3.9v1.7h-4.7v-1.7c0-5,2.6-8.1,7.4-8.1c5.8,0,6.9,4.1,6.9,9.2v9.8c0,6.4,0.1,8.2,0.5,10.3H210.3z M209.7,131.1
		c-0.5,0.7-1.2,1.2-2.4,2c-2.2,1.3-3.2,2.6-3.2,5.3c0,2.5,1.1,3.5,2.6,3.5c1.8,0,3-1.4,3-4.4V131.1z M223.6,146
		c-4.7,0-7.6-2.9-7.6-7.8v-1.9h4.7v1.6c0,2.6,1.2,3.9,2.9,3.9c1.7,0,3-1.1,3-3.4c0-1.6-0.3-2.4-1.8-3.6l-4.3-3.5
		c-2.5-2-3.9-3.7-3.9-7.3c0-4.8,2.5-7.7,7.1-7.7c4.6,0,7.2,2.9,7.2,7.8v2h-4.7v-1.7c0-2.4-0.8-3.9-2.5-3.9c-1.6,0-2.5,1.3-2.5,3.4
		c0,1.6,0.3,2.3,1.8,3.5l4.3,3.5c2.5,2,3.9,3.8,3.9,7.4C231.2,143.2,228.3,146,223.6,146z M243.2,145.6v-21.2c0-2.6-1-3.8-2.7-3.8
		c-1.6,0-2.7,1.2-2.7,3.8v21.2h-4.7v-38.8h4.7v11.7c0.5-1.3,2.2-2.2,3.8-2.2c4.4,0,6.3,2.8,6.3,7.8v21.5H243.2z M250.7,112.4v-5.7
		h4.7v5.7H250.7z M250.7,145.6v-28.9h4.7v28.9H250.7z M265.7,146c-4.7,0-7.6-2.9-7.6-7.8v-14.1c0-5,2.9-7.8,7.6-7.8
		c4.7,0,7.6,2.9,7.6,7.8v14.1C273.3,143.2,270.4,146,265.7,146z M268.6,124.4c0-2.6-1.2-3.8-2.9-3.8s-2.9,1.2-2.9,3.8v13.5
		c0,2.6,1.2,3.8,2.9,3.8s2.9-1.2,2.9-3.8V124.4z M285.9,145.6v-21.2c0-2.6-1-3.8-2.7-3.8c-1.6,0-2.7,1.2-2.7,3.8v21.2h-4.7v-28.9
		h4.5v1.8c0.5-1.3,2.4-2.2,3.9-2.2c4.4,0,6.3,2.8,6.3,7.8v21.5H285.9z M293.4,112.4v-5.7h4.7v5.7H293.4z M293.4,145.6v-28.9h4.7
		v28.9H293.4z M307.7,146c-4.7,0-7.6-2.9-7.6-7.8v-1.9h4.7v1.6c0,2.6,1.2,3.9,2.9,3.9c1.7,0,3-1.1,3-3.4c0-1.6-0.3-2.4-1.8-3.6
		l-4.3-3.5c-2.5-2-3.9-3.7-3.9-7.3c0-4.8,2.5-7.7,7.1-7.7c4.6,0,7.2,2.9,7.2,7.8v2h-4.7v-1.7c0-2.4-0.8-3.9-2.5-3.9
		c-1.6,0-2.5,1.3-2.5,3.4c0,1.6,0.3,2.3,1.8,3.5l4.3,3.5c2.5,2,3.9,3.8,3.9,7.4C315.3,143.2,312.3,146,307.7,146z M317.9,137.9
		v-16.7h-2.2v-4.5h2.2v-6.8h4.7v6.8h3.8v4.5h-3.8v16.1c0,2.6,1,3.9,3.8,3.7v4.5C320.3,146.1,317.9,142.8,317.9,137.9z M337.4,145.6
		c-0.2-0.7-0.3-1.5-0.3-2.2c-1,1.7-2.8,2.7-4.9,2.7c-2.9,0-5.8-2.2-5.8-7.1c0-4.7,1.9-7,5.9-9.1c3.1-1.6,4.6-2.6,4.6-5.8
		c0-1.9-0.5-3.5-2.4-3.5c-1.8,0-2.6,1.3-2.6,3.9v1.7h-4.7v-1.7c0-5,2.6-8.1,7.4-8.1c5.8,0,6.9,4.1,6.9,9.2v9.8
		c0,6.4,0.1,8.2,0.5,10.3H337.4z M336.8,131.1c-0.5,0.7-1.2,1.2-2.4,2c-2.2,1.3-3.2,2.6-3.2,5.3c0,2.5,1.1,3.5,2.6,3.5
		c1.8,0,3-1.4,3-4.4V131.1z M350.7,146c-4.7,0-7.6-2.9-7.6-7.8v-1.9h4.7v1.6c0,2.6,1.2,3.9,2.9,3.9c1.7,0,3-1.1,3-3.4
		c0-1.6-0.3-2.4-1.8-3.6l-4.3-3.5c-2.5-2-3.9-3.7-3.9-7.3c0-4.8,2.5-7.7,7.1-7.7c4.6,0,7.2,2.9,7.2,7.8v2h-4.7v-1.7
		c0-2.4-0.8-3.9-2.5-3.9c-1.6,0-2.5,1.3-2.5,3.4c0,1.6,0.3,2.3,1.8,3.5l4.3,3.5c2.5,2,3.9,3.8,3.9,7.4
		C358.3,143.2,355.4,146,350.7,146z"/>
</g>
<g>
</g>
<g>
</g>
<g>
</g>
<g>
</g>
<g>
</g>
<g>
</g>
<g>
</g>
<g>
</g>
<g>
</g>
<g>
</g>
<g>
</g>
<g>
</g>
<g>
</g>
<g>
</g>
<g>
</g>
</svg>
