<?xml version="1.0" encoding="utf-8"?>
<!-- Generator: Adobe Illustrator 17.0.0, SVG Export Plug-In . SVG Version: 6.00 Build 0)  -->
<!DOCTYPE svg PUBLIC "-//W3C//DTD SVG 1.1//EN" "http://www.w3.org/Graphics/SVG/1.1/DTD/svg11.dtd">
<svg version="1.1" id="Layer_1" xmlns="http://www.w3.org/2000/svg" xmlns:xlink="http://www.w3.org/1999/xlink" x="0px" y="0px"
	 width="679px" height="256.6px" viewBox="0 0 679 256.6" style="enable-background:new 0 0 679 256.6;" xml:space="preserve">
<style type="text/css">
	.st0{fill:none;}
	.st1{fill:#B02C3D;}
	.st2{fill:#CB3649;}
	.st3{fill:#FFFFFF;}
	.st4{fill:#F29598;}
</style>
<g id="page-03-1.svg_3_">
	<rect x="0" y="0" class="st0" width="679" height="256.6"/>
	<rect x="37.9" y="0" class="st1" width="553.2" height="256.6"/>
	<path class="st2" d="M97.7,208.7c-19.8,0-32.3-12.6-32.3-34.2V80.7c0-21.6,12.4-34.2,32.3-34.2c19.8,0,32.3,12.6,32.3,34.2v93.7
		C129.9,196.1,117.5,208.7,97.7,208.7z M110.1,81.7c0-11.2-5.1-16.3-12.4-16.3s-12.4,5.1-12.4,16.3v91.8c0,11.2,5.1,16.3,12.4,16.3
		s12.4-5.1,12.4-16.3V81.7z M157.5,206.8V81.9h-17.3V66.2c10.1-0.7,19.4-5.3,20.5-17.7h16.8v158.3H157.5z"/>
	<path class="st3" d="M242.4,71.5v-4.1h16.9c0.2-2.8,0.3-6.6,0.3-11.7h4.3l-0.3,11.7h17.2v4.1h-17c1.4,10.6,7.3,17.9,17.7,21.9
		c-0.8,1.1-1.7,2.5-2.8,4.3c-9.2-4.3-14.8-10.9-17-19.9c-1.5,8.5-7.2,15.3-17,20.5c-0.2-0.4-0.7-1-1.3-2c-0.7-0.8-1.2-1.5-1.5-2
		c10.8-5.1,16.5-12.7,17.2-22.8H242.4z M290.5,82.1c-0.1,6.3-1,11.7-2.6,16.1l-3.1-2.2c1-2.5,1.6-5,1.8-7.4
		c0.3-2.3,0.5-5.9,0.5-10.8V57.3h3.5V70h4.1V56.2h3.1V70h2.3v3.4h-9.6v5v0.2h7.6v19.2h-3.1V82.1H290.5L290.5,82.1z M301.7,80.4V59.6
		h6.9c0.3-1.4,0.6-2.9,0.8-4.3l3.8,0.4c-0.3,1.2-0.7,2.5-1,3.9h10.8v20.8h-11.4c-1.3,2.3-3.5,4.4-6.5,6.5h7.6v-4.7h3.6v4.7h8.6v3.6
		h-8.6v7.7h-3.6v-7.7h-13.1v-3.6h4.1c-0.6-0.7-1.2-1.4-1.8-2c2.6-1.4,4.6-2.9,5.8-4.5H301.7z M305,62.9v5.6h5.8v-5.6H305z M305,77
		h4.8c0.6-1.6,0.9-3.4,1-5.6H305V77z M314,71.5c0,2.2-0.3,4-0.8,5.6h6.6v-5.6H314L314,71.5z M319.7,62.9H314v5.6h5.8V62.9z
		 M332.5,76.5c-0.4-0.8-1.3-2.3-2.6-4.5c-0.7-1.2-1.2-2-1.5-2.5l3-1.6c0.4,0.7,1.2,1.9,2.1,3.4c1,1.6,1.7,2.7,2.2,3.4L332.5,76.5z
		 M334.9,85.7c-1.2,5.7-2,9.9-2.5,12.4l-3.6-1.1c1-3.9,2.2-9.4,3.6-16.5l3.3,1.1C335.6,82.2,335.3,83.6,334.9,85.7L334.9,85.7z
		 M333,64.5c-0.4-0.8-1.2-2.1-2.2-3.8c-0.9-1.3-1.5-2.3-1.8-3.1l3-1.6c0.2,0.4,0.6,0.9,1,1.6c0.8,1.1,1.8,2.8,3.1,5.2L333,64.5z
		 M337,63v-3.2h6.1v-4.3h3.3v4.3h6.3V63h-6.3v3.8h5.5v17h-5.5v3.9h6.8V91h-6.8v7.2h-3.3V91h-6.9v-3.2h6.9v-3.9h-5.5v-17h5.5V63H337z
		 M340.8,69.9v3.9h7.9v-3.9H340.8z M340.8,76.7v4.1h7.9v-4.1H340.8z M357.9,83.5c-0.1,6.1-1.5,11.1-4.3,14.9
		c-0.1-0.1-0.3-0.2-0.7-0.4c-1-0.7-1.8-1.3-2.3-1.6c1.8-2.5,2.9-5,3.3-7.4c0.6-2.3,0.8-5.8,0.8-10.6V57.7h11.9v35.5
		c0.1,2.9-1,4.4-3.5,4.5c-0.8,0.1-2.1,0.2-4,0.2c0-0.1-0.1-0.4-0.2-0.7c-0.1-1.3-0.3-2.3-0.5-3.1c1,0,1.9,0,2.8,0
		c1.5,0.1,2.3-0.5,2.2-2v-8.6H357.9L357.9,83.5z M358,61.4V69h5.5v-7.5H358z M358,78.8v1.3h5.5v-7.7H358V78.8z M380.1,81
		c-2.4,2.4-4.7,4.4-6.9,6.1c-0.4-1.2-0.9-2.6-1.5-4.1c5.6-4.1,10-9,13.2-14.9h-11.7v-3.8H389v4.1c-1.7,3-3.4,5.7-5.1,8.1v21.9h-3.8
		V81L380.1,81z M382.1,63.6c-0.2-0.5-0.6-1.1-1.2-2c-0.4-1-1.3-2.5-2.6-4.7l3.3-1.6c0.3,0.5,0.8,1.2,1.3,2.2c1.1,1.8,2,3.2,2.6,4.3
		L382.1,63.6z M390.7,85.3c-1.8-1.8-3.9-3.7-6.5-5.7l2.5-2.7c2,1.4,4.1,3.2,6.5,5.4L390.7,85.3z M400.8,97c-4,0.1-5.9-2-5.8-6.5
		V55.9h4v33.9c-0.1,2.3,0.9,3.4,3,3.2h2c2.1,0.1,3.3-1,3.5-3.2c0-0.4,0.1-0.8,0.2-1.4c0.2-2.5,0.3-4.4,0.3-5.7
		c1.4,0.6,2.8,1.1,4,1.4c-0.1,0.5-0.2,1.3-0.3,2.3c-0.2,2.5-0.4,4.4-0.7,5.6c-0.4,3.3-2.6,5-6.5,5H400.8z"/>
	<path class="st3" d="M249.6,194.4c-0.7,1.8-1.7,3.6-2.7,5.4l-1.8-0.8c0.1-0.1,0.2-0.4,0.4-0.7c1.1-1.9,1.9-3.4,2.3-4.5L249.6,194.4
		L249.6,194.4z M247.9,192.2v-8.6h7.1v-7.9h2v2.9h10.3v1.8H257v3.1h8.2v8.6H247.9z M249.8,185.5v4.9h13.5v-4.9H249.8z M253,199.5
		c-0.1-0.8-0.4-2-0.9-3.6c-0.2-0.6-0.3-1.1-0.4-1.4l1.8-0.4c0.7,2.4,1.2,4,1.5,4.9L253,199.5z M259,199.2c-0.2-0.7-0.7-2-1.4-3.9
		c-0.2-0.5-0.3-0.8-0.4-1l1.8-0.4c0.7,1.9,1.4,3.5,1.9,4.8L259,199.2z M265.7,199.5c-0.4-1-1.3-2.7-2.5-5.1l1.8-0.7
		c0.2,0.4,0.6,1.2,1.2,2.4c0.7,1.3,1.1,2.1,1.3,2.5L265.7,199.5z M271.2,181.8V180h8.7v-4.3h2v4.3h8.7v1.8h-8.7v4.7h10.3v1.9h-10.3
		v8.4h6.3v-6h2v9.1h-2v-1.5h-16.5v-7.6h2v6h6.3v-8.4h-10.3v-1.9h10.3v-4.7H271.2z M301.2,199.5c-0.9,0-1.5,0-2,0
		c-0.1-0.9-0.2-1.7-0.4-2.3c0.4,0,0.9,0,1.7,0c0.9,0.1,1.6,0.1,2.1,0.1c1.7,0.1,2.5-0.6,2.3-2.2v-9.9l7.8-5.6H295v-2h20.4v2.4
		l-8.4,6.2v9.2c0.1,2.8-1.1,4.1-3.7,4.1C302.7,199.4,302.1,199.4,301.2,199.5L301.2,199.5z M323.8,197.3v-3.8h-2.2
		c-0.1,2.4-0.7,4.6-1.8,6.5c-0.1,0-0.1-0.1-0.2-0.2c-0.6-0.5-1-0.8-1.2-0.9c1.2-1.7,1.7-4.4,1.7-8v-7.5l-0.6,0.5
		c-0.1-0.1-0.2-0.4-0.5-0.7c-0.2-0.3-0.4-0.6-0.6-0.7c1.7-2,3.2-4.2,4.3-6.7l1.8,0.4c-0.4,0.7-0.7,1.4-1,2h4.5v1.7l-1.6,2.5h2.6
		v14.6c0.1,1.6-0.7,2.5-2.3,2.5c-0.1,0-0.4,0-0.7,0c-0.5,0.1-0.9,0.1-1.1,0.1c0-0.4-0.1-1-0.2-1.8c0.1,0,0.3,0,0.6,0
		c0.4,0.1,0.7,0.1,0.9,0.1c0.9,0.1,1.4-0.3,1.3-1.2v-3.2h-2.2v3.8H323.8z M322.7,179.8c-0.6,0.9-1.2,1.8-1.8,2.6h3.6l1.8-2.6H322.7z
		 M321.7,184v3.1h2.2V184H321.7z M321.7,191v0.9h2.2v-3.1h-2.2V191z M327.6,184h-2.2v3.1h2.2V184z M325.3,188.7v3.1h2.2v-3.1H325.3z
		 M334.6,178.9c0.1,3-1.2,5.3-3.9,6.8c-0.1-0.1-0.3-0.4-0.6-0.7c-0.3-0.3-0.5-0.6-0.7-0.7c2.4-1.1,3.6-2.9,3.5-5.4h-2.5v-1.6h9.8
		c0,1.4-0.1,2.9-0.2,4.5c0,2-0.9,2.9-2.8,2.9c-0.7,0-1.5,0-2.3,0l-0.2-1.6c0.7,0,1.4,0,2.2,0c0.9,0,1.4-0.5,1.5-1.5
		c0.1-0.3,0.1-0.8,0.1-1.3c0.1-0.6,0.1-1,0.1-1.3H334.6L334.6,178.9z M331.3,191.9c-0.1,0.2-0.1,0.4-0.2,0.5
		c-0.4-0.3-0.8-0.6-1.4-0.7c0.9-1.6,1.5-3.4,2-5.7l1.6,0.3c-0.1,0.2-0.2,0.5-0.3,0.9c-0.1,0.5-0.2,0.8-0.3,1h2.4v-2.6h1.7v2.6h3.9
		v1.7h-3.9v3.6h4.4v1.7h-4.4v4.8h-1.7v-4.8h-5.4v-1.7h5.4V190h-3C332,190.4,331.8,191.1,331.3,191.9L331.3,191.9z M346.6,199.3
		c-0.2,0.1-0.3,0.2-0.4,0.3l-1.1-1.5c0.6-0.5,0.8-1.2,0.7-1.9v-9.9h-2.6v-1.9h4.5v12.1l2.7-2.1c0.1,0.3,0.1,0.7,0.2,1.2
		c0.1,0.3,0.2,0.6,0.2,0.8c-1.2,0.7-2.4,1.5-3.4,2.3C347.3,198.7,347,199,346.6,199.3L346.6,199.3z M347.4,181.4
		c-0.9-1.5-1.9-2.9-3-4.2l1.5-1.1c1.1,1.3,2.2,2.6,3.2,4.1L347.4,181.4z M350.3,182.2v-1.8h8c1.1-1.7,2.1-3.2,2.9-4.7l1.8,0.7
		c-0.5,0.7-1.4,2.1-2.6,4h4.7v1.8h-6.5v3.9h5.7v1.8h-5.7v4h7.2v1.8h-7.2v6.3h-2v-6.3h-6.9v-1.8h6.9v-4h-5.6v-1.8h5.6v-3.9H350.3z
		 M354.7,180.1c-0.3-0.5-0.8-1.3-1.5-2.2c-0.4-0.6-0.7-1-0.9-1.3l1.5-0.9c1,1.3,1.8,2.5,2.5,3.6L354.7,180.1z M370,181.5
		c-0.2,2.1-0.6,4.3-0.9,6.6c-0.2-0.1-0.5-0.1-0.9-0.2c-0.2-0.1-0.3-0.1-0.5-0.1c0.4-2.4,0.7-4.6,0.9-6.6L370,181.5L370,181.5z
		 M374.4,184.1c-0.2-0.2-0.5-0.5-0.8-0.9c-0.4-0.3-0.7-0.6-0.9-0.8V200h-1.8v-24.2h1.8v5l0.3-0.4c0.9,0.7,1.7,1.4,2.4,2.1
		L374.4,184.1z M375.2,179.3v-1.5h6.3v-2h1.9v2h6.7v1.5h-6.7v1.8h6.1v1.3h-6.1v1.9h7.1v1.5h-15.8v-1.5h6.8v-1.9h-5.6v-1.3h5.6v-1.8
		H375.2z M376,199.9v-12.3h12.8v9.2c0.1,1.9-0.9,2.8-2.8,2.8c-0.2,0-0.7,0-1.3,0c-0.9,0.1-1.5,0.1-1.9,0.1c-0.1-0.6-0.2-1.2-0.4-1.8
		c0.7,0.1,1.7,0.1,3,0.1c1.1,0.1,1.7-0.4,1.6-1.3v-1.1h-9.3v4.3H376z M377.8,189v1.9h9.3V189H377.8z M377.8,192.4v1.9h9.3v-1.9
		H377.8z M396.3,181.2l6,6.7l-6,6.7v2.4l7-8.1v-2l-7-8.1V181.2z"/>
	<path class="st4" d="M256.6,147.8l-0.7-2.1c-0.8,1.5-2.7,2.5-4.9,2.5c-4.5,0-7-2.9-7-7.8v-21.7c0-5,2.8-7.8,7.5-7.8
		c4.7,0,7.5,2.9,7.5,7.8v4.1h-4.7V119c0-2.6-1-3.8-2.7-3.8c-1.8,0-2.8,1.2-2.8,3.8v21.2c0,2.6,1,3.7,2.7,3.7c1.8,0,2.8-1.1,2.8-3.7
		v-6.8h-2.8v-4.2h7.5v18.7H256.6z M265.5,114.7v-5.7h4.7v5.7H265.5z M265.5,147.8V119h4.7v28.9H265.5z M281.2,117.2v1.7h3.7v4.5
		h-3.7v24.3h-4.7v-24.3h-1.9V119h1.9v-2c0-4.9,2.5-8.4,8.6-7.9v4.7C282.3,113.5,281.2,114.6,281.2,117.2z M289.3,140.2v-16.7h-2.2
		V119h2.2v-6.8h4.7v6.8h3.8v4.5H294v16.1c0,2.6,1,3.9,3.8,3.7v4.5C291.7,148.3,289.3,145.1,289.3,140.2z M308.7,148.3
		c-4.7,0-7.6-2.9-7.6-7.8v-1.9h4.7v1.6c0,2.6,1.2,3.9,2.9,3.9c1.7,0,3-1.1,3-3.4c0-1.6-0.3-2.4-1.8-3.6l-4.3-3.5
		c-2.5-2-3.9-3.7-3.9-7.3c0-4.8,2.5-7.7,7.1-7.7c4.6,0,7.2,2.9,7.2,7.8v2h-4.7v-1.7c0-2.4-0.8-3.9-2.5-3.9c-1.6,0-2.5,1.3-2.5,3.4
		c0,1.6,0.3,2.3,1.8,3.5l4.3,3.5c2.5,2,3.9,3.8,3.9,7.4C316.3,145.4,313.4,148.3,308.7,148.3z"/>
</g>
<g>
</g>
<g>
</g>
<g>
</g>
<g>
</g>
<g>
</g>
<g>
</g>
<g>
</g>
<g>
</g>
<g>
</g>
<g>
</g>
<g>
</g>
<g>
</g>
<g>
</g>
<g>
</g>
<g>
</g>
</svg>
