<?xml version="1.0" encoding="utf-8"?>
<!-- Generator: Adobe Illustrator 17.0.0, SVG Export Plug-In . SVG Version: 6.00 Build 0)  -->
<!DOCTYPE svg PUBLIC "-//W3C//DTD SVG 1.1//EN" "http://www.w3.org/Graphics/SVG/1.1/DTD/svg11.dtd">
<svg version="1.1" id="Layer_1" xmlns="http://www.w3.org/2000/svg" xmlns:xlink="http://www.w3.org/1999/xlink" x="0px" y="0px"
	 width="720px" height="131.5px" viewBox="0 0 720 131.5" style="enable-background:new 0 0 720 131.5;" xml:space="preserve">
<style type="text/css">
	.st0{fill:#FFD518;}
	.st1{fill:none;}
</style>
<g id="page-05-logo.svg">
	<path class="st0" d="M360.2,117.2c-7.5,0-14.5-1.6-20.9-4.6c0,0-0.1,0-0.1,0c-17.2-8-29.2-25.4-29.2-45.6
		c0-27.7,22.5-50.2,50.2-50.2c7.4,0,14.5,1.6,20.8,4.5c0.1,0,0.1,0,0.2,0.1c17.2,8,29.1,25.4,29.1,45.6c0,20.6-12.4,38.3-30.2,46.1
		c0,0,0,0-0.1,0c-0.1,0-0.1,0-0.2,0.1C373.9,115.7,367.2,117.2,360.2,117.2 M341.6,110.1c5.7,2.5,12,3.9,18.7,3.9
		c6,0,11.8-1.1,17.1-3.2l-21.7-45.4l-14,22.3V110.1z M357.6,62.1l22.6,47.3c9.2-4.4,16.8-11.6,21.5-20.6h-21.3
		c-0.9,0-1.6-0.7-1.6-1.6V28.3l-12,19.2c0,0,0,0,0,0.1L357.6,62.1z M317.1,48.2c-2.5,5.7-3.9,12-3.9,18.7c0,18,10.2,33.7,25.1,41.6
		V87.2v-0.1v-39H317.1z M382.1,85.6h21.2c2.5-5.7,3.9-12.1,3.9-18.7c0-18-10.2-33.7-25.1-41.6V85.6z M341.6,48.2v33.4l12.7-20.2
		c0.1-0.2,0.2-0.3,0.3-0.5l8-12.7H341.6z M318.7,45h45.9l13.5-21.6c-5.5-2.3-11.6-3.6-17.9-3.6C342.2,19.9,326.6,30.1,318.7,45"/>
	<rect y="0" class="st1" width="720" height="131.5"/>
</g>
<g>
</g>
<g>
</g>
<g>
</g>
<g>
</g>
<g>
</g>
<g>
</g>
<g>
</g>
<g>
</g>
<g>
</g>
<g>
</g>
<g>
</g>
<g>
</g>
<g>
</g>
<g>
</g>
<g>
</g>
</svg>
