<?xml version="1.0" encoding="utf-8"?>
<!-- Generator: Adobe Illustrator 17.0.0, SVG Export Plug-In . SVG Version: 6.00 Build 0)  -->
<!DOCTYPE svg PUBLIC "-//W3C//DTD SVG 1.1//EN" "http://www.w3.org/Graphics/SVG/1.1/DTD/svg11.dtd">
<svg version="1.1" id="Layer_1" xmlns="http://www.w3.org/2000/svg" xmlns:xlink="http://www.w3.org/1999/xlink" x="0px" y="0px"
	 width="720px" height="364px" viewBox="0 0 720 364" style="enable-background:new 0 0 720 364;" xml:space="preserve">
<style type="text/css">
	.st0{fill:#A13671;}
	.st1{fill:#FFD6EB;}
	.st2{fill:#FFFFFF;}
</style>
<g id="page-huodong-2-pop.svg">
	<rect y="0" class="st0" width="720" height="364"/>
	<path class="st1" d="M77,124h7c0.4-1,0.7-2.1,1-3.1l2,0.5c-0.3,0.9-0.6,1.8-0.9,2.6H100v1.9H85.4c-0.9,2.3-2.1,4.4-3.3,6.4v13.4
		h-1.9V135c-0.9,1.1-1.8,2.2-2.7,3.3c-0.3-0.6-0.7-1.2-1.1-1.8c2.9-3.2,5.2-6.7,6.9-10.5H77V124z M76.3,93.6h3.8
		c-0.7-1.1-1.3-2.1-1.9-2.9l1.3-1c0.5,0.7,1.2,1.6,2,2.9l-1.3,1h3.1c0.9-1.3,1.7-2.6,2.4-3.9l1.7,1c-0.8,1.1-1.5,2-2.2,2.9h3.6v1.6
		H76.3V93.6z M76.3,106.2c0.8-1.3,1.6-3,2.5-5.1l1.6,0.8c-0.9,1.9-1.7,3.6-2.6,5.2C77.5,106.9,76.9,106.5,76.3,106.2L76.3,106.2z
		 M77,98.4h4.9V96h1.7v2.4h4.7v1.6h-4.7v6.6c0,1.8-0.8,2.7-2.4,2.7c-0.7,0-1.5,0-2.3,0c-0.1-0.6-0.2-1.2-0.3-1.9
		c0.9,0.1,1.6,0.2,2.2,0.2c0.7,0,1.1-0.4,1.1-1.3V100H77V98.4z M77.1,87.8h5.2c-0.3-0.7-0.7-1.4-1.2-2.3l1.5-0.8
		c0.5,0.9,1,1.7,1.4,2.6l-0.8,0.4h5.1v1.6H77.1V87.8z M82.9,142h7.5v-7.6h-6.2v-1.8h6.2v-5.1h2v5.1h6.3v1.8h-6.3v7.6h7.7v1.8H82.9
		V142z M85.7,101.3c0.9,1.3,1.7,2.5,2.3,3.6l-1.5,1.1c-0.7-1.3-1.4-2.5-2.2-3.7L85.7,101.3z M89.7,87c3.3,0,6.3-0.4,9.1-1l0.6,2
		c-3.2,0.4-5.8,0.7-8,0.9v5.9h8.7v1.7h-3.4v13.3H95V96.4h-3.5v1.2c0,5.2-1.2,9.2-3.5,12.1c-0.4-0.5-0.8-1.1-1.3-1.6
		c2.1-2.4,3.1-5.9,3.1-10.6V87z M105.9,140.7c1,1.7,2.6,2.5,4.9,2.6l6.2,0.2l7.8-0.3c-0.2,0.6-0.4,1.2-0.7,2h-7.7l-5.8-0.1
		c-2.7-0.1-4.6-1-5.7-2.9c-0.7,0.6-1.6,1.8-2.9,3.4l-1-2.1c1.4-1.4,2.4-2.5,3.1-3.1v-8.5h-2.8v-1.9h4.7V140.7L105.9,140.7z
		 M101.1,95.5h23.7v2.2h-23.7V95.5z M104,121.3c0.8,1,1.9,2.6,3.3,4.8l-1.7,1.3c-1.3-2.1-2.3-3.8-3.2-5L104,121.3z M115,135
		c-2.3-2.2-4.2-3.9-5.6-5.2l1.1-1.3c1.6,1.3,3.5,3,5.8,5c1.5-1.9,2.7-4.1,3.7-6.6l1.8,0.9c-1.1,2.6-2.4,5-4,7
		c1.7,1.5,3.6,3.2,5.7,5.1l-1.5,1.7c-2-2-3.9-3.7-5.5-5.3c-2.2,2.3-4.7,4.1-7.7,5.4c-0.3-0.5-0.7-1.1-1.2-1.7
		C110.5,138.8,113,137.1,115,135L115,135z M108,124.9h16.1v1.8H108V124.9z M115.5,124.8c-0.6-1.3-1.2-2.3-1.7-3.2l1.6-0.9
		c0.5,0.8,1.1,1.8,1.7,3.1L115.5,124.8L115.5,124.8z M126.1,90.5h10.6v-2.6c-2.9,0.1-5.8,0.2-8.6,0.2c-0.1-0.5-0.2-1.1-0.4-1.8
		c6.8-0.1,13.2-0.3,19.1-0.7l0.3,1.9c-2.9,0.1-5.8,0.2-8.6,0.3v2.7h10.4v1.7h-8.3c2.3,1.8,5.3,3.1,9,4c-0.4,0.6-0.7,1.2-1.1,1.9
		c-4.2-1.4-7.6-3.3-10-5.7v4h-1.8v-4c-2.3,2.3-5.6,4.3-10,6c-0.3-0.6-0.6-1.2-1.1-1.7c3.8-1.3,6.8-2.7,9-4.4h-8.4V90.5z
		 M125.8,142.8h10.8v-3.3h-9.4v-1.8h9.4v-3.3H130v0.9h-1.9v-13h18.9v13h-1.9v-0.9h-6.7v3.3h9.4v1.8h-9.4v3.3h11v1.8h-23.7V142.8z
		 M125.8,102.2h11.4v-1.1l3.9-2.2h-10.5v-1.7h13.5v1.8l-5,2.9v0.4h10.4v1.8H139v2.3c0,1.3-0.2,2.1-0.6,2.5c-0.4,0.5-1.2,0.7-2.3,0.7
		c-1.2,0-2.4,0-3.8-0.1c0-0.7-0.1-1.4-0.3-2.2c1.3,0.2,2.6,0.2,3.8,0.3c0.9,0,1.4-0.5,1.4-1.4V104h-11.4V102.2z M130,127.4h6.6V124
		H130V127.4z M130,132.6h6.6v-3.4H130V132.6z M145.2,124h-6.7v3.4h6.7V124z M138.5,132.6h6.7v-3.4h-6.7V132.6z M154.6,126.1
		c-0.6,2.3-1.3,4.4-1.9,6.4h2.5v-4.8h1.7v4.8h2.4v1.7h-2.4v3.6c0.9-0.1,1.9-0.2,2.9-0.4c-0.1,0.7-0.1,1.3-0.2,1.8
		c-0.9,0.1-1.9,0.2-2.8,0.3v6.3h-1.7v-6.1c-1.5,0.2-3.1,0.4-4.6,0.6l-0.2-1.9c1.5-0.1,3.1-0.3,4.8-0.5v-3.8H151v-1.7
		c0.7-2,1.3-4.1,1.9-6.4h-2.2v-1.7h2.6c0.3-1.3,0.6-2.6,0.9-3.9l1.8,0.4c-0.3,1.2-0.6,2.4-0.9,3.5h4.5v1.7H154.6L154.6,126.1z
		 M165.6,106.5h-3.3l-6.9-8.9c-0.2-0.3-0.4-0.6-0.5-0.7h-0.1v9.7h-2.4V86.8h2.4v9.3h0.1c0.1-0.2,0.3-0.5,0.5-0.7l6.7-8.5h2.9
		l-7.8,9.4L165.6,106.5z M159,143h6.6v-6.4h-4.9v-1.8h11.5v1.8h-4.8v6.4h6.6v1.8h-15V143z M160.4,122.6h11.1v1.7
		c-0.9,1.5-2,3-3.3,4.3c2.1,1.2,4.1,2.5,6,3.7l-1.1,1.7c-2.2-1.6-4.3-2.9-6.2-4.2c-1.8,1.6-3.9,2.9-6.4,4.1
		c-0.4-0.6-0.8-1.2-1.2-1.7c4.4-1.9,7.8-4.5,10-7.8h-9V122.6z M178.1,106.5h-9.9V86.8h9.5v2.3h-7.1v6.3h6.6v2.2h-6.6v6.6h7.6V106.5z
		 M176.2,123.9h5.7v17.6h-1.6v-2h-2.5v2.5h-1.6V123.9z M180.3,125.5h-2.5v12.3h2.5V125.5z M185.5,140.3c-0.8-0.9-1.7-1.8-2.7-2.7
		l1.1-1.1c0.8,0.7,1.7,1.5,2.5,2.3c0.6-1.1,1-2.3,1.3-3.6h-4.8v-1.7h6.5v1.7c-0.4,1.8-1,3.4-1.7,4.9c0.7,0.7,1.5,1.5,2.2,2.3
		l-1.3,1.4c-0.6-0.7-1.2-1.4-1.9-2.1c-1.1,1.7-2.5,3.2-4.2,4.4c-0.4-0.6-0.8-1-1.2-1.4C183,143.4,184.4,141.9,185.5,140.3
		L185.5,140.3z M197,106.5h-2.8l-9.3-15.3c-0.3-0.4-0.5-0.9-0.6-1.3h-0.1c0.1,0.4,0.1,1.4,0.1,2.8v13.8h-2.4V86.8h3l9,15
		c0.4,0.7,0.7,1.2,0.8,1.4h0c-0.1-0.6-0.1-1.5-0.1-2.9V86.8h2.4V106.5z M185.6,128.7c-0.8-0.9-1.7-1.7-2.6-2.6l1-1.1
		c0.9,0.8,1.7,1.6,2.5,2.4c0.7-1.1,1.2-2.2,1.6-3.5H183v-1.7h6.9v1.7c-0.4,1.7-1.1,3.3-2.1,4.7c0.7,0.7,1.4,1.5,2.1,2.2l-1.2,1.3
		c-0.6-0.7-1.2-1.5-1.9-2.2c-1,1.2-2.2,2.2-3.6,3c-0.4-0.6-0.7-1.1-1.1-1.4C183.5,130.7,184.7,129.8,185.6,128.7L185.6,128.7z
		 M190,135.2v-1.7h7.8v1.7c-0.5,2.4-1.4,4.4-2.8,6.2c1,1.1,2.3,2,3.8,2.7c-0.4,0.6-0.7,1.2-1,1.8c-1.6-0.8-2.9-1.9-4-3.1
		c-1.2,1.3-2.7,2.4-4.4,3.3c-0.3-0.5-0.7-1-1.1-1.5c1.8-0.9,3.2-2,4.4-3.2c-1.1-1.7-1.9-3.8-2.3-6.1H190z M193.3,128.9
		c-1-0.9-2-1.8-3.1-2.8l1-1.2c1.1,0.9,2.1,1.8,3.1,2.7c0.8-1.1,1.4-2.4,1.8-3.7h-5.5v-1.7h7.3v1.7c-0.5,1.8-1.3,3.4-2.3,4.8
		c1,0.9,1.9,1.7,2.8,2.6l-1.3,1.4c-0.8-0.9-1.7-1.8-2.6-2.7c-1,1.2-2.3,2.1-3.7,3c-0.3-0.6-0.7-1.1-1-1.5
		C191.2,130.9,192.4,130,193.3,128.9L193.3,128.9z M194,140c1-1.4,1.7-3,2.1-4.8h-4C192.5,137,193.1,138.6,194,140L194,140z
		 M214.2,87.6l-10.7,16.7h10.4v2.2H200v-0.9l10.6-16.5h-9.7v-2.3h13.3V87.6z M200.9,124.1h5.6v15.8h-3.9v1.5h-1.7V124.1z
		 M204.8,138.2v-12.3h-2.2v12.3H204.8z M207.4,125.5h1.7c0-1.4,0-2.9,0-4.5h1.7c0,1.7,0,3.2-0.1,4.5h4c-0.1,7.2-0.2,12.6-0.3,16.4
		c-0.1,2.3-0.9,3.4-2.6,3.4c-1,0-1.7,0-2.2-0.1c-0.1-0.6-0.2-1.2-0.3-2c0.8,0.1,1.5,0.2,2.1,0.2c0.9,0,1.4-0.6,1.4-1.9
		c0.1-2.7,0.2-7.4,0.3-14.2h-2.3c0,1.8-0.1,3.2-0.1,4.2c-0.1,6.4-1.6,11.2-4.6,14.4c-0.4-0.5-0.9-1-1.3-1.4
		c2.8-2.9,4.2-7.3,4.2-13.2c0-1.3,0.1-2.6,0.1-4h-1.6V125.5z M216.2,96.9c0-3.2,0.8-5.7,2.4-7.6c1.6-1.9,3.8-2.8,6.6-2.8
		c2.6,0,4.6,0.9,6.2,2.8c1.6,1.8,2.4,4.2,2.4,7.2c0,3.2-0.8,5.7-2.4,7.6c-1.6,1.9-3.8,2.8-6.4,2.8c-2.6,0-4.7-0.9-6.3-2.8
		C217,102.2,216.2,99.8,216.2,96.9z M216.2,124.2h6.1v20.5h-1.7v-2h-2.7v2h-1.7V124.2z M220.6,125.9h-2.7V141h2.7V125.9z
		 M218.7,96.7c0,2.4,0.6,4.3,1.7,5.7c1.1,1.4,2.6,2.2,4.5,2.2c2,0,3.5-0.7,4.6-2.1c1.1-1.4,1.7-3.3,1.7-5.8c0-2.5-0.6-4.5-1.7-5.9
		c-1.1-1.4-2.6-2.1-4.5-2.1c-1.9,0-3.4,0.7-4.6,2.2C219.3,92.4,218.7,94.3,218.7,96.7z M225.7,123.8h6v18.1H230v-2h-2.5v2.3h-1.7
		V123.8z M230,125.6h-2.5v12.5h2.5V125.6z M232.5,137.8h4.3v-4.4h-4v-1.8h4v-4.2h-4.2v-1.8h4.2v-4.5h1.7v24.8h-1.7v-6.3h-4.3V137.8z
		 M247.8,87.2c-0.3-0.5-0.5-1-0.9-1.5l1.6-0.9c0.4,0.6,0.9,1.5,1.5,2.4h9.2v1.6h-19.8v8.2c0,5.2-0.8,9.5-2.5,12.7
		c-0.2-0.4-0.7-1-1.4-1.8c1.5-2.7,2.2-6.4,2.2-10.9v-9.9H247.8L247.8,87.2z M239.3,105.7v-1.5h8.7v-1.6h-7.5v-1.5h7.5v-1.6
		c-2.2,0.1-4.6,0.1-7.3,0.2l-0.3-1.5c6.6-0.1,11.9-0.4,15.6-0.8l0.6,1.6c-1.8,0.2-4.1,0.3-7,0.4v1.7h7.6v1.5h-7.6v1.6h9.2v1.5h-9.2
		v0.6c0,2.1-0.9,3.2-2.7,3.2c-0.9,0-1.9,0-2.7-0.1c-0.1-0.6-0.2-1.2-0.3-2c0.9,0.2,1.8,0.2,2.6,0.2c1,0,1.5-0.6,1.5-1.8v-0.3H239.3z
		 M240.4,97.3c-0.3-0.4-0.6-0.9-1-1.3c1.4-0.7,2.6-1.8,3.9-3.4H240v-1.4h3.7v-1.9h1.5v1.9h2.6v1.4h-2.6v1.2l0.6-0.7
		c0.8,0.6,1.6,1.1,2.2,1.7l-1,1c-0.7-0.6-1.4-1.1-1.9-1.5v3.1h-1.5v-3.4C242.7,95.2,241.6,96.3,240.4,97.3L240.4,97.3z M247.7,125.5
		v1.8h-4.5v4.2h4.3v1.8h-4.3v4.4h4.6v1.8h-4.6v6.3h-1.7v-24.8h1.7v4.5H247.7z M248.3,97.4c-0.2-0.3-0.5-0.7-1-1.2
		c1.7-0.9,3.2-2.2,4.5-3.7h-2.9v-1.4h3.4v-1.9h1.5v1.9h4.2v1.4h-3.8c1.4,1.6,3.1,2.7,5,3.5c-0.5,0.5-0.8,0.9-1.1,1.4
		c-1.6-0.9-3-2.2-4.3-3.8v3.3h-1.5v-3.3C251.1,95.1,249.8,96.4,248.3,97.4L248.3,97.4z M262.3,139.3l-2,6.8h-1.7l1.5-6.8H262.3z
		 M261.4,88.2v-1.7h9.5v1.8c-2.1,3.9-5.5,7.2-10,9.8c-0.3-0.6-0.6-1.2-1-1.8c1.7-0.9,3-1.8,4.1-2.6c-1-1.1-2-2.2-3.1-3.2l1.1-1.2
		c1.2,1.2,2.3,2.2,3.3,3.3c1.3-1.2,2.5-2.7,3.4-4.3H261.4z M260.4,107.4h8c-0.6-0.6-1.4-1.4-2.5-2.5l1.1-1.2c1,0.8,1.9,1.8,2.9,2.7
		l-1,1h5.7l-0.8-0.9c1-1,1.9-1.9,2.7-2.9l1.5,1.3c-0.7,0.8-1.6,1.6-2.5,2.5h8.2v1.7h-23.3V107.4z M264.1,96.6h15.7v7.8H278v-0.9
		h-12.1v0.9h-1.8V96.6z M278,98.3h-12.1v3.6H278V98.3z M267.8,92.7h8.1v1.7h-8.1V92.7z M273.9,85.2c0.4,1,0.8,2,1.2,2.9
		c1.8-1,3.3-2,4.6-2.9l1.2,1.6c-1.5,0.9-3.1,1.9-4.8,2.9c0.4,0.7,0.9,1.3,1.4,1.9c1.7-1,3.2-2,4.7-3l1.2,1.6
		c-1.3,0.9-2.8,1.8-4.5,2.7c1.5,1.3,3.3,2.1,5.3,2.5c-0.5,0.7-0.9,1.4-1.3,2.1c-5.1-1.9-8.6-5.7-10.6-11.5L273.9,85.2z M285.2,145.5
		v-8.1h-6.9c-0.3,3.5-1.2,6.4-2.9,8.8c-0.4-0.6-0.9-1.1-1.4-1.8c1-1.6,1.7-3.3,2.1-5.2c0.4-1.8,0.5-4.4,0.5-7.8v-9.1h19.4v20.2
		c0,2-0.9,3-2.7,3c-1.1,0-2.3,0-3.7-0.1c-0.1-0.6-0.2-1.3-0.4-2.1c1.4,0.1,2.5,0.2,3.4,0.2c1,0,1.5-0.5,1.5-1.5v-4.7h-7v8.1H285.2z
		 M278.5,130.8c0,1.6,0,3.2-0.1,4.7h6.8v-4.7H278.5L278.5,130.8z M278.5,124.3v4.7h6.7v-4.7H278.5z M285.2,94h23.1v1.9h-7.5v9.9
		c0,1,0.5,1.5,1.4,1.5h2.1c1.1,0,1.8-0.6,2-1.7c0.1-0.9,0.3-2.1,0.4-3.6c0.6,0.2,1.3,0.4,2.1,0.6c-0.2,1.5-0.3,2.7-0.5,3.7
		c-0.3,1.9-1.5,2.8-3.5,2.8h-2.9c-2,0-3-1-3-3.1V95.9h-4.9v0.8c0,3.6-0.5,6.2-1.5,8c-1,1.9-3,3.6-6,5.3c-0.6-0.7-1-1.3-1.4-1.7
		c2.8-1.4,4.6-3,5.6-4.5c0.9-1.5,1.4-3.8,1.4-6.9v-0.9h-6.6V94z M294.2,124.3h-7v4.7h7V124.3z M287.1,135.6h7v-4.7h-7V135.6z
		 M287.5,86.6H306v1.9h-18.5V86.6z M299.4,134.8h3.4v-4.5h-4.2v-1.8h4.2v-4.2c-1.2,0.1-2.5,0.1-3.7,0.2c-0.1-0.6-0.2-1.2-0.4-1.8
		c3.1-0.2,6.2-0.4,9.2-0.6l0.4,1.8c-1.3,0.1-2.5,0.2-3.8,0.3v4.3h4.2v1.8h-4.2v4.5h3.4v10.9h-1.7v-1.7h-5.2v1.8h-1.7V134.8z
		 M306.3,136.6h-5.2v5.6h5.2V136.6z M308.4,125.5h1.9v-4.4h1.8v4.4h6.3v-4.4h1.8v4.4h1.9v1.8h-1.9v18.6h-1.8v-2H312v2h-1.8v-18.6
		h-1.9V125.5z M327,98.3c1.9,1.7,3.6,3.3,5,4.9c-0.3,0.3-0.8,0.7-1.4,1.4c-0.5-0.5-1-1.1-1.5-1.6c-2.4,0.1-4.6,0.2-6.5,0.3v3.2
		c0,2-1,3-3,3c-0.8,0-1.7,0-2.8-0.1c-0.1-0.6-0.2-1.3-0.3-2.1c1.2,0.1,2.1,0.2,2.7,0.2c1,0,1.5-0.4,1.5-1.3v-2.9
		c-2.1,0.1-3.9,0.2-5.4,0.3c-1.1,0.1-2,0.2-2.8,0.3l-1-2c1.2-0.3,2.3-0.6,3.2-0.9c1.8-0.7,3.5-1.5,5.2-2.3c-1.9,0.2-3.7,0.3-5.2,0.4
		c-0.6,0.1-1.2,0.2-1.8,0.3l-0.8-1.9c0.8-0.2,1.6-0.4,2.2-0.8c1-0.6,2-1.1,2.9-1.7h-7.3v-1.6h10.5v-1.8h-8.3v-1.6h8.3v-1.7h-9.6
		v-1.6h9.6v-2.2h1.9v2.2h9.7v1.6h-9.7v1.7h8.1v1.6h-8.1v1.8H333v1.6h-12.9c-1.6,0.9-3.2,1.8-4.9,2.7c2.4-0.1,5.1-0.3,7.9-0.5
		c1.3-0.6,2.5-1.3,3.7-2l1.3,1.2c-4.1,2.1-8.1,4-12.1,5.7c4-0.2,8-0.4,11.9-0.6c-0.7-0.7-1.4-1.4-2.1-2.1L327,98.3z M310,107.8
		c1.7-0.8,3.8-2,6.1-3.6l1.2,1.4c-2.4,1.6-4.5,2.8-6.3,3.8C310.8,109,310.4,108.4,310,107.8L310,107.8z M312,133.6h6.3v-6.3H312
		V133.6z M312,142.2h6.3v-6.8H312V142.2z M328,140.2c-1.2,2.3-2.3,4.1-3.2,5.5l-1.6-1.2c1-1.5,2.1-3.2,3.2-5.2L328,140.2z
		 M331,109.3c-2.3-1.6-4.3-2.8-6.1-3.8l1-1.4c1.7,0.9,3.8,2.1,6.2,3.6L331,109.3L331,109.3z M326.2,128.8h7.5v-8h2v3h10.7v1.8h-10.7
		v3.1h8.4v9.7h-2v-1.1h-14v1.1h-2V128.8z M342.2,130.6h-14v5h14V130.6z M332,139.1c0.7,1.7,1.4,3.5,1.9,5.4l-1.9,0.7
		c-0.5-1.8-1.1-3.7-1.7-5.5L332,139.1z M342.5,107.3c1.9-0.6,3.7-1.2,5.5-1.8c0,0.7,0,1.4,0,2c-2.1,0.6-3.8,1.2-5.1,1.7
		c-0.5,0.2-1.1,0.5-1.7,0.8l-1-1.5c0.4-0.3,0.6-0.9,0.6-1.8v-2c-1.6,1-3.5,1.9-5.5,2.7c-0.3-0.6-0.7-1.2-1.1-1.8
		c4.2-1.5,7.6-3.4,10.1-5.8h-9.7v-1.8h11.2c-0.4-0.7-0.8-1.3-1.1-1.8l1.5-1c0.5,0.8,1,1.6,1.5,2.3l-0.8,0.5h11v1.8H347
		c0.7,1.4,1.5,2.6,2.6,3.6c1.8-0.9,3.5-1.9,5.2-2.9l1,1.9c-1.6,0.7-3.2,1.4-4.8,2.1c1.9,1.3,4.2,2.1,7,2.5c-0.5,0.7-0.9,1.3-1.3,1.9
		c-5.2-1.1-8.8-3.8-11-8.1c-0.9,1-1.9,1.9-3.1,2.7V107.3L342.5,107.3z M341,84.8h1.8v11.7H341v-3.9c-1.7,1-3.5,2.2-5.4,3.3
		c-0.2-0.4-0.5-1-1-1.9c2.3-1.2,4.4-2.4,6.4-3.6V84.8z M338.4,90.5c-1.1-1.3-2.2-2.4-3.1-3.2l1.3-1.3c1.4,1.3,2.5,2.3,3.3,3.1
		L338.4,90.5L338.4,90.5z M337.7,138.9c0.8,1.7,1.5,3.4,2.1,5.3l-1.9,0.8c-0.4-1.5-1.1-3.3-1.9-5.3L337.7,138.9z M343.5,139
		c1.3,2,2.3,3.9,3.1,5.5l-1.8,1c-0.8-1.7-1.8-3.6-2.9-5.7L343.5,139z M344.7,93.4h5.2V90h-6v-1.8h6v-3.4h1.8v3.4h6.2V90h-6.2v3.4
		h5.3v1.8h-12.3V93.4z M348.1,125.5h11.5v1.9h-6.8c0,1.5,0,2.9-0.1,4.1h5.5c-0.2,4.2-0.3,7.5-0.5,10c-0.1,2.2-1.1,3.4-2.7,3.5
		c-1,0-1.9,0-2.7,0c-0.1-0.6-0.2-1.3-0.4-2.1c1,0.1,1.9,0.2,2.4,0.2c1,0,1.5-0.6,1.6-1.9c0.2-2,0.3-4.5,0.4-7.7h-3.6
		c-0.1,5.5-1.3,9.7-3.8,12.6c-0.4-0.6-0.8-1.2-1.3-1.8c1.5-1.8,2.4-3.7,2.7-5.8c0.4-1.9,0.6-5.6,0.6-11h-2.9V125.5z M354,125.1
		c-0.6-1.3-1.3-2.5-1.9-3.5l1.6-0.9c0.7,1.1,1.3,2.3,2,3.5L354,125.1L354,125.1z M358.4,131.2c2.1-3,3.5-6.5,4.2-10.5l1.9,0.4
		c-0.3,1.6-0.8,3.1-1.3,4.6h8.3v1.9h-2c-0.3,5-1.4,9-3.3,11.9c1.4,1.9,3.3,3.4,5.5,4.4c-0.5,0.7-1,1.4-1.3,2c-2.1-1.2-4-2.8-5.5-4.7
		c-1.6,1.8-3.4,3.5-5.6,5c-0.4-0.5-0.8-1-1.4-1.6c2.4-1.5,4.3-3.2,5.8-5c-1.4-2.4-2.3-5.5-2.7-9.2c-0.5,0.9-1,1.7-1.5,2.5
		C359.2,132.4,358.8,131.8,358.4,131.2L358.4,131.2z M363.8,104.2c-1.2,2.3-2.3,4.1-3.2,5.5l-1.6-1.2c1-1.5,2.1-3.2,3.2-5.2
		L363.8,104.2z M362,92.8h7.5v-8h2v3h10.7v1.8h-10.7v3.1h8.4v9.7h-2v-1.1h-14v1.1h-2V92.8z M365,137.8c1.5-2.6,2.4-6,2.6-10.2h-5.1
		C362.8,131.7,363.6,135.1,365,137.8L365,137.8z M378,94.6h-14v5h14V94.6z M367.8,103.1c0.7,1.7,1.4,3.5,1.9,5.4l-1.9,0.7
		c-0.5-1.8-1.1-3.7-1.7-5.5L367.8,103.1z M373.5,102.9c0.8,1.7,1.5,3.4,2.1,5.3l-1.9,0.8c-0.4-1.5-1.1-3.3-1.9-5.3L373.5,102.9z
		 M373.3,139.1c-0.2-0.7-0.5-1.5-0.9-2.2c1.7-2.6,3.1-5.6,4-9h-3.6v-1.7h3.6v-5h1.7v5h3.2v1.7h-3.2v4.1l0.9-0.8
		c1.1,1.2,2.1,2.3,3.1,3.5l-1.3,1.3c-1.3-1.5-2.2-2.6-2.7-3.2v13.1h-1.7v-13C375.5,135.3,374.5,137.4,373.3,139.1L373.3,139.1z
		 M379.3,103c1.3,2,2.3,3.9,3.1,5.5l-1.8,1c-0.8-1.7-1.8-3.6-2.9-5.7L379.3,103z M380.9,131.8c2.1-3.1,3.5-6.5,4.5-10.2l1.8,0.6
		c-1.2,4-2.8,7.6-4.7,10.8C382,132.6,381.4,132.2,380.9,131.8L380.9,131.8z M391.5,136.5c1.3,2.5,2.6,5.3,4,8.4l-1.8,0.9
		c-0.3-0.7-0.6-1.4-0.9-2.1c-3.4,0.2-6.3,0.5-8.8,0.7c-0.7,0.1-1.3,0.2-1.8,0.4l-0.9-1.8c0.6-0.3,1-0.8,1.4-1.4
		c1.6-2.8,3.1-6.5,4.4-11l2,0.8c-1.7,4.5-3.3,8.2-4.9,11.1c2.1-0.1,4.8-0.3,7.8-0.5c-0.7-1.6-1.4-3.2-2.2-4.8L391.5,136.5z
		 M402.7,97.7v-0.9h-6.3v10h7v-7.2h2v10.1h-2v-0.9h-17.9v-9.2h2v7.2h6.8v-10h-8.2v-9.1h2v7.2h6.2v-9.5h2.1v9.5h6.3v-7.2h2v10.1
		H402.7z M394.8,133.6c-2.6-3.2-4.5-7.1-5.8-11.8l1.6-0.6c1.3,4.5,3.3,8.2,5.8,10.9C395.9,132.5,395.4,133.1,394.8,133.6
		L394.8,133.6z M397.2,138.8c1-3.2,1.9-6.6,2.6-10.3l1.9,0.6c-0.7,3.6-1.6,7.1-2.6,10.5L397.2,138.8L397.2,138.8z M403.4,125.8h2
		v14.9c0,1.5,0.6,2.3,1.9,2.3h5.1c1.4,0,2.1-0.6,2.3-1.8c0.2-1.1,0.3-2.3,0.5-3.8c0.7,0.3,1.4,0.6,2.1,0.8c-0.2,1.8-0.5,3.1-0.7,4
		c-0.4,1.9-1.7,2.8-3.8,2.8h-6c-2.3,0-3.4-1.3-3.4-3.8V125.8z M408.6,120.7c1.5,2.7,2.8,5.1,3.8,7.2c-0.7,0.4-1.4,0.8-1.9,1.1
		c-1.1-2.6-2.3-5.1-3.6-7.4L408.6,120.7z M413.1,104.7c1,1.7,2.6,2.5,5,2.6l5.9,0.1l7.9-0.2c-0.2,0.6-0.4,1.2-0.7,2l-7.9,0.1
		l-5.7-0.2c-2.7,0-4.6-1-5.7-3c-0.7,0.6-1.6,1.8-2.9,3.4l-1-2.1c1.4-1.4,2.4-2.5,3.1-3.1v-8.5h-2.8v-1.9h4.7V104.7L413.1,104.7z
		 M411.2,85.3c0.8,1,1.9,2.6,3.3,4.8l-1.7,1.3c-1.3-2.1-2.3-3.8-3.2-5L411.2,85.3z M416.8,127.7c1.4,2.7,2.8,5.8,4.2,9.3l-2,1
		c-1.2-3.3-2.6-6.4-4-9.4L416.8,127.7z M417.8,105.9h-1.7V91.6h5.8c-1.2-0.7-2.4-1.3-3.7-2l1-1.2c1.2,0.6,2.4,1.3,3.5,1.8l4.3-2.4
		h-11.2v-1.6h14.3V88l-5.8,3.2c0.3,0.2,0.5,0.3,0.8,0.4h5.1v11.5c0,1.9-0.8,2.9-2.5,2.9c-0.8,0-1.7,0-2.7-0.1
		c-0.1-0.6-0.2-1.3-0.4-2c1,0.1,1.9,0.2,2.6,0.2c0.9,0,1.3-0.4,1.3-1.3v-1.2H424v4h-1.7v-4h-4.5V105.9z M417.8,95.8h4.5v-2.5h-4.5
		V95.8z M417.8,99.9h4.5v-2.5h-4.5V99.9z M421.9,133.2c0.4-1.7,0.6-3.8,0.9-6.4l1.5,0.2c-0.2,2-0.5,4.2-0.9,6.5
		C423.1,133.4,422.5,133.3,421.9,133.2L421.9,133.2z M428.6,93.2H424v2.5h4.6V93.2z M424,99.9h4.6v-2.5H424V99.9z M425.1,121h1.7
		v5.2l0.9-0.7c0.8,1,1.5,2,2.2,2.8l-1.3,1c-0.5-0.8-1.1-1.6-1.7-2.6v19h-1.7V121z M428.9,129.7h7.3v-1.8h-6v-1.6h6v-1.7h-6.7V123
		h6.7v-2.3h1.8v2.3h7.2v1.6H438v1.7h6.5v1.6H438v1.8h7.7v1.6h-16.8V129.7z M432.2,145.7h-1.8v-12.9h13.4v9.8c0,1.9-0.8,2.8-2.4,2.9
		c-1.1,0-2.4,0-4.1,0c-0.1-0.5-0.2-1.2-0.4-2c1.5,0.1,2.7,0.2,3.7,0.2c0.9,0,1.3-0.4,1.3-1.2v-1.4h-9.8V145.7z M442,134.5h-9.8v1.8
		h9.8V134.5z M432.2,139.6h9.8v-1.8h-9.8V139.6z M437.9,104.4c1.2,1.7,2.9,2.6,5.3,2.7l5.2,0.1l8.3-0.3c-0.3,0.7-0.5,1.4-0.8,2
		l-7.8,0.1l-5.3-0.1c-2.6-0.1-4.6-1-5.8-3c-1,0.9-2,2-3,3.3l-1-2.2c1.2-1.1,2.3-2.1,3.1-2.9v-8.5h-2.9V94h4.7V104.4L437.9,104.4z
		 M436.1,85.1c0.9,1.5,1.8,3.2,2.7,5l-1.8,1c-0.7-1.7-1.5-3.4-2.5-5.1L436.1,85.1z M449.2,91.5c1.9,1.5,4.4,2.5,7.4,3
		c-0.4,0.6-0.8,1.2-1.1,1.8c-3.1-1-5.5-2.4-7.2-4.2v3.5h-1.6v-3.5c-1.8,1.7-4.1,3.1-7,4.3c-0.4-0.6-0.8-1.1-1.2-1.6
		c2.8-0.8,5.2-1.9,7.2-3.4h-6v-1.7h7v-2.1c-1.8,0.1-3.8,0.2-5.9,0.3c-0.1-0.6-0.2-1.1-0.3-1.7c4.7-0.1,9.2-0.4,13.4-0.9l0.3,1.7
		c-1.8,0.2-3.7,0.4-5.9,0.5v2.2h7.4v1.7H449.2L449.2,91.5z M450.1,98.2h-4.7c-0.2,3.5-1.7,6.1-4.5,8c-0.3-0.5-0.7-1-1.3-1.6
		c2.6-1.5,3.9-3.6,4.1-6.5h-2.7v-1.7h11.2l-0.7,2.9h3.3c-0.1,1.7-0.2,3-0.3,3.9c-0.2,1.6-1.3,2.5-3.3,2.5h-2.8
		c-0.1-0.7-0.2-1.3-0.4-1.9c1.1,0.1,2.1,0.1,3,0.1c1,0,1.6-0.4,1.8-1.2c0.1-0.5,0.1-1.1,0.2-1.8h-3.6L450.1,98.2z M459.1,86.9h7.5
		v17.3h-5.7v1.9h-1.8V86.9z M464.8,88.8h-3.9v5.8h3.9V88.8z M464.8,102.3v-6h-3.9v6H464.8z M470.9,101.3c-0.4,3.2-2,6.1-4.7,8.8
		c-0.4-0.5-0.9-1-1.6-1.5c1.9-1.9,3.2-3.7,3.8-5.5c0.6-1.7,0.9-4.3,0.9-8v-8.9h10.5v20.6c0,2-0.9,3-2.7,3c-1.1,0-2.5,0-4.1-0.1
		c-0.1-0.7-0.2-1.4-0.4-2.1c1.6,0.1,2.8,0.2,3.8,0.2c1,0,1.5-0.5,1.5-1.5v-4.9H470.9L470.9,101.3z M471.3,94.6c0,1.7,0,3.4-0.2,4.8
		h6.9v-4.8H471.3L471.3,94.6z M478,88h-6.7v4.8h6.7V88z M499,101.2v4.7c0,0.6,0.1,1.1,0.3,1.3c0.2,0.3,0.7,0.4,1.4,0.4h1.5
		c1,0,1.6-0.5,1.8-1.4c0.2-0.9,0.3-1.8,0.3-2.9c0.6,0.3,1.2,0.5,1.8,0.7c-0.1,1-0.2,1.9-0.4,2.6c-0.3,1.8-1.4,2.7-3.3,2.7h-2.2
		c-1.2,0-2-0.3-2.4-0.8c-0.4-0.5-0.6-1.4-0.6-2.7v-3.1h-6.6c0,1.8-0.4,3.2-1.2,4.3c-1.2,1.5-3.3,2.4-6.1,2.8
		c-0.2-0.5-0.4-1.2-0.8-1.9c2.5-0.3,4.3-1,5.4-2.2c0.6-0.8,0.9-1.8,0.9-3.1v-1.8H499z M483,87.3h10.2c-0.3-0.7-0.5-1.4-0.8-2.1
		l1.8-0.5c0.3,0.8,0.6,1.7,0.9,2.6h10.2v1.7H483V87.3z M483.3,97.7H505v4h-1.9v-2.3h-17.9v2.3h-1.9V97.7z M486.6,90.7h15v6H500V96
		h-11.8v0.8h-1.6V90.7z M500,92.4h-11.8v2H500V92.4z M508,89.1h2.4c0.6-1.5,1.1-2.9,1.5-4.2l2,0.6c-0.5,1.3-1,2.5-1.5,3.6h4.8v20.2
		h-1.9v-2h-5.4v2.2H508V89.1z M515.3,91h-5.4v6.2h5.4V91z M509.9,105.4h5.4V99h-5.4V105.4z M519.2,95.2c-0.4-0.3-1-0.6-1.6-0.9
		c1.5-2.5,2.8-5.7,3.8-9.4l2,0.5c-0.4,1.3-0.8,2.5-1.2,3.6h7.7c-0.2,8.7-0.4,14.2-0.5,16.4c-0.1,2.7-1.4,4-3.9,4
		c-1.4,0-2.9-0.1-4.4-0.2c-0.1-0.8-0.2-1.6-0.4-2.3h0.1c1.6,0.2,3,0.4,4.4,0.4c1.4,0,2.2-0.8,2.3-2.4c0.2-2.5,0.3-7.2,0.4-14h-6.4
		C520.7,92.5,519.9,94,519.2,95.2L519.2,95.2z M523.6,102c-1.1-2-2.4-3.9-3.9-5.9l1.5-1.1c1.8,2.2,3.2,4.1,4.2,5.8L523.6,102
		L523.6,102z M532.3,105.2c-0.3-0.7-0.5-1.5-0.8-2.2c1.6-2.4,2.9-5.3,3.8-8.5h-3.5v-1.8h3.8v-4c-1,0.1-2.1,0.2-3.3,0.3
		c-0.1-0.6-0.2-1.2-0.4-1.9c3.2-0.2,6.1-0.5,8.5-0.8l0.4,1.9c-1,0.1-2.2,0.2-3.5,0.4v4.1h3.3v1.8h-3.3v3.2l0.8-0.9
		c1.1,0.9,2.1,1.8,3.1,2.8l-1.3,1.5c-0.8-0.8-1.7-1.7-2.6-2.6V110h-1.8V98.8C534.7,101.2,533.7,103.3,532.3,105.2L532.3,105.2z
		 M541,105.2c-0.3-0.5-0.7-1-1.1-1.6c2.5-2,4.6-4.3,6.2-7.1c-1.5,0.8-3.1,1.5-4.9,2.1c-0.3-0.5-0.5-1.1-0.9-1.7
		c2.4-0.7,4.5-1.6,6.3-2.7c-0.7-0.7-1.6-1.5-2.7-2.5l1.1-1.3c1.2,1,2.2,1.9,3.1,2.7c1.5-1,2.9-2.4,4.2-4.3h-7.1
		c-0.9,1.4-2.2,2.8-3.7,4.2c-0.3-0.5-0.7-0.9-1.2-1.4c2.3-2,4-4.3,5.3-6.9l1.7,0.7c-0.3,0.6-0.6,1.1-0.9,1.6h8v1.8
		c-1.4,2.8-3.8,5.2-7.3,7.2l1.3,0.5c-0.3,0.4-0.5,0.9-0.8,1.3h7.6v1.9c-2.1,5.2-6.9,8.7-14.5,10.5c-0.3-0.6-0.6-1.2-0.9-1.7
		c2.5-0.6,4.9-1.5,7.2-2.7c-0.7-0.8-1.5-1.7-2.5-2.6l1.1-1.2c1,1,2,1.9,2.8,2.8c2-1.5,3.6-3.3,4.6-5.2h-6.8
		C544.8,101.7,543,103.5,541,105.2L541,105.2z M564.9,98.9c1,2.3,1.9,4.6,2.8,6.9c-0.7,0.3-1.3,0.6-1.8,0.8c-0.1-0.3-0.2-0.6-0.3-1
		c-3,0.3-5.8,0.6-8.3,0.9l-0.8-2.1c0.7-0.4,1.3-1.1,1.7-2.1c0.8-1.7,1.6-3.8,2.4-6.3h-4v-1.9h11.5v1.9h-5.5
		c-1.4,3.6-2.5,6.4-3.5,8.4c1.8-0.1,3.8-0.3,5.9-0.6c-0.5-1.4-1.1-2.8-1.7-4.2L564.9,98.9z M557.6,87.1h9.6V89h-9.6V87.1z
		 M567.4,90.1h3.6c0-1.7,0-3.4,0-5.2h2c0,1.8,0,3.5-0.1,5.2h6.4c-0.1,6.4-0.3,11.6-0.5,15.5c-0.2,2.4-1.2,3.6-3.1,3.6
		c-1,0-2.1,0-3.2-0.1c-0.1-0.7-0.2-1.5-0.4-2.2c1.1,0.2,2.1,0.2,3,0.3c1.2,0,1.8-0.7,1.8-2.1c0.2-4.2,0.4-8.5,0.4-13h-4.5
		c0,0.7,0,1.4,0,2.2c-0.1,6.7-2,11.9-5.7,15.8c-0.4-0.6-0.9-1.2-1.4-1.7c3.3-3.1,5.1-7.9,5.2-14.1c0-0.7,0-1.4,0-2.1h-3.5V90.1z
		 M582.2,88.1h5.6v15.8h-3.9v1.5h-1.7V88.1z M586.1,102.2V89.8h-2.2v12.3H586.1z M588.7,89.5h1.7c0-1.4,0-2.9,0-4.5h1.7
		c0,1.7,0,3.2-0.1,4.5h4c-0.1,7.2-0.2,12.6-0.3,16.4c-0.1,2.3-0.9,3.4-2.6,3.4c-1,0-1.7,0-2.2-0.1c-0.1-0.6-0.2-1.2-0.3-2
		c0.8,0.1,1.5,0.2,2.1,0.2c0.9,0,1.4-0.6,1.4-1.9c0.1-2.7,0.2-7.4,0.3-14.2H592c0,1.8-0.1,3.2-0.1,4.2c-0.1,6.4-1.6,11.2-4.6,14.4
		c-0.4-0.5-0.9-1-1.3-1.4c2.8-2.9,4.2-7.3,4.2-13.2c0-1.3,0.1-2.6,0.1-4h-1.6V89.5z M597.5,88.2h6.1v20.5h-1.7v-2h-2.7v2h-1.7V88.2z
		 M601.9,89.9h-2.7V105h2.7V89.9z M607,87.8h6v18.1h-1.7v-2h-2.5v2.3H607V87.8z M611.2,89.6h-2.5v12.5h2.5V89.6z M613.8,101.8h4.3
		v-4.4h-4v-1.8h4v-4.2h-4.2v-1.8h4.2v-4.5h1.7v24.8h-1.7v-6.3h-4.3V101.8z M628.9,89.5v1.8h-4.5v4.2h4.3v1.8h-4.3v4.4h4.6v1.8h-4.6
		v6.3h-1.7V85.1h1.7v4.5H628.9z M631.4,96.2c-0.3-0.6-0.7-1.1-1.2-1.7c1.3-2.4,2.3-5.5,3-9.3l1.7,0.4c-0.3,1.3-0.6,2.6-1,3.8h4.5V91
		l-1.4,4.6c-0.6-0.2-1.1-0.4-1.6-0.5l1.2-4h-3.3C632.8,93,632.1,94.7,631.4,96.2L631.4,96.2z M633.3,93.6h1.7v11.3
		c0.9-0.9,1.9-1.8,2.8-2.8c0.1,0.7,0.3,1.4,0.5,2.1c-1.2,1.1-2.3,2.2-3.3,3.2c-0.3,0.3-0.7,0.8-1.2,1.3l-1.3-1.7
		c0.5-0.5,0.8-1.1,0.8-2V93.6z M639.2,88.2h6.8c-0.6-1-1.2-1.8-1.8-2.6l1.5-0.9c0.8,0.9,1.5,1.9,2.1,2.9l-1.1,0.7h7v3.9H652v-2.2
		h-11.1v2.2h-1.7V88.2z M640.6,92.6h11.1v7.2H650v-1h-7.6v2.7h10.1v8.1h-1.7v-1.4h-8.4v1.6h-1.8V92.6z M650,94.2h-7.6v2.9h7.6V94.2z
		 M650.7,103.1h-8.4v3.4h8.4V103.1z"/>
	<path class="st1" d="M76.7,211l-1.4,6.1h-2.1l1.9-6.1H76.7z M77.5,270.5c-0.3-0.6-0.7-1.2-1.1-1.8c2.9-0.5,5.3-1.3,7-2.4
		c-1.4-1-2.6-2.3-3.7-3.9l1.3-1h-1.8v-10.6h8.4c0-0.7,0-1.5,0-2.3H77.3v-1.8h21.9v1.8h-9.8c0,0.8,0,1.6,0,2.3h7.9v11.9h-1.8v-1.2
		h-6.7c-0.4,2-1.1,3.6-2,4.6c3.2,1.2,7.6,1.9,13.3,1.8c-0.4,0.7-0.7,1.4-1,2c-6.3-0.2-11-1-13.9-2.5
		C83.4,268.7,80.8,269.7,77.5,270.5L77.5,270.5z M80.8,211l-1.4,6.1h-2.1l1.9-6.1H80.8z M81,255.2h6.5c0-0.8,0-1.7,0-2.7H81V255.2z
		 M87.3,259.6c0.1-0.8,0.2-1.7,0.2-2.7H81v2.7H87.3L87.3,259.6z M81.1,261.4c1.1,1.6,2.4,2.9,3.9,3.8c0.9-0.8,1.5-2,1.9-3.8H81.1
		L81.1,261.4z M85.1,211.3h19.2v12.4h-2V222H87v7.6c0,1.2,0.5,1.8,1.5,1.8h13.1c1.2,0,1.9-0.4,2.1-1.1c0.2-0.8,0.4-2.2,0.6-4.2
		c0.5,0.2,1.2,0.5,2.1,0.8c-0.3,2-0.6,3.4-0.8,4.2c-0.4,1.5-1.6,2.3-3.6,2.3H88c-1.9,0-2.9-1.1-2.9-3.2V211.3z M93.7,220v-6.7H87
		v6.7H93.7z M89.3,256.9c0,1-0.1,1.9-0.2,2.7h6.4v-2.7H89.3L89.3,256.9z M95.5,252.4h-6.1c0,1,0,1.9,0,2.7h6.1V252.4z M95.7,220h6.7
		v-6.7h-6.7V220z M101,262.8h3.3v-16.3h17.1v16.3h3.2v1.8H101V262.8z M101.3,268.6c2.5-0.8,5.2-1.9,8.2-3.4l1.1,1.7
		c-2.8,1.4-5.6,2.6-8.5,3.7C102,270,101.7,269.3,101.3,268.6L101.3,268.6z M119.6,248.3h-13.4v2.3h13.4V248.3z M106.2,254.7h13.4
		v-2.3h-13.4V254.7z M106.2,258.7h13.4v-2.3h-13.4V258.7z M106.2,262.8h13.4v-2.4h-13.4V262.8z M116.8,227.8
		c-1.3-0.6-2.5-1.2-3.6-1.7l0.4-0.8c-1.5,0.8-3.2,1.5-4.9,2.2c-0.3-0.5-0.7-1.1-1.2-1.7c4.5-1.2,8.3-3.3,11.2-6.2h2.1l-0.5,0.5
		c2.8,2.5,6.4,4.2,10.9,5.2c-0.4,0.6-0.7,1.3-1.1,1.9c-2-0.6-3.7-1.3-5.3-2.1l0.6,1c-1.2,0.6-2.4,1.2-3.8,1.7
		c-0.2-0.4-0.5-0.9-0.8-1.5c1.1-0.4,2.2-0.9,3.4-1.5c-1.9-1-3.6-2.2-5.1-3.6c-1.4,1.4-3.1,2.6-5,3.7c1,0.4,2,0.9,3.2,1.4
		L116.8,227.8L116.8,227.8z M108.9,221.9c-0.4-0.5-0.8-0.9-1.3-1.3c1.9-1.3,3.5-2.7,4.7-4.3h-4.1v-1.6h4.6v-2.5
		c-1.3,0.1-2.6,0.2-3.9,0.3c-0.1-0.5-0.2-1.1-0.3-1.7c3.3-0.1,6.4-0.4,9.2-0.8l0.3,1.7c-1.2,0.1-2.4,0.3-3.7,0.4v2.6h3.8v1.6h-3.8
		v1.5l0.6-0.9c1.4,0.7,2.4,1.4,3.2,2l-0.9,1.3c-1-0.7-1.9-1.3-2.9-1.9v3.7h-1.6v-4.2C111.7,219.3,110.4,220.7,108.9,221.9
		L108.9,221.9z M109.5,230.6c2.5-0.5,5.1-1.3,7.9-2.3l0.7,1.5c-2.5,0.9-5.1,1.8-8,2.5C109.9,231.8,109.7,231.2,109.5,230.6
		L109.5,230.6z M118.7,223.5h1.7v7.6c0,2.1-0.9,3.1-2.7,3.1c-0.9,0-1.9,0-2.8-0.1c-0.1-0.6-0.2-1.2-0.3-1.9c1,0.1,1.8,0.2,2.6,0.2
		c1,0,1.5-0.5,1.5-1.5V223.5z M123.4,270.4c-2.2-1-5-2.1-8.5-3.4l1-1.7c2.8,0.9,5.6,1.9,8.5,3L123.4,270.4L123.4,270.4z
		 M119.7,216.6c-0.4-0.4-0.8-0.9-1.2-1.2c1.3-1.9,2.3-3.8,2.9-5.9l1.6,0.5c-0.2,0.7-0.5,1.3-0.7,1.9h7.5c-0.1,2.3-0.2,4.2-0.2,5.8
		c-0.1,1.3-0.4,2.1-0.8,2.7c-0.5,0.5-1.3,0.8-2.5,0.8c-0.6,0-1.3,0-2.2,0c-0.1-0.7-0.2-1.3-0.4-1.8c1,0.1,1.9,0.2,2.5,0.2
		c1.1,0,1.6-0.6,1.7-1.9c0.1-1.3,0.1-2.6,0.2-4h-2.4c-0.5,2.6-1.8,4.7-3.9,6.3c-0.3-0.5-0.7-0.9-1.1-1.3c1.8-1.3,3-3,3.5-5h-2.6
		C120.9,214.6,120.3,215.7,119.7,216.6L119.7,216.6z M128.3,232.7c-2.4-1-4.8-2-7.3-2.9l0.7-1.5c2.5,0.8,5,1.8,7.4,2.8L128.3,232.7
		L128.3,232.7z M129.9,250.6c-0.6,2.3-1.3,4.4-1.9,6.4h2.5v-4.8h1.7v4.8h2.4v1.7h-2.4v3.6c0.9-0.1,1.9-0.2,2.9-0.4
		c-0.1,0.7-0.1,1.3-0.2,1.8c-0.9,0.1-1.9,0.2-2.8,0.3v6.3h-1.7v-6.1c-1.5,0.2-3.1,0.4-4.6,0.6l-0.2-1.9c1.5-0.1,3.1-0.3,4.8-0.5
		v-3.8h-4.2v-1.7c0.7-2,1.3-4.1,1.9-6.4h-2.2V249h2.6c0.3-1.3,0.6-2.6,0.9-3.9l1.8,0.4c-0.3,1.2-0.6,2.4-0.9,3.5h4.5v1.7H129.9
		L129.9,250.6z M133.9,214.2h19.6v1.9c-4.3,4.7-9.3,9-15,12.7c1.6,1.6,3.9,2.5,6.9,2.7c3.8,0.1,7.3,0,10.6-0.1
		c-0.4,1-0.6,1.7-0.8,2.2c-1.6,0-5.2,0-10.6-0.1c-3.4-0.1-6-1.4-8-3.7c-0.2-0.2-0.3-0.2-0.5,0c-1.1,1.1-2.1,2.2-3,3.4L132,231
		c1.2-1.3,2.2-2.2,3-2.8c0.5-0.4,1.1-0.6,1.6-0.5c5.5-3.6,10.1-7.4,14-11.5h-16.8V214.2z M134.3,267.5h6.6v-6.4H136v-1.8h11.5v1.8
		h-4.8v6.4h6.6v1.8h-15V267.5z M135.7,247.1h11.1v1.7c-0.9,1.5-2,3-3.3,4.3c2.1,1.2,4.1,2.5,6,3.7l-1.1,1.7
		c-2.2-1.6-4.3-2.9-6.2-4.2c-1.8,1.6-3.9,2.9-6.4,4.1c-0.4-0.6-0.8-1.2-1.2-1.7c4.4-1.9,7.8-4.5,10-7.8h-9V247.1z M144.1,214
		c-0.7-1.3-1.4-2.5-2.1-3.8l1.8-0.9c0.7,1,1.4,2.2,2.2,3.7L144.1,214L144.1,214z M151.2,263.6c-0.2-0.7-0.5-1.5-0.9-2.2
		c1.7-2.6,3.1-5.6,4-9h-3.6v-1.7h3.6v-5h1.7v5h3.2v1.7H156v4.1l0.9-0.8c1.1,1.2,2.1,2.3,3.1,3.5l-1.3,1.3c-1.3-1.5-2.2-2.6-2.7-3.2
		v13.1h-1.7v-13C153.4,259.8,152.4,261.9,151.2,263.6L151.2,263.6z M157.8,227.5c-0.3-0.6-0.6-1.3-0.9-1.9c2.6-2.3,4.8-5.3,6.7-8.9
		l1.8,1c-0.7,1.2-1.4,2.3-2.2,3.4v13.1h-1.9v-10.6C160.2,225,159,226.3,157.8,227.5L157.8,227.5z M157.1,212.5h6.5v-3.1h1.9v3.1h6.5
		v-3.1h1.9v3.1h6.6v1.8h-6.6v2.5H172v-2.5h-6.5v2.1h-1.9v-2.1h-6.5V212.5z M158.8,256.3c2.1-3.1,3.5-6.5,4.5-10.2l1.8,0.6
		c-1.2,4-2.8,7.6-4.7,10.8C159.8,257.1,159.3,256.7,158.8,256.3L158.8,256.3z M169.4,261c1.3,2.5,2.6,5.3,4,8.4l-1.8,0.9
		c-0.3-0.7-0.6-1.4-0.9-2.1c-3.4,0.2-6.3,0.5-8.8,0.7c-0.7,0.1-1.3,0.2-1.8,0.4l-0.9-1.8c0.6-0.3,1-0.8,1.4-1.4
		c1.6-2.8,3.1-6.5,4.4-11l2,0.8c-1.7,4.5-3.3,8.2-4.9,11.1c2.1-0.1,4.8-0.3,7.8-0.5c-0.7-1.6-1.4-3.2-2.2-4.8L169.4,261z
		 M165.1,229.4c-0.3-0.5-0.7-1.1-1.1-1.8c2-0.9,3.9-1.9,5.7-2.9v-7.3h1.9v6.1c2.4-1.7,4.5-3.4,6.3-5.4l1.4,1.5
		c-2.3,2.3-4.8,4.4-7.7,6.2v4.3c0,1.1,0.5,1.7,1.6,1.7h3.3c1,0,1.5-0.5,1.7-1.5c0.2-0.9,0.3-2.2,0.4-3.8c0.7,0.3,1.3,0.5,2,0.8
		c-0.2,1.4-0.4,2.7-0.5,3.8c-0.3,1.8-1.4,2.7-3.2,2.7h-4.4c-1.9,0-2.8-1.1-2.8-3.3V227C168.2,227.8,166.6,228.7,165.1,229.4
		L165.1,229.4z M172.7,258.1c-2.6-3.2-4.5-7.1-5.8-11.8l1.6-0.6c1.3,4.5,3.3,8.2,5.8,10.9C173.8,257,173.2,257.6,172.7,258.1
		L172.7,258.1z M176,247.8h8.2v20.7h-1.9v-2.1h-4.5v2.4H176V247.8z M182.4,249.6h-4.5v6.4h4.5V249.6z M177.9,264.5h4.5v-6.6h-4.5
		V264.5z M186.1,211l-1.9,6.1h-1.6l1.4-6.1H186.1z M185.1,251h8.5v-5.6h1.9v5.6h3.4v1.9h-3.4v13.7c0,2.3-1,3.4-3.1,3.4
		c-0.9,0-2.3,0-4.1-0.1c-0.1-0.6-0.2-1.3-0.4-2.1c1.7,0.1,3,0.2,3.9,0.2c1.1,0,1.7-0.6,1.7-1.8v-13.3h-8.5V251z M187.7,255.3
		c1.3,2.5,2.2,4.4,2.9,5.9c-0.4,0.2-1.1,0.5-1.9,1c-0.6-1.6-1.5-3.6-2.7-6L187.7,255.3z M190.2,211l-1.9,6.1h-1.6l1.4-6.1H190.2z
		 M212.5,245.5v7.4h9.3v14c0,2-1,3-3.1,3c-0.8,0-2,0-3.3-0.1c-0.1-0.6-0.2-1.3-0.3-2.1c1.3,0.1,2.4,0.2,3.1,0.2
		c1.2,0.1,1.8-0.5,1.8-1.6v-11.8h-16.7v15.5h-1.8v-17.3h9.2v-7.4H212.5z M206.3,252.2c-1.6-1.8-3.1-3.3-4.3-4.4l1.3-1.3
		c1.6,1.4,3.1,2.8,4.5,4.2L206.3,252.2L206.3,252.2z M207.1,215.3h10.2v-2.8c-2.8,0.1-5.4,0.2-7.7,0.2c-0.1-0.6-0.2-1.2-0.3-1.8
		c5,0,10.8-0.3,17.5-0.8l0.3,1.8c-2.8,0.2-5.5,0.4-8,0.5v2.9h10.3v1.7h-8.8c2.5,2,5.7,3.6,9.5,4.6c-0.4,0.7-0.8,1.3-1.1,1.8
		c-4-1.5-7.4-3.5-9.9-6v4.3h-1.7v-4.3c-2.3,2.4-5.6,4.4-9.9,6.2c-0.2-0.4-0.6-1-1.1-1.7c3.8-1.2,7-2.8,9.4-5h-8.6V215.3z
		 M206.3,257.7h10.5v7.3H208v1.2h-1.7V257.7z M215.1,259.4H208v3.9h7.1V259.4z M210.2,222.5H226v11.7h-1.7v-1H212v1h-1.7V222.5z
		 M224.3,224.1H212v2.9h12.3V224.1z M212,231.5h12.3v-2.9H212V231.5z M215,251c1.7-1.4,3.2-3,4.7-4.6l1.5,1.3
		c-1.6,1.7-3.3,3.2-4.9,4.6L215,251z M235.7,256.5c1.8,2.1,3.9,3.8,6.4,5.2c-0.4,0.5-0.9,1-1.3,1.6c-0.6-0.4-1.2-0.8-1.8-1.2
		c-0.1,1.8-0.3,3.3-0.4,4.5c-0.2,2.3-1.2,3.4-2.8,3.4c-1.1,0-2.2,0-3.3-0.1c-0.1-0.9-0.3-1.5-0.4-1.9c0.9,0.1,2,0.2,3.1,0.2
		c1,0,1.6-0.6,1.7-1.7c0.1-0.8,0.2-1.8,0.3-3h-5.4c-0.6,3.2-2.5,5.5-5.9,7.1c-0.4-0.5-0.8-1-1.1-1.4c3-1.3,4.8-3.2,5.3-5.6h-2.9
		v-1.2c-0.6,0.4-1.1,0.8-1.7,1.2c-0.3-0.5-0.7-1-1.1-1.5c2.3-1.4,4.3-3.1,6.2-5.1l1.4,1.1c-1.4,1.4-2.8,2.7-4.3,3.9h11
		c-1.7-1.3-3.2-2.8-4.4-4.4L235.7,256.5z M224.5,253.5c2.2-2.4,3.8-5.1,4.8-8.2l1.9,0.2c-0.2,0.6-0.5,1.3-0.7,1.9h16.5v1.7h-17.3
		c-1.1,2.2-2.5,4.3-4.1,6.1C225.3,254.5,224.9,254,224.5,253.5L224.5,253.5z M245.6,267.8c0.3,0,0.5-0.4,0.6-1.1
		c0.2-1.3,0.3-2.4,0.3-3.4c0.6,0.3,1.2,0.5,1.7,0.7c-0.1,1.2-0.3,2.3-0.5,3.6c-0.4,1.7-1,2.6-2,2.6c-1,0-1.9-0.9-2.6-2.6
		c-0.7-1.9-1.1-5.7-1.1-11.3h-15.3v-1.7h17.1c-0.1,6.3,0.1,10.3,0.9,12.2C245,267.4,245.3,267.8,245.6,267.8L245.6,267.8z
		 M229.3,251h15.8v1.7h-15.8V251z M231.5,227.7c-0.2-0.7-0.5-1.4-0.8-2.2c1.7-2.9,2.9-6.1,3.7-9.5h-3.1v-1.7h3.4v-4.6h1.6v4.6h2.5
		v1.7h-2.5v3.4l1.1-0.7c0.9,1.4,1.7,2.5,2.2,3.5l-1.4,1c-0.5-1-1.1-2.1-1.9-3.4v14.6h-1.6v-14.1
		C233.8,223.3,232.7,225.8,231.5,227.7L231.5,227.7z M237.4,226.9h3.5v-10.1c3.7-0.1,7.1-0.4,10.2-1l0.5,1.8c-3.2,0.4-6.2,0.7-9,0.9
		v2.7h10.6v1.7h-3.7v4.1h5v1.7h-17.2V226.9z M237.6,232.9c2.3-1.1,4.3-2.3,6-3.6l1.2,1.5c-2,1.4-4.1,2.6-6.1,3.7
		C238.3,234,238,233.4,237.6,232.9L237.6,232.9z M239.2,212.2h6.4c-0.4-0.8-0.7-1.6-1-2.2l1.7-0.7c0.5,1.1,0.9,2.1,1.3,2.9h6.3v4.1
		h-1.7v-2.4h-11.3v2.4h-1.7V212.2z M242.6,226.9h5.3v-4.1h-5.3V226.9z M253.2,234.5c-2.5-1.6-4.4-2.7-5.7-3.5l1-1.5
		c1.9,1,3.9,2.1,5.8,3.2L253.2,234.5L253.2,234.5z M250.6,246.7h20.9v23.7h-1.8v-1.2h-17.3v1.3h-1.8V246.7z M269.7,248.5h-17.3v18.8
		h17.3V248.5z M253.4,258.8h6.1v-2.1h-5V255h5v-2.1h-5.6v-1.7h5.6v-2.1h1.7v2.1h6.5v1.7h-6.5v2.1h5.8v1.7h-5.8v2.1h6.4
		c0,1-0.1,2.1-0.2,3.4c-0.1,1.9-1,2.9-2.7,2.9c-0.7,0-1.5,0-2.3-0.1c-0.1-0.6-0.2-1.3-0.4-2c0.8,0.1,1.6,0.2,2.2,0.2
		c0.8,0.1,1.3-0.4,1.4-1.2c0-0.5,0.1-1,0.1-1.5h-4.6v6.2h-1.7v-6.2h-6.1V258.8z M256.6,216h9c0.2-2.1,0.3-4.3,0.3-6.7h2.1
		c0,2.5-0.1,4.8-0.3,6.7h10.1c-0.1,5.2-0.2,9.5-0.4,13c-0.2,3.2-1.7,4.7-4.7,4.7c-1.2,0-2.7,0-4.4-0.1c-0.1-0.7-0.2-1.4-0.4-2.4
		c1.5,0.2,3,0.3,4.4,0.3c1.9,0,2.9-1,3-3c0.2-3.3,0.4-6.8,0.4-10.6h-8.3c-1.2,7.5-4.4,13-9.8,16.7c-0.4-0.6-0.9-1.2-1.5-1.9
		c4.9-3.1,8-8,9.2-14.8h-8.7V216z M262,214.9c-1.2-1.4-2.4-2.7-3.7-3.9l1.3-1.3c1.3,1.2,2.6,2.5,3.8,3.8L262,214.9L262,214.9z
		 M271.9,227.2c-1.2-1.5-2.6-3.1-4-4.6l1.3-1.2c1.5,1.5,2.9,3,4.2,4.4L271.9,227.2L271.9,227.2z M274.8,249.6h2.4
		c0.6-1.5,1.1-2.9,1.5-4.2l2,0.6c-0.5,1.3-1,2.5-1.5,3.6h4.8v20.2h-1.9v-2h-5.4v2.2h-1.9V249.6z M282.1,251.5h-5.4v6.2h5.4V251.5z
		 M276.7,265.9h5.4v-6.4h-5.4V265.9z M280.5,230.9h10.6v-7.3h-8.7v-1.9h8.7v-5.8h-9.7V214h21.3v1.9h-9.6v5.8h8.7v1.9h-8.7v7.3h10.6
		v1.9h-23.3V230.9z M286,255.7c-0.4-0.3-1-0.6-1.6-0.9c1.5-2.5,2.8-5.7,3.8-9.4l2,0.5c-0.4,1.3-0.8,2.5-1.2,3.6h7.7
		c-0.2,8.7-0.4,14.2-0.5,16.4c-0.1,2.7-1.4,4-3.9,4c-1.4,0-2.9-0.1-4.4-0.2c-0.1-0.8-0.2-1.6-0.4-2.3h0.1c1.6,0.2,3,0.4,4.4,0.4
		c1.4,0,2.2-0.8,2.3-2.4c0.2-2.5,0.3-7.2,0.4-14h-6.4C287.5,253,286.7,254.5,286,255.7L286,255.7z M290.4,262.4
		c-1.1-2-2.4-3.9-3.9-5.9l1.5-1.1c1.8,2.2,3.2,4.1,4.2,5.8L290.4,262.4L290.4,262.4z M292.2,213.9c-0.9-1.7-1.5-2.9-2-3.7l1.8-1
		c1,1.5,1.7,2.7,2.1,3.6L292.2,213.9L292.2,213.9z M298.5,267.9c0.5,0,1-0.1,1.5-0.1V263h1.5v4.7c0.7-0.1,1.5-0.1,2.2-0.2v-5.9h-1.7
		v0.6h-1.5v-5.9h7.5v5.3h-2.6v1.9h2.8v1.4h-2.8v2.5c1.1-0.1,2.2-0.2,3.3-0.3c-0.1,0.6-0.1,1.1-0.1,1.6c-3.6,0.3-6.8,0.7-9.6,1
		L298.5,267.9z M299.3,249.2h10.1v-1.5h-8.7v-1.4h19.1v1.4h-8.7v1.5h10.1v4.5h-1.7v-3.1h-8.4v4.5h-1.8v-4.5H301v3.1h-1.7V249.2z
		 M306.3,260.3v-2.6h-4.4v2.6H306.3z M302.2,251.7h6.1v1.3h-6.1V251.7z M302.2,254h6.1v1.3h-6.1V254z M304.9,223.9
		c1.5-0.5,2.9-1,4.3-1.5v-5.9h-3.9v-1.9h3.9v-4.9h1.9v4.9h3.6v1.9h-3.6v5.2c1.3-0.5,2.6-1,3.9-1.5c0,0.9,0.1,1.5,0.2,2
		c-1.4,0.5-2.7,1-4.1,1.5v7.5c0,1.8-0.8,2.8-2.5,2.8c-0.7,0-1.6,0-2.7,0c-0.1-0.7-0.2-1.4-0.3-2.1c0.8,0.1,1.6,0.2,2.6,0.2
		c0.7,0,1-0.4,1-1.2v-6.3c-1.3,0.5-2.5,1-3.7,1.5L304.9,223.9z M309.4,261.1c-0.3-0.3-0.7-0.8-1.1-1.2c1.5-1.3,2.5-2.7,3.1-4.2h1.6
		c-0.1,0.4-0.3,0.8-0.5,1.1h7.3v1.4c-0.9,1.2-1.9,2.2-3.2,3c1.6,0.6,3.5,0.9,5.5,0.9c0,0,0,0.1,0,0.1c-0.3,0.6-0.6,1.2-0.7,1.6
		c-2.5-0.3-4.6-0.9-6.4-1.7c-1.8,0.9-3.9,1.5-6.3,1.8c-0.1-0.5-0.4-1-0.8-1.6c2.1-0.2,3.9-0.5,5.5-1.1c-0.9-0.6-1.7-1.2-2.4-2
		C310.5,259.9,310,260.5,309.4,261.1L309.4,261.1z M310,264.1h9.9v6.3h-1.6v-1h-6.8v1H310V264.1z M318.3,265.5h-6.8v2.5h6.8V265.5z
		 M315.1,260.4c1.1-0.6,2.1-1.4,2.8-2.3h-6C312.8,259,313.9,259.8,315.1,260.4L315.1,260.4z M312.4,251.7h6.1v1.3h-6.1V251.7z
		 M312.4,254h6.1v1.3h-6.1V254z M315,211.5h13.8v1.9h-4.1v17.2c0,2.1-1,3.2-3,3.2c-1,0-2.4,0-4.2,0c-0.1-0.8-0.2-1.5-0.4-2.3
		c1.8,0.1,3.1,0.2,4,0.2c1,0,1.5-0.6,1.5-1.8v-16.5H315V211.5z M324.6,270.3c-0.3-0.5-0.8-1.1-1.5-1.9c6-2.7,9.4-6.5,10.4-11.3
		h-10.1v-1.9h10.3c0.1-1.2,0.1-3.3,0.1-6.2h-9.1v-1.9h20.6v1.9H336c0,1.8,0,3.8-0.1,6.2h10.7v1.9h-10.4c1.5,5.4,5.1,9,10.7,10.8
		c-0.7,0.8-1.2,1.5-1.6,2.1c-5.2-2.2-8.6-5.9-10.2-11C333.8,263.8,330.3,267.5,324.6,270.3L324.6,270.3z M362.5,266.2
		c-1.4,0.8-3.1,1.1-5.1,1.1c-2.6,0-4.8-0.9-6.3-2.7c-1.6-1.8-2.4-4.2-2.4-7.1c0-3.2,0.9-5.7,2.7-7.6c1.8-1.9,4-2.9,6.8-2.9
		c1.8,0,3.2,0.3,4.4,0.8v2.7c-1.3-0.8-2.8-1.2-4.4-1.2c-2.1,0-3.7,0.7-5,2.2c-1.3,1.5-1.9,3.4-1.9,5.9c0,2.4,0.6,4.2,1.8,5.6
		c1.2,1.4,2.8,2.1,4.7,2.1c1.8,0,3.4-0.4,4.8-1.3V266.2z M377.3,267H375v-8.1c0-2.8-1-4.2-3-4.2c-1,0-1.8,0.4-2.5,1.2
		c-0.7,0.8-1,1.9-1,3.1v8h-2.3v-20.8h2.3v9.1h0c1-1.8,2.4-2.6,4.3-2.6c3,0,4.5,1.9,4.5,5.7V267z M381.8,253.9
		c1.3-0.9,2.8-1.3,4.5-1.3c3.2,0,4.8,1.8,4.8,5.3v9h-2.3v-2.2h-0.1c-0.9,1.7-2.3,2.5-4,2.5c-1.3,0-2.3-0.4-3.1-1.1
		c-0.8-0.7-1.1-1.7-1.1-3c0-2.6,1.5-4.2,4.4-4.6l3.9-0.6c0-2.3-0.9-3.4-2.7-3.4c-1.6,0-3,0.6-4.3,1.7V253.9z M385.7,260.4
		c-1.1,0.2-1.8,0.4-2.2,0.9c-0.4,0.4-0.6,1-0.6,1.8c0,0.7,0.2,1.2,0.7,1.6c0.4,0.4,1,0.6,1.8,0.6c1,0,1.9-0.4,2.5-1.1
		c0.7-0.8,1-1.7,1-2.9v-1.3L385.7,260.4z M414.2,267h-2.3v-8.1c0-1.5-0.2-2.6-0.7-3.3c-0.4-0.7-1.2-1-2.2-1c-0.9,0-1.6,0.4-2.2,1.3
		c-0.6,0.9-0.9,1.9-0.9,3v8h-2.3v-8.3c0-2.7-1-4-2.9-4c-0.9,0-1.6,0.4-2.2,1.2c-0.6,0.8-0.9,1.8-0.9,3.1v8h-2.3v-14h2.3v2.2h0
		c0.9-1.7,2.3-2.6,4.1-2.6c0.9,0,1.7,0.3,2.3,0.8c0.7,0.5,1.1,1.2,1.4,2.1c1-1.9,2.4-2.9,4.4-2.9c2.9,0,4.4,1.9,4.4,5.7V267z
		 M420.7,265v8.4h-2.3v-20.5h2.3v2.4h0c1-1.8,2.5-2.8,4.5-2.8c1.7,0,3,0.6,4,1.9c1,1.3,1.4,2.9,1.4,5.1c0,2.3-0.5,4.2-1.6,5.6
		c-1.1,1.4-2.5,2.1-4.4,2.1C423,267.3,421.7,266.5,420.7,265L420.7,265z M420.7,261.2c0,1.1,0.3,2.1,1,2.9c0.7,0.8,1.6,1.2,2.6,1.2
		c1.2,0,2.2-0.5,2.9-1.5c0.7-1,1-2.4,1-4.2c0-1.5-0.3-2.7-1-3.6c-0.7-0.9-1.5-1.3-2.7-1.3c-1.2,0-2.1,0.4-2.8,1.3
		c-0.7,0.9-1.1,2-1.1,3.4V261.2z M434.5,253.9c1.3-0.9,2.8-1.3,4.5-1.3c3.2,0,4.8,1.8,4.8,5.3v9h-2.3v-2.2h-0.1
		c-0.9,1.7-2.3,2.5-4,2.5c-1.3,0-2.3-0.4-3.1-1.1c-0.8-0.7-1.1-1.7-1.1-3c0-2.6,1.5-4.2,4.4-4.6l3.9-0.6c0-2.3-0.9-3.4-2.7-3.4
		c-1.6,0-3,0.6-4.3,1.7V253.9z M438.4,260.4c-1.1,0.2-1.8,0.4-2.2,0.9c-0.4,0.4-0.6,1-0.6,1.8c0,0.7,0.2,1.2,0.7,1.6
		c0.4,0.4,1,0.6,1.8,0.6c1,0,1.9-0.4,2.5-1.1c0.7-0.8,1-1.7,1-2.9v-1.3L438.4,260.4z M459.4,265.8c0,5.2-2.4,7.8-7.1,7.8
		c-1.6,0-3.1-0.3-4.3-1v-2.4c1.5,0.9,2.9,1.3,4.2,1.3c3.2,0,4.8-1.8,4.8-5.4v-1.5h0c-1,1.8-2.5,2.7-4.5,2.7c-1.7,0-3-0.6-4-1.9
		c-1-1.3-1.5-2.9-1.5-5c0-2.4,0.5-4.3,1.6-5.7c1.1-1.4,2.6-2.1,4.4-2.1c1.8,0,3.1,0.7,3.9,2.2h0v-1.9h2.3V265.8z M457.1,258.6
		c0-1.1-0.3-2-1-2.8c-0.7-0.8-1.5-1.2-2.6-1.2c-1.3,0-2.3,0.5-3,1.5c-0.7,1-1.1,2.4-1.1,4.1c0,1.5,0.3,2.7,1,3.6
		c0.7,0.9,1.6,1.4,2.7,1.4c1.1,0,2.1-0.4,2.8-1.3c0.7-0.9,1.1-2,1.1-3.4V258.6z M475,267h-2.3v-8c0-2.9-1-4.3-3-4.3
		c-1,0-1.9,0.4-2.5,1.2c-0.7,0.8-1,1.8-1,3.1v8h-2.3v-14h2.3v2.3h0c1-1.8,2.4-2.7,4.3-2.7c1.4,0,2.5,0.5,3.3,1.5
		c0.8,1,1.1,2.4,1.1,4.3V267z M489.9,260.6h-9.2c0,1.5,0.4,2.7,1.2,3.5c0.7,0.8,1.8,1.2,3.1,1.2c1.5,0,2.8-0.5,4.1-1.5v2.2
		c-1.2,0.9-2.7,1.3-4.6,1.3c-1.9,0-3.4-0.6-4.5-1.9c-1.1-1.3-1.6-3.1-1.6-5.4c0-2.1,0.6-3.9,1.8-5.3c1.2-1.4,2.6-2.1,4.4-2.1
		c1.7,0,3.1,0.6,4,1.8c1,1.2,1.5,2.8,1.5,5V260.6z M487.5,258.6c0-1.3-0.3-2.3-0.8-2.9c-0.6-0.7-1.3-1-2.4-1c-0.9,0-1.7,0.4-2.4,1.1
		c-0.7,0.7-1.1,1.7-1.3,2.9H487.5z M510.8,267H501v-19.7h2.4v17.4h7.4V267z M512.6,260.1c0-2.3,0.6-4.1,1.8-5.5c1.2-1.3,2.9-2,5-2
		c2,0,3.5,0.6,4.7,1.9c1.1,1.3,1.7,3.1,1.7,5.4c0,2.2-0.6,4-1.8,5.4c-1.2,1.4-2.8,2-4.8,2c-2,0-3.5-0.7-4.7-2
		C513.2,264,512.6,262.3,512.6,260.1z M515,260c0,1.6,0.4,2.9,1.2,3.8c0.8,0.9,1.8,1.4,3.1,1.4c1.3,0,2.4-0.5,3.1-1.4
		c0.7-0.9,1-2.2,1-3.9c0-1.7-0.3-3-1-3.9s-1.7-1.4-3.1-1.4c-1.3,0-2.3,0.5-3.1,1.4C515.4,257.1,515,258.4,515,260z M540.2,267h-2.4
		v-2.2h0c-0.9,1.7-2.2,2.5-4.1,2.5c-3.1,0-4.7-2-4.7-6v-8.4h2.3v8c0,2.9,1,4.3,3.1,4.3c1,0,1.8-0.4,2.5-1.2c0.6-0.8,0.9-1.8,0.9-3
		v-8.1h2.4V267z M555.7,267h-2.3v-8c0-2.9-1-4.3-3-4.3c-1,0-1.9,0.4-2.5,1.2c-0.7,0.8-1,1.8-1,3.1v8h-2.3v-14h2.3v2.3h0
		c1-1.8,2.4-2.7,4.3-2.7c1.4,0,2.5,0.5,3.3,1.5c0.8,1,1.1,2.4,1.1,4.3V267z M571.4,265.8c0,5.2-2.4,7.8-7.1,7.8
		c-1.6,0-3.1-0.3-4.3-1v-2.4c1.5,0.9,2.9,1.3,4.2,1.3c3.2,0,4.8-1.8,4.8-5.4v-1.5h0c-1,1.8-2.5,2.7-4.5,2.7c-1.7,0-3-0.6-4-1.9
		c-1-1.3-1.5-2.9-1.5-5c0-2.4,0.5-4.3,1.6-5.7c1.1-1.4,2.6-2.1,4.4-2.1c1.8,0,3.1,0.7,3.9,2.2h0v-1.9h2.3V265.8z M569,258.6
		c0-1.1-0.3-2-1-2.8c-0.7-0.8-1.5-1.2-2.6-1.2c-1.3,0-2.3,0.5-3,1.5c-0.7,1-1.1,2.4-1.1,4.1c0,1.5,0.3,2.7,1,3.6
		c0.7,0.9,1.6,1.4,2.7,1.4c1.1,0,2.1-0.4,2.8-1.3c0.7-0.9,1.1-2,1.1-3.4V258.6z M586.5,260.6h-9.2c0,1.5,0.4,2.7,1.2,3.5
		c0.7,0.8,1.8,1.2,3.1,1.2c1.5,0,2.8-0.5,4.1-1.5v2.2c-1.2,0.9-2.7,1.3-4.6,1.3c-1.9,0-3.4-0.6-4.5-1.9c-1.1-1.3-1.6-3.1-1.6-5.4
		c0-2.1,0.6-3.9,1.8-5.3c1.2-1.4,2.6-2.1,4.4-2.1c1.7,0,3.1,0.6,4,1.8c1,1.2,1.5,2.8,1.5,5V260.6z M584.2,258.6
		c0-1.3-0.3-2.3-0.8-2.9c-0.6-0.7-1.3-1-2.4-1c-0.9,0-1.7,0.4-2.4,1.1c-0.7,0.7-1.1,1.7-1.3,2.9H584.2z"/>
	<path class="st2" d="M95.9,70.5h-5.8l-6.5-9.9c-0.2-0.3-0.4-0.6-0.6-1.2H83v11.1h-4.5V47.8H83v10.7h0.1c0.2-0.5,0.4-0.9,0.6-1.2
		l6.1-9.5h5.4l-7.6,10.8L95.9,70.5z"/>
	<polygon class="st2" points="110.9,70.5 98.3,70.5 98.3,47.8 110.4,47.8 110.4,51.7 102.8,51.7 102.8,57.1 109.9,57.1 109.9,61 
		102.8,61 102.8,66.5 110.9,66.5 	"/>
	<path class="st2" d="M133.7,70.5H129l-9-14.7c-0.5-0.8-0.8-1.4-1-1.8h-0.1c0.1,0.8,0.1,2,0.1,3.6v12.9h-4.3V47.8h5l8.7,14.3
		c0.6,0.9,0.9,1.5,1.1,1.8h0.1c-0.1-0.5-0.1-1.6-0.1-3.1V47.8h4.3V70.5z"/>
	<polygon class="st2" points="154.1,50.4 143.2,66.5 154.1,66.5 154.1,70.5 137,70.5 137,67.8 148.1,51.7 137.8,51.7 137.8,47.8 
		154.1,47.8 	"/>
	<path class="st2" d="M174.2,50.6c-1.9-2.2-4.3-3.2-7.4-3.2c-3.2,0-5.8,1.1-7.7,3.3c-2,2.2-2.9,5.1-2.9,8.7c0,3.4,1,6.1,2.9,8.2
		c1.9,2.1,4.4,3.2,7.4,3.2c3.1,0,5.7-1.1,7.6-3.3c1.9-2.2,2.9-5.1,2.9-8.6C177,55.6,176.1,52.8,174.2,50.6z M170.7,64.7
		c-1,1.3-2.4,2-4.2,2c-1.7,0-3.1-0.7-4.1-2.1c-1-1.4-1.5-3.2-1.5-5.4c0-2.2,0.5-4.1,1.5-5.5c1-1.4,2.4-2.1,4.2-2.1
		c1.8,0,3.1,0.7,4.1,2.1c1,1.4,1.4,3.2,1.4,5.6C172.2,61.5,171.7,63.3,170.7,64.7z"/>
	<path class="st2" d="M204.8,69.7c-1.6,0.8-3.6,1.2-6.1,1.2c-3.2,0-5.8-1-7.6-3.1c-1.9-2-2.8-4.8-2.8-8.2c0-3.6,1.1-6.5,3.2-8.8
		c2.1-2.3,4.8-3.4,8.2-3.4c2.1,0,3.8,0.3,5.2,0.9v4.7c-1.4-0.9-3.1-1.3-4.9-1.3c-2.1,0-3.8,0.7-5,2.1c-1.2,1.4-1.9,3.3-1.9,5.6
		c0,2.2,0.6,4,1.8,5.4c1.2,1.4,2.8,2,4.8,2c1.9,0,3.6-0.5,5.2-1.5V69.7z"/>
	<path class="st2" d="M214.5,53.9c-0.8,0-1.8,0.1-3,0.4c-1.2,0.3-2.1,0.6-2.8,1v3.6c1.6-1.2,3.3-1.8,5.1-1.8c1.8,0,2.8,0.9,2.8,2.8
		l-4.2,0.6c-3.5,0.5-5.2,2.3-5.2,5.4c0,1.5,0.4,2.7,1.3,3.6c0.9,0.9,2,1.3,3.5,1.3c2,0,3.5-0.9,4.6-2.8h0.1v2.4h4.2v-9.8
		C220.9,56.2,218.7,53.9,214.5,53.9z M216.7,63.9c0,1-0.3,1.9-0.9,2.5c-0.6,0.7-1.3,1-2.2,1c-0.7,0-1.2-0.2-1.6-0.6
		c-0.4-0.4-0.6-0.9-0.6-1.5c0-1.3,0.8-2.1,2.4-2.3l2.9-0.4V63.9z"/>
	<path class="st2" d="M234.6,50.1c-0.6-0.3-1.2-0.4-1.7-0.4c-1.5,0-2.3,0.9-2.3,2.7v1.8h3.5v3.5h-3.5v12.7h-4.4V57.8h-2.5v-3.5h2.5
		v-2.1c0-1.8,0.6-3.3,1.7-4.4c1.1-1.1,2.6-1.7,4.4-1.7c0.9,0,1.7,0.1,2.3,0.3V50.1z"/>
	<polygon class="st2" points="247.5,46.6 242.9,51.7 239.7,51.7 243.5,46.6 	"/>
	<path class="st2" d="M250.2,61.7c0-2.4-0.6-4.3-1.8-5.7c-1.2-1.4-2.9-2.1-5.1-2.1c-2.2,0-4,0.8-5.4,2.4c-1.4,1.6-2.1,3.7-2.1,6.3
		c0,2.6,0.7,4.6,2,6.1c1.3,1.5,3.2,2.2,5.7,2.2c2.2,0,4.1-0.4,5.5-1.2v-3.5c-1.3,0.9-2.8,1.3-4.4,1.3c-2.7,0-4.1-1.3-4.3-3.8h10
		V61.7z M240.2,60.8c0.1-1.1,0.5-2,1.1-2.6c0.6-0.7,1.3-1,2-1c1.8,0,2.8,1.2,2.8,3.6H240.2z"/>
	<line class="st2" x1="97.3" y1="171" x2="101.7" y2="171"/>
	<path class="st2" d="M93.7,194.2c-1.6,0.8-3.6,1.2-6.1,1.2c-3.2,0-5.8-1-7.6-3.1c-1.9-2-2.8-4.8-2.8-8.2c0-3.6,1.1-6.5,3.2-8.8
		c2.1-2.3,4.8-3.4,8.2-3.4c2.1,0,3.8,0.3,5.2,0.9v4.7c-1.4-0.9-3.1-1.3-4.9-1.3c-2.1,0-3.8,0.7-5,2.1c-1.2,1.4-1.9,3.3-1.9,5.6
		c0,2.2,0.6,4,1.8,5.4c1.2,1.4,2.8,2,4.8,2c1.9,0,3.6-0.5,5.2-1.5V194.2z"/>
	<path class="st2" d="M101.7,171v10.2h0.1c1.2-1.9,2.7-2.8,4.7-2.8c3.5,0,5.2,2.2,5.2,6.7v9.9h-4.4v-9.2c0-2.5-0.9-3.7-2.6-3.7
		c-0.9,0-1.6,0.3-2.1,1c-0.6,0.7-0.8,1.6-0.8,2.7v9.2h-4.4v-24"/>
	<path class="st2" d="M121.9,178.4c-0.8,0-1.8,0.1-3,0.4c-1.2,0.3-2.1,0.6-2.8,1v3.6c1.6-1.2,3.3-1.8,5.1-1.8c1.8,0,2.8,0.9,2.8,2.8
		l-4.2,0.6c-3.5,0.5-5.2,2.3-5.2,5.4c0,1.5,0.4,2.7,1.3,3.6c0.9,0.9,2,1.3,3.5,1.3c2,0,3.5-0.9,4.6-2.8h0.1v2.4h4.2v-9.8
		C128.3,180.6,126.1,178.4,121.9,178.4z M124.1,188.4c0,1-0.3,1.9-0.9,2.5c-0.6,0.7-1.3,1-2.2,1c-0.7,0-1.2-0.2-1.6-0.6
		c-0.4-0.4-0.6-0.9-0.6-1.5c0-1.3,0.8-2.1,2.4-2.3l2.9-0.4V188.4z"/>
	<path class="st2" d="M156.2,195h-4.4v-9.2c0-2.5-0.8-3.7-2.5-3.7c-0.8,0-1.4,0.4-2,1.1c-0.5,0.8-0.8,1.7-0.8,2.8v9.1h-4.4v-9.4
		c0-2.4-0.8-3.6-2.5-3.6c-0.8,0-1.5,0.4-2,1.1c-0.5,0.7-0.8,1.7-0.8,2.8v9h-4.4v-16.2h4.4v2.5h0.1c0.5-0.9,1.2-1.6,2.1-2.2
		c0.9-0.5,1.8-0.8,2.8-0.8c2.1,0,3.6,1,4.4,3.1c1.2-2,2.9-3.1,5.1-3.1c3.3,0,5,2.2,5,6.5V195z"/>
	<path class="st2" d="M174.3,180.5c-1.1-1.4-2.6-2.2-4.5-2.2c-2.1,0-3.8,1-4.9,2.9h-0.1v-2.5h-4.4v23.7h4.4V193h0.1
		c1,1.6,2.4,2.3,4.2,2.3c2.1,0,3.7-0.8,5-2.4c1.3-1.6,1.9-3.8,1.9-6.5C176,183.9,175.4,182,174.3,180.5z M170.5,190.4
		c-0.6,0.9-1.5,1.4-2.6,1.4c-0.9,0-1.7-0.4-2.3-1.1c-0.6-0.7-0.9-1.7-0.9-2.8v-1.4c0-1.3,0.3-2.3,1-3.2c0.6-0.8,1.5-1.2,2.5-1.2
		c2.2,0,3.3,1.5,3.3,4.5C171.4,188.1,171.1,189.4,170.5,190.4z"/>
	<path class="st2" d="M185.5,178.4c-0.8,0-1.8,0.1-3,0.4c-1.2,0.3-2.1,0.6-2.8,1v3.6c1.6-1.2,3.3-1.8,5.1-1.8c1.8,0,2.8,0.9,2.8,2.8
		l-4.2,0.6c-3.5,0.5-5.2,2.3-5.2,5.4c0,1.5,0.4,2.7,1.3,3.6c0.9,0.9,2,1.3,3.5,1.3c2,0,3.5-0.9,4.6-2.8h0.1v2.4h4.2v-9.8
		C191.9,180.6,189.7,178.4,185.5,178.4z M187.7,188.4c0,1-0.3,1.9-0.9,2.5c-0.6,0.7-1.3,1-2.2,1c-0.7,0-1.2-0.2-1.6-0.6
		c-0.4-0.4-0.6-0.9-0.6-1.5c0-1.3,0.8-2.1,2.4-2.3l2.9-0.4V188.4z"/>
	<path class="st2" d="M206.3,178.8v1.9h-0.1c-0.9-1.6-2.3-2.3-4.2-2.3c-2.1,0-3.7,0.8-5,2.4c-1.3,1.6-1.9,3.8-1.9,6.5
		c0,2.4,0.6,4.4,1.7,5.8c1.2,1.5,2.7,2.2,4.6,2.2c2.1,0,3.7-0.9,4.8-2.8h0.1v1.3c0,1.6-0.4,2.9-1.3,3.8c-0.9,0.9-2.1,1.4-3.7,1.4
		c-1.6,0-3.2-0.5-4.8-1.5v4c1.2,0.6,2.8,0.9,4.9,0.9c3,0,5.4-0.8,7-2.4c1.6-1.6,2.4-3.9,2.4-7v-14.4H206.3z M206.3,187.3
		c0,1.3-0.3,2.4-1,3.2c-0.6,0.8-1.5,1.2-2.5,1.2c-1,0-1.8-0.4-2.4-1.2c-0.6-0.8-0.9-1.9-0.9-3.3c0-1.6,0.3-2.9,0.9-3.8
		c0.6-0.9,1.5-1.4,2.6-1.4c0.9,0,1.7,0.4,2.3,1.1c0.6,0.7,0.9,1.6,0.9,2.7V187.3z"/>
	<path class="st2" d="M229.5,195H225v-9c0-2.6-0.9-3.9-2.7-3.9c-0.8,0-1.5,0.3-2.1,1c-0.6,0.7-0.8,1.6-0.8,2.7v9.2H215v-16.2h4.4
		v2.6h0.1c1.1-2,2.7-3,4.9-3c3.4,0,5.1,2.2,5.1,6.7V195z"/>
	<path class="st2" d="M247.1,186.2c0-2.4-0.6-4.3-1.8-5.7c-1.2-1.4-2.9-2.1-5.1-2.1c-2.2,0-4,0.8-5.4,2.4c-1.4,1.6-2.1,3.7-2.1,6.3
		c0,2.6,0.7,4.6,2,6.1c1.3,1.5,3.2,2.2,5.7,2.2c2.2,0,4.1-0.4,5.5-1.2v-3.5c-1.3,0.9-2.8,1.3-4.4,1.3c-2.7,0-4.1-1.3-4.3-3.8h10
		V186.2z M237,185.2c0.1-1.1,0.5-2,1.1-2.6c0.6-0.7,1.3-1,2-1c1.8,0,2.8,1.2,2.8,3.6H237z"/>
	<polygon class="st2" points="271.9,195 259.4,195 259.4,172.3 263.9,172.3 263.9,191 271.9,191 	"/>
	<path class="st2" d="M287.9,180.6c-1.4-1.5-3.4-2.2-5.8-2.2c-2.5,0-4.6,0.8-6.1,2.3c-1.5,1.5-2.3,3.6-2.3,6.3
		c0,2.6,0.7,4.7,2.2,6.2c1.5,1.5,3.4,2.3,5.9,2.3c2.5,0,4.5-0.8,6-2.4c1.5-1.6,2.2-3.7,2.2-6.3C290,184.1,289.3,182.1,287.9,180.6z
		 M282,191.7c-2.5,0-3.7-1.6-3.7-4.8c0-1.6,0.3-2.8,1-3.6c0.6-0.8,1.6-1.3,2.7-1.3c2.4,0,3.6,1.6,3.6,4.7
		C285.5,190.1,284.3,191.7,282,191.7z"/>
	<path class="st2" d="M307.7,195h-4.4v-2.5h-0.1c-1.1,1.9-2.7,2.9-4.7,2.9c-3.5,0-5.3-2.3-5.3-6.8v-9.8h4.4v9.3
		c0,2.4,0.9,3.6,2.7,3.6c0.9,0,1.6-0.3,2.1-1c0.5-0.7,0.8-1.6,0.8-2.7v-9.3h4.4V195z"/>
	<path class="st2" d="M326.5,195h-4.4v-9c0-2.6-0.9-3.9-2.7-3.9c-0.8,0-1.5,0.3-2.1,1c-0.6,0.7-0.8,1.6-0.8,2.7v9.2H312v-16.2h4.4
		v2.6h0.1c1.1-2,2.7-3,4.9-3c3.4,0,5.1,2.2,5.1,6.7V195z"/>
	<path class="st2" d="M340.8,178.8v1.9h-0.1c-0.9-1.6-2.3-2.3-4.2-2.3c-2.1,0-3.7,0.8-5,2.4c-1.3,1.6-1.9,3.8-1.9,6.5
		c0,2.4,0.6,4.4,1.7,5.8c1.2,1.5,2.7,2.2,4.6,2.2c2.1,0,3.7-0.9,4.8-2.8h0.1v1.3c0,1.6-0.4,2.9-1.3,3.8c-0.9,0.9-2.1,1.4-3.7,1.4
		c-1.6,0-3.2-0.5-4.8-1.5v4c1.2,0.6,2.8,0.9,4.9,0.9c3,0,5.4-0.8,7-2.4c1.6-1.6,2.4-3.9,2.4-7v-14.4H340.8z M340.9,187.3
		c0,1.3-0.3,2.4-1,3.2c-0.6,0.8-1.5,1.2-2.5,1.2c-1,0-1.8-0.4-2.4-1.2s-0.9-1.9-0.9-3.3c0-1.6,0.3-2.9,0.9-3.8
		c0.6-0.9,1.5-1.4,2.6-1.4c0.9,0,1.7,0.4,2.3,1.1c0.6,0.7,0.9,1.6,0.9,2.7V187.3z"/>
	<path class="st2" d="M363.1,186.2c0-2.4-0.6-4.3-1.8-5.7c-1.2-1.4-2.9-2.1-5.1-2.1c-2.2,0-4,0.8-5.4,2.4c-1.4,1.6-2.1,3.7-2.1,6.3
		c0,2.6,0.7,4.6,2,6.1c1.3,1.5,3.2,2.2,5.7,2.2c2.2,0,4.1-0.4,5.5-1.2v-3.5c-1.3,0.9-2.8,1.3-4.4,1.3c-2.7,0-4.1-1.3-4.3-3.8h10
		V186.2z M353.1,185.2c0.1-1.1,0.5-2,1.1-2.6c0.6-0.7,1.3-1,2-1c1.8,0,2.8,1.2,2.8,3.6H353.1z"/>
</g>
<g>
</g>
<g>
</g>
<g>
</g>
<g>
</g>
<g>
</g>
<g>
</g>
<g>
</g>
<g>
</g>
<g>
</g>
<g>
</g>
<g>
</g>
<g>
</g>
<g>
</g>
<g>
</g>
<g>
</g>
</svg>
