<?xml version="1.0" encoding="utf-8"?>
<!-- Generator: Adobe Illustrator 17.0.0, SVG Export Plug-In . SVG Version: 6.00 Build 0)  -->
<!DOCTYPE svg PUBLIC "-//W3C//DTD SVG 1.1//EN" "http://www.w3.org/Graphics/SVG/1.1/DTD/svg11.dtd">
<svg version="1.1" id="Layer_1" xmlns="http://www.w3.org/2000/svg" xmlns:xlink="http://www.w3.org/1999/xlink" x="0px" y="0px"
	 width="720px" height="350px" viewBox="0 0 720 350" style="enable-background:new 0 0 720 350;" xml:space="preserve">
<style type="text/css">
	.st0{fill-rule:evenodd;clip-rule:evenodd;fill:#FFAFD7;}
	.st1{fill-rule:evenodd;clip-rule:evenodd;fill:#A13671;}
	.st2{fill:#FFFFFF;}
	.st3{fill:none;}
</style>
<g id="page-huodong-3-header.svg">
	<g>
		<polygon class="st0" points="0,328.5 241,117 107.7,0 0,0 		"/>
		<polygon class="st1" points="0,306.7 240,96 130.6,0 0,0 		"/>
		<path class="st2" d="M62.2,38v5.6c-1.8,3.1-3.9,5.9-6.4,8.4c3,1.4,5.9,2.8,8.8,4.1l-3.5,6.3c-3.1-1.8-6.6-3.8-10.4-6
			c-3,2.2-6.4,4.1-10.1,5.7c-1.1-2.1-2.2-4.1-3.5-6c7.7-3.2,13.2-7.1,16.5-11.8H39V38H62.2z M37.4,138.2c5.5-0.7,11.4-1.6,17.7-2.7
			c-0.2,1.2-0.3,2.5-0.4,3.8c-6.9,1-12.4,2-16.4,2.8L37.4,138.2z M86.7,45.1c-0.2,15.8-0.4,26.7-0.5,32.6c-0.2,6.2-2.6,9.4-7.4,9.7
			c-1.5,0.1-3.5,0.2-6.3,0.3c-0.5-2.9-1-5.4-1.5-7.5c2.3,0.1,3.9,0.2,4.9,0.2c2.1,0,3.2-1.4,3.4-4.2c0.3-5,0.4-13,0.4-24h-5.4
			c-0.1,3.3-0.2,6-0.3,8.2C73.5,73.5,70.5,83,65,88.8c-1.7-1.7-3.5-3.4-5.7-5.1c0.7-0.7,1.4-1.5,2-2.3c-7.7,1.3-15.3,2.7-22.7,4
			l-1.1-6.8c3.2-0.4,6.4-0.8,9.7-1.2v-8.5h-7.5v-6.3h22.4v6.3h-8.1v7.5c2.9-0.5,5.9-1,9-1.5c-0.1,0.9-0.2,2.4-0.3,4.3
			c2.7-4.7,4.2-11.3,4.6-19.7c0.1-1.7,0.2-4.1,0.3-7.3h-4.7v-7h4.8c0-2.6,0-5.6,0-8.9h6.8c0,3.3,0,6.2-0.1,8.9H86.7L86.7,45.1z
			 M55.2,109.6c-3.4,6.4-7.1,12.3-11,17.8c2.6-0.2,5.8-0.5,9.6-1c-0.2,1.1-0.3,2.4-0.4,3.8c-4.7,0.4-9.2,0.8-13.6,1.5l-0.7-3.6
			c2.4-2.6,4.9-6.2,7.5-10.8c-3,0.2-5.6,0.4-7.9,0.6l-1-3.4c3.2-5.1,6.1-11.2,8.8-18.2l4,1.5c-2.6,5.4-5.4,10.9-8.4,16.4
			c2-0.1,4.1-0.2,6.4-0.4c1-1.8,1.9-3.7,2.9-5.8L55.2,109.6L55.2,109.6z M55,125.4h32.5v3.7H76.6v11.7c0,1.7,0.7,2.5,2,2.5h2.3
			c1.7,0,2.6-0.9,3-2.6c0.3-1.6,0.5-3.8,0.7-6.6c1.3,0.6,2.6,1.2,3.8,1.6c-0.3,2.7-0.7,4.9-1,6.5c-0.6,3.2-2.4,4.8-5.6,4.8h-4.1
			c-3.2,0-4.9-1.9-4.9-5.8v-12h-7c-0.3,9-4.1,15.5-11.5,19.5c-0.7-1.2-1.6-2.4-2.6-3.6c6.6-3.2,10-8.5,10.2-15.9H55V125.4z
			 M55.9,122.4c-0.7-1.5-1.5-2.7-2.2-3.7c5.4-1.1,10.2-2.4,14.5-4.1c-1.4-2-2.6-4.4-3.7-7l-9.3,1.3l-0.5-3.7l8.4-1.2
			c-0.7-2.2-1.3-4.5-1.8-7l3.7-1.1c0.6,2.7,1.2,5.2,2,7.5l18.6-2.6l0.5,3.7L68.5,107c1,2.3,2.2,4.3,3.5,6c3.9-1.8,7.3-3.8,10.1-6.2
			l2.6,2.8c-2.9,2.3-6.3,4.4-10.1,6.2c1.7,1.5,3,2.5,3.9,2.9c0.9,0.5,1.9,0.8,3.1,0.9c1-0.1,1.8-0.8,2.2-2c0.5-1.5,1-3.4,1.4-5.9
			c1.4,0.7,2.7,1.2,3.8,1.6c-0.5,2.3-1.1,4.4-1.7,6.1c-1.2,2.5-3,3.8-5.5,3.9c-1.7-0.1-3-0.4-4-0.8c-2.6-1-5-2.6-7.1-4.9
			C66.3,119.5,61.4,121.1,55.9,122.4L55.9,122.4z M123,132.5c5,4.6,11.9,7.8,20.5,9.5c-0.9,1.1-1.8,2.5-2.9,4.1
			c-9.1-2.8-16.3-7.1-21.4-13.1v15.6h-3.9v-15.7c-4.8,5.3-11.8,9.9-20.8,13.8c-1-1.6-1.9-2.7-2.7-3.5c7.7-2.6,14.1-6.2,19.4-10.7
			H92.7v-3.6h22.7v-4.5h3.9v4.5h23.4v3.6H123L123,132.5z M94.2,41.4h20.2c-0.4-1.3-1-2.7-1.5-4.2l7.3-1.3c0.7,1.7,1.4,3.6,2.1,5.5
			h19v5.9h-12.5l4,2l-2.4,3h12.8v5.9H92.1v-5.9H105c-0.7-1-1.4-2-2.3-3.1l4.1-1.9H94.2V41.4z M94.6,104.4c2.8,1.3,5.8,2.9,9,4.7
			l-2.2,3.7c-3.2-2-6.2-3.7-8.7-4.9L94.6,104.4z M94.7,123.3c3.6-3.1,7.2-6.7,10.7-10.8c0.6,1.2,1.4,2.4,2.3,3.6
			c-3.8,3.9-7.1,7.3-9.9,10.2L94.7,123.3L94.7,123.3z M99.4,96.1c3.5,1.7,6.5,3.4,9.2,5l-2.4,3.4c-2.5-1.7-5.4-3.4-8.9-5.4
			L99.4,96.1z M98.1,88.3V61.4h39v26.9h-7.1v-2.6h-24.9v2.6H98.1z M130.1,67.1h-24.9v3.8h24.9V67.1z M105.2,80.1h24.9v-3.8h-24.9
			V80.1z M111.8,98.9h24.3c-0.1,2.9-0.3,5.7-0.4,8.4l3-1.4c1.7,3.1,3.4,6.4,4.9,9.9l-3.3,1.8c-1.2-3.1-2.8-6.3-4.6-9.7
			c-0.1,2.9-0.3,5.6-0.4,8.3c-0.3,5.3-2.9,7.9-7.6,7.9c-1.5,0-3.4-0.1-5.7-0.2c-0.2-1.6-0.4-3-0.8-4.2c2.1,0.3,4.1,0.4,6.1,0.5
			c2.7,0.1,4.1-1.4,4.3-4.4c0.3-4.1,0.5-8.6,0.7-13.3h-8.4c-0.4,6.3-1.4,10.9-3.1,13.8c-1.8,3.4-5.5,6.6-11.1,9.7
			c-0.8-1.2-1.6-2.2-2.6-3.2c5.3-2.6,8.8-5.4,10.4-8.4c1.6-2.6,2.5-6.6,2.8-11.9h-8.3V98.9z M111.2,115.7c-0.6-0.5-1.6-1.1-3-2
			c1.9-2.8,3.6-5.6,5-8.4l3.2,1.6C114.7,110.2,113,113.2,111.2,115.7L111.2,115.7z M109.7,47.3c1.4,1.7,2.7,3.4,3.8,5h8.6
			c1.3-1.7,2.4-3.3,3.5-5H109.7L109.7,47.3z"/>
	</g>
	<rect class="st3" width="720" height="350"/>
</g>
<g>
</g>
<g>
</g>
<g>
</g>
<g>
</g>
<g>
</g>
<g>
</g>
<g>
</g>
<g>
</g>
<g>
</g>
<g>
</g>
<g>
</g>
<g>
</g>
<g>
</g>
<g>
</g>
<g>
</g>
</svg>
