<?xml version="1.0" encoding="utf-8"?>
<!-- Generator: Adobe Illustrator 17.0.0, SVG Export Plug-In . SVG Version: 6.00 Build 0)  -->
<!DOCTYPE svg PUBLIC "-//W3C//DTD SVG 1.1//EN" "http://www.w3.org/Graphics/SVG/1.1/DTD/svg11.dtd">
<svg version="1.1" id="Layer_1" xmlns="http://www.w3.org/2000/svg" xmlns:xlink="http://www.w3.org/1999/xlink" x="0px" y="0px"
	 width="720px" height="67.5px" viewBox="0 0 720 67.5" style="enable-background:new 0 0 720 67.5;" xml:space="preserve">
<style type="text/css">
	.st0{fill:none;}
</style>
<g id="page-06-info.svg">
	<rect x="0" y="0" class="st0" width="720" height="67.5"/>
	<g>
		<path d="M240.3,40.4c-1.2,2.2-2.3,4-3.3,5.2l-1.7-1.2c1.1-1.4,2.1-3.1,3.2-5L240.3,40.4z M238.5,29.3h7.7v-7.7h2.1v2.9h10.9v1.8
			h-10.9v3h8.6v9.3h-2v-1h-14.4v1h-2V29.3z M254.8,31.1h-14.4v4.8h14.4V31.1z M244.4,39.3c0.7,1.6,1.4,3.4,2,5.2l-2,0.7
			c-0.5-1.8-1.1-3.5-1.7-5.2L244.4,39.3z M250.2,39.1c0.8,1.6,1.5,3.3,2.1,5.1l-1.9,0.8c-0.5-1.5-1.1-3.2-2-5.1L250.2,39.1z
			 M256.2,39.2c1.3,2,2.3,3.7,3.1,5.3l-1.9,1c-0.8-1.7-1.8-3.5-3-5.4L256.2,39.2z"/>
		<path d="M280.1,45.7v-1h-17.2v-8.3h2.1v6.5h6.4v-8.6h-10.9v-1.9h10.9V28h-9.1v-1.9h9.1v-4.4h2.1v4.4h9.2V28h-9.2v4.4h10.9v1.9
			h-10.9v8.6h6.5v-6.5h2.1v9.4H280.1z"/>
		<path d="M286.2,28.4v-1.8h9.7v1.8c-1,1.7-2.1,3.3-3.4,4.9v12.5h-1.9V35.3c-1.4,1.4-3,2.8-4.7,4.1c-0.3-1-0.5-1.7-0.6-2.1
			c3.7-2.7,6.5-5.6,8.4-8.9H286.2z M289.5,22.7l1.5-1c0.9,1.1,1.7,2.1,2.6,3.2L292,26C291.2,24.9,290.4,23.8,289.5,22.7z M293,34.5
			l1.1-1.3c1.4,1,2.8,2,4.2,3.2l-1.2,1.5C295.8,36.7,294.4,35.5,293,34.5z M299.6,22.1h2v19.5c0,1.1,0.6,1.6,1.7,1.6h2.1
			c1.2,0,1.9-0.6,2-1.7c0.1-1.1,0.3-2.7,0.3-4.6c0.7,0.3,1.4,0.6,2,0.8c-0.2,2.3-0.4,4-0.6,4.9c-0.3,1.7-1.5,2.5-3.6,2.5h-2.6
			c-2.2,0-3.3-1.1-3.3-3.2V22.1z"/>
		<path d="M311.6,34.5h9.3v11.3h-1.9v-1.6h-5.6v1.6h-1.9V34.5z M319.1,36.2h-5.6v6.3h5.6V36.2z M314,22.8h16.8v9.7h-2v-0.8H316v0.8
			h-2V22.8z M328.9,24.5H316V30h12.9V24.5z M324,34.5h9.3v11.3h-1.9v-1.7h-5.6v1.7H324V34.5z M331.4,36.2h-5.6v6.3h5.6V36.2z"/>
		<path d="M336.6,22.7h21.5v23h-1.8v-1.2h-17.9v1.2h-1.8V22.7z M356.4,24.5h-17.9v18.3h17.9V24.5z M339.3,30.4
			c2.2-1.6,4.1-3.5,5.5-5.7l1.6,0.8c-0.3,0.4-0.6,0.9-1,1.3h8.6v1.4c-1.2,1.4-2.7,2.8-4.6,3.9c1.7,0.6,3.8,1,6.3,1.4
			c-0.4,0.7-0.6,1.3-0.8,1.8c-2.9-0.7-5.3-1.4-7.3-2.2c-2,0.9-4.6,1.8-7.9,2.6c-0.2-0.5-0.5-1.1-0.8-1.6c2.9-0.6,5.2-1.3,7.1-2
			c-1.1-0.8-2.1-1.7-3-2.7c-0.8,0.7-1.6,1.5-2.5,2.2C340.2,31.3,339.8,30.9,339.3,30.4z M341.1,39.9l0.5-1.7c4.1,0.5,8,1.2,11.7,1.9
			l-0.7,1.9C349.1,41.1,345.2,40.5,341.1,39.9z M343.6,36.6l0.5-1.6c2.4,0.4,4.9,0.8,7.5,1.2l-0.5,1.7C348.5,37.4,346,37,343.6,36.6
			z M351.7,28.3h-7.5c0,0,0,0.1-0.1,0.1c0.9,1.2,2.1,2.2,3.6,3C349.3,30.5,350.7,29.5,351.7,28.3z"/>
		<path d="M364.9,22.3h2.1v6.6h8.8v-7.1h2.1v7.1h6.5v1.8H367c0,1,0,2.5-0.1,4.3h12v10.6h-2.1v-8.8h-10.1c-0.3,3.5-1.7,6.5-4.1,8.9
			c-0.4-0.6-1-1.2-1.5-1.7c1.5-1.6,2.5-3.2,3-4.8c0.5-1.4,0.8-3.7,0.8-6.9V22.3z"/>
		<path d="M396.8,30.8c2.8-1.7,5.4-3.5,7.8-5.2h-18.3v-2H408V26c-2.9,2-5.9,4-8.9,5.9v9c0,1.6-0.3,2.7-0.9,3.3c-0.6,0.7-1.7,1-3.3,1
			c-0.9,0-2.2,0-4-0.1c-0.1-0.8-0.2-1.6-0.4-2.4c1.6,0.2,3,0.3,4.2,0.3c1.5,0,2.2-0.7,2.2-2.2V30.8z"/>
		<path d="M410.3,28.6c1.8-2,3.2-4.3,4.3-6.9l1.7,0.5c-0.3,0.7-0.7,1.3-1,2h4.6v1.5l-1.8,2.6h3.1V43c0,1.6-0.8,2.5-2.4,2.5
			c-0.7,0-1.4,0-2.2,0c0-0.4-0.1-1-0.3-1.6c0.8,0.1,1.5,0.1,2.1,0.1c0.8,0,1.2-0.4,1.2-1.1v-4h-2.2v4.5h-1.6v-4.5h-2.2
			c-0.1,3.1-0.8,5.4-2,7c-0.4-0.4-0.8-0.8-1.4-1.2c1.2-1.8,1.8-4.2,1.8-7.2v-8.3c-0.2,0.3-0.5,0.6-0.7,0.8
			C411.2,29.6,410.8,29.1,410.3,28.6z M412.7,28.3h3.4l1.8-2.6h-3.5C413.9,26.6,413.3,27.5,412.7,28.3z M413.7,32.8h2.1v-3.1h-2.1
			V32.8z M413.7,37.4h2.1v-3.1h-2.1V37.4z M419.6,29.7h-2.2v3.1h2.2V29.7z M417.4,37.4h2.2v-3.1h-2.2V37.4z M422.2,23h11
			c0,1.6-0.1,3.1-0.2,4.5c-0.1,2-1.2,3-3.1,3c-0.7,0-1.5,0-2.5-0.1c-0.1-0.7-0.2-1.3-0.3-2c1.2,0.1,2.1,0.2,2.8,0.2
			c0.9,0,1.4-0.5,1.4-1.4c0.1-0.7,0.1-1.6,0.2-2.6h-4.6c-0.1,1.6-0.3,2.9-0.9,3.9c-0.6,1.1-1.7,2.2-3.3,3.2
			c-0.3-0.4-0.7-0.9-1.2-1.6c1.4-0.7,2.3-1.5,2.8-2.4c0.4-0.7,0.7-1.7,0.7-3.1h-2.7V23z M422,39h5.8v-3.5h-3
			c-0.4,0.9-0.7,1.8-1.1,2.6c-0.5-0.3-1-0.5-1.6-0.7c0.9-2,1.6-3.9,2.2-5.9l1.7,0.5c-0.2,0.7-0.4,1.3-0.6,1.9h2.4v-2.6h1.8v2.6h4.4
			v1.7h-4.4V39h5v1.7h-5v5.1h-1.8v-5.1H422V39z"/>
		<path d="M443.3,39.9c0,0.5,0.1,1.2,0.2,2.1c-2.3,1.4-3.9,2.6-4.9,3.4l-1.1-1.6c0.6-0.5,0.8-1.2,0.8-2.1v-9.7h-3v-1.8h4.8v11.8
			C441.1,41.3,442.2,40.6,443.3,39.9z M437.6,22.2c1.4,1.5,2.7,2.8,3.9,4.1l-1.7,1.4c-1.2-1.5-2.4-2.9-3.6-4.2L437.6,22.2z
			 M442.1,37.2h7.6v-3.6h-6.2v-1.8h6.2v-3.6h-6.9v-1.8h8.8c1.4-1.8,2.5-3.3,3.2-4.7l2,1.2c-0.8,0.9-1.7,2.1-2.9,3.5h5.2v1.8h-7.2
			v3.6h6.5v1.8h-6.5v3.6h7.9V39h-7.9v6.8h-2V39h-7.6V37.2z M444.7,22.8l1.5-1.1c1,1.2,2,2.3,2.9,3.3l-1.7,1.2
			C446.5,25,445.6,23.9,444.7,22.8z"/>
		<path d="M461.2,27.4l1.6,0.2c-0.2,2-0.5,4.1-0.9,6.3c-0.4-0.1-0.9-0.2-1.6-0.3C460.7,31.9,461,29.9,461.2,27.4z M463.6,21.8h1.7v5
			l0.9-0.7c0.8,1,1.6,1.9,2.2,2.7l-1.4,1c-0.5-0.7-1.1-1.6-1.8-2.5v18.3h-1.7V21.8z M467.5,30.2h7.5v-1.7h-6.2V27h6.2v-1.6h-6.8
			v-1.5h6.8v-2.2h1.9v2.2h7.3v1.5h-7.3V27h6.6v1.5h-6.6v1.7h7.8v1.5h-17.2V30.2z M470.9,45.6h-1.9V33.2h13.7v9.4
			c0,1.8-0.8,2.7-2.5,2.8c-1.1,0-2.5,0-4.2,0c-0.1-0.5-0.2-1.1-0.4-1.9c1.5,0.1,2.8,0.1,3.8,0.1c0.9,0,1.3-0.4,1.3-1.2v-1.3h-10
			V45.6z M480.9,34.8h-10v1.7h10V34.8z M470.9,39.7h10V38h-10V39.7z"/>
	</g>
</g>
<g>
</g>
<g>
</g>
<g>
</g>
<g>
</g>
<g>
</g>
<g>
</g>
<g>
</g>
<g>
</g>
<g>
</g>
<g>
</g>
<g>
</g>
<g>
</g>
<g>
</g>
<g>
</g>
<g>
</g>
</svg>
