<?xml version="1.0" encoding="utf-8"?>
<!-- Generator: Adobe Illustrator 17.0.0, SVG Export Plug-In . SVG Version: 6.00 Build 0)  -->
<!DOCTYPE svg PUBLIC "-//W3C//DTD SVG 1.1//EN" "http://www.w3.org/Graphics/SVG/1.1/DTD/svg11.dtd">
<svg version="1.1" id="Layer_1" xmlns="http://www.w3.org/2000/svg" xmlns:xlink="http://www.w3.org/1999/xlink" x="0px" y="0px"
	 width="720px" height="667.1px" viewBox="0 0 720 667.1" style="enable-background:new 0 0 720 667.1;" xml:space="preserve">
<style type="text/css">
	.st0{fill-rule:evenodd;clip-rule:evenodd;fill:#A13671;}
	.st1{fill-rule:evenodd;clip-rule:evenodd;fill:#A83F79;}
	.st2{fill-rule:evenodd;clip-rule:evenodd;fill:#9B326B;}
	.st3{fill-rule:evenodd;clip-rule:evenodd;fill:#A73D77;}
	.st4{fill-rule:evenodd;clip-rule:evenodd;fill:#AD467F;}
	.st5{fill:#FFFFFF;}
	.st6{fill:none;}
</style>
<g id="page-huodong-3-content.svg">
	<g>
		<rect x="162" y="43" class="st0" width="396" height="596"/>
		<polygon class="st1" points="540.5,639 558,626.6 558,46.3 556.1,44.2 400.3,639 		"/>
		<polygon class="st2" points="162,368.8 527.6,48.3 521.6,43 162,43 		"/>
		<polygon class="st3" points="162,271.7 162,639 407.1,639 494,562.8 		"/>
		<polygon class="st4" points="434,510.2 400.3,639 407.1,639 494,562.8 		"/>
		<path class="st5" d="M214.8,121.3h8.6c0.5-1.3,0.9-2.6,1.3-3.9l2.4,0.7c-0.3,1.1-0.7,2.2-1.1,3.2h17.1v2.3h-18
			c-1.2,2.8-2.5,5.4-4.1,7.9V148h-2.3v-13.2c-1.1,1.4-2.2,2.8-3.4,4c-0.4-0.7-0.9-1.5-1.4-2.2c3.6-4,6.4-8.3,8.5-13h-7.7V121.3z
			 M222.1,143.5h9.2v-9.3h-7.6v-2.2h7.6v-6.3h2.4v6.3h7.8v2.2h-7.8v9.3h9.4v2.2h-21V143.5z M246.1,143.2h28.4v2.6h-28.4V143.2z
			 M247.9,120.6h24.6v2.7h-24.6V120.6z M249.2,131.3h22v2.7h-22V131.3z M277.3,144.4h13.3v-4.1h-11.6v-2.2h11.6v-4.1h-8.2v1.1h-2.3
			v-16h23.3v16h-2.3v-1.1H293v4.1h11.6v2.2H293v4.1h13.5v2.2h-29.2V144.4z M278.4,494.3h23.3v-5.4h-21.5v-2.2h21.5v-5.3h-22.4v-2.2
			h11.4v-11.6h2.4v11.6h11v19.2h-2.4v-1.9h-23.3V494.3z M285.8,477.5c-1.6-2.3-3.5-4.6-5.6-6.8l1.6-1.6c2.1,2.1,4.1,4.3,5.9,6.6
			L285.8,477.5L285.8,477.5z M282.5,125.5h8.2v-4.2h-8.2V125.5z M282.5,131.9h8.2v-4.2h-8.2V131.9z M301.2,121.3H293v4.2h8.2V121.3z
			 M293,131.9h8.2v-4.2H293V131.9z M293.5,394.4H322v2.2h-28.5V394.4z M299.2,381.8c1-3.3,1.4-8,1.2-13.9h2.3
			c0,4.5-0.2,8.2-0.6,11.3c2.2,2.2,4,4,5.4,5.5l-1.8,2c-1.4-1.7-2.8-3.3-4.2-4.7c-1,4.1-3,7.9-6.1,11.7c-0.4-0.5-1-1.2-1.6-1.9
			C296.6,388.4,298.4,385.1,299.2,381.8L299.2,381.8z M303.7,470.8c-2.1,2.5-4.2,4.8-6.3,6.8l-1.8-1.7c2-1.9,4-4.2,6-6.8
			L303.7,470.8z M311.5,374.4c0-2,0.1-4.2,0.1-6.5h2.4c0,1.7,0,4-0.1,7c1.1,8,3.8,13.3,8.2,16c-0.8,0.9-1.4,1.7-1.9,2.4
			c-3.4-2.6-5.8-6.7-7.1-12.3c-1,5-3.6,9.3-7.8,12.9c-0.5-0.7-1.1-1.4-1.7-2C308.7,387.8,311.4,381.9,311.5,374.4L311.5,374.4z
			 M310.2,481.7c-0.5-0.5-1-1.1-1.6-1.8c2.9-3.8,5-7.9,6.4-12.5l2.2,0.8c-0.3,0.8-0.6,1.6-0.9,2.4h7v2.3
			c-1.4,7.9-5.4,13.9-12.2,17.9c-0.4-0.5-1-1.2-1.6-1.9c2.7-1.5,4.9-3.3,6.6-5.3c-1.3-1-2.5-2-3.8-2.9l1-1.6c1.4,0.9,2.7,1.9,4,2.9
			c0.5-0.8,1-1.6,1.4-2.3c-1.3-1-2.6-1.9-4-2.8l1-1.7c1.4,0.8,2.7,1.6,3.9,2.5c0.6-1.6,1.1-3.2,1.4-4.8h-5.6
			C313.8,476,312.1,478.9,310.2,481.7L310.2,481.7z M309.5,497.2c1.4-2.6,2.5-4.8,3.2-6.7l2.1,0.8c-0.7,1.9-1.8,4.2-3.2,6.8
			C311,497.8,310.3,497.5,309.5,497.2L309.5,497.2z M332.5,138.3v-1.7h-7.9v5.5c0,1.8,0.8,2.7,2.3,2.7h5.3c1.7,0,2.7-0.8,2.9-2.3
			c0.2-1.2,0.4-2.8,0.6-4.8c0.8,0.4,1.6,0.7,2.5,1c-0.3,2.1-0.6,3.8-0.8,4.9c-0.5,2.3-2.1,3.5-4.7,3.5h-6.3c-2.6,0-3.8-1.5-3.8-4.4
			v-6.1h-10.1v-10.4h2.2v8.1h7.9V124H310v-2.3h12.4v-4.1h2.3v4.1h12.5v2.3h-12.5v10.4h7.9v-8.1h2.2v12.1H332.5z M320.1,497.7
			c-0.7-1.9-1.6-3.8-2.6-5.9l1.9-0.9c0.9,1.8,1.9,3.7,2.8,5.8L320.1,497.7L320.1,497.7z M323.3,474.9h4.7c0.1-2.1,0.1-4.5,0.1-7.2
			h2.2c0,2.8,0,5.2-0.1,7.2h7.3v2.2h-7c1.1,4.9,3.7,8.3,7.7,10.5c-0.6,0.7-1.2,1.4-1.8,2.2c-3.4-2.2-5.8-5.5-7.1-9.9
			c-1.1,4-3.8,7.4-8.2,10.2c-0.4-0.6-0.9-1.3-1.5-2.1c4.8-2.8,7.5-6.4,8.2-10.9h-4.6V474.9z M325.9,191.7c-0.5-0.6-1-1.1-1.4-1.6
			c2.6-2.3,4.6-4.5,5.8-6.6h2.4c-0.4,0.7-0.7,1.3-1.1,1.9h7.2v1.9c-2,4.8-6,8.5-12,11c-0.4-0.7-0.9-1.4-1.4-2.1
			c2.4-0.9,4.4-1.9,6.1-3.2c-1-1.1-1.9-2-2.7-2.7l1.2-1.4c1.1,0.9,2.1,1.8,3.1,2.7c1.4-1.3,2.5-2.7,3.3-4.3h-6.3
			C328.9,189,327.5,190.5,325.9,191.7L325.9,191.7z M332.4,285.3c1.7,2.5,3.5,5.1,5.2,7.8l-2.1,1.5c-1.6-2.7-3.2-5.2-4.8-7.8
			c-0.8,4.2-2.3,7.8-4.5,10.9c-0.7-0.9-1.3-1.5-1.8-1.9c3-4.3,4.5-9.5,4.5-15.8c0.1-3.2,0.1-7.3,0.1-12.1h2.3
			c0,4.5-0.1,8.5-0.1,11.8c0,2.5-0.2,4.8-0.6,6.9L332.4,285.3z M326.1,282.3c-0.4-2.8-0.9-5.7-1.6-8.9l2-0.5
			c0.8,3.9,1.4,6.8,1.7,8.8L326.1,282.3L326.1,282.3z M340,320.5c-0.5-0.8-1-1.5-1.3-2.1l1.8-1c0.5,0.7,1.1,1.8,2,3.1h11.1v1.8
			h-24.1V334c-0.1,6-1.2,10.7-3.2,13.9c-0.5-0.7-1-1.4-1.6-2.2c1.8-3.1,2.8-7.1,2.8-11.8v-13.4H340L340,320.5z M325.7,391
			c-0.2-0.8-0.6-1.7-1.1-3c2.2-3.7,3.8-7.6,4.9-11.8H325V374h4.7v-6.2h2.2v6.2h4.2v2.2H332v3.8l0.9-0.9c1.9,2,3.4,3.7,4.7,5.3
			l-1.7,1.6c-1-1.3-2.3-2.9-3.9-4.9v17.2h-2.2V381C328.6,384.9,327.3,388.2,325.7,391L325.7,391z M324.8,227.6h8.7
			c-0.6-1-1.2-2-1.8-2.9l1.9-1.3c0.8,1.1,1.5,2.2,2.3,3.4l-1.2,0.8h7.7c0.9-1.4,1.8-2.8,2.5-4.2l2.3,1.4c-0.6,0.8-1.3,1.7-2.2,2.8
			h8.6v2.2h-28.7V227.6z M327.6,497.4c-0.9-2.1-1.8-4-2.7-5.8l1.9-0.9c1,1.8,2,3.7,2.8,5.7L327.6,497.4L327.6,497.4z M325.2,180.8h5
			v-3.6h-4v-1.9h4v-3.6h-0.8c-0.9,1.2-1.9,2.2-2.9,3.1c-0.5-0.6-0.9-1.1-1.4-1.6c2.1-1.8,3.6-3.8,4.7-5.9h2.4
			c-0.5,0.9-0.9,1.7-1.5,2.5h22.3v1.9h-4.6v3.6h4.2v1.9h-4.2v3.6h4.9v1.9h-28.1V180.8z M326.3,221h12.4c-0.5-1-0.9-1.9-1.4-2.7
			l2.2-1.1c0.6,0.9,1.2,1.9,1.8,3l-1.4,0.8h12.3v2.2h-25.8V221z M328.4,232.6h21.4V248h-2.2v-1.7h-16.9v1.8h-2.2V232.6z M346.8,341
			c-0.6,0.8-1.2,1.6-1.7,2.3c1.1,0,2.1-0.1,3-0.2c-0.2-0.2-0.4-0.4-0.6-0.6l1-0.9c0.9,0.8,1.7,1.7,2.5,2.6l-1.1,1
			c-0.2-0.3-0.4-0.5-0.7-0.8c-1.3,0.1-3.1,0.3-5.5,0.5l-0.6-1.4c0.6-0.6,1.3-1.4,1.9-2.4h-3v3.3c0,1.1,0.5,1.7,1.4,1.7h6.6
			c1,0,1.5-0.5,1.6-1.4c0.1-0.4,0.1-1.5,0.2-3.4c0.6,0.3,1.2,0.6,1.9,0.8c-0.1,1.7-0.3,2.8-0.4,3.4c-0.2,1.6-1.3,2.4-3.3,2.4h-7.3
			c-1.7,0-2.6-1-2.6-3.1v-3c-1.6,3-5,5.3-10,6.8c-0.2-0.4-0.6-1.1-1.2-2c4.7-1.2,7.9-3,9.4-5.4h-4.8v0.9h-1.8v-9.9h6.6
			c0.4-0.7,0.7-1.4,1-2.2l1.8,0.8c-0.3,0.5-0.6,0.9-0.9,1.3h9.6v8.9H346.8L346.8,341z M330.9,331.5c-0.4-0.5-0.8-1-1.3-1.4
			c1.9-0.9,3.5-2.1,4.7-3.6h-4v-1.6h4.6v-2h1.6v2h4.1v1.6h-4.1v1.3l0.7-0.8c1,0.7,1.9,1.4,2.6,2l-0.9,1.2c-0.9-0.8-1.7-1.4-2.4-1.8
			v2.9h-1.6v-3.3C333.7,329.4,332.3,330.6,330.9,331.5L330.9,331.5z M347.6,234.8h-16.9v3.5h16.9V234.8z M330.7,244.1h16.9v-3.6
			h-16.9V244.1z M335.3,473.5c-1-1.2-2.3-2.5-3.6-3.8l1.4-1.4c1.4,1.3,2.6,2.5,3.8,3.6L335.3,473.5L335.3,473.5z M335.7,497.5
			c-1-1.9-2.2-4.1-3.6-6.5l1.9-1.2c1.5,2.4,2.8,4.5,3.8,6.3L335.7,497.5L335.7,497.5z M332.1,281.6c1-3,1.9-5.9,2.6-8.6l2.1,0.8
			c-0.9,2.9-1.9,5.8-2.8,8.6C333.2,281.9,332.6,281.7,332.1,281.6L332.1,281.6z M332.2,175.4h3.5v-3.6h-3.5V175.4z M332.2,180.8h3.5
			v-3.6h-3.5V180.8z M333.7,335.8h6.2c0.1-0.6,0.1-1.3,0.1-2.1h-6.3V335.8z M339.2,339.4c0.2-0.6,0.4-1.3,0.5-2.1h-6.1v2.1H339.2
			L339.2,339.4z M337.5,374.1h5.7v-6.3h2.3v6.3h7.3v2.2h-7.1c1.9,6,4.7,10.9,8.3,14.7c-0.7,0.7-1.4,1.4-2,2.2
			c-2.7-3.4-4.9-7.9-6.7-13.4v18.4h-2.3v-18.4c-2,5.6-4.3,10.1-7.1,13.6c-0.6-0.6-1.2-1.2-1.9-1.8c3.6-4.1,6.5-9.2,8.7-15.3h-5.3
			V374.1z M336.2,270.1h17.4v2.4h-6.5v21.2c0,2.6-1.2,3.9-3.6,3.9c-1.4,0-3.1,0-4.9,0c-0.1-1-0.3-1.9-0.5-2.8
			c2.1,0.2,3.7,0.2,4.7,0.2c1.3,0,1.9-0.7,1.9-2.1v-20.4h-8.6V270.1z M337.6,175.4h3.5v-3.6h-3.5V175.4z M337.6,180.8h3.5v-3.6h-3.5
			V180.8z M341.6,191.3h4.1v-3.6h-6.3v-2.1h6.3v-2.2h2.1v2.2h5.4v2.1h-5.4v3.6h5.6v2.1h-5.6v4.8h-2.1v-4.8h-6.6l1-4.9h2.1
			L341.6,191.3z M346.4,492c1.2,2,3.3,3.1,6.2,3.2c5.6,0.1,11.3,0.1,17.1-0.1c-0.2,0.7-0.5,1.5-0.8,2.5c-5.9,0.1-11.5,0-16.7-0.1
			c-3.3,0-5.6-1.2-7-3.6c-0.8,0.9-2,2.2-3.5,4.2l-1.2-2.6c1.5-1.5,2.7-2.8,3.8-3.8V481h-3.5v-2.3h5.8V492L346.4,492z M342.2,148.2
			c-0.4-0.5-1-1.3-1.8-2.3c7.7-4.4,12-10.4,12.9-18.2h-12.4v-2.4h12.6c0.1-2.1,0.1-4.6,0.1-7.6h2.6c0,2.7,0,5.2-0.1,7.6h13v2.4
			h-12.9c2,8.5,6.5,14.3,13.4,17.4c-0.9,1-1.7,1.8-2.1,2.5c-6.3-3.8-10.5-9.3-12.5-16.7C353.4,138.1,349.1,143.8,342.2,148.2
			L342.2,148.2z M348.3,326.5c1.3,1.4,2.9,2.5,4.9,3.1c-0.4,0.4-0.8,1-1.2,1.6c-1.8-0.9-3.2-2.2-4.4-3.7v3.7H346v-3.7
			c-1.1,1.4-2.4,2.6-3.8,3.5c-0.4-0.5-0.8-1-1.3-1.4c1.7-0.8,3.2-1.8,4.4-3.2h-3.5v-1.6h4.2v-2h1.6v2h4.7v1.6H348.3L348.3,326.5z
			 M348.3,339.4v-2.1h-6.8c-0.1,0.8-0.2,1.5-0.4,2.1H348.3z M348.3,333.7h-6.5c0,0.7,0,1.4-0.1,2.1h6.6V333.7z M344,468.2
			c1.4,1.9,2.7,3.8,4.1,5.9l-2.1,1.6c-1.3-2.2-2.6-4.3-3.9-6.1L344,468.2z M343.1,175.4h3.5v-3.6h-3.5V175.4z M343.1,180.8h3.5v-3.6
			h-3.5V180.8z M349.1,470.1H369v2.3h-8c-0.4,1.2-0.9,2.4-1.4,3.5v3.4l1.1-1.3c3.2,2.6,6.1,5.1,8.7,7.5l-1.7,2.1
			c-2.7-2.6-5.4-5.1-8.1-7.3v13.3h-2.3v-13.4c-2.2,3.4-5,6.3-8.4,8.8c-0.5-0.6-1-1.2-1.6-1.9c5.5-4,9.2-8.8,11.1-14.7h-9.2V470.1z
			 M355.6,146.7c-1.2-1.6-2.5-3.3-3.9-5.1l1.9-1.6c1.4,1.6,2.8,3.2,4.1,4.8L355.6,146.7L355.6,146.7z M373.1,327.3
			c3.3,6.8,7.4,11.7,12.5,14.7c-0.7,0.9-1.3,1.7-1.9,2.5c-4.9-3.7-8.8-8.9-11.7-15.6v19.3h-2.3v-19.4c-2.7,6.2-6.7,11.6-12,16
			c-0.5-0.7-1-1.5-1.7-2.4c5.3-4.1,9.4-9.1,12.6-15.3h-11.6V325h12.8v-7.6h2.3v7.6h12.8v2.3H373.1L373.1,327.3z M356.6,280.6h13
			v-13.1h2.4v13.1h13.2v2.3h-9.6V293c0,0.8,0.1,1.3,0.3,1.7c0.3,0.4,0.9,0.6,1.7,0.6h2.9c1.4,0,2.2-0.6,2.3-1.7
			c0.1-1.1,0.2-2.6,0.3-4.5c0.7,0.3,1.6,0.6,2.5,0.9c-0.2,2.1-0.4,3.7-0.5,4.6c-0.2,1.1-0.6,1.8-1.3,2.2c-0.6,0.4-1.7,0.6-3.2,0.6
			h-3.5c-1.5,0-2.6-0.4-3.2-1.1c-0.5-0.6-0.8-1.6-0.8-3v-10.4h-5.7c-0.1,4.3-0.9,7.6-2.4,9.8c-1.6,2.4-4.2,4.3-7.6,5.5
			c-0.4-0.6-0.9-1.4-1.5-2.2c3.4-1.3,5.8-2.9,7.1-5c1.2-1.8,1.9-4.5,2-8.1h-8.6V280.6z M356.2,244.8c2.7-2.9,5.2-6,7.5-9.3l2.1,1.5
			c-2.8,4-5.4,7.2-7.7,9.5C357.5,246.1,356.9,245.5,356.2,244.8L356.2,244.8z M356.5,394h13.1v-9h-10.8v-2.4h10.8v-7.1h-11.9v-2.4
			h26.2v2.4h-11.8v7.1h10.8v2.4h-10.8v9h13.1v2.3h-28.7V394z M377,171.6c3.1,3,6,6.2,8.7,9.3l-2.1,1.8c-0.8-1-1.6-1.9-2.4-2.9
			c-8.8,0.4-15.5,0.7-20.2,1c-1.1,0.1-2.1,0.2-3.1,0.5l-1-2.7c0.9-0.4,1.7-0.8,2.4-1.5c3.3-2.9,6.4-6.3,9.2-10.1l2.2,1.4
			c-2.9,3.7-6,6.9-9.2,9.8c6-0.2,11.9-0.4,17.7-0.7c-1.3-1.6-2.7-3.1-4.1-4.5L377,171.6z M360.3,220.1c7.4-0.2,14.5-0.6,21.1-1.4
			l0.8,2.4c-7,0.7-13.5,1.1-19.7,1.2l-1.1,9h8.6v-7.1h2.4v7.1h11.6v2.4h-11.6v9.8c0,1.6-0.3,2.7-0.8,3.3c-0.6,0.7-1.6,1-3,1
			c-0.7,0-2,0-3.9,0c-0.1-0.8-0.3-1.7-0.5-2.7c2,0.2,3.3,0.3,3.8,0.2c1.3,0,1.9-0.6,1.9-2.1v-9.6h-11.3L360.3,220.1z M364,278.7
			c-1.8-2.6-3.6-5-5.3-7.2l1.8-1.5c2,2.3,3.9,4.6,5.7,7L364,278.7L364,278.7z M381.3,184v14.2h-2.4v-2.1h-16.2v2.1h-2.4V184H381.3z
			 M378.9,186.3h-16.2v7.6h16.2V186.3z M370.9,373.1c-1.1-2.1-1.9-3.6-2.4-4.5l2.2-1.2c1.2,1.9,2.1,3.4,2.6,4.4L370.9,373.1
			L370.9,373.1z M380.3,498.2H378V482c-1.4,1.8-3,3.5-4.7,5.1c-0.4-0.7-0.9-1.5-1.4-2.3c3.8-3.4,6.7-7.1,8.9-11.2h-8v-2.3h9.1
			c0.6-1.3,1-2.6,1.4-4l2.4,0.6c-0.4,1.2-0.8,2.3-1.3,3.4H401v2.3h-17.7c-0.6,1.2-1.3,2.4-2,3.6h16.1v16.7c0,2.6-1.2,3.9-3.6,3.9
			c-1,0-2.6,0-4.7,0c-0.1-0.7-0.2-1.6-0.4-2.6c1.8,0.1,3.3,0.2,4.3,0.2c1.4,0,2-0.7,2-2.1v-2.2h-14.8V498.2z M375.9,132.5h9.3v-6.7
			H372v-2.4h13.2v-5.9h2.4v5.9h13.5v2.4h-13.5v6.7h9.7v15.6H395v-2.2h-16.7v2.2h-2.3V132.5z M379.8,323.9c-1.6-1.5-3.3-3-4.9-4.3
			l1.5-1.8c1.7,1.2,3.4,2.6,5.1,4.1L379.8,323.9L379.8,323.9z M375,277.1c2.3-2.3,4.2-4.7,6-7.2l2.1,1.6c-2,2.5-4.1,4.9-6.3,7.2
			L375,277.1z M377.7,235.5c2.9,3.1,5.5,6.2,7.8,9.2l-2,1.9c-2.3-3.2-4.8-6.4-7.6-9.6L377.7,235.5z M395,134.8h-16.7v8.8H395V134.8z
			 M395.1,479.4h-14.8v3.7h14.8V479.4z M380.3,489h14.8v-3.8h-14.8V489z M389.1,398.5c-0.4-1-0.8-2-1.3-2.9c1.4-2.1,2.2-5.2,2.3-9.6
			h2c-0.1,1.3-0.2,2.5-0.3,3.7c0.7,1.4,1.6,2.5,2.8,3.4v-8.5H388v-2h13.6v2h-5.1v3.3h4.7v2h-4.7v4.3c1.3,0.6,2.8,0.9,4.5,0.9
			c3.4,0.2,8.8,0.2,16-0.2c-0.2,0.7-0.5,1.5-0.8,2.5c-7,0.2-12.1,0.1-15.1-0.1c-4.4-0.1-7.6-1.8-9.7-4.9
			C390.8,394.7,390.1,396.8,389.1,398.5L389.1,398.5z M389.8,368.9h10.3v12h-1.9v-1h-6.5v1h-1.9V368.9z M398.2,370.8h-6.5v2.7h6.5
			V370.8z M391.8,378.1h6.5v-2.8h-6.5V378.1z M407.8,378.1h1.9v3.9c0,2-0.2,3.8-0.6,5.3c3,2.3,5.2,4.1,6.7,5.4l-1.6,1.7
			c-1.6-1.6-3.5-3.3-5.8-5.1c-0.1,0.2-0.2,0.4-0.4,0.7c-1.2,2-3.2,3.6-6,4.8c-0.5-0.6-1-1.2-1.6-1.8c2.7-1,4.6-2.2,5.7-3.8
			c1.1-1.6,1.6-3.9,1.6-7.1V378.1z M402.7,374.7h4.3c0.2-1.2,0.4-2.4,0.5-3.6h-5.8v-2h14.7v2h-6.7c-0.2,1.2-0.4,2.4-0.6,3.6h5.8
			v13.3h-1.9v-11.2h-8.2v11.2h-1.9V374.7z M404.5,485.7c-0.3-0.9-0.6-1.8-1-2.8c3.1-4.5,5.5-9.7,7.1-15.5l2.4,0.8
			c-0.9,2.6-1.8,5.1-2.8,7.3v22.7H408v-18C406.9,482.3,405.7,484.1,404.5,485.7L404.5,485.7z M403.7,144.4H417v-4.1h-11.6v-2.2H417
			v-4.1h-8.2v1.1h-2.3v-16h23.3v16h-2.3v-1.1h-8.2v4.1H431v2.2h-11.6v4.1h13.5v2.2h-29.2V144.4z M408.8,125.5h8.2v-4.2h-8.2V125.5z
			 M408.8,131.9h8.2v-4.2h-8.2V131.9z M418.8,482.6c-1.3,3.4-2.8,7-4.4,10.7c-0.7-0.4-1.4-0.7-2.2-1c1.7-3.5,3.1-6.9,4.3-10.4
			L418.8,482.6z M430.1,480.6c-0.8-0.4-1.5-0.6-2.1-0.8l1.9-4.9h-12.4c-1,2-2,3.8-3,5.4c-0.6-0.5-1.2-1.1-1.8-1.6
			c2.3-3.4,4-7.1,5.3-11.2l2.3,0.9c-0.5,1.4-1.1,2.8-1.7,4.1h13.6v2.6L430.1,480.6L430.1,480.6z M421.5,477.2h2.3v16.5
			c0,2.8-1.2,4.2-3.6,4.2c-1.1,0-2.4,0-3.8,0c-0.1-0.8-0.3-1.7-0.5-2.7c1.6,0.2,2.8,0.2,3.7,0.2c1.3,0,1.9-0.7,1.9-2.1V477.2z
			 M427.6,121.3h-8.2v4.2h8.2V121.3z M419.4,131.9h8.2v-4.2h-8.2V131.9z M428.4,481.7c1.4,2.9,2.9,6.3,4.5,10.2l-2.2,1.1
			c-1.3-3.3-2.7-6.8-4.3-10.3L428.4,481.7z M435.1,142.5c2.6-0.9,5.6-2.2,9.1-3.7V129h-8.5v-2.3h8.5v-8.8h2.4v30h-2.4v-6.5
			c-1.9,0.8-4.6,2-8.1,3.5L435.1,142.5z M452.4,117.8h2.4v10.6c2.7-1.5,5.2-3.1,7.5-4.8l1.5,2.3c-2.1,1.4-5.1,3.2-9,5.2v11.5
			c0,1.4,0.7,2.1,2.2,2.1h2.1c1.4,0,2.2-0.7,2.4-2.1c0.2-1.3,0.3-3,0.5-5.1c0.9,0.4,1.7,0.7,2.5,1c-0.2,2-0.4,3.7-0.6,5.1
			c-0.4,2.4-1.8,3.6-4.1,3.6h-3.2c-2.7,0-4-1.4-4-4.2V117.8z M469.1,119.7h25.3v2.4h-22.8V144h23.2v2.4h-25.7V119.7z M481.5,132.9
			c-2.5-2.5-5-4.9-7.6-7.3l1.6-1.7c2.4,2.1,5,4.5,7.7,7.1c2-2.4,4-4.9,5.9-7.7l2.1,1.5c-2.1,2.8-4.1,5.5-6.3,7.9
			c2.4,2.4,5,4.9,7.6,7.6l-2,2.2c-2.4-2.6-4.8-5.2-7.3-7.8c-2.8,3.1-5.7,5.7-8.6,8.1c-0.5-0.6-1.1-1.3-1.9-2
			C475.8,138.5,478.7,135.9,481.5,132.9L481.5,132.9z"/>
		<path class="st5" d="M334.1,431.5c0-0.6,0.2-1,0.5-1.4s0.8-0.6,1.3-0.6c0.5,0,0.9,0.2,1.3,0.6c0.4,0.4,0.6,0.9,0.6,1.4
			c0,0.5-0.2,1-0.5,1.4c-0.4,0.4-0.8,0.6-1.4,0.6c-0.5,0-1-0.2-1.3-0.6C334.3,432.6,334.1,432.1,334.1,431.5z M342.2,431.5
			c0-0.6,0.2-1,0.6-1.4c0.4-0.4,0.8-0.6,1.3-0.6c0.5,0,0.9,0.2,1.3,0.6c0.4,0.4,0.6,0.9,0.6,1.4c0,0.5-0.2,1-0.5,1.4
			c-0.4,0.4-0.8,0.6-1.3,0.6c-0.5,0-1-0.2-1.3-0.6C342.4,432.5,342.2,432.1,342.2,431.5z M350.4,431.5c0-0.6,0.2-1,0.6-1.4
			c0.4-0.4,0.8-0.6,1.3-0.6c0.5,0,1,0.2,1.3,0.6c0.4,0.4,0.6,0.9,0.6,1.4c0,0.5-0.2,1-0.5,1.4c-0.4,0.4-0.8,0.6-1.3,0.6
			c-0.5,0-1-0.2-1.3-0.6C350.6,432.5,350.4,432.1,350.4,431.5z M358.9,431.5c0-0.6,0.2-1,0.5-1.4s0.8-0.6,1.3-0.6
			c0.5,0,0.9,0.2,1.3,0.6c0.4,0.4,0.6,0.9,0.6,1.4c0,0.5-0.2,1-0.5,1.4c-0.4,0.4-0.8,0.6-1.4,0.6c-0.5,0-1-0.2-1.3-0.6
			C359,432.6,358.9,432.1,358.9,431.5z M367,431.5c0-0.6,0.2-1,0.6-1.4c0.4-0.4,0.8-0.6,1.3-0.6c0.5,0,0.9,0.2,1.3,0.6
			c0.4,0.4,0.6,0.9,0.6,1.4c0,0.5-0.2,1-0.5,1.4c-0.4,0.4-0.8,0.6-1.3,0.6c-0.5,0-1-0.2-1.3-0.6C367.2,432.5,367,432.1,367,431.5z
			 M375.2,431.5c0-0.6,0.2-1,0.6-1.4c0.4-0.4,0.8-0.6,1.3-0.6c0.5,0,1,0.2,1.3,0.6c0.4,0.4,0.6,0.9,0.6,1.4c0,0.5-0.2,1-0.5,1.4
			c-0.4,0.4-0.8,0.6-1.3,0.6c-0.5,0-1-0.2-1.3-0.6C375.4,432.5,375.2,432.1,375.2,431.5z"/>
		<path class="st5" d="M261.6,528h6.3v-4.1h-5.3v-2.1h5.3v-4.2h2.1v4.2h4.3v2.1H270v4.1h1.5c2-2.2,3.7-4.7,5-7.3l2,1.2
			c-1.3,2.2-2.7,4.2-4.3,6.1h4.4v2.1h-6.2c-1.1,1.2-2.3,2.3-3.5,3.4h7.5v14.6h-2.1v-1.9h-7.5v1.9h-2.1v-11.3c-0.7,0.5-1.3,0.9-2,1.4
			c-0.4-0.6-0.9-1.3-1.4-2.1c3.1-1.8,5.8-3.9,8.2-6.1h-7.9V528z M274.4,535.5h-7.5v3.4h7.5V535.5z M266.9,544.2h7.5v-3.4h-7.5V544.2
			z M278.4,494.3h23.3v-5.4h-21.5v-2.2h21.5v-5.3h-22.4v-2.2h11.4v-11.6h2.4v11.6h11v19.2h-2.4v-1.9h-23.3V494.3z M289.9,521.8
			c-1.1,2.8-2.2,5.5-3.5,8.2c2.6,2.3,4,5,4,8.2c0,3.3-1.3,5.1-3.8,5.5c-1,0.1-2.3,0.1-3.9-0.1c-0.1-0.8-0.2-1.7-0.4-2.7
			c1.4,0.3,2.4,0.4,3.3,0.4c1.9,0,2.8-1.3,2.6-3.9c-0.1-2-1.5-4.4-4.3-6.9c1.1-2.3,2.3-5.2,3.8-8.9h-5.8v26.7h-2.2v-28.8h10.3V521.8
			L289.9,521.8z M285.8,477.5c-1.6-2.3-3.5-4.6-5.6-6.8l1.6-1.6c2.1,2.1,4.1,4.3,5.9,6.6L285.8,477.5L285.8,477.5z M292.8,546.5
			c3.2-2.2,5.3-5.6,6.4-10.2l2.2,0.7c-0.3,1.1-0.7,2.1-1.1,3.1c1.5,2.6,3.7,4.1,6.7,4.6v-9.4h-13.4v-2.2h28.3v2.2h-12.5v3.1h10.5
			v2.1h-10.5v4.3c3.8,0.1,8.1,0,13.1-0.1c-0.3,0.9-0.6,1.7-0.8,2.5c-5.8,0-10.2,0-13.3-0.1c-4.1-0.1-7.1-1.7-9-4.9
			c-1.3,2.6-3,4.7-5.1,6.2C293.9,547.9,293.4,547.2,292.8,546.5L292.8,546.5z M303.7,470.8c-2.1,2.5-4.2,4.8-6.3,6.8l-1.8-1.7
			c2-1.9,4-4.2,6-6.8L303.7,470.8z M297.7,518.7h20v13h-2.2v-1.3h-15.5v1.3h-2.2V518.7z M315.5,520.8h-15.5v2.7h15.5V520.8z
			 M299.9,528.4h15.5v-2.8h-15.5V528.4z M310.2,481.7c-0.5-0.5-1-1.1-1.6-1.8c2.9-3.8,5-7.9,6.4-12.5l2.2,0.8
			c-0.3,0.8-0.6,1.6-0.9,2.4h7v2.3c-1.4,7.9-5.4,13.9-12.2,17.9c-0.4-0.5-1-1.2-1.6-1.9c2.7-1.5,4.9-3.3,6.6-5.3
			c-1.3-1-2.5-2-3.8-2.9l1-1.6c1.4,0.9,2.7,1.9,4,2.9c0.5-0.8,1-1.6,1.4-2.3c-1.3-1-2.6-1.9-4-2.8l1-1.7c1.4,0.8,2.7,1.6,3.9,2.5
			c0.6-1.6,1.1-3.2,1.4-4.8h-5.6C313.8,476,312.1,478.9,310.2,481.7L310.2,481.7z M309.5,497.2c1.4-2.6,2.5-4.8,3.2-6.7l2.1,0.8
			c-0.7,1.9-1.8,4.2-3.2,6.8C311,497.8,310.3,497.5,309.5,497.2L309.5,497.2z M320.1,497.7c-0.7-1.9-1.6-3.8-2.6-5.9l1.9-0.9
			c0.9,1.8,1.9,3.7,2.8,5.8L320.1,497.7L320.1,497.7z M323.3,474.9h4.7c0.1-2.1,0.1-4.5,0.1-7.2h2.2c0,2.8,0,5.2-0.1,7.2h7.3v2.2h-7
			c1.1,4.9,3.7,8.3,7.7,10.5c-0.6,0.7-1.2,1.4-1.8,2.2c-3.4-2.2-5.8-5.5-7.1-9.9c-1.1,4-3.8,7.4-8.2,10.2c-0.4-0.6-0.9-1.3-1.5-2.1
			c4.8-2.8,7.5-6.4,8.2-10.9h-4.6V474.9z M327.6,497.4c-0.9-2.1-1.8-4-2.7-5.8l1.9-0.9c1,1.8,2,3.7,2.8,5.7L327.6,497.4L327.6,497.4
			z M325.8,520.5h10.1v25.5h-2.3v-2.6h-5.5v3h-2.3V520.5z M333.6,522.8h-5.5v7.9h5.5V522.8z M328.1,541h5.5v-8.1h-5.5V541z
			 M335.3,473.5c-1-1.2-2.3-2.5-3.6-3.8l1.4-1.4c1.4,1.3,2.6,2.5,3.8,3.6L335.3,473.5L335.3,473.5z M335.7,497.5
			c-1-1.9-2.2-4.1-3.6-6.5l1.9-1.2c1.5,2.4,2.8,4.5,3.8,6.3L335.7,497.5L335.7,497.5z M336.9,524.4h10.4v-6.9h2.4v6.9h4.2v2.3h-4.2
			v16.8c0,2.8-1.3,4.2-3.8,4.2c-1.1,0-2.8,0-5-0.1c-0.1-0.8-0.3-1.6-0.5-2.6c2.1,0.2,3.7,0.2,4.8,0.2c1.4,0,2.1-0.7,2.1-2.2v-16.3
			h-10.4V524.4z M340.2,529.7c1.6,3,2.8,5.5,3.6,7.3c-0.5,0.2-1.3,0.7-2.4,1.2c-0.8-2-1.9-4.4-3.3-7.4L340.2,529.7z M346.4,492
			c1.2,2,3.3,3.1,6.2,3.2c5.6,0.1,11.3,0.1,17.1-0.1c-0.2,0.7-0.5,1.5-0.8,2.5c-5.9,0.1-11.5,0-16.7-0.1c-3.3,0-5.6-1.2-7-3.6
			c-0.8,0.9-2,2.2-3.5,4.2l-1.2-2.6c1.5-1.5,2.7-2.8,3.8-3.8V481h-3.5v-2.3h5.8V492L346.4,492z M344,468.2c1.4,1.9,2.7,3.8,4.1,5.9
			l-2.1,1.6c-1.3-2.2-2.6-4.3-3.9-6.1L344,468.2z M349.1,470.1H369v2.3h-8c-0.4,1.2-0.9,2.4-1.4,3.5v3.4l1.1-1.3
			c3.2,2.6,6.1,5.1,8.7,7.5l-1.7,2.1c-2.7-2.6-5.4-5.1-8.1-7.3v13.3h-2.3v-13.4c-2.2,3.4-5,6.3-8.4,8.8c-0.5-0.6-1-1.2-1.6-1.9
			c5.5-4,9.2-8.8,11.1-14.7h-9.2V470.1z M371.9,517.6v9.2h11.4v17.3c0,2.5-1.3,3.8-3.8,3.8c-1,0-2.4,0-4.1-0.1
			c-0.1-0.8-0.2-1.6-0.4-2.5c1.6,0.1,2.9,0.2,3.9,0.2c1.5,0.1,2.3-0.6,2.2-1.9V529h-20.6v19.1h-2.2v-21.3h11.3v-9.1H371.9z
			 M364.2,525.9c-2-2.2-3.8-4.1-5.3-5.5l1.6-1.6c1.9,1.7,3.8,3.4,5.6,5.2L364.2,525.9L364.2,525.9z M364.3,532.7h12.9v8.9h-10.8v1.4
			h-2.1V532.7z M375.1,534.7h-8.8v4.8h8.8V534.7z M380.3,498.2H378V482c-1.4,1.8-3,3.5-4.7,5.1c-0.4-0.7-0.9-1.5-1.4-2.3
			c3.8-3.4,6.7-7.1,8.9-11.2h-8v-2.3h9.1c0.6-1.3,1-2.6,1.4-4l2.4,0.6c-0.4,1.2-0.8,2.3-1.3,3.4H401v2.3h-17.7
			c-0.6,1.2-1.3,2.4-2,3.6h16.1v16.7c0,2.6-1.2,3.9-3.6,3.9c-1,0-2.6,0-4.7,0c-0.1-0.7-0.2-1.6-0.4-2.6c1.8,0.1,3.3,0.2,4.3,0.2
			c1.4,0,2-0.7,2-2.1v-2.2h-14.8V498.2z M375,524.4c2.1-1.8,4-3.6,5.7-5.7l1.9,1.7c-2,2.1-4,4-6,5.7L375,524.4z M395.1,479.4h-14.8
			v3.7h14.8V479.4z M380.3,489h14.8v-3.8h-14.8V489z M388.1,544.1h13.1v-9h-10.8v-2.4h10.8v-7.1h-11.9v-2.4h26.2v2.4h-11.8v7.1h10.8
			v2.4h-10.8v9h13.1v2.3h-28.7V544.1z M402.5,523.1c-1.1-2.1-1.9-3.6-2.4-4.5l2.2-1.2c1.2,1.9,2.1,3.4,2.6,4.4L402.5,523.1
			L402.5,523.1z M404.5,485.7c-0.3-0.9-0.6-1.8-1-2.8c3.1-4.5,5.5-9.7,7.1-15.5l2.4,0.8c-0.9,2.6-1.8,5.1-2.8,7.3v22.7H408v-18
			C406.9,482.3,405.7,484.1,404.5,485.7L404.5,485.7z M418.8,482.6c-1.3,3.4-2.8,7-4.4,10.7c-0.7-0.4-1.4-0.7-2.2-1
			c1.7-3.5,3.1-6.9,4.3-10.4L418.8,482.6z M430.1,480.6c-0.8-0.4-1.5-0.6-2.1-0.8l1.9-4.9h-12.4c-1,2-2,3.8-3,5.4
			c-0.6-0.5-1.2-1.1-1.8-1.6c2.3-3.4,4-7.1,5.3-11.2l2.3,0.9c-0.5,1.4-1.1,2.8-1.7,4.1h13.6v2.6L430.1,480.6L430.1,480.6z
			 M421.5,477.2h2.3v16.5c0,2.8-1.2,4.2-3.6,4.2c-1.1,0-2.4,0-3.8,0c-0.1-0.8-0.3-1.7-0.5-2.7c1.6,0.2,2.8,0.2,3.7,0.2
			c1.3,0,1.9-0.7,1.9-2.1V477.2z M421.2,529.4c-0.5-0.5-1.1-1.1-1.8-1.7c3.7-3,6.6-6.5,8.9-10.6l2.4,0.7c-0.5,0.8-0.9,1.5-1.4,2.3
			H441v2.2c-0.9,1-1.8,2.1-2.8,3.3h8V544c0,2.6-1.1,3.8-3.4,3.8c-1.3,0-2.7,0-4.3-0.1c-0.1-0.8-0.3-1.6-0.4-2.6
			c1.4,0.1,2.7,0.2,3.8,0.2c1.3,0,1.9-0.6,1.9-1.8v-3.1h-8.2v7.2h-2.3v-7.2h-8.3c-0.6,3.6-1.7,6.3-3.3,8.2c-0.6-0.7-1.2-1.4-1.8-2.1
			c2.2-2.4,3.3-6.5,3.3-12.4v-6.5C422.6,528.2,421.9,528.8,421.2,529.4L421.2,529.4z M435.4,525.6c1-1.2,1.9-2.3,2.7-3.3h-10.3
			c-0.8,1.1-1.7,2.2-2.7,3.3H435.4L435.4,525.6z M425.6,534.1c0,1.4-0.1,2.8-0.2,4.1h8v-4.1H425.6L425.6,534.1z M425.6,527.9v4.1
			h7.8v-4.1H425.6z M428.4,481.7c1.4,2.9,2.9,6.3,4.5,10.2l-2.2,1.1c-1.3-3.3-2.7-6.8-4.3-10.3L428.4,481.7z M443.9,527.9h-8.2v4.1
			h8.2V527.9z M435.7,538.2h8.2v-4.1h-8.2V538.2z"/>
	</g>
	<rect class="st6" width="720" height="667.1"/>
</g>
<g>
</g>
<g>
</g>
<g>
</g>
<g>
</g>
<g>
</g>
<g>
</g>
<g>
</g>
<g>
</g>
<g>
</g>
<g>
</g>
<g>
</g>
<g>
</g>
<g>
</g>
<g>
</g>
<g>
</g>
</svg>
