<?xml version="1.0" encoding="utf-8"?>
<!-- Generator: Adobe Illustrator 17.0.0, SVG Export Plug-In . SVG Version: 6.00 Build 0)  -->
<!DOCTYPE svg PUBLIC "-//W3C//DTD SVG 1.1//EN" "http://www.w3.org/Graphics/SVG/1.1/DTD/svg11.dtd">
<svg version="1.1" id="Layer_1" xmlns="http://www.w3.org/2000/svg" xmlns:xlink="http://www.w3.org/1999/xlink" x="0px" y="0px"
	 width="720px" height="392.5px" viewBox="0 0 720 392.5" style="enable-background:new 0 0 720 392.5;" xml:space="preserve">
<style type="text/css">
	.st0{fill:#FFFFFF;}
	.st1{fill:#F8B4BC;}
	.st2{fill-rule:evenodd;clip-rule:evenodd;fill:#6F181D;}
	.st3{fill:#C24B50;}
	.st4{fill:none;}
</style>
<g id="page-05.svg">
	<path class="st0" d="M355.5,171.1c2.1,3.2,4.7,7.8,7.8,13.8l-5.7,4.2l-2.3-4.5l-16.5,8.6l-3.2-6.6c1.3-0.9,2-1.6,2-2.1
		c0-28-0.1-42.6-0.4-43.8c3.8,0.3,7.7,0.5,11.6,0.5c3.9,0,7.7-0.2,11.6-0.5c-0.4,4.3-0.5,9.2-0.5,14.7c0,5.5,0.2,10.6,0.5,15.3
		c-3.4-0.3-8.9-0.5-16.6-0.5v12.9l8.9-3.6l-2.8-5.1L355.5,171.1L355.5,171.1z M353.7,147.2h-10.1v5.5h10.1V147.2z M353.7,164.2v-5.5
		h-10.1v5.5H353.7z M374.8,141.7c3.6,0,7.1-0.2,10.4-0.5c-0.3,3.8-0.5,13.7-0.5,29.9l0.2,7.8c0,1.8-0.1,3-0.3,3.6
		c-0.2,0.6-0.7,1.3-1.4,2.1c-0.7,0.8-1.8,1.5-3.1,1.9c-1.4,0.5-3,0.9-4.8,1.2c-0.6-2-1.3-4.3-2.2-6.9c2.7-0.3,4.3-0.7,4.9-1.3
		c0.5-0.6,0.8-1.3,0.8-1.9v-29.5l-8.3,0.1c0,30.3,0.1,46.1,0.4,47.4h-7c0.3-4,0.5-9,0.5-15l-0.1-12.5l0.1-12.9
		c0-5.6-0.2-10.2-0.5-14C367.5,141.6,371.2,141.7,374.8,141.7L374.8,141.7z M449.3,179.4L449.3,179.4c-3.5-0.3-10.8-0.4-22-0.4
		c-4.7,8.2-13.6,13.8-26.6,16.6c-0.7-1.6-1.9-3.9-3.5-7c10.1-1.6,17.3-4.8,21.7-9.7c-12.9,0-20.4,0.1-22.6,0.4v-6.9
		c3.8,0.3,8.6,0.5,14.3,0.5l11.9-0.1c1.9-4.7,2.8-10.4,2.8-17c0-1.7-0.1-3.6-0.2-5.5l7.9,0.8c-0.7,10.1-1.8,17.3-3.3,21.6
		c10.4,0,16.9-0.1,19.4-0.4V179.4z M432,142.3c6.6,0,11.9-0.2,16-0.5l-1.4,14.3l-7.4,1.4c0.6-2.9,1-6,1.3-9.2
		c-26.6,0-40.5,0.1-41.5,0.4l-0.1-6.9C400.9,142.1,411.9,142.3,432,142.3L432,142.3z M405.5,156.9c2.9,2.8,6,5.8,9.2,9.2h-0.1
		c-1.2,1.5-2.7,3.2-4.8,5.1c-2.5-3-5.6-6.2-9.2-9.7L405.5,156.9L405.5,156.9z M411.3,148.7c4.3,3.6,7.5,6.4,9.6,8.3l-4.3,5.4
		c-3.1-3.6-6.3-6.7-9.7-9.2L411.3,148.7L411.3,148.7z M429.2,179.4c6.4,3.4,12.8,6.4,19.2,9.2l-3.1,7.3c-7.2-4.2-14.1-7.9-20.5-11.1
		L429.2,179.4L429.2,179.4z M479.3,171.1c2.1,3.2,4.7,7.8,7.8,13.8l-5.7,4.2l-2.3-4.5l-16.5,8.6l-3.2-6.6c1.3-0.9,2-1.6,2-2.1
		c0-28-0.1-42.6-0.4-43.8c3.8,0.3,7.7,0.5,11.6,0.5c3.9,0,7.7-0.2,11.6-0.5c-0.4,4.3-0.5,9.2-0.5,14.7c0,5.5,0.2,10.6,0.5,15.3
		c-3.4-0.3-8.9-0.5-16.6-0.5v12.9l8.9-3.6l-2.8-5.1L479.3,171.1L479.3,171.1z M477.5,147.2h-10.1v5.5h10.1V147.2z M477.5,164.2v-5.5
		h-10.1v5.5H477.5z M498.5,141.7c3.6,0,7.1-0.2,10.4-0.5c-0.3,3.8-0.5,13.7-0.5,29.9l0.2,7.8c0,1.8-0.1,3-0.3,3.6
		c-0.2,0.6-0.7,1.3-1.4,2.1c-0.7,0.8-1.8,1.5-3.1,1.9c-1.4,0.5-3,0.9-4.8,1.2c-0.6-2-1.3-4.3-2.2-6.9c2.7-0.3,4.3-0.7,4.9-1.3
		c0.5-0.6,0.8-1.3,0.8-1.9v-29.5l-8.3,0.1c0,30.3,0.1,46.1,0.4,47.4h-7c0.3-4,0.5-9,0.5-15l-0.1-12.5l0.1-12.9
		c0-5.6-0.2-10.2-0.5-14C491.3,141.6,494.9,141.7,498.5,141.7L498.5,141.7z M540.2,163.4c0,6.5,0.2,11.5,0.5,15h-6.1v-30.8h-9.2
		v31.3h-6.1c0.2-0.7,0.3-8.8,0.3-24.3c0-5.4-0.1-9.7-0.4-13c3.6,0.3,7.2,0.5,11,0.5c3.5,0,7-0.2,10.5-0.5
		C540.4,144.7,540.2,152,540.2,163.4L540.2,163.4z M535.4,180.3c2.1,2.8,4.2,5.8,6.2,8.7l-4.8,4.5c-1.8-3.1-3.8-6-6-8.7
		c-1.8,4.1-4,7.4-6.8,10.1c-1.2-1.4-2.8-2.9-4.8-4.6c3-2.8,5.1-5.1,6-7c1-1.9,1.6-4.6,1.9-8c0.3-3.5,0.4-7.1,0.4-11
		c0-4.9-0.2-9.4-0.5-13.5l5.7,0.4v21.6c0,2.3-0.4,5.6-1.3,9.7L535.4,180.3L535.4,180.3z M573.4,157.7c0,3.7,0.2,7.4,0.5,11.1
		c-2.6-0.3-9-0.5-19.2-0.5c-5.5,0-9.7,0.2-12.7,0.5c0.3-3.5,0.4-7,0.4-10.5c0-3.8-0.2-7.5-0.5-11.1c1.6,0.2,3.9,0.3,7,0.4
		c-1.5-2.3-3-4.2-4.3-5.9l5.3-2.7c1.8,1.9,3.4,3.8,4.8,5.9l-3.1,2.7c3.9,0.1,7.8,0.1,11.6,0l-3.2-2.3c1.7-2.2,3.2-4.5,4.3-6.9
		l5.7,2.7c-1.7,2.9-3,5-3.8,6.4c3.4-0.1,6-0.2,7.7-0.3C573.6,150.7,573.4,154.2,573.4,157.7L573.4,157.7z M570.8,183.5
		c0,4,0.2,8,0.5,12h-6.5v-1.4h-14.4v1.4l-6.6-0.1c0.3-4,0.5-8.1,0.5-12.2c0-4.1-0.2-8.2-0.5-12.2c4.1,0.4,8.7,0.6,13.8,0.6
		c5.1,0,9.7-0.2,13.8-0.6C571,175.1,570.8,179.3,570.8,183.5L570.8,183.5z M552.5,154.1c0.8,1.7,1.7,3.4,2.6,5v-6.4h-7v3.1
		L552.5,154.1L552.5,154.1z M555.1,159.1l-4.4,2.8c-0.8-1.9-1.7-3.7-2.6-5.3v6.6h7V159.1z M564.7,177.1h-14.4v3.2h14.4V177.1z
		 M564.7,189v-3.7h-14.4v3.7H564.7z M567.8,156.8v-4.2h-7.4v6.9c1.1-1.5,2.2-3.2,3.1-5L567.8,156.8z M567.8,163.2v-6.4
		c-1,1.5-2,3.2-3,5.1l-4.4-2.3v3.6H567.8z"/>
	<path class="st1" d="M157.6,156.4c3.5,2.3,6.7,4.6,9.6,7c-1,1.5-1.9,2.8-2.8,3.9c-3.7-3.2-6.8-5.7-9.3-7.4L157.6,156.4z M157,192.5
		c2.3-6.1,4.3-12.7,6-20c1.7,1,3.1,1.7,4.3,2.2c-2,6.9-3.9,13.5-5.8,20L157,192.5L157,192.5z M160,142.2c3.2,2.4,6.2,4.8,9.1,7.3
		c-0.9,1.2-1.8,2.5-2.8,3.7c-3.1-3-6.1-5.6-8.8-7.8L160,142.2z M172.7,171.9h12.5v-9.2h-15.9v-4.2h15.9v-9.2
		c-4.1,0.2-8.6,0.4-13.4,0.6c-0.2-1.3-0.5-2.7-0.8-4.2c11.5-0.3,22.3-1.1,32.3-2.2l0.8,4.3c-4.1,0.4-9,0.8-14.8,1.2v9.4h16.4v4.2
		h-16.4v9.2h12.5v23.5h-3.9v-3.3h-21.2v3.3h-3.9V171.9z M197.8,175.9h-21.2v12.4h21.2V175.9z M227.7,171.7c2.1,5,4.1,9.9,5.8,14.8
		c-1.5,0.7-2.7,1.3-3.8,1.8c-0.2-0.7-0.5-1.4-0.7-2.1c-6.4,0.7-12.2,1.3-17.5,2l-1.8-4.4c1.5-0.9,2.7-2.4,3.6-4.4
		c1.6-3.6,3.4-8.1,5.1-13.7h-8.5v-4h24.3v4h-11.6c-2.9,7.8-5.4,13.8-7.4,18.1c3.9-0.3,8-0.7,12.5-1.2c-1.1-3.1-2.3-6.1-3.5-9.1
		L227.7,171.7z M212.2,146.2h20.2v4h-20.2V146.2z M232.8,152.8h7.5c0-3.7,0.1-7.4,0-11.3h4.1c0,3.8-0.1,7.6-0.1,11.3H258
		c-0.2,13.8-0.6,24.9-1,33.3c-0.4,5.1-2.6,7.7-6.6,7.8c-2.1,0-4.3-0.1-6.8-0.2c-0.2-1.5-0.5-3.1-0.8-4.8c2.3,0.3,4.4,0.5,6.3,0.5
		c2.5,0,3.8-1.5,3.9-4.5c0.5-9,0.8-18.4,0.9-28h-9.6c0,1.6-0.1,3.1-0.1,4.6c-0.2,14.4-4.2,25.7-12,34c-0.9-1.2-1.9-2.5-3-3.7
		c7-6.8,10.7-16.9,11-30.4c0-1.5,0.1-3,0.1-4.5h-7.4V152.8z M263.8,164.4h50v4.8h-50V164.4z"/>
	<path class="st0" d="M156.4,297.1h9c0.5-1.3,0.9-2.6,1.3-4l2.5,0.7c-0.4,1.1-0.7,2.2-1.1,3.3h17.8v2.4h-18.7
		c-1.2,2.9-2.6,5.6-4.3,8.1v17.1h-2.4v-13.6c-1.1,1.5-2.3,2.8-3.5,4.2c-0.4-0.8-0.9-1.5-1.5-2.3c3.8-4.1,6.7-8.6,8.9-13.4h-8V297.1z
		 M158.4,340h16.1v9.6h-2.2v-1.1h-11.7v4.9c0,6.9-1.2,12.2-3.6,15.8c-0.5-0.8-1-1.5-1.4-2.1c1.9-3.2,2.8-7.7,2.8-13.7V340z
		 M172.2,342.2h-11.7v4.1h11.7V342.2z M169.2,369.9h-2.1v-15.1h-3v11.5h-2.1v-13.6h5.1v-3.1h2.1v3.1h5.3v10.5c0,1.9-0.8,2.9-2.3,2.9
		c-0.4,0-1.2,0-2.2,0c-0.1-0.7-0.3-1.5-0.4-2.2c0.8,0.1,1.3,0.1,1.8,0.1c0.7,0,1.1-0.4,1.1-1.3v-7.9h-3.2V369.9z M164,320h9.6v-9.6
		h-8v-2.3h8v-6.5h2.5v6.5h8.1v2.3H176v9.6h9.8v2.3H164V320z M182.1,338.6h2.2v26.8c0,2.6-1.2,4-3.5,4c-1.1,0-2.5,0-4.1-0.1
		c-0.1-1-0.3-1.9-0.5-2.7c1.7,0.2,3,0.3,3.9,0.3c1.3,0,2-0.8,2-2.3V338.6z M179.3,361.5h-2.1v-19.8h2.1V361.5z M188.2,319.8h29.5
		v2.7h-29.5V319.8z M188.2,350.6h12.2v-12.3h2.6v4.8h12.8v2.4H203v5.1h14.8v2.4h-29.5V350.6z M190.1,296.4h25.6v2.8h-25.6V296.4z
		 M191.4,307.5h22.9v2.7h-22.9V307.5z M200.4,354.2h2.6v3.7l1.3-1.7c4.9,2.3,8.8,4.4,11.8,6.2l-1.6,2.4c-2.8-1.8-6.6-3.9-11.5-6.4
		V370h-2.6V354.2z M221.3,346.9c1.5,1.1,3.3,2.6,5.4,4.4c-0.8,0.9-1.3,1.6-1.8,2.1c-2.3-2.2-4-3.7-5.1-4.6L221.3,346.9z M219.9,321
		h13.9v-4.2h-12.1v-2.3h12.1v-4.2h-8.5v1.2h-2.4v-16.5h24.3v16.5h-2.4v-1.2h-8.5v4.2h12.1v2.3h-12.1v4.2h14v2.3h-30.4V321z
		 M220.5,368.8c1.1-3.8,2.1-8,3-12.6c0.8,0.3,1.7,0.7,2.5,1c-1,4.3-1.9,8.4-2.8,12.4L220.5,368.8L220.5,368.8z M222.5,338.6
		c1.5,1.3,3.3,2.9,5.3,4.7c-0.7,0.8-1.3,1.4-1.8,2c-2.2-2.3-3.9-3.9-5-4.9L222.5,338.6z M225.3,301.5h8.5v-4.4h-8.5V301.5z
		 M225.3,308.1h8.5v-4.4h-8.5V308.1z M233.2,345.9c-2-2.6-3.5-4.5-4.4-5.4l1.8-1.5c0.9,0.9,2.5,2.7,4.7,5.3L233.2,345.9L233.2,345.9
		z M231.6,369.7h-2.4v-22.5h8.4v-9.1h2.5v9.1h8.2v18.6c0,2.5-1.1,3.8-3.4,3.8c-1.3,0-3.1,0-5.3-0.1c-0.1-0.8-0.3-1.7-0.5-2.6
		c2,0.1,3.6,0.2,4.8,0.2c1.3,0,2-0.6,2-1.8v-3.1h-14.3V369.7z M245.9,349.6h-14.3v4h14.3V349.6z M231.6,359.9h14.3v-4h-14.3V359.9z
		 M244.8,297.1h-8.5v4.4h8.5V297.1z M236.2,308.1h8.5v-4.4h-8.5V308.1z M242.6,344.5c1.5-1.7,3-3.5,4.4-5.5l2.2,1.8
		c-1.3,1.6-2.9,3.4-4.8,5.4L242.6,344.5z M254,341.1h8.8c0-1,0.1-1.9,0.1-2.7h2.2c0,0.8,0,1.7-0.1,2.7h5.3v-2.7h2.2v2.7h7.4v7.3
		h-2.2v-0.8h-5.2v2.9h8.7c0,1.5-0.2,2.9-0.3,4c-0.2,1.5-1.1,2.3-2.8,2.3c-0.2,0-0.6,0-0.9,0v7.9h-2.2V358h-15.4v7h-2.2v-7
		c-1.2,0.6-2.7,1.1-4.3,1.6c-0.3-0.6-0.7-1.4-1.3-2.2c4.6-1.1,7.7-2.7,9.2-5h-6.7l1-6.6h7.3c0.1-0.8,0.1-1.8,0.1-2.8H254V341.1z
		 M276.6,314.7V313h-8.3v5.6c0,1.9,0.8,2.8,2.4,2.8h5.5c1.8,0,2.8-0.8,3.1-2.4c0.2-1.2,0.4-2.9,0.6-4.9c0.9,0.4,1.7,0.7,2.6,1
		c-0.3,2.2-0.6,3.9-0.9,5c-0.6,2.4-2.2,3.6-4.9,3.6H270c-2.7,0-4-1.5-4-4.5V313h-10.5v-10.7h2.3v8.4h8.2v-10.7h-12.9v-2.4H266v-4.3
		h2.4v4.3h13v2.4h-13v10.7h8.3v-8.4h2.3v12.4H276.6z M264.3,365.3c1.4-0.7,2-2.5,2-5.5h2.2c0,1.4-0.1,2.6-0.4,3.6
		c4.6,1.4,8.9,2.9,12.7,4.3l-1.1,2.3c-4.1-1.6-8.2-3.1-12.3-4.5c-1.3,2.2-5.4,3.7-12.5,4.6c-0.4-1-0.7-1.8-1-2.3
		C258.4,367.3,261.9,366.5,264.3,365.3L264.3,365.3z M256.9,350.5h5.1c0.2-0.8,0.4-1.7,0.5-2.9h-5.3L256.9,350.5z M275.1,356
		c-0.1-0.4-0.2-0.9-0.4-1.5c1.1,0.1,2.1,0.2,2.8,0.2c0.8,0,1.3-0.3,1.4-1c0.1-0.5,0.1-0.9,0.2-1.3h-6.5v3.2h-2.2v-3.2h-6.6
		c-0.6,1.3-1.5,2.5-2.9,3.6H275.1L275.1,356z M264.8,347.6c-0.1,1.1-0.2,2.1-0.4,2.9h6v-2.9H264.8L264.8,347.6z M265,343
		c0,1,0,1.9-0.1,2.8h5.4V343H265L265,343z M277.7,343h-5.2v2.8h5.2V343z M285.3,347.1c1.9,1.5,3.5,2.9,5,4.3
		c-0.8,0.9-1.3,1.6-1.8,2.1c-1.6-1.6-3.2-3.1-4.8-4.5L285.3,347.1z M285.9,324.8c-0.4-0.6-1-1.4-1.9-2.4c8-4.5,12.5-10.8,13.5-18.7
		h-12.9v-2.5h13.1c0.1-2.1,0.1-4.8,0.1-7.8h2.7c0,2.7,0,5.3-0.1,7.8h13.5v2.5h-13.4c2.1,8.7,6.8,14.7,14,17.9c-1,1-1.7,1.9-2.2,2.6
		c-6.6-3.9-10.9-9.6-13-17.2C297.5,314.4,293.1,320.3,285.9,324.8L285.9,324.8z M284.5,368.8c1-3.4,2-7.5,2.9-12.3
		c0.9,0.4,1.7,0.8,2.5,1.1c-0.9,3.8-1.8,7.9-2.7,12.1L284.5,368.8L284.5,368.8z M286.4,338.7c1.4,1.2,2.9,2.4,4.4,3.9
		c-0.6,0.7-1.2,1.3-1.7,2c-1.3-1.5-2.7-2.8-4.2-4.1L286.4,338.7z M291.4,347.5h22.8v2.2h-6.8c0,1.1,0,2.2,0,3.3h5.9v12.8
		c0,2.5-1.2,3.8-3.5,3.8c-1,0-2.1,0-3.3-0.1c-0.1-0.8-0.3-1.6-0.5-2.5c1.3,0.2,2.4,0.3,3.2,0.3c1.2,0,1.8-0.6,1.8-1.9v-2.2
		c-0.4,0.4-0.9,0.9-1.5,1.5c-1.1-1.5-2.2-2.9-3.2-4.1c-0.8,2.4-2.1,4.5-3.8,6.1c-0.4-0.6-1-1.2-1.6-1.8c2.4-2.2,3.8-5.4,4.1-9.7h-5
		c0,0.9-0.1,1.7-0.3,2.5c1.1,1.1,2.3,2.2,3.3,3.4c-0.2,0.2-0.7,0.7-1.7,1.7c-0.8-0.9-1.5-1.8-2.3-2.7c-0.8,2.3-2,4.3-3.7,5.9
		c-0.3-0.4-0.7-0.9-1.1-1.4v5.3h-2.2v-16.9h5.8c0-1.1,0-2.2,0-3.3h-6.7V347.5z M291.4,341.8h5.8v-3.6h2.3v3.6h6.5v-3.6h2.3v3.6h5.9
		v2.2h-5.9v2.8H306V344h-6.5v2.8h-2.3V344h-5.8V341.8z M294.5,363.8c2.1-2.1,3.3-5,3.5-8.7h-3.5V363.8z M299.8,323.4
		c-1.3-1.7-2.6-3.4-4.1-5.2l2-1.6c1.5,1.7,2.9,3.3,4.3,5L299.8,323.4L299.8,323.4z M300.2,349.7c0,0.9,0,2,0,3.3h5c0-1,0-2.1,0-3.3
		H300.2L300.2,349.7z M311.1,355.1h-3.7c-0.1,1-0.2,2-0.4,2.9c1.6,1.8,3,3.3,4.1,4.6V355.1z M322.7,354.3c-0.9-0.5-1.9-1-2.8-1.5
		l1.1-1.8c1.2,0.6,2.3,1.2,3.4,1.8c1.1-1.1,2-2.3,2.7-3.7h-6c-1.1,1.9-2.2,3.5-3.5,4.9c-0.4-0.5-0.9-1-1.4-1.5
		c1.9-2.1,3.5-4.8,4.8-7.9l2,0.7c-0.3,0.6-0.6,1.3-0.9,1.8h7.4v1.8c-0.8,1.8-1.9,3.4-3.2,4.8c1.8,0.9,3.4,1.8,4.9,2.6l-1.3,2.1
		c-1.7-1.1-3.5-2.1-5.3-3.1c-1.5,1.3-3.3,2.4-5.3,3.4h9.8v10.3h-2v-1.4h-6.3v1.6h-2V359c-0.6,0.3-1.2,0.5-1.9,0.7
		c-0.3-0.6-0.6-1.2-1-2C318.6,356.9,320.9,355.8,322.7,354.3L322.7,354.3z M320.2,308.7h9.7v-6.9h-13.8v-2.4h13.8v-6.1h2.5v6.1h14.1
		v2.4h-14.1v6.9h10.1v16h-2.4v-2.3h-17.4v2.3h-2.4V308.7z M316.9,341.9h6.3c-0.4-1-0.9-2-1.4-3l2-0.9c0.8,1.5,1.4,2.8,1.9,3.9h5.4
		v4.5h-2.1v-2.6h-10v2.6h-2.1V341.9z M327.1,360.8h-6.3v5h6.3V360.8z M340.1,311.1h-17.4v9h17.4V311.1z M336.7,361.9
		c0.7-1.7,1-5.5,0.9-11.3h2.2c0,5.5-0.2,9.3-0.7,11.4c2.9,2.2,5.5,4.2,7.7,6l-1.5,2.1c-2-1.9-4.3-3.9-7-5.9
		c-1.3,2.4-3.6,4.5-7.1,6.2c-0.4-0.6-0.9-1.3-1.5-2.1C333.5,366.5,335.8,364.4,336.7,361.9L336.7,361.9z M332.2,346.4h4.5l0.7-4.1
		h-5.8v-2.2h14.6v2.2h-6.5l-0.8,4.1h6.4v16.2h-2.1v-14h-8.8v14h-2.1V346.4z M348.3,321h13.9v-4.2h-12.1v-2.3h12.1v-4.2h-8.5v1.2
		h-2.4v-16.5h24.3v16.5h-2.4v-1.2h-8.5v4.2h12.1v2.3h-12.1v4.2h14v2.3h-30.4V321z M348.3,340.8h30.2v2.4h-5.1v21.8
		c0,2.9-1.3,4.4-4,4.4c-1.9,0-3.8,0-5.6,0c-0.1-1-0.3-2-0.5-2.9c2.3,0.2,4.1,0.3,5.3,0.3c1.5,0,2.3-0.9,2.3-2.6v-20.9h-22.6V340.8z
		 M351.7,348h13.5v12.7h-11.1v2.3h-2.4V348z M353.7,301.5h8.5v-4.4h-8.5V301.5z M353.7,308.1h8.5v-4.4h-8.5V308.1z M362.8,350.3
		h-8.7v8.2h8.7V350.3z M373.2,297.1h-8.5v4.4h8.5V297.1z M364.6,308.1h8.5v-4.4h-8.5V308.1z M380.3,355.3c1.2-0.4,2.5-0.8,3.9-1.3
		v-7.5h-3.6v-2.2h3.6v-6h2.3v6h3.5v2.2h-3.5v6.6c1-0.4,2.1-0.8,3.2-1.2c0,1.1,0,1.9,0.1,2.5c-0.2,0.1-1.3,0.5-3.2,1.3v10.4
		c0,2.2-0.9,3.3-2.8,3.4c-0.9,0-1.9,0.1-3,0c-0.1-0.9-0.3-1.8-0.4-2.7c1.1,0.1,2.1,0.2,2.8,0.2c0.7,0,1.1-0.5,1.1-1.4v-9.1
		c-1,0.4-2.2,0.9-3.5,1.4L380.3,355.3z M380.3,319c2.7-1,5.8-2.2,9.5-3.8v-10.1h-8.8v-2.4h8.8v-9.1h2.5v31h-2.5v-6.7
		c-2,0.8-4.8,2.1-8.5,3.7L380.3,319z M389,357.8h2.7v-8.7c-0.5-0.4-1.1-0.9-1.8-1.4c2.7-2.9,4.8-6.2,6.4-9.7l2.5,0.5
		c-0.5,1-1,2-1.6,3h9.2v2.2c-0.8,1-2,2.5-3.6,4.5h5.5v9.7h2.5v2.2h-9.5c1.6,3.7,4.7,6.1,9.3,7.1c-0.8,0.9-1.4,1.8-1.8,2.6
		c-4.2-1.5-7.2-4.2-8.9-8c-1.1,3.3-4.5,6.1-10.2,8.3c-0.4-0.8-1-1.6-1.7-2.4c5.9-1.8,9.2-4.4,10.1-7.6H389V357.8z M400.2,348.1
		c1.4-1.8,2.5-3.2,3.4-4.4h-7.8c-1,1.6-2.1,3.1-3.3,4.4H400.2L400.2,348.1z M393.8,357.8h4.8c0.2-1.1,0.3-3.6,0.2-7.5h-5V357.8z
		 M398.3,293.6h2.5v10.9c2.8-1.5,5.4-3.2,7.8-4.9l1.5,2.3c-2.2,1.5-5.3,3.2-9.3,5.4V319c0,1.5,0.8,2.2,2.3,2.2h2.1
		c1.5,0,2.3-0.7,2.5-2.2c0.2-1.4,0.3-3.1,0.5-5.3c0.9,0.4,1.8,0.7,2.6,1c-0.2,2-0.4,3.8-0.7,5.2c-0.4,2.4-1.8,3.7-4.3,3.7h-3.3
		c-2.8,0-4.2-1.5-4.2-4.4V293.6z M406.1,350.3H401c0,2.7-0.1,5.2-0.2,7.5h5.3V350.3z M412.4,362.3c0.9-0.1,1.8-0.2,2.8-0.4V342h-2.3
		v-2.3h15v1.1h13.4v2c-1.2,7.9-2.9,13.8-5.2,17.5c1.9,2.9,4.2,5.1,6.9,6.7c-0.6,0.6-1.2,1.4-1.9,2.4c-2.2-1.7-4.3-4-6.5-7
		c-2.1,2.8-4.5,5.3-7.3,7.4c-0.6-0.8-1.1-1.5-1.6-2v2h-2.3v-7c-3.7,0.6-7.3,1.2-10.7,1.8L412.4,362.3z M414.9,295.5h26.3v2.5h-23.7
		v22.5h24.2v2.4h-26.8V295.5z M417.4,346.9h6V342h-6V346.9z M417.4,353.9h6V349h-6V353.9z M417.4,361.6c1.9-0.3,3.9-0.6,6-0.9V356
		h-6V361.6L417.4,361.6z M427.8,309.1c-2.6-2.5-5.2-5.1-7.9-7.6l1.7-1.7c2.5,2.2,5.2,4.6,8,7.3c2.1-2.4,4.2-5.1,6.1-7.9l2.2,1.6
		c-2.1,2.9-4.3,5.6-6.5,8.1c2.5,2.4,5.2,5,7.9,7.8l-2.1,2.3c-2.5-2.7-5-5.4-7.6-8.1c-2.9,3.1-5.9,5.9-9,8.3c-0.5-0.7-1.1-1.4-2-2.1
		C421.8,314.8,424.9,312.2,427.8,309.1L427.8,309.1z M427.6,343.1V342h-1.9v18.3c1.1-0.2,2.3-0.4,3.5-0.6c-0.1,0.9-0.1,1.6-0.1,2.2
		c-1.2,0.2-2.3,0.4-3.4,0.5v5.2c2.9-1.8,5.4-4.2,7.6-7.3c-2.4-4-3.9-9.7-4.5-17.4H427.6z M434.7,358.2c1.8-3.1,3.2-8.2,4.3-15.2h-8
		C431.4,349.3,432.7,354.4,434.7,358.2L434.7,358.2z M445.6,361.1c-0.3-0.9-0.7-1.9-1.1-2.8c2.3-3.3,3.9-7.1,5.1-11.4h-4.7v-2.2h4.7
		v-6.4h2.2v6.4h4.5v2.2h-4.5v5.6l1.2-1.3c1.4,1.4,2.7,2.8,3.9,4.2l-1.7,1.7c-1.1-1.4-2.3-2.8-3.5-4.1v16.8h-2.2V353
		C448.5,356.2,447.2,358.9,445.6,361.1L445.6,361.1z M445.8,320.8H470v-5.5h-22.4V313H470v-5.4h-23.3v-2.3h11.8v-12h2.5v12h11.5V325
		H470v-1.9h-24.2V320.8z M453.4,303.5c-1.7-2.4-3.6-4.7-5.8-7l1.7-1.6c2.2,2.2,4.3,4.4,6.1,6.8L453.4,303.5L453.4,303.5z
		 M457.5,340.4h16.1v29.5h-2.3v-2.2h-11.4v2.2h-2.3V340.4z M471.2,342.6h-11.4v6.2h11.4V342.6z M459.8,357.1h11.4v-6.2h-11.4V357.1z
		 M459.8,365.4h11.4v-6.3h-11.4V365.4z M472.1,296.6c-2.2,2.6-4.4,4.9-6.5,7l-1.8-1.7c2.1-2,4.2-4.3,6.3-7.1L472.1,296.6z
		 M492.9,342.6c-0.7-1.2-1.4-2.3-2.2-3.5l2.2-1.3c0.9,1.2,1.7,2.5,2.5,3.8l-1.5,0.9h12.4v2.4h-23.8v7.9c0,7.6-1.5,13.3-4.5,17
		c-0.5-0.7-1.1-1.5-1.8-2.2c2.4-2.9,3.7-7.8,3.7-14.8v-10.4H492.9L492.9,342.6z M480.9,295.3h21.8v29.3h-2.6v-2.3h-16.6v2.3h-2.6
		V295.3z M482.3,365.6h14.1c1.6-4.3,3.3-10.2,5.1-17.6l2.7,0.8c-1.9,7.1-3.6,12.7-5.1,16.8h7.6v2.4h-24.3V365.6z M483.5,297.7v9.6
		h16.6v-9.6H483.5z M483.5,309.8v10.2h16.6v-10.2H483.5z M487.4,363c-0.9-4.3-2.1-8.6-3.4-13.1l2.3-0.8c1.3,3.9,2.5,8.3,3.7,13.1
		L487.4,363L487.4,363z M493.8,361.2c-0.6-4.3-1.4-8.6-2.5-13l2.4-0.7c1.1,3.9,2,8.2,2.8,13L493.8,361.2L493.8,361.2z M509.8,347
		v-2.4H522v2.3c-1.2,2.2-2.6,4.4-4.3,6.4v16.6h-2.4v-13.8c-1.8,1.9-3.7,3.7-5.8,5.4c-0.3-1.3-0.6-2.3-0.8-2.8
		c4.6-3.5,8.1-7.4,10.6-11.8H509.8z M509.1,321.6c3-1.2,5.9-2.6,8.5-4l1.4,2c-3,1.6-5.9,2.9-8.8,4.1
		C509.8,323.1,509.5,322.4,509.1,321.6L509.1,321.6z M530.5,310.3c2.9,2.4,5.1,4.5,6.8,6.3l-1.7,1.8c-0.8-0.9-1.6-1.7-2.5-2.6
		c-2.5,0.1-5,0.2-7.5,0.3v4.3c0,2.7-1.3,4-3.8,4c-1.3,0-2.8,0-4.4,0c-0.1-0.9-0.3-1.8-0.5-2.7c1.6,0.2,3,0.2,4.2,0.2
		c1.4,0,2-0.8,2-2.4v-3.4c-2.7,0.1-5.5,0.3-8.3,0.4c-0.9,0-1.8,0.1-2.6,0.3l-0.8-2.4c1.2-0.2,2.6-0.5,4.2-1.2c2.1-0.8,4.3-1.8,6.8-3
		c-2.5,0.1-4.8,0.2-6.8,0.3c-1,0.1-1.7,0.1-2.2,0.2l-0.8-2.1c1-0.2,2-0.6,3.1-1.1c1.4-0.6,2.7-1.3,4.1-2.1h-5.7v0.9h-2.3v-12.2h24.2
		v12.2h-2.3v-0.9h-10.2c-2.3,1.2-4.5,2.3-6.7,3.3c2.7-0.1,5.8-0.2,9.3-0.3c1.4-0.7,2.9-1.5,4.4-2.3l1.6,1.7c-4.9,2.4-9.9,4.6-15,6.6
		c5.1-0.2,9.8-0.5,14-0.8c-0.7-0.7-1.5-1.4-2.3-2.1L530.5,310.3z M517.1,343.9c-1-1.5-2.1-3-3.1-4.4l1.9-1.3
		c1.1,1.4,2.2,2.8,3.2,4.3L517.1,343.9L517.1,343.9z M514.2,299.1h8.6v-2.9h-8.6V299.1z M514.2,303.7h8.6v-2.9h-8.6V303.7z
		 M523.5,359.5c-1.7-1.6-3.4-3.1-5.2-4.4l1.4-1.7c1.8,1.3,3.5,2.7,5.3,4.2L523.5,359.5L523.5,359.5z M533.7,296.2h-8.7v2.9h8.7
		V296.2z M525.1,303.7h8.7v-2.9h-8.7V303.7z M526.6,338.6h2.4v25.7c0,1.4,0.7,2.1,2.1,2.1h2.6c1.5,0,2.3-0.8,2.5-2.3
		c0.2-1.5,0.3-3.5,0.4-6.1c0.9,0.4,1.7,0.7,2.5,1c-0.2,3.1-0.5,5.2-0.7,6.5c-0.4,2.2-1.9,3.3-4.5,3.3h-3.3c-2.7,0-4.1-1.4-4.1-4.2
		V338.6z M530,317.8c3,1.1,6,2.3,8.7,3.6l-0.9,2.2c-2.7-1.3-5.7-2.5-8.8-3.6L530,317.8z M547.7,319.8c1.8-1.1,3.7-2.4,5.8-3.9
		c0.1,1.1,0.1,2.1,0.2,2.8c-3.3,2.1-6,4-8.1,5.6l-1.5-2.2c0.7-0.6,1.1-1.6,1.1-2.9v-12.8h-4.3v-2.3h6.8V319.8L547.7,319.8z
		 M544,293.7c2.2,2.4,3.8,4.2,4.8,5.3l-2.1,1.9c-1.3-1.8-2.8-3.6-4.6-5.5L544,293.7z M542.5,355h11.7v14.9h-2.3v-2.2h-7v2.2h-2.3
		V355z M551.8,357.2h-7v8.3h7V357.2z M545.5,339.6h21.1v12.8h-2.4v-1h-16.2v1h-2.4V339.6z M564.1,341.8h-16.2v7.2h16.2V341.8z
		 M550.7,304.3h8.9v-11.1h2.6v11.1h9v2.3h-9v18.2h-2.6v-18.2h-8.9V304.3z M557.9,355h11.7v14.9h-2.3v-2.2h-7v2.2h-2.3V355z
		 M567.3,357.2h-7v8.3h7V357.2z"/>
	<path class="st0" d="M153.4,258.5l14.7-13.3c1.5-1.3,2.7-2.5,3.7-3.5c1-1.1,1.8-2.1,2.5-3c0.6-1,1.1-1.9,1.4-2.8
		c0.3-0.9,0.4-1.9,0.4-2.9c0-2.2-0.7-4-2-5.2c-1.3-1.2-3-1.8-4.9-1.8c-2,0-3.7,0.6-5.2,1.7c-1.5,1.1-3.1,2.8-4.7,5.1l-5.3-4.4
		c1-1.5,2.1-2.9,3.1-4.1c1.1-1.2,2.2-2.2,3.5-3c1.2-0.8,2.6-1.4,4.1-1.9c1.5-0.4,3.2-0.7,5.1-0.7c2.1,0,4,0.3,5.7,1
		c1.7,0.7,3.2,1.6,4.5,2.8c1.2,1.2,2.2,2.6,2.9,4.3c0.7,1.7,1,3.5,1,5.6v0.1c0,1.8-0.2,3.4-0.7,4.8c-0.4,1.5-1.1,2.8-2,4.2
		c-0.9,1.3-2.1,2.7-3.5,4.1c-1.4,1.4-3,2.9-4.9,4.5l-8.8,7.8h20.3v7h-30.9V258.5z M209.3,265.6c-2.8,0-5.4-0.6-7.6-1.8
		c-2.3-1.2-4.2-2.9-5.9-5c-1.6-2.1-2.9-4.6-3.8-7.4c-0.9-2.8-1.3-5.9-1.3-9.1v-0.1c0-3.2,0.4-6.3,1.3-9.2c0.9-2.9,2.2-5.4,3.8-7.5
		c1.6-2.1,3.6-3.8,5.9-5c2.3-1.2,4.9-1.9,7.7-1.9c2.8,0,5.4,0.6,7.6,1.8c2.3,1.2,4.2,2.9,5.8,5c1.6,2.1,2.9,4.6,3.8,7.4
		c0.9,2.8,1.3,5.9,1.3,9.1v0.1c0,3.2-0.4,6.3-1.3,9.2c-0.9,2.9-2.2,5.4-3.8,7.5c-1.6,2.1-3.6,3.8-5.9,5
		C214.7,265,212.1,265.6,209.3,265.6z M209.4,258.4c1.7,0,3.2-0.4,4.5-1.3c1.3-0.8,2.5-2,3.4-3.4c0.9-1.5,1.7-3.2,2.2-5.1
		c0.5-2,0.8-4.1,0.8-6.3v-0.1c0-2.3-0.3-4.4-0.8-6.3c-0.5-2-1.3-3.7-2.2-5.2c-0.9-1.5-2.1-2.6-3.5-3.5c-1.4-0.9-2.9-1.3-4.5-1.3
		c-1.7,0-3.2,0.4-4.5,1.3s-2.5,2-3.4,3.4c-0.9,1.5-1.7,3.2-2.2,5.1c-0.5,2-0.8,4.1-0.8,6.3v0.1c0,2.3,0.3,4.4,0.8,6.3
		c0.5,2,1.2,3.7,2.2,5.2c1,1.5,2.1,2.6,3.5,3.5C206.3,257.9,207.8,258.4,209.4,258.4z M241.7,227.1l-7.7,2.3l-1.6-6.5l11.5-3.9h5.3
		v45.8h-7.5V227.1z M273,265.6c-3.3,0-6.2-0.6-8.8-1.9c-2.6-1.3-4.9-2.9-6.9-5l4.6-5.8c1.7,1.7,3.5,3,5.3,4c1.8,1,3.7,1.5,5.7,1.5
		c2.6,0,4.6-0.7,6.2-2.2c1.5-1.4,2.3-3.4,2.3-5.7v-0.1c0-2.3-0.8-4.2-2.5-5.5c-1.6-1.3-3.8-2-6.4-2c-1.5,0-3,0.2-4.3,0.6
		c-1.3,0.4-2.5,0.9-3.6,1.4l-4.5-3.2l1.2-22.3H287v7.1h-19.1l-0.7,10.7c1-0.4,2-0.7,3.1-0.9c1-0.2,2.3-0.4,3.7-0.4
		c2.1,0,4,0.3,5.8,0.9c1.8,0.6,3.4,1.5,4.7,2.7c1.3,1.2,2.4,2.7,3.2,4.5c0.8,1.8,1.2,3.9,1.2,6.3v0.1c0,2.3-0.4,4.5-1.1,6.3
		c-0.8,1.9-1.8,3.5-3.2,4.8c-1.4,1.3-3.1,2.4-5,3.1C277.5,265.2,275.4,265.6,273,265.6z M296.8,259.3h4v5.5h-4V259.3z M332.4,253.7
		h-23.1l-1.1-2.5l24.4-32.2h2.9v31.8h7v2.9h-7v11.1h-3.1V253.7z M332.4,250.8v-26.9L312,250.8H332.4z M350.2,259.3h4v5.5h-4V259.3z
		 M380.3,265.6c-2.7,0-5.2-0.6-7.4-1.9c-2.2-1.3-4-3-5.6-5.1c-1.5-2.1-2.7-4.6-3.5-7.5c-0.8-2.8-1.2-5.8-1.2-8.9v-0.1
		c0-3.1,0.4-6.1,1.3-9c0.8-2.9,2-5.4,3.6-7.5c1.5-2.1,3.4-3.9,5.6-5.1c2.2-1.3,4.6-1.9,7.4-1.9c2.7,0,5.2,0.6,7.4,1.9
		c2.2,1.3,4,3,5.6,5.1c1.5,2.1,2.7,4.6,3.5,7.5c0.8,2.8,1.2,5.8,1.2,8.9v0.1c0,3.1-0.4,6.1-1.3,9c-0.8,2.9-2,5.4-3.6,7.5
		c-1.5,2.1-3.4,3.9-5.6,5.1C385.4,264.9,383,265.6,380.3,265.6z M380.4,262.5c2.2,0,4.2-0.6,6-1.7c1.8-1.1,3.3-2.6,4.5-4.5
		c1.2-1.9,2.2-4.1,2.9-6.5c0.7-2.4,1-5,1-7.6v-0.1c0-2.6-0.3-5.2-1-7.7c-0.7-2.5-1.6-4.6-2.9-6.5c-1.3-1.9-2.8-3.4-4.6-4.6
		c-1.8-1.1-3.8-1.7-6-1.7c-2.2,0-4.2,0.6-6,1.7c-1.8,1.1-3.3,2.6-4.5,4.5c-1.2,1.9-2.2,4.1-2.9,6.5c-0.7,2.4-1,5-1,7.6v0.1
		c0,2.6,0.3,5.2,1,7.6c0.7,2.4,1.6,4.6,2.9,6.5c1.3,1.9,2.8,3.4,4.6,4.6C376.2,262,378.2,262.5,380.4,262.5z M404.3,262.3l15.9-15.3
		c1.8-1.7,3.2-3.2,4.4-4.6c1.2-1.4,2.2-2.7,2.9-3.9c0.8-1.2,1.3-2.4,1.6-3.5c0.3-1.1,0.5-2.3,0.5-3.5c0-1.5-0.3-2.8-0.8-4
		c-0.5-1.2-1.2-2.2-2.1-3.1c-0.9-0.8-1.9-1.5-3.1-1.9c-1.2-0.5-2.4-0.7-3.7-0.7c-2.7,0-5,0.7-7,2.2c-1.9,1.5-3.8,3.5-5.6,6.3
		l-2.4-1.7c0.9-1.5,1.9-2.9,2.9-4.1c1-1.2,2.1-2.2,3.3-3.1c1.2-0.9,2.5-1.5,4-2c1.5-0.5,3.1-0.7,5-0.7c1.8,0,3.5,0.3,5.1,0.9
		c1.5,0.6,2.9,1.5,4,2.6c1.1,1.1,2,2.4,2.7,4c0.7,1.5,1,3.2,1,4.9v0.1c0,1.6-0.2,3-0.6,4.4c-0.4,1.4-1,2.7-1.9,4.1
		c-0.9,1.4-2,2.8-3.3,4.3c-1.3,1.5-3,3.1-4.8,4.9l-13.1,12.6h24.2v3.2h-29.2V262.3z M441.1,243.7h16.4v3.6h-16.4V243.7z
		 M488.3,253.7h-23.1l-1.1-2.5l24.4-32.2h2.9v31.8h7v2.9h-7v11.1h-3.1V253.7z M488.3,250.8v-26.9l-20.4,26.9H488.3z M506.1,259.3h4
		v5.5h-4V259.3z M525.4,222.5l-8.2,3l-0.9-2.7l9.8-3.8h2.5v45.8h-3.2V222.5z M552.3,265.6c-2.7,0-5.1-0.5-7.1-1.6
		c-2.1-1.1-4-2.4-5.8-4l2-2.6c1.8,1.7,3.6,3,5.4,3.9c1.8,0.9,3.6,1.3,5.6,1.3c2.2,0,4.1-0.6,5.9-1.8s3.3-2.8,4.6-4.9
		c1.3-2.1,2.2-4.5,2.9-7.4c0.7-2.9,0.9-6,0.8-9.4c-0.6,1.2-1.3,2.3-2.2,3.3c-0.8,1.1-1.8,2-2.9,2.8c-1.1,0.8-2.3,1.4-3.7,1.9
		c-1.4,0.5-2.9,0.7-4.6,0.7c-2.2,0-4.1-0.4-6-1.1c-1.8-0.7-3.4-1.7-4.7-3c-1.3-1.3-2.3-2.7-3.1-4.4c-0.7-1.7-1.1-3.5-1.1-5.5v-0.1
		c0-2.1,0.4-4.1,1.1-5.9c0.7-1.9,1.8-3.5,3.1-4.9c1.3-1.4,2.9-2.5,4.7-3.3c1.8-0.8,3.9-1.2,6.1-1.2c2.3,0,4.4,0.4,6.2,1.3
		c1.8,0.8,3.4,2,4.7,3.3c0.8,0.9,1.6,1.9,2.2,3c0.7,1.1,1.2,2.4,1.7,3.8c0.5,1.4,0.8,3.1,1.1,4.9c0.2,1.8,0.4,3.9,0.4,6.1v0.1
		c0,3.6-0.4,6.9-1.3,9.9c-0.9,3-2.1,5.6-3.7,7.8c-1.6,2.2-3.4,3.9-5.5,5.1C557,265,554.7,265.6,552.3,265.6z M553.3,244.8
		c1.8,0,3.5-0.3,4.9-1c1.5-0.7,2.7-1.5,3.8-2.6c1-1.1,1.8-2.3,2.4-3.7c0.6-1.4,0.8-2.8,0.8-4.2v-0.1c0-1.6-0.3-3.1-0.9-4.5
		c-0.6-1.4-1.4-2.6-2.5-3.7c-1.1-1-2.3-1.9-3.8-2.5c-1.5-0.6-3.1-0.9-4.9-0.9c-1.8,0-3.3,0.3-4.7,1c-1.4,0.7-2.6,1.6-3.6,2.7
		c-1,1.1-1.7,2.4-2.3,3.9c-0.5,1.5-0.8,3-0.8,4.5v0.1c0,1.6,0.3,3.1,0.9,4.4c0.6,1.3,1.4,2.5,2.4,3.5c1,1,2.3,1.7,3.7,2.3
		C550,244.5,551.6,244.8,553.3,244.8z"/>
	<polyline class="st2" points="0,45 119.8,172 0,297 	"/>
	<path class="st3" d="M16.2,174.3c0-16.3,7.9-24.1,17.5-24.1c9.6,0,17.4,7.8,17.4,24.1c0,16.3-7.8,24.5-17.4,24.5
		C24.1,198.8,16.2,190.7,16.2,174.3z M45.2,174.3c0-12.3-4-18.8-11.5-18.8c-7.3,0-11.5,6.6-11.5,18.8c0,12.3,4.2,19.2,11.5,19.2
		C41.2,193.5,45.2,186.7,45.2,174.3z M64.9,160.5h-7.4v-4.5c4.9,0,7.4-1.3,7.8-5h5.3V198h-5.8V160.5z"/>
	<rect y="0" class="st4" width="720" height="392.5"/>
</g>
<g>
</g>
<g>
</g>
<g>
</g>
<g>
</g>
<g>
</g>
<g>
</g>
<g>
</g>
<g>
</g>
<g>
</g>
<g>
</g>
<g>
</g>
<g>
</g>
<g>
</g>
<g>
</g>
<g>
</g>
</svg>
