<?xml version="1.0" encoding="utf-8"?>
<!-- Generator: Adobe Illustrator 17.0.0, SVG Export Plug-In . SVG Version: 6.00 Build 0)  -->
<!DOCTYPE svg PUBLIC "-//W3C//DTD SVG 1.1//EN" "http://www.w3.org/Graphics/SVG/1.1/DTD/svg11.dtd">
<svg version="1.1" id="Layer_1" xmlns="http://www.w3.org/2000/svg" xmlns:xlink="http://www.w3.org/1999/xlink" x="0px" y="0px"
	 width="720px" height="1036.5px" viewBox="0 0 720 1036.5" style="enable-background:new 0 0 720 1036.5;" xml:space="preserve">
<style type="text/css">
	.st0{fill-rule:evenodd;clip-rule:evenodd;fill:#1D50A2;}
	.st1{fill:#0E2F82;}
	.st2{fill:#FFEAAB;}
	.st3{fill:#EDDDAA;}
	.st4{fill:#4985E6;}
	.st5{fill:#FFFFFF;}
	.st6{fill:none;}
</style>
<g id="page-uber-2.svg">
	<rect x="79.4" y="376.3" class="st0" width="566" height="591"/>
	<path class="st1" d="M229.2,664.6c-14.9,0-27-12.1-27-27c0-14.9,12.1-27,27-27c14.9,0,27,12.1,27,27
		C256.2,652.5,244.2,664.6,229.2,664.6z M232.2,741.6c-14.9,0-27-12.1-27-27c0-14.9,12.1-27,27-27c14.9,0,27,12.1,27,27
		C259.2,729.5,247.2,741.6,232.2,741.6z M169.2,819.6c-14.9,0-27-12.1-27-27c0-14.9,12.1-27,27-27c14.9,0,27,12.1,27,27
		C196.2,807.5,184.2,819.6,169.2,819.6z M169.2,741.6c-14.9,0-27-12.1-27-27c0-14.9,12.1-27,27-27c14.9,0,27,12.1,27,27
		C196.2,729.5,184.2,741.6,169.2,741.6z M169.2,664.6c-14.9,0-27-12.1-27-27c0-14.9,12.1-27,27-27c14.9,0,27,12.1,27,27
		C196.2,652.5,184.2,664.6,169.2,664.6z M552.2,741.6c-14.9,0-27-12.1-27-27c0-14.9,12.1-27,27-27c14.9,0,27,12.1,27,27
		C579.2,729.5,567.2,741.6,552.2,741.6z M552.2,663.6c-14.9,0-27-12.1-27-27c0-14.9,12.1-27,27-27c14.9,0,27,12.1,27,27
		C579.2,651.5,567.2,663.6,552.2,663.6z M552.2,586.6c-14.9,0-27-12.1-27-27c0-14.9,12.1-27,27-27c14.9,0,27,12.1,27,27
		C579.2,574.5,567.2,586.6,552.2,586.6z M494.2,663.6c-14.9,0-27-12.1-27-27c0-14.9,12.1-27,27-27c14.9,0,27,12.1,27,27
		C521.2,651.5,509.2,663.6,494.2,663.6z M494.2,586.6c-14.9,0-27-12.1-27-27c0-14.9,12.1-27,27-27c14.9,0,27,12.1,27,27
		C521.2,574.5,509.2,586.6,494.2,586.6z M434.2,741.6c-14.9,0-27-12.1-27-27c0-14.9,12.1-27,27-27c14.9,0,27,12.1,27,27
		C461.2,729.5,449.2,741.6,434.2,741.6z M434.2,663.6c-14.9,0-27-12.1-27-27c0-14.9,12.1-27,27-27c14.9,0,27,12.1,27,27
		C461.2,651.5,449.2,663.6,434.2,663.6z M434.2,586.6c-14.9,0-27-12.1-27-27c0-14.9,12.1-27,27-27c14.9,0,27,12.1,27,27
		C461.2,574.5,449.2,586.6,434.2,586.6z"/>
	<path class="st2" d="M147.8,454.7v-7.1c0-3.9,2.4-6.5,5.3-8.8c2.9-2.4,4.4-4,4.4-6.5v-4.2c0-2.4-0.9-3.5-2.6-3.5
		c-1.7,0-2.5,1.1-2.5,3.5v3.6h-4.7v-3.8c0-4.6,2.6-7.3,7.2-7.3c4.6,0,7.3,2.7,7.3,7.3v4.7c0,3.9-2.5,6.5-5.4,8.8
		c-2.9,2.4-4.4,4-4.4,6.5v2.8h10.1v4H147.8z M175.2,455.1c-4.7,0-7.7-2.7-7.7-7.3v-20c0-4.6,3-7.3,7.7-7.3s7.7,2.7,7.7,7.3v20
		C182.9,452.4,179.9,455.1,175.2,455.1z M178.2,428.1c0-2.4-1.2-3.5-3-3.5s-3,1.1-3,3.5v19.6c0,2.4,1.2,3.5,3,3.5s3-1.1,3-3.5V428.1
		z M191,454.7v-26.6h-4.1v-3.4c2.4-0.2,4.6-1.1,4.9-3.8h4v33.7H191z M209,455.1c-4.7,0-7.5-2.7-7.5-7.3V444h4.7v3.6
		c0,2.4,1.1,3.5,2.9,3.5s3-1.1,3-3.5V439c0-2-0.9-3.1-2.6-3.1c-1.6,0-2.8,1.1-2.8,3.1v0.2h-4.7l0.8-18.3h13.5v4.1h-9l-0.5,8.9
		c1-1.1,2.6-1.9,4.3-1.9c4.4,0,5.9,3.2,5.9,6.8v8.9C216.7,452.4,213.7,455.1,209,455.1z M243,454.7l-1.2-8.6h-5.3l-1.2,8.6h-4.8
		l5.5-33.7h6.2l5.4,33.7H243z M240,432.3c-0.3-2.4-0.7-6.6-0.7-6.6h-0.1c0,0-0.3,4.2-0.7,6.6l-1.3,10.1h4.1L240,432.3z M260.3,455.1
		c-1.6,0-3.5-0.9-4-2.1v11.5h-4.7v-36.5h4.5v1.8c0.5-1.3,2.4-2.2,4.1-2.2c4.4,0,6.5,2.6,6.5,7.2v13
		C266.8,452.5,264.7,455.1,260.3,455.1z M262.1,435.1c0-2.4-1.2-3.5-2.9-3.5s-2.9,1.1-2.9,3.5v12.5c0,2.4,1.2,3.5,2.9,3.5
		s2.9-1.1,2.9-3.5V435.1z M277,437.5v17.2h-4.7v-26.6h4.6v3.4c1-2.4,3.6-3.7,6.3-3.6v4.6C279.6,431.9,277,433.6,277,437.5z
		 M287,424.1v-5.2h4.7v5.2H287z M287,454.7v-26.6h4.7v26.6H287z M297.2,454.7v-35.8h4.7v35.8H297.2z"/>
	<path class="st3" d="M154,504.2c-3.2,0-4.9-2.1-4.9-5.6v-1.1h1.6v1.1c0,2.7,1.2,4.4,3.4,4.4c2.2,0,3.5-1.8,3.5-4.4
		c0-1.5-0.7-3.3-1.8-4.5l-4.1-4.3c-1.3-1.4-2.3-2.8-2.3-5.1c0-3.5,1.6-5.7,4.9-5.7c3.3,0,4.6,2.2,4.6,5.6v1.1h-1.6v-1
		c0-2.5-0.8-4.3-3.1-4.3c-2.3,0-3.3,1.8-3.3,4.3c0,1.6,0.8,2.8,1.9,4l4.1,4.3c1.3,1.4,2.3,3.3,2.3,5.6
		C159.1,501.8,157.3,504.2,154,504.2z M170.5,503.9v-1.7c-0.6,1.2-1.9,2-3.4,2c-2.9,0-4.3-1.6-4.3-5.2v-14.6h1.6V499
		c0,2.6,0.8,3.8,2.8,3.8c2.1,0,3.3-1.5,3.3-4.2v-14.2h1.6v19.5H170.5z M184,503.9v-14.6c0-2.6-0.8-3.8-2.8-3.8
		c-2.1,0-3.3,1.5-3.3,4.2v14.2h-1.6v-19.5h1.4v1.7c0.6-1.2,1.9-2,3.4-2c2.9,0,4.3,1.6,4.3,5.2v14.6H184z M189.7,503.9v-3.5h1.6v3.5
		H189.7z M224.1,503.9v-19.1c0-1.4,0.2-3.4,0.2-3.4l-4.8,22.5h-1.9l-4.8-22.5c0,0,0.2,2.1,0.2,3.4v19.1h-1.5v-24.6h2.3l4.2,20.2
		c0.2,1.1,0.5,2.9,0.5,2.9s0.3-1.8,0.5-2.9l4.2-20.2h2.3v24.6H224.1z M234.8,504.2c-2.8,0-4.8-1.7-4.8-5.2v-9.7c0-3.5,2-5.2,4.8-5.2
		c2.8,0,4.8,1.7,4.8,5.2v9.7C239.6,502.5,237.6,504.2,234.8,504.2z M238,489.3c0-2.5-1.2-3.8-3.2-3.8c-2,0-3.2,1.4-3.2,3.8v9.7
		c0,2.5,1.2,3.8,3.2,3.8c2,0,3.2-1.4,3.2-3.8V489.3z M251.2,503.9v-14.6c0-2.6-0.8-3.8-2.8-3.8c-2.1,0-3.3,1.5-3.3,4.2v14.2h-1.6
		v-19.5h1.4v1.7c0.6-1.2,1.9-2,3.4-2c2.9,0,4.3,1.6,4.3,5.2v14.6H251.2z M256.9,503.9v-3.5h1.6v3.5H256.9z M282.2,480.5v23.3h-1.6
		v-23.3h-4v-1.3h9.5v1.3H282.2z M296.5,503.9v-1.7c-0.6,1.2-1.9,2-3.4,2c-2.9,0-4.3-1.6-4.3-5.2v-14.6h1.6V499
		c0,2.6,0.8,3.8,2.8,3.8c2.1,0,3.3-1.5,3.3-4.2v-14.2h1.6v19.5H296.5z M306.7,504.2c-2.8,0-4.8-1.7-4.8-5.2v-9.7
		c0-3.5,2-5.2,4.8-5.2s4.8,1.7,4.8,5.2v5h-8v4.7c0,2.5,1.2,3.8,3.2,3.8c2,0,3.2-1.4,3.2-3.8v-0.5h1.6v0.5
		C311.5,502.5,309.5,504.2,306.7,504.2z M309.9,489.3c0-2.5-1.2-3.8-3.2-3.8c-2,0-3.2,1.4-3.2,3.8v3.7h6.5V489.3z M321.9,489.6v-1
		c0-1.8-0.9-3.2-2.8-3.2s-2.9,1.2-2.9,3.1c0,1.4,0.7,2.5,1.8,3.4l3.4,2.8c1.5,1.2,2.4,2.6,2.4,4.6c0,2.8-1.8,4.8-4.7,4.8
		c-3.4,0-4.7-2.3-4.7-4.9v-0.8h1.6v0.8c0,2.2,1.1,3.6,3.1,3.6c2,0,3.1-1.4,3.1-3.4c0-1.4-0.7-2.6-1.8-3.5l-3.4-2.8
		c-1.5-1.2-2.4-2.5-2.4-4.5c0-2.7,1.6-4.5,4.5-4.5c2.9,0,4.3,1.8,4.3,4.5c0,0.3,0,1,0,1H321.9z M327.1,503.9v-3.5h1.6v3.5H327.1z
		 M361.1,503.9h-1.7l-3-18.7c-0.3-1.6-0.5-4.1-0.5-4.1s-0.2,2.5-0.5,4.1l-3.1,18.7h-1.7l-3.9-24.6h1.6l2.7,18.4
		c0.3,1.6,0.4,4.1,0.4,4.1s0.2-2.5,0.4-4.1l3-18.4h1.9l2.9,18.4c0.3,1.6,0.4,4.1,0.4,4.1s0.2-2.5,0.4-4.1l2.8-18.4h1.6L361.1,503.9z
		 M372.2,504.2c-2.8,0-4.8-1.7-4.8-5.2v-9.7c0-3.5,2-5.2,4.8-5.2s4.8,1.7,4.8,5.2v5h-8v4.7c0,2.5,1.2,3.8,3.2,3.8
		c2,0,3.2-1.4,3.2-3.8v-0.5h1.6v0.5C377,502.5,375,504.2,372.2,504.2z M375.4,489.3c0-2.5-1.2-3.8-3.2-3.8c-2,0-3.2,1.4-3.2,3.8v3.7
		h6.5V489.3z M388.8,503.9v-1.7c-0.6,1.2-1.9,2-3.4,2c-2.8,0-4.7-1.7-4.7-5.2v-9.7c0-3.5,1.9-5.2,4.7-5.2c1.4,0,2.8,0.6,3.3,1.7
		v-8.1h1.6v26.2H388.8z M388.6,489.3c0-2.5-1.3-3.8-3.3-3.8c-2,0-3.2,1.4-3.2,3.8v9.7c0,2.5,1.2,3.8,3.2,3.8c2,0,3.3-1.4,3.3-3.8
		V489.3z M394.5,503.9v-3.5h1.6v3.5H394.5z M419.8,480.5v23.3h-1.6v-23.3h-4v-1.3h9.5v1.3H419.8z M434.2,503.9v-14.6
		c0-2.6-0.8-3.8-2.8-3.8c-2.1,0-3.3,1.5-3.3,4.2v14.2h-1.6v-26.2h1.6v8.3c0.5-1.2,1.8-1.9,3.3-1.9c2.9,0,4.3,1.6,4.3,5.2v14.6H434.2
		z M447.5,503.9v-1.7c-0.6,1.2-1.9,2-3.4,2c-2.9,0-4.3-1.6-4.3-5.2v-14.6h1.6V499c0,2.6,0.8,3.8,2.8,3.8c2.1,0,3.3-1.5,3.3-4.2
		v-14.2h1.6v19.5H447.5z M454.9,491.5v12.4h-1.6v-19.5h1.4v3.3c0.5-2.3,2.6-3.5,4.9-3.4v1.5C456.3,485.6,454.9,488.2,454.9,491.5z
		 M462.4,503.9v-3.5h1.6v3.5H462.4z M491.2,480.5V491h4.9v1.3h-4.9v11.5h-1.6v-24.6h7.1v1.3H491.2z M501.2,491.5v12.4h-1.6v-19.5
		h1.4v3.3c0.5-2.3,2.6-3.5,4.9-3.4v1.5C502.6,485.6,501.2,488.2,501.2,491.5z M508.9,481.1v-3.5h1.6v3.5H508.9z M508.9,503.9v-19.5
		h1.6v19.5H508.9z M514.7,503.9v-3.5h1.6v3.5H514.7z M545.7,504.2c-3.2,0-4.9-2.1-4.9-5.6v-1.1h1.6v1.1c0,2.7,1.2,4.4,3.4,4.4
		s3.5-1.8,3.5-4.4c0-1.5-0.7-3.3-1.8-4.5l-4.1-4.3c-1.3-1.4-2.3-2.8-2.3-5.1c0-3.5,1.6-5.7,4.9-5.7c3.3,0,4.6,2.2,4.6,5.6v1.1h-1.6
		v-1c0-2.5-0.8-4.3-3.1-4.3c-2.3,0-3.3,1.8-3.3,4.3c0,1.6,0.8,2.8,1.9,4l4.1,4.3c1.3,1.4,2.3,3.3,2.3,5.6
		C550.8,501.8,549,504.2,545.7,504.2z M561.5,503.9c0,0-0.1-0.9-0.2-1.7c-0.7,1.1-1.9,2-3.8,2c-2.6,0-4.2-1.7-4.2-4.8
		c0-2.9,1.6-4.6,4.1-5.7c2.5-1.1,3.9-2.3,3.9-4.5c0-2.2-0.6-3.7-2.8-3.7c-2.1,0-2.9,1.4-2.9,3.7v0.8H554c0-0.2,0-0.7,0-0.8
		c0-3,1.3-5,4.4-5c3.1,0,4.4,2,4.4,5.3v11.1c0,1.6,0.2,3.3,0.2,3.3H561.5z M561.2,492.2c-0.5,0.8-1.3,1.6-3,2.4
		c-2.5,1.2-3.3,2.5-3.3,4.6c0,2.4,1.1,3.6,2.8,3.6c1.8,0,3.5-1.5,3.5-3.8V492.2z M567.2,498.9v-13.2h-1.7v-1.3h1.7v-4.6h1.6v4.6h2.9
		v1.3h-2.9v13.2c0,2.4,0.6,3.9,3.2,3.8v1.4C568.4,504,567.2,502,567.2,498.9z M574.9,503.9v-3.5h1.6v3.5H574.9z"/>
	<path class="st3" d="M167.6,653.2c-4.7,0-7.5-2.7-7.5-7.3v-3.8h4.7v3.6c0,2.4,1.1,3.5,2.9,3.5s3-1.1,3-3.5v-8.6
		c0-2-0.9-3.1-2.6-3.1c-1.6,0-2.8,1.1-2.8,3.1v0.2h-4.7l0.8-18.3h13.5v4.1h-9l-0.5,8.9c1-1.1,2.6-1.9,4.3-1.9c4.4,0,5.9,3.2,5.9,6.8
		v8.9C175.3,650.5,172.3,653.2,167.6,653.2z M227.7,653.2c-4.7,0-7.6-2.7-7.6-7.3v-20c0-4.6,2.8-7.3,7.5-7.3c4.7,0,7.5,2.7,7.5,7.3
		v3.8h-4.7v-3.6c0-2.4-1-3.5-2.8-3.5s-2.8,1.1-2.8,3.5v8c0.5-1.2,2.3-2.1,3.9-2.1c4.4,0,6.5,2.6,6.5,7.3v6.5
		C235.3,650.5,232.5,653.2,227.7,653.2z M230.6,639.6c0-2.4-1.1-3.5-2.9-3.5c-1.8,0-2.9,1.1-2.9,3.5v6.1c0,2.4,1.1,3.5,2.9,3.5
		c1.8,0,2.9-1.1,2.9-3.5V639.6z M432.3,653.2c-4.7,0-7.5-2.7-7.5-7.3v-2.6h4.7v2.4c0,2.4,1,3.5,2.8,3.5c1.8,0,2.8-1.1,2.8-3.5v-8
		c-0.5,1.2-2.3,2.1-3.9,2.1c-4.4,0-6.5-2.6-6.5-7.3v-6.5c0-4.6,2.9-7.3,7.6-7.3c4.7,0,7.6,2.7,7.6,7.3v20
		C439.9,650.5,437.1,653.2,432.3,653.2z M435.1,626.1c0-2.4-1.1-3.5-2.9-3.5c-1.8,0-2.9,1.1-2.9,3.5v6.1c0,2.4,1.1,3.5,2.9,3.5
		c1.8,0,2.9-1.1,2.9-3.5V626.1z M485.7,652.8v-26.6h-4.1v-3.4c2.4-0.2,4.6-1.1,4.9-3.8h4v33.7H485.7z M502.1,653.2
		c-4.7,0-7.7-2.7-7.7-7.3v-20c0-4.6,3-7.3,7.7-7.3c4.7,0,7.7,2.7,7.7,7.3v20C509.7,650.5,506.8,653.2,502.1,653.2z M505,626.1
		c0-2.4-1.2-3.5-3-3.5s-3,1.1-3,3.5v19.6c0,2.4,1.2,3.5,3,3.5s3-1.1,3-3.5V626.1z M547.1,652.8v-26.6H543v-3.4
		c2.4-0.2,4.6-1.1,4.9-3.8h4v33.7H547.1z M558.1,652.8v-26.6H554v-3.4c2.4-0.2,4.6-1.1,4.9-3.8h4v33.7H558.1z"/>
	<path class="st4" d="M363.8,575.8v-26.6h-4.1v-3.4c2.4-0.2,4.6-1.1,4.9-3.8h4v33.7H363.8z"/>
	<path class="st3" d="M160.8,731.8v-26.6h-4.1v-3.4c2.4-0.2,4.6-1.1,4.9-3.8h4v33.7H160.8z M169,731.8v-7.1c0-3.9,2.4-6.5,5.3-8.8
		c2.9-2.4,4.5-4,4.5-6.5v-4.2c0-2.4-0.9-3.5-2.6-3.5c-1.7,0-2.5,1.1-2.5,3.5v3.6h-4.7v-3.8c0-4.6,2.6-7.3,7.2-7.3
		c4.6,0,7.3,2.7,7.3,7.3v4.7c0,3.9-2.5,6.5-5.4,8.8c-2.9,2.4-4.4,4-4.4,6.5v2.8h10.1v4H169z M222.1,731.8v-26.6H218v-3.4
		c2.4-0.2,4.6-1.1,4.9-3.8h4v33.7H222.1z M237.6,732.2c-4.7,0-7.5-2.7-7.5-7.3v-3.8h4.7v3.6c0,2.4,1,3.5,2.8,3.5s2.9-1.1,2.9-3.5v-5
		c0-2.1-0.9-3.5-2.9-3.5h-2.7v-3.7h2.6c2,0,2.9-1.3,2.9-3.5v-3.9c0-2.4-1-3.5-2.8-3.5s-2.8,1.1-2.8,3.5v3.6h-4.7v-3.8
		c0-4.6,2.7-7.3,7.5-7.3c4.7,0,7.5,2.7,7.5,7.3v3.6c0,2.6-1.2,4.9-3.1,5.6c2,0.8,3.2,3,3.2,5.6v5.2
		C245.2,729.5,242.3,732.2,237.6,732.2z M425.1,731.8v-26.6h-4.1v-3.4c2.4-0.2,4.6-1.1,4.9-3.8h4v33.7H425.1z M441.3,732.2
		c-4.7,0-7.6-2.7-7.6-7.3v-20c0-4.6,2.8-7.3,7.5-7.3c4.7,0,7.5,2.7,7.5,7.3v3.8H444v-3.6c0-2.4-1-3.5-2.8-3.5
		c-1.8,0-2.8,1.1-2.8,3.5v8c0.5-1.2,2.3-2.1,3.9-2.1c4.5,0,6.5,2.6,6.5,7.3v6.5C448.8,729.5,446,732.2,441.3,732.2z M444.1,718.6
		c0-2.4-1.1-3.5-2.9-3.5c-1.8,0-2.9,1.1-2.9,3.5v6.1c0,2.4,1.1,3.5,2.9,3.5c1.8,0,2.9-1.1,2.9-3.5V718.6z M541.8,731.8v-26.6h-4.1
		v-3.4c2.4-0.2,4.6-1.1,4.9-3.8h4v33.7H541.8z M558,732.2c-4.8,0-8-2.6-8-7.3v-5c0-2.6,1.2-4.8,3.2-5.6c-1.6-0.9-3-2.8-3-5.1v-4.3
		c0-4.6,3-7.3,7.7-7.3c4.7,0,7.7,2.7,7.7,7.3v4.3c0,2.2-1.3,4.1-3,5.1c2,0.8,3.2,3,3.2,5.6v5C565.9,729.7,562.9,732.2,558,732.2z
		 M561.2,719.7c0-2.4-1.5-3.5-3.2-3.5s-3.2,1.1-3.2,3.5v5c0,2.4,1.5,3.5,3.2,3.5s3.2-1.1,3.2-3.5V719.7z M561,705.1
		c0-2.4-1.3-3.5-3-3.5s-3,1.1-3,3.5v4.3c0,2.4,1.3,3.5,3,3.5s3-1.1,3-3.5V705.1z"/>
	<path class="st4" d="M217.7,808.8v-7.1c0-3.9,2.4-6.5,5.3-8.8c2.9-2.4,4.5-4,4.5-6.5v-4.2c0-2.4-0.9-3.5-2.6-3.5
		c-1.7,0-2.5,1.1-2.5,3.5v3.6h-4.7v-3.8c0-4.6,2.6-7.3,7.2-7.3c4.6,0,7.3,2.7,7.3,7.3v4.7c0,3.9-2.5,6.5-5.4,8.8
		c-2.9,2.4-4.4,4-4.4,6.5v2.8h10.1v4H217.7z M242.2,809.2c-4.7,0-7.7-2.7-7.7-7.3v-20c0-4.6,3-7.3,7.7-7.3c4.7,0,7.7,2.7,7.7,7.3v20
		C249.8,806.5,246.9,809.2,242.2,809.2z M245.1,782.1c0-2.4-1.2-3.5-3-3.5c-1.8,0-3,1.1-3,3.5v19.6c0,2.4,1.2,3.5,3,3.5
		c1.8,0,3-1.1,3-3.5V782.1z M284.4,808.8v-7.1c0-3.9,2.4-6.5,5.3-8.8c2.9-2.4,4.4-4,4.4-6.5v-4.2c0-2.4-0.9-3.5-2.6-3.5
		c-1.7,0-2.5,1.1-2.5,3.5v3.6h-4.7v-3.8c0-4.6,2.6-7.3,7.2-7.3c4.6,0,7.3,2.7,7.3,7.3v4.7c0,3.9-2.5,6.5-5.4,8.8
		c-2.9,2.4-4.4,4-4.4,6.5v2.8h10.1v4H284.4z M303.6,808.8v-26.6h-4.1v-3.4c2.4-0.2,4.6-1.1,4.9-3.8h4v33.7H303.6z M349,808.8v-7.1
		c0-3.9,2.4-6.5,5.3-8.8c2.9-2.4,4.4-4,4.4-6.5v-4.2c0-2.4-0.9-3.5-2.6-3.5c-1.7,0-2.5,1.1-2.5,3.5v3.6H349v-3.8
		c0-4.6,2.6-7.3,7.2-7.3c4.6,0,7.3,2.7,7.3,7.3v4.7c0,3.9-2.5,6.5-5.4,8.8c-2.9,2.4-4.4,4-4.4,6.5v2.8h10.1v4H349z M365.3,808.8
		v-7.1c0-3.9,2.4-6.5,5.3-8.8c2.9-2.4,4.4-4,4.4-6.5v-4.2c0-2.4-0.9-3.5-2.6-3.5c-1.7,0-2.5,1.1-2.5,3.5v3.6h-4.7v-3.8
		c0-4.6,2.6-7.3,7.2-7.3c4.6,0,7.3,2.7,7.3,7.3v4.7c0,3.9-2.5,6.5-5.4,8.8c-2.9,2.4-4.4,4-4.4,6.5v2.8h10.1v4H365.3z M417.1,808.8
		v-7.1c0-3.9,2.4-6.5,5.3-8.8c2.9-2.4,4.5-4,4.5-6.5v-4.2c0-2.4-0.9-3.5-2.6-3.5c-1.7,0-2.5,1.1-2.5,3.5v3.6H417v-3.8
		c0-4.6,2.6-7.3,7.2-7.3c4.6,0,7.3,2.7,7.3,7.3v4.7c0,3.9-2.5,6.5-5.4,8.8c-2.9,2.4-4.4,4-4.4,6.5v2.8h10.1v4H417.1z M440.8,809.2
		c-4.7,0-7.5-2.7-7.5-7.3v-3.8h4.7v3.6c0,2.4,1,3.5,2.8,3.5s2.9-1.1,2.9-3.5v-5c0-2.1-0.9-3.5-2.9-3.5h-2.7v-3.7h2.6
		c2,0,2.9-1.3,2.9-3.5v-3.9c0-2.4-1-3.5-2.8-3.5s-2.8,1.1-2.8,3.5v3.6h-4.7v-3.8c0-4.6,2.7-7.3,7.5-7.3c4.7,0,7.5,2.7,7.5,7.3v3.6
		c0,2.6-1.2,4.9-3.1,5.6c2,0.8,3.2,3,3.2,5.6v5.2C448.4,806.5,445.5,809.2,440.8,809.2z M478.1,808.8v-7.1c0-3.9,2.4-6.5,5.3-8.8
		c2.9-2.4,4.4-4,4.4-6.5v-4.2c0-2.4-0.9-3.5-2.6-3.5c-1.7,0-2.5,1.1-2.5,3.5v3.6h-4.7v-3.8c0-4.6,2.6-7.3,7.2-7.3
		c4.6,0,7.3,2.7,7.3,7.3v4.7c0,3.9-2.5,6.5-5.4,8.8c-2.9,2.4-4.4,4-4.4,6.5v2.8h10.1v4H478.1z M508.5,802.5v6.3h-4.7v-6.3h-10.2
		v-3.5l8.9-24h6v23.6h2.8v3.8H508.5z M498.1,798.7h5.7v-12.9c0-3.1,0.7-6.2,0.7-6.2L498.1,798.7z M536.3,808.8v-7.1
		c0-3.9,2.4-6.5,5.3-8.8c2.9-2.4,4.4-4,4.4-6.5v-4.2c0-2.4-0.9-3.5-2.6-3.5c-1.7,0-2.5,1.1-2.5,3.5v3.6h-4.7v-3.8
		c0-4.6,2.6-7.3,7.2-7.3c4.6,0,7.3,2.7,7.3,7.3v4.7c0,3.9-2.5,6.5-5.4,8.8c-2.9,2.4-4.4,4-4.4,6.5v2.8h10.1v4H536.3z M560.2,809.2
		c-4.7,0-7.5-2.7-7.5-7.3v-3.8h4.7v3.6c0,2.4,1.1,3.5,2.9,3.5s3-1.1,3-3.5v-8.6c0-2-0.9-3.1-2.6-3.1c-1.6,0-2.8,1.1-2.8,3.1v0.2H553
		l0.8-18.3h13.5v4.1h-9l-0.5,8.9c1-1.1,2.6-1.9,4.3-1.9c4.4,0,5.9,3.2,5.9,6.8v8.9C567.9,806.5,565,809.2,560.2,809.2z"/>
	<path class="st4" d="M154.5,884.8v-7.1c0-3.9,2.4-6.5,5.3-8.8c2.9-2.4,4.4-4,4.4-6.5v-4.2c0-2.4-0.9-3.5-2.6-3.5
		c-1.7,0-2.5,1.1-2.5,3.5v3.6h-4.7v-3.8c0-4.6,2.6-7.3,7.2-7.3c4.6,0,7.3,2.7,7.3,7.3v4.7c0,3.9-2.5,6.5-5.4,8.8
		c-2.9,2.4-4.4,4-4.4,6.5v2.8h10.1v4H154.5z M178.9,885.2c-4.7,0-7.6-2.7-7.6-7.3v-20c0-4.6,2.8-7.3,7.5-7.3c4.7,0,7.5,2.7,7.5,7.3
		v3.8h-4.7v-3.6c0-2.4-1-3.5-2.8-3.5c-1.8,0-2.8,1.1-2.8,3.5v8c0.5-1.2,2.3-2.1,3.9-2.1c4.4,0,6.5,2.6,6.5,7.3v6.5
		C186.5,882.5,183.6,885.2,178.9,885.2z M181.7,871.6c0-2.4-1.1-3.5-2.9-3.5c-1.8,0-2.9,1.1-2.9,3.5v6.1c0,2.4,1.1,3.5,2.9,3.5
		c1.8,0,2.9-1.1,2.9-3.5V871.6z M217.5,884.8v-7.1c0-3.9,2.4-6.5,5.3-8.8c2.9-2.4,4.4-4,4.4-6.5v-4.2c0-2.4-0.9-3.5-2.6-3.5
		c-1.7,0-2.5,1.1-2.5,3.5v3.6h-4.7v-3.8c0-4.6,2.6-7.3,7.2-7.3c4.6,0,7.3,2.7,7.3,7.3v4.7c0,3.9-2.5,6.5-5.4,8.8
		c-2.9,2.4-4.4,4-4.4,6.5v2.8h10.1v4H217.5z M240.8,884.8H236c-0.3-11.4,2.7-23,8.1-29.6h-10.8v-4.1h15.1v4
		C243.2,861.8,240.4,872.8,240.8,884.8z M278.4,884.8v-7.1c0-3.9,2.4-6.5,5.3-8.8c2.9-2.4,4.4-4,4.4-6.5v-4.2c0-2.4-0.9-3.5-2.6-3.5
		c-1.7,0-2.5,1.1-2.5,3.5v3.6h-4.7v-3.8c0-4.6,2.6-7.3,7.2-7.3c4.6,0,7.3,2.7,7.3,7.3v4.7c0,3.9-2.5,6.5-5.4,8.8
		c-2.9,2.4-4.4,4-4.4,6.5v2.8h10.1v4H278.4z M302.8,885.2c-4.8,0-8-2.6-8-7.3v-5c0-2.6,1.2-4.8,3.2-5.6c-1.6-0.9-3-2.8-3-5.1v-4.3
		c0-4.6,3-7.3,7.7-7.3c4.7,0,7.7,2.7,7.7,7.3v4.3c0,2.2-1.3,4.1-3,5.1c2,0.8,3.2,3,3.2,5.6v5C310.8,882.7,307.7,885.2,302.8,885.2z
		 M306.1,872.7c0-2.4-1.5-3.5-3.2-3.5c-1.8,0-3.2,1.1-3.2,3.5v5c0,2.4,1.5,3.5,3.2,3.5c1.8,0,3.2-1.1,3.2-3.5V872.7z M305.8,858.1
		c0-2.4-1.3-3.5-3-3.5c-1.8,0-3,1.1-3,3.5v4.3c0,2.4,1.3,3.5,3,3.5c1.8,0,3-1.1,3-3.5V858.1z M348.3,884.8v-7.1
		c0-3.9,2.4-6.5,5.3-8.8c2.9-2.4,4.4-4,4.4-6.5v-4.2c0-2.4-0.9-3.5-2.6-3.5c-1.7,0-2.5,1.1-2.5,3.5v3.6h-4.7v-3.8
		c0-4.6,2.6-7.3,7.2-7.3c4.6,0,7.3,2.7,7.3,7.3v4.7c0,3.9-2.5,6.5-5.4,8.8c-2.9,2.4-4.4,4-4.4,6.5v2.8H363v4H348.3z M372.7,885.2
		c-4.7,0-7.5-2.7-7.5-7.3v-2.6h4.7v2.4c0,2.4,1,3.5,2.8,3.5s2.8-1.1,2.8-3.5v-8c-0.5,1.2-2.3,2.1-3.9,2.1c-4.4,0-6.5-2.6-6.5-7.3
		v-6.5c0-4.6,2.9-7.3,7.6-7.3c4.7,0,7.6,2.7,7.6,7.3v20C380.2,882.5,377.4,885.2,372.7,885.2z M375.5,858.1c0-2.4-1.1-3.5-2.9-3.5
		c-1.8,0-2.9,1.1-2.9,3.5v6.1c0,2.4,1.1,3.5,2.9,3.5c1.8,0,2.9-1.1,2.9-3.5V858.1z M420.2,885.2c-4.7,0-7.5-2.7-7.5-7.3v-3.8h4.7
		v3.6c0,2.4,1,3.5,2.8,3.5c1.8,0,2.9-1.1,2.9-3.5v-5c0-2.1-0.9-3.5-2.9-3.5h-2.7v-3.7h2.6c2,0,2.9-1.3,2.9-3.5v-3.9
		c0-2.4-1-3.5-2.8-3.5c-1.8,0-2.8,1.1-2.8,3.5v3.6h-4.7v-3.8c0-4.6,2.7-7.3,7.5-7.3c4.7,0,7.5,2.7,7.5,7.3v3.6
		c0,2.6-1.2,4.9-3.1,5.6c2,0.8,3.2,3,3.2,5.6v5.2C427.8,882.5,424.9,885.2,420.2,885.2z M437.8,885.2c-4.7,0-7.7-2.7-7.7-7.3v-20
		c0-4.6,3-7.3,7.7-7.3c4.7,0,7.7,2.7,7.7,7.3v20C445.5,882.5,442.5,885.2,437.8,885.2z M440.8,858.1c0-2.4-1.2-3.5-3-3.5
		c-1.8,0-3,1.1-3,3.5v19.6c0,2.4,1.2,3.5,3,3.5c1.8,0,3-1.1,3-3.5V858.1z"/>
	<path class="st3" d="M429.1,575.8v-7.1c0-3.9,2.4-6.5,5.3-8.8c2.9-2.4,4.4-4,4.4-6.5v-4.2c0-2.4-0.9-3.5-2.6-3.5
		c-1.7,0-2.5,1.1-2.5,3.5v3.6h-4.7v-3.8c0-4.6,2.6-7.3,7.2-7.3c4.6,0,7.3,2.7,7.3,7.3v4.7c0,3.9-2.5,6.5-5.4,8.8
		c-2.9,2.4-4.4,4-4.4,6.5v2.8h10.1v4H429.1z"/>
	<path class="st3" d="M495.5,576.2c-4.7,0-7.5-2.7-7.5-7.3v-3.8h4.7v3.6c0,2.4,1,3.5,2.8,3.5c1.8,0,2.9-1.1,2.9-3.5v-5
		c0-2.1-0.9-3.5-2.9-3.5h-2.7v-3.7h2.6c2,0,2.9-1.3,2.9-3.5v-3.9c0-2.4-1-3.5-2.8-3.5c-1.8,0-2.8,1.1-2.8,3.5v3.6H488v-3.8
		c0-4.6,2.7-7.3,7.5-7.3c4.7,0,7.5,2.7,7.5,7.3v3.6c0,2.6-1.2,4.9-3.1,5.6c2,0.8,3.2,3,3.2,5.6v5.2
		C503.1,573.5,500.2,576.2,495.5,576.2z"/>
	<path class="st3" d="M556.4,565.7v-23.6h-6l-8.9,24v3.5h10.2v6.3h4.7v-6.3h2.8v-3.8H556.4z M551.6,552.8v12.9H546l6.3-19.1
		C552.3,546.6,551.6,549.7,551.6,552.8z"/>
	<path class="st4" d="M299.1,652.8h-4.8c-0.3-11.4,2.7-23,8.1-29.6h-10.8v-4.1h15.1v4C301.4,629.8,298.7,640.8,299.1,652.8z"/>
	<path class="st4" d="M371.6,635.3c1.6-0.9,3-2.8,3-5.1v-4.3c0-4.6-3-7.3-7.7-7.3c-4.7,0-7.7,2.7-7.7,7.3v4.3c0,2.2,1.3,4.1,3,5.1
		c-2,0.8-3.2,3-3.2,5.6v5c0,4.7,3.1,7.3,8,7.3c4.9,0,8-2.5,8-7.3v-5C374.8,638.3,373.6,636.1,371.6,635.3z M363.8,626.1
		c0-2.4,1.3-3.5,3-3.5s3,1.1,3,3.5v4.3c0,2.4-1.3,3.5-3,3.5s-3-1.1-3-3.5V626.1z M370.1,645.7c0,2.4-1.5,3.5-3.2,3.5
		s-3.2-1.1-3.2-3.5v-5c0-2.4,1.5-3.5,3.2-3.5s3.2,1.1,3.2,3.5V645.7z"/>
	<path class="st4" d="M287.3,731.8v-26.6h-4.1v-3.4c2.4-0.2,4.6-1.1,4.9-3.8h4v33.7H287.3z"/>
	<path class="st4" d="M309.4,721.7v-23.6h-6l-8.9,24v3.5h10.2v6.3h4.7v-6.3h2.8v-3.8H309.4z M304.7,708.8v12.9h-5.7l6.3-19.1
		C305.4,702.6,304.7,705.7,304.7,708.8z"/>
	<path class="st4" d="M356.6,731.8v-26.6h-4.1v-3.4c2.4-0.2,4.6-1.1,4.9-3.8h4v33.7H356.6z"/>
	<path class="st4" d="M372.4,732.2c-4.7,0-7.5-2.7-7.5-7.3v-3.8h4.7v3.6c0,2.4,1.1,3.5,2.9,3.5c1.8,0,3-1.1,3-3.5v-8.6
		c0-2-0.9-3.1-2.6-3.1c-1.6,0-2.8,1.1-2.8,3.1v0.2h-4.7l0.8-18.3h13.5v4.1h-9l-0.5,8.9c1-1.1,2.6-1.9,4.3-1.9c4.4,0,5.9,3.2,5.9,6.8
		v8.9C380.1,729.5,377.1,732.2,372.4,732.2z"/>
	<path class="st4" d="M487.7,731.8v-26.6h-4.1v-3.4c2.4-0.2,4.6-1.1,4.9-3.8h4v33.7H487.7z"/>
	<path class="st4" d="M502.8,731.8H498c-0.3-11.4,2.7-23,8.1-29.6h-10.8v-4.1h15.1v4C505.2,708.8,502.5,719.8,502.8,731.8z"/>
	<path class="st3" d="M157.8,808.8v-26.6h-4.1v-3.4c2.4-0.2,4.6-1.1,4.9-3.8h4v33.7H157.8z"/>
	<path class="st3" d="M174,774.6c-4.7,0-7.6,2.7-7.6,7.3v6.5c0,4.7,2.1,7.3,6.5,7.3c1.6,0,3.4-0.9,3.9-2.1v8c0,2.4-1,3.5-2.8,3.5
		c-1.8,0-2.8-1.1-2.8-3.5v-2.4h-4.7v2.6c0,4.6,2.7,7.3,7.5,7.3c4.7,0,7.5-2.7,7.5-7.3v-20C181.6,777.3,178.7,774.6,174,774.6z
		 M176.9,788.2c0,2.4-1.1,3.5-2.9,3.5c-1.8,0-2.9-1.1-2.9-3.5v-6.1c0-2.4,1.1-3.5,2.9-3.5c1.8,0,2.9,1.1,2.9,3.5V788.2z"/>
	<g>
		<g>
			<path class="st2" d="M96.6,14l1.8-1.1c0.5,0.7,1,1.7,1.7,2.8h10.4v1.9H88.1v9.5c0,6.1-0.9,10.9-2.8,14.6
				c-0.2-0.4-0.7-1.1-1.6-2.1c1.7-3.2,2.5-7.4,2.5-12.6V15.8h11.4C97.3,15.2,97,14.7,96.6,14z M88.1,37.1v-1.8h9.8v-1.8h-8.5v-1.7
				h8.5v-1.8c-2.4,0.1-5.2,0.2-8.2,0.2l-0.3-1.8c7.5-0.1,13.4-0.4,17.7-0.9l0.7,1.8c-2,0.2-4.6,0.3-7.9,0.5v1.9h8.5v1.7h-8.5v1.8
				h10.4v1.8H99.8v0.7c0,2.5-1,3.7-3.1,3.7c-1.1,0-2.1,0-3.1-0.1c-0.1-0.7-0.2-1.4-0.3-2.3c1,0.2,2,0.3,2.9,0.3c1.1,0,1.7-0.7,1.7-2
				v-0.4H88.1z M88.2,25.8c1.5-0.8,3-2.1,4.4-3.9h-3.7v-1.6H93v-2.2h1.7v2.2h3v1.6h-3v1.4l0.7-0.8c0.9,0.6,1.8,1.3,2.5,1.9l-1.1,1.1
				c-0.8-0.7-1.5-1.3-2.2-1.8v3.6H93v-3.9c-1.1,1.5-2.3,2.8-3.7,3.9C89,26.9,88.6,26.3,88.2,25.8z M97.1,26.1c1.9-1.1,3.6-2.5,5-4.2
				h-3.2v-1.6h3.8v-2.2h1.7v2.2h4.8v1.6h-4.3c1.6,1.8,3.5,3.2,5.6,4c-0.5,0.5-1,1.1-1.3,1.6c-1.8-1.1-3.4-2.6-4.8-4.4V27h-1.7v-3.8
				c-1.3,1.7-2.8,3.2-4.5,4.3C98,27.1,97.6,26.7,97.1,26.1z"/>
			<path class="st2" d="M113.5,16.9v-2h10.7v2c-2.4,4.5-6.2,8.3-11.3,11.3c-0.3-0.7-0.7-1.3-1.1-2.1c1.9-1.1,3.4-2.1,4.6-3
				c-1.1-1.3-2.3-2.5-3.5-3.8l1.3-1.4c1.3,1.3,2.6,2.6,3.7,3.8c1.5-1.4,2.8-3.1,3.8-4.9H113.5z M112.3,39h9
				c-0.6-0.7-1.6-1.6-2.8-2.8l1.3-1.4c1.1,1,2.2,2,3.3,3.1L122,39h6.5l-0.9-1c1.2-1.1,2.2-2.2,3.1-3.3l1.6,1.5
				c-0.8,0.9-1.8,1.9-2.8,2.9h9.2v2h-26.4V39z M116.5,26.6h17.8v9h-2v-1.1h-13.7v1.1h-2V26.6z M132.2,28.5h-13.7v4.1h13.7V28.5z
				 M120.7,22.1h9.1V24h-9.1V22.1z M127.5,13.4c0.4,1.2,0.9,2.3,1.4,3.3c2-1.2,3.7-2.3,5.2-3.4l1.3,1.8c-1.7,1.1-3.5,2.2-5.5,3.3
				c0.5,0.8,1,1.5,1.6,2.1c1.9-1.1,3.6-2.3,5.3-3.5l1.3,1.9c-1.5,1-3.2,2-5,3.1c1.7,1.5,3.7,2.4,6,2.9c-0.5,0.8-1,1.6-1.5,2.4
				c-5.7-2.1-9.7-6.6-12-13.3L127.5,13.4z"/>
			<path class="st2" d="M145.1,38.9H143V23.7h9.6v-4h-11.9v-2.2h12.6c-0.6-1.2-1.2-2.5-2-3.7l2.1-1.1c0.8,1.2,1.5,2.5,2.1,3.8
				l-1.8,1h13v2.2h-12v4h9.8v11c0,2.5-1.1,3.7-3.2,3.7c-1,0-2.3,0-3.9-0.1c-0.1-0.6-0.2-1.4-0.4-2.3c1.5,0.1,2.7,0.1,3.6,0.1
				c1.2,0,1.8-0.6,1.8-1.9v-8.3h-7.7v16h-2.2v-16h-7.5V38.9z"/>
			<path class="st2" d="M169.5,32.6h11.6v-2h1.9v2h11.6v1.9h-9.5c3.1,2.4,6.6,4,10.5,4.9c-0.5,0.8-0.9,1.5-1.3,2.2
				c-4.4-1.4-8.2-3.6-11.3-6.5v6.9h-1.9V35c-3.3,3-7,5.2-11.3,6.6c-0.4-0.6-0.8-1.2-1.3-1.8c3.9-1,7.3-2.8,10.4-5.3h-9.4V32.6z
				 M181.4,13.9l1.6-1.1c0.8,1,1.5,2,2.1,3l-1.2,0.8h10.3v1.8h-10.2v2.1h9v1.7h-9v2.1h9v1.7h-9v2.1h10.3V30h-19.6v1.1h-1.9V20.7
				c-0.9,1.2-1.9,2.2-2.8,3.2c-0.3-0.6-0.7-1.2-1.3-1.9c2.6-2.4,4.8-5.3,6.6-8.7l1.9,0.9c-0.5,0.9-1,1.8-1.5,2.6h7.6
				C182.7,15.8,182.1,14.9,181.4,13.9z M174.6,20.6h7.5v-2.1h-7.5V20.6z M174.6,24.4h7.5v-2.1h-7.5V24.4z M174.6,28.2h7.5v-2.1h-7.5
				V28.2z"/>
			<path class="st2" d="M201.6,35.2l1.6,1.4c-1.8,2.1-3.5,3.9-5,5.4c-0.4-0.5-0.9-1-1.4-1.6C198.6,38.8,200.1,37.1,201.6,35.2z
				 M197.1,32.6h2.5V19.1h-2.2v-2h2.2v-3.6h2v3.6h5.6v-3.7h2v3.7h2.2v2h-2.2v13.5h2.2v2h-14.3V32.6z M201.6,22.4h5.6v-3.3h-5.6V22.4
				z M201.6,27.5h5.6v-3.3h-5.6V27.5z M201.6,32.6h5.6v-3.3h-5.6V32.6z M205.1,36.6l1.3-1.4c1.3,1,2.4,2,3.6,3.1l-1.4,1.7
				C207.5,38.8,206.4,37.7,205.1,36.6z M212.8,14.2h9.5V38c0,2.3-1,3.5-3,3.5c-1,0-2,0-3-0.1c-0.1-0.6-0.2-1.4-0.3-2.3
				c1.3,0.1,2.3,0.2,2.8,0.2c1,0,1.5-0.5,1.5-1.6v-6.2h-5.8c-0.2,4.3-1.4,7.8-3.6,10.7c-0.5-0.5-1-1.1-1.6-1.6
				c1.5-1.8,2.4-3.7,2.8-5.7c0.4-1.9,0.6-5.1,0.6-9.8V14.2z M214.7,29.6h5.6v-5.7h-5.6C214.8,26.4,214.8,28.3,214.7,29.6z
				 M220.3,16.2h-5.6V22h5.6V16.2z"/>
			<path class="st2" d="M226.6,18.8h2.1v23h-2.1V18.8z M228,14.5l1.5-1.5c1.4,1.4,2.6,2.8,3.8,4.1l-1.8,1.7
				C230.5,17.4,229.3,16,228,14.5z M232.8,20.9h11.4v14.5h-9.5v1.8h-1.9V20.9z M242.3,23h-7.5v4.1h7.5V23z M234.8,33.3h7.5v-4.2
				h-7.5V33.3z M235.1,17.1v-2.2h15.6v23.2c0,2.5-1.3,3.7-3.9,3.7c-1,0-2.4,0-4.1-0.1c-0.1-0.6-0.2-1.4-0.4-2.4
				c1.5,0.1,2.9,0.2,4.3,0.2c1.3,0,2-0.7,2-2.1V17.1H235.1z"/>
			<path class="st5" d="M257.9,34.3l-2.3,7.8h-1.9l1.7-7.8H257.9z"/>
			<path class="st5" d="M83.9,58.2h7.5c-0.5-0.9-1.2-1.8-2-2.9l1.5-1.1c1,1.2,1.7,2.2,2.3,3.1l-1.2,0.8h6.4l-0.9-0.6
				c0.8-1.1,1.5-2.3,2.2-3.5l1.8,1.1c-0.7,1.1-1.4,2-2.2,2.9h7.4V60H83.9V58.2z M87.2,79.4h-1.8V62.5h10.2v14.2
				c0,1.7-0.8,2.5-2.4,2.4c-0.7,0-1.6,0-2.7-0.1c-0.1-0.7-0.2-1.3-0.3-1.9c0.9,0.1,1.8,0.1,2.6,0.1c0.7,0,1-0.3,1-1v-3.2h-6.7V79.4z
				 M93.9,64.2h-6.7v2.7h6.7V64.2z M87.2,71.4h6.7v-2.7h-6.7V71.4z M98.5,62.9h1.8v11.4h-1.8V62.9z M103.3,61.7h1.8v14.2
				c0,2.1-0.9,3.1-2.7,3.1c-0.8,0-1.9,0-3.1,0c-0.1-0.7-0.2-1.4-0.3-2.1c1.2,0.1,2.1,0.2,2.8,0.2c1,0,1.5-0.5,1.5-1.7V61.7z"/>
			<path class="st5" d="M107.6,69.5c2.5-2.1,4.6-5,6.4-8.4l1.7,0.9c-0.8,1.5-1.7,2.9-2.5,4.2v13.2h-1.9V68.7
				c-0.9,1.1-1.8,2.1-2.8,2.9C108.2,70.9,108,70.2,107.6,69.5z M107.7,61.5c2.2-1.8,4.1-4.2,5.6-7.1l1.7,1.1c-1.9,3.2-4,5.8-6.4,7.9
				C108.4,62.8,108.1,62.2,107.7,61.5z M114.8,76.1h7.2v-7.4h-5.6v-1.8h5.6v-6h-6.3v-1.8h14.6v1.8h-6.3v6h5.6v1.8h-5.6v7.4h6.9v1.8
				h-16.1V76.1z M120.5,55.3l1.5-1c0.8,1.1,1.6,2.2,2.2,3.2l-1.6,1.2C121.9,57.4,121.2,56.3,120.5,55.3z"/>
			<path class="st5" d="M131.9,75.3h22.6v2.1h-22.6V75.3z M133.4,56.9h19.6v2.2h-19.6V56.9z M134.4,65.6h17.5v2.2h-17.5V65.6z"/>
			<path class="st5" d="M155.5,76.3h10.6V73h-9.2v-1.8h9.2v-3.3h-6.5v0.9h-1.8v-13h18.5v13h-1.8v-0.9H168v3.3h9.2V73H168v3.3h10.7
				v1.8h-23.2V76.3z M159.6,60.9h6.5v-3.4h-6.5V60.9z M159.6,66.1h6.5v-3.4h-6.5V66.1z M174.5,57.5H168v3.4h6.5V57.5z M168,66.1h6.5
				v-3.4H168V66.1z"/>
			<path class="st5" d="M198.2,71.3V70h-6.3v4.4c0,1.5,0.6,2.2,1.8,2.2h4.2c1.3,0,2.1-0.6,2.3-1.9c0.2-1,0.3-2.3,0.4-3.9
				c0.7,0.3,1.3,0.5,2,0.8c-0.2,1.7-0.5,3.1-0.7,4c-0.4,1.9-1.7,2.8-3.8,2.8h-5c-2,0-3.1-1.2-3.1-3.6v-5h-8v-8.5h1.8v6.6h6.3v-8.4
				h-9.8v-1.9h9.8v-3.4h1.8v3.4h9.9v1.9h-9.9v8.4h6.3v-6.6h1.8v9.8H198.2z"/>
			<path class="st5" d="M203.3,77.4c6.1-3.6,9.5-8.5,10.3-14.8h-9.8v-2h10c0.1-1.7,0.1-3.7,0.1-6.2h2c0,2.2,0,4.2-0.1,6.2h10.3v2
				h-10.2c1.6,6.9,5.2,11.6,10.7,14.1c-0.7,0.8-1.3,1.5-1.7,2c-5-3.1-8.3-7.6-9.9-13.5c-1.3,5.8-4.7,10.5-10.2,14
				C204.4,78.9,203.9,78.2,203.3,77.4z M212.2,74l1.5-1.3c1.1,1.3,2.2,2.6,3.3,3.9l-1.7,1.4C214.4,76.8,213.4,75.5,212.2,74z"/>
			<path class="st5" d="M230.3,66.6h7.4v-5.4h-10.5v-1.9h10.5v-4.8h1.9v4.8h10.8v1.9h-10.8v5.4h7.7v12.6h-1.9v-1.8h-13.3v1.8h-1.9
				V66.6z M245.5,68.5h-13.3v7.1h13.3V68.5z"/>
			<path class="st5" d="M251.2,76.3h10.6V73h-9.2v-1.8h9.2v-3.3h-6.5v0.9h-1.8v-13H272v13h-1.8v-0.9h-6.5v3.3h9.2V73h-9.2v3.3h10.7
				v1.8h-23.2V76.3z M255.3,60.9h6.5v-3.4h-6.5V60.9z M255.3,66.1h6.5v-3.4h-6.5V66.1z M270.2,57.5h-6.5v3.4h6.5V57.5z M263.7,66.1
				h6.5v-3.4h-6.5V66.1z"/>
			<path class="st5" d="M275.1,75.6c3-0.4,6.9-1.1,11.6-2c0,0.7,0,1.4,0.1,1.9c-3.5,0.6-7.2,1.3-11.2,2.1L275.1,75.6z M284.7,78
				c1.9-1.4,3.7-3.1,5.1-5c-1-3-1.6-7.1-1.8-12.2h-12.6v-1.9H288c-0.1-1.4-0.1-2.9-0.2-4.4h1.9c0,1.5,0,3,0.1,4.4h8.3v1.9h-8.2
				c0.1,4.2,0.5,7.7,1.3,10.3c1.5-2.3,2.7-4.9,3.6-7.7l1.8,0.8c-1.3,3.4-2.8,6.5-4.6,9.1c0.7,1.6,1.5,2.8,2.5,3.5
				c0.9,0.7,1.5,0.4,1.7-0.8c0.2-1.3,0.4-2.6,0.5-3.9c0.6,0.3,1.2,0.5,1.8,0.7c-0.3,1.9-0.6,3.4-0.8,4.4c-0.3,1.3-1,2-2.1,2
				c-0.9,0-1.8-0.4-2.6-1.1c-0.9-0.8-1.6-1.8-2.3-3.1c-1.4,1.7-2.9,3.2-4.6,4.5C285.7,79,285.3,78.5,284.7,78z M277.1,63.3h8.4v8.9
				h-1.7V71h-5v1.8h-1.7V63.3z M283.9,65h-5v4.2h5V65z M291.5,55.7l1-1.3c1.3,0.8,2.5,1.7,3.8,2.7l-1.1,1.5
				C294,57.6,292.8,56.6,291.5,55.7z"/>
			<path class="st5" d="M303.7,54.6h1.8c0,3.5-0.1,6.5-0.2,9c2,2.4,3.8,4.5,5.3,6.4l-1.4,1.5c-1.1-1.6-2.5-3.4-4.1-5.4
				c-0.5,4.8-2.1,9-4.9,12.8c-0.4-0.5-0.8-1-1.4-1.6c2.1-2.7,3.5-6,4.2-9.8C303.5,65.3,303.7,61,303.7,54.6z M313,54.6h1.8
				c0,1.9,0,4.1-0.1,6.6c1,7.7,3.5,12.9,7.6,15.7c-0.6,0.7-1.1,1.3-1.5,2c-3.3-2.6-5.5-6.7-6.7-12.3c-0.8,5.1-3.3,9.4-7.3,12.8
				c-0.5-0.7-1-1.2-1.4-1.6c3.9-3.2,6.3-7.3,7.1-12.5C312.8,62.9,313,59.3,313,54.6z"/>
			<path class="st5" d="M323.3,75.3h22.6v2.1h-22.6V75.3z M324.7,56.9h19.6v2.2h-19.6V56.9z M325.8,65.6h17.5v2.2h-17.5V65.6z"/>
			<path class="st5" d="M346.9,76.3h10.6V73h-9.2v-1.8h9.2v-3.3H351v0.9h-1.8v-13h18.5v13h-1.8v-0.9h-6.5v3.3h9.2V73h-9.2v3.3h10.7
				v1.8h-23.2V76.3z M351,60.9h6.5v-3.4H351V60.9z M351,66.1h6.5v-3.4H351V66.1z M365.9,57.5h-6.5v3.4h6.5V57.5z M359.4,66.1h6.5
				v-3.4h-6.5V66.1z"/>
			<path class="st5" d="M389.6,71.3V70h-6.3v4.4c0,1.5,0.6,2.2,1.8,2.2h4.2c1.3,0,2.1-0.6,2.3-1.9c0.2-1,0.3-2.3,0.4-3.9
				c0.7,0.3,1.3,0.5,2,0.8c-0.2,1.7-0.5,3.1-0.7,4c-0.4,1.9-1.7,2.8-3.8,2.8h-5c-2,0-3.1-1.2-3.1-3.6v-5h-8v-8.5h1.8v6.6h6.3v-8.4
				h-9.8v-1.9h9.8v-3.4h1.8v3.4h9.9v1.9h-9.9v8.4h6.3v-6.6h1.8v9.8H389.6z"/>
			<path class="st5" d="M394.6,77.4c6.1-3.6,9.5-8.5,10.3-14.8h-9.8v-2h10c0.1-1.7,0.1-3.7,0.1-6.2h2c0,2.2,0,4.2-0.1,6.2h10.3v2
				h-10.2c1.6,6.9,5.2,11.6,10.7,14.1c-0.7,0.8-1.3,1.5-1.7,2c-5-3.1-8.3-7.6-9.9-13.5c-1.3,5.8-4.7,10.5-10.2,14
				C395.8,78.9,395.3,78.2,394.6,77.4z M403.6,74l1.5-1.3c1.1,1.3,2.2,2.6,3.3,3.9l-1.7,1.4C405.8,76.8,404.7,75.5,403.6,74z"/>
			<path class="st5" d="M421.7,66.6h7.4v-5.4h-10.5v-1.9h10.5v-4.8h1.9v4.8h10.8v1.9h-10.8v5.4h7.7v12.6h-1.9v-1.8h-13.3v1.8h-1.9
				V66.6z M436.9,68.5h-13.3v7.1h13.3V68.5z"/>
			<path class="st5" d="M442.6,76.3h10.6V73H444v-1.8h9.2v-3.3h-6.5v0.9h-1.8v-13h18.5v13h-1.8v-0.9h-6.5v3.3h9.2V73h-9.2v3.3h10.7
				v1.8h-23.2V76.3z M446.7,60.9h6.5v-3.4h-6.5V60.9z M446.7,66.1h6.5v-3.4h-6.5V66.1z M461.6,57.5h-6.5v3.4h6.5V57.5z M455.1,66.1
				h6.5v-3.4h-6.5V66.1z"/>
			<path class="st5" d="M485.1,67.2v-0.9H479v10h6.8v-7.2h2V79h-2v-0.9h-17.6v-9.2h2v7.2h6.7v-10h-8.1v-9.1h2v7.2h6.1v-9.5h2v9.5
				h6.1v-7.2h2v10.1H485.1z"/>
			<path class="st5" d="M493.5,60.1h4.9c0.4-1.8,0.7-3.7,1-5.8l2,0.3c-0.3,1.9-0.6,3.8-1,5.5h12.9V62H500c-0.3,1.1-0.6,2.2-0.9,3.2
				h11.6V67c-1,2.8-2.6,5.2-4.8,7.2c2.2,1.4,4.7,2.5,7.6,3c-0.7,0.8-1.2,1.6-1.6,2.1c-2.5-0.9-5-2.2-7.5-3.9c-2,1.4-4.9,2.8-8.7,4.1
				c-0.4-0.7-0.9-1.3-1.4-1.9c3.8-1.1,6.7-2.2,8.6-3.4c-2-1.9-3.5-4.3-4.4-7.2c-1.7,4.6-4,8.4-7,11.4c-0.4-0.6-0.8-1.2-1.2-1.7
				c3.5-3.4,6.1-8.3,7.7-14.7h-6.5v-1.9c0.6-1.6,1.2-3.2,1.8-4.8l1.9,0.6C494.6,57.3,494.1,58.7,493.5,60.1z M508.6,67h-8.4
				c0.7,2.3,2.1,4.4,4.2,6.1C506.4,71.2,507.8,69.2,508.6,67z M505,56.1l1-1.4c1.5,1,3,2.1,4.4,3.3l-1.3,1.7
				C507.8,58.3,506.4,57.2,505,56.1z"/>
			<path class="st5" d="M515.3,58.6h2.4c0.6-1.5,1.1-2.9,1.4-4.2l2,0.6c-0.5,1.3-1,2.5-1.4,3.6h4.7v20.2h-1.9v-2h-5.3V79h-1.9V58.6z
				 M522.4,60.5h-5.3v6.2h5.3V60.5z M517.1,74.9h5.3v-6.4h-5.3V74.9z M524.6,63.8c1.5-2.5,2.7-5.7,3.7-9.4l2,0.5
				c-0.4,1.3-0.8,2.5-1.2,3.6h7.5c-0.2,8.7-0.3,14.2-0.5,16.4c-0.1,2.7-1.4,4-3.9,4c-1.4,0-2.9-0.1-4.3-0.2
				c-0.1-0.8-0.2-1.6-0.4-2.3h0.1c1.6,0.2,3,0.4,4.3,0.4c1.4,0,2.2-0.8,2.3-2.4c0.2-2.5,0.3-7.2,0.4-14h-6.3
				c-0.7,1.6-1.4,3.1-2.1,4.3C525.8,64.4,525.2,64.1,524.6,63.8z M526.7,65.5l1.4-1.1c1.7,2.2,3.1,4.1,4.1,5.8l-1.7,1.3
				C529.4,69.5,528.1,67.5,526.7,65.5z"/>
			<path class="st5" d="M541.5,57.7V68c0,4.8-0.7,8.6-2,11.4c-0.5-0.6-0.9-1-1.3-1.3c1.1-2.5,1.7-6.1,1.7-10.9V55.9h9.5v1.8H541.5z
				 M543.1,60.7h5.9v7.4c0,1.2-0.2,1.9-0.7,2.3c-0.4,0.4-1.3,0.6-2.7,0.6c-0.1-0.8-0.2-1.5-0.3-2.1c0.9,0.2,1.5,0.2,1.7,0.1
				c0.2-0.1,0.4-0.4,0.4-0.9v-5.5h-2.7v13.2c1.5-0.7,3.1-1.6,4.6-2.5c0,0.8,0.1,1.4,0.2,1.9c-2.3,1.3-3.9,2.2-4.8,2.7
				c-0.6,0.4-1.1,0.7-1.4,1.1l-1-1.4c0.5-0.5,0.7-1.2,0.7-2.2V60.7z M554.6,63.9h1.6v3.8c0,1.9-0.2,3.6-0.6,5.1
				c2,1.8,3.9,3.5,5.6,5.3l-1.3,1.5c-1.5-1.7-3.1-3.4-4.9-5c0,0.1-0.1,0.2-0.1,0.3c-0.9,1.9-2.6,3.6-5,4.9c-0.4-0.6-0.8-1.2-1.2-1.5
				c2.2-1.2,3.8-2.5,4.6-4.1c0.8-1.5,1.3-3.6,1.3-6.3V63.9z M550.6,60.8h2.9l0.6-3.1h-3.9v-1.7h11.2v1.7h-5.4l-0.7,3.1h5.1v13.2
				h-1.6V62.4h-6.6v11.5h-1.6V60.8z"/>
			<path class="st5" d="M569.7,59.2l1.7,0.8c-0.4,0.5-0.7,0.9-1.1,1.4h10.8V63c-1.3,1.6-3,3-5.1,4.2c2.6,0.9,5.7,1.3,9.5,1.3
				c-0.4,0.7-0.8,1.3-1.2,2.1c-4.2-0.3-7.6-1.1-10.4-2.4c-3,1.3-6.7,2.3-11.1,2.9c-0.3-0.6-0.6-1.2-1-1.8c3.9-0.4,7.3-1.1,10-2.1
				c-1.5-0.9-2.7-2-3.6-3.3c-1.2,1.2-2.4,2.3-3.6,3.3c-0.3-0.4-0.7-0.9-1.2-1.4C566.2,63.6,568.3,61.5,569.7,59.2z M563.3,57.4h10.1
				c-0.4-0.7-0.9-1.4-1.5-2.2l1.6-1.1c0.6,0.8,1.3,1.6,1.9,2.6l-1.1,0.7h9.9v4.7h-1.7v-3.1h-17.4v3h-1.7V57.4z M566.2,71.2h15.2v8.1
				h-1.7v-1.1h-11.8v1.1h-1.7V71.2z M579.7,72.9h-11.8v3.8h11.8V72.9z M578.7,63h-8.9c1.1,1.4,2.4,2.5,4.1,3.3
				C575.9,65.4,577.5,64.3,578.7,63z"/>
			<path class="st5" d="M611.5,69.2h-25.8v-1.9h25.8V69.2z"/>
			<path class="st5" d="M637.4,69.2h-25.8v-1.9h25.8V69.2z"/>
			<path class="st5" d="M83.7,101.2h3.8c-0.7-1.1-1.3-2.1-1.9-2.9l1.3-1c0.5,0.7,1.2,1.6,2,2.9l-1.3,1h3.1c0.8-1.3,1.6-2.6,2.3-3.9
				l1.7,1c-0.8,1.1-1.5,2-2.2,2.9H96v1.6H83.7V101.2z M86.1,108.7l1.6,0.8c-0.8,1.9-1.7,3.6-2.5,5.2c-0.5-0.3-1-0.6-1.5-0.9
				C84.5,112.5,85.3,110.8,86.1,108.7z M84.3,105.9h4.8v-2.4h1.7v2.4h4.6v1.6h-4.6v6.6c0,1.8-0.8,2.7-2.4,2.7c-0.7,0-1.4,0-2.3,0
				c-0.1-0.6-0.1-1.2-0.3-1.9c0.9,0.1,1.6,0.2,2.1,0.2c0.7,0,1.1-0.4,1.1-1.3v-6.2h-4.8V105.9z M84.4,95.3h5
				c-0.3-0.7-0.7-1.4-1.1-2.3l1.5-0.8c0.5,0.9,0.9,1.7,1.4,2.6l-0.8,0.4h5v1.6H84.4V95.3z M92.9,108.8c0.9,1.3,1.6,2.5,2.3,3.6
				l-1.5,1.1c-0.7-1.3-1.4-2.5-2.2-3.7L92.9,108.8z M96.8,94.5c3.2,0,6.2-0.4,8.9-1l0.6,2c-3.1,0.4-5.7,0.7-7.9,0.9v5.9h8.5v1.7
				h-3.3v13.3h-1.7v-13.3h-3.5v1.2c0,5.2-1.1,9.2-3.4,12.1c-0.4-0.5-0.8-1.1-1.2-1.6c2-2.4,3-5.9,3-10.6V94.5z"/>
			<path class="st5" d="M107.9,94.5h22.7v2.1h-11.4v5.5l1.1-1.6c3.6,2.3,6.6,4.3,9,6.2l-1.4,2.1c-2.4-2-5.3-4.1-8.7-6.4v14.9h-2.1
				V96.6h-9.2V94.5z"/>
			<path class="st5" d="M142,115.7c1.8-1.4,3.5-3,5-5c-0.8-2.6-1.3-5.9-1.5-9.9h-13.8v-1.7h5.8v-2.4h-4.9v-1.6h4.9v-2.6h1.7v2.6h4.6
				v1.6h-4.6v2.4h6.1c-0.1-2-0.2-4.2-0.3-6.7h1.8c0,2.4,0.1,4.6,0.2,6.7h7.8v1.7h-7.7c0.2,3.1,0.5,5.8,1.1,8
				c1.2-1.8,2.2-3.8,3.1-6.1l1.6,0.8c-1.2,2.8-2.5,5.3-4,7.4c0.5,1.2,1.1,2.3,1.7,3.1c0.4,0.5,0.8,0.8,1.1,0.8c0.4,0,0.7-0.3,0.8-1
				c0.2-0.9,0.4-2.1,0.5-3.5c0.6,0.3,1.2,0.5,1.7,0.7c-0.2,1.4-0.4,2.7-0.7,3.8c-0.4,1.5-1.1,2.3-2.1,2.3c-1.1,0-2.2-0.8-3.2-2.4
				c-0.4-0.6-0.8-1.3-1.1-2.1c-1.3,1.7-2.8,3.1-4.3,4.3C142.9,116.4,142.4,116,142,115.7z M135,108h3.2v-2.3h1.7v2.3h4.4v1.6h-4.4
				v2.4c1.4-0.1,2.9-0.3,4.5-0.4c0,0.5-0.1,1.1-0.1,1.7c-1.4,0.1-2.9,0.2-4.4,0.4v3.7h-1.7v-3.6c-1.8,0.2-3.8,0.4-5.8,0.6l-0.4-1.8
				c1.9-0.1,3.9-0.3,6.2-0.4v-2.5H133V108c0.6-0.9,1.2-1.9,1.9-3h-2.7v-1.6h3.5c0.4-0.8,0.8-1.5,1.1-2.4l1.7,0.6
				c-0.3,0.6-0.6,1.2-0.9,1.8h6.8v1.6h-7.6C136.1,106.1,135.5,107.1,135,108z M148.4,94.3l1.1-1.2c1.6,1.3,2.8,2.4,3.8,3.4l-1.3,1.5
				C151,96.7,149.8,95.5,148.4,94.3z"/>
			<path class="st5" d="M170.9,106c0,5.6-2.3,8.3-7,8.3c-4.4,0-6.7-2.7-6.7-8V94.3h2.3v11.8c0,3.9,1.5,5.9,4.6,5.9
				c2.9,0,4.4-1.9,4.4-5.7v-12h2.3V106z"/>
			<path class="st5" d="M177.3,112v2H175V93.2h2.3v9.2h0c1-1.8,2.5-2.8,4.4-2.8c1.6,0,2.9,0.6,3.9,1.9c1,1.2,1.4,2.9,1.4,5.1
				c0,2.4-0.5,4.3-1.6,5.7c-1.1,1.4-2.5,2.1-4.3,2.1C179.5,114.3,178.2,113.6,177.3,112L177.3,112z M177.3,108.2
				c0,1.1,0.3,2.1,1,2.9c0.7,0.8,1.5,1.2,2.5,1.2c1.2,0,2.2-0.5,2.8-1.5c0.7-1,1-2.4,1-4.2c0-1.5-0.3-2.7-1-3.5
				c-0.6-0.9-1.5-1.3-2.6-1.3c-1.1,0-2,0.4-2.8,1.3c-0.7,0.9-1.1,2-1.1,3.3V108.2z"/>
			<path class="st5" d="M200.8,107.6h-9c0,1.5,0.4,2.7,1.1,3.5c0.7,0.8,1.7,1.2,3,1.2c1.4,0,2.8-0.5,4-1.5v2.2
				c-1.1,0.9-2.6,1.3-4.5,1.3c-1.9,0-3.3-0.6-4.4-1.9c-1-1.3-1.6-3.1-1.6-5.4c0-2.2,0.6-3.9,1.7-5.3c1.1-1.4,2.6-2.1,4.3-2.1
				c1.7,0,3,0.6,4,1.8c1,1.2,1.4,2.8,1.4,5V107.6z M198.5,105.6c0-1.3-0.3-2.3-0.8-2.9c-0.5-0.7-1.3-1-2.3-1c-0.9,0-1.7,0.4-2.4,1.1
				c-0.7,0.7-1.1,1.7-1.3,2.9H198.5z"/>
			<path class="st5" d="M210.8,102.4c-0.4-0.3-0.9-0.4-1.6-0.4c-0.9,0-1.6,0.5-2.2,1.4c-0.6,0.9-0.9,2.1-0.9,3.6v7.1h-2.3v-14h2.3
				v2.9h0c0.7-2.1,1.8-3.1,3.4-3.1c0.5,0,0.9,0.1,1.2,0.2V102.4z"/>
			<path class="st5" d="M235.5,110.2h11.4v-4.3h-8.6v-1.9c1.1-2,2-4,2.9-5.9h-4.8v-1.9h5.7c0.6-1.4,1.2-2.7,1.7-4l1.8,0.6
				c-0.5,1.2-1,2.3-1.5,3.4h13.1v1.9h-14c-1,2.3-2,4.3-2.8,6h6.5v-4.9h1.8v4.9h6.8v1.8h-6.8v4.3h9.3v1.9h-9.3v5.3h-1.8v-5.3h-11.4
				V110.2z"/>
			<path class="st5" d="M275.4,114h-2.6l-1.8-5.4h-7.5l-1.7,5.4h-2.6l6.9-19.7h2.5L275.4,114z M270.2,106.4l-2.7-8.2
				c-0.1-0.3-0.2-0.7-0.3-1.4h-0.1c-0.1,0.6-0.2,1-0.3,1.4l-2.7,8.2H270.2z"/>
			<path class="st5" d="M280,112v8.4h-2.3V99.9h2.3v2.4h0c1-1.8,2.5-2.8,4.4-2.8c1.7,0,2.9,0.6,3.9,1.9c0.9,1.3,1.4,2.9,1.4,5.1
				c0,2.3-0.5,4.2-1.6,5.6c-1.1,1.4-2.5,2.1-4.3,2.1C282.2,114.3,280.9,113.6,280,112L280,112z M280,108.2c0,1.1,0.3,2.1,1,2.9
				c0.7,0.8,1.5,1.2,2.5,1.2c1.2,0,2.2-0.5,2.8-1.5c0.7-1,1-2.4,1-4.2c0-1.5-0.3-2.7-1-3.6c-0.6-0.9-1.5-1.3-2.6-1.3
				c-1.1,0-2.1,0.4-2.8,1.3c-0.7,0.9-1.1,2-1.1,3.4V108.2z"/>
			<path class="st5" d="M295.3,112v8.4H293V99.9h2.3v2.4h0c1-1.8,2.5-2.8,4.4-2.8c1.7,0,2.9,0.6,3.9,1.9c0.9,1.3,1.4,2.9,1.4,5.1
				c0,2.3-0.5,4.2-1.6,5.6c-1.1,1.4-2.5,2.1-4.3,2.1C297.5,114.3,296.2,113.6,295.3,112L295.3,112z M295.3,108.2
				c0,1.1,0.3,2.1,1,2.9c0.7,0.8,1.5,1.2,2.5,1.2c1.2,0,2.2-0.5,2.8-1.5c0.7-1,1-2.4,1-4.2c0-1.5-0.3-2.7-1-3.6
				c-0.6-0.9-1.5-1.3-2.6-1.3c-1.1,0-2.1,0.4-2.8,1.3c-0.7,0.9-1.1,2-1.1,3.4V108.2z"/>
			<path class="st5" d="M307.5,96.6h2.4c0.6-1.5,1.1-2.9,1.4-4.2l2,0.6c-0.5,1.3-1,2.5-1.4,3.6h4.7v20.2h-1.9v-2h-5.3v2.2h-1.9V96.6
				z M314.7,98.5h-5.3v6.2h5.3V98.5z M309.4,112.9h5.3v-6.4h-5.3V112.9z M316.9,101.8c1.5-2.5,2.7-5.7,3.7-9.4l2,0.5
				c-0.4,1.3-0.8,2.5-1.2,3.6h7.5c-0.2,8.7-0.3,14.2-0.5,16.4c-0.1,2.7-1.4,4-3.9,4c-1.4,0-2.9-0.1-4.3-0.2
				c-0.1-0.8-0.2-1.6-0.4-2.3h0.1c1.6,0.2,3,0.4,4.3,0.4c1.4,0,2.2-0.8,2.3-2.4c0.2-2.5,0.3-7.2,0.4-14h-6.3
				c-0.7,1.6-1.4,3.1-2.1,4.3C318.1,102.4,317.5,102.1,316.9,101.8z M318.9,103.5l1.4-1.1c1.7,2.2,3.1,4.1,4.1,5.8l-1.7,1.3
				C321.7,107.5,320.4,105.5,318.9,103.5z"/>
			<path class="st5" d="M333.8,95.7V106c0,4.8-0.7,8.6-2,11.4c-0.5-0.6-0.9-1-1.3-1.3c1.1-2.5,1.7-6.1,1.7-10.9V93.9h9.5v1.8H333.8z
				 M335.3,98.7h5.9v7.4c0,1.2-0.2,1.9-0.7,2.3c-0.4,0.4-1.3,0.6-2.7,0.6c-0.1-0.8-0.2-1.5-0.3-2.1c0.9,0.2,1.5,0.2,1.7,0.1
				c0.2-0.1,0.4-0.4,0.4-0.9v-5.5h-2.7v13.2c1.5-0.7,3.1-1.6,4.6-2.5c0,0.8,0.1,1.4,0.2,1.9c-2.3,1.3-3.9,2.2-4.8,2.7
				c-0.6,0.4-1.1,0.7-1.4,1.1l-1-1.4c0.5-0.5,0.7-1.2,0.7-2.2V98.7z M346.9,101.9h1.6v3.8c0,1.9-0.2,3.6-0.6,5.1
				c2,1.8,3.9,3.5,5.6,5.3l-1.3,1.5c-1.5-1.7-3.1-3.4-4.9-5c0,0.1-0.1,0.2-0.1,0.3c-0.9,1.9-2.6,3.6-5,4.9c-0.4-0.6-0.8-1.2-1.2-1.5
				c2.2-1.2,3.8-2.5,4.6-4.1c0.8-1.5,1.3-3.6,1.3-6.3V101.9z M342.9,98.8h2.9l0.6-3.1h-3.9v-1.7h11.2v1.7h-5.4l-0.7,3.1h5.1v13.2
				H351v-11.5h-6.6v11.5h-1.6V98.8z"/>
			<path class="st5" d="M362.1,97.2l1.7,0.8c-0.4,0.5-0.7,0.9-1.1,1.4h10.8v1.6c-1.3,1.6-3,3-5.1,4.2c2.6,0.9,5.7,1.3,9.5,1.3
				c-0.4,0.7-0.8,1.3-1.2,2.1c-4.2-0.3-7.6-1.1-10.4-2.4c-3,1.3-6.7,2.3-11.1,2.9c-0.3-0.6-0.6-1.2-1-1.8c3.9-0.4,7.3-1.1,10-2.1
				c-1.5-0.9-2.7-2-3.6-3.3c-1.2,1.2-2.4,2.3-3.6,3.3c-0.3-0.4-0.7-0.9-1.2-1.4C358.5,101.6,360.6,99.5,362.1,97.2z M355.6,95.4
				h10.1c-0.4-0.7-0.9-1.4-1.5-2.2l1.6-1.1c0.6,0.8,1.3,1.6,1.9,2.6l-1.1,0.7h9.9v4.7h-1.7v-3.1h-17.4v3h-1.7V95.4z M358.5,109.2
				h15.2v8.1H372v-1.1h-11.8v1.1h-1.7V109.2z M372,110.9h-11.8v3.8H372V110.9z M371,101H362c1.1,1.4,2.4,2.5,4.1,3.3
				C368.2,103.4,369.8,102.3,371,101z"/>
			<path class="st5" d="M380.3,105h2.1v-4.6h1.5v4.6h2.2v1.7H384v3.5c0.8-0.1,1.7-0.3,2.5-0.4c-0.1,0.6-0.1,1.2-0.2,1.8
				c-0.8,0.1-1.6,0.2-2.4,0.4v5.7h-1.5v-5.4c-1.3,0.2-2.5,0.4-3.8,0.6l-0.3-1.9c1.3-0.2,2.7-0.3,4.1-0.5v-3.7h-3.7v-1.8
				c0.6-1.8,1.2-4.1,1.8-6.9h-2.1v-1.6h2.4c0.3-1.2,0.5-2.5,0.8-3.9l1.7,0.4c-0.3,1.2-0.6,2.4-0.8,3.5h4.2V98h-4.6
				C381.5,100.7,380.9,103.1,380.3,105z M395.2,92.6l-0.4,0.6c1.8,3,4.1,5.1,6.8,6.4c-0.5,0.7-0.9,1.3-1.2,1.8
				c-1.1-0.6-2-1.4-2.9-2.2v1.3h-8.1v-1.1c-0.9,0.8-1.9,1.6-2.9,2.3c-0.5-0.7-0.9-1.2-1.2-1.5c3.1-2,5.6-4.4,7.5-7.4H395.2z
				 M388.5,117.5H387v-15h6.2V115c0,1.5-0.6,2.2-1.9,2.2c-0.5,0-1.1,0-1.8,0c-0.1-0.4-0.2-0.9-0.3-1.6c0.6,0.1,1.2,0.1,1.7,0.1
				c0.6,0,0.8-0.3,0.8-1v-2.9h-3.2V117.5z M391.7,104.1h-3.2v2.4h3.2V104.1z M388.5,110.3h3.2v-2.4h-3.2V110.3z M393.7,94.5
				c-1.2,1.6-2.4,3-3.8,4.3h7.2C395.8,97.6,394.7,96.2,393.7,94.5z M398.7,102h1.6v12.4c0,1.9-0.7,2.8-2.2,2.8c-0.8,0-1.7,0-2.7-0.1
				c-0.1-0.6-0.2-1.3-0.3-1.9c1,0.1,1.8,0.2,2.5,0.2c0.8,0,1.1-0.4,1.1-1.3V102z M395.2,103.3h1.5v9.2h-1.5V103.3z"/>
			<path class="st5" d="M408.8,93.9l1.5-1.2c1.7,1.2,3.7,4.2,5.7,9c2.9,6.9,6.1,11.1,9.5,12.7l-1.6,2.2c-3.4-2.2-6.6-6.8-9.5-13.9
				c-0.2-0.6-0.5-1.1-0.7-1.6c-1.8,6.7-5.2,12-10.1,15.7c-0.4-0.7-0.9-1.3-1.4-1.9c5.1-3.5,8.5-8.9,10.2-16.4
				C411.2,96.2,410,94.7,408.8,93.9z"/>
			<path class="st5" d="M426,104.6c2.4-3.6,4.4-7.6,5.8-12.2l1.9,0.7c-0.7,2-1.4,3.8-2.2,5.5v18.8h-1.9v-14.9
				c-0.9,1.6-1.8,3.1-2.8,4.4C426.5,106.1,426.3,105.4,426,104.6z M432.7,101.2l5.5-0.7c-0.2-2.1-0.3-4.8-0.4-8h2
				c0,2.5,0.1,5.1,0.3,7.8l8.6-1l0.2,1.9l-8.6,1c0.9,7,2.6,11.2,5.1,12.6c0.7,0.3,1.1,0.1,1.3-0.7c0.3-1.2,0.5-2.6,0.7-4.1
				c0.7,0.3,1.3,0.5,1.9,0.7c-0.2,1.6-0.5,3.1-0.8,4.4c-0.4,1.5-1.3,2.2-2.5,2.2c-1.3-0.1-2.6-0.9-3.8-2.6
				c-1.8-2.3-3.1-6.4-3.8-12.2l-5.5,0.6L432.7,101.2z M442.1,94.5l1.2-1.3c1.4,1.1,2.8,2.4,4.2,3.8l-1.4,1.6
				C444.7,97.1,443.4,95.7,442.1,94.5z"/>
			<path class="st5" d="M450,106.5c1.9-2.9,3.3-6.1,4.1-9.8h-3.4v-1.9h8.7v1.9H456c-0.5,2.1-1.1,4.1-1.9,5.9h4.5v13.8h-1.7v-1.8H454
				v2.1h-1.7v-10.6c-0.4,0.7-0.8,1.4-1.3,2.1C450.8,107.7,450.5,107.1,450,106.5z M456.9,104.3H454v8.6h2.9V104.3z M459.5,109.4h9.9
				v1.8h-9.9V109.4z M463.3,96.7l-0.6,7.4h5.5l0.8-8.4h-8.6v-1.8h10.6l-1,10.2h2.5c-0.1,3.4-0.2,6.4-0.4,8.9
				c-0.1,2.5-1.2,3.8-3.3,3.8c-1,0-2.2,0-3.5-0.1c-0.1-0.6-0.2-1.3-0.3-2.1c1.3,0.2,2.4,0.2,3.4,0.2c1.2,0,1.8-0.7,1.9-2.2
				c0.1-1.9,0.2-4.1,0.3-6.8h-9.7l0.7-9.3H463.3z"/>
			<path class="st5" d="M486.9,96.6h-5.2V114h-2.3V96.6h-5.2v-2.3h12.8V96.6z"/>
			<path class="st5" d="M502.6,114h-3.2l-6.8-8.9c-0.2-0.3-0.4-0.6-0.5-0.7h-0.1v9.7h-2.3V94.3h2.3v9.3h0.1c0.1-0.2,0.3-0.5,0.5-0.7
				l6.6-8.5h2.9l-7.6,9.4L502.6,114z"/>
			<path class="st5" d="M514.5,114h-9.5V94.3h2.3v17.4h7.2V114z"/>
			<path class="st5" d="M530.6,106c0,5.6-2.3,8.3-7,8.3c-4.4,0-6.7-2.7-6.7-8V94.3h2.3v11.8c0,3.9,1.5,5.9,4.6,5.9
				c2.9,0,4.4-1.9,4.4-5.7v-12h2.3V106z"/>
			<path class="st5" d="M535,114V94.3h5.3c1.6,0,2.9,0.4,3.8,1.2c0.9,0.8,1.4,1.9,1.4,3.3c0,1.1-0.3,2-0.8,2.9
				c-0.6,0.8-1.3,1.4-2.3,1.8v0.1c1.2,0.2,2.2,0.7,2.9,1.5c0.7,0.9,1.1,1.9,1.1,3.3c0,1.7-0.6,3.1-1.7,4.1c-1.1,1-2.5,1.6-4.3,1.6
				H535z M537.4,96.5v6.2h2.1c1.1,0,2-0.3,2.7-0.9c0.6-0.6,1-1.4,1-2.5c0-1.9-1.1-2.8-3.4-2.8H537.4z M537.4,104.9v6.9h2.8
				c1.2,0,2.2-0.3,2.8-0.9c0.7-0.6,1-1.5,1-2.6c0-2.3-1.4-3.4-4.2-3.4H537.4z"/>
			<path class="st5" d="M559.8,114h-9.7V94.3h9.3v2.3h-7v6.3h6.5v2.2h-6.5v6.6h7.4V114z"/>
			<path class="st5" d="M576.4,114h-2.8l-3-5.5c-0.6-1.1-1.1-1.8-1.6-2.2c-0.5-0.4-1.1-0.6-1.8-0.6h-1.7v8.3h-2.3V94.3h5.5
				c1.8,0,3.1,0.5,4.1,1.4c1,0.9,1.5,2.2,1.5,3.9c0,2.7-1.3,4.5-4,5.3v0.1c0.5,0.2,0.9,0.6,1.3,1c0.4,0.4,0.8,1.1,1.4,2.2L576.4,114
				z M565.6,96.5v6.9h2.8c1.1,0,1.9-0.3,2.6-1c0.7-0.7,1-1.6,1-2.7c0-1-0.3-1.8-0.9-2.4c-0.6-0.6-1.5-0.9-2.7-0.9H565.6z"/>
			<path class="st5" d="M593.6,114h-2.8l-9.1-15.3c-0.3-0.4-0.5-0.9-0.6-1.3h-0.1c0.1,0.4,0.1,1.4,0.1,2.8V114h-2.3V94.3h2.9l8.9,15
				c0.4,0.7,0.7,1.2,0.7,1.4h0c-0.1-0.6-0.1-1.5-0.1-2.9V94.3h2.3V114z"/>
			<path class="st5" d="M608,114h-9.7V94.3h9.3v2.3h-7v6.3h6.5v2.2h-6.5v6.6h7.4V114z"/>
			<path class="st5" d="M633.1,94.3l-5.1,19.7h-2.7l-3.6-14.2c-0.2-0.6-0.3-1.3-0.3-2h0c0,0.7-0.2,1.4-0.3,2l-3.7,14.2h-2.7
				l-5.2-19.7h2.6l3.7,14.9c0.2,0.7,0.3,1.3,0.3,2h0.1c0-0.5,0.2-1.2,0.4-2l3.9-14.9h2.3l3.7,15c0.1,0.5,0.2,1.1,0.3,1.9h0
				c0-0.6,0.2-1.2,0.3-1.9l3.6-14.9H633.1z"/>
			<path class="st5" d="M641.7,107.2c1.9,2.5,3.5,4.6,4.8,6.5L645,115c-0.6-0.9-1.2-1.8-1.8-2.7c-2.3,1.2-4.3,2.2-5.8,3
				c-0.5,0.3-1,0.7-1.4,1.1l-1.3-1.7c0.5-0.5,0.7-1.2,0.7-1.9V94.1h9.4v13.1H643v-0.6h-5.9v6.7c1.5-0.7,3.2-1.5,5-2.4
				c-0.6-0.9-1.2-1.7-1.8-2.6L641.7,107.2z M643,95.8h-5.9v3.6h5.9V95.8z M643,104.8v-3.6h-5.9v3.6H643z M647.4,94.4h8.2v15.4
				c0,2.2-1,3.2-2.9,3.2c-0.7,0-1.6,0-2.7,0c-0.1-0.7-0.2-1.5-0.3-2.2c1.2,0.1,2,0.2,2.6,0.2c1,0,1.5-0.6,1.5-1.8V96.3h-4.7v21.2
				h-1.8V94.4z"/>
			<path class="st5" d="M83.6,149.9c2.2-1.4,4-3.2,5.5-5.7c-0.2-0.6-0.5-1.2-0.7-1.8c-1.2,1-2.4,1.9-3.7,2.8
				c-0.3-0.4-0.6-0.9-1.1-1.5c1.4-0.8,2.8-1.7,4-2.7c-0.7-1.1-1.5-2.1-2.5-3.2l1.2-1.2c1,1,1.9,2.1,2.6,3.1c0.9-0.9,1.7-1.8,2.4-2.8
				l1.4,1.1c-0.9,1.2-1.9,2.3-3,3.3c1.5,2.7,2.2,5.7,2.1,8.9c-0.1,3.1-1.3,4.7-3.8,4.7c-0.7,0-1.4,0-2.4-0.1
				c-0.1-0.6-0.2-1.3-0.3-2.1c0.9,0.1,1.8,0.2,2.6,0.2c1.4,0,2.1-0.9,2.2-2.8c0-1.3-0.1-2.6-0.3-3.8c-1.4,2-3,3.7-5,5.1
				C84.4,151,84,150.5,83.6,149.9z M83.9,133.1h6.4v-2.8h1.8v2.8h6.4v-2.8h1.8v2.8h6.4v1.8h-6.4v1.7h-1.8v-1.7h-6.4v1.7h-1.8v-1.7
				h-6.4V133.1z M92.4,142h5.7c0-1.3,0.1-2.8,0-4.6h1.8c0,1.5,0,3-0.1,4.6h6.6v1.8H100c1,4.8,3.3,8.1,6.8,9.8
				c-0.5,0.6-1,1.2-1.5,1.8c-3.1-1.8-5.2-4.7-6.2-8.7c-0.9,3.7-3.1,6.6-6.6,8.8c-0.4-0.6-0.8-1.1-1.2-1.7c3.9-2.3,6.2-5.7,6.6-10.1
				h-5.6V142z M101.2,138.5l0.9-1.3c1.3,0.8,2.4,1.7,3.4,2.5l-1.1,1.5C103.7,140.4,102.6,139.5,101.2,138.5z"/>
			<path class="st5" d="M111.4,135.7h1.5v8.4c0,1.6-0.2,3.2-0.5,4.8l0.9-0.8c1.5,1.7,2.9,3.4,4.1,4.9l-1.4,1.3
				c-1.1-1.6-2.3-3.2-3.7-4.8c-0.7,2.5-1.9,4.5-3.5,6c-0.4-0.5-0.8-1-1.2-1.5c2.5-2.1,3.8-5.3,3.8-9.6V135.7z M108.5,131.7h7.4v15.9
				h-1.5v-14.3H110v14.4h-1.5V131.7z M117.3,133.8h3.4c-0.6-1-1.2-1.8-1.7-2.4l1.2-1c0.7,0.7,1.3,1.5,2,2.5l-1.1,1h3.1
				c0.8-1.1,1.6-2.2,2.3-3.4l1.4,1.1c-0.6,0.8-1.2,1.5-1.8,2.4h3.6v9.7h-1.5v-0.8h-9.4v0.8h-1.5V133.8z M118.2,144.7h10.6v10.8h-1.6
				v-1.2h-7.4v1.2h-1.6V144.7z M118.8,141.1h3.9v-5.7h-3.9V141.1z M119.3,137l1.2-0.7c0.7,1.2,1.2,2.3,1.6,3.3l-1.4,0.7
				C120.4,139.1,119.9,138,119.3,137z M127.2,146.3h-7.4v2.4h7.4V146.3z M119.8,152.7h7.4v-2.4h-7.4V152.7z M128.2,135.4h-4v5.7h4
				V135.4z M127.6,137c-0.5,1.2-1,2.3-1.5,3.3l-1.3-0.8c0.5-0.9,1-2,1.5-3.2L127.6,137z"/>
			<path class="st5" d="M135.8,141.6c-2.2-1.1-3.2-2.7-3.2-4.7c0-1.4,0.5-2.6,1.5-3.5c1-0.9,2.3-1.4,3.9-1.4c1.4,0,2.6,0.4,3.6,1.3
				c0.9,0.9,1.4,2,1.4,3.3c0,2.2-1.1,3.9-3.4,5v0.1c2.6,1,4,2.8,4,5.3c0,1.6-0.5,2.9-1.6,3.9c-1.1,1-2.6,1.5-4.5,1.5
				c-1.6,0-2.9-0.5-3.9-1.4c-1-1-1.5-2.2-1.5-3.7C132,144.7,133.3,142.8,135.8,141.6L135.8,141.6z M137.6,142.8
				c-2.2,1-3.4,2.4-3.4,4.2c0,0.9,0.3,1.7,1,2.3c0.7,0.6,1.5,0.9,2.6,0.9c1,0,1.8-0.3,2.5-0.9c0.6-0.6,1-1.4,1-2.3
				C141.2,145.2,140,143.8,137.6,142.8z M140.7,136.9c0-0.9-0.3-1.6-0.8-2.1s-1.2-0.8-2.1-0.8c-0.8,0-1.5,0.3-2.1,0.8
				c-0.6,0.5-0.9,1.2-0.9,2c0,1.6,0.9,2.9,2.8,3.7C139.7,139.7,140.7,138.5,140.7,136.9z"/>
			<path class="st5" d="M149.6,141.6c-2.2-1.1-3.2-2.7-3.2-4.7c0-1.4,0.5-2.6,1.5-3.5c1-0.9,2.3-1.4,3.9-1.4c1.4,0,2.6,0.4,3.6,1.3
				c0.9,0.9,1.4,2,1.4,3.3c0,2.2-1.1,3.9-3.4,5v0.1c2.6,1,4,2.8,4,5.3c0,1.6-0.5,2.9-1.6,3.9c-1.1,1-2.6,1.5-4.5,1.5
				c-1.6,0-2.9-0.5-3.9-1.4c-1-1-1.5-2.2-1.5-3.7C145.7,144.7,147,142.8,149.6,141.6L149.6,141.6z M151.4,142.8
				c-2.2,1-3.4,2.4-3.4,4.2c0,0.9,0.3,1.7,1,2.3c0.7,0.6,1.5,0.9,2.6,0.9c1,0,1.8-0.3,2.5-0.9c0.6-0.6,1-1.4,1-2.3
				C155,145.2,153.8,143.8,151.4,142.8z M154.4,136.9c0-0.9-0.3-1.6-0.8-2.1c-0.5-0.5-1.2-0.8-2.1-0.8c-0.8,0-1.5,0.3-2.1,0.8
				c-0.6,0.5-0.9,1.2-0.9,2c0,1.6,0.9,2.9,2.8,3.7C153.5,139.7,154.4,138.5,154.4,136.9z"/>
			<path class="st5" d="M159,139.5h22.6v1.9h-7.4v9.9c0,1,0.5,1.5,1.4,1.5h2c1.1,0,1.8-0.6,1.9-1.7c0.1-0.9,0.3-2.1,0.4-3.6
				c0.6,0.2,1.3,0.4,2,0.6c-0.2,1.5-0.3,2.7-0.5,3.7c-0.3,1.9-1.4,2.8-3.4,2.8h-2.8c-2,0-2.9-1-2.9-3.1v-10.1h-4.8v0.8
				c0,3.6-0.5,6.2-1.5,8c-1,1.9-3,3.6-5.9,5.3c-0.6-0.7-1-1.3-1.4-1.7c2.7-1.4,4.5-3,5.4-4.5c0.9-1.5,1.4-3.8,1.4-6.9v-0.9H159
				V139.5z M161.2,132.1h18.1v1.9h-18.1V132.1z"/>
			<path class="st5" d="M185.4,138.6h6.7c0.2-1,0.3-1.9,0.4-2.7h-9.9v-1.8h7.1c-0.6-1.1-1.3-2-1.9-2.8l1.4-1c1,1.2,1.8,2.2,2.3,3
				l-1.1,0.8h5.5c0.7-1.1,1.4-2.4,2.2-3.8l1.8,1.1c-0.6,0.9-1.3,1.8-2,2.7h7.2v1.8h-10.9c-0.2,0.9-0.4,1.8-0.6,2.7h8.8v16.8h-1.8
				v-1.5h-13.8v1.5h-1.8V138.6z M200.9,140.3h-13.8v2.8h13.8V140.3z M187.1,147.6h13.8v-2.8h-13.8V147.6z M187.1,152.1h13.8v-2.8
				h-13.8V152.1z"/>
			<path class="st5" d="M210.8,141.3c0.7,0.6,1.3,1,1.8,1.4c-2,3.9-3.6,7.2-4.9,10l-1.9-1.3C207.5,148.7,209.2,145.4,210.8,141.3z
				 M208.1,132c1.3,1.4,2.7,3.1,4.3,5.1l-1.5,1.5c-1.5-2.2-2.9-3.9-4.1-5.3L208.1,132z M221.1,137.9c0,0.8-0.1,1.7-0.1,2.5
				c1,5.8,3.8,10,8.3,12.8c-0.6,0.7-1.1,1.4-1.5,2c-3.9-3-6.4-6.7-7.5-11c-1,4.7-3.8,8.5-8.4,11.4c-0.3-0.5-0.7-1.1-1.3-1.8
				c4.8-2.7,7.5-6.6,8.3-11.6c0.2-1.2,0.3-2.6,0.4-4.2H221.1z M224.1,141.2c0.7-1.4,1.3-2.9,1.9-4.5h-9.2c-0.7,1.7-1.4,3.3-2.3,4.8
				c-0.6-0.4-1.1-0.8-1.7-1.1c1.8-3.2,3.1-6.6,4-10l1.9,0.6c-0.4,1.3-0.8,2.6-1.2,3.9H228v1.8c-0.6,1.9-1.3,3.6-2.1,5.3
				C225.4,141.7,224.8,141.4,224.1,141.2z"/>
			<path class="st5" d="M229.8,143.6c1-0.4,1.9-0.9,2.8-1.4v-5h-2.8v-1.8h2.8v-4.9h1.7v4.9h2.7v1.8h-2.7v4.1c0.9-0.5,1.7-1,2.6-1.5
				c0,0.8,0.1,1.5,0.2,2c-0.5,0.3-1.4,0.8-2.8,1.5v9c0,1.8-0.7,2.7-2,2.7c-0.6,0.1-1.3,0.1-2.1,0.1c-0.1-0.7-0.2-1.4-0.3-2.1
				c0.8,0.1,1.4,0.1,1.8,0.1c0.6,0,0.9-0.3,0.9-1.1v-7.8c-0.8,0.4-1.7,0.9-2.6,1.5L229.8,143.6z M246,136.7l-0.3,0.5
				c1.7,2.7,4.1,4.8,7.3,6.3c-0.5,0.7-0.9,1.3-1.2,1.9c-1.2-0.7-2.2-1.5-3.2-2.2v1.3h-8.5v-1.1c-0.9,0.8-1.9,1.6-3,2.4
				c-0.3-0.4-0.7-0.9-1.2-1.6c3.4-2.2,6-4.7,7.8-7.4H246z M237.2,133.4h3.2v-2.7h1.7v2.7h4.9v-2.7h1.7v2.7h3.7v1.8h-3.7v2.5H247
				v-2.5h-4.9v2.5h-1.7v-2.5h-3.2V133.4z M238.5,146.6h12.1v9h-1.8v-1.4h-8.5v1.4h-1.8V146.6z M248.7,148.3h-8.5v4.2h8.5V148.3z
				 M244.6,138.5c-1.1,1.4-2.4,2.8-3.8,4.2h7.4C246.7,141.4,245.5,140,244.6,138.5z"/>
			<path class="st5" d="M276.7,152.1c-0.5,0.6-0.9,1.4-1.4,2.1c-4.5-1.7-7.6-4.6-9.5-8.6v9.8h-1.7V146c-1.9,3.6-5,6.4-9.5,8.4
				c-0.4-0.6-0.8-1.2-1.3-1.9c4.6-1.5,8.2-4.7,10.8-9.6v-5.7h-10.4v-1.7h10.4v-2.4c-2.7,0.1-5.7,0.2-8.8,0.2
				c-0.1-0.5-0.2-1.1-0.3-1.7c7.8-0.1,14.3-0.3,19.5-0.7l0.3,1.8c-2.7,0.1-5.6,0.3-8.9,0.4v2.4h10.6v1.7h-10.6v5.3
				C268.4,148,272,151.2,276.7,152.1z M253.6,145.4c1.8-0.3,3.6-0.7,5.6-1.1v-2.4h-5v-1.6h5v-1.9h1.7v9h-1.7v-1.3
				c-1.5,0.3-3.2,0.8-5.1,1.2L253.6,145.4z M269.1,138.4h1.7v2.4c1.6-0.5,3-1.1,4.4-1.8l0.6,1.7c-1.5,0.7-3.2,1.3-5.1,1.8v1.7
				c0,0.9,0.4,1.3,1.1,1.3h1.1c0.9,0,1.4-0.3,1.5-1c0.1-0.6,0.2-1.3,0.3-2.2c0.6,0.3,1.2,0.5,1.7,0.7c-0.1,0.8-0.3,1.5-0.4,2.2
				c-0.3,1.4-1.2,2.1-2.7,2.1h-1.9c-1.6,0-2.4-1-2.4-3.1V138.4z"/>
			<path class="st5" d="M276.8,142.6c2.4-3.6,4.4-7.6,5.8-12.2l1.9,0.7c-0.7,2-1.4,3.8-2.2,5.5v18.8h-1.9v-14.9
				c-0.9,1.6-1.8,3.1-2.8,4.4C277.4,144.1,277.2,143.4,276.8,142.6z M283.6,139.2l5.5-0.7c-0.2-2.1-0.3-4.8-0.4-8h2
				c0,2.5,0.1,5.1,0.3,7.8l8.6-1l0.2,1.9l-8.6,1c0.9,7,2.6,11.2,5.1,12.6c0.7,0.3,1.1,0.1,1.3-0.7c0.3-1.2,0.5-2.6,0.7-4.1
				c0.7,0.3,1.3,0.5,1.9,0.7c-0.2,1.6-0.5,3.1-0.8,4.4c-0.4,1.5-1.3,2.2-2.5,2.2c-1.3-0.1-2.6-0.9-3.8-2.6
				c-1.8-2.3-3.1-6.4-3.8-12.2l-5.5,0.6L283.6,139.2z M292.9,132.5l1.2-1.3c1.4,1.1,2.8,2.4,4.2,3.8l-1.4,1.6
				C295.6,135.1,294.3,133.7,292.9,132.5z"/>
			<path class="st5" d="M301.5,152.6h9.9v-6.2H303v-1.9h8.4V141h-6.1v-1.8c-1.1,0.8-2.3,1.5-3.6,2.3c-0.3-0.6-0.7-1.3-1.2-1.9
				c5.2-2.6,8.9-5.7,11-9.1h2.5l-0.5,0.7c2.5,3.4,6,6.1,10.5,8c-0.4,0.6-0.8,1.3-1.2,2c-1.2-0.6-2.4-1.2-3.5-2v1.7h-6v3.6h8.3v1.9
				h-8.3v6.2h10v1.9h-21.7V152.6z M304.1,147.9l1.4-1.2c1.1,1.3,2.2,2.6,3.3,3.9l-1.6,1.4C306.3,150.7,305.3,149.3,304.1,147.9z
				 M312.4,132.6c-1.6,2.2-3.9,4.4-6.9,6.5h13.7C316.7,137.4,314.5,135.3,312.4,132.6z M315.7,150.8c1.3-1.4,2.3-2.8,3.2-4.2
				l1.6,1.1c-1.1,1.5-2.2,2.9-3.4,4.2L315.7,150.8z"/>
			<path class="st5" d="M324.7,140.4h6.8c0.7-0.9,1.2-1.9,1.7-3h-7.5v-1.7h8.2c0.6-1.6,1.1-3.4,1.4-5.3l1.9,0.4
				c-0.4,1.7-0.9,3.4-1.4,4.8h10.4v1.7h-11c-0.4,1-0.9,2-1.5,3h13.7v1.7H341c1.7,2,3.9,3.3,6.6,3.9c-0.4,0.6-0.9,1.3-1.3,1.9
				c-1.3-0.5-2.6-1.1-3.6-1.9c-0.2,2-0.4,3.8-0.6,5.5c-0.3,2.3-1.5,3.5-3.6,3.5c-0.7,0-2,0-3.8-0.1c-0.1-0.7-0.3-1.4-0.5-2.1
				c1.4,0.1,2.6,0.2,3.8,0.2c1.4,0,2.1-0.6,2.3-1.8c0.1-0.9,0.3-2.3,0.5-3.9h-7c-0.3,2.3-0.9,4-1.9,5.1c-1,1.3-2.9,2.4-5.7,3.3
				c-0.4-0.7-0.7-1.3-1-1.9c2.6-0.7,4.3-1.7,5.3-2.8c0.7-0.9,1.2-2.1,1.4-3.7h-3.2v-1.3c-1,0.8-2,1.5-3.2,2.2
				c-0.3-0.6-0.7-1.1-1.2-1.7c2.3-1.2,4.2-2.7,5.7-4.4h-5.4V140.4z M327.5,131.9l1.3-1.2c1.1,1.1,2.1,2.2,3,3.3l-1.5,1.3
				C329.5,134.3,328.5,133.1,327.5,131.9z M329.2,145.5h12.8c-1.2-0.9-2.2-2.1-3.1-3.4h-6.5C331.5,143.3,330.4,144.5,329.2,145.5z
				 M339.9,134.4c1-1.2,2-2.4,2.7-3.7l1.6,1.1c-0.9,1.3-1.9,2.5-2.9,3.7L339.9,134.4z"/>
			<path class="st5" d="M360.9,148.8l-2,6.8h-1.6l1.4-6.8H360.9z M359.7,137.6c0.4,0,0.8,0.2,1.1,0.5c0.3,0.3,0.4,0.7,0.4,1.1
				c0,0.4-0.1,0.8-0.4,1.1c-0.3,0.3-0.6,0.5-1.1,0.5c-0.4,0-0.8-0.2-1.1-0.5c-0.3-0.3-0.4-0.7-0.4-1.1c0-0.4,0.1-0.8,0.4-1.1
				C359,137.8,359.3,137.6,359.7,137.6z"/>
			<path class="st2" d="M94.5,211c5.3,0.1,10.7,0.1,16-0.1c-0.2,0.6-0.4,1.4-0.8,2.3c-5.6,0.1-10.8,0-15.6-0.1
				c-2.9-0.1-4.9-1.2-6.1-3.4c-0.7,0.7-1.8,2.1-3.2,3.9l-1.1-2.4c1.6-1.6,2.7-2.8,3.4-3.5v-9.9h-3.2v-2.2h5.2V208
				C90.2,209.9,92,210.9,94.5,211z M87.1,185.7c0.9,1.2,2.2,3.1,3.8,5.5c-0.6,0.4-1.2,0.9-1.9,1.5c-1.5-2.5-2.7-4.4-3.6-5.7
				L87.1,185.7z M96.1,185.2h2.3c-0.3,0.6-0.7,1.2-1.1,1.8h9.9v1.8c-1.2,1.6-2.8,3-4.7,4.2c2.1,0.9,4.6,1.4,7.5,1.7
				c-0.3,0.5-0.6,1.2-0.9,2.1c-3.4-0.5-6.3-1.4-8.7-2.6c-2.5,1.2-5.5,2.2-8.9,2.9c-0.4-0.9-0.7-1.5-0.9-2c3-0.4,5.7-1.1,7.9-2.1
				c-1.3-0.9-2.4-1.9-3.2-3.1c-0.9,1.1-1.9,2.1-2.9,3.1c-0.5-0.5-1-1-1.6-1.4C93.1,189.7,94.9,187.5,96.1,185.2z M91.2,205.8h7.9
				v-2.2h-6.2v-1.8h6.2v-1.9h-7.2v-1.8h7.2v-2.3h1.9v2.3h7.3v1.8h-7.3v1.9h6.2v1.8h-6.2v2.2h7.9v1.8h-7.9v2.9h-1.9v-2.9h-7.9V205.8z
				 M104.8,188.8h-8.2c1.1,1.3,2.4,2.4,3.9,3.3C102.2,191.1,103.6,190,104.8,188.8z"/>
			<path class="st2" d="M112.5,200.3h10.3v13.5h-2v-2h-6.2v2h-2V200.3z M120.8,202.4h-6.2v7.5h6.2V202.4z M115.2,186.3h18.6v11.6
				h-2.2V197h-14.3v0.9h-2.2V186.3z M131.6,188.4h-14.3v6.6h14.3V188.4z M126.2,200.3h10.3v13.5h-2v-2h-6.2v2h-2V200.3z
				 M134.4,202.4h-6.2v7.6h6.2V202.4z"/>
			<path class="st2" d="M147.1,213.6h-2v-11h-2.9c0,5-0.7,8.8-2.1,11.4c-0.5-0.5-1-1.1-1.7-1.7c1.2-2.2,1.8-5.5,1.8-9.9v-16.3h2v8.6
				h2.7v-9.5h2v9.5h2v1.8h-6.7v4.2h4.9V213.6z M148,206.4h3.3c-0.4-0.5-0.8-1-1.2-1.5c1.9-1.1,3.3-2.3,4.1-3.6h-4.3v-13.1h4.6
				c0.3-0.9,0.7-2,1.1-3.3l2.1,0.7c-0.4,0.9-0.8,1.8-1.1,2.5h7v14.1h-1.9v-1h-5.1c-0.8,1.8-2.3,3.5-4.7,5.1h5.4v-3.8h2v3.8h6.1v2
				h-6.1v5.4h-2v-5.4H148V206.4z M151.8,193.8h3.9v-3.6h-3.9V193.8z M155.6,195.7h-3.9v3.7h3.3C155.4,198.4,155.5,197.2,155.6,195.7
				z M157.1,199.4h4.5v-3.7h-4.1C157.5,197.1,157.3,198.4,157.1,199.4z M161.6,190.2h-4v3.6h4V190.2z"/>
			<path class="st2" d="M169.5,187h19.2v26.6h-2.3v-2.1h-14.6v2.1h-2.3V187z M171.8,189.2v8.8h14.6v-8.8H171.8z M171.8,200.1v9.2
				h14.6v-9.2H171.8z"/>
			<path class="st2" d="M222.5,202.1h-29.8v-2.2h29.8V202.1z"/>
			<path class="st2" d="M252,202.1h-29.8v-2.2H252V202.1z"/>
			<path class="st5" d="M83.9,249.6c5.6-2.2,8.9-5.3,10-9.3h-9.5v-1.9h9.9c0-0.4,0-2,0-4.8h-8.5v-1.9h5.6c-1.3-1.6-2.5-2.9-3.4-3.9
				l1.4-1.3c1.3,1.3,2.6,2.5,3.7,3.7l-1.5,1.4H97c1.2-1.9,2.3-3.6,3.2-5.2l1.9,1.2c-1.1,1.5-2.1,2.8-3,4h5.9v1.9h-8.8
				c0,2.5,0,4.1,0,4.8h10.2v1.9h-9.9c1.8,4.3,5.3,7.2,10.3,8.8c-0.6,0.7-1.2,1.4-1.7,2.1c-4.8-2-8.1-5.1-9.8-9.2
				c-1.3,4-4.6,7.1-10.1,9.5C84.8,250.9,84.4,250.2,83.9,249.6z"/>
			<path class="st5" d="M108.5,233.3c1.1,0.8,2.5,2,4.1,3.5c-0.6,0.7-1,1.3-1.4,1.7c-1.6-1.6-2.9-2.8-3.9-3.7L108.5,233.3z
				 M110.6,240.6c0.6,0.3,1.3,0.6,1.8,0.8c-0.9,3-1.8,6.2-2.7,9.8l-2-0.8C108.7,247.5,109.7,244.3,110.6,240.6z M109.4,226.7
				c1.5,1.2,2.9,2.5,4,3.7c-0.5,0.6-1,1.1-1.4,1.5c-0.8-1-2.1-2.3-3.8-3.9L109.4,226.7z M113.1,247.9h7.8v-7.2h-6.1v-1.9h6.1v-6.1
				h-6.7v-1.9h7.5c-0.7-1.3-1.5-2.4-2.2-3.5l1.5-1.1c1,1.3,1.9,2.5,2.5,3.5l-1.5,1h7.8v1.9h-6.9v6.1h6.1v1.9h-6.1v7.2h7.6v1.9h-17.4
				V247.9z"/>
			<path class="st5" d="M146.9,228l-1.4,6.1h-2.1l1.8-6.1H146.9z M150.9,228l-1.4,6.1h-2.1l1.8-6.1H150.9z"/>
			<path class="st5" d="M152.7,247.3h22.6v2.1h-22.6V247.3z M154.2,228.9h19.6v2.2h-19.6V228.9z M155.2,237.6h17.5v2.2h-17.5V237.6z
				"/>
			<path class="st5" d="M176.1,248.3h10.6V245h-9.2v-1.8h9.2v-3.3h-6.5v0.9h-1.8v-13h18.5v13h-1.8v-0.9h-6.5v3.3h9.2v1.8h-9.2v3.3
				h10.7v1.8h-23.2V248.3z M180.2,232.9h6.5v-3.4h-6.5V232.9z M180.2,238.1h6.5v-3.4h-6.5V238.1z M195.1,229.5h-6.5v3.4h6.5V229.5z
				 M188.6,238.1h6.5v-3.4h-6.5V238.1z"/>
			<path class="st5" d="M218.6,243.3V242h-6.3v4.4c0,1.5,0.6,2.2,1.8,2.2h4.2c1.3,0,2.1-0.6,2.3-1.9c0.2-1,0.3-2.3,0.4-3.9
				c0.7,0.3,1.3,0.5,2,0.8c-0.2,1.7-0.5,3.1-0.7,4c-0.4,1.9-1.7,2.8-3.8,2.8h-5c-2,0-3.1-1.2-3.1-3.6v-5h-8v-8.5h1.8v6.6h6.3v-8.4
				h-9.8v-1.9h9.8v-3.4h1.8v3.4h9.9v1.9h-9.9v8.4h6.3v-6.6h1.8v9.8H218.6z"/>
			<path class="st5" d="M223.4,249.4c6.1-3.6,9.5-8.5,10.3-14.8h-9.8v-2h10c0.1-1.7,0.1-3.7,0.1-6.2h2c0,2.2,0,4.2-0.1,6.2h10.3v2
				H236c1.6,6.9,5.2,11.6,10.7,14.1c-0.7,0.8-1.3,1.5-1.7,2c-5-3.1-8.3-7.6-9.9-13.5c-1.3,5.8-4.7,10.5-10.2,14
				C224.5,250.9,224,250.2,223.4,249.4z M232.3,246l1.5-1.3c1.1,1.3,2.2,2.6,3.3,3.9l-1.7,1.4C234.5,248.8,233.4,247.5,232.3,246z"
				/>
			<path class="st5" d="M250.2,238.6h7.4v-5.4h-10.5v-1.9h10.5v-4.8h1.9v4.8h10.8v1.9h-10.8v5.4h7.7v12.6h-1.9v-1.8h-13.3v1.8h-1.9
				V238.6z M265.4,240.5h-13.3v7.1h13.3V240.5z"/>
			<path class="st5" d="M270.8,248.3h10.6V245h-9.2v-1.8h9.2v-3.3h-6.5v0.9h-1.8v-13h18.5v13h-1.8v-0.9h-6.5v3.3h9.2v1.8h-9.2v3.3
				H294v1.8h-23.2V248.3z M274.9,232.9h6.5v-3.4h-6.5V232.9z M274.9,238.1h6.5v-3.4h-6.5V238.1z M289.8,229.5h-6.5v3.4h6.5V229.5z
				 M283.3,238.1h6.5v-3.4h-6.5V238.1z"/>
			<path class="st5" d="M298.9,228l-1.8,6.1h-1.6l1.4-6.1H298.9z M302.9,228l-1.8,6.1h-1.6l1.4-6.1H302.9z"/>
			<path class="st5" d="M318.1,241.4c1.8-2.2,3.3-4.9,4.5-7.9l1.5,0.8c-0.6,1.3-1.2,2.6-1.8,3.7v13.3h-1.6v-10.7
				c-0.7,1-1.3,1.9-2,2.8C318.5,242.7,318.3,242.1,318.1,241.4z M318.2,233.2c2-2.2,3.4-4.4,4.4-6.6l1.4,0.9
				c-1.4,2.9-3.1,5.4-5.3,7.7C318.6,234.5,318.4,233.9,318.2,233.2z M329.9,243.1h-3.1v1.2c0,3-0.8,5.2-2.4,6.5
				c-0.3-0.5-0.6-1-1.1-1.6c1.2-0.9,1.8-2.6,1.8-5.1v-2.7h6.2v4.4c0.7-0.7,1.5-1.5,2.5-2.4c0.1,0.7,0.3,1.4,0.4,2
				c-0.9,0.7-1.8,1.7-2.9,2.7c-0.3,0.4-0.7,0.7-0.9,1l-1.2-1.6c0.4-0.5,0.6-1.1,0.6-1.8V243.1z M324.6,235v-6.2h1.5v4.5h1.9v-6.4
				h1.5v6.4h1.9v-4.5h1.5v7.1h-1.5V235H324.6z M325,237.2h7.4v1.8H325V237.2z M335.6,226.4l1.6,0.3c-0.2,1.6-0.5,3.1-0.9,4.5h5v1.8
				h-1.1c-0.3,4.8-1.1,8.7-2.3,11.5c0.9,1.9,2.1,3.5,3.5,4.8c-0.3,0.7-0.7,1.3-1,2c-1.4-1.4-2.5-3.1-3.4-4.9
				c-0.9,1.8-2.1,3.5-3.6,5.1c-0.3-0.5-0.7-1-1.1-1.6c1.7-1.7,3-3.6,3.9-5.5c-0.9-2.4-1.4-5-1.6-7.9c-0.2,0.7-0.5,1.3-0.8,1.9
				c-0.3-0.4-0.7-0.9-1.1-1.3C334.1,234.2,335.1,230.7,335.6,226.4z M338.7,233h-2.8l-0.1,0.2c0,3.5,0.5,6.5,1.3,9.1
				C337.8,240.3,338.3,237.2,338.7,233z"/>
			<path class="st5" d="M341.8,238.6c2.3-3.7,4-7.8,5.2-12.2l1.8,0.6c-0.7,2.3-1.4,4.4-2.2,6.3v18.2h-1.7V237
				c-0.7,1.4-1.5,2.6-2.3,3.7C342.3,240,342,239.3,341.8,238.6z M348.5,229.8h7.6c-0.5-0.9-1-1.7-1.5-2.6l1.6-0.9
				c0.6,0.9,1.1,1.9,1.7,2.9l-1,0.6h8.1v1.8h-16.4V229.8z M349.8,234h13.8v1.7h-13.8V234z M349.8,238.1h13.8v1.7h-13.8V238.1z
				 M350.1,242.2h13.3v9.3h-1.8v-1.5h-9.7v1.5h-1.8V242.2z M361.5,243.9h-9.7v4.3h9.7V243.9z"/>
			<path class="st5" d="M365.4,238.4c3.5-3.1,6.1-6.7,7.8-10.9l1.8,0.8c-2.1,4.8-4.8,8.6-8.1,11.7
				C366.5,239.4,366,238.9,365.4,238.4z M380.6,241.5c2.2,3.2,4.1,6,5.7,8.6l-1.8,1.3c-0.4-0.8-0.9-1.6-1.4-2.4
				c-5.1,0.3-9.3,0.5-12.5,0.8c-0.6,0.1-1.3,0.2-2.1,0.4l-1-2.2c0.7-0.3,1.3-0.8,1.9-1.4c1.8-2.3,3.8-5.7,5.9-10.1l2,1
				c-1.9,3.6-4,7-6.2,10.1c3.2-0.1,6.9-0.3,10.9-0.5c-0.9-1.5-1.9-3-2.9-4.6L380.6,241.5z M378.6,227.9l1.7-0.7
				c1.5,4.4,4.3,7.9,8.4,10.5c-0.4,0.5-0.9,1.1-1.4,2C383,236.4,380.1,232.5,378.6,227.9z"/>
			<path class="st5" d="M394.7,236h1.9c0,2.1-0.2,4-0.6,5.8l1.1-0.9c1.4,1.5,2.7,3.1,3.8,4.7l-1.5,1.4c-1.1-1.6-2.3-3.2-3.5-4.7
				c-1,4-2.8,7-5.6,9c-0.4-0.5-0.9-1.1-1.4-1.6C392.9,246.9,394.8,242.4,394.7,236z M402.4,226.7l-0.4,0.6c2.6,3.7,6.1,6.2,10.4,7.6
				c-0.4,0.6-0.8,1.3-1.3,2.1c-4.1-1.7-7.5-4.4-10.3-8.1c-2.4,3.4-5.9,6.3-10.4,8.7c-0.3-0.7-0.7-1.3-1.2-2
				c4.8-2.3,8.4-5.3,10.8-8.9H402.4z M403.8,235.6h1.9c0,0.8,0,1.5-0.1,2.2c1.2,6,3.5,9.8,7,11.5c-0.5,0.6-0.9,1.2-1.4,1.9
				c-3-1.9-5-4.9-6.1-9c-0.9,4.4-3,7.5-6.3,9.4c-0.3-0.5-0.8-1-1.4-1.6c2.5-1.5,4.2-3.3,5.1-5.4
				C403.4,242.6,403.8,239.6,403.8,235.6z"/>
			<path class="st5" d="M417,243.7v-1.9l1-2.6h-5.1v-1.9H436v1.9h-16.1l-1,2.6h13.9c-0.2,2-0.4,3.6-0.5,4.8
				c-0.4,2.8-1.8,4.1-4.4,4.1c-1.8,0-3.7,0-5.7-0.1c-0.1-0.6-0.2-1.3-0.4-2.2c2.2,0.2,4.2,0.3,5.8,0.3c1.7,0,2.6-0.8,2.9-2.5
				c0.1-0.7,0.2-1.6,0.3-2.7H417z M416.5,227.6h15.9v8.4h-1.8v-1h-12.2v1.2h-1.8V227.6z M430.5,229.4h-12.2v3.7h12.2V229.4z"/>
			<path class="st5" d="M444.4,241.2c1.9,2.5,3.5,4.6,4.8,6.5l-1.5,1.2c-0.6-0.9-1.2-1.8-1.8-2.7c-2.3,1.2-4.3,2.2-5.8,3
				c-0.5,0.3-1,0.7-1.4,1.1l-1.3-1.7c0.5-0.5,0.7-1.2,0.7-1.9v-18.8h9.4v13.1h-1.8v-0.6h-5.9v6.7c1.5-0.7,3.2-1.5,5-2.4
				c-0.6-0.9-1.2-1.7-1.8-2.6L444.4,241.2z M445.7,229.8h-5.9v3.6h5.9V229.8z M445.7,238.8v-3.6h-5.9v3.6H445.7z M450.1,228.4h8.2
				v15.4c0,2.2-1,3.2-2.9,3.2c-0.7,0-1.6,0-2.7,0c-0.1-0.7-0.2-1.5-0.3-2.2c1.2,0.1,2,0.2,2.6,0.2c1,0,1.5-0.6,1.5-1.8v-12.9h-4.7
				v21.2h-1.8V228.4z"/>
			<path class="st5" d="M460.2,241.4c2-2,3.8-4.8,5.7-8.3l1.6,0.9c-0.7,1.3-1.4,2.5-2.1,3.6v13.8h-1.8v-11.2
				c-0.9,1.2-1.7,2.3-2.6,3.2C460.7,242.7,460.5,242,460.2,241.4z M460.3,233.5c2.2-1.9,4-4.3,5.6-7.1l1.7,1c-1.9,3.1-4,5.7-6.3,7.9
				C460.9,234.7,460.6,234.1,460.3,233.5z M467.1,242.6h11.2v-2.1H468v-1.7h14.9v1.7H480v2.1h3.4v1.7H480v3.7c0,2-0.9,3-2.8,3
				c-0.8,0-2,0-3.5,0c-0.1-0.6-0.2-1.2-0.3-2.1c1,0.1,2.2,0.2,3.4,0.2c1,0,1.4-0.5,1.4-1.6v-3.2h-11.2V242.6z M469.3,245.5l1.3-1.1
				c0.9,1,1.8,2.1,2.5,3.1l-1.4,1.1C471,247.6,470.2,246.5,469.3,245.5z M469.3,227.5h11.9v10.1h-1.7v-0.9H471v0.9h-1.7V227.5z
				 M479.6,229.1H471v2.2h8.6V229.1z M471,235.2h8.6v-2.3H471V235.2z"/>
			<path class="st5" d="M499.3,240c0,5.6-2.3,8.3-7,8.3c-4.4,0-6.7-2.7-6.7-8v-11.9h2.3v11.8c0,3.9,1.5,5.9,4.6,5.9
				c2.9,0,4.4-1.9,4.4-5.7v-12h2.3V240z"/>
			<path class="st5" d="M505.5,246v2h-2.3v-20.8h2.3v9.2h0c1-1.8,2.5-2.8,4.4-2.8c1.6,0,2.9,0.6,3.9,1.9c1,1.2,1.4,2.9,1.4,5.1
				c0,2.4-0.5,4.3-1.6,5.7c-1.1,1.4-2.5,2.1-4.3,2.1C507.7,248.3,506.4,247.6,505.5,246L505.5,246z M505.5,242.2
				c0,1.1,0.3,2.1,1,2.9c0.7,0.8,1.5,1.2,2.5,1.2c1.2,0,2.2-0.5,2.8-1.5c0.7-1,1-2.4,1-4.2c0-1.5-0.3-2.7-1-3.5
				c-0.6-0.9-1.5-1.3-2.6-1.3c-1.1,0-2,0.4-2.8,1.3c-0.7,0.9-1.1,2-1.1,3.3V242.2z"/>
			<path class="st5" d="M528.8,241.6h-9c0,1.5,0.4,2.7,1.1,3.5c0.7,0.8,1.7,1.2,3,1.2c1.4,0,2.8-0.5,4-1.5v2.2
				c-1.1,0.9-2.6,1.3-4.5,1.3c-1.9,0-3.3-0.6-4.4-1.9c-1-1.3-1.6-3.1-1.6-5.4c0-2.2,0.6-3.9,1.7-5.3c1.1-1.4,2.6-2.1,4.3-2.1
				c1.7,0,3,0.6,4,1.8c0.9,1.2,1.4,2.8,1.4,5V241.6z M526.5,239.6c0-1.3-0.3-2.3-0.8-2.9c-0.5-0.7-1.3-1-2.3-1
				c-0.9,0-1.7,0.4-2.4,1.1c-0.7,0.7-1.1,1.7-1.3,2.9H526.5z"/>
			<path class="st5" d="M538.5,236.4c-0.4-0.3-0.9-0.4-1.6-0.4c-0.9,0-1.6,0.5-2.2,1.4c-0.6,0.9-0.9,2.1-0.9,3.6v7.1h-2.3v-14h2.3
				v2.9h0c0.7-2.1,1.8-3.1,3.4-3.1c0.5,0,0.9,0.1,1.2,0.2V236.4z"/>
			<path class="st5" d="M558.1,229.2L551,248h-2.4l6.7-17.5h-9v-2.2h11.8V229.2z"/>
			<path class="st5" d="M559.3,240.1c1.1-0.3,2.3-0.7,3.5-1.1v-5.6h-3.1v-1.8h3.1v-5h1.8v5h2.9v1.8h-2.9v5c0.8-0.3,1.7-0.6,2.6-0.9
				c0,0.9,0,1.5,0,2c-0.7,0.2-1.6,0.5-2.6,0.9v7.7c0,1.8-0.7,2.8-2.1,2.8c-0.7,0-1.6,0-2.5,0c-0.1-0.7-0.2-1.4-0.3-2.1
				c0.9,0.1,1.7,0.2,2.1,0.2c0.6,0,1-0.4,1-1.2V241c-1,0.3-2.1,0.7-3.2,1.1L559.3,240.1z M568.9,228.4c4,0,8.2-0.4,12.5-1.1l0.6,2
				c-4.6,0.5-8.4,0.8-11.3,0.9v5.9h11.9v1.9h-4.3v13.3h-1.9V238h-5.8c0,6.1-1.1,10.6-3.2,13.5c-0.4-0.5-0.9-1-1.5-1.6
				c1.9-2.5,2.9-6.4,2.9-11.9V228.4z"/>
			<path class="st5" d="M583.1,238.5c2.4-3.5,4.2-7.5,5.5-12l1.9,0.7c-0.8,2.4-1.6,4.5-2.5,6.5v17.6h-1.8v-14.1
				c-0.7,1.3-1.5,2.5-2.3,3.6C583.6,240,583.3,239.3,583.1,238.5z M589.6,233.3h5.1c0.1-1.9,0.1-4.2,0.1-6.8h1.9
				c0,2.5,0,4.8-0.1,6.8h9.3v1.9h-6.4v11.9c0,0.9,0.5,1.4,1.4,1.4h1.5c1,0,1.6-0.6,1.7-1.7c0.1-1,0.2-2.3,0.3-3.9
				c0.6,0.3,1.3,0.5,1.9,0.8c-0.1,1.5-0.3,2.8-0.4,3.9c-0.2,1.1-0.5,1.8-1,2.3c-0.5,0.4-1.2,0.6-2.3,0.6h-1.9
				c-1.1,0-1.9-0.2-2.3-0.7c-0.5-0.4-0.7-1.3-0.7-2.5v-12.1h-1.1c-0.2,6.4-2.3,11.8-6.4,16.1c-0.4-0.6-0.9-1.1-1.4-1.6
				c3.8-3.9,5.8-8.7,5.9-14.4h-5V233.3z M599.9,226.9c1.7,1.2,3.1,2.2,4.2,3.2c-0.4,0.5-0.8,1.1-1.2,1.6c-1.3-1.2-2.6-2.4-4-3.5
				L599.9,226.9z"/>
			<path class="st5" d="M609.1,244.4l1.6,0.7c-0.7,2-1.5,3.7-2.3,5.1c-0.5-0.3-1-0.6-1.6-0.9C607.8,247.9,608.5,246.3,609.1,244.4z
				 M624.1,240.8l1.2-1c1.6,1.5,3.1,2.8,4.3,4.1l-1.4,1.2c-0.6-0.7-1.2-1.3-1.8-2c-4.1,0.1-10.4,0.2-19,0.5l-0.1-1.9
				c3.5,0,6.9,0,10.2-0.1v-2.1h-6.7v0.6h-1.6v-8.4h8.3v-1.8h-10.2v-1.6h10.2v-2.1h1.6v2.1h10.2v1.6h-10.2v1.8h8.3v7.8h-8.3v2
				c2,0,3.9-0.1,5.8-0.1C624.7,241.3,624.4,241,624.1,240.8z M610.9,235h6.7v-1.7h-6.7V235z M610.9,238.2h6.7v-1.7h-6.7V238.2z
				 M612.5,244.5h1.8v2.8c0,1,0.5,1.5,1.6,1.5h4.9c1.1,0,1.7-0.4,1.8-1.1c0.1-0.7,0.2-1.5,0.3-2.5c0.2,0.1,0.8,0.3,1.7,0.8
				c-0.1,0.9-0.2,1.7-0.4,2.4c-0.3,1.5-1.3,2.2-3.2,2.2h-5.7c-2,0-2.9-1.1-2.9-3.1V244.5z M616.6,244.4l1.3-1c1.2,1.1,2.1,2.1,2.8,3
				l-1.4,1.2C618.4,246.6,617.5,245.5,616.6,244.4z M625.9,233.3h-6.7v1.7h6.7V233.3z M625.9,238.2v-1.7h-6.7v1.7H625.9z
				 M625.5,245.8l1.3-1c0.8,1,1.9,2.3,3.1,4l-1.5,1.2C627.7,248.7,626.7,247.4,625.5,245.8z"/>
			<path class="st5" d="M643.3,244.8l-2,6.8h-1.6l1.4-6.8H643.3z M642.1,233.6c0.4,0,0.8,0.2,1.1,0.5c0.3,0.3,0.4,0.7,0.4,1.1
				c0,0.4-0.1,0.8-0.4,1.1c-0.3,0.3-0.6,0.5-1.1,0.5c-0.4,0-0.8-0.2-1.1-0.5c-0.3-0.3-0.4-0.7-0.4-1.1c0-0.4,0.1-0.8,0.4-1.1
				C641.3,233.8,641.7,233.6,642.1,233.6z"/>
			<path class="st5" d="M83.9,287.6c5.6-2.2,8.9-5.3,10-9.3h-9.5v-1.9h9.9c0-0.4,0-2,0-4.8h-8.5v-1.9h5.6c-1.3-1.6-2.5-2.9-3.4-3.9
				l1.4-1.3c1.3,1.3,2.6,2.5,3.7,3.7l-1.5,1.4H97c1.2-1.9,2.3-3.6,3.2-5.2l1.9,1.2c-1.1,1.5-2.1,2.8-3,4h5.9v1.9h-8.8
				c0,2.5,0,4.1,0,4.8h10.2v1.9h-9.9c1.8,4.3,5.3,7.2,10.3,8.8c-0.6,0.7-1.2,1.4-1.7,2.1c-4.8-2-8.1-5.1-9.8-9.2
				c-1.3,4-4.6,7.1-10.1,9.5C84.8,288.9,84.4,288.2,83.9,287.6z"/>
			<path class="st5" d="M108.7,271.3c1.1,0.8,2.5,2,4.1,3.5c-0.6,0.7-1,1.3-1.4,1.7c-1.6-1.6-2.9-2.8-3.9-3.7L108.7,271.3z
				 M110.8,278.6c0.6,0.3,1.3,0.6,1.8,0.8c-0.9,3-1.8,6.2-2.7,9.8l-2-0.8C108.9,285.5,109.9,282.3,110.8,278.6z M109.6,264.7
				c1.5,1.2,2.9,2.5,4,3.7c-0.5,0.6-1,1.1-1.4,1.5c-0.8-1-2.1-2.3-3.8-3.9L109.6,264.7z M113.3,285.9h7.8v-7.2h-6.1v-1.9h6.1v-6.1
				h-6.7v-1.9h7.5c-0.7-1.3-1.5-2.4-2.2-3.5l1.5-1.1c1,1.3,1.9,2.5,2.5,3.5l-1.5,1h7.8v1.9h-6.9v6.1h6.1v1.9h-6.1v7.2h7.6v1.9h-17.4
				V285.9z"/>
			<path class="st5" d="M149.6,266l-1.4,6.1h-2.1l1.8-6.1H149.6z M153.6,266l-1.4,6.1h-2.1l1.8-6.1H153.6z"/>
			<path class="st5" d="M170.6,278c0,5.6-2.3,8.3-7,8.3c-4.4,0-6.7-2.7-6.7-8v-11.9h2.3v11.8c0,3.9,1.5,5.9,4.6,5.9
				c2.9,0,4.4-1.9,4.4-5.7v-12h2.3V278z"/>
			<path class="st5" d="M175,286v-19.7h5.3c1.6,0,2.9,0.4,3.8,1.2c1,0.8,1.4,1.9,1.4,3.3c0,1.1-0.3,2-0.8,2.9
				c-0.6,0.8-1.3,1.4-2.3,1.8v0.1c1.2,0.2,2.2,0.7,2.9,1.5c0.7,0.9,1.1,1.9,1.1,3.3c0,1.7-0.6,3.1-1.7,4.1c-1.1,1-2.5,1.6-4.3,1.6
				H175z M177.3,268.5v6.2h2.1c1.1,0,2-0.3,2.7-0.9c0.6-0.6,1-1.4,1-2.5c0-1.9-1.1-2.8-3.4-2.8H177.3z M177.3,276.9v6.9h2.8
				c1.2,0,2.2-0.3,2.8-0.9c0.7-0.6,1-1.5,1-2.6c0-2.3-1.4-3.4-4.2-3.4H177.3z"/>
			<path class="st5" d="M199.7,286h-9.7v-19.7h9.3v2.3h-7v6.3h6.5v2.2h-6.5v6.6h7.4V286z"/>
			<path class="st5" d="M216.2,286h-2.8l-3-5.5c-0.6-1.1-1.1-1.8-1.6-2.2c-0.5-0.4-1.1-0.6-1.8-0.6h-1.7v8.3H203v-19.7h5.5
				c1.8,0,3.1,0.5,4.1,1.4c1,0.9,1.5,2.2,1.5,3.9c0,2.7-1.3,4.5-4,5.3v0.1c0.5,0.2,0.9,0.6,1.3,1c0.4,0.4,0.8,1.1,1.4,2.2L216.2,286
				z M205.3,268.5v6.9h2.8c1.1,0,1.9-0.3,2.6-1c0.7-0.7,1-1.6,1-2.7c0-1-0.3-1.8-0.9-2.4c-0.6-0.6-1.5-0.9-2.7-0.9H205.3z"/>
			<path class="st5" d="M216.5,276.5c2.4-3.5,4.2-7.5,5.5-12l1.9,0.7c-0.8,2.4-1.6,4.5-2.5,6.5v17.6h-1.8v-14.1
				c-0.7,1.3-1.5,2.5-2.3,3.6C217.1,278,216.8,277.3,216.5,276.5z M223,271.3h5.1c0.1-1.9,0.1-4.2,0.1-6.8h1.9c0,2.5,0,4.8-0.1,6.8
				h9.3v1.9h-6.4v11.9c0,0.9,0.5,1.4,1.4,1.4h1.5c1,0,1.6-0.6,1.7-1.7c0.1-1,0.2-2.3,0.3-3.9c0.6,0.3,1.3,0.5,1.9,0.8
				c-0.1,1.5-0.3,2.8-0.4,3.9c-0.2,1.1-0.5,1.8-1,2.3c-0.5,0.4-1.2,0.6-2.3,0.6H234c-1.1,0-1.9-0.2-2.3-0.7
				c-0.5-0.4-0.7-1.3-0.7-2.5v-12.1h-1.1c-0.2,6.4-2.3,11.8-6.4,16.1c-0.4-0.6-0.9-1.1-1.4-1.6c3.8-3.9,5.8-8.7,5.9-14.4h-5V271.3z
				 M233.4,264.9c1.7,1.2,3.1,2.2,4.2,3.2c-0.4,0.5-0.8,1.1-1.2,1.6c-1.3-1.2-2.6-2.4-4-3.5L233.4,264.9z"/>
			<path class="st5" d="M240.8,273.8h4v-7.2h1.9v7.2h5v-9.5h1.9v3.7h8.1v1.8h-8.1v3.9h9.9v1.9h-22.6V273.8z M240.8,287.8
				c8.9-1.2,15.4-4.3,19.5-9.4l1.5,1.6c-4.4,5.2-11.2,8.5-20.3,9.6C241.3,289.1,241.1,288.5,240.8,287.8z M246.8,277.3l1.5,1.4
				c-2.1,2.3-4,4.3-5.9,6c-0.4-0.5-0.8-1-1.3-1.5C243,281.6,244.9,279.6,246.8,277.3z M251.4,276.3h1.9v7.5h-1.9V276.3z"/>
			<path class="st5" d="M264.2,284.7c2-0.8,4.4-1.8,7.2-3v-8h-6.7v-1.9h6.7v-7.1h1.9v24.4h-1.9v-5.3c-1.5,0.7-3.7,1.6-6.5,2.9
				L264.2,284.7z M278,264.7h1.9v8.6c2.1-1.2,4.1-2.5,6-3.9l1.2,1.8c-1.7,1.2-4.1,2.6-7.1,4.2v9.3c0,1.2,0.6,1.7,1.8,1.7h1.6
				c1.1,0,1.8-0.6,1.9-1.7c0.1-1.1,0.3-2.5,0.4-4.2c0.7,0.3,1.3,0.6,2,0.8c-0.2,1.6-0.3,3-0.5,4.1c-0.3,1.9-1.4,2.9-3.3,2.9h-2.5
				c-2.1,0-3.2-1.1-3.2-3.4V264.7z"/>
			<path class="st5" d="M294.3,281.6l1.3,1.5c-2.1,1.7-4.2,3.3-6.3,4.7c-0.3-0.6-0.7-1.1-1.1-1.7
				C290.4,284.8,292.4,283.3,294.3,281.6z M288.3,267.9h10.8c-0.4-0.9-0.9-1.8-1.5-2.8l1.7-0.9c0.6,1,1.2,2.1,1.8,3.1l-0.9,0.5h11
				v1.8h-22.8V267.9z M291.3,271.9H308v8.6h-1.8v-1h-5.4v6.4c0,2-0.9,3-2.6,3c-1.1,0-2.1,0-3.1,0c-0.1-0.7-0.2-1.4-0.3-2.1
				c1,0.1,1.9,0.2,2.7,0.2c1,0,1.5-0.5,1.5-1.7v-5.9h-5.8v1.1h-1.8V271.9z M306.2,273.7h-13.1v4.1h13.1V273.7z M303.4,283.3l1.1-1.5
				c2.1,1.4,4.2,2.8,6.1,4.2l-1.2,1.8C307.7,286.4,305.7,284.9,303.4,283.3z"/>
			<path class="st5" d="M316.4,266l-1.8,6.1H313l1.4-6.1H316.4z M320.4,266l-1.8,6.1H317l1.4-6.1H320.4z"/>
			<path class="st5" d="M336.8,267.7h10.6c-0.5-0.9-1-1.7-1.5-2.5l1.6-1c0.5,0.7,1.1,1.7,1.8,2.8l-1.1,0.7h9.8v4.6h-1.8v-2.9h-17.6
				v2.9h-1.8V267.7z M355.7,280.8v8.6h-1.8v-1.5h-12.2v1.5h-1.8v-17.6h14.9v7.4H353v-0.8h-11.3v2.4H355.7z M353,273.5h-11.3v3.2H353
				V273.5z M353.9,282.5h-12.2v3.7h12.2V282.5z"/>
			<path class="st5" d="M360,268.8h11.2c-0.8-1.6-1.4-2.8-1.8-3.6l1.8-0.9c0.4,0.7,1.1,1.9,2,3.6l-1.7,0.9h11.1v1.9h-14.2
				c-0.1,1.5-0.1,2.9-0.2,3.9h11.3c-0.2,3.7-0.4,6.9-0.6,9.6c-0.2,3.1-1.5,4.6-4.1,4.6c-1.2,0-2.8-0.1-4.7-0.2
				c-0.1-0.6-0.2-1.4-0.4-2.3c2,0.3,3.6,0.4,4.8,0.4c1.4,0,2.2-0.9,2.4-2.8c0.2-2,0.4-4.5,0.5-7.4H368c-0.4,5.6-2.8,9.9-7.1,13
				c-0.4-0.5-0.9-1.1-1.4-1.7c4.1-2.9,6.3-6.9,6.6-11.8c0.1-1.3,0.2-3.1,0.3-5.3H360V268.8z"/>
			<path class="st5" d="M383.4,279.4c1.8-2.2,3.3-4.9,4.5-7.9l1.5,0.8c-0.6,1.3-1.2,2.6-1.8,3.7v13.3h-1.6v-10.7
				c-0.7,1-1.3,1.9-2,2.8C383.8,280.7,383.6,280.1,383.4,279.4z M383.5,271.2c2-2.2,3.4-4.4,4.4-6.6l1.4,0.9
				c-1.4,2.9-3.1,5.4-5.3,7.7C383.9,272.5,383.7,271.9,383.5,271.2z M395.3,281.1h-3.1v1.2c0,3-0.8,5.2-2.4,6.5
				c-0.3-0.5-0.6-1-1.1-1.6c1.2-0.9,1.8-2.6,1.8-5.1v-2.7h6.2v4.4c0.7-0.7,1.5-1.5,2.5-2.4c0.1,0.7,0.3,1.4,0.4,2
				c-0.9,0.7-1.8,1.7-2.9,2.7c-0.3,0.4-0.7,0.7-0.9,1l-1.2-1.6c0.4-0.5,0.6-1.1,0.6-1.8V281.1z M389.9,273v-6.2h1.5v4.5h1.9v-6.4
				h1.5v6.4h1.9v-4.5h1.5v7.1h-1.5V273H389.9z M390.4,275.2h7.4v1.8h-7.4V275.2z M401,264.4l1.6,0.3c-0.2,1.6-0.5,3.1-0.9,4.5h5v1.8
				h-1.1c-0.3,4.8-1.1,8.7-2.3,11.5c0.9,1.9,2.1,3.5,3.5,4.8c-0.3,0.7-0.7,1.3-1,2c-1.4-1.4-2.5-3.1-3.4-4.9
				c-0.9,1.8-2.1,3.5-3.6,5.1c-0.3-0.5-0.7-1-1.1-1.6c1.7-1.7,3-3.6,3.9-5.5c-0.9-2.4-1.4-5-1.6-7.9c-0.2,0.7-0.5,1.3-0.8,1.9
				c-0.3-0.4-0.7-0.9-1.1-1.3C399.5,272.2,400.4,268.7,401,264.4z M404,271h-2.8l-0.1,0.2c0,3.5,0.5,6.5,1.3,9.1
				C403.2,278.3,403.7,275.2,404,271z"/>
			<path class="st5" d="M407.3,271.6h2.4v-7.2h1.7v7.2h2.2v1.8h-2.2v16h-1.7v-16h-2.4V271.6z M413,281.7h12v-1.5h1.7v1.5h3.8v1.6
				h-3.8v2.9c0,1.9-0.9,2.9-2.8,2.9c-0.9,0-2,0-3.3-0.1c-0.1-0.5-0.2-1.2-0.3-1.9c1.3,0.1,2.4,0.2,3.4,0.2c0.9,0,1.3-0.5,1.3-1.4
				v-2.7h-12V281.7z M426.8,280.1v-1.4h-4.4v1.6h-1.7v-1.6h-4.3v1.9h-1.7v-10h6V269h-7.1v-1.6h7.1v-2.9h1.7v2.9h7.5v1.6h-7.5v1.7
				h6.1v9.4H426.8z M415.8,284.7l1.1-1.3c1.1,0.8,2.2,1.6,3.2,2.5l-1.1,1.3C418,286.4,416.9,285.6,415.8,284.7z M416.5,273.9h4.3
				v-1.7h-4.3V273.9z M416.5,277.2h4.3v-1.7h-4.3V277.2z M426.8,272.2h-4.4v1.7h4.4V272.2z M422.5,277.2h4.4v-1.7h-4.4V277.2z
				 M427.1,267.3c-0.9-0.6-1.9-1.1-2.9-1.6l0.7-1.3c1.1,0.5,2.1,1,2.9,1.5L427.1,267.3z"/>
			<path class="st5" d="M444,282.8l-2,6.8h-1.6l1.4-6.8H444z"/>
			<path class="st5" d="M458.2,270.1h4.9c0.4-1.8,0.7-3.7,1-5.8l2,0.3c-0.3,1.9-0.6,3.8-1,5.5H478v1.9h-13.3
				c-0.3,1.1-0.6,2.2-0.9,3.2h11.6v1.8c-1,2.8-2.6,5.2-4.8,7.2c2.2,1.4,4.7,2.5,7.6,3c-0.7,0.8-1.2,1.6-1.6,2.1
				c-2.5-0.9-5-2.2-7.5-3.9c-2,1.4-4.9,2.8-8.7,4.1c-0.4-0.7-0.9-1.3-1.4-1.9c3.8-1.1,6.7-2.2,8.6-3.4c-2-1.9-3.5-4.3-4.4-7.2
				c-1.7,4.6-4,8.4-7,11.4c-0.4-0.6-0.8-1.2-1.2-1.7c3.5-3.4,6.1-8.3,7.7-14.7h-6.5v-1.9c0.6-1.6,1.2-3.2,1.8-4.8l1.9,0.6
				C459.3,267.3,458.7,268.7,458.2,270.1z M473.3,277h-8.4c0.7,2.3,2.1,4.4,4.2,6.1C471,281.2,472.4,279.2,473.3,277z M469.7,266.1
				l1-1.4c1.5,1,3,2.1,4.4,3.3l-1.3,1.7C472.5,268.3,471.1,267.2,469.7,266.1z"/>
			<path class="st5" d="M488.6,287c3.4,0.1,7.9,0,13.5-0.1c-0.3,0.7-0.5,1.3-0.8,2c-5.5,0.1-9.8,0-12.8,0c-2.8-0.1-4.8-1.1-5.9-2.9
				c-0.5,0.4-1.4,1.5-2.7,3.2l-1-2.2c1-0.9,1.9-1.9,2.9-2.8v-8.9H479v-1.9h4.5v11.1C484.6,286.1,486.3,286.9,488.6,287z
				 M481.2,264.7c1.2,1.5,2.4,3.1,3.6,5l-1.7,1.2c-1-1.7-2.1-3.4-3.4-5L481.2,264.7z M485.2,275.6h7c0-0.4,0-1.8,0-4.2h-6.2v-1.8h8
				c1.5-2.1,2.6-3.8,3.3-5.2l1.9,1.2c-0.6,0.9-1.7,2.2-3.1,4h4.9v1.8h-7c0,2.1,0,3.5,0,4.2h7.5v1.8h-7.7c0,0.4-0.1,0.9-0.2,1.3
				c2.5,1.8,4.9,3.6,7.2,5.4l-1.2,1.7c-2.4-2-4.6-3.8-6.5-5.3c-1.1,2.4-3.1,4.2-6.3,5.6c-0.4-0.6-0.8-1.1-1.3-1.6
				c4-1.7,6.2-4.1,6.4-7.1h-6.8V275.6z M487.8,265.6l1.4-1.1c0.8,0.9,1.7,2.1,2.7,3.5l-1.6,1.2C489.4,267.7,488.5,266.5,487.8,265.6
				z"/>
			<path class="st5" d="M507.1,266.3l-0.4,6.1h-1.6l-0.4-6.1H507.1z M510.3,266.3l-0.4,6.1h-1.6l-0.4-6.1H510.3z"/>
			<path class="st5" d="M525.9,268.6h-5.2V286h-2.3v-17.4h-5.2v-2.3h12.8V268.6z"/>
			<path class="st5" d="M542.9,286h-2.6l-1.8-5.4h-7.5l-1.7,5.4h-2.6l6.9-19.7h2.5L542.9,286z M537.7,278.4l-2.7-8.2
				c-0.1-0.3-0.2-0.7-0.3-1.4h-0.1c-0.1,0.6-0.2,1-0.3,1.4l-2.7,8.2H537.7z"/>
			<path class="st5" d="M549.5,268.5h-1.7v15.4h1.7v2.1h-5.8v-2.1h1.7v-15.4h-1.7v-2.1h5.8V268.5z"/>
			<path class="st5" d="M565.2,286H562l-6.8-8.9c-0.2-0.3-0.4-0.6-0.5-0.7h-0.1v9.7h-2.3v-19.7h2.3v9.3h0.1c0.1-0.2,0.3-0.5,0.5-0.7
				l6.6-8.5h2.9l-7.6,9.4L565.2,286z"/>
			<path class="st5" d="M566.3,276.4c0-3.2,0.8-5.7,2.4-7.6c1.6-1.9,3.7-2.8,6.4-2.8c2.5,0,4.5,0.9,6.1,2.8c1.5,1.8,2.3,4.2,2.3,7.2
				c0,3.2-0.8,5.7-2.4,7.6c-1.6,1.9-3.7,2.8-6.3,2.8c-2.6,0-4.6-0.9-6.2-2.8C567.1,281.7,566.3,279.3,566.3,276.4z M568.7,276.2
				c0,2.4,0.6,4.3,1.7,5.7c1.1,1.4,2.6,2.2,4.4,2.2c1.9,0,3.4-0.7,4.5-2.1c1.1-1.4,1.7-3.3,1.7-5.8c0-2.5-0.5-4.5-1.6-5.9
				c-1.1-1.4-2.6-2.1-4.4-2.1c-1.8,0-3.3,0.7-4.5,2.2C569.3,271.9,568.7,273.8,568.7,276.2z"/>
			<path class="st5" d="M585.7,276.4c0-3.2,0.8-5.7,2.4-7.6c1.6-1.9,3.7-2.8,6.4-2.8c2.5,0,4.5,0.9,6.1,2.8c1.5,1.8,2.3,4.2,2.3,7.2
				c0,3.2-0.8,5.7-2.4,7.6c-1.6,1.9-3.7,2.8-6.3,2.8c-2.6,0-4.6-0.9-6.2-2.8C586.5,281.7,585.7,279.3,585.7,276.4z M588.2,276.2
				c0,2.4,0.6,4.3,1.7,5.7c1.1,1.4,2.6,2.2,4.4,2.2c1.9,0,3.4-0.7,4.5-2.1c1.1-1.4,1.7-3.3,1.7-5.8c0-2.5-0.5-4.5-1.6-5.9
				c-1.1-1.4-2.6-2.1-4.4-2.1c-1.8,0-3.3,0.7-4.5,2.2C588.7,271.9,588.2,273.8,588.2,276.2z"/>
			<path class="st5" d="M615.8,286h-9.5v-19.7h2.3v17.4h7.2V286z"/>
			<path class="st5" d="M622.6,268.5h-1.7v15.4h1.7v2.1h-5.8v-2.1h1.7v-15.4h-1.7v-2.1h5.8V268.5z"/>
			<path class="st5" d="M627.9,266.3l-0.4,6.1h-1.6l-0.4-6.1H627.9z M631.1,266.3l-0.4,6.1h-1.6l-0.4-6.1H631.1z"/>
			<path class="st5" d="M633.6,283.9c2.2-1.4,4-3.2,5.5-5.7c-0.2-0.6-0.5-1.2-0.7-1.8c-1.2,1-2.4,1.9-3.7,2.8
				c-0.3-0.4-0.6-0.9-1.1-1.5c1.4-0.8,2.8-1.7,4-2.7c-0.7-1.1-1.5-2.1-2.5-3.2l1.2-1.2c1,1,1.9,2.1,2.6,3.1c0.9-0.9,1.7-1.8,2.4-2.8
				l1.4,1.1c-0.9,1.2-1.9,2.3-3,3.3c1.5,2.7,2.2,5.7,2.1,8.9c-0.1,3.1-1.3,4.7-3.8,4.7c-0.7,0-1.4,0-2.4-0.1
				c-0.1-0.6-0.2-1.3-0.3-2.1c0.9,0.1,1.8,0.2,2.6,0.2c1.4,0,2.1-0.9,2.2-2.8c0-1.3-0.1-2.6-0.3-3.8c-1.4,2-3,3.7-5,5.1
				C634.5,285,634.1,284.5,633.6,283.9z M634,267.1h6.4v-2.8h1.8v2.8h6.4v-2.8h1.8v2.8h6.4v1.8h-6.4v1.7h-1.8v-1.7h-6.4v1.7h-1.8
				v-1.7H634V267.1z M642.5,276h5.7c0-1.3,0-2.8,0-4.6h1.8c0,1.5,0,3-0.1,4.6h6.6v1.8h-6.5c1,4.8,3.3,8.1,6.8,9.8
				c-0.5,0.6-1,1.2-1.5,1.8c-3.1-1.8-5.2-4.7-6.2-8.7c-0.9,3.7-3.1,6.6-6.6,8.8c-0.4-0.6-0.8-1.1-1.2-1.7c3.9-2.3,6.2-5.7,6.6-10.1
				h-5.6V276z M651.3,272.5l0.9-1.3c1.3,0.8,2.4,1.7,3.4,2.5l-1.1,1.5C653.8,274.4,652.6,273.5,651.3,272.5z"/>
			<path class="st5" d="M83.7,317.4c2-2,3.8-4.8,5.7-8.3l1.6,0.9c-0.7,1.3-1.4,2.5-2.1,3.6v13.8h-1.8v-11.2
				c-0.9,1.2-1.7,2.3-2.6,3.2C84.2,318.7,84,318,83.7,317.4z M83.8,309.5c2.2-1.9,4-4.3,5.6-7.1l1.7,1c-1.9,3.1-4,5.7-6.3,7.9
				C84.4,310.7,84.1,310.1,83.8,309.5z M90.6,318.6h11.2v-2.1H91.5v-1.7h14.9v1.7h-2.8v2.1h3.4v1.7h-3.4v3.7c0,2-0.9,3-2.8,3
				c-0.8,0-2,0-3.5,0c-0.1-0.6-0.2-1.2-0.4-2.1c1,0.1,2.2,0.2,3.4,0.2c1,0,1.4-0.5,1.4-1.6v-3.2H90.6V318.6z M92.8,321.5l1.3-1.1
				c0.9,1,1.8,2.1,2.5,3.1l-1.4,1.1C94.5,323.6,93.7,322.5,92.8,321.5z M92.8,303.5h11.9v10.1h-1.7v-0.9h-8.6v0.9h-1.7V303.5z
				 M103.1,305.1h-8.6v2.2h8.6V305.1z M94.5,311.2h8.6v-2.3h-8.6V311.2z"/>
			<path class="st5" d="M122,302.3h2c-0.3,0.8-0.7,1.6-1.1,2.4h7.4v1.6h-5.9c0.7,0.7,1.3,1.5,1.9,2.2l-1.3,1.1h3v6.8h-1.8v-0.9h-6.4
				v2.5h9.4c-0.1,1.5-0.1,3-0.2,4.3c-0.1,2.1-1.1,3.2-3,3.2c-1,0-2.1,0-3.5,0c-0.1-0.6-0.2-1.3-0.4-2c1.5,0.1,2.7,0.1,3.6,0.1
				c0.9,0,1.4-0.5,1.5-1.5c0.1-0.8,0.1-1.6,0.2-2.4h-7.5v7.8H118v-7.2c-2.2,2.9-5.4,5-9.8,6.6c-0.3-0.5-0.6-1-1-1.6
				c3.8-1.2,6.8-3.1,9-5.5h-7.1V318l1.1-4.3h7.7v-2.4h-8.2v-1.7h4.6c-0.6-0.9-1.3-1.8-1.9-2.6l0.9-0.8h-1.7c-0.9,1.3-2,2.6-3.2,3.7
				c-0.3-0.4-0.7-0.9-1.2-1.4c2-1.7,3.5-3.8,4.6-6.3h2c-0.4,0.8-0.8,1.6-1.2,2.4h6.8v1.6h-5.6c0.6,0.7,1.3,1.4,1.9,2.2l-1.3,1.1H125
				c-0.6-0.9-1.3-1.8-1.9-2.5l1-0.8h-2c-0.6,1-1.3,2-2,2.8c-0.3-0.4-0.8-0.8-1.4-1.2C120,306.4,121.1,304.5,122,302.3z M111.1,318
				h6.9v-2.5h-6.3L111.1,318z M126.2,311.3h-6.4v2.4h6.4V311.3z"/>
			<path class="st5" d="M131.4,322.3h22.4v2.1h-22.4V322.3z M133.2,305.6h19.1v2.2h-19.1V305.6z"/>
			<path class="st5" d="M167.9,303l-0.3,0.6c2.5,4.5,6,7.8,10.5,9.7c-0.5,0.8-0.9,1.6-1.2,2.3c-4.6-2.6-8-6-10.4-10.1
				c-2.3,3.9-5.8,7.4-10.5,10.4c-0.3-0.6-0.7-1.3-1.2-2c4.9-2.9,8.5-6.6,10.8-10.9H167.9z M165.3,311.7h2.1v15.7h-2.1V311.7z"/>
			<path class="st5" d="M190.9,305.2l-7.1,18.8h-2.4l6.7-17.5h-9v-2.2h11.8V305.2z"/>
			<path class="st5" d="M192.2,316.1c1.1-0.3,2.3-0.7,3.5-1.1v-5.6h-3.1v-1.8h3.1v-5h1.8v5h2.9v1.8h-2.9v5c0.8-0.3,1.7-0.6,2.6-0.9
				c0,0.9,0,1.5,0,2c-0.7,0.2-1.6,0.5-2.6,0.9v7.7c0,1.8-0.7,2.8-2.1,2.8c-0.7,0-1.6,0-2.5,0c-0.1-0.7-0.2-1.4-0.3-2.1
				c0.9,0.1,1.7,0.2,2.2,0.2c0.6,0,1-0.4,1-1.2V317c-1,0.3-2.1,0.7-3.2,1.1L192.2,316.1z M201.7,304.4c4,0,8.2-0.4,12.5-1.1l0.6,2
				c-4.6,0.5-8.4,0.8-11.3,0.9v5.9h11.9v1.9h-4.3v13.3h-1.9V314h-5.8c0,6.1-1.1,10.6-3.2,13.5c-0.4-0.5-0.9-1-1.5-1.6
				c1.9-2.5,2.9-6.4,2.9-11.9V304.4z"/>
			<path class="st5" d="M227.5,321.1c0.4,0,0.8,0.2,1.1,0.5c0.3,0.3,0.4,0.7,0.4,1.1c0,0.5-0.1,0.8-0.4,1.1
				c-0.3,0.3-0.7,0.5-1.1,0.5s-0.8-0.2-1.1-0.5c-0.3-0.3-0.4-0.7-0.4-1.1c0-0.4,0.1-0.8,0.4-1.1
				C226.7,321.2,227.1,321.1,227.5,321.1z M228.7,304.3l-0.3,14.1h-1.8l-0.3-14.1H228.7z"/>
			<path class="st5" d="M253,328.5c-2.8-3.3-4.2-7.3-4.2-12c0-4.7,1.4-8.8,4.2-12.1h2c-2.8,3.4-4.1,7.5-4.1,12.1
				c0,4.6,1.4,8.6,4.1,12H253z"/>
			<path class="st5" d="M263.5,324.1c0.8-0.1,1.5-0.2,2.3-0.3v-9.7h-2.6v-1.5h23.1v1.5h-12.2v8.5c0.7-0.1,1.5-0.2,2.2-0.4
				c0,0.3,0,0.8,0,1.6c-0.7,0.1-1.5,0.2-2.3,0.3v3.2h-1.6v-3c-2.7,0.4-5.6,0.9-8.7,1.4L263.5,324.1z M266.8,303.5H283v8.2h-1.6V311
				h-12.9v0.6h-1.6V303.5z M267.4,316.2h5.2v-2h-5.2V316.2z M267.4,319.7h5.2v-2h-5.2V319.7z M272.6,322.9v-1.7h-5.2v2.4
				C269.2,323.4,270.9,323.2,272.6,322.9z M281.3,304.9h-12.9v1.6h12.9V304.9z M268.4,309.6h12.9v-1.6h-12.9V309.6z M275.4,317.5
				V316h9.3v1.5c-0.8,2.1-1.8,3.9-3.1,5.4c1.3,1.1,3,1.9,5,2.4c-0.4,0.6-0.8,1.2-1.1,1.8c-2-0.7-3.7-1.7-5.1-2.9
				c-1.3,1.3-2.9,2.4-4.7,3.2c-0.3-0.5-0.6-1-1.1-1.6c1.8-0.7,3.3-1.7,4.6-2.8c-1.3-1.5-2.2-3.3-2.8-5.5H275.4z M282.9,317.5H278
				c0.5,1.7,1.3,3.1,2.4,4.3C281.4,320.5,282.3,319.1,282.9,317.5z"/>
			<path class="st5" d="M287.1,304.7h10.7c-0.3-0.7-0.7-1.4-1-1.9l1.8-0.8c0.4,0.8,0.9,1.7,1.3,2.7H310v1.7h-23V304.7z M290.2,327.2
				h-1.8v-11.9h20.4v8.6c0,2.1-0.9,3.1-2.7,3.1c-1,0-2.1,0-3.4-0.1c-0.1-0.6-0.2-1.2-0.4-2c1.4,0.1,2.5,0.2,3.3,0.2
				c0.9,0,1.4-0.5,1.4-1.5v-6.7h-16.9V327.2z M291.1,308.1h15.2v6.2h-1.8v-0.8h-11.6v0.8h-1.8V308.1z M304.4,309.6h-11.6v2.2h11.6
				V309.6z M293.4,318.6h10.6v5.3h-8.9v1.1h-1.7V318.6z M302.2,322.3v-2.2h-7.2v2.2H302.2z"/>
			<path class="st5" d="M310.7,304.5h23.1v1.9h-3.9v17.2c0,2.3-1,3.4-3.1,3.5c-1.5,0-2.9,0-4.3,0c-0.1-0.8-0.2-1.5-0.4-2.3
				c1.8,0.1,3.1,0.2,4,0.2c1.2,0,1.7-0.7,1.7-2v-16.5h-17.2V304.5z M313.3,310.1h10.3v10h-8.5v1.8h-1.8V310.1z M321.8,311.9h-6.6
				v6.4h6.6V311.9z"/>
			<path class="st5" d="M334.4,323.9c1-2.8,2-6.3,3-10.5c0.6,0.3,1.2,0.6,1.7,0.8c-0.7,2.7-1.6,6.2-2.8,10.4L334.4,323.9z
				 M334.9,305.5l1.4-1.1c1.1,1.4,2.2,2.8,3.3,4.4l-1.6,1.3C336.7,308.1,335.7,306.6,334.9,305.5z M346.7,326
				c1.7-1.5,3.3-3.4,4.6-5.5c-0.6-2.7-1-6.7-1.1-12.2h-7.8v6.5c0,5.2-1.1,9.4-3.3,12.5c-0.6-0.7-1.1-1.1-1.4-1.4
				c2.1-2.8,3.1-6.6,3.1-11.2v-8.1h9.4c0-1.4,0-2.7,0-4h1.7c0,1.3,0,2.6,0,4h5.6v1.7h-5.6c0,4.1,0.3,7.4,0.7,9.8
				c1.1-2.2,2-4.6,2.7-7.3l1.7,0.6c-1.1,3.5-2.3,6.6-3.8,9.3c0.4,1.5,0.9,2.7,1.4,3.5c0.5,0.7,0.8,0.5,1-0.4c0.2-1,0.3-2.2,0.4-3.7
				c0.7,0.3,1.3,0.5,1.7,0.6c-0.2,1.8-0.5,3.3-0.7,4.4c-0.3,1.3-0.9,2-1.7,2c-0.7,0-1.3-0.4-1.9-1.2c-0.6-0.9-1.1-2-1.5-3.2
				c-1.1,1.7-2.3,3.2-3.7,4.5C347.7,326.7,347.2,326.3,346.7,326z M343.5,310.5h5.8v1.6h-5.8V310.5z M343.9,314.5h5.3v7.5h-3.7v1.6
				h-1.5V314.5z M347.6,320.3V316h-2.2v4.3H347.6z M352.8,303.5l1.2-1c0.8,0.8,1.5,1.7,2.2,2.5l-1.3,1.1
				C354.3,305.3,353.6,304.4,352.8,303.5z"/>
			<path class="st5" d="M358.2,320.2h11.4v-4.3H361v-1.9c1.1-2,2-4,2.9-5.9h-4.8v-1.9h5.7c0.6-1.4,1.2-2.7,1.7-4l1.8,0.6
				c-0.5,1.2-1,2.3-1.5,3.4h13.1v1.9h-14c-1,2.3-2,4.3-2.8,6h6.5v-4.9h1.8v4.9h6.8v1.8h-6.8v4.3h9.3v1.9h-9.3v5.3h-1.8v-5.3h-11.4
				V320.2z"/>
			<path class="st5" d="M383.3,304.7h6.7c0-0.8,0-1.5,0-2.1h1.7c0,0.7,0,1.4,0,2.1h4.1v-2.1h1.7v2.1h5.6v5.8h-1.7v-0.6h-3.9v2.3h6.7
				c0,1.2-0.1,2.3-0.3,3.1c-0.2,1.2-0.9,1.8-2.1,1.8c-0.2,0-0.4,0-0.7,0v6.2h-1.7V318h-11.7v5.5h-1.7V318c-1,0.5-2,0.9-3.2,1.3
				c-0.2-0.5-0.5-1.1-1-1.8c3.6-0.8,5.9-2.1,7-4h-5.1l0.7-5.2h5.6c0-0.7,0.1-1.4,0.1-2.2h-6.7V304.7z M392.6,319.5h1.7
				c0,1.1-0.1,2-0.3,2.9c3.6,1.1,6.8,2.3,9.7,3.4l-0.9,1.8c-3.1-1.3-6.3-2.5-9.4-3.6c-1,1.7-4.2,2.9-9.6,3.6
				c-0.3-0.8-0.6-1.4-0.8-1.8c3.6-0.4,6.3-1,8.1-2C392.2,323.2,392.7,321.8,392.6,319.5z M385.5,312.1h3.9c0.2-0.6,0.3-1.4,0.4-2.3
				h-4L385.5,312.1z M399,315.2c0.9,0.1,1.6,0.2,2.2,0.2c0.6,0,1-0.3,1.1-0.8c0.1-0.4,0.1-0.7,0.1-1h-5v2.5h-1.7v-2.5h-5
				c-0.4,1-1.2,2-2.2,2.8h10.9C399.3,316.1,399.2,315.7,399,315.2z M391.2,312.1h4.6v-2.3h-4.3C391.4,310.7,391.3,311.5,391.2,312.1
				z M391.6,308.4h4.2v-2.2h-4.1C391.6,306.9,391.6,307.7,391.6,308.4z M401.4,306.2h-3.9v2.2h3.9V306.2z"/>
			<path class="st5" d="M417.6,324h-10.4v-2.1h4.1v-14.9l-4.2,1.3v-2.3l6.4-2v17.9h4V324z"/>
			<path class="st5" d="M419.9,314.5c0-3.5,0.5-6.1,1.6-7.9c1.1-1.8,2.6-2.7,4.6-2.7c3.8,0,5.7,3.4,5.7,10.1c0,3.3-0.5,5.9-1.6,7.6
				c-1.1,1.8-2.6,2.6-4.5,2.6c-1.8,0-3.3-0.8-4.3-2.5C420.4,320.2,419.9,317.7,419.9,314.5z M422.2,314.4c0,5.2,1.2,7.8,3.7,7.8
				c2.4,0,3.6-2.7,3.6-8c0-5.5-1.2-8.2-3.5-8.2C423.4,306.1,422.2,308.9,422.2,314.4z"/>
			<path class="st5" d="M433.3,311.5h22.6v1.9h-7.4v9.9c0,1,0.5,1.5,1.4,1.5h2c1.1,0,1.8-0.6,1.9-1.7c0.1-0.9,0.3-2.1,0.3-3.6
				c0.6,0.2,1.3,0.4,2,0.6c-0.2,1.5-0.3,2.7-0.5,3.7c-0.3,1.9-1.4,2.8-3.4,2.8h-2.8c-2,0-2.9-1-2.9-3.1v-10.1h-4.8v0.8
				c0,3.6-0.5,6.2-1.5,8c-1,1.9-3,3.6-5.9,5.3c-0.6-0.7-1-1.3-1.4-1.7c2.7-1.4,4.5-3,5.4-4.5c0.9-1.5,1.4-3.8,1.4-6.9v-0.9h-6.5
				V311.5z M435.5,304.1h18.1v1.9h-18.1V304.1z"/>
			<path class="st5" d="M466.4,328.5h-2c2.8-3.4,4.1-7.5,4.1-12.1c0-4.6-1.4-8.6-4.1-12h2c2.8,3.3,4.1,7.3,4.1,12
				C470.5,321.1,469.2,325.1,466.4,328.5z"/>
		</g>
		<path class="st5" d="M212.7,95.8h8.2V114h-2v-2.1h-4.2v2.4h-2V95.8z M218.9,97.6h-4.2V110h4.2V97.6z M232,93.5h2.1v24.7H232V110
			c-1.8,0.5-3.4,0.9-4.7,1.4c-0.7,0.3-1.5,0.6-2.4,1.1l-1.3-1.7c0.5-0.6,0.8-1.4,0.8-2.4V95.7h2v13.7c1.6-0.4,3.4-0.9,5.6-1.5V93.5z
			"/>
	</g>
	<g>
		<path class="st3" d="M407.1,442.5h8.9v11.7h-1.8v-1.7h-5.3v1.7h-1.8V442.5z M414.2,444.2h-5.3v6.5h5.3V444.2z M409.4,430.3h16.1
			v10.1h-1.9v-0.8h-12.4v0.8h-1.9V430.3z M423.6,432.1h-12.4v5.7h12.4V432.1z M418.9,442.5h8.9v11.7H426v-1.7h-5.4v1.7h-1.8V442.5z
			 M426,444.2h-5.4v6.6h5.4V444.2z"/>
		<path class="st3" d="M437.9,453.9h-1.7v-9.5h-2.5c0,4.4-0.6,7.7-1.8,9.9c-0.4-0.5-0.9-0.9-1.4-1.5c1-1.9,1.5-4.8,1.5-8.6v-14.1
			h1.7v7.5h2.4v-8.2h1.7v8.2h1.7v1.6h-5.8v3.6h4.2V453.9z M438.7,447.7h2.9c-0.3-0.4-0.7-0.9-1-1.3c1.7-0.9,2.8-2,3.6-3.1h-3.7V432
			h4c0.3-0.8,0.6-1.8,0.9-2.8l1.8,0.6c-0.3,0.8-0.7,1.5-1,2.2h6v12.2h-1.6v-0.9H446c-0.7,1.5-2,3-4.1,4.4h4.7v-3.2h1.7v3.2h5.3v1.8
			h-5.3v4.6h-1.7v-4.6h-8V447.7z M441.9,436.8h3.4v-3.1h-3.4V436.8z M445.3,438.4h-3.3v3.2h2.8C445,440.8,445.2,439.7,445.3,438.4z
			 M446.5,441.6h3.9v-3.2h-3.5C446.9,439.7,446.7,440.7,446.5,441.6z M450.4,433.7H447v3.1h3.5V433.7z"/>
		<path class="st3" d="M458.2,430.9h16.7v23.1h-2v-1.8h-12.7v1.8h-2V430.9z M460.2,432.8v7.6h12.7v-7.6H460.2z M460.2,442.3v8h12.7
			v-8H460.2z"/>
		<path class="st3" d="M498.1,442v-0.9H492v10h6.8v-7.2h2v10.1h-2V453h-17.6v-9.2h2v7.2h6.7v-10h-8.1V432h2v7.2h6.1v-9.5h2v9.5h6.1
			V432h2V442H498.1z"/>
		<path class="st3" d="M503.9,444.4c2.4-2.1,4.6-5.2,6.6-9.1l1.6,1.1c-0.8,1.5-1.7,2.9-2.5,4.2v13.4h-1.9v-10.8
			c-0.9,1.2-1.9,2.2-2.9,3.2C504.5,445.8,504.2,445.1,503.9,444.4z M504.1,436.4c2.5-2.1,4.5-4.5,6-7.3l1.7,1.1
			c-1.8,3-4,5.7-6.7,8.1C504.7,437.7,504.4,437,504.1,436.4z M512.4,438.7h14.8v1.9h-4.5v9.9c0,2.1-1,3.1-2.9,3.1c-1.3,0-2.6,0-4,0
			c-0.1-0.7-0.2-1.4-0.3-2.3c1.2,0.1,2.4,0.2,3.7,0.2c1.1,0,1.6-0.6,1.6-1.7v-9.2h-8.3V438.7z M513.7,431.1h12.1v1.9h-12.1V431.1z"
			/>
		<path class="st3" d="M531.7,430.9h16.7v23.1h-2v-1.8h-12.7v1.8h-2V430.9z M533.7,432.8v7.6h12.7v-7.6H533.7z M533.7,442.3v8h12.7
			v-8H533.7z"/>
		<path class="st3" d="M557.5,439.6c0,3.7-0.2,6.6-0.7,8.6c-0.5,2.1-1.3,4.1-2.6,6c-0.4-0.6-0.9-1.2-1.4-1.7c1.1-1.7,1.8-3.3,2.1-5
			c0.4-1.6,0.5-4.1,0.5-7.5v-9.2h20.4v2h-18.4V439.6z M558.8,438.3h5.1c0-1.5,0.1-3.1,0.1-4.6h2c0,1.5,0,3.1-0.1,4.6h8.4
			c-0.2,4.5-0.4,8.2-0.5,11.1c-0.2,2.6-1.5,3.9-3.6,4c-1.2,0-2.5,0-4.1-0.1c-0.1-0.6-0.2-1.4-0.4-2.3c1.5,0.2,2.9,0.3,4.1,0.3
			c1.2,0,2-0.8,2.1-2.3c0.2-2.4,0.3-5.3,0.4-8.7h-6.5c-0.1,3.4-0.6,6-1.5,7.8c-1.1,2.3-3.2,4.4-6.1,6.2c-0.4-0.6-0.9-1.1-1.4-1.7
			c2.9-1.9,4.7-3.8,5.6-5.6c0.8-1.6,1.3-3.8,1.4-6.7h-5V438.3z"/>
	</g>
	<rect x="0" y="0" class="st6" width="720" height="1036.5"/>
</g>
<g>
</g>
<g>
</g>
<g>
</g>
<g>
</g>
<g>
</g>
<g>
</g>
<g>
</g>
<g>
</g>
<g>
</g>
<g>
</g>
<g>
</g>
<g>
</g>
<g>
</g>
<g>
</g>
<g>
</g>
</svg>
