<?xml version="1.0" encoding="utf-8"?>
<!-- Generator: Adobe Illustrator 17.0.0, SVG Export Plug-In . SVG Version: 6.00 Build 0)  -->
<!DOCTYPE svg PUBLIC "-//W3C//DTD SVG 1.1//EN" "http://www.w3.org/Graphics/SVG/1.1/DTD/svg11.dtd">
<svg version="1.1" id="Layer_1" xmlns="http://www.w3.org/2000/svg" xmlns:xlink="http://www.w3.org/1999/xlink" x="0px" y="0px"
	 width="720px" height="389px" viewBox="0 0 720 389" style="enable-background:new 0 0 720 389;" xml:space="preserve">
<style type="text/css">
	.st0{fill:#1E1C26;}
	.st1{fill:#B59F92;}
</style>
<g id="page-02-page-after.svg">
	<rect y="0" class="st0" width="720" height="389"/>
	<path class="st1" d="M71.9,198v-5.5H62v-2.6l10.4-14.8h2.3v14.8h3.1v2.6h-3.1v5.5H71.9z M70.4,242.6c-0.1,1.6-1,2.4-2.6,2.4h-3
		l-0.8-2.4l2.3,0.1c0.7,0,1.1-0.1,1.3-0.2c0.2-0.1,0.3-0.4,0.3-0.7v-7.7c-1.2,0.5-2.4,1-3.6,1.3l-1.6-2c2.5-0.7,4.2-1.3,5.2-1.7V225
		h-4.4v-2.3h4.4v-6.4h2.4v6.4h3.9v2.3h-3.9v5.9l3.7-1.5v2.6l-3.7,1.4V242.6L70.4,242.6z M82.8,124.1v3.4h-2.4v-3.4H74v3.4h-2.4v-3.4
		h-7.9v-2.2h7.9v-3.2H74v3.2h6.4v-3.2h2.4v3.2h8.1v2.2H82.8z M74.1,94.2c-1.8,2.7-4.5,5-8.1,7L64.2,99c6.2-3,10-8.1,11.3-15.3h-9.8
		v-2.4h10c0.2-2,0.3-4.7,0.2-8.1l2.6,0.4l0,2.5c0,2-0.1,3.7-0.2,5.2h11.5v2.4h-9.4c0.7,3.9,1.9,7,3.6,9.4c1.7,2.4,4.1,4.5,7.2,6.3
		l-1.7,1.9c-3.6-2.1-6.2-4.5-7.9-7.2c-1.7-2.7-2.9-6.2-3.6-10.4C77.3,88,76,91.5,74.1,94.2L74.1,94.2z M71.9,189.9v-10.3h-0.1
		l-7.1,10.3H71.9z M80,131.4l-11.8,0v-2.3H84v2.3c-4.1,2.6-7.5,5.2-10,7.7c-2.5,2.5-3.8,3.9-3.8,4.2c0,0.2,0.2,0.3,0.7,0.3h14.8
		c0.9,0,1.5-1.4,1.7-4.1l2.5,1c-0.5,3.7-1.6,5.5-3.3,5.5H70c-1.5-0.1-2.3-1-2.4-2.6c0-1,1-2.6,3-4.6C72.6,136.7,75.7,134.2,80,131.4
		z M87,234.9v7.7c-0.1,0.9-0.5,1.5-1.1,1.8c-0.6,0.3-1.1,0.5-1.5,0.5h-3.2l-0.9-2.5c0.8,0.1,2,0.2,3.7,0.2c0.4-0.1,0.6-0.3,0.6-0.5
		v-7.2H73.3v-2.3h11.2v-2.4H87v2.4h4.7v2.3H87z M81.3,216.3h2.4v4.5h6v2.3h-6v3.9h7.8v2.3H73.9V227h7.4v-3.9h-6.2v-2.3h6.2V216.3z
		 M80.1,241.4c-2.2-1.9-4.1-3.2-5.8-3.9l1.6-1.8c1.8,0.7,3.8,2,5.8,3.8L80.1,241.4L80.1,241.4z M100.6,196.9c0.5,0,0.8-0.2,0.8-0.7
		V190H90.6c-0.8,3.8-3.2,7.2-7.1,10.4l-1.6-2.3c2.1-1.5,3.7-3.2,4.7-5c1-1.8,1.5-3.6,1.5-5.4v-14.8H104v24c-0.1,1.5-1.1,2.3-2.7,2.4
		h-3.9l-1-2.6L100.6,196.9L100.6,196.9z M90.6,175.2v5h10.7v-5H90.6z M101.4,187.7v-5.1H90.7l-0.1,5.1H101.4z M103.8,239.7l-8.6,2.7
		l-1.6-2.2c4-1.1,7.4-2.1,10.2-2.9V239.7z M107.1,128.5h-0.7c-1.7,7.5-5.3,12.8-10.9,15.9l-1.7-1.9c5.2-2.9,8.6-7.6,10.3-14h-9.4
		v-2.3h12.5v-7.3h2.4v7.3h12.4v2.3h-9.4c2.1,6.7,5.6,11.4,10.4,14l-1.7,2c-2.1-1-4.1-2.9-6.2-5.5c-2.1-2.6-3.7-6.1-4.8-10.5h-0.7
		v18.7h-2.4V128.5z M105.3,222.7c-2.1,4.3-4.3,7.7-6.7,10.3l5.6-0.8v2.3l-8.9,1.6l-1-2.1c1.3-1,2.9-2.9,4.9-5.7l-3.9,0.5l-1-2.2
		c2.3-2.9,4.1-6.3,5.5-10.1l2.5,1.1c-1.9,4-3.5,6.9-5,8.7c0.3,0,1.5-0.1,3.5-0.4c0.7-1.3,1.4-2.7,2.2-4.1L105.3,222.7L105.3,222.7z
		 M104.6,81.6h1.9V84h-6.1c0,1.1,0,2.5,0,4.4h4.7v13.3h-2.4v-11h-2.3c-0.1,3.4-0.9,6.7-2.5,9.9c-0.2,0.4-0.5,0.8-0.8,1.3
		c-0.6-0.3-1.3-0.7-2.3-1.2c1-1.5,1.7-3.1,2.2-4.8c0.5-1.7,0.8-3.4,0.8-5.1c0.1-1.7,0.1-4.2,0.1-7.6l0-8.4h2.5v6.9h1.9v-8.4h2.4
		V81.6z M114.5,237.1l-0.3,0.7c3.8,1.6,6.6,3.5,8.4,5.5l-2.1,1.7c-2.3-2.4-4.7-4.2-7.2-5.2c-1.7,2.9-5.4,4.7-11.2,5.4l-1-2.5
		c1.5,0,3.4-0.4,5.7-1.2c2.3-0.8,4-2.2,5.1-4.4h-7.3v-2.3h8c0.2-1.3,0.3-3.7,0.4-7.1l2.4,0.1c-0.1,3.2-0.2,5.6-0.4,7.1h7v2.3H114.5z
		 M105.1,228.9c1.8,0.8,3.5,2.1,5.1,3.7l-1.7,1.8c-1.1-1.3-2.7-2.6-4.6-3.7L105.1,228.9L105.1,228.9z M110.6,231.7
		c-1.2-1.6-2.6-2.8-4.2-3.9l1-1h-2.7v-2.3h6.1V222h-5.4v-2.3h5.4v-3.2h2.4v3.2h6.7v2.3h-6.7v2.5h7.9v2.3c-0.6,1.4-1.2,2.7-1.9,3.7
		l-2.4-1.2c0.8-0.9,1.4-1.8,1.7-2.5h-10v0c1.1,0.6,2.4,1.7,3.7,3.3L110.6,231.7L110.6,231.7z M106.8,93.3l-1.6-1.7
		c2.3-1,4-1.9,4.9-2.8h-3.1V76.3h4.3c0.9-0.8,1.8-1.9,2.6-3.3l2.4,0.8c-0.4,0.9-1,1.8-1.8,2.6h7.3v12.4h-8.4
		c-0.9,1.6-2.9,3.1-6.2,4.5l6.9,0v-4h2.5v4h7.1v2.3h-7.1v6.4h-2.5v-6.4h-8.8v-2.3H106.8z M109.5,81.1h3.9l0.1-2.5h-4V81.1z
		 M109.5,86.4h2.6c0.4-0.8,0.8-1.8,1.1-2.9h-3.7V86.4z M126.4,198h-15.2c0.2-2.5,1.9-5.1,5.1-7.8s5.3-4.6,6-5.7
		c0.7-1.1,1.1-2.2,1.1-3.2c0-1.1-0.4-2.1-1.2-2.8c-0.8-0.8-1.9-1.1-3.1-1.1c-1.4,0-2.4,0.4-3.2,1.2c-0.8,0.8-1.2,1.9-1.2,3.4
		l-2.9-0.3c0.2-2.2,0.9-3.8,2.2-4.9c1.3-1.1,3-1.7,5.2-1.7c2.1,0,3.9,0.6,5.2,1.8s2,2.7,2,4.6c0,1.3-0.4,2.7-1.3,4
		c-0.8,1.3-2.3,2.8-4.4,4.6l-2.3,2c-1.7,1.4-2.8,2.6-3.3,3.5h11.3V198z M113,119.7c2.2,1,4,2.5,5.3,4.5l-1.9,1.5
		c-1.2-1.8-2.8-3.3-5-4.4L113,119.7L113,119.7z M115.5,83.5c-0.2,1.3-0.5,2.3-0.7,2.9h4.7v-2.9H115.5L115.5,83.5z M119.5,81.1v-2.5
		h-3.6l-0.1,2.5H119.5z M128.6,131c-0.5,0.4-1.3,0.9-2.4,1.6l-1.5-2.1c4.3-1.9,7.4-6,9.4-12.2l2.1,1l-0.2,0.7
		c2.8,4.9,5.6,8.4,8.4,10.4l-1.8,2c-0.9-0.7-1.6-1.5-2.3-2.3c-0.2,2.9-0.6,5.3-1,7.2c-0.4,1.9-0.9,3-1.3,3.3
		c-0.5,0.3-1.1,0.5-1.8,0.5c-0.5,0-1.4-0.2-2.9-0.7c-0.1-0.4-0.3-1.3-0.5-2.6c1.5,0.7,2.5,1,3.1,1c0.3,0,0.5-0.2,0.7-0.7
		c0.2-0.5,0.4-1.3,0.7-2.5c0.3-1.2,0.5-2.6,0.5-4.2H131v11.5c0,0.6,0.2,0.8,0.6,0.8h8.7c0.3-0.1,0.6-0.5,0.7-1.2l0.5-2.1l2.2,1
		c-0.5,2-1,3.2-1.5,3.7c-0.5,0.5-1.1,0.7-1.6,0.7h-9.1c-0.9,0-1.6-0.3-2.1-0.8c-0.5-0.5-0.7-1.1-0.7-1.7V131L128.6,131z M131.4,87.2
		c-1-2-2.5-3.6-4.4-4.7l1.7-1.4c1.9,1.1,3.4,2.6,4.5,4.6L131.4,87.2L131.4,87.2z M127.1,241.9v-2.4h26v2.4H127.1z M127.4,100.5
		c1.8-2.9,3-6.9,3.7-12l2,0.9c-0.6,5-1.8,9.1-3.5,12.2L127.4,100.5L127.4,100.5z M140.6,80.4h4.1v11h-3.9v2.5h5.1l0,1.7
		c0.3-1.5,0.5-3.1,0.5-4.8V75h7.7v23.8c0,0.6-0.2,1.1-0.5,1.6c-0.3,0.5-0.7,0.7-1.2,0.8c-0.5,0.1-1.5,0.1-3.1,0.1l-0.7-2.2
		c0.8,0,1.3,0.1,1.7,0.1l1-0.1c0.4,0,0.6-0.3,0.6-0.8v-6.5h-3.2c0,3.6-1,7.1-3.1,10.7l-2-1.6c0.9-1.6,1.6-3.1,2.1-4.7h-4.9v5.8h-2.4
		v-5.8h-5.4v-2.3h5.4v-2.5h-4.1v-11h3.9v-2h-4.5L134,79l-1.9,1.5c-0.7-1.6-2.3-3.1-4.6-4.5l1.7-1.6c1.9,1.1,3.4,2.2,4.3,3.5l0-1.9
		h4.7v-2.8h2.4v2.8h4.8v2.3h-4.8V80.4z M151.2,222.7h-22.4v-2.5h22.4V222.7z M130.6,231.9v-2.4h18.7v2.4H130.6z M134.8,122.5
		c-1,2.4-2.4,4.6-4.1,6.4h8.4C137.1,126.2,135.7,124.1,134.8,122.5L134.8,122.5z M135.1,199v-24.9h17.6v24.8h-2.5v-3.1h-12.6v3.2
		H135.1z M142.2,84.7v-2h-5.6v2H142.2z M142.2,86.9h-5.6v2.1h5.6V86.9z M150.2,176.4h-12.6v7.2h12.6V176.4z M137.6,193.4h12.6v-7.5
		h-12.6V193.4z M147,123.3v16.6h-2.4v-16.6H147z M145.6,144.5l3.2,0.2c0.3,0,0.5-0.4,0.5-1.1v-25.2h2.4v26.3c0,0.7-0.3,1.3-0.7,1.6
		c-0.4,0.4-0.9,0.6-1.3,0.6h-3.5L145.6,144.5z M151.8,82.2v-4.9h-3.2v4.9H151.8z M151.8,89.6v-5.1h-3.2v5.1H151.8z M160.4,230.5V218
		h22.9v23.6c-0.2,1.8-1.1,2.8-2.9,2.9h-2.9l-0.9-2.5l3.5,0.1c0.5-0.1,0.8-0.3,0.8-0.9v-21h-18v6.1c0,3.9-0.1,6.8-0.3,8.7
		c-0.2,3.6-1.6,6.9-4.2,9.9l-2-1.5c1.7-2.2,2.8-4.3,3.3-6.3C160.2,235.4,160.4,233.1,160.4,230.5z M165.3,127.2l0.6-0.6
		c1.8,1.1,3.3,2.6,4.5,4.6l-2,1.3c-1.3-1.9-2.3-3.1-3.1-3.5v7h-2.4v-5.9c-0.4,0.8-1.8,2.4-4.2,4.8l-2.1-1.6c3.6-3,5.7-5.7,6.3-8h-5
		V123h5.1v-4.5h2.4v4.5h4.3v2.3h-4.3V127.2z M156.5,143.9c2.4-1.5,4.2-3.3,5.3-5.5l1.9,1.3c-1.1,2.4-2.9,4.4-5.3,6L156.5,143.9
		L156.5,143.9z M166.8,101.9h-2.4V90.4c-1.5,1.5-3.1,2.6-5,3.4l-1.5-2.1c4.3-1.8,7.2-5.1,8.9-9.9h-7.9v-2.3h10.9
		c-0.6,3.3-1.6,5.9-3,7.9V101.9z M165.7,79.3c-1.1-1.8-2.5-3.3-4.2-4.3l1.7-1.6c1.9,1.2,3.4,2.7,4.5,4.4L165.7,79.3L165.7,79.3z
		 M176.2,191.5v4.5h12.1v2.4h-26.7V196h12.2l-0.1-4.5H165v-2.4h8.7l-0.1-3h2.6v3h8.6v2.4H176.2z M187.4,173.3v2.4h-11.8
		c-2.2,3.1-4.7,5.6-7.3,7.7l13.3-1.4c-0.9-0.9-2.1-1.7-3.5-2.5l1.9-1.6c3.2,1.8,5.9,4.3,8.1,7.6l-2.2,1.6c-0.5-0.9-1.2-1.8-2.1-2.9
		c-10.7,1.1-16.9,1.8-18.4,2.1l-1.5-2.2c4.2-3.2,7.1-6,8.6-8.3h-9.9v-2.4H187.4z M173.1,225.7v2.7h6.4v2.3H164v-2.3h6.7v-2.7h-6
		v-2.3h6v-2.2h2.4v2.2h5.9v2.3H173.1z M176,140.3l2.5,0.9c-0.4,2.1-0.9,3.5-1.6,4.2c-0.6,0.7-1.6,1.1-2.9,1.1h-5.9
		c-2-0.1-3.1-1.1-3.2-2.9v-4.9h2.6v4.5c0,0.7,0.4,1,1.1,1h5.4c0.6,0,1-0.3,1.3-0.9S175.8,141.7,176,140.3z M178.1,240.6h-12.8v-8.2
		h12.8V240.6z M170.7,93.7c-0.9-1.8-2.1-3.4-3.5-4.7l1.7-1.5c1.1,0.9,2.4,2.4,3.9,4.6L170.7,93.7L170.7,93.7z M172.2,142.2
		c-1-2-2.4-3.5-4.5-4.5l1.8-1.6c1.8,0.8,3.3,2.3,4.7,4.4L172.2,142.2L172.2,142.2z M167.8,234.8v3.5h7.9v-3.5H167.8z M170.9,135.9
		v-16.2h11.5v16.2H170.9z M173.4,122.1v2h6.6v-2H173.4z M173.4,126.4v2.3h6.6v-2.3H173.4z M180,131.1h-6.6v2.5h6.6V131.1z M183,99.4
		c1,0,1.5-1.2,1.6-3.5l2.2,1.1c-0.4,2.1-0.9,3.4-1.4,3.9c-0.5,0.5-1.3,0.7-2.3,0.7h-6c-0.7,0-1.2-0.2-1.7-0.6
		c-0.5-0.4-0.7-1.3-0.7-2.6v-24h2.4v24.3c0,0.5,0.3,0.8,0.8,0.8H183L183,99.4z M183.6,145.1c-1.2-2.6-2.9-4.6-4.9-5.8l2-1.4
		c2.2,1.2,3.9,3.2,5.1,5.8L183.6,145.1L183.6,145.1z M199.9,229.4l0,14.3h-2.5v-2.1h-5.3v2.6h-2.5V222h2.9c0.8-1.5,1.5-3.4,2-5.6
		l2.3,0.9c-0.6,2.3-1.2,3.8-1.7,4.7h4.9l0,6.5c2.3-3.4,3.9-7.5,4.8-12.4l2.5,0.6c-0.4,1.5-0.8,3.1-1.4,4.8h8.6l-0.2,8
		c-0.1,2.7-0.3,5.1-0.6,7.4c-0.3,2.2-0.7,3.8-1.1,4.9c-0.7,1.8-1.7,2.8-3.2,2.8c-0.9,0-2.6-0.3-5.1-1l-0.4-2.7
		c2.4,0.9,4.1,1.4,5,1.4c0.7,0,1.2-0.9,1.7-2.7c0.4-1.4,0.7-3.4,0.9-5.8c0.2-2.5,0.4-5.8,0.5-10.1h-6.8c-0.8,2.3-2.1,4.5-3.7,6.7
		L199.9,229.4z M215.1,133.9h-25.4v-2.5h25.4V133.9z M197.4,230.5v-6.2h-5.3v6.2H197.4z M192.1,232.9v6.4h5.3v-6.4H192.1z
		 M196.4,98.3c0,2.1-0.9,3.6-2.8,4.5l-0.9-1.2c1.3-0.6,1.9-1.6,1.9-3.2h-1.7v-3.5h3.5V98.3z M199.6,198V180
		c-1.4,1.3-3.2,2.5-5.6,3.4v-2.7c3.2-1.5,5.4-3.4,6.6-5.8h1.8v23H199.6z M207.9,237.1c-0.9-2.5-2.4-5-4.3-7.5l2-1.3
		c2.2,2.5,3.7,5.1,4.7,7.8L207.9,237.1L207.9,237.1z M209.6,192.6l2.7-0.2c0.4,2.4,1.7,3.6,3.8,3.6c1.8,0,3.1-0.8,4-2.5
		c0.9-1.7,1.3-3.6,1.3-5.8v-0.6h-0.1c-0.6,0.9-1.3,1.7-2.3,2.2c-1,0.5-2,0.8-3.1,0.8c-2,0-3.6-0.7-4.9-2.1c-1.3-1.4-1.9-3.2-1.9-5.4
		c0-2.3,0.7-4.1,2-5.6c1.3-1.5,3.1-2.2,5.2-2.2c2.1,0,4,0.8,5.5,2.5c1.5,1.6,2.3,4.5,2.3,8.6c0,4.3-0.7,7.5-2.2,9.4
		c-1.5,1.9-3.5,2.9-6,2.9c-1.8,0-3.3-0.5-4.4-1.5C210.5,195.9,209.8,194.5,209.6,192.6z M216.4,177.3c-1.3,0-2.3,0.5-3.1,1.5
		c-0.8,1-1.2,2.3-1.2,3.8c0,1.5,0.4,2.8,1.2,3.7c0.8,0.9,1.9,1.4,3.2,1.4c1.3,0,2.4-0.5,3.3-1.4c0.9-0.9,1.3-2.1,1.3-3.5
		c0-1.5-0.5-2.8-1.4-3.9C218.8,177.8,217.7,177.3,216.4,177.3z M219.6,87.6V74.7h18.9v11c0.2,6.2,1.3,10.6,3.1,13.2l0.5-2.7l2.2,1.3
		l-0.4,1.8c-0.5,1.6-1.2,2.3-2.1,2.3c-0.4,0-0.9-0.2-1.4-0.5c-0.5-0.3-1-1-1.7-2.2c-0.7-1.1-1.2-2.5-1.6-4.1
		c-0.4-1.6-0.7-3.3-0.8-5.2c-0.1-1.9-0.2-3.5-0.2-4.7l0-8h-14v11.2c0,2.7-0.5,5.3-1.4,7.8c-0.9,2.5-2.1,4.5-3.6,6l-2-1.7
		c1.7-1.6,2.9-3.6,3.6-6.1C219.3,91.8,219.6,89.6,219.6,87.6z M238.3,227.5c1-0.6,2.2-2.2,3.7-4.6l1.9,1.3c-1.1,2-2.4,3.7-4,5.1
		c1.3,1.1,2.5,1.8,3.6,2c0.2,0,0.5-0.4,0.7-1.1c0.2-0.8,0.4-1.7,0.5-2.9l2.2,1c-0.5,3.6-1.6,5.3-3.3,5.3c-1.6,0-3.5-1-5.7-2.9
		c-1.6,1-3.1,1.7-4.4,2.2l-1.5-2c1.8-0.7,3.2-1.4,4.2-2c-1.2-1.4-2.1-3.6-2.8-6.5h-9.3v2.4h8.5c-0.3,3.6-0.7,5.8-1.3,6.7
		c-0.6,0.9-1.3,1.3-2.2,1.3c-0.8,0-2-0.2-3.6-0.6l-0.4-2.5c2.1,0.6,3.2,0.9,3.6,0.9c0.4,0,0.7-0.3,0.8-0.9c0.1-0.6,0.3-1.5,0.5-2.6
		h-5.7c-0.1,2.9-1.1,5.5-3,7.8l-2.3-1.6c1.8-1.6,2.7-4,2.7-7.1V220h11.4l-0.4-3.4l2.4-0.3c0,0.9,0.1,2.2,0.4,3.7h5.5
		c-0.9-0.8-2.4-1.3-4.7-1.7l1.6-1.8c2.2,0.3,4.1,1.2,5.5,2.5l-0.8,0.9h3.1v2.3H236C236.5,224.3,237.2,226,238.3,227.5L238.3,227.5z
		 M244.7,241.4h3v2.3h-28.7v-2.3h3.1v-6.8h22.6V241.4z M246.2,133.9h-25.4v-2.5h25.4V133.9z M231.4,88.4c2.4,3.3,4,6.1,4.7,8.6
		l-2.2,1.2c-1-2.8-2.3-5.4-4-7.7c-2.2,3.1-4.4,5.6-6.6,7.7l-2-1.8c1.8-1.4,4.2-4,7.1-7.9c-1.3-1.8-3.3-4-6-6.6l1.6-1.5
		c2.2,2,4.1,3.9,5.6,5.8c1.1-1.7,2.3-3.9,3.4-6.6l2,1.1C233.9,84.2,232.6,86.7,231.4,88.4L231.4,88.4z M224.6,236.9v4.5h4.3v-4.5
		H224.6z M235.6,236.9h-4.3v4.5h4.3V236.9z M232.6,199v-24.9h17.6v24.8h-2.5v-3.1h-12.6v3.2H232.6z M247.7,176.4h-12.6v7.2h12.6
		V176.4z M235.1,193.4h12.6v-7.5h-12.6V193.4z M242.3,241.4v-4.5h-4.2v4.5H242.3z M262.7,118.3c1.4,0.8,2.6,2,3.7,3.5h11.6v2.3h-6.5
		c-1.7,2.1-3.4,3.7-5.1,4.8c2.4,1.6,6.7,3.1,12.6,4.5l-1.6,1.9c-5.8-1.5-10.2-3.2-13-5c-4.6,2.3-8.9,4-13.2,4.9l-1.6-2.2
		c5.4-1.2,9.6-2.6,12.6-4.2c-2-1.6-3.5-3.2-4.7-4.7h-6.7v-2.3h12.8c-0.4-0.6-1.4-1.3-2.9-2.2L262.7,118.3L262.7,118.3z M255.6,82.2
		c-0.9-2-2.7-4.1-5.2-6.2l2-1.4c2.5,2,4.3,4.2,5.3,6.5L255.6,82.2L255.6,82.2z M263.3,82.4h10.2v16.5c-0.1,1.2-0.8,2.1-1.8,2.5
		c-0.6,0.2-1.3,0.2-2.3,0.2c-1,0-1.6,0-1.9,0l-0.7-2.4l2.9,0.1c1,0,1.5-0.3,1.5-1V84.7h-18v17.5l-2.4-0.1V82.4h10.1v-9.2h2.5V82.4z
		 M259.2,133.2h2.4c0,2.7-0.2,4.9-0.5,6.5c-0.7,3.3-3.4,5.7-8.1,7.3l-1.7-2c2.6-0.7,4.6-1.9,6.1-3.6c0.8-0.9,1.3-1.8,1.5-2.7
		C259.1,137.7,259.2,135.8,259.2,133.2z M261.3,237.2c-1.8,2.7-4.5,5-8.1,7l-1.8-2.2c6.2-3,10-8.1,11.3-15.3H253v-2.4h10
		c0.2-2,0.3-4.7,0.2-8.1l2.6,0.4l0,2.5c0,2-0.1,3.7-0.2,5.2h11.5v2.4h-9.4c0.7,3.9,1.9,7,3.6,9.4c1.7,2.4,4.1,4.5,7.2,6.3l-1.7,1.9
		c-3.6-2.1-6.2-4.5-7.9-7.2c-1.7-2.7-2.9-6.2-3.6-10.4C264.5,231,263.2,234.5,261.3,237.2L261.3,237.2z M267.6,87.5l0,8.6h-10.9
		v-8.6H267.6z M259.1,89.9v4h6v-4H259.1z M264.1,196.3c0,2.1-0.9,3.6-2.8,4.5l-0.9-1.2c1.3-0.6,1.9-1.6,1.9-3.2h-1.7v-3.5h3.5V196.3
		z M264.4,127.6c1.2-0.6,2.6-1.7,4.1-3.5h-8C261.4,125.2,262.7,126.3,264.4,127.6L264.4,127.6z M266,80.6c2-1.5,3.8-3.7,5.3-6.6
		l2.1,1.5c-1.7,3-3.5,5.2-5.5,6.7L266,80.6L266,80.6z M268.2,133.3h2.4v13.8h-2.4V133.3z M301,100.4h-13.8v1.8h-2.4V82.7h7.5
		c0.5-0.9,0.8-1.8,1-2.8h-12.4v-2.3h7.7c-0.9-1.3-2-2.4-3.4-3.2l2.6-1.4c1.8,1.6,2.9,3.1,3.6,4.6h5.4c1.5-1.8,2.5-3.3,3.1-4.5
		l2.3,1.1c-0.8,1.5-1.5,2.6-2.3,3.4h7.6v2.3h-11.6c-0.3,1.4-0.6,2.3-0.8,2.8h8.5v19.4L301,102V100.4z M294,140.2
		c-3.1,3-7,5-11.6,6.1l-1.3-2.2c4.5-0.9,8.3-2.8,11.5-5.7L294,140.2L294,140.2z M296.4,122.5v-0.7h-1.2v6l2.1-0.6v2.2l-2.1,0.6v2.5
		h-2.4v-2l-10.1,2.3l-1.2-2.4c1.2-0.1,2.4-0.2,3.4-0.4v-8.3h-3.1v-2.2h14.8v0.7h10.7v1.9c-0.5,1.1-1.4,2.7-2.8,4.5
		c1.5,1.2,2.8,2.4,3.9,3.8l-1.8,1.9c-1.4-1.8-2.6-3.1-3.7-3.9c-1.8,1.8-3.7,3.2-6,4l-1.4-1.8c2-0.7,3.8-1.9,5.5-3.5
		c-1.3-0.9-2.8-1.7-4.7-2.5l1.5-1.6c2.2,0.9,3.7,1.7,4.7,2.4c0.6-0.6,1.2-1.5,1.9-2.8H296.4z M294.6,135.4c-0.4,0-1.4,0.1-3,0.3
		l1,1.2c-2.4,2.1-5.6,3.7-9.6,4.8l-1.5-2.3c3.3-0.7,6.3-1.9,9-3.7c-1.5,0.1-3.4,0.2-5.5,0.2l-1.2-2.5c8.6,0,15-0.8,19.2-2.3l1.4,1.9
		c-1.4,0.6-2.9,1.2-4.7,1.6c0.4,0.9,0.8,1.7,1.4,2.4c1.8-1.1,3.3-2.3,4.5-3.6l1.6,1.8c-1.4,1.4-3,2.5-4.8,3.5
		c1.9,2.2,4.5,4.2,7.8,5.8l-1.9,1.8c-5.5-3-9.1-6.8-10.7-11.4l-0.5,0.1v11.8h-2.4V135.4L294.6,135.4z M296.1,221.3
		c-0.4-0.9-1.7-2.2-3.9-3.7l1.8-1.6c2.4,1.8,3.9,3.2,4.8,4.4l-1,0.8h9.4v10.2h-2.4v-1.3h-16.3c0.1,3.9-0.3,6.9-1,9.1
		c-0.7,2.1-1.9,4.1-3.5,5.8l-2.2-1.7c2.8-2.4,4.2-5.9,4.2-10.4v-11.7H296.1L296.1,221.3z M301,87.7v-2.6h-13.8v2.6H301z M287.2,90
		v2.7H301L301,90H287.2z M301,98v-2.9h-13.8V98H301z M292.8,121.8h-5.5v0.8h5.5V121.8z M287.3,125.7h5.5v-1h-5.5V125.7z
		 M287.3,129.6l5.5-1.2v-0.6h-5.5V129.6z M288.3,223.6v4.3h16.3v-4.3H288.3z M302.4,177.4h-4v3.2H296v-3.2h-6v-2.2h6V172h2.3v3.2h4
		v-3.8h2.3v3.8h4.1V172h2.3v3.2h6.1v2.2h-6.1v3.2h-2.3v-3.2h-4.1v3.3h-2.3V177.4z M292.9,187.8h-2.4v-6.5h26v6.5h-2.3v-4.3h-21.3
		V187.8z M296.9,197.4h-2.3v-11.1h7.6v-2.3h2.4v2.3h7.8v8.6c0.1,1.4-1.1,2.2-3.3,2.2c-0.1,0-0.7,0-1.8,0l-0.6-2.3
		c1.5,0.1,2.5,0.2,2.9,0.2c0.4,0,0.5-0.1,0.5-0.4v-6h-5.5v11.3l-2.4,0v-11.3h-5.3V197.4z M322.2,81.3c0.5-1.8,0.9-4.3,1.2-7.8
		l2.3,0.6c-0.5,3.5-0.8,5.8-1.1,7.2h13.8v2.3h-14.3l-0.8,2.5h11v2c-1.2,2.8-2.7,5.2-4.5,7.2c2.5,2.1,5.8,3.6,10,4.6l-1.7,2
		c-2.1-0.5-3.7-1.1-4.9-1.7c-1.1-0.6-2.8-1.7-4.9-3.3c-2.5,2.5-5.9,4.1-10.1,4.9l-1.4-2c4.4-0.9,7.7-2.4,9.8-4.5
		c-1.6-1.8-3.1-3.9-4.3-6.3c-1.5,4.5-4.7,8.5-9.6,12l-1.8-2c5.6-3.6,9.2-8.7,10.8-15.5h-7.3v-2.1l2.9-7.3l2.2,1.1l-2.4,6H322.2
		L322.2,81.3z M322.5,216.5c-0.1,1.8-0.3,3.5-0.7,5.1h7.8c-0.9,10.6-5.9,18.4-14.8,23.5l-1.8-1.9c4.1-2.4,7.2-5.2,9.4-8.3
		c-1-1.1-2.5-2.2-4.5-3.4l1.9-1.9c1.8,1.2,3.1,2.3,4,3.3c1.4-2.4,2.4-5.4,3-8.9H321c-1.4,3.1-3.1,5.7-5.1,7.9l-2.3-1.2
		c4.3-4.7,6.4-9.5,6.3-14.6L322.5,216.5L322.5,216.5z M314.2,143.9v-2.4h26v2.4H314.2z M338.4,124.7H316v-2.5h22.4V124.7z
		 M317.8,133.9v-2.4h18.7v2.4H317.8z M322.4,197.6v-2.3h10.5v-23.4h2.4v9.3h11v2.3h-11v11.8h13.8v2.3H322.4z M328.1,93.6
		c1.5-1.6,2.6-3.4,3.4-5.2h-7C325.8,90.8,327,92.6,328.1,93.6L328.1,93.6z M332.4,80.6c-1-1.7-2.7-3.3-5.1-4.6l1.7-1.6
		c2.2,1.2,4,2.7,5.4,4.6L332.4,80.6L332.4,80.6z M333.5,225.7l1.3-0.8c1.2,0.8,2.6,2.1,4.1,3.9c1.5,1.8,2.5,3.4,3,4.8l-2.2,1.5
		c-1.4-3.2-3.5-5.9-6.2-8.2V245H331v-28.7h2.4V225.7z M359.4,134v3.1h11.1v2.3h-11.1v3.5h13.3v2.4h-28.6v-2.4H357v-3.5h-10.7v-2.3
		H357V134h-9.4v-14.5h21.1V134H359.4z M349,98.3c0,2.1-0.9,3.6-2.8,4.5l-0.9-1.2c1.3-0.6,1.9-1.6,1.9-3.2h-1.7v-3.5h3.5V98.3z
		 M345.6,242.5v-21.1h9v21.1h-2.4v-2.4H348v2.4H345.6z M348,223.7v5.9h4.2v-5.9H348z M348,231.9v5.9h4.2v-5.9H348z M350.1,125.4h6.9
		v-3.6h-6.9V125.4z M357,131.7v-3.9h-6.9v3.9H357z M356.5,183.7c-0.7,1.2-1.6,2.3-2.6,3.2l-2.4-1.2c3.4-2.8,6.1-7.6,8-14.4l2.4,0.9
		c-0.3,1.2-0.9,2.9-1.6,4.8l-1.1,2.9v20.4h-2.5L356.5,183.7L356.5,183.7z M368.6,225.6v17c-0.2,1.5-0.8,2.2-2,2.3h-2.9l-0.9-2.6
		l2.9,0.2c0.3,0,0.5-0.2,0.5-0.6v-16.5h-10v-2.3h10v-6.8h2.4v6.8h3.4v2.3H368.6z M361.8,236.5c-1-2.7-2.7-5.1-5.1-7.1l1.9-1.3
		c2.4,2.1,4.1,4.4,5.2,7.1L361.8,236.5L361.8,236.5z M359.4,125.4h6.8v-3.6h-6.8V125.4z M359.4,127.8v3.9h6.8v-3.9H359.4z
		 M369.7,179.1h-3.8c-0.9,2.2-2.1,4.3-3.8,6.3l-2.5-0.9c3.1-3.7,5-8.1,5.7-13.1l2.5,0.5c-0.1,1.2-0.5,2.8-1,4.8h13.7
		c-0.4,2.4-1.2,4.8-2.3,7.2L376,183c0.2-0.4,0.7-1.7,1.4-3.9h-5.1v17.7c0.1,2.3-1.1,3.4-3.4,3.3l-1.7,0c-0.3,0-0.6,0-0.8,0l-0.9-2.6
		l3.4,0.1c0.5-0.1,0.8-0.3,0.8-0.8V179.1z M368.2,185.2c-1.4,4.3-3.5,7.4-6.3,9.4l-2-1.6c2.9-2.1,4.9-5.1,6.1-8.8L368.2,185.2
		L368.2,185.2z M375.9,100L367,77.1h3.3l6,16.6c0.6,1.4,1,2.7,1.2,3.7h0.1c0.4-1.4,0.8-2.6,1.2-3.7l6.2-16.6h3.1l-9,22.9H375.9z
		 M379.1,195.1c-1.5-4.3-3.4-7.4-5.6-9.3l2.1-1.3c2.6,2.4,4.5,5.5,5.8,9.3L379.1,195.1L379.1,195.1z M390.5,142.5
		c0,0.7,0.3,1.1,0.9,1.1h7.4c1.3,0,2-1.4,2.1-4.2l2.5,0.8c-0.7,2.6-1.4,4.3-1.9,4.8c-0.6,0.6-1.3,0.9-2.1,0.9h-8.6
		c-1.8,0-2.7-1-2.7-3.1v-5.7h-7v2.2h-2.4v-11.8h2.4v7.3h7v-9.9h-11.8v-2.3h11.8v-4.4h2.4v4.4h11.7v2.3h-11.7v9.9h7.1v-7.3h2.4v11.8
		h-2.4v-2.2h-7.1V142.5L390.5,142.5z M383.1,225.2c-0.9-2-2.7-4.1-5.2-6.2l2-1.4c2.5,2,4.3,4.2,5.3,6.5L383.1,225.2L383.1,225.2z
		 M390.8,225.4H401v16.5c-0.1,1.2-0.8,2.1-1.8,2.5c-0.6,0.2-1.3,0.2-2.3,0.2c-1,0-1.6,0-1.9,0l-0.7-2.4l2.9,0.1c1,0,1.5-0.3,1.5-1
		v-13.6h-18v17.5l-2.4-0.1v-19.7h10.1v-9.2h2.5V225.4z M395,230.5l0,8.6h-10.9v-8.6H395z M396,184.4l0,14.3h-2.5v-2.1h-5.3v2.6h-2.5
		V177h2.9c0.8-1.5,1.5-3.4,2-5.6l2.3,0.9c-0.6,2.3-1.2,3.8-1.7,4.7h4.9l0,6.5c2.3-3.4,3.9-7.5,4.8-12.4l2.5,0.6
		c-0.4,1.5-0.8,3.1-1.4,4.8h8.6l-0.2,8c-0.1,2.7-0.3,5.1-0.6,7.4c-0.3,2.2-0.7,3.8-1.1,4.9c-0.7,1.8-1.7,2.8-3.2,2.8
		c-0.9,0-2.6-0.3-5.1-1l-0.4-2.7c2.4,0.9,4.1,1.4,5,1.4c0.7,0,1.2-0.9,1.7-2.7c0.4-1.4,0.7-3.4,0.9-5.8c0.2-2.5,0.4-5.8,0.5-10.1
		h-6.8c-0.8,2.3-2.1,4.5-3.7,6.7L396,184.4z M386.6,232.9v4h6v-4H386.6z M393.4,185.5v-6.2h-5.3v6.2H393.4z M388.1,187.9v6.4h5.3
		v-6.4H388.1z M390.9,100V77.1h3V100H390.9z M393.5,223.6c2-1.5,3.8-3.7,5.3-6.6l2.1,1.5c-1.7,3-3.5,5.2-5.5,6.7L393.5,223.6
		L393.5,223.6z M399.2,100V77.1h8.6c1.8,0,3.1,0.1,4,0.3c0.9,0.2,1.7,0.6,2.4,1.1c0.7,0.5,1.3,1.3,1.7,2.2c0.4,0.9,0.6,2,0.6,3.1
		c0,1.9-0.6,3.5-1.9,4.9c-1.2,1.4-3.5,2.1-6.7,2.1h-5.9v9.3H399.2z M403.9,192.1c-0.9-2.5-2.4-5-4.3-7.5l2-1.3
		c2.2,2.5,3.7,5.1,4.7,7.8L403.9,192.1L403.9,192.1z M402.2,88h5.9c3.6,0,5.4-1.4,5.4-4.2c0-0.8-0.2-1.5-0.6-2.3
		c-0.4-0.7-0.9-1.2-1.5-1.4c-0.6-0.2-1.8-0.3-3.4-0.3h-5.9V88z M411.5,230c-1.4-2.2-3.1-3.8-5.2-4.5l1.6-1.8c2,0.8,3.8,2.4,5.4,4.7
		L411.5,230L411.5,230z M406.3,243.4c2.7-3.1,4.2-7.3,4.6-12.4l2.3,1.1c-0.5,4.9-2,9.1-4.6,12.5L406.3,243.4L406.3,243.4z
		 M421.3,128.9l-0.7,0c-1.5,7.6-5.3,13.5-11.4,17.6l-1.8-1.9c5.6-3.7,9.1-8.9,10.6-15.7h-9.2v-2.4h9.6c0.3-2.2,0.5-4.9,0.4-8.2
		l2.5,0.5c0,3.1-0.1,5.6-0.3,7.7h12.5v2.4h-9.6c0.6,3.4,1.9,6.6,4,9.4c2.1,2.8,4.4,4.9,7.1,6.2l-1.7,2c-3.2-1.6-5.9-4.1-8-7.5
		C422.9,135.6,421.7,132.2,421.3,128.9z M413.2,223.5c-1.1-2.1-2.8-3.7-5.2-4.6l1.7-1.7c2.1,1,3.8,2.5,5.2,4.6L413.2,223.5
		L413.2,223.5z M433.6,218.2c-4.1,2-9.3,3.3-15.7,3.7v10c-0.1,4.3-0.5,7.4-1.3,9.2s-1.6,3.2-2.7,4.2l-2.2-1.4c1.1-1,2-2.6,2.7-4.5
		c0.7-2,1-5.2,1-9.5v-10.1c7.1-0.3,12.5-1.5,16.4-3.4L433.6,218.2L433.6,218.2z M427.6,186.8h-2.4v-3.3c-0.7,1.2-1.7,2.2-3,3
		l-1.7-1.9c2.3-1.1,3.8-2.6,4.5-4.6h-4.4v-2.2h4.5v-2H420v16.2c0.1,3.3-0.9,6-3,8.1l-2-1.7c1.8-2,2.6-4.7,2.6-7.9l0-2.7v-14.3h11.7
		c-0.7-0.7-1.5-1.1-2.3-1.4l1.8-1.4c1.5,0.7,2.6,1.6,3.2,2.8h11.6v2.3h-5.4v2h4.5v2.2h-4.3c0.7,1.8,2.6,3.4,5.6,4.6l-1.6,1.9
		c-1.6-0.8-3-1.8-4.1-2.9v2.7h-2.3v-2.6c-1.3,1.5-2.5,2.5-3.4,2.9l-1.7-1.7c2.8-1.4,4.4-3,4.9-4.9h-3.8v-2.2h4v-2h-8.3v2h3.6v2.2
		h-3.6v1.4l1-0.8c1.2,0.6,2.2,1.5,3,2.8l-1.9,1.5c-0.6-1.3-1.3-2.2-2.1-2.7V186.8z M419.5,136.5c2.1,1.1,3.9,3,5.4,5.5l-1.9,1.5
		c-1.5-2.7-3.4-4.5-5.5-5.4L419.5,136.5L419.5,136.5z M427.7,101.9h-2.4V90.4c-1.5,1.5-3.1,2.6-5,3.4l-1.5-2.1
		c4.3-1.8,7.2-5.1,8.9-9.9h-7.9v-2.3h10.9c-0.6,3.3-1.6,5.9-3,7.9V101.9z M425.4,226.1l-2.7,0.3v14.7l4.2-1.8v2.5l-6.4,2.8l-1.6-1.7
		c0.6-0.2,1-0.5,1.1-0.8c0.2-0.3,0.2-0.8,0.2-1.5v-16.4c4.5-0.2,8.4-1.1,11.7-2.8l1.6,1.7c-1.6,0.9-3.5,1.7-5.8,2.4
		c-0.1,2.8,0.1,4.9,0.4,6.4c1.1-0.4,2.6-1.7,4.4-3.8l1.4,1.8c-1.6,1.9-3.4,3.3-5.3,4.3c0.7,3.6,3,6.5,6.9,8.8l-2.2,1.7
		c-3.2-2.2-5.3-4.6-6.4-7.4C426,234.6,425.4,230.9,425.4,226.1z M443.8,193.6v2.2H433v1.4c-0.1,1.6-1.1,2.5-2.9,2.7h-2.4l-0.7-2.2
		c1.1,0.1,1.9,0.1,2.4,0.1c0.8,0,1.2-0.2,1.2-0.7v-1.3h-9.9v-2.2h9.9v-1.2h-8.2v-2.2h8.2v-0.7c-4.3,0.1-7.2,0.1-8.8,0.1l-1.2-2.2
		l7.9,0.1c4.8,0,8.6-0.4,11.6-1.2l1.5,1.8c-3,0.8-5.9,1.2-8.6,1.3v0.9h7.9v2.2H433v1.2H443.8z M426.6,79.3c-1.1-1.8-2.5-3.3-4.2-4.3
		l1.7-1.6c1.9,1.2,3.4,2.7,4.5,4.4L426.6,79.3L426.6,79.3z M431.6,93.7c-0.9-1.8-2.1-3.4-3.5-4.7l1.7-1.5c1.1,0.9,2.4,2.4,3.9,4.6
		L431.6,93.7L431.6,93.7z M443.9,99.4c1,0,1.5-1.2,1.6-3.5l2.2,1.1c-0.4,2.1-0.9,3.4-1.4,3.9c-0.5,0.5-1.3,0.7-2.3,0.7h-6
		c-0.7,0-1.2-0.2-1.7-0.6c-0.5-0.4-0.7-1.3-0.7-2.6v-24h2.4v24.3c0,0.5,0.3,0.8,0.8,0.8H443.9L443.9,99.4z M437.7,222.4v-2.2h12.5
		c-0.1,4.2-1,8.4-2.7,12.6c1.8,2.7,3.2,5.5,4.2,8.3l-2.4,1.1c-0.9-3-1.9-5.3-3-6.9c-1.6,3.9-4.3,7.2-7.9,9.6l-1.9-1.9
		c3.8-2.4,6.5-5.8,8.3-10c-1.7-2.4-3.7-4.5-5.9-6.4l1.8-1.4c2.7,2.4,4.4,4.1,5.1,5.2c1.1-3,1.7-5.7,1.9-8.1H437.7z M461.4,133.7
		v13.5h-2.4v-2.1h-13.9v2.1h-2.4v-13.5h8v-6.6h-12.1v-2.3h12.1v-6.2h2.4v6.2H465v2.3h-11.9v6.6H461.4z M458.9,136h-13.9v6.7h13.9
		V136z M465.6,180c-1.5-1.9-2.8-4.5-3.9-7.9l2-1c0.7,2,1.4,3.5,2,4.6c0.9-0.8,1.9-1.9,2.9-3.4l1.9,1.4c-1.2,1.8-2.4,3.1-3.6,4
		c0.7,0.9,1.1,1.4,1.2,1.4c1.1-0.8,2.3-2.1,3.6-3.9l1.8,1.4c-1.5,2.1-2.8,3.5-3.8,4.2c1.6,1.6,3.7,3,6.2,4.2l-1.5,2
		c-3.5-1.8-6.2-3.9-7.9-6.2l0,1.4h-9.7l0-1c-1.9,2-4.5,3.9-7.9,5.5l-1.7-1.9c2.4-1.1,4.4-2.3,6-3.6c-0.4-0.7-1.5-1.7-3.4-3l1.6-1.6
		c1.1,0.6,2.3,1.7,3.5,3.1c1.3-1.3,2.3-2.8,2.8-4.4h-8.3v-2.3h11.3c-0.1,2.6-1.1,4.9-2.8,7H465.6L465.6,180z M469.5,184.7v7.6h-12.1
		c1.1,1.1,2,2.4,2.7,3.7h2.7c1.1-0.9,2-2.1,2.8-3.6l2.1,1.2c-0.8,1.4-1.3,2.2-1.7,2.5h8.7v2.3h-26.1V196h9.1
		c-0.3-0.6-1.2-1.5-2.6-2.7l1.9-1h-3.2v-7.6H469.5z M462.1,224.9v17.9c-0.1,0.7-0.5,1.2-1,1.6c-0.5,0.4-0.9,0.6-1.2,0.6h-3.5
		l-0.8-2.4l3.2,0.2c0.5,0,0.8-0.1,0.9-0.4v-17.4h-8.9v-2.3h8.9v-6.1h2.4v6.1h3v2.3H462.1z M476.6,85.9h-6.2v1.9h7.6v8.1
		c-0.1,1.4-0.8,2.2-2.1,2.2h-3l-0.9-2.3h2.9c0.4,0,0.6-0.2,0.6-0.7v-4.9h-5.2v2.5l1.4-0.2l-0.5-1l1.9-0.9c0.9,1.4,1.6,2.8,2,4.1
		l-1.9,0.9l-0.7-1.3c-3.9,0.7-6.4,1.2-7.6,1.4l-1.1-2.2l4-0.5v-2.8h-4.6v7.7l-1.8,0.1c1.5,0.6,4.5,0.9,9,0.9
		c2.3-0.1,5.6-0.2,9.9-0.4l-1,2.6H466c-2,0-3.6-0.2-5-0.6c-1.4-0.4-2.6-1.3-3.8-2.7l-4.5,4l-1.8-1.9l5.1-4.2v-9.9h-3.8v-2.2h6.2
		v12.1c0.8,0.8,1.7,1.5,2.6,2v-9.7h7v-1.9h-6.1V75h14.7V85.9z M453.1,228.2c2.1,2.1,3.8,4.5,5,7.5l-2.3,1.4c-1.1-3-2.6-5.5-4.5-7.6
		L453.1,228.2L453.1,228.2z M456.3,80.9c-1.1-2.3-2.5-4.2-4.2-5.7l1.8-1.3c1.8,1.4,3.3,3.3,4.5,5.7L456.3,80.9L456.3,80.9z
		 M467.1,190v-2.9h-11v2.9H467.1z M464.3,77.3v2h3.6v-2H464.3z M464.3,81.7v1.9h3.6v-1.9H464.3z M484.2,134v3.1h11.1v2.3h-11.1v3.5
		h13.3v2.4h-28.6v-2.4h12.9v-3.5H471v-2.3h10.7V134h-9.4v-14.5h21.1V134H484.2z M484,222.8h10.2v2.1c-1.2,2.7-3.3,5.4-6.3,8.1
		c-3,2.7-6.2,4.8-9.6,6.3c1.2,1,3.2,1.4,5.9,1.4l13.4-0.1l-1.2,2.4h-13c-1.3,0-2.8-0.3-4.3-0.8c-1.5-0.5-2.7-1.2-3.6-2.1
		c-0.9,1.6-2.1,3.2-3.6,4.8l-2-1.7c2.5-2.1,4.1-4.9,4.8-8.6l2.3,0.6c0,0.8-0.2,1.6-0.5,2.3c4.3-2.5,7.5-4.6,9.5-6.4
		c2-1.8,3.7-3.8,5.1-6.1h-19v-2.3h11.4c-1.3-2.5-2.9-4.2-5.1-5.2l2.2-1.4c2,1,3.7,2.8,5.2,5.4L484,222.8z M474.2,77.3h-3.8v2h3.8
		V77.3z M470.4,81.7v1.9h3.8v-1.9H470.4z M474.9,125.4h6.9v-3.6h-6.9V125.4z M481.7,131.7v-3.9h-6.9v3.9H481.7z M491.6,185.2
		c-1.4,0.6-2.7,1-3.8,1.2l-1.6-2.3c2.6-0.1,4.9-0.8,6.8-2.2c1.9-1.4,2.8-3.2,2.8-5.5h-2.8c-1,1.8-2,3.1-3,4l-2.3-1.1
		c2.6-2.6,4.2-5.3,4.8-8.1l2.1,0.7c-0.1,0.4-0.3,1.1-0.6,2.2h11.7c-0.1,2-0.8,4.3-2.1,6.8l-2.4-0.7c0.8-1.2,1.3-2.4,1.7-3.8h-4.7
		c-0.1,1.7-0.3,2.8-0.6,3.4c2.6,3.1,5.7,4.6,9.3,4.6l-1.2,2.4c-3.5-0.3-6.6-1.9-9.2-4.9c-1,1.3-2.4,2.4-4,3.2l1.7,0.8
		c-1,1.3-1.7,2.1-1.9,2.3h14v2.3H500c-0.6,1.6-1.6,2.9-3,4c3.4,1,6.4,2.3,9,4l-1.5,1.9c-3.6-2.2-7-3.5-10-4.2
		c-3.5,2.1-8.3,3.3-14.1,3.8l-1.6-2.4c5.3-0.2,9.4-0.9,12.3-2.2c-1.5-0.4-3.9-0.8-7-1.2c1.3-1.4,2.4-2.7,3.2-3.7h-7.5V188h9.5
		L491.6,185.2z M479,184.9c2.5-1.3,4.8-3.5,6.8-6.7l1.9,1.2c-2,3.2-4.2,5.6-6.5,7L479,184.9L479,184.9z M485.8,177.8
		c-1.9-2.1-3.9-3.5-6-4l1.6-1.8c2.2,0.8,4.2,2.1,6,4.2L485.8,177.8L485.8,177.8z M484.2,125.4h6.8v-3.6h-6.8V125.4z M484.2,127.8
		v3.9h6.8v-3.9H484.2z M489.1,98.3c0,2.1-0.9,3.6-2.8,4.5l-0.9-1.2c1.3-0.6,1.9-1.6,1.9-3.2h-1.7v-3.5h3.5V98.3z M494.1,193.6
		c1.3-0.7,2.4-1.8,3.3-3.3h-7.1l-1.8,2.1C489.5,192.7,491.3,193.1,494.1,193.6L494.1,193.6z M500.5,142.4l8.6-1.8v-9.7h-7.9v-2.4
		h7.9v-8.6h2.4v25.3h-2.4v-2.1l-7,1.6L500.5,142.4z M505,234.3l-0.1,2.3h-2.5v-14.2h10.4v-5.9h2.6l-0.1,5.9h10.4v14h-2.5v-2.2h-7.8
		V245h-2.5v-10.8H505z M505,231.9h7.9v-7.2H505V231.9z M534.1,93.7h-8.4c2.1,3.2,5.9,5.1,11.5,5.8l-1.2,2.4
		c-6.8-1.2-11.1-4-12.8-8.2H523c-0.7,2-2.3,3.8-4.9,5.3s-5.4,2.5-8.5,2.9l-1.2-2.4c2.7-0.3,5.2-1,7.5-2c2.3-1.1,3.8-2.4,4.5-3.8
		h-8.6v-2.3h9.5c0.1-0.5,0.2-1.2,0.2-2.2l2.4,0.4c0,0.7-0.1,1.3-0.2,1.8h10.5V93.7z M522.5,181.4c2.3,1.3,4.1,2.8,5.2,4.4l-1.9,1.5
		c-1.3-1.9-2.8-3.3-4.5-4.2c-2.3,2.9-5.7,5-10.2,6.4l-1.7-2.3c4-1.2,6.8-2.5,8.5-4c1.6-1.4,2.8-3.2,3.4-5.2h-11.1v-2.2H522
		c0.1-0.4,0.3-1.7,0.5-3.8l2.3,0.3c0,1.3-0.2,2.5-0.4,3.5h13.1v2.2h-10.6c2.1,3.9,5.9,7,11.3,9.5l-1.5,2.1
		c-6.1-3-10.2-6.9-12.3-11.6h-0.5C523.5,179.4,523,180.5,522.5,181.4L522.5,181.4z M517.3,191c-1.1,2.5-3,4.8-5.8,6.8l-1.9-1.8
		c2.6-1.9,4.5-4,5.9-6.3L517.3,191L517.3,191z M517.8,76.9c-0.3-0.5-1.5-1.3-3.5-2.5l2.1-1.5c1.6,0.7,3.1,2,4.4,4h3.8
		c1.6-1.1,3-2.4,4-3.9l2.1,1.6c-0.8,1.1-1.6,1.9-2.4,2.3l6.4,0v2.3h-10.5v2.3h8.4v2.3h-8.4v2.7h11.6v2.3h-25.7v-2.3h11.5v-2.7h-8.3
		v-2.3h8.3v-2.3h-10.5v-2.3H517.8L517.8,76.9z M515.4,231.9h7.8v-7.2h-7.8V231.9z M519.7,142.9h3c0.5,0,0.9-0.4,1.2-1.2
		c0.3-0.8,0.7-2.2,1-4.1l2.5,0.8c-0.4,2.5-0.9,4.3-1.5,5.4c-0.6,1.1-1.5,1.6-2.8,1.6H519c-2,0-3-1-3-3.1v-22.3h2.4v9.9
		c2.7-0.8,5-2,6.8-3.9l2,1.5c-2.1,2.2-5,3.8-8.8,4.8v8.9c0,0.5,0.1,0.9,0.4,1.2C519,142.8,519.3,142.9,519.7,142.9z M529,197
		c0.5-0.1,0.8-0.6,0.9-1.7l0.2-2l2.3,1c-0.5,2.6-0.9,4-1.4,4.5s-1,0.6-1.6,0.6h-9.2c-1.3-0.1-2.1-0.7-2.2-2v-8.9h2.4v7.7
		c0,0.7,0.3,1,1.1,0.9H529L529,197z M525.4,194.1c-0.8-2.2-2-4-3.9-5.5l2-1.4c2,1.7,3.3,3.5,4,5.4L525.4,194.1L525.4,194.1z
		 M536.5,198c-1.4-2.4-3.3-4.4-5.8-6.2l1.7-1.6c2.4,1.6,4.3,3.6,5.9,6L536.5,198L536.5,198z M540.1,220.2v18.3h-2.4v-2.1h-2.8v2.1
		h-2.4v-18.3H540.1z M533.5,147.3v-26.9h24.5v2.3H536v20.5h23.2v2.3H536v1.8H533.5z M534.9,234.1h2.8v-11.6h-2.8V234.1z
		 M547.7,130.5c1.7-2.3,3.1-4.6,4.4-6.9l2,1.1c-0.7,1.4-2.3,4-4.7,7.7c2.7,2.9,4.8,5.7,6.4,8.6l-2.1,1.4l-0.5-0.9
		c-1.3-2.2-3-4.6-5.2-7c-2,2.8-4.8,5.5-8.5,8.1l-1.9-2c3.7-2.3,6.6-4.9,8.8-8c-2.3-2.5-5.1-5-8.2-7.4l1.8-1.5
		C543.1,126.1,545.7,128.4,547.7,130.5L547.7,130.5z M545.6,87.3c-1.5-2.2-3.3-3.7-5.4-4.5l1.6-1.7c1.8,0.5,3.7,2,5.7,4.5
		L545.6,87.3L545.6,87.3z M540.2,100.1c3-3.8,4.7-7.5,5.1-11.4l2.1,0.9c-0.6,4.1-2.3,8-5.2,11.7L540.2,100.1L540.2,100.1z
		 M552.8,187.5c-0.5,0.2-1.7,0.6-3.6,1.3v9.2c-0.1,1.4-1.3,2.1-3.7,2.1l-2.1,0l-0.8-2.4c0.5,0.1,1.6,0.1,3.4,0.1
		c0.5,0,0.7-0.2,0.7-0.7v-7.4c-1.5,0.6-2.7,1-3.7,1.2l-1.5-2.1c1.9-0.4,3.7-0.9,5.2-1.5v-7.2h-4.2v-2.3h4.2v-5.9h2.4v5.9h3.7v2.3
		h-3.7v6.4l3.6-1.2V187.5L552.8,187.5z M546.8,80.3c-1.5-2-3.3-3.3-5.2-3.9l1.6-1.7c1.9,0.6,3.7,1.9,5.3,4L546.8,80.3L546.8,80.3z
		 M544.2,240.5c0,0.7,0.3,1.1,1,1.1h9.5c1.1,0,1.9-1.9,2.4-5.7l2.4,1.2c-0.5,2.1-1,3.7-1.4,4.6c-0.4,0.9-0.9,1.5-1.3,1.8
		c-0.5,0.2-1.2,0.4-2,0.4h-10.3c-1.7,0-2.5-0.9-2.5-2.6V218h15.5v16.1h-2.4v-1.7h-10.6V240.5L544.2,240.5z M544.2,230h4v-9.7h-4V230
		z M566.7,80.4V102h-2.4v-2.1h-12.6v2.1h-2.4V80.4h5.2v-3.3h-7v-2.3h21.5v2.3h-7.3v3.3H566.7z M562.4,193.7c1.9,1.8,4.7,3.2,8.2,4.1
		l-1.6,2.2c-2.5-0.7-5.3-2.3-8.5-4.8c-2.5,2.1-5.3,3.6-8.5,4.6l-1.6-2.1c3.7-1.2,6.5-2.6,8.4-4.3c-1.6-1.9-2.9-4.1-3.8-6.7h-1.7
		v-2.3h13.5C566.5,188,565.1,191,562.4,193.7L562.4,193.7z M563.3,175.3h-6c0,2.8-0.5,4.9-1.3,6.1c-0.8,1.3-2,2.4-3.5,3.3l-1.9-1.9
		c1.9-0.9,3.1-1.9,3.5-3c0.4-1.1,0.7-3.4,0.7-6.8h10.9v6.9c0,0.5,0.3,0.8,0.9,0.8h3.2v2.2h-3.9c-1.7-0.3-2.6-1.3-2.6-3V175.3z
		 M550.6,230h4.1v-9.7h-4.1V230z M559.2,82.8h-2.3c0.1,3.8-0.9,7-3.3,9.6l-1.9-1.5v1.9h12.6v-2.7h-2.1c-0.9-0.1-1.7-0.4-2.2-1.1
		c-0.5-0.7-0.8-1.3-0.8-1.8V82.8z M551.6,90.6c2-2.2,2.9-4.8,2.8-7.9h-2.8V90.6L551.6,90.6z M551.6,95.1v2.4h12.6v-2.4H551.6z
		 M556.8,77.1v3.3h2.3v-3.3H556.8z M560.6,191.9c1.6-1.6,2.7-3.3,3.2-5h-6.3C558.5,189.3,559.5,190.9,560.6,191.9L560.6,191.9z
		 M561.6,82.8V87c0,0.4,0.3,0.7,0.7,0.7h1.9v-4.9H561.6z M568,137.5c1.3,0,2.5,0.4,3.4,1.3c0.9,0.9,1.4,2,1.4,3.3
		c0,1.2-0.5,2.2-1.4,3.1c-0.9,0.9-2,1.4-3.2,1.4c-1.3,0-2.4-0.4-3.3-1.3c-0.9-0.9-1.4-2-1.4-3.3c0-1.2,0.4-2.2,1.3-3.2
		C565.8,138,566.8,137.5,568,137.5z M568.2,144.8c0.8,0,1.4-0.3,1.9-0.8c0.5-0.5,0.8-1.1,0.8-1.9c0-0.7-0.3-1.4-0.8-1.9
		c-0.5-0.5-1.1-0.8-1.9-0.8c-0.8,0-1.4,0.3-1.9,0.8c-0.5,0.5-0.8,1.1-0.8,1.9c0,0.7,0.3,1.4,0.8,1.9
		C566.8,144.5,567.5,144.8,568.2,144.8z M569.2,224.4c0,0.1-0.1,1.5-0.3,4l-0.5,8.1h-1.8l-0.9-12.1v-5.1h3.5V224.4z M569.1,242.2
		h-3.2V239h3.2V242.2z M583.7,84h4.5c1.9-1.9,3.2-3.7,3.7-5.4h-16.5v-2.3h10.1c-0.4-0.5-1.2-1.2-2.5-2.1l2.4-1.3
		c1.1,0.9,2.1,2.1,3,3.4h10v2.3l-6,0l2.1,1c-1.4,2.4-2.4,3.8-3,4.3h9.2v2.3h-27.4V84h9.3c-0.9-1.7-2.2-3.1-4-4.2l2-1.1
		c1.5,0.8,2.9,2.3,4.4,4.5L583.7,84z M591.8,197.3c0.6-0.1,0.9-0.5,0.9-1.1l-0.1-5c-3.5,2.8-9.2,5.3-17.2,7.7l-1.8-2.1
		c7.9-2.2,13.8-4.6,17.5-7.4l-14.5,1.8l-1.4-2.5l4-0.4v-14.4l5.7-0.1c0.7-0.7,1.5-1.8,2.2-3.3l2.2,1.2c-0.7,1.1-1.2,1.8-1.5,2.1h7.2
		v11.8c1.3-1.6,2.5-3.2,3.8-4.9l2,1.6c-1.9,2.6-3.8,4.8-5.7,6.5v8.2c-0.1,1.7-0.9,2.5-2.2,2.6l-4.3,0.1l-0.9-2.7L591.8,197.3
		L591.8,197.3z M578.3,102.1v-14h17.1V102h-2.6v-1.9h-12v2H578.3z M592.8,93v-2.5h-12V93H592.8z M592.8,95.3h-12v2.5h12V95.3z
		 M592.6,176.3h-10.9v2.1h10.9V176.3z M592.6,182.9v-2.2h-10.9v2.2H592.6z M581.7,185.3v2.9c1.5-0.1,5.2-0.4,10.9-1l0.1-1.9H581.7z
		 M617.4,198.8c-3.5-0.4-6-1.5-7.6-3.4l-4,4l-2-1.9c1.5-1.1,3.1-2.5,4.7-4.3v-9h-3.8v-2.3h6.3v11.3c0.6,1,1.6,1.8,2.8,2.4
		c1.3,0.6,2.6,0.9,3.9,0.9h12.1c1.3,0,2.3-0.1,3.1-0.3l-1,2.7H617.4L617.4,198.8z M604,97.3c3.4-1.5,6.7-4.1,9.7-7.6l1.8,1.5
		c-2.9,3.5-6.2,6.2-9.9,8.1L604,97.3L604,97.3z M610.1,179.3c-0.9-2.1-2.2-4-4.2-5.5l1.7-1.4c1.9,1.3,3.4,3.1,4.7,5.4L610.1,179.3
		L610.1,179.3z M627.9,75.5c-3.5,1.1-6.2,1.9-8.2,2.2v8.4h11.8v2.3h-11.8v11.1c0,0.9-0.3,1.5-1,1.8c-0.7,0.3-2,0.5-3.9,0.5l-0.8-2.4
		c1,0.1,1.7,0.1,2,0.1c0.8,0,1.2-0.2,1.2-0.6V88.5H606l1.9-12.1c7.4-0.1,13.4-1,18.2-3L627.9,75.5L627.9,75.5z M617.2,86.1v-8
		c-1.9,0.2-4.3,0.4-7.1,0.5l-1.1,7.5H617.2z M622.3,177.1h9.1v2.3h-18.2v-2.3h8.3c-0.8-1.6-1.9-2.8-3.3-3.8l1.8-1.5
		c1.5,1.1,2.8,2.4,3.8,4.1L622.3,177.1z M622.8,185.3c1.3-2.2,2.2-3.9,2.6-5.2l2.2,0.8c-0.8,2.6-1.8,4.6-2.9,6.2
		c1.9,1.6,3.7,3.7,5.2,6.5l-2,2.1c-1.4-2.5-2.9-4.7-4.6-6.4c-1.6,2.7-4.2,4.7-7.8,6.1l-1.8-2.2c3.4-1.2,6-3.1,7.7-5.7
		c-0.9-0.9-3-2.5-6.2-5l1.6-1.7C619.1,182.2,621,183.7,622.8,185.3L622.8,185.3z M630.2,99.3c-2.6-3.2-5.8-5.9-9.5-7.9l1.4-1.7
		c4,2.1,7.3,4.7,9.8,7.9L630.2,99.3L630.2,99.3z M635.9,179.9h3.9v-7.8h2.3v7.8h4.1v2.3h-4.1v7.6l4.1-1.4v2.3l-9.7,3.5l-1.4-2.2
		l4.8-1.4v-8.4h-3.9V179.9z M641.8,98.3c0,2.1-0.9,3.6-2.8,4.5l-0.9-1.2c1.3-0.6,1.9-1.6,1.9-3.2h-1.7v-3.5h3.5V98.3z M646,175.6
		v-2.3h14.4v2c-3.8,3.3-6.7,5.7-8.8,7.2l11.3,0c-0.1,1.6-0.3,3.5-0.5,5.4c-0.2,2-0.5,3.9-0.8,5.7c-0.3,1.7-0.5,2.9-0.6,3.6
		c-0.2,0.8-0.5,1.4-0.9,1.8c-0.6,0.6-1.5,0.8-2.6,0.8l-2.9-0.8l-0.4-2.6c2.2,0.7,3.5,1,3.9,1c0.3,0,0.6-0.5,0.8-1.5
		c0.2-1,0.5-2.5,0.8-4.7l0.8-6.6h-2c-1.4,6.2-4.8,11.3-10.2,15.3l-1.7-1.8c5.4-4.1,8.6-8.6,9.6-13.5h-2.6c-0.5,2.2-1.6,4.3-3.3,6.4
		c-1.7,2.1-3.5,3.6-5.5,4.7L643,194c4.4-2.6,7-5.7,8-9.3h-3.5v-2.2c2.7-1.8,5.7-4.1,9-6.9H646z"/>
</g>
<g>
</g>
<g>
</g>
<g>
</g>
<g>
</g>
<g>
</g>
<g>
</g>
<g>
</g>
<g>
</g>
<g>
</g>
<g>
</g>
<g>
</g>
<g>
</g>
<g>
</g>
<g>
</g>
<g>
</g>
</svg>
