<?xml version="1.0" encoding="utf-8"?>
<!-- Generator: Adobe Illustrator 17.0.0, SVG Export Plug-In . SVG Version: 6.00 Build 0)  -->
<!DOCTYPE svg PUBLIC "-//W3C//DTD SVG 1.1//EN" "http://www.w3.org/Graphics/SVG/1.1/DTD/svg11.dtd">
<svg version="1.1" id="Layer_1" xmlns="http://www.w3.org/2000/svg" xmlns:xlink="http://www.w3.org/1999/xlink" x="0px" y="0px"
	 width="679px" height="253.6px" viewBox="0 0 679 253.6" style="enable-background:new 0 0 679 253.6;" xml:space="preserve">
<style type="text/css">
	.st0{fill:none;}
	.st1{fill:#D1712A;}
	.st2{fill:#E08542;}
	.st3{fill:#FCD571;}
	.st4{fill:#FFFFFF;}
</style>
<g id="page-03-2.svg">
	<rect x="0" y="0" class="st0" width="679" height="253.6"/>
	<rect x="245.6" y="0" class="st1" width="346.5" height="253.6"/>
	<path class="st2" d="M300.4,203.3c-19.8,0-32.3-12.6-32.3-34.2V75.4c0-21.6,12.4-34.2,32.3-34.2c19.8,0,32.3,12.6,32.3,34.2v93.7
		C332.7,190.7,320.2,203.3,300.4,203.3z M312.8,76.3c0-11.2-5.1-16.3-12.4-16.3S288,65.2,288,76.3v91.8c0,11.2,5.1,16.3,12.4,16.3
		s12.4-5.1,12.4-16.3V76.3z M348.3,201.4v-33.3c0-18.5,10.1-30.6,22.1-41.3c12.2-11.2,18.7-18.7,18.7-30.6V76.3
		c0-11.2-3.9-16.3-10.8-16.3c-7.1,0-10.6,5.1-10.6,16.3v16.8H348V75.4c0-21.6,10.8-34.2,30.2-34.2c19.4,0,30.6,12.6,30.6,34.2v21.9
		c0,18.5-10.6,30.6-22.6,41.3c-12.2,11.2-18.4,18.7-18.4,30.6v13.4h42.4v18.9H348.3z"/>
	<path class="st3" d="M442.9,146.5h-7.6v-36.5h7.1c5.4,0,7.6,3.1,7.6,8v4.2c0,2.4-1,4.3-2.7,5.3c2,0.8,3.2,3,3.2,5.8v5.3
		C450.5,143.3,448.3,146.5,442.9,146.5z M445.3,118.1c0-2.3-0.9-3.8-2.9-3.8h-2.5v11.3h2.5c2,0,2.9-1.5,2.9-3.8V118.1z M445.8,133.4
		c0-2.3-0.9-3.8-2.9-3.8h-3v12.5h3c2,0,2.9-1.5,2.9-3.8V133.4z M462.3,127.9v18.6h-4.7v-28.9h4.6v3.6c1-2.6,3.6-4,6.3-3.9v5
		C465,121.8,462.3,123.6,462.3,127.9z M483.3,146.5c-0.2-0.7-0.3-1.5-0.3-2.2c-1,1.7-2.8,2.7-4.9,2.7c-2.9,0-5.8-2.2-5.8-7.1
		c0-4.7,1.9-7,5.9-9.1c3.1-1.6,4.6-2.6,4.6-5.8c0-1.9-0.5-3.5-2.4-3.5c-1.8,0-2.6,1.3-2.6,3.9v1.7h-4.7v-1.7c0-5,2.6-8.1,7.4-8.1
		c5.8,0,6.9,4.1,6.9,9.2v9.8c0,6.4,0.1,8.2,0.5,10.3H483.3z M482.6,132c-0.5,0.7-1.2,1.2-2.4,2c-2.2,1.3-3.2,2.6-3.2,5.3
		c0,2.5,1.1,3.5,2.6,3.5c1.8,0,3-1.4,3-4.4V132z M504.7,146.5v-21.2c0-2.6-1-3.8-2.7-3.8c-1.6,0-2.7,1.2-2.7,3.8v21.2h-4.7v-28.9
		h4.5v1.8c0.5-1.3,2.4-2.2,3.9-2.2c4.4,0,6.3,2.8,6.3,7.8v21.5H504.7z M527.2,146.5v-1.9c-0.5,1.5-2.4,2.4-4.1,2.4
		c-4.4,0-6.5-2.8-6.5-7.8V125c0-5,2.1-7.8,6.5-7.8c1.6,0,3.5,1,3.9,2.2v-11.7h4.7v38.8H527.2z M527,125.3c0-2.6-1.2-3.8-2.9-3.8
		c-1.8,0-2.9,1.2-2.9,3.8v13.5c0,2.6,1.2,3.8,2.9,3.8c1.8,0,2.9-1.2,2.9-3.8V125.3z M545.6,146.9c-4.7,0-7.6-2.9-7.6-7.8v-1.9h4.7
		v1.6c0,2.6,1.2,3.9,2.9,3.9c1.7,0,3-1.1,3-3.4c0-1.6-0.3-2.4-1.8-3.6l-4.3-3.5c-2.5-2-3.9-3.7-3.9-7.3c0-4.8,2.5-7.7,7.1-7.7
		c4.6,0,7.2,2.9,7.2,7.8v2h-4.7v-1.7c0-2.4-0.8-3.9-2.5-3.9c-1.6,0-2.5,1.3-2.5,3.4c0,1.6,0.3,2.3,1.8,3.5l4.3,3.5
		c2.5,2,3.9,3.8,3.9,7.4C553.2,144.1,550.2,146.9,545.6,146.9z"/>
	<path class="st4" d="M405.4,195c-0.7,1.8-1.7,3.6-2.7,5.4l-1.8-0.8c0.1-0.1,0.2-0.4,0.4-0.7c1.1-1.9,1.9-3.4,2.3-4.5L405.4,195
		L405.4,195z M403.7,192.8v-8.6h7.1v-7.9h2v2.9H423v1.8h-10.3v3.1h8.2v8.6H403.7z M405.6,186.1v4.9H419v-4.9H405.6z M408.8,200.1
		c-0.1-0.8-0.4-2-0.9-3.6c-0.2-0.6-0.3-1.1-0.4-1.4l1.8-0.4c0.7,2.4,1.2,4,1.5,4.9L408.8,200.1z M414.8,199.8
		c-0.2-0.7-0.7-2-1.4-3.9c-0.2-0.5-0.3-0.8-0.4-1l1.8-0.4c0.7,1.9,1.4,3.5,1.9,4.8L414.8,199.8z M421.4,200.1
		c-0.4-1-1.3-2.7-2.5-5.1l1.8-0.7c0.2,0.4,0.6,1.2,1.2,2.4c0.7,1.3,1.1,2.1,1.3,2.5L421.4,200.1z M427,182.5v-1.8h8.7v-4.3h2v4.3
		h8.7v1.8h-8.7v4.7H448v1.9h-10.3v8.4h6.3v-6h2v9.1h-2v-1.5h-16.5v-7.6h2v6h6.3v-8.4h-10.3v-1.9h10.3v-4.7H427z M457,200.1
		c-0.9,0-1.5,0-2,0c-0.1-0.9-0.2-1.7-0.4-2.3c0.4,0,0.9,0,1.7,0c0.9,0.1,1.6,0.1,2.1,0.1c1.7,0.1,2.5-0.6,2.3-2.2v-9.9l7.8-5.6
		h-17.7v-2h20.4v2.4l-8.4,6.2v9.2c0.1,2.8-1.1,4.1-3.7,4.1C458.5,200,457.8,200.1,457,200.1L457,200.1z M479.6,197.9v-3.8h-2.2
		c-0.1,2.4-0.7,4.6-1.8,6.5c-0.1,0-0.1-0.1-0.2-0.2c-0.6-0.5-1-0.8-1.2-0.9c1.2-1.7,1.7-4.4,1.7-8V184l-0.6,0.5
		c-0.1-0.1-0.2-0.4-0.5-0.7c-0.2-0.3-0.4-0.6-0.6-0.7c1.7-2,3.2-4.2,4.3-6.7l1.8,0.4c-0.4,0.7-0.7,1.4-1,2h4.5v1.7l-1.6,2.5h2.6
		v14.6c0.1,1.6-0.7,2.5-2.3,2.5c-0.1,0-0.4,0-0.7,0c-0.5,0.1-0.9,0.1-1.1,0.1c0-0.4-0.1-1-0.2-1.8c0.1,0,0.3,0,0.6,0
		c0.4,0.1,0.7,0.1,0.9,0.1c0.9,0.1,1.4-0.3,1.3-1.2v-3.2h-2.2v3.8H479.6z M478.5,180.4c-0.6,0.9-1.2,1.8-1.8,2.6h3.6l1.8-2.6H478.5z
		 M477.5,184.6v3.1h2.2v-3.1H477.5z M477.5,191.6v0.9h2.2v-3.1h-2.2V191.6z M483.4,184.6h-2.2v3.1h2.2V184.6z M481.1,189.4v3.1h2.2
		v-3.1H481.1z M490.4,179.5c0.1,3-1.2,5.3-3.9,6.8c-0.1-0.1-0.3-0.4-0.6-0.7c-0.3-0.3-0.5-0.6-0.7-0.7c2.4-1.1,3.6-2.9,3.5-5.4h-2.5
		v-1.6h9.8c0,1.4-0.1,2.9-0.2,4.5c0,2-0.9,2.9-2.8,2.9c-0.7,0-1.5,0-2.3,0l-0.2-1.6c0.7,0,1.4,0,2.2,0c0.9,0,1.4-0.5,1.5-1.5
		c0.1-0.3,0.1-0.8,0.1-1.3c0.1-0.6,0.1-1,0.1-1.3H490.4L490.4,179.5z M487.1,192.5c-0.1,0.2-0.1,0.4-0.2,0.5
		c-0.4-0.3-0.8-0.6-1.4-0.7c0.9-1.6,1.5-3.4,2-5.7l1.6,0.3c-0.1,0.2-0.2,0.5-0.3,0.9c-0.1,0.5-0.2,0.8-0.3,1h2.4v-2.6h1.7v2.6h3.9
		v1.7h-3.9v3.6h4.4v1.7h-4.4v4.8h-1.7v-4.8h-5.4v-1.7h5.4v-3.6h-3C487.8,191.1,487.5,191.7,487.1,192.5L487.1,192.5z M502.4,199.9
		c-0.2,0.1-0.3,0.2-0.4,0.3l-1.1-1.5c0.6-0.5,0.8-1.2,0.7-1.9v-9.9H499v-1.9h4.5V197l2.7-2.1c0.1,0.3,0.1,0.7,0.2,1.2
		c0.1,0.3,0.2,0.6,0.2,0.8c-1.2,0.7-2.4,1.5-3.4,2.3C503,199.3,502.8,199.6,502.4,199.9L502.4,199.9z M503.1,182.1
		c-0.9-1.5-1.9-2.9-3-4.2l1.5-1.1c1.1,1.3,2.2,2.6,3.2,4.1L503.1,182.1z M506.1,182.9v-1.8h8c1.1-1.7,2.1-3.2,2.9-4.7l1.8,0.7
		c-0.5,0.7-1.4,2.1-2.6,4h4.7v1.8h-6.5v3.9h5.7v1.8h-5.7v4h7.2v1.8h-7.2v6.3h-2v-6.3h-6.9v-1.8h6.9v-4h-5.6v-1.8h5.6v-3.9H506.1z
		 M510.5,180.7c-0.3-0.5-0.8-1.3-1.5-2.2c-0.4-0.6-0.7-1-0.9-1.3l1.5-0.9c1,1.3,1.8,2.5,2.5,3.6L510.5,180.7z M525.8,182.2
		c-0.2,2.1-0.6,4.3-0.9,6.6c-0.2-0.1-0.5-0.1-0.9-0.2c-0.2-0.1-0.3-0.1-0.5-0.1c0.4-2.4,0.7-4.6,0.9-6.6L525.8,182.2L525.8,182.2z
		 M530.2,184.7c-0.2-0.2-0.5-0.5-0.8-0.9c-0.4-0.3-0.7-0.6-0.9-0.8v17.7h-1.8v-24.2h1.8v5l0.3-0.4c0.9,0.7,1.7,1.4,2.4,2.1
		L530.2,184.7z M530.9,179.9v-1.5h6.3v-2h1.9v2h6.7v1.5h-6.7v1.8h6.1v1.3h-6.1v1.9h7.1v1.5h-15.8V185h6.8v-1.9h-5.6v-1.3h5.6v-1.8
		H530.9z M531.8,200.5v-12.3h12.8v9.2c0.1,1.9-0.9,2.8-2.8,2.8c-0.2,0-0.7,0-1.3,0c-0.9,0.1-1.5,0.1-1.9,0.1
		c-0.1-0.6-0.2-1.2-0.4-1.8c0.7,0.1,1.7,0.1,3,0.1c1.1,0.1,1.7-0.4,1.6-1.3v-1.1h-9.3v4.3H531.8z M533.6,189.7v1.9h9.3v-1.9H533.6z
		 M533.6,193v1.9h9.3V193H533.6z M552.1,181.9l6,6.7l-6,6.7v2.4l7-8.1v-2l-7-8.1V181.9z"/>
	<path class="st4" d="M433.2,94.9V74.9h15.7v19.9h-3.6v-2.7h-8.4v2.7H433.2z M436.8,78.5v10.4h8.4V78.5H436.8z M437.1,70.1v-16h28.4
		v16H437.1z M441.1,57.9v8.4h20.5v-8.4H441.1z M453.7,94.9V74.9h15.7v19.9h-3.5v-2.7h-8.6v2.7H453.7z M457.3,78.5v10.4h8.6V78.5
		H457.3z M479.2,78.7c-0.1,6.3-1,11.7-2.6,16.1l-3.1-2.2c1-2.5,1.6-5,1.8-7.4c0.3-2.3,0.5-5.9,0.5-10.8V54h3.5v12.7h4.1V52.9h3.1
		v13.8h2.3v3.4h-9.6v5v0.2h7.6v19.2h-3.1V78.7H479.2L479.2,78.7z M490.4,77.1V56.3h6.9c0.3-1.4,0.6-2.9,0.8-4.3l3.8,0.4
		c-0.3,1.2-0.7,2.5-1,3.9h10.8v20.8h-11.4c-1.3,2.3-3.5,4.4-6.5,6.5h7.6v-4.7h3.6v4.7h8.6v3.6h-8.6v7.7h-3.6v-7.7h-13.1v-3.6h4.1
		c-0.6-0.7-1.2-1.4-1.8-2c2.6-1.4,4.6-2.9,5.8-4.5H490.4z M493.7,59.5v5.6h5.8v-5.6H493.7z M493.7,73.7h4.8c0.5-1.6,0.9-3.4,1-5.6
		h-5.8V73.7z M502.6,68.1c0,2.2-0.3,4-0.8,5.6h6.6v-5.6H502.6L502.6,68.1z M508.4,59.5h-5.8v5.6h5.8V59.5z M521,94.7V54.8h29.9v39.8
		h-4v-3.1h-21.8v3.1H521z M525.1,58.8v12.4H547V58.8H525.1z M525.1,75.1v12.7H547V75.1H525.1z M565.7,64.4c-0.2,9.1-0.4,16-0.7,20.8
		h-3c-0.1-10.5-0.4-21-1-31.4h5C565.9,56.2,565.8,59.7,565.7,64.4L565.7,64.4z M565.7,88.9v5h-4.1v-5H565.7z"/>
</g>
<g>
</g>
<g>
</g>
<g>
</g>
<g>
</g>
<g>
</g>
<g>
</g>
<g>
</g>
<g>
</g>
<g>
</g>
<g>
</g>
<g>
</g>
<g>
</g>
<g>
</g>
<g>
</g>
<g>
</g>
</svg>
