<?xml version="1.0" encoding="utf-8"?>
<!-- Generator: Adobe Illustrator 17.0.0, SVG Export Plug-In . SVG Version: 6.00 Build 0)  -->
<!DOCTYPE svg PUBLIC "-//W3C//DTD SVG 1.1//EN" "http://www.w3.org/Graphics/SVG/1.1/DTD/svg11.dtd">
<svg version="1.1" id="Layer_1" xmlns="http://www.w3.org/2000/svg" xmlns:xlink="http://www.w3.org/1999/xlink" x="0px" y="0px"
	 width="720px" height="269.8px" viewBox="0 0 720 269.8" style="enable-background:new 0 0 720 269.8;" xml:space="preserve">
<style type="text/css">
	.st0{fill:#FFFFFF;}
	.st1{fill:none;}
</style>
<g id="page-02-logo.svg">
	<path class="st0" d="M102.3,72.9c-4.8,0-7.4,3.1-7.4,8.8v22.9c0,5.7,2.6,8.8,7.4,8.8c4.8,0,7.4-3.1,7.4-8.8V81.6
		C109.7,76,107.1,72.9,102.3,72.9z M106.8,104.5c0,3.9-1.5,5.8-4.5,5.8c-3,0-4.5-2-4.5-5.8V81.6c0-3.9,1.5-5.8,4.5-5.8
		c3,0,4.5,2,4.5,5.8V104.5z M92.5,156.8h3v-39.6h-3V156.8z M47.7,73.3v9.8H33.7v2.7h13.9v9.8h-11v17.3h25V95.6h-11v-9.8h14.1v-2.7
		H50.6v-9.8H47.7z M58.7,98.5v11.8h-19V98.5H58.7z M119.7,72.9c-4.8,0-7.4,3.1-7.4,8.8v22.9c0,5.7,2.6,8.8,7.4,8.8
		c4.8,0,7.4-3.1,7.4-8.8V81.6C127.1,76,124.5,72.9,119.7,72.9z M124.2,104.5c0,3.9-1.5,5.8-4.5,5.8c-3,0-4.5-2-4.5-5.8V81.6
		c0-3.9,1.5-5.8,4.5-5.8c3,0,4.5,2,4.5,5.8V104.5z M107.8,29.3h-3V69h3V29.3z M88.1,69L90,58.2h7.2l0.1,0.5L99.1,69h3.1L95,29.3
		h-2.9l-7,39.6H88.1z M90.5,54.9l2.7-15.4c0.1-0.7,0.2-1.5,0.3-2.5l0-0.4l0.1,0.4c0.1,1,0.2,1.8,0.3,2.5l2.7,15.8h-6.2L90.5,54.9z
		 M63.5,172.6c-0.2,0-0.2,0-0.5,0c-1.1-0.1-1.6-0.6-1.6-2v-1.2l3.7,0v-4.2h-0.9v3.3h-2.8v-4.6h3.9v-0.9h-3.9v-1.7h-0.9v1.7h-3.9v0.9
		h3.9v4.6h-2.8v-3.3h-0.9v4.2h3.7v1.2c0,1.9,0.9,2.7,2.3,2.8c0.4,0,0.6,0,0.9,0c1.5-0.1,2.3-1,2.3-2.7h-0.9
		C65,172,64.6,172.5,63.5,172.6z M81.2,69V32.2h6.1v-2.9H72.2v2.9h6.1V69H81.2z M81.2,117.2h-3v39.6h11.2v-2.9h-8.2V117.2z
		 M86.5,88.4L86.5,88.4l6.9-15.2h-3.2L81.2,93l0-19.8h-3v39.6h3V99.4l0,0l3.4-6.9l6.3,20.4H94L86.5,88.4z M49.6,170.7h3.9v-0.9h-3.9
		v-1.4H53v-6.5h-7.7v6.5h3.4v1.4h-3.9v0.9h3.9v1.7H44v0.9h10.4v-0.9h-4.8V170.7z M49.6,162.8h2.5v1.9h-2.5V162.8z M49.6,165.6h2.5v2
		h-2.5V165.6z M48.7,167.5h-2.5v-2h2.5V167.5z M48.7,164.7h-2.5v-1.9h2.5V164.7z M43.1,61.7l4.6,7.3h3.2l-6-9.5
		c1.7-2.3,3.2-5,4.3-8.3c4.5,13.5,16.5,18.1,16.5,18.1V66c-15.5-8.3-15-22.5-14.9-23h14v-2.8H50.6v-11l-3,0v11H33.7V43h13.9
		c0,0.5,0.5,14.7-14.9,23v3.3C32.7,69.3,38.1,67.2,43.1,61.7z M41.1,162.9h-8.7v0.9h8.7V162.9z M32.7,154.1v2.7h33v-2.7h-15v-7.2
		h12.9v-2.7H50.7v-5.9h11v-21.1h-25v21.1h11v5.9h-13v2.7h13v7.2H32.7z M50.7,119.9H59v6.4h-8.3V119.9z M50.7,129.1H59v6.5h-8.3
		V129.1z M39.4,119.9h8.3v6.4h-8.3V119.9z M39.4,135.6v-6.5h8.3v6.5H39.4z M31.6,173.3h10.2v-1H31.6V173.3z M40.6,168.4v-1h-7.9v1
		H40.6z"/>
	<rect y="0" class="st1" width="720" height="269.8"/>
</g>
<g>
</g>
<g>
</g>
<g>
</g>
<g>
</g>
<g>
</g>
<g>
</g>
<g>
</g>
<g>
</g>
<g>
</g>
<g>
</g>
<g>
</g>
<g>
</g>
<g>
</g>
<g>
</g>
<g>
</g>
</svg>
