<?xml version="1.0" encoding="utf-8"?>
<!-- Generator: Adobe Illustrator 17.0.0, SVG Export Plug-In . SVG Version: 6.00 Build 0)  -->
<!DOCTYPE svg PUBLIC "-//W3C//DTD SVG 1.1//EN" "http://www.w3.org/Graphics/SVG/1.1/DTD/svg11.dtd">
<svg version="1.1" id="Layer_1" xmlns="http://www.w3.org/2000/svg" xmlns:xlink="http://www.w3.org/1999/xlink" x="0px" y="0px"
	 width="720px" height="269.8px" viewBox="0 0 720 269.8" style="enable-background:new 0 0 720 269.8;" xml:space="preserve">
<style type="text/css">
	.st0{fill:#E28017;}
	.st1{fill:none;}
</style>
<g id="page-02-2015.svg">
	<path class="st0" d="M506,249.8v-20.5c0-11.4,6.8-18.9,14.8-25.4c8.2-6.9,12.5-11.5,12.5-18.9v-12.3c0-6.9-2.6-10-7.2-10
		c-4.8,0-7.1,3.1-7.1,10V183h-13.1v-10.9c0-13.3,7.2-21.1,20.1-21.1c12.9,0,20.5,7.8,20.5,21.1v13.5c0,11.4-7.1,18.9-15.1,25.4
		c-8.2,6.9-12.3,11.5-12.3,18.9v8.2h28.3v11.7H506z M576.3,251c-13.2,0-21.5-7.8-21.5-21.1v-57.8c0-13.3,8.3-21.1,21.5-21.1
		c13.2,0,21.5,7.8,21.5,21.1v57.8C597.9,243.2,589.6,251,576.3,251z M584.6,172.7c0-6.9-3.4-10-8.3-10c-4.9,0-8.3,3.1-8.3,10v56.6
		c0,6.9,3.4,10,8.3,10c4.9,0,8.3-3.1,8.3-10V172.7z M613.8,249.8v-76.9h-11.5v-9.7c6.8-0.4,12.9-3.3,13.7-10.9h11.2v97.6H613.8z
		 M658.6,251c-13.2,0-21.1-7.8-21.1-21.1v-10.9h13.1v10.3c0,6.9,3.1,10,8,10c4.9,0,8.3-3.1,8.3-10v-24.8c0-5.8-2.6-9-7.4-9
		c-4.5,0-7.8,3.3-7.8,9v0.6h-13.2l2.3-52.8h37.7V164h-25.2l-1.5,25.7c2.8-3.3,7.2-5.4,12-5.4c12.3,0,16.5,9.1,16.5,19.8v25.7
		C680.1,243.2,671.8,251,658.6,251z"/>
	<rect y="0" class="st1" width="720" height="269.8"/>
</g>
<g>
</g>
<g>
</g>
<g>
</g>
<g>
</g>
<g>
</g>
<g>
</g>
<g>
</g>
<g>
</g>
<g>
</g>
<g>
</g>
<g>
</g>
<g>
</g>
<g>
</g>
<g>
</g>
<g>
</g>
</svg>
