<?xml version="1.0" encoding="utf-8"?>
<!-- Generator: Adobe Illustrator 17.0.0, SVG Export Plug-In . SVG Version: 6.00 Build 0)  -->
<!DOCTYPE svg PUBLIC "-//W3C//DTD SVG 1.1//EN" "http://www.w3.org/Graphics/SVG/1.1/DTD/svg11.dtd">
<svg version="1.1" id="Layer_1" xmlns="http://www.w3.org/2000/svg" xmlns:xlink="http://www.w3.org/1999/xlink" x="0px" y="0px"
	 width="720px" height="61.3px" viewBox="0 0 720 61.3" style="enable-background:new 0 0 720 61.3;" xml:space="preserve">
<style type="text/css">
	.st0{fill:#FFFFFF;}
	.st1{fill:none;}
</style>
<g id="page-02-subtitle-2.svg">
	<path class="st0" d="M499.6,16.7v11.8h6.2V33h-6.2v15.9h-4.7V12.3h11.8v4.4H499.6z M518.9,48.9c-0.2-0.7-0.3-1.5-0.3-2.2
		c-1,1.7-2.8,2.7-4.9,2.7c-2.9,0-5.8-2.2-5.8-7.1c0-4.7,1.9-7,5.9-9.1c3.1-1.6,4.6-2.6,4.6-5.8c0-1.9-0.5-3.5-2.4-3.5
		c-1.8,0-2.6,1.3-2.6,3.9v1.7h-4.7v-1.7c0-5,2.6-8.1,7.4-8.1c5.8,0,6.9,4.1,6.9,9.3v9.8c0,6.5,0.1,8.2,0.5,10.3H518.9z M518.2,34.4
		c-0.5,0.7-1.2,1.2-2.4,2c-2.2,1.3-3.2,2.6-3.2,5.3c0,2.5,1.1,3.5,2.6,3.5c1.8,0,3-1.4,3-4.4V34.4z M534.3,49.4
		c-4.7,0-7.6-2.9-7.6-7.9v-1.9h4.7v1.6c0,2.6,1.2,3.9,2.9,3.9c1.7,0,3-1.1,3-3.4c0-1.6-0.3-2.4-1.8-3.6l-4.3-3.5
		c-2.5-2-3.9-3.7-3.9-7.3c0-4.8,2.5-7.7,7.1-7.7c4.6,0,7.2,2.9,7.2,7.9v2h-4.7v-1.7c0-2.4-0.8-3.9-2.5-3.9c-1.6,0-2.5,1.3-2.5,3.4
		c0,1.6,0.3,2.3,1.8,3.5l4.3,3.5c2.5,2,3.9,3.8,3.9,7.4C541.9,46.5,538.9,49.4,534.3,49.4z M555.9,48.9V27.7c0-2.6-1-3.8-2.7-3.8
		c-1.6,0-2.7,1.2-2.7,3.8v21.2h-4.7V10.1h4.7v11.7c0.5-1.3,2.3-2.2,3.8-2.2c4.4,0,6.3,2.8,6.3,7.9v21.5H555.9z M565.7,15.7v-5.7h4.7
		v5.7H565.7z M565.7,48.9V20h4.7v28.9H565.7z M582,49.4c-4.7,0-7.6-2.9-7.6-7.9V27.4c0-5,2.9-7.9,7.6-7.9c4.7,0,7.6,2.9,7.6,7.9
		v14.1C589.6,46.5,586.7,49.4,582,49.4z M584.9,27.7c0-2.6-1.2-3.8-2.9-3.8c-1.8,0-2.9,1.2-2.9,3.8v13.5c0,2.6,1.2,3.8,2.9,3.8
		c1.8,0,2.9-1.2,2.9-3.8V27.7z M604.4,48.9V27.7c0-2.6-1-3.8-2.7-3.8c-1.6,0-2.7,1.2-2.7,3.8v21.2h-4.7V20h4.5v1.8
		c0.5-1.3,2.4-2.2,4-2.2c4.4,0,6.3,2.8,6.3,7.9v21.5H604.4z M628.7,16.7v11.8h6.2V33h-6.2v15.9H624V12.3h11.8v4.4H628.7z M648,48.9
		c-0.2-0.7-0.3-1.5-0.3-2.2c-1,1.7-2.8,2.7-4.9,2.7c-2.9,0-5.8-2.2-5.8-7.1c0-4.7,1.9-7,5.9-9.1c3.1-1.6,4.6-2.6,4.6-5.8
		c0-1.9-0.5-3.5-2.4-3.5c-1.8,0-2.6,1.3-2.6,3.9v1.7h-4.7v-1.7c0-5,2.6-8.1,7.4-8.1c5.8,0,6.9,4.1,6.9,9.3v9.8
		c0,6.5,0.1,8.2,0.5,10.3H648z M647.4,34.4c-0.5,0.7-1.2,1.2-2.4,2c-2.2,1.3-3.2,2.6-3.2,5.3c0,2.5,1.1,3.5,2.6,3.5
		c1.8,0,3-1.4,3-4.4V34.4z M657.1,15.7v-5.7h4.7v5.7H657.1z M657.1,48.9V20h4.7v28.9H657.1z M671,30.3v18.6h-4.7V20h4.6v3.6
		c1-2.6,3.6-4,6.3-3.9v5C673.7,24.2,671,26,671,30.3z"/>
	<rect y="0" class="st1" width="720" height="61.3"/>
</g>
<g>
</g>
<g>
</g>
<g>
</g>
<g>
</g>
<g>
</g>
<g>
</g>
<g>
</g>
<g>
</g>
<g>
</g>
<g>
</g>
<g>
</g>
<g>
</g>
<g>
</g>
<g>
</g>
<g>
</g>
</svg>
