<?xml version="1.0" encoding="utf-8"?>
<!-- Generator: Adobe Illustrator 17.0.0, SVG Export Plug-In . SVG Version: 6.00 Build 0)  -->
<!DOCTYPE svg PUBLIC "-//W3C//DTD SVG 1.1//EN" "http://www.w3.org/Graphics/SVG/1.1/DTD/svg11.dtd">
<svg version="1.1" id="Layer_1" xmlns="http://www.w3.org/2000/svg" xmlns:xlink="http://www.w3.org/1999/xlink" x="0px" y="0px"
	 width="720px" height="1036.5px" viewBox="0 0 720 1036.5" style="enable-background:new 0 0 720 1036.5;" xml:space="preserve">
<style type="text/css">
	.st0{fill-rule:evenodd;clip-rule:evenodd;fill:#D769A0;}
	.st1{fill:#FFFFFF;}
	.st2{fill:none;}
	.st3{fill-rule:evenodd;clip-rule:evenodd;fill:#FFFFFF;}
</style>
<g id="page-huodong.svg">
	<rect x="88" y="173.3" class="st0" width="544" height="690"/>
	<path class="st1" d="M446,216.1c-1.7,0-3-1.3-3-3v-0.1c0-1.7,1.3-3,3-3c1.7,0,3,1.3,3,3v0.1C449,214.7,447.7,216.1,446,216.1z
		 M446,203.9c-1.7,0-3-1.3-3-3v-0.1c0-1.7,1.3-3,3-3c1.7,0,3,1.3,3,3v0.1C449,202.6,447.7,203.9,446,203.9z M446,191.8
		c-1.7,0-3-1.3-3-3v-0.1c0-1.7,1.3-3,3-3c1.7,0,3,1.3,3,3v0.1C449,190.5,447.7,191.8,446,191.8z M446,179.7c-1.7,0-3-1.3-3-3v-0.1
		c0-1.7,1.3-3,3-3c1.7,0,3,1.3,3,3v0.1C449,178.4,447.7,179.7,446,179.7z M446,167.6c-1.7,0-3-1.3-3-3v-0.1c0-1.7,1.3-3,3-3
		c1.7,0,3,1.3,3,3v0.1C449,166.3,447.7,167.6,446,167.6z M446,155.5c-1.7,0-3-1.3-3-3v-0.1c0-1.7,1.3-3,3-3c1.7,0,3,1.3,3,3v0.1
		C449,154.2,447.7,155.5,446,155.5z M445.9,143.7c-1.6,0-2.9-1.2-3-2.8l0-0.1c-0.1-1.7,1.2-3.1,2.8-3.2c0.1,0,0.1,0,0.2,0
		c1.6,0,2.9,1.2,3,2.8c0,0,0,0.1,0,0.1c0,0,0,0,0,0c0.1,1.6-1.2,3-2.8,3.1C446,143.7,445.9,143.7,445.9,143.7z M444.5,132.1
		c-1.4,0-2.7-1-2.9-2.4l0-0.1c-0.3-1.6,0.8-3.2,2.4-3.5c0.2,0,0.4-0.1,0.6-0.1c1.4,0,2.7,1,2.9,2.4c0,0,0,0,0,0.1c0,0,0,0,0,0.1
		c0.3,1.6-0.8,3.2-2.4,3.5C444.9,132.1,444.7,132.1,444.5,132.1z M441.5,120.8c-1.3,0-2.4-0.8-2.8-2l0-0.1c-0.5-1.6,0.3-3.3,1.9-3.8
		c0.3-0.1,0.6-0.2,1-0.2c1.3,0,2.4,0.8,2.8,2c0,0,0,0,0,0c0,0,0,0,0,0c0,0,0,0,0,0c0.5,1.6-0.3,3.3-1.9,3.8
		C442.2,120.7,441.9,120.8,441.5,120.8z M437.1,110c-1.1,0-2.2-0.6-2.7-1.7l0-0.1c-0.7-1.5-0.1-3.3,1.3-4c0.4-0.2,0.9-0.3,1.3-0.3
		c1.1,0,2.1,0.6,2.7,1.6c0,0,0,0.1,0.1,0.1c0,0,0,0,0,0c0.7,1.5,0.1,3.3-1.3,4C438,109.9,437.5,110,437.1,110z M431.2,99.9
		c-1,0-1.9-0.5-2.5-1.3l-0.1-0.1c-0.9-1.4-0.6-3.2,0.8-4.2c0.5-0.4,1.1-0.5,1.7-0.5c1,0,1.9,0.5,2.5,1.3c0,0,0,0.1,0.1,0.1
		c0.9,1.4,0.6,3.2-0.8,4.2C432.3,99.7,431.7,99.9,431.2,99.9z M423.9,90.7c-0.8,0-1.6-0.3-2.2-1l-0.1-0.1c-1.1-1.2-1-3.1,0.2-4.2
		c0.6-0.5,1.3-0.8,2-0.8c0.8,0,1.6,0.3,2.2,1c0,0,0,0,0.1,0.1v0c0,0,0,0,0,0c1.1,1.2,1,3.1-0.2,4.2
		C425.4,90.4,424.7,90.7,423.9,90.7z M415.5,82.5c-0.7,0-1.4-0.2-1.9-0.7l-0.1-0.1c-1.3-1.1-1.4-3-0.4-4.2c0.6-0.7,1.4-1.1,2.3-1.1
		c0.7,0,1.4,0.2,1.9,0.7c0,0,0,0,0,0c0,0,0,0,0,0c1.3,1.1,1.4,3,0.3,4.2C417.2,82.2,416.4,82.5,415.5,82.5z M406.1,75.6
		c-0.6,0-1.1-0.2-1.6-0.5l-0.1-0.1c-1.4-0.9-1.8-2.7-0.9-4.1c0.6-0.9,1.5-1.4,2.5-1.4c0.6,0,1.1,0.2,1.6,0.5c0,0,0,0,0.1,0
		c0,0,0,0,0,0c1.4,0.9,1.8,2.7,0.9,4.1C408.1,75.1,407.1,75.6,406.1,75.6z M395.9,70c-0.4,0-0.8-0.1-1.3-0.3l-0.1,0
		c-1.5-0.7-2.2-2.5-1.5-4c0.5-1.1,1.6-1.8,2.7-1.8c0.4,0,0.8,0.1,1.2,0.3c0,0,0.1,0,0.1,0.1c1.5,0.7,2.2,2.5,1.5,4
		C398.1,69.4,397,70,395.9,70z M384.9,65.9c-0.3,0-0.6,0-0.9-0.1l-0.1,0c-1.6-0.5-2.5-2.2-2-3.7c0.4-1.3,1.6-2.1,2.9-2.1
		c0.3,0,0.6,0,0.8,0.1c0,0,0,0,0,0c0,0,0,0,0.1,0c0,0,0,0,0,0c1.6,0.5,2.5,2.2,2,3.7C387.4,65,386.2,65.9,384.9,65.9z M373.5,63.3
		c-0.2,0-0.3,0-0.5,0l-0.1,0c-1.6-0.3-2.8-1.8-2.5-3.4c0.2-1.5,1.5-2.5,3-2.5c0.1,0,0.3,0,0.4,0c0.1,0,0.1,0,0.2,0
		c1.6,0.3,2.7,1.8,2.5,3.4C376.3,62.2,375,63.3,373.5,63.3z M361.9,62.2C361.9,62.2,361.8,62.2,361.9,62.2l-0.2,0
		c-1.7,0-3-1.4-2.9-3.1c0-1.6,1.4-2.9,3-2.9c0,0,0,0,0.1,0c0,0,0.1,0,0.1,0c0,0,0,0,0,0c1.7,0,3,1.4,2.9,3.1
		C364.8,60.9,363.5,62.2,361.9,62.2z M350.1,62.8c-1.5,0-2.8-1.1-3-2.7c-0.2-1.6,1-3.1,2.6-3.3c0,0,0,0,0.1,0c0,0,0.1,0,0.1,0
		c0.1,0,0.2,0,0.3,0c1.5,0,2.8,1.1,3,2.7c0.2,1.6-1,3.1-2.6,3.3l-0.1,0C350.3,62.8,350.2,62.8,350.1,62.8z M338.6,64.9
		c-1.3,0-2.6-0.9-2.9-2.3c-0.4-1.6,0.6-3.2,2.2-3.6c0,0,0,0,0,0c0,0,0,0,0,0c0,0,0,0,0.1,0c0.2-0.1,0.5-0.1,0.7-0.1
		c1.3,0,2.6,0.9,2.9,2.3c0.4,1.6-0.6,3.2-2.2,3.6l-0.1,0C339.1,64.9,338.8,64.9,338.6,64.9z M327.5,68.6c-1.2,0-2.3-0.7-2.8-1.9
		c-0.6-1.5,0.1-3.3,1.6-3.9c0,0,0,0,0,0c0,0,0,0,0.1,0c0,0,0,0,0,0c0.4-0.2,0.8-0.2,1.1-0.2c1.2,0,2.3,0.7,2.8,1.9
		c0.6,1.5-0.1,3.3-1.6,3.9l-0.1,0C328.2,68.5,327.9,68.6,327.5,68.6z M317,73.7c-1,0-2-0.5-2.6-1.5c-0.8-1.4-0.3-3.3,1.1-4.1
		c0,0,0,0,0,0c0,0,0,0,0.1,0c0,0,0,0,0,0c0.5-0.3,1-0.4,1.5-0.4c1,0,2,0.5,2.6,1.5c0.8,1.4,0.3,3.3-1.1,4.1l-0.1,0.1
		C318,73.6,317.5,73.7,317,73.7z M307.3,80.2c-0.9,0-1.8-0.4-2.4-1.2c-1-1.3-0.8-3.2,0.5-4.2c0,0,0.1-0.1,0.1-0.1
		c0.5-0.4,1.2-0.6,1.8-0.6c0.9,0,1.8,0.4,2.4,1.2c1,1.3,0.8,3.2-0.5,4.2l-0.1,0.1C308.6,80,307.9,80.2,307.3,80.2z M298.6,88
		c-0.8,0-1.5-0.3-2.1-0.9c-1.2-1.2-1.2-3.1,0-4.2c0,0,0,0,0,0c0,0,0,0,0,0c0,0,0,0,0,0c0.6-0.6,1.4-0.9,2.1-0.9
		c0.8,0,1.5,0.3,2.1,0.9c1.2,1.2,1.2,3.1,0,4.2l-0.1,0.1C300.1,87.7,299.3,88,298.6,88z M290.9,96.9c-0.6,0-1.3-0.2-1.8-0.6
		c-1.3-1-1.6-2.9-0.6-4.2c0,0,0.1-0.1,0.1-0.1c0.6-0.8,1.5-1.2,2.4-1.2c0.6,0,1.3,0.2,1.8,0.6c1.3,1,1.6,2.9,0.6,4.2l-0.1,0.1
		C292.8,96.5,291.9,96.9,290.9,96.9z M284.6,106.7c-0.5,0-1-0.1-1.4-0.4c-1.5-0.8-2-2.6-1.2-4.1c0,0,0,0,0,0c0,0,0,0,0-0.1
		c0,0,0,0,0,0c0.5-1,1.6-1.5,2.6-1.5c0.5,0,1,0.1,1.4,0.4c1.4,0.8,2,2.6,1.2,4.1l-0.1,0.1C286.7,106.2,285.7,106.7,284.6,106.7z
		 M279.7,117.3c-0.4,0-0.7-0.1-1.1-0.2c-1.5-0.6-2.3-2.3-1.7-3.9c0,0,0,0,0,0c0,0,0,0,0,0c0,0,0,0,0,0c0.5-1.2,1.6-1.9,2.8-1.9
		c0.4,0,0.7,0.1,1.1,0.2c1.5,0.6,2.3,2.3,1.7,3.9l0,0.1C282,116.6,280.9,117.3,279.7,117.3z M276.2,128.5c-0.2,0-0.5,0-0.7-0.1
		c-1.6-0.4-2.6-2-2.2-3.6c0,0,0-0.1,0-0.1c0.3-1.4,1.6-2.3,2.9-2.3c0.2,0,0.5,0,0.7,0.1c1.6,0.4,2.6,2,2.2,3.6l0,0.1
		C278.8,127.6,277.6,128.5,276.2,128.5z M274.4,140c-0.1,0-0.2,0-0.3,0c-1.6-0.2-2.9-1.6-2.7-3.3c0,0,0,0,0,0c0,0,0-0.1,0-0.1
		c0.1-1.6,1.5-2.7,3-2.7c0.1,0,0.2,0,0.3,0c1.7,0.2,2.9,1.6,2.7,3.3l0,0.1C277.2,138.9,275.9,140,274.4,140z M274.1,151.7
		c-1.6,0-2.9-1.3-3-2.9c0,0,0,0,0,0c0,0,0-0.1,0-0.1c-0.1-1.7,1.2-3.1,2.9-3.1c0,0,0.1,0,0.1,0c1.6,0,2.9,1.3,3,2.9l0,0.1
		c0.1,1.7-1.2,3.1-2.9,3.1C274.1,151.7,274.1,151.7,274.1,151.7z M274,163.8c-1.7,0-3-1.3-3-3v-0.1c0-1.7,1.3-3,3-3c1.7,0,3,1.3,3,3
		v0.1C277,162.5,275.7,163.8,274,163.8z M274,176c-1.7,0-3-1.3-3-3v-0.1c0-1.7,1.3-3,3-3c1.7,0,3,1.3,3,3v0.1
		C277,174.6,275.7,176,274,176z M274,188.1c-1.7,0-3-1.3-3-3V185c0-1.7,1.3-3,3-3c1.7,0,3,1.3,3,3v0.1
		C277,186.7,275.7,188.1,274,188.1z M274,200.2c-1.7,0-3-1.3-3-3v-0.1c0-1.7,1.3-3,3-3c1.7,0,3,1.3,3,3v0.1
		C277,198.8,275.7,200.2,274,200.2z M274,212.3c-1.7,0-3-1.3-3-3v-0.1c0-1.7,1.3-3,3-3c1.7,0,3,1.3,3,3v0.1
		C277,210.9,275.7,212.3,274,212.3z"/>
	<rect y="0" class="st2" width="720" height="1036.5"/>
	<g id="形状_2_副本_2_">
		<g>
			<rect x="190" y="765.5" class="st3" width="339.9" height="2.3"/>
		</g>
	</g>
	<g id="形状_2_2_">
		<g>
			<rect x="190" y="253.6" class="st3" width="339.9" height="2.3"/>
		</g>
	</g>
	<g>
		<path class="st1" d="M536.4,577c-1-0.7-1.9-1-2.8-1c-0.8,0-1.5,0.2-2.1,0.7c-0.6,0.5-1,1.4-1.4,2.6c-0.3,1.3-0.5,3.9-0.5,8v7.4
			h-5.9v-23.9h5.5v3.4c0.9-1.6,1.8-2.7,2.5-3.2c0.8-0.5,1.6-0.8,2.6-0.8c1.4,0,2.7,0.4,3.9,1.2L536.4,577z M512.7,577.4
			c-1-1.3-2.3-1.9-3.9-1.9c-1.5,0-2.8,0.6-3.9,1.9c-1.1,1.3-1.6,3.1-1.6,5.4c0,2.4,0.5,4.2,1.6,5.4c1.1,1.3,2.4,1.9,3.9,1.9
			c1.5,0,2.8-0.6,3.9-1.9c1-1.3,1.6-3.1,1.6-5.5C514.3,580.4,513.8,578.6,512.7,577.4z M517.1,591.7c-2.2,2.4-4.9,3.6-8.3,3.6
			c-2.1,0-4-0.5-5.9-1.5c-1.9-1-3.3-2.4-4.3-4.3c-1-1.9-1.5-4.2-1.5-7c0-2.1,0.5-4.1,1.5-6.1c1-2,2.3-3.5,4.1-4.5
			c1.8-1,3.8-1.6,6-1.6c3.4,0,6.2,1.2,8.3,3.5c2.2,2.3,3.3,5.3,3.3,8.9C520.4,586.3,519.3,589.3,517.1,591.7z M488,594.7v-3.6
			c-0.8,1.3-1.9,2.3-3.2,3c-1.3,0.7-2.7,1.1-4.2,1.1c-1.5,0-2.9-0.4-4.1-1.1c-1.2-0.7-2.1-1.7-2.6-3c-0.5-1.3-0.8-3-0.8-5.3v-15.1
			h5.9v11c0,3.4,0.1,5.4,0.3,6.2c0.2,0.8,0.6,1.4,1.2,1.8c0.6,0.4,1.3,0.7,2.2,0.7c1,0,1.9-0.3,2.7-0.9c0.8-0.6,1.4-1.3,1.6-2.2
			c0.3-0.9,0.4-3,0.4-6.4v-10.1h5.9v23.9H488z M461.4,577c-0.9-1.2-2.1-1.8-3.5-1.8c-1.4,0-2.6,0.6-3.6,1.8c-1,1.2-1.4,3.1-1.4,5.8
			c0,2.6,0.5,4.5,1.4,5.7c0.9,1.2,2.1,1.7,3.4,1.7c1.4,0,2.6-0.7,3.6-2c1-1.3,1.5-3.2,1.5-5.8C462.8,580.1,462.3,578.2,461.4,577z
			 M462.6,603.8v-12c-0.8,1.1-1.7,1.9-2.9,2.5c-1.2,0.6-2.4,0.9-3.7,0.9c-2.5,0-4.6-1-6.3-3.1c-1.9-2.4-2.9-5.6-2.9-9.7
			c0-3.8,0.9-6.8,2.7-9c1.8-2.1,4.1-3.2,6.8-3.2c1.5,0,2.8,0.3,3.9,1c1.1,0.7,2.1,1.7,2.9,3.1v-3.5h5.5v32.9H462.6z M437,561.8h5.9
			v5.8H437V561.8z M437,594.7v-23.9h5.9v23.9H437z M411.9,594.7v-32.7h6.3v27.1h15.5v5.5H411.9z M388.7,577
			c-0.9-1.2-2.1-1.8-3.6-1.8c-1.4,0-2.6,0.6-3.5,1.8c-0.9,1.2-1.4,3-1.4,5.3c0,2.5,0.3,4.4,1,5.5c1,1.6,2.3,2.5,4,2.5
			c1.4,0,2.5-0.6,3.5-1.9c1-1.2,1.4-3.1,1.4-5.5C390.1,580.1,389.6,578.2,388.7,577z M390.5,594.7v-3.5c-0.9,1.4-2,2.4-3.2,3
			c-1.2,0.7-2.5,1-3.8,1c-2.6,0-4.8-1.1-6.6-3.3c-1.8-2.2-2.8-5.3-2.8-9.2c0-4,0.9-7.1,2.7-9.2c1.8-2.1,4-3.2,6.8-3.2
			c2.5,0,4.7,1.1,6.5,3.3v-11.9h5.9v32.9H390.5z M364.6,594.7v-12.2c0-2.6-0.1-4.2-0.4-5c-0.3-0.8-0.7-1.3-1.2-1.8
			c-0.6-0.4-1.3-0.6-2.1-0.6c-1,0-2,0.3-2.8,0.9c-0.8,0.6-1.4,1.4-1.7,2.4c-0.3,1-0.5,2.8-0.5,5.5v10.8H350v-23.9h5.5v3.5
			c2-2.7,4.4-4,7.4-4c1.3,0,2.5,0.3,3.6,0.8c1.1,0.5,1.9,1.1,2.5,1.9c0.6,0.8,0.9,1.7,1.2,2.6c0.2,1,0.3,2.4,0.3,4.2v14.8H364.6z
			 M339.5,583.3c-0.8,0.3-2,0.6-3.6,1c-1.6,0.4-2.7,0.7-3.2,1.1c-0.8,0.6-1.2,1.3-1.2,2.2c0,0.9,0.3,1.6,0.9,2.3
			c0.6,0.6,1.4,1,2.4,1c1.1,0,2.1-0.4,3.1-1.1c0.7-0.6,1.2-1.3,1.4-2.1c0.2-0.5,0.2-1.6,0.2-3.1V583.3z M346.6,594.7h-5.9
			c-0.2-0.4-0.3-1-0.6-1.9c-0.1-0.4-0.2-0.6-0.2-0.7c-1,1-2.1,1.8-3.3,2.4c-1.2,0.5-2.4,0.8-3.7,0.8c-2.3,0-4.1-0.7-5.5-2
			c-1.3-1.3-2-3-2-5.1c0-1.3,0.3-2.5,0.9-3.6c0.6-1.1,1.5-1.9,2.5-2.4c1.1-0.6,2.7-1.1,4.7-1.5c2.8-0.6,4.7-1.1,5.8-1.6v-0.6
			c0-1.2-0.3-2.1-0.8-2.6c-0.6-0.5-1.6-0.8-3.2-0.8c-1.1,0-1.9,0.2-2.5,0.7c-0.6,0.4-1.1,1.2-1.4,2.3l-5.4-1c0.6-2.3,1.6-4,3.1-5.1
			c1.5-1.1,3.7-1.7,6.6-1.7c2.6,0,4.6,0.3,5.9,1c1.3,0.7,2.2,1.5,2.7,2.5c0.5,1,0.8,2.9,0.8,5.6l-0.1,7.4c0,2.1,0.1,3.6,0.3,4.6
			C345.7,592.5,346.1,593.6,346.6,594.7z M305.2,576.6c-0.8-1-1.9-1.4-3.1-1.4c-1.3,0-2.4,0.5-3.2,1.5c-0.8,1-1.3,2.4-1.2,4.1h8.9
			C306.5,578.9,306.1,577.5,305.2,576.6z M297.6,584.6c0,1.9,0.5,3.3,1.4,4.4c0.9,1,2.1,1.6,3.4,1.6c0.9,0,1.7-0.3,2.3-0.8
			c0.6-0.5,1.1-1.4,1.4-2.6l5.9,1.1c-0.8,2.3-2,4.1-3.6,5.3c-1.6,1.2-3.7,1.8-6.2,1.8c-3.9,0-6.8-1.4-8.7-4.1
			c-1.5-2.2-2.2-4.9-2.2-8.2c0-4,1-7,2.9-9.3c1.9-2.2,4.4-3.4,7.4-3.4c3.3,0,6,1.2,7.9,3.5c1.9,2.3,2.9,5.9,2.8,10.8H297.6z
			 M282.2,576.6c-0.8-1-1.9-1.4-3.1-1.4c-1.3,0-2.4,0.5-3.2,1.5c-0.8,1-1.3,2.4-1.2,4.1h8.9C283.5,578.9,283.1,577.5,282.2,576.6z
			 M274.6,584.6c0,1.9,0.5,3.3,1.4,4.4c0.9,1,2.1,1.6,3.4,1.6c0.9,0,1.7-0.3,2.3-0.8c0.6-0.5,1.1-1.4,1.4-2.6l5.9,1.1
			c-0.8,2.3-2,4.1-3.6,5.3c-1.6,1.2-3.7,1.8-6.2,1.8c-3.9,0-6.8-1.4-8.7-4.1c-1.5-2.2-2.2-4.9-2.2-8.2c0-4,1-7,2.9-9.3
			c1.9-2.2,4.4-3.4,7.4-3.4c3.3,0,6,1.2,7.9,3.5c1.9,2.3,2.8,5.9,2.8,10.8H274.6z M268.7,566.4c-0.9-0.2-1.9-0.4-2.7-0.4
			c-0.9,0-1.5,0.2-1.8,0.6c-0.4,0.4-0.6,1.2-0.6,2.5v1.7h4.4v5h-4.4v18.9h-5.9v-18.9h-3.3v-5h3.3v-1.8c0-2,0.2-3.5,0.6-4.5
			c0.4-1,1.1-1.8,2.2-2.4c1.1-0.6,2.4-0.9,4.1-0.9c1.7,0,3.3,0.3,5,0.8L268.7,566.4z M255.4,566.4c-0.9-0.2-1.8-0.4-2.7-0.4
			c-0.9,0-1.5,0.2-1.8,0.6c-0.4,0.4-0.6,1.2-0.6,2.5v1.7h4.4v5h-4.4v18.9h-5.9v-18.9H241v-5h3.3v-1.8c0-2,0.2-3.5,0.6-4.5
			c0.4-1,1.1-1.8,2.2-2.4c1.1-0.6,2.4-0.9,4.1-0.9c1.7,0,3.3,0.3,5,0.8L255.4,566.4z M232.4,577.4c-1-1.3-2.3-1.9-3.9-1.9
			c-1.5,0-2.8,0.6-3.9,1.9c-1.1,1.3-1.6,3.1-1.6,5.4c0,2.4,0.5,4.2,1.6,5.4c1.1,1.3,2.4,1.9,3.9,1.9c1.5,0,2.8-0.6,3.9-1.9
			c1-1.3,1.6-3.1,1.6-5.5C234,580.4,233.4,578.6,232.4,577.4z M236.8,591.7c-2.2,2.4-4.9,3.6-8.3,3.6c-2.1,0-4-0.5-5.9-1.5
			c-1.9-1-3.3-2.4-4.3-4.3c-1-1.9-1.5-4.2-1.5-7c0-2.1,0.5-4.1,1.5-6.1c1-2,2.3-3.5,4.1-4.5c1.8-1,3.8-1.6,6-1.6
			c3.4,0,6.2,1.2,8.3,3.5c2.2,2.3,3.3,5.3,3.3,8.9C240.1,586.3,239,589.3,236.8,591.7z M205.5,568.4c-1.2-1-2.6-1.5-4.2-1.5
			c-2.3,0-4.2,0.9-5.6,2.6c-1.4,1.8-2.1,4.6-2.1,8.5c0,4.2,0.7,7.1,2.1,8.9c1.4,1.8,3.2,2.7,5.5,2.7c1.7,0,3.1-0.6,4.3-1.7
			c1.2-1.1,2.1-2.9,2.6-5.3l6.1,2c-0.9,3.6-2.5,6.3-4.6,8c-2.2,1.7-4.9,2.6-8.2,2.6c-4.1,0-7.5-1.5-10.1-4.5c-2.6-3-4-7.1-4-12.3
			c0-5.5,1.3-9.7,4-12.8c2.7-3,6.2-4.5,10.5-4.5c3.8,0,6.9,1.2,9.2,3.6c1.4,1.4,2.5,3.4,3.2,6.1l-6.2,1.6
			C207.4,570.7,206.6,569.4,205.5,568.4z"/>
		<path class="st1" d="M531.6,289.4c0-1.4-0.3-2.7-0.8-3.9c-0.5-1.2-1.2-2.3-2.1-3.1c-0.9-0.9-2-1.6-3.3-2.1
			c-1.3-0.5-2.7-0.8-4.2-0.8c-1.5,0-2.9,0.3-4.1,0.9c-1.2,0.6-2.2,1.3-3.1,2.3c-0.8,0.9-1.5,2-1.9,3.3c-0.5,1.3-0.7,2.6-0.7,3.9v0.1
			c0,1.4,0.2,2.6,0.7,3.8c0.5,1.2,1.2,2.1,2.1,3c0.9,0.8,1.9,1.5,3.1,2c1.2,0.5,2.5,0.7,4,0.7c1.6,0,3-0.3,4.2-0.9
			c1.3-0.6,2.3-1.3,3.2-2.3c0.9-0.9,1.6-2,2-3.2c0.5-1.2,0.7-2.4,0.7-3.6V289.4z M534.3,304.6c-0.8,2.6-1.8,4.8-3.1,6.7
			c-1.3,1.9-2.9,3.3-4.7,4.4c-1.8,1-3.8,1.6-5.9,1.6c-2.3,0-4.3-0.5-6.1-1.4c-1.8-0.9-3.4-2.1-4.9-3.5l1.7-2.2
			c1.6,1.5,3.1,2.6,4.6,3.3c1.5,0.7,3.1,1.1,4.8,1.1c1.8,0,3.5-0.5,5.1-1.5c1.5-1,2.8-2.4,3.9-4.2c1.1-1.8,1.9-3.9,2.5-6.4
			c0.6-2.5,0.8-5.2,0.7-8.1c-0.5,1-1.1,2-1.9,2.9c-0.7,0.9-1.5,1.7-2.5,2.4c-0.9,0.7-2,1.2-3.2,1.6c-1.2,0.4-2.5,0.6-3.9,0.6
			c-1.8,0-3.6-0.3-5.1-0.9c-1.6-0.6-2.9-1.5-4-2.5c-1.1-1.1-2-2.3-2.6-3.8c-0.6-1.4-0.9-3-0.9-4.7v-0.1c0-1.8,0.3-3.5,0.9-5.1
			c0.6-1.6,1.5-3,2.6-4.2c1.1-1.2,2.5-2.1,4.1-2.8c1.6-0.7,3.3-1,5.2-1c2,0,3.8,0.4,5.3,1.1c1.6,0.7,2.9,1.7,4,2.9
			c0.7,0.7,1.3,1.6,1.9,2.5c0.6,0.9,1.1,2,1.5,3.3c0.4,1.2,0.7,2.6,0.9,4.2c0.2,1.6,0.3,3.3,0.3,5.2v0.1
			C535.4,299.2,535,302,534.3,304.6z M498,316.6v-36.3l-7.1,2.6l-0.7-2.3l8.4-3.3h2.1v39.3H498z M481.9,316.6v-4.7h3.5v4.7H481.9z
			 M467.2,281.4l-17.5,23.1h17.5V281.4z M469.9,307v9.5h-2.6V307h-19.8l-0.9-2.2l20.9-27.6h2.5v27.3h6v2.5H469.9z M427.3,301.5v-3.1
			h14v3.1H427.3z M421.3,316.6h-25v-2.2l13.7-13.1c1.5-1.4,2.8-2.8,3.8-4c1-1.2,1.9-2.3,2.5-3.3c0.6-1,1.1-2,1.4-3
			c0.3-1,0.4-2,0.4-3c0-1.3-0.2-2.4-0.7-3.5c-0.5-1-1.1-1.9-1.8-2.6c-0.7-0.7-1.6-1.3-2.6-1.7c-1-0.4-2.1-0.6-3.1-0.6
			c-2.3,0-4.3,0.6-6,1.9c-1.6,1.2-3.2,3-4.8,5.4l-2-1.5c0.8-1.3,1.6-2.5,2.5-3.5c0.9-1,1.8-1.9,2.8-2.6c1-0.7,2.2-1.3,3.4-1.7
			c1.3-0.4,2.7-0.6,4.3-0.6c1.6,0,3,0.3,4.3,0.8c1.3,0.5,2.5,1.3,3.4,2.3c1,1,1.7,2.1,2.3,3.4c0.6,1.3,0.8,2.7,0.8,4.2v0.1
			c0,1.3-0.2,2.6-0.5,3.8c-0.3,1.2-0.9,2.3-1.6,3.5c-0.8,1.2-1.7,2.4-2.9,3.7c-1.2,1.3-2.5,2.7-4.1,4.2l-11.2,10.8h20.7V316.6z
			 M388.6,297c0-2.3-0.3-4.5-0.9-6.6c-0.6-2.1-1.4-4-2.5-5.6c-1.1-1.6-2.4-2.9-3.9-3.9c-1.5-1-3.2-1.5-5.1-1.5
			c-1.9,0-3.6,0.5-5.1,1.5c-1.5,1-2.8,2.3-3.9,3.9c-1.1,1.6-1.9,3.5-2.5,5.6c-0.6,2.1-0.9,4.3-0.9,6.6v0.1c0,2.3,0.3,4.5,0.9,6.6
			c0.6,2.1,1.4,4,2.5,5.6c1.1,1.6,2.4,2.9,3.9,3.9c1.5,1,3.2,1.5,5.1,1.5c1.9,0,3.6-0.5,5.1-1.5c1.5-1,2.8-2.3,3.9-3.9
			c1.1-1.6,1.9-3.5,2.5-5.6c0.6-2.1,0.9-4.3,0.9-6.6V297z M390.3,304.7c-0.7,2.5-1.7,4.6-3.1,6.4c-1.3,1.8-2.9,3.3-4.8,4.4
			c-1.9,1.1-4,1.6-6.3,1.6c-2.3,0-4.4-0.5-6.3-1.6c-1.9-1.1-3.5-2.5-4.8-4.4c-1.3-1.8-2.3-4-3-6.4c-0.7-2.4-1-5-1-7.7V297
			c0-2.7,0.4-5.2,1.1-7.7c0.7-2.5,1.7-4.6,3.1-6.4c1.3-1.8,2.9-3.3,4.8-4.4c1.9-1.1,4-1.6,6.3-1.6c2.3,0,4.4,0.5,6.3,1.6
			c1.9,1.1,3.5,2.5,4.8,4.4c1.3,1.8,2.3,4,3,6.4c0.7,2.4,1,5,1,7.7v0.1C391.4,299.7,391,302.3,390.3,304.7z M350.9,316.6v-4.7h3.5
			v4.7H350.9z M336.2,281.4l-17.5,23.1h17.5V281.4z M338.8,307v9.5h-2.6V307h-19.8l-0.9-2.2l20.9-27.6h2.5v27.3h6v2.5H338.8z
			 M306.2,316.6v-4.7h3.5v4.7H306.2z M298.9,309.4c-0.7,1.6-1.6,3-2.8,4.2c-1.2,1.2-2.6,2-4.3,2.7c-1.7,0.6-3.5,0.9-5.6,0.9
			c-2.8,0-5.3-0.5-7.5-1.6c-2.2-1.1-4.2-2.5-5.9-4.3l4-5c1.5,1.5,3,2.6,4.5,3.4c1.6,0.8,3.2,1.3,4.9,1.3c2.2,0,4-0.6,5.3-1.8
			c1.3-1.2,2-2.9,2-4.9v-0.1c0-2-0.7-3.6-2.1-4.8c-1.4-1.2-3.2-1.7-5.5-1.7c-1.3,0-2.5,0.2-3.7,0.5c-1.1,0.3-2.1,0.7-3.1,1.2
			l-3.9-2.7l1-19.1h21.9v6.1h-16.4l-0.6,9.2c0.9-0.3,1.8-0.6,2.6-0.8c0.9-0.2,1.9-0.3,3.2-0.3c1.8,0,3.5,0.3,5,0.8
			c1.6,0.5,2.9,1.3,4,2.3c1.1,1,2.1,2.3,2.7,3.9c0.7,1.5,1,3.3,1,5.4v0.1C299.9,306,299.6,307.8,298.9,309.4z M260,316.6v-32.4
			l-6.6,2l-1.4-5.6l9.8-3.3h4.5v39.3H260z M242.1,297c0-1.9-0.2-3.7-0.7-5.4c-0.5-1.7-1.1-3.2-1.9-4.4c-0.8-1.3-1.8-2.3-3-3
			c-1.2-0.7-2.5-1.1-3.9-1.1c-1.4,0-2.7,0.4-3.8,1.1c-1.1,0.7-2.1,1.7-2.9,3c-0.8,1.2-1.4,2.7-1.9,4.4c-0.4,1.7-0.7,3.5-0.7,5.4v0.1
			c0,1.9,0.2,3.7,0.7,5.4c0.4,1.7,1.1,3.2,1.9,4.4c0.8,1.3,1.8,2.3,3,3c1.2,0.7,2.4,1.1,3.9,1.1c1.4,0,2.7-0.4,3.8-1.1
			c1.1-0.7,2.1-1.7,2.9-3c0.8-1.2,1.4-2.7,1.9-4.4c0.4-1.7,0.7-3.5,0.7-5.4V297z M247.6,304.9c-0.8,2.5-1.9,4.6-3.2,6.4
			c-1.4,1.8-3.1,3.3-5.1,4.3c-2,1.1-4.2,1.6-6.6,1.6c-2.4,0-4.6-0.5-6.5-1.6c-2-1-3.6-2.5-5-4.3c-1.4-1.8-2.5-4-3.2-6.4
			c-0.8-2.4-1.1-5-1.1-7.8V297c0-2.8,0.4-5.4,1.2-7.9c0.8-2.5,1.9-4.6,3.2-6.4c1.4-1.8,3.1-3.3,5.1-4.3c2-1.1,4.2-1.6,6.6-1.6
			c2.4,0,4.6,0.5,6.5,1.6c2,1,3.6,2.5,5,4.3c1.4,1.8,2.5,4,3.2,6.4c0.8,2.4,1.2,5.1,1.2,7.8v0.1
			C248.8,299.8,248.4,302.4,247.6,304.9z M211.8,316.6h-26.5v-5.4l12.6-11.4c1.3-1.1,2.3-2.1,3.2-3c0.9-0.9,1.6-1.8,2.1-2.6
			c0.5-0.8,0.9-1.6,1.2-2.4c0.2-0.8,0.4-1.6,0.4-2.5c0-1.9-0.6-3.4-1.7-4.5c-1.1-1.1-2.5-1.6-4.2-1.6c-1.7,0-3.2,0.5-4.4,1.5
			c-1.3,1-2.6,2.4-4.1,4.4l-4.6-3.8c0.9-1.3,1.8-2.5,2.7-3.5c0.9-1,1.9-1.9,3-2.6c1.1-0.7,2.2-1.2,3.5-1.6c1.3-0.4,2.7-0.6,4.4-0.6
			c1.8,0,3.4,0.3,4.9,0.8c1.5,0.6,2.8,1.3,3.8,2.4c1.1,1,1.9,2.2,2.5,3.7c0.6,1.4,0.9,3,0.9,4.8v0.1c0,1.5-0.2,2.9-0.6,4.2
			c-0.4,1.2-1,2.4-1.8,3.6c-0.8,1.2-1.8,2.3-3,3.5c-1.2,1.2-2.6,2.5-4.2,3.9l-7.5,6.7h17.4V316.6z"/>
		<path class="st1" d="M472.5,519.2c-3,12.9-6,23.9-9,33c-4.1-1.4-8.1-2.6-11.8-3.5c3.1-9,6.2-20.2,9.4-33.5
			C465.8,517.1,469.6,518.4,472.5,519.2z M472.4,503l-7.9,9c-5-4.8-9.7-9-14-12.7l7-8.5C463.8,495.6,468.8,499.7,472.4,503z
			 M506.4,509v-10.5h-5.4c-0.3,9.4-2.9,17.4-7.8,24.1c-2.8-2.8-5.1-5.1-7.1-6.8v8.8h35v-5h-5.1C509.7,519.6,506.4,516.1,506.4,509z
			 M506.4,480.9h-5.1v8.2h5.1V480.9z M486.2,498.5V514c3.3-4.8,5-10,5.2-15.6H486.2z M486.2,539.8h35v-6.1h-35V539.8z M521.3,498.5
			H516v8.5c0,2.3,1.1,3.5,3.3,3.5h2V498.5z M516,480.9v8.2h16v64.6h-10.7v-4.4h-35v4.4h-10.7V489h16.3v-8.2h-18v-1.2l-7.6,8.2
			c-4.7-4.3-8.9-8.1-12.9-11.4l7.1-7.8c5.7,4.2,10.1,7.6,13.4,10.4v-8.1h60.9v9.8H516z M399,528.5h-34v-4.2h35.3
			c0.5-1.9,0.9-4.3,1.2-7.1h4.7c-0.4,3-0.8,5.4-1.2,7.1h37v4.2h-34.2c4.8,9.9,16.8,16.2,36,18.7c-1,1.4-1.9,3-2.7,4.7
			c-20.6-3.6-33.2-11-37.6-22.1c-3,11.3-15.8,19.1-38.3,23.3c-1.3-2.3-2.2-3.8-2.7-4.5C383.9,544.9,396.1,538.2,399,528.5z
			 M380.8,470.4l3.5-2.7c5.1,4.8,8.4,8.1,10.1,9.9l-3.9,2.9C388.3,478,385,474.6,380.8,470.4z M363.8,509.4h37.4v-10.1h-30.6v-4.1
			h30.6v-9.8h-34.8v-4.1h44.5c5.3-5.6,9.2-10.1,11.6-13.2l4.3,2.5c-3.8,4.3-7.1,7.8-9.9,10.7h23.7v4.1h-34.8v9.8h30.7v4.1h-30.7
			v10.1h37.4v4.1h-79.3V509.4z M288.5,527.6v-41.7h-4.8v41.7H288.5z M283.7,544.7H275V476h22.1v61.4h-13.5V544.7z M316.6,491.8h-4.9
			l-0.1,15.6c-0.1,6.2-0.5,12.1-1.2,17.6c-0.7,5.5-1.8,10.6-3.2,15.2c2.4,0.1,4.1,0.2,5.1,0.2c3,0,4.4-1.6,4.4-4.7V491.8z
			 M318,551.1c-2.4,0.2-5.3,0.2-8.7,0.2c-0.8-4.3-1.5-7.9-2.3-10.9c-1.6,5.1-3.5,9.7-5.9,13.7c-2.3-2-5.2-4-8.6-6.1
			c2.5-4,4.5-8.5,6-13.6c1.5-5.1,2.6-10.4,3.1-15.7c0.5-5.4,0.8-14.3,0.9-27h-3.2v-10.9h3.2l0.1-12.7h9.3l-0.2,12.7h14V540
			c0,3.5-0.7,6.2-2.1,8.1C322.3,550,320.4,551,318,551.1z M343.9,487.5h-4.6v44.7h4.6V487.5z M343.9,549.6v-6.2h-4.6v6.4h-9.2v-73.6
			h23v73.4H343.9z M247.2,532.7h-45.4v11.5h45.4V532.7z M247.2,517.4h-45.4v11.3h45.4V517.4z M251.8,552.2h-4.6v-3.8h-45.4v3.8h-4.5
			v-38.9h54.4V552.2z M265.3,510.4c-1.1,1.5-2,3-2.7,4.4c-16.4-5.1-28.3-12.1-35.7-20.7v15.6h-4.5v-15.6
			c-7.9,9.1-19.8,16.3-35.7,21.6c-0.5-0.9-1.4-2.4-2.8-4.3c14.2-4.2,25.5-10.1,34-17.8h-31.8v-4.1h36.3v-11.2
			c-11.9,0.4-21.5,0.6-28.8,0.6c-0.3-1.7-0.5-3.1-0.7-4.2c20.2-0.1,41-0.9,62.3-2.4l0.9,4.1c-10.1,0.8-19.9,1.3-29.2,1.7v11.4h36.5
			v4.1h-32.2C238.8,500.7,250.2,506.3,265.3,510.4z"/>
		<path class="st1" d="M529.8,717.7c-0.6-0.7-1.3-1-2.2-1c-0.9,0-1.7,0.4-2.3,1.1c-0.6,0.7-0.9,1.7-0.9,2.9h6.4
			C530.7,719.4,530.4,718.4,529.8,717.7z M524.3,723.5c0,1.3,0.4,2.4,1,3.1c0.7,0.7,1.5,1.1,2.5,1.1c0.7,0,1.2-0.2,1.7-0.6
			c0.5-0.4,0.8-1,1-1.9l4.2,0.8c-0.5,1.7-1.4,2.9-2.6,3.8c-1.2,0.9-2.6,1.3-4.4,1.3c-2.8,0-4.9-1-6.2-2.9c-1.1-1.6-1.6-3.5-1.6-5.9
			c0-2.8,0.7-5.1,2.1-6.7c1.4-1.6,3.2-2.4,5.3-2.4c2.4,0,4.3,0.8,5.7,2.5c1.4,1.7,2,4.3,2,7.7H524.3z M513.9,717.5
			c-0.5-0.5-1.1-0.7-1.9-0.7c-1.1,0-1.9,0.4-2.5,1.2c-0.6,0.8-0.9,2.1-0.9,3.9c0,2,0.3,3.5,1,4.3c0.6,0.8,1.5,1.3,2.6,1.3
			c0.8,0,1.5-0.2,2-0.7c0.5-0.5,0.9-1.3,1.1-2.5l4.2,0.8c-0.4,2-1.3,3.6-2.5,4.6c-1.2,1-2.9,1.6-5,1.6c-2.4,0-4.2-0.8-5.6-2.4
			c-1.4-1.6-2.1-3.8-2.1-6.6c0-2.8,0.7-5,2.1-6.6c1.4-1.6,3.3-2.4,5.7-2.4c2,0,3.5,0.4,4.7,1.3c1.2,0.9,2,2.3,2.5,4.1l-4.2,0.8
			C514.7,718.6,514.4,717.9,513.9,717.5z M497.5,730.7V722c0-1.8-0.1-3-0.3-3.6c-0.2-0.5-0.5-1-0.9-1.3c-0.4-0.3-0.9-0.5-1.5-0.5
			c-0.7,0-1.4,0.2-2,0.6c-0.6,0.4-1,1-1.2,1.7c-0.2,0.7-0.3,2-0.3,3.9v7.8h-4.3v-17.1h4v2.5c1.4-1.9,3.2-2.9,5.3-2.9
			c0.9,0,1.8,0.2,2.6,0.5c0.8,0.4,1.4,0.8,1.8,1.4c0.4,0.6,0.7,1.2,0.8,1.9c0.2,0.7,0.2,1.7,0.2,3v10.6H497.5z M479.8,722.5
			c-0.5,0.2-1.4,0.4-2.6,0.7c-1.2,0.3-2,0.5-2.3,0.8c-0.6,0.4-0.8,1-0.8,1.6c0,0.6,0.2,1.2,0.7,1.6c0.4,0.5,1,0.7,1.7,0.7
			c0.8,0,1.5-0.3,2.2-0.8c0.5-0.4,0.9-0.9,1-1.5c0.1-0.4,0.2-1.1,0.2-2.2V722.5z M484.9,730.7h-4.2c-0.1-0.3-0.2-0.7-0.4-1.3
			c-0.1-0.3-0.1-0.4-0.2-0.5c-0.7,0.8-1.5,1.3-2.3,1.7c-0.8,0.4-1.7,0.6-2.7,0.6c-1.7,0-3-0.5-3.9-1.4c-1-1-1.4-2.2-1.4-3.6
			c0-1,0.2-1.8,0.7-2.6c0.4-0.8,1-1.3,1.8-1.7c0.8-0.4,1.9-0.8,3.4-1.1c2-0.4,3.4-0.8,4.1-1.1v-0.5c0-0.9-0.2-1.5-0.6-1.9
			c-0.4-0.4-1.2-0.6-2.3-0.6c-0.8,0-1.3,0.2-1.8,0.5c-0.4,0.3-0.8,0.9-1,1.7l-3.9-0.7c0.4-1.7,1.2-2.9,2.2-3.7
			c1.1-0.8,2.6-1.2,4.7-1.2c1.9,0,3.3,0.2,4.2,0.7c0.9,0.5,1.6,1.1,2,1.8c0.4,0.7,0.6,2.1,0.6,4.1l0,5.3c0,1.5,0.1,2.6,0.2,3.3
			C484.3,729.1,484.6,729.9,484.9,730.7z M463.5,730.7v-9.8c0-1.7-0.1-2.8-0.4-3.3c-0.4-0.6-1-1-1.8-1c-0.6,0-1.2,0.2-1.7,0.6
			c-0.5,0.4-0.9,1-1.1,1.7c-0.2,0.7-0.3,1.9-0.3,3.5v8.2h-4.3v-9.4c0-1.7-0.1-2.7-0.2-3.2c-0.2-0.5-0.4-0.8-0.7-1.1
			c-0.3-0.2-0.7-0.4-1.3-0.4c-0.7,0-1.2,0.2-1.8,0.6c-0.5,0.4-0.9,0.9-1.1,1.6c-0.2,0.7-0.3,1.9-0.3,3.5v8.3h-4.3v-17.1h3.9v2.3
			c1.4-1.8,3.1-2.7,5-2.7c1,0,1.9,0.2,2.7,0.7c0.8,0.5,1.4,1.1,1.9,2c0.7-0.9,1.5-1.6,2.3-2c0.8-0.5,1.7-0.7,2.6-0.7
			c1.2,0,2.2,0.3,3,0.8c0.8,0.5,1.4,1.3,1.8,2.2c0.3,0.7,0.4,1.9,0.4,3.5v10.9H463.5z M442.4,718c-0.7-0.5-1.4-0.7-2-0.7
			c-0.6,0-1.1,0.2-1.5,0.5c-0.4,0.4-0.7,1-1,1.9c-0.2,0.9-0.4,2.8-0.4,5.7v5.3h-4.3v-17.1h4v2.4c0.7-1.1,1.3-1.9,1.8-2.3
			c0.5-0.4,1.2-0.5,1.8-0.5c1,0,1.9,0.3,2.8,0.9L442.4,718z M425.7,718.3c-0.8-0.9-1.7-1.4-2.8-1.4c-1.1,0-2,0.5-2.8,1.4
			c-0.8,0.9-1.1,2.2-1.1,3.9c0,1.7,0.4,3,1.1,3.9c0.8,0.9,1.7,1.4,2.8,1.4c1.1,0,2-0.5,2.8-1.4c0.8-0.9,1.1-2.2,1.1-3.9
			C426.8,720.4,426.5,719.2,425.7,718.3z M428.9,728.5c-1.6,1.7-3.5,2.6-5.9,2.6c-1.5,0-2.9-0.4-4.2-1.1c-1.3-0.7-2.4-1.8-3.1-3.1
			c-0.7-1.4-1-3-1-5c0-1.5,0.3-3,1-4.4c0.7-1.4,1.7-2.5,3-3.2c1.3-0.7,2.7-1.1,4.3-1.1c2.4,0,4.4,0.8,6,2.5c1.6,1.7,2.3,3.8,2.3,6.4
			C431.2,724.7,430.4,726.8,428.9,728.5z M414.8,710.4c-0.7-0.2-1.3-0.3-2-0.3c-0.6,0-1.1,0.2-1.3,0.5c-0.3,0.3-0.4,0.9-0.4,1.8v1.2
			h3.2v3.6h-3.2v13.6h-4.3v-13.6h-2.4v-3.6h2.4v-1.3c0-1.4,0.1-2.5,0.4-3.2c0.3-0.7,0.8-1.3,1.6-1.7c0.8-0.4,1.8-0.7,2.9-0.7
			c1.2,0,2.4,0.2,3.6,0.6L414.8,710.4z M404.3,718c-0.7-0.5-1.4-0.7-2-0.7c-0.6,0-1.1,0.2-1.5,0.5c-0.4,0.4-0.7,1-1,1.9
			c-0.2,0.9-0.4,2.8-0.4,5.7v5.3h-4.3v-17.1h4v2.4c0.7-1.1,1.3-1.9,1.8-2.3c0.5-0.4,1.2-0.5,1.8-0.5c1,0,1.9,0.3,2.8,0.9L404.3,718z
			 M387.8,717.7c-0.6-0.7-1.3-1-2.2-1c-0.9,0-1.7,0.4-2.3,1.1c-0.6,0.7-0.9,1.7-0.9,2.9h6.4C388.7,719.4,388.4,718.4,387.8,717.7z
			 M382.3,723.5c0,1.3,0.4,2.4,1,3.1c0.7,0.7,1.5,1.1,2.5,1.1c0.7,0,1.2-0.2,1.7-0.6c0.5-0.4,0.8-1,1-1.9l4.2,0.8
			c-0.5,1.7-1.4,2.9-2.6,3.8c-1.2,0.9-2.6,1.3-4.4,1.3c-2.8,0-4.9-1-6.2-2.9c-1.1-1.6-1.6-3.5-1.6-5.9c0-2.8,0.7-5.1,2.1-6.7
			c1.4-1.6,3.2-2.4,5.3-2.4c2.4,0,4.3,0.8,5.7,2.5c1.4,1.7,2,4.3,2,7.7H382.3z M371.3,712.3c-0.5-0.6-1.1-0.9-1.8-1
			c-0.5-0.1-1.6-0.2-3.2-0.2h-2.2v6.7h2.5c1.8,0,2.9-0.1,3.5-0.4c0.6-0.2,1.1-0.6,1.4-1.2c0.3-0.5,0.5-1.1,0.5-1.8
			C372,713.6,371.8,712.9,371.3,712.3z M375.9,718c-0.5,1-1.1,1.8-1.9,2.3c-0.8,0.6-1.5,0.9-2.3,1.1c-1.1,0.2-2.6,0.3-4.7,0.3h-2.9
			v8.9h-4.5v-23.6h7.2c2.7,0,4.5,0.1,5.3,0.4c1.3,0.4,2.3,1.1,3.2,2.3c0.9,1.2,1.3,2.7,1.3,4.6C376.6,715.8,376.4,717,375.9,718z
			 M337.2,719.9c-1,0.5-1.7,1.2-2.2,1.9c-0.5,0.7-0.7,1.5-0.7,2.3c0,1,0.3,1.8,0.9,2.4c0.6,0.6,1.4,0.9,2.4,0.9
			c0.7,0,1.3-0.1,1.9-0.4c0.6-0.3,1.3-0.7,2-1.4L337.2,719.9z M341.3,712c0-0.6-0.2-1.1-0.6-1.5c-0.4-0.4-1-0.6-1.7-0.6
			c-0.7,0-1.2,0.2-1.6,0.5c-0.4,0.4-0.6,0.8-0.6,1.2c0,0.6,0.3,1.2,1,2l1,1.3l1.2-0.9C340.8,713.4,341.3,712.7,341.3,712z
			 M345,719.4l3.8,0.9c-0.4,1.5-0.7,2.5-1,3.2c-0.3,0.7-0.6,1.2-0.9,1.7c0.5,0.5,1.1,1,1.8,1.6c0.8,0.6,1.3,0.9,1.7,1.1l-2.6,3.5
			c-1.3-0.7-2.5-1.6-3.6-2.7c-0.9,0.9-1.9,1.5-2.9,1.9c-1,0.4-2.2,0.6-3.6,0.6c-2.8,0-4.8-0.8-6.2-2.5c-1.1-1.3-1.6-2.8-1.6-4.4
			c0-1.5,0.4-2.9,1.3-4.1c0.8-1.2,2.1-2.3,3.8-3.2c-0.8-1-1.3-1.9-1.7-2.7c-0.4-0.9-0.6-1.7-0.6-2.5c0-1.4,0.5-2.6,1.6-3.6
			c1.1-1,2.6-1.5,4.6-1.5c1.9,0,3.4,0.5,4.5,1.6c1.1,1,1.6,2.3,1.6,3.8c0,1-0.3,1.9-0.8,2.7c-0.5,0.9-1.6,1.8-3.2,2.9l3.1,4.3
			C344.4,721.4,344.7,720.5,345,719.4z M314.9,718c-0.7-0.9-1.5-1.3-2.6-1.3c-1,0-1.9,0.4-2.5,1.3c-0.7,0.9-1,2.1-1,3.8
			c0,1.8,0.2,3.1,0.7,4c0.7,1.2,1.6,1.8,2.9,1.8c1,0,1.8-0.4,2.5-1.3c0.7-0.9,1-2.2,1-4C315.9,720.3,315.5,718.8,314.9,718z
			 M316.2,730.7v-2.5c-0.7,1-1.4,1.7-2.3,2.2c-0.9,0.5-1.8,0.7-2.7,0.7c-1.8,0-3.4-0.8-4.7-2.4c-1.3-1.6-2-3.8-2-6.6
			c0-2.9,0.6-5.1,1.9-6.6c1.3-1.5,2.9-2.3,4.9-2.3c1.8,0,3.4,0.8,4.7,2.4v-8.5h4.3v23.6H316.2z M297.9,730.7V722
			c0-1.8-0.1-3-0.3-3.6c-0.2-0.5-0.5-1-0.9-1.3c-0.4-0.3-0.9-0.5-1.5-0.5c-0.7,0-1.4,0.2-2,0.6c-0.6,0.4-1,1-1.2,1.7
			c-0.2,0.7-0.3,2-0.3,3.9v7.8h-4.3v-17.1h4v2.5c1.4-1.9,3.2-2.9,5.3-2.9c0.9,0,1.8,0.2,2.6,0.5c0.8,0.4,1.4,0.8,1.8,1.4
			c0.4,0.6,0.7,1.2,0.8,1.9c0.2,0.7,0.2,1.7,0.2,3v10.6H297.9z M280.2,722.5c-0.5,0.2-1.4,0.4-2.6,0.7c-1.2,0.3-2,0.5-2.3,0.8
			c-0.6,0.4-0.8,1-0.8,1.6c0,0.6,0.2,1.2,0.7,1.6c0.4,0.5,1,0.7,1.7,0.7c0.8,0,1.5-0.3,2.2-0.8c0.5-0.4,0.9-0.9,1-1.5
			c0.1-0.4,0.2-1.1,0.2-2.2V722.5z M285.3,730.7h-4.2c-0.1-0.3-0.2-0.7-0.4-1.3c-0.1-0.3-0.1-0.4-0.2-0.5c-0.7,0.8-1.5,1.3-2.3,1.7
			c-0.8,0.4-1.7,0.6-2.7,0.6c-1.7,0-3-0.5-3.9-1.4c-1-1-1.4-2.2-1.4-3.6c0-1,0.2-1.8,0.6-2.6c0.4-0.8,1-1.3,1.8-1.7
			c0.8-0.4,1.9-0.8,3.4-1.1c2-0.4,3.4-0.8,4.1-1.1v-0.5c0-0.9-0.2-1.5-0.6-1.9c-0.4-0.4-1.2-0.6-2.3-0.6c-0.8,0-1.3,0.2-1.8,0.5
			c-0.4,0.3-0.8,0.9-1,1.7l-3.9-0.7c0.4-1.7,1.2-2.9,2.2-3.7c1.1-0.8,2.6-1.2,4.7-1.2c1.9,0,3.3,0.2,4.2,0.7c0.9,0.5,1.6,1.1,2,1.8
			c0.4,0.7,0.6,2.1,0.6,4.1l0,5.3c0,1.5,0.1,2.6,0.2,3.3C284.7,729.1,284.9,729.9,285.3,730.7z M263.5,721.8
			c-0.3-0.5-0.8-0.9-1.4-1.1c-0.6-0.2-1.9-0.3-4-0.3h-3.6v6.3h4.2c1.6,0,2.6,0,3.1-0.1c0.7-0.1,1.2-0.4,1.6-0.9
			c0.4-0.5,0.6-1.2,0.6-2C264,722.9,263.9,722.3,263.5,721.8z M262.6,711.9c-0.4-0.5-0.9-0.7-1.7-0.8c-0.4-0.1-1.7-0.1-3.8-0.1h-2.6
			v5.5h2.9c1.7,0,2.8,0,3.3-0.1c0.8-0.1,1.4-0.4,1.8-0.8c0.4-0.5,0.7-1.1,0.7-1.8C263.2,713,263,712.4,262.6,711.9z M267.6,720.3
			c0.7,1,1.1,2.2,1.1,3.6c0,1.1-0.2,2.1-0.7,3.1c-0.5,1-1.1,1.8-1.9,2.4c-0.8,0.6-1.8,1-3,1.1c-0.7,0.1-2.6,0.1-5.4,0.2h-7.6v-23.6
			h8.9c1.8,0,3.1,0.1,3.9,0.2c0.9,0.2,1.6,0.5,2.3,1c0.7,0.5,1.2,1.1,1.7,2c0.5,0.8,0.7,1.7,0.7,2.8c0,1.1-0.3,2.1-0.8,3
			c-0.6,0.9-1.3,1.6-2.3,2.1C265.8,718.6,266.8,719.3,267.6,720.3z M234.9,717.7c-0.6-0.7-1.3-1-2.2-1c-0.9,0-1.7,0.4-2.3,1.1
			c-0.6,0.7-0.9,1.7-0.9,2.9h6.4C235.8,719.4,235.5,718.4,234.9,717.7z M229.4,723.5c0,1.3,0.4,2.4,1,3.1c0.7,0.7,1.5,1.1,2.5,1.1
			c0.7,0,1.2-0.2,1.7-0.6c0.5-0.4,0.8-1,1-1.9l4.2,0.8c-0.5,1.7-1.4,2.9-2.6,3.8c-1.2,0.9-2.6,1.3-4.4,1.3c-2.8,0-4.9-1-6.2-2.9
			c-1.1-1.6-1.6-3.5-1.6-5.9c0-2.8,0.7-5.1,2.1-6.7c1.4-1.6,3.2-2.4,5.3-2.4c2.4,0,4.3,0.8,5.7,2.5c1.4,1.7,2,4.3,2,7.7H229.4z
			 M218.4,730.7h-3.8l-6.5-17.1h4.5l3,8.7l0.9,2.9c0.2-0.7,0.4-1.2,0.4-1.5c0.1-0.5,0.3-1,0.5-1.5l3.1-8.7h4.4L218.4,730.7z
			 M202.6,707.1h4.3v4.2h-4.3V707.1z M202.6,730.7v-17.1h4.3v17.1H202.6z M184.9,730.7v-23.4h4.5v19.4h11.1v4H184.9z"/>
		<path class="st1" d="M525.7,455.7v-11.1c0-2.4-0.1-3.9-0.3-4.6c-0.2-0.7-0.6-1.2-1.1-1.6c-0.5-0.4-1.1-0.6-1.9-0.6
			c-0.9,0-1.8,0.3-2.5,0.8c-0.7,0.5-1.3,1.3-1.5,2.2c-0.3,0.9-0.4,2.6-0.4,5v9.9h-5.4v-21.8h5v3.2c1.8-2.5,4-3.7,6.7-3.7
			c1.2,0,2.3,0.2,3.3,0.7c1,0.5,1.7,1,2.2,1.8c0.5,0.7,0.9,1.5,1.1,2.4c0.2,0.9,0.3,2.2,0.3,3.9v13.5H525.7z M501.2,439.9
			c-1-1.1-2.1-1.7-3.6-1.7c-1.4,0-2.6,0.6-3.6,1.7c-1,1.1-1.4,2.8-1.4,5c0,2.2,0.5,3.8,1.4,5c1,1.1,2.2,1.7,3.6,1.7
			c1.4,0,2.6-0.6,3.6-1.7c1-1.1,1.4-2.8,1.4-5C502.7,442.6,502.2,441,501.2,439.9z M505.2,453c-2,2.2-4.5,3.3-7.5,3.3
			c-1.9,0-3.7-0.5-5.4-1.4c-1.7-0.9-3-2.2-3.9-4c-0.9-1.7-1.3-3.9-1.3-6.4c0-1.9,0.4-3.8,1.3-5.6c0.9-1.8,2.1-3.2,3.8-4.1
			c1.6-0.9,3.4-1.4,5.4-1.4c3.1,0,5.6,1.1,7.6,3.2c2,2.1,3,4.8,3,8.1C508.2,448.1,507.2,450.8,505.2,453z M477.4,425.7h5.4v5.3h-5.4
			V425.7z M477.4,455.7v-21.8h5.4v21.8H477.4z M469.9,447.3c0,1.8,0,2.8,0.1,3.1c0.1,0.3,0.2,0.5,0.5,0.7c0.2,0.2,0.6,0.3,0.9,0.3
			c0.5,0,1.2-0.2,2.2-0.6l0.5,4.5c-1.3,0.6-2.7,0.9-4.3,0.9c-1,0-1.9-0.2-2.6-0.5c-0.8-0.3-1.4-0.8-1.7-1.4
			c-0.4-0.6-0.6-1.3-0.8-2.2c-0.1-0.7-0.2-2-0.2-4.1v-9.5H462v-4.6h2.5v-4.3l5.4-3.4v7.7h3.7v4.6h-3.7V447.3z M453.6,445.3
			c-0.7,0.2-1.8,0.5-3.3,0.9c-1.5,0.3-2.5,0.7-2.9,1c-0.7,0.5-1.1,1.2-1.1,2c0,0.8,0.3,1.5,0.8,2.1c0.6,0.6,1.3,0.9,2.2,0.9
			c1,0,1.9-0.3,2.8-1c0.7-0.5,1.1-1.2,1.3-1.9c0.1-0.5,0.2-1.4,0.2-2.8V445.3z M460.1,455.7h-5.4c-0.1-0.4-0.3-0.9-0.5-1.7
			c-0.1-0.3-0.2-0.6-0.2-0.7c-0.9,1-1.9,1.7-3,2.2c-1.1,0.5-2.2,0.7-3.4,0.7c-2.1,0-3.8-0.6-5-1.8c-1.2-1.2-1.8-2.8-1.8-4.6
			c0-1.2,0.3-2.3,0.8-3.3c0.6-1,1.3-1.7,2.3-2.2s2.4-1,4.3-1.3c2.5-0.5,4.3-1,5.3-1.4v-0.6c0-1.1-0.3-1.9-0.8-2.4
			c-0.5-0.5-1.5-0.7-2.9-0.7c-1,0-1.7,0.2-2.3,0.6c-0.5,0.4-1,1.1-1.3,2.1l-4.9-0.9c0.6-2.1,1.5-3.7,2.9-4.7c1.3-1,3.4-1.5,6-1.5
			c2.4,0,4.2,0.3,5.4,0.9c1.2,0.6,2,1.4,2.5,2.3c0.5,0.9,0.7,2.7,0.7,5.2l-0.1,6.7c0,1.9,0.1,3.3,0.3,4.2
			C459.3,453.7,459.6,454.7,460.1,455.7z M438.3,439.6c-0.9-0.6-1.8-0.9-2.5-0.9c-0.8,0-1.4,0.2-1.9,0.7c-0.5,0.4-0.9,1.2-1.2,2.4
			c-0.3,1.2-0.5,3.6-0.5,7.3v6.7h-5.4v-21.8h5v3.1c0.9-1.5,1.6-2.4,2.3-2.9c0.7-0.5,1.5-0.7,2.3-0.7c1.2,0,2.4,0.4,3.6,1.1
			L438.3,439.6z M415.9,425.7h5.4v5.3h-5.4V425.7z M415.9,455.7v-21.8h5.4v21.8H415.9z M404.8,439.7c-0.9-1.1-1.9-1.7-3.2-1.7
			c-1.3,0-2.4,0.5-3.3,1.6c-0.9,1.1-1.3,2.7-1.3,4.8c0,2.4,0.5,4.3,1.4,5.4c0.9,1.2,2,1.8,3.3,1.8c1.3,0,2.3-0.5,3.1-1.6
			c0.8-1.1,1.3-2.8,1.3-5.3C406.1,442.5,405.7,440.8,404.8,439.7z M409.1,453.2c-1.7,2-3.7,3-6.1,3c-1.1,0-2.2-0.2-3.1-0.7
			c-0.9-0.5-1.9-1.3-2.9-2.5v11h-5.4v-30.1h5.1v3.2c0.7-1.1,1.5-2,2.7-2.7c1.1-0.7,2.4-1,3.7-1c2.4,0,4.4,1,6.1,3
			c1.7,2,2.5,4.7,2.5,8.3C411.6,448.3,410.8,451.2,409.1,453.2z M380,438.3c-0.6-0.5-1.5-0.7-2.6-0.7c-1.4,0-2.4,0.2-3.1,0.6
			c-0.4,0.3-0.6,0.7-0.6,1.2c0,0.4,0.2,0.8,0.5,1c0.5,0.4,2.2,0.9,5.1,1.6c2.9,0.7,4.9,1.6,6,2.6c1.1,1,1.7,2.5,1.7,4.3
			c0,2-0.8,3.7-2.4,5.1c-1.6,1.4-3.9,2.2-7,2.2c-2.8,0-5-0.6-6.6-1.8c-1.6-1.2-2.7-2.8-3.2-4.9l5.4-0.9c0.2,1.1,0.7,2,1.4,2.6
			c0.7,0.6,1.7,0.9,3,0.9c1.4,0,2.5-0.3,3.2-0.8c0.5-0.4,0.7-0.9,0.7-1.5c0-0.4-0.1-0.8-0.4-1.1c-0.3-0.3-0.9-0.5-1.8-0.8
			c-4.4-1-7.1-2-8.3-2.8c-1.6-1.2-2.4-2.8-2.4-4.9c0-1.9,0.7-3.5,2.1-4.8c1.4-1.3,3.6-1.9,6.5-1.9c2.8,0,4.9,0.5,6.2,1.5
			c1.4,1,2.3,2.4,2.8,4.3l-5.1,1C381.1,439.4,380.6,438.7,380,438.3z M359,455.7v-11.1c0-2.4-0.1-3.9-0.3-4.6
			c-0.2-0.7-0.6-1.2-1.1-1.6c-0.5-0.4-1.1-0.6-1.9-0.6c-0.9,0-1.8,0.3-2.5,0.8c-0.7,0.5-1.3,1.3-1.5,2.2c-0.3,0.9-0.4,2.6-0.4,5v9.9
			h-5.4v-21.8h5v3.2c1.8-2.5,4-3.7,6.7-3.7c1.2,0,2.3,0.2,3.3,0.7c1,0.5,1.7,1,2.2,1.8c0.5,0.7,0.9,1.5,1.1,2.4
			c0.2,0.9,0.3,2.2,0.3,3.9v13.5H359z M334.6,455.7v-30.1h5.7v30.1H334.6z M313.1,438.8c-0.6-0.6-1.5-0.9-2.5-0.9
			c-1.3,0-2.4,0.5-3.2,1.5c-0.8,1-1.2,2.7-1.2,5c0,2.6,0.4,4.4,1.2,5.5c0.8,1.1,1.9,1.6,3.3,1.6c1,0,1.9-0.3,2.5-0.9
			c0.7-0.6,1.1-1.7,1.4-3.2l5.3,1c-0.6,2.6-1.6,4.6-3.2,5.9c-1.6,1.3-3.7,2-6.3,2c-3,0-5.4-1-7.2-3c-1.8-2-2.7-4.8-2.7-8.3
			c0-3.6,0.9-6.4,2.7-8.4c1.8-2,4.2-3,7.2-3c2.5,0,4.5,0.6,5.9,1.7c1.5,1.1,2.5,2.9,3.2,5.2l-5.3,1
			C314.2,440.3,313.8,439.4,313.1,438.8z M290.9,425.7h5.4v5.3h-5.4V425.7z M290.9,455.7v-21.8h5.4v21.8H290.9z M283.4,447.3
			c0,1.8,0,2.8,0.1,3.1c0.1,0.3,0.2,0.5,0.5,0.7c0.2,0.2,0.6,0.3,0.9,0.3c0.5,0,1.2-0.2,2.2-0.6l0.5,4.5c-1.3,0.6-2.7,0.9-4.3,0.9
			c-1,0-1.9-0.2-2.6-0.5c-0.8-0.3-1.4-0.8-1.7-1.4c-0.4-0.6-0.6-1.3-0.8-2.2c-0.1-0.7-0.2-2-0.2-4.1v-9.5h-2.5v-4.6h2.5v-4.3
			l5.4-3.4v7.7h3.7v4.6h-3.7V447.3z M266,438.3c-0.6-0.5-1.5-0.7-2.6-0.7c-1.4,0-2.4,0.2-3.1,0.6c-0.4,0.3-0.6,0.7-0.6,1.2
			c0,0.4,0.2,0.8,0.5,1c0.5,0.4,2.2,0.9,5.1,1.6c2.9,0.7,4.9,1.6,6,2.6c1.1,1,1.7,2.5,1.7,4.3c0,2-0.8,3.7-2.3,5.1
			c-1.6,1.4-3.9,2.2-7,2.2c-2.8,0-5-0.6-6.6-1.8c-1.6-1.2-2.7-2.8-3.2-4.9l5.4-0.9c0.2,1.1,0.7,2,1.4,2.6c0.7,0.6,1.7,0.9,3,0.9
			c1.4,0,2.5-0.3,3.2-0.8c0.5-0.4,0.7-0.9,0.7-1.5c0-0.4-0.1-0.8-0.4-1.1c-0.3-0.3-0.9-0.5-1.8-0.8c-4.4-1-7.1-2-8.3-2.8
			c-1.6-1.2-2.4-2.8-2.4-4.9c0-1.9,0.7-3.5,2.1-4.8c1.4-1.3,3.6-1.9,6.5-1.9c2.8,0,4.9,0.5,6.2,1.5c1.4,1,2.3,2.4,2.8,4.3l-5.1,1
			C267,439.4,266.6,438.7,266,438.3z M244.8,425.7h5.4v5.3h-5.4V425.7z M244.8,455.7v-21.8h5.4v21.8H244.8z M237.4,447.3
			c0,1.8,0,2.8,0.1,3.1c0.1,0.3,0.2,0.5,0.5,0.7c0.3,0.2,0.6,0.3,0.9,0.3c0.5,0,1.2-0.2,2.2-0.6l0.5,4.5c-1.3,0.6-2.7,0.9-4.3,0.9
			c-1,0-1.9-0.2-2.6-0.5c-0.8-0.3-1.4-0.8-1.7-1.4c-0.4-0.6-0.6-1.3-0.8-2.2c-0.1-0.7-0.2-2-0.2-4.1v-9.5h-2.5v-4.6h2.5v-4.3
			l5.4-3.4v7.7h3.7v4.6h-3.7V447.3z M227.7,439.6c-0.9-0.6-1.8-0.9-2.5-0.9c-0.8,0-1.4,0.2-1.9,0.7c-0.5,0.4-0.9,1.2-1.2,2.4
			c-0.3,1.2-0.5,3.6-0.5,7.3v6.7h-5.4v-21.8h5v3.1c0.9-1.5,1.6-2.4,2.3-2.9c0.7-0.5,1.5-0.7,2.3-0.7c1.2,0,2.4,0.4,3.6,1.1
			L227.7,439.6z M198.9,432.7l-3.8,11.2h7.7L198.9,432.7z M207.1,455.7l-2.5-6.8h-11.3l-2.3,6.8H185l11-30.1h6l11.3,30.1H207.1z"/>
		<path class="st1" d="M490.5,656.9h4.5v8h38.1v4.2h-33.8c7.8,8.4,19.1,14.8,34.2,19.2c-1.2,1.3-2.2,2.7-3,4.2
			c-16.1-5.5-27.9-13.2-35.4-22.9v27.7h-4.5v-27.5c-8.5,10.2-20,18.1-34.4,23.7c-0.9-1.3-2-2.7-3.3-4.1c13.9-5.1,25-11.9,33.3-20.3
			h-33.4v-4.2h37.8V656.9z M472.5,640.7c0.6,0.9,1.5,2.1,2.9,3.6c-4.6,4.9-9.7,10.2-15.4,15.9l-3.4-3.5
			C462.1,651.8,467.4,646.5,472.5,640.7z M467.8,638.7c-5-3-9.8-5.7-14.3-8.1l2.6-3.4c4.3,2.1,9.1,4.6,14.4,7.6L467.8,638.7z
			 M460.6,616.5l2.6-3.4c3.8,1.9,8.3,4.5,13.4,7.7l-2.8,3.7C469.7,621.7,465.3,619.1,460.6,616.5z M534.8,643.1l-3.8,2.4
			c-2.5-4.3-5.6-9.1-9.1-14.3c-0.1,1.2-0.2,3.1-0.3,5.5c-0.2,3-0.3,5.1-0.4,6.3c-0.3,9.2-4.5,13.6-12.9,13.4
			c-1.9,0.1-4.4,0.1-7.5,0.1c-0.1-1.3-0.3-2.9-0.9-4.8c1.1,0.1,2.3,0.2,3.5,0.2c0.6,0,1.2,0,1.9,0c0.6,0,1.4,0,2.5,0
			c5.8,0.4,8.8-2.8,8.9-9.6c0.5-7.1,0.8-14,1-20.7h-14.6c0.5,18.3-7.2,30.9-22.9,37.6c-1-1.5-2-2.8-3-3.7
			c14.9-5.9,22-17.2,21.5-33.9h-14.6v-4.1h38c-0.1,3.1-0.2,7.4-0.4,13l3.3-2C529.6,634.8,532.8,639.6,534.8,643.1z M491.7,629.1
			c-3.2,4.8-6.4,9.3-9.8,13.5c-1-0.9-2.3-1.8-3.7-2.7c4.1-4.9,7.3-9.3,9.7-13.1L491.7,629.1z M399.7,682.4c2.5-3.3,3.8-8.8,3.8-16.5
			h-12.7v-4.1h51.4v4.1h-17.2v19c0,2,0.4,3.4,1.2,4.2c0.8,0.8,2.2,1.2,4.4,1.1h3.1c3.4,0.3,5.3-1.5,5.8-5.2c0.4-2.3,0.7-5.3,1-9
			l4.3,1.6c-0.1,2.1-0.5,5-1.1,8.7c-0.8,5.6-3.8,8.4-9.2,8.2h-5.1c-6.1,0.1-9.1-2.8-9-8.8v-19.8h-12.5c-0.1,8.8-1.5,15.2-4.3,19.2
			c-2.6,4.1-7.9,7.9-15.9,11.5c-0.9-1.5-1.9-2.8-3.1-4.1C392.4,689.1,397.5,685.7,399.7,682.4z M389.6,682.2
			c-10.5,1.6-19.3,3-26.2,4.3l-1.2-4.5c7.7-1.1,17-2.5,27.7-4.2C389.7,679.1,389.6,680.6,389.6,682.2z M386.6,662.5
			c-0.3,1.5-0.6,2.9-0.6,4.3c-10.2,0.8-17.1,1.5-20.7,2.2l-1.9-4.4c1.8-1.3,3.5-3,5.1-5.1c2.8-3.5,6.1-8.2,10-13.9
			c-5.4,0.2-10.2,0.5-14.4,0.8l-1.8-4.6c1.1-0.8,2.7-2.7,4.6-5.7c5-7.7,9.4-15.6,13.2-23.6l4.7,2c-5.2,9.4-10.7,18.5-16.6,27.5
			c5.5-0.2,9.8-0.3,12.9-0.4c1.7-2.6,3.7-6,6-10.1l4.2,2.1c-6.2,9.9-13.1,20-20.8,30.3C377,663.4,382.4,663,386.6,662.5z
			 M432.1,656.5c-6,0.2-11.5-2.7-16.5-8.9c-5.5,2.8-12.4,5.5-20.5,8c-0.6-1.3-1.4-2.7-2.3-4.1c7.9-2.3,14.6-4.8,20.1-7.6
			c-2.8-3.9-5.1-8.5-6.9-13.9l-12.8,1.7l-0.6-4.1l12.2-1.6c-0.9-2.9-2-7.2-3.1-12.9l4.3-0.9c1,5.2,2,9.6,3.2,13.2l29.6-3.9l0.8,4.1
			l-29,3.7c1.8,4.8,3.9,8.9,6.3,12.3c5-2.8,10.4-6.6,16.1-11.4l3.1,2.9c-5.6,5.1-11.1,9.2-16.4,12.2c3.7,4.6,7.9,6.9,12.4,6.7
			c2.8,0,4.7-1.5,5.8-4.7c0.9-2.6,1.6-5.3,2.2-8.1l4.2,1.6c-0.6,3.3-1.4,6.2-2.3,8.7C440.1,654.4,436.9,656.7,432.1,656.5z
			 M334.6,677.6h-41v6.3h41V677.6z M334.6,662.5h-41v6.2h41V662.5z M346.2,697.4h-11.6v-4.3h-41v4.3H282v-44.3h64.2V697.4z
			 M301.1,630c2.3,2.8,4.4,5.6,6.2,8.2h14.1c2.1-2.7,4-5.5,5.8-8.2H301.1z M356.2,647.9h-84.1v-9.7h21.1c-1.1-1.6-2.4-3.3-3.7-5.1
			l6.7-3.1h-20.7v-9.7h33.3c-0.7-2.1-1.6-4.4-2.5-6.9l12-2.1c1.1,2.8,2.3,5.8,3.4,9H353v9.7h-20.5l6.6,3.2l-3.9,5h21V647.9z
			 M226.9,644.5l-5.8,10.4c-5.2-3-10.8-6.3-17-9.8c-4.9,3.7-10.5,6.8-16.6,9.3c-1.8-3.5-3.7-6.8-5.7-9.9
			c12.7-5.3,21.7-11.7,27.2-19.3h-24.1v-10.3H223v9.2c-3,5.1-6.5,9.7-10.6,13.9C217.4,640.1,222.2,642.3,226.9,644.5z M263.3,626.4
			c-0.3,26-0.6,43.8-0.9,53.6c-0.3,10.2-4.3,15.5-12.1,15.9c-2.4,0.2-5.8,0.4-10.3,0.4c-0.8-4.7-1.6-8.8-2.4-12.4
			c3.7,0.2,6.4,0.3,8,0.3c3.5,0,5.3-2.3,5.6-7c0.5-8.2,0.7-21.4,0.7-39.5H243c-0.1,5.5-0.3,9.9-0.4,13.4c-1,21.6-6,37.2-15.1,46.8
			c-2.7-2.8-5.8-5.6-9.3-8.4c1.2-1.2,2.3-2.4,3.3-3.8c-12.7,2.2-25.2,4.4-37.3,6.6l-1.8-11.2c5.2-0.6,10.6-1.2,16-2v-13.9h-12.4
			v-10.3h36.8v10.3h-13.3v12.3c4.8-0.8,9.8-1.6,14.8-2.4c-0.1,1.5-0.3,3.9-0.5,7.1c4.4-7.8,6.9-18.6,7.5-32.3
			c0.2-2.8,0.4-6.8,0.4-12h-7.8v-11.5h7.9c0-4.3,0-9.2,0-14.6h11.2c0,5.3,0,10.2-0.1,14.6H263.3z"/>
		<path class="st1" d="M534,410.7l-4,2.5c-2.9-4.6-6.2-9.5-9.9-14.7l3.7-2.3C526.8,400.3,530.2,405.2,534,410.7z M472.7,395.4h4.5
			v10.3c0,3,0.5,4.9,1.6,5.8c1,1,3.2,1.5,6.5,1.4h14.8c5.8,0.3,9-1.5,9.5-5.1c0.5-2.2,1.1-5,1.6-8.6l4.3,1.8
			c-0.5,3.3-0.9,5.9-1.4,7.8c-1.2,6-5.4,8.9-12.3,8.7H484c-7.9,0.4-11.6-3.3-11.2-11.2V395.4z M489.7,391.3
			c3.2,3.3,6.5,6.7,9.8,10.4l-3.7,3.1c-3.1-3.9-6.3-7.5-9.5-10.9L489.7,391.3z M492.6,373.4h-16.1v10.4h16.1V373.4z M497.1,387.6
			h-24.9v-18h24.9V387.6z M498.9,362.3h-29v-3.8h29V362.3z M465,397.7c-2.7,5.8-5.6,11.5-8.6,17l-4.3-2.1c3.3-5.4,6.2-10.9,8.6-16.6
			L465,397.7z M513.5,339.9l2.9-2.9c2.2,1.7,5,4.2,8.4,7.3l-3.2,3C519,344.8,516.3,342.3,513.5,339.9z M512.8,375.5
			c3.5-4.6,7-10.6,10.3-18l4.1,1.7c-4,8.8-8.1,15.7-12.5,20.8c2.6,5.3,5.2,7.9,8,7.9c2.3,0.1,4-1.3,4.9-4.2c0.9-2.4,1.8-5.8,2.8-9.9
			c1.1,0.6,2.5,1.2,4,1.7c-0.7,3.2-1.4,6.2-2.3,9.1c-1.8,5.4-4.8,8.1-9.2,7.9c-4.3-0.1-8.1-3-11.4-9c-2.9,3-6.6,6.2-11.2,9.7
			c-0.7-1-1.8-2.1-3.2-3.5c4.9-3.5,9-7,12.3-10.6c-3-7-5-16.3-6-27.8h-37.6v9.3c0,0.8,0,1.8,0,3.2c0,12.7-3,22.8-9,30.5
			c-1.1-1-2.4-1.9-3.7-2.8c3.3-4.8,5.5-9.2,6.6-13.4c1.2-4.2,1.7-10,1.7-17.4v-13.2h41.6c-0.2-2.6-0.4-6.5-0.6-11.8h4.4
			c0.2,4.3,0.4,8.2,0.6,11.8h25.8v3.9h-25.5C508.8,361.3,510.4,369.3,512.8,375.5z M402.6,379l4.9,0.4c-0.5,3-1.2,6.1-2.2,9.2
			c7.6,14,20.5,22.5,38.6,25.3c-1,1.8-1.8,3.4-2.5,4.9c-18.5-4-31.2-12.3-38-25.1c-5.2,13.1-18.1,21.7-38.6,26
			c-0.8-1.8-1.6-3.4-2.3-4.8C387.5,411,400.9,399,402.6,379z M374.3,383c2.6,2.6,6.6,7,12.1,13.1l-3.9,3.2
			c-3.2-3.9-7.1-8.5-11.7-13.6L374.3,383z M370.6,371.4h59.6v-11.2h-56.4v-4.1h56.4v-11.2h-58.8v-4.2h63.4v34.9h-64.2V371.4z
			 M420.2,396.4c4.3-4.2,8.4-8.6,12.1-13.2l3.7,2.9c-4.5,5.2-8.6,9.7-12.3,13.5L420.2,396.4z M356.5,399.3
			c-3.5,3.5-6.7,7.2-9.8,11.1c-10.7-8-19.6-18.1-26.5-30.2V420h-12.4v-40.8c-6.6,12.1-15.8,22.7-27.4,31.8c-3-3.8-5.9-7.4-8.9-10.6
			c13.3-8.7,24-20.2,32.3-34.5h-29v-11.7h33v-19.4h12.4v19.4H338c-4.6-4.7-8.9-8.9-12.9-12.5l7.2-7.4c4.7,3.6,9.5,7.6,14.2,11.9
			l-7.7,8h14.5v11.7H323C331.4,380.3,342.5,391.5,356.5,399.3z M201.4,389.9c8.1-5,17.3-9.7,27.6-13.9h-38.8v-11.3h62.1v11.5
			c-10.1,4.2-20.7,9.3-31.8,15.3c-11.2,6-16.7,10-16.7,12c0,1.9,1.4,2.8,4.3,2.8h29.3c4.4,0,7.5-0.5,9.4-1.5c1.9-1,3.3-2.8,4.3-5.3
			c1-2.6,1.7-7.4,2.2-14.4l12.8,4.8c-0.7,5.8-1.8,10.9-3.3,15.3c-1.5,4.3-4.2,7.7-8.2,10c-3.8,1.6-8.8,2.4-14.9,2.4h-28.5
			c-7.9,0-13.5-1-16.8-2.9c-3.3-2-5-5.5-5-10.7C189.3,399.5,193.3,394.9,201.4,389.9z M246.1,355v6.4h-12.6V355h-17.7v6.4h-12.6V355
			h-20.3v-11h20.3v-9.3h12.6v9.3h17.7v-9.3h12.6v9.3h20.3v11H246.1z"/>
	</g>
</g>
<g>
</g>
<g>
</g>
<g>
</g>
<g>
</g>
<g>
</g>
<g>
</g>
<g>
</g>
<g>
</g>
<g>
</g>
<g>
</g>
<g>
</g>
<g>
</g>
<g>
</g>
<g>
</g>
<g>
</g>
</svg>
