<?xml version="1.0" encoding="utf-8"?>
<!-- Generator: Adobe Illustrator 17.0.0, SVG Export Plug-In . SVG Version: 6.00 Build 0)  -->
<!DOCTYPE svg PUBLIC "-//W3C//DTD SVG 1.1//EN" "http://www.w3.org/Graphics/SVG/1.1/DTD/svg11.dtd">
<svg version="1.1" id="Layer_1" xmlns="http://www.w3.org/2000/svg" xmlns:xlink="http://www.w3.org/1999/xlink" x="0px" y="0px"
	 width="720px" height="61.3px" viewBox="0 0 720 61.3" style="enable-background:new 0 0 720 61.3;" xml:space="preserve">
<style type="text/css">
	.st0{fill:none;}
	.st1{fill:#FFFFFF;}
</style>
<g id="page-02-subtitle-2.svg">
	<rect y="0" class="st0" width="720" height="61.3"/>
	<g>
		<path class="st1" d="M445.7,16.7v12h6.4v4.6h-6.4v16.1h-4.9V12.2H453v4.5H445.7z"/>
		<path class="st1" d="M465.2,49.4c-0.2-0.7-0.3-1.5-0.3-2.3c-1,1.7-2.9,2.7-5.1,2.7c-3,0-6-2.3-6-7.2c0-4.8,1.9-7.1,6.1-9.2
			c3.2-1.7,4.7-2.7,4.7-5.9c0-1.9-0.6-3.5-2.5-3.5c-1.8,0-2.7,1.3-2.7,3.9v1.7h-4.8v-1.7c0-5.1,2.7-8.3,7.6-8.3c6,0,7.2,4.2,7.2,9.4
			v9.9c0,6.6,0.1,8.4,0.5,10.5H465.2z M464.5,34.6c-0.5,0.7-1.2,1.3-2.5,2c-2.3,1.4-3.4,2.6-3.4,5.4c0,2.6,1.1,3.5,2.7,3.5
			c1.8,0,3.1-1.4,3.1-4.4V34.6z"/>
		<path class="st1" d="M479.9,49.8c-4.9,0-7.9-2.9-7.9-8v-1.9h4.8v1.7c0,2.6,1.2,3.9,3,3.9c1.8,0,3.1-1.1,3.1-3.5
			c0-1.6-0.3-2.5-1.9-3.6l-4.5-3.6c-2.6-2.1-4-3.8-4-7.4c0-4.9,2.6-7.8,7.4-7.8s7.5,2.9,7.5,8v2h-4.8v-1.7c0-2.5-0.9-3.9-2.6-3.9
			c-1.7,0-2.6,1.3-2.6,3.5c0,1.6,0.3,2.3,1.9,3.5l4.5,3.6c2.6,2.1,4,3.9,4,7.5C487.8,46.9,484.7,49.8,479.9,49.8z"/>
		<path class="st1" d="M501.1,49.4V27.8c0-2.6-1-3.9-2.8-3.9c-1.7,0-2.8,1.3-2.8,3.9v21.5h-4.8V9.9h4.8v11.9
			c0.5-1.3,2.3-2.3,3.9-2.3c4.6,0,6.5,2.9,6.5,8v21.8H501.1z"/>
		<path class="st1" d="M509.9,15.7V9.9h4.8v5.8H509.9z M509.9,49.4V20h4.8v29.4H509.9z"/>
		<path class="st1" d="M526.2,49.8c-4.9,0-7.9-2.9-7.9-8V27.5c0-5.1,3-8,7.9-8s7.9,2.9,7.9,8v14.3C534.1,46.9,531.1,49.8,526.2,49.8
			z M529.2,27.8c0-2.6-1.2-3.9-3-3.9s-3,1.3-3,3.9v13.7c0,2.6,1.2,3.9,3,3.9s3-1.3,3-3.9V27.8z"/>
		<path class="st1" d="M548.1,49.4V27.8c0-2.6-1-3.9-2.8-3.9c-1.7,0-2.8,1.3-2.8,3.9v21.5h-4.8V20h4.7v1.8c0.5-1.3,2.5-2.3,4.1-2.3
			c4.6,0,6.5,2.9,6.5,8v21.8H548.1z"/>
		<path class="st1" d="M571.4,16.7v12h6.4v4.6h-6.4v16.1h-4.9V12.2h12.2v4.5H571.4z"/>
		<path class="st1" d="M588.4,49.8c-4.9,0-7.9-2.9-7.9-8V27.5c0-5.1,2.9-8,7.8-8c4.9,0,7.9,2.9,7.9,8V36h-10.8v5.5
			c0,2.6,1.2,3.9,3,3.9s3-1.3,3-3.9v-1.7h4.8v1.9C596.2,46.9,593.3,49.8,588.4,49.8z M591.3,27.8c0-2.6-1.1-3.9-3-3.9s-3,1.3-3,3.9
			v4.3h5.9V27.8z"/>
		<path class="st1" d="M606.4,49.8c-4.9,0-7.9-2.9-7.9-8v-1.9h4.8v1.7c0,2.6,1.2,3.9,3,3.9c1.8,0,3.1-1.1,3.1-3.5
			c0-1.6-0.3-2.5-1.9-3.6l-4.5-3.6c-2.6-2.1-4-3.8-4-7.4c0-4.9,2.6-7.8,7.4-7.8s7.5,2.9,7.5,8v2H609v-1.7c0-2.5-0.9-3.9-2.6-3.9
			c-1.7,0-2.6,1.3-2.6,3.5c0,1.6,0.3,2.3,1.9,3.5l4.5,3.6c2.6,2.1,4,3.9,4,7.5C614.2,46.9,611.2,49.8,606.4,49.8z"/>
		<path class="st1" d="M617.8,41.6v-17h-2.3V20h2.3v-7h4.8v7h4v4.6h-4V41c0,2.7,1,4,4,3.8v4.6C620.3,49.9,617.8,46.6,617.8,41.6z"/>
		<path class="st1" d="M629,15.7V9.9h4.8v5.8H629z M629,49.4V20h4.8v29.4H629z"/>
		<path class="st1" d="M647.1,49.4h-5.5L636.1,20h5l2.4,16.1c0.4,2.7,0.7,7.2,0.7,7.2h0.1c0,0,0.3-4.6,0.7-7.2l2.4-16.1h5
			L647.1,49.4z"/>
		<path class="st1" d="M664.6,49.4c-0.2-0.7-0.3-1.5-0.3-2.3c-1,1.7-2.9,2.7-5.1,2.7c-3,0-6-2.3-6-7.2c0-4.8,1.9-7.1,6.1-9.2
			c3.2-1.7,4.7-2.7,4.7-5.9c0-1.9-0.6-3.5-2.5-3.5c-1.8,0-2.7,1.3-2.7,3.9v1.7H654v-1.7c0-5.1,2.7-8.3,7.6-8.3c6,0,7.2,4.2,7.2,9.4
			v9.9c0,6.6,0.1,8.4,0.5,10.5H664.6z M663.9,34.6c-0.5,0.7-1.2,1.3-2.5,2c-2.3,1.4-3.4,2.6-3.4,5.4c0,2.6,1.1,3.5,2.7,3.5
			c1.8,0,3.1-1.4,3.1-4.4V34.6z"/>
		<path class="st1" d="M672.8,49.4V9.9h4.8v39.4H672.8z"/>
	</g>
</g>
<g>
</g>
<g>
</g>
<g>
</g>
<g>
</g>
<g>
</g>
<g>
</g>
<g>
</g>
<g>
</g>
<g>
</g>
<g>
</g>
<g>
</g>
<g>
</g>
<g>
</g>
<g>
</g>
<g>
</g>
</svg>
