<?xml version="1.0" encoding="utf-8"?>
<!-- Generator: Adobe Illustrator 17.0.0, SVG Export Plug-In . SVG Version: 6.00 Build 0)  -->
<!DOCTYPE svg PUBLIC "-//W3C//DTD SVG 1.1//EN" "http://www.w3.org/Graphics/SVG/1.1/DTD/svg11.dtd">
<svg version="1.1" id="Layer_1" xmlns="http://www.w3.org/2000/svg" xmlns:xlink="http://www.w3.org/1999/xlink" x="0px" y="0px"
	 width="720px" height="61.3px" viewBox="0 0 720 61.3" style="enable-background:new 0 0 720 61.3;" xml:space="preserve">
<style type="text/css">
	.st0{fill:#F4952E;}
	.st1{fill:none;}
</style>
<g id="page-02-subtitle.svg">
	<path class="st0" d="M419.4,19.9v32.2h-4.7V19.9h-5.2v-4.4h15.1v4.4H419.4z M434.9,52.1c-0.2-0.7-0.3-1.5-0.3-2.2
		c-1,1.7-2.8,2.7-4.9,2.7c-2.9,0-5.8-2.2-5.8-7.1c0-4.7,1.9-7,5.9-9.1c3.1-1.6,4.6-2.6,4.6-5.8c0-1.9-0.5-3.5-2.4-3.5
		c-1.8,0-2.6,1.3-2.6,3.9v1.7h-4.7v-1.7c0-5,2.6-8.1,7.4-8.1c5.8,0,6.9,4.1,6.9,9.3v9.8c0,6.5,0.1,8.2,0.5,10.3H434.9z M434.3,37.5
		c-0.5,0.7-1.2,1.2-2.4,2c-2.2,1.3-3.2,2.6-3.2,5.3c0,2.5,1.1,3.5,2.6,3.5c1.8,0,3-1.4,3-4.4V37.5z M444,18.9v-5.7h4.7v5.7H444z
		 M444,52.1V23.2h4.7v28.9H444z M464.4,52.1l-4.8-14.3l-1.7,2.8v11.6h-4.7V13.2h4.7v21.2h0.1c0,0,0.7-2,1.4-3.1l5-8.1h5l-6.4,10.6
		l6.6,18.4H464.4z M479.1,52.5c-4.7,0-7.6-2.9-7.6-7.9V30.6c0-5,2.9-7.9,7.6-7.9c4.7,0,7.6,2.9,7.6,7.9v14.1
		C486.6,49.7,483.8,52.5,479.1,52.5z M482,30.9c0-2.6-1.2-3.8-2.9-3.8s-2.9,1.2-2.9,3.8v13.5c0,2.6,1.2,3.8,2.9,3.8s2.9-1.2,2.9-3.8
		V30.9z M498.5,52.5c-4.7,0-7.6-2.9-7.6-7.9V30.6c0-5,2.9-7.9,7.6-7.9c4.7,0,7.6,2.9,7.6,7.9v14.1C506,49.7,503.2,52.5,498.5,52.5z
		 M501.4,30.9c0-2.6-1.2-3.8-2.9-3.8s-2.9,1.2-2.9,3.8v13.5c0,2.6,1.2,3.8,2.9,3.8s2.9-1.2,2.9-3.8V30.9z M520.7,52.1V15.5h4.7v32.3
		h7v4.3H520.7z M535.8,18.9v-5.7h4.7v5.7H535.8z M535.8,52.1V23.2h4.7v28.9H535.8z M561.2,52.5c-4.6,0-7.7-2.8-7.7-7.9v-4.2h4.7v3.9
		c0,2.6,1.4,3.8,3,3.8c2.2,0,3.3-1.5,3.3-4.2c0-2.3-0.4-3.8-2.2-5.7l-5.3-5.9c-2.5-2.8-3.2-5.1-3.2-8.7c0-4.9,2.3-8.6,7.6-8.6
		c4.8,0,7.6,2.9,7.6,7.9V27h-4.7v-3.9c0-2.6-1.2-3.8-2.9-3.8c-2,0-3,1.7-3,4.2c0,2.3,0.4,3.8,2.2,5.7l5.3,5.9
		c2.5,2.8,3.2,5.1,3.2,8.7C569.2,48.9,566.5,52.5,561.2,52.5z M583.5,52.1c-0.2-0.7-0.3-1.5-0.3-2.2c-1,1.7-2.8,2.7-4.9,2.7
		c-2.9,0-5.8-2.2-5.8-7.1c0-4.7,1.9-7,5.9-9.1c3.1-1.6,4.6-2.6,4.6-5.8c0-1.9-0.5-3.5-2.4-3.5c-1.8,0-2.6,1.3-2.6,3.9v1.7h-4.7v-1.7
		c0-5,2.6-8.1,7.4-8.1c5.8,0,6.9,4.1,6.9,9.3v9.8c0,6.5,0.1,8.2,0.5,10.3H583.5z M582.8,37.5c-0.5,0.7-1.2,1.2-2.4,2
		c-2.2,1.3-3.2,2.6-3.2,5.3c0,2.5,1.1,3.5,2.6,3.5c1.8,0,3-1.4,3-4.4V37.5z M602.6,52.1V30.9c0-2.6-1-3.8-2.7-3.8
		c-1.6,0-2.7,1.2-2.7,3.8v21.2h-4.7V23.2h4.5V25c0.5-1.3,2.4-2.2,4-2.2c4.4,0,6.3,2.8,6.3,7.9v21.5H602.6z M612.4,52.1V13.2h4.7
		v38.8H612.4z M621.6,18.9v-5.7h4.7v5.7H621.6z M621.6,52.1V23.2h4.7v28.9H621.6z M631.5,44.4V27.7h-2.2v-4.5h2.2v-6.8h4.7v6.8h3.8
		v4.5h-3.8v16.2c0,2.6,1,3.9,3.8,3.7v4.5C633.9,52.6,631.5,49.3,631.5,44.4z M653.2,52.1v-1.8c-0.5,1.3-2.4,2.2-4,2.2
		c-4.5,0-6.3-2.8-6.3-7.9V23.2h4.7v21.2c0,2.6,1,3.8,2.7,3.8c1.6,0,2.7-1.2,2.7-3.8V23.2h4.7v28.9H653.2z M673,52.1V30.9
		c0-2.6-1-3.8-2.7-3.8c-1.6,0-2.7,1.2-2.7,3.8v21.2h-4.7V23.2h4.5V25c0.5-1.3,2.4-2.2,4-2.2c4.4,0,6.3,2.8,6.3,7.9v21.5H673z"/>
	<rect y="0" class="st1" width="720" height="61.3"/>
</g>
<g>
</g>
<g>
</g>
<g>
</g>
<g>
</g>
<g>
</g>
<g>
</g>
<g>
</g>
<g>
</g>
<g>
</g>
<g>
</g>
<g>
</g>
<g>
</g>
<g>
</g>
<g>
</g>
<g>
</g>
</svg>
