<?xml version="1.0" encoding="utf-8"?>
<!-- Generator: Adobe Illustrator 17.0.0, SVG Export Plug-In . SVG Version: 6.00 Build 0)  -->
<!DOCTYPE svg PUBLIC "-//W3C//DTD SVG 1.1//EN" "http://www.w3.org/Graphics/SVG/1.1/DTD/svg11.dtd">
<svg version="1.1" id="Layer_1" xmlns="http://www.w3.org/2000/svg" xmlns:xlink="http://www.w3.org/1999/xlink" x="0px" y="0px"
	 width="720px" height="234.2px" viewBox="0 0 720 234.2" style="enable-background:new 0 0 720 234.2;" xml:space="preserve">
<style type="text/css">
	.st0{fill:#DF8DBA;}
	.st1{fill:none;}
</style>
<g id="page-game-content.svg">
	<path class="st0" d="M325.7,164.8l-1.4,6.1h-3.4l2.4-6.1H325.7z M330.9,164.8l-1.5,6.1h-3.3l2.4-6.1H330.9z M333.8,186.8v-21.9h9.4
		v21.8h-3.2v-1.8H337v1.9H333.8z M340.1,168.3H337v5h3.1V168.3z M337,181.6h3.1v-5H337V181.6z M346,172.3c1.1,1.4,2.5,3.5,4.3,6.1
		l-2.9,2c-1.4-2.6-2.7-4.7-3.9-6.4L346,172.3z M343.9,167.6h7.1v-4.3h3.4v4.3h2v3.4h-2v12.6c0,1.4-0.3,2.5-0.9,3.2
		c-0.6,0.7-1.4,1.1-2.5,1.2c-1.1,0-2.6,0.1-4.7,0.1c-0.3-1.5-0.5-2.8-0.8-3.7c2.3,0.1,3.5,0.1,3.7,0.1c1.2,0,1.7-0.6,1.7-1.9V171
		h-7.1V167.6z M367.2,163.1h3.5v6.7h8.6v14.7c0,1-0.2,1.7-0.7,2.3s-1,0.9-1.7,1c-0.7,0.1-2.1,0.2-4.2,0.2c-0.3-1.2-0.6-2.4-0.9-3.7
		c1.4,0.1,2.3,0.2,2.7,0.2c1,0,1.5-0.5,1.5-1.5V173h-14.2v15.2h-3.3v-18.5h8.7V163.1z M360.9,163.8c1.4,1,2.9,2.1,4.4,3.4l-2.1,2.4
		c-1.6-1.3-3.1-2.5-4.4-3.5L360.9,163.8z M374.3,174.8v8.3h-7.7v1.3h-3v-9.6H374.3z M366.6,177.7v2.5h4.7v-2.5H366.6z M372.3,167.1
		c1.9-1.4,3.4-2.6,4.4-3.5l2.3,2.5c-1.7,1.2-3.4,2.3-4.9,3.4L372.3,167.1L372.3,167.1z M390,183.1c-2.4,0.6-5,1.4-7.8,2.2l-0.7-3.4
		c1-0.2,1.9-0.4,2.8-0.6v-5.9h-2.1v-3h2.1v-4.8H382v-3.1h7.9v3.1h-2.4v4.8h2.2v3h-2.2v5.1c0.9-0.2,1.8-0.5,2.6-0.7
		C390,181,390,182.1,390,183.1L390,183.1z M390.3,171.6h14.5v3.4H401v8.3c0,0.8,0.3,1.2,0.8,1.2c0.3,0,0.5-0.1,0.7-0.4
		c0.1-0.3,0.3-1.7,0.4-4.2c1.1,0.4,1.9,0.7,2.5,0.9c-0.3,3.4-0.7,5.4-1.3,6c-0.6,0.6-1.2,0.9-2.1,0.9h-1.3c-1.9,0-2.8-1.1-2.8-3.3
		V175h-2.1c0.1,6.5-1.8,11-5.7,13.4c-0.7-1.1-1.4-2-2.2-2.9c3.3-1.9,5-5.4,4.9-10.5h-2.4V171.6z M391.5,164.5h12.1v3.4h-12.1V164.5z
		 M419.8,176.3c2.7-1.3,4.9-2.6,6.6-3.7l1.9,2.8l-3.8,1.9c1.1,2.9,2.8,5.1,5.2,6.6c-1,1-1.9,1.9-2.7,2.8c-2-1.7-3.7-4.4-5.1-8.2
		l-1,0.5c0.4,1.3,0.6,2.6,0.6,3.9c0,1.1-0.1,2-0.3,2.7c-0.2,0.7-0.6,1.2-1,1.7c-0.5,0.4-1,0.7-1.7,0.8c-0.6,0.1-2.1,0.2-4.5,0.2
		c-0.2-1.2-0.5-2.2-0.8-3.1c-1.6,0.9-3.5,1.7-5.5,2.4c-0.5-1-1.2-2-1.9-3c4.7-1.2,8.5-3.1,11.5-5.5c-0.1-0.3-0.3-0.7-0.4-1
		c-2.6,1.9-5.6,3.4-8.9,4.4l-1.6-2.6c3.8-0.8,6.9-2.1,9.4-3.7c-0.2-0.3-0.4-0.5-0.6-0.8c-2.1,1.1-4.5,1.9-7.1,2.6
		c-0.5-0.9-1-1.8-1.6-2.6c3.2-0.6,6-1.5,8.2-2.7h-3.9v-2.8h13.9v2.8h-5.2c-0.5,0.4-1,0.7-1.6,1.1
		C418.7,174.6,419.3,175.4,419.8,176.3L419.8,176.3z M416,165.4c-0.2-0.7-0.5-1.3-0.7-1.8l4.1-0.6c0.2,0.7,0.4,1.4,0.7,2.3h8.9v6.4
		h-3.3v-3.5h-15.7v3.5h-3.3v-6.4H416L416,165.4z M418.2,181.7c-1.3,1.1-2.8,2.2-4.5,3.1c1,0.1,1.8,0.2,2.4,0.2
		c1.4,0,2.2-0.8,2.2-2.3C418.3,182.4,418.3,182.1,418.2,181.7L418.2,181.7z M436.3,164.8l-2.4,6.1h-2.4l1.5-6.1H436.3z M441.5,164.8
		l-2.4,6.1h-2.4l1.4-6.1H441.5z"/>
	<g>
		<path class="st0" d="M270.4,128.5l1.6-0.9c0.4,0.6,0.9,1.5,1.5,2.4h9.2v1.6h-19.8v8.2c0,5.2-0.8,9.5-2.5,12.7
			c-0.2-0.4-0.7-1-1.4-1.8c1.5-2.7,2.2-6.4,2.2-10.9V130h10.1C271,129.6,270.7,129.1,270.4,128.5z M262.9,148.5V147h8.7v-1.6h-7.5
			v-1.5h7.5v-1.6c-2.2,0.1-4.6,0.1-7.3,0.2L264,141c6.7-0.1,11.9-0.4,15.6-0.8l0.6,1.6c-1.8,0.2-4.1,0.3-7,0.4v1.7h7.6v1.5h-7.6v1.6
			h9.2v1.5h-9.2v0.6c0,2.1-0.9,3.2-2.7,3.2c-0.9,0-1.9,0-2.7-0.1c-0.1-0.6-0.2-1.2-0.3-2c0.9,0.2,1.8,0.2,2.6,0.2
			c1,0,1.5-0.6,1.5-1.8v-0.3H262.9z M262.9,138.7c1.4-0.7,2.6-1.8,3.9-3.4h-3.3v-1.4h3.7V132h1.5v1.9h2.7v1.4h-2.7v1.2l0.6-0.7
			c0.8,0.6,1.6,1.1,2.2,1.7l-1,1c-0.7-0.6-1.4-1.1-1.9-1.5v3.1h-1.5v-3.4c-1,1.3-2,2.4-3.2,3.4C263.7,139.6,263.3,139.2,262.9,138.7
			z M270.8,139c1.7-0.9,3.2-2.2,4.5-3.7h-2.9v-1.4h3.4V132h1.5v1.9h4.2v1.4h-3.8c1.4,1.6,3.1,2.7,5,3.5c-0.5,0.5-0.8,0.9-1.1,1.4
			c-1.6-0.9-3-2.2-4.3-3.8v3.3h-1.5v-3.3c-1.2,1.5-2.5,2.7-4,3.8C271.6,139.9,271.3,139.5,270.8,139z"/>
		<path class="st0" d="M284.8,131v-1.7h9.5v1.8c-2.1,3.9-5.5,7.2-10,9.8c-0.3-0.6-0.6-1.2-1-1.8c1.7-0.9,3-1.8,4.1-2.6
			c-1-1.1-2-2.2-3.1-3.2l1.1-1.2c1.2,1.2,2.3,2.2,3.3,3.3c1.3-1.2,2.4-2.7,3.4-4.3H284.8z M283.7,150.2h8c-0.6-0.6-1.4-1.4-2.5-2.5
			l1.1-1.2c1,0.8,1.9,1.8,2.9,2.7l-1,1h5.7l-0.8-0.9c1-1,1.9-1.9,2.7-2.9l1.5,1.3c-0.7,0.8-1.6,1.6-2.5,2.5h8.2v1.7h-23.3V150.2z
			 M287.4,139.4h15.7v7.8h-1.8v-0.9h-12.1v0.9h-1.8V139.4z M301.3,141.1h-12.1v3.6h12.1V141.1z M291.1,135.5h8.1v1.7h-8.1V135.5z
			 M297.2,128c0.4,1,0.8,2,1.2,2.9c1.8-1,3.3-2,4.6-2.9l1.2,1.6c-1.5,0.9-3.1,1.9-4.8,2.9c0.4,0.7,0.9,1.3,1.4,1.9
			c1.7-1,3.2-2,4.7-3l1.2,1.6c-1.3,0.9-2.8,1.8-4.5,2.7c1.5,1.3,3.3,2.1,5.3,2.5c-0.5,0.7-0.9,1.4-1.3,2.1
			c-5.1-1.9-8.6-5.7-10.6-11.5L297.2,128z"/>
		<path class="st0" d="M312.2,150.1h-1.9v-13.1h8.5v-3.5h-10.6v-1.9h11.1c-0.5-1.1-1.1-2.1-1.7-3.2l1.8-0.9c0.7,1.1,1.3,2.2,1.9,3.3
			l-1.6,0.8h11.6v1.9h-10.6v3.5h8.7v9.5c0,2.1-0.9,3.2-2.8,3.2c-0.9,0-2,0-3.4,0c-0.1-0.6-0.2-1.2-0.3-2c1.3,0.1,2.4,0.1,3.2,0.1
			c1,0,1.6-0.6,1.6-1.7v-7.2h-6.8v13.9h-1.9v-13.9h-6.7V150.1z"/>
		<path class="st0" d="M340.4,149.2c-0.5,0.3-1.2,0.4-2.1,0.4c-2.4,0-3.5-1.4-3.5-4.2v-8.1h-2.3v-2.1h2.3v-3.4l2.3-0.8v4.2h3.3v2.1
			h-3.3v7.7c0,0.9,0.1,1.6,0.4,2c0.3,0.4,0.8,0.6,1.5,0.6c0.5,0,1-0.2,1.4-0.5V149.2z"/>
		<path class="st0" d="M342.2,144.7h10.3v-1.7h1.7v1.7h10.3v1.6H356c2.8,2.1,5.9,3.5,9.3,4.2c-0.4,0.7-0.8,1.3-1.1,1.9
			c-3.9-1.2-7.2-3.1-10-5.7v6h-1.7v-6c-2.9,2.6-6.2,4.5-10,5.8c-0.3-0.5-0.7-1.1-1.1-1.6c3.4-0.9,6.5-2.4,9.2-4.6h-8.4V144.7z
			 M352.8,128.4l1.4-0.9c0.7,0.9,1.4,1.7,1.8,2.6l-1.1,0.7h9.1v1.6h-9v1.8h8v1.5h-8v1.8h8v1.5h-8v1.9h9.1v1.6h-17.4v1h-1.7v-9
			c-0.8,1-1.7,1.9-2.5,2.7c-0.3-0.5-0.6-1-1.1-1.7c2.3-2,4.3-4.6,5.8-7.6l1.6,0.8c-0.4,0.8-0.9,1.5-1.4,2.2h6.8
			C353.9,130.1,353.4,129.3,352.8,128.4z M346.7,134.2h6.6v-1.8h-6.6V134.2z M346.7,137.5h6.6v-1.8h-6.6V137.5z M346.7,140.8h6.6
			V139h-6.6V140.8z"/>
		<path class="st0" d="M365.9,147.1c1.1-0.3,2.2-0.6,3.4-1V139h-3v-1.8h3v-5.7h-3.1v-1.8h8v1.8h-3.1v5.7h2.7v1.8h-2.7v6.6
			c1-0.3,2.1-0.7,3.2-1c0,0.8,0,1.5,0,2c-2.3,0.7-5,1.6-8.1,2.7L365.9,147.1z M374.6,136.8h14.5v1.9h-4.5v10c0,0.8,0.4,1.2,1.1,1.2
			h0.7c0.8,0,1.2-0.5,1.3-1.4c0.1-0.7,0.2-1.7,0.3-3c0.6,0.3,1.2,0.5,1.8,0.7c-0.1,1.1-0.2,2-0.4,2.9c-0.3,1.8-1.1,2.7-2.6,2.7h-1.6
			c-1.7,0-2.6-0.9-2.6-2.8v-10.3h-3.4c0,4-0.5,6.9-1.3,8.7c-0.9,2.1-2.6,3.9-5.2,5.4c-0.3-0.6-0.8-1.2-1.3-1.8c2.4-1.4,4-3,4.7-4.7
			c0.7-1.4,1-3.9,1.1-7.6h-2.8V136.8z M375.7,129.5h12.1v1.9h-12.1V129.5z"/>
		<path class="st0" d="M396.4,142.3l1.7,1.2c-2.3,3.3-4.4,5.8-6.3,7.7c-0.4-0.4-0.9-0.9-1.5-1.4
			C392.5,147.6,394.6,145.1,396.4,142.3z M393.7,129.8c6-0.1,11.7-0.5,17.1-1.2l0.6,2c-5.7,0.6-11,0.9-16,1l-0.9,7.3h7v-5.8h2v5.8
			h9.4v1.9h-9.4v8c0,1.3-0.2,2.2-0.7,2.7c-0.5,0.5-1.3,0.8-2.4,0.8c-0.6,0-1.6,0-3.2,0c-0.1-0.7-0.2-1.4-0.4-2.2
			c1.6,0.2,2.7,0.2,3.1,0.2c1,0,1.5-0.5,1.5-1.7v-7.8h-9.2L393.7,129.8z M407.8,142.3c2.3,2.5,4.4,5,6.3,7.5l-1.6,1.5
			c-1.8-2.6-3.9-5.2-6.2-7.8L407.8,142.3z"/>
		<path class="st0" d="M415.3,129.9H438v2h-8.8c-0.8,1.4-1.8,3.1-3.1,5h1.4v15.9h-2.1v-15.1c-2.7,3.6-5.9,6.6-9.6,9.1
			c-0.4-0.6-0.8-1.2-1.3-1.8c5-3.3,9.1-7.7,12.1-13.1h-11.4V129.9z M430,137.7c3,1.9,5.8,3.9,8.6,5.9l-1.4,2
			c-3.3-2.6-6.1-4.6-8.4-6.2L430,137.7z"/>
		<path class="st0" d="M439.2,140c2.2-3.7,3.9-7.8,4.9-12.3l1.8,0.5c-0.6,2.1-1.2,4.1-1.9,5.9v18.5h-1.6v-14.7
			c-0.7,1.5-1.5,2.9-2.3,4.2C439.7,141.4,439.4,140.7,439.2,140z M445.2,140.2h17.4v4H461v-2.4h-14.1v2.4h-1.7V140.2z M445.8,130.5
			h7.3c-0.3-0.8-0.7-1.5-1.1-2.3l1.6-0.8c0.5,1,1,2,1.4,3h7.3v1.6h-16.5V130.5z M447.6,144h12.6v1.6h-4.7v3.7c0,2-0.9,3-2.6,3
			c-0.8,0-1.8,0-3,0c-0.1-0.6-0.2-1.3-0.4-2c1,0.1,2,0.2,2.9,0.2c0.9,0,1.4-0.6,1.4-1.7v-3.1h-6.2V144z M447.8,133.6h12v5.7h-1.7
			v-0.7h-8.7v0.7h-1.7V133.6z M458.2,135.1h-8.7v1.9h8.7V135.1z"/>
		<path class="st0" d="M231.8,185c-1.2,2.3-2.3,4.1-3.2,5.5l-1.6-1.2c1-1.5,2.1-3.2,3.2-5.2L231.8,185z M230,173.6h7.5v-8h2v3h10.7
			v1.8h-10.7v3.1h8.4v9.7h-2v-1.1h-14v1.1h-2V173.6z M246,175.4h-14v5h14V175.4z M235.8,183.9c0.7,1.7,1.4,3.5,1.9,5.4l-1.9,0.7
			c-0.5-1.8-1.1-3.7-1.7-5.5L235.8,183.9z M241.5,183.8c0.8,1.7,1.5,3.4,2.1,5.3l-1.9,0.8c-0.4-1.5-1.1-3.3-1.9-5.3L241.5,183.8z
			 M247.3,183.9c1.3,2,2.3,3.9,3.1,5.5l-1.8,1c-0.8-1.7-1.8-3.6-2.9-5.7L247.3,183.9z"/>
		<path class="st0" d="M270.7,190.6v-1.1h-16.9v-8.7h2.1v6.7h6.3v-8.9h-10.6v-1.9h10.6v-4.6h-8.9v-1.9h8.9v-4.5h2.1v4.5h9v1.9h-9
			v4.6h10.6v1.9h-10.6v8.9h6.4v-6.7h2.1v9.8H270.7z"/>
		<path class="st0" d="M285.4,188.1l5.7,0.1l8.4-0.2c-0.2,0.6-0.4,1.2-0.7,2l-7.9,0l-5.8-0.1c-2.6-0.1-4.5-1-5.6-2.9
			c-0.7,0.6-1.6,1.8-2.9,3.4l-1-2.1c1.4-1.4,2.4-2.5,3.1-3.1v-8.5H276v-1.9h4.7v10.8C281.6,187.2,283.2,188,285.4,188.1z
			 M278.6,166.1c1.2,1.6,2.3,3.2,3.3,4.8c-0.7,0.5-1.3,0.9-1.8,1.3c-0.9-1.6-1.9-3.3-3.1-5L278.6,166.1z M282.2,177.5h4.1
			c0-1.3,0-3.1,0-5.4h-3v-1.8h3v-4.5h1.9v4.5h4.7v-4.5h1.9v4.5h3.5v1.8h-3.5v5.4h4.5v1.8h-4.5v7.7h-1.9v-7.7H288
			c-0.5,3.5-1.8,6-4.1,7.7c-0.4-0.5-0.9-1-1.5-1.5c1.9-1.3,3.2-3.4,3.6-6.2h-3.9V177.5z M288.2,177.5h4.8v-5.4h-4.7
			C288.2,175,288.2,176.8,288.2,177.5z"/>
		<path class="st0" d="M306.9,167.2l1.6-1.2c1.8,1.2,3.7,4.2,5.9,9c3,6.9,6.2,11.1,9.7,12.7l-1.7,2.2c-3.5-2.2-6.7-6.8-9.7-13.9
			c-0.2-0.6-0.5-1.1-0.7-1.6c-1.8,6.7-5.3,12-10.3,15.7c-0.4-0.7-0.9-1.3-1.5-1.9c5.2-3.5,8.6-8.9,10.4-16.4
			C309.4,169.5,308.2,168,306.9,167.2z"/>
		<path class="st0" d="M447.8,172.6c1.4,1.1,2.7,2.1,3.8,3.1c-0.5,0.6-1,1.2-1.3,1.6c-1.3-1.3-2.5-2.4-3.6-3.3L447.8,172.6z
			 M449.7,179.9c0.6,0.3,1.2,0.5,1.8,0.8c-0.7,3.1-1.4,6.3-2.1,9.7l-2-0.7C448.3,186.5,449.1,183.2,449.7,179.9z M448.8,166.2
			c1,0.8,2.2,1.9,3.4,3.1c-0.1,0.1-0.6,0.6-1.3,1.5c-1.1-1.1-2.1-2.2-3.3-3.3L448.8,166.2z M451.9,170.4h8.6v1.7h-4.9
			c0,1.4,0,2.7-0.1,3.9h4.4c-0.1,4.9-0.2,8.5-0.4,10.9c-0.1,2-1,3-2.7,3c-0.7,0-1.4,0-2.1,0c-0.1-0.6-0.2-1.2-0.4-1.9
			c0.7,0.1,1.4,0.1,2.1,0.1c0.9,0,1.3-0.5,1.4-1.5c0.1-1.8,0.2-4.8,0.3-8.8h-2.7c-0.1,6-1.2,10.4-3.5,13c-0.5-0.6-0.9-1.1-1.3-1.5
			c1.3-1.7,2.2-3.7,2.5-5.9c0.4-2,0.6-5.7,0.6-11.1h-2V170.4z M454.3,166.5l1.6-0.9c0.7,1.1,1.4,2.3,2,3.5l-1.6,0.9
			C455.6,168.8,455,167.6,454.3,166.5z M460.4,179.8h4.4v-1.3l2.8-3.2h-5.9v-1.5c-0.3,0.6-0.7,1.2-1.1,1.8c-0.4-0.4-0.8-0.9-1.2-1.4
			c1.7-2.6,2.8-5.4,3.3-8.5l1.8,0.3c-0.2,1.2-0.5,2.4-0.9,3.5h6.8v1.7H463c-0.3,0.8-0.7,1.6-1.1,2.4h7.9v1.9l-3.3,3.5v0.9h4.1v1.7
			h-4.1v5.9c0,1.8-0.9,2.7-2.6,2.7c-0.7,0-1.6,0-2.5,0c-0.1-0.6-0.2-1.2-0.3-1.9c1,0.1,1.9,0.2,2.5,0.2c0.7,0,1.1-0.4,1.1-1.3v-5.5
			h-4.4V179.8z"/>
		<path class="st0" d="M473.5,172.5c1.3,2,2.5,3.9,3.7,5.7c0.8-2.3,1.3-4.8,1.6-7.6h-6.9v-1.9h8.8v1.9c-0.4,3.5-1.1,6.7-2.2,9.6
			c1.2,2,2.3,3.8,3.3,5.6l-1.6,1.1c-0.9-1.5-1.7-3.1-2.6-4.6c-1.3,2.8-3,5.2-5,7.3c-0.3-0.5-0.7-1.1-1.2-1.7c2.1-2.1,3.8-4.7,5-7.6
			c-1.4-2.3-2.8-4.7-4.3-6.9L473.5,172.5z M480.4,188.5c2.2-1.4,4.2-3,5.9-4.8c-0.7-2.2-1.2-5.2-1.4-8.8l-3.6,0.5l-0.3-1.8l3.8-0.5
			c-0.1-2.1-0.2-4.5-0.3-7.2h2c0,2.6,0.1,4.9,0.2,7l7.8-1l0.2,1.8l-7.9,1c0.2,3.2,0.5,5.7,1,7.5c1.5-1.9,2.9-4,4-6.3l1.7,1
			c-1.4,2.8-3.1,5.3-5,7.5c0.6,1.5,1.3,2.6,2.2,3.4c0.5,0.5,1,0.7,1.3,0.7c0.3,0,0.6-0.4,0.8-1.1c0.2-1,0.4-2.3,0.5-3.9
			c0.8,0.3,1.4,0.6,1.9,0.7c-0.3,2-0.6,3.5-0.9,4.4c-0.4,1.4-1.1,2.1-2.2,2.1c-0.9,0-1.7-0.4-2.5-1.1c-1-0.9-1.8-2.1-2.6-3.8
			c-1.6,1.7-3.4,3.1-5.3,4.4C481.4,189.6,481,189.1,480.4,188.5z M488.1,167.7l1.1-1.4c1.2,0.8,2.5,1.9,4,3.1l-1.3,1.6
			c-0.1-0.1-0.3-0.2-0.5-0.5C490.1,169.3,489,168.3,488.1,167.7z"/>
		<path class="st0" d="M229.1,219.6h17.7v1.9h-17.7V219.6z M233.2,215.6v-1.9l1-10h2l-0.4,4h16.9v1.9h-17.1l-0.4,4.1h15.7
			c-0.2,3.6-0.4,6.9-0.6,9.9c-0.2,1.8-0.7,3-1.5,3.6c-0.7,0.6-1.9,0.9-3.6,0.9c-1.6,0-3.4-0.1-5.4-0.1c-0.1-0.6-0.2-1.3-0.4-2.2
			c2.4,0.2,4.2,0.3,5.4,0.3c2.1,0.2,3.3-0.7,3.5-2.7c0.2-2.3,0.4-4.9,0.5-7.9H233.2z"/>
		<path class="st0" d="M253.6,227c2.9-0.5,5.3-1.3,7-2.4c-1.4-1-2.6-2.3-3.7-3.9l1.3-1h-1.8V209h8.4c0-0.7,0-1.5,0-2.3h-10.3v-1.8
			h21.9v1.8h-9.8c0,0.8,0,1.6,0,2.3h7.9v11.9h-1.8v-1.2H266c-0.4,2-1.1,3.6-2,4.6c3.2,1.2,7.6,1.9,13.3,1.8c-0.4,0.7-0.7,1.4-1,2
			c-6.3-0.2-11-1-13.9-2.5c-1.8,1.3-4.4,2.3-7.7,3.1C254.4,228.2,254,227.6,253.6,227z M258.1,213.5h6.5c0-0.8,0-1.7,0-2.7h-6.6
			V213.5z M264.6,215.2h-6.5v2.7h6.3C264.5,217.1,264.6,216.2,264.6,215.2z M262.2,223.5c0.9-0.8,1.5-2,1.9-3.8h-5.8
			C259.4,221.3,260.7,222.6,262.2,223.5z M266.2,217.9h6.4v-2.7h-6.2C266.4,216.2,266.4,217.1,266.2,217.9z M272.7,210.8h-6.1
			c0,1,0,1.9,0,2.7h6.1V210.8z"/>
		<path class="st0" d="M288.2,203.7h2.4c-0.8,0.9-1.6,1.8-2.5,2.6h11.2v1.7c-5.5,4.7-12.1,8.2-19.9,10.5c-0.3-0.7-0.7-1.3-1.1-1.8
			c3.3-0.9,6.2-2,8.8-3.1c-0.6-0.7-1.3-1.5-2.3-2.5l1.3-1.1c0.9,1,1.8,1.9,2.6,2.8c2.9-1.4,5.5-3,7.7-4.7h-10.3
			c-1.7,1.5-3.6,2.9-5.9,4.3c-0.3-0.5-0.8-1-1.3-1.6C282.7,208.7,285.7,206.4,288.2,203.7z M291.8,213.9h2.4
			c-0.7,0.8-1.5,1.5-2.3,2.2h8.7v1.9c-5.1,5.9-12,9.6-20.5,11c-0.3-0.6-0.6-1.2-1.1-1.9c3.9-0.6,7.4-1.6,10.4-3
			c-0.5-0.6-1.1-1.4-2-2.4l1.4-1.1c0.8,0.9,1.6,1.8,2.2,2.7c2.7-1.5,5-3.2,6.9-5.3h-8.2c-2.8,2.2-5.8,4.1-8.9,5.5
			c-0.3-0.5-0.7-1.1-1.1-1.7C284.3,219.7,288.3,217.1,291.8,213.9z"/>
		<path class="st0" d="M303.4,206.1h8.2v20.7h-1.9v-2.1h-4.5v2.4h-1.9V206.1z M309.7,208h-4.5v6.4h4.5V208z M305.3,222.8h4.5v-6.6
			h-4.5V222.8z M312.4,209.3h8.5v-5.6h1.9v5.6h3.4v1.9h-3.4v13.7c0,2.3-1,3.4-3.1,3.4c-0.9,0-2.3,0-4.1-0.1
			c-0.1-0.6-0.2-1.3-0.4-2.1c1.7,0.1,3,0.2,3.9,0.2c1.1,0,1.7-0.6,1.7-1.8v-13.3h-8.5V209.3z M315.1,213.6c1.3,2.5,2.2,4.4,2.9,5.9
			c-0.4,0.2-1,0.5-1.9,1c-0.6-1.6-1.5-3.6-2.7-6L315.1,213.6z"/>
		<path class="st0" d="M339.6,203.8v7.4h9.3v14c0,2-1,3-3.1,3c-0.8,0-2,0-3.3,0c-0.1-0.6-0.2-1.3-0.3-2.1c1.3,0.1,2.4,0.2,3.2,0.2
			c1.2,0.1,1.8-0.5,1.8-1.6V213h-16.7v15.5h-1.8v-17.3h9.2v-7.4H339.6z M329,206.1l1.3-1.3c1.6,1.4,3.1,2.8,4.5,4.2l-1.5,1.5
			C331.7,208.7,330.3,207.2,329,206.1z M333.4,216h10.5v7.3h-8.8v1.2h-1.7V216z M342.2,217.7h-7.1v3.9h7.1V217.7z M342.1,209.3
			c1.7-1.4,3.2-3,4.7-4.6l1.5,1.3c-1.6,1.7-3.3,3.2-4.9,4.6L342.1,209.3z"/>
		<path class="st0" d="M351.3,223.1c1.1-0.3,2.2-0.6,3.4-1V215h-3v-1.8h3v-5.7h-3.1v-1.8h8v1.8h-3.1v5.7h2.7v1.8h-2.7v6.6
			c1-0.3,2.1-0.7,3.2-1c0,0.8,0,1.5,0,2c-2.3,0.7-5,1.6-8.1,2.7L351.3,223.1z M360,212.8h14.5v1.9H370v10c0,0.8,0.4,1.2,1.1,1.2h0.7
			c0.8,0,1.2-0.5,1.3-1.4c0.1-0.7,0.2-1.7,0.3-3c0.6,0.3,1.2,0.5,1.8,0.7c-0.1,1.1-0.2,2-0.4,2.9c-0.3,1.8-1.1,2.7-2.6,2.7h-1.6
			c-1.7,0-2.6-0.9-2.6-2.8v-10.3h-3.4c0,4-0.5,6.9-1.3,8.7c-0.9,2.1-2.6,3.9-5.2,5.4c-0.3-0.6-0.8-1.2-1.3-1.8c2.4-1.4,4-3,4.7-4.7
			c0.7-1.4,1-3.9,1.1-7.6H360V212.8z M361.1,205.5h12.1v1.9h-12.1V205.5z"/>
		<path class="st0" d="M376.1,226.1c4.8-1.5,8.6-3.9,11.5-7.2c-0.2-0.5-0.5-1-0.8-1.4c-2.4,2.6-5.6,4.6-9.8,6
			c-0.2-0.6-0.5-1.2-0.9-1.7c4.1-1.2,7.3-3.1,9.6-5.7c-0.3-0.3-0.5-0.6-0.9-0.8c-2.1,1.6-4.7,2.9-7.8,3.9c-0.3-0.6-0.7-1.2-1.1-1.8
			c3.8-0.9,6.8-2.4,9.1-4.5h-6v-1.8h17v1.8h-8.7c-0.4,0.5-0.8,0.9-1.3,1.3c1.2,1.1,2.2,2.3,2.9,3.6c2.5-1.3,4.7-2.6,6.6-4l1.1,1.6
			c-1.3,0.8-2.7,1.7-4.1,2.5c1.4,3.2,3.7,5.5,6.9,6.8c-0.5,0.6-1,1.3-1.5,2c-3.1-1.7-5.4-4.3-6.9-7.9c-0.5,0.2-0.9,0.5-1.4,0.7
			c0.9,3.6,0.8,6.2-0.4,7.9c-0.6,0.7-1.7,1.1-3.3,1.1c-0.6,0-1.6,0-3-0.1c-0.1-0.7-0.2-1.4-0.4-2.1c1.2,0.2,2.3,0.2,3.3,0.2
			c1.7,0.1,2.6-1,2.5-3.3c0-0.8-0.1-1.5-0.3-2.2c-2.8,3-6.6,5.3-11.3,6.9C376.7,227.3,376.5,226.8,376.1,226.1z M376.6,206.9h10.8
			c-0.5-0.8-1-1.6-1.6-2.4l1.7-1.1c0.7,0.9,1.4,1.9,2,2.8l-1.2,0.8h10.3v4.3h-1.9v-2.5h-18.1v2.5h-1.9V206.9z"/>
		<path class="st0" d="M400,217c1.1-0.3,2.3-0.6,3.6-1v-5.6h-3.1v-1.7h3.1v-4.7h1.8v4.7h2.7v1.7h-2.7v5.1c0.9-0.3,1.8-0.6,2.7-0.9
			c0,0.7,0,1.4,0,2c-0.9,0.3-1.8,0.6-2.8,0.9v8.3c0,1.7-0.7,2.5-2.1,2.6c-0.7,0-1.5,0-2.5,0c-0.1-0.7-0.2-1.4-0.3-2.1
			c1,0.1,1.7,0.2,2.1,0.2c0.7,0,1.1-0.4,1.1-1.3v-7c-1.1,0.4-2.2,0.7-3.3,1.1L400,217z M407.7,217.3h3.7c0-1.7,0-3.9,0-6.7h-2.5
			v-1.8h7.9c1.1-1.6,2.1-3.4,3.1-5.2l1.8,1.2c-1,1.4-1.9,2.7-2.8,4h4.1v1.8h-2.9v6.7h3.7v1.8h-3.7v9.4h-1.8v-9.4h-5.2
			c-0.1,4-1.7,7.3-4.7,9.8c-0.4-0.5-0.9-1.1-1.5-1.6c2.8-2.2,4.2-4.9,4.4-8.2h-3.6V217.3z M410.4,204.8l1.4-1.1
			c0.8,0.9,1.7,2.1,2.8,3.5l-1.6,1.2C412,206.9,411.2,205.7,410.4,204.8z M413.2,217.3h5.1v-6.7h-5.1
			C413.3,213.1,413.2,215.3,413.2,217.3z"/>
		<path class="st0" d="M433.4,205.3l-1.4,6.1h-2.1l1.9-6.1H433.4z M437.5,205.3l-1.4,6.1H434l1.9-6.1H437.5z"/>
		<path class="st0" d="M440.4,210.6c1.1,1.1,2.2,2.2,3.3,3.4c-0.6,0.6-1.1,1.1-1.4,1.4c-1-1.2-2-2.4-3.1-3.5L440.4,210.6z
			 M441.8,217.8c0.6,0.3,1.2,0.5,1.8,0.8c-0.6,2.8-1.2,6.1-1.9,10l-2-0.6C440.4,225.1,441.1,221.7,441.8,217.8z M441.1,204.2
			c0.9,0.9,1.9,2,3,3.3c-0.5,0.5-1,0.9-1.5,1.3c-0.9-1.3-1.9-2.4-2.8-3.5L441.1,204.2z M443.9,222.4h4.3v-2.5h-1.7v0.5h-1.6v-9.9
			h3.3v-2.3h-3.9v-1.6h3.9v-2.8h1.7v2.8h3.9v1.6h-3.9v2.3h3.3v9.9h-1.6v-0.5h-1.7v2.5h3.9v1.6h-3.9v4.7h-1.7V224h-4.3V222.4z
			 M451.6,212.1h-5.1v2.4h5.1V212.1z M446.5,218.3h5.1V216h-5.1V218.3z M455.1,205.2h6.8v20.5c0,1.8-0.7,2.7-2.2,2.7
			c-0.8,0-1.6,0-2.3,0c-0.1-0.6-0.2-1.2-0.3-1.8c0.9,0.1,1.6,0.1,2.1,0.1c0.7,0,1-0.4,1-1.1v-5.8h-3.6c-0.3,3.8-1.3,6.9-3.1,9.2
			c-0.5-0.5-0.9-0.9-1.4-1.3c1.1-1.6,1.9-3.2,2.3-4.8c0.4-1.5,0.6-3.5,0.6-6V205.2z M456.7,218.1h3.5v-4.8h-3.5
			C456.8,215.8,456.7,217.4,456.7,218.1z M460.2,206.8h-3.5v4.8h3.5V206.8z"/>
		<path class="st0" d="M482.6,230.4c-0.6,0.2-1.3,0.3-2.1,0.3c-1.1,0-2.2-0.3-3.3-0.9c-1-0.6-2.4-2-4.2-4.2c-2.5,0-4.5-0.9-6.1-2.8
			c-1.6-1.9-2.4-4.3-2.4-7.1c0-3.2,0.8-5.7,2.4-7.6c1.6-1.9,3.8-2.8,6.6-2.8c2.5,0,4.6,0.9,6.1,2.8c1.6,1.8,2.4,4.2,2.4,7.2
			c0,2.6-0.6,4.8-1.7,6.6c-1.1,1.8-2.7,2.9-4.7,3.4c1,1.2,1.9,2,2.6,2.4c0.7,0.4,1.5,0.7,2.4,0.7c0.7,0,1.4-0.1,1.9-0.3V230.4z
			 M467.1,215.5c0,2.4,0.6,4.3,1.7,5.7c1.1,1.4,2.6,2.2,4.5,2.2c2,0,3.5-0.7,4.6-2.1c1.1-1.4,1.7-3.3,1.7-5.8c0-2.5-0.6-4.5-1.7-5.9
			c-1.1-1.4-2.6-2.1-4.5-2.1c-1.9,0-3.4,0.7-4.6,2.2C467.7,211.2,467.1,213.1,467.1,215.5z"/>
		<path class="st0" d="M488.2,205.3l-1.9,6.1h-1.6l1.4-6.1H488.2z M492.3,205.3l-1.9,6.1h-1.6l1.4-6.1H492.3z"/>
	</g>
	<rect y="0" class="st1" width="720" height="234.2"/>
</g>
<g>
</g>
<g>
</g>
<g>
</g>
<g>
</g>
<g>
</g>
<g>
</g>
<g>
</g>
<g>
</g>
<g>
</g>
<g>
</g>
<g>
</g>
<g>
</g>
<g>
</g>
<g>
</g>
<g>
</g>
</svg>
