<?xml version="1.0" encoding="utf-8"?>
<!-- Generator: Adobe Illustrator 17.0.0, SVG Export Plug-In . SVG Version: 6.00 Build 0)  -->
<!DOCTYPE svg PUBLIC "-//W3C//DTD SVG 1.1//EN" "http://www.w3.org/Graphics/SVG/1.1/DTD/svg11.dtd">
<svg version="1.1" id="Layer_1" xmlns="http://www.w3.org/2000/svg" xmlns:xlink="http://www.w3.org/1999/xlink" x="0px" y="0px"
	 width="720px" height="121.5px" viewBox="0 0 720 121.5" style="enable-background:new 0 0 720 121.5;" xml:space="preserve">
<style type="text/css">
	.st0{fill:#FFFFFF;}
	.st1{fill:#E1433D;}
	.st2{fill:#E1433C;}
	.st3{fill:#005092;}
	.st4{fill:#040000;}
	.st5{fill:none;}
</style>
<g id="page-02-footer.svg">
	<g>
		<path class="st0" d="M613,48.6v-3.4c0-1.7,0.1-2.6,1.4-3.7h-5v7H599v1.5h10.4v6.6h-6.8v11.1h17.3V56.7H613v-6.6h9.6l1-3.7
			c-1,0.6-3.2,2.1-7.1,2.1H613z M605.9,58.2h10.7v8.1h-10.7V58.2z M584.3,50.1h9.2l1-3.7c-1,0.6-3.2,2.1-7.1,2.1H583
			c0.1-1.4,0.3-3.5,0.4-4.3c0.2-1.6,0.8-2.3,1.4-2.7h-5.1c0,0,0,1.6,0,2.2c0,2-0.2,3.7-0.3,4.9h-9.6v1.5h9.5
			c-0.4,3.4-1.5,6.7-3.3,9.7c-1.7,3-4.3,5.7-6.7,7.6l0,0.4c3.4-1.4,6.7-3.6,9.1-6.7c0.2-0.2,0.4-0.5,0.6-0.7
			c0.8,0.9,1.5,2.3,1.5,3.6c0,1.4,0.9,2.2,2,2.1c1.2-0.1,1.8-1,1.8-2.1c-0.1-0.9-0.5-1.8-1.6-2.7c-1-0.8-2-1.3-3.3-1.5
			c1.8-2.8,3.1-6.1,3.4-9.7h0.6c0.2,2.7,1.1,5.7,2,7.9c1.2,2.7,2.2,4.2,3.6,6c1.7,2.2,4.4,3.8,4.4,3.8l2.7-3.5
			C590.3,62,585.5,56.2,584.3,50.1 M652.4,60.7c-0.2,1.7-0.7,3.5-1.8,3.8c-0.4,0.1-1,0.1-1,0.1h-8.2V51.3l2.8-1.2v11.2h2.8v-4.5
			l1.6,2.4c0.8,0,2.1-0.1,3-0.9c0.8-0.7,1.1-1.5,1.1-2.3V45.5l-5.6,2.3v-2.6c0-1.7,0.1-2.6,1.4-3.7h-4.2V49l-2.8,1.1v-6h-2.9v7.2
			l-2.8,1.1l-0.6,2.6c0.8-0.9,1.5-1.5,3.4-2.4v14.6h11.1c0.3,0,0.8,0,0.8,0c3.3-0.2,3.5-1.7,3.5-1.7c-0.7-2.3-1.3-4.7-1.3-4.7H652.4
			z M647,49l2.8-1.2v7.2c0,1.2-0.9,2-2.8,1V49z M633.7,59.5v-8.8h2.8v-1.4h-2.8v-3.6h0c0.1-1.2,0.3-2.1,1.4-3h-4.2v6.6h-2.7v1.4h2.7
			v9.5c-1.1,0.2-2.1,0.4-3.4,0.6c0.9,1.8,1.8,3.7,1.8,3.7c2.8-1.6,6.1-3.8,8.1-5.9l-0.2-0.3C635.9,58.8,634.8,59.1,633.7,59.5
			 M676.3,51.9c0.5-0.8,1.2-1.9,1.8-2.7c1.1-1.7,2.5-1.8,2.5-1.8l-3.9-1.9h7.4v-1.4h-9c0-0.3,0-0.6-0.1-0.9c-0.3-0.7-0.9-1.3-2-1.6
			c-1.1-0.4-2.1-0.4-3.4-0.1l-0.1,0.3c1,0.3,2,1.3,2.5,2.3h-10.8v1.4h15.3l-2.6,6.4h-3.6c0.6-0.4,0.9-1.1,0.8-1.8
			c0-0.9-0.5-1.8-1.6-2.7c-1.1-0.9-2.2-1.4-3.7-1.5l-0.2,0.3c1,0.8,1.8,2.4,1.8,3.9c0,0.9,0.3,1.5,0.9,1.8l-7.5,0v4.6
			c0,5.2-0.8,9-2,11.4l0.3,0.3c3.4-2.5,5.2-6.4,5.2-11.7v-3.1h19.9v-1.5H676.3z"/>
		<rect x="521.5" y="41.6" class="st0" width="39.7" height="26.3"/>
		<polygon class="st1" points="521.5,41.7 541.3,54.7 521.5,67.7 		"/>
		<polygon class="st2" points="561.2,41.7 541.3,54.7 561.2,67.7 		"/>
		<rect x="538.6" y="41.6" class="st3" width="5.4" height="26.3"/>
		<path class="st4" d="M521.1,68.2h40.4V41.3h-40.4V68.2z M521.8,41.9h39.1v25.6h-39.1V41.9z"/>
		<path class="st0" d="M526,91.8c-1.6,0-3.4-0.5-4.6-1.3l-0.7-2.7h0.1c2,2,3.6,2.7,5.3,2.7c1.6,0,3-0.9,3-2.9c0-1.5-1-2-3.4-3.3
			c-2.8-1.5-4.6-2.7-4.6-5.1c0-2.7,2.6-3.5,5.2-3.5c1.4,0,2.7,0.2,3.7,0.5l0.6,2.4h-0.1c-1-0.9-2.7-1.7-4.4-1.7
			c-1.3,0-2.7,0.6-2.7,2.1c0,1.2,0.7,1.9,3.9,3.5c3.3,1.7,4.3,2.9,4.3,5C531.5,90.6,528.7,91.8,526,91.8"/>
		<path class="st0" d="M548.3,80.8l-2.8,10.9h-0.1c-0.6,0-1.1-0.3-1.6-1.6l-3.1-8.1l-2.8,7.9c-0.4,1.1-0.8,1.8-1.8,1.8h-0.1
			l-2.7-10.4c-0.4-1.4-0.6-1.7-1.3-2.3v-0.1h3.8V79c-0.3,0.3-0.5,0.6-0.5,1c0,0.3,0.1,0.7,0.2,1.2l1.8,7.1L540,80
			c0.3-0.8,0.6-1.2,1.4-1.2h0.3l3.5,9.1l1.7-6.9c0.1-0.3,0.1-0.6,0.1-0.8c0-0.5-0.2-0.8-0.6-1.2v-0.1h3V79
			C548.8,79.5,548.5,79.8,548.3,80.8"/>
		<path class="st0" d="M553.4,80.9v8.7c0,0.9,0.1,1.4,0.8,1.9v0.1h-3.7v-0.1c0.7-0.5,0.8-1,0.8-1.9v-8.7c0-0.9-0.1-1.4-0.8-1.9v-0.1
			h3.7V79C553.5,79.5,553.4,80,553.4,80.9"/>
		<path class="st0" d="M564.7,91.5c-0.9,0-1.7-0.1-2.6-1.6l-2-3.5c-0.4-0.7-0.4-0.7-1-0.7h-0.7v3.9c0,0.9,0.1,1.4,0.8,1.9v0.1h-3.7
			v-0.1c0.7-0.5,0.8-1,0.8-1.9v-8.7c0-0.9-0.1-1.4-0.8-1.9v-0.1h4.7c2.8,0,4.6,0.9,4.6,3.2c0,1.8-1.2,2.9-2.9,3.3l2.2,3.8
			c0.7,1.2,1.5,1.7,2.5,2.1v0.1H564.7z M559.9,79.9h-0.8c-0.6,0-0.7,0.1-0.7,0.8v4.1h1.3c1.5,0,2.8-0.8,2.8-2.6
			C562.5,80.4,561.5,79.9,559.9,79.9"/>
		<path class="st0" d="M575.5,91.5h-8.9v-0.1c0.7-0.5,0.8-1,0.8-1.9v-8.7c0-0.9-0.2-1.4-0.8-1.9v-0.1h8.2l0.4,1.8h0
			c-0.7-0.6-1.2-0.9-2.6-0.9h-2.4c-0.6,0-0.7,0.4-0.7,0.7v3.9h4.5l0.1,1.4h-0.1c-0.2-0.2-0.6-0.5-1.3-0.5h-3.2v4
			c0,1,0.2,1.2,0.7,1.2h2.4c1.8,0,2.3-0.3,3.4-1.2h0L575.5,91.5z"/>
		<path class="st0" d="M585.1,85.8h-1.7v3.7c0,0.9,0.1,1.4,0.8,1.9v0.1h-3.7v-0.1c0.7-0.5,0.8-1,0.8-1.9v-8.8c0-0.9-0.1-1.2-0.8-1.7
			v-0.1h4.8c2.8,0,4.5,1.1,4.5,3.4C589.9,84.7,588,85.8,585.1,85.8 M585,79.9h-0.8c-0.6,0-0.7,0.2-0.7,0.8v4.2h1.5
			c1.5,0,2.7-0.8,2.7-2.5S586.7,79.9,585,79.9"/>
		<path class="st0" d="M600.1,91.5c-0.9,0-1.7-0.1-2.6-1.6l-2-3.5c-0.4-0.7-0.4-0.7-1-0.7h-0.7v3.8c0,0.9,0.1,1.4,0.8,1.9v0.1h-3.7
			v-0.1c0.7-0.5,0.8-1,0.8-1.9v-8.7c0-0.9-0.1-1.4-0.8-1.9v-0.1h4.7c2.8,0,4.6,0.9,4.6,3.2c0,1.8-1.2,2.9-2.9,3.3l2.2,3.8
			c0.7,1.2,1.5,1.7,2.5,2.1v0.1H600.1z M595.3,79.9h-0.8c-0.5,0-0.7,0.1-0.7,0.8v4.1h1.3c1.6,0,2.8-0.8,2.8-2.6
			C598,80.4,596.9,79.9,595.3,79.9"/>
		<path class="st0" d="M608.3,91.8c-4.4,0-6.6-3.3-6.6-6.6c0-3.3,2.2-6.7,6.7-6.7c4.4,0,6.6,3.3,6.6,6.6
			C615.1,88.5,612.9,91.8,608.3,91.8 M608.4,79.7c-3,0-4.4,2.7-4.4,5.3c0,2.8,1.6,5.8,4.4,5.8c3,0,4.4-2.6,4.4-5.3
			C612.8,82.7,611.3,79.7,608.4,79.7"/>
		<path class="st0" d="M621.1,85.8h-1.7v3.7c0,0.9,0.1,1.4,0.8,1.9v0.1h-3.7v-0.1c0.7-0.5,0.8-1,0.8-1.9v-8.8c0-0.9-0.1-1.2-0.8-1.7
			v-0.1h4.8c2.8,0,4.5,1.1,4.5,3.4C625.9,84.7,623.9,85.8,621.1,85.8 M620.9,79.9h-0.8c-0.6,0-0.7,0.2-0.7,0.8v4.2h1.6
			c1.5,0,2.7-0.8,2.7-2.5S622.7,79.9,620.9,79.9"/>
		<path class="st0" d="M635.9,91.5H627v-0.1c0.7-0.5,0.8-1,0.8-1.9v-8.7c0-0.9-0.2-1.4-0.8-1.9v-0.1h8.2l0.4,1.8h0
			c-0.7-0.6-1.2-0.9-2.6-0.9h-2.4c-0.6,0-0.7,0.4-0.7,0.7v3.9h4.4l0.1,1.4h-0.1c-0.2-0.2-0.6-0.5-1.3-0.5h-3.2v4
			c0,1,0.2,1.2,0.7,1.2h2.4c1.8,0,2.3-0.2,3.4-1.2h0L635.9,91.5z"/>
		<path class="st0" d="M646.6,91.5c-0.9,0-1.7-0.1-2.6-1.6l-2-3.5c-0.4-0.7-0.4-0.7-1-0.7h-0.7v3.8c0,0.9,0.1,1.4,0.8,1.9v0.1h-3.7
			v-0.1c0.7-0.5,0.8-1,0.8-1.9v-8.7c0-0.9-0.1-1.4-0.8-1.9v-0.1h4.7c2.8,0,4.6,0.9,4.6,3.2c0,1.8-1.2,2.9-2.9,3.3l2.2,3.8
			c0.7,1.2,1.5,1.7,2.5,2.1v0.1H646.6z M641.9,79.9h-0.8c-0.6,0-0.7,0.1-0.7,0.8v4.1h1.3c1.5,0,2.8-0.8,2.8-2.6
			C644.5,80.4,643.4,79.9,641.9,79.9"/>
		<path class="st0" d="M658.8,81.1c-0.8-0.9-1.4-1.2-2.3-1.2h-1.2c-0.6,0-0.7,0.1-0.7,1.1v8.5c0,0.9,0.1,1.4,0.8,1.9v0.1h-3.8v-0.1
			c0.7-0.5,0.8-1,0.8-1.9V81c0-1-0.1-1.1-0.7-1.1h-1.1c-1,0-1.5,0.4-2.3,1.2h-0.1l0.5-2.2h9.6L658.8,81.1L658.8,81.1z"/>
		<path class="st0" d="M663,80.9v8.7c0,0.9,0.1,1.4,0.8,1.9v0.1H660v-0.1c0.7-0.5,0.8-1,0.8-1.9v-8.7c0-0.9-0.1-1.4-0.8-1.9v-0.1
			h3.7V79C663.1,79.5,663,80,663,80.9"/>
		<path class="st0" d="M673.9,91.5h-8.9v-0.1c0.7-0.5,0.8-1,0.8-1.9v-8.7c0-0.9-0.2-1.4-0.8-1.9v-0.1h8.2l0.4,1.8h0
			c-0.7-0.6-1.2-0.9-2.6-0.9h-2.4c-0.6,0-0.7,0.4-0.7,0.7v3.9h4.5l0.1,1.4h-0.1c-0.2-0.2-0.6-0.5-1.3-0.5H668v4c0,1,0.2,1.2,0.7,1.2
			h2.4c1.8,0,2.3-0.2,3.4-1.2h0L673.9,91.5z"/>
		<path class="st0" d="M679.9,91.8c-1.5,0-2.7-0.3-3.8-1l-0.6-2.3h0.1c1.6,1.6,3.1,2.2,4.4,2.2c1.4,0,2.6-0.5,2.6-2.2
			c0-1.1-0.9-1.7-3-2.8c-2.2-1.2-3.6-2.2-3.6-4.2c0-2.4,2.4-2.9,4.1-2.9c1.5,0,2.4,0.3,3.3,0.5l0.5,1.9h0c-1.2-0.9-2.3-1.3-3.8-1.3
			c-1.2,0-2.1,0.5-2.1,1.6c0,0.9,0.2,1.4,3,2.8c2.6,1.3,3.7,2.5,3.7,4.2C684.6,90.8,682.4,91.8,679.9,91.8"/>
	</g>
	<rect y="0" class="st5" width="720" height="121.5"/>
</g>
<g>
</g>
<g>
</g>
<g>
</g>
<g>
</g>
<g>
</g>
<g>
</g>
<g>
</g>
<g>
</g>
<g>
</g>
<g>
</g>
<g>
</g>
<g>
</g>
<g>
</g>
<g>
</g>
<g>
</g>
</svg>
