<?xml version="1.0" encoding="utf-8"?>
<!-- Generator: Adobe Illustrator 17.0.0, SVG Export Plug-In . SVG Version: 6.00 Build 0)  -->
<!DOCTYPE svg PUBLIC "-//W3C//DTD SVG 1.1//EN" "http://www.w3.org/Graphics/SVG/1.1/DTD/svg11.dtd">
<svg version="1.1" id="Layer_1" xmlns="http://www.w3.org/2000/svg" xmlns:xlink="http://www.w3.org/1999/xlink" x="0px" y="0px"
	 width="720px" height="1036.5px" viewBox="0 0 720 1036.5" style="enable-background:new 0 0 720 1036.5;" xml:space="preserve">
<style type="text/css">
	.st0{fill-rule:evenodd;clip-rule:evenodd;fill:#C24B50;}
	.st1{fill:#FFFFFF;}
	.st2{fill-rule:evenodd;clip-rule:evenodd;fill:#FFFFFF;}
	.st3{fill:none;}
</style>
<g id="page-04.svg">
	<g>
		<rect x="86" y="173.3" class="st0" width="544" height="690"/>
		<path class="st1" d="M446,216.1c-1.7,0-3-1.3-3-3v-0.1c0-1.7,1.3-3,3-3c1.7,0,3,1.3,3,3v0.1C449,214.7,447.7,216.1,446,216.1z
			 M446,203.9c-1.7,0-3-1.3-3-3v-0.1c0-1.7,1.3-3,3-3c1.7,0,3,1.3,3,3v0.1C449,202.6,447.7,203.9,446,203.9z M446,191.8
			c-1.7,0-3-1.3-3-3v-0.1c0-1.7,1.3-3,3-3c1.7,0,3,1.3,3,3v0.1C449,190.5,447.7,191.8,446,191.8z M446,179.7c-1.7,0-3-1.3-3-3v-0.1
			c0-1.7,1.3-3,3-3c1.7,0,3,1.3,3,3v0.1C449,178.4,447.7,179.7,446,179.7z M446,167.6c-1.7,0-3-1.3-3-3v-0.1c0-1.7,1.3-3,3-3
			c1.7,0,3,1.3,3,3v0.1C449,166.3,447.7,167.6,446,167.6z M446,155.5c-1.7,0-3-1.3-3-3v-0.1c0-1.7,1.3-3,3-3c1.7,0,3,1.3,3,3v0.1
			C449,154.2,447.7,155.5,446,155.5z M445.9,143.7c-1.6,0-2.9-1.2-3-2.8l0-0.1c-0.1-1.7,1.2-3.1,2.8-3.2c0.1,0,0.1,0,0.2,0
			c1.6,0,2.9,1.2,3,2.8c0,0,0,0.1,0,0.1c0,0,0,0,0,0c0.1,1.6-1.2,3-2.8,3.1C446,143.7,445.9,143.7,445.9,143.7z M444.5,132.1
			c-1.4,0-2.7-1-2.9-2.4l0-0.1c-0.3-1.6,0.8-3.2,2.4-3.5c0.2,0,0.4-0.1,0.6-0.1c1.4,0,2.7,1,2.9,2.4c0,0,0,0,0,0.1c0,0,0,0,0,0.1
			c0.3,1.6-0.8,3.2-2.4,3.5C444.9,132.1,444.7,132.1,444.5,132.1z M441.5,120.8c-1.3,0-2.4-0.8-2.8-2l0-0.1
			c-0.5-1.6,0.3-3.3,1.9-3.8c0.3-0.1,0.6-0.2,1-0.2c1.3,0,2.4,0.8,2.8,2c0,0,0,0,0,0c0,0,0,0,0,0c0,0,0,0,0,0
			c0.5,1.6-0.3,3.3-1.9,3.8C442.2,120.7,441.9,120.8,441.5,120.8z M437.1,110c-1.1,0-2.2-0.6-2.7-1.7l0-0.1c-0.7-1.5-0.1-3.3,1.3-4
			c0.4-0.2,0.9-0.3,1.3-0.3c1.1,0,2.1,0.6,2.7,1.6c0,0,0,0.1,0,0.1c0,0,0,0,0,0c0.7,1.5,0.1,3.3-1.3,4
			C438,109.9,437.5,110,437.1,110z M431.2,99.9c-1,0-1.9-0.5-2.5-1.3l-0.1-0.1c-0.9-1.4-0.6-3.2,0.8-4.2c0.5-0.4,1.1-0.5,1.7-0.5
			c1,0,1.9,0.5,2.5,1.3c0,0,0,0.1,0.1,0.1c0.9,1.4,0.6,3.2-0.8,4.2C432.3,99.7,431.7,99.9,431.2,99.9z M423.9,90.7
			c-0.8,0-1.6-0.3-2.2-1l-0.1-0.1c-1.1-1.2-1-3.1,0.2-4.2c0.6-0.5,1.3-0.8,2-0.8c0.8,0,1.6,0.3,2.2,1c0,0,0,0,0.1,0.1l0,0
			c0,0,0,0,0,0c1.1,1.2,1,3.1-0.2,4.2C425.4,90.4,424.7,90.7,423.9,90.7z M415.5,82.5c-0.7,0-1.4-0.2-1.9-0.7l-0.1-0.1
			c-1.3-1.1-1.4-3-0.4-4.2c0.6-0.7,1.4-1.1,2.3-1.1c0.7,0,1.4,0.2,1.9,0.7c0,0,0,0,0,0c0,0,0,0,0,0c1.3,1.1,1.4,3,0.3,4.2
			C417.2,82.2,416.4,82.5,415.5,82.5z M406.1,75.6c-0.6,0-1.1-0.2-1.6-0.5l-0.1-0.1c-1.4-0.9-1.8-2.7-0.9-4.1
			c0.6-0.9,1.5-1.4,2.5-1.4c0.5,0,1.1,0.2,1.6,0.5c0,0,0,0,0.1,0c0,0,0,0,0,0c1.4,0.9,1.8,2.7,0.9,4.1
			C408.1,75.1,407.1,75.6,406.1,75.6z M395.9,70c-0.4,0-0.8-0.1-1.2-0.3l-0.1,0c-1.5-0.7-2.2-2.5-1.5-4c0.5-1.1,1.6-1.8,2.7-1.8
			c0.4,0,0.8,0.1,1.2,0.3c0,0,0.1,0,0.1,0.1c1.5,0.7,2.2,2.5,1.5,4C398.1,69.4,397,70,395.9,70z M384.9,65.9c-0.3,0-0.6,0-0.9-0.1
			l-0.1,0c-1.6-0.5-2.5-2.2-2-3.7c0.4-1.3,1.6-2.1,2.9-2.1c0.3,0,0.6,0,0.8,0.1c0,0,0,0,0,0c0,0,0,0,0.1,0c0,0,0,0,0,0
			c1.6,0.5,2.5,2.2,2,3.7C387.4,65,386.2,65.9,384.9,65.9z M373.5,63.3c-0.2,0-0.3,0-0.5,0l-0.1,0c-1.6-0.3-2.8-1.8-2.5-3.4
			c0.2-1.5,1.5-2.5,3-2.5c0.1,0,0.3,0,0.4,0c0.1,0,0.1,0,0.2,0c1.6,0.3,2.7,1.8,2.5,3.4C376.3,62.2,375,63.3,373.5,63.3z
			 M361.9,62.2C361.9,62.2,361.8,62.2,361.9,62.2l-0.2,0c-1.7,0-3-1.4-2.9-3.1c0-1.6,1.4-2.9,3-2.9c0,0,0,0,0.1,0c0,0,0.1,0,0.1,0
			c0,0,0,0,0,0c1.7,0,3,1.4,2.9,3.1C364.8,60.9,363.5,62.2,361.9,62.2z M350.1,62.8c-1.5,0-2.8-1.1-3-2.7c-0.2-1.6,1-3.1,2.6-3.3
			c0,0,0,0,0,0c0,0,0.1,0,0.1,0c0.1,0,0.2,0,0.3,0c1.5,0,2.8,1.1,3,2.7c0.2,1.6-1,3.1-2.6,3.3l-0.1,0
			C350.3,62.8,350.2,62.8,350.1,62.8z M338.6,64.9c-1.3,0-2.6-0.9-2.9-2.3c-0.4-1.6,0.6-3.2,2.2-3.6c0,0,0,0,0,0c0,0,0,0,0,0
			c0,0,0,0,0.1,0c0.2-0.1,0.5-0.1,0.7-0.1c1.3,0,2.6,0.9,2.9,2.3c0.4,1.6-0.6,3.2-2.2,3.6l-0.1,0C339.1,64.9,338.8,64.9,338.6,64.9z
			 M327.5,68.6c-1.2,0-2.3-0.7-2.8-1.9c-0.6-1.5,0.1-3.3,1.6-3.9c0,0,0,0,0,0c0,0,0,0,0.1,0c0,0,0,0,0,0c0.4-0.2,0.8-0.2,1.1-0.2
			c1.2,0,2.3,0.7,2.8,1.9c0.6,1.5-0.1,3.3-1.6,3.9l-0.1,0C328.2,68.5,327.9,68.6,327.5,68.6z M317,73.7c-1,0-2-0.5-2.6-1.5
			c-0.8-1.4-0.3-3.3,1.1-4.1c0,0,0,0,0,0c0,0,0,0,0.1,0c0,0,0,0,0,0c0.5-0.3,1-0.4,1.5-0.4c1,0,2,0.5,2.6,1.5
			c0.8,1.4,0.3,3.3-1.1,4.1l-0.1,0.1C318,73.6,317.5,73.7,317,73.7z M307.3,80.2c-0.9,0-1.8-0.4-2.4-1.2c-1-1.3-0.8-3.2,0.5-4.2
			c0,0,0.1-0.1,0.1-0.1c0.5-0.4,1.2-0.6,1.8-0.6c0.9,0,1.8,0.4,2.4,1.2c1,1.3,0.8,3.2-0.5,4.2l-0.1,0.1
			C308.6,80,307.9,80.2,307.3,80.2z M298.5,88c-0.8,0-1.5-0.3-2.1-0.9c-1.2-1.2-1.2-3.1,0-4.2c0,0,0,0,0,0c0,0,0,0,0,0c0,0,0,0,0,0
			c0.6-0.6,1.4-0.9,2.1-0.9c0.8,0,1.5,0.3,2.1,0.9c1.2,1.2,1.2,3.1,0,4.2l-0.1,0.1C300.1,87.7,299.3,88,298.5,88z M290.9,96.9
			c-0.6,0-1.3-0.2-1.8-0.6c-1.3-1-1.6-2.9-0.6-4.2c0,0,0.1-0.1,0.1-0.1c0.6-0.8,1.5-1.2,2.4-1.2c0.6,0,1.3,0.2,1.8,0.6
			c1.3,1,1.6,2.9,0.6,4.2l-0.1,0.1C292.8,96.5,291.9,96.9,290.9,96.9z M284.6,106.7c-0.5,0-1-0.1-1.4-0.4c-1.5-0.8-2-2.6-1.2-4.1
			c0,0,0,0,0,0c0,0,0,0,0-0.1c0,0,0,0,0,0c0.5-1,1.6-1.5,2.6-1.5c0.5,0,1,0.1,1.4,0.4c1.4,0.8,2,2.6,1.2,4.1l0,0.1
			C286.7,106.2,285.7,106.7,284.6,106.7z M279.7,117.3c-0.4,0-0.7-0.1-1.1-0.2c-1.5-0.6-2.3-2.3-1.7-3.9c0,0,0,0,0,0c0,0,0,0,0,0
			c0,0,0,0,0,0c0.5-1.2,1.6-1.9,2.8-1.9c0.4,0,0.7,0.1,1.1,0.2c1.5,0.6,2.3,2.3,1.7,3.9l0,0.1C282,116.6,280.9,117.3,279.7,117.3z
			 M276.2,128.5c-0.2,0-0.5,0-0.7-0.1c-1.6-0.4-2.6-2-2.2-3.6c0,0,0-0.1,0-0.1c0.3-1.4,1.6-2.3,2.9-2.3c0.2,0,0.5,0,0.7,0.1
			c1.6,0.4,2.6,2,2.2,3.6l0,0.1C278.8,127.6,277.6,128.5,276.2,128.5z M274.4,140c-0.1,0-0.2,0-0.3,0c-1.6-0.2-2.9-1.6-2.7-3.3
			c0,0,0,0,0,0c0,0,0-0.1,0-0.1c0.1-1.6,1.5-2.7,3-2.7c0.1,0,0.2,0,0.3,0c1.7,0.2,2.9,1.6,2.7,3.3l0,0.1
			C277.2,138.9,275.9,140,274.4,140z M274.1,151.7c-1.6,0-2.9-1.3-3-2.9c0,0,0,0,0,0c0,0,0-0.1,0-0.1c-0.1-1.7,1.2-3.1,2.9-3.1
			c0,0,0.1,0,0.1,0c1.6,0,2.9,1.3,3,2.9l0,0.1c0.1,1.7-1.2,3.1-2.9,3.1C274.1,151.7,274.1,151.7,274.1,151.7z M274,163.8
			c-1.7,0-3-1.3-3-3v-0.1c0-1.7,1.3-3,3-3c1.7,0,3,1.3,3,3v0.1C277,162.5,275.7,163.8,274,163.8z M274,176c-1.7,0-3-1.3-3-3v-0.1
			c0-1.7,1.3-3,3-3c1.7,0,3,1.3,3,3v0.1C277,174.6,275.7,176,274,176z M274,188.1c-1.7,0-3-1.3-3-3V185c0-1.7,1.3-3,3-3
			c1.7,0,3,1.3,3,3v0.1C277,186.7,275.7,188.1,274,188.1z M274,200.2c-1.7,0-3-1.3-3-3v-0.1c0-1.7,1.3-3,3-3c1.7,0,3,1.3,3,3v0.1
			C277,198.8,275.7,200.2,274,200.2z M274,212.3c-1.7,0-3-1.3-3-3v-0.1c0-1.7,1.3-3,3-3c1.7,0,3,1.3,3,3v0.1
			C277,210.9,275.7,212.3,274,212.3z"/>
	</g>
	<path class="st1" d="M184.8,380v-7.2h35.3c0.4-5.5,0.7-13.4,0.7-23.7h7.4c0,5.7-0.2,13.6-0.7,23.7h35.6v7.2h-35.3
		c3.1,22,15.3,37.1,36.6,45.5c-2.2,3.1-3.9,5.5-5,7.2c-19.5-9.1-31.3-22.9-35.3-41.6c-3.1,18.2-14.8,32.5-35,43l-5-6.5
		c22.2-11,34-26.9,35.3-47.7H184.8z M282.5,401.5c0,12.9-1.8,23.8-5.4,32.6c-2-1.4-3.9-2.7-5.7-3.9c3.8-8.1,5.5-20.3,5-36.5v-41.2
		h6.1v25.8h9.1v-28h5.7v28h5.4v6.1h-20.2v10v1.1h15.8v38h-5.7v-31.9H282.5L282.5,401.5z M306.3,398.7v-41.2h14.1
		c0.4-1.4,0.9-3.5,1.3-6.1c0.2-1.2,0.4-2.1,0.7-2.9l6.7,0.7c-0.7,2.6-1.5,5.4-2.4,8.2H349v41.2h-22.9c-2.9,5-7.5,9.4-13.8,13.3h16.8
		v-9.7h6.1v9.7h18.2v6.5h-18.2v16.1h-6.1v-16.1h-27.6v-6.5h8.7c-0.9-1.4-2-2.6-3.4-3.6c6.1-3.3,10.2-6.6,12.4-9.7H306.3z
		 M312.1,363.2v12.2h12.8v-12.2H312.1z M322.5,392.6c1.3-3.3,2.1-7.3,2.4-11.8h-12.8v11.8H322.5z M343,392.6v-11.8h-12.4
		c-0.2,4.5-0.9,8.5-2,11.8H343z M343,363.2h-12.4v12.2H343V363.2z M366.8,393.3c-0.7-1.9-1.9-5.1-3.7-9.7c-0.9-2.9-1.7-5.1-2.4-6.8
		l9.1-3.2c0.7,1.7,1.7,4.2,3,7.5c1.8,3.8,3,6.7,3.7,8.6L366.8,393.3z M376.8,401.2c-2.5,11.9-4.6,22.8-6.4,32.6l-9.8-2.9
		c2.7-11.7,4.9-22.7,6.7-33L376.8,401.2L376.8,401.2z M368.1,369.3c-2-5.5-4.3-11-6.7-16.5l9.4-3.2c2.5,5,4.7,10.5,6.7,16.5
		L368.1,369.3z M377.9,365v-9h11.4v-7.2h9.4v7.2h11.4v9h-11.4v5.4h10.1v36.2h-10.1v5.7h12.4v3.9c1.3-5.3,2-12.1,2-20.4v-43.4H439v71
		c0,6.2-2.4,9.4-7.1,9.7c-1.8,0.2-4.9,0.4-9.4,0.4c-0.7-4.3-1.3-7.5-2-9.7c2,0,3.9,0,5.7,0c2.7,0.2,3.9-1.1,3.7-3.9v-12.9h-8.1
		c-0.7,10.8-3.5,20.1-8.4,27.9c-2.5-1.7-5.4-3.3-8.7-5c0.9-1.7,2.1-3.7,3.7-6.1c0.4-1,0.8-1.7,1-2.2h-10.8v12.5h-9.4v-12.5h-12.8
		v-9.3h12.8v-5.7h-10.1v-36.2h10.1V365H377.9z M387.9,379v5.7h12.4V379H387.9z M387.9,392.2v6.1h12.4v-6.1H387.9z M421.9,362.8v11.8
		h8.1v-11.8H421.9z M421.9,396.5v0.4h8.1v-12.2h-8.1V396.5z M486.7,410.8c-0.9-0.7-2.2-1.9-4-3.6c-3.1-2.9-5.5-4.9-7.1-6.1v33h-10.8
		V404c-3.6,3.6-7.6,6.9-12.1,10c-0.5-1.4-1.1-3.6-2-6.5c-0.7-2.4-1.2-4.3-1.7-5.7c9.9-6.5,17.8-14.7,23.9-24.7h-20.8v-11.1h16.1
		c-0.7-1.7-1.9-4.2-3.7-7.5c-1.3-2.6-2.4-4.7-3-6.1l9.8-3.9c0.4,0.7,1,1.7,1.7,2.9c2.5,4.5,4.5,8.1,6.1,10.8l-10.1,3.9h16.5v11.5
		c-0.2,0.5-0.6,1.1-1,1.8c-2.5,4.3-5.4,8.5-8.7,12.5v5.4l5-5.7c5.6,4.1,10,7.6,13.1,10.7L486.7,410.8z M506.9,432
		c-8.5,0.2-12.7-4.4-12.4-14v-68.1h11.8v65.2c-0.2,4.1,1.2,6,4.4,5.7h2.7c3.1,0.2,4.9-1.8,5.4-6.1c0.4-4.3,0.8-9.2,1-14.7
		c0.4,0.2,1,0.5,1.7,0.7c4.5,1.7,7.6,2.7,9.4,3.2c-0.2,1.2-0.3,2.7-0.3,4.7c-0.7,5-1.2,9.1-1.7,12.2c-1.1,7.6-5.9,11.3-14.5,11.1
		H506.9z"/>
	<path class="st1" d="M189.9,619c3.1,2.5,5.9,5,8.6,7.4l-4.3,5.1c-2.9-2.9-5.5-5.4-8-7.7L189.9,619z M186.9,651.8
		c1.7-5.1,3.4-11.4,5.1-18.9c2.1,0.9,4.2,1.6,6.2,2.2c-1.6,7.3-3.3,13.5-4.9,18.7C191.1,653,188.9,652.4,186.9,651.8L186.9,651.8z
		 M191.6,606.8c3,2.4,5.6,4.6,7.9,6.7l-4.3,4.8c-1.6-1.6-4.1-4-7.5-7.1L191.6,606.8z M198.9,619.7h13v-5.8l-11.5,0.5
		c-0.2-1.7-0.5-3.6-0.8-5.7c10.3-0.2,20.1-0.8,29.5-1.7l0.8,5.7c-3.7,0.3-7.5,0.6-11.5,0.8v6.2h13.1v5.9h-13.1v6.2h11.2v22.4h-6.3
		v-2.5H207v2.5h-6.3v-22.4h11.2v-6.2h-13V619.7z M223.3,637.6H207v8.3h16.3V637.6z M253.4,630.3l4.9,12.4c2.1-4.1,3.1-11.5,3.1-22.4
		h-4.7v-6.5h4.8l0.1-8.4h6.1l-0.1,8.4h12.1l-0.5,27.8c-0.1,3.7-0.2,6.1-0.5,7c-0.2,0.9-0.6,1.8-1.3,2.5c-0.6,0.7-1.5,1.3-2.5,1.6
		c-1,0.3-3.8,0.5-8.3,0.6c-0.5-2.5-1-5-1.7-7.4c2,0.1,3.7,0.2,5.1,0.2c0.9,0,1.6-0.2,2.1-0.6c0.5-0.4,0.8-0.9,0.8-1.6
		c0.1-0.7,0.2-3.2,0.3-7.6c0.1-4.3,0.2-9.7,0.2-16.1h-6c-0.1,7.3-0.4,12.6-0.8,15.7c-0.4,3.2-1.3,6.4-2.6,9.6c-1.3,3.2-3,6.1-5,8.6
		c-1.8-1.5-3.6-2.9-5.6-4.1c0.9-1,1.7-2,2.5-3.1l-12.8,1.2c-1.9,0.2-3.4,0.6-4.4,1l-2.9-6c1.6-1.4,3.6-6.6,5.9-15.5H236v-6.3h21.4
		v6.3h-8.9c-1.4,4.7-3,9.3-4.6,13.7c2.8-0.1,5.3-0.2,7.6-0.3c-1.1-3.3-2.2-6.3-3.3-9.1L253.4,630.3z M255.8,615.4H238v-6.3h17.8
		V615.4z M286.2,626.1h44.7v7.3h-44.7V626.1z M353.2,633.9c2.5,4.3,4.8,8.7,6.9,13.1l-5.4,3.2l-1.7-3.6c-6.4,2.5-11,4.4-13.7,5.9
		l-3-5c1-1.2,1.5-2.9,1.5-5v-35h20.3v26.5H353.2L353.2,633.9z M352.3,613.5h-8.4v4.4h8.4V613.5z M352.3,627.8v-4.4h-8.4v4.4H352.3z
		 M348.2,636.3l4.2-2.5h-8.5V644l6.8-2.6L348.2,636.3z M360.6,608.6h18.3v30.7c0,2.3-0.4,4-1.2,5.2c-0.8,1.2-2,1.8-3.5,1.9
		c-1.5,0.1-3.6,0.1-6.4,0.1c-0.3-2.6-0.6-4.8-0.9-6.6c1.8,0.2,3.2,0.3,4.4,0.3c1.1,0,1.7-0.7,1.7-2.2v-23.1h-6.3v38.9h-6V608.6z
		 M385.6,633.5h11.9c-3.1-2-6.4-4.1-10-6.3l3.4-5.5c4.1,2.3,7.9,4.6,11.5,6.8l-2.9,4.9h8.4c1.1-4.3,1.6-10.4,1.5-18.3h6.3
		c0.1,7.5-0.4,13.5-1.3,18.3h16v6.3h-17.9c5.9,2.6,12.1,5.5,18.4,8.7l-3,6c-6-3.3-12.3-6.4-18.9-9.5c-3.9,4-10.2,7.2-19,9.5
		c-1.3-2.5-2.6-4.8-3.8-6.8c9.6-1.6,15.8-4.2,18.6-7.9h-19.1V633.5z M425.4,625.1c-2-0.8-4-1.5-6-1.9c1-3,2-6,3-9h-25
		c3,1.5,6.1,3.2,9.4,5.1l-3.4,5.8c-3.7-2.5-7.3-4.6-10.8-6.5l2.6-4.4h-8.2v-6.1h41.8v5.5C427.7,617.9,426.5,621.8,425.4,625.1
		L425.4,625.1z M452.6,633.9c2.5,4.3,4.8,8.7,6.9,13.1l-5.4,3.2l-1.7-3.6c-6.4,2.5-11,4.4-13.7,5.9l-3-5c1-1.2,1.5-2.9,1.5-5v-35
		h20.3v26.5H452.6L452.6,633.9z M451.7,613.5h-8.4v4.4h8.4V613.5z M451.7,627.8v-4.4h-8.4v4.4H451.7z M447.6,636.3l4.2-2.5h-8.5V644
		l6.8-2.6L447.6,636.3z M460,608.6h18.3v30.7c0,2.3-0.4,4-1.2,5.2c-0.8,1.2-2,1.8-3.5,1.9c-1.5,0.1-3.6,0.1-6.4,0.1
		c-0.3-2.6-0.6-4.8-0.9-6.6c1.8,0.2,3.2,0.3,4.4,0.3c1.1,0,1.7-0.7,1.7-2.2v-23.1h-6.3v38.9h-6V608.6z M492.4,615.6h3.7v16.9
		c0,1.8-0.1,3.6-0.4,5.3l8.8,10.4l-4.6,4.2c-1.7-2.9-3.6-5.9-5.5-8.9c-1.4,4.2-3.7,7.8-6.8,10.9c-0.6-1.4-1.8-3.4-3.3-5.9
		c5.4-4.6,8.1-10,8.1-16.1V615.6z M486.3,638.6v-30.7h16v30.5h-4.4v-25.1h-7.2v25.3H486.3z M511.6,605.4l2.7,5.3h4.1l2.4-5.4
		l5.5,1.8l-2.4,3.6h5.1v19.4h-25.2v-19.4h4.9l-2.1-3.4L511.6,605.4z M505.1,654.3v-22.2h22.5v22.2H522v-2h-11.6v2H505.1z
		 M508.4,625.2h5.9v-9.6h-5.9V625.2z M511.2,616.8c0.5,1.1,1.4,3.1,2.7,6.1c-0.8,0.3-1.7,0.7-2.7,1.2c-0.6-1.9-1.5-3.9-2.5-6.1
		L511.2,616.8z M522,636.9h-11.6v3H522V636.9z M510.5,647.4H522v-3h-11.6V647.4z M524.2,625.2v-9.6h-5.8v9.6H524.2z M518.7,622.8
		c1-2.2,1.9-4.2,2.6-6l2.7,1c-0.9,1.9-1.8,4-2.8,6.3C520.3,623.5,519.5,623.1,518.7,622.8L518.7,622.8z"/>
	<path class="st1" d="M234.1,471v5.9c-4.8,5-10.9,9.4-18.3,13.2h8.9c-1.3,1.5-2.6,2.9-4.1,4.3h17.1v5.8
		c-10.3,13.6-26.2,21.8-47.5,24.6c-1-2.7-2.1-5.2-3.4-7.4c7.5-0.7,14.3-2.1,20.5-4.3c-1.3-1.8-2.9-3.7-4.7-5.8
		c-3.2,1.7-6.5,3.1-10,4.4c-1.3-2.4-2.7-4.8-4.3-7c11.2-3.2,20.4-8.1,27.4-14.6c-7.4,3.8-16,6.9-25.9,9.5c-1-2.8-2.2-5.4-3.4-7.5
		c6.2-1,11.9-2.5,17.3-4.4c-1.4-1.8-3.1-3.6-4.9-5.5c-2.1,1.4-4.4,2.7-6.7,4c-1.3-2.1-2.9-4.3-4.8-6.5c7.3-2.9,13.6-7.1,18.9-12.6
		h8.9c-1,1.3-2,2.6-3.1,3.8H234.1z M205.3,477.4c-0.4,0.3-0.8,0.7-1.2,1c2.2,2.2,4.3,4.3,6.3,6.5c4.3-1.8,8.7-4.3,13.2-7.5H205.3
		L205.3,477.4z M213,500.9c-1.5,1.2-3.1,2.2-4.8,3.3c2.1,2.1,4,4.2,5.7,6.3c5.3-2.6,10-5.8,13.9-9.6H213L213,500.9z M244.3,517.1
		h23.2v-2.9h-19.7v-4.8h19.7v-2.8h-17.8v-20.3h17.8v-2.8h-23v-5.2h23v-2.9l-18.4,0.3c-0.3-1.7-0.6-3.4-1-5.2
		c15.3-0.2,30.3-0.6,44.9-1.3c0,0.1,0.4,1.9,1,5.4l-19.4,0.5v3.1h23.4v5.2h-23.4v2.8h18v20.3h-18v2.8h20v4.8h-20v2.9h23.4v5.2h-53.7
		V517.1z M256.6,494.2h10.8V491h-10.8V494.2z M256.6,501.7h10.8v-3.3h-10.8V501.7z M285.6,491h-11v3.3h11V491z M285.6,501.7v-3.3
		h-11v3.3H285.6z M312.3,478.8h5.3v20c0,2-0.1,3.8-0.4,5.6c2.9,3.1,6.5,7.4,10.9,12.6l-5.1,5.1c-2.2-3.4-4.8-7-7.7-10.7
		c-1.9,4.7-5,8.9-9.4,12.4c-1-1.7-2.3-3.7-3.8-5.9c6.8-4.6,10.2-11,10.2-19.2V478.8z M325.6,482.3c2.3-4.4,4.1-9.5,5.5-15.2l6.6,1.2
		c-0.6,2.3-1.3,4.6-2,6.7h18.4l-0.1,22.2l-0.2,15.3c-0.1,3.1-0.6,5.6-1.8,7.2c-1.1,1.7-2.5,2.7-4.2,3s-5.8,0.5-12.3,0.6
		c-0.4-2.3-1-4.9-1.7-7.7c5.1,0.2,8.2,0.2,9.4,0.2c2.7,0,4-1.6,4-4.7v-1.2l-4,1.6l-0.9-3.1c-7.9,0.7-12.8,1.3-14.5,2l-2.2-4.7h-5.6
		v-29.2h-10.3v29.4h-5.6v-36h21.4V482.3L325.6,482.3z M343.2,491.8c1.4,3.5,2.7,7.4,4.1,11.6c0-5.5,0.1-12.6,0.1-21.3h-14.2
		c-1.5,3.5-3.1,6.6-4.8,9.2c-0.9-1.1-1.8-2.2-2.7-3.1V503c2.3-2,5-7.9,8.1-17.8l6.2,2.1c-2.6,6.3-4.7,11.3-6.5,15.2l6.9-0.6
		c-0.9-2.8-1.8-5.5-2.6-7.9L343.2,491.8z M376.6,524.1h-6.8v-17.7c-3,0.6-5.8,1.2-8.4,1.8l-1-8.4c2.9-0.3,6-0.7,9.4-1.2v-11.5h-3.5
		c-0.5,2.7-1,5.3-1.6,7.8c-1.7-1.2-3.2-2-4.4-2.6c1.3-5.9,2.1-12.6,2.5-20.1l5,0.5c-0.1,2.4-0.3,4.7-0.6,6.9h2.5v-12.1h6.8v12.1h3.9
		v2.3c2.5-5.1,4.4-10,5.8-14.9c2.6,0.5,5,1,7.2,1.5c-1,2.7-1.9,5.2-2.8,7.5h21.3c-0.1,6.7-0.2,13.9-0.4,21.6l-0.5,14.9
		c-0.1,2.2-0.5,4-1.2,5.6c-0.7,1.5-1.7,2.7-3.2,3.4s-5.2,0.9-11.4,0.7c-0.5-3.2-1.2-5.8-1.9-8c-2.5,3.4-5.5,6.4-9.1,9.1
		c-2.3-2.6-4.2-4.6-5.8-6.1c11.4-7.8,17.7-19,19.1-33.6h-2.7c-1.3,9.9-5.1,17.8-11.5,23.7c-1.1-1.1-2-2.1-2.9-2.9l-4.1,0.7V524.1z
		 M387.4,483.8c-1.7,3.3-3.3,6-5,8.2c-1.5-2.2-2.6-3.8-3.5-4.8h-2.2v10.4c1.6-0.3,3.2-0.6,4.9-0.9c-0.1,0.8-0.1,1.7-0.1,2.7
		c4.4-4.4,7.3-9.5,8.7-15.5H387.4L387.4,483.8z M405.4,483.8h-2.4c-0.2,12-3.2,22.1-9.2,30.2c2.3,0.2,4.4,0.3,6.3,0.3
		c2.5,0,3.9-1.3,4.3-3.9C404.8,507.8,405.2,498.9,405.4,483.8z M418,495.8c1-5.5,1.8-10.4,2.2-14.8l4.6,0.5
		c-0.5,4.6-1.3,9.7-2.3,15.3L418,495.8z M425.2,467.5h6.9v12.7l2.2-1.3c1.5,2.6,3.2,5.6,5.1,9v-4.1h28.3v19.2h-10.2v13
		c0,2.1-0.4,3.8-1.1,5c-0.7,1.2-1.8,2-3.1,2.3c-1.3,0.3-4,0.5-8.1,0.5c-0.3-2.9-0.8-5.6-1.4-8.1c1.4,0.2,2.6,0.3,3.5,0.3
		c2.1,0,3.1-1.3,3.1-3.9v-9.1h-11v-14l-4.5,2.7l-2.9-6.7v39.3h-6.9V467.5z M433.3,517.7c3.2-4,5.7-8.4,7.6-13.1l6.1,2.9
		c-2,4.7-4.6,9.4-7.8,14.2C437.7,520.4,435.8,519.1,433.3,517.7L433.3,517.7z M471.3,479.8h-35.2v-6.7h13.2
		c-0.5-1.5-1.1-3.1-1.8-4.6l7.9-1.4c0.7,1.9,1.4,3.9,2,6h14V479.8z M461.3,489.7h-15.4v7.5h15.4V489.7z M464.8,504.6
		c2.5,3.8,5,8.2,7.5,13l-6.2,3.6c-2.2-4.8-4.6-9.2-7.1-13.2L464.8,504.6z M530.3,507.2h-53.4v-5.3h12.3c-0.5-1.1-1.1-2.2-1.6-3.2
		l3.6-0.7h-8.4v-12.4h41.4v12.4h-8.3l3.8,0.8l-2.6,3.2h13.3V507.2z M478,470.1h21.7v-3h7.6v3H529v5.3h-21.7v2.7h18.6v4.9h-45v-4.9
		h18.8v-2.7H478V470.1z M517.6,524.3v-2h-28.1v2h-7.3v-14.6h42.7v14.6H517.6z M517.6,514.6h-28.1v2.8h28.1V514.6z M490.1,493h26.8
		v-2.6h-26.8V493z M495.8,497.9c0.7,1.2,1.5,2.6,2.2,4h10.4l2.6-4H495.8L495.8,497.9z"/>
	<path class="st1" d="M189.7,686.5c2.7,2.2,5.2,4.4,7.5,6.5l-3.7,4.4c-2.5-2.5-4.8-4.7-7-6.7L189.7,686.5z M187.1,715.1
		c1.5-4.4,2.9-9.9,4.4-16.5c1.8,0.8,3.6,1.4,5.4,1.9c-1.4,6.4-2.8,11.8-4.3,16.3C190.8,716.2,188.9,715.6,187.1,715.1L187.1,715.1z
		 M191.2,675.9c2.6,2.1,4.9,4,6.9,5.8l-3.7,4.2c-1.4-1.4-3.6-3.5-6.5-6.2L191.2,675.9z M197.6,687.1H209v-5l-10,0.4
		c-0.2-1.5-0.4-3.1-0.7-4.9c9-0.2,17.5-0.7,25.7-1.5l0.7,5c-3.2,0.3-6.6,0.5-10,0.7v5.4H226v5.2h-11.4v5.4h9.8v19.5h-5.5V715h-14.2
		v2.2h-5.5v-19.6h9.8v-5.4h-11.3V687.1z M218.9,702.8h-14.2v7.2h14.2V702.8z M245.1,696.4l4.3,10.8c1.8-3.6,2.7-10.1,2.7-19.5H248
		V682h4.2l0.1-7.3h5.4l-0.1,7.3h10.6l-0.5,24.3c-0.1,3.3-0.2,5.3-0.4,6.1c-0.2,0.8-0.6,1.5-1.1,2.2c-0.6,0.6-1.3,1.1-2.2,1.4
		c-0.9,0.3-3.3,0.5-7.2,0.5c-0.4-2.2-0.9-4.3-1.5-6.4c1.8,0.1,3.2,0.2,4.4,0.2c0.8,0,1.4-0.2,1.8-0.5c0.4-0.3,0.7-0.8,0.7-1.4
		c0.1-0.6,0.2-2.8,0.3-6.6c0.1-3.8,0.2-8.4,0.2-14h-5.2c-0.1,6.4-0.4,11-0.7,13.7c-0.4,2.8-1.1,5.5-2.2,8.4
		c-1.1,2.8-2.6,5.3-4.4,7.5c-1.5-1.3-3.2-2.5-4.9-3.6c0.8-0.8,1.5-1.7,2.1-2.7l-11.2,1c-1.7,0.2-3,0.5-3.9,0.9l-2.5-5.2
		c1.4-1.2,3.1-5.7,5.2-13.5h-5v-5.5h18.6v5.5h-7.7c-1.2,4.1-2.6,8.1-4,12c2.4-0.1,4.7-0.2,6.6-0.3c-1-2.9-1.9-5.5-2.8-8L245.1,696.4
		z M247.2,683.4h-15.5v-5.5h15.5V683.4z M273.8,706h38.8v6.5h-38.8V706z M276.8,679.5h32.9v6.4h-32.9V679.5z M316.5,712
		c4.6-1.7,8.1-3.5,10.6-5.2l2.9,3.6c-3.5,2.4-7.2,4.5-11.1,6.2C318.3,715.2,317.5,713.7,316.5,712L316.5,712z M344.9,697
		c3.6,2.4,6.9,4.8,10,7.2l-2.9,3.4c-0.8-0.7-1.7-1.4-2.6-2.2l-9.3,0.3v6.7c0,1.4-0.3,2.5-1,3.2c-0.7,0.7-1.6,1.2-2.9,1.3
		c-1.2,0.1-3.6,0.2-7,0.2c-0.2-1.4-0.5-3.2-1-5.2c1.5,0.2,2.8,0.2,3.9,0.2c1,0,1.6-0.1,2-0.4c0.4-0.3,0.6-0.7,0.6-1.4V706
		c-4.8,0.3-9.4,0.6-13.7,1.1l-1.6-4.6c4.6-1.4,8.6-2.7,12.3-4.1c-3.1,0.2-6,0.4-8.6,0.6l-1.3-3.9c2.4-0.9,4.6-1.8,6.5-2.8h-8.2v-16
		h33.3v16h-7.4l3.2,2.8c-6.5,2.9-13.2,5.4-20.1,7.5l15.9-0.9l-2.6-2L344.9,697z M325.5,682.5h8.3v-2.4h-8.3V682.5z M325.5,688.4h8.3
		V686h-8.3V688.4z M339.8,694.8c1.7-0.8,3.3-1.7,4.7-2.6h-8.6l-5.7,2.8L339.8,694.8L339.8,694.8z M347.6,680.1h-8.3v2.4h8.3V680.1z
		 M347.6,688.4V686h-8.3v2.4H347.6z M344.4,706.8c4.2,1.5,8.3,3.2,12.3,4.9l-2.4,4.7c-4.6-2.3-8.6-4.2-12.1-5.5L344.4,706.8z
		 M361.7,710.5c-0.5-1.9-1.1-4.2-1.9-6.9c2.5-3.2,4.4-6.8,5.8-10.9h-5.4v-5.5h5.5v-4.8c-1.4,0.2-3,0.3-4.6,0.5
		c-0.3-1.9-0.6-3.7-0.9-5.1c4.5-0.5,9.3-1.1,14.3-1.8l1.2,5c-1.4,0.3-3,0.5-4.8,0.8v5.5h5v5.5h-5v4.7l1.5-1.6c1.5,1.4,3.1,3.1,4.9,5
		l-3.2,3.4c-1.2-1.5-2.2-2.7-3.2-3.8v16.8h-5.2V703C364.5,705.7,363.1,708.3,361.7,710.5L361.7,710.5z M377.7,717.3
		c-1.4-1.1-2.9-2.3-4.6-3.5c2.8-2.9,5.4-6.9,7.9-11.8l4.9,2.7C383.1,709.6,380.4,713.8,377.7,717.3L377.7,717.3z M377.3,700.3v-23
		h20.5v23H377.3z M392.3,682.7h-9.5v12.2h9.5V682.7z M392.7,701.8c2.6,3.8,5.1,7.8,7.5,12.1l-5,3.3c-2.5-5-4.9-9.2-7-12.7
		L392.7,701.8z M406.5,686.5c2,1.6,4.2,3.4,6.4,5.5l-3.6,4.6c-2.1-2.1-4.1-4.1-6-6L406.5,686.5z M413,678.3h6.7v-3.6h5.2v3.6h6.4
		v-3.6h5.2v3.6h6.6v4.5h-6.6v2.8h-5.2v-2.8h-6.4v2.8h-5.2v-2.8H413v-1.6l-3.1,3.6c-1.7-1.9-3.7-3.8-5.8-5.8l3.3-4
		c1.7,1.3,3.6,3,5.7,4.9V678.3z M404.1,715.3c1.4-5,2.7-10.5,4-16.5c2.2,0.9,3.9,1.6,5.2,2l-3.8,16.2
		C407.6,716.3,405.8,715.7,404.1,715.3L404.1,715.3z M413,686h30v4.5h-8.3v3.6h7.1v17.1c0,1.6-0.3,2.9-1,3.8
		c-0.7,0.9-1.6,1.4-2.8,1.6c-1.2,0.2-3.5,0.3-7.2,0.3c-0.3-1.5-0.7-2.9-1.1-4.2l-4.2-2.8c1.2-1.3,2.2-2.9,3-4.8l-2,1.9
		c-0.4-0.6-0.9-1.3-1.4-1.9c-0.8,2.4-2,4.8-3.6,7.3c-0.3-0.4-1.1-1.1-2.1-1.9v6.4h-5v-22.9h7.5v-3.6H413V686z M419.1,707.3
		c1.6-2.6,2.5-5.7,2.7-9.2h-2.7V707.3z M429,703.8c0.6-1.7,0.9-3.7,1.1-5.8h-3.7c0,1.2-0.1,2.1-0.2,2.7L429,703.8z M426.4,694.1h3.7
		v-3.6h-3.7V694.1z M436.8,707.5l-1.6,1.6c-0.6-0.9-1.3-1.8-2-2.7c-0.8,2.1-1.8,4.1-3.2,5.9c1.8,0.1,3.3,0.1,4.4,0.1
		c1.5,0,2.3-0.8,2.3-2.4V707.5z M437,698.1h-2.4c0,1.3-0.1,2.5-0.3,3.7l2.7,2.9V698.1z M449.4,716.5v-13.8c-0.4,0.1-0.8,0.3-1.2,0.4
		c-0.5-1.6-1.1-3-1.7-4.2c2.7-0.8,5.1-1.8,7-3l-2-1.1l2.3-3.4l3.2,1.6c1-1,1.8-2.2,2.5-3.4h-5.3c-1.1,1.8-2.3,3.4-3.6,4.9
		c-0.9-0.7-2.2-1.4-3.8-2.4c2.9-3.1,4.9-6.3,5.9-9.6l4.2,1.7c-0.2,0.4-0.4,0.8-0.5,1.2h8.4v4c-1,2.1-2.1,4-3.5,5.7
		c1.8,1,3.6,2,5.4,3l-2.1,4.2l-0.1,0v10.4c3.7-1.4,6.2-3.1,7.4-5.1c1.2-2,1.8-5.3,1.8-9.9v-6.4h4.8v7c0,2.7-0.2,5.1-0.6,7.2
		c3.4,2.4,6.3,4.6,8.9,6.6l-2.9,5.2c-2.2-2.1-4.8-4.4-7.8-6.9c-1.7,2.9-4.7,5.2-9,6.8c-0.8-1.4-1.7-2.7-2.5-3.9v2.8h-4.7v-1.4h-5.6
		v1.7H449.4z M447.3,685.6v-7.2h6.8c-0.3-0.9-0.6-1.8-0.9-2.8l5.6-0.9l1.1,3.7h6v-2.1h20.2v5.2h-8.3c-0.2,1.3-0.3,2.6-0.5,3.7h7.7
		v22h-4.8V690h-8.9v17.1h-4.8v-22h5.5c0.2-1.2,0.3-2.4,0.5-3.7h-6.6v3.5h-4.2v-2.4h-10.3v3.1H447.3z M458,698.4
		c-1.6,1.2-3.5,2.3-5.5,3.2h10.8C461.4,700.5,459.7,699.4,458,698.4L458,698.4z M459.7,706.3h-5.6v3.8h5.6V706.3z M496.9,683.6h3.3
		v14.7c0,1.6-0.1,3.1-0.3,4.6l7.7,9.1l-4,3.7c-1.5-2.5-3.1-5.1-4.8-7.8c-1.2,3.6-3.2,6.8-6,9.5c-0.6-1.2-1.5-2.9-2.9-5.2
		c4.7-4,7.1-8.7,7.1-14.1V683.6z M491.6,703.6v-26.8h14v26.6h-3.9v-21.9h-6.2v22.1H491.6z M513.7,674.6l2.3,4.6h3.6l2.1-4.7l4.8,1.5
		l-2.1,3.1h4.4v16.9h-22v-16.9h4.3l-1.8-3L513.7,674.6z M508,717.3v-19.4h19.6v19.4h-4.8v-1.8h-10.1v1.8H508z M510.8,691.9h5.1v-8.3
		h-5.1V691.9z M513.3,684.6c0.5,0.9,1.2,2.7,2.3,5.3c-0.7,0.3-1.5,0.6-2.3,1.1c-0.6-1.7-1.3-3.4-2.2-5.3L513.3,684.6z M522.8,702.1
		h-10.1v2.6h10.1V702.1z M512.7,711.3h10.1v-2.6h-10.1V711.3z M524.7,691.9v-8.3h-5.1v8.3H524.7z M519.8,689.8
		c0.9-1.9,1.7-3.6,2.3-5.2l2.4,0.9c-0.8,1.7-1.6,3.5-2.4,5.5C521.3,690.5,520.5,690.1,519.8,689.8L519.8,689.8z"/>
	<path class="st1" d="M183,313.7l12.6-11.4c1.3-1.1,2.3-2.1,3.2-3c0.9-0.9,1.6-1.8,2.1-2.6c0.5-0.8,0.9-1.6,1.2-2.4
		c0.2-0.8,0.4-1.6,0.4-2.5c0-1.9-0.6-3.4-1.7-4.5c-1.1-1.1-2.5-1.6-4.2-1.6c-1.7,0-3.2,0.5-4.4,1.5c-1.3,1-2.6,2.4-4.1,4.4l-4.6-3.8
		c0.9-1.3,1.8-2.5,2.7-3.5c0.9-1,1.9-1.9,3-2.6c1.1-0.7,2.2-1.2,3.5-1.6c1.3-0.4,2.7-0.6,4.4-0.6c1.8,0,3.4,0.3,4.9,0.8
		c1.5,0.6,2.8,1.3,3.8,2.4c1.1,1,1.9,2.3,2.5,3.7c0.6,1.4,0.9,3,0.9,4.8v0.1c0,1.5-0.2,2.9-0.6,4.2c-0.4,1.2-1,2.4-1.8,3.6
		c-0.8,1.2-1.8,2.3-3,3.5c-1.2,1.2-2.6,2.5-4.2,3.9l-7.5,6.7h17.4v6H183V313.7z M230.9,319.8c-2.4,0-4.6-0.5-6.5-1.6
		c-2-1-3.6-2.5-5-4.3c-1.4-1.8-2.5-4-3.2-6.4c-0.8-2.4-1.1-5-1.1-7.8v-0.1c0-2.8,0.4-5.4,1.2-7.9c0.8-2.5,1.8-4.6,3.2-6.4
		c1.4-1.8,3.1-3.3,5.1-4.3c2-1.1,4.2-1.6,6.6-1.6c2.4,0,4.6,0.5,6.5,1.6c2,1,3.6,2.5,5,4.3c1.4,1.8,2.5,4,3.2,6.4
		c0.8,2.4,1.2,5,1.2,7.8v0.1c0,2.8-0.4,5.4-1.2,7.9c-0.8,2.5-1.9,4.6-3.2,6.4c-1.4,1.8-3.1,3.3-5.1,4.3
		C235.5,319.2,233.3,319.8,230.9,319.8z M231,313.6c1.4,0,2.7-0.4,3.8-1.1c1.1-0.7,2.1-1.7,2.9-3c0.8-1.2,1.4-2.7,1.9-4.4
		c0.4-1.7,0.7-3.5,0.7-5.4v-0.1c0-1.9-0.2-3.7-0.7-5.4c-0.5-1.7-1.1-3.2-1.9-4.4c-0.8-1.3-1.8-2.3-3-3c-1.2-0.7-2.5-1.1-3.8-1.1
		c-1.4,0-2.7,0.4-3.8,1.1c-1.1,0.7-2.1,1.7-2.9,3c-0.8,1.2-1.4,2.7-1.9,4.4c-0.4,1.7-0.7,3.5-0.7,5.4v0.1c0,1.9,0.2,3.7,0.7,5.4
		c0.4,1.7,1.1,3.2,1.9,4.4c0.8,1.3,1.8,2.3,3,3C228.3,313.2,229.6,313.6,231,313.6z M258.7,286.7l-6.6,2l-1.4-5.6l9.8-3.3h4.5v39.3
		h-6.4V286.7z M285.5,319.8c-2.8,0-5.3-0.5-7.5-1.6c-2.2-1.1-4.2-2.5-5.9-4.3l4-5c1.5,1.5,3,2.6,4.5,3.4c1.6,0.8,3.2,1.3,4.9,1.3
		c2.2,0,4-0.6,5.3-1.8c1.3-1.2,2-2.9,2-4.9v-0.1c0-2-0.7-3.6-2.1-4.8c-1.4-1.2-3.2-1.7-5.5-1.7c-1.3,0-2.5,0.2-3.7,0.5
		c-1.1,0.3-2.1,0.7-3.1,1.2l-3.9-2.7l1-19.1h21.9v6.1h-16.4l-0.6,9.2c0.9-0.3,1.8-0.6,2.6-0.8c0.9-0.2,1.9-0.3,3.2-0.3
		c1.8,0,3.4,0.3,5,0.8c1.6,0.5,2.9,1.3,4.1,2.3c1.1,1,2,2.3,2.7,3.9c0.7,1.5,1,3.3,1,5.4v0.1c0,2-0.3,3.8-1,5.4
		c-0.7,1.6-1.6,3-2.8,4.2c-1.2,1.2-2.6,2-4.3,2.7C289.4,319.5,287.5,319.8,285.5,319.8z M305.9,314.4h3.5v4.7h-3.5V314.4z
		 M336.5,309.6h-19.8l-0.9-2.2l20.9-27.6h2.5V307h6v2.5h-6v9.5h-2.6V309.6z M336.5,307v-23.1L319,307H336.5z M351.7,314.4h3.5v4.7
		h-3.5V314.4z M377.5,319.8c-2.3,0-4.4-0.5-6.3-1.6c-1.9-1.1-3.5-2.5-4.8-4.4c-1.3-1.8-2.3-4-3-6.4c-0.7-2.4-1-5-1-7.7v-0.1
		c0-2.7,0.4-5.2,1.1-7.7c0.7-2.5,1.7-4.6,3.1-6.4c1.3-1.8,2.9-3.3,4.8-4.4c1.9-1.1,4-1.6,6.3-1.6c2.3,0,4.4,0.5,6.3,1.6
		c1.9,1.1,3.5,2.5,4.8,4.4c1.3,1.8,2.3,4,3,6.4c0.7,2.4,1,5,1,7.7v0.1c0,2.7-0.4,5.2-1.1,7.7c-0.7,2.5-1.7,4.6-3.1,6.4
		c-1.3,1.8-2.9,3.3-4.8,4.4C381.9,319.2,379.8,319.8,377.5,319.8z M377.6,317.1c1.9,0,3.6-0.5,5.1-1.5c1.5-1,2.8-2.3,3.9-3.9
		c1.1-1.6,1.9-3.5,2.5-5.6c0.6-2.1,0.9-4.3,0.9-6.6v-0.1c0-2.3-0.3-4.5-0.9-6.6c-0.6-2.1-1.4-4-2.5-5.6c-1.1-1.6-2.4-2.9-3.9-3.9
		c-1.5-1-3.2-1.5-5.1-1.5c-1.9,0-3.6,0.5-5.1,1.5c-1.5,1-2.8,2.3-3.9,3.9c-1.1,1.6-1.9,3.5-2.5,5.6c-0.6,2.1-0.9,4.3-0.9,6.6v0.1
		c0,2.3,0.3,4.5,0.9,6.6c0.6,2.1,1.4,4,2.5,5.6c1.1,1.6,2.4,2.9,3.9,3.9C374,316.7,375.7,317.1,377.6,317.1z M398.1,316.9l13.7-13.1
		c1.5-1.4,2.8-2.8,3.8-4c1-1.2,1.9-2.3,2.5-3.3c0.6-1,1.1-2,1.4-3c0.3-1,0.4-2,0.4-3c0-1.3-0.2-2.4-0.7-3.5c-0.5-1-1.1-1.9-1.8-2.6
		c-0.8-0.7-1.6-1.3-2.6-1.7c-1-0.4-2.1-0.6-3.1-0.6c-2.3,0-4.3,0.6-6,1.9c-1.6,1.2-3.2,3-4.8,5.4l-2-1.5c0.8-1.3,1.6-2.5,2.5-3.5
		c0.9-1,1.8-1.9,2.8-2.6c1-0.7,2.2-1.3,3.4-1.7c1.3-0.4,2.7-0.6,4.3-0.6c1.6,0,3,0.3,4.3,0.8c1.3,0.5,2.5,1.3,3.4,2.3
		c1,1,1.7,2.1,2.3,3.4c0.6,1.3,0.8,2.7,0.8,4.2v0.1c0,1.3-0.2,2.6-0.5,3.8c-0.3,1.2-0.9,2.3-1.7,3.5c-0.8,1.2-1.7,2.4-2.9,3.7
		c-1.2,1.3-2.5,2.7-4.1,4.2l-11.2,10.8h20.7v2.8h-25V316.9z M429.6,301h14v3.1h-14V301z M462.6,319.8c-2.5,0-4.9-0.6-7.1-1.8
		c-2.2-1.2-4.1-2.7-5.7-4.5l1.9-2.1c1.7,1.8,3.4,3.2,5.3,4.2c1.9,1,3.8,1.5,5.7,1.5c1.5,0,2.8-0.3,4-0.8c1.2-0.5,2.2-1.2,3.1-2.1
		c0.9-0.9,1.5-1.9,2-3.1c0.5-1.2,0.7-2.5,0.7-3.9v-0.1c0-1.3-0.2-2.6-0.7-3.7c-0.5-1.1-1.2-2.1-2.1-2.9c-0.9-0.8-2-1.5-3.2-1.9
		c-1.2-0.5-2.6-0.7-4.1-0.7c-1.7,0-3.2,0.2-4.6,0.7c-1.3,0.5-2.6,1.1-3.7,1.7l-2.1-1.5l1-18.9h20.6v2.8h-18.2l-0.9,14.6
		c1.2-0.6,2.4-1.1,3.7-1.5c1.3-0.4,2.7-0.6,4.5-0.6c1.8,0,3.4,0.3,4.9,0.9c1.5,0.6,2.8,1.4,4,2.4c1.1,1,2,2.3,2.7,3.7
		c0.6,1.5,1,3.1,1,4.8v0.1c0,1.9-0.3,3.6-1,5.1c-0.6,1.5-1.5,2.8-2.7,4c-1.1,1.1-2.5,2-4,2.6C466.2,319.5,464.5,319.8,462.6,319.8z
		 M482.3,314.4h3.5v4.7h-3.5V314.4z M505.8,319.8c-3,0-5.6-0.7-7.9-2c-2.2-1.3-4.1-3-5.6-5.1l2.1-1.8c1.5,2,3.1,3.6,5,4.6
		c1.9,1.1,4,1.6,6.4,1.6c1.2,0,2.4-0.2,3.5-0.6c1.1-0.4,2.1-1,2.9-1.8c0.8-0.7,1.5-1.6,2-2.7c0.5-1.1,0.7-2.2,0.7-3.5v-0.1
		c0-1.4-0.3-2.6-0.9-3.6c-0.6-1-1.4-1.9-2.4-2.7c-1-0.7-2.2-1.3-3.6-1.6c-1.4-0.4-2.9-0.6-4.6-0.6h-2l-0.7-1.6l12.6-15.5h-19.2V280
		h22.9v2.1l-12.4,15.2c1.7,0.1,3.4,0.4,5,0.9c1.6,0.5,3,1.2,4.1,2.1c1.2,0.9,2.1,2,2.8,3.3c0.7,1.3,1,2.9,1,4.7v0.1
		c0,1.7-0.3,3.3-1,4.6c-0.6,1.4-1.5,2.6-2.6,3.6c-1.1,1-2.4,1.8-3.8,2.3C508.9,319.5,507.4,319.8,505.8,319.8z M530.3,282.8
		l-7.1,2.6l-0.7-2.3l8.4-3.3h2.1v39.3h-2.7V282.8z"/>
	<path class="st1" d="M201.6,564.2v-5.1h12.3v12c-1.2,1.2-2.9,2.3-5.2,3.3c-2.3,0.9-4.6,1.4-6.9,1.4c-3,0-5.5-0.7-7.7-2
		c-2.2-1.3-3.8-3.2-4.9-5.7c-1.1-2.5-1.7-5.1-1.7-8c0-3.1,0.6-5.9,1.8-8.3c1.2-2.4,3-4.3,5.4-5.6c1.8-1,4.1-1.5,6.8-1.5
		c3.5,0,6.2,0.8,8.2,2.3c2,1.6,3.2,3.7,3.8,6.5l-5.7,1.1c-0.4-1.5-1.1-2.6-2.2-3.5c-1.1-0.9-2.5-1.3-4.1-1.3c-2.5,0-4.5,0.8-5.9,2.5
		c-1.5,1.7-2.2,4.2-2.2,7.5c0,3.6,0.7,6.2,2.2,8c1.5,1.8,3.4,2.7,5.9,2.7c1.2,0,2.4-0.2,3.6-0.7c1.2-0.5,2.2-1.1,3.1-1.8v-3.8H201.6
		z M218.7,550.6v-5.3h5.4v5.3H218.7z M218.7,575.3v-21.8h5.4v21.8H218.7z M226.9,553.5h3v-1.6c0-1.8,0.2-3.2,0.5-4.1
		c0.4-0.9,1-1.6,2-2.2c1-0.6,2.2-0.9,3.7-0.9c1.5,0,3,0.2,4.5,0.7l-0.7,4c-0.9-0.2-1.7-0.3-2.5-0.3c-0.8,0-1.3,0.2-1.7,0.6
		c-0.3,0.4-0.5,1.1-0.5,2.2v1.5h4v4.5h-4v17.2h-5.4V558h-3V553.5z M251.4,553.5v4.6h-3.7v8.8c0,1.8,0,2.8,0.1,3.1
		c0.1,0.3,0.2,0.5,0.5,0.7s0.6,0.3,0.9,0.3c0.5,0,1.2-0.2,2.2-0.6l0.5,4.5c-1.3,0.6-2.7,0.9-4.3,0.9c-1,0-1.9-0.2-2.6-0.5
		c-0.8-0.3-1.4-0.8-1.7-1.4c-0.4-0.6-0.6-1.3-0.8-2.2c-0.1-0.7-0.2-2-0.2-4.1v-9.5h-2.5v-4.6h2.5v-4.3l5.4-3.4v7.7H251.4z
		 M269.1,575.3l-6.5-21.8h5.3l3.8,14.3l3.5-14.3h5.2l3.4,14.3l3.9-14.3h5.3l-6.6,21.8h-5.2l-3.5-14l-3.5,14H269.1z M295.6,550.6
		v-5.3h5.4v5.3H295.6z M295.6,575.3v-21.8h5.4v21.8H295.6z M315.5,553.5v4.6h-3.7v8.8c0,1.8,0,2.8,0.1,3.1c0.1,0.3,0.2,0.5,0.5,0.7
		s0.6,0.3,0.9,0.3c0.5,0,1.2-0.2,2.2-0.6l0.5,4.5c-1.3,0.6-2.7,0.9-4.3,0.9c-1,0-1.9-0.2-2.6-0.5c-0.8-0.3-1.4-0.8-1.7-1.4
		c-0.4-0.6-0.6-1.3-0.8-2.2c-0.1-0.7-0.2-2-0.2-4.1v-9.5h-2.5v-4.6h2.5v-4.3l5.4-3.4v7.7H315.5z M324.3,545.2v11.1
		c1.7-2.2,3.8-3.3,6.3-3.3c1.2,0,2.4,0.2,3.4,0.7c1,0.5,1.8,1.1,2.3,1.9c0.5,0.8,0.9,1.6,1,2.5c0.2,0.9,0.3,2.4,0.3,4.3v12.8h-5.4
		v-11.5c0-2.3-0.1-3.7-0.3-4.3c-0.2-0.6-0.6-1.1-1.1-1.5s-1.2-0.5-2-0.5c-0.9,0-1.7,0.2-2.4,0.7c-0.7,0.5-1.2,1.2-1.5,2.1
		c-0.3,0.9-0.5,2.3-0.5,4.2v10.9h-5.4v-30.1H324.3z M353.2,575.3v-30.1h9.1c3.5,0,5.7,0.2,6.8,0.5c1.6,0.5,3,1.4,4.1,2.9
		c1.1,1.5,1.6,3.5,1.6,5.9c0,1.8-0.3,3.4-0.9,4.7c-0.6,1.3-1.4,2.2-2.4,3c-1,0.7-2,1.2-3,1.4c-1.4,0.3-3.3,0.4-5.9,0.4h-3.7v11.3
		H353.2z M358.9,550.3v8.5h3.1c2.2,0,3.7-0.2,4.5-0.5c0.8-0.3,1.4-0.8,1.8-1.5c0.4-0.7,0.6-1.4,0.6-2.3c0-1.1-0.3-2-0.9-2.7
		c-0.6-0.7-1.4-1.2-2.3-1.3c-0.7-0.1-2-0.2-4.1-0.2H358.9z M392.5,575.3V572c-0.7,1.2-1.7,2.1-2.9,2.7c-1.2,0.7-2.5,1-3.8,1
		c-1.4,0-2.6-0.3-3.7-1c-1.1-0.6-1.9-1.5-2.4-2.7c-0.5-1.2-0.7-2.8-0.7-4.8v-13.8h5.4v10c0,3.1,0.1,4.9,0.3,5.6
		c0.2,0.7,0.6,1.2,1.1,1.6c0.5,0.4,1.2,0.6,2,0.6c0.9,0,1.8-0.3,2.5-0.8c0.7-0.5,1.2-1.2,1.5-2c0.3-0.8,0.4-2.8,0.4-5.9v-9.2h5.4
		v21.8H392.5z M407.9,575.3h-5.4v-21.8h5v3.1c0.9-1.5,1.6-2.4,2.3-2.9c0.7-0.5,1.5-0.7,2.3-0.7c1.2,0,2.4,0.4,3.6,1.1l-1.7,5
		c-0.9-0.6-1.8-0.9-2.5-0.9c-0.8,0-1.4,0.2-1.9,0.7c-0.5,0.4-0.9,1.2-1.2,2.4c-0.3,1.2-0.5,3.6-0.5,7.3V575.3z M435.5,559.9l-5.3,1
		c-0.2-1.1-0.6-2-1.2-2.6c-0.6-0.6-1.5-0.9-2.5-0.9c-1.3,0-2.4,0.5-3.2,1.5c-0.8,1-1.2,2.6-1.2,5c0,2.6,0.4,4.4,1.2,5.5
		c0.8,1.1,1.9,1.6,3.3,1.6c1,0,1.9-0.3,2.5-0.9c0.7-0.6,1.1-1.7,1.4-3.2l5.3,1c-0.6,2.6-1.6,4.6-3.2,5.9c-1.6,1.3-3.7,2-6.3,2
		c-3,0-5.4-1-7.2-3c-1.8-2-2.7-4.8-2.7-8.3c0-3.6,0.9-6.4,2.7-8.4c1.8-2,4.2-3,7.2-3c2.5,0,4.5,0.6,5.9,1.7
		C433.8,555.9,434.8,557.6,435.5,559.9z M444.6,545.2v11.1c1.7-2.2,3.8-3.3,6.3-3.3c1.2,0,2.4,0.2,3.4,0.7s1.8,1.1,2.3,1.9
		c0.5,0.8,0.9,1.6,1,2.5c0.2,0.9,0.3,2.4,0.3,4.3v12.8h-5.4v-11.5c0-2.3-0.1-3.7-0.3-4.3c-0.2-0.6-0.6-1.1-1.1-1.5s-1.2-0.5-2-0.5
		c-0.9,0-1.7,0.2-2.4,0.7c-0.7,0.5-1.2,1.2-1.5,2.1c-0.3,0.9-0.5,2.3-0.5,4.2v10.9h-5.4v-30.1H444.6z M466.9,560.2l-4.9-0.9
		c0.6-2.1,1.5-3.7,2.8-4.7c1.3-1,3.3-1.5,6-1.5c2.4,0,4.2,0.3,5.4,0.9s2,1.4,2.5,2.3c0.5,0.9,0.7,2.7,0.7,5.2l-0.1,6.7
		c0,1.9,0.1,3.3,0.3,4.2c0.2,0.9,0.5,1.9,1,2.9h-5.4c-0.1-0.4-0.3-1-0.5-1.7c-0.1-0.3-0.2-0.6-0.2-0.7c-0.9,1-1.9,1.7-3,2.2
		c-1.1,0.5-2.2,0.7-3.4,0.7c-2.1,0-3.8-0.6-5-1.8c-1.2-1.2-1.8-2.8-1.8-4.6c0-1.2,0.3-2.3,0.8-3.3c0.6-1,1.3-1.7,2.3-2.2
		c1-0.5,2.4-1,4.3-1.3c2.5-0.5,4.3-1,5.3-1.4v-0.6c0-1.1-0.3-1.9-0.8-2.4c-0.5-0.5-1.5-0.7-2.9-0.7c-1,0-1.7,0.2-2.3,0.6
		C467.7,558.4,467.2,559.1,466.9,560.2z M474.1,564.8c-0.7,0.2-1.8,0.5-3.3,0.9c-1.5,0.3-2.5,0.7-2.9,1c-0.7,0.5-1.1,1.2-1.1,2
		c0,0.8,0.3,1.5,0.8,2.1c0.6,0.6,1.3,0.9,2.2,0.9c1,0,1.9-0.3,2.8-1c0.7-0.5,1.1-1.2,1.3-1.9c0.1-0.5,0.2-1.4,0.2-2.8V564.8z
		 M482.5,569.1l5.4-0.9c0.2,1.1,0.7,2,1.4,2.6c0.7,0.6,1.7,0.9,3,0.9c1.4,0,2.5-0.3,3.2-0.8c0.5-0.4,0.7-0.9,0.7-1.5
		c0-0.4-0.1-0.8-0.4-1.1c-0.3-0.3-0.9-0.5-1.8-0.8c-4.4-1-7.1-2-8.3-2.8c-1.6-1.2-2.4-2.8-2.4-4.9c0-1.9,0.7-3.5,2.1-4.8
		c1.4-1.3,3.6-1.9,6.5-1.9c2.8,0,4.9,0.5,6.2,1.5c1.4,1,2.3,2.4,2.8,4.3l-5.1,1c-0.2-0.8-0.6-1.5-1.2-1.9c-0.6-0.5-1.5-0.7-2.6-0.7
		c-1.4,0-2.4,0.2-3.1,0.6c-0.4,0.3-0.6,0.7-0.6,1.2c0,0.4,0.2,0.8,0.5,1c0.5,0.4,2.2,0.9,5.1,1.6c2.9,0.7,4.9,1.6,6,2.6
		c1.1,1,1.7,2.5,1.7,4.3c0,2-0.8,3.7-2.3,5.1c-1.6,1.4-3.9,2.2-6.9,2.2c-2.8,0-5-0.6-6.6-1.8C484,572.8,483,571.1,482.5,569.1z
		 M517.8,568.4l5.4,1c-0.7,2.1-1.8,3.7-3.3,4.8c-1.5,1.1-3.4,1.7-5.6,1.7c-3.6,0-6.2-1.2-7.9-3.7c-1.3-2-2-4.5-2-7.5
		c0-3.6,0.9-6.4,2.7-8.5c1.8-2,4-3.1,6.7-3.1c3,0,5.4,1.1,7.2,3.2c1.8,2.1,2.6,5.4,2.5,9.8h-13.5c0,1.7,0.5,3,1.3,4
		c0.8,1,1.9,1.4,3.1,1.4c0.8,0,1.6-0.2,2.1-0.7C517,570.2,517.5,569.5,517.8,568.4z M518.1,562.5c0-1.7-0.4-2.9-1.2-3.8
		c-0.8-0.9-1.7-1.3-2.8-1.3c-1.2,0-2.2,0.5-2.9,1.4c-0.8,0.9-1.1,2.2-1.1,3.7H518.1z"/>
	<rect x="189" y="256.3" class="st2" width="339.9" height="2.3"/>
	<rect x="189" y="748.2" class="st2" width="339.9" height="2.3"/>
	<rect x="0" y="0" class="st3" width="720" height="1036.5"/>
</g>
<g>
</g>
<g>
</g>
<g>
</g>
<g>
</g>
<g>
</g>
<g>
</g>
<g>
</g>
<g>
</g>
<g>
</g>
<g>
</g>
<g>
</g>
<g>
</g>
<g>
</g>
<g>
</g>
<g>
</g>
</svg>
