<?xml version="1.0" encoding="utf-8"?>
<!-- Generator: Adobe Illustrator 17.0.0, SVG Export Plug-In . SVG Version: 6.00 Build 0)  -->
<!DOCTYPE svg PUBLIC "-//W3C//DTD SVG 1.1//EN" "http://www.w3.org/Graphics/SVG/1.1/DTD/svg11.dtd">
<svg version="1.1" id="Layer_1" xmlns="http://www.w3.org/2000/svg" xmlns:xlink="http://www.w3.org/1999/xlink" x="0px" y="0px"
	 width="679px" height="253.6px" viewBox="0 0 679 253.6" style="enable-background:new 0 0 679 253.6;" xml:space="preserve">
<style type="text/css">
	.st0{fill:none;}
	.st1{fill:#223870;}
	.st2{fill:#25418B;}
	.st3{fill:#FFFFFF;}
	.st4{fill:#8CB8FF;}
</style>
<g id="page-03-4.svg">
	<rect x="0" y="0" class="st0" width="679" height="253.6"/>
	<rect x="390.4" y="0" class="st1" width="288.6" height="253.6"/>
	<path class="st2" d="M534.1,204.2c-19.8,0-32.3-12.6-32.3-34.2V76.2c0-21.6,12.4-34.2,32.3-34.2s32.3,12.6,32.3,34.2V170
		C566.3,191.6,553.9,204.2,534.1,204.2z M546.5,77.2c0-11.2-5.1-16.3-12.4-16.3s-12.4,5.1-12.4,16.3V169c0,11.2,5.1,16.3,12.4,16.3
		s12.4-5.1,12.4-16.3V77.2z M640.7,172.9v29.4h-19.8v-29.4H578v-16.3l37.3-112.7h25.3v111h11.8v18H640.7z M597.2,154.9h23.7V94.2
		c0-14.6,2.8-29.1,2.8-29.1L597.2,154.9z"/>
	<path class="st3" d="M419.4,198.9c-0.7,1.8-1.7,3.6-2.7,5.4l-1.8-0.8c0.1-0.1,0.2-0.4,0.4-0.7c1.1-1.9,1.9-3.4,2.3-4.5L419.4,198.9
		L419.4,198.9z M417.7,196.7V188h7.1v-7.9h2v2.9H437v1.8h-10.3v3.1h8.2v8.6H417.7z M419.5,190v4.9H433V190H419.5z M422.8,204
		c-0.1-0.8-0.4-2-0.9-3.5c-0.2-0.6-0.3-1.1-0.4-1.4l1.8-0.4c0.7,2.4,1.2,4,1.5,4.9L422.8,204z M428.8,203.7c-0.2-0.7-0.7-2-1.4-3.9
		c-0.2-0.5-0.3-0.8-0.4-1l1.8-0.4c0.7,1.9,1.4,3.5,1.9,4.8L428.8,203.7z M435.4,204c-0.4-1-1.3-2.7-2.5-5.1l1.8-0.7
		c0.2,0.4,0.6,1.2,1.2,2.4c0.7,1.3,1.1,2.1,1.3,2.5L435.4,204z M441,186.3v-1.8h8.7v-4.3h2v4.3h8.7v1.8h-8.7v4.7h10.3v1.9h-10.3v8.4
		h6.3v-6h2v9.1h-2V203h-16.5v-7.6h2v6h6.3v-8.4h-10.3V191h10.3v-4.7H441z M471,204c-0.9,0-1.5,0-2,0c-0.1-0.9-0.2-1.7-0.4-2.3
		c0.4,0,0.9,0,1.7,0c0.9,0.1,1.6,0.1,2.1,0.1c1.7,0.1,2.5-0.6,2.3-2.2v-9.9l7.8-5.6h-17.7v-2h20.4v2.4l-8.4,6.2v9.2
		c0.1,2.8-1.1,4.1-3.7,4.1C472.5,203.9,471.8,203.9,471,204L471,204z M493.6,201.7V198h-2.2c-0.1,2.4-0.7,4.6-1.8,6.5
		c-0.1,0-0.1-0.1-0.2-0.2c-0.6-0.5-1-0.8-1.2-0.9c1.2-1.7,1.7-4.4,1.7-8v-7.5l-0.6,0.5c-0.1-0.1-0.2-0.4-0.5-0.7
		c-0.2-0.3-0.4-0.6-0.6-0.7c1.7-2,3.2-4.2,4.3-6.7l1.8,0.4c-0.4,0.7-0.7,1.4-1,2h4.5v1.7l-1.6,2.5h2.6v14.6c0.1,1.6-0.7,2.5-2.3,2.5
		c-0.1,0-0.4,0-0.7,0c-0.5,0.1-0.9,0.1-1.1,0.1c0-0.4-0.1-1-0.2-1.8c0.1,0,0.3,0,0.6,0c0.4,0.1,0.7,0.1,0.9,0.1
		c0.9,0.1,1.4-0.3,1.3-1.2V198h-2.2v3.8H493.6z M492.5,184.3c-0.6,0.9-1.2,1.8-1.8,2.6h3.6l1.8-2.6H492.5z M491.5,188.5v3.1h2.2
		v-3.1H491.5z M491.5,195.5v0.9h2.2v-3.1h-2.2V195.5z M497.4,188.5h-2.2v3.1h2.2V188.5z M495.1,193.2v3.1h2.2v-3.1H495.1z
		 M504.4,183.4c0.1,3-1.2,5.3-3.9,6.8c-0.1-0.1-0.3-0.4-0.6-0.7c-0.3-0.3-0.5-0.6-0.7-0.7c2.4-1.1,3.6-2.9,3.5-5.4h-2.5v-1.6h9.8
		c0,1.4-0.1,2.9-0.2,4.5c0,2-0.9,2.9-2.8,2.9c-0.7,0-1.5,0-2.3,0l-0.2-1.6c0.7,0,1.4,0,2.2,0c0.9,0,1.4-0.5,1.5-1.5
		c0.1-0.3,0.1-0.8,0.1-1.3c0.1-0.6,0.1-1,0.1-1.3H504.4L504.4,183.4z M501.1,196.4c-0.1,0.2-0.1,0.4-0.2,0.5
		c-0.4-0.3-0.8-0.6-1.4-0.7c0.9-1.6,1.5-3.4,2-5.7l1.6,0.3c-0.1,0.2-0.2,0.5-0.3,0.9c-0.1,0.5-0.2,0.8-0.3,1h2.4v-2.6h1.7v2.6h3.9
		v1.7h-3.9v3.5h4.4v1.7h-4.4v4.8h-1.7v-4.8h-5.4V198h5.4v-3.5h-3C501.8,194.9,501.5,195.6,501.1,196.4L501.1,196.4z M516.4,203.8
		c-0.2,0.1-0.3,0.2-0.4,0.3l-1.1-1.5c0.6-0.5,0.8-1.2,0.7-1.9v-9.9H513v-1.9h4.5v12.1l2.7-2.1c0.1,0.3,0.1,0.7,0.2,1.2
		c0.1,0.3,0.2,0.6,0.2,0.8c-1.2,0.7-2.4,1.5-3.4,2.3C517,203.2,516.7,203.4,516.4,203.8L516.4,203.8z M517.1,185.9
		c-0.9-1.5-1.9-2.9-3-4.2l1.5-1.1c1.1,1.3,2.2,2.6,3.2,4.1L517.1,185.9z M520.1,186.7v-1.8h8c1.1-1.7,2.1-3.2,2.9-4.7l1.8,0.7
		c-0.5,0.7-1.4,2.1-2.6,4h4.7v1.8h-6.5v3.9h5.7v1.8h-5.7v4h7.2v1.8h-7.2v6.3h-2v-6.3h-6.9v-1.8h6.9v-4h-5.6v-1.8h5.6v-3.9H520.1z
		 M524.5,184.6c-0.3-0.5-0.8-1.3-1.5-2.2c-0.4-0.6-0.7-1-0.9-1.3l1.5-0.9c1,1.3,1.8,2.5,2.5,3.5L524.5,184.6z M539.8,186
		c-0.3,2.1-0.6,4.3-0.9,6.6c-0.2-0.1-0.5-0.1-0.9-0.2c-0.2-0.1-0.3-0.1-0.5-0.1c0.4-2.4,0.7-4.6,0.9-6.6L539.8,186L539.8,186z
		 M544.2,188.6c-0.2-0.2-0.5-0.5-0.8-0.9c-0.4-0.3-0.7-0.6-0.9-0.8v17.6h-1.8v-24.2h1.8v5l0.3-0.4c0.9,0.7,1.7,1.4,2.4,2.1
		L544.2,188.6z M544.9,183.8v-1.5h6.3v-2h1.9v2h6.7v1.5h-6.7v1.8h6.1v1.3h-6.1v1.9h7.1v1.5h-15.8v-1.5h6.8v-1.9h-5.6v-1.3h5.6v-1.8
		H544.9z M545.8,204.4v-12.3h12.8v9.2c0.1,1.9-0.9,2.8-2.8,2.8c-0.2,0-0.7,0-1.3,0c-0.9,0.1-1.5,0.1-1.9,0.1
		c-0.1-0.6-0.2-1.2-0.4-1.8c0.7,0.1,1.7,0.1,3,0.1c1.1,0.1,1.7-0.4,1.6-1.3v-1.1h-9.3v4.3H545.8z M547.5,193.5v1.9h9.3v-1.9H547.5z
		 M547.5,196.9v1.9h9.3v-1.9H547.5z M566.1,185.7l6,6.7l-6,6.7v2.4l7-8.1v-2l-7-8.1V185.7z"/>
	<path class="st3" d="M422.2,91.6c-0.4,3.1-1.5,6.3-3.1,9.5c-0.9-0.8-1.8-1.7-2.8-2.7c1.3-2.6,2.2-5.3,2.6-8.1
		c0.4-2.6,0.7-6.7,0.7-12.2V61.8h17c-0.1-0.4-0.3-1-0.5-1.8c-0.2-0.8-0.4-1.4-0.5-1.8l4.3-0.4c0.3,1.4,0.7,2.8,1,3.9h15.2V65H423
		v12.6C423,83.9,422.7,88.6,422.2,91.6L422.2,91.6z M424.6,71.1v-2.5h6v-2.9h3.1v2.9h4.5v2.5h-4.5v2.7l1.3-1.4c0.3,0.2,1,0.7,2,1.4
		c0.9,0.7,1.5,1.2,1.8,1.4l-2,2c-1.1-1-2.2-1.9-3.1-2.7v4.3h-3.1v-5.2c-1.3,2.2-3.2,4-5.6,5.6c-0.6-1-1.2-1.8-1.8-2.5
		c3.1-1.6,5.3-3.4,6.8-5.6H424.6z M425.6,88.3v-2.5h12.1v-2.7c-4,0.1-8.1,0.2-12.2,0.2l-0.3-2.7c8.2,0,17.3-0.3,27.3-0.9l0.3,2.9
		c-3.6,0.2-7.4,0.4-11.4,0.4v2.9h12.1v2.5h-12.1v2.9h14.7v3h-14.7v1.1c0.1,3.2-1.4,4.8-4.6,4.8c-1.1,0.1-2.9,0.2-5.5,0.2
		c-0.1-1.1-0.3-2.2-0.7-3.2c1,0.1,2.4,0.2,4.3,0.2c2,0.1,2.9-0.7,2.8-2.3v-0.7h-14.2v-3h14.2v-2.9H425.6z M440.2,71.1v-2.5h4.8v-2.9
		h3.1v2.9h6.6v2.5h-6.3c1.4,2,3.7,3.8,6.9,5.4c-0.7,1.1-1.2,2-1.5,2.7c-2.8-1.7-4.7-3.4-5.8-5.2v4.3H445V74c-1.3,2-3.2,3.8-5.6,5.2
		c-0.1-0.1-0.2-0.2-0.3-0.4c-0.7-1.1-1.2-1.7-1.5-2c3-1.4,5.3-3.3,7.1-5.7H440.2z M471.3,72.2c-2.3,2.9-6.2,5.9-11.6,9
		c-0.1-0.5-0.3-1.1-0.7-1.8c-0.3-0.8-0.6-1.4-0.8-1.8c2.5-1.2,5-2.8,7.4-4.8c-0.9-1-2.3-2.3-4.3-3.9c-0.3-0.4-0.6-0.6-0.8-0.7
		l2.3-2.3c1.5,1.1,3.4,2.6,5.5,4.5c2-2,3.6-4.2,4.8-6.5h-12.4v-3.4h16.2v3.8c-1.4,2.6-3,5-4.6,7h12.6c-2.4-3.2-4.4-7.3-6-12.2
		l3.5-0.5c0.6,1.6,1.2,3.2,2,4.8c2.4-1.6,4.8-3.2,7.1-5l2.2,2.9c-2.4,1.8-5,3.5-7.8,5c0.1,0.1,0.2,0.3,0.3,0.5
		c0.6,0.8,1.2,1.7,2,2.7c1.4-0.8,3.3-2,5.6-3.6c0.9-0.6,1.5-1.1,2-1.4l2.2,2.9c-2.6,1.8-5.1,3.3-7.3,4.7c2.3,2,5,3.6,8.1,4.7
		c-0.1,0.4-0.4,1-0.8,1.8c-0.3,1-0.6,1.6-0.8,2c-4.9-2.4-8.6-5.1-11.2-8.1v2.2h-14.6V72.2L471.3,72.2z M459,99.5V96h12.4
		c-1.3-1.3-2.6-2.6-4-3.9l3.5-1.6c1.4,1.4,3,3,4.6,4.8l-2.2,0.7h7.6c1-0.8,2.5-2.5,4.5-5c0.2-0.4,0.4-0.6,0.5-0.7l3.6,1.8
		c-0.3,0.2-0.9,0.8-1.8,1.8c-0.9,1.1-1.6,1.8-2.1,2.2h12.6v3.4H459z M464.8,90.1v-12h27.5v12H464.8z M468.6,81.3v5.4h20v-5.4H468.6z
		 M504.9,78.1V62.3h4v11.8h10.1v-16h4.1v16h10.1V62.3h4v15.8h-14.1V95h11.4V83.1h3.8v17.2h-3.8v-1.8h-30.9V83.1h4V95h11.4V78.1
		H504.9z M549.5,83.1c-1.5,1.8-3.1,3.5-4.8,5c-0.4-1.4-0.9-2.9-1.5-4.3c4.1-3.7,7.8-8.4,11.1-14l3.1,2.3c-1.4,2.3-2.8,4.4-4.1,6.3
		v22.4h-3.8V83.1L549.5,83.1z M557.3,60.3c-4,5.4-7.8,9.6-11.6,12.7c-0.8-1.8-1.4-3.1-1.8-3.9C548,65.7,551.3,62,554,58L557.3,60.3
		L557.3,60.3z M558.6,78.5v-4.1h24.8v4.1h-7.1v15.1c0.1,4.3-1.9,6.5-6,6.5c-1.9,0.1-4,0.2-6.5,0.2c-0.3-1.4-0.6-2.9-0.8-4.3
		c0.5,0,1.4,0,2.5,0c1.4,0.1,2.5,0.2,3.3,0.2c2.4,0.1,3.6-1,3.5-3.2V78.5H558.6z M560.8,65v-4.1h20.7V65H560.8z"/>
	<path class="st4" d="M429.6,154.3l-2.4-9.1c-0.7-2.5-0.8-4.7-0.8-4.7h-0.1c0,0-0.2,2.2-0.9,4.7l-2.6,9.1H418l5.6-18.3l-5.5-18.2
		h4.9l2.5,9.1c0.7,2.5,0.8,4.7,0.8,4.7h0.1c0,0,0.2-2.2,0.9-4.7l2.4-9.1h4.8l-5.5,18.1l5.6,18.4H429.6z M455.1,154.8
		c-4.7,0-7.6-2.9-7.6-7.8v-29.1h4.7v28.9c0,2.6,1.1,3.8,2.9,3.8s2.9-1.2,2.9-3.8v-28.9h4.7v29.1
		C462.6,151.9,459.8,154.8,455.1,154.8z M476.7,154.8c-1.7,0-3.6-0.9-4.1-2.4v1.9h-4.5v-38.8h4.7v11.7c0.5-1.3,2.4-2.2,3.9-2.2
		c4.4,0,6.5,2.8,6.5,7.8v14.1C483.2,152,481.2,154.8,476.7,154.8z M478.6,133.1c0-2.6-1.2-3.8-2.9-3.8c-1.8,0-2.9,1.2-2.9,3.8v13.5
		c0,2.6,1.2,3.8,2.9,3.8c1.8,0,2.9-1.2,2.9-3.8V133.1z M495.3,154.8c-4.7,0-7.6-2.9-7.6-7.8v-14.1c0-5,2.8-7.8,7.5-7.8
		c4.7,0,7.6,2.9,7.6,7.8v8.4h-10.4v5.4c0,2.6,1.2,3.8,2.9,3.8c1.8,0,2.9-1.2,2.9-3.8V145h4.7v1.9C502.8,151.9,500,154.8,495.3,154.8
		z M498.1,133.1c0-2.6-1.1-3.8-2.9-3.8c-1.8,0-2.9,1.2-2.9,3.8v4.3h5.7V133.1z M512.1,135.7v18.6h-4.7v-28.9h4.6v3.6
		c1-2.6,3.6-4,6.3-3.9v5C514.8,129.7,512.1,131.5,512.1,135.7z"/>
</g>
<g>
</g>
<g>
</g>
<g>
</g>
<g>
</g>
<g>
</g>
<g>
</g>
<g>
</g>
<g>
</g>
<g>
</g>
<g>
</g>
<g>
</g>
<g>
</g>
<g>
</g>
<g>
</g>
<g>
</g>
</svg>
