<?xml version="1.0" encoding="utf-8"?>
<!-- Generator: Adobe Illustrator 17.0.0, SVG Export Plug-In . SVG Version: 6.00 Build 0)  -->
<!DOCTYPE svg PUBLIC "-//W3C//DTD SVG 1.1//EN" "http://www.w3.org/Graphics/SVG/1.1/DTD/svg11.dtd">
<svg version="1.1" id="Layer_1" xmlns="http://www.w3.org/2000/svg" xmlns:xlink="http://www.w3.org/1999/xlink" x="0px" y="0px"
	 width="720px" height="220.2px" viewBox="0 0 720 220.2" style="enable-background:new 0 0 720 220.2;" xml:space="preserve">
<style type="text/css">
	.st0{fill-rule:evenodd;clip-rule:evenodd;fill:none;}
	.st1{fill:#202035;}
	.st2{fill:#DF8DBA;}
	.st3{fill:#FFFFFF;}
	.st4{fill:none;}
</style>
<g id="page-game-button.svg">
	<circle class="st0" cx="360" cy="104" r="96"/>
	<circle class="st1" cx="360" cy="104" r="94.3"/>
	<path class="st2" d="M347.1,156.2l-2.1-5.9c-2.4,4.2-7.8,7.2-14.2,7.2c-13.1,0-20.3-8.2-20.3-22.4V73c0-14.2,8.2-22.4,21.9-22.4
		s21.8,8.2,21.8,22.4v11.8h-13.8v-11c0-7.4-2.9-10.7-8-10.7c-5.1,0-8.2,3.4-8.2,10.7v60.5c0,7.4,2.9,10.6,8,10.6
		c5.1,0,8.2-3.2,8.2-10.6v-19.4h-8.2v-12h21.9v53.3H347.1z"/>
	<path class="st3" d="M360,200c-53,0-96-43-96-96s43-96,96-96s96,43,96,96S413,200,360,200z M360,197c51.3,0,93-41.7,93-93
		c0-51.3-41.7-93-93-93c-51.3,0-93,41.7-93,93C267,155.3,308.7,197,360,197"/>
	<path class="st2" d="M387.1,157.4c-13.8,0-22.4-8.2-22.4-22.4V73c0-14.2,8.6-22.4,22.4-22.4c13.8,0,22.4,8.2,22.4,22.4V135
		C409.5,149.3,400.9,157.4,387.1,157.4z M395.8,73.8c0-7.4-3.5-10.7-8.6-10.7c-5.1,0-8.6,3.4-8.6,10.7v60.5c0,7.4,3.5,10.7,8.6,10.7
		c5.1,0,8.6-3.4,8.6-10.7V73.8z"/>
	<rect y="0" class="st4" width="720" height="220.2"/>
</g>
<g>
</g>
<g>
</g>
<g>
</g>
<g>
</g>
<g>
</g>
<g>
</g>
<g>
</g>
<g>
</g>
<g>
</g>
<g>
</g>
<g>
</g>
<g>
</g>
<g>
</g>
<g>
</g>
<g>
</g>
</svg>
