<?xml version="1.0" encoding="utf-8"?>
<!-- Generator: Adobe Illustrator 17.0.0, SVG Export Plug-In . SVG Version: 6.00 Build 0)  -->
<!DOCTYPE svg PUBLIC "-//W3C//DTD SVG 1.1//EN" "http://www.w3.org/Graphics/SVG/1.1/DTD/svg11.dtd">
<svg version="1.1" id="Layer_1" xmlns="http://www.w3.org/2000/svg" xmlns:xlink="http://www.w3.org/1999/xlink" x="0px" y="0px"
	 width="720px" height="392.5px" viewBox="0 0 720 392.5" style="enable-background:new 0 0 720 392.5;" xml:space="preserve">
<style type="text/css">
	.st0{fill:#FFFFFF;}
	.st1{fill:#F8B4BC;}
	.st2{fill-rule:evenodd;clip-rule:evenodd;fill:#6F181D;}
	.st3{fill:#C24B50;}
	.st4{fill:none;}
</style>
<g id="page-06.svg">
	<path class="st0" d="M354.2,182.2l-4.4,3.8l-2.8-2.6l-14.1,0.3v9.7c0,0.3-0.2,0.8-0.6,1.5c-0.4,0.8-1.8,1.2-4.3,1.4l-2.8,0.2
		c-0.5-1.9-1.2-3.9-2.1-5.9c1.3,0,2.1,0,2.5,0c0.3,0,0.7-0.2,1.2-0.4c0.5-0.2,0.7-0.5,0.7-0.8l0.1-5.5l-8.3,0.2l4.2,4.2
		c-5.5,3.9-10.1,6.7-13.7,8.2c-1.1-1.8-2.4-3.5-3.9-5.1c4.9-1.6,9.3-4,13.1-7.2c-3.3,0.1-6.6,0.3-9.9,0.7l-2.4-5.9
		c6.4-0.6,12.2-2.2,17.3-4.7c-4.6,0-8.2,0.1-10.9,0.4c-0.5-2.3-1.1-4.1-1.6-5.5c4.9-1,8.7-2.5,11.5-4.7c-6.9,0-11.3,0.2-13.5,0.4
		c0.2-3.2,0.4-6.7,0.4-10.4c0-3.7-0.1-7.2-0.4-10.4c0.5,0.3,10,0.4,28.5,0.4c4.7,0,8.6-0.1,11.6-0.4c-0.2,3.2-0.4,6.6-0.4,10.3
		c0,3.7,0.1,7.2,0.4,10.4c-1.2-0.3-7.9-0.4-20-0.4h-0.5l2.1,2.1c-2.4,1.1-5.3,2.4-8.5,3.8h9.3l7.3-5.1l4.8,4.7
		c-4.4,2.4-10.1,5.5-17.3,9.2l15.3-0.4l-3.3-3l5.2-3.4L354.2,182.2z M326.9,152.1v-2.5h-11.7v2.5H326.9z M326.9,159.2v-2.5h-11.7
		v2.5H326.9z M344.1,149.6h-12.1v2.5h12.1V149.6z M344.1,159.2v-2.5h-12.1v2.5H344.1z M339.8,184.3c5.8,3.2,10.2,5.6,13.3,7
		l-0.1-0.1c-1.3,1.9-2.3,3.7-3.2,5.3c-6.2-3.4-10.9-5.9-14.1-7.6L339.8,184.3L339.8,184.3z M381.6,176.3l-4,4.2l-4.4-6.7l0,12.4
		c0,4,0.1,7.3,0.3,10l-6-0.1c0.2-2,0.3-8.2,0.3-18.7c-2.3,3.5-4.7,6.7-7.2,9.5c-0.5-2.8-1.1-5.4-1.9-7.9c4.2-4.2,7.1-9,8.8-14.6
		c-3.8,0.1-6.7,0.2-8.6,0.4v-6.3c2.3,0.2,5.2,0.3,8.8,0.3l0.1-6.4c-2.1,0.4-4.5,0.7-7.3,0.9l-1.6-5.9c6.9-0.2,13.4-1.5,19.4-3.8
		l2.8,6.4l-8,1.5v7.3c2.5-0.1,4.8-0.2,6.8-0.4v6.4c-2-0.2-4.3-0.3-6.8-0.4l0.1,7.3l4-3.1L381.6,176.3z M392.7,177.1L392.7,177.1
		l-4.4,8.3c-1.6,2.9-4,6.5-7.2,10.9l-5.5-4.5c5.4-5.9,9.2-11.8,11.3-17.7L392.7,177.1z M406.5,159.4c0,4.3,0.2,8.7,0.5,13
		c-4.3-0.3-8.6-0.5-12.7-0.5s-8.3,0.2-12.2,0.5c0.3-4.4,0.5-8.8,0.5-13.3c0-4.5-0.2-8.9-0.5-13.4c4.2,0.4,8.4,0.5,12.8,0.5
		c4.1,0,8.2-0.2,12.2-0.5C406.7,150.3,406.5,154.8,406.5,159.4L406.5,159.4z M401,166.6v-14.8h-12.9v14.8H401z M409.8,190.4
		L409.8,190.4c-1.6,1.6-3.3,3.3-5.2,5.3c-2.2-5.5-5.2-11.7-8.8-18.4l5.6-3.1L409.8,190.4z M424.1,175L424.1,175
		c-1.3,7.8-3.2,14.7-5.6,20.7l-4.8-5.5c2.9-5.5,4.6-11.6,5.2-18.2L424.1,175z M424.9,164.8l-2.8,5.5l-7.6-5.1l3.2-5.1L424.9,164.8z
		 M462.7,154.7c-1.8-0.2-4.8-0.4-9.2-0.4c0,0.4,0.1,1.2,0.2,2.2c0.1,1,0.2,1.8,0.2,2.4h-6c0.1-1.1,0.3-2.7,0.4-4.7h-8
		c0.1,1.4,0.2,2.9,0.3,4.2h-6c0.2-1.4,0.3-2.7,0.3-4.1c-4,0.1-6.8,0.2-8.4,0.4v-4.3l-3.6,5.1c-2-1.9-4.4-3.8-7.2-5.9l4-4.7l6.8,5.5
		l0.1-1.6c1.7,0.2,4.5,0.3,8.4,0.3c-0.1-1.8-0.2-3.5-0.4-5l6,0.4c-0.2,1.4-0.3,2.9-0.4,4.6c3.7,0,6.4,0,8.1,0.1
		c-0.1-1.9-0.2-3.6-0.4-5.1l6,0.4c-0.2,1.4-0.3,2.9-0.4,4.6c3.8,0,6.8-0.1,9.2-0.3V154.7z M463.5,165.2c-2.2-0.2-5.9-0.3-11.3-0.4
		c0,1.7,0,3-0.1,3.8c4.8-0.1,8.2-0.2,10.2-0.4c-0.2,1.5-0.3,3.9-0.4,7.2c-0.1,2-0.1,3.8-0.1,5.2l0,4.7v4.7c0,2.2-0.1,3.4-0.3,3.8
		c-0.4,0.8-0.8,1.4-1.2,1.6c-0.5,0.3-1.3,0.6-2.3,0.8c-0.8,0.1-1.8,0.3-2.8,0.3c-0.7,0-1.5,0.1-2.3,0.1c-0.5-2.3-1.2-4.4-2-6.3
		c1.1,0,2.1,0,3.2-0.1c1,0,1.7-0.2,2-0.4c0.3-0.3,0.5-0.5,0.5-0.8v-4.5l-3.2,2.4l-3-4.7c-1.2,4.3-3.5,7.9-6.7,11l-4-3.8
		c2.8-2.6,4.5-4.8,5.2-6.5l-2.8,2.3l-2.6-4.6c-0.7,2.6-2.4,5.9-5.1,10l-2.4-5.5v10.6h-5.6c0.3-2.2,0.5-6.6,0.5-13.3
		c0-6.9-0.2-11.6-0.5-14.2c1.9,0.2,5.1,0.3,9.7,0.4v-3.8c-5,0.1-8.4,0.2-10.4,0.4v-5.9c1.1,0.3,9.7,0.4,25.6,0.4
		c5,0,9.1-0.2,12.2-0.5V165.2z M432.1,185.1c2.3-3.6,3.6-7.4,3.9-11.3h-3.9V185.1L432.1,185.1z M445.4,181.6
		c0.7-1.9,1.1-4.5,1.3-7.8h-5.8c-0.3,1.7-0.5,3-0.7,4l2.4-1.5L445.4,181.6L445.4,181.6z M447,164.9h-5.6c0,1.7,0,3-0.1,3.8h5.7
		V164.9z M456.7,182.6v-8.8h-4.8c-0.1,1.9-0.3,3.5-0.6,4.8l2.2-1.4L456.7,182.6z M486,170.6c2.5,1.1,5.1,2.3,7.9,3.6l-2,5.5
		l-1.6-0.8c0,9.7,0.1,15.2,0.4,16.5H485v-1.3h-7.2v1.3h-5.7c0.3-1.6,0.4-6.5,0.4-14.8l-2.8,1.3l-2.2-5.5c3.9-1.2,7-2.4,9.1-3.8
		l-3.3-1.3l1.8-3.7c-1.3,1.3-2.3,2.3-3,2.9c-1.1-1.2-2.4-2.4-4-3.8c4-2.7,7.2-6.3,9.7-11l5.6,2.1c-1.1,1.5-2,2.6-2.7,3.4h9.1
		l1.2,2.4C488.9,166.7,487.2,169.1,486,170.6L486,170.6z M493.1,154.3c0,1.5,0.1,3.2,0.4,5.1h-6v-4.6h-13.7v4.6h-6
		c0.2-1.9,0.4-3.6,0.4-5.1c0-1.5-0.1-3.2-0.4-5.1c2.1,0.3,5.4,0.4,10.1,0.4l-2.1-3.8l5.6-2.2l2.8,4.7l-1.9,1.2
		c5.5,0,9.3-0.1,11.2-0.3C493.2,151.1,493.1,152.8,493.1,154.3L493.1,154.3z M481.3,168.6c0.8-0.9,1.5-1.9,2.1-2.9h-6.6l-0.6,0.6
		C477.6,167,479.3,167.8,481.3,168.6L481.3,168.6z M488.6,178L488.6,178c-1.9-1-4.1-2-6.6-3.2c-1.5,1.3-3,2.3-4.4,3.2H488.6z
		 M485,182.6h-7.2v6.8h7.2V182.6z M517.6,191.1l-2.8,5.5c-3.6-3.2-6.9-6.1-10-8.5c-1.8,3.2-4.9,6-9.3,8.5c-1.1-1.4-2.4-3.3-3.8-5.5
		c3.3-1.1,5.8-2.5,7.4-4.1c1.6-1.7,2.7-3.7,3.2-6c0.5-2.3,0.8-5.4,0.8-9.3c0-2.2-0.1-4.7-0.4-7.7l6,0.8c0,10.7-1,17.8-2.9,21.4
		l2.9-2.8L517.6,191.1z M518.1,151.7L518.1,151.7c-1.8-0.2-5-0.3-9.7-0.4l-0.7,5.1c3.8,0,6.9-0.1,9.2-0.4c-0.3,2.7-0.4,7.2-0.4,13.3
		c0,6.2,0.1,10.6,0.4,13.3h-5.6v-21.2h-10.9v21.2h-5.6c0.3-2.7,0.4-7.2,0.4-13.3c0-6.2-0.1-10.6-0.4-13.3c1.7,0.2,4.3,0.3,7.6,0.4
		l0.3-5.1c-3.6,0.1-6.2,0.2-8,0.4v-5.9c2.4,0.3,6.3,0.4,11.7,0.4c5.4,0,9.3-0.1,11.7-0.4V151.7z M541.2,166.6c0,6,0.1,10.6,0.4,13.8
		H536v-28.3h-8.4v28.7H522c0.2-0.6,0.3-8.1,0.3-22.3c0-5-0.1-9-0.4-11.9c3.3,0.3,6.7,0.5,10.1,0.5c3.2,0,6.4-0.1,9.6-0.4
		C541.4,149.5,541.2,156.1,541.2,166.6L541.2,166.6z M536.8,182.2c1.9,2.6,3.8,5.3,5.7,8l-4.4,4.2c-1.7-2.9-3.5-5.5-5.5-8
		c-1.6,3.7-3.7,6.8-6.2,9.3c-1.1-1.3-2.5-2.7-4.4-4.2c2.8-2.6,4.7-4.7,5.6-6.4c0.9-1.7,1.5-4.2,1.7-7.4c0.3-3.2,0.4-6.6,0.4-10.1
		c0-4.5-0.1-8.7-0.5-12.4l5.2,0.4v19.8c0,2.2-0.4,5.1-1.2,8.9L536.8,182.2L536.8,182.2z M571.8,161.4c0,3.4,0.2,6.8,0.5,10.2
		c-2.4-0.3-8.3-0.4-17.6-0.4c-5.1,0-9,0.1-11.7,0.4c0.3-3.2,0.4-6.5,0.4-9.7c0-3.5-0.2-6.9-0.5-10.2c1.4,0.2,3.6,0.3,6.4,0.3
		c-1.4-2.1-2.7-3.9-4-5.4l4.8-2.5c1.6,1.7,3.1,3.5,4.4,5.5l-2.9,2.5c3.6,0.1,7.1,0.1,10.7,0l-2.9-2.1c1.6-2,2.9-4.1,4-6.3l5.2,2.5
		c-1.6,2.6-2.8,4.6-3.5,5.9c3.2-0.1,5.5-0.1,7.1-0.3C571.9,155,571.8,158.2,571.8,161.4L571.8,161.4z M569.3,185.1
		c0,3.7,0.1,7.3,0.5,11h-6v-1.3h-13.3v1.3l-6.1-0.1c0.3-3.7,0.5-7.4,0.5-11.2c0-3.8-0.2-7.5-0.5-11.2c3.8,0.4,8,0.6,12.7,0.6
		c4.7,0,8.9-0.2,12.7-0.6C569.5,177.4,569.3,181.2,569.3,185.1L569.3,185.1z M552.5,158c0.8,1.6,1.6,3.1,2.4,4.6v-5.9h-6.5v2.9
		L552.5,158L552.5,158z M554.9,162.7l-4,2.6c-0.8-1.8-1.6-3.4-2.4-4.8v6.1h6.5V162.7z M563.8,179.2h-13.3v3h13.3V179.2z
		 M563.8,190.2v-3.4h-13.3v3.4H563.8z M566.6,160.6v-3.8h-6.8v6.3c1-1.4,2-2.9,2.8-4.6L566.6,160.6z M566.6,166.5v-5.9
		c-0.9,1.4-1.8,3-2.8,4.6l-4-2.1v3.3H566.6z"/>
	<path class="st1" d="M152.5,158.7c3.1,2.1,6.1,4.3,8.7,6.5c-0.9,1.4-1.8,2.6-2.5,3.7c-3.4-3-6.2-5.3-8.4-6.9L152.5,158.7z
		 M152,192.2c2.1-5.6,3.9-11.8,5.4-18.5c1.6,0.9,2.9,1.6,3.9,2c-1.8,6.4-3.6,12.6-5.3,18.6L152,192.2L152,192.2z M154.7,145.4
		c2.9,2.2,5.7,4.5,8.2,6.8c-0.8,1.2-1.7,2.3-2.5,3.5c-2.8-2.7-5.5-5.2-8-7.3L154.7,145.4z M166.2,173.1h11.4v-8.5h-14.4v-3.9h14.4
		v-8.5c-3.7,0.2-7.8,0.4-12.2,0.6c-0.2-1.2-0.4-2.5-0.7-3.9c10.5-0.3,20.3-1,29.3-2.1l0.7,4c-3.7,0.4-8.2,0.8-13.5,1.1v8.7h14.9v3.9
		h-14.9v8.5h11.4v21.8h-3.6v-3h-19.3v3h-3.6V173.1z M189.1,176.7h-19.3v11.5h19.3V176.7z M216.3,172.9c1.9,4.6,3.7,9.2,5.3,13.7
		c-1.3,0.6-2.5,1.2-3.4,1.7c-0.2-0.6-0.4-1.3-0.6-1.9c-5.8,0.6-11.1,1.2-15.9,1.8l-1.6-4.1c1.3-0.8,2.4-2.2,3.3-4.1
		c1.5-3.3,3.1-7.6,4.7-12.7h-7.7v-3.8h22.1v3.8h-10.5c-2.6,7.2-4.9,12.8-6.8,16.8c3.5-0.3,7.3-0.7,11.3-1.1c-1-2.9-2.1-5.7-3.2-8.5
		L216.3,172.9z M202.2,149.2h18.4v3.8h-18.4V149.2z M221,155.3h6.8c0-3.4,0.1-6.9,0-10.5h3.8c0,3.5-0.1,7-0.1,10.5h12.3
		c-0.2,12.8-0.5,23.1-0.9,30.9c-0.3,4.8-2.3,7.2-6,7.3c-1.9,0-4-0.1-6.2-0.2c-0.2-1.4-0.5-2.9-0.7-4.5c2.1,0.3,4,0.5,5.8,0.5
		c2.3,0,3.4-1.4,3.5-4.2c0.5-8.4,0.7-17.1,0.8-26h-8.7c0,1.5-0.1,2.9-0.1,4.3c-0.2,13.3-3.8,23.9-10.9,31.6
		c-0.9-1.2-1.8-2.3-2.7-3.5c6.4-6.3,9.7-15.7,10-28.2c0-1.4,0.1-2.8,0.1-4.2H221V155.3z M249.8,184.6h44v4.3h-44V184.6z
		 M253.2,151.3h37.4v4.4h-37.4V151.3z"/>
	<path class="st0" d="M156.6,297.1h9c0.5-1.3,0.9-2.6,1.3-4l2.5,0.7c-0.4,1.1-0.7,2.2-1.1,3.3h17.8v2.4h-18.7
		c-1.2,2.9-2.6,5.6-4.3,8.1v17.1h-2.4v-13.6c-1.1,1.5-2.3,2.8-3.5,4.2c-0.4-0.8-0.9-1.5-1.5-2.3c3.8-4.1,6.7-8.6,8.9-13.4h-8V297.1z
		 M157.4,346.9c1.6,1.1,3.4,2.6,5.6,4.4c-0.8,0.9-1.4,1.6-1.8,2.1c-2.4-2.2-4.1-3.7-5.3-4.6L157.4,346.9z M156.5,368.8
		c1.1-3.8,2.2-8,3.1-12.6c0.9,0.3,1.7,0.7,2.6,1c-1,4.3-2,8.4-2.9,12.4L156.5,368.8L156.5,368.8z M158.6,338.6
		c1.6,1.3,3.4,2.9,5.4,4.7c-0.7,0.8-1.3,1.4-1.9,2c-2.3-2.3-4-3.9-5.2-4.9L158.6,338.6z M164.2,320h9.6v-9.6h-8v-2.3h8v-6.5h2.5v6.5
		h8.1v2.3h-8.1v9.6h9.8v2.3h-21.9V320z M169.6,345.9c-2.1-2.6-3.6-4.5-4.5-5.4l1.8-1.5c1,0.9,2.6,2.7,4.8,5.3L169.6,345.9
		L169.6,345.9z M168.1,369.7h-2.5v-22.5h8.7v-9.1h2.6v9.1h8.5v18.6c0,2.5-1.2,3.8-3.5,3.8c-1.4,0-3.2,0-5.5-0.1
		c-0.1-0.8-0.3-1.7-0.5-2.6c2.1,0.1,3.7,0.2,5,0.2c1.3,0,2-0.6,2-1.8v-3.1h-14.8V369.7z M182.8,349.6h-14.8v4h14.8V349.6z
		 M168.1,359.9h14.8v-4h-14.8V359.9z M179.4,344.5c1.6-1.7,3.1-3.5,4.5-5.5l2.3,1.8c-1.3,1.6-3,3.4-4.9,5.4L179.4,344.5z
		 M188.4,319.8H218v2.7h-29.6V319.8z M190.3,296.4H216v2.8h-25.7V296.4z M192.8,341.1h9.1c0-1,0.1-1.9,0.1-2.7h2.3
		c0,0.8,0,1.7-0.1,2.7h5.5v-2.7h2.3v2.7h7.6v7.3h-2.3v-0.8h-5.3v2.9h9c0,1.5-0.2,2.9-0.3,4c-0.2,1.5-1.2,2.3-2.8,2.3
		c-0.3,0-0.6,0-0.9,0v7.9h-2.3V358h-15.9v7h-2.3v-7c-1.3,0.6-2.7,1.1-4.4,1.6c-0.3-0.6-0.7-1.4-1.4-2.2c4.8-1.1,8-2.7,9.5-5h-7
		l1-6.6h7.5c0.1-0.8,0.1-1.8,0.1-2.8h-9V341.1z M191.7,307.5h22.9v2.7h-22.9V307.5z M203.4,365.3c1.4-0.7,2.1-2.5,2.1-5.5h2.2
		c0,1.4-0.1,2.6-0.4,3.6c4.8,1.4,9.2,2.9,13.1,4.3l-1.2,2.3c-4.3-1.6-8.5-3.1-12.7-4.5c-1.3,2.2-5.6,3.7-13,4.6
		c-0.4-1-0.8-1.8-1.1-2.3C197.3,367.3,201,366.5,203.4,365.3L203.4,365.3z M195.8,350.5h5.3c0.2-0.8,0.4-1.7,0.5-2.9h-5.4
		L195.8,350.5z M214.6,356c-0.1-0.4-0.3-0.9-0.4-1.5c1.2,0.1,2.2,0.2,2.9,0.2c0.8,0,1.3-0.3,1.5-1c0.1-0.5,0.1-0.9,0.2-1.3h-6.8v3.2
		h-2.3v-3.2h-6.8c-0.6,1.3-1.6,2.5-3,3.6H214.6L214.6,356z M203.9,347.6c-0.1,1.1-0.3,2.1-0.4,2.9h6.2v-2.9H203.9L203.9,347.6z
		 M204.1,343c0,1,0,1.9-0.1,2.8h5.6V343H204.1L204.1,343z M217.3,343h-5.3v2.8h5.3V343z M220.2,321h13.9v-4.2H222v-2.3h12.1v-4.2
		h-8.5v1.2h-2.4v-16.5h24.3v16.5h-2.4v-1.2h-8.5v4.2h12.1v2.3h-12.1v4.2h14.1v2.3h-30.4V321z M226.7,347.1c1.9,1.5,3.6,2.9,5.2,4.3
		c-0.8,0.9-1.4,1.6-1.8,2.1c-1.7-1.6-3.3-3.1-4.9-4.5L226.7,347.1z M225.6,301.5h8.5v-4.4h-8.5V301.5z M225.6,308.1h8.5v-4.4h-8.5
		V308.1z M225.9,368.8c1.1-3.4,2.1-7.5,3-12.3c0.9,0.4,1.7,0.8,2.6,1.1c-0.9,3.8-1.9,7.9-2.8,12.1L225.9,368.8L225.9,368.8z
		 M227.8,338.7c1.5,1.2,3,2.4,4.5,3.9c-0.7,0.7-1.3,1.3-1.8,2c-1.4-1.5-2.8-2.8-4.3-4.1L227.8,338.7z M233,347.5h23.6v2.2h-7
		c0,1.1,0,2.2,0,3.3h6.1v12.8c0,2.5-1.2,3.8-3.6,3.8c-1,0-2.2,0-3.4-0.1c-0.1-0.8-0.3-1.6-0.5-2.5c1.4,0.2,2.5,0.3,3.3,0.3
		c1.2,0,1.8-0.6,1.8-1.9v-2.2c-0.4,0.4-0.9,0.9-1.6,1.5c-1.1-1.5-2.2-2.9-3.3-4.1c-0.8,2.4-2.1,4.5-3.9,6.1c-0.5-0.6-1-1.2-1.6-1.8
		c2.5-2.2,3.9-5.4,4.3-9.7H242c0,0.9-0.1,1.7-0.3,2.5c1.2,1.1,2.3,2.2,3.5,3.4c-0.2,0.2-0.8,0.7-1.7,1.7c-0.8-0.9-1.6-1.8-2.4-2.7
		c-0.8,2.3-2,4.3-3.8,5.9c-0.4-0.4-0.7-0.9-1.2-1.4v5.3h-2.3v-16.9h6c0-1.1,0-2.2,0-3.3H233V347.5z M233,341.8h6v-3.6h2.4v3.6h6.7
		v-3.6h2.4v3.6h6.1v2.2h-6.1v2.8h-2.4V344h-6.7v2.8H239V344h-6V341.8z M236.2,363.8c2.2-2.1,3.4-5,3.6-8.7h-3.6V363.8z M245.1,297.1
		h-8.5v4.4h8.5V297.1z M236.6,308.1h8.5v-4.4h-8.5V308.1z M242.1,349.7c0,0.9,0,2,0,3.3h5.2c0-1,0-2.1,0-3.3H242.1L242.1,349.7z
		 M253.3,355.1h-3.9c-0.1,1-0.2,2-0.4,2.9c1.7,1.8,3.1,3.3,4.2,4.6V355.1z M277,314.7V313h-8.3v5.6c0,1.9,0.8,2.8,2.4,2.8h5.5
		c1.8,0,2.8-0.8,3.1-2.4c0.2-1.2,0.4-2.9,0.6-4.9c0.9,0.4,1.7,0.7,2.6,1c-0.3,2.2-0.6,3.9-0.9,5c-0.6,2.4-2.2,3.6-4.9,3.6h-6.6
		c-2.7,0-4-1.5-4-4.5V313h-10.5v-10.7h2.3v8.4h8.2v-10.7h-12.9v-2.4h12.9v-4.3h2.4v4.3h13v2.4h-13v10.7h8.3v-8.4h2.3v12.4H277z
		 M267,354.3c-1-0.5-1.9-1-2.9-1.5l1.2-1.8c1.2,0.6,2.4,1.2,3.5,1.8c1.1-1.1,2-2.3,2.8-3.7h-6.2c-1.1,1.9-2.3,3.5-3.6,4.9
		c-0.5-0.5-1-1-1.5-1.5c2-2.1,3.6-4.8,4.9-7.9l2.1,0.7c-0.3,0.6-0.6,1.3-0.9,1.8h7.6v1.8c-0.9,1.8-2,3.4-3.3,4.8
		c1.8,0.9,3.5,1.8,5.1,2.6l-1.3,2.1c-1.8-1.1-3.6-2.1-5.5-3.1c-1.6,1.3-3.4,2.4-5.5,3.4h10.1v10.3h-2.1v-1.4h-6.5v1.6H263V359
		c-0.6,0.3-1.3,0.5-1.9,0.7c-0.3-0.6-0.6-1.2-1-2C262.7,356.9,265.1,355.8,267,354.3L267,354.3z M261,341.9h6.5c-0.4-1-0.9-2-1.5-3
		l2.1-0.9c0.8,1.5,1.4,2.8,1.9,3.9h5.6v4.5h-2.1v-2.6h-10.3v2.6H261V341.9z M271.6,360.8h-6.5v5h6.5V360.8z M281.4,361.9
		c0.8-1.7,1.1-5.5,0.9-11.3h2.3c0,5.5-0.2,9.3-0.7,11.4c3,2.2,5.7,4.2,7.9,6l-1.6,2.1c-2-1.9-4.4-3.9-7.2-5.9
		c-1.3,2.4-3.7,4.5-7.3,6.2c-0.4-0.6-0.9-1.3-1.5-2.1C278.1,366.5,280.5,364.4,281.4,361.9L281.4,361.9z M276.7,346.4h4.6l0.7-4.1
		h-6v-2.2h15.1v2.2h-6.7l-0.9,4.1h6.6v16.2H288v-14h-9.1v14h-2.2V346.4z M286.2,324.8c-0.4-0.6-1-1.4-1.9-2.4
		c8-4.5,12.5-10.8,13.5-18.7h-12.9v-2.5h13.1c0.1-2.1,0.1-4.8,0.1-7.8h2.7c0,2.7,0,5.3-0.1,7.8h13.6v2.5h-13.4
		c2.1,8.7,6.8,14.7,14,17.9c-1,1-1.7,1.9-2.2,2.6c-6.6-3.9-10.9-9.6-13-17.2C297.9,314.4,293.5,320.3,286.2,324.8L286.2,324.8z
		 M305.6,357c2.6,3.1,4.8,5.9,6.5,8.3l-2,1.5c-0.8-1.1-1.6-2.2-2.4-3.4c-3.1,1.5-5.8,2.8-7.9,3.8c-0.7,0.4-1.3,0.9-1.9,1.4l-1.7-2.1
		c0.7-0.7,1-1.5,1-2.4v-23.8h12.7v16.6h-2.4v-0.8h-7.9v8.5c2.1-0.9,4.3-1.9,6.8-3c-0.8-1.1-1.6-2.2-2.5-3.3L305.6,357z M300.2,323.4
		c-1.3-1.7-2.6-3.4-4.1-5.2l2-1.6c1.5,1.7,2.9,3.3,4.3,5L300.2,323.4L300.2,323.4z M307.4,342.6h-7.9v4.5h7.9V342.6z M307.4,353.9
		v-4.5h-7.9v4.5H307.4z M313.3,340.7h11.1v19.5c0,2.8-1.3,4.1-3.9,4.1c-0.9,0-2.2,0-3.7,0c-0.1-0.9-0.3-1.9-0.4-2.8
		c1.6,0.2,2.8,0.3,3.5,0.3c1.4,0,2.1-0.8,2.1-2.3v-16.4h-6.3V370h-2.4V340.7z M320.6,308.7h9.7v-6.9h-13.8v-2.4h13.8v-6.1h2.5v6.1
		H347v2.4h-14.1v6.9H343v16h-2.5v-2.3h-17.5v2.3h-2.5V308.7z M340.5,311.1h-17.5v9h17.5V311.1z M329.9,340.8h31.2v2.4h-5.2v21.8
		c0,2.9-1.4,4.4-4.1,4.4c-2,0-3.9,0-5.8,0c-0.1-1-0.3-2-0.5-2.9c2.4,0.2,4.2,0.3,5.4,0.3c1.6,0,2.3-0.9,2.3-2.6v-20.9h-23.3V340.8z
		 M333.4,348h13.9v12.7h-11.4v2.3h-2.5V348z M344.8,350.3h-8.9v8.2h8.9V350.3z M348.8,321h13.9v-4.2h-12.1v-2.3h12.1v-4.2h-8.5v1.2
		h-2.4v-16.5h24.3v16.5h-2.4v-1.2h-8.5v4.2h12.1v2.3h-12.1v4.2h14.1v2.3h-30.4V321z M354.2,301.5h8.5v-4.4h-8.5V301.5z M354.2,308.1
		h8.5v-4.4h-8.5V308.1z M364.5,355.3c1.3-0.4,2.6-0.8,4-1.3v-7.5h-3.7v-2.2h3.7v-6h2.4v6h3.6v2.2h-3.6v6.6c1.1-0.4,2.1-0.8,3.3-1.2
		c0,1.1,0,1.9,0.1,2.5c-0.2,0.1-1.3,0.5-3.3,1.3v10.4c0,2.2-1,3.3-2.9,3.4c-0.9,0-2,0.1-3.1,0c-0.1-0.9-0.3-1.8-0.4-2.7
		c1.2,0.1,2.1,0.2,2.9,0.2c0.8,0,1.1-0.5,1.1-1.4v-9.1c-1.1,0.4-2.3,0.9-3.6,1.4L364.5,355.3z M373.7,297.1h-8.5v4.4h8.5V297.1z
		 M365.2,308.1h8.5v-4.4h-8.5V308.1z M373.5,357.8h2.7v-8.7c-0.5-0.4-1.1-0.9-1.8-1.4c2.8-2.9,5-6.2,6.6-9.7l2.6,0.5
		c-0.5,1-1,2-1.6,3h9.5v2.2c-0.8,1-2,2.5-3.7,4.5h5.7v9.7h2.6v2.2h-9.8c1.7,3.7,4.9,6.1,9.7,7.1c-0.8,0.9-1.4,1.8-1.9,2.6
		c-4.3-1.5-7.4-4.2-9.2-8c-1.2,3.3-4.7,6.1-10.5,8.3c-0.5-0.8-1.1-1.6-1.8-2.4c6.1-1.8,9.5-4.4,10.4-7.6h-9.4V357.8z M385,348.1
		c1.4-1.8,2.6-3.2,3.5-4.4h-8c-1,1.6-2.2,3.1-3.4,4.4H385L385,348.1z M378.4,357.8h4.9c0.2-1.1,0.3-3.6,0.3-7.5h-5.2V357.8z
		 M380.8,319c2.7-1,5.8-2.2,9.5-3.8v-10.1h-8.8v-2.4h8.8v-9.1h2.5v31h-2.5v-6.7c-2,0.8-4.8,2.1-8.5,3.7L380.8,319z M391.2,350.3
		h-5.3c0,2.7-0.1,5.2-0.2,7.5h5.5V350.3z M398.8,293.6h2.5v10.9c2.8-1.5,5.4-3.2,7.8-4.9l1.5,2.3c-2.2,1.5-5.3,3.2-9.3,5.4V319
		c0,1.5,0.8,2.2,2.3,2.2h2.1c1.5,0,2.3-0.7,2.5-2.2c0.2-1.4,0.3-3.1,0.5-5.3c0.9,0.4,1.8,0.7,2.6,1c-0.2,2-0.4,3.8-0.7,5.2
		c-0.4,2.4-1.8,3.7-4.3,3.7H403c-2.8,0-4.2-1.5-4.2-4.4V293.6z M399.3,362.3c0.9-0.1,1.9-0.2,2.8-0.4V342h-2.4v-2.3h15.5v1.1h13.8v2
		c-1.2,7.9-3,13.8-5.4,17.5c2,2.9,4.4,5.1,7.2,6.7c-0.6,0.6-1.2,1.4-1.9,2.4c-2.3-1.7-4.5-4-6.7-7c-2.1,2.8-4.7,5.3-7.6,7.4
		c-0.6-0.8-1.1-1.5-1.6-2v2h-2.4v-7c-3.8,0.6-7.5,1.2-11,1.8L399.3,362.3z M404.5,346.9h6.2V342h-6.2V346.9z M404.5,353.9h6.2V349
		h-6.2V353.9z M404.5,361.6c2-0.3,4-0.6,6.2-0.9V356h-6.2V361.6L404.5,361.6z M415,343.1V342h-2v18.3c1.2-0.2,2.4-0.4,3.6-0.6
		c-0.1,0.9-0.1,1.6-0.1,2.2c-1.2,0.2-2.4,0.4-3.5,0.5v5.2c2.9-1.8,5.6-4.2,7.8-7.3c-2.4-4-4-9.7-4.7-17.4H415z M415.5,295.5h26.3
		v2.5h-23.7v22.5h24.2v2.4h-26.8V295.5z M422.3,358.2c1.8-3.1,3.3-8.2,4.4-15.2h-8.2C418.9,349.3,420.2,354.4,422.3,358.2
		L422.3,358.2z M428.4,309.1c-2.6-2.5-5.2-5.1-7.9-7.6l1.7-1.7c2.6,2.2,5.2,4.6,8,7.3c2.1-2.4,4.2-5.1,6.1-7.9l2.2,1.6
		c-2.1,2.9-4.3,5.6-6.5,8.1c2.5,2.4,5.2,5,7.9,7.8l-2.1,2.3c-2.5-2.7-5-5.4-7.6-8.1c-3,3.1-6,5.9-9,8.3c-0.5-0.7-1.1-1.4-2-2.1
		C422.4,314.8,425.5,312.2,428.4,309.1L428.4,309.1z M435.2,361.1c-0.3-0.9-0.7-1.9-1.1-2.8c2.3-3.3,4.1-7.1,5.2-11.4h-4.9v-2.2h4.9
		v-6.4h2.3v6.4h4.6v2.2h-4.6v5.6l1.3-1.3c1.5,1.4,2.8,2.8,4,4.2l-1.7,1.7c-1.2-1.4-2.3-2.8-3.6-4.1v16.8h-2.3V353
		C438.2,356.2,436.9,358.9,435.2,361.1L435.2,361.1z M445.5,321.6c3-1.2,5.9-2.6,8.5-4l1.4,2c-3,1.6-5.9,2.9-8.8,4.1
		C446.2,323.1,445.9,322.4,445.5,321.6L445.5,321.6z M447.5,340.4h16.6v29.5h-2.4v-2.2h-11.8v2.2h-2.4V340.4z M467,310.3
		c2.9,2.4,5.1,4.5,6.8,6.3l-1.7,1.8c-0.8-0.9-1.6-1.7-2.5-2.6c-2.5,0.1-5,0.2-7.5,0.3v4.3c0,2.7-1.3,4-3.8,4c-1.3,0-2.8,0-4.4,0
		c-0.1-0.9-0.3-1.8-0.5-2.7c1.6,0.2,3,0.2,4.2,0.2c1.4,0,2.1-0.8,2.1-2.4v-3.4c-2.7,0.1-5.5,0.3-8.3,0.4c-0.9,0-1.8,0.1-2.6,0.3
		l-0.8-2.4c1.2-0.2,2.6-0.5,4.2-1.2c2.1-0.8,4.4-1.8,6.8-3c-2.5,0.1-4.8,0.2-6.8,0.3c-1,0.1-1.7,0.1-2.2,0.2l-0.8-2.1
		c1-0.2,2.1-0.6,3.1-1.1c1.4-0.6,2.7-1.3,4.1-2.1h-5.7v0.9h-2.3v-12.2h24.2v12.2h-2.3v-0.9H460c-2.3,1.2-4.5,2.3-6.7,3.3
		c2.7-0.1,5.8-0.2,9.3-0.3c1.4-0.7,2.9-1.5,4.4-2.3l1.6,1.7c-4.9,2.4-9.9,4.6-15,6.6c5.2-0.2,9.8-0.5,14-0.8
		c-0.7-0.7-1.5-1.4-2.3-2.1L467,310.3z M461.7,342.6h-11.8v6.2h11.8V342.6z M449.9,357.1h11.8v-6.2h-11.8V357.1z M449.9,365.4h11.8
		v-6.3h-11.8V365.4z M450.6,299.1h8.6v-2.9h-8.6V299.1z M450.6,303.7h8.6v-2.9h-8.6V303.7z M470.2,296.2h-8.7v2.9h8.7V296.2z
		 M461.5,303.7h8.7v-2.9h-8.7V303.7z M466.4,317.8c3,1.1,6,2.3,8.8,3.6l-1,2.2c-2.7-1.3-5.7-2.5-8.9-3.6L466.4,317.8z M485.7,342.6
		c-0.7-1.2-1.4-2.3-2.3-3.5l2.3-1.3c0.9,1.2,1.8,2.5,2.6,3.8l-1.5,0.9h12.8v2.4H475v7.9c0,7.6-1.5,13.3-4.6,17
		c-0.5-0.7-1.1-1.5-1.8-2.2c2.5-2.9,3.8-7.8,3.8-14.8v-10.4H485.7L485.7,342.6z M474.8,365.6h14.6c1.6-4.3,3.4-10.2,5.2-17.6
		l2.7,0.8c-2,7.1-3.7,12.7-5.2,16.8h7.8v2.4h-25.2V365.6z M480,363c-1-4.3-2.1-8.6-3.5-13.1l2.4-0.8c1.3,3.9,2.6,8.3,3.8,13.1
		L480,363L480,363z M478.3,319c-0.3-0.9-0.7-1.9-1.1-2.8c1.9-3,3.5-6.6,4.7-10.8h-4.6v-2.3h4.9V298c-1.3,0.1-2.8,0.2-4.3,0.3
		c-0.1-0.8-0.3-1.6-0.5-2.4c4.2-0.2,7.8-0.6,10.9-1.1l0.6,2.4c-1.2,0.2-2.7,0.3-4.4,0.5v5.3h4.6v2.3h-4.6v4.5l1.2-1.2
		c1.2,1.3,2.6,2.8,4,4.4l-1.7,1.6c-1.1-1.4-2.3-2.8-3.5-4.2V325h-2.3v-14.3C481.2,313.9,479.9,316.6,478.3,319L478.3,319z
		 M486.7,361.2c-0.6-4.3-1.5-8.6-2.6-13l2.4-0.7c1.1,3.9,2.1,8.2,2.9,13L486.7,361.2L486.7,361.2z M487.4,322.7
		c2.5-2.6,4.6-5.3,6.4-8l2,1.5c-2.3,3.1-4.6,5.8-6.7,8.2C488.7,324,488.1,323.4,487.4,322.7L487.4,322.7z M490.6,295.9h15.5v16.8
		h-2.3v-1.5h-10.8v1.5h-2.3V295.9z M503.8,298.1h-10.8V309h10.8V298.1z M505.8,324.2c-1.8-2.8-3.7-5.4-5.6-7.9l1.9-1.4
		c1.9,2.3,3.8,4.8,5.8,7.6L505.8,324.2L505.8,324.2z M504.8,347v-2.4h12.6v2.3c-1.2,2.2-2.7,4.4-4.4,6.4v16.6h-2.5v-13.8
		c-1.8,1.9-3.8,3.7-6,5.4c-0.4-1.3-0.6-2.3-0.8-2.8c4.8-3.5,8.4-7.4,10.9-11.8H504.8z M512.3,343.9c-1.1-1.5-2.1-3-3.2-4.4l2-1.3
		c1.1,1.4,2.2,2.8,3.3,4.3L512.3,343.9L512.3,343.9z M512.2,295h16.1v9.6h-2.2v-1.1h-11.7v4.9c0,6.9-1.2,12.2-3.6,15.8
		c-0.5-0.8-1-1.5-1.4-2.1c1.9-3.2,2.8-7.7,2.8-13.7V295z M519,359.5c-1.8-1.6-3.5-3.1-5.3-4.4l1.4-1.7c1.8,1.3,3.7,2.7,5.5,4.2
		L519,359.5L519,359.5z M526.1,297.2h-11.7v4.1h11.7V297.2z M523.1,324.9H521v-15.1h-3v11.5h-2.1v-13.6h5.1v-3.1h2.1v3.1h5.3v10.5
		c0,1.9-0.8,2.9-2.3,2.9c-0.4,0-1.2,0-2.2,0c-0.1-0.7-0.3-1.5-0.4-2.2c0.8,0.1,1.3,0.1,1.8,0.1c0.7,0,1.1-0.4,1.1-1.3v-7.9h-3.2
		V324.9z M522.1,338.6h2.5v25.7c0,1.4,0.7,2.1,2.2,2.1h2.7c1.5,0,2.4-0.8,2.6-2.3c0.2-1.5,0.3-3.5,0.4-6.1c0.9,0.4,1.8,0.7,2.6,1
		c-0.3,3.1-0.5,5.2-0.7,6.5c-0.4,2.2-1.9,3.3-4.7,3.3h-3.4c-2.8,0-4.2-1.4-4.2-4.2V338.6z M536,293.7h2.2v26.8c0,2.6-1.2,4-3.5,4
		c-1.1,0-2.5,0-4.1-0.1c-0.1-1-0.3-1.9-0.5-2.7c1.7,0.2,3,0.3,3.9,0.3c1.3,0,2-0.8,2-2.3V293.7z M533.2,316.6h-2.1v-19.8h2.1V316.6z
		 M540.2,355h12v14.9h-2.4v-2.2h-7.2v2.2h-2.4V355z M542.1,305.6h12.2v-12.3h2.6v4.8h12.9v2.4h-12.9v5.1h14.8v2.4h-29.6V305.6z
		 M549.8,357.2h-7.2v8.3h7.2V357.2z M543.3,339.6h21.8v12.8h-2.5v-1h-16.7v1h-2.5V339.6z M562.5,341.8h-16.7v7.2h16.7V341.8z
		 M554.3,309.2h2.6v3.7l1.3-1.7c4.9,2.3,8.8,4.4,11.9,6.2l-1.6,2.4c-2.8-1.8-6.6-3.9-11.5-6.4V325h-2.6V309.2z M556.1,355h12.1v14.9
		h-2.4v-2.2h-7.3v2.2h-2.4V355z M565.8,357.2h-7.3v8.3h7.3V357.2z"/>
	<path class="st0" d="M156.4,258.5l14.7-13.3c1.5-1.3,2.7-2.5,3.7-3.5c1-1.1,1.8-2.1,2.5-3c0.6-1,1.1-1.9,1.4-2.8
		c0.3-0.9,0.4-1.9,0.4-2.9c0-2.2-0.7-4-2-5.2c-1.3-1.2-3-1.8-4.9-1.8c-2,0-3.7,0.6-5.2,1.7c-1.5,1.1-3.1,2.8-4.7,5.1l-5.3-4.4
		c1-1.5,2.1-2.9,3.1-4.1c1.1-1.2,2.2-2.2,3.5-3c1.2-0.8,2.6-1.4,4.1-1.9c1.5-0.4,3.2-0.7,5.1-0.7c2.1,0,4,0.3,5.7,1
		c1.7,0.7,3.2,1.6,4.5,2.8c1.2,1.2,2.2,2.6,2.9,4.3c0.7,1.7,1,3.5,1,5.6v0.1c0,1.8-0.2,3.4-0.7,4.8c-0.4,1.5-1.1,2.8-2,4.2
		c-0.9,1.3-2.1,2.7-3.5,4.1c-1.4,1.4-3,2.9-4.9,4.5l-8.8,7.8h20.4v7h-30.9V258.5z M212.4,265.6c-2.8,0-5.4-0.6-7.6-1.8
		c-2.3-1.2-4.2-2.9-5.9-5c-1.6-2.1-2.9-4.6-3.8-7.4c-0.9-2.8-1.3-5.9-1.3-9.1v-0.1c0-3.2,0.4-6.3,1.3-9.2c0.9-2.9,2.2-5.4,3.8-7.5
		c1.6-2.1,3.6-3.8,5.9-5c2.3-1.2,4.9-1.9,7.7-1.9c2.8,0,5.4,0.6,7.6,1.8c2.3,1.2,4.2,2.9,5.8,5c1.6,2.1,2.9,4.6,3.8,7.4
		c0.9,2.8,1.3,5.9,1.3,9.1v0.1c0,3.2-0.4,6.3-1.3,9.2c-0.9,2.9-2.2,5.4-3.8,7.5c-1.6,2.1-3.6,3.8-5.9,5
		C217.7,265,215.2,265.6,212.4,265.6z M212.5,258.4c1.7,0,3.2-0.4,4.5-1.3c1.3-0.8,2.5-2,3.4-3.4c0.9-1.5,1.7-3.2,2.2-5.1
		c0.5-2,0.8-4.1,0.8-6.3v-0.1c0-2.3-0.3-4.4-0.8-6.3c-0.5-2-1.3-3.7-2.2-5.2c-0.9-1.5-2.1-2.6-3.5-3.5c-1.4-0.9-2.9-1.3-4.5-1.3
		c-1.7,0-3.2,0.4-4.5,1.3c-1.3,0.8-2.5,2-3.4,3.4c-0.9,1.5-1.7,3.2-2.2,5.1c-0.5,2-0.8,4.1-0.8,6.3v0.1c0,2.3,0.3,4.4,0.8,6.3
		c0.5,2,1.2,3.7,2.2,5.2c1,1.5,2.1,2.6,3.5,3.5C209.3,257.9,210.8,258.4,212.5,258.4z M244.9,227.1l-7.7,2.3l-1.6-6.5l11.5-3.9h5.3
		v45.8h-7.5V227.1z M276.2,265.6c-3.3,0-6.2-0.6-8.8-1.9c-2.6-1.3-4.9-2.9-6.9-5l4.6-5.8c1.7,1.7,3.5,3,5.3,4c1.8,1,3.7,1.5,5.7,1.5
		c2.6,0,4.6-0.7,6.2-2.2c1.5-1.4,2.3-3.4,2.3-5.7v-0.1c0-2.3-0.8-4.2-2.5-5.5c-1.7-1.3-3.8-2-6.4-2c-1.5,0-3,0.2-4.3,0.6
		c-1.3,0.4-2.5,0.9-3.6,1.4l-4.5-3.2l1.2-22.3h25.6v7.1H271l-0.7,10.7c1-0.4,2-0.7,3.1-0.9c1-0.2,2.3-0.4,3.7-0.4
		c2.1,0,4,0.3,5.8,0.9c1.8,0.6,3.4,1.5,4.7,2.7c1.3,1.2,2.4,2.7,3.2,4.5c0.8,1.8,1.2,3.9,1.2,6.3v0.1c0,2.3-0.4,4.5-1.1,6.3
		c-0.8,1.9-1.8,3.5-3.2,4.8c-1.4,1.3-3.1,2.4-5,3.1C280.7,265.2,278.5,265.6,276.2,265.6z M300,259.3h4v5.5h-4V259.3z M335.7,253.7
		h-23.2l-1.1-2.5l24.5-32.2h2.9v31.8h7v2.9h-7v11.1h-3.1V253.7z M335.7,250.8v-26.9l-20.4,26.9H335.7z M353.5,259.3h4v5.5h-4V259.3z
		 M383.6,265.6c-2.7,0-5.2-0.6-7.4-1.9c-2.2-1.3-4-3-5.6-5.1c-1.5-2.1-2.7-4.6-3.5-7.5c-0.8-2.8-1.2-5.8-1.2-8.9v-0.1
		c0-3.1,0.4-6.1,1.3-9c0.8-2.9,2-5.4,3.6-7.5c1.5-2.1,3.4-3.9,5.6-5.1c2.2-1.3,4.6-1.9,7.4-1.9c2.7,0,5.2,0.6,7.4,1.9
		c2.2,1.3,4,3,5.6,5.1c1.5,2.1,2.7,4.6,3.5,7.5c0.8,2.8,1.2,5.8,1.2,8.9v0.1c0,3.1-0.4,6.1-1.3,9c-0.8,2.9-2,5.4-3.6,7.5
		c-1.6,2.1-3.4,3.9-5.6,5.1C388.8,264.9,386.3,265.6,383.6,265.6z M383.7,262.5c2.2,0,4.2-0.6,6-1.7c1.8-1.1,3.3-2.6,4.5-4.5
		c1.2-1.9,2.2-4.1,2.9-6.5c0.7-2.4,1-5,1-7.6v-0.1c0-2.6-0.3-5.2-1-7.7c-0.7-2.5-1.6-4.6-2.9-6.5c-1.3-1.9-2.8-3.4-4.6-4.6
		c-1.8-1.1-3.8-1.7-6-1.7c-2.2,0-4.2,0.6-6,1.7c-1.8,1.1-3.3,2.6-4.5,4.5c-1.2,1.9-2.2,4.1-2.9,6.5c-0.7,2.4-1,5-1,7.6v0.1
		c0,2.6,0.3,5.2,1,7.6c0.7,2.4,1.6,4.6,2.9,6.5c1.3,1.9,2.8,3.4,4.6,4.6C379.5,262,381.5,262.5,383.7,262.5z M407.7,262.3l16-15.3
		c1.8-1.7,3.2-3.2,4.4-4.6c1.2-1.4,2.2-2.7,2.9-3.9c0.8-1.2,1.3-2.4,1.6-3.5c0.3-1.1,0.5-2.3,0.5-3.5c0-1.5-0.3-2.8-0.8-4
		c-0.5-1.2-1.2-2.2-2.1-3.1c-0.9-0.8-1.9-1.5-3.1-1.9c-1.2-0.5-2.4-0.7-3.7-0.7c-2.7,0-5.1,0.7-7,2.2c-1.9,1.5-3.8,3.5-5.6,6.3
		l-2.4-1.7c0.9-1.5,1.9-2.9,2.9-4.1c1-1.2,2.1-2.2,3.3-3.1c1.2-0.9,2.5-1.5,4-2c1.5-0.5,3.1-0.7,5-0.7c1.8,0,3.5,0.3,5.1,0.9
		c1.5,0.6,2.9,1.5,4,2.6c1.1,1.1,2,2.4,2.7,4c0.7,1.5,1,3.2,1,4.9v0.1c0,1.6-0.2,3-0.6,4.4c-0.4,1.4-1.1,2.7-1.9,4.1
		c-0.9,1.4-2,2.8-3.3,4.3c-1.3,1.5-3,3.1-4.8,4.9l-13.1,12.6h24.2v3.2h-29.2V262.3z M444.5,243.7h16.4v3.6h-16.4V243.7z M483,265.6
		c-2.9,0-5.7-0.7-8.3-2.1c-2.6-1.4-4.8-3.2-6.7-5.2l2.3-2.4c2,2.1,4,3.7,6.2,4.9c2.2,1.2,4.4,1.8,6.7,1.8c1.7,0,3.3-0.3,4.7-0.9
		c1.4-0.6,2.6-1.4,3.6-2.4c1-1,1.8-2.3,2.4-3.6c0.6-1.4,0.9-2.9,0.9-4.5V251c0-1.6-0.3-3-0.9-4.3c-0.6-1.3-1.4-2.5-2.4-3.4
		c-1-1-2.3-1.7-3.7-2.2c-1.4-0.5-3-0.8-4.7-0.8c-2,0-3.8,0.3-5.3,0.8c-1.6,0.6-3,1.2-4.3,2l-2.4-1.7l1.2-22h24v3.2h-21.2l-1,17
		c1.4-0.7,2.8-1.3,4.3-1.8c1.5-0.5,3.2-0.7,5.2-0.7c2.1,0,4,0.3,5.8,1c1.8,0.7,3.3,1.6,4.6,2.8c1.3,1.2,2.4,2.6,3.1,4.3
		c0.8,1.7,1.1,3.6,1.1,5.6v0.1c0,2.2-0.4,4.1-1.1,5.9c-0.8,1.8-1.8,3.3-3.1,4.6c-1.3,1.3-2.9,2.3-4.7,3
		C487.2,265.2,485.2,265.6,483,265.6z M506,259.3h4v5.5h-4V259.3z M533.4,265.6c-3.5,0-6.6-0.8-9.2-2.3c-2.6-1.5-4.8-3.5-6.5-5.9
		l2.4-2.1c1.7,2.3,3.7,4.1,5.8,5.4c2.2,1.3,4.7,1.9,7.5,1.9c1.4,0,2.8-0.2,4.1-0.7c1.3-0.5,2.4-1.2,3.4-2c1-0.9,1.7-1.9,2.3-3.2
		c0.6-1.2,0.9-2.6,0.9-4.1v-0.1c0-1.6-0.3-3-1-4.2c-0.7-1.2-1.6-2.2-2.8-3.1c-1.2-0.8-2.6-1.5-4.2-1.9c-1.6-0.4-3.4-0.6-5.3-0.6
		h-2.3l-0.8-1.9l14.7-18.1h-22.4v-3.2h26.8v2.4l-14.5,17.7c2,0.1,4,0.5,5.8,1.1c1.8,0.6,3.4,1.4,4.8,2.4c1.4,1,2.5,2.3,3.3,3.9
		c0.8,1.6,1.2,3.4,1.2,5.4v0.1c0,2-0.4,3.8-1.1,5.4c-0.8,1.6-1.8,3-3.1,4.2c-1.3,1.2-2.8,2.1-4.5,2.7
		C537,265.3,535.3,265.6,533.4,265.6z M562,222.5l-8.3,3l-0.9-2.7l9.8-3.8h2.5v45.8H562V222.5z"/>
	<polyline class="st2" points="0,45 120,172 0,297 	"/>
	<path class="st3" d="M16.2,174.3c0-16.3,7.9-24.1,17.5-24.1s17.5,7.8,17.5,24.1c0,16.3-7.8,24.5-17.5,24.5S16.2,190.7,16.2,174.3z
		 M45.2,174.3c0-12.3-4-18.8-11.5-18.8c-7.3,0-11.5,6.6-11.5,18.8c0,12.3,4.2,19.2,11.5,19.2C41.2,193.5,45.2,186.7,45.2,174.3z
		 M58.2,195.2c0-10.4,6.7-15.1,13.8-19.3c8.6-5,10.2-7.7,10.2-12.5c0-3.8-1.7-7.9-8.4-7.9c-6.3,0-9.2,4.4-9.4,10.4h-5.5
		c0.1-8.8,5.3-15.7,14.8-15.7c9,0,14.4,5.7,14.4,13.2c0,8.6-5.3,12.2-13.8,17.2c-6.5,3.9-10.2,6.8-10.5,11.9h23.9v5.4H58.2V195.2z"
		/>
	<rect x="0" y="0" class="st4" width="720" height="392.5"/>
</g>
<g>
</g>
<g>
</g>
<g>
</g>
<g>
</g>
<g>
</g>
<g>
</g>
<g>
</g>
<g>
</g>
<g>
</g>
<g>
</g>
<g>
</g>
<g>
</g>
<g>
</g>
<g>
</g>
<g>
</g>
</svg>
