<?xml version="1.0" encoding="utf-8"?>
<!-- Generator: Adobe Illustrator 17.0.0, SVG Export Plug-In . SVG Version: 6.00 Build 0)  -->
<!DOCTYPE svg PUBLIC "-//W3C//DTD SVG 1.1//EN" "http://www.w3.org/Graphics/SVG/1.1/DTD/svg11.dtd">
<svg version="1.1" id="Layer_1" xmlns="http://www.w3.org/2000/svg" xmlns:xlink="http://www.w3.org/1999/xlink" x="0px" y="0px"
	 width="720px" height="1036.5px" viewBox="0 0 720 1036.5" style="enable-background:new 0 0 720 1036.5;" xml:space="preserve">
<style type="text/css">
	.st0{fill-rule:evenodd;clip-rule:evenodd;fill:#EFA23D;}
	.st1{fill:#FFFFFF;}
	.st2{fill:none;}
	.st3{fill-rule:evenodd;clip-rule:evenodd;fill:#FFFFFF;}
</style>
<g id="page-08.svg_1_">
	<g>
		<rect x="88" y="173.3" class="st0" width="544" height="690"/>
		<path class="st1" d="M448,216.1c-1.7,0-3-1.3-3-3v-0.1c0-1.7,1.3-3,3-3c1.7,0,3,1.3,3,3v0.1C451,214.7,449.7,216.1,448,216.1z
			 M448,203.9c-1.7,0-3-1.3-3-3v-0.1c0-1.7,1.3-3,3-3c1.7,0,3,1.3,3,3v0.1C451,202.6,449.7,203.9,448,203.9z M448,191.8
			c-1.7,0-3-1.3-3-3v-0.1c0-1.7,1.3-3,3-3c1.7,0,3,1.3,3,3v0.1C451,190.5,449.7,191.8,448,191.8z M448,179.7c-1.7,0-3-1.3-3-3v-0.1
			c0-1.7,1.3-3,3-3c1.7,0,3,1.3,3,3v0.1C451,178.4,449.7,179.7,448,179.7z M448,167.6c-1.7,0-3-1.3-3-3v-0.1c0-1.7,1.3-3,3-3
			c1.7,0,3,1.3,3,3v0.1C451,166.3,449.7,167.6,448,167.6z M448,155.5c-1.7,0-3-1.3-3-3v-0.1c0-1.7,1.3-3,3-3c1.7,0,3,1.3,3,3v0.1
			C451,154.2,449.7,155.5,448,155.5z M447.9,143.7c-1.6,0-2.9-1.2-3-2.8l0-0.1c-0.1-1.7,1.2-3.1,2.8-3.2c0.1,0,0.1,0,0.2,0
			c1.6,0,2.9,1.2,3,2.8c0,0,0,0.1,0,0.1c0,0,0,0,0,0c0.1,1.6-1.2,3-2.8,3.1C448,143.7,447.9,143.7,447.9,143.7z M446.5,132.1
			c-1.4,0-2.7-1-2.9-2.4l0-0.1c-0.3-1.6,0.8-3.2,2.4-3.5c0.2,0,0.4-0.1,0.6-0.1c1.4,0,2.7,1,2.9,2.4c0,0,0,0,0,0.1c0,0,0,0,0,0.1
			c0.3,1.6-0.8,3.2-2.4,3.5C446.9,132.1,446.7,132.1,446.5,132.1z M443.5,120.8c-1.3,0-2.4-0.8-2.8-2l0-0.1
			c-0.5-1.6,0.3-3.3,1.9-3.8c0.3-0.1,0.6-0.2,1-0.2c1.3,0,2.4,0.8,2.8,2c0,0,0,0,0,0c0,0,0,0,0,0c0,0,0,0,0,0
			c0.5,1.6-0.3,3.3-1.9,3.8C444.2,120.7,443.9,120.8,443.5,120.8z M439.1,110c-1.1,0-2.2-0.6-2.7-1.7l0-0.1c-0.7-1.5-0.1-3.3,1.3-4
			c0.4-0.2,0.9-0.3,1.3-0.3c1.1,0,2.1,0.6,2.7,1.6c0,0,0,0.1,0,0.1c0,0,0,0,0,0c0.7,1.5,0.1,3.3-1.3,4
			C440,109.9,439.5,110,439.1,110z M433.2,99.9c-1,0-1.9-0.5-2.5-1.3l-0.1-0.1c-0.9-1.4-0.6-3.2,0.8-4.2c0.5-0.4,1.1-0.5,1.7-0.5
			c1,0,1.9,0.5,2.5,1.3c0,0,0,0.1,0.1,0.1c0.9,1.4,0.6,3.2-0.8,4.2C434.3,99.7,433.7,99.9,433.2,99.9z M425.9,90.7
			c-0.8,0-1.6-0.3-2.2-1l-0.1-0.1c-1.1-1.2-1-3.1,0.2-4.2c0.6-0.5,1.3-0.8,2-0.8c0.8,0,1.6,0.3,2.2,1c0,0,0,0,0.1,0.1l0,0
			c0,0,0,0,0,0c1.1,1.2,1,3.1-0.2,4.2C427.4,90.4,426.7,90.7,425.9,90.7z M417.5,82.5c-0.7,0-1.4-0.2-1.9-0.7l-0.1-0.1
			c-1.3-1.1-1.4-3-0.4-4.2c0.6-0.7,1.4-1.1,2.3-1.1c0.7,0,1.4,0.2,1.9,0.7c0,0,0,0,0,0c0,0,0,0,0,0c1.3,1.1,1.4,3,0.3,4.2
			C419.2,82.2,418.4,82.5,417.5,82.5z M408.1,75.6c-0.6,0-1.1-0.2-1.6-0.5l-0.1-0.1c-1.4-0.9-1.8-2.7-0.9-4.1
			c0.6-0.9,1.5-1.4,2.5-1.4c0.6,0,1.1,0.2,1.6,0.5c0,0,0,0,0.1,0c0,0,0,0,0,0c1.4,0.9,1.8,2.7,0.9,4.1
			C410.1,75.1,409.1,75.6,408.1,75.6z M397.8,70c-0.4,0-0.8-0.1-1.2-0.3l-0.1,0c-1.5-0.7-2.2-2.5-1.5-4c0.5-1.1,1.6-1.8,2.7-1.8
			c0.4,0,0.8,0.1,1.2,0.3c0,0,0.1,0,0.1,0.1c1.5,0.7,2.2,2.5,1.5,4C400.1,69.4,399,70,397.8,70z M386.9,65.9c-0.3,0-0.6,0-0.9-0.1
			l-0.1,0c-1.6-0.5-2.5-2.2-2-3.7c0.4-1.3,1.6-2.1,2.9-2.1c0.3,0,0.6,0,0.8,0.1c0,0,0,0,0,0c0,0,0,0,0.1,0c0,0,0,0,0,0
			c1.6,0.5,2.5,2.2,2,3.7C389.4,65,388.2,65.9,386.9,65.9z M375.5,63.3c-0.2,0-0.3,0-0.5,0l-0.1,0c-1.6-0.3-2.8-1.8-2.5-3.4
			c0.2-1.5,1.5-2.5,3-2.5c0.1,0,0.3,0,0.4,0c0.1,0,0.1,0,0.2,0c1.6,0.3,2.7,1.8,2.5,3.4C378.3,62.2,377,63.3,375.5,63.3z
			 M363.9,62.2C363.9,62.2,363.8,62.2,363.9,62.2l-0.2,0c-1.7,0-3-1.4-2.9-3.1c0-1.6,1.4-2.9,3-2.9c0,0,0,0,0.1,0c0,0,0.1,0,0.1,0h0
			c1.7,0,3,1.4,2.9,3.1C366.8,60.9,365.5,62.2,363.9,62.2z M352.1,62.8c-1.5,0-2.8-1.1-3-2.7c-0.2-1.6,1-3.1,2.6-3.3c0,0,0,0,0,0
			c0,0,0.1,0,0.1,0c0.1,0,0.2,0,0.3,0c1.5,0,2.8,1.1,3,2.7c0.2,1.6-1,3.1-2.6,3.3l-0.1,0C352.3,62.8,352.2,62.8,352.1,62.8z
			 M340.6,64.9c-1.3,0-2.6-0.9-2.9-2.3c-0.4-1.6,0.6-3.2,2.2-3.6c0,0,0,0,0,0c0,0,0,0,0,0c0,0,0,0,0.1,0c0.2-0.1,0.5-0.1,0.7-0.1
			c1.3,0,2.6,0.9,2.9,2.3c0.4,1.6-0.6,3.2-2.2,3.6l-0.1,0C341.1,64.9,340.8,64.9,340.6,64.9z M329.5,68.6c-1.2,0-2.3-0.7-2.8-1.9
			c-0.6-1.5,0.1-3.3,1.6-3.9c0,0,0,0,0,0c0,0,0,0,0.1,0c0,0,0,0,0,0c0.4-0.2,0.8-0.2,1.1-0.2c1.2,0,2.3,0.7,2.8,1.9
			c0.6,1.5-0.1,3.3-1.6,3.9l-0.1,0C330.2,68.5,329.9,68.6,329.5,68.6z M319,73.7c-1,0-2-0.5-2.6-1.5c-0.8-1.4-0.3-3.3,1.1-4.1
			c0,0,0,0,0,0c0,0,0,0,0.1,0c0,0,0,0,0,0c0.5-0.3,1-0.4,1.5-0.4c1,0,2,0.5,2.6,1.5c0.8,1.4,0.3,3.3-1.1,4.1l-0.1,0.1
			C320,73.6,319.5,73.7,319,73.7z M309.3,80.2c-0.9,0-1.8-0.4-2.4-1.2c-1-1.3-0.8-3.2,0.5-4.2c0,0,0.1-0.1,0.1-0.1
			c0.5-0.4,1.2-0.6,1.8-0.6c0.9,0,1.8,0.4,2.4,1.2c1,1.3,0.8,3.2-0.5,4.2l-0.1,0.1C310.6,80,309.9,80.2,309.3,80.2z M300.5,88
			c-0.8,0-1.5-0.3-2.1-0.9c-1.2-1.2-1.2-3.1,0-4.2c0,0,0,0,0,0c0,0,0,0,0,0c0,0,0,0,0,0c0.6-0.6,1.4-0.9,2.1-0.9
			c0.8,0,1.5,0.3,2.1,0.9c1.2,1.2,1.2,3.1,0,4.2l-0.1,0.1C302.1,87.7,301.3,88,300.5,88z M292.9,96.9c-0.6,0-1.3-0.2-1.8-0.6
			c-1.3-1-1.6-2.9-0.6-4.2c0,0,0.1-0.1,0.1-0.1c0.6-0.8,1.5-1.2,2.4-1.2c0.6,0,1.3,0.2,1.8,0.6c1.3,1,1.6,2.9,0.6,4.2l-0.1,0.1
			C294.8,96.5,293.9,96.9,292.9,96.9z M286.6,106.7c-0.5,0-1-0.1-1.4-0.4c-1.5-0.8-2-2.6-1.2-4.1c0,0,0,0,0,0c0,0,0,0,0-0.1
			c0,0,0,0,0,0c0.5-1,1.6-1.5,2.6-1.5c0.5,0,1,0.1,1.4,0.4c1.4,0.8,2,2.6,1.2,4.1l0,0.1C288.7,106.2,287.7,106.7,286.6,106.7z
			 M281.7,117.3c-0.4,0-0.7-0.1-1.1-0.2c-1.5-0.6-2.3-2.3-1.7-3.9c0,0,0,0,0,0c0,0,0,0,0,0c0,0,0,0,0,0c0.5-1.2,1.6-1.9,2.8-1.9
			c0.4,0,0.7,0.1,1.1,0.2c1.5,0.6,2.3,2.3,1.7,3.9l0,0.1C284,116.6,282.9,117.3,281.7,117.3z M278.2,128.5c-0.2,0-0.5,0-0.7-0.1
			c-1.6-0.4-2.6-2-2.2-3.6c0,0,0-0.1,0-0.1c0.3-1.4,1.6-2.3,2.9-2.3c0.2,0,0.5,0,0.7,0.1c1.6,0.4,2.6,2,2.2,3.6l0,0.1
			C280.8,127.6,279.6,128.5,278.2,128.5z M276.4,140c-0.1,0-0.2,0-0.3,0c-1.6-0.2-2.9-1.6-2.7-3.3c0,0,0,0,0,0c0,0,0-0.1,0-0.1
			c0.1-1.6,1.5-2.7,3-2.7c0.1,0,0.2,0,0.3,0c1.7,0.2,2.9,1.6,2.7,3.3l0,0.1C279.2,138.9,277.9,140,276.4,140z M276.1,151.7
			c-1.6,0-2.9-1.3-3-2.9c0,0,0,0,0,0c0,0,0-0.1,0-0.1c-0.1-1.7,1.2-3.1,2.9-3.1c0,0,0.1,0,0.1,0c1.6,0,2.9,1.3,3,2.9l0,0.1
			c0.1,1.7-1.2,3.1-2.9,3.1C276.1,151.7,276.1,151.7,276.1,151.7z M276,163.8c-1.7,0-3-1.3-3-3v-0.1c0-1.7,1.3-3,3-3
			c1.7,0,3,1.3,3,3v0.1C279,162.5,277.7,163.8,276,163.8z M276,176c-1.7,0-3-1.3-3-3v-0.1c0-1.7,1.3-3,3-3c1.7,0,3,1.3,3,3v0.1
			C279,174.6,277.7,176,276,176z M276,188.1c-1.7,0-3-1.3-3-3V185c0-1.7,1.3-3,3-3c1.7,0,3,1.3,3,3v0.1
			C279,186.7,277.7,188.1,276,188.1z M276,200.2c-1.7,0-3-1.3-3-3v-0.1c0-1.7,1.3-3,3-3c1.7,0,3,1.3,3,3v0.1
			C279,198.8,277.7,200.2,276,200.2z M276,212.3c-1.7,0-3-1.3-3-3v-0.1c0-1.7,1.3-3,3-3c1.7,0,3,1.3,3,3v0.1
			C279,210.9,277.7,212.3,276,212.3z"/>
	</g>
	<rect x="0" y="0" class="st2" width="720" height="1036.5"/>
	<g id="形状_2_4_">
		<g>
			<rect x="190" y="253.6" class="st3" width="339.9" height="2.3"/>
		</g>
	</g>
	<g id="形状_2_副本_4_">
		<g>
			<rect x="190" y="747.6" class="st3" width="339.9" height="2.3"/>
		</g>
	</g>
	<g>
		<path class="st1" d="M474,690.8v-7.5h11.5v24.2c2.2,3,6.1,4.5,11.7,4.5c12.7,0,22.6-0.1,29.8-0.2l-2.7,6.9l-17.5,0.1l-11.7-0.2
			c-2.5-0.1-4.9-0.5-7.1-1.4c-2.2-0.9-4-2.1-5.5-3.8l-5.8,6.7l-3.1-8.3c1.5-1.3,3.2-2.8,5.1-4.4v-16.5H474z M474.9,667.3l5.8-4.1
			c3.1,4,5.6,7.4,7.5,10.5c-2.6,1.8-4.7,3.3-6.3,4.5C479.4,674.1,477.1,670.5,474.9,667.3z M516,682v-3.5h-6.5v3.5H516z M516,670.5
			h-6.5v3.5h6.5V670.5z M503.2,678.4h-6.5v3.5h6.5V678.4z M503.2,670.5h-6.5v3.5h6.5V670.5z M518.3,710.7c-2,0-4.7,0-7.9,0
			c-0.2-1-0.6-2.5-1.3-4.6c3.1,0.1,5.1,0.2,6.1,0.2c1.6,0,2.5-0.9,2.5-2.6v-7.5h-8.1v3.5c0.7-0.1,1.4-0.1,2-0.2l-0.5-1.2l3.5-1.5
			c1,2.5,1.9,5,2.9,7.3l-3.6,1.5l-0.5-1.5l-16,2.1l-0.6-5.3l6.4-0.6v-4.1h-7.7V710h-6.8v-19.3h14.4v-3.4h-12.8v-22.1h31.9v22.1
			h-12.8v3.4h14.9v13c0,2.3-0.5,4.1-1.6,5.2C521.8,710.1,520.3,710.7,518.3,710.7z M436.3,690.1c2.5,1.8,5.3,3.9,8.3,6.4l-4.6,5.7
			c-2.3-2.2-4.3-4.1-5.9-5.6v23h-7.2v-20.7c-2.6,2.8-5.4,5.7-8.6,8.6c-0.8-3.6-1.6-6.7-2.4-9.4c7.2-6.3,12.3-12.1,15.2-17.4h-13
			v-7.6h10.5c-1.3-2.4-2.7-4.6-4-6.6l6.2-3.4c1.2,1.6,2.8,4.1,4.9,7.3l-4.7,2.7h9.1v7c-1.5,3.2-3.5,6.5-5.9,9.8v3.1L436.3,690.1z
			 M467.2,713.2c-1,3.4-3.8,5.1-8.4,5.1h-5.5c-4.9,0-7.3-2.6-7.3-7.9v-46.3h7.4v44.3c0,2,0.9,3,2.6,3h1.4c1.9,0,3-0.8,3.4-2.4
			c0.6-3.7,1.1-7.3,1.4-10.9c2.1,1,4.6,2.1,7.5,3.1C469,706.1,468.2,710.1,467.2,713.2z M375.7,712.1c2.2,0.2,4.1,0.4,5.5,0.4
			c3.2,0,4.8-1.7,4.8-5.1c0-0.7-0.1-1.4-0.2-2.3C382.8,707.6,379.4,709.9,375.7,712.1z M363.4,696.3c-1.1-2.1-2.3-4-3.5-5.8
			c7.3-1.4,13.4-3.4,18.5-6h-8.9v-6.3h31.1v6.3h-11.7c-1.1,0.8-2.3,1.6-3.5,2.4c1.5,2,2.8,3.9,3.9,5.9c6-3,10.9-5.8,14.9-8.3
			l4.2,6.4l-8.5,4.2c2.4,6.6,6.4,11.6,11.8,14.9c-2.2,2.2-4.2,4.3-6,6.2c-4.6-3.8-8.4-9.9-11.4-18.4l-2.3,1.1
			c0.9,2.9,1.4,5.8,1.4,8.7c0,2.5-0.2,4.4-0.7,6c-0.5,1.5-1.2,2.8-2.3,3.7c-1.1,1-2.3,1.6-3.7,1.8c-1.4,0.2-4.8,0.4-10.1,0.4
			c-0.5-2.6-1.1-5-1.7-7.1c-3.7,2-7.8,3.8-12.2,5.4c-1.2-2.3-2.6-4.6-4.2-6.8c10.5-2.7,19.1-6.9,25.7-12.4c-0.3-0.7-0.6-1.5-1-2.2
			c-5.8,4.4-12.5,7.6-20,9.9l-3.6-5.9c8.4-1.9,15.5-4.6,21-8.2c-0.4-0.6-0.8-1.2-1.3-1.8C374.6,692.8,369.3,694.8,363.4,696.3z
			 M402.7,674.8h-35.2v7.8h-7.4v-14.4h20.8c-0.5-1.6-1.1-2.9-1.6-3.9l9.2-1.3c0.5,1.5,1,3.3,1.5,5.2h20v14.4h-7.4V674.8z
			 M318.4,700.6c0,6.2-0.3,10.3-1,12.4c-0.7,2.1-1.9,3.6-3.7,4.4c-1.8,0.8-5.1,1.1-10,0.9c-0.1-1.7-0.5-4.2-1.1-7.5
			c2.4,0.4,4.2,0.5,5.2,0.5c1,0,1.7-0.2,2.3-0.7c0.6-0.5,1-1.1,1.1-1.9c0.2-0.8,0.3-2.5,0.3-5c0-2.3-0.1-4.5-0.2-6.6
			c-2.1,2.9-4.5,5.6-7.4,8.2c-0.6-1.4-1.7-3.7-3.3-6.7c3.6-3,6.8-6.5,9.5-10.6c-0.3-1.6-0.7-3.1-1.2-4.6c-1.4,1.2-2.8,2.4-4.3,3.6
			c-1.6-2.6-2.9-4.7-4.1-6.2c1.9-1.4,3.7-3,5.5-4.7c-1.4-2.9-3-5.5-4.9-7.9l4.9-4.2c2,2.1,3.8,4.4,5.3,6.9c1.8-1.9,3.5-3.9,5.2-6.1
			l5.1,4.9c-2.1,2.8-4.5,5.5-7,8.1C317.2,684.3,318.4,691.9,318.4,700.6z M344.2,691.2v-10.6h-4.9v10.6H344.2z M332.1,680.7H327
			v10.6h5.1V680.7z M339.3,708.4l5-0.5c-0.6-1.9-1.2-3.6-1.8-5.3l6.1-1.9c2,5,3.9,10.6,5.7,16.8l-6.4,2c-0.5-1.8-1-3.5-1.6-5.2
			l-26.6,3.1l-1-7.4l13.3-1.1v-10.5H327v1.8h-6.6v-27h11.7v-9.8h7.2v9.8H351v25.1h-11.7V708.4z M259.6,691.5h-10v14.8h10V691.5z
			 M259.6,673h-10v14.4h10V673z M259.6,710.5h-10v5.4h-4.2v-47.2h18.5v46.5h-4.2V710.5z M288.9,680.2v30.7c0,5.1-2.3,7.7-6.9,7.7
			c-2.1,0-5.1-0.1-9.1-0.2c-0.2-1.4-0.5-3-0.9-4.8c3.8,0.3,6.7,0.5,8.8,0.5c2.5,0,3.8-1.4,3.8-4.1v-29.8h-19v-4.2h19v-12.6h4.3v12.6
			h7.6v4.2H288.9z M273.8,701.2c-1.4-3.6-3.4-8.1-6-13.5l3.8-2.1c2.9,5.6,5,10,6.5,13.3C277.1,699.4,275.7,700.2,273.8,701.2z
			 M199.2,709.5c-1.6,0.3-3.4,0.4-5.4,0.1c-0.3-1.6-0.7-3.2-1.2-4.8c1.9,0.5,3.5,0.6,4.9,0.5c2.4-0.5,3.2-3.2,2.5-8.2
			c-0.5-3-2.1-6.5-4.9-10.3c1.3-4.1,3-9.7,5-16.6h-7.9v49.9h-4v-53.9h16.2v4c-1.8,5.4-3.4,10.7-5,15.9c2.9,4.2,4.5,7.9,4.9,11.2
			C205.3,704.6,203.6,708.6,199.2,709.5z M229.1,689.4v-7.7h-17.5v7.7H229.1z M229.1,670.3h-17.5v7.6h17.5V670.3z M238.9,713.7
			c-1.3,1.4-2.5,2.8-3.4,4.2c-9.9-5.6-16.3-13.7-19.2-24.6h-4.6v19.4c2.4-1.1,5.5-2.8,9.4-5c0,1.8,0.1,3.3,0.3,4.5
			c-3.2,1.6-6.3,3.4-9.3,5.3c-0.7,0.4-1.7,1.2-2.9,2.4l-3.1-4.3c1.1-1,1.6-2.2,1.6-3.8v-45.5h25.4v28.4h-4v-1.5h-9.1
			c1.1,3.4,2.6,6.5,4.6,9.3c3.2-2.2,6.6-4.9,10.2-8.1l2.8,3.6c-3.9,2.9-7.4,5.4-10.5,7.5C230.2,709,234.2,711.7,238.9,713.7z"/>
		<path class="st1" d="M528,607.5h-31.8c-2,4-4.2,7.9-6.6,11.7h12.7v-8.8h4.3v8.8h16.6V639c0,4.5-1.8,6.7-5.4,6.7
			c-0.9,0-3.6,0-8-0.1c-0.2-1.3-0.5-2.8-0.9-4.6c3.6,0.2,5.7,0.3,6.4,0.3c2.4,0.1,3.6-1.1,3.6-3.5v-14.5h-12.3v28.2h-4.3v-28.2
			h-12.1v23.8h-4.2v-22.5c-2.4,3.4-5,6.7-7.7,9.9c-0.9-1.4-1.9-2.6-3.1-3.8c6.6-7.3,11.9-15,16.1-23.2h-15.2v-4.1h17.1
			c1.2-2.7,2.4-5.5,3.4-8.4l4.2,1.8c-0.9,2.2-1.8,4.4-2.8,6.6H528V607.5z M451.2,599.1l2.4-3.2c3.5,2.4,6.9,4.8,10.1,7.4l-2.9,3.7
			C457.6,604.2,454.5,601.6,451.2,599.1z M449.7,637.3c4.6-4.1,7.9-8.6,9.8-13.6h-19.4C441.7,628.9,444.9,633.4,449.7,637.3z
			 M437.6,619.7h26.6v3.9c-2.4,6.2-6,11.6-11,16.1c5,3.2,10.9,5.5,17.5,6.8c-1.6,1.9-2.9,3.5-3.8,4.8c-5.7-2-11.5-5-17.3-8.9
			c-4.6,3.3-11.3,6.3-19.9,9.3c-1-1.5-2.1-2.9-3.2-4.2c8.8-2.4,15.4-5,19.7-7.7c-4.7-4.3-8-9.7-10-16.2c-3.9,10.4-9.2,19-16,25.7
			c-1-1.4-1.9-2.7-2.8-3.9c8.1-7.7,14-18.8,17.8-33h-14.9v-4.3c1.5-3.6,2.8-7.3,4-10.9l4.3,1.3c-1.3,3.4-2.5,6.6-3.8,9.7h11.3
			c0.9-4,1.6-8.3,2.2-13l4.6,0.6c-0.6,4.3-1.3,8.5-2.2,12.4h29.6v4.2h-30.6C439.1,615,438.4,617.4,437.6,619.7z M395.2,641.9
			c-0.2,2.9,1,4.3,3.7,4h5.5c2.5,0,3.8-1,4.1-3c0.2-1.9,0.4-4.7,0.6-8.3c1.4,0.6,2.9,1.2,4.5,1.7c-0.2,2.8-0.5,5.7-1,8.7
			c-0.4,1.9-1.1,3.2-2.4,4c-1.1,0.7-3,1.1-5.8,1.1H398c-5,0.2-7.4-2.3-7.2-7.5v-16.9h-10.5c-0.3,6.6-1.5,11.7-3.7,15.2
			c-2.6,4.4-7.4,8-14.4,10.7c-0.7-1.2-1.6-2.6-2.7-4.1c6.4-2.3,10.7-5.3,13.1-9c2-2.8,3.1-7.1,3.4-12.8h-15v-4.2h23.4v-12.2h-12.8
			c-1.8,3.8-3.6,7-5.7,9.8c-1.3-1.1-2.5-2-3.5-2.6c4-5.5,7.1-12.1,9.3-19.8l4.2,1.3c-0.8,2.5-1.7,4.9-2.5,7.1h11v-9.7h4.4v9.7h19.9
			v4.2h-19.9v12.2h23.6v4.2h-17.3V641.9z M347.8,630.2c-0.6,4.8-3.1,7.3-7.6,7.3c-3.1,0-5.6,0-7.4-0.1c-0.2-1.3-0.5-2.9-0.9-4.8
			c2.8,0.3,5.4,0.4,7.7,0.4c2.4,0,3.8-1.2,4.1-3.7c0.3-2.6,0.5-5.3,0.6-8.3h-15.6v19.6c0,3.4,1.7,5,5,5h10.8c3,0,4.6-1.3,5-3.9
			c0.4-2.4,0.8-4.9,1-7.5c1.5,0.6,2.9,1.1,4.2,1.5c-0.5,3-1,5.7-1.5,8.1c-0.9,4.1-3.5,6.2-7.9,6.2h-12.7c-5.5,0-8.2-2.8-8.2-8.4
			v-24.7h24.4C348.4,622.3,348.1,626.7,347.8,630.2z M314.1,623.2c1.9-0.5,4.1-1,6.5-1.7c0,0.7-0.1,2.2-0.1,4.6
			c-0.5,0.2-2.7,0.7-6.5,1.8v16.4c0,4.2-1.8,6.3-5.5,6.5c-1.2,0-2.9,0.1-4.9,0.1c-0.1-1.4-0.4-3-0.7-4.7c1.8,0.2,3.3,0.2,4.3,0.2
			c1.7,0,2.6-0.9,2.6-2.8v-14.6c-2.1,0.5-4.5,1.2-7.3,1.9l-0.4-4.7c0.6-0.1,3.1-0.7,7.7-1.9v-13.8h-7v-3.8h7v-10.9h4.1v10.9h6.5v3.8
			h-6.5V623.2z M355.7,614.7c-1.2,1.5-2.2,2.9-2.9,4c-6.5-4.5-11.7-10.2-15.6-17.1c-3.5,6.4-8.8,12.3-15.9,17.6
			c-0.7-1-1.6-2.2-2.8-3.6c7.6-5.3,13.3-11.9,17-19.9h4.5c-0.2,0.5-0.4,1-0.6,1.5C343.5,605.1,349,610.9,355.7,614.7z M276.6,627.9
			H266v5.7h10.6V627.9z M283.3,640H266v2.9h-6.8v-21.5h24.1V640z M248.6,601.9l4.7-5.4c3.2,2.2,6.5,4.8,10,7.7l-4.7,5.5
			C255,606.8,251.6,604.2,248.6,601.9z M278.8,604.2c4.3-3.2,7.6-5.8,10-7.8l5.3,5.7c-3.9,2.6-7.6,5.1-11,7.5L278.8,604.2z
			 M293.2,648.2c-1,1.2-2.3,2-3.9,2.3c-1.6,0.3-4.8,0.5-9.4,0.5c-0.6-2.7-1.3-5.5-2.1-8.3c3.2,0.2,5.3,0.3,6.1,0.3
			c2.2,0,3.3-1.2,3.3-3.5v-22.2h-31.8v34.3h-7.5V610h19.5v-15h7.9v15h19.4v33.1C294.7,645.3,294.2,647,293.2,648.2z M199.3,613.2
			l5.7-4.3c2.7,3.8,5.3,7.3,7.7,10.8c2.3-3.9,4.4-7.8,6.1-11.8l6.4,3.8c-2.3,5-4.9,9.9-7.9,14.6c3.3,4.8,6.2,9.3,8.7,13.5l-6.1,5.1
			c-2.3-3.9-4.7-7.9-7.2-11.8c-2.9,4-6,7.9-9.5,11.7c-1.8-2.2-3.6-4.2-5.3-6c3.9-4,7.3-8.2,10.4-12.4
			C205.4,621.9,202.4,617.5,199.3,613.2z M238.6,648.5c-1.1,2-2.7,3-4.7,3c-2.8,0-4.9-1.6-6.4-4.8c-1.4-3.2-2.1-11.6-2.1-25.3v-15.8
			h-26.3v14.6c0,7.3-0.5,13.3-1.4,18c-1,4.7-2.9,9.4-5.7,14.1c-1.7-2.2-3.5-4.4-5.5-6.7c2.2-3.5,3.7-7.2,4.4-11
			c0.7-3.8,1-9.7,1-17.8v-19.1h40.8v24.4c0,8.3,0.1,13.8,0.2,16.4c0.1,2.7,0.6,4,1.4,4.1c0.3,0,0.5-0.1,0.7-0.3
			c0.2-0.2,0.4-1.2,0.6-2.8c0.2-1.6,0.5-4.2,0.7-7.7c1.7,0.9,3.3,1.7,4.7,2.3C240.5,641.8,239.6,646.5,238.6,648.5z"/>
		<path class="st1" d="M518.8,360.9c-2.1-1.7-5-2.5-8.7-2.5c-4.4,0-7.6,0.7-9.5,2.2c-1.9,1.5-2.8,3.2-2.8,5.2c0,1.3,0.4,2.4,1.2,3.4
			c0.8,1,2,1.9,3.7,2.6c1,0.4,3.8,1.2,8.5,2.5c6.8,1.8,11.6,3.4,14.3,4.5c2.7,1.2,4.8,2.9,6.4,5.1c1.5,2.2,2.3,5,2.3,8.4
			c0,3.3-0.9,6.3-2.8,9.2c-1.9,2.9-4.6,5.1-8.1,6.7c-3.5,1.6-7.6,2.4-12,2.4c-7.4,0-13.1-1.6-16.9-4.7c-3.9-3.1-6.4-7.7-7.4-13.8
			l9.6-1.5c0.5,3.9,2,6.8,4.5,8.9c2.5,2.1,5.9,3.1,10.3,3.1c4.4,0,7.7-0.9,9.9-2.7c2.1-1.8,3.2-4,3.2-6.4c0-2.2-0.9-3.9-2.8-5.2
			c-1.3-0.9-4.6-2-9.9-3.3c-7.1-1.8-12-3.4-14.7-4.7c-2.7-1.3-4.8-3.1-6.2-5.5c-1.4-2.3-2.1-4.9-2.1-7.7c0-2.6,0.6-4.9,1.7-7.1
			c1.2-2.2,2.7-4,4.8-5.5c1.5-1.1,3.6-2.1,6.1-2.8c2.6-0.8,5.4-1.2,8.3-1.2c4.5,0,8.4,0.6,11.8,2c3.4,1.3,5.9,3.1,7.5,5.3
			c1.6,2.2,2.7,5.2,3.3,8.9l-9.5,1.3C522.1,364.9,520.9,362.5,518.8,360.9z M460.6,366.4c-2.4-2.9-5.4-4.4-9.1-4.4
			c-3.6,0-6.6,1.4-9,4.3c-2.4,2.9-3.6,7.2-3.6,12.9c0,6.2,0.8,10.6,2.5,13.4c2.4,4,5.8,6,10.2,6c3.5,0,6.4-1.5,8.9-4.5
			c2.4-3,3.7-7.4,3.7-13.4C464.1,374.1,463,369.3,460.6,366.4z M465.2,409.3v-8.5c-2.3,3.3-5.1,5.7-8.2,7.4
			c-3.2,1.6-6.4,2.4-9.6,2.4c-6.6,0-12.2-2.7-16.8-8c-4.7-5.3-7-12.8-7-22.3c0-9.8,2.3-17.2,6.8-22.3c4.5-5.1,10.3-7.6,17.2-7.6
			c6.4,0,11.9,2.7,16.5,8v-28.7h15.1v79.6H465.2z M399.2,409.3v-29.4c0-6.2-0.3-10.2-1-12.1c-0.6-1.8-1.7-3.2-3.1-4.3
			c-1.5-1-3.2-1.5-5.2-1.5c-2.6,0-5,0.7-7,2.2c-2.1,1.4-3.5,3.4-4.3,5.8c-0.8,2.4-1.2,6.8-1.2,13.2v26.1h-15.1v-57.6h14v8.5
			c5-6.5,11.2-9.8,18.8-9.8c3.3,0,6.4,0.6,9.1,1.8c2.8,1.2,4.8,2.8,6.3,4.6c1.4,1.9,2.4,4,3,6.4c0.6,2.4,0.8,5.8,0.8,10.3v35.8
			H399.2z M335.5,381.6c-1.9,0.7-5,1.4-9.2,2.3c-4.2,0.9-6.9,1.8-8.2,2.7c-2,1.4-3,3.2-3,5.4c0,2.1,0.8,4,2.4,5.5
			c1.6,1.6,3.6,2.3,6,2.3c2.7,0,5.3-0.9,7.8-2.7c1.8-1.4,3-3.1,3.6-5c0.4-1.3,0.6-3.8,0.6-7.4V381.6z M353.6,409.3h-14.9
			c-0.4-1-0.9-2.5-1.4-4.5c-0.3-0.9-0.4-1.5-0.5-1.8c-2.6,2.5-5.3,4.4-8.3,5.7c-2.9,1.3-6.1,1.9-9.4,1.9c-5.9,0-10.5-1.6-13.9-4.8
			c-3.4-3.2-5.1-7.3-5.1-12.2c0-3.3,0.8-6.2,2.3-8.7c1.5-2.6,3.7-4.5,6.5-5.9c2.8-1.4,6.8-2.5,12-3.6c7.1-1.3,11.9-2.6,14.7-3.7
			v-1.5c0-2.9-0.7-5-2.1-6.3c-1.4-1.2-4.1-1.9-8.1-1.9c-2.7,0-4.8,0.5-6.3,1.6c-1.5,1.1-2.7,2.9-3.7,5.6l-13.7-2.5
			c1.5-5.6,4.2-9.7,7.9-12.4c3.8-2.7,9.3-4,16.8-4c6.7,0,11.7,0.8,15,2.4c3.3,1.6,5.6,3.7,7,6.1c1.3,2.5,2,7,2,13.6l-0.2,17.8
			c0,5.1,0.2,8.8,0.7,11.2C351.4,404,352.3,406.5,353.6,409.3z M295.6,366.5c-2.5-1.7-4.9-2.5-7.1-2.5c-2.1,0-3.9,0.6-5.4,1.8
			c-1.5,1.2-2.6,3.3-3.5,6.4c-0.8,3.1-1.3,9.5-1.3,19.3v17.8h-15.1v-57.6h14v8.2c2.4-3.9,4.6-6.4,6.5-7.7c1.9-1.2,4.1-1.8,6.5-1.8
			c3.4,0,6.7,1,9.9,2.9L295.6,366.5z M235.3,379.4c-1.1-1.7-2.8-2.9-5-3.6c-2.2-0.8-6.9-1.1-14.1-1.1h-12.8v21.3h14.7
			c5.7,0,9.4-0.2,10.9-0.5c2.4-0.4,4.3-1.5,5.8-3.2c1.5-1.7,2.2-3.9,2.2-6.8C237,383.1,236.4,381,235.3,379.4z M232.1,346
			c-1.3-1.5-3.3-2.5-6-2.8c-1.6-0.2-6.1-0.3-13.6-0.3h-9.1v18.4h10.4c6.2,0,10-0.1,11.5-0.3c2.7-0.3,4.9-1.3,6.4-2.9
			c1.6-1.6,2.3-3.6,2.3-6.2C234.1,349.6,233.4,347.6,232.1,346z M249.5,374.2c2.6,3.4,3.9,7.4,3.9,12c0,3.6-0.8,7.1-2.5,10.6
			c-1.7,3.4-3.9,6.2-6.8,8.2c-2.9,2-6.4,3.3-10.7,3.8c-2.7,0.3-9,0.5-19.2,0.5h-26.8v-79.6h31.5c6.2,0,10.9,0.3,13.9,0.8
			c3.1,0.5,5.8,1.6,8.2,3.3c2.4,1.7,4.4,3.9,6,6.6c1.6,2.8,2.4,5.9,2.4,9.3c0,3.7-1,7.1-3,10.3c-2,3.1-4.7,5.4-8.1,7
			C243.3,368.4,247,370.8,249.5,374.2z"/>
		<path class="st1" d="M532.2,557.3c-1-0.6-2-1-3-1c-0.9,0-1.7,0.3-2.4,0.9c-0.7,0.6-1.2,1.4-1.5,2.4c-0.5,1.6-0.7,3.3-0.7,5.1v13.6
			h-4.1v-25.9h3.7v3.9c0.9-1.8,1.8-3.1,2.6-3.6c0.8-0.6,1.7-0.9,2.7-0.9c1.4,0,2.8,0.5,4.2,1.4L532.2,557.3z M511.1,557.9
			c-1.3-1.7-3-2.5-5.1-2.5c-1.9,0-3.5,0.7-4.8,2c-1.3,1.3-2,3.2-2.1,5.4h13.6C512.4,560.6,511.9,559,511.1,557.9z M517,566.4h-18.2
			c0.2,2.8,0.9,5,2.3,6.5c1.4,1.5,3.1,2.3,5.1,2.3c1.5,0,2.8-0.4,3.9-1.3c1.1-0.8,1.9-2.2,2.5-4.1l4.3,0.6c-0.7,2.7-1.9,4.7-3.7,6.2
			c-1.8,1.5-4.1,2.2-7,2.2c-3.6,0-6.4-1.2-8.5-3.5c-2.1-2.3-3.1-5.6-3.1-9.8c0-4.4,1.1-7.7,3.2-10.2c2.1-2.4,4.8-3.6,8.2-3.6
			c3.3,0,5.9,1.2,8,3.5c2.1,2.4,3.1,5.7,3.1,10C517,565.5,517,565.9,517,566.4z M487.3,578.3V562c0-1.8-0.1-3-0.4-3.8
			c-0.3-0.8-0.8-1.4-1.5-1.9c-0.7-0.5-1.5-0.7-2.5-0.7c-1.7,0-3.1,0.6-4.3,1.8c-1.1,1.2-1.7,3.2-1.7,5.8v15.1h-4.1v-16.8
			c0-2-0.3-3.4-1-4.4c-0.7-1-1.8-1.5-3.3-1.5c-1.2,0-2.2,0.3-3.2,1c-1,0.7-1.7,1.6-2.1,2.9c-0.4,1.3-0.7,3.1-0.7,5.4v13.5h-4.1
			v-25.9h3.7v3.6c0.8-1.3,1.8-2.3,3.1-3.1c1.3-0.8,2.7-1.2,4.3-1.2c1.8,0,3.3,0.4,4.4,1.2c1.2,0.8,2,1.9,2.4,3.3
			c1.9-3,4.4-4.5,7.5-4.5c2.4,0,4.3,0.7,5.6,2.1c1.3,1.4,1.9,3.6,1.9,6.6v17.8H487.3z M449.8,578.3V562c0-1.8-0.1-3-0.4-3.8
			c-0.3-0.8-0.8-1.4-1.5-1.9c-0.7-0.5-1.5-0.7-2.5-0.7c-1.7,0-3.1,0.6-4.3,1.8c-1.1,1.2-1.7,3.2-1.7,5.8v15.1h-4.1v-16.8
			c0-2-0.3-3.4-1-4.4c-0.7-1-1.8-1.5-3.3-1.5c-1.2,0-2.2,0.3-3.2,1c-1,0.7-1.7,1.6-2.1,2.9c-0.4,1.3-0.7,3.1-0.7,5.4v13.5h-4.1
			v-25.9h3.7v3.6c0.8-1.3,1.8-2.3,3.1-3.1c1.3-0.8,2.7-1.2,4.3-1.2c1.8,0,3.3,0.4,4.4,1.2c1.2,0.8,2,1.9,2.4,3.3
			c1.9-3,4.4-4.5,7.5-4.5c2.4,0,4.3,0.7,5.6,2.1c1.3,1.4,2,3.6,2,6.6v17.8H449.8z M412.4,578.3v-3.8c-1.9,2.9-4.5,4.4-7.7,4.4
			c-1.4,0-2.8-0.3-4-0.9c-1.2-0.6-2.2-1.3-2.8-2.2c-0.6-0.9-1-2-1.3-3.3c-0.2-0.9-0.3-2.2-0.3-4.1v-16.1h4.1v14.4
			c0,2.3,0.1,3.8,0.3,4.6c0.3,1.2,0.8,2.1,1.7,2.7c0.8,0.7,1.9,1,3.1,1c1.2,0,2.4-0.3,3.5-1c1.1-0.7,1.9-1.6,2.3-2.8
			c0.5-1.2,0.7-2.9,0.7-5.1v-13.9h4.1v25.9H412.4z M384.9,547.8c-1.3-1.2-3.3-1.7-5.9-1.7c-2.7,0-4.7,0.5-5.9,1.6
			c-1.2,1.1-1.8,2.3-1.8,3.8c0,1.3,0.4,2.3,1.3,3.2c0.9,0.8,3.1,1.7,6.7,2.5c3.6,0.9,6.1,1.6,7.4,2.3c2,1,3.4,2.2,4.3,3.6
			c0.9,1.5,1.4,3.2,1.4,5.1c0,1.9-0.5,3.7-1.5,5.4c-1,1.7-2.5,3-4.4,3.9c-1.9,0.9-4.1,1.4-6.5,1.4c-3,0-5.6-0.5-7.7-1.4
			c-2.1-0.9-3.7-2.4-4.8-4.3c-1.2-1.9-1.8-4-1.8-6.4l4.2-0.4c0.2,1.8,0.7,3.3,1.4,4.4c0.7,1.1,1.9,2.1,3.4,2.8
			c1.5,0.7,3.3,1.1,5.2,1.1c1.7,0,3.2-0.3,4.5-0.8c1.3-0.5,2.3-1.3,2.9-2.2c0.6-0.9,1-2,1-3.1c0-1.1-0.3-2.1-0.9-2.9
			c-0.6-0.8-1.6-1.5-3-2.1c-0.9-0.4-2.9-1-6-1.7c-3.1-0.8-5.3-1.5-6.5-2.2c-1.6-0.9-2.8-2-3.6-3.3c-0.8-1.3-1.2-2.8-1.2-4.5
			c0-1.8,0.5-3.5,1.4-5.1c1-1.6,2.4-2.8,4.2-3.6c1.8-0.8,3.9-1.2,6.2-1.2c2.5,0,4.7,0.4,6.6,1.3c1.9,0.9,3.4,2.1,4.4,3.8
			c1,1.7,1.6,3.5,1.7,5.6l-4.3,0.3C387,550.7,386.2,548.9,384.9,547.8z M334.6,560.6c-2.2,1.4-3.7,2.7-4.5,3.9
			c-0.8,1.2-1.2,2.4-1.2,3.6c0,1.4,0.5,3,1.6,4.5c1.1,1.6,2.6,2.3,4.6,2.3c1.2,0,2.5-0.4,3.8-1.2c1.3-0.8,2.4-1.9,3.2-3.2
			L334.6,560.6z M339.9,552.5c0.5-0.8,0.8-1.8,0.8-2.8c0-1.2-0.4-2.2-1.1-3c-0.7-0.8-1.6-1.2-2.7-1.2c-1.1,0-2,0.4-2.8,1.1
			c-0.7,0.8-1.1,1.7-1.1,2.8c0,0.6,0.1,1.1,0.4,1.7c0.3,0.6,0.7,1.3,1.2,1.9l1.8,2.3C338.2,554.3,339.3,553.3,339.9,552.5z
			 M352.7,575.6l-2.8,3.5c-1.7-1.1-3.4-2.8-5.2-5.1c-1.4,1.6-2.8,2.8-4.5,3.6c-1.6,0.8-3.3,1.2-5.2,1.2c-3.4,0-6.2-1.2-8.2-3.7
			c-1.6-2-2.5-4.3-2.5-6.8c0-2.2,0.7-4.2,2-6c1.3-1.8,3.3-3.3,6-4.7c-1.5-1.9-2.5-3.4-3-4.5c-0.5-1.2-0.8-2.3-0.8-3.3
			c0-2.1,0.8-4,2.4-5.6c1.6-1.6,3.6-2.4,6-2.4c2.3,0,4.2,0.8,5.6,2.2c1.5,1.5,2.2,3.3,2.2,5.4c0,3.4-2.1,6.3-6.4,8.7l6,8.2
			c0.7-1.4,1.2-3.1,1.6-5l4.3,1c-0.7,3.1-1.7,5.7-3,7.7C349,572.3,350.8,574.1,352.7,575.6z M303.7,557.8c-1.3-1.6-2.9-2.4-4.8-2.4
			c-1.8,0-3.4,0.8-4.7,2.4c-1.3,1.6-1.9,3.9-1.9,7.1c0,3.4,0.6,5.9,1.9,7.4c1.3,1.6,2.9,2.3,4.8,2.3c1.9,0,3.5-0.8,4.8-2.3
			c1.3-1.6,1.9-4,1.9-7.3C305.7,561.8,305,559.4,303.7,557.8z M308.4,583.3c-0.8,1.7-2,3-3.7,4c-1.7,1-3.7,1.5-6.2,1.5
			c-2.9,0-5.3-0.7-7-2.1c-1.8-1.4-2.7-3.5-2.6-6.3l4,0.6c0.2,1.3,0.6,2.3,1.4,2.9c1,0.8,2.4,1.2,4.2,1.2c1.9,0,3.4-0.4,4.4-1.2
			c1-0.8,1.7-2,2.1-3.4c0.2-0.9,0.3-2.8,0.3-5.6c-1.8,2.3-4.1,3.4-6.7,3.4c-3.3,0-5.9-1.3-7.8-3.9c-1.8-2.6-2.8-5.7-2.8-9.3
			c0-2.5,0.4-4.8,1.3-6.8c0.8-2.1,2.1-3.7,3.7-4.8c1.6-1.1,3.5-1.7,5.6-1.7c2.9,0,5.2,1.2,7.1,3.7v-3.1h3.8v22.4
			C309.6,578.8,309.2,581.7,308.4,583.3z M280.8,578.3v-15.8c0-1.8-0.2-3.1-0.5-4c-0.3-0.9-0.9-1.6-1.7-2.1
			c-0.8-0.5-1.8-0.8-2.9-0.8c-1.8,0-3.3,0.6-4.6,1.8c-1.3,1.2-1.9,3.4-1.9,6.8v14.2h-4.1v-25.9h3.7v3.7c1.8-2.8,4.4-4.3,7.8-4.3
			c1.5,0,2.8,0.3,4.1,0.8c1.2,0.6,2.2,1.3,2.8,2.2c0.6,0.9,1,2,1.3,3.2c0.2,0.8,0.2,2.2,0.2,4.3v15.9H280.8z M256.4,542.5h4.1v5.1
			h-4.1V542.5z M256.4,578.3v-25.9h4.1v25.9H256.4z M254.1,557.3c-1-0.6-2-1-3-1c-0.9,0-1.7,0.3-2.4,0.9c-0.7,0.6-1.2,1.4-1.5,2.4
			c-0.5,1.6-0.7,3.3-0.7,5.1v13.6h-4.1v-25.9h3.7v3.9c0.9-1.8,1.8-3.1,2.6-3.6c0.8-0.6,1.7-0.9,2.7-0.9c1.4,0,2.8,0.5,4.2,1.4
			L254.1,557.3z M232.9,557.7c-1.3-1.6-2.8-2.5-4.6-2.5c-1.8,0-3.3,0.9-4.7,2.6c-1.4,1.8-2,4.3-2,7.6c0,3.3,0.6,5.8,1.9,7.4
			c1.3,1.6,2.8,2.4,4.6,2.4c1.8,0,3.4-0.8,4.7-2.5c1.3-1.7,2-4.2,2-7.7C234.8,561.8,234.2,559.3,232.9,557.7z M237.7,572.3
			c-0.9,2.1-2.2,3.8-3.9,4.9c-1.7,1.1-3.5,1.7-5.4,1.7c-1.4,0-2.6-0.3-3.7-0.9c-1.1-0.6-2-1.4-2.7-2.3v12.6h-4.1v-35.9h3.8v3.4
			c0.9-1.3,1.9-2.3,3-3c1.1-0.7,2.5-1,4.1-1c2.1,0,3.9,0.6,5.5,1.7c1.6,1.1,2.8,2.7,3.6,4.8c0.8,2.1,1.2,4.4,1.2,6.8
			C239,567.8,238.6,570.2,237.7,572.3z M206.4,547.8c-1.3-1.2-3.3-1.7-5.9-1.7c-2.7,0-4.7,0.5-5.9,1.6c-1.2,1.1-1.8,2.3-1.8,3.8
			c0,1.3,0.4,2.3,1.3,3.2c0.9,0.8,3.1,1.7,6.7,2.5c3.6,0.9,6.1,1.6,7.4,2.3c2,1,3.4,2.2,4.3,3.6c0.9,1.5,1.4,3.2,1.4,5.1
			c0,1.9-0.5,3.7-1.5,5.4c-1,1.7-2.5,3-4.4,3.9c-1.9,0.9-4.1,1.4-6.5,1.4c-3,0-5.6-0.5-7.7-1.4c-2.1-0.9-3.7-2.4-4.8-4.3
			c-1.2-1.9-1.8-4-1.8-6.4l4.2-0.4c0.2,1.8,0.7,3.3,1.4,4.4c0.7,1.1,1.9,2.1,3.4,2.8c1.5,0.7,3.2,1.1,5.2,1.1c1.7,0,3.2-0.3,4.5-0.8
			c1.3-0.5,2.3-1.3,2.9-2.2c0.6-0.9,1-2,1-3.1c0-1.1-0.3-2.1-0.9-2.9c-0.6-0.8-1.6-1.5-3-2.1c-0.9-0.4-2.9-1-6-1.7
			c-3.1-0.8-5.3-1.5-6.5-2.2c-1.6-0.9-2.8-2-3.6-3.3c-0.8-1.3-1.2-2.8-1.2-4.5c0-1.8,0.5-3.5,1.4-5.1c1-1.6,2.4-2.8,4.2-3.6
			c1.8-0.8,3.9-1.2,6.2-1.2c2.5,0,4.7,0.4,6.6,1.3c1.9,0.9,3.4,2.1,4.4,3.8c1,1.7,1.6,3.5,1.7,5.6l-4.3,0.3
			C208.5,550.7,207.7,548.9,206.4,547.8z"/>
		<path class="st1" d="M531.6,288.9c0-1.4-0.3-2.7-0.8-3.9c-0.5-1.2-1.2-2.3-2.1-3.1c-0.9-0.9-2-1.6-3.3-2.1
			c-1.3-0.5-2.7-0.8-4.2-0.8c-1.5,0-2.9,0.3-4.1,0.9c-1.2,0.6-2.2,1.3-3.1,2.3c-0.8,0.9-1.5,2-1.9,3.3c-0.5,1.3-0.7,2.6-0.7,3.9v0.1
			c0,1.4,0.2,2.6,0.7,3.8c0.5,1.2,1.2,2.1,2.1,3c0.9,0.8,1.9,1.5,3.1,2c1.2,0.5,2.5,0.7,4,0.7c1.6,0,3-0.3,4.2-0.9
			c1.3-0.6,2.3-1.3,3.2-2.3c0.9-0.9,1.6-2,2-3.2c0.5-1.2,0.7-2.4,0.7-3.6V288.9z M534.3,304.2c-0.8,2.6-1.8,4.8-3.1,6.7
			c-1.3,1.9-2.9,3.3-4.7,4.4c-1.8,1-3.8,1.6-5.9,1.6c-2.3,0-4.3-0.5-6.1-1.4c-1.8-0.9-3.4-2.1-4.9-3.5l1.7-2.2
			c1.6,1.5,3.1,2.6,4.6,3.3c1.5,0.7,3.1,1.1,4.8,1.1c1.8,0,3.5-0.5,5.1-1.5c1.5-1,2.8-2.4,3.9-4.2c1.1-1.8,1.9-3.9,2.5-6.4
			c0.6-2.5,0.8-5.2,0.7-8.1c-0.5,1-1.1,2-1.9,2.9c-0.7,0.9-1.5,1.7-2.5,2.4c-0.9,0.7-2,1.2-3.2,1.6c-1.2,0.4-2.5,0.6-3.9,0.6
			c-1.9,0-3.6-0.3-5.1-0.9c-1.6-0.6-2.9-1.5-4-2.5c-1.1-1.1-2-2.3-2.6-3.8c-0.6-1.4-0.9-3-0.9-4.7v-0.1c0-1.8,0.3-3.5,0.9-5.1
			c0.6-1.6,1.5-3,2.6-4.2c1.1-1.2,2.5-2.1,4.1-2.8c1.6-0.7,3.3-1,5.2-1c2,0,3.8,0.4,5.3,1.1c1.6,0.7,2.9,1.7,4,2.9
			c0.7,0.7,1.3,1.6,1.9,2.5c0.6,0.9,1.1,2,1.5,3.3c0.4,1.2,0.7,2.6,0.9,4.2c0.2,1.6,0.3,3.3,0.3,5.2v0.1
			C535.5,298.8,535.1,301.6,534.3,304.2z M497.5,316.1v-36.3l-7.1,2.6l-0.7-2.3l8.4-3.3h2.1v39.3H497.5z M480.9,316.1v-4.7h3.5v4.7
			H480.9z M465.7,281l-17.5,23.1h17.5V281z M468.3,306.6v9.5h-2.6v-9.5h-19.8l-0.9-2.2l20.9-27.6h2.5v27.3h6v2.5H468.3z
			 M425.2,301.1V298h14v3.1H425.2z M418.7,316.1h-25v-2.2l13.7-13.1c1.5-1.4,2.8-2.8,3.8-4c1-1.2,1.9-2.3,2.5-3.3c0.6-1,1.1-2,1.4-3
			c0.3-1,0.4-2,0.4-3c0-1.3-0.2-2.4-0.7-3.5c-0.5-1-1.1-1.9-1.8-2.6c-0.8-0.7-1.6-1.3-2.6-1.7c-1-0.4-2.1-0.6-3.1-0.6
			c-2.3,0-4.3,0.6-6,1.9c-1.6,1.2-3.2,3-4.8,5.4l-2-1.5c0.8-1.3,1.6-2.5,2.5-3.5c0.9-1,1.8-1.9,2.8-2.6c1-0.7,2.2-1.3,3.4-1.7
			c1.3-0.4,2.7-0.6,4.3-0.6c1.6,0,3,0.3,4.3,0.8c1.3,0.5,2.5,1.3,3.4,2.3c1,1,1.7,2.1,2.3,3.4c0.6,1.3,0.8,2.7,0.8,4.2v0.1
			c0,1.3-0.2,2.6-0.5,3.8c-0.4,1.2-0.9,2.3-1.7,3.5c-0.8,1.2-1.7,2.4-2.9,3.7c-1.2,1.3-2.5,2.7-4.1,4.2L398,313.3h20.7V316.1z
			 M385.5,296.6c0-2.3-0.3-4.5-0.9-6.6c-0.6-2.1-1.4-4-2.5-5.6c-1.1-1.6-2.4-2.9-3.9-3.9c-1.5-1-3.2-1.5-5.1-1.5
			c-1.9,0-3.6,0.5-5.1,1.5c-1.5,1-2.8,2.3-3.9,3.9c-1.1,1.6-1.9,3.5-2.5,5.6c-0.6,2.1-0.9,4.3-0.9,6.6v0.1c0,2.3,0.3,4.5,0.9,6.6
			c0.6,2.1,1.4,4,2.5,5.6c1.1,1.6,2.4,2.9,3.9,3.9c1.5,1,3.2,1.5,5.1,1.5c1.9,0,3.6-0.5,5.1-1.5c1.5-1,2.8-2.3,3.9-3.9
			c1.1-1.6,1.9-3.5,2.5-5.6c0.6-2.1,0.9-4.3,0.9-6.6V296.6z M387.2,304.3c-0.7,2.5-1.7,4.6-3.1,6.4c-1.3,1.8-2.9,3.3-4.8,4.4
			c-1.9,1.1-4,1.6-6.3,1.6c-2.3,0-4.4-0.5-6.3-1.6c-1.9-1.1-3.5-2.5-4.8-4.4c-1.3-1.8-2.3-4-3-6.4c-0.7-2.4-1-5-1-7.7v-0.1
			c0-2.7,0.4-5.2,1.1-7.7c0.7-2.5,1.7-4.6,3.1-6.4c1.3-1.8,2.9-3.3,4.8-4.4c1.9-1.1,4-1.6,6.3-1.6c2.3,0,4.4,0.5,6.3,1.6
			c1.9,1.1,3.5,2.5,4.8,4.4c1.3,1.8,2.3,4,3,6.4c0.7,2.4,1,5,1,7.7v0.1C388.3,299.3,387.9,301.8,387.2,304.3z M347.3,316.1v-4.7h3.5
			v4.7H347.3z M332.1,281l-17.5,23.1h17.5V281z M334.7,306.6v9.5h-2.6v-9.5h-19.8l-0.9-2.2l20.9-27.6h2.5v27.3h6v2.5H334.7z
			 M301.5,316.1v-4.7h3.5v4.7H301.5z M293.7,309.3c-0.6,1.5-1.5,2.8-2.7,4c-1.1,1.1-2.5,2-4,2.6c-1.6,0.6-3.3,0.9-5.1,0.9
			c-2.5,0-4.9-0.6-7.1-1.8c-2.2-1.2-4.1-2.7-5.7-4.5l1.9-2.1c1.7,1.8,3.4,3.2,5.3,4.2c1.8,1,3.8,1.5,5.7,1.5c1.5,0,2.8-0.3,4-0.8
			c1.2-0.5,2.2-1.2,3.1-2.1c0.9-0.9,1.5-1.9,2-3.1c0.5-1.2,0.7-2.5,0.7-3.9v-0.1c0-1.3-0.2-2.6-0.7-3.7c-0.5-1.1-1.2-2.1-2.1-2.9
			c-0.9-0.8-2-1.5-3.2-1.9c-1.2-0.5-2.6-0.7-4.1-0.7c-1.7,0-3.2,0.2-4.6,0.7c-1.3,0.5-2.6,1.1-3.7,1.7l-2.1-1.5l1-18.9H293v2.8
			h-18.2l-0.9,14.6c1.2-0.6,2.4-1.1,3.7-1.5c1.3-0.4,2.7-0.6,4.5-0.6c1.8,0,3.4,0.3,4.9,0.9c1.5,0.6,2.8,1.4,4,2.4
			c1.1,1,2,2.3,2.7,3.7c0.6,1.5,1,3.1,1,4.8v0.1C294.7,306.1,294.3,307.8,293.7,309.3z M258.4,316.1v-36.3l-7.1,2.6l-0.7-2.3
			l8.4-3.3h2.1v39.3H258.4z M243.4,296.6c0-2.3-0.3-4.5-0.9-6.6c-0.6-2.1-1.4-4-2.5-5.6c-1.1-1.6-2.4-2.9-3.9-3.9
			c-1.5-1-3.2-1.5-5.1-1.5s-3.6,0.5-5.1,1.5c-1.5,1-2.8,2.3-3.9,3.9c-1.1,1.6-1.9,3.5-2.5,5.6c-0.6,2.1-0.9,4.3-0.9,6.6v0.1
			c0,2.3,0.3,4.5,0.9,6.6c0.6,2.1,1.4,4,2.5,5.6c1.1,1.6,2.4,2.9,3.9,3.9c1.5,1,3.2,1.5,5.1,1.5c1.9,0,3.6-0.5,5.1-1.5
			c1.5-1,2.8-2.3,3.9-3.9c1.1-1.6,1.9-3.5,2.5-5.6c0.6-2.1,0.9-4.3,0.9-6.6V296.6z M245.1,304.3c-0.7,2.5-1.7,4.6-3.1,6.4
			c-1.3,1.8-2.9,3.3-4.8,4.4c-1.9,1.1-4,1.6-6.3,1.6c-2.3,0-4.4-0.5-6.3-1.6c-1.9-1.1-3.5-2.5-4.8-4.4c-1.3-1.8-2.3-4-3-6.4
			c-0.7-2.4-1-5-1-7.7v-0.1c0-2.7,0.4-5.2,1.1-7.7c0.7-2.5,1.7-4.6,3.1-6.4c1.3-1.8,2.9-3.3,4.8-4.4c1.9-1.1,4-1.6,6.3-1.6
			c2.3,0,4.4,0.5,6.3,1.6s3.5,2.5,4.8,4.4c1.3,1.8,2.3,4,3,6.4c0.7,2.4,1,5,1,7.7v0.1C246.2,299.3,245.8,301.8,245.1,304.3z
			 M209.6,316.1h-25v-2.2l13.7-13.1c1.5-1.4,2.8-2.8,3.8-4c1-1.2,1.9-2.3,2.5-3.3c0.6-1,1.1-2,1.4-3c0.3-1,0.4-2,0.4-3
			c0-1.3-0.2-2.4-0.7-3.5c-0.5-1-1.1-1.9-1.8-2.6c-0.8-0.7-1.6-1.3-2.6-1.7c-1-0.4-2.1-0.6-3.1-0.6c-2.3,0-4.3,0.6-6,1.9
			c-1.6,1.2-3.2,3-4.8,5.4l-2-1.5c0.8-1.3,1.6-2.5,2.5-3.5c0.9-1,1.8-1.9,2.8-2.6c1-0.7,2.2-1.3,3.4-1.7c1.3-0.4,2.7-0.6,4.3-0.6
			c1.6,0,3,0.3,4.3,0.8c1.3,0.5,2.5,1.3,3.4,2.3c1,1,1.7,2.1,2.3,3.4c0.6,1.3,0.8,2.7,0.8,4.2v0.1c0,1.3-0.2,2.6-0.5,3.8
			c-0.3,1.2-0.9,2.3-1.7,3.5c-0.8,1.2-1.7,2.4-2.9,3.7c-1.2,1.3-2.5,2.7-4.1,4.2l-11.2,10.8h20.7V316.1z"/>
		<path class="st1" d="M526,523.9h-15.6v-16.4H526V523.9z M524.2,498.9h-12.4l-2.2-69.1h17.3L524.2,498.9z M485.8,480.2h-55.1v28.2
			h55.1V480.2z M485.8,439.8h-55.1V467h55.1V439.8z M485.8,528v-7.3h-55.1v7.3h-14.2V426.6H500V528H485.8z M315.7,477.5h20v49.6H325
			v-38.2h-9.3c-0.6,16.1-2.8,29.2-6.7,39.6c-2.1-1.2-4.7-2.9-8-5c-0.9-0.9-1.6-1.5-2.2-1.8c3.8-11.5,5.6-26.5,5.3-45v-51.8h11.6
			v30.9h8.4v-34.1h10.2v34.1h5.8V467h-24.4V477.5z M365.5,473c1.2-3.6,1.8-7.6,1.8-11.8h-12.4V473H365.5z M367.7,440.2h-12.9v11.4
			h12.9V440.2z M391.2,473v-11.8h-12.9c-0.3,4.2-0.9,8.2-1.8,11.8H391.2z M391.2,440.2h-12.9v11.4h12.9V440.2z M385,487.5v10.9h21.8
			v11.4H385v18.6h-12.4v-18.6h-33.3v-11.4h9.8l-4.9-5c6.2-3.6,11.1-7.1,14.7-10.5h-15.1v-53.2h17.8c0.3-1.2,0.6-2.9,0.9-5
			c0.6-2.4,0.9-4.1,0.9-5l13.8,0.9l-2.7,9.1h27.6V483h-30.2c-3.3,5.5-8.6,10.6-16,15.5h16.9v-10.9H385z M218.6,488.4h-19.1v23.2
			h19.1V488.4z M230.6,528.4h-12v-6.4h-19.1v6.4H187v-51.4h43.6V528.4z M211,454.8h50.7V437H211V454.8z M197.3,425.2h78.2v41.4
			h-78.2V425.2z M273.3,488.4h-19.6v23.2h19.6V488.4z M273.3,528v-5.9h-19.6v6.4h-12.4v-51.4h44V528H273.3z"/>
	</g>
</g>
<g>
</g>
<g>
</g>
<g>
</g>
<g>
</g>
<g>
</g>
<g>
</g>
<g>
</g>
<g>
</g>
<g>
</g>
<g>
</g>
<g>
</g>
<g>
</g>
<g>
</g>
<g>
</g>
<g>
</g>
</svg>
