<?xml version="1.0" encoding="utf-8"?>
<!-- Generator: Adobe Illustrator 17.0.0, SVG Export Plug-In . SVG Version: 6.00 Build 0)  -->
<!DOCTYPE svg PUBLIC "-//W3C//DTD SVG 1.1//EN" "http://www.w3.org/Graphics/SVG/1.1/DTD/svg11.dtd">
<svg version="1.1" id="Layer_1" xmlns="http://www.w3.org/2000/svg" xmlns:xlink="http://www.w3.org/1999/xlink" x="0px" y="0px"
	 width="720px" height="211.5px" viewBox="0 0 720 211.5" style="enable-background:new 0 0 720 211.5;" xml:space="preserve">
<style type="text/css">
	.st0{fill:#CCB599;}
	.st1{fill:#EAD3D3;}
	.st2{fill:#E2A78C;}
	.st3{fill:none;}
</style>
<g id="page-01-button.svg">
	<path class="st0" d="M359,132.9c-27.1,0-49-21.9-49-49c0-27.1,21.9-49,49-49c27.1,0,49,21.9,49,49C408,111,386.1,132.9,359,132.9z
		 M359,130.9c25.9,0,47-21.1,47-47c0-25.9-21.1-47-47-47c-25.9,0-47,21.1-47,47C312,109.8,333.1,130.9,359,130.9"/>
	<path class="st1" d="M359.8,73.2v-9.4l17.4,13.5v9.4L359.8,73.2z M343.4,86.7v-9.4l17.4-13.5v9.4L343.4,86.7z"/>
	<path class="st2" d="M359.8,89.4v-9.4l17.4,13.5v9.4L359.8,89.4z M343.4,102.9v-9.4l17.4-13.5v9.4L343.4,102.9z"/>
	<rect y="0" class="st3" width="720" height="211.5"/>
</g>
<g>
</g>
<g>
</g>
<g>
</g>
<g>
</g>
<g>
</g>
<g>
</g>
<g>
</g>
<g>
</g>
<g>
</g>
<g>
</g>
<g>
</g>
<g>
</g>
<g>
</g>
<g>
</g>
<g>
</g>
</svg>
