<?xml version="1.0" encoding="utf-8"?>
<!-- Generator: Adobe Illustrator 17.0.0, SVG Export Plug-In . SVG Version: 6.00 Build 0)  -->
<!DOCTYPE svg PUBLIC "-//W3C//DTD SVG 1.1//EN" "http://www.w3.org/Graphics/SVG/1.1/DTD/svg11.dtd">
<svg version="1.1" id="Layer_1" xmlns="http://www.w3.org/2000/svg" xmlns:xlink="http://www.w3.org/1999/xlink" x="0px" y="0px"
	 width="580.4px" height="444.7px" viewBox="0 0 580.4 444.7" style="enable-background:new 0 0 580.4 444.7;" xml:space="preserve"
	>
<style type="text/css">
	.st0{fill:#6F181C;}
	.st1{fill:#010101;}
	.st2{fill:none;}
</style>
<g id="page-07-content.svg">
	<path class="st0" d="M80.3,75.1H84v-1.8h-7.8v1.8h3v2.6h-3v0.4c1.4,0.7,2.4,1.3,3.2,1.8l-1.3,1.7c-0.6-0.5-1.3-0.9-1.9-1.2v2.9H73
		v-3.5c-0.9,1.5-2,2.8-3.1,3.8c-0.5-0.6-1-1.1-1.6-1.7v3c0,6.9-1,12-2.9,15.3c-0.8-0.8-1.8-1.8-3.1-2.8c1.5-2.9,2.3-7.2,2.3-13V70
		h12.1l-0.7-1.7l4.5-1.2l1.1,2.9h11.1v3.3h-5.4v1.8h4.8v2.6h-4c1.4,1.6,3,2.8,4.9,3.6c-0.8,1.1-1.4,1.9-1.8,2.5
		c-1.4-1.1-2.7-2.4-3.9-4v3.3H84v-3.6c-1.1,1.8-2.3,3.3-3.5,4.4c-0.6-0.6-1.4-1.2-2.2-1.9c1.7-1.2,3.3-2.6,4.6-4.3h-2.6V75.1z
		 M63.5,49.3h22.6V46H64.9v-4.1h21.3v-3.3H63.9v-4.1h11.2V22.3h4.5v12.2h11v20.8h-4.5v-2H63.5V49.3z M67.7,23.7l6,6.8l-3.3,3.2
		c-1.9-2.6-3.8-4.9-5.6-7L67.7,23.7z M69,75.1h4v-1.8h-4.8v8.2c1.4-0.9,2.7-2.1,3.9-3.7H69V75.1z M68.4,92.2h10.1v-1.4h-8.8v-2.6
		h8.8v-1.5l-8.7,0.2c-0.1-0.9-0.3-1.8-0.5-2.7c5.7-0.1,12.4-0.3,20.1-0.7c0,0,0.2,1,0.5,2.8l-7.7,0.2v1.6h8.3v2.6h-8.3v1.4h10.1V95
		H82.3v0.4c0,1.4-0.3,2.5-0.8,3.2c-0.6,0.8-1.3,1.2-2.4,1.3c-1,0.1-2.7,0.2-5.2,0.2c-0.2-1.2-0.5-2.4-0.8-3.8c1.7,0.1,3,0.2,3.9,0.2
		c0.9,0,1.4-0.5,1.5-1.5H68.4V92.2z M81.3,30.7c2.3-2.4,4.3-4.7,6-7l3.4,3.1l-6.3,6.9L81.3,30.7L81.3,30.7z M113.7,70.8
		c1.6-1.2,3.2-2.3,4.6-3.5l2.5,2.9c-1.7,1.3-3.5,2.5-5.3,3.7c0.4,0.6,0.8,1.1,1.3,1.6c1.7-1.2,3.3-2.4,4.7-3.7l2.5,2.9
		c-1.4,1.1-3,2.2-4.6,3.3c1.4,1.1,3,2,4.8,2.7c-0.7,1.1-1.6,2.5-2.5,4.1c-0.8-0.4-1.6-0.9-2.4-1.4v9h-3.7l2.1,1.1l-1.3,1.9h7.3V99
		H93.9v-3.8h7.1c-0.5-0.8-0.9-1.5-1.3-2l2.2-1H98v-8.9c-0.8,0.6-1.7,1.2-2.6,1.7c-0.6-1.3-1.3-2.7-2.1-4.2c1.6-0.7,3.1-1.5,4.5-2.6
		c-1-1-2.2-2-3.5-3.1l2.4-2.6c1.4,1.1,2.7,2.2,3.9,3.3c1.1-1.1,2.1-2.3,3.1-3.7h-8.4v-3.7H108v3.7c-0.9,1.6-1.9,3.1-3.1,4.6h7.9
		c-1.7-2.3-3.1-5-4.2-8l3.7-1.5C112.7,68.6,113.2,69.7,113.7,70.8L113.7,70.8z M96.8,54.9V24.3h24.1v30.5h-4.7v-2.3h-14.7v2.3H96.8z
		 M102.9,79.2c-1.2,1.2-2.4,2.3-3.8,3.4h19.3c-1.4-1-2.7-2.2-3.9-3.5v1.7h-11.6V79.2L102.9,79.2z M116.2,29h-14.7v7h14.7V29z
		 M101.5,47.8h14.7v-7.2h-14.7V47.8z M115.4,88.7v-2.4H102v2.4H115.4z M104.2,92.3c0.6,1,1.2,1.9,1.7,3h5.7c0.6-1,1.2-2,1.8-3H104.2
		L104.2,92.3z M133.3,67.4c0.7,1,1.6,2.4,2.8,4.2l-2.7,1.6h5.2v4.1c-0.9,1.9-2,3.8-3.4,5.7v1.8l1.3-1.7c1.4,1,3,2.3,4.7,3.7
		l-2.6,3.3c-1.3-1.3-2.4-2.4-3.4-3.3v13.3H131V88.1c-1.5,1.6-3.1,3.3-4.9,5c-0.5-2.1-0.9-3.9-1.4-5.4c4.1-3.7,7-7,8.7-10.1H126v-4.4
		h6c-0.8-1.4-1.5-2.7-2.3-3.9L133.3,67.4z M127.5,31.7c1.9,1.5,3.5,2.9,5,4.3l-2.9,3.5c-1.3-1.4-2.9-2.9-4.8-4.6L127.5,31.7z
		 M125.2,53.6c1-3.8,1.9-8.2,2.8-13c1.6,0.7,3,1.2,4.1,1.5L129.4,55C127.9,54.4,126.5,54,125.2,53.6L125.2,53.6z M127.8,22.8
		c1.6,1.2,3.3,2.6,5,4.3l-2.7,3.4c-1.8-1.9-3.4-3.5-4.8-4.7L127.8,22.8z M136,23c1.6,1.8,3.2,3.5,4.6,5.2l-3.1,2.6
		c-1.3-1.7-2.7-3.5-4.3-5.4L136,23z M141.7,22.3h4.2v9.1h7.7v18.8c0,1.3-0.3,2.4-0.9,3.1c-0.6,0.7-1.5,1.2-2.6,1.4
		c-1.2,0.2-3.2,0.2-6,0.2c-0.3-1.5-0.7-3-1.1-4.5c1.7,0.1,3.1,0.1,4.2,0.1c1.4,0,2-0.7,2-2.1v-0.6h-11.1v6.8H134V31.4h7.7V22.3z
		 M149.4,35.4h-11.1v2.5h11.1V35.4z M138.3,44.1h11.1v-2.5h-11.1V44.1z M150.4,94c0.4-2.1,0.6-4.2,0.8-6.3c1.2,0.6,2.6,1.2,4.3,1.8
		c-0.4,2.8-0.9,5.2-1.4,7c-0.5,2-2.1,3-4.8,3h-3.1c-2.8,0-4.2-1.5-4.2-4.6V68h4.2v25.7c0,1.2,0.5,1.7,1.5,1.7h0.8
		C149.5,95.4,150.1,95,150.4,94L150.4,94z M147,28.5c1.6-1.7,3.1-3.5,4.4-5.4l3.3,2.6c-1.6,1.9-3.2,3.8-4.9,5.5L147,28.5L147,28.5z
		 M161,49.2v-5.6c-0.9,0.4-1.9,0.8-3,1.2c-0.5-1.1-1.1-2.2-1.9-3.5c3.7-1,6.2-2.3,7.5-3.9h-6l1.2-8h7.1c0-0.5,0-1.1,0-1.9h-8.2v-3.1
		h8.2v-2.2h3.8v2.2h3.8v-2.2h3.8v2.2h7.2v8h-7.2v1.9h8.4c0,1.7-0.1,3.2-0.2,4.5c-0.1,1.2-0.4,2.1-0.9,2.7c-0.5,0.6-1.3,0.9-2.3,0.9
		v6.1h-3.8v-5.1h-13.6v5.8H161z M156.5,79.7h11.1c0.3-0.6,0.6-1.4,0.9-2.5h-10.7v-3.8h4.7c-1-1.2-1.9-2.4-2.9-3.5l2.7-2.4
		c1.3,1.3,2.6,2.8,3.9,4.3l-1.8,1.6h4.6c0.1-1.6,0.3-3.6,0.4-6l4.2,0.1c-0.1,2.2-0.3,4.2-0.4,5.8h4.1l-1.5-1.2
		c1.3-1.5,2.5-3.1,3.6-4.7l3.3,2.3c-1,1.3-1.9,2.6-2.8,3.7h4.8v3.8h-11.9c-0.2,1-0.3,1.8-0.5,2.5h14v3.9h-7.3
		c2.1,2.1,4.6,3.5,7.7,4.2c-0.7,1-1.4,2.4-2.2,4.2c-1.1-0.4-2.2-1-3.2-1.6c-0.1,1.5-0.3,2.9-0.4,4.1c-0.4,3.4-2.3,5.1-5.7,5.1
		c-1.8,0-3.4,0-4.8-0.1c-0.1-0.9-0.4-2.3-0.9-4.1l4.8,0.3c1.6,0,2.5-0.7,2.7-2.1c0.1-0.7,0.2-1.7,0.3-3.1H169
		c-0.6,2.5-1.5,4.4-2.8,5.7c-1.7,1.7-4.3,3.2-7.6,4.3c-0.7-1.4-1.5-2.7-2.3-4c3.2-0.8,5.5-1.8,6.9-3.1c0.8-0.8,1.4-1.8,1.8-3h-3
		c-0.9,0.5-1.8,1-2.8,1.5c-0.8-1.4-1.7-2.6-2.6-3.8c3.2-1.4,5.8-2.9,7.7-4.5h-7.9V79.7z M169.8,44.3h3.9c-0.1,1.2-0.2,2.3-0.5,3.3
		c3.8,1.1,8,2.5,12.8,4.2l-1.9,3.6c-3.8-1.5-7.9-3.1-12.4-4.7c-1.8,2.4-6,4-12.7,4.6c-0.4-1.2-1-2.5-1.7-4c4.4-0.3,7.6-0.8,9.5-1.8
		C168.7,48.7,169.7,46.9,169.8,44.3z M162,32.5l-0.3,1.9h3.6c0.2-0.6,0.3-1.2,0.4-1.9H162z M179,39.3c1.5,0.1,2.4,0,2.6-0.1
		c0.2-0.1,0.3-0.3,0.4-0.6c0.1-0.3,0.1-0.7,0.1-1.2h-4.7V40h-3.8v-2.5h-5.5c-0.8,1.4-1.5,2.4-2.3,3.1h13.5L179,39.3z M170.3,83.6
		c-0.8,1.1-1.7,2.1-2.8,3.1h9.4c-0.8-0.9-1.6-2-2.3-3.1H170.3L170.3,83.6z M169.5,32.5c-0.1,0.7-0.2,1.3-0.3,1.9h4.4v-1.9H169.5
		L169.5,32.5z M169.8,27.6c0,0.4,0,1,0,1.9h3.8v-1.9H169.8L169.8,27.6z M181,29.5v-1.9h-3.6v1.9H181z M189.9,31.5
		c1.5,1.2,3.2,2.6,4.8,4.2l-2.7,3.6c-1.6-1.7-3.1-3.2-4.6-4.6L189.9,31.5z M187.9,81.3h29.5v4.9h-29.5V81.3z M194.8,25.2h5v-2.8h4
		v2.8h4.8v-2.8h4v2.8h5v3.5h-5v2.1h-4v-2.1h-4.8v2.1h-4v-2.1h-5v-1.2l-2.4,2.8c-1.3-1.4-2.8-2.9-4.4-4.5l2.5-3.1
		c1.3,1,2.7,2.3,4.3,3.8V25.2z M188.1,53.7c1.1-3.9,2.1-8.1,3-12.8c1.6,0.7,3,1.3,3.9,1.6l-2.9,12.6
		C190.7,54.6,189.4,54.1,188.1,53.7L188.1,53.7z M194.8,31.1h22.7v3.5h-6.3v2.8h5.4v13.2c0,1.3-0.3,2.3-0.8,2.9
		c-0.5,0.7-1.2,1.1-2.1,1.2c-0.9,0.1-2.7,0.2-5.4,0.2c-0.2-1.1-0.5-2.2-0.8-3.2l-3.2-2.1c0.9-1,1.7-2.3,2.3-3.7l-1.5,1.5
		c-0.3-0.5-0.7-1-1-1.4c-0.6,1.8-1.5,3.7-2.8,5.7c-0.3-0.3-0.8-0.8-1.6-1.5v4.9h-3.8V37.4h5.7v-2.8h-6.7V31.1z M199.5,47.6
		c1.2-2,1.9-4.4,2-7.1h-2V47.6z M206.9,44.9c0.4-1.3,0.7-2.8,0.8-4.4H205c0,0.9-0.1,1.6-0.1,2.1L206.9,44.9z M205,37.4h2.8v-2.8H205
		V37.4z M212.8,47.8l-1.2,1.2c-0.5-0.7-1-1.4-1.5-2.1c-0.6,1.6-1.4,3.2-2.4,4.6c1.3,0.1,2.5,0.1,3.4,0.1c1.2,0,1.8-0.6,1.8-1.8V47.8
		z M213,40.5h-1.8c0,1-0.1,1.9-0.2,2.9l2,2.2V40.5z M243.6,83.8h-15.3v1.5h15.3V88h-15.3v1.6h20.5v3.6h-7.3c1.9,1.4,3.8,2.8,5.8,4.4
		l-2.5,2.9l-1.7-1.5c-10.6,0.4-17.2,0.8-19.8,1.2l-1.6-3.9c1.4-0.6,2.9-1.6,4.7-3h-7.2v-3.6h5.5V81c-1.3,0.8-2.6,1.5-4.1,2.1
		c-0.6-1.4-1.2-2.6-1.9-3.9c3.7-1.2,6.6-2.9,8.8-5.3h-8v-3.6H230c0.5-0.9,0.9-1.9,1.3-3h4.3c-0.3,1.1-0.7,2.1-1.2,3h13.8v3.6h-7.7
		c2.3,2.5,5.2,4.1,8.6,4.8c-0.8,1.4-1.5,2.7-1.9,3.9c-2.1-0.7-4.1-1.7-5.9-3.1h-13.1v1.5h15.3V83.8z M220.9,54.7V44.1
		c-0.3,0.1-0.6,0.2-0.9,0.3c-0.4-1.2-0.8-2.3-1.3-3.2c2.1-0.6,3.8-1.4,5.3-2.3l-1.5-0.8l1.7-2.6l2.4,1.2c0.7-0.8,1.4-1.7,1.9-2.6h-4
		c-0.8,1.4-1.7,2.6-2.7,3.8c-0.7-0.5-1.6-1.1-2.9-1.8c2.2-2.4,3.7-4.9,4.5-7.4l3.1,1.3c-0.1,0.3-0.3,0.7-0.4,1h6.3v3.1
		c-0.7,1.6-1.6,3.1-2.7,4.4c1.3,0.7,2.7,1.5,4.1,2.3l-1.6,3.2l-0.1,0v8.1c2.8-1.1,4.7-2.4,5.6-3.9c0.9-1.5,1.4-4.1,1.4-7.7v-4.9h3.6
		v5.4c0,2.1-0.2,3.9-0.5,5.5c2.6,1.8,4.8,3.5,6.8,5.1l-2.2,4c-1.7-1.6-3.6-3.4-5.9-5.3c-1.3,2.2-3.6,4-6.8,5.3
		c-0.6-1.1-1.3-2.1-1.9-3v2.1h-3.5v-1.1h-4.3v1.3H220.9z M219.3,30.8v-5.6h5.2c-0.2-0.7-0.5-1.4-0.7-2.2l4.3-0.7l0.9,2.9h4.6v-1.6
		h15.3v4h-6.3c-0.1,1-0.3,2-0.4,2.9h5.8v17h-3.6V34.3h-6.7v13.2H234v-17h4.2c0.1-0.9,0.3-1.9,0.4-2.9h-5v2.7h-3.2v-1.8h-7.8v2.4
		H219.3z M227.3,40.7c-1.2,1-2.6,1.8-4.2,2.5h8.2C230,42.3,228.6,41.5,227.3,40.7L227.3,40.7z M228.7,46.8h-4.3v2.9h4.3V46.8z
		 M237.2,94.1l0.9-0.9h-5.8c-1.2,0.9-2.6,1.9-4.2,2.9l11-0.5L237.2,94.1z M237.9,76.3c-0.6-0.7-1.2-1.5-1.8-2.4h-3.7
		c-0.6,0.8-1.2,1.6-1.9,2.4H237.9L237.9,76.3z M254.4,27.8c0.6-2.2,1-3.9,1.2-5.3l4.6,0.8l-1.4,4.5h5.2v6.5c1.6-3,3.2-6.9,4.7-11.8
		l4.2,1.2c-0.4,1.5-0.9,2.9-1.4,4.3h7.9L279,47.1c-0.1,2.1-0.2,3.5-0.5,4.3c-0.3,0.8-0.7,1.5-1.2,2c-0.6,0.5-1.3,0.9-2.3,1.1
		c-1,0.2-3.2,0.3-6.6,0.3c-0.3-1.9-0.7-3.6-1.2-5c1.5,0.1,3.1,0.2,4.8,0.2c0.5,0,0.9-0.1,1.3-0.2c0.4-0.1,0.6-0.3,0.9-0.6
		c0.2-0.2,0.4-0.5,0.5-0.8c0.1-0.3,0.1-1.7,0.2-4.1l0.1-6.8c0-2.1,0.1-3.8,0.1-5.1h-5.3c-0.7,1.6-1.4,3.1-2.1,4.5
		c-1-0.7-2.2-1.4-3.6-2v19.8h-4.2v-2.4h-4.3v2.6h-4.2v-27H254.4L254.4,27.8z M259.8,32.2h-4.3v5.7h4.3V32.2z M255.4,47.9h4.3v-5.7
		h-4.3V47.9z M268.8,36.4c1.5,1.9,3,4.2,4.7,6.9l-3.8,2.8c-1.5-2.8-3-5.1-4.4-7.1L268.8,36.4z M286.4,37.6c0,4.2-0.1,7.7-0.4,10.5
		c-0.3,3.1-0.9,5.6-1.5,7.4c-1.1-1.1-2.2-2.2-3.4-3.2c0.6-1.5,1-3.3,1.4-5.6c0.3-2.7,0.5-6,0.5-9.8V24.1h13.2V28h-9.8V37.6z
		 M287.7,30.5h8.2v9.7c0,1.6-0.3,2.7-0.8,3.3c-0.6,0.6-1.8,1-3.5,1c-0.1-1-0.3-2.1-0.6-3.4c0.3,0,0.6,0.1,0.9,0.1
		c0.6,0,0.9-0.4,0.9-1.2V34h-1.9v14.3c1.5-0.8,3.1-1.7,4.8-2.7c0,1.5,0.1,2.9,0.2,4.1c-2.8,1.3-5.2,2.8-7.2,4.2l-2-3.1
		c0.7-0.6,1-1.2,1-1.9V30.5z M302.2,35.9h3.5v3.9c0,2.6-0.2,4.8-0.6,6.6c2.3,1.9,4.6,3.9,6.7,5.9l-2.7,3.2c-1.7-1.8-3.5-3.6-5.3-5.3
		c-1.1,2-3,3.8-5.9,5.4c-0.6-0.8-1.6-2-3.1-3.6c3.2-1.3,5.2-2.8,6-4.6c0.9-1.6,1.3-4.1,1.3-7.5V35.9z M297.3,47V30.5h4.2
		c0.1-0.8,0.2-1.6,0.3-2.4h-4.9v-4h14.3v4h-5.7c-0.1,0.8-0.3,1.6-0.4,2.4h5.7V47h-3.4V34.5h-6.7V47H297.3z M316.9,55.3V44.2
		c-0.9,0.2-1.9,0.4-2.8,0.5c-0.5-1.4-1-2.6-1.5-3.8c4.3-0.6,7.8-1.3,10.8-2c-1.1-0.7-2.1-1.6-3.1-2.5c-1.2,0.9-2.6,1.7-4,2.5
		c-0.8-1.1-1.5-2.1-2.3-3.1c3.5-1.6,6.3-3.7,8.5-6.1h4.7c-0.3,0.5-0.7,0.9-1,1.3h11.4V29h-19.6v4.2h-4.2v-7.9h11.9l-0.9-2.4l5.2-0.6
		c0.3,0.8,0.6,1.8,1,3h10.9v7.9H338v1.1c-1.5,1.8-3.4,3.3-5.6,4.6c2.9,0.7,6.5,1.2,10.5,1.5l-1.5,4.1c-1-0.2-1.9-0.3-2.8-0.5v11.4
		h-4.2v-1.6H321v1.6H316.9z M337.3,43.7c-3.7-0.7-6.9-1.6-9.5-2.6c-2.4,0.9-5.3,1.8-8.7,2.6H337.3L337.3,43.7z M334.4,47.5H321V50
		h13.4V47.5z M323.2,34.5c1.3,1.2,2.9,2.1,4.6,2.9c1.7-0.8,3.3-1.7,4.7-2.9H323.2L323.2,34.5z M364.9,48.7h-4.1V37.1
		c-1.9,2.9-4.1,5.5-6.7,7.8c-0.9-1.2-1.8-2.3-2.7-3.3V47c0.8,0.8,1.8,1.5,2.9,1.9c1.1,0.4,2.1,0.7,3.1,0.8c1,0.1,2.7,0.2,5.3,0.2
		c3.2,0,7.1-0.1,11.5-0.3c-0.5,1.5-1,3.1-1.5,4.6c-7.9,0-13.3,0-16.2-0.2c-2.9-0.2-5.3-1.3-7.1-3.4c-0.8,0.9-2,2.4-3.7,4.4l-1.9-4.9
		l3.5-3.5v-8.4h-3.1v-4.4h7.1v7.2c4.3-3.5,7.4-7.9,9.3-13.1h-7.5v-4.1h20.1V28h-8.1c-0.5,1.5-1.1,3-1.8,4.4h1.6v2.5l2-1.8
		c2.3,2.4,4.8,5.1,7.4,8.1l-3.4,3.3c-2.4-3.2-4.4-5.8-6-7.7V48.7z M348.1,22.6c1.5,2,2.9,4.1,4.3,6.2l-3.8,2.7
		c-1.2-2.2-2.5-4.4-4-6.7L348.1,22.6z M375.4,24.5h29.8V29h-3.4v20.5c0,1.4-0.3,2.5-0.8,3.4c-0.6,0.8-1.4,1.4-2.5,1.6
		c-1.1,0.3-3.7,0.4-7.7,0.4c-0.3-1.6-0.7-3.3-1.2-5.1c2.3,0.1,4,0.2,5,0.2c1.7,0,2.5-0.9,2.5-2.6V29h-21.7V24.5z M378.7,32.3H393
		v14.2h-10v1.9h-4.3V32.3z M388.7,42.6v-6.3h-5.7v6.3H388.7z M408.5,54.7V44.1c-0.3,0.1-0.6,0.2-0.9,0.3c-0.4-1.2-0.8-2.3-1.3-3.2
		c2.1-0.6,3.8-1.4,5.3-2.3l-1.5-0.8l1.7-2.6l2.4,1.2c0.7-0.8,1.4-1.7,1.9-2.6h-4c-0.8,1.4-1.7,2.6-2.7,3.8c-0.7-0.5-1.6-1.1-2.9-1.8
		c2.2-2.4,3.7-4.9,4.5-7.4l3.1,1.3c-0.1,0.3-0.3,0.7-0.4,1h6.3v3.1c-0.7,1.6-1.6,3.1-2.7,4.4c1.3,0.7,2.7,1.5,4.1,2.3l-1.6,3.2
		l-0.1,0v8.1c2.8-1.1,4.7-2.4,5.6-3.9c0.9-1.5,1.4-4.1,1.4-7.7v-4.9h3.6v5.4c0,2.1-0.2,3.9-0.5,5.5c2.6,1.8,4.8,3.5,6.8,5.1l-2.2,4
		c-1.7-1.6-3.7-3.4-5.9-5.3c-1.3,2.2-3.6,4-6.8,5.3c-0.6-1.1-1.3-2.1-1.9-3v2.1h-3.5v-1.1h-4.3v1.3H408.5z M407,30.8v-5.6h5.2
		c-0.2-0.7-0.5-1.4-0.7-2.2l4.3-0.7l0.9,2.9h4.6v-1.6h15.3v4h-6.3c-0.1,1-0.3,2-0.4,2.9h5.8v17H432V34.3h-6.7v13.2h-3.6v-17h4.2
		c0.1-0.9,0.3-1.9,0.4-2.9h-5v2.7h-3.2v-1.8h-7.8v2.4H407z M415,40.7c-1.2,1-2.6,1.8-4.2,2.5h8.2C417.6,42.3,416.3,41.5,415,40.7
		L415,40.7z M416.4,46.8h-4.3v2.9h4.3V46.8z M453.9,27.6v4.2c-1.3,10.2-5.5,18.1-12.6,23.7c-1.2-1.6-2.3-2.9-3.1-3.7
		c3-2.3,5.5-5,7.3-8c-1.1-1.1-2.3-2.3-3.6-3.6l2.4-3.3c1.2,1,2.3,2,3.2,2.9c1-2.4,1.7-5,2.1-7.8h-4.6c-1.5,4-3.4,7.5-5.6,10.7
		c-0.9-2.2-1.6-3.8-2.1-4.8c2.9-4.3,4.9-9.5,6-15.6l4.2,0.8c-0.3,1.6-0.7,3.1-1.1,4.5H453.9z M461.4,31.6c2.7,3.3,5,6.3,6.9,9
		l-3.4,3c-1.7-2.7-3.4-5.1-5.1-7.4v19h-4.3V22.6h4.3V33L461.4,31.6z M487.3,22.4h4v2.8h7.9v4.1h-7.9v1.5h-4v-1.5H481v1.6h-1.9
		l2.7,2.5c-1.3,1.3-2.6,2.5-3.9,3.6c1.5,3.3,2.2,6.6,2.2,10.1c0,1.3-0.1,2.7-0.3,4.1c3.6-3.3,5.7-6.6,6.2-10.1h-5.7v-4.1h6.2
		c0.1-1.6,0.2-3.4,0.2-5.4h4c0,2-0.1,3.9-0.2,5.4h4.2c-1-1.1-2.2-2.1-3.4-3.2l2.5-2.6c1.5,1.2,3,2.4,4.4,3.6l-1.9,2.2h2.3V41h-7.3
		c1.5,4.5,4,7.8,7.6,9.9c-1,1.2-2,2.6-3.1,4.2c-3.2-3-5.5-6.4-6.9-10.3c-1.2,3.9-3.4,7.4-6.6,10.6l-2.8-3.7c-0.8,2-2.5,3-5.1,3h-3.2
		c-0.1-1-0.3-2.4-0.6-4.3c1.9,0.2,2.9,0.3,3.3,0.3c1.5,0,2.3-1,2.3-2.9c0-0.5-0.1-1.4-0.2-2.6c-1.5,1.7-3.2,3.3-5.1,4.6
		c-0.6-1.2-1.3-2.4-2.1-3.6c2.2-1.3,4.4-3,6.4-5.1c-0.2-0.5-0.3-1-0.5-1.4c-1.2,0.9-2.4,1.6-3.6,2.3c-0.8-1.2-1.6-2.4-2.3-3.4
		c1.4-0.7,2.7-1.5,4-2.4c-0.8-1.2-1.7-2.4-2.6-3.5l2.9-2.4c1,1.1,2,2.3,2.9,3.4c1-0.9,2-1.9,3-2.9h-2v-1.6h-8v-4.1h8v-2.8h4v2.8h6.3
		V22.4z M500.1,41c2.7-2.4,5.2-5.5,7.5-9.4l3.2,3c-1,1.7-2.1,3.4-3.2,4.9v15.8h-3.9V44.1c-0.7,0.7-1.4,1.4-2.2,2.1
		C501.1,44.8,500.7,43.1,500.1,41L500.1,41z M500.4,30c2.6-2.3,4.8-4.8,6.5-7.6l3.3,2.9c-2.3,3.5-5.1,6.8-8.3,9.8
		C501.6,33.8,501.1,32.1,500.4,30L500.4,30z M529.9,41.5h-3.3v1.9h4v3.4h-4V50c0,1.5-0.3,2.7-1,3.5c-0.7,0.8-1.7,1.2-3.1,1.3
		c-1.4,0.1-2.9,0.1-4.6,0.1c-0.2-1.4-0.6-2.8-0.9-4.2c1.4,0.1,2.7,0.2,3.9,0.2c1.1,0,1.7-0.7,1.7-2v-2.1h-7.2c0.8,1,1.6,2,2.5,3.2
		l-3.4,2.5c-1.1-1.7-2.1-3.2-3.1-4.5l1.7-1.2h-3.9v-3.4h13.3v-1.9h-12.4v-3.4h19.8V41.5z M511.2,23.6h17.5v12.9h-17.5V23.6z
		 M524.7,26.9h-9.5v1.7h9.5V26.9z M524.7,33.3v-1.7h-9.5v1.7H524.7z"/>
	<g>
		<path class="st1" d="M86.1,172.6h-3.3l-6.9-8.9c-0.2-0.3-0.4-0.6-0.5-0.7h-0.1v9.7H73v-19.7h2.4v9.3h0.1c0.1-0.2,0.3-0.5,0.5-0.7
			l6.7-8.5h2.9l-7.8,9.4L86.1,172.6z"/>
		<path class="st1" d="M97.8,172.6h-9.9v-19.7h9.5v2.3h-7.1v6.3h6.6v2.2h-6.6v6.6h7.6V172.6z"/>
		<path class="st1" d="M115.8,172.6H113l-9.3-15.3c-0.3-0.4-0.5-0.9-0.6-1.3H103c0.1,0.4,0.1,1.4,0.1,2.8v13.8h-2.4v-19.7h3l9,15
			c0.4,0.7,0.7,1.2,0.8,1.4h0c-0.1-0.6-0.1-1.5-0.1-2.9v-13.5h2.4V172.6z"/>
		<path class="st1" d="M132.2,153.7l-10.7,16.7h10.4v2.2H118v-0.9l10.6-16.5h-9.7v-2.3h13.3V153.7z"/>
		<path class="st1" d="M133.3,163c0-3.2,0.8-5.7,2.4-7.6c1.6-1.9,3.8-2.8,6.6-2.8c2.6,0,4.6,0.9,6.2,2.8c1.6,1.8,2.4,4.2,2.4,7.2
			c0,3.2-0.8,5.7-2.4,7.6c-1.6,1.9-3.8,2.8-6.4,2.8c-2.6,0-4.7-0.9-6.3-2.8C134.1,168.3,133.3,165.9,133.3,163z M135.8,162.8
			c0,2.4,0.6,4.3,1.7,5.7c1.1,1.4,2.6,2.2,4.5,2.2c2,0,3.5-0.7,4.6-2.1c1.1-1.4,1.7-3.3,1.7-5.8c0-2.5-0.6-4.5-1.7-5.9
			c-1.1-1.4-2.6-2.1-4.5-2.1c-1.9,0-3.4,0.7-4.6,2.2C136.4,158.5,135.8,160.4,135.8,162.8z"/>
		<path class="st1" d="M173.1,171.8c-1.4,0.8-3.1,1.1-5.1,1.1c-2.6,0-4.8-0.9-6.3-2.7c-1.6-1.8-2.4-4.2-2.4-7.1
			c0-3.2,0.9-5.7,2.7-7.6c1.8-1.9,4-2.9,6.8-2.9c1.8,0,3.2,0.3,4.4,0.8v2.7c-1.3-0.8-2.8-1.2-4.4-1.2c-2.1,0-3.7,0.7-5,2.2
			c-1.3,1.5-1.9,3.4-1.9,5.9c0,2.4,0.6,4.2,1.8,5.6c1.2,1.4,2.8,2.1,4.7,2.1c1.8,0,3.4-0.4,4.8-1.3V171.8z"/>
		<path class="st1" d="M176.2,159.5c1.3-0.9,2.8-1.3,4.5-1.3c3.2,0,4.8,1.8,4.8,5.3v9h-2.3v-2.2h-0.1c-0.9,1.7-2.3,2.5-4,2.5
			c-1.3,0-2.3-0.4-3.1-1.1c-0.8-0.7-1.1-1.7-1.1-3c0-2.6,1.5-4.2,4.4-4.6l3.9-0.6c0-2.3-0.9-3.4-2.7-3.4c-1.6,0-3,0.6-4.3,1.7V159.5
			z M180.1,166c-1.1,0.2-1.8,0.4-2.2,0.9c-0.4,0.4-0.6,1-0.6,1.8c0,0.7,0.2,1.2,0.7,1.6c0.4,0.4,1,0.6,1.8,0.6c1,0,1.9-0.4,2.5-1.1
			c0.7-0.8,1-1.7,1-2.9v-1.3L180.1,166z"/>
		<path class="st1" d="M195.5,153.9c-0.4-0.2-0.9-0.4-1.4-0.4c-1.5,0-2.2,1-2.2,2.9v2.1h3.1v2.1h-3.1v12h-2.3v-12h-2.3v-2.1h2.3
			v-2.2c0-1.5,0.4-2.7,1.2-3.5c0.8-0.9,1.9-1.3,3.1-1.3c0.7,0,1.2,0.1,1.6,0.2V153.9z"/>
		<path class="st1" d="M207.4,166.2h-9.2c0,1.5,0.4,2.7,1.2,3.5c0.7,0.8,1.8,1.2,3.1,1.2c1.5,0,2.8-0.5,4.1-1.5v2.2
			c-1.2,0.9-2.7,1.3-4.6,1.3c-1.9,0-3.4-0.6-4.5-1.9c-1.1-1.3-1.6-3.1-1.6-5.4c0-2.1,0.6-3.9,1.8-5.3c1.2-1.4,2.6-2.1,4.4-2.1
			c1.7,0,3.1,0.6,4,1.8c1,1.2,1.5,2.8,1.5,5V166.2z M205,164.2c0-1.3-0.3-2.3-0.8-2.9c-0.6-0.7-1.3-1-2.4-1c-0.9,0-1.7,0.4-2.4,1.1
			c-0.7,0.7-1.1,1.7-1.3,2.9H205z"/>
		<path class="st1" d="M215.9,154.1h5.6V170h-3.9v1.5h-1.7V154.1z M219.8,168.2v-12.3h-2.2v12.3H219.8z M222.4,155.6h1.7
			c0-1.4,0-2.9,0-4.5h1.7c0,1.7,0,3.2-0.1,4.5h4c-0.1,7.2-0.2,12.6-0.3,16.4c-0.1,2.3-0.9,3.4-2.6,3.4c-1,0-1.7,0-2.2-0.1
			c-0.1-0.6-0.2-1.2-0.3-2c0.8,0.1,1.5,0.2,2.1,0.2c0.9,0,1.4-0.6,1.4-1.9c0.1-2.7,0.2-7.4,0.3-14.2h-2.3c0,1.8-0.1,3.2-0.1,4.2
			c-0.1,6.4-1.6,11.2-4.6,14.4c-0.4-0.5-0.9-1-1.3-1.4c2.8-2.9,4.2-7.3,4.2-13.2c0-1.3,0.1-2.6,0.1-4h-1.6V155.6z M231.2,154.2h6.1
			v20.5h-1.7v-2h-2.7v2h-1.7V154.2z M235.6,156h-2.7v15.1h2.7V156z"/>
		<path class="st1" d="M239.9,153.9h6V172h-1.7v-2h-2.5v2.3h-1.7V153.9z M244.1,155.7h-2.5v12.5h2.5V155.7z M246.7,167.9h4.3v-4.4
			h-4v-1.8h4v-4.2h-4.2v-1.8h4.2v-4.5h1.7V176H251v-6.3h-4.3V167.9z M261.8,155.6v1.8h-4.5v4.2h4.3v1.8h-4.3v4.4h4.6v1.8h-4.6v6.3
			h-1.7v-24.8h1.7v4.5H261.8z"/>
		<path class="st1" d="M277.2,165.4h-5.2v5.5h-1.8v-5.5h-5.2v-1.9h5.2v-5.5h1.8v5.5h5.2V165.4z"/>
		<path class="st1" d="M280.9,164.9h3.4v-4.5h-4.2v-1.8h4.2v-4.2c-1.2,0.1-2.5,0.1-3.7,0.2c-0.1-0.6-0.2-1.2-0.4-1.8
			c3.1-0.2,6.2-0.4,9.2-0.6l0.4,1.8c-1.3,0.1-2.5,0.2-3.8,0.3v4.3h4.2v1.8h-4.2v4.5h3.4v10.9h-1.7V174h-5.2v1.8h-1.7V164.9z
			 M287.8,166.7h-5.2v5.6h5.2V166.7z M289.9,155.6h1.9v-4.4h1.8v4.4h6.3v-4.4h1.8v4.4h1.9v1.8h-1.9V176h-1.8v-2h-6.3v2h-1.8v-18.6
			h-1.9V155.6z M293.5,163.7h6.3v-6.3h-6.3V163.7z M293.5,172.2h6.3v-6.8h-6.3V172.2z"/>
		<path class="st1" d="M308.6,170.3c-1.2,2.3-2.3,4.1-3.2,5.5l-1.6-1.2c1-1.5,2.1-3.2,3.2-5.2L308.6,170.3z M306.9,158.8h7.5v-8h2v3
			H327v1.8h-10.7v3.1h8.4v9.7h-2v-1.1h-14v1.1h-2V158.8z M322.8,160.7h-14v5h14V160.7z M312.6,169.2c0.7,1.7,1.4,3.5,1.9,5.4
			l-1.9,0.7c-0.5-1.8-1.1-3.7-1.7-5.5L312.6,169.2z M318.3,169c0.8,1.7,1.5,3.4,2.1,5.3l-1.9,0.8c-0.4-1.5-1.1-3.3-1.9-5.3
			L318.3,169z M324.1,169.1c1.3,2,2.3,3.9,3.1,5.5l-1.8,1c-0.8-1.7-1.8-3.6-2.9-5.7L324.1,169.1z"/>
		<path class="st1" d="M327.6,161.6h23.7v2.2h-23.7V161.6z"/>
		<path class="st1" d="M351.4,163c2.3-3.2,4.1-7.2,5.5-11.9l1.9,0.7c-0.8,2.3-1.6,4.4-2.5,6.3v17.7h-1.8v-14.2
			c-0.7,1.3-1.5,2.5-2.3,3.6C351.9,164.5,351.6,163.8,351.4,163z M357.1,161.4c2.5-2.3,4.5-5.4,6-9.3l1.7,0.7
			c-1.5,3.9-3.6,7.3-6.3,10C358,162.2,357.5,161.7,357.1,161.4z M359.7,161.8h11.9c0,0.2-0.1,3.3-0.4,9.3c-0.1,2.9-1.3,4.4-3.7,4.4
			c-1.3,0-2.4,0-3.4-0.1c-0.1-0.8-0.2-1.5-0.4-2.1c1.1,0.2,2.2,0.2,3.3,0.3c1.5,0.1,2.3-0.8,2.3-2.7c0.1-2.3,0.2-4.7,0.3-7.3h-5.4
			c0,2.7-0.4,4.9-1.1,6.7c-0.9,2-2.3,3.9-4.4,5.7c-0.4-0.5-0.9-1.1-1.4-1.7c2-1.7,3.4-3.3,4-4.8c0.7-1.4,1-3.3,1.1-5.9h-2.8V161.8z
			 M366.4,151.8l1.6-0.7c1.6,4.3,4,7.4,7.3,9.4c-0.6,0.7-1.1,1.4-1.4,1.9C370.3,159.8,367.8,156.2,366.4,151.8z"/>
		<path class="st1" d="M85.6,207.8c-1.4,0.8-3.1,1.1-5.1,1.1c-2.6,0-4.8-0.9-6.3-2.7c-1.6-1.8-2.4-4.2-2.4-7.1
			c0-3.2,0.9-5.7,2.7-7.6c1.8-1.9,4-2.9,6.8-2.9c1.8,0,3.2,0.3,4.4,0.8v2.7c-1.3-0.8-2.8-1.2-4.4-1.2c-2.1,0-3.7,0.7-5,2.2
			c-1.3,1.5-1.9,3.4-1.9,5.9c0,2.4,0.6,4.2,1.8,5.6c1.2,1.4,2.8,2.1,4.7,2.1c1.8,0,3.4-0.4,4.8-1.3V207.8z"/>
		<path class="st1" d="M99.6,208.6h-2.3v-8.1c0-2.8-1-4.2-3-4.2c-1,0-1.9,0.4-2.5,1.2c-0.7,0.8-1,1.9-1,3.1v8h-2.3v-20.8h2.3v9.1h0
			c1-1.8,2.4-2.6,4.3-2.6c3,0,4.5,1.9,4.5,5.7V208.6z"/>
		<path class="st1" d="M103.2,195.5c1.3-0.9,2.8-1.3,4.5-1.3c3.2,0,4.8,1.8,4.8,5.3v9h-2.3v-2.2h-0.1c-0.9,1.7-2.3,2.5-4,2.5
			c-1.3,0-2.3-0.4-3.1-1.1c-0.8-0.7-1.1-1.7-1.1-3c0-2.6,1.5-4.2,4.4-4.6l3.9-0.6c0-2.3-0.9-3.4-2.7-3.4c-1.6,0-3,0.6-4.3,1.7V195.5
			z M107.1,202c-1.1,0.2-1.8,0.4-2.2,0.9c-0.4,0.4-0.6,1-0.6,1.8c0,0.7,0.2,1.2,0.7,1.6c0.4,0.4,1,0.6,1.8,0.6c1,0,1.9-0.4,2.5-1.1
			c0.7-0.8,1-1.7,1-2.9v-1.3L107.1,202z"/>
		<path class="st1" d="M134.7,208.6h-2.3v-8.1c0-1.5-0.2-2.6-0.7-3.3c-0.4-0.7-1.2-1-2.2-1c-0.9,0-1.6,0.4-2.2,1.3
			c-0.6,0.9-0.9,1.9-0.9,3v8h-2.3v-8.3c0-2.7-1-4-2.9-4c-0.9,0-1.6,0.4-2.2,1.2c-0.6,0.8-0.9,1.8-0.9,3.1v8h-2.3v-14h2.3v2.2h0
			c0.9-1.7,2.3-2.6,4.1-2.6c0.9,0,1.7,0.3,2.3,0.8c0.7,0.5,1.1,1.2,1.4,2.1c1-1.9,2.4-2.9,4.4-2.9c2.9,0,4.4,1.9,4.4,5.7V208.6z"/>
		<path class="st1" d="M140.4,206.6v8.4H138v-20.5h2.3v2.4h0c1-1.8,2.5-2.8,4.5-2.8c1.7,0,3,0.6,4,1.9c1,1.3,1.4,2.9,1.4,5.1
			c0,2.3-0.5,4.2-1.6,5.6c-1.1,1.4-2.5,2.1-4.4,2.1C142.7,208.9,141.3,208.1,140.4,206.6L140.4,206.6z M140.4,202.8
			c0,1.1,0.3,2.1,1,2.9c0.7,0.8,1.6,1.2,2.6,1.2c1.2,0,2.2-0.5,2.9-1.5c0.7-1,1.1-2.4,1.1-4.2c0-1.5-0.3-2.7-1-3.6
			c-0.7-0.9-1.5-1.3-2.7-1.3c-1.2,0-2.1,0.4-2.8,1.3c-0.7,0.9-1.1,2-1.1,3.4V202.8z"/>
		<path class="st1" d="M153.3,195.5c1.3-0.9,2.8-1.3,4.5-1.3c3.2,0,4.8,1.8,4.8,5.3v9h-2.3v-2.2h-0.1c-0.9,1.7-2.3,2.5-4,2.5
			c-1.3,0-2.3-0.4-3.1-1.1c-0.8-0.7-1.1-1.7-1.1-3c0-2.6,1.5-4.2,4.4-4.6l3.9-0.6c0-2.3-0.9-3.4-2.7-3.4c-1.6,0-3,0.6-4.3,1.7V195.5
			z M157.3,202c-1.1,0.2-1.8,0.4-2.2,0.9c-0.4,0.4-0.6,1-0.6,1.8c0,0.7,0.2,1.2,0.7,1.6c0.4,0.4,1,0.6,1.8,0.6c1,0,1.9-0.4,2.5-1.1
			c0.7-0.8,1-1.7,1-2.9v-1.3L157.3,202z"/>
		<path class="st1" d="M177.4,207.4c0,5.2-2.4,7.8-7.1,7.8c-1.6,0-3.1-0.3-4.3-1v-2.4c1.5,0.9,2.9,1.3,4.2,1.3
			c3.2,0,4.8-1.8,4.8-5.4v-1.5h0c-1,1.8-2.5,2.7-4.5,2.7c-1.7,0-3-0.6-4-1.9c-1-1.3-1.5-2.9-1.5-5c0-2.4,0.5-4.3,1.6-5.7
			c1.1-1.4,2.6-2.1,4.4-2.1c1.8,0,3.1,0.7,3.9,2.2h0v-1.9h2.3V207.4z M175,200.2c0-1.1-0.3-2-1-2.8c-0.7-0.8-1.5-1.2-2.6-1.2
			c-1.3,0-2.3,0.5-3,1.5c-0.7,1-1.1,2.4-1.1,4.1c0,1.5,0.3,2.7,1,3.6c0.7,0.9,1.6,1.4,2.7,1.4c1.1,0,2.1-0.4,2.8-1.3
			c0.7-0.9,1.1-2,1.1-3.4V200.2z"/>
		<path class="st1" d="M192.1,208.6h-2.3v-8c0-2.9-1-4.3-3-4.3c-1,0-1.9,0.4-2.5,1.2c-0.7,0.8-1,1.8-1,3.1v8H181v-14h2.3v2.3h0
			c1-1.8,2.4-2.7,4.3-2.7c1.4,0,2.5,0.5,3.3,1.5c0.8,1,1.1,2.4,1.1,4.3V208.6z"/>
		<path class="st1" d="M206.2,202.2h-9.2c0,1.5,0.4,2.7,1.2,3.5c0.7,0.8,1.8,1.2,3.1,1.2c1.5,0,2.8-0.5,4.1-1.5v2.2
			c-1.2,0.9-2.7,1.3-4.6,1.3c-1.9,0-3.4-0.6-4.5-1.9c-1.1-1.3-1.6-3.1-1.6-5.4c0-2.1,0.6-3.9,1.8-5.3c1.2-1.4,2.6-2.1,4.4-2.1
			c1.7,0,3.1,0.6,4,1.8c1,1.2,1.5,2.8,1.5,5V202.2z M203.8,200.2c0-1.3-0.3-2.3-0.8-2.9c-0.6-0.7-1.3-1-2.4-1
			c-0.9,0-1.7,0.4-2.4,1.1c-0.7,0.7-1.1,1.7-1.3,2.9H203.8z"/>
		<path class="st1" d="M225.3,208.6h-9.8v-19.7h2.4v17.4h7.4V208.6z"/>
		<path class="st1" d="M226.3,201.7c0-2.3,0.6-4.1,1.8-5.5c1.2-1.3,2.9-2,5-2c2,0,3.5,0.6,4.7,1.9c1.1,1.3,1.7,3.1,1.7,5.4
			c0,2.2-0.6,4-1.8,5.4c-1.2,1.4-2.8,2-4.8,2c-2,0-3.5-0.7-4.7-2C226.9,205.6,226.3,203.9,226.3,201.7z M228.7,201.6
			c0,1.6,0.4,2.9,1.2,3.8c0.8,0.9,1.8,1.4,3.1,1.4c1.3,0,2.4-0.5,3.1-1.4c0.7-0.9,1-2.2,1-3.9c0-1.7-0.3-3-1-3.9
			c-0.7-0.9-1.7-1.4-3.1-1.4c-1.3,0-2.3,0.5-3.1,1.4C229.1,198.6,228.7,200,228.7,201.6z"/>
		<path class="st1" d="M253,208.6h-2.4v-2.2h0c-0.9,1.7-2.2,2.5-4.1,2.5c-3.1,0-4.7-2-4.7-6v-8.4h2.3v8c0,2.9,1,4.3,3.1,4.3
			c1,0,1.8-0.4,2.5-1.2c0.6-0.8,0.9-1.8,0.9-3v-8.1h2.4V208.6z"/>
		<path class="st1" d="M267.7,208.6h-2.3v-8c0-2.9-1-4.3-3-4.3c-1,0-1.9,0.4-2.5,1.2c-0.7,0.8-1,1.8-1,3.1v8h-2.3v-14h2.3v2.3h0
			c1-1.8,2.4-2.7,4.3-2.7c1.4,0,2.5,0.5,3.3,1.5c0.8,1,1.1,2.4,1.1,4.3V208.6z"/>
		<path class="st1" d="M282.5,207.4c0,5.2-2.4,7.8-7.1,7.8c-1.6,0-3.1-0.3-4.3-1v-2.4c1.5,0.9,2.9,1.3,4.2,1.3
			c3.2,0,4.8-1.8,4.8-5.4v-1.5h0c-1,1.8-2.5,2.7-4.5,2.7c-1.7,0-3-0.6-4-1.9c-1-1.3-1.5-2.9-1.5-5c0-2.4,0.5-4.3,1.6-5.7
			c1.1-1.4,2.6-2.1,4.4-2.1c1.8,0,3.1,0.7,3.9,2.2h0v-1.9h2.3V207.4z M280.2,200.2c0-1.1-0.3-2-1-2.8c-0.7-0.8-1.5-1.2-2.6-1.2
			c-1.3,0-2.3,0.5-3,1.5c-0.7,1-1.1,2.4-1.1,4.1c0,1.5,0.3,2.7,1,3.6c0.7,0.9,1.6,1.4,2.7,1.4c1.1,0,2.1-0.4,2.8-1.3
			c0.7-0.9,1.1-2,1.1-3.4V200.2z"/>
		<path class="st1" d="M296.8,202.2h-9.2c0,1.5,0.4,2.7,1.2,3.5c0.7,0.8,1.8,1.2,3.1,1.2c1.5,0,2.8-0.5,4.1-1.5v2.2
			c-1.2,0.9-2.7,1.3-4.6,1.3c-1.9,0-3.4-0.6-4.5-1.9c-1.1-1.3-1.6-3.1-1.6-5.4c0-2.1,0.6-3.9,1.8-5.3c1.2-1.4,2.6-2.1,4.4-2.1
			c1.7,0,3.1,0.6,4,1.8c1,1.2,1.5,2.8,1.5,5V202.2z M294.5,200.2c0-1.3-0.3-2.3-0.8-2.9c-0.6-0.7-1.3-1-2.4-1
			c-0.9,0-1.7,0.4-2.4,1.1c-0.7,0.7-1.1,1.7-1.3,2.9H294.5z"/>
		<path class="st1" d="M308.8,188.6l-1.4,6.1h-2.1l1.9-6.1H308.8z M312.9,188.6l-1.4,6.1h-2.1l1.9-6.1H312.9z"/>
		<path class="st1" d="M316.3,188.9h19.2v12.4h-2v-1.8h-15.3v7.6c0,1.2,0.5,1.8,1.5,1.8h13.1c1.2,0,1.9-0.4,2.1-1.1
			c0.2-0.8,0.4-2.2,0.6-4.2c0.5,0.2,1.2,0.5,2.1,0.8c-0.3,2-0.6,3.4-0.8,4.2c-0.4,1.5-1.6,2.3-3.6,2.3h-14.1c-1.9,0-2.9-1.1-2.9-3.2
			V188.9z M324.9,197.6v-6.7h-6.7v6.7H324.9z M326.9,197.6h6.7v-6.7h-6.7V197.6z"/>
		<path class="st1" d="M343.6,203.7l0.4-0.8c-1.5,0.8-3.2,1.5-4.9,2.2c-0.3-0.5-0.7-1.1-1.2-1.7c4.5-1.2,8.3-3.3,11.2-6.2h2.1
			l-0.5,0.5c2.8,2.5,6.4,4.2,10.9,5.2c-0.4,0.6-0.7,1.3-1.1,1.9c-2-0.6-3.7-1.3-5.3-2.1l0.6,1c-1.2,0.6-2.4,1.2-3.8,1.7
			c-0.2-0.4-0.5-0.9-0.8-1.5c1.1-0.4,2.2-0.9,3.4-1.5c-1.9-1-3.6-2.2-5.1-3.6c-1.4,1.4-3.1,2.6-5,3.7c1,0.4,2,0.9,3.2,1.4l-0.8,1.5
			C345.9,204.7,344.7,204.2,343.6,203.7z M338,198.2c1.9-1.3,3.5-2.7,4.7-4.3h-4.1v-1.6h4.6v-2.5c-1.3,0.1-2.6,0.2-3.9,0.3
			c-0.1-0.5-0.2-1.1-0.3-1.7c3.3-0.1,6.4-0.4,9.2-0.8l0.3,1.7c-1.2,0.1-2.4,0.3-3.7,0.4v2.6h3.8v1.6h-3.8v1.5l0.6-0.9
			c1.4,0.7,2.4,1.4,3.2,2l-0.9,1.3c-1-0.7-1.9-1.3-2.9-1.9v3.7h-1.6v-4.2c-1.1,1.6-2.4,3-3.9,4.2C338.9,199.1,338.5,198.6,338,198.2
			z M347.8,205.9l0.7,1.5c-2.5,0.9-5.1,1.8-8,2.5c-0.1-0.5-0.3-1.1-0.6-1.7C342.3,207.7,345,206.9,347.8,205.9z M349.1,201.1h1.7
			v7.6c0,2.1-0.9,3.1-2.7,3.1c-0.9,0-1.9,0-2.8-0.1c-0.1-0.6-0.2-1.2-0.3-1.9c1,0.1,1.8,0.2,2.6,0.2c1,0,1.5-0.5,1.5-1.5V201.1z
			 M348.9,192.9c1.3-1.9,2.3-3.8,2.9-5.9l1.6,0.5c-0.2,0.7-0.5,1.3-0.7,1.9h7.5c-0.1,2.3-0.2,4.2-0.2,5.8c-0.1,1.3-0.3,2.1-0.8,2.7
			c-0.5,0.5-1.3,0.8-2.5,0.8c-0.6,0-1.3,0-2.2,0c-0.1-0.7-0.2-1.3-0.4-1.8c1,0.1,1.9,0.2,2.5,0.2c1.1,0,1.6-0.6,1.7-1.9
			c0.1-1.3,0.1-2.6,0.2-4h-2.4c-0.5,2.6-1.8,4.7-3.9,6.3c-0.3-0.5-0.7-0.9-1.1-1.3c1.8-1.3,3-3,3.5-5h-2.6c-0.6,1.2-1.2,2.2-1.9,3.1
			C349.7,193.7,349.3,193.3,348.9,192.9z M351.3,207.4l0.7-1.5c2.5,0.8,5,1.8,7.4,2.8l-0.8,1.6C356.3,209.2,353.8,208.3,351.3,207.4
			z"/>
		<path class="st1" d="M363.4,191.8H383v1.9c-4.3,4.7-9.3,9-15,12.7c1.6,1.6,3.9,2.5,6.9,2.7c3.8,0.1,7.3,0,10.6-0.1
			c-0.4,1-0.6,1.7-0.8,2.2c-1.6,0-5.2,0-10.6-0.1c-3.4-0.1-6-1.4-8-3.7c-0.2-0.2-0.3-0.2-0.5,0c-1.1,1.1-2.1,2.2-3,3.4l-1-2.1
			c1.2-1.3,2.2-2.2,3-2.8c0.5-0.4,1.1-0.6,1.6-0.5c5.5-3.6,10.2-7.4,14-11.5h-16.8V191.8z M371.5,187.8l1.8-0.9
			c0.7,1,1.4,2.2,2.2,3.7l-1.9,1.1C372.9,190.3,372.2,189,371.5,187.8z"/>
		<path class="st1" d="M385.6,203.2c2.6-2.3,4.8-5.3,6.7-8.9l1.8,1c-0.7,1.2-1.4,2.3-2.2,3.4v13.1h-1.9v-10.6
			c-1.1,1.4-2.2,2.6-3.4,3.8C386.2,204.5,385.9,203.8,385.6,203.2z M385.8,190.1h6.5v-3.1h1.9v3.1h6.5v-3.1h1.9v3.1h6.6v1.8h-6.6
			v2.5h-1.9v-2.5h-6.5v2.1h-1.9v-2.1h-6.5V190.1z M392.6,205.2c2-0.9,3.9-1.9,5.7-2.9V195h1.9v6.1c2.4-1.7,4.5-3.4,6.3-5.4l1.4,1.5
			c-2.3,2.3-4.8,4.4-7.7,6.2v4.3c0,1.1,0.5,1.7,1.6,1.7h3.3c1,0,1.5-0.5,1.7-1.5c0.2-0.9,0.3-2.2,0.4-3.8c0.7,0.3,1.3,0.5,2,0.8
			c-0.2,1.4-0.4,2.7-0.5,3.8c-0.3,1.8-1.4,2.7-3.2,2.7h-4.4c-1.9,0-2.8-1.1-2.8-3.3v-3.2c-1.4,0.8-3,1.7-4.6,2.4
			C393.4,206.5,393,205.9,392.6,205.2z"/>
		<path class="st1" d="M414,188.6l-1.9,6.1h-1.6l1.4-6.1H414z M418.1,188.6l-1.9,6.1h-1.6l1.4-6.1H418.1z"/>
		<path class="st1" d="M424.3,192.9h10.2v-2.8c-2.8,0.1-5.4,0.2-7.7,0.2c-0.1-0.6-0.2-1.2-0.3-1.8c5,0,10.8-0.3,17.5-0.8l0.3,1.8
			c-2.8,0.2-5.5,0.4-8,0.5v2.9h10.3v1.7h-8.8c2.5,2,5.7,3.6,9.5,4.6c-0.4,0.7-0.8,1.3-1.1,1.8c-4-1.5-7.4-3.5-9.9-6v4.3h-1.7v-4.3
			c-2.3,2.4-5.6,4.4-9.9,6.2c-0.2-0.4-0.6-1-1.1-1.7c3.8-1.2,7-2.8,9.4-5h-8.6V192.9z M427.4,200.1h15.7v11.7h-1.7v-1h-12.3v1h-1.7
			V200.1z M441.5,201.7h-12.3v2.9h12.3V201.7z M429.2,209.1h12.3v-2.9h-12.3V209.1z"/>
		<path class="st1" d="M447.1,203c1.7-2.9,2.9-6.1,3.7-9.5h-3.2v-1.7h3.4v-4.6h1.6v4.6h2.5v1.7h-2.5v3.4l1.1-0.7
			c0.9,1.4,1.7,2.5,2.2,3.5l-1.4,1c-0.5-1-1.1-2.1-1.9-3.4v14.6H451v-14.1c-0.9,3.1-1.9,5.6-3.1,7.5
			C447.7,204.5,447.4,203.8,447.1,203z M453.7,204.5h3.5v-10.1c3.7-0.1,7.1-0.4,10.2-1l0.5,1.8c-3.2,0.4-6.2,0.7-9,0.9v2.7h10.6v1.7
			H466v4.1h5v1.7h-17.2V204.5z M460,207l1.2,1.5c-2,1.4-4.1,2.6-6.1,3.7c-0.4-0.6-0.7-1.2-1.1-1.7C456.2,209.4,458.2,208.2,460,207z
			 M455.6,189.8h6.4c-0.4-0.8-0.7-1.6-1-2.2l1.7-0.7c0.5,1.1,0.9,2.1,1.3,2.9h6.3v4.1h-1.7v-2.4h-11.3v2.4h-1.7V189.8z M459,204.5
			h5.3v-4.1H459V204.5z M463.8,208.6l1-1.5c1.9,1,3.9,2.1,5.8,3.2l-1.1,1.8C467.1,210.5,465.2,209.4,463.8,208.6z"/>
		<path class="st1" d="M471.1,197.6h23.7v2.2h-23.7V197.6z"/>
		<path class="st1" d="M494.9,203c1.7-2.8,2.9-5.9,3.6-9.2h-3.4V192h3.7v-5h1.8v5h3.7v1.8h-3.7v3.1l1-1c0.6,0.6,1.5,1.6,2.7,2.8
			l-1.4,1.4c-1-1.3-1.8-2.2-2.2-2.7v14.7h-1.8v-14.8c-0.9,3.4-1.9,6-3.2,7.9C495.5,204.5,495.2,203.7,494.9,203z M502,204.5
			c3.6-4.2,6.2-8.8,8-13.9h-6.3v-1.8h14.8v1.8h-6.6c-0.5,1.7-1.2,3.3-1.9,4.9h1.4v16.6h-1.9v-15.6c-1.6,3.3-3.6,6.5-6,9.4
			C503.1,205.5,502.6,205,502,204.5z M511.8,197.7l1.5-1.1c2.2,2.9,4,5.4,5.4,7.5l-1.6,1.3C515.2,202.5,513.4,199.9,511.8,197.7z"/>
		<path class="st1" d="M77.1,227h-1.8v15.4h1.8v2.1h-5.9v-2.1H73V227h-1.8v-2.1h5.9V227z"/>
		<path class="st1" d="M78.7,240.9c0.6,0.5,1.3,1,2.3,1.3c0.9,0.3,1.8,0.5,2.7,0.5c2.6,0,3.9-1,3.9-2.9c0-0.5-0.1-1-0.4-1.5
			c-0.3-0.4-0.7-0.8-1.1-1.2c-0.5-0.3-1.4-0.9-2.7-1.6c-1.9-1-3.1-1.9-3.7-2.7c-0.6-0.8-0.9-1.8-0.9-2.9c0-1.6,0.6-2.9,1.8-3.9
			c1.2-1,2.8-1.4,4.7-1.4c1.8,0,3.2,0.2,4,0.7v2.8c-1.1-0.8-2.5-1.2-4.2-1.2c-1.1,0-2.1,0.3-2.8,0.8c-0.7,0.5-1.1,1.2-1.1,2.1
			c0,0.8,0.2,1.4,0.7,1.9c0.5,0.5,1.6,1.2,3.2,2c1.8,0.9,3.1,1.8,3.8,2.8c0.7,0.9,1.1,2,1.1,3.1c0,1.7-0.6,3.1-1.8,4
			c-1.2,0.9-2.8,1.4-4.9,1.4c-0.7,0-1.6-0.1-2.6-0.3c-1-0.2-1.7-0.5-2.1-0.8V240.9z"/>
		<path class="st1" d="M91.8,235c0-3.2,0.8-5.7,2.4-7.6c1.6-1.9,3.8-2.8,6.6-2.8c2.6,0,4.6,0.9,6.2,2.8s2.4,4.2,2.4,7.2
			c0,3.2-0.8,5.7-2.4,7.6c-1.6,1.9-3.8,2.8-6.4,2.8c-2.6,0-4.7-0.9-6.3-2.8S91.8,237.9,91.8,235z M94.4,234.8c0,2.4,0.6,4.3,1.7,5.7
			c1.1,1.4,2.6,2.2,4.5,2.2c2,0,3.5-0.7,4.6-2.1c1.1-1.4,1.7-3.3,1.7-5.8c0-2.5-0.6-4.5-1.7-5.9c-1.1-1.4-2.6-2.1-4.5-2.1
			c-1.9,0-3.4,0.7-4.6,2.2C94.9,230.5,94.4,232.4,94.4,234.8z"/>
		<path class="st1" d="M122.1,244.6h-9.8v-19.7h2.4v17.4h7.4V244.6z"/>
		<path class="st1" d="M138.8,244.6h-2.6l-1.9-5.4h-7.7l-1.8,5.4h-2.6l7-19.7h2.6L138.8,244.6z M133.5,237l-2.8-8.2
			c-0.1-0.3-0.2-0.7-0.3-1.4h-0.1c-0.1,0.6-0.2,1-0.3,1.4l-2.8,8.2H133.5z"/>
		<path class="st1" d="M152.2,231l-0.4,0.5c3.2,2.7,6.9,4.7,11.1,6c-0.4,0.5-0.8,1.1-1.1,1.7c-1.6-0.6-3-1.3-4.4-2v5.9
			c0.6-0.4,1.2-0.8,1.8-1.3l1.1,1.3c-1.1,0.6-2.2,1.3-3.5,2c1.6,0.5,3,1,4.3,1.4l-0.8,1.6c-3.7-1.5-7.5-2.7-11.4-3.8l0.6-1.3
			c1.9,0.5,3.8,1.1,5.4,1.5c0.8-0.5,1.6-0.9,2.2-1.3h-1.2v-0.6h-10.3v3.4c1.3-0.3,3-0.7,5-1.1c0,0.5,0,1.1,0,1.7
			c-2,0.4-3.7,0.8-5.2,1.2c-0.3,0.1-0.7,0.3-1.1,0.5l-0.9-1.5c0.4-0.4,0.6-0.8,0.6-1.3v-7.9c-1.4,0.8-2.8,1.6-4.2,2.3
			c-0.3-0.6-0.6-1.1-1-1.5c4.6-2,8.5-4.4,11.6-7.2H152.2z M141.9,230.8l1-1c0.7,0.6,1.4,1.2,2.1,1.7c1.1-0.8,2.1-1.6,3-2.6h-5.5
			c-0.7,0.8-1.4,1.6-2.1,2.3c-0.5-0.4-0.9-0.7-1.3-0.9c1.6-1.4,2.9-2.9,3.8-4.5l1.5,0.5c-0.3,0.5-0.6,0.9-0.9,1.3h1.9V223h1.6v1.5h4
			v1.3h-4v1.8h2.9v1.4c-2.5,3-5.7,5.3-9.8,6.8c-0.3-0.5-0.6-0.9-1.1-1.4c1.7-0.5,3.3-1.2,4.7-2C143.2,231.9,142.6,231.4,141.9,230.8
			z M145.5,237.3v1.4h10.3v-1.4H145.5z M155.8,241.4V240h-10.3v1.4H155.8z M149.5,234.6l1.4-0.6c0.4,0.6,0.7,1.3,1,2h3.7
			c-1.5-0.9-3.1-2-4.8-3.5c-1.5,1.2-3,2.4-4.7,3.5h4.2C150,235.6,149.7,235.1,149.5,234.6z M152,227.9l0.9-1.2
			c1.2,0.6,2.4,1.3,3.5,1.9c1.1-0.8,2.1-1.8,3-2.9h-7v-1.4h9v1.4c-1.1,1.5-2.2,2.7-3.4,3.8c1.4,0.8,2.8,1.6,4.2,2.4l-1,1.5
			c-1.5-0.9-3-1.9-4.5-2.8c-0.9,0.7-1.9,1.2-2.9,1.7c-0.3-0.4-0.7-0.9-1.1-1.4c0.9-0.3,1.7-0.7,2.5-1.2
			C153.9,229,153,228.5,152,227.9z"/>
		<path class="st1" d="M167.3,233.2c0,3.6-0.2,6.5-0.7,8.6c-0.5,2.2-1.4,4.2-2.6,6.1c-0.5-0.7-0.9-1.2-1.4-1.8
			c1-1.6,1.8-3.4,2.1-5.2c0.4-1.6,0.5-4.1,0.5-7.3v-9h20.8v1.9h-18.9V233.2z M168.2,230.8h17.9v1.9h-7.9v11.5c0,2.1-1,3.2-3,3.3
			c-1,0-2.1,0-3.3,0c-0.1-0.9-0.3-1.6-0.4-2.2c1.2,0.1,2.2,0.2,3.1,0.2c1.1,0,1.6-0.6,1.6-1.8v-11h-8V230.8z"/>
		<path class="st1" d="M186.4,242.8c1.1-0.3,2.3-0.6,3.4-0.9v-7.4h-3v-1.8h3v-5.9h-3.2v-1.8h8.2v1.8h-3.2v5.9h3v1.8h-3v6.8
			c1-0.3,2.1-0.7,3.2-1c0,0.8,0,1.5,0,2c-2.5,0.8-5.2,1.6-8.1,2.6L186.4,242.8z M195.7,239.7h10.5v1.9h-10.5V239.7z M199.3,227.4
			l-0.6,7.2h5.9l0.7-8.7h-9.2v-1.9h11.2l-0.9,10.6h2.9c-0.1,4.1-0.3,7.1-0.4,9c-0.1,2.7-1.4,4-3.9,4c-0.9,0-2.3,0-4-0.1
			c-0.1-0.6-0.2-1.4-0.3-2.2c1.3,0.1,2.8,0.2,4.3,0.2c1.3,0,2-0.8,2.1-2.4c0.1-1.4,0.2-3.6,0.3-6.7h-10.7l0.8-9H199.3z"/>
		<path class="st1" d="M210.3,239c1.7-2.8,2.9-5.9,3.6-9.2h-3.4V228h3.4v-5h1.8v5h3.1v1.8h-3.1v2.8l0.7-0.7c0.9,0.9,1.8,1.9,2.8,3
			l-1.2,1.2c-0.8-1-1.6-2-2.3-2.7v14.7h-1.8v-13.5c-0.8,2.8-1.8,5-2.8,6.6C210.9,240.5,210.6,239.7,210.3,239z M218.6,231.2
			c2.1-2.8,3.6-5.6,4.5-8.4l1.8,0.6c-0.3,0.8-0.6,1.5-1,2.3h8.6v1.8c-1.1,2-2.6,3.9-4.5,5.6c1.8,1.1,3.8,1.8,6,2.3
			c-0.4,0.8-0.6,1.5-0.8,2.2c-2.4-0.8-4.7-1.9-6.8-3.2c-2.1,1.4-4.7,2.8-7.7,4c-0.3-0.6-0.5-1.2-0.8-1.8c2.5-0.9,4.9-2,7-3.5
			c-1.2-1.2-2.2-2.5-2.9-4c-0.7,1.2-1.5,2.3-2.3,3.4C219.4,232.2,219,231.8,218.6,231.2z M220.3,238.2h11.8v9.9h-1.8v-1.3h-8.1v1.3
			h-1.8V238.2z M230.3,240.1h-8.1v5h8.1V240.1z M230.3,227.5H223c0.9,1.9,2.1,3.5,3.4,4.6C228,230.7,229.3,229.2,230.3,227.5z"/>
		<path class="st1" d="M234.4,224.4h23.2v1.9h-23.2V224.4z M237.6,248h-1.7v-19.2h8.8v15.8c0,2-0.9,3.1-2.8,3.1
			c-0.8,0-1.7,0-2.8-0.1c-0.1-0.7-0.2-1.4-0.3-1.9c1,0.1,1.9,0.2,2.7,0.2c1,0,1.5-0.5,1.5-1.4v-13.8h-5.3V248z M238.3,234.4l1.5-0.7
			c0.8,1.9,1.5,3.8,2.2,5.8l-1.7,0.7C239.6,238,238.9,236,238.3,234.4z M248.8,230.6V248h-1.7v-19.2h9.1v15.7c0,2.1-1,3.1-2.9,3.1
			c-1.1,0-2,0-2.9-0.1c-0.1-0.6-0.2-1.3-0.3-1.9c1,0.1,1.9,0.2,2.8,0.2c1.1,0,1.6-0.5,1.6-1.5v-13.7H248.8z M249.9,234.2l1.5-0.7
			c0.8,1.9,1.5,3.8,2.2,5.8l-1.7,0.7C251.2,237.8,250.5,235.8,249.9,234.2z"/>
		<path class="st1" d="M258,241.4c1.1-0.2,2.1-0.4,3.2-0.6v-9.2h-3v-1.8h3v-6.6h1.8v6.6h3v1.8h-3v8.8c1-0.2,2.1-0.4,3.1-0.7
			c0,0.7,0,1.3,0,1.9c-2.7,0.6-5.3,1.2-7.8,1.8L258,241.4z M264.9,235.1c3.7-1.9,6.2-4,7.6-6.4h2.1c-0.1,0.2-0.1,0.3-0.2,0.4
			c1.9,2.4,4.4,4.3,7.5,5.6l-1.2,2c-3.3-1.9-5.7-3.9-7.3-6c-1.6,2.1-4,4.2-7.3,6.2C265.8,236.3,265.3,235.7,264.9,235.1z
			 M265.5,225.6h3.3v-2.4h1.8v2.4h5.7v-2.4h1.8v2.4h3.3v1.8h-3.3v2.3h-1.8v-2.3h-5.7v2.3h-1.8v-2.3h-3.3V225.6z M267.3,238.8h12.4v9
			h-1.8v-1.4h-8.7v1.4h-1.8V238.8z M277.8,240.6h-8.7v4h8.7V240.6z M269.4,235.1h8.2v1.8h-8.2V235.1z"/>
		<path class="st1" d="M281.8,236.5c1-0.3,2.1-0.7,3.2-1.1v-5.8h-3v-1.7h3v-4.7h1.8v4.7h2.8v1.7h-2.8v5.2c0.9-0.3,1.7-0.7,2.6-1
			c0,0.8,0,1.5,0,2c-0.2,0.1-1.1,0.4-2.7,1.1v8.2c0,1.7-0.7,2.6-2.2,2.7c-0.7,0-1.4,0-2.2,0c0-0.3-0.1-0.9-0.3-2.1
			c0.8,0.1,1.5,0.2,2.1,0.2c0.6,0,0.9-0.4,0.9-1.1v-7.2c-0.9,0.3-1.8,0.7-2.9,1.1L281.8,236.5z M290.4,226.5h6.4V223h1.8v3.5h6.5
			v1.9l-1.1,3.4c-0.7-0.2-1.2-0.4-1.7-0.5l1-2.9h-4.7v4.9h5v1.8c-1.1,3-2.5,5.5-4.2,7.4c1.6,1.2,3.6,2.4,6.2,3.5
			c-0.4,0.7-0.8,1.4-1.1,1.9c-2.6-1.2-4.7-2.6-6.5-4c-1.9,1.6-4.1,3-6.6,4.2c-0.3-0.5-0.6-1.1-1-1.7c2.5-1.2,4.5-2.4,6.2-3.8
			c-1.7-1.9-2.8-4.3-3.4-7.4h-0.9v1.3c0,4.8-1.3,8.7-3.8,11.6c-0.5-0.5-0.9-1-1.4-1.5c2.3-2.4,3.5-5.7,3.5-10.1V226.5z M292.1,233.3
			h4.6v-4.9h-4.6V233.3z M301.5,235.2h-6.7c0.5,2.5,1.5,4.5,3,6.1C299.4,239.6,300.6,237.6,301.5,235.2z"/>
		<path class="st1" d="M305.9,225h6.8v-2.1h1.9v2.1h5.9v-2.1h1.9v2.1h6.9v1.8h-6.9v1.2h-1.9v-1.2h-5.9v1.6h-1.9v-1.6h-6.8V225z
			 M314.3,239.5c0.3,2.8-1.1,4.1-4.3,3.9c-0.1-0.8-0.3-1.5-0.4-2.2c1.3,0.2,2.1,0.3,2.4,0.1c0.4-0.2,0.6-0.7,0.5-1.5
			c-0.1-1.5-0.8-2.8-2.2-3.9c0.6-1.2,1.3-2.7,2-4.5h-3.5v16.5h-1.8v-18.2h7.2v1.7c-0.6,1.4-1.3,2.8-1.9,4.2
			C313.5,236.7,314.2,238,314.3,239.5z M329,236.7v1.7h-11.6c0,2.5-0.2,4.4-0.7,5.6c-0.5,1.3-1.5,2.7-3.1,4.1
			c-0.4-0.6-0.8-1.1-1.4-1.6c1.5-1.2,2.5-2.4,2.9-3.8c0.5-1.3,0.7-3.3,0.6-6h6.9c0.8-1.4,1.5-2.8,2.1-4.2l1.8,0.9
			c-0.8,1.3-1.6,2.4-2.2,3.4H329z M315.6,230.7h5.7c-0.3-0.6-0.6-1.2-1-1.9l1.5-0.8c0.5,0.9,0.9,1.7,1.2,2.4l-0.6,0.3h6.1v1.7h-12.9
			V230.7z M317.1,233.6l1.3-1c0.9,1.2,1.6,2.1,2,2.9l-1.5,1.1C318.5,235.6,317.9,234.6,317.1,233.6z"/>
		<path class="st1" d="M329.5,233.6h23.7v2.2h-23.7V233.6z"/>
		<path class="st1" d="M353.2,235c2.3-3.2,4.1-7.2,5.5-11.9l1.9,0.7c-0.8,2.3-1.6,4.4-2.5,6.3v17.7h-1.8v-14.2
			c-0.7,1.3-1.5,2.5-2.3,3.6C353.8,236.5,353.5,235.8,353.2,235z M359,233.4c2.5-2.3,4.5-5.4,6-9.3l1.7,0.7c-1.5,3.9-3.6,7.3-6.3,10
			C359.9,234.2,359.4,233.7,359,233.4z M361.6,233.8h11.9c0,0.2-0.1,3.3-0.4,9.3c-0.1,2.9-1.3,4.4-3.7,4.4c-1.3,0-2.4,0-3.4-0.1
			c-0.1-0.8-0.2-1.5-0.4-2.1c1.1,0.2,2.2,0.2,3.3,0.3c1.5,0.1,2.3-0.8,2.3-2.7c0.1-2.3,0.2-4.7,0.3-7.3h-5.4c0,2.7-0.4,4.9-1.1,6.7
			c-0.9,2-2.3,3.9-4.4,5.7c-0.4-0.5-0.9-1.1-1.4-1.7c2-1.7,3.4-3.3,4-4.8c0.7-1.4,1-3.3,1.1-5.9h-2.8V233.8z M368.2,223.8l1.6-0.7
			c1.6,4.3,4,7.4,7.3,9.4c-0.6,0.7-1.1,1.4-1.4,1.9C372.2,231.8,369.7,228.2,368.2,223.8z"/>
		<path class="st1" d="M82.3,259.8l1.6-0.9c0.4,0.6,0.9,1.5,1.5,2.4h9.2v1.6H74.7v8.2c0,5.2-0.8,9.5-2.5,12.7
			c-0.2-0.4-0.7-1-1.4-1.8c1.5-2.7,2.2-6.4,2.2-10.9v-9.9h10.1C82.9,260.8,82.6,260.3,82.3,259.8z M74.8,279.8v-1.5h8.7v-1.6H76
			v-1.5h7.5v-1.6c-2.2,0.1-4.6,0.1-7.3,0.2l-0.3-1.5c6.7-0.1,11.9-0.4,15.6-0.8l0.6,1.6c-1.8,0.2-4.1,0.3-7,0.4v1.7h7.6v1.5h-7.6
			v1.6h9.2v1.5h-9.2v0.6c0,2.1-0.9,3.2-2.7,3.2c-0.9,0-1.9,0-2.7-0.1c-0.1-0.6-0.2-1.2-0.3-2c0.9,0.2,1.8,0.2,2.6,0.2
			c1,0,1.5-0.6,1.5-1.8v-0.3H74.8z M74.8,270c1.4-0.7,2.6-1.8,3.9-3.4h-3.3v-1.4h3.7v-1.9h1.5v1.9h2.6v1.4h-2.6v1.2l0.6-0.7
			c0.8,0.6,1.6,1.1,2.2,1.7l-1,1c-0.7-0.6-1.4-1.1-1.9-1.5v3.1h-1.5V268c-1,1.3-2,2.4-3.2,3.4C75.6,270.9,75.2,270.5,74.8,270z
			 M82.7,270.3c1.7-0.9,3.2-2.2,4.5-3.7h-2.9v-1.4h3.4v-1.9h1.5v1.9h4.2v1.4h-3.8c1.4,1.6,3.1,2.7,5,3.5c-0.5,0.5-0.8,0.9-1.1,1.4
			c-1.6-0.9-3-2.2-4.3-3.8v3.3h-1.5v-3.3c-1.2,1.5-2.5,2.7-4,3.8C83.5,271.2,83.2,270.8,82.7,270.3z"/>
		<path class="st1" d="M96,262.3v-1.7h9.5v1.8c-2.1,3.9-5.5,7.2-10,9.8c-0.3-0.6-0.6-1.2-1-1.8c1.7-0.9,3-1.8,4.1-2.6
			c-1-1.1-2-2.2-3.1-3.2l1.1-1.2c1.2,1.2,2.3,2.2,3.3,3.3c1.3-1.2,2.5-2.7,3.4-4.3H96z M95,281.5h8c-0.6-0.6-1.4-1.4-2.5-2.5
			l1.1-1.2c1,0.8,1.9,1.8,2.9,2.7l-1,1h5.7l-0.8-0.9c1-1,1.9-1.9,2.7-2.9l1.5,1.3c-0.7,0.8-1.6,1.6-2.5,2.5h8.2v1.7H95V281.5z
			 M98.7,270.7h15.7v7.8h-1.8v-0.9h-12.1v0.9h-1.8V270.7z M112.6,272.3h-12.1v3.6h12.1V272.3z M102.4,266.8h8.1v1.7h-8.1V266.8z
			 M108.5,259.2c0.4,1,0.8,2,1.2,2.9c1.8-1,3.3-2,4.6-2.9l1.2,1.6c-1.5,0.9-3.1,1.9-4.8,2.9c0.4,0.7,0.9,1.3,1.4,1.9
			c1.7-1,3.2-2,4.7-3l1.2,1.6c-1.3,0.9-2.8,1.8-4.5,2.7c1.5,1.3,3.3,2.1,5.3,2.5c-0.5,0.7-0.9,1.4-1.3,2.1
			c-5.1-1.9-8.6-5.7-10.6-11.5L108.5,259.2z"/>
		<path class="st1" d="M122.9,281.3H121v-13.1h8.5v-3.5H119v-1.9h11.1c-0.5-1.1-1.1-2.1-1.7-3.2l1.8-0.9c0.7,1.1,1.3,2.2,1.9,3.3
			l-1.6,0.8h11.6v1.9h-10.6v3.5h8.7v9.5c0,2.1-0.9,3.2-2.8,3.2c-0.9,0-2,0-3.4-0.1c-0.1-0.6-0.2-1.2-0.3-2c1.3,0.1,2.4,0.1,3.2,0.1
			c1,0,1.6-0.6,1.6-1.7v-7.2h-6.8V284h-1.9v-13.9h-6.7V281.3z"/>
		<path class="st1" d="M143.2,275.9h10.3v-1.7h1.7v1.7h10.3v1.6H157c2.8,2.1,5.9,3.5,9.3,4.2c-0.4,0.7-0.8,1.3-1.1,1.9
			c-3.9-1.2-7.2-3.1-10-5.7v6h-1.7v-6c-2.9,2.6-6.2,4.5-10,5.8c-0.3-0.5-0.7-1.1-1.1-1.6c3.4-0.9,6.5-2.4,9.2-4.6h-8.4V275.9z
			 M153.7,259.7l1.4-0.9c0.7,0.9,1.4,1.7,1.8,2.6l-1.1,0.7h9.1v1.6h-9v1.8h8v1.5h-8v1.8h8v1.5h-8v1.9h9.1v1.6h-17.4v1H146v-9
			c-0.8,1-1.7,1.9-2.5,2.7c-0.3-0.5-0.6-1-1.1-1.7c2.3-2,4.3-4.6,5.8-7.6l1.6,0.8c-0.4,0.8-0.9,1.5-1.4,2.2h6.8
			C154.8,261.3,154.3,260.5,153.7,259.7z M147.7,265.5h6.6v-1.8h-6.6V265.5z M147.7,268.8h6.6V267h-6.6V268.8z M147.7,272.1h6.6
			v-1.9h-6.6V272.1z"/>
		<path class="st1" d="M174.6,274.1c0.5,3.2-0.3,5-2.3,5.4c-0.7,0.2-1.5,0.2-2.4,0.1c-0.1-0.7-0.3-1.4-0.5-2.1
			c0.8,0.2,1.6,0.3,2.2,0.2c1.1-0.2,1.4-1.4,1.1-3.6c-0.2-1.4-0.9-2.9-2.2-4.6c0.6-1.8,1.3-4.3,2.2-7.4h-3.5v22.2h-1.8v-23.9h7.2
			v1.8c-0.8,2.4-1.5,4.7-2.2,7.1C173.7,270.9,174.4,272.6,174.6,274.1z M176.1,260.3h11.3V273h-1.8v-0.7h-4c0.5,1.5,1.2,2.9,2,4.1
			c1.4-1,2.9-2.2,4.5-3.6l1.3,1.6c-1.8,1.3-3.3,2.4-4.7,3.4c1.4,1.5,3.1,2.7,5.2,3.6c-0.6,0.6-1.1,1.2-1.5,1.9
			c-4.4-2.5-7.3-6.1-8.5-10.9h-2.1v8.6c1.1-0.5,2.5-1.3,4.2-2.2c0,0.8,0.1,1.4,0.1,2c-1.4,0.7-2.8,1.5-4.1,2.4
			c-0.3,0.2-0.7,0.5-1.3,1.1l-1.4-1.9c0.5-0.4,0.7-1,0.7-1.7V260.3z M185.7,262h-7.8v3.4h7.8V262z M185.7,270.5v-3.4h-7.8v3.4H185.7
			z"/>
		<path class="st1" d="M190.2,281.7h11v-1.4h-9.6v-1.3h9.6v-1.4h-5.7v0.7h-1.6v-7.8h16.3v7.8h-1.6v-0.7h-5.8v1.4h9.6v1.3h-9.6v1.4
			h11v1.4h-23.6V281.7z M190.4,267.8h23.3v1.4h-23.3V267.8z M194,260h16v7.3h-1.6v-0.7h-12.7v0.7H194V260z M195.4,273.3h5.7v-1.6
			h-5.7V273.3z M195.4,276.2h5.7v-1.7h-5.7V276.2z M208.4,261.3h-12.7v1.3h12.7V261.3z M195.6,265.2h12.7v-1.4h-12.7V265.2z
			 M208.5,271.7h-5.8v1.6h5.8V271.7z M202.8,276.2h5.8v-1.7h-5.8V276.2z"/>
		<path class="st1" d="M221.6,283.6h-1.7v-9.6h-2.6c-0.1,4.1-0.7,7.4-2,10c-0.4-0.5-0.8-1-1.4-1.5c1.1-2.1,1.7-5.3,1.7-9.6v-13h1.7
			v6.9h2.5v-7.6h1.7v7.6h2v1.6h-6.2v4h4.3V283.6z M224.5,261c4.6-0.1,8.6-0.4,12-1.1l0.6,1.9c-4.5,0.5-8.2,0.8-11,0.9v4.2h10.1v1.5
			c-0.6,4.1-1.9,7.3-3.7,9.8c1.2,1.3,2.9,2.5,5.1,3.6c-0.6,0.7-1.1,1.3-1.5,1.9c-2.1-1.3-3.7-2.7-4.8-4c-1.3,1.4-3.1,2.9-5.4,4.3
			c-0.3-0.6-0.7-1.2-1.2-1.8c2.4-1.2,4.2-2.6,5.5-3.9c-1.6-2.4-2.6-5.6-3.1-9.6h-1.1v3.9c0,4.7-1,8.5-3.1,11.5
			c-0.4-0.6-0.8-1.1-1.2-1.6c1-1.7,1.7-3.4,2.1-5c0.3-1.5,0.5-3.6,0.5-6.3V261z M234.5,268.5H229c0.4,3.3,1.2,6,2.6,8.2
			C233,274.7,233.9,272,234.5,268.5z"/>
		<path class="st1" d="M237.9,273.7h10.8v-4.5h-9.1v-2h9.1v-4.6c-3,0.1-6.1,0.2-9.2,0.3c-0.1-0.7-0.2-1.4-0.4-2.1
			c8.1-0.1,14.7-0.4,19.8-0.9l0.3,2.1c-2.8,0.2-5.6,0.4-8.5,0.5v4.7h8.7v2h-8.7v4.5h10.7v2h-10.7v4.7c0,2.1-1,3.1-3,3.1
			c-1,0-2.4,0-4.2,0c-0.1-0.8-0.2-1.5-0.4-2.3c1.8,0.1,3.1,0.2,4,0.2c1,0,1.5-0.6,1.5-1.7v-4h-10.8V273.7z"/>
		<path class="st1" d="M261.5,272.4c1-0.5,2-1,3.1-1.5v-5.4h-2.9v-1.7h2.9v-4.7h1.8v4.7h3.1v1.7h-3.1v4.5c0.9-0.5,1.8-1,2.7-1.5
			c0,0.7,0.1,1.3,0.2,2c-1,0.5-2,1-2.9,1.6v8.8c0,1.6-0.6,2.5-1.8,2.7c-0.8,0.1-1.8,0.1-2.8,0.1c-0.1-0.7-0.2-1.4-0.3-2.1
			c0.9,0.1,1.6,0.2,2.2,0.2c0.5,0,0.8-0.3,0.8-0.9v-7.7c-1,0.5-1.9,1.1-2.8,1.6L261.5,272.4z M267.3,282.8c2.2-2,3.5-4.9,3.8-8.6
			h1.8c-0.1,1.2-0.2,2.3-0.5,3.3c1,1.6,2.3,2.8,4,3.3v-7.6H269v-1.7H285v1.7h-6.9v2.8h6v1.6h-6v3.6c1.1,0.1,3.5,0.1,7.2,0
			c0,0.1-0.2,0.7-0.5,1.9c-1.9,0.1-3.9,0-5.9-0.1c-3.2,0-5.6-1.2-7.1-3.6c-0.7,1.8-1.6,3.3-2.9,4.5
			C268.4,283.6,267.9,283.2,267.3,282.8z M271,260.1h11.9v10h-1.7v-0.7h-8.5v0.7H271V260.1z M281.2,261.7h-8.5v2.2h8.5V261.7z
			 M272.7,267.8h8.5v-2.2h-8.5V267.8z"/>
		<path class="st1" d="M299.2,279.6c0,0.7,0,1.4,0,2c-2.1,0.7-3.8,1.2-5.1,1.7c-0.6,0.2-1.2,0.5-1.7,0.8l-1.1-1.5
			c0.4-0.4,0.6-1,0.6-1.8v-2c-1.7,1-3.5,2-5.5,2.8c-0.3-0.6-0.7-1.2-1-1.7c4-1.5,7.3-3.4,9.9-5.8h-9.6v-1.7h11.6c-0.5-1-1.1-2-1.7-3
			l1.5-1c0.7,1.1,1.4,2.1,1.9,3.1l-1.3,0.8H309v1.7h-10.8c0.7,1.4,1.5,2.5,2.6,3.5c1.3-0.6,3-1.6,5.2-2.9l1,1.9
			c-2,0.9-3.6,1.6-4.8,2.1c1.9,1.3,4.2,2.1,6.9,2.5c-0.5,0.7-0.9,1.3-1.3,1.9c-5.2-1.1-8.9-3.8-11.1-8.2c-0.9,0.9-1.9,1.8-3,2.6v3.9
			C295.6,280.8,297.5,280.2,299.2,279.6z M292.6,258.9l1.5,1.2c-0.9,1.2-1.8,2.4-2.7,3.4v7.5h-1.7v-5.8c-1.1,1-2.2,1.9-3.3,2.7
			c-0.3-0.8-0.5-1.5-0.7-1.9C288.2,264.2,290.5,261.9,292.6,258.9z M292.6,264l5.5-0.4c-0.4-1.2-0.7-2.6-0.9-4.1l1.8-0.3
			c0.2,1.6,0.5,3,1,4.3l8.8-0.7l0.2,1.8l-8.2,0.6c0.9,1.7,2.2,3,3.7,3.7c0.6,0.3,1.1,0.5,1.6,0.5c0.5,0,0.9-0.3,1-1
			c0.2-0.8,0.3-1.7,0.4-2.5c0.7,0.3,1.2,0.5,1.8,0.7c-0.2,1.1-0.4,2.1-0.6,3c-0.4,1.2-1.1,1.7-2.1,1.7c-1.1,0-2.2-0.3-3.2-0.8
			c-1.9-1-3.3-2.7-4.4-5.1l-6,0.4L292.6,264z M301.6,260.2l1-1.3c1.4,1,2.5,1.8,3.1,2.4l-1.1,1.4
			C303.5,261.6,302.4,260.8,301.6,260.2z"/>
		<path class="st1" d="M309.3,269.6H333v2.2h-23.7V269.6z"/>
		<path class="st1" d="M346.5,259.5l-0.4,0.6c2.6,4.5,6.2,7.8,10.7,9.7c-0.5,0.8-0.9,1.6-1.3,2.3c-4.7-2.6-8.2-6-10.6-10.1
			c-2.4,3.9-5.9,7.4-10.7,10.4c-0.3-0.6-0.8-1.3-1.2-2c5-2.9,8.7-6.6,11.1-10.9H346.5z M343.8,268.3h2.2V284h-2.2V268.3z"/>
		<path class="st1" d="M71.9,316.7h18.9v-4.4H73.4v-1.8h17.4v-4.3H72.6v-1.8h9.2V295h2v9.4h9v15.6h-2v-1.5H71.9V316.7z M73.4,297.6
			l1.3-1.3c1.7,1.7,3.3,3.5,4.8,5.4l-1.6,1.4C76.6,301.2,75,299.4,73.4,297.6z M92.4,297.7c-1.7,2-3.4,3.9-5.1,5.5l-1.4-1.4
			c1.6-1.6,3.3-3.4,4.9-5.6L92.4,297.7z"/>
		<path class="st1" d="M98.1,296.6h17v23.1h-2v-1.8h-13v1.8h-2V296.6z M100.2,298.5v7.6h13v-7.6H100.2z M100.2,308v8h13v-8H100.2z"
			/>
		<path class="st1" d="M132.2,295.3l-0.5,0.6c2.7,3.7,6.2,6.5,10.6,8.4c-0.5,0.7-0.9,1.4-1.3,2c-4.2-2.2-7.7-5.2-10.6-8.9
			c-2.4,3.4-6,6.4-10.8,9.2c-0.3-0.6-0.7-1.2-1.2-1.9c4.9-2.6,8.6-5.8,11.1-9.5H132.2z M119.7,317h9.9v-4.4h-7.7v-1.9h7.7v-3.9h-6.9
			v-1.9h15.7v1.9h-6.9v3.9h7.8v1.9h-7.8v4.4h9.8v1.9h-21.7V317z"/>
		<path class="st1" d="M142.4,318c6-2.7,9.4-6.5,10.4-11.3h-10.1v-1.9h10.3c0.1-1.2,0.1-3.3,0.1-6.2H144v-1.9h20.6v1.9h-9.4
			c0,1.8,0,3.8-0.1,6.2h10.7v1.9h-10.4c1.5,5.4,5.1,9,10.7,10.8c-0.7,0.8-1.2,1.5-1.6,2.1c-5.2-2.2-8.6-5.9-10.2-11
			c-1.3,4.8-4.7,8.6-10.4,11.4C143.6,319.5,143.1,318.8,142.4,318z"/>
		<path class="st1" d="M166.4,318.4c4.6-1.6,7.7-4.2,9.3-7.8h-4.7v1h-1.8v-7.6c-0.5,0.5-1.1,1-1.6,1.4c-0.2-0.3-0.6-0.8-1.3-1.7
			c2.8-2,5.5-5,7.9-8.7l1.8,0.7c-0.4,0.7-0.9,1.3-1.3,2h9.3v1.8l-2.7,2.8h5.7v9.3h-1.8v-1h-7.5c-1.5,4.3-4.8,7.5-10,9.7
			C167.2,319.4,166.8,318.8,166.4,318.4z M181.4,299.4h-8.1c-0.8,1-1.6,2-2.5,2.9h7.9L181.4,299.4z M170.9,308.8h5.3
			c0.4-1.4,0.6-3,0.7-4.8h-6V308.8z M178,311.9h1.8v3.8c0,0.7,0.1,1.2,0.4,1.5c0.3,0.3,0.8,0.4,1.5,0.4h4.1c1.1,0,1.8-0.5,2-1.5
			c0.2-1.1,0.3-2.3,0.4-3.7c0.6,0.3,1.2,0.5,1.8,0.7c-0.1,1.3-0.3,2.5-0.4,3.6c-0.3,1.8-1.5,2.8-3.7,2.8h-4.8c-1.2,0-2-0.3-2.5-0.8
			c-0.4-0.4-0.7-1.3-0.7-2.6V311.9z M185.1,304h-6.3c-0.1,1.8-0.3,3.4-0.6,4.8h7V304z"/>
		<path class="st1" d="M191.7,297.3h6.8c0-0.8,0-1.5,0-2.1h1.7c0,0.7,0,1.4,0,2.1h4.2v-2.1h1.7v2.1h5.8v5.8h-1.7v-0.6h-4v2.3h6.8
			c0,1.2-0.1,2.3-0.3,3.1c-0.2,1.2-0.9,1.8-2.1,1.8c-0.2,0-0.4,0-0.7,0v6.2h-1.7v-5.2h-12v5.5h-1.7v-5.5c-1,0.5-2.1,0.9-3.3,1.3
			c-0.2-0.5-0.5-1.1-1-1.8c3.6-0.8,6-2.1,7.2-4H192l0.8-5.2h5.7c0-0.7,0.1-1.4,0.1-2.2h-6.8V297.3z M201.3,312h1.7
			c0,1.1-0.1,2-0.3,2.9c3.6,1.1,6.9,2.3,9.9,3.4l-0.9,1.8c-3.2-1.3-6.4-2.5-9.6-3.6c-1,1.7-4.2,2.9-9.8,3.6
			c-0.3-0.8-0.6-1.4-0.8-1.8c3.7-0.4,6.4-1,8.3-2C200.8,315.8,201.3,314.4,201.3,312z M194,304.7h4c0.2-0.6,0.3-1.4,0.4-2.3h-4.1
			L194,304.7z M207.8,307.8c0.9,0.1,1.6,0.2,2.2,0.2c0.6,0,1-0.3,1.1-0.8c0.1-0.4,0.1-0.7,0.1-1h-5.1v2.5h-1.7v-2.5h-5.1
			c-0.4,1-1.2,2-2.2,2.8h11.1C208.1,308.7,208,308.3,207.8,307.8z M199.8,304.7h4.7v-2.3h-4.3C200,303.3,199.9,304.1,199.8,304.7z
			 M200.2,300.9h4.2v-2.2h-4.2C200.3,299.5,200.3,300.3,200.2,300.9z M210.2,298.7h-4v2.2h4V298.7z"/>
		<path class="st1" d="M213.8,307.3c2.2-3.7,3.9-7.8,4.9-12.3l1.8,0.5c-0.6,2.1-1.2,4.1-1.9,5.9v18.5H217v-14.7
			c-0.7,1.5-1.5,2.9-2.3,4.2C214.4,308.6,214.1,307.9,213.8,307.3z M219.9,307.5h17.4v4h-1.7v-2.4h-14.1v2.4h-1.7V307.5z
			 M220.5,297.8h7.3c-0.3-0.8-0.7-1.5-1.1-2.3l1.6-0.8c0.5,1,1,2,1.4,3h7.3v1.6h-16.5V297.8z M222.3,311.3h12.6v1.6h-4.7v3.7
			c0,2-0.9,3-2.6,3c-0.8,0-1.8,0-3,0c-0.1-0.6-0.2-1.3-0.4-2c1,0.1,2,0.2,2.9,0.2c0.9,0,1.4-0.6,1.4-1.7v-3.1h-6.2V311.3z
			 M222.5,300.9h12v5.7h-1.7v-0.7h-8.7v0.7h-1.7V300.9z M232.8,302.4h-8.7v1.9h8.7V302.4z"/>
		<path class="st1" d="M238,312.8h11.6v-4.3h-8.8v-1.9c1.1-2,2.1-4,3-5.9h-4.9v-1.9h5.8c0.6-1.4,1.2-2.7,1.7-4l1.8,0.6
			c-0.5,1.2-1,2.3-1.5,3.4h13.4v1.9h-14.3c-1.1,2.3-2,4.3-2.9,6h6.7v-4.9h1.9v4.9h6.9v1.8h-6.9v4.3h9.5v1.9h-9.5v5.3h-1.9v-5.3H238
			V312.8z"/>
	</g>
	<g>
		<path class="st1" d="M71.1,399.2h3.6c0.3-0.6,0.7-1.3,1-2l1.7,0.6c-0.2,0.5-0.5,0.9-0.7,1.4h5.7v1.7c-0.6,1.7-1.5,3.1-2.7,4.4
			c0.9,0.4,1.7,0.9,2.6,1.3l-1,1.8c-1-0.6-2-1.2-3-1.8c-1.8,1.4-4,2.5-6.7,3.2c-0.2-0.5-0.5-1.1-0.8-1.8c2.3-0.6,4.2-1.4,5.8-2.4
			c-1.3-0.7-2.7-1.5-4.2-2.3c0.5-0.8,1-1.6,1.4-2.4h-2.7V399.2z M71.4,390.5h5.4v-5.7h1.7v5.7H83v1.7h-4.5v1.5l0.7-0.9
			c1.4,1.2,2.7,2.2,3.6,3l-1.1,1.4c-0.9-0.9-1.9-1.9-3.2-3v2.9h-1.7v-3.6c-1.4,1.6-3.1,3-5,4.2c-0.3-0.5-0.6-1-1-1.5
			c2-1.2,3.8-2.6,5.4-4.2h-4.8V390.5z M72,386.5l1.3-1c0.7,0.9,1.4,1.9,2.2,3l-1.4,1.1C73.4,388.6,72.7,387.5,72,386.5z M74.6,402.7
			c1.1,0.5,2.2,1.1,3.4,1.7c1.1-1,1.9-2.2,2.5-3.5h-4.9C75.4,401.5,75,402.1,74.6,402.7z M81.9,385.4l1.4,1
			c-0.9,1.2-1.7,2.3-2.6,3.4c-0.4-0.3-0.8-0.7-1.3-1.1C80.4,387.7,81.2,386.6,81.9,385.4z M86.2,384.6l1.9,0.3
			c-0.3,1.6-0.7,3.2-1.1,4.6h7.1v1.7h-1.5c-0.4,5-1.4,8.9-3,11.9c1.3,1.9,2.9,3.4,4.8,4.6c-0.5,0.7-0.9,1.4-1.3,2
			c-1.9-1.3-3.5-2.9-4.7-4.8c-1.4,1.9-3.1,3.6-5.1,5c-0.3-0.5-0.8-1-1.3-1.6c2.2-1.6,3.9-3.3,5.3-5.3c-1.3-2.4-2.1-5.1-2.5-8.2
			c-0.3,0.6-0.7,1.2-1,1.8c-0.3-0.5-0.7-1-1.2-1.6C84.4,392.1,85.6,388.6,86.2,384.6z M90.7,391.2h-4.4c-0.1,0.2-0.2,0.4-0.3,0.6
			c0.3,3.6,1.1,6.7,2.3,9.2C89.7,398.6,90.4,395.3,90.7,391.2z"/>
		<path class="st1" d="M94.9,407.2h10.7v-1.4h-9.4v-1.3h9.4V403h-5.6v0.7h-1.6v-7.8h16v7.8h-1.6V403h-5.6v1.4h9.4v1.3h-9.4v1.4H118
			v1.4H94.9V407.2z M95.1,393.3h22.8v1.4H95.1V393.3z M98.7,385.5h15.7v7.3h-1.6v-0.7h-12.5v0.7h-1.6V385.5z M100.1,398.8h5.6v-1.6
			h-5.6V398.8z M100.1,401.7h5.6V400h-5.6V401.7z M112.7,386.8h-12.5v1.3h12.5V386.8z M100.3,390.8h12.5v-1.4h-12.5V390.8z
			 M112.9,397.2h-5.6v1.6h5.6V397.2z M107.3,401.7h5.6V400h-5.6V401.7z"/>
		<path class="st1" d="M125.4,409.4h-1.8v-13.1c-1.1,1.4-2.4,2.8-3.7,4.1c-0.3-0.6-0.7-1.2-1.1-1.9c3-2.7,5.4-5.8,7-9.1h-6.4v-1.9
			h7.3c0.4-1.1,0.8-2.1,1.1-3.2l1.9,0.5c-0.3,0.9-0.7,1.9-1,2.8h13.2v1.9h-14c-0.5,1-1,2-1.6,2.9H139v13.6c0,2.1-0.9,3.1-2.8,3.1
			c-0.8,0-2.1,0-3.8,0c-0.1-0.6-0.2-1.3-0.4-2.1c1.4,0.1,2.6,0.2,3.5,0.2c1.1,0,1.6-0.6,1.6-1.7v-1.8h-11.8V409.4z M137.1,394.2
			h-11.8v3h11.8V394.2z M125.4,402h11.8v-3h-11.8V402z"/>
		<path class="st1" d="M150.8,399.6c0.5,3.2-0.3,5-2.2,5.4c-0.7,0.2-1.5,0.2-2.4,0.1c-0.1-0.7-0.3-1.4-0.5-2.1
			c0.8,0.2,1.5,0.3,2.1,0.2c1.1-0.2,1.4-1.4,1.1-3.6c-0.2-1.4-0.9-2.9-2.1-4.6c0.6-1.8,1.3-4.3,2.2-7.4h-3.5v22.2h-1.8v-23.9h7.1
			v1.8c-0.8,2.4-1.5,4.7-2.2,7.1C150,396.5,150.7,398.1,150.8,399.6z M152.3,385.9h11.1v12.6h-1.7v-0.7h-3.9c0.5,1.5,1.1,2.9,2,4.1
			c1.4-1,2.9-2.2,4.4-3.6l1.2,1.6c-1.7,1.3-3.2,2.4-4.6,3.4c1.4,1.5,3.1,2.7,5.1,3.6c-0.6,0.6-1.1,1.2-1.5,1.9
			c-4.3-2.5-7.1-6.1-8.4-10.9h-2v8.6c1-0.5,2.4-1.3,4.1-2.2c0,0.8,0.1,1.4,0.1,2c-1.4,0.7-2.7,1.5-4,2.4c-0.3,0.2-0.7,0.5-1.3,1.1
			l-1.3-1.9c0.5-0.4,0.7-1,0.7-1.7V385.9z M161.7,387.6h-7.6v3.4h7.6V387.6z M161.7,396.1v-3.4h-7.6v3.4H161.7z"/>
		<path class="st1" d="M179.5,403l-2,6.8h-1.6l1.4-6.8H179.5z"/>
		<path class="st1" d="M194.5,389.8h1.5v8.4c0,1.6-0.2,3.2-0.5,4.8l0.9-0.8c1.5,1.7,2.9,3.4,4.1,4.9l-1.4,1.3
			c-1.1-1.6-2.3-3.2-3.7-4.8c-0.7,2.5-1.9,4.5-3.5,6c-0.4-0.5-0.8-1-1.2-1.5c2.5-2.1,3.8-5.3,3.8-9.6V389.8z M191.6,385.8h7.4v15.9
			h-1.5v-14.3h-4.3v14.4h-1.5V385.8z M200.4,387.9h3.4c-0.6-1-1.2-1.8-1.7-2.4l1.2-1c0.7,0.7,1.3,1.5,2,2.5l-1.1,1h3.1
			c0.8-1.1,1.6-2.2,2.3-3.4l1.4,1.1c-0.6,0.8-1.2,1.5-1.8,2.4h3.5v9.7h-1.5v-0.8h-9.4v0.8h-1.5V387.9z M201.4,398.8h10.6v10.8h-1.6
			v-1.2H203v1.2h-1.6V398.8z M201.9,395.2h3.9v-5.7h-3.9V395.2z M202.5,391.1l1.2-0.7c0.7,1.2,1.2,2.3,1.6,3.3l-1.4,0.7
			C203.5,393.2,203,392.2,202.5,391.1z M210.3,400.5H203v2.4h7.4V400.5z M203,406.9h7.4v-2.4H203V406.9z M211.3,389.5h-4v5.7h4
			V389.5z M210.7,391.1c-0.5,1.2-1,2.3-1.5,3.3l-1.3-0.8c0.5-0.9,1-2,1.5-3.2L210.7,391.1z"/>
		<path class="st1" d="M215.1,398.1h22v1.8h-7.5v5.4c0,1.1,0.5,1.7,1.5,1.7h2.5c1.1,0,1.7-0.4,1.8-1.2c0.1-0.8,0.2-1.9,0.3-3.3
			c0.6,0.2,1.2,0.5,2.1,0.8c-0.1,1.4-0.2,2.5-0.4,3.4c-0.2,1.5-1.2,2.2-2.8,2.2h-3.8c-1.9,0-2.9-1.1-2.9-3.2v-5.7h-4.2
			c0,4.8-2.6,8-7.7,9.5c-0.3-0.6-0.7-1.2-1.2-1.9c4.6-1.2,7-3.8,7-7.7h-6.5V398.1z M215.3,387.7h10c-0.3-0.7-0.7-1.5-1.2-2.4
			l1.8-0.9c0.6,1.3,1.1,2.4,1.5,3.3h9.3v4.7h-1.9v-2.9h-17.7v2.9h-1.9V387.7z M218,392.9h16.4v1.8H218V392.9z"/>
		<path class="st1" d="M246.2,399.4c1.9,2.5,3.5,4.6,4.8,6.5l-1.5,1.2c-0.6-0.9-1.2-1.8-1.8-2.7c-2.3,1.2-4.3,2.2-5.8,3
			c-0.5,0.3-1,0.7-1.4,1.1l-1.3-1.7c0.5-0.5,0.7-1.2,0.7-1.9v-18.8h9.4v13.1h-1.8v-0.6h-5.9v6.7c1.5-0.7,3.2-1.5,5-2.4
			c-0.6-0.9-1.2-1.7-1.8-2.6L246.2,399.4z M247.6,388h-5.9v3.6h5.9V388z M247.6,396.9v-3.6h-5.9v3.6H247.6z M251.9,386.5h8.2v15.4
			c0,2.2-1,3.2-2.9,3.2c-0.7,0-1.6,0-2.7,0c-0.1-0.7-0.2-1.5-0.3-2.2c1.2,0.1,2,0.2,2.6,0.2c1,0,1.5-0.6,1.5-1.8v-12.9h-4.7v21.2
			h-1.8V386.5z"/>
		<path class="st1" d="M262.5,405.4h4.1v-16.2h2v16.2h5.7v-20.9h2v7.5h7.8v2h-7.8v11.4h9.1v2.1h-22.9V405.4z"/>
		<path class="st1" d="M299.1,403l-2,6.8h-1.6l1.4-6.8H299.1z M297.8,391.8c0.4,0,0.8,0.2,1.1,0.5c0.3,0.3,0.4,0.7,0.4,1.1
			s-0.1,0.8-0.4,1.1c-0.3,0.3-0.6,0.5-1.1,0.5c-0.4,0-0.8-0.2-1.1-0.5c-0.3-0.3-0.4-0.7-0.4-1.1s0.1-0.8,0.4-1.1
			C297.1,391.9,297.4,391.8,297.8,391.8z"/>
		<path class="st1" d="M310.1,396.6c2.4-3.5,4.2-7.5,5.5-12l1.9,0.7c-0.8,2.4-1.6,4.5-2.5,6.5v17.6h-1.8v-14.1
			c-0.7,1.3-1.5,2.5-2.3,3.6C310.6,398.2,310.4,397.4,310.1,396.6z M316.6,391.4h5.1c0.1-1.9,0.1-4.2,0.1-6.8h1.9
			c0,2.5,0,4.8-0.1,6.8h9.3v1.9h-6.4v11.9c0,0.9,0.5,1.4,1.4,1.4h1.5c1,0,1.6-0.6,1.7-1.7c0.1-1,0.2-2.3,0.3-3.9
			c0.6,0.3,1.3,0.5,1.9,0.8c-0.1,1.5-0.3,2.8-0.4,3.9c-0.2,1.1-0.5,1.8-1,2.3c-0.5,0.4-1.2,0.6-2.3,0.6h-1.9c-1.1,0-1.9-0.2-2.3-0.7
			c-0.5-0.4-0.7-1.3-0.7-2.5v-12.1h-1.1c-0.2,6.4-2.3,11.8-6.4,16.1c-0.4-0.6-0.9-1.1-1.4-1.7c3.8-3.9,5.8-8.7,5.9-14.4h-5V391.4z
			 M327,385c1.7,1.2,3.1,2.2,4.2,3.2c-0.4,0.5-0.8,1.1-1.2,1.6c-1.3-1.2-2.6-2.4-4-3.5L327,385z"/>
		<path class="st1" d="M336.4,402.6l1.6,0.7c-0.7,2-1.5,3.7-2.3,5.1c-0.5-0.3-1-0.6-1.6-0.9C335.1,406,335.8,404.4,336.4,402.6z
			 M351.4,398.9l1.2-1c1.6,1.5,3.1,2.8,4.3,4.1l-1.4,1.2c-0.6-0.7-1.2-1.3-1.8-2c-4.1,0.1-10.4,0.2-19,0.5l-0.1-1.9
			c3.5,0,6.9,0,10.2-0.1v-2.1h-6.7v0.6h-1.6v-8.4h8.3v-1.8h-10.2v-1.6h10.2v-2.1h1.6v2.1h10.2v1.6h-10.2v1.8h8.3v7.8h-8.3v2
			c2,0,3.9-0.1,5.8-0.1C352,399.4,351.7,399.1,351.4,398.9z M338.1,393.1h6.7v-1.7h-6.7V393.1z M338.1,396.3h6.7v-1.7h-6.7V396.3z
			 M339.8,402.6h1.8v2.8c0,1,0.5,1.5,1.6,1.5h4.9c1.1,0,1.7-0.4,1.8-1.1c0.1-0.7,0.2-1.5,0.3-2.5c0.2,0.1,0.8,0.3,1.7,0.8
			c-0.1,0.9-0.2,1.7-0.4,2.4c-0.3,1.5-1.3,2.2-3.2,2.2h-5.7c-2,0-2.9-1-2.9-3.1V402.6z M343.8,402.6l1.3-1c1.2,1.1,2.1,2.1,2.8,3
			l-1.4,1.2C345.7,404.7,344.8,403.7,343.8,402.6z M353.2,391.4h-6.7v1.7h6.7V391.4z M353.2,396.3v-1.7h-6.7v1.7H353.2z
			 M352.8,403.9l1.3-1c0.8,1,1.9,2.3,3.1,4l-1.5,1.2C355,406.8,354,405.5,352.8,403.9z"/>
		<path class="st1" d="M365.6,403.3c0,0.6,0.1,1.3,0.2,2.2c-2.2,1.5-3.7,2.7-4.6,3.5l-1.1-1.7c0.5-0.5,0.8-1.2,0.8-2.2v-10.1H358
			v-1.8h4.6v12.3C363.5,404.9,364.5,404.1,365.6,403.3z M360.2,384.9c1.4,1.5,2.6,2.9,3.7,4.2l-1.6,1.5c-1.1-1.6-2.3-3.1-3.4-4.4
			L360.2,384.9z M364.5,400.6h7.2v-3.8h-6v-1.9h6v-3.8h-6.6v-1.9h8.4c1.3-1.8,2.3-3.5,3-4.9l1.9,1.2c-0.7,1-1.7,2.2-2.8,3.6h4.9v1.9
			h-6.9v3.8h6.3v1.9h-6.3v3.8h7.5v1.9h-7.5v7.1h-1.9v-7.1h-7.2V400.6z M366.9,385.6l1.4-1.1c1,1.2,1.9,2.4,2.7,3.5l-1.6,1.2
			C368.7,387.9,367.8,386.7,366.9,385.6z"/>
		<path class="st1" d="M382.7,390.4l1.5,0.2c-0.2,2-0.5,4.2-0.8,6.5c-0.4-0.1-0.9-0.2-1.5-0.4C382.2,395.1,382.5,393,382.7,390.4z
			 M385,384.6h1.7v5.2l0.9-0.7c0.8,1,1.5,2,2.1,2.8l-1.3,1c-0.5-0.8-1.1-1.6-1.7-2.6v19H385V384.6z M388.7,393.3h7.1v-1.8H390V390
			h5.9v-1.7h-6.5v-1.6h6.5v-2.3h1.8v2.3h7v1.6h-7v1.7h6.4v1.6h-6.4v1.8h7.5v1.6h-16.4V393.3z M392,409.3h-1.8v-12.9h13.1v9.8
			c0,1.9-0.8,2.8-2.4,2.9c-1,0-2.4,0-4,0c-0.1-0.5-0.2-1.2-0.4-2c1.5,0.1,2.7,0.2,3.6,0.2c0.9,0,1.3-0.4,1.3-1.2v-1.4H392V409.3z
			 M401.6,398.1H392v1.8h9.6V398.1z M392,403.2h9.6v-1.8H392V403.2z"/>
		<path class="st1" d="M413.2,403c0,0.8,0.1,1.6,0.2,2.2c-1.7,1.2-3.1,2.3-4.3,3.3l-1.1-1.7c0.5-0.5,0.8-1.3,0.8-2.2v-9.6h-2.9v-1.9
			h4.6V405C411.4,404.4,412.3,403.7,413.2,403z M408.5,385.2c1.3,1.4,2.4,2.6,3.4,3.8l-1.6,1.5c-1.1-1.5-2.1-2.8-3.2-4L408.5,385.2z
			 M412,393.3h7.5v-1.8h-6v-1.6h6v-1.7h-6.8v-1.6h6.8v-2.3h1.9v2.3h7.1v1.6h-7.1v1.7h6.5v1.6h-6.5v1.8h7.6v1.6h-17V393.3z
			 M415.9,409.3h-1.8v-12.9h13v9.9c0,1.8-0.9,2.8-2.6,2.8c-0.9,0-2.1,0-3.5,0c-0.1-0.5-0.2-1.2-0.4-2c1.4,0.1,2.5,0.2,3.3,0.2
			c0.9,0,1.3-0.4,1.3-1.3v-1.3h-9.3V409.3z M425.2,398.1h-9.3v1.8h9.3V398.1z M415.9,403.1h9.3v-1.8h-9.3V403.1z"/>
		<path class="st1" d="M440.3,389.3h1.9v2.6c0,2.3-0.2,4.3-0.5,6h1.8v7.4c0,1.1,0.5,1.6,1.6,1.6h3.7c1,0,1.6-0.5,1.8-1.7
			c0.2-1.1,0.3-2.4,0.4-3.9c0.6,0.3,1.3,0.5,1.9,0.7c-0.1,1.6-0.3,2.9-0.5,4c-0.3,1.8-1.4,2.7-3.3,2.7h-4.4c-2,0-3.1-1-3.1-3.1v-6.9
			c-0.4,1.7-0.9,3-1.6,4.1c-1.5,2.5-4.4,4.7-8.8,6.7c-0.3-0.5-0.8-1.1-1.4-1.8c4.1-1.8,6.9-3.8,8.3-6c1.4-2,2.1-5.3,2.1-9.9V389.3z
			 M432.8,385.5H450v15.8h-1.9v-13.9h-13.4v14.1h-1.9V385.5z"/>
		<path class="st1" d="M454.5,391.4v-1.9h9.3v1.8c-0.9,1.8-2,3.5-3.2,5.1v13.1h-1.8v-10.9c-1.3,1.5-2.8,2.9-4.5,4.3
			c-0.3-1-0.5-1.8-0.6-2.2c3.5-2.8,6.2-5.9,8.1-9.3H454.5z M457.6,385.5l1.4-1c0.8,1.1,1.7,2.2,2.5,3.4L460,389
			C459.3,387.8,458.5,386.6,457.6,385.5z M461,397.8l1.1-1.3c1.4,1,2.7,2.1,4.1,3.3l-1.2,1.5C463.7,400,462.3,398.9,461,397.8z
			 M467.3,384.9h1.9v20.3c0,1.1,0.5,1.7,1.6,1.7h2c1.1,0,1.8-0.6,1.9-1.8c0.1-1.2,0.2-2.8,0.3-4.8c0.7,0.3,1.3,0.6,1.9,0.8
			c-0.2,2.4-0.4,4.1-0.5,5.1c-0.3,1.7-1.4,2.6-3.5,2.6h-2.5c-2.1,0-3.1-1.1-3.1-3.3V384.9z"/>
		<path class="st1" d="M477.9,394.5h6.8c0.7-0.9,1.2-1.9,1.7-3h-7.5v-1.7h8.2c0.6-1.6,1.1-3.4,1.4-5.3l1.9,0.4
			c-0.4,1.7-0.9,3.4-1.4,4.8h10.4v1.7h-11c-0.4,1-0.9,2-1.5,3h13.7v1.7h-6.4c1.7,2,3.9,3.3,6.6,3.9c-0.4,0.6-0.9,1.3-1.3,1.9
			c-1.3-0.5-2.6-1.1-3.6-1.9c-0.2,2-0.4,3.8-0.6,5.5c-0.3,2.3-1.5,3.5-3.6,3.5c-0.7,0-2,0-3.8-0.1c-0.1-0.7-0.3-1.4-0.5-2.1
			c1.4,0.1,2.6,0.2,3.8,0.2c1.4,0,2.1-0.6,2.3-1.8c0.1-0.9,0.3-2.3,0.5-3.9h-7c-0.3,2.3-0.9,4-1.9,5.1c-1,1.3-2.9,2.4-5.7,3.3
			c-0.4-0.7-0.7-1.3-1-1.9c2.6-0.7,4.3-1.7,5.3-2.8c0.7-0.9,1.2-2.1,1.4-3.7h-3.2V400c-1,0.8-2,1.5-3.2,2.2
			c-0.3-0.6-0.7-1.1-1.2-1.7c2.3-1.2,4.2-2.7,5.7-4.4h-5.4V394.5z M480.7,386.1l1.3-1.2c1.1,1.1,2.1,2.2,3,3.3l-1.5,1.3
			C482.6,388.4,481.7,387.2,480.7,386.1z M482.4,399.6h12.8c-1.2-0.9-2.2-2.1-3.1-3.4h-6.5C484.7,397.4,483.6,398.6,482.4,399.6z
			 M493,388.5c1-1.2,2-2.4,2.7-3.7l1.6,1.1c-0.9,1.3-1.9,2.5-2.9,3.7L493,388.5z"/>
	</g>
	<rect x="0" y="0" class="st2" width="580.4" height="444.7"/>
</g>
<g>
</g>
<g>
</g>
<g>
</g>
<g>
</g>
<g>
</g>
<g>
</g>
<g>
</g>
<g>
</g>
<g>
</g>
<g>
</g>
<g>
</g>
<g>
</g>
<g>
</g>
<g>
</g>
<g>
</g>
</svg>
