<?xml version="1.0" encoding="utf-8"?>
<!-- Generator: Adobe Illustrator 17.0.0, SVG Export Plug-In . SVG Version: 6.00 Build 0)  -->
<!DOCTYPE svg PUBLIC "-//W3C//DTD SVG 1.1//EN" "http://www.w3.org/Graphics/SVG/1.1/DTD/svg11.dtd">
<svg version="1.1" id="Layer_1" xmlns="http://www.w3.org/2000/svg" xmlns:xlink="http://www.w3.org/1999/xlink" x="0px" y="0px"
	 width="720px" height="158.8px" viewBox="0 0 720 158.8" style="enable-background:new 0 0 720 158.8;" xml:space="preserve">
<style type="text/css">
	.st0{fill:#FFFFFF;}
	.st1{fill:none;}
</style>
<g id="page-02-title.svg">
	<path class="st0" d="M408.9,59.8L408.9,59.8c-2.1-0.3-13.5-0.5-34.2-0.5c-6,0-10.9,0.2-14.7,0.5l0.1-7c1.9,0.3,10,0.5,24.4,0.5
		l11.1,0.1c5.3,0,9.8-0.2,13.3-0.5V59.8z M405,23c-1.2-0.3-10.8-0.4-28.8-0.4c-5.3,0-9.6,0.1-12.8,0.4v-7c1.2,0.3,10.1,0.4,26.9,0.4
		c6.1,0,11-0.1,14.7-0.4V23z M387.5,33.5c5.8,0,10.2-0.1,13.4-0.4V40c-1.3-0.2-7.9-0.3-20-0.3c-5.8,0-10.2,0.1-13.3,0.4v-7
		C370.2,33.4,376.8,33.5,387.5,33.5L387.5,33.5z M464.2,59.3L464.2,59.3c-2-0.2-10.5-0.4-25.5-0.4l-11.4-0.1c-5.5,0-10,0.2-13.7,0.5
		l0.1-6.6c1.3,0.3,8.7,0.4,22.2,0.4v-4.5c-9.7,0-15.7,0.1-18.1,0.4v-6.1c2.9,0.3,8.9,0.4,18.1,0.4v-4.5c-8.6,0-14.4,0.1-17.3,0.4
		c0.3-3.2,0.4-7.4,0.4-12.7c0-5.4-0.2-9.6-0.5-12.8c2,0.3,8.9,0.4,20.8,0.4l8.9,0.1c4.4,0,7.9-0.2,10.6-0.5
		c-0.3,3.3-0.4,7.7-0.4,13.2c0,5.2,0.1,9.3,0.4,12.4c-2.9-0.3-8.7-0.5-17.3-0.5v4.5c9.3,0,15.1-0.1,17.3-0.4v6.1
		c-2.7-0.3-8.5-0.4-17.3-0.4v4.5c13.7,0,21.2-0.1,22.5-0.4V59.3z M435.8,24v-4.5h-11.1V24H435.8z M435.8,33.9v-4.5h-11.1v4.5H435.8z
		 M452.7,19.4h-11.1V24h11.1V19.4z M452.7,33.9v-4.5h-11.1v4.5H452.7z M512.1,49.4c2.2,0.9,4.4,1.8,6.4,2.5V52
		c-0.6,1.4-1.1,2.8-1.7,4.2c-0.6,1.4-1.3,2.5-2,3.4c-0.8,0.9-1.7,1.4-2.8,1.7c-1.1,0.3-1.8,0.5-1.9,0.5l-17.7,0.1
		c-0.6,0-1.4-0.3-2.3-1c-0.9-0.7-1.4-1.8-1.4-3.3l0.1-2.1v-8.3c-8.9,0.1-14.5,0.2-16.8,0.4c0.2-3.4,0.3-6.8,0.3-10.2
		c0-3.6-0.1-7.2-0.4-10.8l7,0.5c-0.3,3.7-0.4,8.7-0.4,14.8l10.2-0.1V23.2c-10.3,0-17.1,0.1-20.6,0.4v-6.1c3.4,0.2,10.2,0.4,20.4,0.4
		c0-2.6-0.1-4.5-0.2-5.8l6.9,0.4c-0.1,1.1-0.1,2.9-0.1,5.3c10.8,0,18-0.1,21.6-0.4v6.2c-4-0.3-11.2-0.4-21.8-0.4
		c0,3.6-0.1,9.8-0.1,18.5l10.3-0.1c-0.1-7.7-0.2-12.9-0.4-15.6l7,0.4c-0.3,3.7-0.4,7.4-0.4,11.1c0,3.7,0.1,7.4,0.4,11.1h-6.6V47
		L495,47.1l-0.1,7.4c0,0.3,0.2,0.7,0.6,1c0.4,0.4,0.7,0.6,0.9,0.6l11.7,0.1c0.9-0.4,1.6-0.9,2.2-1.6
		C511.1,53.8,511.6,52.1,512.1,49.4L512.1,49.4z M573.2,54.2c-1.3,2.5-2.4,5-3.3,7.6c-6.9-3.5-11.6-6.6-14.2-9.5
		c-2.6-2.8-5.3-7.3-8-13.2c-3,9.5-10,17-21,22.6c-1.4-2.2-2.9-4.3-4.4-6.1c12.3-4.5,19.2-13.1,20.8-25.9c-11.5,0-18.2,0.1-20.1,0.4
		v-6.6c2,0.3,8.8,0.4,20.5,0.4c0.1-1.3,0.1-2.6,0.1-4c0-2.8-0.1-5.8-0.4-8.8l6.9,0.8c-0.2,2.1-0.3,6.1-0.4,11.9
		c12.3,0,19.4-0.1,21.4-0.4l-0.1,6.6c-2-0.3-8.9-0.4-20.7-0.4c1.3,5,3.5,9.7,6.7,14.1C560.4,48.2,565.7,51.7,573.2,54.2z
		 M546.9,49.1c1.6,2.6,3.2,5.6,4.9,9l-5.5,3.3c-1.7-4-3.3-7.2-4.7-9.5L546.9,49.1L546.9,49.1z M627,27.7c-1.3-0.3-8.5-0.4-21.7-0.4
		l-0.5,9.4c8.2,0,13.6-0.1,16.4-0.4c-0.4,4.2-0.5,8.6-0.5,13c0,4.2,0.2,8.4,0.5,12.5h-6.5v-1.2h-24v1.2l-6.6,0.1
		c0.3-4.1,0.5-8.3,0.5-12.5c0-4.5-0.2-8.8-0.6-13.1c2.5,0.2,7.1,0.4,13.7,0.4l0.4-9.5c-11.8,0-18.7,0.1-20.6,0.4v-6.6
		c2,0.3,8.9,0.4,20.9,0.4c0.1-4.1,0.1-7.2,0.1-9.5l7.6,0.7l-0.5,8.8c12.2,0,19.3-0.1,21.3-0.4V27.7z M614.6,42.5h-24v12.3h24V42.5z
		 M682,59.3L682,59.3c-2-0.2-10.5-0.4-25.5-0.4l-11.4-0.1c-5.5,0-10,0.2-13.7,0.5l0.1-6.6c1.3,0.3,8.7,0.4,22.2,0.4v-4.5
		c-9.7,0-15.7,0.1-18.1,0.4v-6.1c2.9,0.3,8.9,0.4,18.1,0.4v-4.5c-8.6,0-14.4,0.1-17.3,0.4c0.3-3.2,0.4-7.4,0.4-12.7
		c0-5.4-0.2-9.6-0.5-12.8c2,0.3,8.9,0.4,20.8,0.4l8.9,0.1c4.4,0,7.9-0.2,10.6-0.5c-0.3,3.3-0.4,7.7-0.4,13.2c0,5.2,0.1,9.3,0.4,12.4
		c-2.9-0.3-8.7-0.5-17.3-0.5v4.5c9.3,0,15.1-0.1,17.3-0.4v6.1c-2.7-0.3-8.5-0.4-17.3-0.4v4.5c13.7,0,21.2-0.1,22.5-0.4V59.3z
		 M653.6,24v-4.5h-11.1V24H653.6z M653.6,33.9v-4.5h-11.1v4.5H653.6z M670.5,19.4h-11.1V24h11.1V19.4z M670.5,33.9v-4.5h-11.1v4.5
		H670.5z"/>
	<path class="st0" d="M492.1,112.2L492.1,112.2c-0.9,1.3-1.9,3.1-2.8,5.2c-3.3-1.9-6.4-4.3-9.4-7c0.1,2,0.2,3.6,0.3,4.7l-6.7-0.1
		c0.1-0.8,0.2-2.1,0.3-3.8c-1.8,1.9-3.5,3.4-5,4.7l-3.8-3.3c3.6-2.7,6.1-4.7,7.4-6c-1.1,0-2.8,0.1-5,0.3v-5.7
		c1.9,0.2,4.1,0.4,6.7,0.4v-3.8h-14.2l-0.1,3.8c2.1-0.1,4-0.2,5.8-0.4l-0.1,5.7c-1.5-0.2-2.7-0.3-3.4-0.3l3.5,3.6l-2.9,3.3l-2.7-2.9
		c0.1,2.4,0.2,4.1,0.3,5.3l-6.7,0.1c0.1-0.9,0.2-2.3,0.2-4.2l-5,4.1l-3.8-4.3c2.6-1.4,5.1-3.1,7.5-5.1c-2.1,0.1-4.1,0.2-6.1,0.4
		v-5.6c2.5,0.2,5,0.4,7.6,0.4v-3.8h-10v29.5c0,5.5-1.8,12-5.3,19.4c-1.3-1.2-3.2-3.1-5.7-5.4c1.7-2.7,2.9-5.1,3.6-7.1
		c0.7-2,1.2-4.1,1.4-6.2c0.2-2.1,0.3-6.9,0.3-14.3c0-7.7-0.2-14.9-0.5-21.6c3.5,0.3,11.1,0.5,22.9,0.5l-2.7-3.3l7.9-2.4l3.8,4.7
		l-2,1c12.6,0,20.6-0.2,24-0.5v6.3c-3.3-0.3-7.3-0.4-11.9-0.5v3.7c3.9,0,7.1-0.1,9.5-0.4v5.7c-1.8-0.2-3.9-0.4-6.3-0.4
		c1.9,1.5,3.8,2.8,5.8,4C490.7,111.6,491.9,112.2,492.1,112.2z M471.3,142.6c0,0.3-0.3,0.7-0.9,1.4c-0.6,0.6-1.2,1.1-1.8,1.4
		c-0.6,0.3-1.4,0.6-2.2,0.8c-0.8,0.2-1.9,0.3-3.1,0.5c-1.2,0.1-2.1,0.2-2.5,0.3c-0.7-2.4-1.5-4.7-2.4-6.7c1,0,2.2,0,3.5-0.1
		c1.3-0.1,2.1-0.4,2.3-0.9c0.3-0.5,0.4-0.8,0.4-0.8v-0.9c-11.6,0-18,0.1-19.1,0.4v-5.7c1.1,0.3,7.5,0.4,19.1,0.4l-0.1-2.8
		c-8.7,0-14,0.2-16.2,0.5v-5.7c2.5,0.3,8,0.5,16.2,0.5v-2.1c-4.4,0.1-9.7,0-15.7-0.2c-0.3-1.7-0.8-3.6-1.4-5.7
		c4.5,0.4,9,0.7,13.5,0.7c6.7,0,14.1-0.5,22.1-1.6l3.9,5.7l-15.7,0.9l-0.1,2.4c8.5,0,13.7-0.2,15.8-0.5l-0.1,5.7
		c-2.4-0.3-7.6-0.5-15.6-0.5l-0.1,2.8c12.5,0,19.3-0.1,20.5-0.4l-0.1,5.7c-2.6-0.4-9.4-0.6-20.4-0.6V142.6z M546.6,104.5
		c2.6,1.6,5.9,3.2,10,4.9c-1.4,2.3-2.6,4.5-3.5,6.7c-5.8-2.9-10.3-5.6-13.4-8.1l0.1,6.3c-3.8-0.4-8.1-0.5-12.9-0.5
		c-4.6,0-8.9,0.2-12.9,0.5v-5.2c-2.8,2.4-7.3,5.1-13.2,8.1c-1.4-2.3-2.6-4.2-3.9-5.7c5.3-2,9.2-3.9,11.5-5.7l-4.9-4.3l4.7-4.7
		l4.9,4.2c1.1-1.4,2.5-3.3,4.2-5.7c-7.5,0-12.9,0.2-16.2,0.5l-0.1-7.2c2.5,0.4,10.3,0.5,23.4,0.5l1.4,2.4c-1.6,6-5.1,11.4-10.2,16.1
		l23.6,0.1c-5.1-4.2-9.1-10.4-11.9-18.6l6.7-1.4c0.4,1.6,0.9,3.2,1.7,4.8l4-4.3l4.7,3.8l-5.4,6.1c1,1.2,2,2.3,3.1,3.3l6.6-7.4
		l4.8,4.3L546.6,104.5L546.6,104.5z M555.4,145.4L555.4,145.4c-2.8-0.3-12.5-0.4-28.7-0.4c-16.9,0-26.5,0.1-28.9,0.4v-7.1
		c2.6,0.2,8.5,0.4,17.8,0.4l-3.1-4.3l2.8-1.8c-3.6,0.1-6.3,0.2-8.1,0.4c0.4-3.5,0.5-6.1,0.5-8.1c0-1.9-0.2-4.6-0.5-8.1
		c2.6,0.3,11.3,0.4,25.9,0.4c5.7,0,10.3-0.1,13.7-0.4c-0.3,3.5-0.5,6.1-0.5,8.1c0,1.5,0.1,4.1,0.4,8.1c-1.9-0.2-4.9-0.3-8.7-0.4
		l2.1,1.3l-2.9,4.7c9.7,0,15.7-0.2,18.1-0.4V145.4z M539.8,127.4v-4.7h-25.2v4.7H539.8z M533.6,132.6H519l3.6,4.7l-1.9,1.4h11.7
		l-2.1-1.4L533.6,132.6z M617.9,104.1c-1.4-0.2-9.6-0.4-24.7-0.5l-0.1,7.1c8.8,0,15.2-0.1,19.1-0.4c-0.3,4.6-0.5,10.6-0.5,18.2
		l0.1,5.1c0,1.9-0.2,3.5-0.7,4.6c-0.5,1.1-1.8,1.9-4,2.4c-2.2,0.5-4.3,0.7-6.3,0.6c-0.3-2.1-0.9-4.4-1.8-7.1l2.4,0.1
		c1.1,0,1.9-0.2,2.4-0.6c0.6-0.4,0.8-0.7,0.8-1v-15.7h-11.5v11.8c0,7.3,0.2,13.1,0.5,17.6l-8.1,0.1c0.3-4.4,0.5-10.3,0.5-17.6v-11.9
		h-11.4v23.7H567c0.4-5,0.5-9.9,0.5-14.9c0-5.3-0.2-10.4-0.6-15.5c3.8,0.3,10.1,0.4,19,0.5v-7.1c-13.2,0-21.5,0.1-24.7,0.4V97
		c2.7,0.3,11.9,0.4,27.6,0.4l-6.7-6.7l6.7-3.3l6.7,5.7l-4.7,4.2c15.9,0,24.9-0.1,27-0.4V104.1z M663.2,132.1
		c6,3.9,12.2,6.8,18.7,8.6v0.1c-1.6,1.9-3,3.9-4.2,6.1c-7.1-2.3-14.1-6.2-20.9-11.7c0.1,5.4,0.2,9.2,0.4,11.3h-7.6
		c0.2-2.1,0.3-5.3,0.4-9.5c-7.2,4.5-14.6,7.8-22.3,10c-1.2-2.1-2.6-4.4-4.2-6.7c8.9-1.6,16-4.3,21.2-8c-10.9,0-17.7,0.1-20.3,0.4
		v-6.7c1.5,0.3,10.1,0.5,25.7,0.5v-2.8h-9.5v1.4l-7.6,0.1c0.3-2.2,0.5-9.7,0.5-22.7c-2.3,2-4.7,4-7.1,5.9c-1-2.9-2.1-5.3-3.4-7.1
		c5.2-3.1,10.6-7.8,16.2-14.3l6.7,3.3l-4.8,4.8h11.3c-1.6-2.5-2.8-4.4-3.7-5.7l6.6-2.8c1.3,2,2.7,4.3,4.3,7l-2,1.4
		c11.3,0,18.1-0.2,20.6-0.4v6.6c-1-0.2-7.7-0.3-20-0.3v2.2c9.5,0,15.3-0.2,17.6-0.4v6.2c-2.3-0.2-8.2-0.3-17.6-0.4v2.3
		c9.5,0,15.3-0.2,17.6-0.4v6.1c-2.3-0.2-8.2-0.3-17.6-0.4v2.3c11.2,0,18.1-0.2,20.5-0.5l0.1,6.2c-1.7-0.2-9-0.4-21.9-0.4l-0.1,2.8
		c13.9,0,22.1-0.2,24.8-0.5v6.7C678.8,132.4,672.7,132.2,663.2,132.1L663.2,132.1z M651.4,103.2v-2.3h-11.3v2.3L651.4,103.2z
		 M651.4,110.8v-2.3l-11.2-0.1v2.4L651.4,110.8z M651.4,118.4v-2.3l-11.1-0.1l0.1,2.4H651.4z"/>
	<rect y="0" class="st1" width="720" height="158.8"/>
</g>
<g>
</g>
<g>
</g>
<g>
</g>
<g>
</g>
<g>
</g>
<g>
</g>
<g>
</g>
<g>
</g>
<g>
</g>
<g>
</g>
<g>
</g>
<g>
</g>
<g>
</g>
<g>
</g>
<g>
</g>
</svg>
