<?xml version="1.0" encoding="utf-8"?>
<!-- Generator: Adobe Illustrator 17.0.0, SVG Export Plug-In . SVG Version: 6.00 Build 0)  -->
<!DOCTYPE svg PUBLIC "-//W3C//DTD SVG 1.1//EN" "http://www.w3.org/Graphics/SVG/1.1/DTD/svg11.dtd">
<svg version="1.1" id="Layer_1" xmlns="http://www.w3.org/2000/svg" xmlns:xlink="http://www.w3.org/1999/xlink" x="0px" y="0px"
	 width="720px" height="420px" viewBox="0 0 720 420" style="enable-background:new 0 0 720 420;" xml:space="preserve">
<style type="text/css">
	.st0{fill:#FFFFFF;}
	.st1{fill-rule:evenodd;clip-rule:evenodd;fill:#FFAFD7;}
	.st2{fill-rule:evenodd;clip-rule:evenodd;fill:#D769A0;}
	.st3{fill:none;}
</style>
<g id="page-huodong-2.svg">
	<path class="st0" d="M478.7,105.4h23.1v2.1h-23.1V105.4z M480.2,87h20v2.2h-20V87z M481.3,95.7h17.9v2.2h-17.9V95.7z M502.9,106.3
		h10.8V103h-9.4v-1.8h9.4v-3.3h-6.6v0.9h-1.9v-13h18.9v13h-1.9v-0.9h-6.7v3.3h9.4v1.8h-9.4v3.3h11v1.8h-23.7V106.3z M507.1,91h6.6
		v-3.4h-6.6V91z M507.1,96.2h6.6v-3.4h-6.6V96.2z M522.3,87.6h-6.7V91h6.7V87.6z M515.6,96.2h6.7v-3.4h-6.7V96.2z M546.5,101.4v-1.3
		h-6.4v4.4c0,1.5,0.6,2.2,1.8,2.2h4.3c1.4,0,2.2-0.6,2.4-1.9c0.2-1,0.3-2.3,0.5-3.9c0.7,0.3,1.3,0.6,2,0.8c-0.2,1.7-0.5,3.1-0.7,4
		c-0.4,1.9-1.7,2.8-3.8,2.8h-5.2c-2.1,0-3.1-1.2-3.1-3.6v-5H530v-8.5h1.8v6.6h6.4v-8.4h-10v-1.9h10v-3.4h1.8v3.4h10.1v1.9h-10.1v8.4
		h6.4v-6.6h1.8v9.8H546.5z M553.1,109.4c-0.3-0.4-0.8-1.1-1.5-1.9c6.2-3.6,9.7-8.5,10.5-14.8h-10.1v-2h10.2c0.1-1.7,0.1-3.8,0.1-6.2
		h2.1c0,2.2,0,4.2-0.1,6.2H575v2h-10.5c1.7,6.9,5.3,11.6,10.9,14.1c-0.8,0.8-1.3,1.5-1.7,2c-5.1-3.1-8.5-7.6-10.1-13.5
		C562.2,101.2,558.7,105.8,553.1,109.4L553.1,109.4z M564,108.2c-1-1.3-2.1-2.7-3.2-4.1l1.5-1.3c1.1,1.3,2.3,2.6,3.4,3.9L564,108.2
		L564,108.2z M579.3,96.7h7.6v-5.4h-10.7v-1.9h10.7v-4.8h2v4.8h11v1.9h-11v5.4h7.9v12.6h-1.9v-1.8h-13.6v1.8h-1.9V96.7z M594.8,98.6
		h-13.6v7.1h13.6V98.6z M600.6,106.3h10.8V103H602v-1.8h9.4v-3.3h-6.6v0.9h-1.9v-13h18.9v13H620v-0.9h-6.7v3.3h9.4v1.8h-9.4v3.3h11
		v1.8h-23.7V106.3z M604.8,91h6.6v-3.4h-6.6V91z M604.8,96.2h6.6v-3.4h-6.6V96.2z M620,87.6h-6.7V91h6.7V87.6z M613.4,96.2h6.7v-3.4
		h-6.7V96.2z M624.9,104.8c2.1-0.8,4.5-1.8,7.4-3v-8h-6.9v-1.9h6.9v-7.1h1.9v24.4h-1.9v-5.3c-1.5,0.7-3.7,1.6-6.6,2.9L624.9,104.8z
		 M639,84.7h1.9v8.6c2.2-1.2,4.2-2.5,6.1-3.9l1.2,1.8c-1.7,1.2-4.1,2.6-7.3,4.2v9.3c0,1.2,0.6,1.7,1.8,1.7h1.7
		c1.1,0,1.8-0.6,1.9-1.7c0.1-1.1,0.3-2.5,0.4-4.2c0.7,0.3,1.4,0.6,2,0.8c-0.2,1.6-0.3,3-0.5,4.1c-0.3,1.9-1.4,2.9-3.4,2.9h-2.6
		c-2.2,0-3.3-1.1-3.3-3.4V84.7z M651.4,86.3h20.5v2h-18.5V106h18.9v1.9h-20.9V86.3z M661.4,97c-2-2-4.1-4-6.2-6l1.3-1.3
		c2,1.7,4.1,3.7,6.2,5.7c1.7-1.9,3.3-4,4.8-6.2l1.7,1.2c-1.7,2.3-3.4,4.4-5.1,6.4c2,1.9,4,4,6.2,6.2l-1.6,1.8
		c-1.9-2.1-3.9-4.3-5.9-6.3c-2.3,2.5-4.6,4.7-7,6.6c-0.4-0.5-0.9-1.1-1.5-1.7C656.8,101.5,659.1,99.4,661.4,97L661.4,97z"/>
	<polygon class="st1" points="0,328.5 241,117 107.7,0 0,0 	"/>
	<polygon class="st2" points="0,306.7 240,96 130.6,0 0,0 	"/>
	<path class="st0" d="M44.7,88.3V64.9c-1.2,0.6-2.4,1.1-3.6,1.6c-1.4-2.8-2.7-5-3.7-6.7c5.9-1.5,11.3-3.7,16.2-6.6H39.2v-5.6h20.4
		v-3.7c-5.4,0.2-11,0.4-16.7,0.5c-0.3-1.9-0.7-3.8-1.1-5.8c15.5-0.3,29.2-0.9,41.3-1.8l1.3,5.6c-5.7,0.5-11.7,0.8-17.8,1.2v4h20.6
		v5.6H72.5c4.8,2.7,10.3,4.6,16.5,5.7c-1.3,2.2-2.5,4.5-3.5,6.8c-1.3-0.4-2.6-0.9-3.8-1.4v24.1h-6.9v-2.2H51.6v2.2H44.7z
		 M66.8,133.5c4,6,11.5,9.4,22.2,10.3c-1.3,1.8-2.3,3.3-3,4.4c-11.4-2.3-18.9-6.9-22.7-13.8c-3.4,7.3-11.1,12-23.3,14.2
		c-0.7-1.2-1.5-2.5-2.5-4c11.6-1.6,18.9-5.4,21.9-11.1H38.6v-3.6h22.2c0.3-1.2,0.6-2.7,0.8-4.2h4.3c-0.3,1.6-0.6,3-0.9,4.2h23.1v3.6
		H66.8L66.8,133.5z M37.9,120.8h23.3v-5h-19v-3.6h19v-4.9H39v-3.6h16.4c-1.8-1.6-4.1-3.5-6.9-5.7l2.4-2.7c3,2.1,5.5,3.9,7.5,5.5
		l-2.7,2.9h13.8l-1.9-2.2c2.7-1.9,5.2-3.9,7.4-5.9l3.1,3c-2.2,1.7-4.6,3.4-7.2,5.1h16.9v3.6H65.4v4.9h19.4v3.6H65.4v5h23.2v3.6H37.9
		V120.8z M59.7,54.9c-3.4,3.1-7.2,5.9-11.6,8.2h31c-4.8-2.2-8.9-5.1-12.4-8.4v7.1h-7.1V54.9L59.7,54.9z M74.8,68.7H51.6V72h23.1
		V68.7z M51.6,80.5h23.1v-3.3H51.6V80.5z M94.4,110.8c3.5,2.6,6.5,5,9,7.2l-3,3.5c-2.9-2.7-5.8-5.3-8.6-7.6L94.4,110.8z M93.5,145.6
		c2.5-6.2,4.5-12.7,6.1-19.4c1.4,0.8,2.8,1.6,4.1,2.1c-2.1,7-4.1,13.5-5.9,19.4L93.5,145.6L93.5,145.6z M93.9,41.2h13.5v37.4h-8.2
		v4.5h-5.3V41.2z M96.9,97.1c2.7,2.2,5.7,4.7,9,7.5l-3.1,3.4c-3.1-3-5.9-5.7-8.6-8L96.9,97.1z M102.1,72.6V47.2h-2.9v25.4H102.1z
		 M110.7,36.4h5.7l-0.1,7.7h8.5v36c0,2.2-0.4,3.8-1.3,4.9c-0.9,1.1-2,1.7-3.5,1.8c-1.5,0.1-3.2,0.1-5.3,0.1
		c-0.5-2.6-0.9-4.8-1.4-6.6c-1,3.1-2.2,5.9-3.6,8.4c-1.4-1.2-3.2-2.4-5.2-3.7c1.5-2.4,2.7-5.2,3.7-8.3c0.9-3.1,1.6-6.3,1.9-9.6
		c0.3-3.3,0.5-8.7,0.5-16.4h-1.9v-6.6h2L110.7,36.4z M107.2,109.4h9.9v-7H106v-3.7h37.1v3.7h-12.5v7h10.2v39H137v-3h-26.1v3h-3.7
		V109.4z M132.5,126.7c-3.8,0-5.7-2-5.7-6.1V113h-6v1c0,6.5-2.5,11.7-7.5,15.3c-0.6-0.8-1.4-1.8-2.4-2.8v4.9H137v-4.8H132.5
		L132.5,126.7z M110.9,126.1c4.1-2.9,6.2-6.9,6.2-12.3V113h-6.2V126.1z M110.9,141.8H137v-6.7h-26.1V141.8z M119.2,50.8h-3l-0.1,9.5
		c-0.1,3.8-0.3,7.4-0.8,10.7c-0.4,3.4-1.1,6.4-2,9.3c1.5,0.1,2.5,0.1,3.1,0.1c1.8,0,2.7-1,2.7-2.9V50.8z M120.8,109.4h6v-7h-6V109.4
		z M127.4,86.2V41.4h14V86h-5.6v-3.8H133v3.9H127.4z M130.6,120c0,1.8,0.9,2.7,2.8,2.7c0.8,0,2,0,3.6,0V113h-6.4V120L130.6,120z
		 M135.8,48.2H133v27.2h2.8V48.2z"/>
	<rect class="st3" width="720" height="420"/>
</g>
<g>
</g>
<g>
</g>
<g>
</g>
<g>
</g>
<g>
</g>
<g>
</g>
<g>
</g>
<g>
</g>
<g>
</g>
<g>
</g>
<g>
</g>
<g>
</g>
<g>
</g>
<g>
</g>
<g>
</g>
</svg>
