<svg xmlns="http://www.w3.org/2000/svg" width="640" height="247.8" viewBox="0 0 640 247.8"><style type="text/css">.st0{fill:none;} .st1{fill:#B3B3B3;}</style><g id="placeholder.svg"><path class="st0" d="M0 0h640v247.8h-640z"/><path class="st1" d="M148.7 121.6c0-4.4-.1-8-.3-11.2h5.6l.3 5.9h.1c2.6-4.2 6.6-6.7 12.2-6.7 8.3 0 14.6 7 14.6 17.5 0 12.4-7.5 18.5-15.7 18.5-4.6 0-8.5-2-10.6-5.4h-.1v18.7h-6.2v-37.3zm6.2 9.2c0 .9.1 1.8.3 2.6 1.1 4.3 4.9 7.3 9.4 7.3 6.6 0 10.5-5.4 10.5-13.3 0-6.9-3.6-12.8-10.2-12.8-4.3 0-8.3 3.1-9.5 7.8-.2.8-.4 1.7-.4 2.6v5.8zM189.2 94.3h6.3v50.5h-6.3v-50.5zM225 144.8l-.5-4.3h-.2c-1.9 2.7-5.6 5.1-10.5 5.1-7 0-10.5-4.9-10.5-9.9 0-8.3 7.4-12.9 20.7-12.8v-.7c0-2.8-.8-8-7.8-8-3.2 0-6.5 1-9 2.6l-1.4-4.1c2.8-1.9 7-3.1 11.3-3.1 10.5 0 13.1 7.2 13.1 14.1v12.9c0 3 .1 5.9.6 8.3h-5.8zm-.9-17.6c-6.8-.1-14.6 1.1-14.6 7.8 0 4.1 2.7 6 5.9 6 4.5 0 7.3-2.8 8.3-5.8.2-.6.4-1.4.4-2v-6zM264.8 143.5c-1.6.9-5.3 2-9.9 2-10.4 0-17.1-7-17.1-17.6 0-10.6 7.3-18.3 18.5-18.3 3.7 0 7 .9 8.7 1.8l-1.4 4.8c-1.5-.9-3.8-1.6-7.3-1.6-7.9 0-12.2 5.8-12.2 13 0 8 5.1 12.9 12 12.9 3.6 0 5.9-.9 7.7-1.7l1 4.7zM275.2 128.7c.1 8.5 5.5 12 11.8 12 4.5 0 7.2-.8 9.5-1.8l1.1 4.5c-2.2 1-6 2.1-11.5 2.1-10.6 0-16.9-7-16.9-17.4s6.1-18.6 16.2-18.6c11.2 0 14.2 9.9 14.2 16.2 0 1.3-.1 2.3-.2 2.9h-24.2zm18.3-4.5c.1-4-1.6-10.2-8.7-10.2-6.3 0-9.1 5.8-9.6 10.2h18.3zM307.3 94.3h6.3v21.5h.1c1-1.8 2.6-3.3 4.5-4.4 1.9-1.1 4.1-1.8 6.4-1.8 4.6 0 12 2.8 12 14.7v20.5h-6.3v-19.8c0-5.5-2.1-10.2-8-10.2-4.1 0-7.3 2.8-8.4 6.3-.4.9-.4 1.8-.4 3v20.8h-6.3v-50.6zM378 127.3c0 12.7-8.8 18.3-17.1 18.3-9.3 0-16.5-6.8-16.5-17.7 0-11.5 7.5-18.3 17.1-18.3 9.8 0 16.5 7.2 16.5 17.7zm-27.3.4c0 7.5 4.3 13.2 10.5 13.2 6 0 10.5-5.6 10.5-13.4 0-5.8-2.9-13.2-10.3-13.2-7.5 0-10.7 6.8-10.7 13.4zM385.9 94.3h6.3v50.5h-6.3v-50.5zM432.4 94.3v41.6c0 3.1.1 6.5.3 8.9h-5.6l-.3-6h-.1c-1.9 3.8-6.1 6.8-11.7 6.8-8.3 0-14.7-7-14.7-17.5-.1-11.5 7-18.5 15.4-18.5 5.3 0 8.8 2.5 10.4 5.3h.1v-20.6h6.2zm-6.2 30.1c0-.8-.1-1.9-.3-2.6-.9-4-4.3-7.3-9-7.3-6.5 0-10.3 5.7-10.3 13.3 0 7 3.4 12.7 10.2 12.7 4.2 0 8-2.8 9.2-7.5.2-.9.3-1.7.3-2.7v-5.9zM446.3 128.7c.1 8.5 5.5 12 11.8 12 4.5 0 7.2-.8 9.5-1.8l1.1 4.5c-2.2 1-6 2.1-11.5 2.1-10.6 0-16.9-7-16.9-17.4s6.1-18.6 16.2-18.6c11.2 0 14.2 9.9 14.2 16.2 0 1.3-.1 2.3-.2 2.9h-24.2zm18.4-4.5c.1-4-1.6-10.2-8.7-10.2-6.3 0-9.1 5.8-9.6 10.2h18.3zM478.5 121.1c0-4.1-.1-7.5-.3-10.7h5.5l.2 6.8h.3c1.6-4.6 5.3-7.5 9.5-7.5.7 0 1.2.1 1.8.2v5.9c-.6-.1-1.3-.2-2.1-.2-4.4 0-7.5 3.3-8.4 8-.1.9-.3 1.9-.3 2.9v18.4h-6.2v-23.8z"/></g></svg>